<svg width="30" height="31" viewBox="0 0 30 31" fill="none" xmlns="http://www.w3.org/2000/svg">
<mask id="mask0_7637_270" style="mask-type:alpha" maskUnits="userSpaceOnUse" x="0" y="0" width="30" height="31">
<rect y="0.0605469" width="30" height="30" fill="#D9D9D9"/>
</mask>
<g mask="url(#mask0_7637_270)">
</g>
<path d="M25.8562 6.35429L19.6625 3.85429C19.606 3.8333 19.5473 3.81863 19.4875 3.81054C19.4503 3.80436 19.4122 3.80436 19.375 3.81054C19.3191 3.80144 19.2621 3.80144 19.2062 3.81054H19.1562L10.6625 6.31054L4.60625 3.85429C4.51139 3.81651 4.40871 3.80254 4.30721 3.81362C4.2057 3.82469 4.10845 3.86047 4.02397 3.91782C3.93949 3.97517 3.87034 4.05235 3.82258 4.1426C3.77482 4.23285 3.7499 4.33343 3.75 4.43554V23.1855C3.74988 23.3107 3.78735 23.433 3.85755 23.5367C3.92775 23.6403 4.02746 23.7205 4.14375 23.7668L10.3313 26.2668H10.3937C10.4331 26.2732 10.4732 26.2732 10.5125 26.2668C10.5471 26.2879 10.5852 26.3027 10.625 26.3105C10.6809 26.3196 10.7379 26.3196 10.7938 26.3105H10.8313L19.3375 23.8793L25.3938 26.3043C25.4697 26.3217 25.5483 26.3238 25.625 26.3105C25.7908 26.3105 25.9497 26.2447 26.0669 26.1275C26.1842 26.0103 26.25 25.8513 26.25 25.6855V6.93554C26.2501 6.81036 26.2127 6.68803 26.1424 6.5844C26.0722 6.48077 25.9725 6.4006 25.8562 6.35429ZM7.0375 18.648C7.1091 18.4991 7.23674 18.3847 7.39251 18.3296C7.54827 18.2746 7.7195 18.2834 7.86875 18.3543C8.59777 18.7072 9.35708 18.9938 10.1375 19.2105C10.2173 19.2316 10.2921 19.2682 10.3577 19.3183C10.4233 19.3684 10.4783 19.431 10.5195 19.5025C10.5608 19.5739 10.5875 19.6529 10.5981 19.7347C10.6087 19.8165 10.603 19.8997 10.5813 19.9793C10.5446 20.1156 10.4629 20.2356 10.3494 20.3196C10.2359 20.4035 10.0974 20.4466 9.95625 20.4418H9.79375C8.93331 20.2043 8.09647 19.8884 7.29375 19.498C7.22085 19.4593 7.15634 19.4066 7.10394 19.3428C7.05155 19.279 7.01231 19.2055 6.98848 19.1264C6.96466 19.0474 6.95672 18.9644 6.96514 18.8823C6.97355 18.8002 6.99814 18.7206 7.0375 18.648ZM18.6938 10.1293C19.4312 10.0605 20 10.0605 20 10.0605C20.1658 10.0605 20.3247 10.1264 20.4419 10.2436C20.5592 10.3608 20.625 10.5198 20.625 10.6855C20.625 10.8513 20.5592 11.0103 20.4419 11.1275C20.3247 11.2447 20.1658 11.3105 20 11.3105C20 11.3105 19.4875 11.3105 18.8062 11.373H18.75C18.5842 11.3805 18.4223 11.3218 18.2998 11.2099C18.1773 11.0979 18.1043 10.9419 18.0969 10.7762C18.0894 10.6104 18.1481 10.4485 18.26 10.326C18.372 10.2035 18.528 10.1305 18.6938 10.123V10.1293ZM15.8875 15.6855C15.8046 15.5413 15.7824 15.3701 15.8258 15.2095C15.8692 15.0489 15.9745 14.9122 16.1188 14.8293C16.263 14.7464 16.4342 14.7242 16.5948 14.7676C16.7553 14.8109 16.8921 14.9163 16.975 15.0605C17.3278 15.6255 17.5321 16.2705 17.5688 16.9355C17.5676 17.3068 17.4866 17.6734 17.3312 18.0105C17.282 18.1202 17.2021 18.2133 17.1012 18.2787C17.0003 18.3441 16.8827 18.379 16.7625 18.3793C16.6713 18.3796 16.5813 18.3581 16.5 18.3168C16.3505 18.2474 16.2344 18.1218 16.1771 17.9673C16.1197 17.8128 16.1257 17.6419 16.1938 17.4918C16.2777 17.3185 16.3205 17.1281 16.3188 16.9355C16.2808 16.4896 16.1326 16.06 15.8875 15.6855ZM15.7125 12.9668C15.7717 13.121 15.7675 13.2923 15.7007 13.4434C15.634 13.5945 15.5101 13.713 15.3562 13.773C15.2849 13.8026 15.2084 13.8175 15.1312 13.8168C15.0053 13.8164 14.8825 13.778 14.7788 13.7067C14.6751 13.6353 14.5953 13.5342 14.55 13.4168C14.4366 13.1455 14.3771 12.8546 14.375 12.5605C14.375 11.9918 14.6625 11.2043 16.0125 10.6855C16.0892 10.6556 16.1711 10.641 16.2535 10.6427C16.3359 10.6444 16.4171 10.6623 16.4925 10.6954C16.568 10.7285 16.6362 10.7761 16.6932 10.8355C16.7503 10.895 16.795 10.965 16.825 11.0418C16.855 11.1185 16.8695 11.2004 16.8678 11.2828C16.8661 11.3651 16.8482 11.4464 16.8151 11.5218C16.7821 11.5973 16.7345 11.6655 16.675 11.7225C16.6156 11.7795 16.5455 11.8243 16.4688 11.8543C16.15 11.973 15.625 12.2293 15.625 12.5668C15.6323 12.6979 15.6619 12.8268 15.7125 12.948V12.9668ZM15.2313 20.0418C14.3898 20.4915 13.4539 20.7357 12.5 20.7543C12.3342 20.7543 12.1753 20.6884 12.0581 20.5712C11.9408 20.454 11.875 20.295 11.875 20.1293C11.875 19.9635 11.9408 19.8046 12.0581 19.6873C12.1753 19.5701 12.3342 19.5043 12.5 19.5043C13.2538 19.4835 13.9922 19.2866 14.6562 18.9293C14.7281 18.8882 14.8073 18.8618 14.8893 18.8513C14.9714 18.8409 15.0547 18.8467 15.1345 18.8685C15.2143 18.8903 15.289 18.9275 15.3544 18.9782C15.4198 19.0288 15.4746 19.0918 15.5156 19.1637C15.5567 19.2355 15.5832 19.3147 15.5936 19.3967C15.604 19.4788 15.5982 19.5621 15.5764 19.6419C15.5547 19.7217 15.5174 19.7964 15.4667 19.8618C15.4161 19.9272 15.3531 19.982 15.2812 20.023L15.2313 20.0418ZM23.825 11.1293C23.9414 11.2464 24.0067 11.4048 24.0067 11.5699C24.0067 11.735 23.9414 11.8934 23.825 12.0105C23.7079 12.1269 23.5495 12.1923 23.3844 12.1923C23.2193 12.1923 23.0609 12.1269 22.9437 12.0105L22.5 11.5668L22.0563 12.0105C21.9391 12.1269 21.7807 12.1923 21.6156 12.1923C21.4505 12.1923 21.2921 12.1269 21.175 12.0105C21.0586 11.8934 20.9933 11.735 20.9933 11.5699C20.9933 11.4048 21.0586 11.2464 21.175 11.1293L21.6187 10.6855L21.175 10.2418C21.0726 10.1222 21.0191 9.96842 21.0252 9.81113C21.0313 9.65383 21.0965 9.50462 21.2078 9.39331C21.3191 9.282 21.4683 9.21679 21.6256 9.21072C21.7829 9.20464 21.9367 9.25814 22.0563 9.36054L22.5 9.80429L22.9437 9.36054C23.0633 9.25814 23.2171 9.20464 23.3744 9.21072C23.5317 9.21679 23.6809 9.282 23.7922 9.39331C23.9035 9.50462 23.9687 9.65383 23.9748 9.81113C23.9809 9.96842 23.9274 10.1222 23.825 10.2418L23.3813 10.6855L23.825 11.1293ZM5.7375 17.1355C5.85117 17.209 5.93794 17.3173 5.98478 17.4442C6.03162 17.5712 6.03598 17.7099 5.99723 17.8395C5.95848 17.9692 5.87869 18.0828 5.76987 18.1632C5.66105 18.2436 5.52906 18.2865 5.39375 18.2855C5.27187 18.2864 5.15238 18.2517 5.05 18.1855H5V16.623C5.1625 16.748 5.41875 16.9355 5.7375 17.1355Z" fill="#E0BF62"/>
</svg>
