<svg width="30" height="31" viewBox="0 0 30 31" fill="none" xmlns="http://www.w3.org/2000/svg">
<mask id="mask0_7635_165" style="mask-type:alpha" maskUnits="userSpaceOnUse" x="0" y="0" width="30" height="31">
<rect y="0.5" width="30" height="30" fill="#D9D9D9"/>
</mask>
<g mask="url(#mask0_7635_165)">
</g>
<path d="M25.8562 6.79375L19.6625 4.29375C19.606 4.27276 19.5473 4.25809 19.4875 4.25C19.4503 4.24382 19.4122 4.24382 19.375 4.25C19.3191 4.2409 19.2621 4.2409 19.2062 4.25H19.1562L10.6625 6.75L4.60625 4.29375C4.51139 4.25597 4.40871 4.242 4.30721 4.25308C4.2057 4.26415 4.10845 4.29993 4.02397 4.35728C3.93949 4.41463 3.87034 4.49181 3.82258 4.58206C3.77482 4.67231 3.7499 4.77289 3.75 4.875V23.625C3.74988 23.7502 3.78735 23.8725 3.85755 23.9761C3.92775 24.0798 4.02746 24.1599 4.14375 24.2062L10.3313 26.7062H10.3937C10.4331 26.7127 10.4732 26.7127 10.5125 26.7062C10.5471 26.7274 10.5852 26.7422 10.625 26.75C10.6809 26.7591 10.7379 26.7591 10.7938 26.75H10.8313L19.3375 24.3187L25.3938 26.7437C25.4697 26.7611 25.5483 26.7633 25.625 26.75C25.7908 26.75 25.9497 26.6841 26.0669 26.5669C26.1842 26.4497 26.25 26.2908 26.25 26.125V7.375C26.2501 7.24982 26.2127 7.1275 26.1424 7.02386C26.0722 6.92023 25.9725 6.84006 25.8562 6.79375ZM7.0375 19.0875C7.1091 18.9386 7.23674 18.8241 7.39251 18.7691C7.54827 18.714 7.7195 18.7229 7.86875 18.7937C8.59777 19.1467 9.35708 19.4332 10.1375 19.65C10.2173 19.671 10.2921 19.7076 10.3577 19.7577C10.4233 19.8079 10.4783 19.8704 10.5195 19.9419C10.5608 20.0134 10.5875 20.0923 10.5981 20.1742C10.6087 20.256 10.603 20.3391 10.5813 20.4187C10.5446 20.5551 10.4629 20.675 10.3494 20.759C10.2359 20.843 10.0974 20.8861 9.95625 20.8812H9.79375C8.93331 20.6438 8.09647 20.3279 7.29375 19.9375C7.22085 19.8988 7.15634 19.846 7.10394 19.7822C7.05155 19.7185 7.01231 19.6449 6.98848 19.5659C6.96466 19.4869 6.95672 19.4039 6.96514 19.3218C6.97355 19.2397 6.99814 19.1601 7.0375 19.0875ZM18.6938 10.5687C19.4312 10.5 20 10.5 20 10.5C20.1658 10.5 20.3247 10.5658 20.4419 10.6831C20.5592 10.8003 20.625 10.9592 20.625 11.125C20.625 11.2908 20.5592 11.4497 20.4419 11.5669C20.3247 11.6841 20.1658 11.75 20 11.75C20 11.75 19.4875 11.75 18.8062 11.8125H18.75C18.5842 11.82 18.4223 11.7613 18.2998 11.6493C18.1773 11.5374 18.1043 11.3814 18.0969 11.2156C18.0894 11.0499 18.1481 10.8879 18.26 10.7654C18.372 10.643 18.528 10.57 18.6938 10.5625V10.5687ZM15.8875 16.125C15.8046 15.9808 15.7824 15.8096 15.8258 15.649C15.8692 15.4884 15.9745 15.3516 16.1188 15.2687C16.263 15.1859 16.4342 15.1637 16.5948 15.207C16.7553 15.2504 16.8921 15.3558 16.975 15.5C17.3278 16.0649 17.5321 16.7099 17.5688 17.375C17.5676 17.7462 17.4866 18.1128 17.3312 18.45C17.282 18.5597 17.2021 18.6528 17.1012 18.7182C17.0003 18.7836 16.8827 18.8185 16.7625 18.8187C16.6713 18.819 16.5813 18.7976 16.5 18.7562C16.3505 18.6869 16.2344 18.5613 16.1771 18.4068C16.1197 18.2523 16.1257 18.0814 16.1938 17.9312C16.2777 17.7579 16.3205 17.5676 16.3188 17.375C16.2808 16.929 16.1326 16.4995 15.8875 16.125ZM15.7125 13.4062C15.7717 13.5604 15.7675 13.7318 15.7007 13.8829C15.634 14.0339 15.5101 14.1524 15.3562 14.2125C15.2849 14.242 15.2084 14.2569 15.1312 14.2562C15.0053 14.2559 14.8825 14.2175 14.7788 14.1461C14.6751 14.0747 14.5953 13.9737 14.55 13.8562C14.4366 13.5849 14.3771 13.2941 14.375 13C14.375 12.4312 14.6625 11.6437 16.0125 11.125C16.0892 11.095 16.1711 11.0805 16.2535 11.0822C16.3359 11.0839 16.4171 11.1018 16.4925 11.1348C16.568 11.1679 16.6362 11.2155 16.6932 11.275C16.7503 11.3344 16.795 11.4045 16.825 11.4812C16.855 11.558 16.8695 11.6399 16.8678 11.7222C16.8661 11.8046 16.8482 11.8858 16.8151 11.9613C16.7821 12.0367 16.7345 12.1049 16.675 12.162C16.6156 12.219 16.5455 12.2638 16.4688 12.2937C16.15 12.4125 15.625 12.6687 15.625 13.0062C15.6323 13.1374 15.6619 13.2663 15.7125 13.3875V13.4062ZM15.2313 20.4812C14.3898 20.931 13.4539 21.1752 12.5 21.1937C12.3342 21.1937 12.1753 21.1279 12.0581 21.0107C11.9408 20.8935 11.875 20.7345 11.875 20.5687C11.875 20.403 11.9408 20.244 12.0581 20.1268C12.1753 20.0096 12.3342 19.9437 12.5 19.9437C13.2538 19.923 13.9922 19.7261 14.6562 19.3687C14.7281 19.3277 14.8073 19.3012 14.8893 19.2908C14.9714 19.2804 15.0547 19.2862 15.1345 19.308C15.2143 19.3297 15.289 19.367 15.3544 19.4176C15.4198 19.4683 15.4746 19.5313 15.5156 19.6031C15.5567 19.6749 15.5832 19.7541 15.5936 19.8362C15.604 19.9182 15.5982 20.0015 15.5764 20.0814C15.5547 20.1611 15.5174 20.2359 15.4667 20.3013C15.4161 20.3667 15.3531 20.4215 15.2812 20.4625L15.2313 20.4812ZM23.825 11.5687C23.9414 11.6858 24.0067 11.8443 24.0067 12.0094C24.0067 12.1745 23.9414 12.3329 23.825 12.45C23.7079 12.5664 23.5495 12.6317 23.3844 12.6317C23.2193 12.6317 23.0609 12.5664 22.9437 12.45L22.5 12.0062L22.0563 12.45C21.9391 12.5664 21.7807 12.6317 21.6156 12.6317C21.4505 12.6317 21.2921 12.5664 21.175 12.45C21.0586 12.3329 20.9933 12.1745 20.9933 12.0094C20.9933 11.8443 21.0586 11.6858 21.175 11.5687L21.6187 11.125L21.175 10.6812C21.0726 10.5617 21.0191 10.4079 21.0252 10.2506C21.0313 10.0933 21.0965 9.94408 21.2078 9.83277C21.3191 9.72146 21.4683 9.65625 21.6256 9.65018C21.7829 9.6441 21.9367 9.69761 22.0563 9.8L22.5 10.2437L22.9437 9.8C23.0633 9.69761 23.2171 9.6441 23.3744 9.65018C23.5317 9.65625 23.6809 9.72146 23.7922 9.83277C23.9035 9.94408 23.9687 10.0933 23.9748 10.2506C23.9809 10.4079 23.9274 10.5617 23.825 10.6812L23.3813 11.125L23.825 11.5687ZM5.7375 17.575C5.85117 17.6484 5.93794 17.7567 5.98478 17.8837C6.03162 18.0106 6.03598 18.1494 5.99723 18.279C5.95848 18.4087 5.87869 18.5222 5.76987 18.6026C5.66105 18.6831 5.52906 18.726 5.39375 18.725C5.27187 18.7259 5.15238 18.6911 5.05 18.625H5V17.0625C5.1625 17.1875 5.41875 17.375 5.7375 17.575Z" fill="#CA9342"/>
</svg>
