<svg width="35" height="35" viewBox="0 0 35 35" fill="none" xmlns="http://www.w3.org/2000/svg">
<mask id="mask0_7672_59" style="mask-type:alpha" maskUnits="userSpaceOnUse" x="0" y="0" width="35" height="35">
<rect width="35" height="34.8791" fill="#4D4D4D"/>
</mask>
<g mask="url(#mask0_7672_59)">
</g>
<g clip-path="url(#clip0_7672_59)">
<path d="M14.375 22.8125C14.375 23.85 15.4688 24.7437 16.875 24.9562V20.6687C15.4688 20.8812 14.375 21.775 14.375 22.8125Z" fill="#D4B56A"/>
<path d="M18.125 30.5812C19.5312 30.3687 20.625 29.475 20.625 28.4375C20.625 27.4 19.5312 26.5062 18.125 26.2937V30.5812Z" fill="#D4B56A"/>
<path d="M22.9254 9.75625C21.322 8.39685 20.2016 6.5551 19.7316 4.50625C19.5632 3.45055 19.5025 2.38047 19.5504 1.3125C19.5504 0.875 19.5504 0.4375 19.5504 0C18.9254 0.625 18.3004 1.2125 17.6754 1.81875C16.3256 3.06857 15.0583 4.40472 13.8816 5.81875C12.1254 8.025 11.5254 10.1312 12.1004 12.0687C12.3127 12.6803 12.6026 13.2621 12.9629 13.8C13.4749 14.5449 13.8515 15.3743 14.0754 16.25C14.3323 17.3363 14.0137 18.4785 13.2316 19.275C12.293 20.1813 10.9581 20.5486 9.68788 20.25C8.69552 20.0048 7.80422 19.4564 7.13788 18.6812L5.50663 16.85L4.85038 19.2438C3.78163 23.125 4.56913 27.9312 6.66913 30.4C8.50437 32.4032 10.8999 33.8078 13.5441 34.4313C15.0418 34.8094 16.5807 35.0005 18.1254 35C22.6566 35 26.4879 33.35 28.6316 30.475C29.4663 29.3349 30.0325 28.0209 30.2879 26.6313C31.6879 19.2313 26.2816 12.8812 22.9254 9.75625ZM13.7504 11.25C13.4052 11.25 13.1254 10.9702 13.1254 10.625C13.1254 7.84375 15.7629 5.83125 15.8754 5.75C16.054 5.61603 16.2905 5.58753 16.4959 5.67524C16.7012 5.76295 16.8442 5.95355 16.8709 6.17524C16.8976 6.39693 16.804 6.61603 16.6254 6.75C16.6254 6.75 14.3754 8.475 14.3754 10.625C14.3754 10.9702 14.0956 11.25 13.7504 11.25ZM21.8754 28.4375C21.8754 30.1688 20.2441 31.5625 18.1254 31.8375V32.5C18.1254 32.8452 17.8456 33.125 17.5004 33.125C17.1552 33.125 16.8754 32.8452 16.8754 32.5V31.8375C14.7566 31.5938 13.1254 30.1688 13.1254 28.4375C13.1254 28.0923 13.4052 27.8125 13.7504 27.8125C14.0956 27.8125 14.3754 28.0923 14.3754 28.4375C14.3754 29.475 15.4691 30.3687 16.8754 30.5812V26.2062C14.7566 25.9625 13.1254 24.5375 13.1254 22.8063C13.1254 21.075 14.7566 19.6812 16.8754 19.4062V18.75C16.8754 18.4048 17.1552 18.125 17.5004 18.125C17.8456 18.125 18.1254 18.4048 18.1254 18.75V19.4125C20.2441 19.6562 21.8754 21.0812 21.8754 22.8125C21.8754 23.1577 21.5956 23.4375 21.2504 23.4375C20.9052 23.4375 20.6254 23.1577 20.6254 22.8125C20.6254 21.775 19.5316 20.8813 18.1254 20.6688V25.0438C20.2441 25.2812 21.8754 26.7062 21.8754 28.4375ZM26.5816 29.0187C27.7159 27.3998 28.1651 25.3984 27.8316 23.45C27.7799 23.1048 28.0177 22.783 28.3629 22.7312C28.7081 22.6795 29.0299 22.9173 29.0816 23.2625C29.4576 25.5488 28.9114 27.8909 27.5629 29.775C26.681 31.0169 25.3227 31.8365 23.8129 32.0375H23.7504C23.5271 32.0509 23.3136 31.9442 23.1904 31.7575C23.0671 31.5708 23.0528 31.3326 23.1529 31.1325C23.2529 30.9324 23.4521 30.8009 23.6754 30.7875C24.8469 30.6247 25.8988 29.9845 26.5816 29.0187Z" fill="#D4B56A"/>
</g>
<defs>
<clipPath id="clip0_7672_59">
<rect width="35" height="35" fill="white"/>
</clipPath>
</defs>
</svg>
