<svg width="197" height="159" viewBox="0 0 197 159" fill="none" xmlns="http://www.w3.org/2000/svg">
<path d="M16.713 22.7546C30.5282 7.73472 51.4332 0.121094 78.8371 0.121094H88.684V27.9587L80.7671 29.5486C67.2769 32.2543 57.8928 37.577 52.8709 45.3881C50.2497 49.5957 48.7635 54.4141 48.5579 59.3711H78.8371C81.4487 59.3711 83.9533 60.4115 85.8 62.2634C87.6466 64.1153 88.684 66.6271 88.684 69.2461V138.371C88.684 149.263 79.8514 158.121 68.9902 158.121H9.90882C7.29726 158.121 4.79266 157.081 2.94601 155.229C1.09935 153.377 0.0619157 150.865 0.0619157 148.246V98.8711L0.0914566 70.046C0.00283445 68.9498 -1.86808 42.9786 16.713 22.7546ZM177.306 158.121H118.225C115.613 158.121 113.109 157.081 111.262 155.229C109.415 153.377 108.378 150.865 108.378 148.246V98.8711L108.407 70.046C108.319 68.9498 106.448 42.9786 125.029 22.7546C138.844 7.73472 159.749 0.121094 187.153 0.121094H197V27.9587L189.083 29.5486C175.593 32.2543 166.209 37.577 161.187 45.3881C158.566 49.5957 157.079 54.4141 156.874 59.3711H187.153C189.765 59.3711 192.269 60.4115 194.116 62.2634C195.963 64.1153 197 66.6271 197 69.2461V138.371C197 149.263 188.167 158.121 177.306 158.121Z" fill="#7C5008" fill-opacity="0.1"/>
</svg>
