<svg width="35" height="35" viewBox="0 0 35 35" fill="none" xmlns="http://www.w3.org/2000/svg">
<mask id="mask0_7628_21" style="mask-type:alpha" maskUnits="userSpaceOnUse" x="0" y="0" width="35" height="35">
<rect y="0.12085" width="35" height="34.8791" fill="#4D4D4D"/>
</mask>
<g mask="url(#mask0_7628_21)">
</g>
<g clip-path="url(#clip0_7628_21)">
<path d="M11.3275 6.53142C11.3403 6.34285 11.4479 6.18767 11.6202 6.10892L16.6911 3.79177C16.851 3.71868 17.0227 3.73033 17.1713 3.82427C17.3199 3.91821 17.4035 4.06815 17.4051 4.2435L17.458 9.80256C17.4599 9.99146 17.3646 10.1545 17.1989 10.2463C17.0332 10.3381 16.844 10.3326 16.6839 10.2313L15.3085 9.36112C15.2098 9.85106 15.1579 10.3579 15.1579 10.8769C15.1579 15.1111 18.6024 18.5436 22.8512 18.5436C27.1001 18.5436 30.5445 15.1111 30.5445 10.8769C30.5445 6.64266 27.1001 3.21014 22.8512 3.21014C21.1774 3.21014 19.6286 3.743 18.3659 4.64761L18.362 4.23437C18.3572 3.73585 18.1065 3.28616 17.684 3.01898C17.3878 2.83165 17.0448 2.75862 16.7096 2.80372C18.4157 1.51244 20.5435 0.74585 22.8512 0.74585C28.4658 0.74585 33.0173 5.28163 33.0173 10.8768C33.0173 16.472 28.4658 21.0077 22.8512 21.0077C17.2367 21.0077 12.6852 16.4719 12.6852 10.8768C12.6852 9.86652 12.8336 8.89073 13.1098 7.97004L11.56 6.98941C11.3999 6.88818 11.3144 6.71985 11.3273 6.53135L11.3275 6.53142ZM21.6264 14.4499C21.9514 14.4925 22.2491 14.3917 22.4808 14.1608L27.7305 8.92929C28.1045 8.55658 28.1045 7.94668 27.7305 7.57398C27.3565 7.20127 26.7444 7.20127 26.3704 7.57398L21.9533 11.9759L20.7212 9.84936C20.4572 9.39355 19.865 9.23536 19.4076 9.49859C18.9495 9.76216 18.7911 10.3512 19.0556 10.8077L20.8763 13.9503C21.0401 14.2332 21.3015 14.4072 21.6264 14.4499ZM32.0264 21.6076C29.2888 23.1826 24.9631 26.3422 21.3361 26.4546C19.4795 26.4998 17.3005 26.0436 16.4155 25.5846C16.0335 25.3867 15.9698 25.0156 16.1103 24.7465C16.2506 24.4775 16.6303 24.3688 16.9004 24.5087C17.6663 24.9059 19.6033 25.2995 21.2868 25.2585C21.9313 25.2428 22.5245 25.1674 22.9646 25.0078C24.274 24.533 23.8883 22.6649 22.3145 22.7242C13.0606 22.7242 12.5384 15.6389 4.77162 24.782C4.77682 24.7871 4.78215 24.7921 4.78734 24.7973L10.12 30.1114C10.1415 30.1328 10.1622 30.1546 10.1827 30.1767C11.8722 29.3845 13.7455 29.3686 15.7516 29.4883C17.295 29.5802 19.1369 29.8023 20.8266 29.7651C23.1878 29.7131 24.6348 29.0745 26.7081 27.9799C29.0686 26.7339 33.1712 24.252 33.8869 23.3145C34.9111 21.9726 33.5888 20.7088 32.0264 21.6076H32.0264ZM3.96047 25.6214C3.52017 25.1826 2.79966 25.1826 2.35929 25.6214L0.751953 27.2231L7.68571 34.133L9.29298 32.5312C9.73328 32.0924 9.73328 31.3743 9.29298 30.9355L3.96033 25.6214H3.96047Z" fill="#D4B56A"/>
</g>
<defs>
<clipPath id="clip0_7628_21">
<rect width="35" height="34.8791" fill="white"/>
</clipPath>
</defs>
</svg>
