<svg width="35" height="35" viewBox="0 0 35 35" fill="none" xmlns="http://www.w3.org/2000/svg">
<mask id="mask0_7672_43" style="mask-type:alpha" maskUnits="userSpaceOnUse" x="0" y="0" width="35" height="35">
<rect width="35" height="34.8791" fill="#4D4D4D"/>
</mask>
<g mask="url(#mask0_7672_43)">
</g>
<path fill-rule="evenodd" clip-rule="evenodd" d="M31.5881 21.8091C31.5484 21.7691 31.5011 21.7374 31.4491 21.7158C31.3971 21.6942 31.3413 21.6831 31.2849 21.6831C31.2286 21.6831 31.1728 21.6942 31.1208 21.7158C31.0688 21.7374 31.0215 21.7691 30.9818 21.8091L25.2541 27.5376L21.9517 24.2365C21.9117 24.1963 21.8642 24.1644 21.8119 24.1427C21.7596 24.1209 21.7035 24.1097 21.6469 24.1097C21.5902 24.1097 21.5342 24.1209 21.4818 24.1427C21.4295 24.1644 21.3821 24.1963 21.3421 24.2365C21.3015 24.276 21.2693 24.3233 21.2473 24.3755C21.2253 24.4277 21.2139 24.4838 21.2139 24.5404C21.2139 24.5971 21.2253 24.6532 21.2473 24.7054C21.2693 24.7576 21.3015 24.8048 21.3421 24.8444L24.9477 28.45C24.9879 28.4903 25.0356 28.5222 25.0882 28.5439C25.1408 28.5655 25.1972 28.5765 25.2541 28.5761C25.31 28.5761 25.3653 28.565 25.4168 28.5433C25.4683 28.5217 25.5149 28.4899 25.554 28.45L31.5881 22.4175C31.6687 22.3368 31.7139 22.2274 31.7139 22.1134C31.7139 21.9993 31.6687 21.8899 31.5881 21.8092V21.8091ZM26.4635 33.6653C24.2009 33.6626 22.0317 32.7624 20.4319 31.1623C18.8321 29.5622 17.9324 27.3929 17.93 25.1303C17.93 20.4227 21.7581 16.5942 26.4635 16.5942C28.7273 16.5942 30.8983 17.4935 32.4991 19.0942C34.0998 20.695 34.9991 22.866 34.9991 25.1298C34.9991 27.3935 34.0998 29.5646 32.4991 31.1653C30.8983 32.7661 28.7273 33.6653 26.4635 33.6653ZM19.807 18.506C20.482 17.8255 21.2575 17.2526 22.1064 16.8074C22.1129 16.6884 22.1161 16.5694 22.1161 16.4504C22.1178 15.3669 21.8679 14.2979 21.3863 13.3273C20.9046 12.3568 20.2043 11.5113 19.3404 10.8574C18.4765 10.2034 17.4727 9.7589 16.4079 9.55877C15.343 9.35863 14.2463 9.40834 13.2039 9.704C12.1616 9.99965 11.2021 10.5332 10.4009 11.2626C9.59972 11.992 8.97876 12.8974 8.58688 13.9075C8.19501 14.9176 8.0429 16.0049 8.14254 17.0838C8.24218 18.1627 8.59084 19.2037 9.16108 20.125C9.5999 19.3397 10.1901 18.6492 10.8976 18.0936C11.6051 17.538 12.4158 17.1282 13.2827 16.888C12.7653 16.5023 12.3825 15.9634 12.1888 15.3478C11.9952 14.7322 12.0004 14.0713 12.2037 13.4588C12.4071 12.8463 12.7983 12.3135 13.3217 11.936C13.8451 11.5585 14.4742 11.3556 15.1195 11.356C15.7649 11.3564 16.3937 11.5601 16.9167 11.9382C17.4396 12.3164 17.8302 12.8497 18.0328 13.4624C18.2354 14.0751 18.2398 14.7361 18.0453 15.3514C17.8509 15.9668 17.4675 16.5052 16.9496 16.8903C18.0189 17.1894 18.9994 17.7439 19.807 18.506ZM12.9022 14.425C12.9019 13.987 13.0316 13.5587 13.2748 13.1944C13.518 12.8301 13.8638 12.5461 14.2684 12.3784C14.6731 12.2107 15.1183 12.1667 15.548 12.2522C15.9776 12.3376 16.3722 12.5485 16.6819 12.8582C16.9916 13.168 17.2024 13.5626 17.2878 13.9923C17.3731 14.4219 17.3291 14.8672 17.1614 15.2718C16.9936 15.6764 16.7095 16.0221 16.3452 16.2653C15.9809 16.5084 15.5526 16.638 15.1146 16.6377C14.528 16.6369 13.9657 16.4035 13.551 15.9887C13.1362 15.5739 12.9029 15.0115 12.9022 14.425ZM17.2883 23.1052C17.6113 21.6495 18.2756 20.2913 19.2265 19.1427C18.543 18.4923 17.715 18.0132 16.8105 17.7449C15.906 17.4765 14.9507 17.4265 14.0231 17.599C13.0955 17.7714 12.2221 18.1614 11.4744 18.7369C10.7268 19.3124 10.1263 20.057 9.72225 20.9096C10.6173 21.9927 11.8176 22.7814 13.167 23.173C14.5164 23.5646 15.9525 23.541 17.2883 23.1052ZM17.4559 31.5649H12.7733L12.3573 28.7762C12.3447 28.693 12.3081 28.6154 12.2519 28.5527C12.1958 28.4901 12.1226 28.4453 12.0413 28.4237C10.9115 28.1347 9.82876 27.686 8.82571 27.0913C8.75308 27.0481 8.6693 27.0274 8.58493 27.0318C8.50056 27.0362 8.41936 27.0654 8.35157 27.1158L6.08436 28.7934L2.77229 25.4821L4.44928 23.2133C4.49964 23.1455 4.52894 23.0644 4.53354 22.98C4.53813 22.8956 4.51782 22.8118 4.47512 22.7389C3.88046 21.7371 3.43092 20.6561 3.13992 19.528C3.12037 19.4455 3.07633 19.3709 3.01359 19.3139C2.95084 19.2569 2.87232 19.2203 2.78835 19.2088L0.00195312 18.7911V14.1085L2.78835 13.6915C2.87232 13.6802 2.95089 13.6437 3.01366 13.5868C3.07643 13.5299 3.12046 13.4552 3.13992 13.3728C3.43057 12.2444 3.88013 11.1631 4.47512 10.1613C4.51779 10.0883 4.53809 10.0043 4.5335 9.91977C4.52891 9.83527 4.49962 9.75397 4.44928 9.68596L2.77229 7.41827L6.08436 4.10742L8.35157 5.7851C8.41948 5.83526 8.50064 5.86434 8.58495 5.8687C8.66926 5.87306 8.75299 5.85252 8.82571 5.80964C9.82707 5.21606 10.9074 4.76727 12.0346 4.47663C12.1174 4.45664 12.1923 4.41238 12.2498 4.34952C12.3072 4.28666 12.3446 4.20807 12.3571 4.12383L12.7731 1.33545H17.4557L17.8718 4.12383C17.8847 4.2074 17.9218 4.28535 17.9785 4.34805C18.0353 4.41076 18.1091 4.45546 18.191 4.47663C19.3205 4.76638 20.4032 5.21496 21.4066 5.80896C21.4792 5.85211 21.5629 5.87288 21.6473 5.86863C21.7316 5.86439 21.8128 5.83533 21.8807 5.7851L24.1447 4.10742L27.4601 7.41827L25.7799 9.68616C25.7307 9.7548 25.7024 9.83619 25.6984 9.92052C25.6944 10.0049 25.7149 10.0885 25.7573 10.1615C26.3496 11.1643 26.7979 12.2454 27.0892 13.373C27.1096 13.455 27.154 13.529 27.2165 13.5857C27.2791 13.6425 27.3572 13.6794 27.4407 13.6917L30.2304 14.1087V16.5223C29.0897 16.0225 27.8609 15.7548 26.6157 15.7347C25.3705 15.7146 24.1337 15.9425 22.9775 16.4052C22.9671 14.767 22.4448 13.173 21.4837 11.8462C20.5226 10.5195 19.1708 9.52643 17.6174 9.00596C16.064 8.4855 14.3867 8.46369 12.8203 8.94358C11.2539 9.42347 9.87672 10.381 8.88145 11.6823C7.88617 12.9836 7.3226 14.5635 7.26961 16.2009C7.21662 17.8383 7.67685 19.4513 8.5859 20.8143C9.49495 22.1772 10.8073 23.2218 12.3394 23.802C13.8715 24.3822 15.5467 24.4688 17.1305 24.0499C17.0904 24.4085 17.0699 24.7691 17.069 25.13C17.0689 26.4259 17.3369 27.7078 17.8559 28.8952L17.4559 31.5649Z" fill="#D4B56A"/>
</svg>
