<svg width="112" height="18" viewBox="0 0 112 18" fill="none" xmlns="http://www.w3.org/2000/svg">
<g clip-path="url(#clip0_7578_46554)">
<path d="M9.41162 0.621094L12.3389 6.16474L18.8603 7.07125L14.1174 11.3946L15.229 17.4961L9.41162 14.6022L3.5942 17.4961L4.70581 11.3946L0 7.07125L6.52144 6.16474L9.41162 0.621094Z" fill="#FFA600"/>
<path d="M9.41211 9.89537V0.621094L12.3393 6.16474L9.41211 9.89537Z" fill="#FFDF40"/>
<path d="M9.41211 9.89567L12.3393 6.16504L18.8608 7.07155L9.41211 9.89567Z" fill="#FFDF40"/>
<path d="M9.41211 9.89551L14.1179 11.3947L15.2295 17.4962L9.41211 9.89551Z" fill="#FFDF40"/>
<path d="M9.41117 9.89581V14.6027L3.59375 17.4965C3.59375 17.4965 9.81876 9.58202 9.41117 9.89581Z" fill="#FFDF40"/>
<path d="M9.41162 9.89567L0 7.07155L6.52144 6.16504L9.41162 9.89567Z" fill="#FFDF40"/>
</g>
<g clip-path="url(#clip1_7578_46554)">
<path d="M32.4897 0.621094L35.417 6.16474L41.9384 7.07125L37.1956 11.3946L38.3072 17.4961L32.4897 14.6022L26.6723 17.4961L27.7839 11.3946L23.0781 7.07125L29.5996 6.16474L32.4897 0.621094Z" fill="#FFA600"/>
<path d="M32.4902 9.89537V0.621094L35.4175 6.16474L32.4902 9.89537Z" fill="#FFDF40"/>
<path d="M32.4902 9.89567L35.4175 6.16504L41.9389 7.07155L32.4902 9.89567Z" fill="#FFDF40"/>
<path d="M32.4902 9.89551L37.196 11.3947L38.3077 17.4962L32.4902 9.89551Z" fill="#FFDF40"/>
<path d="M32.4893 9.89581V14.6027L26.6719 17.4965C26.6719 17.4965 32.8969 9.58202 32.4893 9.89581Z" fill="#FFDF40"/>
<path d="M32.4897 9.89567L23.0781 7.07155L29.5996 6.16504L32.4897 9.89567Z" fill="#FFDF40"/>
</g>
<g clip-path="url(#clip2_7578_46554)">
<path d="M55.5679 0.621094L58.4951 6.16474L65.0165 7.07125L60.2737 11.3946L61.3853 17.4961L55.5679 14.6022L49.7505 17.4961L50.8621 11.3946L46.1562 7.07125L52.6777 6.16474L55.5679 0.621094Z" fill="#FFA600"/>
<path d="M55.5684 9.89537V0.621094L58.4956 6.16474L55.5684 9.89537Z" fill="#FFDF40"/>
<path d="M55.5684 9.89567L58.4956 6.16504L65.017 7.07155L55.5684 9.89567Z" fill="#FFDF40"/>
<path d="M55.5684 9.89551L60.2742 11.3947L61.3858 17.4962L55.5684 9.89551Z" fill="#FFDF40"/>
<path d="M55.5674 9.89581V14.6027L49.75 17.4965C49.75 17.4965 55.975 9.58202 55.5674 9.89581Z" fill="#FFDF40"/>
<path d="M55.5679 9.89567L46.1562 7.07155L52.6777 6.16504L55.5679 9.89567Z" fill="#FFDF40"/>
</g>
<g clip-path="url(#clip3_7578_46554)">
<path d="M78.646 0.621094L81.5732 6.16474L88.0947 7.07125L83.3518 11.3946L84.4634 17.4961L78.646 14.6022L72.8286 17.4961L73.9402 11.3946L69.2344 7.07125L75.7558 6.16474L78.646 0.621094Z" fill="#FFA600"/>
<path d="M78.6465 9.89537V0.621094L81.5737 6.16474L78.6465 9.89537Z" fill="#FFDF40"/>
<path d="M78.6465 9.89567L81.5737 6.16504L88.0952 7.07155L78.6465 9.89567Z" fill="#FFDF40"/>
<path d="M78.6465 9.89551L83.3523 11.3947L84.4639 17.4962L78.6465 9.89551Z" fill="#FFDF40"/>
<path d="M78.6455 9.89581V14.6027L72.8281 17.4965C72.8281 17.4965 79.0531 9.58202 78.6455 9.89581Z" fill="#FFDF40"/>
<path d="M78.646 9.89567L69.2344 7.07155L75.7558 6.16504L78.646 9.89567Z" fill="#FFDF40"/>
</g>
<g clip-path="url(#clip4_7578_46554)">
<path d="M101.724 0.621094L104.651 6.16474L111.173 7.07125L106.43 11.3946L107.542 17.4961L101.724 14.6022L95.9067 17.4961L97.0183 11.3946L92.3125 7.07125L98.8339 6.16474L101.724 0.621094Z" fill="#FFA600"/>
<path d="M101.725 9.89537V0.621094L104.652 6.16474L101.725 9.89537Z" fill="#FFDF40"/>
<path d="M101.725 9.89567L104.652 6.16504L111.173 7.07155L101.725 9.89567Z" fill="#FFDF40"/>
<path d="M101.725 9.89551L106.43 11.3947L107.542 17.4962L101.725 9.89551Z" fill="#FFDF40"/>
<path d="M101.724 9.89581V14.6027L95.9062 17.4965C95.9062 17.4965 102.131 9.58202 101.724 9.89581Z" fill="#FFDF40"/>
<path d="M101.724 9.89567L92.3125 7.07155L98.8339 6.16504L101.724 9.89567Z" fill="#FFDF40"/>
</g>
<defs>
<clipPath id="clip0_7578_46554">
<rect width="18.8603" height="16.875" fill="white" transform="translate(0 0.621094)"/>
</clipPath>
<clipPath id="clip1_7578_46554">
<rect width="18.8603" height="16.875" fill="white" transform="translate(23.0781 0.621094)"/>
</clipPath>
<clipPath id="clip2_7578_46554">
<rect width="18.8603" height="16.875" fill="white" transform="translate(46.1562 0.621094)"/>
</clipPath>
<clipPath id="clip3_7578_46554">
<rect width="18.8603" height="16.875" fill="white" transform="translate(69.2344 0.621094)"/>
</clipPath>
<clipPath id="clip4_7578_46554">
<rect width="18.8603" height="16.875" fill="white" transform="translate(92.3125 0.621094)"/>
</clipPath>
</defs>
</svg>
