<svg width="35" height="35" viewBox="0 0 35 35" fill="none" xmlns="http://www.w3.org/2000/svg">
<mask id="mask0_7672_11" style="mask-type:alpha" maskUnits="userSpaceOnUse" x="0" y="0" width="35" height="35">
<rect y="0.12085" width="35" height="34.8791" fill="#4D4D4D"/>
</mask>
<g mask="url(#mask0_7672_11)">
</g>
<path d="M9.60598 5.94643C9.60598 3.46867 11.6147 1.45996 14.0928 1.45996C16.5705 1.45996 18.5794 3.46867 18.5794 5.94643C18.5794 8.42418 16.5705 10.4328 14.0928 10.4328C11.6147 10.4329 9.60598 8.42418 9.60598 5.94643ZM16.2489 13.4894C16.2939 12.5125 16.6302 11.6083 17.1713 10.8608C16.7915 10.7813 16.3991 10.739 15.9964 10.739H12.1897C11.7882 10.739 11.3962 10.781 11.0185 10.8595C11.5943 11.6581 11.9387 12.6335 11.9443 13.6894C12.6442 13.3044 13.4473 13.0852 14.3003 13.0852C14.9922 13.0852 15.6509 13.2294 16.2489 13.4894ZM17.0084 13.8922C18.3116 14.7094 19.2254 16.0916 19.3926 17.6969C19.9236 17.945 20.5137 18.0882 21.1388 18.0882C23.4219 18.0882 25.2724 16.2375 25.2724 13.9545C25.2724 11.6712 23.4219 9.82093 21.1388 9.82093C18.8766 9.821 17.0427 11.6385 17.0084 13.8922ZM14.3002 22.3561C16.5829 22.3561 18.4335 20.5049 18.4335 18.2225C18.4335 15.9398 16.5829 14.0889 14.3002 14.0889C12.0173 14.0889 10.1659 15.9398 10.1659 18.2225C10.166 20.5049 12.0173 22.3561 14.3002 22.3561ZM16.0536 22.6374H12.5464C9.62818 22.6374 7.25346 25.012 7.25346 27.9306V32.2204L7.26462 32.2875L7.55986 32.3793C10.345 33.2492 12.7646 33.5401 14.7564 33.5401C18.6458 33.5401 20.9011 32.431 21.04 32.3601L21.3163 32.2203H21.3456V27.9305C21.3456 25.0119 18.9723 22.6374 16.0536 22.6374ZM22.8931 18.3703H19.4123C19.3745 19.7631 18.7801 21.0173 17.84 21.9188C20.4341 22.6902 22.3321 25.0957 22.3321 27.9371V29.2589C25.7683 29.1324 27.7488 28.1591 27.8792 28.0934L28.1555 27.9529H28.1848V23.6624C28.1852 20.7445 25.8107 18.3703 22.8931 18.3703ZM23.8236 9.73279C25.1269 10.5502 26.0406 11.9325 26.2074 13.5377C26.7385 13.7859 27.3285 13.9288 27.9536 13.9288C30.2372 13.9288 32.0875 12.0783 32.0875 9.79566C32.0875 7.51234 30.2371 5.66209 27.9536 5.66209C25.6918 5.66183 23.858 7.4797 23.8236 9.73279ZM29.7076 14.211H26.2274C26.1896 15.6037 25.5953 16.8579 24.6553 17.7594C27.2493 18.5305 29.1473 20.9363 29.1473 23.7778V25.0996C32.5831 24.9733 34.564 24.0001 34.6944 23.934L34.9704 23.794H35.0001V19.5029C35.0005 16.5853 32.6259 14.211 29.7076 14.211ZM7.0472 18.0883C7.85589 18.0883 8.60783 17.8521 9.24552 17.4499C9.44831 16.1284 10.1568 14.9734 11.1686 14.1871C11.1728 14.1095 11.1799 14.0329 11.1799 13.9546C11.1799 11.6713 9.32889 9.821 7.0472 9.821C4.76356 9.821 2.9133 11.6712 2.9133 13.9546C2.9133 16.238 4.76349 18.0883 7.0472 18.0883ZM10.7595 21.9188C9.82379 21.0216 9.23142 19.7743 9.1878 18.3896C9.05912 18.38 8.93134 18.3703 8.79978 18.3703H5.29299C2.37434 18.3703 0 20.7445 0 23.6628V27.9529L0.0108381 28.0197L0.306471 28.1119C2.5403 28.8105 4.53472 29.1315 6.26692 29.2318V27.9367C6.26725 25.0957 8.16477 22.6898 10.7595 21.9188Z" fill="#D4B56A"/>
</svg>
