<svg width="35" height="35" viewBox="0 0 35 35" fill="none" xmlns="http://www.w3.org/2000/svg">
<mask id="mask0_7672_75" style="mask-type:alpha" maskUnits="userSpaceOnUse" x="0" y="0" width="35" height="35">
<rect width="35" height="34.8791" fill="#4D4D4D"/>
</mask>
<g mask="url(#mask0_7672_75)">
</g>
<path d="M23.7204 15.4682C20.2851 11.9566 14.716 11.9566 11.2807 15.4682C7.84542 18.9797 7.84542 24.6723 11.2807 28.1838C14.716 31.6953 20.2851 31.6953 23.7204 28.1838C27.1486 24.6723 27.1486 18.9797 23.7204 15.4682ZM13.6349 31.121C12.2694 30.5248 11.0531 29.6233 10.0858 28.4964L7.85964 32.4369L10.1214 32.0734C10.3134 32.037 10.5126 32.1025 10.6406 32.2697L12.0204 34L13.6349 31.121ZM24.9153 28.4964C23.9409 29.6233 22.7318 30.5248 21.3591 31.121L22.9807 33.9927L24.3605 32.2624C24.4885 32.1025 24.6877 32.0298 24.8797 32.0661L27.1415 32.4296L24.9153 28.4964ZM21.0034 18.2454C19.0689 16.2679 15.9323 16.2679 13.9977 18.2454C12.0631 20.2229 12.0631 23.4291 13.9977 25.4066C15.9323 27.3841 19.0689 27.3841 21.0034 25.4066C22.938 23.4291 22.938 20.2229 21.0034 18.2454ZM17.497 15.6499C20.8327 15.6499 23.5426 18.4126 23.5426 21.8296C23.5426 25.2394 20.8399 28.0093 17.497 28.0093C14.1613 28.0093 11.4514 25.2466 11.4514 21.8296C11.4585 18.4126 14.1613 15.6499 17.497 15.6499ZM14.6805 22.2367C14.5311 21.9677 14.6165 21.6333 14.8796 21.4806C15.1428 21.328 15.47 21.4152 15.6193 21.6842L16.487 23.2182L19.46 20.1793C19.6734 19.9612 20.0219 19.9612 20.2282 20.1793C20.4416 20.3974 20.4416 20.7463 20.2282 20.9645L16.7573 24.5123C16.5084 24.7668 16.0816 24.7159 15.9038 24.396L14.6805 22.2367ZM30.0505 7.55813L31.1245 9.83371L33.5711 10.1754C33.9908 10.2336 34.1401 10.757 33.8485 11.0478L32.0633 12.7927L32.5043 15.2791C32.5754 15.7008 32.1415 16.0134 31.7788 15.8171L29.6024 14.6248L27.426 15.8171C27.0704 16.0134 26.608 15.7081 26.7076 15.25L27.1415 12.7927L25.3563 11.0478C25.0575 10.757 25.2211 10.2336 25.6408 10.1754L28.0803 9.83371L29.1543 7.55813C29.3321 7.1728 29.8655 7.18007 30.0505 7.55813ZM5.83971 7.55813L6.91368 9.83371L9.36037 10.1754C9.77289 10.2336 9.92936 10.757 9.63775 11.0478L7.85253 12.7927L8.2935 15.2791C8.36462 15.7008 7.93076 16.0134 7.57514 15.8171L5.39873 14.6248L3.22233 15.8171C2.8667 16.0134 2.41151 15.7081 2.50397 15.25L2.93783 12.7927L1.1526 11.0478C0.853881 10.757 1.01747 10.2336 1.4371 10.1754L3.87667 9.83371L4.95065 7.55813C5.12846 7.1728 5.66189 7.18007 5.83971 7.55813ZM17.9451 2.2872L19.0191 4.56279L21.4657 4.90449C21.8783 4.96265 22.0347 5.48611 21.7431 5.77692L19.9579 7.52178L20.3989 10.0082C20.47 10.4299 20.0361 10.7425 19.6734 10.5462L17.497 9.34661L15.3206 10.5389C14.965 10.7352 14.5098 10.4299 14.6022 9.97185L15.0361 7.51451L13.2509 5.76965C12.9522 5.47884 13.1157 4.95538 13.5354 4.89722L15.9749 4.55552L17.0489 2.27993C17.2338 1.90188 17.7673 1.90915 17.9451 2.2872Z" fill="#D4B56A"/>
</svg>
