<svg width="45" height="77" viewBox="0 0 45 77" fill="none" xmlns="http://www.w3.org/2000/svg">
<g clip-path="url(#clip0_327_2464)">
<path d="M28.4157 27.4158L1.85156 82.2178L2.49901 82.5327L29.0631 27.7307L28.4157 27.4158Z" fill="white"/>
<path d="M38.8745 25.1136C35.7558 23.0709 32.5171 21.1485 29.2784 19.4663C23.7606 30.7608 18.6027 42.2956 13.8047 53.8304C14.8842 56.1133 16.8035 57.3148 19.6823 56.9544C26.0397 46.3808 32.5171 35.8073 38.8745 25.1136Z" fill="#FAB06F"/>
<path d="M23.8828 49.9859C24.6025 48.7844 25.3222 47.5829 26.1618 46.2612C23.283 46.141 20.4042 45.4201 17.8852 44.0984C17.2854 45.5402 16.6857 46.9821 16.0859 48.4239C18.485 49.6255 21.1239 50.1061 23.8828 49.9859Z" fill="#FAB06F"/>
<path d="M15.3668 49.9858C14.7671 51.3075 14.2873 52.6292 13.6875 53.9509C14.7671 56.2339 16.6863 57.4354 19.5651 57.0749C20.6447 55.2726 21.7242 53.4703 22.8038 51.668C20.2848 51.5478 17.6459 51.0672 15.3668 49.9858Z" fill="#FAB06F"/>
<path d="M31.5621 37.3698C32.2818 36.1683 33.1214 34.8466 33.8412 33.645C30.3626 33.7652 26.764 32.9241 23.7653 31.2419C23.1655 32.4435 22.5657 33.7652 22.0859 34.9667C24.8448 36.5287 28.2035 37.3698 31.5621 37.3698Z" fill="#FAB06F"/>
<path d="M38.8831 25.1138C35.7644 23.0712 32.5257 21.1487 29.287 19.4666C27.8476 22.4704 26.4082 25.4743 24.9688 28.4781C28.2074 29.7998 31.9259 30.761 35.5245 30.761C36.604 28.8386 37.8035 27.0363 38.8831 25.1138Z" fill="#FAB06F"/>
<path d="M29.2784 19.4663C23.7606 30.7608 18.6027 42.2956 13.8047 53.8304C14.5244 55.3924 15.604 56.3536 17.0434 56.8342L35.5159 22.8306C33.3567 21.7492 31.3176 20.5477 29.2784 19.4663Z" fill="#F84E59"/>
<path d="M31.9173 20.9088C31.1976 20.5483 30.5979 20.1879 29.8781 19.8274L13.8047 54.1915C14.1645 54.9124 14.5244 55.393 15.0042 55.8736L31.9173 20.9088Z" fill="#491D6B"/>
<path d="M29.2818 19.4666C28.4422 21.1487 27.7225 22.8309 26.8828 24.3929C30.1215 26.4355 33.9599 27.3967 37.6784 27.0363C38.0383 26.4355 38.5181 25.7146 38.8779 25.1138C35.7592 23.0712 32.5205 21.1487 29.2818 19.4666Z" fill="#491D6B"/>
<path d="M41.037 21.5093C42.2366 15.2613 43.7959 7.57146 44.8755 1.4436C44.8755 1.4436 35.1594 12.1373 29.4018 18.0249C28.3222 19.1063 28.0823 20.6683 28.802 21.99C29.4018 22.9512 30.0015 23.9124 30.8412 24.6333C32.2806 25.955 34.3198 26.7961 36.3589 26.5558C37.6784 26.4357 38.9979 25.8349 39.7176 24.8736C40.6772 23.9124 40.9171 22.7109 41.037 21.5093Z" fill="#7A4EBD"/>
<path d="M44.8759 1.4436C44.8759 1.4436 43.6763 2.7653 41.8771 4.68776L28.5625 20.9086C28.5625 21.269 28.6825 21.6295 28.9224 21.99C29.5221 22.9512 30.1219 23.9124 30.9615 24.6333C31.0815 24.7535 31.2014 24.8737 31.3214 24.9938L44.8759 1.68391C44.8759 1.68391 44.8759 1.56376 44.8759 1.4436Z" fill="#869DFD"/>
<path d="M30.239 39.4127C30.5989 38.6918 31.0787 38.091 31.4385 37.3701C28.0799 37.3701 24.8412 36.529 21.8424 34.967C21.4826 35.688 21.1227 36.4089 20.8828 37.1298C23.7616 38.5717 27.0003 39.2926 30.239 39.4127Z" fill="#FED835"/>
<path d="M22.9214 51.5481C23.2812 51.0675 23.5211 50.4667 23.881 49.9861C21.242 50.1062 18.4832 49.6256 16.0841 48.4241C15.8442 48.9047 15.6043 49.3853 15.4844 49.8659C17.6435 51.0675 20.2824 51.5481 22.9214 51.5481Z" fill="#FED835"/>
<path d="M26.0423 46.3814C26.5221 45.5403 27.0019 44.8194 27.4817 43.9783C24.4829 43.9783 21.4841 43.4977 18.6053 42.2961C18.3654 42.8969 18.0055 43.6178 17.7656 44.2186C20.4046 45.5403 23.2834 46.1411 26.0423 46.3814Z" fill="#FED835"/>
<path d="M33.7165 33.6454C34.3163 32.6842 34.916 31.7229 35.3958 30.7617C31.7973 30.8818 28.0788 29.9206 24.8401 28.4788C24.4803 29.3198 24.0005 30.2811 23.6406 31.1222C26.6394 32.9245 30.2379 33.7655 33.7165 33.6454Z" fill="#FED835"/>
<path d="M44.992 1.68384C41.8733 7.57139 38.1548 16.2225 35.3959 22.2302C35.156 22.831 34.7962 23.5519 34.7962 24.1527C34.6762 24.8736 34.9161 25.5945 35.3959 25.955C36.1157 26.5557 37.0753 26.3154 37.795 25.8348C38.5147 25.234 38.9945 24.393 39.3543 23.5519C40.074 21.6294 40.5538 19.707 41.0337 17.6643C41.9933 13.3388 43.9125 6.24969 44.992 1.68384Z" fill="#869DFD"/>
<path d="M22.4394 35.2064C22.3195 35.0862 22.1995 35.0862 21.9596 34.9661C21.5998 35.687 21.2399 36.4079 21 37.1288C21.12 37.249 21.2399 37.249 21.4798 37.3691C21.7197 36.6482 22.0796 35.9273 22.4394 35.2064Z" fill="white"/>
<path d="M31.1991 37.3699C30.5994 37.3699 29.8797 37.3699 29.2799 37.2498C28.9201 37.9707 28.6802 38.5715 28.3203 39.2924C28.9201 39.4125 29.5198 39.4125 30.1196 39.4125C30.4794 38.6916 30.8393 37.9707 31.1991 37.3699Z" fill="white"/>
<path d="M16.324 48.544C16.2041 48.544 16.2041 48.4238 16.0841 48.4238C15.8442 48.9044 15.6043 49.3851 15.4844 49.8657C15.6043 49.8657 15.6043 49.9858 15.7243 49.9858C15.8442 49.5052 16.0841 49.0246 16.324 48.544Z" fill="white"/>
<path d="M23.1604 49.9861C23.0405 49.9861 22.9205 49.9861 22.8006 49.9861C22.5607 50.4667 22.2008 51.0675 21.9609 51.5481C22.0809 51.5481 22.2008 51.5481 22.3208 51.5481C22.5607 51.0675 22.9205 50.5869 23.1604 49.9861Z" fill="white"/>
<path d="M26.7552 43.9783C26.5153 43.9783 26.2754 43.9783 26.0354 43.9783C26.0354 44.0984 25.9155 44.0984 25.9155 44.2186C25.5556 44.9395 25.1958 45.6604 24.8359 46.3814C24.9559 46.3814 25.0758 46.3814 25.3157 46.3814C25.7955 45.4201 26.2754 44.6992 26.7552 43.9783Z" fill="white"/>
<path d="M19.0823 42.4158C18.9624 42.4158 18.8424 42.2957 18.7225 42.2957C18.4826 42.8964 18.1227 43.6173 17.8828 44.2181C18.0028 44.2181 18.1227 44.3383 18.2427 44.3383C18.4826 43.6174 18.8424 43.0166 19.0823 42.4158Z" fill="white"/>
<path d="M25.3199 28.7185C25.2 28.7185 25.08 28.5984 24.8401 28.5984C24.4803 29.4395 24.0005 30.4007 23.6406 31.2418C23.7606 31.3619 23.8805 31.3619 24.1204 31.4821C24.4803 30.5209 24.9601 29.5596 25.3199 28.7185Z" fill="white"/>
<path d="M34.8017 30.7615C34.082 30.7615 33.4822 30.6414 32.7625 30.6414C32.1627 31.6026 31.6829 32.5638 31.2031 33.5251C31.9228 33.6452 32.6425 33.6452 33.3622 33.6452C33.8421 32.684 34.3219 31.7227 34.8017 30.7615Z" fill="white"/>
<path d="M38.3947 21.9904C38.2747 22.2307 38.2747 22.471 38.3947 22.7114C38.6346 22.9517 38.9944 22.9517 39.2343 22.7114C39.4742 22.471 39.5942 22.2307 39.5942 21.8703C40.9136 16.7037 42.2331 11.4169 43.5526 6.25024C41.6333 11.4169 39.8341 16.5835 38.3947 21.9904Z" fill="#6FD0FF"/>
<path d="M16.5591 58.156C14.4 61.4002 12.6007 65.0048 11.2812 68.7296C13.2005 65.6056 15.4795 61.4002 16.5591 58.156Z" fill="#F84E59"/>
<path d="M10.2031 60.5589C11.6425 58.9969 12.8421 57.3148 13.9216 55.5125C12.4822 57.0745 11.2827 58.7566 10.2031 60.5589Z" fill="white"/>
<path d="M11.2801 60.8C9.36092 63.3233 7.6816 65.8465 6.24219 68.6101C8.16141 66.207 9.96067 63.6837 11.2801 60.8Z" fill="#FED835"/>
<path d="M17.3999 58.2766C16.4403 60.4394 15.8406 62.7223 15.9605 65.1254C16.5603 62.8425 17.0401 60.5595 17.3999 58.2766Z" fill="#FED835"/>
<path d="M13.0781 73.7764C14.1577 70.6524 14.8774 67.4082 15.2372 64.1641C14.1577 67.2881 13.438 70.5322 13.0781 73.7764Z" fill="#FED835"/>
<path d="M17.4012 68.3688C17.7611 66.6867 17.8811 64.8843 17.5212 63.082C17.4012 64.8843 17.2813 66.5665 17.4012 68.3688Z" fill="#F84E59"/>
<path d="M18.3575 61.7606C18.4774 61.7606 18.8373 58.156 18.7173 58.156C18.3575 59.2374 18.2375 60.5591 18.3575 61.7606Z" fill="white"/>
<path d="M10.8047 56.9548C11.5244 56.5944 12.2441 56.1137 12.7239 55.3928C12.0042 55.7533 11.2845 56.3541 10.8047 56.9548Z" fill="#FED835"/>
<path d="M9.60178 61.6409C7.92246 62.9626 6.72295 64.885 5.52344 66.8075C6.96285 65.606 8.40227 63.2029 9.60178 61.6409Z" fill="#F84E59"/>
<path d="M11.8797 69.5703C11.2799 71.0122 10.8001 72.454 10.3203 73.8959C11.3999 72.454 11.5198 71.3726 11.8797 69.5703Z" fill="#F84E59"/>
<path d="M3.72656 72.2142C4.44627 71.3731 5.04603 70.532 5.52583 69.5708C4.68617 70.2917 4.08642 71.253 3.72656 72.2142Z" fill="#F84E59"/>
<path d="M16.9238 69.8115C16.324 71.734 16.2041 73.6565 16.444 75.6991C17.2836 73.8968 17.5235 71.734 16.9238 69.8115Z" fill="#FED835"/>
<path d="M17.2807 12.017C17.1608 10.455 17.0408 8.89302 16.9209 7.45117C16.6809 9.49379 16.561 11.6566 17.0408 13.579C17.0408 13.8193 17.4007 13.6992 17.4007 13.579C17.4007 12.9783 17.2807 12.4976 17.2807 12.017Z" fill="white"/>
<path d="M-2.50781 73.4157C3.8496 56.474 8.7676 38.9315 12.1262 21.1487L12.8459 21.2688C9.48731 39.0516 4.56931 56.7143 -1.78811 73.656L-2.50781 73.4157Z" fill="white"/>
<path d="M16.9245 1.56348C15.3651 6.24949 13.3259 11.6564 11.0469 16.1021C13.8058 16.823 16.5646 17.3037 19.3235 17.6641C18.4838 15.7417 18.124 13.5789 17.8841 11.5363C17.4043 8.41226 17.4043 4.68748 16.9245 1.56348Z" fill="#7A4EBD"/>
<path d="M16.9245 1.56348C15.3651 6.24949 13.3259 11.6564 11.0469 16.1021C11.8865 16.3424 12.7262 16.4626 13.5659 16.7029C14.6454 11.6564 15.605 6.60995 16.9245 1.56348Z" fill="#491D6B"/>
<path d="M18.602 16.222C17.2826 15.0205 15.2434 14.5398 13.4441 14.66C12.9643 14.66 12.4845 14.7801 12.0047 15.0205C11.5249 15.2608 11.1651 15.6212 11.0451 16.1018C10.8052 16.8228 11.1651 17.5437 11.6449 18.0243C12.1247 18.5049 12.8444 18.7452 13.5641 18.9855C15.0035 19.4662 16.6828 19.5863 18.1222 18.9855C18.722 18.7452 19.2018 18.2646 19.3217 17.6638C19.3217 17.0631 18.9619 16.5825 18.602 16.222Z" fill="#491D6B"/>
<path d="M10.691 46.0205C13.2099 36.7687 15.8489 27.5168 18.6077 18.3851C18.9676 17.3037 18.4878 16.2223 17.4082 15.8619C16.0888 15.3812 14.6493 15.1409 13.2099 15.2611C12.6102 15.2611 11.8905 15.3812 11.5306 15.8619C11.1708 16.3425 11.1708 16.9432 11.0508 17.4239C10.3311 26.6757 8.65179 36.0478 6.13281 45.1795C6.61262 46.381 9.73135 46.8616 10.691 46.0205Z" fill="#F84E59"/>
<path d="M11.6506 15.7416C11.2907 16.2223 11.2907 16.823 11.1708 17.3036C10.3311 26.6757 8.65179 36.0477 6.13281 45.1794C6.25276 45.4197 6.61262 45.66 6.97247 45.9003C9.6114 35.8074 12.0104 25.5943 12.8501 15.1409C12.3703 15.261 11.8905 15.3812 11.6506 15.7416Z" fill="#491D6B"/>
<path d="M8.28906 45.7799C9.48857 46.0202 9.84843 46.0202 10.928 45.5396C13.447 36.4079 16.0859 27.2762 18.7248 18.2646C19.0847 17.1832 18.6049 16.1019 17.5253 15.7414C16.6856 15.3809 15.846 15.2608 15.0063 15.1406C14.5265 18.3848 14.0467 21.6289 13.327 24.8731C11.6477 32.3227 9.96838 38.9311 8.28906 45.7799Z" fill="#F99AF6"/>
<path d="M16.9346 2.76465C16.5747 5.52819 16.0949 9.01266 15.735 11.7762C15.6151 12.377 15.6151 12.9777 15.855 13.4584C16.0949 13.939 17.6543 15.0204 18.254 14.9002C17.2944 10.6948 16.9346 6.60958 16.9346 2.76465Z" fill="#6FD0FF"/>
<path d="M14.7626 15.8618C15.3624 15.7416 15.9621 15.6215 16.5619 15.5013C15.4823 15.261 14.4027 15.0207 13.3232 15.1408C12.7234 15.1408 12.0037 15.261 11.6439 15.7416C11.404 16.1021 11.284 16.4625 11.1641 16.9432C12.4835 16.4625 13.5631 16.1021 14.7626 15.8618Z" fill="#491D6B"/>
<path d="M18.4838 16.5825C17.4043 16.7027 16.4447 16.8228 15.4851 17.0631C14.1656 17.4236 12.8461 17.7841 11.5267 18.2647C11.4067 18.2647 11.2868 18.3848 11.1668 18.3848C11.1668 18.8654 11.0469 19.2259 11.0469 19.7065C13.5659 18.6251 16.2048 17.9042 18.8437 17.4236C18.7238 17.0631 18.6038 16.8228 18.4838 16.5825Z" fill="#6FD0FF"/>
<path d="M10.7996 21.2688C10.7996 21.6293 10.6797 21.8696 10.6797 22.23C12.2391 21.389 13.7984 20.5479 15.3578 20.0673C16.3174 19.827 17.277 19.5866 18.3566 19.4665C18.4765 19.2262 18.4765 19.106 18.5965 18.8657C15.8376 19.2262 13.1987 20.0673 10.7996 21.2688Z" fill="#491D6B"/>
<path d="M17.5174 22.1093C17.6373 21.7488 17.7573 21.2682 17.8772 20.9077C17.2775 21.0279 16.6777 21.148 16.1979 21.2682C14.5186 21.7488 12.9592 22.4697 11.5198 23.3108C11.16 23.5511 10.8001 23.7914 10.4403 23.9116C10.4403 24.272 10.3203 24.7526 10.3203 25.1131C12.4794 23.6713 14.9984 22.71 17.5174 22.1093Z" fill="#6FD0FF"/>
<path d="M16.806 24.7537C16.9259 24.3933 17.0459 24.0328 17.1658 23.6724C14.5269 24.2731 12.1279 25.3545 10.0887 27.0367C10.0887 27.277 9.96875 27.6374 9.96875 27.8778C12.0079 26.4359 14.287 25.3545 16.806 24.7537Z" fill="#491D6B"/>
<path d="M15.9617 27.3969C16.0817 27.0364 16.2016 26.5558 16.3216 26.1953C13.9226 26.9162 11.6435 28.1178 9.60433 29.6798C9.60433 29.9201 9.48438 30.2806 9.48438 30.5209C11.2836 29.079 13.5627 28.1178 15.9617 27.3969Z" fill="#6FD0FF"/>
<path d="M15.2402 29.7991C15.3602 29.5587 15.3602 29.3184 15.4801 29.0781C13.0811 29.799 10.802 31.0006 9.00276 32.8029C9.00276 33.0432 8.88281 33.2835 8.88281 33.4037C10.922 31.9618 13.0811 30.7603 15.2402 29.7991Z" fill="#491D6B"/>
<path d="M11.1651 34.4853C12.2447 34.0047 13.2043 33.5241 14.2839 33.1636C14.4038 32.5628 14.6437 31.9621 14.7637 31.4814C12.6045 32.5628 10.4454 33.8845 8.5262 35.3264C8.5262 35.5667 8.40625 35.807 8.40625 36.0473C9.24591 35.4465 10.2055 34.9659 11.1651 34.4853Z" fill="#6FD0FF"/>
<path d="M13.5679 35.9276C13.6878 35.5671 13.8078 35.2067 13.9277 34.8462C13.4479 35.0865 12.8482 35.2067 12.3684 35.447C10.9289 36.0477 9.36958 36.7687 7.93017 37.85C7.81022 38.3307 7.69026 38.8113 7.57031 39.2919C9.36958 37.85 11.4088 36.7687 13.5679 35.9276Z" fill="#491D6B"/>
<path d="M12.6037 39.1714C12.7236 38.5706 12.9635 38.09 13.0835 37.4893C10.9244 38.4505 9.00516 39.652 7.32584 41.214L7.20589 41.3342C7.20589 41.4543 7.08594 41.5745 7.08594 41.6947C8.6453 40.6133 10.6845 39.7722 12.6037 39.1714Z" fill="#6FD0FF"/>
<path d="M11.765 42.0551C11.8849 41.5745 12.0049 41.214 12.1248 40.7334C9.96572 41.4543 7.92655 42.2954 6.36719 43.9776C6.36719 43.9776 6.36719 43.9776 6.36719 44.0977C7.92655 43.0163 9.84577 42.4156 11.765 42.0551Z" fill="#491D6B"/>
<path d="M7.20408 46.1409C8.40359 45.1797 9.84301 44.5789 11.2824 44.2185C11.4024 43.9782 11.4024 43.7379 11.5223 43.4976C9.72306 43.9782 7.92379 44.5789 6.48438 45.6603C6.60433 45.7805 6.84423 46.0208 7.20408 46.1409Z" fill="#6FD0FF"/>
<path d="M9.00781 46.5012C9.72752 46.5012 10.3273 46.3811 10.6871 46.0206C10.6871 45.9005 10.6871 45.7803 10.8071 45.6602C10.2073 45.9005 9.60757 46.1408 9.00781 46.5012Z" fill="#FED835"/>
<path d="M17.4004 17.5438C17.5203 17.3034 17.6403 16.943 17.7602 16.5825C17.1604 16.7027 16.6806 16.7027 16.0809 16.8228C16.0809 17.1833 15.9609 17.5438 15.9609 17.9042C16.4407 17.7841 16.9205 17.6639 17.4004 17.5438Z" fill="white"/>
<path d="M15.9624 22.1091C16.0823 21.8688 16.0823 21.5084 16.2023 21.2681C16.2023 21.2681 16.2023 21.2681 16.0823 21.2681C15.7225 21.3882 15.4826 21.5084 15.1227 21.6285C15.0028 22.1091 14.8828 22.4696 14.8828 22.9502C15.1227 22.8301 15.4826 22.7099 15.7225 22.7099C15.9624 22.3495 15.9624 22.2293 15.9624 22.1091Z" fill="white"/>
<path d="M14.6365 26.7959C14.3966 26.9161 14.2767 26.9161 14.0368 27.0362C13.9168 27.3967 13.9168 27.7571 13.7969 28.1176C14.0368 27.9974 14.1567 27.9974 14.3966 27.8773C14.3966 27.637 14.5166 27.1564 14.6365 26.7959Z" fill="white"/>
<path d="M13.2068 32.3228C13.0869 32.4429 12.847 32.4429 12.727 32.5631C12.6071 33.0437 12.4871 33.5243 12.3672 33.8848C12.4871 33.7646 12.6071 33.7646 12.847 33.6444C12.9669 33.284 13.0869 32.8034 13.2068 32.3228Z" fill="white"/>
<path d="M11.7615 38.2104C11.6416 38.3306 11.4017 38.3306 11.2817 38.4508C11.1618 38.9314 11.0418 39.412 10.9219 39.7725C11.1618 39.6523 11.2817 39.6523 11.5216 39.5321C11.5216 39.1717 11.6416 38.6911 11.7615 38.2104Z" fill="white"/>
<path d="M10.444 43.7373C10.2041 43.8575 9.96418 43.8575 9.72428 43.9776C9.60433 44.2179 9.60433 44.5784 9.48438 44.8187C9.72428 44.6985 10.0841 44.5784 10.324 44.4582C10.444 44.2179 10.444 43.9776 10.444 43.7373Z" fill="white"/>
<path d="M6.72656 54.4313C7.68617 52.2685 8.28593 50.1057 8.40588 47.7026C7.92607 49.9856 6.72656 52.1483 6.72656 54.4313Z" fill="#FED835"/>
<path d="M8.04989 58.8774C8.7696 55.8735 9.12945 52.6294 8.88955 49.5054C8.40975 52.6294 7.92994 55.7534 8.04989 58.8774Z" fill="#F84E59"/>
<path d="M4.92969 64.0442C5.76935 61.1605 6.48905 58.2768 6.96886 55.3931C6.00925 58.1566 5.16959 61.1605 4.92969 64.0442Z" fill="#F84E59"/>
<path d="M10.0837 53.1098C10.5635 51.5478 10.6834 49.9858 9.84375 48.4238C9.84375 49.9858 9.84375 51.5478 10.0837 53.1098Z" fill="#FED835"/>
<path d="M4.32812 59.2374C4.92788 58.2761 5.40769 57.0746 5.52764 55.873C4.92788 56.8343 4.56803 58.0358 4.32812 59.2374Z" fill="#F84E59"/>
<path d="M7.56346 47.1021C7.08365 47.9431 6.84375 48.9044 6.84375 49.7454C7.2036 48.7842 7.32355 48.3036 7.56346 47.1021Z" fill="#FED835"/>
</g>
<defs>
<clipPath id="clip0_327_2464">
<rect width="52.0588" height="82.0588" fill="white" transform="translate(-7.0625 1.4436)"/>
</clipPath>
</defs>
</svg>
