<svg width="52" height="77" viewBox="0 0 52 77" fill="none" xmlns="http://www.w3.org/2000/svg">
<mask id="mask0_327_2367" style="mask-type:alpha" maskUnits="userSpaceOnUse" x="0" y="0" width="52" height="77">
<path d="M0 0.981689H52V46.9817C52 63.5502 38.5685 76.9817 22 76.9817H0V0.981689Z" fill="#D9D9D9"/>
</mask>
<g mask="url(#mask0_327_2367)">
<g clip-path="url(#clip0_327_2367)">
<path d="M36.5864 32.0592C39.8217 31.8572 42.9559 30.2408 45.2812 27.8162C47.5055 25.3915 48.921 22.2597 49.3254 19.0269C49.8309 15.491 49.2243 11.8541 47.5055 8.7223C45.7868 5.5905 42.9559 3.16588 39.5184 2.0546C33.9577 0.337161 27.2849 2.96383 24.0496 7.91409C20.8143 12.8644 20.9154 19.7341 23.9485 24.8864C26.5772 29.2305 31.5312 32.3623 36.5864 32.0592Z" fill="#869DFD"/>
<path d="M47.6094 8.82375C46.3961 6.50016 44.4752 4.58067 42.2509 3.26733C42.352 4.07554 42.4531 4.88375 42.4531 5.59093C42.7564 11.4504 40.7344 17.9161 35.5781 20.9468C32.0395 22.9673 27.8943 23.3715 24.2546 21.2499C23.4458 20.6438 22.6369 19.9366 21.8281 19.2294C22.1314 21.1489 22.8392 23.0684 23.9513 24.7858C26.58 29.1299 31.534 32.2617 36.5892 31.9586C39.8244 31.7566 42.9586 30.1402 45.284 27.7156C47.5083 25.2909 48.9237 22.1591 49.3281 18.9263C49.9347 15.5925 49.3281 11.8545 47.6094 8.82375Z" fill="#7A4EBD"/>
<path d="M28.8047 29.8369C31.1301 31.3522 33.8598 32.1604 36.5896 32.0594C39.8249 31.8574 42.9591 30.241 45.2845 27.8163C47.5087 25.3917 48.9242 22.2599 49.3286 19.0271C49.3286 18.724 49.4297 18.4209 49.4297 18.0168C46.4977 26.301 37.6006 33.6758 28.8047 29.8369Z" fill="#4848A3"/>
<path d="M26.7825 14.077C28.0968 12.9657 29.1078 11.5513 30.22 10.339C31.3321 9.02568 32.6465 7.81337 34.2641 7.30824C35.174 7.00516 36.2862 7.00516 37.1961 6.60106C38.106 6.19696 39.0159 5.38875 38.9148 4.37849C38.9148 3.77234 38.4093 3.16619 37.9038 2.86311C37.3983 2.56003 36.7917 2.35798 36.084 2.35798C34.5674 2.25695 32.9498 2.56003 31.4332 3.06516C29.3101 3.77234 27.3891 4.98465 25.8726 6.60106C24.356 8.3185 23.5472 10.5411 23.7494 12.7636C23.8505 13.5718 24.1538 14.4811 24.9626 14.6831C25.6703 14.8852 26.277 14.4811 26.7825 14.077Z" fill="#6FD0FF"/>
<path d="M39.5152 5.28748C39.6163 5.59056 39.7174 5.89363 39.9196 6.19671C40.1218 6.39876 40.4251 6.60081 40.7284 6.60081C41.0317 6.49979 41.335 6.19671 41.335 5.89363C41.335 5.59056 41.2339 5.18645 41.1328 4.88338C41.0317 4.5803 40.8295 4.27722 40.5262 4.1762C40.2229 3.97415 39.9196 3.97415 39.6163 4.1762C39.313 4.27722 39.4141 4.88338 39.5152 5.28748Z" fill="#6FD0FF"/>
<path d="M33.5519 2.96384C31.2265 3.36794 29.0022 4.27717 27.3846 5.89359C25.6658 7.51 24.5537 9.73256 24.6548 12.0562C24.7559 10.9449 25.2614 10.0356 25.9691 9.12641C28.5978 5.48948 32.9452 3.26692 37.4949 3.06487C36.1805 2.66076 34.8662 2.66076 33.5519 2.96384Z" fill="#CBEFF7"/>
<path d="M42.2482 23.8765C44.2702 23.0683 46.4945 22.5632 48.6176 22.3611C48.7187 22.0581 48.8199 21.755 48.921 21.4519C46.4945 21.654 44.1691 22.1591 41.9449 23.0683C38.0018 24.6847 34.4632 27.3114 31.9357 30.7463C31.8346 30.9483 31.6324 31.0493 31.5312 31.2514C31.8346 31.3524 32.1379 31.4535 32.3401 31.5545C32.4412 31.4535 32.5423 31.3524 32.5423 31.2514C35.0699 27.9175 38.4062 25.3919 42.2482 23.8765Z" fill="#CBEFF7"/>
<path d="M41.5432 18.7241C44.0708 17.4108 46.8006 16.6026 49.5303 16.0975C49.5303 15.7944 49.5303 15.4913 49.5303 15.1882C46.5983 15.6934 43.8686 16.6026 41.2399 17.9159C36.5892 20.2395 32.545 23.8764 29.6131 28.2206C29.3097 28.7257 29.0064 29.2308 28.7031 29.837C28.9053 30.039 29.2086 30.14 29.4108 30.3421C29.7142 29.837 30.0175 29.2308 30.3208 28.8267C33.1517 24.4826 36.9936 20.9467 41.5432 18.7241Z" fill="#FED835"/>
<path d="M27.1797 25.8969C29.6062 20.7446 33.5492 16.1985 38.301 13.0667C41.1319 11.2482 44.3672 9.83384 47.7036 9.02564C47.7036 8.92461 47.6025 8.92461 47.6025 8.82359C47.4003 8.52051 47.2992 8.31846 47.097 8.01538C43.7606 8.92461 40.5253 10.2379 37.5933 12.1574C32.6392 15.3903 28.5951 20.1385 26.0676 25.4928C25.8653 25.998 25.6631 26.5031 25.4609 27.1092C25.7642 27.4123 26.0676 27.7154 26.3709 28.0185C26.5731 27.2103 26.8764 26.5031 27.1797 25.8969Z" fill="#FED835"/>
<path d="M25.0574 19.1282C28.8994 13.0667 34.7633 8.52052 41.5372 6.29796C42.7505 5.89385 43.9637 5.59078 45.0758 5.38872C44.5703 4.8836 43.9637 4.37847 43.3571 3.97437C42.6494 4.17642 41.8405 4.37847 41.0317 4.68154C33.8534 7.10616 27.6861 11.8544 23.642 18.219C23.0354 19.1282 22.631 19.9364 22.2266 20.8457C22.4288 21.6539 22.7321 22.5631 23.1365 23.3713C23.5409 21.9569 24.1475 20.5426 25.0574 19.1282Z" fill="#FED835"/>
<path d="M35.0694 4.47945C36.9903 3.67125 38.9113 2.96407 41.0345 2.66099C40.6301 2.45894 40.1245 2.25689 39.619 2.15586C39.2146 2.05483 38.8102 1.95381 38.3047 1.85278C36.9903 2.25689 35.676 2.66099 34.4628 3.26714C29.812 5.38868 25.7679 8.82356 22.7348 13.1677C22.3304 13.6728 21.926 14.2789 21.6227 14.9861C21.5216 16.0974 21.5216 17.1077 21.6227 18.219C22.2293 16.6025 23.1392 15.1882 23.9481 13.9759C26.8801 9.73279 30.722 6.49997 35.0694 4.47945Z" fill="#FED835"/>
<path d="M42.2482 23.8765C44.2702 23.0683 46.4945 22.5632 48.6176 22.3611C48.7187 22.0581 48.8199 21.755 48.921 21.4519C46.4945 21.654 44.1691 22.1591 41.9449 23.0683C38.0018 24.6847 34.4632 27.3114 31.9357 30.7463C31.8346 30.9483 31.6324 31.0493 31.5312 31.2514C31.8346 31.3524 32.1379 31.4535 32.3401 31.5545C32.4412 31.4535 32.5423 31.3524 32.5423 31.2514C35.0699 27.9175 38.4062 25.3919 42.2482 23.8765Z" fill="#6FD0FF"/>
<path d="M29.6052 28.2208C29.3019 28.7259 28.9986 29.231 28.6953 29.8372C28.8975 30.0392 29.2008 30.1403 29.403 30.3423C29.7063 29.8372 30.0097 29.231 30.313 28.8269C31.2229 27.4126 32.335 26.0992 33.4471 24.7859C32.9416 24.8869 32.5372 24.9879 32.0317 24.9879C31.2229 25.9982 30.313 27.1095 29.6052 28.2208Z" fill="#6FD0FF"/>
<path d="M41.136 17.9159L41.0349 18.017C40.7316 18.5221 40.4283 19.0272 40.125 19.5323C40.6305 19.2293 41.0349 19.0272 41.5404 18.7241C44.068 17.4108 46.7978 16.6026 49.5276 16.0975C49.5276 15.7944 49.5276 15.4913 49.5276 15.1882C46.5956 15.6934 43.7647 16.6026 41.136 17.9159Z" fill="#6FD0FF"/>
<path d="M26.7757 24.0789C26.5735 24.483 26.3713 24.9881 26.1691 25.3922C25.9669 25.8973 25.7647 26.4025 25.5625 27.0086C25.8658 27.3117 26.1691 27.6148 26.4724 27.9178C26.6746 27.2107 26.9779 26.5035 27.2813 25.8973C27.4835 25.3922 27.7868 24.9881 27.989 24.483C27.4835 24.3819 27.1801 24.1799 26.7757 24.0789Z" fill="#6FD0FF"/>
<path d="M47.6066 8.82359C47.4044 8.52051 47.3033 8.31846 47.1011 8.01538C45.8879 8.31846 44.7757 8.72256 43.6636 9.12666C43.6636 9.53077 43.5625 10.0359 43.5625 10.44C44.9779 9.93487 46.2923 9.42974 47.8088 9.12666C47.7077 8.92461 47.6066 8.82359 47.6066 8.82359Z" fill="#6FD0FF"/>
<path d="M23.1369 23.2705C23.2381 22.8664 23.3392 22.5633 23.5414 22.1592C23.1369 21.8561 22.7325 21.452 22.3281 21.1489C22.5303 21.8561 22.8336 22.5633 23.1369 23.2705Z" fill="#6FD0FF"/>
<path d="M43.7656 4.27759C43.7656 4.68169 43.7656 5.18682 43.8667 5.59092C44.2711 5.4899 44.6756 5.38887 45.08 5.38887C44.5744 4.98477 44.17 4.58067 43.7656 4.27759Z" fill="#6FD0FF"/>
<path d="M39.5184 30.4431C39.114 30.5441 38.8107 30.6452 38.4062 30.7462V30.6452C38.7096 30.4431 39.114 30.4431 39.5184 30.4431Z" fill="#7A4EBD"/>
<path d="M32.3419 80.3497C32.3419 79.9456 32.3419 79.5415 32.3419 79.2384C31.2298 78.4302 30.7243 76.8138 30.9265 75.5005C31.1287 73.8841 32.0386 72.4697 33.0496 71.1564L33.1507 70.9543C34.0607 69.742 34.9706 68.4287 35.2739 66.9133C35.375 66.5092 35.4761 66.0041 35.375 65.4989C34.8695 66.0041 34.1618 66.3071 33.454 66.5092C32.6452 66.7112 31.6342 66.4082 31.0276 65.903C30.5221 65.4989 30.2188 64.8928 30.2188 64.2866C30.2188 63.5794 30.6232 62.9733 31.3309 62.5692C32.1397 62.0641 33.2518 62.0641 33.9596 62.5692C34.8695 63.1753 35.375 64.1856 35.4761 65.1959C35.9816 64.6907 36.386 64.1856 36.6893 63.7815C40.5312 58.5282 41.4412 52.2646 41.4412 47.9205C41.5423 42.6671 40.5313 37.4138 39.1158 31.2512H39.2169C40.7335 37.4138 41.6434 42.5661 41.5423 47.9205C41.4412 52.2646 40.6324 58.6292 36.7904 63.8825C36.4871 64.3877 35.9816 64.8928 35.4761 65.3979C35.4761 65.903 35.4761 66.5092 35.375 67.0143C34.9706 68.5297 34.0607 69.843 33.1507 71.0554L33.0496 71.2574C32.1397 72.5707 31.2298 73.9851 30.9265 75.6015C30.7243 76.8138 31.2298 78.3292 32.2408 79.1374C32.3419 78.6323 32.5441 78.2282 32.8474 77.9251C33.2518 77.521 33.8585 77.42 34.364 77.521C34.7684 77.622 35.0717 77.9251 35.1728 78.2282C35.2739 78.6323 35.1728 78.9354 34.8695 79.2384C34.364 79.6425 33.6563 79.8446 33.0496 79.6425C32.8474 79.5415 32.6452 79.4405 32.443 79.3395C32.443 79.6425 32.443 79.9456 32.443 80.3497C32.8474 85.6031 36.9926 90.3513 42.1489 91.3615V91.4625C36.8915 90.4523 32.7463 85.6031 32.3419 80.3497ZM33.1507 77.9251C32.8474 78.2282 32.6452 78.6323 32.5441 79.1374C32.7463 79.2384 32.9485 79.3395 33.1507 79.4405C33.6562 79.6425 34.4651 79.4405 34.8695 79.1374C35.0717 78.9354 35.2739 78.6323 35.1728 78.2282C35.0717 77.9251 34.8695 77.723 34.4651 77.622C34.1618 77.521 33.8585 77.521 33.6562 77.622C33.454 77.622 33.2518 77.723 33.1507 77.9251ZM33.9596 62.6702C33.2518 62.2661 32.2408 62.2661 31.432 62.6702C30.8254 63.0743 30.421 63.5794 30.421 64.2866C30.421 64.7918 30.7243 65.3979 31.2298 65.802C31.8364 66.3071 32.7463 66.5092 33.5551 66.4082C34.2629 66.2061 34.9706 65.903 35.4761 65.3979C35.375 64.2866 34.8695 63.1753 33.9596 62.6702Z" fill="#6FD0FF"/>
<path d="M39.6199 30.6448C39.9233 31.2509 40.2266 31.7561 40.5299 32.3622C39.9233 32.8673 39.2155 33.0694 38.5078 33.0694C38.5078 32.4632 38.5078 31.8571 38.5078 31.2509C38.8111 31.0489 39.2155 30.8468 39.6199 30.6448Z" fill="#7A4EBD"/>
<path d="M38.4062 30.8468C38.7096 30.7458 39.0129 30.6448 39.3162 30.6448C39.0129 30.7458 38.7096 30.9479 38.5074 31.0489C38.4062 31.0489 38.4062 30.9479 38.4062 30.8468Z" fill="#7A4EBD"/>
<path d="M38.4062 30.5439V30.4429C38.7096 30.0388 39.0129 30.0388 39.4173 30.0388C39.4173 30.1398 39.5184 30.2409 39.5184 30.3419C39.114 30.2409 38.7096 30.3419 38.4062 30.5439Z" fill="#7A4EBD"/>
<path d="M38.6094 32.8675C39.0138 32.4634 39.7215 32.2614 40.3281 32.3624C40.0248 32.5645 39.8226 32.6655 39.5193 32.7665C39.216 32.8675 38.9127 32.9686 38.6094 32.8675Z" fill="#491D6B"/>
<path d="M32.648 97.7265L32.5469 97.6255C38.6131 82.4716 38.6131 65.0952 32.5469 49.9414L32.648 49.8403C38.8153 65.1962 38.8153 82.5727 32.648 97.7265Z" fill="#6FD0FF"/>
<path d="M33.4566 35.5957C31.4345 32.4639 27.8959 30.1403 24.1551 30.0393C20.4143 29.9383 16.6735 32.2619 14.9547 35.6967C13.236 39.1316 13.6404 43.3747 15.6625 46.5065C17.7856 49.6383 21.5264 51.5578 25.2672 51.6588C27.7948 51.6588 30.3224 50.8506 32.1422 49.2342C35.9841 45.9003 36.1864 39.8388 33.4566 35.5957Z" fill="#F99AF6"/>
<path d="M18.2887 47.4156C18.8953 47.6177 19.7042 47.7187 20.2097 47.3146C20.8163 46.8095 21.0185 45.9002 20.9174 45.092C20.8163 43.0715 19.9064 41.152 19.9064 39.0305C19.8053 36.9089 20.7152 34.7874 21.7262 32.9689C22.0295 32.4638 22.3328 31.8577 21.9284 31.3525C21.6251 30.9484 21.0185 31.0495 20.513 31.2515C17.9854 32.0597 15.9634 34.0802 15.0534 36.5048C14.1435 38.9295 14.2446 41.7582 15.2556 44.1828C16.0645 45.5972 16.9744 46.9105 18.2887 47.4156Z" fill="#FED835"/>
<path d="M19.6022 32.2618C17.8834 33.07 16.5691 34.4844 15.7603 36.1008C14.9515 37.8182 14.8503 39.7377 15.3559 41.5562C15.457 41.9603 15.5581 42.2634 15.8614 42.5664C15.8614 42.5664 15.8614 42.5664 15.8614 42.6675C16.1647 43.0716 16.7713 42.7685 16.7713 42.2634C16.7713 38.9295 18.0856 35.6967 20.2088 33.07C20.6132 32.6659 20.2088 32.0598 19.6022 32.2618Z" fill="white"/>
<path d="M33.4536 35.596C31.4315 32.4642 27.8929 30.1406 24.1521 30.0396C23.5455 30.0396 22.8378 30.1406 22.2312 30.2416C25.972 31.3529 29.1062 34.5857 29.6117 38.7278C30.3194 44.1831 26.7808 48.9314 22.029 50.7498C21.8267 50.8508 21.6245 50.8508 21.5234 50.8508C22.7367 51.2549 24.051 51.558 25.3654 51.558C27.8929 51.558 30.4205 50.7498 32.2404 49.1334C35.9812 45.9006 36.1834 39.839 33.4536 35.596Z" fill="#7A4EBD"/>
<path d="M23.8471 47.6174C24.1504 44.2835 25.768 41.0507 28.2956 38.9292C29.9133 37.5148 31.7331 36.6056 33.7552 36.1004C33.6541 35.9994 33.6541 35.8984 33.553 35.7974C31.5309 36.3025 29.6099 37.3127 27.9923 38.7271C25.3636 40.9497 23.746 44.2835 23.4427 47.6174C23.3416 48.6276 23.3416 50.3451 24.2515 51.6584C24.3526 51.6584 24.5548 51.6584 24.6559 51.6584C23.746 50.3451 23.746 48.6276 23.8471 47.6174Z" fill="white"/>
<path d="M25.1633 35.4943C26.5787 34.282 28.2975 33.1708 30.3195 32.2615C30.1173 32.1605 29.9151 31.9584 29.7129 31.8574C27.8931 32.7667 26.1743 33.8779 24.7589 35.0902C22.0291 37.4138 20.1081 40.2426 19.2993 43.2733C18.6927 45.4959 18.5916 47.7185 19.0971 49.739C19.2993 49.941 19.6026 50.0421 19.9059 50.2441C19.1982 48.0215 19.1982 45.6979 19.9059 43.3744C20.7148 40.4446 22.5346 37.7169 25.1633 35.4943Z" fill="white"/>
<path d="M19.0983 36.1007C21.0193 33.676 23.5469 31.7565 26.6811 30.4432C26.1756 30.3422 25.67 30.2412 25.0634 30.1401C22.3336 31.4535 20.1094 33.2719 18.3906 35.4945C16.1664 38.3232 15.0542 41.7581 14.9531 45.0919C15.1553 45.5971 15.4586 46.1022 15.7619 46.6073C15.8631 46.7084 15.9642 46.8094 15.9642 46.9104C15.5597 43.2735 16.6719 39.2325 19.0983 36.1007Z" fill="white"/>
<path d="M23.4427 47.5165C23.3416 48.5268 23.3416 50.2442 24.2515 51.5575C24.3526 51.5575 24.5548 51.5575 24.6559 51.5575C23.746 50.3452 23.6449 48.5268 23.746 47.5165C23.746 47.1124 23.8471 46.7083 23.9482 46.3042C23.8471 46.4052 23.746 46.4052 23.6449 46.4052C23.5438 46.8093 23.5438 47.2134 23.4427 47.5165Z" fill="#FED835"/>
<path d="M33.5524 35.6968C31.5303 36.2019 29.6094 37.2122 27.9917 38.6265L27.8906 38.7275C27.8906 38.8286 27.8906 39.0306 27.8906 39.1317C27.9917 39.0306 28.0928 38.9296 28.1939 38.8286C29.8116 37.4142 31.6314 36.505 33.6535 35.9999C33.6535 35.8988 33.6535 35.7978 33.5524 35.6968Z" fill="#FED835"/>
<path d="M18.7969 46.9106C18.7969 47.8199 18.898 48.8301 19.1002 49.7394C19.3024 49.9414 19.6057 50.0424 19.909 50.2445C19.6057 49.2342 19.5046 48.224 19.5046 47.1127H19.4035C19.1002 47.0117 18.898 47.0117 18.7969 46.9106Z" fill="#FED835"/>
<path d="M30.3199 32.2615C30.1176 32.1605 29.9154 31.9584 29.7132 31.8574C28.7022 32.3626 27.6912 32.9687 26.7812 33.4738C26.8824 33.6759 26.9835 33.8779 26.9835 34.08C28.0956 33.3728 29.1066 32.7667 30.3199 32.2615Z" fill="#FED835"/>
<path d="M14.9531 45.0919C15.1553 45.5971 15.4586 46.1022 15.7619 46.6073C15.8631 46.7084 15.9642 46.8094 15.9642 46.9104C15.8631 46.5063 15.8631 46.1022 15.8631 45.6981C15.5597 45.496 15.1553 45.193 14.9531 44.8899C14.9531 44.8899 14.9531 44.9909 14.9531 45.0919Z" fill="#FED835"/>
<path d="M26.6783 30.4432C26.1728 30.3422 25.6673 30.2412 25.0607 30.1401C24.9596 30.2412 24.7574 30.2412 24.6562 30.3422C24.8585 30.5442 25.0607 30.8473 25.2629 31.0494C25.7684 30.8473 26.1728 30.6453 26.6783 30.4432Z" fill="#FED835"/>
<path d="M31.7417 49.4367C31.9439 49.2347 32.1461 49.0326 32.2472 48.8306L31.6406 49.3357C31.6406 49.3357 31.6406 49.3357 31.7417 49.4367Z" fill="#7A4EBD"/>
<path d="M32.1452 48.6283C32.0441 48.5272 31.943 48.4262 31.8419 48.3252C31.7408 48.6283 31.6397 48.8303 31.4375 49.0324L31.5386 49.1334L32.1452 48.6283Z" fill="#7A4EBD"/>
<path d="M32.3493 48.9312C32.1471 49.1332 32.046 49.3353 31.8438 49.5373C32.2482 50.0424 32.5515 50.5476 32.8548 51.0527C33.1581 50.6486 33.4614 50.3455 33.7647 49.9414C33.1581 49.6383 32.7537 49.3353 32.3493 48.9312Z" fill="#7A4EBD"/>
<path d="M33.5588 49.9414C33.1544 50.0424 32.8511 50.4465 32.75 50.8506C33.0533 50.6486 33.3566 50.3455 33.5588 49.9414Z" fill="#491D6B"/>
<path d="M18.2891 19.0271C18.2891 19.1282 18.3902 19.1282 18.3902 19.2292C18.4913 19.0272 18.6935 18.8251 18.7946 18.623C18.7946 18.623 18.7946 18.623 18.6935 18.623C18.5924 18.623 18.4913 18.7241 18.3902 18.8251C18.3902 18.8251 18.3902 18.9261 18.2891 19.0271Z" fill="#F84E59"/>
<path d="M18.9982 18.623C18.796 18.8251 18.6949 18.9261 18.5938 19.1282C18.796 18.9261 18.8971 18.8251 19.0993 18.7241C19.0993 18.7241 18.9982 18.7241 18.9982 18.623Z" fill="#F84E59"/>
<path d="M18.3897 18.623C18.2886 18.623 18.1875 18.7241 18.1875 18.8251C18.1875 18.8251 18.1875 18.9261 18.2886 18.9261C18.2886 18.8251 18.3897 18.7241 18.3897 18.623Z" fill="#F84E59"/>
<path d="M19.1999 18.9263C18.8966 19.0273 18.6944 19.2293 18.4922 19.4314C18.6944 19.8355 18.8966 20.3406 18.8966 20.8458C19.301 20.8458 19.7054 20.6437 19.9076 20.3406C20.1098 20.0376 20.2109 19.6334 20.2109 19.2293C19.9076 19.3304 19.5032 19.2293 19.1999 18.9263Z" fill="#F84E59"/>
<path d="M1.40579 19.7345C2.11351 22.8663 4.03447 25.8971 6.96646 27.4125C9.59513 28.8268 12.7293 28.7258 15.6613 28.0186C19.5032 27.0084 22.9407 24.5837 25.0639 21.2499C27.187 17.916 27.6926 13.5719 26.3782 9.93502C24.7606 5.69194 20.7165 2.66116 16.2679 2.15604C11.8194 1.65091 7.06756 3.5704 4.23668 7.1063C1.40579 10.5412 0.394764 15.3904 1.40579 19.7345Z" fill="#F84E59"/>
<path d="M7.47105 28.0187C4.43796 25.291 2.82031 21.1489 3.22472 17.1079C3.52803 13.0669 5.8534 9.22789 9.08869 6.9043C12.324 4.58071 16.6714 3.57045 20.6144 4.27763C16.5703 2.15609 11.313 2.45917 7.47105 4.88378C3.62914 7.3084 1.10156 11.8546 1.10156 16.4007C1.20267 21.0479 3.62914 25.493 7.47105 28.0187Z" fill="#FAB06F"/>
<path d="M25.3689 16.5018C25.6723 14.2793 24.6612 11.9557 22.9425 10.5413C21.2237 9.12697 18.7973 8.62184 16.573 8.92492C14.3487 9.228 12.3267 10.4403 10.709 11.9557C8.78806 13.8752 7.37262 16.5018 7.37262 19.2295C7.27152 21.9572 8.58586 24.786 10.9112 26.2003C13.0344 27.5136 15.7642 27.7157 18.0895 26.7054C20.4149 25.6952 22.2348 23.7757 23.1447 21.4521C24.1557 19.1285 24.2568 16.6029 23.8524 14.0772L25.3689 16.5018Z" fill="#8D2A60"/>
<path d="M33.7601 88.0278C31.637 86.7145 31.3336 83.7847 31.3336 82.1683C31.3336 81.5622 31.4347 80.855 31.4347 80.2488C31.5358 78.7334 31.6369 77.117 31.2325 75.7027C30.9292 74.6924 30.4237 73.7832 29.6149 73.076C29.1094 73.2781 28.4017 73.5811 27.795 73.4801C27.1884 73.3791 26.4807 72.874 26.4807 72.1668V72.0657H26.5818C27.6939 71.7627 28.8061 72.1668 29.6149 72.975C34.2656 70.8534 37.602 65.9032 38.4108 60.0437C39.0175 55.3965 38.2086 50.1432 35.8833 44.0816C32.2436 34.7873 26.2785 26.4021 18.7969 19.9365L18.898 19.8354C26.4807 26.4021 32.4458 34.6862 36.0855 44.0816C38.5119 50.1432 39.3208 55.3965 38.6131 60.1447C37.8042 66.0042 34.3667 71.0555 29.8171 73.177C30.5248 73.8842 31.1314 74.7934 31.4347 75.8037C31.8392 77.3191 31.7381 78.9355 31.6369 80.4509C31.6369 81.057 31.5358 81.7642 31.5358 82.3704C31.5358 83.9868 31.8392 86.8155 33.8612 88.1288L33.7601 88.0278ZM26.6829 72.0657C26.6829 72.6719 27.2895 73.177 27.795 73.2781C28.4017 73.3791 29.0083 73.177 29.5138 72.975C28.705 72.2678 27.6939 71.8637 26.6829 72.0657Z" fill="#6FD0FF"/>
<path d="M1.70982 17.5118C1.81092 14.279 2.92305 11.1472 4.94511 8.62155C6.96717 6.09591 9.79805 4.27744 12.8311 3.46924C9.49474 3.67129 6.36055 5.48975 4.3385 8.11642C2.31644 10.7431 1.50761 14.178 1.70982 17.5118Z" fill="white"/>
<path d="M17.4805 19.4315C17.4805 19.7345 17.5816 20.0376 17.7838 20.1387C17.986 20.3407 18.3905 20.3407 18.5927 20.2397C18.896 20.1387 19.0982 19.9366 19.3004 19.6335C19.6037 19.2294 19.8059 18.7243 19.6037 18.2192C19.3004 17.714 18.5927 17.613 18.0872 17.9161C17.6827 18.2192 17.3794 18.8253 17.4805 19.4315Z" fill="#491D6B"/>
<path d="M7.97357 26.5031C6.35592 24.8867 5.85041 22.7652 5.5471 21.2498C4.94048 16.6026 6.76033 11.5513 10.4 7.71232C12.4221 5.59078 15.0508 3.87334 18.0839 2.56001C17.8817 2.56001 17.7806 2.45898 17.5783 2.45898C14.6464 3.77232 12.1188 5.48976 10.1978 7.51027C6.35592 11.4503 4.53607 16.6026 5.24379 21.3508C5.44599 22.8662 6.05261 25.0887 7.67026 26.8062C8.37798 27.5134 9.28791 28.1195 10.1978 28.5236C10.7033 28.6246 11.1078 28.6246 11.6133 28.6246C10.2989 28.2205 8.9846 27.6144 7.97357 26.5031Z" fill="#6FD0FF"/>
<path d="M4.13469 11.3493C5.55013 7.8134 8.07771 4.78262 11.313 2.56006C11.0097 2.66108 10.7064 2.76211 10.4031 2.86314C7.47109 5.0857 5.14572 7.91442 3.83138 11.1472C2.11263 15.3903 2.11263 20.2396 3.93249 24.1796C4.23579 24.7857 4.5391 25.3919 4.84241 25.998C5.14572 26.2001 5.34793 26.5032 5.65124 26.7052C5.04462 25.897 4.5391 24.9878 4.13469 24.0785C2.51704 20.2396 2.51704 15.4913 4.13469 11.3493Z" fill="#6FD0FF"/>
<path d="M20.1126 19.3306C19.506 19.5326 19.1016 20.1388 19.1016 20.7449C19.4049 20.6439 19.7082 20.4418 19.9104 20.2398C20.1126 19.9367 20.2137 19.6336 20.1126 19.3306Z" fill="#491D6B"/>
</g>
</g>
<defs>
<clipPath id="clip0_327_2367">
<rect width="48.5294" height="96.1765" fill="white" transform="translate(1 1.55005)"/>
</clipPath>
</defs>
</svg>
