<svg width="30" height="31" viewBox="0 0 30 31" fill="none" xmlns="http://www.w3.org/2000/svg">
<path fill-rule="evenodd" clip-rule="evenodd" d="M3 6.75605C3.00031 6.45779 3.11886 6.17182 3.32967 5.96081C3.54048 5.74981 3.82635 5.631 4.12461 5.63042H13.5979V8.47119C13.0043 8.55295 12.4603 8.84684 12.0665 9.29854C11.6728 9.75025 11.4558 10.3292 11.4558 10.9285C11.4558 11.5277 11.6728 12.1067 12.0665 12.5584C12.4603 13.0101 13.0043 13.304 13.5979 13.3857V16.227H10.4393C10.3496 16.2271 10.2637 16.2628 10.2004 16.3262C10.1371 16.3897 10.1015 16.4757 10.1016 16.5653C10.1016 17.0437 9.91155 17.5026 9.57323 17.8409C9.23491 18.1792 8.77606 18.3693 8.29761 18.3693C7.81916 18.3693 7.3603 18.1792 7.02198 17.8409C6.68367 17.5026 6.4936 17.0437 6.4936 16.5653C6.49367 16.4756 6.45813 16.3897 6.3948 16.3262C6.33147 16.2628 6.24554 16.2271 6.15591 16.227H3V6.75605ZM13.5979 24.3436C13.5976 24.2992 13.6062 24.2551 13.6231 24.214C13.6399 24.1729 13.6648 24.1355 13.6962 24.1041C13.7276 24.0726 13.7649 24.0477 13.806 24.0308C13.8471 24.0139 13.8911 24.0052 13.9355 24.0054C14.4139 24.0054 14.8727 23.8154 15.2109 23.4771C15.5492 23.1389 15.7392 22.6801 15.7392 22.2018C15.7392 21.7234 15.5492 21.2646 15.2109 20.9264C14.8727 20.5881 14.4139 20.3981 13.9355 20.3981C13.8911 20.3982 13.8471 20.3896 13.806 20.3726C13.765 20.3556 13.7277 20.3307 13.6963 20.2993C13.6649 20.2678 13.64 20.2305 13.6231 20.1894C13.6063 20.1483 13.5977 20.1042 13.5979 20.0598V16.9035H10.7557C10.6737 17.4971 10.3796 18.041 9.92776 18.4347C9.47594 18.8284 8.8969 19.0453 8.29761 19.0453C7.69832 19.0453 7.11928 18.8284 6.66745 18.4347C6.21563 18.041 5.92155 17.4971 5.83955 16.9035H3V26.3738C3.00021 26.6722 3.11871 26.9583 3.32952 27.1694C3.54034 27.3805 3.82626 27.4994 4.12461 27.5H13.5979V24.3436ZM24.8686 26.3738C24.8683 26.6722 24.7498 26.9583 24.539 27.1694C24.3282 27.3805 24.0422 27.4994 23.7439 27.5H14.2732V24.6587C14.8665 24.5765 15.4101 24.2824 15.8035 23.8308C16.1969 23.3791 16.4136 22.8004 16.4136 22.2014C16.4136 21.6025 16.1969 21.0237 15.8035 20.5721C15.4101 20.1204 14.8665 19.8264 14.2732 19.7442V16.9035H17.4292C17.5188 16.9033 17.6047 16.8676 17.668 16.8042C17.7313 16.7408 17.7669 16.6549 17.7669 16.5653C17.7669 16.0868 17.957 15.628 18.2953 15.2897C18.6336 14.9513 19.0924 14.7613 19.5709 14.7613C20.0493 14.7613 20.5082 14.9513 20.8465 15.2897C21.1848 15.628 21.3749 16.0868 21.3749 16.5653C21.3749 16.6549 21.4105 16.7408 21.4738 16.8042C21.5371 16.8676 21.623 16.9033 21.7125 16.9035H24.8686V26.3738ZM27.3945 13.0966H24.5523C24.4707 12.503 24.1769 11.9591 23.7253 11.5654C23.2736 11.1716 22.6948 10.9547 22.0956 10.9547C21.4965 10.9547 20.9176 11.1716 20.4659 11.5654C20.0143 11.9591 19.7205 12.503 19.6389 13.0966H16.7966V9.94009C16.7969 9.89565 16.7883 9.85161 16.7714 9.8105C16.7546 9.76939 16.7297 9.73204 16.6983 9.7006C16.6669 9.66916 16.6296 9.64425 16.5885 9.62732C16.5474 9.61039 16.5034 9.60177 16.4589 9.60195C15.9822 9.59947 15.5258 9.40835 15.1896 9.07036C14.8534 8.73237 14.6646 8.27501 14.6646 7.79827C14.6646 7.32152 14.8534 6.86416 15.1896 6.52617C15.5258 6.18818 15.9822 5.99706 16.4589 5.99458C16.5034 5.99473 16.5474 5.98608 16.5884 5.96914C16.6295 5.95219 16.6668 5.92728 16.6982 5.89585C16.7296 5.86441 16.7545 5.82708 16.7714 5.78599C16.7882 5.7449 16.7968 5.70087 16.7966 5.65645V2.5H26.2699C26.5682 2.50056 26.854 2.61934 27.0648 2.83031C27.2756 3.04129 27.3942 3.32724 27.3945 3.62549V13.0966Z" fill="#CA9342"/>
</svg>
