<svg width="30" height="31" viewBox="0 0 30 31" fill="none" xmlns="http://www.w3.org/2000/svg">
<path fill-rule="evenodd" clip-rule="evenodd" d="M3 6.3166C3.00031 6.01834 3.11886 5.73236 3.32967 5.52136C3.54048 5.31036 3.82635 5.19155 4.12461 5.19097H13.5979V8.03174C13.0043 8.11349 12.4603 8.40738 12.0665 8.85909C11.6728 9.3108 11.4558 9.88978 11.4558 10.489C11.4558 11.0883 11.6728 11.6672 12.0665 12.1189C12.4603 12.5706 13.0043 12.8645 13.5979 12.9463V15.7875H10.4393C10.3496 15.7876 10.2637 15.8233 10.2004 15.8868C10.1371 15.9502 10.1015 16.0362 10.1016 16.1258C10.1016 16.6043 9.91155 17.0631 9.57323 17.4015C9.23491 17.7398 8.77606 17.9298 8.29761 17.9298C7.81916 17.9298 7.3603 17.7398 7.02198 17.4015C6.68367 17.0631 6.4936 16.6043 6.4936 16.1258C6.49367 16.0362 6.45813 15.9502 6.3948 15.8868C6.33147 15.8233 6.24554 15.7876 6.15591 15.7875H3V6.3166ZM13.5979 23.9042C13.5976 23.8597 13.6062 23.8157 13.6231 23.7746C13.6399 23.7334 13.6648 23.6961 13.6962 23.6646C13.7276 23.6332 13.7649 23.6083 13.806 23.5913C13.8471 23.5744 13.8911 23.5658 13.9355 23.566C14.4139 23.566 14.8727 23.3759 15.2109 23.0377C15.5492 22.6994 15.7392 22.2407 15.7392 21.7623C15.7392 21.2839 15.5492 20.8252 15.2109 20.4869C14.8727 20.1487 14.4139 19.9586 13.9355 19.9586C13.8911 19.9588 13.8471 19.9501 13.806 19.9332C13.765 19.9162 13.7277 19.8913 13.6963 19.8598C13.6649 19.8284 13.64 19.791 13.6231 19.7499C13.6063 19.7088 13.5977 19.6648 13.5979 19.6204V16.464H10.7557C10.6737 17.0577 10.3796 17.6016 9.92776 17.9953C9.47594 18.389 8.8969 18.6059 8.29761 18.6059C7.69832 18.6059 7.11928 18.389 6.66745 17.9953C6.21563 17.6016 5.92155 17.0577 5.83955 16.464H3V25.9344C3.00021 26.2327 3.11871 26.5188 3.32952 26.7299C3.54034 26.941 3.82626 27.0599 4.12461 27.0605H13.5979V23.9042ZM24.8686 25.9344C24.8683 26.2327 24.7498 26.5188 24.539 26.7299C24.3282 26.941 24.0422 27.0599 23.7439 27.0605H14.2732V24.2192C14.8665 24.1371 15.4101 23.843 15.8035 23.3913C16.1969 22.9397 16.4136 22.3609 16.4136 21.762C16.4136 21.163 16.1969 20.5843 15.8035 20.1326C15.4101 19.681 14.8665 19.3869 14.2732 19.3047V16.464H17.4292C17.5188 16.4638 17.6047 16.4281 17.668 16.3647C17.7313 16.3013 17.7669 16.2154 17.7669 16.1258C17.7669 15.6474 17.957 15.1885 18.2953 14.8502C18.6336 14.5119 19.0924 14.3218 19.5709 14.3218C20.0493 14.3218 20.5082 14.5119 20.8465 14.8502C21.1848 15.1885 21.3749 15.6474 21.3749 16.1258C21.3749 16.2154 21.4105 16.3013 21.4738 16.3647C21.5371 16.4281 21.623 16.4638 21.7125 16.464H24.8686V25.9344ZM27.3945 12.6571H24.5523C24.4707 12.0636 24.1769 11.5196 23.7253 11.1259C23.2736 10.7322 22.6948 10.5153 22.0956 10.5153C21.4965 10.5153 20.9176 10.7322 20.4659 11.1259C20.0143 11.5196 19.7205 12.0636 19.6389 12.6571H16.7966V9.50063C16.7969 9.4562 16.7883 9.41215 16.7714 9.37105C16.7546 9.32994 16.7297 9.29259 16.6983 9.26115C16.6669 9.2297 16.6296 9.2048 16.5885 9.18787C16.5474 9.17093 16.5034 9.16231 16.4589 9.1625C15.9822 9.16002 15.5258 8.9689 15.1896 8.63091C14.8534 8.29292 14.6646 7.83556 14.6646 7.35881C14.6646 6.88207 14.8534 6.42471 15.1896 6.08672C15.5258 5.74873 15.9822 5.55761 16.4589 5.55513C16.5034 5.55528 16.5474 5.54663 16.5884 5.52968C16.6295 5.51274 16.6668 5.48783 16.6982 5.45639C16.7296 5.42496 16.7545 5.38762 16.7714 5.34653C16.7882 5.30544 16.7968 5.26142 16.7966 5.21699V2.06055H26.2699C26.5682 2.0611 26.854 2.17989 27.0648 2.39086C27.2756 2.60184 27.3942 2.88779 27.3945 3.18604V12.6571Z" fill="#E0BF62"/>
</svg>
