<svg width="30" height="31" viewBox="0 0 30 31" fill="none" xmlns="http://www.w3.org/2000/svg">
<mask id="mask0_7637_277" style="mask-type:alpha" maskUnits="userSpaceOnUse" x="0" y="0" width="30" height="31">
<rect y="0.0605469" width="30" height="30" fill="#D9D9D9"/>
</mask>
<g mask="url(#mask0_7637_277)">
</g>
<path d="M18.1129 19.7949C17.2997 20.5436 16.2347 20.9592 15.1293 20.9592C14.0239 20.9592 12.9589 20.5436 12.1457 19.7949C11.6342 20.0515 11.1609 20.3781 10.7395 20.7652C10.1611 21.2771 9.69762 21.9055 9.37932 22.6091C9.06103 23.3128 8.89515 24.0758 8.89258 24.848V25.8184C8.89348 26.1525 9.02662 26.4727 9.26289 26.709C9.49917 26.9453 9.81937 27.0784 10.1535 27.0793H20.1098C20.4439 27.0784 20.7641 26.9453 21.0004 26.709C21.2367 26.4727 21.3698 26.1525 21.3707 25.8184C21.5735 23.2158 20.4929 20.9993 18.1129 19.7949Z" fill="#E0BF62"/>
<path d="M15.1316 13.082C14.2115 13.083 13.3293 13.4486 12.6782 14.0987C12.0272 14.7489 11.6604 15.6307 11.6582 16.5508C11.8218 21.1477 18.4421 21.1466 18.6051 16.5507C18.6029 15.6306 18.2361 14.7489 17.585 14.0987C16.934 13.4485 16.0517 13.0829 15.1316 13.082Z" fill="#E0BF62"/>
<path d="M26.1662 14.8867C25.6165 15.4717 24.8845 15.8529 24.0901 15.9678C23.2956 16.0828 22.4857 15.9247 21.7927 15.5195C21.5025 15.3496 21.2401 15.1362 21.0146 14.8867C20.4033 15.2718 19.8962 15.8015 19.538 16.4289C19.1289 17.2296 18.9581 18.1309 19.0459 19.0258C19.0466 19.2978 19.155 19.5585 19.3473 19.7509C19.5397 19.9432 19.8004 20.0516 20.0724 20.0523H27.099C27.2338 20.0524 27.3673 20.0259 27.4919 19.9743C27.6164 19.9227 27.7296 19.8471 27.8249 19.7518C27.9203 19.6564 27.9959 19.5432 28.0475 19.4187C28.099 19.2941 28.1256 19.1606 28.1255 19.0258V18.3414C28.116 17.6472 27.9314 16.9667 27.5889 16.3628C27.2464 15.7589 26.757 15.2512 26.1662 14.8867Z" fill="#E0BF62"/>
<path d="M23.5882 15.0744C27.0073 14.9665 27.007 10.0099 23.5881 9.89941C20.1679 10.0073 20.1692 14.9701 23.5882 15.0744Z" fill="#E0BF62"/>
<path d="M10.9547 19.0258V18.3414C10.945 17.6467 10.7599 16.9657 10.4165 16.3617C10.0731 15.7577 9.58265 15.2503 8.99063 14.8867C8.66192 15.2415 8.26345 15.5246 7.82021 15.7182C7.37697 15.9118 6.89852 16.0117 6.41484 16.0117C5.93117 16.0117 5.45272 15.9118 5.00947 15.7182C4.56623 15.5246 4.16777 15.2415 3.83906 14.8867C3.24588 15.2491 2.75447 15.7562 2.41093 16.3604C2.06739 16.9647 1.88298 17.6464 1.875 18.3414V19.0258C1.87496 19.1606 1.90148 19.2941 1.95306 19.4187C2.00463 19.5432 2.08025 19.6564 2.17558 19.7518C2.27092 19.8471 2.3841 19.9227 2.50867 19.9743C2.63323 20.0259 2.76674 20.0524 2.90156 20.0523H9.92813C10.2002 20.0516 10.4609 19.9432 10.6532 19.7509C10.8456 19.5585 10.954 19.2978 10.9547 19.0258Z" fill="#E0BF62"/>
<path d="M6.41188 15.0744C9.83171 14.9696 9.83141 10.0068 6.41183 9.89941C2.99229 10.0104 2.99356 14.967 6.41188 15.0744Z" fill="#E0BF62"/>
<path d="M11.0062 7.22268L12.5952 8.36643L11.9859 10.2414C11.9238 10.4275 11.9231 10.6285 11.9839 10.815C12.0446 11.0015 12.1636 11.1636 12.3234 11.2774C12.4803 11.3949 12.671 11.4584 12.8671 11.4584C13.0632 11.4584 13.2539 11.3949 13.4109 11.2774L14.9905 10.1196L16.589 11.2774C16.7454 11.396 16.9364 11.4602 17.1327 11.4602C17.3291 11.4602 17.52 11.396 17.6765 11.2774C17.8362 11.1636 17.9552 11.0015 18.0159 10.815C18.0767 10.6285 18.076 10.4275 18.014 10.2414L17.3999 8.38049L18.9937 7.22268C19.1493 7.10656 19.2646 6.94459 19.3234 6.75956C19.3822 6.57452 19.3816 6.3757 19.3216 6.19104C19.2616 6.00639 19.1452 5.84518 18.9888 5.73006C18.8325 5.61494 18.644 5.55171 18.4499 5.54924L16.4905 5.55862C16.4894 5.55534 15.8792 3.68281 15.8812 3.67893C15.8177 3.49541 15.6985 3.33631 15.5402 3.22386C15.3819 3.11141 15.1924 3.05124 14.9982 3.05176C14.804 3.05228 14.6149 3.11346 14.4572 3.22676C14.2995 3.34005 14.1811 3.49979 14.1187 3.68365L13.5234 5.54924H11.5499C11.3558 5.55173 11.1673 5.61498 11.011 5.7301C10.8546 5.84522 10.7383 6.00643 10.6783 6.19108C10.6183 6.37573 10.6176 6.57454 10.6765 6.75957C10.7353 6.9446 10.8506 7.10655 11.0062 7.22268Z" fill="#E0BF62"/>
</svg>
