<svg width="30" height="31" viewBox="0 0 30 31" fill="none" xmlns="http://www.w3.org/2000/svg">
<mask id="mask0_7635_201" style="mask-type:alpha" maskUnits="userSpaceOnUse" x="0" y="0" width="30" height="31">
<rect y="0.5" width="30" height="30" fill="#D9D9D9"/>
</mask>
<g mask="url(#mask0_7635_201)">
</g>
<path d="M18.1129 20.2344C17.2997 20.9831 16.2347 21.3987 15.1293 21.3987C14.0239 21.3987 12.9589 20.9831 12.1457 20.2344C11.6342 20.491 11.1609 20.8175 10.7395 21.2047C10.1611 21.7165 9.69762 22.3449 9.37932 23.0486C9.06103 23.7522 8.89515 24.5152 8.89258 25.2875V26.2578C8.89348 26.592 9.02662 26.9122 9.26289 27.1484C9.49917 27.3847 9.81937 27.5178 10.1535 27.5188H20.1098C20.4439 27.5178 20.7641 27.3847 21.0004 27.1484C21.2367 26.9122 21.3698 26.592 21.3707 26.2578C21.5735 23.6552 20.4929 21.4388 18.1129 20.2344Z" fill="#CA9342"/>
<path d="M15.1316 13.5219C14.2115 13.5228 13.3293 13.8884 12.6782 14.5386C12.0272 15.1888 11.6604 16.0705 11.6582 16.9906C11.8218 21.5876 18.4421 21.5864 18.6051 16.9906C18.6029 16.0705 18.2361 15.1887 17.585 14.5386C16.934 13.8884 16.0517 13.5228 15.1316 13.5219Z" fill="#CA9342"/>
<path d="M26.1662 15.3266C25.6165 15.9116 24.8845 16.2927 24.0901 16.4076C23.2956 16.5226 22.4857 16.3645 21.7927 15.9593C21.5025 15.7894 21.2401 15.576 21.0146 15.3266C20.4033 15.7117 19.8962 16.2413 19.538 16.8687C19.1289 17.6695 18.9581 18.5707 19.0459 19.4656C19.0466 19.7377 19.155 19.9984 19.3473 20.1907C19.5397 20.3831 19.8004 20.4915 20.0724 20.4922H27.099C27.2338 20.4922 27.3673 20.4657 27.4919 20.4141C27.6164 20.3626 27.7296 20.2869 27.8249 20.1916C27.9203 20.0963 27.9959 19.9831 28.0475 19.8585C28.099 19.734 28.1256 19.6004 28.1255 19.4656V18.7812C28.116 18.0871 27.9314 17.4065 27.5889 16.8026C27.2464 16.1988 26.757 15.6911 26.1662 15.3266Z" fill="#CA9342"/>
<path d="M23.5882 15.5141C27.0073 15.4061 27.007 10.4496 23.5881 10.3391C20.1679 10.4469 20.1692 15.4097 23.5882 15.5141Z" fill="#CA9342"/>
<path d="M10.9547 19.4656V18.7812C10.945 18.0865 10.7599 17.4055 10.4165 16.8016C10.0731 16.1976 9.58265 15.6902 8.99063 15.3266C8.66192 15.6814 8.26345 15.9644 7.82021 16.158C7.37697 16.3516 6.89852 16.4515 6.41484 16.4515C5.93117 16.4515 5.45272 16.3516 5.00947 16.158C4.56623 15.9644 4.16777 15.6814 3.83906 15.3266C3.24588 15.6889 2.75447 16.196 2.41093 16.8003C2.06739 17.4046 1.88298 18.0862 1.875 18.7812V19.4656C1.87496 19.6004 1.90148 19.734 1.95306 19.8585C2.00463 19.9831 2.08025 20.0963 2.17558 20.1916C2.27092 20.2869 2.3841 20.3626 2.50867 20.4141C2.63323 20.4657 2.76674 20.4922 2.90156 20.4922H9.92813C10.2002 20.4915 10.4609 20.3831 10.6532 20.1907C10.8456 19.9984 10.954 19.7377 10.9547 19.4656Z" fill="#CA9342"/>
<path d="M6.41188 15.5141C9.83171 15.4093 9.83141 10.4464 6.41183 10.3391C2.99229 10.4501 2.99356 15.4066 6.41188 15.5141Z" fill="#CA9342"/>
<path d="M11.0062 7.6625L12.5952 8.80625L11.9859 10.6812C11.9238 10.8673 11.9231 11.0684 11.9839 11.2548C12.0446 11.4413 12.1636 11.6034 12.3234 11.7172C12.4803 11.8347 12.671 11.8982 12.8671 11.8982C13.0632 11.8982 13.2539 11.8347 13.4109 11.7172L14.9905 10.5594L16.589 11.7172C16.7454 11.8358 16.9364 11.9 17.1327 11.9C17.3291 11.9 17.52 11.8358 17.6765 11.7172C17.8362 11.6034 17.9552 11.4413 18.0159 11.2548C18.0767 11.0684 18.076 10.8673 18.014 10.6812L17.3999 8.82031L18.9937 7.6625C19.1493 7.54637 19.2646 7.38441 19.3234 7.19938C19.3822 7.01434 19.3816 6.81552 19.3216 6.63086C19.2616 6.44621 19.1452 6.28499 18.9888 6.16988C18.8325 6.05476 18.644 5.99153 18.4499 5.98906L16.4905 5.99844C16.4894 5.99515 15.8792 4.12263 15.8812 4.11875C15.8177 3.93523 15.6985 3.77613 15.5402 3.66368C15.3819 3.55123 15.1924 3.49106 14.9982 3.49158C14.804 3.4921 14.6149 3.55328 14.4572 3.66658C14.2995 3.77987 14.1811 3.93961 14.1187 4.12347L13.5234 5.98906H11.5499C11.3558 5.99155 11.1673 6.0548 11.011 6.16992C10.8546 6.28504 10.7383 6.44625 10.6783 6.6309C10.6183 6.81555 10.6176 7.01436 10.6765 7.19939C10.7353 7.38442 10.8506 7.54637 11.0062 7.6625Z" fill="#CA9342"/>
</svg>
