<svg width="218" height="60" viewBox="0 0 218 60" fill="none" xmlns="http://www.w3.org/2000/svg">
<g clip-path="url(#clip0_327_2563)">
<path d="M215.748 11.5271C214.352 10.7096 212.716 9.94028 210.839 10.1326C209.877 11.1424 209.203 11.7675 208 12.4888C209.155 12.8254 209.636 13.5466 210.069 15.1815C211.513 13.739 213.294 12.7773 215.748 11.5271Z" fill="url(#paint0_linear_327_2563)"/>
<path d="M35.3227 34.3392C35.1302 35.3971 35.3227 36.1664 36.1408 37.032C37.2958 36.9839 38.1139 36.7915 38.8357 36.2145C38.6914 34.9643 38.932 34.1469 39.5095 32.7043C38.0176 33.5699 37.0552 34.0507 35.3227 34.3392Z" fill="url(#paint1_linear_327_2563)"/>
<path d="M68.481 56.9012C69.0585 57.1897 69.636 57.0936 70.4541 56.757C70.0691 55.4106 69.9729 54.5451 70.1173 53.1987C69.4916 53.4391 69.0104 53.391 68.0479 53.1025C67.9036 54.4489 68.0961 55.5068 68.481 56.9012Z" fill="url(#paint2_linear_327_2563)"/>
<path d="M33.0212 10.1028C32.4437 10.5355 31.8181 10.776 31 10.9683C32.155 12.3628 32.8287 13.3725 33.4062 14.6228C34.3687 14.6708 34.8499 14.4304 35.4755 13.9976C35.0424 13.084 34.1762 11.6415 33.0212 10.1028Z" fill="url(#paint3_linear_327_2563)"/>
<path d="M208.471 57.9008C209.337 58.7182 209.866 59.0548 211.118 59.1029C212.128 57.4199 212.85 56.5063 214.149 55.1119C213.524 54.8233 213.091 54.5348 212.85 54.1982C211.358 55.8331 210.251 56.6506 208.471 57.9008Z" fill="url(#paint4_linear_327_2563)"/>
<path d="M104 14.2862C105.396 14.8151 106.021 15.4883 106.791 16.6904C108.042 14.6227 109.053 12.4109 109.197 11.3049C108.235 10.6798 107.272 10.3432 105.877 10.1028C105.732 11.353 105.107 12.4589 104 14.2862Z" fill="url(#paint5_linear_327_2563)"/>
<path d="M4.81166 56.0254C5.58164 55.1118 5.82225 54.3425 5.53351 53.0442C4.42667 52.4671 3.51232 52.1786 2.54985 52.3229C2.02049 53.5731 1.29863 54.1982 -0.0488281 55.208C1.87612 55.2561 3.03108 55.3522 4.81166 56.0254Z" fill="url(#paint6_linear_327_2563)"/>
</g>
<defs>
<linearGradient id="paint0_linear_327_2563" x1="213.126" y1="13.6436" x2="209.891" y2="9.95545" gradientUnits="userSpaceOnUse">
<stop stop-color="#400300"/>
<stop offset="0.0709114" stop-color="#750300"/>
<stop offset="0.1439" stop-color="#A50300"/>
<stop offset="0.2084" stop-color="#C80300"/>
<stop offset="0.2612" stop-color="#DD0300"/>
<stop offset="0.2957" stop-color="#E50300"/>
<stop offset="0.3376" stop-color="#EE190C"/>
<stop offset="0.3927" stop-color="#F82E18"/>
<stop offset="0.4459" stop-color="#FD3C20"/>
<stop offset="0.4946" stop-color="#FF4022"/>
<stop offset="0.5442" stop-color="#FD3B1F"/>
<stop offset="0.5995" stop-color="#F72E18"/>
<stop offset="0.6574" stop-color="#EE180C"/>
<stop offset="0.6989" stop-color="#E50300"/>
<stop offset="0.7336" stop-color="#DB0300"/>
<stop offset="0.7914" stop-color="#C20300"/>
<stop offset="0.8653" stop-color="#980300"/>
<stop offset="0.9515" stop-color="#5E0300"/>
<stop offset="1" stop-color="#3B0300"/>
</linearGradient>
<linearGradient id="paint1_linear_327_2563" x1="37.1389" y1="33.3829" x2="38.3616" y2="37.2504" gradientUnits="userSpaceOnUse">
<stop stop-color="#AB3C00"/>
<stop offset="0.3441" stop-color="#FFC700"/>
<stop offset="0.3696" stop-color="#FFCD17"/>
<stop offset="0.4069" stop-color="#FFD533"/>
<stop offset="0.4445" stop-color="#FFDA46"/>
<stop offset="0.4826" stop-color="#FFDD52"/>
<stop offset="0.5215" stop-color="#FFDE56"/>
<stop offset="0.5509" stop-color="#FFDD51"/>
<stop offset="0.5855" stop-color="#FFD943"/>
<stop offset="0.6225" stop-color="#FFD32B"/>
<stop offset="0.6612" stop-color="#FFCA0B"/>
<stop offset="0.672" stop-color="#FFC700"/>
<stop offset="1" stop-color="#AB3C00"/>
</linearGradient>
<linearGradient id="paint2_linear_327_2563" x1="70.683" y1="54.8266" x2="67.6507" y2="55.1735" gradientUnits="userSpaceOnUse">
<stop stop-color="#400300"/>
<stop offset="0.0709114" stop-color="#750300"/>
<stop offset="0.1439" stop-color="#A50300"/>
<stop offset="0.2084" stop-color="#C80300"/>
<stop offset="0.2612" stop-color="#DD0300"/>
<stop offset="0.2957" stop-color="#E50300"/>
<stop offset="0.3376" stop-color="#EE190C"/>
<stop offset="0.3927" stop-color="#F82E18"/>
<stop offset="0.4459" stop-color="#FD3C20"/>
<stop offset="0.4946" stop-color="#FF4022"/>
<stop offset="0.5442" stop-color="#FD3B1F"/>
<stop offset="0.5995" stop-color="#F72E18"/>
<stop offset="0.6574" stop-color="#EE180C"/>
<stop offset="0.6989" stop-color="#E50300"/>
<stop offset="0.7336" stop-color="#DB0300"/>
<stop offset="0.7914" stop-color="#C20300"/>
<stop offset="0.8653" stop-color="#980300"/>
<stop offset="0.9515" stop-color="#5E0300"/>
<stop offset="1" stop-color="#3B0300"/>
</linearGradient>
<linearGradient id="paint3_linear_327_2563" x1="31.5417" y1="13.4952" x2="34.5734" y2="11.6876" gradientUnits="userSpaceOnUse">
<stop stop-color="#0038AB"/>
<stop offset="0.1131" stop-color="#0062C9"/>
<stop offset="0.272" stop-color="#0097F0"/>
<stop offset="0.3495" stop-color="#00ACFF"/>
<stop offset="0.4014" stop-color="#00BFFF"/>
<stop offset="0.469" stop-color="#00D2FF"/>
<stop offset="0.5161" stop-color="#00D9FF"/>
<stop offset="0.6633" stop-color="#00B8FF"/>
<stop offset="0.7097" stop-color="#00ACFF"/>
<stop offset="0.755" stop-color="#00A2F8"/>
<stop offset="0.833" stop-color="#0086E3"/>
<stop offset="0.9337" stop-color="#0059C3"/>
<stop offset="1" stop-color="#0038AB"/>
</linearGradient>
<linearGradient id="paint4_linear_327_2563" x1="212.616" y1="57.4554" x2="209.965" y2="55.6369" gradientUnits="userSpaceOnUse">
<stop stop-color="#AB3C00"/>
<stop offset="0.3441" stop-color="#FFC700"/>
<stop offset="0.3696" stop-color="#FFCD17"/>
<stop offset="0.4069" stop-color="#FFD533"/>
<stop offset="0.4445" stop-color="#FFDA46"/>
<stop offset="0.4826" stop-color="#FFDD52"/>
<stop offset="0.5215" stop-color="#FFDE56"/>
<stop offset="0.5509" stop-color="#FFDD51"/>
<stop offset="0.5855" stop-color="#FFD943"/>
<stop offset="0.6225" stop-color="#FFD32B"/>
<stop offset="0.6612" stop-color="#FFCA0B"/>
<stop offset="0.672" stop-color="#FFC700"/>
<stop offset="1" stop-color="#AB3C00"/>
</linearGradient>
<linearGradient id="paint5_linear_327_2563" x1="104.51" y1="12.2272" x2="109.026" y2="14.4879" gradientUnits="userSpaceOnUse">
<stop stop-color="#AB3C00"/>
<stop offset="0.3441" stop-color="#FFC700"/>
<stop offset="0.3696" stop-color="#FFCD17"/>
<stop offset="0.4069" stop-color="#FFD533"/>
<stop offset="0.4445" stop-color="#FFDA46"/>
<stop offset="0.4826" stop-color="#FFDD52"/>
<stop offset="0.5215" stop-color="#FFDE56"/>
<stop offset="0.5509" stop-color="#FFDD51"/>
<stop offset="0.5855" stop-color="#FFD943"/>
<stop offset="0.6225" stop-color="#FFD32B"/>
<stop offset="0.6612" stop-color="#FFCA0B"/>
<stop offset="0.672" stop-color="#FFC700"/>
<stop offset="1" stop-color="#AB3C00"/>
</linearGradient>
<linearGradient id="paint6_linear_327_2563" x1="2.55786" y1="55.911" x2="3.57213" y2="51.604" gradientUnits="userSpaceOnUse">
<stop stop-color="#005200"/>
<stop offset="0.1859" stop-color="#00890B"/>
<stop offset="0.3118" stop-color="#00A912"/>
<stop offset="0.3267" stop-color="#11AD12"/>
<stop offset="0.3667" stop-color="#3AB512"/>
<stop offset="0.406" stop-color="#5ABC12"/>
<stop offset="0.4438" stop-color="#71C112"/>
<stop offset="0.4795" stop-color="#7EC412"/>
<stop offset="0.5108" stop-color="#83C512"/>
<stop offset="0.55" stop-color="#7FC412"/>
<stop offset="0.5906" stop-color="#72C112"/>
<stop offset="0.632" stop-color="#5EBD12"/>
<stop offset="0.6737" stop-color="#41B712"/>
<stop offset="0.7154" stop-color="#1CAF12"/>
<stop offset="0.7419" stop-color="#00A912"/>
<stop offset="0.783" stop-color="#009E10"/>
<stop offset="0.8555" stop-color="#00800C"/>
<stop offset="0.9504" stop-color="#005004"/>
<stop offset="1" stop-color="#003400"/>
</linearGradient>
<clipPath id="clip0_327_2563">
<rect width="218" height="59" fill="white" transform="translate(0 0.102783)"/>
</clipPath>
</defs>
</svg>
