<svg width="35" height="35" viewBox="0 0 35 35" fill="none" xmlns="http://www.w3.org/2000/svg">
<mask id="mask0_7672_27" style="mask-type:alpha" maskUnits="userSpaceOnUse" x="0" y="0" width="35" height="35">
<rect y="0.12085" width="35" height="34.8791" fill="#4D4D4D"/>
</mask>
<g mask="url(#mask0_7672_27)">
</g>
<path d="M13.125 2.1875H5.46875C3.65657 2.1875 2.1875 3.65657 2.1875 5.46875V9.55937C2.1875 11.3716 3.65657 12.8406 5.46875 12.8406H13.125C14.9372 12.8406 16.4062 11.3716 16.4062 9.55937V5.46875C16.4062 3.65657 14.9372 2.1875 13.125 2.1875Z" fill="#D4B56A"/>
<path d="M13.125 14.6235H5.46875C3.65657 14.6235 2.1875 16.0926 2.1875 17.9048V29.5313C2.1875 31.3435 3.65657 32.8126 5.46875 32.8126H13.125C14.9372 32.8126 16.4062 31.3435 16.4062 29.5313V17.9048C16.4062 16.0926 14.9372 14.6235 13.125 14.6235Z" fill="#D4B56A"/>
<path d="M29.5312 22.1594H21.875C20.0628 22.1594 18.5938 23.6285 18.5938 25.4407V29.5313C18.5938 31.3435 20.0628 32.8125 21.875 32.8125H29.5312C31.3434 32.8125 32.8125 31.3435 32.8125 29.5313V25.4407C32.8125 23.6285 31.3434 22.1594 29.5312 22.1594Z" fill="#D4B56A"/>
<path d="M29.5312 2.1875H21.875C20.0628 2.1875 18.5938 3.65657 18.5938 5.46875V17.0953C18.5938 18.9075 20.0628 20.3766 21.875 20.3766H29.5312C31.3434 20.3766 32.8125 18.9075 32.8125 17.0953V5.46875C32.8125 3.65657 31.3434 2.1875 29.5312 2.1875Z" fill="#D4B56A"/>
</svg>
