<?xml version="1.0" encoding="utf-8"?>
<!-- Generator: Adobe Illustrator 25.0.0, SVG Export Plug-In . SVG Version: 6.00 Build 0)  -->
<svg version="1.1" id="Layer_1" xmlns="http://www.w3.org/2000/svg" xmlns:xlink="http://www.w3.org/1999/xlink" x="0px" y="0px"
	 viewBox="0 0 24 24" style="enable-background:new 0 0 24 24;" xml:space="preserve">
<style type="text/css">
	.st0{fill:#A78849;}
	.st1{fill:none;}
</style>
<g>
	<g>
		<g>
			<path class="st0" d="M12,1.5c-3.2,0-6.2,1.1-8.5,3.1C1.2,6.6,0,9.2,0,12c0,2.4,0.9,4.7,2.6,6.5c0,0.7-0.2,1.7-1.2,2.6l-0.8,0.8
				l1.1,0.4c0.4,0.1,0.9,0.2,1.3,0.2c1.5,0,2.8-0.7,3.4-1.2c1.7,0.8,3.6,1.2,5.6,1.2c6.6,0,12-4.7,12-10.5S18.6,1.5,12,1.5z
				 M12,21.1c-1.9,0-3.7-0.4-5.3-1.3l-0.4-0.2L5.9,20c-0.2,0.2-1.4,1.1-2.7,1.2C3.9,20.1,4,19,4,18.2V18l-0.2-0.2
				c-1.5-1.6-2.4-3.7-2.4-5.8c0-5,4.8-9.1,10.6-9.1S22.6,7,22.6,12C22.6,17,17.8,21.1,12,21.1z"/>
		</g>
	</g>
	<rect class="st1" width="24" height="24"/>
	<g>
		<circle class="st0" cx="6.8" cy="12" r="1.5"/>
		<circle class="st0" cx="12" cy="12" r="1.5"/>
		<circle class="st0" cx="17.2" cy="12" r="1.5"/>
	</g>
</g>
</svg>
