<?xml version="1.0" encoding="utf-8"?>
<!-- Generator: Adobe Illustrator 25.0.0, SVG Export Plug-In . SVG Version: 6.00 Build 0)  -->
<svg version="1.1" id="Layer_1" xmlns="http://www.w3.org/2000/svg" xmlns:xlink="http://www.w3.org/1999/xlink" x="0px" y="0px"
	 viewBox="0 0 400 400" style="enable-background:new 0 0 400 400;" xml:space="preserve">
<style type="text/css">
	.st0{opacity:0.15;}
	.st1{fill:#895003;}
</style>
<g class="st0">
	<path class="st1" d="M94.9,121.6c1.2-1.7,0.8-4-0.8-5.3c-1.7-1.2-4-0.8-5.3,0.8c-1.2,1.7-0.8,4,0.8,5.3
		C91.3,123.6,93.7,123.3,94.9,121.6z"/>
	<path class="st1" d="M188.8,62.1c-0.3-2.1-2.2-3.5-4.3-3.2s-3.5,2.2-3.2,4.3c0.3,2.1,2.2,3.5,4.3,3.2S189.1,64.2,188.8,62.1z"/>
	<path class="st1" d="M291.8,88.8c1.2-1.7,0.8-4.1-0.9-5.3c-1.7-1.2-4.1-0.8-5.3,0.9c-1.2,1.7-0.8,4.1,0.9,5.3
		C288.2,90.9,290.6,90.5,291.8,88.8z"/>
	<path class="st1" d="M69,221.9c-0.3-2.1-2.2-3.5-4.3-3.2c-2.1,0.3-3.5,2.2-3.2,4.3s2.2,3.5,4.3,3.2C67.8,225.9,69.3,224,69,221.9z"
		/>
	<path class="st1" d="M225,345.2c0.3,2.1,2.2,3.5,4.3,3.2s3.5-2.2,3.2-4.3c-0.3-2.1-2.2-3.5-4.3-3.2
		C226.2,341.2,224.7,343.1,225,345.2z"/>
	<path class="st1" d="M319,285.7c-1.2,1.7-0.8,4,0.8,5.3c1.7,1.2,4,0.8,5.3-0.8c1.2-1.7,0.8-4-0.8-5.3
		C322.6,283.7,320.2,284,319,285.7z"/>
	<path class="st1" d="M344.7,185.4c0.3,2.1,2.2,3.5,4.3,3.2c2.1-0.3,3.5-2.2,3.2-4.3s-2.2-3.5-4.3-3.2
		C345.9,181.5,344.4,183.4,344.7,185.4z"/>
	<path class="st1" d="M121.9,318.6c-1.2,1.7-0.8,4.1,0.9,5.3c1.7,1.2,4.1,0.8,5.3-0.9c1.2-1.7,0.8-4.1-0.9-5.3
		C125.5,316.5,123.1,316.9,121.9,318.6z"/>
	<path class="st1" d="M221.5,223.6c0.4-0.3,0.7-0.6,1-0.9C222.2,222.9,221.9,223.3,221.5,223.6z M230.6,196.6c0,0.1,0,0.3,0.1,0.3
		C230.7,196.8,230.6,196.7,230.6,196.6z M230.5,196.4c0,0.1,0,0.1,0,0.2v-0.1C230.6,196.5,230.6,196.4,230.5,196.4z M229.1,192.6
		l0.1,0.4l0.3,0.7l0.6,1.4c0.2,0.5,0.3,0.9,0.5,1.3C230.2,195.1,229.7,193.8,229.1,192.6z M221.5,223.6c0.4-0.3,0.7-0.6,1-0.9
		C222.2,222.9,221.9,223.3,221.5,223.6z M229.1,192.6l0.1,0.4l0.3,0.7l0.6,1.4c0.2,0.5,0.3,0.9,0.5,1.3
		C230.2,195.1,229.7,193.8,229.1,192.6z M230.5,196.4c0,0.1,0,0.1,0,0.2v-0.1C230.6,196.5,230.6,196.4,230.5,196.4z M230.6,196.6
		c0,0.1,0,0.3,0.1,0.3C230.7,196.8,230.6,196.7,230.6,196.6z"/>
	<path class="st1" d="M344.8,123.7l8-7.3c0.4-0.4,0.5-1,0.2-1.5s-0.9-0.7-1.4-0.5l-10.1,3.8c-21.4-34.5-55.6-60.2-95.9-70.4
		l2.9-14.6c0.1-0.6-0.3-1.3-0.9-1.4c-0.6-0.1-1.3,0.3-1.4,0.9l-2.9,14.5c-11.7-2.8-23.9-4.2-36.5-4.2c-29.5,0-57,8.1-80.7,22.1
		l-6.6-7.3c-0.4-0.4-1-0.5-1.5-0.2s-0.7,0.9-0.5,1.4l3.5,9.3C87.4,90,62.5,124.1,52.9,164l-15.4-4.4c-0.6-0.2-1.3,0.2-1.5,0.8
		c-0.2,0.6,0.2,1.3,0.8,1.5l15.5,4.5c-2.5,11.2-3.9,22.9-3.9,34.9c0,29.5,8.1,57.1,22.2,80.8l-9.6,8.7c-0.4,0.4-0.5,1-0.2,1.5
		s0.9,0.7,1.4,0.5l12.3-4.6c21.6,32.8,55.1,57.1,94.2,66.8l-3.6,17.9c-0.1,0.6,0.3,1.3,0.9,1.4c0.3,0.1,0.6,0,0.9-0.2
		c0.3-0.2,0.5-0.4,0.6-0.8l3.5-17.7c11.5,2.7,23.5,4.1,35.8,4.1c28.4,0,55.1-7.5,78.2-20.7l9.4,10.4c0.4,0.4,1,0.5,1.5,0.2
		s0.7-0.9,0.5-1.4l-4.9-13l-1.8-4.8l-10.2-26.9c6.7-4.9,12.8-10.3,18.3-16.2c0,0,0,0,0.1,0c0.1-0.1,11-5.4,17.1-3
		c0.4,0.1,0.7,0.1,1-0.1l0.3-0.3c0.3-0.4,0.3-1,0-1.4c-3.9-5.6-2.6-16.3-2.5-17c4-7,7.3-14.3,9.9-21.9l20.3-6.4
		c0.1,0,0.2-0.1,0.3-0.1c0.3-0.2,0.5-0.4,0.5-0.7c0.1-0.4,0-0.8-0.3-1.1l-15.2-15.8c0.8-5.9,1.1-11.8,1-17.9
		c0.1-0.1,0.2-0.1,0.2-0.2s4.2-11.5,10.2-14.1c0.5-0.2,0.8-0.7,0.7-1.2c-0.1-0.5-0.4-0.9-1-1c-6.8-1.4-13.5-10.3-13.7-10.6
		c-2.2-8.8-5.3-17.4-9.5-25.8l23.8-21.5L344.8,123.7z M206.8,48c12.2,0,24.1,1.4,35.5,4.1l-1.7,8.6c-0.1,0.6,0.3,1.3,0.9,1.4
		c0.3,0.1,0.6,0.1,0.8-0.1c0.3-0.2,0.5-0.4,0.6-0.8l1.7-8.5c38.6,9.8,71.5,34.4,92.1,67.3l-30,11.2c-5.5-7.6-11.7-14.4-18.5-20.3
		c-0.2-0.3-5-10.5-3.1-17.1c0.1-0.5-0.1-1-0.5-1.3c-0.4-0.3-1-0.3-1.4,0.1c-5.1,4.2-17.1,2.6-17.2,2.6s-0.1,0.1-0.2,0.1
		c-5.5-3-11.1-5.4-16.9-7.5c0-0.1,0.1-0.3,0.1-0.4l-7.2-21.1c-0.1-0.4-0.5-0.7-0.9-0.8c-0.4-0.1-0.8,0-1.1,0.3l-15.5,15.6
		c-0.1,0.1,0,0.2-0.1,0.3c-7.5-1.1-15.1-1.4-22.8-1.1c-0.6-0.2-10.8-4.1-14-10.1c-0.2-0.5-0.8-0.7-1.3-0.6s-0.9,0.5-1,1
		c-0.8,6.5-10.5,13.7-10.6,13.8v0.1c-7.8,2.1-15.4,5-22.8,8.7l-22.2-24.5C152.2,55.6,178.6,48,206.8,48z M230.7,196.9
		c-0.1-0.1-0.1-0.2-0.1-0.3c0-0.1,0-0.1,0-0.2c-0.2-0.4-0.3-0.8-0.5-1.3l-0.6-1.4l-0.3-0.7l-0.1-0.4c0.6,1.2,1.1,2.5,1.5,3.8
		c0,0,0,0.1,0,0.1v0.1C230.6,196.7,230.7,196.8,230.7,196.9z M218.7,223c-5.9,3.6-12.8,3.9-18.9,1.8c2,0.5,4.1,1,6.2,0.8
		c2.7-0.2,5.3-0.9,7.5-2.2c-3.3,0.6-6.5,0.3-9.6-0.4c0.7,0,1.5,0.3,2.2,0.3c2.4-0.2,4.7-0.9,6.7-2c-3,0.5-5.8,0.2-8.5-0.4
		c0.6,0,1.3,0.3,1.9,0.2c2.1-0.2,4.2-0.8,5.9-1.9c-2.6,0.4-5.1,0.1-7.5-0.5c0.6,0,1.1,0.2,1.7,0.2c1.9-0.2,3.6-0.8,5.1-1.8
		c-1.6,0.2-2.9-0.5-4.3-0.8c1.3-0.3,2.6-0.6,3.7-1.4c-3,0.2-5.8-0.5-8-1.7c-0.1-0.1-0.2-0.2-0.3-0.3c0.1,0,0.1,0.1,0.2,0.1
		c3.1,1.4,6.7,1.1,9.5-0.6c4.6-2.8,6.3-8.7,3.9-13.4c-0.1-0.3-0.3-0.5-0.4-0.8c-3-4.9-9.3-6.4-14.2-3.5c-2.4,1.4-3.9,3.7-4.6,6.2
		c0-0.1-0.1-0.3-0.1-0.4c0.5-2.5,1.7-5,3.8-7.3c-1.5,0.4-2.9,1.2-4,2.3c-0.3,0.2-0.4,0.6-0.6,0.9c0.3-0.7,0.5-1.4,1-2.1
		c0.5-0.8,1.1-1.6,1.8-2.4c-0.3-0.1-0.5-0.1-0.7,0c-1,0.5-1.9,1.1-2.8,1.9c-0.4,0.3-0.7,0.7-1,1.1c0.2-0.5,0.3-1,0.6-1.4
		c0.6-0.9,1.3-1.9,2.1-2.7c0.1-0.3,0.1-0.6,0.3-0.8c-1.2,0.5-2.2,1.2-3.2,2c-0.6,0.5-1.1,1-1.7,1.6c0.2-0.3,0.2-0.7,0.4-1.1
		c0.7-1.1,1.5-2.1,2.4-3.1c0.4-0.5,0.8-1,1.3-1.5c-1.3,0.6-2.6,1.3-3.7,2.2c-0.7,0.6-1.4,1.2-2,1.9c-0.2,0.2-0.3,0.5-0.5,0.7
		c0.2-0.4,0.2-0.8,0.5-1.1c1.3-2.1,2.9-4,4.9-5.7c-2.4,1-4.6,2.5-6.4,4.5c-1.5,1.6-2.4,3.5-3.3,5.5c1.7-4.8,4.6-9.1,9.3-11.9
		c10.5-6.2,24.5-2.8,31,7.9C232.8,202.6,229.4,216.5,218.7,223z M222.5,222.7c-0.3,0.3-0.6,0.6-1,0.9
		C221.9,223.3,222.2,222.9,222.5,222.7z M217.5,225.9c-0.3,0.2-0.7,0.5-1.1,0.7c-1.1,0.5-2.3,0.7-3.5,1
		C214.5,227.2,216,226.6,217.5,225.9z M249.7,300.1l0.4,0.4c-6.2,3.2-12.6,5.9-19.4,7.8c7.2-1.1,14.2-3.3,21.1-6l0.2,0.2
		c-8,4.1-16.4,7.5-25.2,9.5c9.3-1.1,18.3-3.9,27.1-7.5l0.1,0.1c-9.8,5.1-20.1,9.1-31.1,11.1c10.7-1,21.2-4.1,31.3-8.2
		c-21.3,9.6-44.1,12.3-66.1,8.6l-2.7-11.5c20.5,4.4,42.3,2.4,62.5-6.4l0.4,0.4c-4.4,2.3-9,4.4-13.7,6
		C239.7,303.5,244.8,302,249.7,300.1z M189.5,323.4l-1-4.5c22.9,3.7,46.8,0.5,68.9-10.1l3,3.4C237.8,323.3,213.2,326.8,189.5,323.4z
		 M234.2,324c-2.6,2.4-5.7,5.9-7.2,9.6c-2.5-3.1-6.4-5.4-9.4-6.9C223.3,326.2,228.7,325.2,234.2,324z M212.7,304l-5.6-44.6l1.5,44.9
		c-8,0.1-16-0.5-23.7-2.2l-1.1-4.9c-0.1-0.5-0.4-0.8-0.9-0.9c-0.4-0.1-0.9,0.1-1.2,0.4l-2.9,3.6c-8.9-2.6-17.4-6.5-25.3-11.4
		l22.6-33.5L150,286.9c-7.7-5.2-14.5-11.7-20.6-19.1l57.9-21.7l-3.1,43.7c0,0.6,0.3,1.1,0.9,1.2c0.3,0.1,0.6,0,0.9-0.1
		c0.2-0.1,0.4-0.3,0.5-0.5l18.4-39.9l41.4,45.8C235.4,300.9,224.1,303.4,212.7,304z M129.5,299.8c4.4,3.6,9.1,6.7,13.9,9.6l0.4,0.3
		c-3.5-0.1-8.5,0.2-12.3,1.9C131.8,307.5,130.6,303,129.5,299.8z M109.4,275.3l4.3-1.6c14.3,18.9,33.2,32.4,54.4,39.9l-2.9,3.6
		C143.4,309.2,123.9,295,109.4,275.3z M130.6,273.3c12.8,14.1,29.1,23.8,46.7,29.1l-7.5,9.3c-19.9-6.8-37.8-19-51.6-36.1
		c6.9,7.8,14.4,14.9,23,20.4c-8.8-6.8-16.1-15.1-22.4-24c6.1,7.1,12.9,13.7,20.6,18.9c-6.9-5.8-12.8-12.7-17.9-20h0.1
		c4.9,5.5,10.2,10.6,16.1,14.9c-5.1-4.8-9.5-10.2-13.5-15.9l0.8-0.3c3.6,3.8,7,7.8,11,11C133.9,278.4,132.5,275.7,130.6,273.3z
		 M118.8,267.5c-4.2,1.7-8.4,3.4-12.6,5c-8.4,3.3-16.9,6.5-25.4,9.6c8.3-3.7,16.5-7.4,24.9-10.9c4.2-1.8,8.3-3.6,12.5-5.3l12.6-5.2
		l12.6-5.1c4.2-1.7,8.4-3.4,12.6-5c8.4-3.3,16.9-6.5,25.4-9.6c-8.2,3.7-16.5,7.4-24.9,10.9c-4.2,1.8-8.3,3.5-12.5,5.3l-12.6,5.2
		L118.8,267.5z M182,300.2l-8.6,37.2l-6.3-18.6L182,300.2z M187.1,283.4l-0.1,0.2l3.2-45.1c2.6,1.2,5.2,2.2,8,2.8L187.1,283.4z
		 M200.1,249.1l2.4-7.1c0.9,0.1,1.8,0.3,2.7,0.4c-0.1,0.1-0.1,0.3-0.2,0.4l-3.3,7c-2,4.6-4.2,9.3-6.5,14
		C196.8,258.9,198.5,254,200.1,249.1z M203.5,237l-2-0.1l-1.9-0.2c-0.6-0.1-1.3-0.2-1.9-0.3l-1.9-0.4c-0.6-0.2-1.3-0.3-1.9-0.5
		c2.1,1.7,4.7,2.9,7.3,3.7c-10-1.7-19.3-7.4-25-16.8c-10.7-17-5.3-39.4,11.9-49.8c8.6-5.2,18.5-6.4,27.6-4.2
		c-0.6-0.1-1.1-0.2-1.7-0.2c-0.7-0.1-1.4-0.1-2.1-0.2h-2.1c-2.8,0.1-5.5,0.5-8.1,1.4c1.3,0,2.7-0.1,4,0h1c0.3,0,0.7,0.1,1,0.1
		c0.7,0.1,1.3,0.1,2,0.2c2.6,0.3,5.1,1.1,7.6,1.9c0.6,0.2,1.2,0.4,1.8,0.7l0.8,0.4c-0.9-0.3-1.8-0.7-2.7-0.9l-0.9-0.3l-1-0.2
		c-0.6-0.1-1.3-0.3-1.9-0.3l-1.9-0.2l-1.9-0.1c-2.6,0-5.1,0.3-7.6,0.9c2.5-0.1,5.1-0.1,7.5,0.3c2.5,0.3,4.9,1,7.2,1.8
		c0.6,0.2,1.2,0.4,1.7,0.7l1.6,0.8c-1.2-0.5-2.3-1.1-3.5-1.4c-4.8-1.2-9.9-1.2-14.5,0c2.4-0.1,4.8-0.1,7.1,0.2
		c2.3,0.3,4.6,0.9,6.8,1.7c0.5,0.1,1,0.3,1.4,0.6c-0.5-0.2-1-0.4-1.5-0.6c-4.5-1.2-9.3-1.1-13.7,0.1c4.5-0.3,9,0.2,13.1,1.8
		c0.5,0.2,0.9,0.5,1.3,0.7c-0.5-0.2-0.9-0.5-1.4-0.6c-4.3-1.2-8.8-1.1-12.9,0.2c3.1-0.1,6,0.6,8.9,1.2c-5.7-0.9-11.7-0.2-17,3
		c-11.8,7.2-15.6,22.6-8.4,34.4c3.2,5.3,8.3,8.8,13.8,10.5c-2.3-0.5-4.6-0.8-6.9-1.8c3.2,2.8,7.4,4.6,11.7,5.3
		c-3.9-0.2-7.8-1-11.5-2.7c3.7,2.7,8.2,4.4,12.8,4.9c0.8,0.1,1.5-0.1,2.3,0c-0.4,0-0.7,0.2-1,0.2c-4.6,0.2-9.4-0.6-13.8-2.5
		c4,2.7,8.8,4.2,13.8,4.5c0.8,0,1.6-0.1,2.5-0.2c-0.4,0.1-0.9,0.2-1.3,0.3c-4.9,0.4-9.9-0.3-14.7-2c4.2,2.5,9.1,3.9,14.2,4.1
		l1.4-0.1c0.3-0.1,0.6-0.1,0.9-0.1c-0.2,0-0.4,0.1-0.7,0.1l-0.2,0c-0.3,0-0.6,0.1-0.8,0.1c-0.2,0-0.4,0-0.6,0l-0.3,0h-1.9L203.5,237
		z M135.3,106.2l1.6,4.2c-19.5,14.6-33.2,34.2-40.5,56.2l-3.6-3C100.7,141.1,115,121.1,135.3,106.2z M100.9,126
		c4,0.4,8.5-0.8,11.8-2c-3.7,4.3-7,8.8-10,13.5C102.7,134.1,102.4,129.7,100.9,126z M121.6,134.2c-1.9,2.5-3.8,5.1-5.5,7.8
		c-1.8,2.6-3.4,5.4-5.1,8.1c-1.6,2.7-3.2,5.5-4.8,8.3c1.2-3,2.5-5.9,4-8.7c1.5-2.9,3.1-5.6,4.9-8.3c1.8-2.7,3.7-5.3,5.8-7.7
		c2.1-2.5,4.3-4.8,6.7-6.9C125.6,129.1,123.6,131.6,121.6,134.2z M125.9,133.6c-1.2,1.8-2.4,3.6-3.6,5.3c-1.2,1.8-2.4,3.5-3.6,5.3
		c-1.2,1.8-2.4,3.6-3.5,5.4c-1.2,1.8-2.3,3.6-3.6,5.4c0.8-2,1.7-4,2.8-5.8c1-1.9,2.1-3.7,3.3-5.6c1.2-1.8,2.5-3.5,3.8-5.2
		C122.9,136.7,124.3,135.1,125.9,133.6z M120.9,129.3c-2.6,3.3-5.2,6.7-7.5,10.3c-2.4,3.5-4.5,7.2-6.6,10.8
		c-2.1,3.7-4.1,7.4-6.1,11.2c1.6-3.9,3.4-7.8,5.3-11.6s4.1-7.5,6.5-11.1c2.4-3.6,5-7,7.8-10.2c2.7-3.2,5.8-6.2,8.9-9.1
		C126.3,122.8,123.6,126,120.9,129.3z M109.2,180.4l-37.1-9.6l18.6-5.8L109.2,180.4z M106,181c-0.8,0.2-1.6,0.3-2.4,0.5l-2.4,0.4
		c-1.6,0.3-3.2,0.5-4.8,0.8c-1.6,0.2-3.2,0.5-4.8,0.6c-1.6,0.2-3.2,0.4-4.8,0.5c1.6-0.2,3.2-0.5,4.8-0.8c1.6-0.3,3.2-0.5,4.8-0.8
		c1.6-0.2,3.2-0.5,4.8-0.7l2.4-0.3C104.4,181.1,105.2,181,106,181z M87.1,187.2l4.5-0.9c-3.4,22.6-0.2,46.1,10.2,67.8l-3.4,3
		C87.4,234.8,83.9,210.6,87.1,187.2z M94.6,219.5c2,11,6.1,21.3,11.1,31.1l-2.1,1.9c-0.2-0.6-0.5-1.2-0.8-1.7
		C98.7,240.7,95.6,230.3,94.6,219.5z M98.4,223.4c2,8.9,5.4,17.2,9.5,25.2l-2,1.8C102.3,241.7,99.5,232.7,98.4,223.4z M102.1,227.4
		c1.9,6.8,4.6,13.2,7.8,19.4l-1.8,1.7C105.5,241.6,103.3,234.6,102.1,227.4z M105.9,231.3c1.7,4.7,3.7,9.3,6,13.7l-1.6,1.4
		C108.5,241.5,107,236.4,105.9,231.3z M106.8,215.8l40-8.7l-40.2,4.6c-0.8-9.7-0.3-19.4,1.7-28.9l3.8-0.8c0.1,0,0.3-0.1,0.4-0.1
		c0.3-0.2,0.5-0.4,0.5-0.7c0.1-0.4,0-0.9-0.4-1.2l-3.1-2.6c2-7.6,5.1-14.8,8.8-21.7l39.2,22.1l-37.1-25.4
		c5.8-9.8,13.2-18.7,22.3-26.3l21.9,58.5l-43.8-2c-0.6,0-1.1,0.4-1.2,0.9c-0.1,0.6,0.2,1.1,0.7,1.4l39.4,17L114.2,243
		C110.5,234.1,107.9,225.1,106.8,215.8z M135.5,188.5l33.1,11.2c-0.1,0.8-0.3,1.5-0.3,2.3L135.5,188.5z M127.5,185.2l44.4,2.1
		c-1.1,2.4-2,4.8-2.6,7.3L127.5,185.2z M220.3,182.8c-2.2-1.4-4.5-2.5-7-3.2c0.4,0.1,0.7,0,1,0.1
		C216.4,180.5,218.4,181.5,220.3,182.8z M185,198.2c0,0.1,0,0.1,0,0.2C185,198.4,184.9,198.3,185,198.2z M211.4,203.2
		c-1.3,0.2-2.9-1.5-2.3-3.8c-5.6,1.2-7.6,6.1-6.3,10.7c-0.9-0.6-1.9-1.2-2.5-2.2c-2.4-3.9-1.2-8.8,2.5-11c3.6-2.2,8.3-1,10.7,2.5
		l-0.7-0.1C213.4,200.8,212.7,202.9,211.4,203.2z M209.5,209.2c0,0.6-0.9,1.1-2.1,1.1c-1.2,0.1-2.2-0.3-2.2-0.9
		c0-0.6,0.9-1.1,2.1-1.1C208.5,208.2,209.5,208.6,209.5,209.2z M204.5,228.5c-0.6,0-1.2-0.3-1.7-0.5c1.7,0.3,3.4,0.4,5.1,0.3
		C206.7,228.5,205.6,228.6,204.5,228.5z M206.8,230.6c-0.4,0-0.7,0.1-1.1,0.1c-0.3,0-0.5,0-0.8-0.1
		C205.5,230.7,206.2,230.6,206.8,230.6z M223.2,185c0.4,0.4,0.9,0.7,1.4,1.2c0.5,0.4,0.8,1,1.2,1.6C225,186.8,224.1,185.8,223.2,185
		z M224.3,169.2c-0.8-0.4-1.5-0.8-2.3-1.1l5.8-35.5L224.3,169.2z M217.6,166.5c-2.7-0.8-5.4-1.3-8.2-1.5l19-41.2L217.6,166.5z
		 M231.2,117.4c0-0.6-0.3-1.1-0.9-1.2c-0.6-0.1-1.1,0.1-1.4,0.7l-18.9,41L167.6,111c10.9-4.6,22.2-7.1,33.6-7.7l5.6,44.8l-1.5-44.9
		c8-0.1,15.9,0.5,23.6,2.2l0.8,3.7c0.1,0.4,0.4,0.8,0.9,0.9c0.3,0.1,0.6,0,0.9-0.1c0.1-0.1,0.2-0.2,0.3-0.3l2.3-2.8
		c9.3,2.6,18,6.6,26.3,11.7l-22.6,33.6l26.1-31.5c7.7,5.2,14.5,11.7,20.6,19.1l-56.3,21.1L231.2,117.4z M224.2,83.9l1,4.5
		c-22.9-3.7-46.7-0.5-68.8,10.1l-3-3.4C176.1,84,200.6,80.5,224.2,83.9z M179.6,83.3c2.6-2.4,5.8-5.9,7.2-9.6
		c2.6,3.1,6.4,5.4,9.4,6.9C190.6,81.1,185.1,82.1,179.6,83.3z M201.4,91.4c-3.9,0.2-7.7,0.6-11.5,1.2c-7.6,1.2-15.1,3.2-22.6,5.3
		c3.6-1.5,7.3-2.8,11-3.9c3.7-1.1,7.6-2,11.4-2.6c3.9-0.6,7.8-0.9,11.7-0.9c3.9,0,7.8,0.4,11.6,1.1
		C209.1,91.3,205.3,91.3,201.4,91.4z M203.8,94.6c-2.4,0.2-4.7,0.5-7,0.7c-2.3,0.3-4.7,0.6-7,1s-4.6,0.8-6.9,1.2
		c-2.3,0.4-4.6,0.9-7,1.3c2.2-0.9,4.5-1.6,6.7-2.2c2.3-0.6,4.6-1.1,7-1.5c2.3-0.4,4.7-0.6,7.1-0.7C199.1,94.3,201.5,94.4,203.8,94.6
		z M158.9,106.7l6.6,8c2.2,2.7,4.4,5.3,6.5,8c4.3,5.4,8.6,10.8,12.7,16.3c-4.7-5.1-9.3-10.2-13.8-15.4c-2.3-2.6-4.5-5.2-6.7-7.8
		l-6.7-7.9l-6.6-8c-2.2-2.7-4.4-5.3-6.5-8c-4.3-5.4-8.6-10.8-12.7-16.3c4.7,5.1,9.3,10.2,13.8,15.4c2.3,2.6,4.5,5.2,6.7,7.8
		L158.9,106.7z M231.5,105.9l-5.2-23.5l13.8-13.7L231.5,105.9z M242,91.6c1-1.3,2-2.6,3-3.8c-0.8,1.4-1.8,2.7-2.7,4.1
		c-0.9,1.3-1.8,2.7-2.8,4c-1,1.3-1.9,2.6-2.9,3.9l-1.5,1.9c-0.5,0.6-1,1.3-1.5,1.9c0.4-0.7,0.9-1.4,1.3-2.1l1.4-2
		c0.9-1.3,1.8-2.7,2.8-4C240,94.2,241,92.9,242,91.6z M278,126.7c4.1,3.3,7.8,7,11.4,10.9l-2.1,0.8
		C284.5,134.3,281.4,130.3,278,126.7z M276.2,121.5c5.9,4.3,11.1,9.5,16,15l-2.4,0.9C285.8,131.8,281.4,126.3,276.2,121.5z
		 M274.5,116.4c7.7,5.3,14.5,11.9,20.6,19.1l-2.6,1C287.3,129.1,281.4,122.2,274.5,116.4z M272.7,111.3c9,5.9,16.9,13.4,24,21.7
		c0.4,0.5,0.8,1,1.1,1.5l-2.6,1C288.8,126.4,281.5,118.1,272.7,111.3z M244.7,93.3l2.9-3.6c22.2,7.9,42,22.2,56.8,42.3l-4.3,1.6
		C285.6,114.4,266.3,100.7,244.7,93.3z M284.3,107.4c-4.6-3.7-9.3-6.8-14.2-9.7c3.5,0.1,8.4-0.2,12.2-1.9
		C282,99.8,283.1,104.2,284.3,107.4z M123.6,66.6l2.6,4.3l60.6,99.6c-6,3.6-10.5,8.7-13.6,14.4l-6-0.3L124.9,71.7l-1.8-4.8L122,64
		L123.6,66.6z M53.5,201.3c0-11.5,1.3-22.7,3.7-33.5l7,2c0.4,0.1,0.7,0.1,1-0.1c0.2-0.1,0.4-0.4,0.5-0.7c0.2-0.6-0.2-1.3-0.8-1.5
		l-7.2-2.1c9.2-38.4,33-71.2,65.1-92.3l11.5,30.8c-6.7,4.9-12.8,10.3-18.2,16.2H116c-0.1,0.1-11,5.4-17.1,3c-0.5-0.2-1,0-1.4,0.4
		c-0.3,0.4-0.3,1,0,1.4c3.9,5.6,2.6,16.4,2.5,17.1c-3.8,6.6-6.9,13.4-9.4,20.5h-0.1l-21,6.6c-0.4,0.1-0.7,0.4-0.8,0.8
		c-0.1,0.4,0,0.8,0.3,1.1l15.5,16.1c0,0,0.1,0,0.2,0c-0.8,6.2-1.3,12.4-1.2,18.7c-0.1,0.1-0.3,0.1-0.4,0.2c0,0.1-4.2,11.5-10.2,14.1
		c-0.5,0.2-0.8,0.7-0.7,1.2c0.1,0.5,0.4,0.9,1,1C80,223.7,86.9,232.9,87,233h0.1c2.1,8.8,5.3,17.3,9.5,25.6l-22.2,20
		C61.1,255.9,53.5,229.5,53.5,201.3z M85.9,228.2c-2.3-2.5-5.8-5.6-9.6-7.3c3.3-2.5,5.9-6.8,7.4-10l0.1,0.6
		C84.1,217.1,84.8,222.6,85.9,228.2z M72.6,285.3l-5.4,3.3l4.8-4.3l3.8-3.4l86.3-78l6.3,2.7c0.3,6.2,1.9,12.4,5.4,18.1l-96.9,59
		L72.6,285.3z M206.8,354.6c-12,0-23.6-1.4-34.8-4l1.1-5.4c0.1-0.6-0.3-1.3-0.9-1.4c-0.8-0.1-1.4,0.4-1.5,1l-1,5.2
		c-37.4-9.3-69.5-32.5-90.4-63.7l27.8-10.4c5.5,7.5,11.6,14.3,18.4,20.2c0,0-0.1,0.1,0,0.1c0.1,0.1,5.1,10.5,3.1,17.2
		c-0.1,0.5,0.1,1,0.5,1.3c0.4,0.3,1,0.3,1.4-0.1c5.1-4.2,17.1-2.6,17.2-2.6c0.2,0,0.4-0.1,0.5-0.1c5.4,2.9,10.9,5.3,16.6,7.4
		l6.9,20.4c0.1,0.4,0.5,0.7,0.9,0.8c0.3,0.1,0.6,0,0.9-0.1c0.1,0,0.2-0.1,0.2-0.2l14.8-14.9c7.9,1.2,15.9,1.6,24,1.3
		c0.7,0.3,10.8,4.1,14,10.1c0.2,0.5,0.8,0.7,1.3,0.6c0.1,0,0.3-0.1,0.4-0.2c0.3-0.2,0.5-0.5,0.6-0.9c0.8-6.5,10.5-13.7,10.6-13.8
		c0,0,0,0,0-0.1c7.8-2.1,15.4-5,22.8-8.7l19.4,21.4C259.5,347.6,233.9,354.6,206.8,354.6z M288.1,337.1l3.8,6.3l-5-5.5l-3.4-3.8
		L206,248.2l2.8-6c6.3-0.3,12.6-1.9,18.3-5.4l58.4,96.1L288.1,337.1z M231.4,203.2l0.1,0.8v0.8l-0.1,0.8l-0.1,0.7
		C231.4,205.3,231.5,204.2,231.4,203.2z M303.4,160.8l0.3-0.2c3.2,6.2,6,12.5,7.9,19.3c-1.1-7.2-3.2-14.2-5.8-21.1l0.1-0.1
		c4.1,8,7.5,16.3,9.5,25.1c-1.1-9.2-3.8-18.2-7.3-27c5,9.7,9,20,11,30.9c-1-10.2-3.8-20.2-7.5-29.9c8.8,20.1,11.4,41.6,8.3,62.4
		l-11.7,2.4c3.7-19.8,1.6-40.5-6.8-59.9l0.3-0.3c2.3,4.4,4.4,8.8,6.1,13.5C306.8,170.8,305.2,165.7,303.4,160.8z M307.1,191.5
		l-40,8.7l40.2-4.6c0.7,9.3,0.3,18.5-1.5,27.6l-4.3,0.9c-0.5,0.1-0.8,0.4-0.9,0.9c-0.1,0.4,0,0.9,0.4,1.2l3.7,3.1
		c-2,7.8-5.2,15.2-9.1,22.4l-39.3-22.3l37.2,25.5c-5.8,9.8-13.2,18.7-22.4,26.3l-21.9-58.5l45.3,2.1c0.2,0,0.5-0.1,0.7-0.2
		c0.3-0.2,0.5-0.4,0.5-0.8c0.1-0.6-0.2-1.1-0.7-1.4l-40.4-17.5l45-40.6C303.4,173.2,306,182.2,307.1,191.5z M275.3,291.8
		c7.1-6.1,13.7-12.9,18.9-20.6c-5.8,6.9-12.7,12.8-20,17.9V289c5.5-4.9,10.6-10.2,14.9-16.1c-4.8,5.1-10.2,9.5-15.9,13.5l-0.3-0.8
		c3.8-3.6,7.8-7,11-11c-2.2,2.1-4.9,3.5-7.3,5.4c14.8-13.5,25-30.8,30-49.4l9.2,7.7c-6.6,20.8-19.1,39.7-36.9,54.1
		c7.8-6.9,14.9-14.4,20.4-23C292.5,278.2,284.2,285.5,275.3,291.8z M288.1,222.1L244.7,212c0.6-2.7,0.8-5.5,0.8-8.3L288.1,222.1z
		 M251.8,217.8c5.1,0.8,10.2,1.6,15.3,2.4c-5.3-0.2-10.4-0.4-15.6-0.6l-7.7-0.3c-0.5,0-0.9-0.1-1.4-0.1c0.4-0.8,0.6-1.7,0.9-2.6
		c0.3,0,0.5,0.1,0.8,0.1L251.8,217.8z M284.9,326.4c-3.6-8.2-7.1-16.6-10.4-25c-1.7-4.2-3.3-8.4-5-12.6l-4.9-12.6l-4.8-12.7
		c-1.6-4.2-3.2-8.5-4.7-12.7c-3.1-8.5-6.2-17-9.1-25.5c3.6,8.3,7,16.7,10.4,25c1.7,4.2,3.3,8.4,5,12.6l4.9,12.6l4.8,12.7
		c1.6,4.2,3.2,8.5,4.7,12.7C278.9,309.4,282,317.9,284.9,326.4z M301.2,283.3c3.6-4.3,7-8.8,10-13.5c0,3.4,0.3,7.8,1.8,11.5
		C309,280.9,304.5,282.1,301.2,283.3z M278.6,301.2l-1.6-4.3c19.7-14.8,33.5-34.6,40.7-56.8l3.6,3
		C313.5,265.8,299,286.1,278.6,301.2z M341.4,235.3l-37-9.5l23.3-4.7L341.4,235.3z M337.4,186.5c-3.3,2.5-5.8,6.7-7.3,9.9
		c-0.3-5.8-1-11.4-2.1-17C330.3,181.9,333.7,184.9,337.4,186.5z M327,218.8l-4.5,0.9c3.1-22.2-0.1-45.2-10.4-66.6l3.4-3
		C326.3,172.1,329.9,195.8,327,218.8z M306.2,153.4c-3,2.7-6.1,5.4-9.1,8.2l-9.2,8.1l-9.2,8c-3.1,2.7-6.2,5.3-9.3,8
		c-6.2,5.3-12.5,10.5-18.8,15.6c5.9-5.6,11.9-11.2,17.9-16.6c3-2.8,6.1-5.5,9.1-8.2l9.2-8.1l9.2-8c3.1-2.8,6.1-5.4,9.3-8.1
		c6.2-5.3,12.5-10.5,18.8-15.6C318.2,142.3,312.2,147.9,306.2,153.4z M240,183.5c-3.2-5.3-7.6-9.4-12.6-12.5l0.6-7.9l110-41.2
		l4.8-1.8l3.9-1.4l-3.5,2.1l-4.3,2.6L240,183.5z"/>
	<path class="st1" d="M377.5,245.7c-0.1,0.3-0.3,0.6-0.5,0.7c-0.3,0.1-0.7,0.2-1,0.1l-16.1-4.7c-10.3,39-35.2,72.1-68.4,93.2
		l-1.8-4.8c31.8-20.5,55.5-52.3,65.4-89.8l-6.5-1.9c-0.6-0.2-1-0.9-0.8-1.5c0.2-0.6,0.9-1,1.5-0.8l6.4,1.8
		c2.9-11.8,4.5-24.1,4.5-36.8c0-26.9-7-52.2-19.2-74.2l3.8-3.4c13,23,20.4,49.5,20.4,77.6c0,13.2-1.6,26-4.7,38.2l16.2,4.7
		C377.3,244.4,377.7,245.1,377.5,245.7z"/>
	<path class="st1" d="M321.1,366c-1.8,0.2-4.4,1.1-7.8,2.6c-2.5,1.1-4.2,1.7-5.2,2s-2,0.4-2.9,0.3s-1.8-0.4-2.7-1
		c-0.9-0.6-1.7-1.4-2.3-2.4c-0.8-1.3-1.3-2.9-1.4-4.6s0.3-3.3,1.2-4.7c0.9-1.4,2.2-2.6,3.7-3.5c1.8-1.1,3.7-1.7,5.8-1.8
		c2-0.1,3.3,0.1,3.7,0.6c0.4,0.5,1.3,1.8,2.6,3.9l0.3,0.1l1.4-0.8l0.1-0.4c-1.7-3.1-2.9-5.5-3.5-7.4l-0.4-0.2
		c-1.9,0.2-3.9,0.6-6,1.3c-2.1,0.7-3.8,1.6-5.4,2.5c-3.9,2.4-6.3,5.3-7.4,8.8c-1,3.5-0.5,6.9,1.5,10.3c0.7,1.2,1.6,2.3,2.7,3.1
		c1.1,0.8,2.1,1.4,3.2,1.7c1.1,0.3,2.3,0.4,3.6,0.3c1.3-0.1,2.5-0.4,3.6-0.8s2.7-1,4.6-1.8c2-0.8,3.6-1.4,4.6-1.7
		c1.1-0.3,2.1-0.4,3.2-0.3c1,0.1,2,0.4,2.9,1.1c0.9,0.6,1.7,1.5,2.5,2.7c1,1.7,1.5,3.4,1.5,5.3c0,1.8-0.6,3.6-1.6,5.2
		c-1.1,1.6-2.6,3-4.4,4.1c-1.4,0.8-2.8,1.5-4.4,1.9c-1.6,0.5-2.9,0.7-4.1,0.6c-1.1-0.1-2-0.3-2.4-0.7c-0.5-0.4-1.4-1.7-2.9-3.9
		l-0.3-0.1l-1.3,0.8l-0.1,0.3c2.4,4.2,3.9,6.8,4.4,8.1l0.4,0.2c3.6-0.4,7.2-1.7,10.9-3.9c4.4-2.7,7.3-6.2,8.9-10.6
		c1.5-4.4,1.2-8.5-1.1-12.3c-1.2-1.9-2.6-3.3-4.3-4.2C324.7,366.1,323,365.8,321.1,366z"/>
	<path class="st1" d="M76.4,27.8c0.6-0.2,1.3-0.2,1.8,0c0.6,0.2,1.2,0.8,1.7,1.7L93,51c0.5,0.8,1.3,2.2,2.4,4.2s1.8,3.3,2.1,3.8
		c0.3,0.6,0.4,1.1,0.4,1.4c0,0.4-0.3,0.8-0.9,1.3s-1.4,1.1-2.5,1.8l-0.1,0.4l0.7,1.2l0.4,0.1c1.9-1.3,4.2-2.8,6.8-4.4
		c2.1-1.3,3.6-2.1,4.6-2.5L107,58l-0.8-1.2l-0.3-0.1c-1.5,0.9-2.5,1.4-3.1,1.5s-1,0.2-1.2,0.1c-0.2-0.1-0.5-0.3-0.9-0.7
		s-1.2-1.6-2.5-3.7c-1.3-2.1-2.2-3.5-2.7-4.3L83.1,29.1l31.7,11.6l9.9,3.5l3.2,1.1c2.4-0.9,4.2-1.4,5.3-1.7c-1.5-2.4-3-4.8-4.5-7.1
		l-4.5-7.3l-7.7-12.6c-0.5-0.8-1.3-2.3-2.4-4.2c-1.1-2-1.8-3.2-2-3.8c-0.3-0.6-0.4-1-0.4-1.4c0-0.4,0.3-0.8,0.9-1.3
		c0.6-0.5,1.4-1.1,2.6-1.8l0.1-0.3l-0.8-1.4l-0.4-0.1c-1,0.8-2.8,1.9-5.2,3.4c-2.7,1.6-4.7,2.8-6.2,3.6l-0.1,0.4l0.7,1.2l0.3,0.1
		c1.1-0.6,1.9-1.1,2.6-1.3c0.7-0.3,1.2-0.4,1.5-0.3c0.3,0.1,0.7,0.3,1.2,0.8c0.4,0.5,1.3,1.8,2.6,3.8c1.3,2,2.2,3.4,2.6,4l12.5,20.6
		c-2.6-0.8-5.2-1.6-7.9-2.6l-22-8.1L81.5,22c-1.1,0.8-2.5,1.7-4.3,2.8c-0.8,0.5-2.4,1.4-4.9,2.8L72.2,28l0.8,1.3l0.3,0.1
		C74.8,28.5,75.8,28,76.4,27.8z"/>
	<path class="st1" d="M388,106.6l-1.1,0.7l-0.1,0.3c0.2,0.4,0.5,1.3,1,2.8s0.8,2.5,0.8,3c-0.7,0.9-1.4,1.7-2.3,2.4
		c-0.9,0.7-3.3,2.2-7.2,4.6l-4.4,2.7c-1-1.5-2.6-4-4.6-7.3c-1.9-3.1-3.2-5.4-3.9-6.8c1.8-1.2,3.2-2.1,4.2-2.7c1.7-1,3-1.8,4-2.3
		s1.7-0.7,2-0.7s0.6,0.1,0.8,0.3c0.2,0.2,0.7,0.8,1.5,1.8l1,1.3l0.3,0.1l1.1-0.7l0.1-0.3l-3.4-5.3c-1-1.8-2-3.5-3.1-5.3l-0.3-0.1
		l-1.1,0.7l-0.1,0.3l0.8,1.5c0.4,0.8,0.6,1.4,0.7,1.7c0.1,0.3,0.1,0.6,0,0.8c-0.1,0.2-0.6,0.7-1.5,1.4c-0.9,0.7-2.1,1.5-3.6,2.4
		c-1.4,0.9-3.1,1.8-4.8,2.7l-2.9-4.9l-2.6-4.4l-2.2-3.9c1.9-1.4,3.4-2.4,4.7-3.2c0.9-0.5,2.3-1.3,4.1-2.2c1.9-0.9,3.4-1.5,4.7-1.7
		c1,1.1,1.8,2.3,2.7,3.7c0.1,0.1,0.1,0.2,0.2,0.4l0.3,0.1l1.2-0.7v-0.3c-1.8-3.4-3-6-3.5-7.7l-0.2-0.1c-4,2.6-8.6,5.4-13.9,8.6
		c-1.5,0.9-5,3-10.6,6.2l-0.1,0.3l0.7,1.2l0.3,0.1l1.9-1c0.6-0.3,1-0.4,1.3-0.5s0.5,0,0.7,0c0.2,0.1,0.4,0.2,0.7,0.5
		c0.3,0.3,0.7,0.8,1.1,1.5c0.5,0.7,1.1,1.7,1.8,2.8l3.3,5.4l5.3,8.8c0.9,1.4,2,3.5,3.6,6.2c1.5,2.7,2.3,4.2,2.2,4.4
		c-0.1,0.2-0.4,0.8-1.1,1.9v0.4l0.5,0.8l0.3,0.1c1.6-1.1,3.1-2.1,4.6-3.1l6.5-3.9c4.9-3,8.9-5.4,12-7.1l0.1-0.3
		c-0.7-1.2-1.6-2.7-2.5-4.5s-1.5-3.1-1.8-3.8L388,106.6z"/>
	<path class="st1" d="M53.3,278.1c0.1-0.4,0.2-0.8,0.4-1.1c0.2-0.3,0.8-0.8,1.7-1.4l0.1-0.3l-0.7-1.1l-0.3-0.1
		c-2.7,1.8-4.3,2.9-4.8,3.2c-0.6,0.3-2.2,1.3-5,2.8l-0.1,0.3l0.6,1.1l0.3,0.1c1.9-1.1,3.1-1.7,3.6-1.9c0.5-0.1,0.8,0,1.1,0.4
		c0.2,0.4,0.8,2,1.7,4.8s1.6,5.1,2.1,6.8l4.6,16.7l-15.1-12c-3.6-2.9-7.3-6-11-9.2l-1.5,0.9c1.1,5.2,2,10.1,2.9,15l3,18.3
		l-13.8-14.3c-0.9-1-2.1-2.2-3.5-3.8c-1.4-1.6-2.2-2.5-2.4-2.9c-0.3-0.4-0.2-0.8,0.1-1.1c0.3-0.3,1.3-1.1,3-2.2l0.1-0.3l-0.6-1.1
		l-0.3-0.1c-2.5,1.7-4.3,2.9-5.7,3.7c-1.8,1.1-3.8,2.2-6.2,3.5l-0.1,0.3l0.6,1.1l0.3,0.1c1.4-0.6,2.4-1,2.9-1.1s1.4,0.6,2.7,1.9
		l16.5,16.8l8.2,8.6l2.4-1.5l-1-4.6c-0.3-1.4-0.6-3.1-1-5.3l-1.5-8.2l-2.4-14.5l14.4,11.4c2.9,2.3,6.6,5.4,11.3,9.3l2.4-1.5
		l-3.4-11.5c-1.2-4.1-2-6.9-2.4-8.2l-2.4-9.5l-1.3-5.3C53.5,279.5,53.3,278.5,53.3,278.1z"/>
</g>
</svg>
