<svg xmlns="http://www.w3.org/2000/svg" viewBox="0 0 400 400" opacity=".1" fill="#895003" xmlns:v="https://vecta.io/nano"><path d="M206.7 369.9c-1.2-.1-2.5.2-3.9.7a11.94 11.94 0 0 0-1.6.8c-.8.5-1.3.9-1.6 1.4s-.4 1.3-.4 2.3c0 .9 0 1.6.2 2s.5.9 1 1.3c.3.3.7.6 1.3 1.1 1.2 1 1.9 2.4 2.3 4 .3 1.6.2 3.2-.4 4.6-.2.6-.6 1.1-1 1.6-.3.4-.9.8-1.7 1.3l-2.4 1.2c-.5.3-.9.4-1.2.3-.2 0-.5-.2-.9-.5-.7-.6-1.4-1.2-1.9-2l1.7-3.8c.4-1 .4-1.7.1-2-.2-.2-.5-.3-.8-.2-.3 0-.6.1-.8.3-.3.3-.6.7-.9 1.5l-1 2.5c0 .1-.1.2-.1.3l-.8 1.2c-.5.8-1 1.3-1.5 1.5l-.8.2-.3.3c-.1.1-.1.3 0 .4s.3.2.5.3c.7.1 1.4.1 2.1-.1h.2c.1 0 .3 0 .6-.1h.6c.2.1.5.2.7.4l.6.6c1 1 2.1 1.4 3.2 1.3.5 0 1.3-.3 2.3-.8 1.5-.7 2.7-1.4 3.4-2.1 1-.9 1.9-2.4 2.8-4.4.2-.6.3-1 .3-1.5 0-.2 0-.4-.1-.7-.1-.4-.1-.6-.2-.7-.1-.2-.1-.6-.1-1 0-.5 0-.9-.1-1.1-.1-.7-.6-1.5-1.3-2.6-.5-.8-.9-1.3-1.2-1.5l-1.2-1c-.5-.4-.8-.8-1-1.2-.3-.6-.3-1.3.1-2 .3-.7.8-1.1 1.5-1.4.6-.3 1.4-.4 2.5-.4l2.4-.1c.5.1 1 .2 1.6.5l1.4.9c-.1.2-.3.5-.4 1s-.2.9-.3 1c-.1.3-.4.8-.8 1.4-.1.3-.2.5-.2.8s.1.5.3.7h.9c.1-.3.3-.7.8-1.2.4-.5.7-.9.8-1.2.1-.6.3-1.1.4-1.4l.1-.1c.1-.1.3-.2.4-.5l.1-.1.5-.5c.1-.1.1-.3.1-.5.2-.3.4-.6.7-.8.2-.2.4-.4.4-.5.1-.2.1-.4 0-.6s-.4-.3-.6-.2c-.2 0-.4.1-.6.3s-.5.4-.7.6c-.3-.2-.8-.5-1.5-.8-1.8-.5-3.4-1-4.6-1M38.6 191.6c-.2 0-.5.1-.8.2-.4.1-.6.2-.8.2-.8 0-1.3 0-1.7.1-.3.1-.6.2-.7.4-.2.2-.3.5-.2.7 0 .1.2.3.4.6.2.2.3.4.3.6s-.1.5-.4.9c-1.9 2.6-4.7 6.1-8.2 10.4l-5.1 6.3c.4-.8.8-1.9 1-3.1.1-.3.2-1.4.5-3.2.5-3.4 1.2-6.7 2.2-9.9.2-.6.2-.9.2-1.2 0-.5-.2-.8-.6-.9-.5-.1-1 .2-1.5.9l-6.3 8.6c-.7 1-1.3 1.7-1.9 2.1-.3.3-.8.6-1.5 1.1-.3.2-.6.6-1 1.1l-2.2 2.5c1-2.4 1.7-5 2.2-7.6.3-2 .6-3.6.9-4.6.3-1.2.7-2.4 1.3-3.7.6-.5 1.2-.9 2-1.1.3-.1.4-.2.5-.2.2-.1.3-.2.3-.4s-.1-.4-.3-.6c-.2-.1-.4-.2-.6-.2-.5-.1-1.1-.1-1.8-.1-.1-.1-.2-.1-.3-.2-.3-.1-.5-.1-.9.1-.1.1-.4.2-.8.5-.9.6-1.8 1-2.8 1.3-.4.1-.7.3-.9.4-.1.2-.1.4 0 .6s.2.4.4.5c.3.2.8.2 1.4.1.7-.2 1.1-.2 1.4-.2-.5 1-.9 2.3-1.2 3.8-.2.9-.4 2.2-.7 3.9s-.9 3.6-1.7 5.8c-.4 1.3-1.1 3.2-2.1 5.7-.2.5-.2.9-.1 1.2s.3.4.6.5.6 0 .9-.1.8-.5 1.3-1.2c1.5-1.9 3.1-3.7 4.7-5.4a125.63 125.63 0 0 0 3.3-3.2c1.1-1.2 2.6-3.1 4.5-5.8-.3 1-.6 2.4-.9 4.2-.3 2.1-.5 3.5-.7 4.2l-1.1 3.7c-.4 1.5-.7 2.7-.8 3.8-.1.6 0 1.1.2 1.5.1.2.3.4.6.5s.5.1.7 0c3-4.3 7.5-10.1 13.4-17.4l2.7-3.4c.1-.2.6-.7 1.2-1.5.6-.7 1.3-1.4 1.9-1.9l.2-.2c.4-.2.9-.3 1.5-.4.4-.1.7-.2.9-.4.1-.1.2-.2.2-.4s0-.3-.2-.4c-.1-.1-.2-.1-.4-.1-.7-.1-1.4-.1-2 0-.1 0-.3-.1-.6 0m181-183c.4-.1.8-.2 1.1-.2h.6c.2-.1.3-.3.2-.6a.78.78 0 0 0-.4-.4c-.4 0-.7-.1-1-.1l-.5-.2c-.2-.1-.6-.2-1.1-.2-.5-.1-.9-.2-1.1-.2h-.1 0c-.2-.3-.4-.5-.7-.5-.6-.1-1.2.4-1.8 1.4L207.6 20l-1.9 3.2c-.5.8-.8 1.4-.9 1.6-.1.3-.2.6-.3.7-.1.3-.3.5-.5.6.2-.9.4-1.9.5-3.2.1-1.4.1-2.5.1-3.2l.3-4.3c.1-1.8.1-4.6.1-8.2 0-.8-.2-1.3-.6-1.5s-.8-.2-1.2.2c-.3.2-.5.6-.7 1l-5.2 9-4.1 7.1c-1.1 2-2.1 3.9-2.9 5.6-.4.7-.9 1.3-1.4 2-.4.6-.8.9-1.2 1-.2.1-.6.2-1.2.2-.3 0-.8.1-1.5.2-.3 0-.5.1-.7.2-.2.2-.3.4-.2.6s.2.3.5.4.9.2 1.6.2c.7.1 1.4.2 2 .4 0 .1.1.1.1.2l.9.1h0 .2c.2 0 .3-.1.4-.2s.1-.3 0-.5v-.1c.3-.4.5-.8.8-1.2s.6-1.2 1.1-2.3c1.2-2.5 2.7-5.2 4.4-8.2l4.8-8 1.7-2.8c.1 1.1.1 2.7-.1 4.9l-.7 12.3c-.1 1.6-.3 2.7-.6 3.3s-.4 1-.3 1.3.4.6.8.6.8-.1 1-.3c.3-.2.5-.5.7-.9.1-.1.2-.5.4-1 .4-1.1.9-2.3 1.6-3.6.3-.6 1-1.7 2.1-3.4 1.5-2.4 2.7-4.4 3.6-6.3.9-1.7 1.4-2.7 1.5-3 .4-.8 1.1-1.7 2-2.8a38.91 38.91 0 0 0 1.2-1.5c.4-.4.8-.6 1-.8.3-.3.5-.5.6-.5.2-.1.5-.2 1.1-.3.1.1.4 0 1.1-.2m40.8 254.9c-.9-.2-1.9.1-2.9 1-.8.7-1.4 1.5-1.8 2.5-.3.8-.5 1.5-.4 2.2.1.8.4 1.5.9 1.9.6.5 1.5.7 2.8.6 1-.1 1.9-.3 2.8-.5 1-.3 1.8-.3 2.2-.1.5.3.7.7.7 1.4a3.81 3.81 0 0 1-.4 1.7c-.5 1-.9 1.7-1.4 2.1-.7.7-1.4.9-2.3.8-.3-.1-.6-.2-1-.4-.6-.3-.9-.5-1-.6-.4-.1-.8-.2-1.2-.1s-.7.3-.8.7c-.1.3 0 .7.3 1s.6.5 1 .6c2.1 1 3.8 1.1 5.2.5 1.3-.6 2.3-1.9 3-3.9.3-1 .5-1.9.5-2.7-.1-1-.4-1.8-1-2.4-.8-.8-2-1.1-3.6-.9-.3.1-1 .2-1.9.4-.8.2-1.4.3-1.9.3-.4 0-.7 0-.8-.1-.3-.2-.4-.5-.3-1.1.1-.7.1-1.2.1-1.3.8-1 1.7-1.8 2.9-2.3 0 .3.2.6.5.8s.6.3.9.2c.3-.4.3-.9.1-1.5-.2-.4-.6-.7-1.2-.8m14.5 4.9c.4-.4.7-.7.7-1.1 0-.3-.2-.6-.5-.8s-.7-.2-1-.1c-.4.1-1 .6-1.7 1.3-.8.8-1.4 1.4-1.9 1.8-.4.3-.8.5-1.1.4s-.5-.3-.7-.8l-1-2.7c.3-.2.6-.5.9-.9.3-.3.5-.6.6-.7.3-.3.6-.5.7-.7.3-.2.5-.5.7-.9.1-.2.2-.4.1-.6-.1-.1-.2-.2-.5-.3s-.5-.1-.6-.2l-.3.2c-.5.3-1.1.8-1.6 1.3-.3.3-.5.4-.6.4s-.2.1-.3.1l-1.1-2.9c-.2-.5-.3-1-.2-1.4.1-.3.5-.8 1.1-1.2.8-.7 1.4-1.4 1.9-2.3.4-.7.4-1.1 0-1.4-.2-.1-.3-.1-.6-.1-.2.1-.4.2-.5.3-.2.2-.4.5-.6 1-.3.4-1 .9-2.1 1.6-.9.6-1.5 1.1-1.6 1.8-.1.4 0 .9.3 1.6 1.4 3.8 2.8 7.3 4.1 10.6.2.5.4.9.7 1.2.3.4.7.5 1.1.3l5.6-4.8m-124.1 3.1c.1-.4.1-.7-.2-.9-.3-.3-.9-.4-1.7-.2-2.8.5-5.6.9-8.3 1 .2-.6.8-1.4 1.6-2.4.9-1 1.5-1.8 1.8-2.3.4-.8.4-1.4 0-1.8s-1-.5-1.9-.2c-2.2.6-4.3 1.3-6.2 2 .4-.9 1-1.8 1.9-2.8l2.4-2.4c.3-.3.5-.6.5-.8s-.1-.6-.4-1c-.1-.2-.3-.6-.7-1.3-.3-.5-.5-.9-.7-1.2-.4-.5-1.1-1-2-1.4-1-.5-1.9-.8-2.6-.9-1.1 0-1.9.3-2.4 1.1-.2.4-.3.9-.4 1.6 0 .9-.1 1.4-.1 1.7-.2.7-.3 1.1-.3 1.2v.7c0 .3-.1.5-.2.6s-.3.2-.7.3c-.5.1-1 0-1.7 0-.7-.1-1.2-.3-1.4-.5-.5-.4-.7-.9-.6-1.4.1-.2.1-.4.2-.5.1-.2.1-.3.1-.5s-.1-.3-.3-.4-.4-.1-.6 0a1.21 1.21 0 0 0-.7.7 2.12 2.12 0 0 0 0 1.9c.2.7.6 1.2 1.2 1.6 1 .7 2.3 1 3.9.7.7-.1 1.3-.3 1.7-.6.5-.4.8-1.2 1-2.3.2-.9.3-1.6.2-2v-.7c0-.3 0-.5.1-.6.2-.3.4-.4.8-.5.3-.1.7 0 1 .1.8.3 1.5.7 2.1 1.4.6.6 1 1.4 1.1 2.2-.3.5-.9 1.1-1.8 1.9s-1.5 1.5-1.8 1.9c-.1.2-.6 1-1.4 2.4-.5.8-.7 1.3-.7 1.7 0 .3 0 .6.2.9s.4.5.7.5c.3.1.6-.1 1.1-.3 1.2-.6 2.3-1.1 3.6-1.5.3-.1.8-.2 1.5-.4a9.75 9.75 0 0 0 1.4-.6c-1.1 1.7-2.4 3.2-4 4.6-.4.4-.7.7-.8.9-.2.4-.2.8.1 1 .1.2.5.3 1 .4 1.4 0 3.2-.1 5.5-.4a116.8 116.8 0 0 1 5.5-.7c.5 0 .9-.1 1-.1.4-.1.7-.2.9-.3.2-.4.4-.7.5-1.1M145.2 127a1.55 1.55 0 0 0-1-1.3c-.3-.1-.6-.1-.9 0a.9.9 0 0 0-.6.6c-.1.2 0 .6.2 1.2.1.4.1 1 .1 1.8.1.8.2 2.2.5 3.9a45.24 45.24 0 0 0 .8 4c.2 1 .6 2.1 1 3.2-1-.7-2.1-1.8-3.1-3.4l-2.6-3.9c-.3-.4-.7-.7-1-.8-.2-.1-.4-.1-.6-.1a.55.55 0 0 0-.5.3c-.2.3-.3.7-.2 1.3.4 2.6.8 4.5 1.2 5.7.2.5.4 1.1.8 2 .3.8.5 1.5.6 2.1-1.1-.9-2.1-2.1-3-3.4-.5-.8-.8-1.3-1-1.7-.4-.6-.8-1.1-1.2-1.5s-.9-.7-1.3-.8c-.3-.1-.5 0-.7.1-.3.1-.5.3-.5.6-.1.2-.1.6.1 1l2.8 10.5-5.5-4.4c-.6-.5-1.1-.7-1.4-.8-.3 0-.6 0-.8.2-.3.2-.4.4-.4.6 0 .1 0 .3.1.6l2.8 8c.5 1.4 1 2.7 1.6 4.1.4 1.1.7 1.7.7 1.9.3 1 .6 1.5 1.1 1.5.3 0 .5-.2.6-.6.1-.3.2-.6.1-.9-.1-1-.3-1.9-.7-2.8l-.9-1.8c-.2-.6-.6-1.7-1-3.4-.3-1.5-.7-2.6-1.2-3.3 1.5.9 2.8 2.1 3.9 3.6.6.8 1.1 1.4 1.4 1.6.7.6 1.3.8 2 .6.6-.6.7-1.6.3-3.2l-2.4-8.4c.4.5 1 1.1 1.6 2 .7 1 1.3 1.7 1.5 2 1.4 1.5 2.8 2.3 4.3 2.3.5-.5.6-1.3.2-2.5l-1.6-4.6-1-2.9c.8 1.7 2 3.1 3.6 4.2.7.5 1.4.8 2 .8a1.69 1.69 0 0 0 1-.3c.3-.2.5-.5.6-.8.1-.2 0-.7-.1-1.2-1-3.8-1.7-6.6-2-8.5-.2-1.4-.3-2.5-.3-3.6.1-.5.1-1 0-1.4m129 15.9c-.5.2-.9.4-1.2.5-.8.3-1.8.5-3.3.6-1.6.1-2.7.2-3.3.4-.7.2-1.3.4-1.6.6-.6.2-1.2.3-1.7.4h-.7-.7c-.3.1-.5.2-.7.3-.2.2-.3.3-.3.6 0 .4.2.8.8 1.2l3.9 3.1c.9.7 1.6.9 2.1.8.3-.2.4-.4.4-.8 0-.3-.1-.7-.3-.9s-.4-.4-.7-.6c-.4-.2-.7-.4-.9-.5-.7-.4-1.1-.9-1.2-1.5 1.7-.3 3.2-.5 4.7-.7l.3.3 1.3 1.3.3.3c.1 0 .2.1.4.1h.6c.2 0 .4 0 .5-.1.2-.1.4-.3.4-.6.1-.4 0-.8-.3-1.1s-.6-.5-1-.4v-.2a79.37 79.37 0 0 0 3-.6l2.3 2.7c.4.5.7.7 1 .8.2.1.4.1.7 0 .2-.1.3-.3.4-.5 0-.2 0-.4-.2-.8l-1.6-2.6c-.7-1.1-1.4-1.8-2.1-1.9-.5-.5-.9-.4-1.3-.2m-20.4-4.4c.3.1.7 0 1.1-.1l10.1-2.8c-.5 1-1.4 2.1-2.8 3.1l-3.5 2.5c-.4.3-.6.7-.6 1 0 .2.1.4.3.6s.4.3.7.4.7 0 1.4-.2l11.8-3.5c1-.3 1.5-.7 1.5-1.2 0-.4-.2-.6-.6-.8-.4-.1-.8-.2-1.2-.1-.8.1-2 .5-3.6 1.1s-2.8.9-3.6 1c1.4-1.2 2.5-2.5 3.4-4.2.4-.8.5-1.3.2-1.7-.3-.5-1.1-.6-2.2-.3l-11.7 3.6c-.9.3-1.3.7-1.2 1.2-.1.1.1.3.5.4m137 53.7c-.4.1-.8.1-1.3.1-1.9-.1-4.8-.3-8.7-.6-.6 0-1 .1-1.3.2h0c-.6-.1-1-.1-1.2-.2-.4-.1-.7-.2-.7-.2-.2 0-.3.1-.4.3a.45.45 0 0 0 0 .5c0 .1.2.2.4.4.5.4.8 1 1 2v.1c-.3.8-.8 1.5-1.3 2.2-.5.6-.9 1-1.1 1.4-.1.2-.4.7-.7 1.6-.7 2-1.4 3.9-2.2 5.7l-4.1 8.1v.1c-.2.1-.4.2-.7.3-.8.1-1.4.3-1.8.4-.3.1-.5.2-.6.2-.2.2-.3.3-.2.6a.78.78 0 0 0 .4.4h.6c.4 0 1 0 1.7.2.4.1.8.2 1.1.2.1 0 .2 0 .2.1h.2.1.7.1.3c1.2-.1 2.9 0 5.1.4l7.3 1.1c.6-1.6 1.3-3.2 2.1-4.6.4-.8.6-1.4.4-1.8-.1-.3-.3-.4-.7-.5-.3-.1-.6-.1-.9.1-.5.2-.8.7-1.1 1.3-.2.4-.4.9-.6 1.7-.2.5-.5.8-.9 1-.3.2-.9.2-1.7.1-3-.6-5.9-.9-8.8-1l2.6-4.9c.9-1.7 1.5-2.9 1.8-3.6.1 0 .3 0 .6-.1a17.67 17.67 0 0 1 1.9.1c1.1.1 2.9.1 5.2 0 .6 0 1-.1 1.3-.3.2-.1.4-.2.5-.4s.2-.4.2-.6c0-.4-.3-.7-.7-.8-.3-.1-.7-.2-1.1-.2-.3 0-1.1.1-2.2.2-.9.1-1.7.1-2.2.1-.3 0-.6-.1-1.2-.1-.5-.1-.9-.1-1.2-.2h-.2a12.59 12.59 0 0 0 .3-1c.4-1.3.7-2.1 1-2.7.3-.4.7-1 1.3-1.7.5-.7 1.1-1.9 1.8-3.4a36.29 36.29 0 0 1 8.8.5c0 .2 0 .5-.1.8-.1.2-.2.4-.3.7s-.1.6-.1.8c.1.3.2.5.4.6.3.1.7 0 1-.3.1-.1.3-.5.5-1 .3-.9.9-1.9 1.6-2.8.3-.4.4-.7.4-.9 0-.3-.1-.6-.5-.9-.3-.2-.7-.2-1-.1-.1 0-.3.1-.6.3-.2-.2-.4-.1-.5 0z"/><path d="M206.7 347.1c-.3-.2-.8-.3-1.5-.3h-1.4c-.9 0-1.7.1-2.6.2-.1.1-.1.2-.1.4.9.1 1.8.1 2.6.1l2.6-.1c.1 0 .2 0 .2-.1.2-.1.2-.2.2-.2m-6.9-3.4s-.1.1-.1.2 0 .1.1.1c1 .2 2.3.2 3.9.1h.2l3.7-.3c-.4-.4-.9-.6-1.5-.6-.3 0-.8 0-1.7.2-.1 0-.3 0-.5.1-.4 0-1 0-1.7.1l-2.1.1c-.1-.1-.2-.1-.3 0m7-7.2H204h-3.4c-.4 0-.6.1-.6.3s.2.3.6.3l3.4.1 5.3-.1c-.4-.4-1.3-.6-2.5-.6m2.2-2.6c-.1-.4-.3-.6-.8-.8-.3-.1-.6-.1-1.2-.1-1.1.1-2.1.1-3 .1l-4.5.2v.7l4.4-.3h.1c2.2-.1 3.9-.1 5 .2m-.1 6.6c.1-.1.1-.1 0-.1-1.1-.5-2.6-.6-4.5-.5-.2 0-.3 0-.5.1-.8.1-1.4.1-1.8.1-.9 0-1.6 0-2.3-.1l-.1.4c1 .3 1.8.4 2.3.4.3 0 .8 0 1.7-.1h.1c1.4-.2 3-.2 4.8-.2.2.1.2.1.3 0m57.7-22.4a.76.76 0 0 0 .4-.2l.5-.2.8-.3.3-.1.4-.2c.3-.2.4-.3.4-.4.1-.2.2-.4.1-.6-.1-.1-.3 0-.5.1s-.4.2-.5.3l-.8.3c-.2.1-.5.2-.7.3-.4.2-.7.4-1.1.7.3.2.5.3.7.3m2.1-3.5l-.1-.4c-.4.1-.7.2-.9.2-.1 0-.3.2-.8.4l-.6.3c-.1 0-.1.1-.2.1-.6.2-1 .4-1.3.4-.2 0-.4 0-.5.1-.1 0-.1.1-.1.2v.2c.8.1 1.5 0 2.2-.3.1-.1.2-.1.3-.2l1-.6c.3-.2.6-.3 1-.4m-4.3-7.9c.7-.2 1.1-.5 1.2-.8-1.3.1-2.7.5-4.4 1.2-.3.1-.7.3-1 .4L255 310c0 .2.2.3.5.2.5-.1 1.2-.4 2.1-.9 1.2-.6 2.5-1.2 3.9-1.7l2.9-.9m2.7 4.9c-.1 0-.4.1-.8.4-.5.3-1.1.7-1.7.9-.9.4-1.8.7-2.7 1-.5.1-.7.3-.6.6.4.1.9 0 1.5-.3l2-.9 3-1.5c-.1-.2-.4-.3-.7-.2m-3.4-1.1c1.4-.7 2.6-1.4 3.6-2.1-.5 0-1.3.2-2.2.7l-2.1 1.1-.7.4c-1.5.8-2.8 1.3-3.7 1.3v.7c.3.1.7 0 1.3-.2l3.4-1.6c.1-.2.3-.3.4-.3m-5.3-8.2l4.8-1.8c.6-.2.9-.4.8-.8-1.8.5-3.8 1.1-6 2.1h-.1l-5.8 2.8a1.38 1.38 0 0 0-.4.3c-.1.1-.1.3-.1.4l6.8-3m3.6.7l-2.5 1.2c-2.3 1.1-4.6 2.4-6.8 3.8.2.2.6.1 1-.1l6.1-3.1 3-1.4c.8-.3 1.5-.6 2-.9-.2-.3-.6-.4-1.3-.1l-1.5.6m.6-6.3c-.9.3-2.1.8-3.6 1.6l-2.3 1.2-6.2 3c.7.1 1.5-.1 2.4-.4.5-.2 1.3-.6 2.3-1.1l1.9-.8.5-.2c.8-.4 1.9-.9 3.1-1.7 1-.7 1.6-1.2 1.9-1.6m-42.5 12.8l-3.4 11c13.1-1.4 25.4-4.9 36.8-10.5-2.7-2.1-6-4.4-9.7-7.1-7.5 3.2-15.4 5.4-23.7 6.6m-22.8 17.2c-.3 0-.4.1-.5.2s-.1.1-.1.2.1.2.1.2l6.2-.6c.3 0 .6 0 .9-.1 1.3-.1 2.2-.2 2.8-.2 1.4-.1 2.7 0 3.8.1-.4-.6-1.3-.9-2.7-.9-1 0-2.3.1-3.9.2-1.8.4-4 .6-6.6.9m.6 3.9l-.1.4c1.1.1 2.5.1 4.3-.1.7-.1 1.3-.1 1.9-.2l2.4-.2c.8 0 1.9 0 3.4.1-.5-.4-1.4-.6-2.5-.7-.7 0-1.8.1-3.3.2-.4 0-.9.1-1.4.1-2 .4-3.6.5-4.7.4m-1.3-6.2c0 .3.3.5.9.4 2.2-.2 4.3-.3 6.4-.4s4.1-.1 6.1-.1c.6 0 1.1.1 1.4.3l.1-.4c-.3-.2-.7-.4-1.1-.4-.3-.1-.7-.1-1.2-.1-1.7 0-3.5 0-5.3.1-2.4 0-4.9.2-7.3.6m-1.3-3.6l.1.2c1.4 0 3.3 0 5.6-.2 1.1-.1 2-.1 2.8-.2 1.3-.1 2.3-.2 2.8-.2.7 0 1.8 0 3.3-.1 1.3 0 2.4-.1 3.3-.2 0-.1-.1-.1-.3-.2-1.8-.2-4-.3-6.7-.1-.4 0-1.2.1-2.3.1-1.2.1-2.7.2-4.7.3-1.1.1-2 .2-2.5.2l-1.4.4m8.4-4.7c-1.5 0-3.2.1-5 .2-1.3.1-2.3.3-2.8.7.2.2.5.3 1 .2 2.3-.2 4.6-.3 6.9-.4 2.4-.1 4.8-.1 7.2 0-.4-.4-1.1-.6-2.1-.7-1.4-.1-3.1-.1-5.2 0m-3.9-1.8h1.5l1.2.2c.3 0 .6.1 1.1.1h1c1.7 0 3.5 0 5.2-.1.4 0 .8-.1 1-.2l-.1-.3-5.5-.2c-.6 0-1.2 0-1.8-.1-3.4-.1-6-.1-7.8-.1-.2 0-.3 0-.3.1-.1.1-.2.2-.1.3 1.7.2 3.2.3 4.6.3m41.4 8.3c-.5.2-.7.4-.6.6 4.8-1.4 9.3-3.2 13.6-5.5 1.5-.8 2.5-1.6 3-2.3-5.1 3-10.5 5.4-16 7.2m-11.5 1.5c-2.1.6-4 .9-5.8 1-.8 0-1.4.1-1.7.3-.4.1-.7.4-.9.7 1.9-.1 3.7-.4 5.4-.7 1.9-.4 4.9-1.2 8.9-2.6l8.4-3 6-2.7c.8-.4 1.4-.7 1.7-1-.4 0-.9.1-1.4.3-.1 0-.5.3-1.3.7-1.9 1-4.4 2-7.6 3.1l-6.2 2.2-5.5 1.7m-14.4 5.4c-.7.2-1.2.5-1.3.9l15.1-3.5c1.3-.3 2.2-.6 2.8-.8 1-.4 1.9-.8 2.6-1.4-2.4.8-5.6 1.6-9.6 2.5l-9.6 2.3m101-64.2c-.1-.1-.2-.1-.3 0-.2.1-.3.5-.5.9-.3.8-.5 1.6-.7 2.3-.1.3-.2.6-.2.9-.1.7-.2 1.1-.4 1.4-.1.1-.2.3-.3.4-.1.2 0 .3.1.4.5-.1.8-.4 1-.8.1-.2.3-.7.4-1.3 0-.2.1-.4.2-.6.2-.8.4-1.6.8-2.6.1-.2.1-.4.1-.6-.1-.2-.1-.3-.2-.4m2.8 1.9c-.1-.1-.2-.2-.4-.2-.1 0-.2 0-.3.1s-.1.3-.1.6 0 .6-.2 1.1c-.1.2-.2.6-.4 1.1-.1.2-.2.5-.4.8l-.5 1.2c-.3.6-.3 1 0 1.3.3-.1.6-.3.8-.7.1-.5.2-.8.3-1l.5-1 .1-.1.3-.9c.2-.7.3-1.3.3-1.7.1-.3.1-.5 0-.6m-13.4 5.7l-1.8 2.7c-.7 1.1-1.4 1.9-1.9 2.5-.3.3-.7.6-1.3 1.1s-1 .8-1.3 1.1c-.4.4-.9 1-1.4 1.7-.3.4-.7 1-1.2 1.7-.8 1-2.1 2.2-3.7 3.6l-17.5 15.1c-.4.3-1.7 1.5-4 3.4.4.1.9-.1 1.5-.6l18.7-16.1c1.7-1.4 2.9-2.5 3.6-3.3.5-.5 1.2-1.4 2.2-2.6.9-1.2 1.7-2 2.2-2.6l1.3-1.3c.6-.5 1-1 1.3-1.3 1.1-1.2 2.4-2.9 3.8-5.1.2-.3.3-.5.5-.8.4-.5.5-.9.3-1.2l-1.3 2m-16 21.3c-.9.5-2.3 1.5-4.1 3l-13 11.7c.3 0 .6-.1.9-.4l16.2-14.3m15.8-16.7c-.3 0-.5.2-.7.4-.1.1-.3.4-.4.8-.3.6-.7 1.2-1.2 1.8-.3.3-.8.9-1.5 1.6l-2.7 2.6c-.6.6-.9 1-1 1.4l3.6-3.4c1.1-1 1.9-1.9 2.4-2.5.6-.8 1.2-1.8 1.5-2.7m1.5-19.8l-.3.1c-.4 1.5-.9 3-1.7 4.3-.1.3-.4.7-.9 1.4-.4.5-.8 1.2-1.4 2-1 1.4-1.7 2.5-2 3.5.1.1.2.1.4.1.1-.1.3-.2.4-.3l3.3-4.9c.3-.5.6-.9.8-1.4.7-1.3 1.2-2.4 1.4-3.2.2-.7.2-1.2 0-1.6m-1.8-2.1c.1-.2 0-.3-.1-.4s-.3 0-.5.2c-1 1-1.8 1.9-2.2 2.7-.1.2-.3.7-.6 1.5-.3.6-.5 1.1-.7 1.4-.3.3-.5.6-.6.8l-.1.1c-.2.4-.4.7-.5.9-.4.6-.6 1-.8 1.2-.2.3-.6 1-1.3 2.3l-.4.9c-.2.4-.3.8-.3 1.2.2.1.4 0 .6-.2.1-.1.2-.3.3-.6l.6-.9c.1-.2.4-.7.7-1.4.3-.5.8-1.4 1.6-2.6.1-.2.2-.4.4-.6.5-.9.9-1.6 1.1-2.2l.3-.9.6-1.2c.4-.7 1-1.4 1.6-2 .2 0 .2-.1.3-.2m9.1 7.2c0-.1-.1-.1-.2-.1s-.2 0-.2.1c-.3.5-.5 1-.7 1.8-.1.4-.2 1.1-.4 1.9 0 .2-.1.5-.3.9-.2.5-.4 1.1-.7 1.9l-.7 1.8c.3.1.6 0 .9-.3.1-.1.2-.4.4-.9 0-.1.3-.7.7-1.6.1-.1.1-.3.2-.4.2-.7.5-1.7.7-2.9l.4-1.6c-.1-.4-.1-.5-.1-.6m-5.1-2.3c.2-.2.2-.4.1-.5s-.2-.1-.3-.1-.2.1-.4.2a2.65 2.65 0 0 0-.7 1.4c-.1.3-.2.9-.4 1.6-.1.4-.4 1-.7 1.6s-.7 1.3-1.2 2.2l-1.6 2.6c.3.2.6.1 1-.4.8-1 1.4-2 2-3 .2-.4.4-.7.6-1 .3-.6.5-1 .6-1.5.2-.7.3-1.2.4-1.6.1-.6.3-1.1.6-1.5m2.9.4c0-.1-.1-.2-.2-.2s-.2 0-.2.1c-.1.2-.2.4-.4.7s-.4.5-.5.7c-.2.3-.4.8-.6 1.4-.1.3-.2.8-.4 1.4-.1.4-.2.7-.3 1.1-.4 1.1-.9 2.1-1.5 3.1-.5.8-.7 1.4-.5 1.8 1.1-.9 2-2.4 2.6-4.4 0 0 0-.1.1-.1.3-1.1.6-1.9.7-2.4.3-1 .6-1.8 1-2.5.2-.4.2-.5.2-.7m-18.2 8.6c-2-.6-3.9-1.1-5.7-1.6-3.1 4.1-6.6 8.1-10.4 11.9-3.9 3.9-8 7.4-12.2 10.6.6 3.8 1.3 7.6 2.1 11.3 6.1-4.2 11.9-9 17.4-14.6 5.1-5.1 9.7-10.5 13.7-16.2-1.9-.5-3.5-1-4.9-1.4m2.4-7.8c-.2.4-.5 1-.8 1.7-.4 1-.7 1.5-.8 1.7l-.4.9-.4 1.6c.3.1.6 0 .7-.4.1-.2.2-.5.3-.9 0-.1.2-.4.4-.9.2-.4.5-1.1.9-2.1.1-.3.4-.7.7-1.3s.6-1 .7-1.2l.2-.3 2.7-5.2c.3-.6.6-1.1.7-1.4.1-.5.2-1 .2-1.5h-.3c-.1.5-.3 1-.7 1.7l-1.9 3.6c-.3.6-.6 1.2-.9 1.7l-.4.8-.2.4-.7 1.1m25.6 8c-.1-.1-.2 0-.4 0-.1.1-.1.2-.1.4s-.1.5-.3.9c-.1.2-.1.3-.2.4-.1.2-.1.3-.1.5v.3c0 .1 0 .3-.1.3 0 .1-.1.2-.2.4v.5c0 .1-.1.3-.1.4 0 .2.1.3.3.3h.4c.1-.1.2-.4.2-.8l.2-.4c0-.2 0-.4.1-.5 0-.2 0-.4.1-.6v-.1c.1-.3.2-.5.2-.6.2-.5.2-.9.1-1.3.1 0 0-.1-.1-.1m-232.4-1c0-.1-.1-.1-.1-.2-.3-.4-.8-1.2-1.5-2.3-.4-.5-.6-1-.6-1.3s-.1-.4-.2-.4c-.1.4-.1.9.2 1.5.1.3.4.7.9 1.3.3.5.6 1 .9 1.4.6 1 1.1 2.1 1.5 3.1l.2.2c.1-.1.1-.3.1-.6-.4-.8-.8-1.7-1.4-2.7m-4.2-1.5l-.3.1c-.1.6 0 1.3.5 2.2.2.4.4.7.6 1.1.4.8.9 1.6 1.5 2.3.2.3.5.6.7.7.1.1.2.1.2 0-.6-1.1-1.2-2.3-1.9-3.4-.1-.2-.3-.5-.4-.7-.7-1-1-1.7-.9-2.3m-.9 4.5c-.4-.6-.7-1.2-1.1-2-.1 0-.2 0-.2.1.4.8.7 1.5 1 2.1s.7 1.1 1 1.6c.4.5.7.8 1 .9-.1-.4-.3-.8-.6-1.2-.4-.5-.6-.8-.8-1.1-.2-.2-.2-.3-.3-.4M89 263c-.1.3 0 .7.4 1.3.3.4.6.9.8 1.7l.6 1.6c0 .1 0 .1.1.1.1.1.3.6.7 1.3.3.5.5 1 .6 1.3.1.4.2.6.2.7.1.3.3.4.5.5-.1-.2-.2-.6-.2-1-.1-.5-.1-.8-.2-1s-.3-.6-.7-1.3c-.1-.2-.3-.5-.5-.9-.1-.2-.2-.5-.3-.7-.3-.8-.6-1.3-.7-1.6-.3-.7-.8-1.3-1.3-2m-3-17.1c.3 1.2.7 2.2 1 3.1.3.7.8 1.8 1.5 3.3.4.8.8 2.1 1.4 3.7.4 1.1.9 2 1.3 2.8.1.3.3.5.5.7 0-.1 0-.3-.1-.7 0-.1-.1-.2-.1-.3-.5-1.3-1.3-3.5-2.6-6.6-1.2-2.9-2.1-5.2-2.5-7-.2-.9-.6-1.3-1-1.4l.6 2.4M79.4 229c-.2-.5-.3-1-.2-1.4-.2 0-.4.2-.5.4s-.1.5 0 .7c.1.3.3.7.7 1.2.2.4.3 1 .4 1.9.1.7.5 1.6 1.2 2.8.2.5.4 1.2.6 1.9.1.4.2 1.1.4 2 .2.8.6 2.4 1.4 4.9l3.8 12.3c.5 1.5.8 2.5 1.2 3.1s.8 1.2 1.2 1.7c.1.1.2.3.4.4-.1-.2-.2-.4-.2-.5-.5-1-1-2.1-1.4-3.3-.5-1.4-1-2.9-1.4-4.3l-3.2-9.9c-.6-2-1-3.5-1.2-4.5-.1-.8-.3-1.4-.4-1.8-.1-.7-.3-1.3-.5-1.8-.6-1.1-1-2-1.1-2.6-.1-.9-.3-1.5-.4-1.9-.4-.5-.6-1-.8-1.3m82.8 74l-8.4 7.7c11.3 5.3 23.5 8.6 36.5 9.9l-2.9-10.8a101.98 101.98 0 0 1-25.2-6.8m-18-.5c.4.3.8.6 1.2.8 2.4 1.7 5 3 7.6 4.1-.2-.5-.7-.9-1.4-1.4l-4.7-2.7c-.4-.2-.7-.4-1.1-.7-1.3-.8-2.4-1.7-3.3-2.5-.4-.4-.8-.6-1.1-.6.4.9 1.4 1.9 2.8 3m.2-3.9c-1.5-1-2.5-1.8-3.1-2.6h-.3c0 .6.4 1.2 1.3 1.8l1.7 1.3c1 .8 2 1.5 2.8 2 .4.3.9.6 1.2.8.9.5 2.2 1.1 3.9 1.8l2.5 1a1.76 1.76 0 0 0 .6.1c-.7-.6-1.7-1.2-2.9-1.8-1.4-.6-2.4-1.1-3.1-1.5-.6-.3-1.2-.7-1.9-1.1s-1.7-1.1-2.7-1.8m-4 7.7c-1-.6-1.7-.9-2.3-.9.8.6 1.6 1.1 2.4 1.7.5.3 1.1.7 1.8 1.1 1.7 1 3.9 2.2 6.5 3.4-.2-.4-.6-.8-1-1.1-.3-.2-.7-.5-1.4-.8-1.3-.6-2.5-1.3-3.8-2.1l-2.2-1.3m-4.3 15.9c-.5-.3-.8-.5-1.1-.6s-.5-.3-.6-.4-.3-.2-.4-.3c-.2-.2-.3-.3-.4-.3a.45.45 0 0 0-.5 0c.1.4.2.6.4.8l.3.2.2.2.3.3c.1.1.3.2.7.4.3.1.7.4 1.2.7s.9.4 1.3.4l.1-.1c-.4-.5-.9-.9-1.5-1.3m42.7 5.5a.45.45 0 0 0-.5 0c-.2.1-.3.2-.2.3 1.1.3 2.1.5 3.1.7 2.7.6 5 .9 7 .9.1 0 .2 0 .4-.1.1-.1.1-.2.1-.3-3.4-.2-6.7-.8-9.9-1.5m6.3-.4c-.1 0-.2 0-.2.1.1.3.3.5.7.6.3.1.6.1.9.1l1.2.1c.3 0 .4.1.5.1l.2.2h.3l1-.2c.2 0 .3-.1.3-.1.1-.1.1-.2.1-.3-.2-.1-.6-.1-1.1.1h-1l-2.2-.2c-.2 0-.4-.1-.4-.1-.1-.3-.2-.4-.3-.4m-22-6.4c1.1.6 2.8 1.2 5 1.7l17.1 4.1c-.4-.4-1.1-.7-2.2-1l-19.9-4.8m-10.7-2.9c.3.2.8.4 1.4.7.8.3 1.3.5 1.5.6.4.2.9.5 1.6.9s1.2.7 1.6.9c.4.1.9.3 1.5.4.8.2 1.3.3 1.6.4.8.2 1.9.7 3.4 1.4.9.3 2.1.7 3.6 1 3.9.9 6.8 1.5 8.7 1.8h.4c.1-.1.1-.2.1-.3l-7.2-1.5-4.3-1.2c-1.3-.4-2.8-.8-4.4-1.4a71.56 71.56 0 0 1-4.1-1.5l-1.9-1c-.8-.4-1.4-.7-1.9-.9-.7-.3-1.1-.4-1.1-.4-.4-.2-.7-.4-1-.6-.3-.3-.5-.4-.6-.5-.1 0-.2 0-.3.1s-.2.2-.1.3c.2.1.5.2.8.4.1 0 .4.2.7.4m-16.8-4.8l2.6 1.7a47.53 47.53 0 0 0 3.1 1.7l3.3 1.6c-.2-.5-.8-1-1.8-1.5l-4.3-2.3-3.2-1.8c-.2.1-.1.3.3.6m.9 3.7l.3.2 4 2.3c.7.4 1.3.7 1.8.6-.2-.2-.7-.6-1.4-1l-4.1-2.4-.7-.4c-.4-.2-.7-.4-.8-.6-.2-.3-.3-.5-.5-.6-.2-.2-.5-.3-.7-.1.2.4.5.8.9 1.2.3.3.7.6 1.2.8m-2.4 2.4c-.3-.2-.4-.2-.6-.1v.4l1.3.7 5.1 2.5.6.3c0-.1 0-.3-.2-.5l-.1-.1c-.3-.3-.8-.5-1.4-.8-.8-.3-1.3-.5-1.6-.7l-1-.6-1.2-.6h0c-.3 0-.6-.2-.9-.5m3.5-11.6c.5.6 1.2 1.2 2.1 1.7.3.2.8.5 1.4.7.3.2.7.3 1.1.6.6.3 1.5.8 2.6 1.5 1.2.7 2.1 1.3 2.6 1.5l.3-.1c-.2-.4-.6-.7-1.3-1.1l-5.1-2.9-2.3-1.3c-.6-.3-1.1-.6-1.4-.6m2.5 4c-.1-.1-.2-.1-.3-.2l-3.2-2.1c-.1.1-.1.3 0 .4a.78.78 0 0 0 .4.4l2.9 1.9 3.8 2.5c.9.6 1.7.8 2.2.7-1.4-.8-3.3-2-5.8-3.6m-10.8-9.7l-.3-.3c-.1 0-.2 0-.3.1s-.1.2 0 .4c.1.1.2.3.6.4.7.3 1.1.5 1.4.7.1.1.4.3.6.5.2.1.5.2 1 .4.1 0 .3.2.8.5.3.2.6.3.8.3.1-.1.1-.2.1-.4-.2 0-.5-.1-.9-.4s-.7-.5-.9-.5c-.5-.1-.8-.3-1-.4-.3-.2-.5-.4-.6-.5s-.3-.2-.7-.3c-.3-.2-.5-.4-.6-.5m-3.3.5c-.1-.3-.5-.6-1-1-3.1-2.2-6.8-5.5-11.1-10l-10.7-10.6c-1.2-1-1.9-1.8-2.3-2.3-.3-.5-.5-.7-.8-.6.1.6.5 1.1 1.1 1.7.2.2.7.6 1.6 1.3.6.5 1.6 1.4 2.9 2.7 2.4 2.5 6.1 6.2 11 11.1 2.2 2.3 4 3.9 5.2 4.9 1.4 1.1 2.8 2 4.1 2.8m-22.9-26c-.3-.3-.6-.5-.8-.4 1.4 1.7 3.5 4.2 6.5 7.6.8.9 1.5 1.7 2.3 2.4.6.6 1.6 1.4 2.8 2.5.6.6 1.4 1.6 2.5 2.9a55.8 55.8 0 0 0 2.3 2.2c2.9 2.5 5.8 4.7 8.8 6.8-.5-.7-1.3-1.4-2.2-2.1-1.1-.8-1.9-1.3-2.5-1.7-.8-.6-1.7-1.4-2.8-2.2-1.7-1.5-2.9-2.6-3.4-3.2-1-1.1-1.7-2-2.2-2.5-.3-.4-.8-.8-1.4-1.4-.8-.7-1.2-1.1-1.5-1.3-1-.9-2.1-2.1-3.3-3.6l-5.1-6m36.1 26.3c.1.1.4.1.7.3.7.2 1.5.7 2.5 1.3.5.3 1 .7 1.5 1 2.4 1.5 4.3 2.9 5.5 4h.3c0-.4-.4-.8-1-1.2-1.5-1.1-3-2.2-4.6-3.2l-1.8-1.2c-1.5-1-2.8-1.5-3.8-1.5.3.2.5.3.7.5m-22-35.4l-11 2.5c4.2 6 9 11.8 14.5 17.3 5 5 10.3 9.5 15.8 13.4l2.4-11.2c-3.7-2.9-7.3-6.1-10.8-9.6-4.1-4-7.6-8.1-10.9-12.4m-20.5 3.4c0-.5-.3-1-.7-1.7l-2-3.4-2.7-4.5-.3.1c.1.3.3.8.6 1.4l1.9 3.3 2 3.5c.4.6.8 1.1 1.2 1.3m.1-6.9c0 .1 0 .1 0 0 1.1 2.2 1.9 3.7 2.5 4.5h.3c-.7-1.7-1.4-3.3-2.2-4.8a36.56 36.56 0 0 0-3.1-4.9c-.3-.5-.7-.6-.9-.4.1.3.4.7.9 1.4.7.9 1.6 2.3 2.5 4.2m-.3-8c0 .4.2 1 .6 1.7l2.5 4.7.2.4a22.11 22.11 0 0 0 1.4 2.4c.6.8 1.1 1.5 1.8 2-.9-1.8-1.8-3.6-2.7-5.2l-3.1-5.6c-.3-.3-.5-.5-.7-.4m4-1.1h-.2c-.1 0-.1.1-.1.2s0 .2.1.4l2.2 5.4c.2.4.3.7.5 1 1.3 2.6 2.7 4.5 4.1 5.6 0-.4-.4-1-1-1.8-.9-1.2-1.9-2.9-2.9-5.2h0c-1.4-2.9-2.2-4.8-2.7-5.6m7.2 8.4c.4.7.6 1.2.7 1.3l.7.8c.1.1.3.5.6.9s.5.7.7.9l.3-.1c-.1-.5-.3-.9-.6-1.3-.6-.8-1-1.5-1.2-2-.1-.1-.2-.5-.6-1.2l-.8-1.5c-.3-.6-.7-1.4-1.2-2.6-.2-.4-.4-.8-.6-1.3l-1.8-4a4.67 4.67 0 0 0-.5-1c-.1-.2-.2-.3-.2-.4-.1-.3-.2-.5-.3-.5-.1-.1-.3 0-.3.2v.4l2.6 6.1c.1.3.3.6.4.9.4.8.6 1.4.8 1.8l1.3 2.6m-9.9-44.1c-3.6-1.2-7.2-2.3-10.8-3.4 1.1 13.3 4.3 25.7 9.5 37.2l7.6-8 .2-.2c-3.2-8.2-5.4-16.7-6.5-25.6m8.4-58.2c-.9-1.1-2-2.3-3.1-3.5-.9-1-2.5-2.4-4.6-4.4-5.7 11.3-9.4 23.5-11 36.6l11-3.9c1.5-8.7 4.1-17 7.7-24.8m-1.6-15.3c.4-.6.9-1.3 1.4-1.8.7-.8 1.1-1.4 1.3-1.8.2-.5.3-.9.3-1.4-1.3 1.4-2.5 3-3.6 4.7-.9 1.3-1.7 2.7-2.4 4.1-.3.7-.4 1.2-.3 1.5.4-.3.8-.9 1.2-1.8l2.1-3.5m2.8 2c0-.1.1-.1.1-.2l3.2-4.9c.2-.3.2-.5.1-.6-.2-.2-.4-.1-.7.3L107 147l-.6.9c-.8 1.2-1.3 2.1-1.6 2.7-.5 1-.8 2-1 3 .3 0 .5-.3.8-.9.4-1.4 1.4-3.1 2.8-5.1m2.4-.5c-.1.2-.3.6-.7 1.3l-1.6 3.2-1.7 3.7c-.3.7-.4 1.3-.2 1.7l4.1-8.2c.7-1.4 1.4-2.9 2.1-4.4-.3.1-.6.5-1 1l-1 1.7m-5.8-6.7c-.2 0-.4.1-.6.4l-1.9 2.8-.7 1c-.3.4-.5.8-.6 1.1l-.3.9-.5.9c-.2.4-.2.7 0 1h.3c0-.3.1-.6.3-.9.3-.5.5-.8.5-.8.1-.3.2-.6.3-.8 0-.1.2-.3.6-.7l.8-1.3s0-.1.1-.1c.5-.8.9-1.3 1.1-1.7.3-.6.5-1.2.6-1.8m-2.7.2c.1-.3.1-.6-.1-.8h-.3c0 .2-.1.4-.2.6l-.5.5c-.2.2-.5.7-1 1.5v.1l-.9 1.6-1.2 2.2c-.1.4-.1.6.1.7.3-.2.5-.5.7-.9.2-.5.4-.8.5-1l.8-1.2c.1-.2.3-.6.7-1.1 0-.1.1-.1.1-.2.3-.5.6-.9.8-1.2.3-.4.5-.6.5-.8m26.7-10.7c3.8-3.8 7.7-7.2 11.8-10.3l-2.6-10.9c-5.7 4-11.2 8.6-16.4 13.8-5.3 5.3-9.9 10.8-14 16.6 3.6.9 7.3 1.7 11 2.5 3-4 6.4-7.9 10.2-11.7m-51.2 68.2v.9.9c0 .2-.1.6-.2 1-.1.3-.1.7-.1 1.3v.4c0 .3-.1.6-.1 1-.1.6-.1 1.1-.1 1.4v1.5l-.2 1.1c-.1.4-.1 1-.1 2 0 .8 0 1.5-.2 2h.3c0-.2 0-.4.1-.7l.3-.7c.1-.2.1-.5.1-.9 0-.5-.1-.8-.1-.9 0-.2.1-.5.1-.9.1-.4.1-.7.2-.9v-1.4c0-.3 0-.8.1-1.4.1-.5.1-.9.1-1.1v-.2c0-.6 0-1 .1-1.3l.2-1.1v-1.2c0-.5 0-.9.1-1.2.1-.2.1-.3.1-.4-.1-.2-.1-.4-.1-.4.2-.2.3-.4.2-.5-.2-.1-.4.1-.6.5 0 .2-.1.7-.2 1.2m4.4 18.2c-.1-.1-.2 0-.3.1s-.1.3-.1.5c.1 1.7.4 3.3.7 4.8.1.6.4 1.9.9 3.8l.9 3.8c0 .2.2 1 .4 2.4.1 1 .3 1.8.5 2.4.1.5.4 1.4.9 2.8 1.5 3.8 3 7.4 4.5 10.8.2.4.4.5.6.4l-4.4-10.5c-.6-1.4-.9-2.3-1-2.7-.1-.6-.4-1.7-.7-3.4-.3-1.9-.7-3.8-1.2-5.6l-1-4c-.1-.2-.2-1-.4-2.2-.2-1.5-.3-2.6-.3-3.4m-22.1-13.9v.6 1.3c0 .4.1.6.3.7l.3-.2c.1-.3.1-.7.1-1.2v-1.2l.1-.7c.1-.2.1-.5.2-.6.2-.5.3-.8.2-.9-.4 0-.7.2-.8.5 0 0-.1.2-.2.6l-.2.9c0-.1 0 .1 0 .2m3.8-3.5h-.3c0 .2-.1.4-.2.6-.1.1-.2.3-.4.6-.1.3-.3.7-.4 1.2l-.2 1-.7 3c-.1.4 0 .6.2.7.3-.4.6-1.1.8-2.1l.3-1.6v-.3c.1-.6.2-1 .2-1.2.2-.4.4-.7.5-.9.1-.4.2-.7.2-1m4.9-.7c-.2.1-.3.2-.3.4-.1.1-.1.5-.1 1 0 .4 0 .9-.1 1.5-.1.3-.1.8-.2 1.4v.1c-.1.3-.1 1.1-.3 2.5l-.3 3.4.4-.1c.3-.4.4-1.1.4-2l.3-4c0-.3.1-.7.1-1l.5-3.4c-.1.1-.2.1-.4.2m-2.2.2c.1-.5.1-.9 0-1.1h-.3c-.2.5-.3 1.2-.4 2.3l-.3 2.9-.3 2.8c-.1.6-.1 1 .1 1.3.3-.2.5-.6.6-1.1.1-.2.1-.7.1-1.4 0-.4.1-1 .2-1.6 0-.2 0-.4.1-.6.2-1 .3-1.8.3-2.2-.2-.6-.1-1-.1-1.3m4.8-.6l-.4 4.8-.3 3c-.1 1.1-.1 1.9-.1 2.3.1.1.2 0 .3-.1s.2-.2.2-.4c.2-.9.3-2.3.4-4.2 0-.2 0-.4.1-.6.1-1.7.3-3.5.5-5.5-.1-.1-.2-.1-.3 0-.1 0-.2.1-.2.2 0 0-.1.2-.2.5m2.5 2l-.2 2.8-.5 5.6c-.1 1.4-.1 2.4.1 3v.1s.1 0 .1-.1c.3-.2.4-.7.5-1.4l.4-7.3c.1-1.7.3-3.5.5-5.1 0-.6 0-1-.1-1.2-.4.8-.6 2-.8 3.6m21.1-5c0-1 0-1.7-.1-2.2 0-.9 0-1.6.1-2.2s.1-1.1-.1-1.3c-.2.7-.3 1.7-.4 2.9l-.7 10.6v.2c-.3 4.1-.4 7.3-.3 9.4 0 .7.1 1.2.2 1.6l-.3.2c.1.5.3 1 .5 1.4h.4c.1-.4.1-.8.1-1.3-.1-.6-.2-1-.2-1.3-.1-.6-.1-1.4-.1-2.5 0-2.4.1-4.9.4-7.5 0-.5.1-1 .1-1.5l.3-3.2c.1-1.3.1-2.4.1-3.3m-3.1-.1c0-.8 0-1.4.1-1.8.1-.7.2-1 .2-1 0-.4-.1-.7-.3-.9-.3 1.4-.5 3.1-.5 5.3 0 3.1 0 4.9-.1 5.4 0 .3 0 .7-.1 1.1-.1.5-.1 1-.2 1.6-.1.7-.2 2.2-.4 4.6-.1 1.7-.1 2.8-.1 3.4 0 .8.1 1.3.1 1.7.1.6.3.8.6.7.1-.3.1-.7.1-1.1-.1-.5-.1-.9-.2-1.1-.1-.8-.1-1.9 0-3.4l.2-2.7c.1-1.4.2-2.5.3-3.2 0-.2 0-.4.1-.6.3-2.7.3-5.4.2-8m-3.1-.2l-.1-2h-.4l-.1 7.2c0 1-.1 2-.2 3-.1 1.5-.3 2.9-.5 4.2-.1.6-.2 1.1-.2 1.4l-.1 1.5c0 .1-.1.4-.1.7-.1.3-.1.5-.1.7 0 .5.1.9.4 1.3.1-.2.3-.6.3-1l.6-5c.2-1.6.3-2.9.4-3.7v-.2c.2-1.8.2-4.5.1-8.1m-7.1.3c-.4.2-.6.7-.6 1.5 0 1.4-.2 3.5-.6 6.2v.2c-.4 2.7-.6 4.7-.6 6 0 .5.1.9.4 1l.8-7 .2-2.1c.4-2.5.5-4.4.4-5.8m3.4-1.6h-.3c-.2.5-.4 1.4-.5 2.5l-.6 7-.2 1.9c-.1 1.8-.1 3.8 0 6 0 .3.1.5.3.4.2-.4.3-1.1.3-2.1v-2.3c0-.9 0-1.7.1-2.3.1-.7.2-1.2.2-1.6v-.4c0-1-.1-1.7-.1-2.2s.1-1.4.3-2.6c.2-1.1.2-2 .2-2.6 0-.5 0-.8.1-1 .3-.3.3-.6.2-.7M95.3 144c-.2.3-.2.6-.1.9l.2.1c0-.2.1-.3.2-.6.2-.2.3-.4.4-.5.1-.2.3-.4.4-.7l.3-.8c.1-.3.3-.6.7-1.1h0l1.3-2c.1-.2.2-.3.2-.4 0-.2 0-.4-.2-.5-.1 0-.3.1-.5.3l-1.4 2.3-.1.2c-.3.4-.5.9-.7 1.3l-.2.6c-.1.3-.3.5-.5.9m-1.7-1.7c-.2.3-.3.6-.1.8.2.1.4 0 .6-.3l1.6-2.4.9-1.5c.1-.2.1-.4.1-.4 0-.2 0-.3-.2-.4h-.2l-1.2 1.9-1.5 2.3m-1.6 7.9c-.6.5-1.2 1.3-1.7 2.4-1.7 3.5-3.8 8.7-6.3 15.4-.4 1.1-.7 1.9-.9 2.6-.1.3-.3 1-.6 2.1-.2.9-.4 1.6-.6 2.1-.1.5-.4 1.2-.8 2.1s-.6 1.6-.8 2.1c-.3.8-.6 2.4-1 4.6-.4 2.1-.5 3.7-.4 4.8.1.1.3.1.4.1.2 0 .3-.1.4-.2-.3-.2-.4-.6-.5-1.2 0-.6.1-1.4.3-2.4.3-1 .5-1.8.6-2.4.1-1.2.3-2.1.4-2.7.1-.5.3-1.1.6-1.9.4-.8.6-1.4.8-1.8.2-.6.5-1.4.8-2.4.4-1.5.7-2.3.7-2.4.3-1.1.9-2.8 1.8-4.9 1.3-3.5 2.4-6.3 3.2-8.1 1.2-2.9 2.4-5.6 3.6-7.9m2.9-.5c-.5.3-.9.8-1.2 1.7-1.7 3.8-3.3 8-5 12.8l-4.4 13c-.9 2.9-1.4 4.9-1.6 5.9-.3 1.7-.4 3.3-.4 4.9.3-.4.4-1 .5-1.9.2-1.3.4-2.8.7-4.3.5-2.1 1.2-4.8 2.3-8.2 2.7-7.9 5.7-15.9 9.1-23.9m-1.3-11.3a.47.47 0 0 0-.1-.6c-.4.1-.7.2-.9.5-.1.1-.1.2-.2.3s-.1.2-.2.3-.2.3-.5.5c-.1.1-.2.4-.3.7 0 .1-.1.3-.2.5s0 .4.2.4c.2-.2.3-.4.5-.7.2-.4.4-.7.5-.8l.6-.6.2-.2c.3-.1.4-.2.4-.3M154.1 99c3.2 3 5.7 5.7 7.5 8 7-3 14.4-5.2 22.2-6.5l4.6-11.1c-12.2 1.4-23.7 4.6-34.3 9.6m-8 12.8c-1.4.8-2.4 1.3-2.9 1.7-.4.3-.8.6-1 .8-.4.3-.7.5-1.1.6-.5.2-.8.3-.9.4-.2.2-.3.4-.3.7l.6-.1v-.2c.5 0 1-.2 1.5-.6.3-.2.7-.5 1.3-1 .4-.3 1.1-.6 2.2-1.1.7-.3 1.7-.8 3.1-1.5.2-.1.3-.2.5-.3 1.1-.6 2-1 2.5-1.3l2.6-1.2c1.5-.7 2.9-1.5 4.3-2.3l-.1-.2c-.9.3-2.5.9-4.6 1.9l-5.1 2.5-2.6 1.2m-15.3-4.6c.5-.6 1-1 1.5-1.2.3-.2.8-.4 1.4-.7.5-.3.9-.6 1.2-.9-.8.2-1.7.7-2.6 1.3-.5.4-1.3 1-2.3 1.9l-9 7.5c-3.5 3-6.3 5.7-8.4 8.1-1.7 2.1-2.7 3.2-3 3.5-.4.5-1.1 1.1-2 2-.8.8-1.4 1.5-1.8 2.2-.3.6-.4 1.1-.2 1.5a27.12 27.12 0 0 1 1-1.6c.3-.5 1-1.4 2.1-2.6l5.7-6.2c3.7-3.8 7.6-7.2 11.7-10.4 1.7-1.2 2.8-2.2 3.5-2.8.2-.4.6-.9 1.2-1.6m-4.2-.5c-.8.6-2 1.7-3.7 3.2l-7.3 6.6c-2.6 2.5-4.9 4.9-6.7 7.2-1.4 1.8-3.5 4.7-6.2 8.7-1.1 1.6-1.7 2.9-1.9 3.9l3.1-4.7c2.2-3.5 4-6.1 5.3-7.7s3.2-3.6 5.5-5.9c4.6-4.5 9.3-8.6 14.1-12.4 1-.8 1.6-1.4 1.8-1.7-1.3.7-2.6 1.7-4 2.8m12.5 2.1l.5.1 2-1.3c1.1-.7 2.5-1.5 4.1-2.3 1.7-.9 3.7-1.9 6-2.9.7-.3 1.1-.6 1.4-.8.1-.1.3-.3.5-.7-.2 0-.6.1-1.1.5-.2.1-.7.3-1.5.6-2 .7-3.9 1.6-5.7 2.6-1.4.8-2.8 1.6-4.1 2.6l-2.1 1.6m.7 2.9c-.4.3-.6.7-.8 1 .2 0 .4 0 .6-.2.1-.1.3-.2.5-.4s.5-.3.8-.4c.2-.1.5-.2.9-.4s1-.6 1.7-1.1c.6-.4 1.6-.9 3-1.6.2-.1.5-.3.9-.5.3-.2.6-.4 1-.6l2.9-1.4c.8-.4 1.7-1 2.8-1.9.3-.2.4-.3.5-.5-.1.1-.6.3-1.5.8a11.39 11.39 0 0 1-1.9.9c-.9.4-1.5.6-2 .8-.6.3-1.4.7-2.2 1.2-.6.3-1.2.7-1.9 1.2-2 1.3-3.4 2.1-4.1 2.5-.6.2-.9.4-1.2.6m-.2-7.4c-.8.5-1.3.9-1.6 1.3 2.1-1 4.2-2.1 6.2-3.1l6.5-3.5a.78.78 0 0 0 .4-.4c.1-.2.1-.3 0-.4l-7.2 3.7-4.3 2.4m-2.6-1.7c.2.3.6.2 1.2-.1l4.6-2.7 2.1-1.2c1.5-.8 2.4-1.6 3-2.3l-5.4 3-5.5 3.3m-.1-2.1c-.1-.2 0-.4.3-.6l1.2-.8 3-1.9c1.5-.9 2.7-1.5 3.7-1.9.7-.3 1-.6.9-.9-1.7.7-3.3 1.4-4.8 2.3-1.4.8-2.8 1.7-4.1 2.8-.2.2-.4.4-.4.5v.3c0 .2.1.3.2.2m.2-4c-.3.2-.6.4-.7.6-.1.1-.1.3-.1.4 0 .2.1.3.2.4 0-.3.3-.6.8-.9l3.1-1.8c1.2-.7 2.4-1.3 3.7-2 .5-.2.8-.5.7-.8-1.4.6-3 1.4-4.7 2.3-.9.6-1.9 1.2-3 1.8m.3-2.5l1.8-1 3.3-1.8c0-.2-.2-.3-.4-.3-.1 0-.3.1-.5.2l-2.7 1.5-1.4.8c-.6.3-1.1.7-1.2 1 .2.2.4.3.7.3-.1-.3.1-.5.4-.7m2-3.7c-.1-.1-.2-.2-.3-.2s-.3 0-.7.1c-.2.1-.4.1-.6.2-.7.2-1.2.4-1.5.5l-.6.3c-.4.2-.7.5-1 .9l.2.2c.1-.1.2-.1.5-.1.2 0 .4-.1.5-.2l.3-.3c.1-.1.3-.2.6-.3l.7-.3c.2-.1.4-.1.6-.2.6-.3 1.1-.5 1.3-.6m.1-3l-.6.1c-.3 0-.6.1-.9.2-.2.1-.5.3-.9.5l-.4.2c-.3.1-.6.3-1.1.6a5.63 5.63 0 0 0-1.4 1c.2.1.4.1.7 0 .2-.1.4-.2.7-.4l1.3-.8h0c.5-.3.8-.5 1.1-.6.2-.1.5-.2 1-.2.4-.1.6-.3.7-.6h-.2m180.2 81c-.1-1-.2-1.8-.3-2.3-.2-1.1-.5-2.3-1-3.3-.5-.9-.8-1.5-.9-2-.2-.4-.4-1.3-.7-2.6-.6-2.7-1.6-5.3-3-7.9-.3.2-.4.6-.2 1 .1.2.2.5.5.9.4.6.8 1.5 1.2 2.5.2.7.5 1.6.8 2.8.3 1.3.6 2.3.8 2.8.2.7.7 1.9 1.5 3.7.2.5.4.9.5 1.4.1.3.1.8.2 1.5l.2 1.7c.3 1.5.9 3.7 1.8 6.5l1.7 5.2c.3.8.4 1.4.5 1.8.1.8.2 1.3.2 1.4.1.5.4.9.7 1.1-.1-1.1-.3-2.1-.6-3.2-.1-.5-.5-1.5-1-3.2-.9-2.5-1.6-5-2.3-7.3-.3-1.1-.5-1.9-.6-2.5m3-.7l-3-9c-.4.3-.4.8-.1 1.5 1.1 2.6 2.1 5.3 2.8 8.2.5 1.7 1.1 4.2 1.9 7.6.2.7.5 1.1.8 1.2-.6-3.1-1.4-6.2-2.4-9.5m1.1 55.6c.1-.6 0-1.1-.2-1.5-.1.3-.2.7-.3 1.2l-2.1 9.2c-.5 1.6-.7 2.5-.7 2.6l-.3 1.9c-.2 1-.3 1.6-.4 1.7-.1.3-.3 1.1-.7 2.1l-3.4 9.7c-.4 1.3-.6 2.1-.8 2.4-.2.5-.4 1.1-.7 1.9l-.6 1.4c-.1.3-.1.4-.1.5s.1.2.1.2c.1.1.2.1.2 0l6.4-18c.3-.8.4-1.4.5-1.6.1-.8.1-1.5.2-1.9a21.47 21.47 0 0 1 .7-2.6l1.8-7.7c.3-.7.4-1.2.4-1.5m3-4.4c.1-.8 0-1.4-.1-2-.3 0-.5.3-.4.8.1.8 0 1.9-.3 3.4l-.5 2.8c-.4 2.6-.9 4.5-1.4 5.8-.2.5-.5 1.3-.9 2.4-.3 1-.6 1.8-.6 2.5 0 .1 0 .5-.1 1.2 0 .5-.1.8-.1 1.1-.1.3-.2.7-.4 1.1-.1.2-.2.6-.4 1.1-.2.6-.5 1.6-.8 3-.3 1.3-.5 2.3-.8 3l.2.2c.4-.6.7-1.3.9-2.3l.5-2.5c.1-.3.3-.8.6-1.6.3-.7.4-1.3.5-1.7.1-1 .1-1.7.2-2.2.1-.8.3-1.6.7-2.6.5-1.1.8-2 1-2.6.5-1.5 1-3.7 1.5-6.3l.4-2.6c.2-.9.3-1.6.3-2m16.8-16.3c0-.1 0-.2-.1-.3-.1-.9-.2-1.5-.4-1.8-.2-.4-.4-.6-.7-.5a1.38 1.38 0 0 0-.3.4c0 .1 0 .2.1.5.1.2.2.8.4 1.7.1.3.1.8.2 1.2.2 1.2.5 2.1.9 2.7l.4.1c.2-.3.2-.7 0-1.3-.2-.8-.4-1.7-.5-2.7m4.4-.7v-.6c0-.1-.1-.2-.1-.2-.1-.1-.2-.1-.2-.1-.1.1-.2.1-.3.1l-.1 1v.4.1l.2.4c.1.1.1.3.1.6 0 .2.1.5.2.9v.6c0 .2 0 .4.1.5h.5c.3-.4.3-1.1.1-2.1-.1-.4-.1-.6-.2-.8v-.1c-.2-.4-.3-.6-.3-.7m-13.4-4.3c-.1-.2-.2-.4-.3-.4s-.2 0-.3.2c-.1.1-.1.3-.1.4 0 .2 0 .5.1.7l1 4.2.8 3.4c0 .1.1.2.2.3.2.1.3 0 .4-.3.1-.2.1-.5.1-.8 0-.8-.1-1.7-.2-2.6-.1-.4-.2-.9-.3-1.3-.3-.9-.7-2.1-1.4-3.8m4.9 1.5c-.1-.3-.2-.6-.4-.7-.1-.1-.2-.1-.4-.1s-.3.1-.3.2 0 .2.1.4c.4 1 .7 2.3.9 3.7h0c.1.3.2 1.6.5 3.8 0 .3.1.5.2.6.2.2.4.3.6.1.1-.3.1-.8 0-1.5l-.4-3-.1-.3c-.2-1.4-.5-2.5-.7-3.2m-13.2-4.8c-.1-.2-.2-.3-.2-.4-.1 0-.2 0-.3.2-.1.1-.1.3-.1.4.1.7.2 1.7.5 3.1.2 1.1.3 2.8.3 5.2v.1a30.83 30.83 0 0 0 .4 5.1c.1.3.1.5.3.7s.4.3.6.3c-.2-1.2-.4-3.2-.5-6.1 0-.4 0-.9-.1-1.3 0-3.1-.3-5.6-.9-7.3m3.7 1.3c-.2.1-.2.4-.1.8.4 1.3.8 3 1 5.3 0 .4.1.8.1 1.1.2 2.1.4 3.5.6 4.3l.5-.1c-.1-1.4-.1-2.8-.3-4.2-.2-2.1-.5-4.2-.9-6.2-.1-.5-.3-.9-.5-1-.1-.1-.2-.1-.4 0m-7.4-.9c0-.5-.1-1-.2-1.5h-.4c-.2 1.3-.2 2.3-.2 3l.2 1.3v1.7c0 .2 0 .7.1 1.4.1.6.1 1.4.1 2.3v2.8c0 2.2.1 3.9.3 5.1.1 0 .2-.1.2-.2.1-.3.1-.7.2-1.2 0-.4.1-.9.1-1.7v-4.9c0-1 0-1.7-.1-2.2-.1-.7-.2-1.3-.2-1.6 0-.8 0-1.3-.1-1.7-.1-.6-.2-1-.2-1.2.2-.1.2-.6.2-1.4m-3.7 20.9l-10.8 3.4c-1.2 9.6-3.6 18.7-7.3 27.3 1.6 1.9 3.4 3.9 5.5 6 .6.6 1.4 1.3 2.3 2.1 5.7-12 9.2-24.9 10.3-38.8m-2-20.9c-.1-.4-.2-.7-.2-1s0-.7.1-1.3a.55.55 0 0 0-.5.3c-.1.2-.2.4-.2.6 0 .3.1.7.2 1.3.1.3.1.8.1 1.5 0 .5.2 1.3.4 2.3.1.8.1 2 .1 3.7 0 .1 0 .3.1.9 0 .2 0 .5.1.8.1.7.1 1.2.1 1.7 0 .3-.1.9-.2 1.6s-.1 1.6 0 2.7l.2 3.2c.2-.1.3-.3.3-.7l.3-5.1c.1-1.2.1-2.1.1-3-.1-.5-.1-.9-.1-1.2 0-.4-.1-.7-.1-1 .1-1.7.1-2.9-.1-3.8-.3-1-.5-1.7-.5-2.2a4.44 4.44 0 0 0-.2-1.3m-4.6-1.4c0-.9-.2-1.6-.5-2l-.2.1.2 1.2v1.5a18.28 18.28 0 0 0 .2 2.8c.2 1.8.3 3.8.5 6.2v.1l.1 3c.1 1.8.1 2.7.1 2.7.1 1 .2 1.9.4 2.7l.3-.1c.1-.3 0-.8-.1-1.8-.1-.4-.1-1.6-.1-3.7l-.2-3-.7-9.7m-5.2-40.9c-2.6 2.8-5 5.7-7.4 8.6 3.6 7.9 6.2 16.3 7.7 25l11 3.2c-1.7-13.2-5.5-25.4-11.3-36.8m-12.6-8.7l-.7-1.2c-.1 0-.2 0-.2.1 0 .7.4 1.6 1 2.8l2.3 4.1c.1.2.3.4.4.6l.6.9c.3.3.7.8 1.2 1.5.3.4.7 1 1.2 1.9s.9 1.6 1.2 1.9l.3-.1c-.5-1.6-1.1-3-2-4.1l-.9-1.1c-.2-.2-.5-.6-.9-1.3a.76.76 0 0 1-.2-.4c-.6-1.1-1.7-2.9-3.3-5.6m20.4-5.9c.2.3.4.5.5.6l.6.5h0c.1.1.2.3.4.5.1.2.2.4.4.5.2.2.4.3.7.4s.5 0 .5-.2c0-.1 0-.2-.1-.3l-1.2-1.3-2.1-2.3c-.2-.2-.3-.2-.4-.2-.2.1-.2.3-.1.5 0 .3.3.7.8 1.3m-3.1.7c-.5-.5-.7-.9-.8-1.4 0-.2-.1-.4-.2-.5s-.1-.1-.2-.1-.2 0-.2.1c0 .9.2 1.6.4 2a4.7 4.7 0 0 0 1 1.1c.2.3.5.7.8 1.2l.3.6c.5.8 1 1.2 1.7 1.3.1-.2.1-.4 0-.7 0-.1-.2-.2-.5-.5-.2-.2-.4-.5-.7-.9-.1-.1-.1-.2-.1-.2-.2-.4-.4-.7-.5-.8.1 0-.3-.5-1-1.2m-4 .9c-.4-.6-.7-1.1-.9-1.5-.1-.2-.2-.4-.3-.4-.1-.1-.2-.1-.4.1-.1.1-.2.2-.2.4s.1.5.4.8c1 1.4 1.8 2.7 2.4 4 .1.1.1.3.2.4.2.5.4.8.5 1 .3.5.7.9 1.1 1.2s.8.3 1.1.2c-.1-.3-.3-.6-.6-.9s-.6-.6-.7-.8c-.2-.3-.4-.7-.7-1.2-.1-.1-.1-.2-.2-.3-.3-.8-.6-1.3-.8-1.6 0-.2-.3-.7-.9-1.4m-9.2 1.4c0-.1-.1-.2-.2-.3s-.2-.1-.4 0l-.3.3c0 .2 0 .5.2.9l3.2 6.2 2.7 5.3.4.1c0-.5 0-1-.2-1.5a22.43 22.43 0 0 0-.6-1.5l-1.4-2.8c-.1-.1-.1-.1-.1-.2l-1.8-3.1c-.7-1.2-1.2-2.4-1.5-3.4m3.9-1.2v.4a152.8 152.8 0 0 0 2.6 5.5c.5.9.9 1.8 1.3 2.6.2.4.4.8.6.9.4.3.7.4 1 .2-.6-.9-1.4-2.3-2.2-4.2-.1-.1-.1-.3-.2-.5-1-2.2-1.8-3.8-2.5-4.7-.1-.1-.2-.2-.4-.3-.1 0-.2 0-.2.1m17.9-3.5c-.1-.2-.3-.4-.6-.7l-.6-.6c-.2-.1-.3-.2-.4-.2-.2 0-.3.1-.4.2s0 .3 0 .4c.1.1.2.3.3.4l.4.4s.2.2.5.6c.1.1.2.3.4.5l.6.6c.3.2.5.3.6.3a.76.76 0 0 0 .2-.4c.1-.1 0-.3-.1-.6l-.4-.4c-.2-.1-.3-.3-.5-.5.1.1.1 0 0 0m-53-15.9c-.1.1-.1.3-.1.4a116.84 116.84 0 0 1 10.6 9.4c3.4 3.4 6.6 7 9.5 10.7l11-2.7c-3.8-5.3-8.2-10.4-13-15.3-4.7-4.7-9.7-9-14.8-12.7l-3.2 10.2m-7.3-12.8c-.4-.2-.8-.5-1.1-.7l-1.5-1.1c-.4-.3-.8-.5-1-.7-.3-.4-.6-.6-.8-.8-.6-.4-1-.7-1.2-.9l-.4-.5c-.2-.2-.4-.2-.6-.2a2.37 2.37 0 0 0 .9 1.5s.2.2.6.4c.2.2.4.3.5.5s.3.4.6.8a21.98 21.98 0 0 0 .8.5c.2.1.5.4 1.1.9.5.4 1 .8 1.5 1.1.1.1.2.1.3.2.4.3.8.5 1.1.6.5.3 1.4.6 2.5 1 .4.2 1.1.5 1.9 1 .8.4 1.5.6 2 .6.1-.1.1-.2-.1-.4s-.4-.4-.7-.6l-1.6-.9c-.4-.2-1-.5-1.8-.8s-1.5-.6-1.8-.8c-.5-.3-.9-.5-1.2-.7m-3-7.8c.1.1.2.4.5.6.2.2.6.6 1.1 1.2l1.2 1.2c.4.4 1.1.8 1.9 1.4.4.2.8.5 1.3.7l5.7 3.2c.5.3.9.3 1.1.2-1-.9-2.8-2-5.3-3.4-.9-.5-1.7-1-2.5-1.5-1.2-.7-2.1-1.4-2.7-2l-1.4-1.4c-.3-.3-.7-.4-.9-.2m6.4-5.1c.7.7 1.5 1.3 2.4 2h0c2.2 1.7 4.5 3 6.9 4.1 0 0 .1 0 .1.1 0-.1 0-.1-.1-.2-.1-.3-.4-.6-.8-.9-.3-.2-.7-.5-1.3-.8-1.6-.9-3.1-1.8-4.5-2.9-1.1-.8-2.1-1.7-3-2.6-.6-.6-1-.8-1.4-.6.3.5.9 1.1 1.7 1.8m3 5.8c-.9-.4-1.7-.8-2.3-1.1-.7-.4-1.3-.7-1.6-.9-.4-.2-1-.7-1.9-1.5-.8-.6-1.4-1.1-2-1.4.2.5.7 1 1.3 1.6.9.8 2.1 1.7 3.4 2.5a.76.76 0 0 0 .4.2c.8.4 1.9 1 3.3 1.8l3.7 1.9c-.1-.3-.4-.6-.7-.9-.7-.7-1.9-1.4-3.6-2.2m-.4-9c-.2-.1-.3-.1-.4-.1-.1.1-.1.2-.1.4l.3.3 1.9 1.3a40.31 40.31 0 0 1 3.2 2.6c.4.3.7.6.9.7.4.2.8.1 1-.1l-2.6-2.2-2.1-1.7h-.1c-.3-.2-.9-.6-2-1.2m4-1.6s-.1 0 0 0c-.7-.4-1.2-.6-1.6-.6 0 .3.2.5.7.8l.6.4 1.9 1.3c.4.2.6.4.6.7l.7.1.1-.4c-.6-.8-1.6-1.5-3-2.3m2.1-.2c.1.1.2.2.3.2.1.1.4.1.7 0 .1-.1.2-.2.1-.3 0-.1-.1-.2-.3-.3l-.8-.7c-.1-.1-.4-.2-.7-.4l-.4-.1c-.2 0-.3 0-.4.1 0 .1.1.2.2.4.1.1.3.3.7.6.2.2.4.3.6.5m-22 17.8c.8.1 1.4.2 1.8.4.3.1.7.4 1.3.7s1 .6 1.3.7c.4.1.9.3 1.7.6a17.8 17.8 0 0 1 2.1 1 .76.76 0 0 0 .4.2c.2.1.6.3 1.3.5.6.2 1 .4 1.3.6s.7.5 1.4.9c.6.4 1 .7 1.4.9.8.4 1.3.7 1.4.9.2.2.3.2.4.1-.3-.6-.9-1.3-1.9-2.1-.9-.7-1.6-1.2-2.1-1.5-1.2-.5-2-.9-2.6-1.1-.2-.1-.3-.2-.5-.3a17.8 17.8 0 0 0-2.1-1c-1.1-.3-1.9-.6-2.4-.8-.6-.3-1-.5-1.3-.7-.5-.3-.9-.4-1.3-.5s-.9 0-1.3.1c-.3.2-.3.3-.3.4m-15.9 178.5c-.5.6-.8 1.3-.8 2s.3 1.5.8 2a2.32 2.32 0 0 0 1.9.9c.7 0 1.4-.3 1.9-.9s.8-1.2.8-2-.3-1.5-.8-2c-.5-.6-1.1-.8-1.9-.8-.7 0-1.4.2-1.9.8m50.7-44.2c.9 0 1.7-.3 2.3-1s1-1.4 1-2.3-.3-1.7-1-2.3-1.4-1-2.3-1-1.7.3-2.3 1-1 1.4-1 2.3.3 1.7 1 2.3 1.4 1 2.3 1m-113.9 47.7c.6-.6 1-1.4 1-2.3s-.3-1.7-1-2.3-1.4-1-2.3-1-1.7.3-2.3 1-1 1.4-1 2.3.3 1.7 1 2.3 1.4 1 2.3 1 1.7-.4 2.3-1m-48.5-51c0-.8-.3-1.5-.8-2-.5-.6-1.1-.8-1.9-.8-.7 0-1.4.3-1.9.8-.5.6-.8 1.3-.8 2s.3 1.5.8 2c.5.6 1.2.9 1.9.9s1.4-.3 1.9-.9c.6-.5.8-1.2.8-2m-5.3-71.1c-.6.5-.9 1.2-.9 1.9s.3 1.4.9 1.9 1.3.8 2.2.8 1.6-.3 2.2-.8a2.32 2.32 0 0 0 .9-1.9c0-.7-.3-1.4-.9-1.9s-1.3-.8-2.2-.8c-.8.1-1.6.3-2.2.8m52.2-44.7c.5-.4.8-.9.8-1.5s-.3-1.1-.8-1.6c-.5-.4-1.1-.6-1.9-.6-.7 0-1.4.2-1.9.6s-.8 1-.8 1.6.3 1.1.8 1.5 1.1.7 1.9.7 1.4-.2 1.9-.7m116 43.5c-.8 0-1.5.3-2 .9-.6.6-.8 1.3-.8 2s.3 1.5.8 2c.6.6 1.3.9 2 .9.8 0 1.5-.3 2-.9.6-.6.9-1.3.9-2s-.3-1.5-.9-2c-.6-.6-1.2-.9-2-.9M239 123.2c.5-.5.8-1.1.8-1.9 0-.7-.3-1.4-.8-1.9s-1.1-.8-1.9-.8c-.7 0-1.4.3-1.9.8s-.8 1.1-.8 1.9c0 .7.3 1.4.8 1.9s1.1.8 1.9.8c.7 0 1.3-.3 1.9-.8m-14.8 138.5v-.4c0-.4 0-.7-.1-1.1h-.2c-.1.3-.2.7-.1 1.3 0 .2.1.4.2.6.2.3.4.5.4.6v.6c0 .1.1.3.3.6.2.2.3.4.3.6l.2-.1c.1-.3 0-.6-.2-.9l-.2-.2v-.4c0-.4-.1-.6-.2-.7-.2-.3-.3-.4-.4-.5m-28.7 2.5c-.1-.1-.2 0-.3.1 0 .1-.1.2-.1.4 0 .3 0 .7.1 1.3 0 .4 0 1.1-.1 2h.5c.1-.1.1-.3.1-.7-.1-.3-.1-.8-.1-1.5 0-.8 0-1.3-.1-1.6m4.3-36c-.6-.5-1.4-1.1-2.4-1.8l-2.3-1.6c-.2-.1-.4-.2-.5-.2 0 .4.3.8.9 1.2 2.4 1.7 4.9 3.5 7.3 5.6-.1-.5-.4-1-1-1.6-1.1-.8-1.7-1.3-2-1.6m12.8 8.1l1.5-10c-1.4-.9-2.9-1.8-4.4-2.7-2.1.8-4.3 1.2-6.7 1.2v10.3c-2.1-2-4.5-3.9-7.1-5.5.3.6.9 1.3 1.6 1.9.4.4 1.1.9 2.1 1.5.4.3 1.1.9 2.2 1.8l1.2 1v5.5l-3.5-3.7c-1-1.1-1.7-1.9-2-2.4-.4-.5-.7-.8-.9-.9.1.6.3 1.1.7 1.7.2.3.7.8 1.2 1.5l4.4 4.5v4.6c-.3-.3-.9-.9-1.7-1.6-1.4-1.3-2.8-2.8-4.1-4.6-.3-.4-.6-.6-.8-.5.4 1 1.1 2 2 3 .5.6 1.4 1.5 2.5 2.6l2.1 2v5.1c-.3-.4-.7-.8-1-1.2-.8-.8-1.5-1.3-1.9-1.7-.7-.7-1.3-1.3-1.7-1.8-.3-.3-.5-.5-.7-.5-.1.2 0 .4.2.6.5.8 1.4 1.8 2.8 3.1a28.08 28.08 0 0 1 2.5 2.6v5.9c-.2-.3-.4-.6-.6-.8-.6-.7-1.4-1.6-2.7-2.8l-1.9-1.8h-.2v.1.1c0 .2.2.4.4.6l2.4 2.4c1 1 1.7 1.8 2.2 2.6.1.2.3.5.4.8v4.8c-1.1-1.5-2.3-3-3.7-4.3-.1-.1-.2-.2-.4-.2-.1 0-.2.1-.2.1v.3c0 .1.1.2.3.4 1.4 1.5 2.7 3.1 4 4.8v4.9c-.4-.5-.8-.9-1-1.2l-.8-1.4c-.4-.6-.6-1-.6-1.2 0-.1-.1-.1-.1-.2h-.2c-.1.1-.2.2-.2.4a.76.76 0 0 0 .2.4l.3.6c.7 1.2 1.5 2.4 2.5 3.5v4.1c-.2-.3-.3-.5-.6-.8-.4-.4-.6-.8-.7-1 0-.1-.1-.2-.1-.3s-.1-.2-.2-.3l-.3-.3c0-.2 0-.3-.1-.4s-.1 0-.2 0c-.1.1-.1.2-.1.2 0 .1 0 .3.1.5.2.4.6 1.1 1.2 2l.6.9c.1.1.2.3.3.4v23.4l3.5-23.4.3-2.3 1.1-7.4c.2-1.5.4-3 .7-4.4l3.9-27.1m21.1 19.2c0-.1-.1-.1 0 0-.3-.2-.5-.2-.6 0 0 .1 0 .1.1.2.2.4.4.8.6 1.1.4.6.7.9.7 1.1l.1.4c0 .1.1.2.2.4l.3.3c.1.1.3.1.4 0 .2-.2.2-.5 0-.7s-.3-.3-.3-.4c0-.2 0-.3-.1-.4 0-.2-.1-.3-.3-.5l-.5-.5-.3-.5c0-.3-.1-.4-.3-.5m10.6-8.2c-.1-.1-.2-.1-.2-.2-.2-.1-.4-.2-.5-.2l-.1.2c.1.1.2.1.3.2l.4.4c.3.3.5.6.7.7s.5.3.9.5.7.4.9.6c.3-.1.4-.3.4-.6-.4-.2-.9-.5-1.5-.9l-.6-.4c-.3 0-.5-.2-.7-.3m8.3-10.4h0c-.3 0-.4-.1-.4-.3-.2-.1-.3 0-.4.2v.5l.4.1 1 .2v.3c.8 0 1.5.4 2.1 1l.5-.1c.1-.3-.1-.6-.6-.8-.2-.1-.6-.3-1.1-.4-.2-.1-.3-.1-.3-.1l-.1-.1c0-.1-.1-.1-.2-.1l-.9-.4m6.3-9.5l-.3-.1c-.2-.1-.5-.1-.8-.1h-.3v.1c-.1 0-.1 0-.2.1s-.1.1-.1.2 0 .2.1.4h.1c.3-.1.6-.2.8-.2v.2c.6.1 1 .2 1.2.3l.3.2 1.7.1c.2 0 .3 0 .3-.1s-.1-.2-.2-.2-.2-.1-.4-.1c-.5-.1-1-.2-1.5-.4-.1 0-.3-.1-.6-.2.1-.2 0-.2-.1-.2m-74.1 38.2c0 .1-.1.1-.2.3l-.1.1a.76.76 0 0 0-.2.4c.4.1.7.1 1.1 0v-.3-.2c0-.2 0-.4.1-.5 0-.1.1-.2.2-.3.1-.2.2-.5.2-.9v-1l.3-.7c.1-.3.1-.5 0-.7 0 0 0-.1-.1-.1h-.2c-.1 0-.1.1-.1.3 0 .1 0 .2-.1.3 0 .1-.1.1-.2.2-.2.1-.3.5-.2 1.1.1.5 0 .9-.2 1.2s-.3.5-.3.5v.3m-10.7-6.5l.3-.7c.1-.3.1-.5-.1-.7h-.2c-.2.6-.4.9-.4 1-.1.2-.1.3-.2.5l-.3.6c-.2.3-.3.7-.4 1.2-.1.2-.1.4-.2.7l.2.2.2-.1v-.6c0-.1 0-.1.1-.1 0-.1.1-.2.2-.3l.3-.6c.1-.4.2-.7.5-1.1m-11.9-5.1c0 .1-.1.2-.1.4l.2.2c.1-.1.3-.1.4-.2l.3-.3.3-.4c.3-.2.6-.4.7-.6l.1-.2c.2-.1.4-.3.5-.4.2-.1.3-.3.3-.6.1-.2 0-.5-.1-.6h-.2c-.1.1-.2.3-.2.6-.1.1-.2.2-.4.2-.3.1-.4.1-.5.2 0 .3 0 .5-.1.6l-.4.2c-.4.2-.6.5-.8.9m-4.4-10.5c0 .1-.1.1-.1.2s-.1.2-.1.3c-.1.1-.2.1-.3.2-.3.1-.5.3-.8.6-.4.4-.6.7-.7.7l-.6.4c-.2.2-.3.4-.4.6.7-.2 1.2-.3 1.4-.4v-.2l.5-.2v-.2l.5-.2v-.2c.4-.1.7-.3.8-.6.1-.2.1-.3.2-.5 0-.2 0-.4-.1-.6l-.3.1m-12.7-18.9c0 .1 0 .2-.1.2-.1.1-.4.1-.7.2-.3 0-.6.1-.7.2-.1 0-.2.2-.4.4-.1.2-.2.3-.4.3-.2.1-.4.1-.5.1s-.1 0-.1.1c-.1.1-.2.3-.3.6l.2.2c.1-.1.3-.1.4-.2.2-.1.5-.3.6-.5.2-.2.4-.3.4-.4.1-.1.3-.1.5-.1.2-.1.4-.1.5-.2l.3-.2c.1-.1.3-.1.6-.1.2-.1.3-.3.2-.4l-.5-.2m7 11.5h0l-.6-.2c0 .1-.1.2-.4.3l-.4.1c-.2.1-.3.2-.4.2-.2.1-.5.2-.9.2s-.7.1-.9.2c-.3.1-.5.4-.5.6v.1h.1l.8.1v-.2c.6-.1 1.1-.2 1.4-.3.1 0 .4-.1.7-.3.5-.1.9-.5 1.1-.8m29.3-6c-.8-.7-1.6-1.4-2.4-2.2-1.3-1.3-2.4-2.6-3.4-4-4.6 6.7-9.4 13.3-14.2 19.9l20-13.7m-41.2-16.2c-.2.1-.4.3-.6.5 0 .1 0 .2.1.2.3-.1.7-.2 1.3-.2l1.9-.2c.1 0 .3 0 .3-.1.1-.1.2-.2.1-.3l-3.1-.1v.2m1.4-28.1l-.2.1c-.1.3 0 .5.2.6l.2-.2c.4.2.8.3 1.1.4l.5.1.3.2 1.4.2h.2c.1 0 .2 0 .3.1.2.1.4.2.5.2 0-.3-.2-.6-.6-.7-.1 0-.1 0-.2-.1-.6 0-1-.1-1.2-.2l-.4-.2-.7-.2c-.4-.1-.9-.3-1.5-.5l.1.2m4.8-11.4v.3c.4.1.8.2 1 .5l.4.4c.1 0 .2.1.6.2.5.2 1 .4 1.4.8l.1.1.3-.1-.2-.2c-.4-.5-.9-.8-1.4-1-.4-.1-.6-.2-.7-.2l-.5-.5c-.2-.2-.5-.3-.8-.3v.1h-.2m-33.5 28.2c-.9.1-1.9.3-2.8.5l19.4 2.5 2.1.3 7.3 1c1.4.2 2.9.4 4.3.7l27 4.4 11.9 2.2c.5-.8 1.1-1.6 1.6-2.4a20.42 20.42 0 0 1-1.4-7.5v-1.1h-.5c-.6-1.8-1.3-3.5-2.2-5.1-.4-.8-1.2-2.1-2.3-3.9l-.3-.3c-.1-.1-.2 0-.3.1l1.3 2.2c.6.9.9 1.6 1.2 2.1.6 1.1 1.3 2.7 2.2 4.9h-4c-.1-.7-.4-1.3-.8-1.9-.5-.5-.8-.9-1-1.1-.2-.3-.4-.6-.7-1-1-1.7-1.6-3-2-4-.1-.3-.3-.4-.4-.4-.1.5.1 1.3.6 2.3l1.1 2c.5.9.9 1.5 1.2 1.8.5.5.8.9.9 1 .1.2.2.5.4.9a1.38 1.38 0 0 0 .3.4l-3.5-.1-.9-1.6c-.7-1.2-1.1-2-1.4-2.4-.6-.9-1.1-1.6-1.7-2.1l-.6-.6a3.04 3.04 0 0 1-.5-.7c-.2.3-.1.6.1.9.1.1.3.4.7.7.7.6 1.5 1.7 2.3 3.3l1.4 2.6h-4.2c0-.1-.1-.2-.2-.4-.4-.6-1.2-1.6-2.5-3-1.1-1.2-1.9-2.2-2.2-3.1-.1 0-.2.1-.1.4.1.6.5 1.4 1.4 2.3 1.3 1.4 2.2 2.4 2.6 3.1.2.3.4.5.5.7l-5.4-.1s0-.1-.1-.1c-.1-.1-.2-.2-.2-.3-.1-.1-.3-.4-.4-.7 0-.1-.2-.4-.6-1l-3.2-4.4c-.1-.2-.3-.2-.4-.2-.1.3.1.8.6 1.5l1.6 2.2c.7.9 1.1 1.7 1.4 2.2.2.4.3.6.5.8h0-3.2l-.2-.1c-.1-.1-.4-.4-.7-.8-.2-.3-.5-.6-.9-.9l-1.4-1.4c-1.1-1.1-1.8-2-2-2.8-.2.3-.2.6-.1.9.1.2.2.5.5.8.9 1.1 1.8 2 2.6 2.8l.9.9c.1.1.3.4.4.7h-4.4c0-.1-.1-.1-.1-.2l-3.5-4.8c-.1-.1-.1-.1-.2-.1s-.1 0-.2.1-.1.1-.1.2 0 .2.1.4c.6 1 1.7 2.6 3.1 4.5h-2.8c-1.2-1.6-2.3-3.1-3.4-4.4-.1 0-.2.1-.1.2 0 .1 0 .1.1.2l2.8 3.9h-2.9c-.1-.2-.3-.4-.5-.7-.8-.9-1.4-1.6-1.9-2-.7-.6-1.1-1.1-1.3-1.5-.1 0-.2 0-.3.1s-.1.2 0 .3c0 .2.2.4.5.7l2.8 3.1h-2.4 0c-.2-.1-.4-.3-.6-.6-.3-.4-.5-.6-.6-.7-.4-.3-.6-.5-.8-.6-.2-.3-.3-.4-.4-.6-.1-.1-.3-.5-.7-.9-.1-.1-.3-.1-.3-.1l.2.6.7 1c.2.3.4.5.4.6.1.1.3.3.6.4.1.1.2.3.4.6.1.1.1.2.2.2h-1.4c-.1-.2-.3-.4-.6-.6l-1-.7c-.3-.2-.6-.5-.8-.8-.2-.2-.3-.4-.4-.5-.1-.3-.2-.4-.2-.5-.1-.2-.2-.2-.4-.2-.2.1-.2.2-.1.5s.4.7.8 1.2c.3.4.5.6.7.7l.9.6.3.3h-3.6c0-.1 0-.2-.1-.2l-.2-.4c-.1-.2-.2-.3-.2-.4l-.5-.7c-.1-.1-.2-.3-.4-.4-.1-.1-.2-.2-.3-.2h-.2c-.1 0-.1.1-.1.1l1.5 2.2h-1.8c-.3-.3-.6-.7-1.1-1.1-.8-.6-1.2-1.1-1.5-1.4h-.2c-.1.1-.1.1-.1.2s0 .3.1.5l.7.7 1.3 1.1h-2.1c-.2-.2-.4-.3-.7-.5-.8-.4-1.4-.8-1.7-1.2-.1-.2-.2-.3-.3-.3-.2-.1-.3-.1-.4.1.2.4.5.8.9 1.1.2.2.5.4 1 .7l-17.2-.4m26.4-6.7h-.1v.1c-.2 0-.2.1-.2.3 0 .1 0 .3.1.4h.1c.2-.1.4-.1.7-.1l2.4-.1c.1 0 .3.1.5.2a.9.9 0 0 0 .5.1c-.2-.3-.5-.6-.7-.7s-.4-.1-.7-.1l-2.6-.1m33.6-44c0-.1-.1-.2-.3-.4l-1-1.2c-.4-.5-.6-.9-.7-1.2-.1-.1-.3 0-.3.2-.1.1-.1.2 0 .4.1.3.3.6.7 1l.4.6c.1.2.3.3.5.4v.2l.5.2c-.1.2 0 .4.2.6h.1a.47.47 0 0 0 .6.1c0-.1-.1-.2-.2-.4l-.1-.1c-.1-.1-.2-.3-.2-.3l-.2-.1m-14.6 6.7l-.1.2c.5.4.8.8.9 1l.4.7s.2.2.5.6c.2.2.3.4.3.6h.8.1v-.1c.1-.3 0-.6-.3-.7l-.4-.2c-.2-.1-.3-.2-.5-.4-.1-.1-.2-.2-.2-.3l-.1-.3c0-.1-.2-.3-.4-.5-.4-.4-.8-.6-1-.6m-6.8 8.2c-.2 0-.3-.1-.4-.2v-.1h-.2c-.1.1-.1.2-.2.2 0 .1 0 .2.1.3 0 0 0 .1.1.2l1 .2v.2l.5.2v.2c.5.3.9.5 1.3.6l.4.2c.2.1.3.2.4.2h.1v-.1c-.1-.3-.3-.6-.8-.9-.2-.1-.4-.2-.6-.2-.2-.1-.4-.2-.5-.4a1.38 1.38 0 0 0-.3-.4c-.1-.1-.2-.2-.4-.3 0 .2-.2.2-.5.1m61.5 97.3c0 .1.1.3.2.6s.2.5.2.6v.8.8h.9c0-.2 0-.4-.1-.6s-.2-.3-.4-.3c.1-.5.1-.9-.1-1.2-.2-.4-.4-.7-.4-.7 0-.4-.1-.7-.2-.8s-.2 0-.3.1-.1.2-.1.3c.2 0 .2.2.3.4m48.4-48c-.2 0-.3 0-.4.1-.2.1-.3.2-.3.3h.2 4.4.7c.1-.2.1-.5 0-.7-.2 0-.4.1-.6.1-.4.1-.8.1-1.3.1l-2.7.1m.1-27.2c-.6.1-.9.3-1.1.7l.1.1.1.1 2-.3 1.1-.4c.1 0 .2-.1.4-.1.1 0 .3-.1.3-.2s0-.2-.1-.2l-.2-.1-1-.1c0 .1 0 .1-.1.2-.2.1-.4.1-.7.1-.5.2-.8.2-.8.2m-4.6-10.3c-.1 0-.2 0-.2.1-.1 0-.1.1-.1.1-.1.1-.2.3-.2.5l.2.2c.1 0 .2-.1.3-.1s.2-.1.3-.1c.3-.1.5-.2.6-.2.2-.1.4-.2.7-.5.2-.1.5-.2.9-.2.4-.1.8-.2.9-.2 0-.2-.1-.3-.4-.3-.5-.1-.9-.1-1.4-.1v.1h-.2c-.2.3-.6.5-1.4.7m-42 41.9c-1.6 1.2-3.3 2.2-5.2 2.9l4.4 2.7 8.2 5.1 20.7 12.9c-4.6-6.4-9.1-13.1-13.6-19.9-2.1-3.1-4.1-6.3-6.1-9.6-1 .1-2.1.1-3.2.2-.8 1.4-1.9 2.7-3.1 3.9a16.8 16.8 0 0 1-2.1 1.8m-22.1 1.7c-1.7-.9-3.2-2.1-4.6-3.5-1.2-1.2-2.2-2.5-3.1-3.8-.6-1-1.1-2-1.5-3-.5.8-1.1 1.6-1.6 2.4l-6.4 9.6c1 1.4 2.2 2.7 3.4 4 .8.8 1.6 1.5 2.4 2.2l11.4-7.9m-.3-38.3v-.2-.1l-1.9-1.3-7.3-4.9-18.7-12.7 12.1 18.6 5.9 8.8c.6.9 1.2 1.8 1.8 2.8.6-1.2 1.3-2.3 2.2-3.3.4-.6.9-1.1 1.5-1.6 1.3-1.3 2.6-2.3 4-3.2.2-1 .3-2 .4-2.9m30.4 10.8h-.2c-.1 0-.1.1-.1.1v.1s0 .1.1.1l4.1 4.8c1.1 1.3 1.8 2.1 1.9 2.3.3.3.6.8 1.1 1.5l-7-.1v.7a20.42 20.42 0 0 1-1.4 7.5c-.4 1-.9 2-1.5 3 1.1-.1 2.1-.1 3.2-.2l11.4-1a611.72 611.72 0 0 0 27.2-3.3c1.5-.2 3-.5 4.4-.7l7.4-1.2c.8-.1 1.5-.3 2.3-.4 6.5-1.1 12.9-2.4 19.3-3.8l-11.7-.1-.1-.1-1.6-1.8c-.2-.2-.3-.3-.5-.2-.1.1-.1.2 0 .4.1.3.3.6.6.9l.6.8h-4.2c-.1-.1-.2-.3-.3-.4-.3-.3-.4-.5-.4-.6l-.3-.5c-.1-.2-.3-.2-.5-.2-.1 0-.1 0-.2.1 0 .1 0 .2.1.3l.6.9c.1.1.1.2.2.3l-3.9-.1c-.4-.8-.9-1.5-1.4-2.3-.1-.2-.2-.3-.3-.3-.2-.1-.3-.1-.4.1.1.6.5 1.3 1.2 2.3 0 .1.1.2.1.3h-3.8l-.5-.5c-.9-1.1-1.5-1.9-1.8-2.5-.1-.2-.2-.2-.2-.2-.1 0-.2.1-.1.4.1.4.3.9.7 1.4l1.2 1.5-4.4-.1c-.1-.1-.1-.2-.2-.2l-1.2-1.2c-.4-.5-.7-.8-.8-1-.2-.4-.4-.8-.6-1-.1-.1-.1-.1-.2-.1s-.1.1-.1.2c0 .6.5 1.3 1.3 2.1l1 1 .2.2h-4.5c-.7-1-1.4-2.1-2-3.3-.3-.5-.5-.8-.8-.9h-.2c-.1.1-.1.1 0 .3.4.7 1.1 1.8 1.9 3.2.1.2.3.4.4.6h-4.7c-1.1-1.5-2.1-2.9-3.1-4.1-.1-.2-.3-.3-.4-.2s-.2.2-.1.4l.3.3c.3.2.6.7.9 1.4.2.4.7.9 1.3 1.5.1.2.3.4.5.7l-4.6-.1-4.1-5.3c-.2-.3-.5-.5-.7-.5-.1.2-.1.4.1.7l3.8 5.1h-3.8c-.4-.6-1-1.3-1.6-1.9l-3.3-2.9-1.8-1.8c.1.6.4 1.2.9 1.7.3.3.8.8 1.5 1.4a24.29 24.29 0 0 1 3.6 3.6l-7.9-.1c-.4-1-1.1-2.2-2.1-3.5l-2.7-3.6c-.3-.5-.6-.7-.9-.5.6 1.1 1.1 1.9 1.5 2.4l2.8 3.7c.4.6.8 1.1 1.2 1.5h-4.2l-1.3-1.8c-.6-.8-1.4-1.8-2.4-3l-1.7-1.9c-1-1-1.6-1.7-1.8-2l-.1-.1c-.1-.2-.1-.2-.2-.2m-33.6 12.9c-.4-2.3-.1-4.6.7-7 .8-2.3 1.9-4.3 3.6-6.2-2.3 2-3.8 4.6-4.5 7.9-.7 3.2-.3 6.2 1 9 .3.7.8 1.4 1.3 2.1 1.4 1.9 3.4 3.2 5.8 4-1.9-1.3-3.2-2.4-4.1-3.2-1.4-1.3-2.4-2.7-3-4.1-.4-.6-.6-1.5-.8-2.5m12.5-3.9c-.1.1-.2.2-.2.3s-.1.2-.1.3v.8c1.2.1 1.7.1 1.8.1.3 0 .6 0 .8-.1a4.42 4.42 0 0 0-.1-1.7l-1.7-.1v.1h-.2c-.1.1-.1.2-.3.3m-5-3.7c.1.2 0 .5-.2.8-.4.5-.6.7-.6.8-.1.2-.2.4-.2.8-.1.3-.3.8-.6 1.4-.2.6-.3 1-.2 1.4l.5.2c-.2.8.2 1.7 1.1 2.8l1.4 1.8c.2.1.4.2.7.2.2 0 .4-.1.6-.3-.4 0-.9-.3-1.3-.8-.4-.6-.7-1-.9-1.3-.3-.3-.5-.6-.7-.8-.3-.3-.4-.6-.5-.9 0-.4-.1-.8-.1-1-.1-.3-.2-.6-.4-.7.1 0 .3-.1.5-.2 0-.9.3-1.8 1-2.9.5-.8 1.1-1.5 1.9-2.3.5-.4.6-.8.4-1.1-.3 0-.7.3-1.1 1-.6.7-1 1.1-1.3 1.1m10-.9c.1.1.3.2.5.4.1.1.2.4.3.7h.2c.2-.2.2-.4 0-.7s-.4-.5-.5-.6c0 0-.2-.2-.5-.6-.1-.1-.4-.3-.8-.5-.7-.3-1.2-.4-1.7-.4v.1h-.1v.3c.4 0 .7.1 1 .2.3.2.5.3.6.3.1.1.3.1.5.2.1.1.3.3.5.6m7-15.7c-1 .8-2 1.5-3 2.3 1.2.5 2.3 1.2 3.4 2 1 .7 1.9 1.5 2.8 2.3 1.4 1.4 2.6 3 3.5 4.6.4.1.9.1 1.4.2.1 0 .2 0 .4.1l7-10.5 13.6-20.6c-7 4.3-13.9 8.8-20.7 13.6-2.9 1.9-5.7 3.9-8.4 6m2-41c.1-.3.1-.5 0-.6h-.1c-.1 0-.2.1-.3.1 0 .1 0 .3-.1.5-.1.1-.1.2-.2.5-.1.2-.1.5-.1 1.1.1.6 0 1.3-.1 2.1 0 .1 0 .2-.1.3l.4.1v-.4-1.8c0-.6 0-1 .1-1.3.2 0 .3-.2.5-.6m-27-.4h0c-.2-.2-.3-.3-.4-.2s-.2.1-.2.3c0 .1 0 .2.1.3s.2.3.4.6c.1.2.2.4.1.8 0 .5-.1.8-.1.8 0 .3.2.8.6 1.4l.2-.1c0-.3 0-.6-.2-.8l-.2-.3c0-.1-.1-.3-.1-.5V143c0-.2 0-.4-.1-.5l-.3-.3.2-.1m19.8-1.2c-.3-2.5-.7-4.9-1-7.4l-.3-2.1-4.3-27.2v11.3c-.1 0-.3.2-.6.4l-1.5 1.5-.2.2v.3c.1.1.2.2.4 0a1.38 1.38 0 0 0 .3-.4c.2-.3.4-.5.5-.6l.7-.7.3-.3v2.9l-.1.1c-.1.1-.3.3-.6.5s-.5.3-.6.5c-.3.4-.5.7-.7.9l-.4.3a.76.76 0 0 0-.2.4c.1.1.2.1.4 0l.7-.7c.3-.4.5-.6.7-.8.2-.1.4-.3.7-.6v2.8l-2.1 2c-.5.6-.8 1.1-.9 1.5.1.1.2.1.4-.1 0 0 .1-.1.2-.3s.4-.6.8-1l1.6-1.7.1-.1v4.2l-3.6 3.6c-.4.4-.6.8-.5 1.1.1 0 .1-.1.3-.1l3.7-3.9.1-.1v3.9a71.7 71.7 0 0 0-3.9 3.9l.1.2c.3-.1.6-.3 1-.6.3-.2.7-.7 1.3-1.4.6-.6 1-1 1.4-1.3l.2-.2v3.3l-4.8 4.8-.2.2c0 .2 0 .2.1.2 1.7-1.4 3.3-2.9 4.8-4.5v3.4c-1.2 1.1-2.4 2.4-3.8 3.8-.7.8-1.3 1.3-1.8 1.6 0 .3.2.4.5.3.1 0 .3-.1.6-.3.4-.4 1-.9 1.8-1.7l2.2-2.3c.1-.2.3-.3.4-.5v5.2c-.3.2-.6.5-.9.7-1.4 1.3-2.5 2.3-3.3 3.2-.3.3-.4.6-.1.7l4.3-3.8v3.4l-3.9 3.8c-.3.3-.5.6-.6.9.4-.1.9-.4 1.5-.9l2.2-2.2c.3-.3.5-.5.8-.7v4l-5.5 4.8c-.3.3-.6.6-.6.8h.5l5.6-4.8v4l-6.6 5.8c-.5.5-1 1-1.6 1.7.1.1.2.1.4.1.1 0 .2-.1.4-.2l6.1-5.4c.4-.4.8-.7 1.2-1.1v5.9c-.3.2-.5.3-.7.4l-2.6 2c-.8.6-2 1.6-3.5 2.9l-1.3 1.1c-.2.2-.3.3-.3.4a.45.45 0 0 0 0 .5c.2.1.4.1.5-.1-.1-.2 0-.4.3-.6l.9-.5c.3-.2.7-.6 1.3-1.1l1.3-1.1c.4-.3 1.1-.8 2-1.5l2.1-1.4v4.1c-2.2 1.7-4.3 3.5-6.3 5.4-.1.1-.2.2-.2.3.1.2.2.2.5 0 2-1.5 4-3.1 6-4.8v4.6c-.8.6-1.7 1.2-2.9 1.9-1.4.8-2.4 1.5-3 1.9l-2.6 1.8-.6.5c-.4.3-.6.6-.6.8.1.1.2.1.4 0l.3-.3c.1-.1.2-.1.4-.2.1 0 .2-.1.4-.1.2-.1.5-.3.9-.6.1-.1.6-.4 1.5-1 2-1.2 4-2.4 5.9-3.7v6.5c2.8.1 5.4.6 7.8 1.7 1-.8 2-1.5 3-2.3l-1.2-10.9-3.4-27.4c0-1.4-.2-2.8-.4-4.3m43.6 24l-.5.4-.7.3-.6.6c-.2.3-.5.5-.7.5-.2.1-.4.1-.5.2-.2.1-.3.2-.3.3v.1h.1c.3.1.5.1.7 0 .1 0 .3-.1.5-.2s.4-.1.5-.2v-.2l.5-.2v-.2c.4-.3.9-.5 1.5-.8v-.2h.1c.2-.1.3-.2.6-.4-.2-.3-.5-.4-.9-.3l-.1.1-.2.2m-21.7-18.1c-.4.1-.6.2-.7.4 0 .1-.1.2-.1.5 0 .2-.1.3-.2.4l-.2.2c-.1.1-.1.2-.1.4v.4c0 .1-.1.3-.3.5s-.2.4-.2.5l.2.2c.4-.1.6-.3.7-.5l.1-.2v-.8l.5-.2c-.1-.4 0-.7.2-.9.1 0 .1-.1.2-.2s.1-.3-.1-.7c.1.1 0 0 0 0m11.5 8.4h-.5c-.1.2-.4.6-.9 1.2l-1.1 1-.1.1c-.1.1-.1.2-.2.2-.1.2-.1.5 0 .6l.8-.4h.1v-.2l.5-.2c-.1-.3 0-.5.3-.7.1-.1.3-.2.7-.3 0-.2 0-.5.2-.7l.3-.3c-.1-.1 0-.2-.1-.3m-25.2-65.9c1 3.6 2.1 7.2 3.3 10.8 8.4 1.3 16.4 3.5 24 6.7a317.13 317.13 0 0 0 8.9-7.4c-11.3-5.4-23.4-8.7-36.2-10.1m-26.4 6.5c-.2 0-.3.1-.4.2s-.2.2-.1.3c.3 0 1.4 0 3.3-.1l10.3-.7 10.8-.8c.3 0 .5-.1.4-.3-.8-.2-1.9-.2-3.5-.2l-7.7.4c-4.4.2-8.7.7-13.1 1.2m17.1-6.1l-4.2.5-10.3 1.2c-.3 0-.6.1-.8.2.1.2.4.3.9.3l7.7-.6c.7-.1 1.5-.2 2.5-.3.8-.1 1.7-.2 2.7-.4.9-.1 2.2-.2 3.9-.3 1.5-.1 2.8-.3 3.8-.6.1 0 .2-.1.3-.2s.1-.2 0-.3c-1.8.1-4 .3-6.5.5M187 83.4c.5 0 .7-.2.7-.5-2 0-4.3.2-6.9.8-3.1.6-7.8 2-14.2 4l-10 3.2c-.4.1-.7.3-.8.4s-.1.3-.1.4c0 .2.1.3.2.4.3-.4 1-.8 2.1-1.2l9.2-2.9c3.1-1 5.5-1.7 7.2-2.2 2.7-.8 5.1-1.3 7.3-1.8 2.1-.3 3.8-.5 5.3-.6m-.5-2.4c.6-.1 1-.3 1.2-.5-2.9.4-6.2 1.1-9.9 2-5.5 1.4-10.8 3.1-15.9 5l-6.9 2.8c-.8.4-1.3.7-1.7.9-.6.4-1 .8-1.4 1.2 2.2-1.1 3.9-1.9 5-2.4.6-.2 1.9-.8 3.9-1.6l8.1-2.9c1.9-.6 4.6-1.3 8.2-2.2l9.4-2.3m2.3 4.3c.1 0 .2-.1.3-.1.1-.1.1-.2 0-.2a155.58 155.58 0 0 0-8.5.8c-2.2.2-4 .6-5.3 1.2-.3.1-.4.2-.2.4.5 0 1.4-.1 2.5-.4 1.3-.3 3.1-.6 5.6-.8l5.6-.9m18.4-19.8c-1.3-.4-2.6-.6-3.9-.8-1.1-.1-2.3-.2-3.5-.2a3.73 3.73 0 0 0-1.2.2c-.4.2-.7.4-.8.8 1.1-.3 2.5-.4 4-.2.2 0 .6.1 1.4.2.7.1 1.6.2 2.7.4.8.1 1.3.1 1.7-.1 0-.2-.1-.3-.4-.3m42.1 26.9c-.7-.3-1.3-.5-1.8-.5-.1 0-.3.1-.4.1-.1.1-.2.2-.1.3.4-.1.8 0 1.3.1.3.1.7.3 1.2.5l5.5 2.8c.2.1.4.1.5.1s.1 0 .2-.1v-.2c-.8-.3-1.8-.8-3.1-1.5-1.1-.6-2.2-1.1-3.3-1.6m.3-1.8v.2c.7.4 1.7.9 3.1 1.4l4 1.6c0-.4-.4-.8-1.1-1-1.9-.7-3.5-1.3-4.9-2-.4-.2-.7-.3-.9-.3-.1 0-.2 0-.2.1m-29.3-8.2c-.7-.1-1.1 0-1.3.4 7.7.8 15.2 2.8 22.3 6 .7.3 1.3.4 1.6.3-7.1-3.4-14.7-5.7-22.6-6.7m2.3-2.1c-.2.1-.3.2-.2.3 7.8 1.9 15.3 4.5 22.5 7.7 1.4.6 2.3.9 2.9.9-3.5-1.8-7.5-3.5-12.1-5.1-2.8-1-7-2.3-12.6-3.9-.2 0-.3 0-.5.1m-8.4 5.7c-.1-.1-.2-.1-.3-.1-1.1-.1-2.7-.1-4.9 0l-5.8.3-7.5.4c-.7 0-1.4.1-2 .2-.5.1-.8.2-.9.5.3.1.7.1 1.2.1l9.2-.4c3-.1 6.2-.3 9.7-.5.6 0 1-.1 1.3-.2.1-.2.1-.3 0-.3m-2.4-4.3v-.1l-8.6.8-2.3.2c-3.1.3-5.4.6-6.9 1-.8.2-1.2.5-1.4.9 1.9-.4 4.7-.8 8.5-1.2l2-.2 3.1-.3c1.3-.1 2.2-.2 2.8-.3a7.67 7.67 0 0 0 2.8-.8m.2-6.2c0-.2-.1-.3-.4-.3-1-.1-2.8-.2-5.5-.2h-3-5.5c-.9 0-1.5.1-1.8.2 0 .1.1.2.4.3.5.1 1 .1 1.5.1 1.8.1 3.6.1 5.4.1 3.1 0 6-.1 8.9-.2m-3.5 3.7c.3-.1.9-.2 1.7-.4.7-.2 1.3-.3 1.7-.4 0-.1-.1-.2-.4-.2l-8.3.4-3.3.1c-2.2.1-3.8.3-4.9.4-.1 0-.2.1-.2.1-.1.1-.1.1-.1.2.3.1.8.2 1.2.1 0 0 .5 0 1.3-.1.6-.1 1.4-.1 2.5-.1s2 0 2.5-.1c.3 0 .6 0 1.1-.1.4 0 .8-.1 1.3-.1h2a3.27 3.27 0 0 0 1.9.2m.8-10c0-.1 0-.2-.1-.3s-.2-.1-.4-.1a75.01 75.01 0 0 0-5.5-.2c-1.3 0-2.7 0-4.3.1-.8 0-1.2.2-1.3.6l5.6-.1h6m.9 2.5c-.1-.1-.2-.2-.5-.2h-6.5-5.7c-.1 0-.2 0-.3.1s-.1.1-.1.2c2 .3 4 .4 6.1.5h4.5c1.1-.1 1.9-.3 2.5-.6m-2.5-9.8l-.1-.3c-1.4-.1-2.8-.1-4.1-.1-1.1 0-2.2 0-3.3.1-.1 0-.2 0-.3.1s-.1.2-.1.2c1.2.1 2.4.1 3.6.1h2.8c.6 0 1.1 0 1.5-.1m-6.3-3.6c-.2 0-.2.1-.2.2.1.1.3.2.6.2h1.8 1.7c.5 0 .9 0 1.3-.1 0-.1 0-.2-.2-.2-.2-.1-.6-.2-1.2-.2h-1.6-1.1c-.5 0-.8 0-1.1.1m98.7 72.7h-.3c-.1.1-.2.2-.1.5.1.1.2.3.4.4l1.9 1.9c.2.2.4.3.6.3.1-.1.1-.3.1-.4a1.38 1.38 0 0 0-.3-.4c-.2 0-.3-.1-.4-.1s-.2-.1-.3-.2v-.3c0-.1-.1-.3-.3-.4l-.6-.2c-.5-.2-.7-.5-.7-1.1m.6-2.8l-.4-.4c-.1-.4-.2-.7-.4-.9l-.3-.3c-.2-.1-.3 0-.4.1.1.1.3.2.4.5l.2.6.4.4a.78.78 0 0 1 .4.4c.1.1.2.4.2.7l.4.4.4.4.2.5c.1.2.3.4.6.7.5.4.8.9 1 1.5l.3-.3c-.2-.5-.4-.9-.5-1.2-.3-.5-.6-.7-1-.7.1-.2 0-.5-.2-.7-.4-.3-.6-.5-.6-.6-.1-.4-.2-.6-.3-.8-.2 0-.3-.2-.4-.3m-15.2-14.1c-.6-.6-1-1.1-1.3-1.4-.5-.5-1.3-1.2-2.3-2-1.1-.9-1.9-1.5-2.3-2-1.2-1.4-2.2-2.3-2.9-2.9-.9-.8-1.9-1.4-3.1-1.8.2.4.5.7 1 1 .3.2.7.5 1.3.8.6.4 1.7 1.2 3 2.5l5.7 5.4 2.5 2.2c1.2 1 2 1.6 2.4 2 .6.6 1.2 1.3 1.8 2l5.5 6.5c.5.6 1 1.1 1.3 1.4-.2-.5-.7-1.2-1.4-2l-6.7-7.9c-.6-.7-1.1-1.3-1.6-1.6-.7-.4-1.2-.8-1.5-1-.4-.3-.8-.7-1.4-1.2m-.6-3.6c-.1-.1-.2-.1-.3-.1s-.2 0-.2.1c4.1 3.2 7.6 6.9 10.7 11.1.1.1.2.2.4.3.1.1.2 0 .3-.1-3.1-4.3-6.7-8-10.9-11.3z"/><path d="M202.3 366.8c-.3 0-.5-.2-.5-.4l-3.3-12.5c-26.1-.7-50.1-7.6-71.2-20.4-10.3-6.2-20.1-14-29.2-23.1-9.7-9.7-17.8-20.1-24.2-31.1-.2 0-.4-.2-.4-.4v-.4c-12.3-21.3-18.6-45.4-18.9-71.6l-15-3.8c-.3-.1-.4-.3-.4-.5 0-.3.2-.5.4-.5l3.4-.7c3.9-.8 7.8-1.8 11.7-2.7 1-25 7.7-48.1 19.9-68.5 0-.1 0-.3.1-.5.1-.1.2-.2.4-.3 6.2-10.3 14-20.1 23.1-29.2 28-28 62-42.6 101.1-43.5 1.8-6 3.5-12.1 5-18.1.1-.2.3-.4.5-.4.3 0 .5.2.5.4l.2.8c1.1 5.8 2.3 11.6 3.6 17.3 24.8.8 47.7 7.3 68 19.1l.1.1h.1c10.9 6.4 21.4 14.5 31 24.2 9 9 16.7 18.7 22.9 28.9.3-.1.5.1.6.3a.47.47 0 0 1-.1.6c12.1 20.1 18.7 42.7 19.9 67.3l16.2 3.9h.1c.2 0 .4.2.5.5 0 .3-.1.5-.4.6l-16.1 4.1c-.2 26-6.4 49.9-18.4 71 .1.2.1.4 0 .6a.55.55 0 0 1-.5.3c-6.5 11.3-14.8 22-24.7 31.9-28 28-62.1 42.7-101.4 43.5l-3.1 9.7-.9 2.8c-.1.5-.3.7-.6.7zm-2.8-13.6l2.9 11.1.3-.9c.2-3.3.3-6.6.4-10l.2-5.8h.6l.6.1-.2 5.9c-.1 1.9-.2 3.9-.2 5.8.6-2.1 1.3-4.1 1.9-6h0c.4-1.3.8-2.5 1.2-3.7l8.2-26c.3-1.1.7-2.1 1-3.1a321.53 321.53 0 0 1 3.2-10.1c-4.9.7-10 1.1-15.2 1.1l.1 2.4c0 .2 0 .3-.1.4.1.1.2.2.2.4v1.4c0 .1 0 .3-.1.4.1.1.2.2.2.4 0 1.1 0 2.1.1 3.2 0 .1 0 .2-.1.3.1.1.1.2.1.3v.6 2.4c0 .1 0 .3-.1.4.1.1.1.2.1.4v1.6c0 .1 0 .3-.1.4.1.1.1.2.1.4v3.5c0 .1 0 .2-.1.3 0 .1.1.2.1.3v2.4c0 .1 0 .2-.1.3.1.1.1.2.1.3v2.8c0 .1-.1.3-.1.4.1.1.1.2.1.4v2.7c0 .2-.1.3-.2.4.1.1.1.2.1.4v2.7c0 .1-.1.3-.1.4.1.1.1.2.1.4l-.1 2.6c0 .3-.3.5-.6.5s-.5-.3-.5-.6l.1-2.6c0-.1.1-.3.1-.4-.1-.1-.1-.2-.1-.3v-2.7c0-.2.1-.3.2-.4-.1-.1-.1-.2-.1-.4v-2.7c0-.1.1-.3.1-.3-.1-.1-.1-.2-.1-.4v-2.8c0-.1 0-.2.1-.3-.1-.1-.1-.2-.1-.3v-2.4c0-.1 0-.2.1-.3 0-.1-.1-.2-.1-.3v-3.5c0-.1 0-.3.1-.4-.1-.1-.1-.2-.1-.3v-1.7c0-.1 0-.2.1-.3-.1-.1-.1-.2-.1-.4v-2.4-.6c0-.1 0-.2.1-.3-.1-.1-.1-.2-.1-.3 0-1.1-.1-2.1-.1-3.2 0-.1 0-.3.1-.4-.1-.1-.2-.2-.2-.4v-1.5c0-.1.1-.3.1-.4-.1-.1-.2-.2-.2-.4l-.1-2.5h-.1a120.04 120.04 0 0 1-14.8-.9l2.7 10c.3 1 .5 2 .8 3.1l6.8 25.9c.1 1 .4 2.2.8 3.5zm8.4-3c-.3.8-.5 1.7-.8 2.6 38.8-.9 72.5-15.4 100.3-43.2 9.7-9.7 17.8-20.1 24.2-31.1-.9 0-1.9-.1-2.8-.1-6.2 10.4-14 20.3-23.1 29.4-9.2 9.2-19.2 17-29.7 23.3a.55.55 0 0 1-.3.5c-.2.1-.4.1-.6 0-20 11.6-42.6 17.9-67.2 18.6zm-79.1-17.1c20.7 12.3 44 18.9 69.4 19.6-.2-.9-.5-1.7-.7-2.6-24.4-.8-46.8-7.1-66.7-18.8l-2 1.8zm87.4-8.9l-7.8 24.9c24.2-.8 46.5-7 66.3-18.5-.1-.1-.1-.2-.2-.3-.5-.8-.9-1.5-1.3-2.2-3.9-4.3-8.7-8.7-14.1-13.2-.8-.7-1.8-1.4-2.8-2.2-12.4 6.2-25.9 10.1-40.1 11.5zm-84.5 6.4c19.6 11.4 41.6 17.6 65.5 18.4l-6.6-24.8c-14-1.3-27.2-4.9-39.2-10.7l-10.8 9.4c-.1 0-.1.1-.2.1 0 .1-.1.1-.1.1-2.8 2.6-5.7 5.1-8.6 7.5zM74.9 279c6.3 10.8 14.4 21.1 23.9 30.6 8.9 8.9 18.5 16.5 28.5 22.7.3-.5.6-1.1.9-1.6.1-.2.1-.5.2-.7-9.8-6-19.3-13.5-28-22.3-9.2-9.2-16.9-19.1-23.1-29.4-.8.2-1.6.5-2.4.7zm54.4 52.1c0 .1 0 .1-.1.2l1.2-1 9.2-7.9c.1 0 .1-.1.2-.1 0-.1.1-.1.1-.1l11-9.7c.8-.7 1.6-1.5 2.4-2.2l7.8-7.1c-3.9-1.7-7.7-3.6-11.4-5.7-.7 1.1-1.4 2.2-2.2 3.3-.1.1-.2.2-.3.2 0 .1 0 .2-.1.4-.4.5-.7 1.1-1.1 1.7-.1.1-.2.2-.3.2 0 .1 0 .2-.1.4-.3.5-.7 1-1 1.6-.1.1-.1.2-.2.2 0 .1-.1.2-.1.3v.1c-.5.7-.9 1.4-1.4 2.2-.1.1-.1.2-.2.2 0 .1 0 .2-.1.3l-.9 1.5c-.1.1-.1.2-.2.2 0 .1 0 .2-.1.3l-.9 1.5-.2.2c0 .1 0 .2-.1.3-.5.7-.9 1.5-1.3 2.2-.1.1-.1.2-.2.2 0 .1 0 .2-.1.3-.4.6-.7 1.2-1.1 1.8-.1.1-.1.2-.2.2 0 .1 0 .2-.1.3l-1.7 2.8c0 .1-.1.1-.2.2 0 .1 0 .1-.1.2l-.5.9c-.1.1-.2.2-.3.2 0 .1 0 .2-.1.3l-4.7 8.2c0 .1-.2.4-.3.7zm139.9-26c1.9 8.3 4.2 16.6 6.9 24.6 10.2-6.1 19.9-13.8 28.8-22.7 9-8.9 16.6-18.6 22.7-28.7-4-.5-8.8-1.5-14.5-2.9l-7.1-1.8c-.1 0-.2-.1-.2-.1h-.2l-3.4-.9c-4.2 6-9 11.7-14.5 17.2-5.9 5.7-12.1 10.9-18.5 15.3zM78.4 278c6.1 10.2 13.8 20 22.8 29 8.6 8.6 17.9 16 27.5 21.9 2.2-7.6 4.4-15.9 6.4-24.9-5.9-4.1-11.6-8.9-16.9-14.3-5.8-5.8-11-12-15.4-18.4-8 2-16.3 4.2-24.4 6.7zM274 327.4l.3.3c-2.5-7.4-4.6-15.1-6.3-22.8-.2-1.1-.5-2.1-.7-3.2-.7-3.4-1.4-7-2-10.5-3 2.2-6.1 4.3-9.2 6.1.3.6.7 1.1 1 1.7.1.1.1.3.1.4.1 0 .2.1.3.2.3.5.7 1.1 1 1.7.1.1.1.2.1.3.1 0 .2.1.3.2.4.6.7 1.2 1.1 1.8.1.1.1.2.1.3.1 0 .2.1.3.2l.9 1.5c.2.3.3.6.5.8.1.1.1.3.1.4.1 0 .2.1.3.2.2.4.4.7.7 1.1.3.5.5.9.8 1.4.1.1.1.2.1.3.1 0 .2.1.2.2.4.7.9 1.5 1.3 2.2 0 .1.1.2.1.2.1 0 .1.1.2.2.4.6.8 1.3 1.2 2 .1.1.1.2.1.3.1 0 .2.1.3.2.2.4.5.8.8 1.3.1.1.1.3.1.4.1 0 .2.1.3.2l5.6 10.4zm-137.7-23.5c-1.8 8.1-3.8 15.7-5.8 22.7l3-5.2c.1-.1.2-.2.3-.2 0-.1 0-.2.1-.3l.5-.9c0-.1.1-.1.2-.2 0-.1 0-.1.1-.2l1.7-2.8c.1-.1.1-.2.2-.2 0-.1 0-.2.1-.3.4-.6.7-1.2 1.1-1.9.1-.1.1-.2.2-.2 0-.1 0-.2.1-.3.4-.8.9-1.5 1.4-2.2 0-.1.1-.1.2-.2 0-.1 0-.2.1-.2l.9-1.5.2-.2c0-.1 0-.2.1-.3l.9-1.5c.1-.1.1-.2.2-.2 0-.1 0-.2.1-.3.5-.7.9-1.4 1.4-2.1 0-.1.1-.2.2-.3l.1-.1c0-.1 0-.2.1-.2.3-.5.7-1.1 1-1.6.1-.1.2-.2.3-.2 0-.1 0-.2.1-.4l1.1-1.7c.1-.1.2-.2.3-.2 0-.1 0-.2.1-.3l2.1-3.3c-3.3-2-6.5-4.2-9.7-6.6l-2.2 10.4c-.3 1-.5 2.1-.8 3.2 0-.1 0-.1 0 0zm120.3 7.7c1.1.9 2.2 1.7 3.1 2.4 4 3.3 7.7 6.5 10.9 9.8l-3.5-5.8c-.1-.1-.1-.3-.1-.4-.1 0-.2-.1-.3-.2-.3-.4-.5-.9-.8-1.3-.1-.1-.1-.2-.1-.3-.1 0-.2-.1-.3-.2-.4-.7-.8-1.3-1.2-2 0-.1-.1-.2-.1-.2-.1 0-.1-.1-.2-.2-.4-.7-.9-1.5-1.3-2.2-.1-.1-.1-.2-.1-.3-.1 0-.2-.1-.2-.2-.3-.5-.5-.9-.8-1.4-.2-.4-.5-.8-.7-1.1-.1-.1-.1-.3-.1-.4-.1 0-.2-.1-.3-.2-.2-.3-.4-.6-.5-.9-.3-.5-.6-1.1-.9-1.5-.1-.1-.1-.2-.1-.3-.1 0-.2-.1-.3-.2-.4-.6-.7-1.2-1.1-1.8-.1-.1-.1-.2-.1-.4-.1 0-.2-.1-.3-.2-.3-.6-.7-1.1-1-1.6-.1-.1-.1-.3-.1-.4-.1 0-.3-.1-.3-.3-.3-.6-.7-1.2-1-1.7-3.3 1.9-6.7 3.6-10.1 5.1 3.4 2.4 6.4 4.6 8.9 6.5 1.2.6 2.1 1.3 3 1.9zm-104.3 1.1c11.7 5.6 24.5 9.1 38.1 10.4-.2-.7-.4-1.3-.5-2-12.8-1.3-24.9-4.6-36-9.8-.5.5-1.1 1-1.6 1.4zm64.8 8.3l-.6 2c13.8-1.4 26.8-5.1 38.7-11-.6-.4-1.1-.9-1.7-1.3-11.2 5.4-23.5 8.9-36.4 10.3zm-62.3-10.4c10.8 5 22.5 8.1 34.8 9.4l-2.6-9.7c-8.6-1.2-16.9-3.4-24.7-6.6l-7.5 6.9zm65.8-.6l-3.1 9.8c12.4-1.4 24.2-4.8 35-9.9-2.5-1.9-5.4-4-8.7-6.4-7.3 3.1-15.2 5.3-23.2 6.5zm-32.8-.7c4.9.6 10 1 15.1 1h.6c5.6 0 11.2-.5 16.5-1.3 8.2-1.3 16.1-3.5 23.6-6.6h0c3.9-1.6 7.7-3.5 11.4-5.7 3.5-2 7-4.3 10.3-6.9 4.2-3.1 8.2-6.7 12.1-10.6 3.8-3.8 7.2-7.7 10.3-11.8 2.1-2.8 4.2-5.8 6-8.8 2.5-4.1 4.7-8.4 6.6-12.8 3.6-8.5 6-17.7 7.2-27.2.5-4.6.8-9.3.8-14v-1.7c-.1-5.9-.6-11.6-1.5-17.1-1.5-8.7-4-17.1-7.6-24.9h0c-1.5-3.1-3.1-6.3-4.9-9.3-2.2-3.7-4.7-7.4-7.4-10.9-2.8-3.6-6-7.2-9.4-10.6a116.84 116.84 0 0 0-10.6-9.4h0c-3.4-2.6-6.8-5-10.4-7.1a95.12 95.12 0 0 0-12.7-6.5h0c-7.5-3.1-15.5-5.4-23.8-6.6-5.5-.8-11.2-1.3-17-1.3-6.6 0-13 .5-19.1 1.6-7.7 1.3-15.1 3.5-22.1 6.4-3.9 1.7-7.8 3.6-11.5 5.8-3.5 2-6.9 4.3-10.2 6.9-4 3-8 6.5-11.7 10.2-3.8 3.8-7.2 7.7-10.3 11.7-2 2.6-3.9 5.4-5.6 8.1 0 .2 0 .4-.1.5s-.2.1-.3.1c-2 3.3-3.9 6.8-5.4 10.3-3.6 7.7-6.1 16-7.6 24.6-.9 5.5-1.5 11.2-1.6 17v2.1c0 4.8.3 9.6.9 14.2 1.1 8.9 3.3 17.4 6.5 25.4 1.6 4 3.5 8 5.7 11.8 2.1 3.7 4.5 7.3 7.1 10.8h0c3.2 4.2 6.8 8.4 10.7 12.3 3.5 3.5 7.1 6.7 10.8 9.5 3.5 2.7 7.1 5.2 10.8 7.4h0a97.49 97.49 0 0 0 12.5 6.3c7.7 3.2 16 5.5 24.6 6.7 0 0 .1-.1.2-.1.1.2.4.3.5.5zm-43.3-3.6h0 0zm123.9-3.7c.2.7.3 1.3.5 2 6.3-4.3 12.3-9.4 18-15.1 5.3-5.3 10.1-10.9 14.2-16.7-.7-.2-1.3-.4-1.9-.6-3.9 5.5-8.5 10.9-13.5 15.9-5.5 5.5-11.3 10.3-17.3 14.5zm-164.3-31c4.3 6.2 9.3 12.3 15 17.9 5.2 5.2 10.7 9.9 16.4 13.9.1-.7.3-1.3.4-2-5.4-3.9-10.6-8.3-15.5-13.3-5.4-5.4-10.2-11.1-14.3-17-.7.2-1.4.3-2 .5zm162.2 19.6l1.9 10.2c5.8-4 11.4-8.8 16.6-14a127.47 127.47 0 0 0 13.2-15.5l-4.3-1.3c-1.9-.5-3.7-1-5.3-1.5a122.72 122.72 0 0 1-10.2 11.6c-3.8 3.9-7.8 7.4-11.9 10.5zm-159.1-20.4c4 5.7 8.7 11.3 14 16.5 4.8 4.8 9.8 9.1 15 12.9l2.1-10.1c-3.6-2.8-7.2-6-10.6-9.4-3.9-3.9-7.5-8-10.6-12.2l-9.9 2.3zm-51.6-63c.3 25.9 6.6 49.6 18.7 70.6.5-.7 1-1.4 1.6-2.1-11.5-20.3-17.5-43.1-17.9-67.9l-2.4-.6zm273 70c1 .1 1.9.1 2.9.1-.7-.4-1.4-.7-2-1-2.6-1.3-5.2-2.7-7.8-3.9-.2-.1-.3-.2-.3-.4-.1.1-.3.1-.5 0l-2.4-1.2c-.2-.1-.3-.2-.3-.4-.2.1-.4.1-.5 0-.7-.4-1.5-.7-2.2-1.1-.2-.1-.3-.2-.3-.4-.1.1-.3.1-.5 0-.5-.3-1.1-.5-1.6-.8l-.3-.3c-.1.1-.3.1-.4 0-.7-.3-1.5-.7-2.2-1l-.3-.3h-.4c-.7-.3-1.4-.6-2-1l-.3-.3c-.1.1-.3.1-.4 0-.1 0-.2-.1-.3-.1-.6-.3-1.2-.5-1.7-.8l-.3-.3h-.4c-.1 0-.2-.1-.3-.1l-2.6-1.2c-.2-.1-.3-.2-.3-.4-.1.1-.3.1-.5 0l-2.7-1.2-.3-.3c-.1.1-.3.1-.4 0-.8-.4-1.6-.7-2.4-1-1.6 2.6-3.4 5.2-5.3 7.8 1.6.4 3.2.9 4.9 1.4l5 1.5a56.79 56.79 0 0 0 3 .9c.7.2 2 .6 3.7 1 .1 0 .2.1.2.1h.2l7.1 1.8c6 1.5 11.1 2.4 15.2 2.9zm-250.8-.4l.1.1c8.3-2.5 16.8-4.8 25.2-6.9 1-.3 2-.5 3.1-.7l10.1-2.3c-2.3-3.2-4.5-6.5-6.4-9.8l-3.4 1.8c-.1.1-.3.1-.5 0 0 .2-.1.3-.3.4-.8.4-1.6.9-2.4 1.3-.1.1-.3.1-.5 0 0 .2-.1.3-.3.4l-2.1 1.2c-.1.1-.2.1-.4.1 0 .1-.1.2-.3.3-.4.2-.8.4-1.2.7-.4.2-.7.4-1 .6-.1.1-.3.1-.4.1 0 .1-.1.2-.2.3-.9.5-1.8 1.1-2.7 1.6-.1.1-.2.1-.3.1 0 .1-.1.2-.2.2l-2.2 1.3c-.1.1-.2.1-.3.1 0 .1-.1.2-.2.2l-1.5.9c-.1.1-.2.1-.3.1 0 .1-.1.1-.2.2l-2.4 1.5c-.1.1-.2.1-.3.1 0 .1-.1.2-.2.2l-1.7 1.1c-.1 0-.1.1-.2.1l-.1.1c-1.9 1.6-4.1 3.1-6.3 4.6zm253.2-2.3c.6.7 1.1 1.4 1.6 2.1 11.7-20.8 17.7-44.2 18-69.7l-2.3.6c-.4 24.4-6.2 47-17.3 67zM90.1 260.9c0 .1-.1.1 0 0-4.3 4.8-8.6 9.8-12.8 14.9 2.1-1.5 4.3-3 6.5-4.4.1 0 .1-.1.2-.1l.1-.1 1.7-1.1c.1-.1.2-.1.3-.1 0-.1.1-.2.2-.2l2.4-1.5c.1-.1.2-.1.3-.1 0-.1.1-.1.2-.2l1.5-.9c.1-.1.2-.1.3-.1 0-.1.1-.2.2-.2.7-.5 1.5-.9 2.2-1.4.1-.1.2-.1.3-.1 0-.1.1-.2.2-.2.9-.6 1.9-1.1 2.8-1.7.1-.1.2-.1.4-.1 0-.1.1-.2.2-.3.4-.2.7-.4 1.1-.6s.8-.5 1.2-.7c.1-.1.2-.1.4-.1 0-.1.1-.2.2-.3l2.2-1.2c.1-.1.3-.1.4 0 0-.1.1-.3.3-.4.8-.5 1.6-.9 2.4-1.4.1-.1.3-.1.5 0 0-.2.1-.3.3-.4l3.3-1.8c-1.9-3.4-3.7-7-5.2-10.6l-7.2 7.6c-.7.8-1.4 1.5-2.1 2.3l-2.9 3.2-.1.1c0 .1-.1.1-.1.2-.8.8-1.3 1.4-1.9 2zm231.7 10.4c.1 0 .2 0 .2.1l7.8 3.9.6.3c-.2-.2-.4-.5-.6-.7-1.6-1.9-3.4-3.9-5.4-5.9-2-1.9-5.1-4.7-9.2-8.2-1.7-1.5-3.3-2.8-4.7-4-.9-.7-1.6-1.4-2.3-2-.9-.8-1.7-1.5-2.3-2.1-1.9-1.8-3.5-3.6-5-5.3a103.96 103.96 0 0 1-5.9 11.5c.7.3 1.5.7 2.2 1l.3.3c.1-.1.3-.1.4 0l2.7 1.2c.2.1.3.2.3.4.1-.1.3-.1.5 0 .8.4 1.7.8 2.6 1.2.1 0 .2.1.3.1l.3.3h.4c.6.3 1.2.5 1.8.8.1 0 .1.1.2.1.2.1.3.2.3.3.1-.1.3-.1.5 0 .7.3 1.4.6 2.1 1l.3.3h.4c.7.3 1.4.7 2.2 1l.3.3c.1-.1.3-.1.4 0 .6.3 1.1.5 1.7.8a1.38 1.38 0 0 1 .3.4c.1-.1.3-.1.5 0 .7.4 1.5.7 2.2 1.1.2.1.3.2.3.4.2-.1.4-.1.5 0l2.4 1.2c.2.1.3.2.3.4 0-.2 0-.2.1-.2zM59.1 208.1c.4 24.4 6.3 46.8 17.6 66.7l12.6-14.6.1-.1c.5-.6 1.1-1.2 1.6-1.8l.1-.1c0-.1.1-.1.1-.2l2.7-3c-5.7-12.3-9.2-25.8-10.2-40l-11.3-3.3s-.1 0-.1-.1c-4.5-1.1-8.9-2.3-13.2-3.5zm252.6 48.1l4.3 3.7c4.2 3.5 7.3 6.3 9.3 8.2 1.8 1.8 3.5 3.6 5 5.4 10.8-19.7 16.5-41.8 16.9-65.8l-24.7 7.2c-1.2 14.8-4.8 28.7-10.8 41.3zm-2.4-2c.4.4.9.8 1.5 1.3 5.9-12.4 9.4-25.9 10.5-40.2-.6.2-1.3.4-1.9.6-1.1 13.6-4.5 26.5-10.1 38.3zM84.7 215.5c1.1 13.8 4.4 26.8 9.9 38.7.4-.5.9-1 1.3-1.5-5.1-11.4-8.3-23.7-9.4-36.7-.6-.1-1.2-.3-1.8-.5zm216.8 30.7c1.5 1.8 3.3 3.7 5.3 5.7.5.5 1.1 1 1.7 1.6 5.3-11.5 8.6-24 9.8-37.2l-9.7 3.1c-1.2 9.3-3.6 18.4-7.1 26.8zM87.7 216.4c1.1 12.5 4.2 24.5 9.1 35.5l7-7.4c-3.2-7.9-5.3-16.3-6.4-25l-9.7-3.1zm-.5-1.3c3.3 1 6.6 2.1 9.9 3.2-.5-4.4-.8-8.9-.8-13.4v-1.5h-2.9c-.1 0-.2 0-.3-.1-.1.1-.2.1-.3.1h-2c-.1 0-.2 0-.3-.1-.1.1-.2.1-.3.1h-2.4c-.1 0-.2 0-.3-.1-.1.1-.2.1-.3.1h-.5-2.9-.2c-.2 0-.3-.1-.4-.2-.1.1-.2.2-.4.2h-2.6c-.1 0-.2 0-.3-.1-.1.1-.2.1-.3.1h-2.4c-.1 0-.2 0-.3-.1-.1.1-.2.1-.3.1h-3.2c-.1 0-.2 0-.3-.1-.1.1-.2.1-.3.1h-2c-.1 0-.2 0-.3-.1-.1.1-.2.1-.3.1h-2.4c-.1 0-.2 0-.3-.1-.1.1-.2.1-.3.1h-1.8c-.1 0-.2 0-.3-.1-.1.1-.2.1-.3.1l-2.7-.1c-.1 0-.2 0-.3-.1-.1 0-.2.1-.3.1h-1.6c-.1 0-.2 0-.3-.1-.1.1-.2.1-.3.1h-.6c-1.2 0-2.3 0-3.4-.1l-12-.3-.9.2c4.3 1 8.7 2.2 13 3.3l3.4.9 13.8 3.8s.1 0 .1.1l11.7 3.4c.8-.1 1.8.2 2.8.5zm222.3-11.5v1.2c0 4.5-.2 9-.7 13.3l10-3.2 3-.9 25.8-7.5 3.4-.9 11.3-2.9-11.1.2-2.9.1a.55.55 0 0 1-.5-.3c-.1.2-.3.4-.5.4l-3.6.1c-.2 0-.3-.1-.4-.2-.1.1-.3.2-.5.2h-2.4c-.2 0-.3-.1-.4-.2a.76.76 0 0 1-.4.2c-1.1 0-2.1 0-3.2.1-.3 0-.6-.2-.6-.5s.2-.6.5-.6c1 0 2.1-.1 3.2-.1.2 0 .3.1.4.2.1-.1.2-.2.4-.2h2.5c.2 0 .3.1.4.2a.76.76 0 0 1 .4-.2l3.6-.1a.55.55 0 0 1 .5.3c.1-.2.3-.4.5-.4l2.9-.1 12.7-.2c-4.4-1-8.7-2.1-12.9-3.2l-3.5-.9-26.1-7-3-.9-10.1-2.9a117.48 117.48 0 0 1 1.4 15.9h2.9c.1 0 .2 0 .3.1.1 0 .2-.1.3-.1 1.3 0 2.7-.1 4.1-.1.1 0 .3.1.4.1.1-.1.2-.1.4-.1h1.6l2.9-.1h.4c.1 0 .1.1.2.1.1-.1.2-.2.4-.2l3.4-.1c.2 0 .3.1.4.2.1-.1.2-.2.4-.2 1.2 0 2.5-.1 3.7-.1.2 0 .3.1.4.2.1-.1.2-.2.4-.2 1 0 2.1-.1 3.2-.1.3 0 .6.2.6.6s-.2.6-.6.6c-1.1 0-2.1 0-3.2.1-.2 0-.3-.1-.4-.2-.1.1-.2.2-.4.2-1.3 0-2.5 0-3.7.1a.76.76 0 0 1-.4-.2c-.1.1-.2.2-.4.2l-3.4.1c-.1 0-.3-.1-.4-.1-.1.1-.3.2-.5.2h-.1l-2.9.1H318c-.1 0-.3 0-.4-.1-.1.1-.2.1-.4.1-1.4 0-2.7 0-4 .1-.1 0-.2 0-.3-.1-.1.1-.2.1-.3.1l-3.1-.2zm-229.3-1.5h2.6c.2 0 .3.1.4.2.1-.1.2-.2.4-.2h.2 2.9.5c.1 0 .2 0 .3.1.1-.1.2-.1.3-.1h2.4c.1 0 .2 0 .3.1.1-.1.2-.1.3-.1h2c.1 0 .2 0 .3.1.1-.1.2-.1.3-.1h3c.1-5.3.6-10.6 1.4-15.6l-10.1 3.6c-1 .3-2 .7-3 1-8.5 2.8-17.2 5.4-25.9 7.6l-3.4.9-7.9 1.9 7.7.2c1.1 0 2.3.1 3.4.1h.7c.1 0 .2 0 .3.1.1-.1.2-.1.3-.1h1.5c.1 0 .2 0 .3.1.1-.1.2-.1.3-.1l2.7.1c.1 0 .2 0 .3.1.1-.1.2-.1.3-.1h1.9c.1 0 .2 0 .3.1.1 0 .2-.1.3-.1h2.4c.1 0 .2 0 .3.1.1-.1.2-.1.3-.1h2c.1 0 .2 0 .3.1.1-.1.2-.1.3-.1h3.2c.1 0 .2 0 .3.1.1-.1.2-.1.3-.1h2.4c.1 0 .2 0 .3.1.1.2.2.1.3.1zm-4.9-71c-11.9 20.1-18.5 42.7-19.5 67.3l2.3-.6c1.1-23.7 7.4-45.7 18.8-65.1l-1.6-1.6zm2.4 2.4c-11.2 19.2-17.4 40.7-18.5 64 8.3-2.2 16.6-4.6 24.8-7.3 1.6-13.9 5.5-27.1 11.7-39.1-2.8-2.7-6-5.7-9.4-9.2-3.5-3.3-6.3-6.2-8.6-8.4zm270.4 63l2.4.6c-1.2-24.2-7.8-46.5-19.6-66.3-.6.5-1.2 1-1.8 1.4 11.3 19.2 17.7 40.9 19 64.3zm-26.2-7l25.1 6.7c-1.3-23.1-7.6-44.3-18.8-63.3-6.5 5.4-12.6 11.1-18.3 17.2 6.3 12.1 10.3 25.4 12 39.4zM96.5 151.9c-5.9 11.7-9.8 24.4-11.3 38 .6-.2 1.3-.4 1.9-.6 1.6-12.8 5.2-24.9 10.8-36.1-.5-.5-1-.9-1.4-1.3zm222.3 36.7c.6.2 1.3.4 1.9.5-1.7-13.6-5.6-26.4-11.7-38.2-.4.5-.9.9-1.3 1.4 5.8 11.3 9.5 23.5 11.1 36.3zM98.6 153.9c-5.4 10.8-8.9 22.5-10.5 34.9 3.3-1.1 6.6-2.3 9.9-3.5 1.5-8.5 4-16.6 7.5-24.3-.9-1-1.8-2.1-2.9-3.2-.8-.9-2.2-2.2-4-3.9zm209.3 31.6c3.2 1 6.5 1.9 9.8 2.8-1.7-12.4-5.3-24.2-10.7-35.1-2.3 2.5-4.5 5.1-6.6 7.7 3.4 7.7 6 16 7.5 24.6zm-209-32.9c2.1 1.9 3.6 3.4 4.5 4.4a33.96 33.96 0 0 1 2.6 2.9 97.02 97.02 0 0 1 5.1-9.5l-1.8-1.2c-.1-.1-.2-.1-.2-.2-.1 0-.2 0-.3-.1-.5-.3-1.1-.7-1.6-1-.1-.1-.2-.2-.2-.3-.1 0-.2 0-.4-.1l-2.3-1.4c-.1-.1-.2-.2-.2-.3-.1 0-.3 0-.4-.1-.3-.2-.6-.4-.8-.5l-1-.6c-.1-.1-.2-.2-.3-.4-.1 0-.3 0-.4-.1l-.8-.4c-.3-.2-.5-.3-.8-.5-.1-.1-.2-.2-.2-.3-.1 0-.3 0-.4-.1-.6-.4-1.2-.7-1.9-1.1-.1-.1-.2-.2-.2-.3-.1 0-.2 0-.3-.1-.4-.2-.8-.4-1.2-.7-.1-.1-.2-.1-.2-.2-.1 0-.2 0-.3-.1-.7-.4-1.3-.7-2-1.1-.1-.1-.2-.1-.2-.2-.1 0-.2 0-.3-.1-4.6-2.4-9.3-4.7-13.9-6.7l8.7 8.6 9.7 9.4c.7.6 1.3 1.3 2 1.9-.1.4-.1.5 0 .5zm196.6-.9c1.5 2.6 3 5.4 4.3 8.1 2.2-2.7 4.5-5.3 6.8-7.9.7-.7 1.4-1.5 2.1-2.2 5.3-5.7 11.1-11.1 17.1-16.2-1.7 1-3.3 2.1-5 3.1-.2.1-.4.1-.5 0 0 .2-.1.3-.3.4l-3.1 1.9c-.1.1-.3.1-.4.1 0 .1-.1.3-.3.4-.9.5-1.7 1-2.6 1.6-.1.1-.3.1-.4.1 0 .1-.1.3-.3.4l-2.9 1.7a.45.45 0 0 1-.5 0c0 .2-.1.3-.3.4-1 .5-1.9 1.1-2.8 1.7l-.4.2c-.1.1-.3.1-.4 0 0 .2-.1.3-.3.4l-1.4.8c-.6.3-1.2.7-1.8 1-.2.1-.4.1-.6 0a.55.55 0 0 1-.3.5l-3 1.8c-.1.1-.3.1-.5 0 0 .1-.1.3-.3.4l-1.9 1.3zm-7.2-10.8c2.4 3.2 4.7 6.5 6.7 9.8l2.1-1.3c.1-.1.3-.1.5 0 0-.1.1-.3.3-.4l3-1.8c.2-.1.4-.1.6 0a.55.55 0 0 1 .3-.5c.6-.4 1.2-.7 1.8-1.1l1.4-.8c.1-.1.3-.1.5-.1 0-.2.1-.3.3-.4l.4-.2c.9-.6 1.9-1.1 2.8-1.7.1-.1.3-.1.5 0 0-.2.1-.3.3-.4 1-.6 1.9-1.2 2.9-1.7.1-.1.3-.1.4-.1a.76.76 0 0 1 .2-.4c.9-.5 1.7-1.1 2.6-1.6.1-.1.3-.1.4-.1 0-.1.1-.3.3-.3l3.1-1.9a.45.45 0 0 1 .5 0c0-.2.1-.3.3-.4l7-4.3-25.8 6.4-3 .7-10.4 2.6zm-178.7 7.3c.1 0 .2 0 .3.1l1.8 1.2c1.6-2.5 3.2-5 5-7.4-3.4-.7-6.8-1.5-10.1-2.3-1-.3-2-.5-2.9-.7-7.2-1.8-14.4-3.8-21.4-6 3.5 1.6 7.1 3.4 10.5 5.2.1.1.2.1.2.2.1 0 .2 0 .3.1.7.4 1.3.7 2 1.1.1.1.2.1.2.2.1 0 .2 0 .3.1.4.2.8.4 1.2.7.1.1.2.2.2.3.1 0 .2 0 .3.1.6.4 1.3.7 1.9 1.1.1.1.2.2.2.3.1 0 .3 0 .4.1.3.1.5.3.8.5l.8.4c.1.1.2.2.3.4.1 0 .3 0 .4.1l1 .6c.3.2.6.3.9.5.1.1.2.2.2.3.1 0 .3 0 .4.1l2.3 1.4c.1.1.2.2.2.3.1 0 .2 0 .4.1.5.3 1.1.7 1.6 1 .2-.3.3-.2.3-.1zm-2-9.3c3.3.8 6.6 1.5 9.8 2.2 3-4 6.5-7.9 10.2-11.6a118.78 118.78 0 0 1 11.5-10.1l-2.4-9.7c-5.4 3.9-10.7 8.4-15.6 13.3-5 5.1-9.5 10.4-13.5 15.9zm160.3-18.6c3.6 2.8 7 5.9 10.4 9.2a126.31 126.31 0 0 1 9.3 10.4l9.8-2.4c-3.7-5-7.9-9.9-12.5-14.5-4.5-4.5-9.2-8.6-14.1-12.2l-2.9 9.5zm-163.2 17.9c.6.1 1.2.3 1.8.5 4-5.7 8.7-11.2 13.9-16.4 5.1-5.1 10.5-9.7 16.2-13.7-.1-.6-.3-1.2-.4-1.8-5.9 4.1-11.6 8.9-17 14.3-5.6 5.4-10.4 11.2-14.5 17.1zm-25.4-7.3c8 2.6 16.1 4.9 24.3 7 4.2-6.1 9.2-12 14.7-17.6 5.5-5.5 11.4-10.5 17.5-14.7-2-8.5-3.8-16.9-5.3-25.3-10.3 6.1-20.1 13.8-29.2 22.9-8.7 8.7-16.1 18-22 27.7zM271 109.7c5 3.7 9.9 7.9 14.6 12.5 4.8 4.8 9.1 9.8 12.9 15l1.8-.5c-3.9-5.4-8.4-10.7-13.4-15.7a134.67 134.67 0 0 0-15.4-13.2c-.1.7-.3 1.3-.5 1.9zm.8-2.9c5.5 4 10.8 8.5 15.8 13.5 5.1 5.1 9.8 10.6 13.8 16.2l25.1-6.2c-5.9-9.5-13.2-18.6-21.6-27-8.7-8.7-18.2-16.2-28.1-22.2-.9 6.5-2.1 13.1-3.5 19.5v.1l-1.5 6.1zm-195.7 23c.7.2 1.4.5 2.1.7 6-9.9 13.5-19.3 22.3-28.1 9.3-9.3 19.3-17.1 29.8-23.3-.1-.7-.3-1.5-.4-2.2-11 6.4-21.4 14.5-31 24.1-9 9-16.7 18.7-22.8 28.8zm200.9-50c10.1 6.1 19.7 13.7 28.7 22.7 8.6 8.6 16 17.8 22 27.5.7-.2 1.5-.4 2.3-.6-6.1-10-13.7-19.5-22.6-28.4-9.3-9.3-19.4-17.3-30-23.6-.1.9-.2 1.7-.4 2.4zm-19.4 33.3c3.2 1.9 6.3 4.1 9.4 6.4l2.9-9.8c.3-1 .5-1.9.8-2.9l1.6-6.4v-.1c1.5-6.5 2.7-13.2 3.6-19.9-1.4 2.7-2.9 5.2-4.3 7.7 0 .1-.1.1-.2.2 0 .1 0 .2-.1.3l-.8 1.3c-.1.1-.2.2-.3.2 0 .1 0 .2-.1.3-.5.8-1 1.6-1.5 2.3l-.3.3c0 .1 0 .3-.1.4-.6.9-1.1 1.8-1.6 2.6-.1.1-.2.2-.4.3 0 .1 0 .3-.1.4l-1.6 2.7c-.1.1-.2.2-.3.2 0 .1 0 .2-.1.3-.3.6-.6 1.1-.9 1.6 0 .1-.1.2-.2.3l-.7 1.5-.3.3c.1.1.1.3 0 .5l-.2.3c-.6 1.2-1.1 2.3-1.6 3.2-.1.2-.2.3-.4.3a.45.45 0 0 1 0 .5c-.2.3-.3.6-.4.8-.1.3-.3.5-.4.8-.1.2-.2.3-.4.3.1.2.1.4 0 .5-.1.9-.6 1.6-1 2.3zm-119.9-4.4l2.4 10c3-2.2 6-4.3 9.2-6.2-.2-.4-.4-.7-.6-1.1-.1-.1-.1-.3-.1-.4-.1 0-.2-.1-.3-.2-.5-.8-1-1.7-1.4-2.5-.1-.1-.1-.3 0-.4-.2 0-.3-.1-.4-.3l-1.2-2.1c-.1-.1-.1-.3-.1-.4-.1 0-.2-.1-.3-.3l-1.2-2.1c-.1-.1-.1-.2-.1-.3-.1 0-.2-.1-.2-.2l-.4-.7-.8-1.5c0-.1-.1-.2-.1-.3-.1-.1-.2-.1-.2-.2l-1.1-2.1c0-.1-.1-.2-.1-.3-.1 0-.2-.1-.2-.2-.3-.5-.5-1-.7-1.4 0-.1-.1-.2-.1-.3-.1 0-.2-.1-.2-.2-.3-.6-.7-1.2-1-1.9 0-.1-.1-.2-.1-.3l-.2-.2c-.3-.6-.6-1.1-.9-1.7-.1-.1-.1-.2-.1-.3-.1-.1-.2-.1-.2-.2l-.8-1.5c0-.1-.1-.2-.1-.3-.1 0-.1-.1-.2-.2-1.6-3.1-3.3-6.3-4.8-9.6h0c-.1-.1-.1-.2-.2-.3 0 .2.1.4.1.6 1.6 8.7 3.5 17.6 5.6 26.4.6 1.2.8 2.2 1.1 3.2zm107.4-2a103.96 103.96 0 0 1 11.5 5.9c.4-.7.9-1.4 1.3-2.2.1-.2.2-.3.4-.3-.1-.1-.1-.3 0-.5.1-.3.3-.6.4-.9.1-.2.3-.5.4-.9.1-.2.2-.3.4-.3-.1-.1-.1-.3 0-.5.4-.9 1-2 1.6-3.2l.2-.3.3-.3c-.1-.1-.1-.3 0-.5l.7-1.5c.1-.1.1-.2.2-.3.3-.5.6-1 .9-1.6.1-.1.2-.2.3-.2 0-.1 0-.2.1-.3.5-.8 1-1.8 1.6-2.7.1-.1.2-.2.4-.3 0-.1 0-.3.1-.4.5-.8 1-1.7 1.6-2.6.1-.1.2-.2.3-.2 0-.1 0-.3.1-.4.5-.8 1-1.5 1.5-2.4.1-.1.2-.2.3-.2 0-.1 0-.2.1-.3l.8-1.3c0-.1.1-.1.2-.2 0-.1 0-.2.1-.3 1.6-2.7 3.1-5.5 4.7-8.4-.3.2-.5.3-.6.3-6 6.3-12.4 12.5-19 18.4l-2.3 2c-3.1 2.4-5.8 4.6-8.6 6.9zm-95.8 3.9c.1 0 .2.1.3.2.2.4.4.7.6 1.1 3.4-2 6.9-3.7 10.4-5.3-1.7-2.1-4.1-4.6-7-7.3-.7-.7-1.4-1.4-2.2-2h0l-5.6-4.8c-5-4.2-9-7.9-12-11.1 1.1 2.3 2.3 4.5 3.4 6.7 0 .1.1.2.1.3.1 0 .1.1.2.2l.8 1.5c0 .1.1.2.1.3.1 0 .2.1.2.2.3.6.6 1.1.9 1.7 0 .1.1.2.1.3l.2.2c.3.6.6 1.2 1 1.8.1.1.1.2.1.3.1.1.2.1.2.2.2.5.5.9.7 1.4 0 .1.1.2.1.3.1.1.2.1.2.2l1.1 2.1c0 .1.1.2.1.3.1 0 .2.1.2.2l1.1 2.1c.1.1.1.2.1.4.1 0 .2.1.2.2l1.2 2.1c.1.1.1.3.1.4.1 0 .2.1.3.3l1.2 2.1c.1.1.1.3 0 .4.2 0 .3.1.4.3.5.8.9 1.6 1.4 2.5-.2 0-.2.1-.2.2zm5.7-11.5c2.8 2.7 5 5.1 6.7 7.1 6.8-2.9 14.1-5 21.6-6.3l4.2-9.9c-11.5 1.4-22.4 4.5-32.5 9.1zm65.5.5c8.2 1.3 16 3.5 23.5 6.5l8-6.6a107.91 107.91 0 0 0-34.4-9.6c.9 3.3 1.9 6.5 2.9 9.7zm-31.6-10l-4.2 10.2c5.9-1 12-1.4 18.3-1.4h.2c-.1-1-.1-1.9-.1-2.9 0-.2.1-.3.2-.4-.1-.1-.2-.2-.2-.4-.1-1.2-.1-2.4-.1-3.6 0-.1 0-.3.1-.4-.1-.1-.2-.2-.2-.4l-.1-1.6v-1.6c0-.1 0-.3.1-.4-.1-.1-.2-.2-.2-.4v-.5l-.1-2.6c0-.1.1-.3.1-.4-.1-.1-.1-.2-.1-.4v-3c0-.1.1-.3.1-.4-.1-.1-.1-.2-.1-.4v-3c0-.1 0-.2.1-.3-.1-.1-.1-.2-.1-.3v-2.8c0-.1.1-.3.1-.3-.1-.1-.1-.2-.1-.4l.1-2.2c0-.1 0-.2.1-.3-.1-.1-.1-.2-.1-.3 0-1.1 0-2.1.1-3.2 0-.2.1-.3.2-.4-.1-.1-.1-.2-.1-.4 0-.9 0-1.8.1-2.6 0-.1 0-.2.1-.3 0-.1-.1-.2-.1-.3v-1c0-.6 0-1.2.1-1.8 0-.1 0-.2.1-.3 0-.1-.1-.2-.1-.3v-.9l.8-13.3-3.8 13.5c-.3 1.1-.7 2.1-1 3.2-2.7 8.7-5.8 17.4-9.1 25.9-.4 1.1-.8 2.1-1.1 3.1zm15.3 8.7c5.1.1 10.2.4 15.1 1.1l-3-10-.9-2.9c-2.4-8.5-4.7-17.2-6.7-25.8-.3-1.1-.5-2.2-.7-3.3l-2.9-13.9a325.56 325.56 0 0 0-.9 13.7v.9c0 .1 0 .2-.1.3 0 .1.1.2.1.3 0 .6-.1 1.2-.1 1.7v1c0 .1 0 .2-.1.3 0 .1.1.2.1.3 0 .9-.1 1.7-.1 2.6 0 .2-.1.3-.2.4.1.1.1.2.1.4 0 1-.1 2.1-.1 3.2 0 .1 0 .2-.1.3.1.1.1.2.1.3l-.1 2.2c0 .1-.1.3-.1.3.1.1.1.2.1.4v2.7c0 .1 0 .3-.1.3.1.1.1.2.1.4v3c0 .1-.1.3-.1.4.1.1.1.2.1.4v3c0 .1-.1.3-.1.4.1.1.1.2.1.4l.1 3c0 .1 0 .3-.1.4.1.1.2.2.2.4v1.6l.1 1.6c0 .1 0 .3-.1.4.1.1.2.2.2.4 0 1.2.1 2.4.1 3.6 0 .2-.1.3-.2.4.1.1.2.2.2.4-.1 1-.1 2 0 3zm13-9.5c12.6 1.4 24.6 4.8 35.6 10 .5-.4.9-.8 1.4-1.2C242.6 92 230 88.4 216.6 87c.3.6.4 1.2.6 1.8zM152.8 97c.5.4.9.8 1.4 1.3 10.5-4.9 21.9-8 33.8-9.5.2-.6.5-1.2.7-1.8-12.7 1.5-24.8 4.8-35.9 10zm63.6-11.2c13.8 1.4 26.8 5.1 38.8 10.9C261.6 91 267.8 85 273.6 79c-19-10.9-40.4-16.9-63.6-17.8 1.9 8.2 4 16.5 6.4 24.6zm-83.4-7c3.1 3.5 7.6 7.8 13.5 12.8l5.4 4.6c11.5-5.5 24-8.9 37.2-10.3 3.1-8.1 6.1-16.5 8.7-24.8-23.6.8-45.4 6.7-64.8 17.7zm76.7-18.7c23.5.9 45.3 7 64.6 18.1.3-.3.9-.7 2-1.4-20-11.7-42.6-18.1-67.1-18.9.2.7.3 1.4.5 2.2zm-77.8 17.4c.1.1.2.3.4.4 19.7-11.2 41.9-17.3 65.9-18 .2-.7.4-1.4.7-2.1-24.7.6-47.3 6.7-67.6 18.3.1.5.4 1 .6 1.4zm36.4 260.9c-1.2 0-2.2-.4-3-1.2s-1.3-1.8-1.3-2.9a3.74 3.74 0 0 1 1.3-2.9c.8-.8 1.9-1.2 3-1.2 1.2 0 2.2.4 3 1.2a3.74 3.74 0 0 1 1.3 2.9 3.74 3.74 0 0 1-1.3 2.9c-.8.8-1.8 1.2-3 1.2zm0-7c-.9 0-1.6.3-2.3.9-.6.6-.9 1.3-.9 2.1s.3 1.5.9 2.1 1.4.9 2.3.9 1.6-.3 2.3-.9c.6-.6.9-1.3.9-2.1s-.3-1.5-.9-2.1c-.6-.7-1.4-.9-2.3-.9zm68.8 5.3c-1 0-1.9-.4-2.6-1.1s-1.1-1.7-1.1-2.7a3.69 3.69 0 0 1 1.1-2.7c.7-.8 1.6-1.1 2.6-1.1s1.9.4 2.6 1.1 1.1 1.7 1.1 2.7a3.69 3.69 0 0 1-1.1 2.7c-.7.7-1.6 1.1-2.6 1.1zm0-6.7c-.7 0-1.3.3-1.8.8s-.8 1.2-.8 2 .2 1.4.8 2c.5.5 1.1.8 1.8.8s1.3-.3 1.8-.8.8-1.2.8-2-.2-1.4-.8-2c-.5-.5-1.1-.8-1.8-.8zm-34.3-22.5c-13.4 0-26.1-2.3-37.7-6.8-4.7-1.8-9.3-4.1-13.7-6.7-7.5-4.4-14.7-10-21.3-16.6-3.4-3.4-6.5-6.9-9.3-10.5v-.1c-2.9-3.8-5.6-7.7-7.9-11.8-8.5-14.9-12.9-31.8-12.9-50.3 0-7.1.6-14.1 1.9-20.6 3.8-19.6 13.3-37.1 28.2-52 3.3-3.3 6.7-6.3 10.2-9 17.9-14 38.9-21.1 62.5-21.1 19.2 0 36.7 4.7 52.1 13.9 7.2 4.3 14.2 9.8 20.6 16.2 3 3 5.7 6 8.3 9.2 3.1 3.8 5.8 7.8 8.2 11.9 2.1 3.5 3.9 7.1 5.5 10.8 5.2 12 7.9 25.1 8.1 39.2v1.6c0 5.3-.4 10.6-1.1 15.6-1.9 13.5-6.4 26.1-13.5 37.5-2 3.2-4.2 6.4-6.6 9.4-2.7 3.5-5.8 6.9-9 10.1a118.63 118.63 0 0 1-10.1 9c-.3.2-.6.5-.9.7-3.5 2.7-7.2 5.1-10.8 7.2-15.1 8.8-32.2 13.2-50.8 13.2zm-81-41.3c2.8 3.6 5.9 7 9.2 10.4 6.6 6.6 13.6 12.1 21.1 16.5 4.3 2.5 8.9 4.8 13.5 6.6 11.4 4.5 24 6.7 37.3 6.7 18.4 0 35.3-4.4 50.2-13a100.23 100.23 0 0 0 10.7-7.2c.3-.2.6-.5.9-.7 3.4-2.7 6.8-5.7 10-8.9s6.2-6.6 8.9-10c2.3-3 4.5-6.1 6.5-9.3a96.62 96.62 0 0 0 13.3-37.1c.7-5 1-10.2 1-15.5v-1.5c-.2-13.9-2.9-26.9-8-38.7-1.6-3.7-3.4-7.3-5.5-10.7-2.4-4-5.1-8-8.1-11.8-2.5-3.1-5.2-6.2-8.2-9.1-6.3-6.3-13.2-11.7-20.4-16-15-9-32.1-13.7-50.8-13.8v.1 1.1l4.2 26.7c18.1 1.1 34 8.3 47.2 21.5 13.5 13.5 20.8 29.8 21.6 48.5l21.1 2.4c.3 0 .5.3.5.5 0 .3-.2.5-.4.6-.8.2-1.5.3-2.3.5l-18.9 3.7c-.9 18.6-8.2 34.8-21.6 48.3-13.4 13.4-29.5 20.6-48 21.6l-3.4 22.9v1.4c0 .3-.2.6-.6.6-.3 0-.6-.2-.6-.6v-.3c-.1-.1-.1-.2-.1-.3l-2.6-23.6c-19-.7-35.5-8-49.2-21.6-14-14-21.2-31-21.6-50.6l-18.9-2.5c-.3 0-.5-.3-.5-.5 0-.3.2-.5.4-.6.9-.2 1.9-.4 2.8-.5l16.3-2.7c1.1-18.1 8.4-34 21.5-47.1 13.3-13.3 29.3-20.5 47.5-21.5 1.3-9.8 2.8-19 4.3-27.4 0-.1.1-.2.1-.2v-.1-.1c-23.2.1-43.8 7.1-61.4 20.8-3.4 2.7-6.8 5.7-10.1 8.9-14.7 14.7-24 31.8-27.8 51 0 0 0 .1.1.1.1.2 0 .5-.2.6-1.2 6.4-1.8 13.2-1.8 20.2 0 18.3 4.3 35 12.7 49.7 2.3 4 4.9 7.9 7.8 11.6.2-.1.2 0 .3 0zm81.4 11.1a.55.55 0 0 1 .3.5v15.9l2.4-15.9h0l.3-2.3 1.1-7.4c.2-1.5.4-3 .7-4.4h0l4-27.4 1.4-9.6c-1.2-.8-2.5-1.6-3.8-2.4-1.9.7-4 1.1-6.1 1.1v9.8c0 .2-.1.3-.2.4.1.1.2.2.2.4v5.5c0 .1 0 .2-.1.3.1.1.1.2.1.3v4.6a.55.55 0 0 1-.3.5.55.55 0 0 1 .3.5v5.1c0 .3-.2.6-.6.6.3 0 .6.2.6.6v5.9c0 .3-.2.6-.6.6-.3 0-.6-.2-.6-.6V254c0-.3.2-.6.6-.6-.3 0-.6-.2-.6-.6v-5.1a.55.55 0 0 1 .3-.5.55.55 0 0 1-.3-.5V242c0-.1 0-.2.1-.3-.1-.1-.1-.2-.1-.3v-5.5c0-.2.1-.3.2-.4-.1-.1-.2-.2-.2-.4v-9.8c-2.8 0-5.4-.5-7.7-1.5l1.5 13.1 2 17.4v.1.1l1 9.2.5 4.4.8 7.4.2 2.2 1.7 15.2v-15.2a.55.55 0 0 1 .3-.5.55.55 0 0 1-.3-.5v-4.1a.55.55 0 0 1 .3-.5.55.55 0 0 1-.3-.5v-4.9c0-.3.2-.6.6-.6.3 0 .6.2.6.6v4.9a.55.55 0 0 1-.3.5.55.55 0 0 1 .3.5v4.1c0 .3-.1.5-.3.6zM130 206.4c.4 19.2 7.6 35.9 21.3 49.6 13.4 13.4 29.6 20.6 48.3 21.3l-.1-1.1c-18.3-.7-34.3-7.8-47.5-21-13.5-13.5-20.5-29.8-21-48.7-.3 0-.7 0-1-.1zm77.3 69.7l-.2 1.2c18.1-1 34-8.1 47.1-21.2 13.2-13.2 20.3-29.1 21.3-47.3-.4.1-.8.1-1.2.2-1 17.8-8 33.4-20.9 46.3-12.9 12.8-28.4 19.8-46.1 20.8zm-75.2-69.4c.5 18.5 7.4 34.5 20.6 47.7 12.9 12.9 28.6 19.9 46.6 20.6l-.7-6.3c-4.6-.3-9.1-1-13.4-2.1-.2 0-.3-.2-.4-.3-.1.1-.3.1-.5.1-4.1-1.2-8-2.8-11.7-4.7-.1 0-.1-.1-.1-.1-.1 0-.1 0-.2-.1-3.5-1.9-6.8-4.1-10-6.7-.1-.1-.2-.2-.2-.3-.1 0-.3 0-.4-.1-1.6-1.4-3.2-2.8-4.8-4.4-3.7-3.7-6.9-7.7-9.6-11.9 0 0 0-.1-.1-.1-2.2-3.5-4-7.3-5.4-11.1-.1-.1 0-.3 0-.4l-.3-.3c-2.1-5.8-3.2-12.1-3.5-18.6l-5.9-.9zm76.3 62l-.9 6.3c17.4-1 32.5-7.9 45.1-20.5s19.6-27.9 20.6-45.3c-2.1.4-4.2.7-6.3 1-.2 2-.4 4-.7 5.9 0 .1-.1.2-.2.3 0 .1.1.2 0 .3-.6 3.5-1.6 7-2.8 10.3-3.1 8.4-8.2 16.2-15.1 23.1-11.1 11.1-24.5 17.3-39.7 18.6zm-23-3.1h.1c4.1 1.1 8.5 1.8 12.9 2.1l-.4-3.3c-4.2-.3-8.2-1-12.1-2-.1 0-.1 0-.1-.1h-.2c-1.9-.5-3.7-1.2-5.5-1.9-7.3-2.9-14.1-7.5-20.1-13.5-.8-.8-1.6-1.7-2.4-2.5-.1-.1-.1-.2-.1-.3-.1 0-.2-.1-.3-.2-2.1-2.4-4-4.9-5.7-7.5v-.1c-2-3.1-3.7-6.3-5-9.7-2.3-5.7-3.6-11.9-4-18.4-1.1-.2-2.2-.3-3.2-.5.3 6.3 1.4 12.4 3.4 18.1v.4l.3.3c1.4 3.8 3.2 7.4 5.3 10.9 0 0 0 .1.1.1 2.6 4.1 5.7 8 9.4 11.7 1.5 1.5 3.1 3 4.7 4.3.1.1.2.2.2.3.1 0 .3 0 .4.1 3.1 2.5 6.4 4.7 9.8 6.6.1 0 .1.1.1.1.1 0 .1 0 .2.1 3.6 1.9 7.5 3.5 11.5 4.6.2 0 .3.2.4.3h.3zm23.6-1.4c-.2 1.1-.3 2.2-.5 3.3 14.9-1.2 27.9-7.4 38.8-18.3 6.8-6.8 11.7-14.4 14.8-22.7 1.2-3.2 2.1-6.6 2.7-10.1 0-.1.1-.2.2-.3 0-.1-.1-.2 0-.3.3-1.8.5-3.6.7-5.5-1.1.2-2.2.3-3.3.5-.2 1.9-.5 3.7-.8 5.5v.1.2c-.6 3.1-1.5 6.1-2.5 8.9-.2.6-.4 1.1-.6 1.7-.1.2-.2.3-.4.3.1.1.1.3 0 .5-1.3 3.1-3 6.2-4.9 9.1-.1.1-.1.2-.2.2 0 .1 0 .2-.1.3-2.2 3.2-4.8 6.3-7.7 9.2l-.6.6c-.1.1-.1.1-.2.1 0 .1-.1.1-.1.2-3.2 3.1-6.6 5.8-10.2 8-.1 0-.1.1-.2.1 0 .1-.1.1-.2.2-2.8 1.7-5.8 3.2-8.9 4.4-.2.1-.4.1-.6.2a56.19 56.19 0 0 1-15.2 3.6zm-88.1 2.6zm65.3-5.6h.1a62.13 62.13 0 0 0 11.7 2l-1-8.6v-.1-.1l-1.9-16.9c-1.7-.4-3.5-.9-5.1-1.6-.8 3.4-2 7.1-3.4 10.9-1.1 3-2.9 7.2-5.4 12.7 1.6.6 3.2 1.1 4.9 1.6 0 .1 0 .1.1.1zm26.9-24.5l-3.9 26.4c5.1-.5 9.9-1.7 14.5-3.4h.1c-.2-.7-.3-1.4-.5-2.1a204.25 204.25 0 0 1-2.3-8.2l-1.2-4.1-1.4-4-2.3-5c-.1-.2-.2-.4-.2-.6-1 .4-1.9.7-2.8 1zm3.6-1.5c.1.2.2.4.2.6.5 1.1 1.2 2.8 2.3 5 .5 1.2 1 2.5 1.5 4.1.1.4.5 1.8 1.2 4.1l2.3 8.2c.2.7.4 1.4.5 2 2.8-1.1 5.5-2.5 8.1-4.1.1 0 .1-.1.2-.1 0-.1.1-.1.2-.2 3.5-2.2 6.9-4.8 10-7.9.1-.1.1-.1.2-.1 0-.1.1-.1.1-.2l.6-.6c2.8-2.8 5.4-5.9 7.5-9 .1-.1.1-.2.2-.2 0-.1 0-.2.1-.3 1.9-2.8 3.5-5.8 4.8-8.9.1-.2.2-.3.4-.3-.1-.1-.1-.3 0-.5.1-.4.3-.7.4-1.1-8.3-2.6-16.5-4.9-24.4-7-.9 1.9-2 3.7-3.3 5.4 4.4 6.7 8.9 13.3 13.4 19.6.2.2.1.5 0 .7-.2.2-.5.2-.7.1l-20.4-12.7c-1.6 1.5-3.4 2.6-5.4 3.4zm-58.4 8.3c.1 0 .2.1.3.2.8.8 1.6 1.7 2.4 2.5 5.8 5.8 12.2 10.2 19.2 13.1 2.5-5.5 4.3-9.8 5.4-12.7a79.12 79.12 0 0 0 3.4-10.9c-2.7-1.2-5.2-2.8-7.6-4.7l-19.7 13.5c-.2.2-.5.1-.7-.1s-.2-.5 0-.7c4.8-6.4 9.5-13 14-19.6-1.7-2.4-3.1-5-4.1-7.7-3.9 1.3-8.1 3-12.5 5-2.7 1.3-6.3 3.1-10.5 5.4 1.3 3.1 2.8 6.2 4.7 9v.1c1.6 2.5 3.5 5 5.6 7.3 0 .1.1.2.1.3zm64.2-12.6l18.4 11.4c-4.1-5.7-8.1-11.7-12-17.7-2-3-4-6.2-5.9-9.3l-2.6.2c-.8 1.3-1.9 2.6-3 3.8-.7.7-1.4 1.3-2.1 1.9-1.3 1-2.8 1.9-4.3 2.6 1.2.7 2.3 1.4 3.4 2.1 2.9 1.7 5.6 3.4 8.1 5 0-.1 0-.1 0 0zm-46.9-6c-3.8 5.6-7.8 11.1-11.9 16.6l16.8-11.4c-.6-.6-1.3-1.1-1.9-1.7-1.1-1.2-2.1-2.3-3-3.5zm14.3 9.8c1.6.7 3.4 1.2 5.1 1.7l-1.5-13c-.2-.1-.4-.2-.7-.3l-10.5 7.2c2.4 1.7 4.9 3.3 7.6 4.4zm24.6-7.6l-1.2 8.3c.9-.3 1.7-.6 2.5-1 1.9-.8 3.7-1.9 5.4-3.1-2-1.3-4.3-2.7-6.7-4.2zm-38.2-3.2c.9 1.2 2 2.5 3.2 3.6.7.7 1.3 1.3 2 1.9l10.4-7.1c-1.4-.9-2.8-1.9-4-3.2-1.2-1.2-2.3-2.5-3.1-3.9l-1.2-2.1-1 1.6c-2.2 3.1-4.2 6.2-6.3 9.2zm-32.6-15.5c.4 6.1 1.6 11.9 3.7 17.2 4.2-2.3 7.7-4.1 10.5-5.4 4.4-2.1 8.6-3.8 12.6-5.1-.3-.8-.5-1.7-.7-2.6l-26.1-4.1zm90.1 9.4c7.9 2.1 16.1 4.4 24.4 7 1-2.7 1.7-5.4 2.3-8.3v-.1-.2c.3-1.7.6-3.4.8-5.2-8.7 1.3-17.5 2.3-26.2 3.2-.4 1.2-.8 2.4-1.3 3.6zm-39.5 4.7c2.5 1.2 5.3 1.7 8.3 1.7h.4c2.3 0 4.5-.4 6.5-1.2 1.8-.7 3.5-1.6 5-2.8.7-.6 1.4-1.2 2-1.8a20.84 20.84 0 0 0 3-3.8c.6-.9 1.1-1.9 1.4-2.9.9-2.2 1.3-4.7 1.3-7.3v-.7c-.1-3.2-.9-6.1-2.4-8.8a20.5 20.5 0 0 0-3.4-4.5c-.9-.9-1.8-1.6-2.7-2.3-1.1-.7-2.2-1.4-3.3-1.9-2.3-1-4.9-1.6-7.6-1.6h-.4c-2.6 0-5 .4-7.2 1.3 0 0-.1.1-.2.1-.9.4-1.8.8-2.6 1.3-1.4.8-2.7 1.9-3.9 3.1-.5.5-1 1-1.4 1.6-.8 1-1.6 2.1-2.1 3.2-1.3 2.5-2.1 5.2-2.2 8.2v1c0 2.6.5 5.1 1.3 7.3.4 1 .9 2 1.5 2.9.8 1.3 1.8 2.6 3 3.7a20.5 20.5 0 0 0 4.5 3.4c.4.4.8.6 1.2.8zm29.9-7.4l5.2 8.1c1.2-1.7 2.3-3.5 3.1-5.3.5-1.2 1-2.4 1.4-3.6l-9.7.8zm-52.5.3c.9 2.7 2.2 5.2 3.9 7.6 1.9-2.7 3.7-5.5 5.5-8.2l-10.2-1.9a24.13 24.13 0 0 0 .8 2.5zm51.8-11.1v.2a21.91 21.91 0 0 1-1.4 7.7c-.3.7-.6 1.4-1 2.1l2.1-.1 11.4-1a611.72 611.72 0 0 0 27.2-3.3c1.5-.2 2.9-.4 4.4-.7l7.4-1.2c.7-.1 1.5-.3 2.3-.4 4.7-.8 9.5-1.7 14.3-2.7l-6.5-.1a.55.55 0 0 1-.5-.3.55.55 0 0 1-.5.3h-4.2a.76.76 0 0 1-.4-.2c-.1.1-.2.2-.4.2l-3.9-.1a.76.76 0 0 1-.4-.2c-.1.1-.2.2-.4.2h-3.8c-.2 0-.3-.1-.4-.2a.76.76 0 0 1-.4.2l-4.4-.1c-.1 0-.2 0-.3-.1-.1 0-.2.1-.3.1h-4.5c-.1 0-.3-.1-.4-.1-.1.1-.2.1-.3.1h-4.7c-.1 0-.2 0-.3-.1-.1.1-.2.1-.3.1l-4.6-.1c-.2 0-.3-.1-.4-.2-.1.1-.2.2-.4.2h-3.8c-.1 0-.3-.1-.4-.1-.1.1-.2.1-.4.1l-7.9-.1h-.1-.1-4.2c-.1 0-.2 0-.3-.1-.1.1-.2.1-.3.1l-6.5-.1zm-53.2 7.4l11.5 2.1 1.2-1.9c-.9-2.3-1.3-4.8-1.3-7.5v-.5h-.1c-.1 0-.1.1-.2 0h-4-.2-.2l-3.5-.1c-.1 0-.2 0-.3-.1-.1.1-.2.1-.3.1h-4.2c-.1 0-.2 0-.2-.1-.1 0-.2.1-.3.1l-5.4-.1c-.2 0-.3-.1-.4-.2a.76.76 0 0 1-.4.2h-3.2c-.2 0-.3-.1-.4-.2a.76.76 0 0 1-.4.2h-4.4c-.2 0-.3-.1-.4-.2-.1.1-.2.1-.4.1H150c-.1 0-.2 0-.3-.1-.1.1-.2.1-.3.1h-2.9c-.1 0-.3-.1-.4-.1-.1.1-.2.1-.4.1h-2.4c-.2 0-.3-.1-.4-.2-.1.1-.3.2-.5.2H141c-.1 0-.3-.1-.3-.1-.1.1-.2.1-.4.1h-3.6c-.1 0-.2 0-.3-.1-.1.1-.2.1-.3.1h-1.8c-.2 0-.3-.1-.4-.2-.1.1-.2.1-.4.1h-2.1c-.3 0-.6-.2-.6-.6 0-.3.2-.6.6-.6h2.1c.2 0 .3.1.4.2.1-.1.2-.1.4-.1h1.8c.1 0 .2 0 .3.1.1-.1.2-.1.3-.1h3.6c.1 0 .3.1.4.1.1-.1.2-.1.4-.1h1.4c.2 0 .3.1.4.2a.76.76 0 0 1 .4-.2h2.4c.1 0 .3.1.4.1.1-.1.2-.1.4-.1h2.9c.1 0 .2 0 .3.1.1-.1.2-.1.3-.1h2.8c.2 0 .3.1.4.2.1-.1.2-.1.4-.1h4.4c.2 0 .3.1.4.2a.76.76 0 0 1 .4-.2h3.2c.2 0 .3.1.4.2a.76.76 0 0 1 .4-.2l5.4.1c.1 0 .2 0 .2.1.1 0 .2-.1.3-.1h4.2c.1 0 .2 0 .3.1.1-.1.2-.1.3-.1l3.5.1h.2.2 4 .2.2c.2-2.8.9-5.4 2.1-7.8-.5-.7-1-1.5-1.5-2.2l-11.3 1.5-27.6 4c-1.4.2-2.9.4-4.3.7l-7.4 1.2c-.7.1-1.4.2-2.1.4h0 0l-10.6 1.8 11.3.1c.3 0 .5.3.5.6s-.3.5-.6.5l-15.2-.1 14.4 1.9 2.1.3 7.3 1c1.4.2 2.9.4 4.3.7 9.1 1.3 18.2 2.8 27.1 4.4zm108.2-8.1h4.2a.55.55 0 0 1 .5.3.55.55 0 0 1 .5-.3l8.4.1-16.1-1.8-2.3-.3h0l-7.4-.9c-1.5-.2-3-.3-4.4-.5l-24.2-2.8-2.7-.3-8.3-1c-1.2-.1-2.3-.3-3.4-.5-.1 0-.2-.1-.3-.2-.1.1-.2.1-.4.1h0l-.4.6-.2.2c.9 2.1 1.4 4.4 1.5 6.8l6.5.1c.1 0 .2 0 .3.1.1-.1.2-.1.3-.1h4.2.1.1l7.9.1c.1 0 .3.1.4.1.1-.1.2-.1.4-.1h3.8c.2 0 .3.1.4.2a.76.76 0 0 1 .4-.2l4.6.1c.1 0 .2 0 .3.1.1-.1.2-.1.3-.1h4.7c.1 0 .3.1.4.1.1-.1.2-.1.3-.1h4.5c.1 0 .2 0 .3.1.1 0 .2-.1.3-.1l4.4.1c.2 0 .3.1.4.2a.76.76 0 0 1 .4-.2h3.8a.76.76 0 0 1 .4.2c.1-.1.2-.2.4-.2l3.9.1a.76.76 0 0 1 .4.2.76.76 0 0 1 .4-.2zm-4.2-3c.4 0 .8.1 1.2.1-.9-18.3-8-34.4-21.3-47.6-12.9-12.9-28.5-20-46.2-21.1 0 .3.1.7.1 1 17.4 1.2 32.6 8.2 45.3 20.8 13 13 20 28.8 20.9 46.8zm-7.4-.9l6.3.7c-.9-17.7-7.8-33.1-20.6-45.9-12.4-12.4-27.3-19.3-44.3-20.5l.9 6.3c2.2.2 4.5.5 6.6.9h.1c4.1.8 8.1 2 11.8 3.6 1 .4 2 .9 3 1.4h.1c6.2 3 12 7.3 17.3 12.6 1.7 1.7 3.3 3.5 4.8 5.3.1.1.1.3.1.4.1 0 .2.1.3.2 3.7 4.5 6.6 9.5 8.8 14.7 2.7 6.3 4.3 13.2 4.8 20.3zm-4.4-.5c1.1.1 2.2.2 3.3.4-.5-7-2-13.6-4.6-19.7-2.1-5.1-5-9.9-8.6-14.4-.1-.1-.1-.3-.1-.4-.1 0-.2-.1-.3-.2-1.5-1.8-3-3.5-4.7-5.2-5.2-5.2-10.9-9.4-17-12.4h-.1c-1-.5-2-.9-2.9-1.3-3.7-1.6-7.6-2.8-11.6-3.6h-.1a59.68 59.68 0 0 0-6.3-.9c.2 1.1.3 2.1.5 3.2 1.8.2 3.6.5 5.3.8.1 0 .1 0 .2.1h.2c3.7.8 7.3 1.9 10.8 3.4 4.7 2 9.3 4.7 13.4 8.1.1.1.2.2.2.4.1 0 .3 0 .4.1 1.6 1.3 3.2 2.8 4.8 4.3 1.6 1.6 3 3.2 4.4 4.8 0 0 0 .1.1.1l.1.1a55.44 55.44 0 0 1 7.4 11.6c.1.1.1.3 0 .4.1.1.2.1.3.3.3.6.5 1.2.8 1.9 1.1 2.7 2.1 5.5 2.8 8.4v.1c.5 3.2 1 6.4 1.3 9.6zM197.9 132c-17.9 1-33.6 8.2-46.6 21.2-12.9 12.9-20 28.4-21.1 46.1.3-.1.7-.1 1-.2 1.2-17.4 8.2-32.6 20.8-45.3 12.8-12.8 28.2-19.8 45.8-20.9 0-.3.1-.6.1-.9zm37.5 64.1c.7.1 1.5.2 2.4.3l23.5 2.7c-.3-3.1-.7-6.2-1.5-9.1v-.1c-.6-2.7-1.5-5.3-2.5-7.8l-23.4 9.5c.7 1.4 1.2 3 1.5 4.5zm-37.8-62c-17.3 1.1-32.4 8-44.9 20.5-12.4 12.4-19.3 27.3-20.5 44.3 2.1-.3 4.2-.7 6.3-1 0-.4.1-.8.1-1.1 0-.2.1-.3.2-.4-.1-.1-.2-.3-.1-.4 1.3-10.7 5.2-20.5 11.6-29.1.1-.1.2-.2.3-.2 0-.1 0-.2.1-.3 1.9-2.5 4.1-5 6.4-7.3 6.4-6.4 13.5-11.2 21.3-14.3 3.1-1.3 6.4-2.3 9.7-3h.3c.1-.1.2-.1.3-.1 2.6-.6 5.4-1 8.2-1.2.2-2.3.5-4.4.7-6.4zm-58 62.4c.1.1.2.3.1.4 0 .3-.1.6-.1.9 1.1-.2 2.2-.3 3.3-.5.4-3.5 1.1-6.9 2-10.2 0-.1.1-.2.1-.2v-.3c.5-1.6 1.1-3.2 1.7-4.8.7-1.9 1.6-3.7 2.6-5.5 0 0 0-.1.1-.1 0-.1 0-.1.1-.2 1.3-2.4 2.9-4.8 4.6-7.1v-.1a64.43 64.43 0 0 1 6-6.9c.2-.2.4-.3.5-.5 3.7-3.6 7.6-6.6 11.7-9 .1 0 .2-.1.2-.1 0-.1.1-.2.2-.2 2.2-1.3 4.6-2.4 7-3.4 5.1-2.1 10.6-3.5 16.4-4 .1-1.1.3-2.1.4-3.2-2.7.2-5.3.6-7.8 1.1h-.3c-.1.1-.2.1-.3.1-3.3.7-6.5 1.7-9.5 2.9-7.6 3.1-14.6 7.8-20.9 14.1a70.58 70.58 0 0 0-6.3 7.2c-.1.1-.2.2-.3.2 0 .1 0 .2-.1.3-6.3 8.5-10.1 18.1-11.4 28.6.2.2.1.4 0 .5zm6.4-9.4v.3c-.9 3.1-1.6 6.3-1.9 9.7 8.8-1.4 17.7-2.6 26.5-3.8.2-.6.4-1.1.6-1.7-2.2-.9-3.9-1.6-5.1-2a178.7 178.7 0 0 0-6.1-2.4c-3.9-1.5-8-3-12.3-4.4-.6 1.4-1 2.8-1.5 4.2-.1 0-.2.1-.2.1zm77.3 7.4c1.2.2 2.3.3 3.4.5.7.1 3.2.4 7.5.9a39.56 39.56 0 0 0-1.5-4.5c-.9-2.1-2.1-4.2-3.5-6.1l-6.1 9.2c.1.1.1 0 .2 0zm-2.3-.1l.3.6v-.2-.1c0-.1.1-.1.2-.2s.1-.1.2-.1h.1.1l6.8-10.2 12.2-18.5c-6.3 3.9-12.5 8-18.6 12.3l-8.3 6.1-2.3 1.7c.9.5 1.8 1 2.7 1.6 1 .7 1.9 1.5 2.8 2.4 1.6 1.3 2.8 2.9 3.8 4.6zm-37.8-2.5c.4.7.9 1.3 1.3 2 .5-.9 1.1-1.8 1.8-2.6.4-.6.9-1.1 1.5-1.7 1.2-1.2 2.5-2.3 3.9-3.1l.3-2.6a15.26 15.26 0 0 1-1.6-1.1l-7.3-4.9-16.5-11.1 10.7 16.3c1.9 3 3.9 5.9 5.9 8.8-.1 0 0 0 0 0zm-10.8-.4c-.2.5-.4 1.1-.6 1.6 3.3-.5 6.6-.9 9.9-1.3l-5-7.5c-1.7 2.2-3.2 4.6-4.3 7.2zm57.5-7.1c1.5 1.9 2.7 4 3.6 6.2l23.4-9.5c-.2-.4-.4-.9-.6-1.3-.1-.1-.1-.2 0-.4-.1-.1-.2-.1-.3-.3-1.9-4-4.4-7.8-7.3-11.4 0 0 0-.1-.1-.1 0 0-.1 0-.1-.1-1.3-1.6-2.8-3.2-4.3-4.8-1.5-1.5-3.1-2.9-4.7-4.3-.1-.1-.2-.2-.2-.4-.1 0-.3 0-.4-.1-4-3.2-8.2-5.8-12.7-7.7-3 7.8-6.5 15.5-10.4 23 2.2.9 4.2 2.1 6.2 3.5 6.6-4.7 13.5-9.2 20.4-13.4.2-.1.5-.1.7.1s.2.5.1.7l-13.3 20.3zm-81.9-2.7c4.3 1.4 8.5 2.9 12.3 4.4 1.7.6 3.7 1.4 6.2 2.4l5.2 2.1c1.1-2.5 2.6-5 4.5-7.2l-11.9-18.2c-.1-.2-.1-.5.1-.7s.5-.2.7-.1l18.4 12.4c2.2-1.6 4.3-2.9 6.1-3.7-.4-1.8-1.1-3.7-2-5.8l-3.8-8c-1-2-2-4.4-3-7.2-.1-.2-.3-.9-.8-2.2-2.2.9-4.3 1.9-6.3 3.1-.1 0-.2.1-.2.1 0 .1-.1.2-.2.2-4 2.4-7.9 5.4-11.5 8.9l-.1.1-.5.5a62.44 62.44 0 0 0-5.9 6.8v.1c-1.7 2.2-3.2 4.6-4.5 7 0 0 0 .1-.1.1 0 .1 0 .1-.1.2-1.1 1.4-1.9 3-2.6 4.7zm45.1 2h0v.2.1c-.1.6-.1 1.2-.2 1.9.6-.3 1.2-.6 1.8-.8.1 0 .2-.1.2-.1a20.42 20.42 0 0 1 7.5-1.4v-5.9c0-.2.1-.3.2-.4a.76.76 0 0 1-.2-.4v-4.6c0-.2.1-.3.2-.4a.76.76 0 0 1-.2-.4v-4.1a.55.55 0 0 1 .3-.5.55.55 0 0 1-.3-.5v-5.9a.55.55 0 0 1 .3-.5.55.55 0 0 1-.3-.5v-4c0-.1.1-.3.1-.4-.1-.1-.1-.2-.1-.4v-4c0-.2.1-.3.2-.4-.1-.1-.2-.2-.2-.4v-3.4a.55.55 0 0 1 .3-.5.55.55 0 0 1-.3-.5v-5.2c0-.2.1-.4.2-.5-.1-.1-.2-.3-.2-.5v-3.4c0-.2.1-.3.2-.4a.76.76 0 0 1-.2-.4v-3.3c0-.1 0-.2.1-.3-.1-.1-.1-.2-.1-.3v-3.9c0-.1 0-.2.1-.3-.1-.1-.1-.2-.1-.3v-4.2-.2-.2-2.8c0-.1 0-.2.1-.3 0-.1-.1-.2-.1-.3V116v-.2-.2-6.2c-1.2 6.9-2.3 14.3-3.3 22.1h0l-.3 2.1-1 7.3c-.2 1.4-.4 2.8-.5 4.3 0 .2 0 .5-.1.7l-2.9 26.3-1.2 11.5zm10.4-.1c2.5.1 4.9.6 7.1 1.6l2.5-1.9-1.1-10.5c-1-9.1-2.1-18.3-3.4-27.3l-.6-4.3c-.3-2.5-.7-5-1-7.4l-.3-2.1-3.2-20.6v4.7.2.2 2.9c0 .1 0 .2-.1.3 0 .1.1.2.1.3v2.8.2.2 4.2c0 .1 0 .2-.1.3.1.1.1.2.1.3v3.9c0 .1 0 .2-.1.3.1.1.1.2.1.3v3.3c0 .2-.1.3-.2.4a.76.76 0 0 1 .2.4v3.4c0 .2-.1.4-.2.5.1.1.2.3.2.5v5.2a.55.55 0 0 1-.3.5.55.55 0 0 1 .3.5v3.4c0 .2-.1.3-.2.4.1.1.2.2.2.4v4c0 .1-.1.3-.1.4.1.1.1.2.1.4v4a.55.55 0 0 1-.3.5.55.55 0 0 1 .3.5v5.9a.55.55 0 0 1-.3.5.55.55 0 0 1 .3.5v4.1c0 .2-.1.3-.2.4a.76.76 0 0 1 .2.4v4.6c0 .2-.1.3-.2.4a.76.76 0 0 1 .2.4v5.5zm-19.2-6.1l6.6 4.5c.4.3.8.5 1.1.8.3-3.4.7-6.7 1-9.7-.9.3-1.9.6-2.8 1-1.7.6-3.7 1.8-5.9 3.4zm29-4.1l1 9.1 6.9-5c-2-1.4-4.1-2.5-6.2-3.4h0c-.6-.3-1.2-.5-1.7-.7zm-.2-1.2c.6.2 1.2.4 1.7.6 3.9-7.5 7.4-15.2 10.4-23-3.2-1.3-6.6-2.4-10.1-3.1-.1 0-.1 0-.2-.1h-.2c-1.6-.3-3.3-.6-4.9-.8a594.54 594.54 0 0 1 3.3 26.4zm-32.3-22.7c.5 1.3.8 2.1.8 2.3 1 2.7 2 5.1 3 7.1.8 1.8 2.1 4.5 3.8 8 .9 2.1 1.6 4.1 2.1 5.8l2.7-.9 2.9-26c-5.3.5-10.5 1.8-15.3 3.7zm-73.7 153.6a3.74 3.74 0 0 1-2.9-1.3c-.8-.8-1.2-1.9-1.2-3 0-1.2.4-2.2 1.2-3a3.74 3.74 0 0 1 2.9-1.3 3.74 3.74 0 0 1 2.9 1.3c.8.8 1.2 1.9 1.2 3s-.4 2.2-1.2 3-1.7 1.3-2.9 1.3zm0-7.5c-.8 0-1.5.3-2.1.9s-.9 1.4-.9 2.3.3 1.6.9 2.3c.6.6 1.3.9 2.1.9s1.5-.3 2.1-.9.9-1.4.9-2.3-.3-1.6-.9-2.3c-.6-.6-1.2-.9-2.1-.9zm190.3 7c-1.1 0-2-.4-2.8-1.2a4.17 4.17 0 0 1-1.1-2.9c0-1.1.4-2.1 1.1-2.9.8-.8 1.7-1.2 2.8-1.2s2 .4 2.7 1.2 1.1 1.8 1.1 2.9-.4 2.1-1.1 2.9-1.6 1.2-2.7 1.2zm0-7c-.8 0-1.4.3-1.9.8-.5.6-.8 1.3-.8 2.1s.3 1.5.8 2.1 1.2.9 1.9.9a2.32 2.32 0 0 0 1.9-.9c.6-.6.8-1.3.8-2.1s-.3-1.5-.8-2.1-1.1-.8-1.9-.8zm-61.2-4.5c-.9 0-1.7-.3-2.3-1-.6-.6-.9-1.5-.9-2.4s.3-1.7.9-2.4 1.4-1 2.3-1 1.7.3 2.3 1 .9 1.5.9 2.4-.3 1.7-.9 2.4-1.4 1-2.3 1zm0-5.7c-.6 0-1.1.2-1.5.7a2.52 2.52 0 0 0-.6 1.7c0 .7.2 1.2.6 1.6.4.5.9.7 1.5.7s1.1-.2 1.5-.7.6-1 .6-1.6a2.52 2.52 0 0 0-.6-1.7c-.4-.5-.9-.7-1.5-.7zm-67.4 5.3a3.69 3.69 0 0 1-2.7-1.1c-.7-.7-1.1-1.7-1.1-2.7a3.69 3.69 0 0 1 1.1-2.7c.7-.7 1.7-1.1 2.7-1.1a3.69 3.69 0 0 1 2.7 1.1c.7.7 1.1 1.7 1.1 2.7a3.69 3.69 0 0 1-3.8 3.8zm0-6.6c-.8 0-1.4.3-2 .8-.5.5-.8 1.2-.8 2s.3 1.4.8 2c.5.5 1.2.8 2 .8s1.4-.3 2-.8c.5-.5.8-1.2.8-2s-.3-1.4-.8-2c-.6-.6-1.2-.8-2-.8zm34.2-17.8c-.3 0-.6-.2-.6-.6V261c0-.3.2-.6.6-.6.3 0 .6.2.6.6v4.8c-.1.3-.3.5-.6.5zM74.2 243c-1 0-1.8-.4-2.5-1.3-.6-.8-1-1.8-1-2.9s.3-2.1.9-2.9c.7-.8 1.5-1.3 2.5-1.3s1.8.4 2.4 1.3c.6.8 1 1.8 1 2.9s-.3 2.1-1 2.9c-.5.9-1.4 1.3-2.3 1.3zm0-7.1c-.6 0-1.2.3-1.6.8-.5.6-.7 1.3-.7 2.2s.2 1.6.7 2.2 1 .8 1.6.8 1.1-.3 1.6-.8c.5-.6.7-1.3.7-2.2s-.2-1.6-.7-2.2-1-.8-1.6-.8zm257.2 6.2c-1.2 0-2.2-.4-3-1.2s-1.3-1.8-1.3-2.9a3.74 3.74 0 0 1 1.3-2.9c.8-.8 1.9-1.2 3-1.2 1.2 0 2.2.4 3 1.2a3.74 3.74 0 0 1 1.3 2.9 3.74 3.74 0 0 1-1.3 2.9c-.8.8-1.8 1.2-3 1.2zm0-7.1c-.9 0-1.6.3-2.3.9-.6.6-.9 1.3-.9 2.1s.3 1.5.9 2.1 1.4.9 2.3.9 1.6-.3 2.3-.9c.6-.6.9-1.3.9-2.1s-.3-1.5-.9-2.1-1.4-.9-2.3-.9zm-46.4 7.1a3.69 3.69 0 0 1-2.7-1.1c-.7-.7-1.1-1.7-1.1-2.7a3.69 3.69 0 0 1 1.1-2.7c.7-.7 1.7-1.1 2.7-1.1a3.69 3.69 0 0 1 2.7 1.1c.7.7 1.1 1.7 1.1 2.7a3.69 3.69 0 0 1-3.8 3.8zm0-6.6c-.8 0-1.4.3-2 .8-.5.5-.8 1.2-.8 2s.3 1.4.8 2c.5.5 1.2.8 2 .8s1.4-.3 2-.8c.5-.5.8-1.2.8-2s-.3-1.4-.8-2c-.6-.6-1.2-.8-2-.8zm-165 6.1c-.9 0-1.7-.3-2.3-1s-.9-1.5-.9-2.4.3-1.7.9-2.4c.7-.7 1.4-1 2.3-1s1.7.3 2.3 1 .9 1.5.9 2.4-.3 1.7-1 2.4c-.6.7-1.3 1-2.2 1zm0-5.7c-.6 0-1.1.2-1.5.7a2.52 2.52 0 0 0-.6 1.7c0 .7.2 1.2.6 1.6.4.5.9.7 1.5.7s1.1-.2 1.5-.7.7-1 .7-1.6a2.19 2.19 0 0 0-.7-1.7c-.5-.5-1-.7-1.5-.7zm82.6-14.5c-3.5 0-6.6-.9-9.4-2.7-.9-.6-1.8-1.4-2.7-2.2-3.3-3.3-5-7.4-5-12v-1.1c.2-4.2 1.9-7.9 4.9-10.9 3.3-3.3 7.4-5 12-5h.4c4.5.1 8.4 1.8 11.6 5 3.1 3.1 4.8 6.9 5 11.2v.8c0 4.1-1.3 7.8-3.9 10.8-.1.1-.2.2-.2.3l-.2.2c-.2.2-.4.5-.7.7v.1s0 .1-.1.1c-2.6 2.6-5.7 4.1-9.2 4.6-.8.1-1.5.2-2.3.2h-.2zm.4-32.9h-.4c-4.4 0-8.2 1.6-11.3 4.7-2.8 2.8-4.4 6.3-4.6 10.2v1c0 4.4 1.6 8.2 4.6 11.3.8.8 1.6 1.5 2.5 2.1 2.5 1.7 5.5 2.5 8.7 2.5h.4c.7 0 1.4-.1 2.2-.2 3.2-.5 6.1-1.9 8.5-4.3 0-.1.1-.1.1-.2l.6-.6c0-.1.1-.2.1-.3l.3-.3c2.4-2.9 3.6-6.2 3.6-10.1v-.8c-.2-4-1.7-7.6-4.7-10.5-2.8-2.8-6.4-4.4-10.6-4.5zm-.3 21.6h-.1c-1.2 0-2.2-.3-3.1-.9-.3-.2-.6-.4-.9-.7-1.1-1.1-1.7-2.4-1.7-4v-.4c.1-1.4.6-2.6 1.6-3.6 1.1-1.1 2.4-1.7 4-1.7h.1c1.5 0 2.8.6 3.9 1.6 1 1.1 1.6 2.3 1.7 3.8v.2c0 1.4-.4 2.6-1.3 3.6l-.1.1-.1.1-.2.2-.1.1c-.9.9-1.9 1.4-3.1 1.5-.1.1-.3.1-.6.1zm0-10.2h-.1c-1.3 0-2.3.4-3.2 1.3-.8.8-1.2 1.8-1.3 2.9v.1.2c0 1.3.4 2.3 1.3 3.2.2.2.5.4.7.6.7.5 1.6.7 2.5.7h.1.6c.9-.1 1.7-.5 2.4-1.2l.1-.1.2-.2s0-.1.1-.1c.7-.8 1-1.8 1-2.9v-.2c0-1.2-.5-2.1-1.3-3-.9-.9-1.9-1.3-3.1-1.3zm128.7-26.3c-1 0-1.8-.4-2.5-1.3-.6-.8-.9-1.8-.9-3s.3-2.2.9-3c.7-.9 1.5-1.3 2.5-1.3s1.8.4 2.5 1.3a4.91 4.91 0 0 1 1 3c0 1.2-.3 2.2-1 3s-1.5 1.3-2.5 1.3zm0-7.6c-.6 0-1.1.3-1.6.9s-.7 1.4-.7 2.3.2 1.7.7 2.3 1 .9 1.6.9 1.1-.3 1.6-.9.7-1.4.7-2.3-.2-1.7-.7-2.3c-.4-.6-.9-.9-1.6-.9zm-257.9 7.6c-1 0-1.9-.4-2.6-1.1s-1.1-1.6-1.1-2.6.4-1.9 1.1-2.6 1.6-1.1 2.6-1.1 1.9.4 2.6 1.1 1.1 1.6 1.1 2.6-.4 1.9-1.1 2.6-1.6 1.1-2.6 1.1zm0-6.2c-.7 0-1.3.2-1.8.7s-.7 1.1-.7 1.8.2 1.3.7 1.8 1.1.7 1.8.7 1.3-.2 1.8-.7.7-1.1.7-1.8-.2-1.3-.7-1.8-1.1-.7-1.8-.7zm212 4.9c-.9 0-1.8-.3-2.4-1-.7-.7-1-1.5-1-2.4s.3-1.8 1-2.4c.7-.7 1.5-1 2.4-1s1.8.3 2.4 1c.7.7 1 1.5 1 2.4s-.3 1.8-1 2.4-1.5 1-2.4 1zm0-5.8a2.34 2.34 0 0 0-1.7.7c-.4.5-.7 1-.7 1.7a2.34 2.34 0 0 0 .7 1.7c.5.5 1 .7 1.6.7s1.2-.2 1.6-.7a2.19 2.19 0 0 0 .7-1.7 2.34 2.34 0 0 0-.7-1.7c-.4-.5-.9-.7-1.5-.7zm-166 5.8c-1 0-1.9-.3-2.6-.9s-1.1-1.4-1.1-2.3.4-1.7 1.1-2.3 1.6-.9 2.6-.9 1.9.3 2.6.9 1.1 1.4 1.1 2.3-.4 1.7-1.1 2.3c-.7.5-1.6.9-2.6.9zm0-5.4c-.7 0-1.3.2-1.8.6s-.7.9-.7 1.5.2 1 .7 1.5 1.1.7 1.8.7 1.3-.2 1.8-.7c.5-.4.7-.9.7-1.5s-.2-1.1-.7-1.5c-.4-.4-1-.6-1.8-.6zm117.6-42.4c-.9 0-1.6-.3-2.3-.9-.6-.6-.9-1.4-.9-2.3s.3-1.6.9-2.3 1.4-.9 2.3-.9 1.6.3 2.3.9c.6.6.9 1.4.9 2.3s-.3 1.6-.9 2.3c-.7.6-1.4.9-2.3.9zm0-5.3c-.6 0-1.1.2-1.5.6s-.6.9-.6 1.5.2 1.1.6 1.5.9.6 1.5.6 1.1-.2 1.5-.6.6-.9.6-1.5-.2-1.1-.6-1.5-.9-.6-1.5-.6zm-69.4 4.5c-.9 0-1.6-.3-2.2-.8s-1-1.2-1-2 .3-1.4 1-2c.6-.5 1.4-.8 2.2-.8.9 0 1.6.3 2.2.8.6.6 1 1.2 1 2s-.3 1.4-1 2c-.6.5-1.4.8-2.2.8zm0-4.5c-.6 0-1.1.2-1.5.5s-.6.7-.6 1.1.2.8.6 1.1c.4.4.9.5 1.5.5s1.1-.2 1.5-.5.6-.7.6-1.1-.2-.8-.6-1.2c-.4-.2-.9-.4-1.5-.4zm128.8-5.3c-1.1 0-2-.4-2.8-1.2a4.17 4.17 0 0 1-1.1-2.9c0-1.1.4-2.1 1.1-2.9.8-.8 1.7-1.2 2.8-1.2s2 .4 2.7 1.2 1.1 1.8 1.1 2.9-.4 2.1-1.1 2.9-1.6 1.2-2.7 1.2zm0-7c-.8 0-1.4.3-1.9.8-.5.6-.8 1.3-.8 2.1s.3 1.5.8 2.1 1.2.9 1.9.9a2.32 2.32 0 0 0 1.9-.9c.6-.6.8-1.3.8-2.1s-.3-1.5-.8-2.1-1.1-.8-1.9-.8zm-188.3 7c-1.1 0-2-.4-2.7-1.2-.7-.7-1.1-1.7-1.1-2.7 0-1.1.4-2 1.1-2.8.8-.8 1.7-1.1 2.7-1.1a3.69 3.69 0 0 1 2.7 1.1c.7.8 1.1 1.7 1.1 2.8a3.69 3.69 0 0 1-1.1 2.7c-.7.8-1.6 1.2-2.7 1.2zm0-6.7c-.8 0-1.4.3-2 .8-.5.6-.8 1.2-.8 2s.3 1.4.8 2 1.2.8 2 .8 1.4-.3 1.9-.8.8-1.2.8-2-.3-1.4-.8-2c-.5-.5-1.1-.8-1.9-.8zm128.4-29.1c-1.1 0-2.1-.3-2.9-1s-1.2-1.5-1.2-2.5.4-1.8 1.2-2.5 1.8-1 2.9-1 2.1.3 2.8 1c.8.7 1.2 1.5 1.2 2.5s-.4 1.8-1.3 2.5c-.6.7-1.6 1-2.7 1zm0-5.8c-.9 0-1.6.2-2.2.7-.5.5-.8 1-.8 1.6s.3 1.2.8 1.6c.6.5 1.3.7 2.2.7.8 0 1.5-.2 2.1-.7s.9-1 .9-1.6-.3-1.1-.8-1.6c-.6-.4-1.3-.7-2.2-.7zM167 78.1a2.61 2.61 0 0 1-2.1-1.1c-.6-.7-.8-1.6-.8-2.5s.3-1.8.8-2.5c.6-.7 1.3-1.1 2.1-1.1a2.61 2.61 0 0 1 2.1 1.1c.6.7.8 1.6.8 2.5s-.3 1.8-.8 2.5c-.5.8-1.3 1.1-2.1 1.1zm0-6.2c-.5 0-.9.2-1.3.7s-.6 1.1-.6 1.9c0 .7.2 1.4.6 1.9s.8.7 1.3.7.9-.2 1.3-.7.6-1.1.6-1.9c0-.7-.2-1.4-.6-1.9s-.8-.7-1.3-.7z"/></svg>