<?xml version="1.0" encoding="utf-8"?>
<!-- Generator: Adobe Illustrator 25.0.0, SVG Export Plug-In . SVG Version: 6.00 Build 0)  -->
<svg version="1.1" id="Layer_1" xmlns="http://www.w3.org/2000/svg" xmlns:xlink="http://www.w3.org/1999/xlink" x="0px" y="0px"
	 viewBox="0 0 512 512" style="enable-background:new 0 0 512 512;" xml:space="preserve">
<style type="text/css">
	.st0{fill:#A78849;}
</style>
<g>
	<path class="st0" d="M100.7,28.6c5.8,0,11.6,2.1,16.4,5.9l70.5,70.9c5.4,5.4,7.5,12.8,5.6,19.9c-0.9,3.4-3.5,9.4-11,11.6l-0.9,0.3
		l-0.9,0.3c-37.8,13.6-59.3,54.5-47.7,90.1c15.5,62.6,88.9,136.1,152,152l0.5,0.1l0.5,0.1c5,1.1,10.2,1.6,15.4,1.6
		c32.2,0,62-20.6,72.5-50l0.3-0.9l0.2-0.9c2.5-8.6,10.1-11.7,16.4-11.7c3.8,0,9.4,1.1,14.6,6.3l71.5,71.9c6.2,6.2,7.1,19.2-2,29.6
		L427.4,473l-0.2,0.2l-0.2,0.2c-6.5,6.7-16.8,10.1-30.8,10.1c-26.7,0-63.2-12.4-102.8-35c-43.1-24.5-87.9-59.7-129.6-101.6
		c-54.6-54.9-96.7-114.9-118.3-168.9c-9.7-24.1-14.8-46.2-14.9-64c-0.1-14.7,3.2-25.7,9.7-32.9l47.3-47.5
		C91.8,29.2,97.6,28.6,100.7,28.6 M100.7,0.5c-12.3,0-24.2,4.4-33,13.2L20.1,61.6c-47.6,51.1,4.8,185.3,123.9,305
		c89.5,90,188,144.9,252.3,144.9c21.3,0,38.8-6,51-18.7l47.6-47.9c19.1-20.8,19.1-51.1,1.6-68.7l-71.5-71.9
		c-9.8-9.9-22.3-14.5-34.5-14.5c-19.2,0-37.5,11.6-43.4,32.1c-6.8,19.2-26.5,31.3-46.1,31.3c-3.2,0-6.4-0.3-9.5-1
		c-50.8-12.8-119.1-78.3-131.8-132.6c-7.9-22.4,7.9-47.9,30.2-55.9c33.4-9.6,42.9-52.7,17.5-78.3L136,13.7
		C125.7,4.9,113,0.5,100.7,0.5L100.7,0.5z"/>
</g>
</svg>
