<svg xmlns="http://www.w3.org/2000/svg" version="1.1" xmlns:xlink="http://www.w3.org/1999/xlink" width="512" height="512" x="0" y="0" viewBox="0 0 66 66" style="enable-background:new 0 0 512 512" xml:space="preserve" class=""><g><path d="M14 54.1h36.3v2H14zM51.3 27.6h-2V8.1c0-2.9-2.2-5.1-5.1-5.1H20.1C17.3 3 15 5.3 15 8.1v6.4h-2V8.1C13 4.2 16.2 1 20.1 1h24.1c4 0 7.1 3.1 7.1 7.1z" fill="#b2965c" opacity="1" data-original="#000000" class=""></path><path d="M44.2 65H20.1c-4 0-7.1-3.1-7.1-7.1V36.8h2v21.1c0 2.9 2.2 5.1 5.1 5.1h24.1c2.9 0 5.1-2.2 5.1-5.1V46h2v11.9c0 4-3.1 7.1-7.1 7.1zM14 7.8h36.3v2H14zM32.2 5.4c-.6 0-1-.4-1-1V2c0-.6.4-1 1-1s1 .4 1 1v2.4c0 .6-.4 1-1 1zM37.3 5.4c-.6 0-1-.4-1-1V2c0-.6.4-1 1-1s1 .4 1 1v2.4c0 .6-.4 1-1 1zM27.3 5.4c-.6 0-1-.4-1-1V2c0-.6.4-1 1-1s1 .4 1 1v2.4c0 .6-.4 1-1 1z" fill="#b2965c" opacity="1" data-original="#000000" class=""></path><path d="M35.2 60.4h-6c-.6 0-1-.4-1-1s.4-1 1-1h6c.6 0 1 .4 1 1s-.4 1-1 1zM60.1 47H35.2c-2.2 0-4-1.8-4-4V29.6c0-1.1.5-2.2 1.3-3 .8-.7 1.8-1.1 2.8-1h24.8c2.2 0 4 1.8 4 4V43c0 2.2-1.8 4-4 4zm-25-19.4c-.6 0-1 .3-1.2.5-.4.4-.6.9-.6 1.5V43c0 1.1.9 2 2 2h24.9c1.1 0 2-.9 2-2V29.6c0-1.1-.9-2-2-2h-25zM14 37.8c-6.7 0-12.1-5.4-12.1-12.1S7.3 13.6 14 13.6 26.1 19 26.1 25.7 20.7 37.8 14 37.8zm0-22.2c-5.6 0-10.1 4.5-10.1 10.1S8.4 35.8 14 35.8s10.1-4.5 10.1-10.1S19.6 15.6 14 15.6z" fill="#b2965c" opacity="1" data-original="#000000" class=""></path><path d="M16.9 26.6h-5.8c-1.2 0-2.3-1.1-2.3-2.3v-2.4c0-1.2 1.1-2.3 2.3-2.3h5.8c1.2 0 2.3 1.1 2.3 2.3 0 .6-.4 1-1 1s-1-.4-1-1c0-.1-.2-.3-.3-.3h-5.8c-.1 0-.3.2-.3.3v2.4c0 .1.2.3.3.3h5.8c.6 0 1 .4 1 1s-.4 1-1 1z" fill="#b2965c" opacity="1" data-original="#000000" class=""></path><path d="M16.9 31.7h-5.8c-1.2 0-2.3-1.1-2.3-2.3 0-.6.4-1 1-1s1 .4 1 1c0 .1.2.3.3.3h5.8c.1 0 .3-.2.3-.3v-2.5c0-.1-.2-.3-.3-.3-.6 0-1-.4-1-1s.4-1 1-1c1.2 0 2.3 1.1 2.3 2.3v2.5c0 1.2-1.1 2.3-2.3 2.3zM14.3 21.6c-.6 0-1-.4-1-1v-2.2c0-.6.4-1 1-1s1 .4 1 1v2.2c0 .6-.4 1-1 1z" fill="#b2965c" opacity="1" data-original="#000000" class=""></path><path d="M14.3 33.9c-.6 0-1-.4-1-1v-2.2c0-.6.4-1 1-1s1 .4 1 1v2.2c0 .6-.4 1-1 1zM32.2 31.8h30.9M63.1 32.8H32.2c-.6 0-1-.4-1-1s.4-1 1-1h30.9c.6 0 1 .4 1 1s-.4 1-1 1zM49.4 37.7H36.6c-.6 0-1-.4-1-1s.4-1 1-1h12.8c.6 0 1 .4 1 1s-.4 1-1 1zM37.9 42.8c-.6 0-1-.4-1-1v-1.2c0-.6.4-1 1-1s1 .4 1 1v1.2c0 .6-.4 1-1 1zM41.1 42.8c-.6 0-1-.4-1-1v-1.2c0-.6.4-1 1-1s1 .4 1 1v1.2c0 .6-.4 1-1 1zM44.2 42.8c-.6 0-1-.4-1-1v-1.2c0-.6.4-1 1-1s1 .4 1 1v1.2c0 .6-.4 1-1 1z" fill="#b2965c" opacity="1" data-original="#000000" class=""></path></g></svg>