<?xml version="1.0" encoding="utf-8"?>
<!-- Generator: Adobe Illustrator 25.0.0, SVG Export Plug-In . SVG Version: 6.00 Build 0)  -->
<svg version="1.1" id="Layer_1" xmlns="http://www.w3.org/2000/svg" xmlns:xlink="http://www.w3.org/1999/xlink" x="0px" y="0px"
	 viewBox="0 0 512 512" style="enable-background:new 0 0 512 512;" xml:space="preserve">
<style type="text/css">
	.st0{fill:#A78849;}
</style>
<g>
	<path class="st0" d="M226.3,475.5h47c7.5,0,12.9-5.4,12.9-12.9c0-7.5-5.4-12.9-12.9-12.9h-47c-7.5,0-12.9,5.4-12.9,12.9
		C213.4,470.1,218.8,475.5,226.3,475.5z"/>
	<path class="st0" d="M468.1,193h-63.8V61.1c0-34-26.6-60.6-60.6-60.6H155c-33.4,0-60.6,27.2-60.6,60.6v38.8
		c-23.1,3-44.4,13.9-60.4,31.1C17,149.5,7.5,173.6,7.5,198.9c0,25.3,9.4,49.4,26.5,67.8c15.9,17.2,37.2,28.2,60.4,31.1v153.1
		c0,34,26.6,60.6,60.6,60.6h188.6c34,0,60.6-26.6,60.6-60.6v-80.3h63.8c20,0,36.4-16.3,36.4-36.4V229.4
		C504.5,209.3,488.1,193,468.1,193z M181.3,198.9c0,40.8-33.2,74-74,74s-74-33.2-74-74c0-40.8,33.2-74,74-74
		S181.3,158.1,181.3,198.9z M211.4,45c7.5,0,12.9-5.4,12.9-12.9v-5.9h12.6v5.9c0,7.5,5.4,12.9,12.9,12.9c7.5,0,12.9-5.4,12.9-12.9
		v-5.9h14.2v5.9c0,7.5,5.4,12.9,12.9,12.9c7.5,0,12.9-5.4,12.9-12.9v-5.9h41.1c17.3,0,31,11.3,34.2,27.5H121
		c3.4-15.8,17.5-27.5,34.1-27.5h43.5v5.9C198.5,39.6,203.9,45,211.4,45z M263.4,229.4c0-3.4,1-6,3.2-8.2c1.1-1.1,3-2.4,5.8-2.4
		h196.5c5.9,0,10.6,4.8,10.6,10.6v4.3H263.4V229.4z M479.5,334.3c0,5.9-4.8,10.6-10.6,10.6H274c-5.8,0-10.6-4.8-10.6-10.6v-74.8
		h216.1V334.3z M120.2,297.8c23.1-3,44.4-13.9,60.4-31.1c17.1-18.5,26.5-42.5,26.5-67.8c0-25.3-9.4-49.4-26.5-67.8
		c-15.9-17.2-37.2-28.1-60.4-31.1V79.5h258.4V193H274.2c-8.8-0.8-17.9,2.4-25.5,9.1l-0.2,0.2c-7.4,7.4-11.7,17.3-11.7,27v104.9
		c0,20,16.3,36.4,36.4,36.4h105.3v45.5H120.2V297.8z M378.5,441.8v9c0,19.9-15,34.9-34.9,34.9H155c-19.9,0-34.9-15-34.9-34.9v-9
		H378.5z"/>
	<path class="st0" d="M383.5,302.6c-7.5,0-12.9,5.4-12.9,12.9v9.4c0,7.5,5.4,12.9,12.9,12.9c7.5,0,12.9-5.4,12.9-12.9v-9.4
		C396.4,308,391,302.6,383.5,302.6z"/>
	<path class="st0" d="M284.2,297.8h100.2c7.5,0,12.9-5.4,12.9-12.9c0-7.5-5.4-12.9-12.9-12.9H284.2c-7.5,0-12.9,5.4-12.9,12.9
		C271.3,292.4,276.7,297.8,284.2,297.8z"/>
	<path class="st0" d="M125.2,174.9c1,5.3,5.4,9,11.2,9c6.6,0,11.4-4.8,11.4-11.4c0-10.9-9.5-20.4-20.4-20.4h-6.6v-3.8
		c0-6.6-4.8-11.4-11.4-11.4c-6.6,0-11.4,4.8-11.4,11.4v3.8H87.2c-10.9,0-20.4,9.5-20.4,20.4v16.6c0,10.9,9.5,20.4,20.4,20.4l37.8,0
		v12.5H89.4c-1-5.3-5.4-9-11.2-9c-6.6,0-11.4,4.8-11.4,11.4c0,10.9,9.5,20.4,20.4,20.4H98v3.8c0,6.6,4.8,11.4,11.4,11.4
		c6.6,0,11.4-4.8,11.4-11.4v-3.8h6.6c10.9,0,20.4-9.5,20.4-20.4v-17.3c0-10.3-8.7-19.6-19.1-20.3c-0.5,0-0.9-0.1-1.3-0.1H89.6v-11.9
		H125.2z"/>
	<path class="st0" d="M339.1,302.6c-7.5,0-12.9,5.4-12.9,12.9v9.4c0,7.5,5.4,12.9,12.9,12.9c7.5,0,12.9-5.4,12.9-12.9v-9.4
		C351.9,308,346.5,302.6,339.1,302.6z"/>
	<path class="st0" d="M294.4,302.6c-7.5,0-12.9,5.4-12.9,12.9v9.4c0,7.5,5.4,12.9,12.9,12.9c7.5,0,12.9-5.4,12.9-12.9v-9.4
		C307.2,308,301.8,302.6,294.4,302.6z"/>
</g>
</svg>
