<?xml version="1.0" encoding="utf-8"?>
<!-- Generator: Adobe Illustrator 25.0.0, SVG Export Plug-In . SVG Version: 6.00 Build 0)  -->
<svg version="1.1" id="Layer_1" xmlns="http://www.w3.org/2000/svg" xmlns:xlink="http://www.w3.org/1999/xlink" x="0px" y="0px"
	 viewBox="0 0 512 512" style="enable-background:new 0 0 512 512;" xml:space="preserve">
<style type="text/css">
	.st0{fill:#A78849;}
</style>
<g>
	<path class="st0" d="M439.3,486h-10V335.9c0-7.4-5.4-12.7-12.7-12.7c-7.4,0-12.7,5.4-12.7,12.7V486h-35.6V365.6
		c0-17-14.1-30.7-31.5-30.7h-72.8c-17.5,0-30.8,13.2-30.8,30.7V486H52.7V306.2c1.2,0.1,2.5,0.1,3.7,0.1c16.4,0,32.4-7.9,43.1-20.9
		c10.7,13,26.6,20.9,43.1,20.9c16.2,0,32-7.7,42.7-20.4c10.7,12.7,26.5,20.4,42.7,20.4c16.4,0,32.4-7.9,43.1-20.9
		c10.7,13,26.6,20.9,43.1,20.9c11.3,0,22.5-3.8,32.5-11c2.7-1.7,4.5-4.4,5.1-7.6c0.7-3.5-0.1-7.4-2.2-10.2c-1.7-2.7-4.4-4.5-7.6-5.1
		c-3.6-0.7-7.5,0.2-10.4,2.3c-5.3,4-11.3,6.1-17.4,6.1c-16.2,0-30.3-14.2-30.3-30.3v-13.9h23.3c7.4,0,12.7-5.4,12.7-12.7
		s-5.4-12.7-12.7-12.7h-24.8l-11-70.8c7.3-0.1,12.5-5.4,12.5-12.7c0-7.4-5.4-12.7-12.7-12.7H256c-1.4,0-2.7,0.3-4.1,0.8h-45.6
		c-2-1-4.3-1.6-6.7-1.6h-56.4c-1.6,0-3.1,0.3-4.4,0.8H98.7c-12.6,0-23.5,5.5-29.1,14.7l-65,84.9c-1.8,1.6-3,3.8-3.6,6.3
		c-0.4,1.4-0.5,2.9-0.4,4.3v25.6c0,19,10.1,36.8,26.6,47.2V486H16.4c-7.4,0-12.7,5.4-12.7,12.7c0,7.4,5.4,12.7,12.7,12.7h422.8
		c7.4,0,12.7-5.4,12.7-12.7C452,491.4,446.6,486,439.3,486z M342.7,365.6V486h-84.1V365.6c0-3.5,1.7-5.3,5.3-5.3h72.8
		C341.2,360.4,342.7,363.9,342.7,365.6z M38.9,211.1L90,143.9l0.2-0.2c2.1-3.1,7.4-3.3,8.4-3.3h24.5l-32.3,70.8H38.9z M172.3,255.8
		c-2.7,14.1-15.7,25.1-29.8,25.1c-16.2,0-30.3-14.2-30.3-30.3v-13.9H172v13.9C172,252.3,172.1,254,172.3,255.8z M119.5,211.1
		l3.5-7.8l28.7-63h32.8l-11,70.8H119.5z M199.9,211.1l11-70.8H245l9.3,57.6l1.9,13.2H199.9z M258.2,236.6v13.9
		c0,16.2-14.2,30.3-30.3,30.3c-14.1,0-27.1-10.9-29.8-25c0.2-1.7,0.3-3.5,0.3-5.3v-13.9H258.2z M56.4,280.8
		c-16.2,0-30.3-14.2-30.3-30.3v-13.9h60.6v13.9C86.7,266.7,72.5,280.8,56.4,280.8z"/>
	<path class="st0" d="M399.3,319.6c11.8,0,22.7-6.1,29.2-16.4l0.1-0.2c37.8-65.4,82.9-151.6,82.9-191.2
		c0-60.4-51.4-111.4-112.2-111.4c-61.4,0-111.4,50-111.4,111.4c0,39.5,45,125.8,82.8,191.1C376.4,313.3,387.3,319.6,399.3,319.6z
		 M313.4,111.9c0-47.4,38.5-85.9,85.9-85.9c47,0,86.7,39.3,86.7,85.9c0,26.4-28.9,91.5-79.2,178.4c-1.1,1.8-3.1,3.9-6.8,3.9
		c-3.7,0-5.7-2.1-6.7-3.8C342.6,203.8,313.4,138.8,313.4,111.9z"/>
	<path class="st0" d="M452.4,164.2c13.9-13.9,21.5-32.4,21.5-52.3s-7.6-38.5-21.5-52.3S420,38.1,400.1,38.1
		c-19.9,0-38.4,7.6-52.3,21.5c-13.9,13.9-21.5,32.4-21.5,52.3s7.6,38.5,21.5,52.3c13.9,13.9,32.4,21.5,52.3,21.5
		C420,185.7,438.5,178.1,452.4,164.2z M448.4,111.9c0,26.2-22.1,48.3-48.3,48.3c-26.2,0-48.3-22.1-48.3-48.3
		c0-26.7,21.7-48.3,48.3-48.3C426.3,63.6,448.4,85.7,448.4,111.9z"/>
	<path class="st0" d="M99.4,338.8c-15.9,0-28.4,12.5-28.4,28.4v57.9c0,15.9,12.5,28.4,28.4,28.4H184c15.9,0,28.4-12.5,28.4-28.4
		v-57.9c0-15.9-12.5-28.4-28.4-28.4H99.4z M186.9,367.2v57.9c0,2-0.9,2.9-2.9,2.9H99.4c-2,0-2.9-0.9-2.9-2.9v-57.9
		c0-2,0.9-2.9,2.9-2.9H184C186,364.3,186.9,365.2,186.9,367.2z"/>
</g>
</svg>
