<svg xmlns="http://www.w3.org/2000/svg" version="1.1" xmlns:xlink="http://www.w3.org/1999/xlink" width="512" height="512" x="0" y="0" viewBox="0 0 64 64" style="enable-background:new 0 0 512 512" xml:space="preserve" class=""><g><path d="M52.5 64H4.4c-.6 0-1-.4-1-1V36.5c0-.6.4-1 1-1s1 .4 1 1V62h46.1V42.2c0-.6.4-1 1-1s1 .4 1 1V63c0 .6-.4 1-1 1zM22.9 28.9H12c-.3 0-.7-.2-.8-.5s-.2-.6-.1-1l5.6-12.3c.2-.4.5-.6.9-.6h7.2c.3 0 .6.1.8.3s.3.5.2.8l-1.9 12.3c-.1.6-.5 1-1 1zm-9.3-2H22l1.6-10.3h-5.4zM38.5 28.9h-4.6c-.5 0-.9-.4-1-.9l-.5-3.5-1.4-8.7c0-.3 0-.6.2-.8s.5-.4.8-.4h1.9c.6 0 1 .4 1 1s-.4 1-1 1h-.7l1.6 10.3h3.7c.6 0 1 .4 1 1s-.4 1-1 1z" fill="#b2965c" opacity="1" data-original="#000000" class=""></path><path d="M12 28.9H1c-.4 0-.7-.2-.9-.6s-.1-.7.1-1l8.5-11.1c.6-1 1.8-1.6 3.2-1.6h5.7c.3 0 .7.2.8.5s.2.6.1 1l-5.6 12.3c-.2.3-.5.5-.9.5zm-9-2h8.3L16 16.6h-4.1c-.4 0-1.2.1-1.6.7zM33.9 28.9h-11c-.3 0-.6-.1-.8-.3s-.3-.5-.2-.8l1.9-12.3c.1-.5.5-.8 1-.8H32c.5 0 .9.4 1 .8l1.9 12.3c0 .3 0 .6-.2.8s-.5.3-.8.3zm-9.8-2h8.7l-1.6-10.3h-5.5z" fill="#b2965c" opacity="1" data-original="#000000" class=""></path><path d="M17.5 37.8c-3.5 0-6.5-3-6.5-6.5v-3.4c0-.6.4-1 1-1h11c.6 0 1 .4 1 1v3.4c0 3.5-3 6.5-6.5 6.5zM13 28.9v2.4c0 2.4 2.1 4.5 4.5 4.5s4.5-2.1 4.5-4.5v-2.4zM39.4 37.8c-3.5 0-6.5-3-6.5-6.5v-3.4c0-.6.4-1 1-1h4.6c.6 0 1 .4 1 1s-.4 1-1 1h-3.6v2.4c0 2.4 2.1 4.5 4.5 4.5.9 0 1.8-.3 2.6-.9.4-.3 1.1-.3 1.4.2.3.4.3 1.1-.2 1.4-1.1.8-2.4 1.3-3.8 1.3z" fill="#b2965c" opacity="1" data-original="#000000" class=""></path><path d="M6.5 37.8c-3.5 0-6.5-3-6.5-6.5v-3.4c0-.6.4-1 1-1h11c.6 0 1 .4 1 1v3.4c0 3.5-3 6.5-6.5 6.5zM2 28.9v2.4c0 2.4 2.1 4.5 4.5 4.5s4.5-2.1 4.5-4.5v-2.4zM28.4 37.8c-3.5 0-6.5-3-6.5-6.5v-3.4c0-.6.4-1 1-1h11c.6 0 1 .4 1 1v3.4c0 3.5-3 6.5-6.5 6.5zm-4.5-8.9v2.4c0 2.4 2.1 4.5 4.5 4.5s4.5-2.1 4.5-4.5v-2.4zM44.7 64h-14c-.6 0-1-.4-1-1V46c0-1.9 1.4-3.3 3.3-3.3h9.3c1.9 0 3.4 1.5 3.4 3.3v17c0 .6-.4 1-1 1zm-13-2h12V46c0-.6-.5-1.3-1.4-1.3H33c-.8 0-1.3.5-1.3 1.3z" fill="#b2965c" opacity="1" data-original="#000000" class=""></path><path d="M41.4 53.4H34c-.6 0-1-.4-1-1v-4.7c0-.6.4-1 1-1h7.4c.6 0 1 .4 1 1v4.7c0 .6-.4 1-1 1zm-6.4-2h5.4v-2.7H35zM55.4 64h-54c-.6 0-1-.4-1-1s.4-1 1-1h54c.6 0 1 .4 1 1s-.4 1-1 1zM50.3 39.5c-1.3 0-2.5-.7-3.1-1.8-4.8-8.3-10.5-19.2-10.5-24.1C36.7 6.1 42.8 0 50.3 0 57.7 0 64 6.2 64 13.6c0 4.9-5.7 15.8-10.5 24.1-.7 1.1-1.9 1.8-3.2 1.8zm0-37.5c-6.4 0-11.6 5.2-11.6 11.6 0 3.5 3.6 11.7 10.3 23.1.3.5.8.8 1.4.8s1.1-.3 1.4-.8C58.4 25.3 62 17.1 62 13.6 62 7.3 56.6 2 50.3 2z" fill="#b2965c" opacity="1" data-original="#000000" class=""></path><path d="M50.4 22.4c-4.9 0-8.8-3.9-8.8-8.8s3.9-8.8 8.8-8.8 8.8 3.9 8.8 8.8-3.9 8.8-8.8 8.8zm0-15.6c-3.8 0-6.8 3.1-6.8 6.8s3.1 6.8 6.8 6.8 6.8-3.1 6.8-6.8-3.1-6.8-6.8-6.8zM22.8 56.6H12c-1.7 0-3-1.3-3-3v-7.4c0-1.7 1.3-3 3-3h10.8c1.7 0 3 1.3 3 3v7.4c0 1.7-1.3 3-3 3zM12 45.2c-.6 0-1 .4-1 1v7.4c0 .6.4 1 1 1h10.8c.6 0 1-.4 1-1v-7.4c0-.6-.4-1-1-1zM33.9 58.8c-.6 0-1-.4-1-1v-1.3c0-.6.4-1 1-1s1 .4 1 1v1.3c0 .6-.4 1-1 1z" fill="#b2965c" opacity="1" data-original="#000000" class=""></path></g></svg>