<svg width="45" height="44" viewBox="0 0 45 44" fill="none" xmlns="http://www.w3.org/2000/svg">
<path d="M35.2678 38.7408C35.1541 38.7408 35.0412 38.6877 34.9703 38.5895C34.8589 38.4375 34.8803 38.2264 35.019 38.0994L35.7372 37.4441L34.5149 38.1496C34.3459 38.2471 34.1304 38.1969 34.0227 38.0338C33.9149 37.8714 33.9526 37.6529 34.1083 37.5356L34.2219 37.45L33.7621 37.7149C33.5924 37.8138 33.3747 37.7607 33.2676 37.5961C33.1606 37.4315 33.2027 37.2116 33.3621 37.0957L33.9407 36.6802L32.92 37.2691C32.7517 37.3688 32.5355 37.3164 32.427 37.1525C32.3192 36.9894 32.3584 36.7702 32.5148 36.6536L35.9409 34.1051L31.0321 36.9392C30.8601 37.0389 30.6431 36.985 30.5361 36.8182C30.4298 36.6514 30.4741 36.4315 30.6357 36.3178L34.0013 33.959L27.2665 37.8478C27.0931 37.9489 26.8717 37.8928 26.7669 37.7208C26.6621 37.5489 26.7137 37.3267 26.882 37.2175L27.6444 36.7274L25.6605 37.8721C25.4893 37.9732 25.2701 37.9179 25.1638 37.7504C25.0575 37.5821 25.1033 37.3621 25.2664 37.2492L31.6048 32.8718L24.059 37.2278C23.8855 37.3289 23.6648 37.2721 23.56 37.1016C23.4552 36.9311 23.5054 36.709 23.6722 36.599L26.8495 34.5273L23.4058 36.5149C23.2338 36.6152 23.0154 36.5606 22.9091 36.3923C22.8028 36.2241 22.8493 36.0034 23.0131 35.8912L29.4165 31.5042L23.3585 35.0011C23.1851 35.1015 22.9644 35.0454 22.8596 34.8749C22.7548 34.7044 22.805 34.4823 22.9718 34.3723L25.5122 32.7154L23.3261 33.9774C23.1526 34.0771 22.9342 34.0224 22.8286 33.8534C22.7231 33.6844 22.7703 33.463 22.9356 33.3516L27.5175 30.2665L23.2877 32.7087C23.115 32.8084 22.895 32.7537 22.7895 32.584C22.684 32.4142 22.7327 32.1928 22.898 32.0821L26.4067 29.7432L23.2515 31.5647C23.0781 31.6651 22.8596 31.609 22.7541 31.4407C22.6485 31.2717 22.6958 31.0503 22.8611 30.9389L26.4916 28.4959L23.2161 30.3868C23.0471 30.4872 22.8271 30.4326 22.7209 30.2665C22.6139 30.1004 22.6574 29.8805 22.8183 29.7661L27.9241 26.1474L23.1696 28.8922C22.9962 28.9926 22.7762 28.9373 22.6707 28.7668C22.5659 28.5978 22.6153 28.3749 22.7814 28.2649L23.3357 27.8988L23.1416 28.0103C22.9703 28.1106 22.7511 28.056 22.6448 27.887C22.5386 27.7187 22.5851 27.4981 22.7497 27.3859L24.5992 26.1245L23.1098 26.9836C22.9489 27.0789 22.7371 27.0346 22.6264 26.8796C22.5157 26.7261 22.5393 26.5135 22.681 26.388L25.0841 24.2602L23.0618 25.4271C22.8847 25.5289 22.6589 25.4692 22.5578 25.292C22.4552 25.1156 22.5157 24.8898 22.6928 24.7879L27.8821 21.7922C28.0452 21.6962 28.2563 21.7427 28.3655 21.8962C28.4762 22.0498 28.4526 22.2623 28.3109 22.3878L25.9093 24.5141L32.7517 20.5641C32.9252 20.4644 33.1422 20.5183 33.2484 20.6873C33.3547 20.8556 33.3082 21.0763 33.1436 21.1885L31.2933 22.4505L33.6559 21.0866C33.8278 20.9855 34.0485 21.0408 34.1548 21.2121C34.2596 21.3811 34.2101 21.604 34.0441 21.7139L33.4905 22.0793L34.419 21.5435C34.588 21.4438 34.808 21.4977 34.9142 21.6638C35.0213 21.8298 34.9777 22.0498 34.8168 22.1642L29.711 25.7828L35.4294 22.4815C35.6014 22.3811 35.8206 22.4365 35.9268 22.6055C36.0324 22.7745 35.9851 22.9959 35.8198 23.1074L32.1886 25.5511L35.9608 23.3731C36.1335 23.272 36.3527 23.3273 36.459 23.4978C36.5645 23.6668 36.5158 23.889 36.3505 23.9997L32.844 26.3371L36.4088 24.2794C36.5815 24.1783 36.8 24.2344 36.9062 24.4034C37.0118 24.5724 36.9645 24.7938 36.7992 24.9053L32.2137 27.9926L36.9048 25.2846C37.0789 25.1843 37.2989 25.2404 37.4037 25.4109C37.5085 25.5813 37.4583 25.8035 37.2915 25.9135L34.7511 27.5704L37.338 26.0773C37.5114 25.9769 37.7284 26.0323 37.8347 26.1998C37.941 26.3681 37.8945 26.5888 37.7306 26.701L31.3303 31.0857L38.2584 27.0862C38.4325 26.9859 38.6532 27.0419 38.7573 27.2124C38.8621 27.3822 38.8119 27.6051 38.6451 27.7151L35.4582 29.7927L39.1484 27.6626C39.3211 27.563 39.5396 27.6176 39.6451 27.7844C39.7514 27.9527 39.7057 28.1726 39.5426 28.2856L33.2093 32.6593L40.5124 28.4428C40.6858 28.3417 40.9072 28.3977 41.012 28.5697C41.1168 28.7417 41.0652 28.9638 40.8969 29.0731L40.1352 29.5631L40.9161 29.1129C41.0851 29.0133 41.305 29.0672 41.412 29.234C41.5183 29.4008 41.474 29.6207 41.3124 29.7344L37.9462 32.0932L41.074 30.2879C41.243 30.1897 41.4593 30.2414 41.567 30.4045C41.6748 30.5676 41.6357 30.7868 41.4792 30.9034L38.0524 33.4519L39.9677 32.3471C40.1367 32.2474 40.3544 32.3006 40.4622 32.4659C40.5692 32.6312 40.5271 32.8504 40.3677 32.9663L39.3145 33.7228C39.4282 33.7287 39.5389 33.7863 39.606 33.8889C39.7138 34.0512 39.6761 34.2697 39.5204 34.387L38.6148 35.0683C38.6872 35.0911 38.7536 35.1369 38.8008 35.2026C38.9123 35.3546 38.8909 35.5657 38.7521 35.6927L37.6229 36.723C37.7078 36.7496 37.7838 36.8064 37.831 36.8905C37.9336 37.0669 37.8731 37.2928 37.696 37.3946L35.4537 38.6899C35.3962 38.7238 35.3327 38.7393 35.2692 38.7393L35.2678 38.7408Z" fill="#DD8F87"/>
<path d="M8.28043 38.7758C8.15644 38.7758 8.03466 38.7123 7.96528 38.5994C7.86048 38.4282 7.91214 38.2053 8.08042 38.0961L8.19556 38.0223L7.51655 38.4134C7.3431 38.5138 7.12316 38.4577 7.01762 38.2872C6.91282 38.1175 6.96301 37.8953 7.12907 37.7854L10.237 35.7483L7.06191 37.5809C6.88846 37.682 6.66779 37.6259 6.56224 37.454C6.45744 37.2842 6.50911 37.0606 6.67591 36.9514L9.1779 35.3299L6.63457 36.7978C6.46261 36.899 6.24414 36.8436 6.13786 36.6753C6.03158 36.507 6.07808 36.2864 6.24119 36.1742L13.2859 31.3444L5.96442 35.5712C5.79098 35.673 5.56883 35.6155 5.46402 35.4435C5.35996 35.2723 5.41236 35.0487 5.58137 34.9402L6.90322 34.098L5.57768 34.8627C5.40645 34.9638 5.18725 34.9084 5.08097 34.7401C4.97469 34.5711 5.02119 34.3505 5.18504 34.2383L12.1213 29.5037L4.92082 33.6604C4.74664 33.7615 4.52596 33.7054 4.42115 33.5334C4.31635 33.3615 4.36801 33.1393 4.53629 33.0301L6.55044 31.7341L4.5112 32.9113C4.33923 33.0124 4.12003 32.9563 4.01375 32.788C3.90821 32.619 3.95544 32.3976 4.12003 32.2861L9.66797 28.5324L3.92961 31.8448C3.75617 31.9459 3.53549 31.8891 3.43069 31.7186C3.32588 31.5481 3.37607 31.3259 3.54287 31.2167L6.33271 29.3893L3.48678 31.0329C3.3126 31.134 3.09266 31.0779 2.98786 30.9067C2.88231 30.7362 2.93324 30.5133 3.10078 30.4041L4.86177 29.2586L3.15539 30.2439C2.98638 30.3436 2.76644 30.2897 2.66016 30.1236C2.55314 29.9568 2.59669 29.7376 2.75832 29.6232L8.62436 25.4798L7.08921 26.3655C6.91799 26.4658 6.69952 26.4112 6.59324 26.2437C6.48696 26.0761 6.53198 25.8562 6.69436 25.7425L7.55197 25.1484C7.43241 25.1418 7.30915 25.0975 7.23461 24.9905C7.12538 24.834 7.15416 24.6192 7.30103 24.496L9.92038 22.3062L9.06277 22.8014C8.88637 22.9033 8.65979 22.8435 8.55868 22.6663C8.45609 22.4899 8.51661 22.2641 8.69374 22.1623L13.2446 19.5348C13.4092 19.4374 13.6225 19.4853 13.7317 19.6425C13.8409 19.7997 13.8121 20.0138 13.6653 20.137L11.0474 22.3254L14.5007 20.3319C14.6727 20.2315 14.8904 20.2861 14.9967 20.4537C15.103 20.6212 15.058 20.8411 14.8956 20.9548L14.4572 21.2581L15.244 20.8042C15.413 20.7046 15.6329 20.7585 15.7392 20.9245C15.8462 21.0913 15.8027 21.3105 15.641 21.4249L9.77573 25.5676L16.5695 21.6464C16.7429 21.5452 16.9636 21.6021 17.0684 21.7726C17.174 21.9431 17.123 22.1659 16.9555 22.2752L15.1975 23.4184L17.3777 22.16C17.5511 22.0589 17.7725 22.1158 17.8766 22.2862C17.9814 22.456 17.9312 22.6789 17.7644 22.7881L14.9738 24.6155L18.2589 22.7195C18.4323 22.6198 18.6508 22.6737 18.7563 22.8427C18.8619 23.0118 18.8147 23.2332 18.6501 23.3446L13.1014 27.0991L19.4154 23.4546C19.5881 23.3542 19.8103 23.4096 19.9151 23.5815C20.0199 23.7535 19.9682 23.9756 19.8 24.0849L17.788 25.3794L20.228 23.9712C20.4007 23.8716 20.6185 23.9262 20.7247 24.0937C20.831 24.262 20.7845 24.4834 20.6207 24.5956L13.683 29.331L21.1676 25.0104C21.3425 24.9093 21.5639 24.9669 21.668 25.1381C21.772 25.3093 21.7196 25.5329 21.5506 25.6414L20.2258 26.4858L21.1698 25.9411C21.3432 25.8407 21.5602 25.8961 21.6665 26.0636C21.7728 26.2319 21.7263 26.4526 21.5632 26.5647L14.5185 31.3946L21.1735 27.553C21.3469 27.4519 21.5676 27.508 21.6731 27.6799C21.7779 27.8497 21.7263 28.0733 21.5595 28.1825L19.0634 29.8004L21.1757 28.5811C21.3491 28.48 21.5683 28.5361 21.6746 28.7073C21.7794 28.8771 21.7292 29.0992 21.5632 29.2092L18.4552 31.2462L21.1779 29.6742C21.3513 29.5738 21.5728 29.6306 21.6776 29.8011C21.7824 29.9723 21.7307 30.1952 21.5624 30.3045L21.2628 30.4971C21.4156 30.4513 21.5853 30.5111 21.6753 30.6513C21.7824 30.8174 21.7403 31.0366 21.5801 31.1517L19.6073 32.5673L21.1838 31.658C21.3506 31.5584 21.5683 31.6108 21.6761 31.7739C21.7838 31.937 21.7462 32.1555 21.5897 32.2728L19.9579 33.4943L21.186 32.7858C21.3484 32.6921 21.5565 32.7349 21.668 32.8869C21.7787 33.0382 21.7587 33.2493 21.6207 33.377L19.3926 35.4258L21.1897 34.3888C21.3454 34.2973 21.544 34.335 21.6591 34.473C21.7735 34.6125 21.7706 34.814 21.6525 34.9498L20.6576 36.093L21.1934 35.7838C21.3691 35.6804 21.5956 35.7417 21.6975 35.9188C21.8001 36.0952 21.7396 36.3211 21.5624 36.4229L19.1128 37.8378C18.9571 37.9293 18.7586 37.8916 18.6434 37.7536C18.529 37.6141 18.532 37.4126 18.6501 37.2768L19.6457 36.1329L16.8699 37.7352C16.709 37.8304 16.5009 37.7868 16.3879 37.6341C16.2772 37.4827 16.2972 37.2717 16.4352 37.144L18.6634 35.0959L14.9731 37.2259C14.8041 37.3241 14.5886 37.2724 14.4808 37.11C14.3731 36.9469 14.4107 36.7285 14.5672 36.6111L16.1997 35.3889L13.5147 36.9388C13.3457 37.0377 13.1265 36.9846 13.0202 36.82C12.9132 36.6539 12.9553 36.4347 13.1154 36.3196L15.0853 34.9062L8.46568 38.7278C8.40738 38.7618 8.3439 38.7773 8.28117 38.7773L8.28043 38.7758Z" fill="#723535"/>
<path d="M29.9659 33.347C29.8626 33.347 29.7615 33.3034 29.6892 33.2222C29.5733 33.0909 29.5659 32.896 29.6715 32.755L30.2892 31.9388L28.7902 32.8038C28.633 32.8968 28.4293 32.8576 28.3156 32.713C28.202 32.5691 28.2116 32.3631 28.3378 32.231L29.6589 30.8383L28.2337 31.6605C28.0566 31.7624 27.8307 31.7026 27.7296 31.5255C27.627 31.3491 27.6876 31.1232 27.8647 31.0214L31.4952 28.9253C31.6531 28.833 31.8553 28.8722 31.9697 29.0161C32.0841 29.16 32.0738 29.3659 31.9476 29.498L30.6265 30.8907L31.4959 30.3889C31.6465 30.2995 31.8406 30.3328 31.9572 30.4641C32.0731 30.5955 32.0805 30.7904 31.9749 30.9313L31.2981 31.8266C31.4354 31.8148 31.569 31.8849 31.6413 32.0104C31.7439 32.1867 31.6834 32.4126 31.5062 32.5144L30.1504 33.2975C30.0929 33.3315 30.0294 33.347 29.9659 33.347Z" fill="#F7AB9A"/>
<path d="M25.9448 34.812C25.8386 34.812 25.7345 34.7662 25.6622 34.6799C25.547 34.5426 25.547 34.3426 25.6622 34.2053L26.3626 33.3706L24.9927 34.161C24.8237 34.2592 24.6082 34.2075 24.5012 34.0466C24.3934 33.8843 24.4296 33.6665 24.5839 33.5485L26.9117 31.7698L24.5462 33.1359C24.3698 33.2377 24.1432 33.178 24.0421 33.0008C23.9395 32.8244 24.0001 32.5986 24.1772 32.4967L31.4979 28.2692C31.6655 28.1695 31.8825 28.2227 31.9895 28.3836C32.0972 28.5459 32.0611 28.7637 31.9068 28.8818L28.2114 31.7055C28.2343 31.7218 28.2564 31.7424 28.2749 31.7653C28.39 31.9026 28.39 32.1026 28.2749 32.2399L27.5745 33.0746L27.6261 33.0451C27.8018 32.941 28.0284 33.0023 28.1302 33.1802C28.2328 33.3566 28.1723 33.5824 27.9951 33.6843L26.1293 34.7618C26.0718 34.7958 26.0083 34.812 25.9448 34.812Z" fill="#F7AB9A"/>
<path d="M22.0624 36.9923C21.9509 36.9923 21.8402 36.9414 21.7686 36.8462C21.6564 36.6978 21.6719 36.4897 21.8055 36.3591L21.9362 36.2314L21.438 36.5192C21.28 36.6122 21.0763 36.5731 20.9627 36.4277C20.8497 36.2831 20.8593 36.0771 20.9863 35.945L22.2439 34.6342L20.8645 35.4299C20.6933 35.531 20.4741 35.4756 20.3678 35.3074C20.2615 35.1391 20.308 34.9184 20.4711 34.8062L23.6462 32.6282L20.8431 34.246C20.6719 34.3464 20.4519 34.2918 20.3457 34.1228C20.2401 33.9538 20.2873 33.7331 20.4519 33.6209L22.962 31.9204L20.8431 33.1434C20.6667 33.246 20.4409 33.1847 20.339 33.0083C20.2364 32.8319 20.2969 32.6061 20.4741 32.5042L31.4998 26.1378C31.6725 26.0382 31.8917 26.092 31.9973 26.261C32.1028 26.4301 32.0556 26.6507 31.891 26.7629L29.3816 28.4634L31.4998 27.2404C31.6703 27.1408 31.891 27.1954 31.9965 27.363C32.1028 27.5312 32.0563 27.7519 31.8932 27.8641L24.63 32.8467C24.7031 32.9854 24.681 33.1574 24.5703 33.2733L23.3141 34.5833L24.1193 34.1184C24.278 34.0239 24.4847 34.066 24.5976 34.215C24.7098 34.3634 24.6943 34.5715 24.5607 34.7022L24.2293 35.0254C24.3429 35.0365 24.4507 35.1014 24.512 35.2077C24.6145 35.3841 24.554 35.61 24.3769 35.7118L22.2461 36.9421C22.1886 36.9761 22.1251 36.9916 22.0616 36.9916L22.0624 36.9923Z" fill="#F7AB9A"/>
<path d="M18.9147 34.8238C18.7914 34.8238 18.6711 34.7618 18.6017 34.6503C18.4962 34.4813 18.5434 34.2599 18.7088 34.1484L22.4928 31.6058L17.7906 34.3204C17.6172 34.4208 17.3972 34.3654 17.2924 34.1964C17.1869 34.0274 17.2349 33.806 17.4002 33.6945L22.3939 30.343L17.2127 33.3344C17.0415 33.4355 16.8223 33.3801 16.716 33.2118C16.6097 33.0436 16.6562 32.8222 16.8201 32.71L23.4161 28.2049L17.1507 31.8221C16.9773 31.9232 16.7559 31.8671 16.6511 31.6951C16.5463 31.5247 16.5979 31.301 16.7655 31.1925L18.88 29.8286L17.15 30.8272C16.9766 30.9268 16.7574 30.8722 16.6518 30.7025C16.5463 30.5335 16.595 30.312 16.7596 30.2006L22.1304 26.6107L17.1493 29.4862C16.9758 29.5865 16.7559 29.5304 16.6503 29.3599C16.5455 29.1909 16.5957 28.968 16.7618 28.8581L20.6115 26.3339L17.1493 28.3326C16.9758 28.433 16.7559 28.3776 16.6511 28.2071C16.5455 28.0381 16.595 27.8159 16.7603 27.7052L21.4624 24.5907L17.1485 27.0808C16.9751 27.182 16.7537 27.1251 16.6496 26.9546C16.5448 26.7849 16.595 26.562 16.7618 26.4528L20.4594 24.0319L17.1485 25.9435C16.9751 26.0454 16.7529 25.9871 16.6489 25.8158C16.5441 25.6446 16.5965 25.4217 16.7647 25.3132L17.8615 24.6113L17.1478 25.0232C16.9707 25.1257 16.7448 25.0645 16.6437 24.8881C16.5411 24.7117 16.6016 24.4859 16.7788 24.384L31.4948 15.8868C31.6697 15.7857 31.8904 15.8433 31.9945 16.0145C32.0993 16.1857 32.0469 16.4086 31.8786 16.5171L30.7708 17.2264L31.4948 16.8086C31.6682 16.7068 31.8889 16.7643 31.9937 16.9348C32.0985 17.1053 32.0483 17.3275 31.8815 17.4367L28.1913 19.8524L31.4955 17.9452C31.6682 17.8441 31.8882 17.8995 31.9937 18.07C32.0993 18.2405 32.0498 18.4619 31.8845 18.5726L27.1764 21.6916L31.4963 19.1977C31.6697 19.0966 31.8896 19.1534 31.9952 19.3239C32.1 19.4929 32.0498 19.7158 31.8837 19.8258L28.0407 22.3455L31.497 20.3505C31.6697 20.2494 31.8889 20.3048 31.9952 20.4753C32.1007 20.6443 32.052 20.8657 31.8874 20.9772L26.5166 24.567L31.4977 21.6916C31.6712 21.5912 31.8933 21.6466 31.9974 21.8185C32.1022 21.989 32.0505 22.2126 31.883 22.3211L29.7685 23.6851L31.4985 22.6865C31.6712 22.5876 31.8896 22.6415 31.9952 22.809C32.1015 22.9773 32.055 23.1987 31.8911 23.3109L25.2922 27.8174L31.4985 24.2349C31.6712 24.1331 31.8904 24.1899 31.9967 24.3589C32.1022 24.5279 32.0542 24.7493 31.8889 24.8608L26.8975 28.2108L31.4985 25.5538C31.6712 25.4534 31.8911 25.5088 31.9959 25.6778C32.1015 25.8468 32.0542 26.0682 31.8889 26.1797L20.6609 33.7263C20.641 33.8281 20.5797 33.9204 20.483 33.9757L19.0999 34.7743C19.0416 34.8083 18.9782 34.8238 18.9154 34.8238H18.9147Z" fill="#F7AB9A"/>
<path d="M14.3698 26.5568C14.2465 26.5568 14.1255 26.4948 14.0561 26.3827C13.9506 26.2129 14 25.9908 14.1653 25.88L21.3997 21.0834L13.6369 25.5649C13.4635 25.6668 13.2406 25.6099 13.1358 25.4357C13.0317 25.2638 13.0856 25.0401 13.2561 24.9324L14.0842 24.4128L13.4583 24.7737C13.2841 24.8763 13.0627 24.818 12.9579 24.6453C12.8538 24.4733 12.907 24.2497 13.076 24.1419L15.0731 22.8799L13.4553 23.8142C13.2819 23.9139 13.0627 23.8593 12.9571 23.6895C12.8516 23.5198 12.9003 23.2983 13.0664 23.1876L20.1783 18.4619L13.4553 22.3433C13.2819 22.4452 13.059 22.3883 12.9549 22.2149C12.8509 22.0437 12.9033 21.82 13.0723 21.7123L14.9447 20.5218L13.4546 21.3816C13.2812 21.4835 13.0583 21.4259 12.9542 21.2532C12.8501 21.0805 12.9033 20.8576 13.0723 20.7498L13.7107 20.3461L13.4539 20.4937C13.2804 20.5941 13.0597 20.5388 12.9557 20.3683C12.8501 20.1993 12.8996 19.9771 13.0656 19.8664L18.5021 16.2713L13.4531 19.1859C13.2797 19.2856 13.0605 19.2309 12.9549 19.0612C12.8494 18.8914 12.8981 18.67 13.0634 18.5593L18.9302 14.6506L13.4524 17.8131C13.2789 17.9142 13.0583 17.8582 12.9527 17.6862C12.8479 17.5157 12.8996 17.2928 13.0671 17.1836L16.1544 15.1886L13.5026 16.7193C13.3291 16.8205 13.1084 16.7644 13.0036 16.5931C12.8988 16.4219 12.949 16.1998 13.1166 16.0905L16.9707 13.5811L13.9882 15.303C13.8148 15.4034 13.5956 15.348 13.49 15.1783C13.3845 15.0093 13.4332 14.7879 13.5985 14.6764L19.1184 10.9898L16.6636 12.4069C16.4902 12.5073 16.2695 12.4519 16.164 12.28C16.0592 12.1102 16.1108 11.8866 16.2784 11.7773L17.37 11.0695C17.2541 11.0629 17.1426 11.0016 17.077 10.8968C16.9714 10.7278 17.0201 10.5064 17.1847 10.395L17.7936 9.98609C17.6357 10.0459 17.4526 9.99273 17.3552 9.84733C17.2467 9.68644 17.2807 9.46945 17.4334 9.35062L20.207 7.18223L17.8792 8.52622C17.7124 8.6229 17.4976 8.57345 17.3899 8.41477C17.2814 8.25462 17.3139 8.03837 17.4659 7.91806L18.556 7.05307L17.88 7.44276C17.7198 7.53871 17.5102 7.49442 17.398 7.34165C17.2873 7.19034 17.3072 6.97926 17.4452 6.85158L18.1294 6.22128L17.88 6.3652C17.7552 6.43827 17.5973 6.43089 17.4799 6.34527C17.3618 6.2604 17.305 6.115 17.3338 5.97182L17.5737 4.80201C17.4932 4.77396 17.4216 4.71787 17.3751 4.63816C17.2733 4.46103 17.3338 4.23518 17.5109 4.13333L17.8814 3.92003C18.0076 3.84844 18.1648 3.85656 18.2822 3.9407C18.3995 4.02557 18.4564 4.17171 18.4276 4.31415L18.2224 5.31495L20.6477 3.91487C20.8093 3.8204 21.0182 3.8632 21.1296 4.01598C21.2403 4.16728 21.2204 4.37836 21.0824 4.50605L20.3975 5.13634L22.5194 3.91118C22.6854 3.81302 22.9009 3.8632 23.0087 4.02262C23.1172 4.18278 23.0847 4.39903 22.9327 4.51933L21.844 5.38359L24.4021 3.90675C24.5689 3.80785 24.7844 3.85951 24.8922 4.01967C25.0007 4.18057 24.9667 4.39755 24.814 4.51638L22.0389 6.68552L26.8606 3.90232C27.0325 3.80121 27.2525 3.8573 27.3588 4.02631C27.4643 4.19533 27.4156 4.41674 27.251 4.52819L26.6967 4.90017L28.4319 3.89937C28.6053 3.79825 28.826 3.85435 28.9316 4.02631C29.0364 4.19606 28.9847 4.41969 28.8172 4.52893L28.6009 4.66842C28.7625 4.61306 28.9426 4.67358 29.0356 4.82267C29.1412 4.99169 29.0925 5.2131 28.9271 5.32455L23.4072 9.01186L28.5382 6.04931C28.7116 5.9482 28.9323 6.00429 29.0371 6.17552C29.1419 6.34675 29.0917 6.5689 28.9242 6.67814L25.0686 9.18825L28.5382 7.18518C28.7116 7.08406 28.9323 7.14016 29.0378 7.31212C29.1426 7.48261 29.091 7.7055 28.9234 7.81474L25.8413 9.806L28.5382 8.24945C28.7101 8.1476 28.9301 8.20443 29.0364 8.37418C29.1419 8.54319 29.0932 8.76535 28.9279 8.87606L23.0559 12.7877L28.6732 9.54473C28.8459 9.44288 29.0666 9.49897 29.1714 9.6702C29.277 9.83921 29.2275 10.0614 29.0615 10.1721L23.6279 13.7649L29.0925 10.6105C29.2681 10.5094 29.4888 10.5662 29.5929 10.7389C29.6969 10.9116 29.6438 11.1345 29.4748 11.2423L28.8334 11.6482L29.505 11.2607C29.6792 11.1596 29.9014 11.2172 30.0054 11.3891C30.1095 11.5611 30.0571 11.784 29.8881 11.8917L28.0193 13.08L29.9685 11.9552C30.1405 11.8534 30.3604 11.9102 30.4667 12.0799C30.5722 12.249 30.5235 12.4711 30.3575 12.5818L23.2434 17.309L30.6771 13.018C30.852 12.9169 31.0734 12.9737 31.1775 13.1464C31.2815 13.3191 31.2284 13.542 31.0594 13.6498L29.0681 14.9082L31.0904 13.7406C31.2645 13.6402 31.4874 13.6963 31.5915 13.8697C31.6956 14.0417 31.6417 14.2653 31.4712 14.3731L30.6335 14.8986L31.3546 14.483C31.5265 14.3819 31.748 14.4373 31.8528 14.6078C31.9583 14.7775 31.9089 14.9997 31.7435 15.1104L17.2711 24.7058C17.2784 24.8394 17.2113 24.9715 17.0873 25.0431L14.5536 26.5059C14.496 26.5399 14.4318 26.5554 14.369 26.5554L14.3698 26.5568Z" fill="#F7AB9A"/>
<path d="M19.5461 6.78446C19.4244 6.78446 19.3048 6.72394 19.2347 6.61397C19.1284 6.44717 19.1727 6.22649 19.335 6.11283L20.7063 5.15484L17.9689 6.73501C17.7999 6.83317 17.5844 6.78151 17.4774 6.61987C17.3696 6.4575 17.4058 6.23978 17.5608 6.12169L20.6289 3.78944L17.1475 5.79916C16.9821 5.89658 16.7703 5.84787 16.6603 5.6914C16.5511 5.5342 16.5799 5.31942 16.7268 5.19691L19.3336 3.0226L17.1475 4.28468C16.991 4.37546 16.7902 4.33929 16.6751 4.19685C16.5614 4.05588 16.5673 3.85218 16.6899 3.71785L18.197 2.05649L17.1475 2.6617C17.0058 2.74214 16.8279 2.72222 16.7098 2.61077C16.591 2.49933 16.56 2.32293 16.633 2.1768L17.0131 1.42103C16.9017 1.43727 16.7526 1.3583 16.6832 1.23652C16.5806 1.06012 16.6412 0.834279 16.8183 0.732428L17.6752 0.237933C17.8154 0.155271 17.9947 0.175936 18.1128 0.288858C18.2317 0.400304 18.2627 0.577437 18.1896 0.722833L17.8457 1.40701L19.8709 0.237933C20.0266 0.145676 20.2274 0.182579 20.3425 0.325761C20.4569 0.466729 20.451 0.670431 20.3285 0.804757L18.8214 2.46685L22.6821 0.237194C22.8474 0.14051 23.0593 0.188483 23.1692 0.34495C23.2785 0.502155 23.2497 0.716929 23.1028 0.839445L20.4953 3.01375L25.3066 0.236456C25.4742 0.136819 25.6904 0.189959 25.7982 0.350855C25.9059 0.513226 25.8698 0.73169 25.7148 0.849778L22.6459 3.18276L27.7503 0.236456C27.9215 0.136819 28.14 0.190697 28.2463 0.357497C28.3526 0.524297 28.3083 0.744975 28.1459 0.858635L26.779 1.81294L29.0958 0.475585C29.2678 0.375948 29.487 0.430564 29.5925 0.597364C29.6988 0.76564 29.653 0.98558 29.4899 1.0985L28.9135 1.49631L29.281 1.28449C29.4434 1.19002 29.6545 1.2343 29.7645 1.38856C29.8752 1.54207 29.8516 1.75463 29.7106 1.8801L27.0115 4.27065L29.281 2.96135C29.4397 2.86688 29.6456 2.90894 29.7586 3.05656C29.8707 3.20343 29.8575 3.41082 29.7253 3.54219L28.5777 4.68618L29.2803 4.28025C29.4205 4.19906 29.5984 4.21899 29.7172 4.3297C29.8361 4.4404 29.8678 4.6168 29.7955 4.76219L29.4065 5.55265C29.5386 5.54453 29.6737 5.61243 29.7453 5.73642C29.8479 5.91282 29.7873 6.13866 29.6102 6.24051L28.7541 6.73501C28.6131 6.81472 28.4352 6.79553 28.3171 6.68556C28.1983 6.57485 28.1666 6.39846 28.2389 6.25306L28.5961 5.52756L26.5023 6.73575C26.3429 6.82874 26.1369 6.78815 26.0248 6.64054C25.9126 6.49367 25.9259 6.28627 26.058 6.1549L27.2056 5.01166L24.218 6.73575C24.0564 6.83096 23.8453 6.78667 23.7346 6.63168C23.6239 6.47817 23.6475 6.26561 23.7885 6.14014L26.486 3.75032L21.3145 6.73575C21.1433 6.83686 20.9248 6.78151 20.8178 6.61397C20.7115 6.44569 20.7573 6.22575 20.9204 6.11283L21.4924 5.71797L19.7292 6.73575C19.6716 6.7697 19.6074 6.7852 19.5447 6.7852L19.5461 6.78446Z" fill="#3547AF"/>
<path d="M1.06997 43.4894C0.952623 43.4894 0.837487 43.4333 0.765896 43.3292C0.657402 43.1705 0.6884 42.955 0.837487 42.8332L4.19415 40.1106L0.912768 42.0051C0.74523 42.1018 0.531195 42.0531 0.422701 41.8937C0.314945 41.7335 0.34742 41.5165 0.499459 41.3962L3.23542 39.2315L0.913506 40.5718C0.749658 40.6685 0.537837 40.6213 0.427868 40.4656C0.317898 40.3098 0.344468 40.0958 0.489126 39.9718L3.44503 37.4381L0.913506 38.8987C0.747444 38.9954 0.535623 38.9481 0.426391 38.7902C0.31716 38.633 0.346682 38.4175 0.494292 38.2949L2.49884 36.6373L0.914244 37.5517C0.753349 37.6477 0.543742 37.6026 0.431558 37.4499C0.32085 37.2978 0.342253 37.086 0.481745 36.9591L2.65531 34.9833L0.914244 35.9878C0.748182 36.0845 0.536361 36.0365 0.427129 35.88C0.317898 35.7236 0.346682 35.5081 0.493554 35.3855L1.43162 34.6032L0.914244 34.9014C0.749658 34.9981 0.536361 34.9508 0.427129 34.7936C0.317898 34.6364 0.346682 34.4216 0.493554 34.2991L1.03159 33.8504L0.914982 33.9176C0.754087 34.012 0.547432 33.97 0.43451 33.8179C0.323064 33.6674 0.341515 33.4577 0.478793 33.3293L1.45376 32.4134L0.91572 32.7241C0.760729 32.8149 0.562931 32.7787 0.447057 32.6407C0.332659 32.5027 0.334135 32.302 0.450747 32.1654L1.6833 30.7218L0.91572 31.1646C0.760729 31.2554 0.561455 31.2192 0.446319 31.0797C0.331921 30.941 0.334873 30.7388 0.452961 30.603L0.937124 30.0472C0.76811 30.1232 0.560717 30.062 0.465508 29.8952C0.362919 29.7188 0.423439 29.4929 0.600572 29.3911L2.48261 28.3039C2.6376 28.2131 2.83687 28.2486 2.95201 28.3888C3.06641 28.5276 3.06345 28.7298 2.94536 28.8656L2.46415 29.4184L3.17342 29.0088C3.32768 28.918 3.52621 28.9534 3.64209 29.0922C3.75648 29.2302 3.75501 29.4309 3.6384 29.5675L2.40585 31.0111L3.84874 30.1786C4.00964 30.0841 4.21703 30.1262 4.32921 30.2782C4.44066 30.4288 4.42221 30.6384 4.28493 30.7668L3.30996 31.6827L4.36538 31.0738C4.5307 30.9772 4.74326 31.0251 4.85249 31.1816C4.96172 31.3381 4.93294 31.5536 4.78607 31.6761L4.25024 32.1233L4.7905 31.8112C4.95508 31.7152 5.16838 31.7617 5.27761 31.9189C5.38684 32.0761 5.35806 32.2909 5.21119 32.4134L4.27091 33.1972L5.26137 32.626C5.42375 32.5322 5.63261 32.5758 5.74406 32.7278C5.85477 32.8798 5.83336 33.0917 5.69387 33.2186L3.52031 35.1951L5.93817 33.7987C6.10349 33.702 6.31753 33.7493 6.42528 33.9072C6.53451 34.0644 6.50499 34.2799 6.35738 34.4025L4.35431 36.0586L6.52123 34.8084C6.68434 34.7117 6.8969 34.7582 7.00687 34.9147C7.11684 35.0704 7.09027 35.2844 6.94561 35.4084L3.98823 37.9436L7.24526 36.0638C7.41206 35.9649 7.62609 36.0158 7.73533 36.1753C7.84308 36.3354 7.81061 36.5524 7.65857 36.6727L4.92408 38.8359L7.86522 37.1377C8.03128 37.0403 8.24458 37.089 8.35381 37.2476C8.46231 37.4063 8.43131 37.6218 8.28222 37.7436L4.92408 40.467L8.55752 38.3695C8.73317 38.2669 8.95975 38.3267 9.06161 38.5046C9.1642 38.6809 9.10367 38.9068 8.92654 39.0086L1.25596 43.437C1.19839 43.4709 1.13418 43.4864 1.07145 43.4864L1.06997 43.4894Z" fill="#FCCC60"/>
<path d="M42.1707 43.579C42.0748 43.579 41.9803 43.5414 41.9094 43.4705C41.7914 43.3517 41.7685 43.1687 41.8526 43.0248L42.4645 41.9767L41.0622 42.7871C40.9042 42.8808 40.699 42.841 40.5854 42.6941C40.4725 42.548 40.4843 42.3406 40.6142 42.2092L41.3249 41.4859L40.0658 42.2122C39.9056 42.3052 39.6997 42.2638 39.5875 42.1155C39.4754 41.9671 39.4908 41.7583 39.6244 41.6284L41.1101 40.1818L38.8296 41.4985C38.6679 41.5944 38.4576 41.5494 38.3461 41.3944C38.2354 41.2409 38.259 41.0291 38.4 40.9029L40.5219 39.0193L37.5291 40.7471C37.3616 40.8453 37.1468 40.7944 37.0383 40.6342C36.9305 40.4733 36.9645 40.2563 37.1173 40.1368L39.0812 38.6046L36.4493 40.1242C36.2803 40.2231 36.0619 40.17 35.9548 40.0054C35.8478 39.8408 35.8899 39.6209 36.0493 39.505L37.2811 38.6193L35.6943 39.5352C35.526 39.6334 35.3098 39.5817 35.2028 39.4208C35.095 39.2592 35.1304 39.0408 35.2854 38.9227L38.7484 36.2723L36.4575 37.5942C36.2877 37.6945 36.0685 37.6399 35.9622 37.4739C35.8552 37.3071 35.8987 37.0871 36.0604 36.9735L37.0693 36.2612C36.9483 36.2612 36.8309 36.2007 36.7608 36.0922C36.6538 35.9269 36.6958 35.707 36.856 35.5926L37.7815 34.9305C37.6848 34.9158 37.5948 34.8634 37.535 34.7778C37.4258 34.622 37.4531 34.4073 37.5985 34.284L40.0724 32.1931L39.3285 32.6219C39.1646 32.7179 38.9543 32.6721 38.8443 32.5171C38.7336 32.3629 38.7587 32.1496 38.9011 32.0248L40.0186 31.0476C39.9337 31.0336 39.8525 30.9901 39.7942 30.9192C39.6798 30.7805 39.6813 30.5797 39.7979 30.4432L40.7101 29.3782C40.6909 29.3582 40.6732 29.3339 40.6592 29.3088C40.5566 29.1324 40.6171 28.9066 40.7943 28.8047L41.6556 28.3073C41.8098 28.2157 42.0091 28.2519 42.1242 28.3907C42.2386 28.5294 42.2371 28.7302 42.1205 28.8667L41.7618 29.2852L42.5944 28.8054C42.7582 28.7088 42.9693 28.756 43.0785 28.9102C43.1892 29.0645 43.1641 29.2778 43.0217 29.4025L42.229 30.0956L43.2785 29.4904C43.4439 29.3937 43.6557 29.4416 43.7649 29.5981C43.8741 29.7538 43.8468 29.9686 43.7014 30.0919L41.2297 32.1806L43.3022 30.9849C43.4712 30.8853 43.6904 30.9384 43.7966 31.1045C43.9037 31.2698 43.8616 31.4897 43.7014 31.6041L43.3782 31.8359C43.5317 31.7864 43.7066 31.847 43.7974 31.9894C43.9044 32.1562 43.8609 32.3761 43.6992 32.4898L43.1413 32.8839L43.3022 32.7909C43.4697 32.692 43.6867 32.7437 43.7937 32.9053C43.9015 33.067 43.866 33.2854 43.711 33.4035L40.2481 36.0546L43.3029 34.2906C43.4719 34.191 43.6896 34.2442 43.7974 34.4095C43.9044 34.5748 43.8623 34.794 43.7029 34.9099L42.4667 35.7985L43.3029 35.3165C43.4704 35.2184 43.6852 35.2693 43.7937 35.4295C43.9015 35.5904 43.8675 35.8073 43.7147 35.9269L41.753 37.4569L43.3036 36.5624C43.4667 36.4672 43.6771 36.5122 43.7871 36.6664C43.8978 36.82 43.8741 37.0318 43.7332 37.158L41.612 39.0408L43.3036 38.0643C43.463 37.9698 43.669 38.0119 43.7819 38.161C43.8941 38.3093 43.8786 38.5182 43.745 38.6481L42.2578 40.0962L43.3029 39.4932C43.4623 39.4009 43.666 39.4408 43.7797 39.5862C43.8926 39.7323 43.8808 39.9397 43.7509 40.0711L43.0409 40.7936L43.3029 40.6423C43.4468 40.5567 43.6298 40.5833 43.7487 40.7014C43.8668 40.8202 43.8896 41.0032 43.8055 41.1472L43.1937 42.1945L43.2992 42.1339C43.4749 42.0306 43.7007 42.0919 43.8033 42.269C43.9059 42.4461 43.8454 42.6712 43.6682 42.7731L42.3574 43.5303C42.2999 43.5643 42.2364 43.5798 42.1729 43.5798L42.1707 43.579Z" fill="#FCCC60"/>
<path d="M44.0463 32.6303C44.3769 30.563 43.9105 27.6676 41.1391 28.5319C36.9241 26.841 36.8717 21.3218 32.2396 19.9786C33.4035 12.8534 28.7929 12.4578 29.2845 6.61394C30.4927 6.02128 29.8897 4.28096 30.027 3.18052C31.1259 -2.00282 23.952 0.880748 20.9341 0.187717C18.5111 0.13753 15.6733 -0.351061 16.4047 3.10302C16.5914 4.23962 15.8482 6.14306 17.1465 6.71653C18.317 12.9405 11.4524 13.3051 12.6923 19.5926C6.90746 21.4894 7.96214 26.3177 3.2851 28.45C-1.96393 27.2528 0.818525 38.035 0.169777 41.2028C-0.356455 45.3108 3.20982 43.0125 5.08299 41.8131C6.31037 40.757 9.01386 40.3806 9.26775 38.6543C12.9433 35.0607 17.5686 39.8853 21.3467 36.8025C21.8331 37.0365 22.4833 37.0867 23.0258 36.9184C26.9913 39.551 31.0676 34.8865 34.9845 38.7148C34.7424 40.2928 37.4791 40.6655 38.4599 41.574C46.5889 47.8268 43.4831 37.3841 44.0463 32.6303ZM17.4801 1.25789C17.4889 0.821704 17.466 0.877796 17.8498 0.877796C21.3969 0.888867 24.961 0.862297 28.4984 0.877796C29.2978 0.808419 29.0114 5.53048 28.8151 6.09361C25.1772 6.08771 21.5342 6.10173 17.9 6.09361C16.8859 5.01458 17.7317 2.73843 17.4801 1.25789ZM2.03041 42.9165C0.495996 43.3151 1.5241 38.7399 1.23921 37.7066C1.73297 35.1603 -0.0752567 30.2921 2.37434 28.8839C8.46623 40.2278 11.3107 37.8498 2.03041 42.9165ZM17.2299 37.1464C14.3522 36.049 11.4826 36.012 8.99615 37.9221C7.22556 34.981 5.55756 31.9904 3.82756 29.0256C8.22119 27.3695 8.04111 21.9071 12.7122 20.4797C12.4436 23.1205 12.4997 28.2241 16.4047 26.2483C16.6387 29.0426 15.0002 36.6859 20.0891 34.3684C20.0448 35.0629 20.1902 35.8349 20.664 36.308C19.5924 36.925 18.5679 37.4535 17.2299 37.1464ZM21.8309 36.1095C19.8979 35.2954 22.676 23.2762 20.0965 25.6874C19.6617 28.3186 21.0803 31.9904 19.3274 34.0739C15.0607 35.8888 19.5289 15.8905 16.4003 19.0243C15.9302 20.8576 17.7185 26.1125 14.8297 25.9398C12.7159 24.4519 14.2149 20.9233 13.7876 18.6641C12.9049 13.3775 19.509 12.4254 18.2225 6.82355C21.5615 6.73867 24.8768 6.79919 28.2136 6.78222C27.2393 10.7854 31.4145 13.0815 31.1665 16.8419C31.0086 21.8569 31.4794 26.9798 30.9857 31.9424C27.784 35.0548 28.6313 27.1569 28.5531 25.5826C26.533 23.5685 27.8349 31.8221 27.4607 32.8318C27.3545 33.5698 26.7994 34.3551 25.9514 34.0938C23.7063 32.5838 25.3233 28.7998 24.8576 26.4373C25.0702 25.4896 24.4554 24.7545 23.7845 25.6867C23.2457 27.6197 25.3698 37.8306 21.8294 36.1095H21.8309ZM30.1118 36.5353C28.0283 37.1368 25.8156 37.9029 23.9218 36.4711C24.5203 36.0246 24.8857 35.2814 24.8687 34.499C26.0998 35.2762 28.215 34.4754 28.4342 32.9823C34.6863 34.871 31.5245 24.3272 32.2404 20.9137C36.3417 22.4651 36.2067 27.7518 40.4962 29.0839C38.7648 32.0111 37.0982 35.0231 35.3705 37.9671C33.7276 36.9937 32.1525 36.0718 30.1126 36.5346L30.1118 36.5353ZM42.9776 32.1587V42.56C42.9466 43.5579 41.9849 42.6538 41.5959 42.4265C32.2728 37.8527 37.0576 38.531 41.5804 28.878C43.1901 29.3792 43.1119 30.7269 42.9776 32.1587Z" fill="#262626"/>
</svg>
