<svg width="38" height="44" viewBox="0 0 38 44" fill="none" xmlns="http://www.w3.org/2000/svg">
<path d="M19.2977 18.5666C19.1835 18.5666 19.07 18.5128 18.9993 18.4133C18.8887 18.2601 18.9123 18.0471 19.0531 17.9218L21.7025 15.5737L21.6996 15.5752C21.5227 15.6762 21.2972 15.6165 21.1962 15.4403C21.0938 15.2642 21.1542 15.0387 21.3311 14.937L24.4906 13.1129C24.6527 13.0201 24.8627 13.0628 24.9733 13.2168C25.0838 13.3701 25.0603 13.5831 24.9195 13.7084L22.27 16.0565L28.0465 12.7216C28.2219 12.6199 28.4482 12.6788 28.5499 12.8565C28.6523 13.0326 28.5919 13.2581 28.415 13.3598L19.482 18.5173C19.4245 18.5504 19.3611 18.5666 19.2977 18.5666Z" fill="#DC2626"/>
<path d="M18.3476 43.3414C18.2246 43.3414 18.1052 43.2795 18.0352 43.1682C17.9298 42.9994 17.9769 42.7783 18.142 42.6671L24.4064 38.4493L17.0601 42.6906C16.8869 42.7916 16.6651 42.7356 16.5612 42.5639C16.4565 42.3929 16.5081 42.1703 16.6761 42.0612L21.9714 38.6541L15.917 42.1489C15.7424 42.2507 15.5198 42.1917 15.4166 42.02C15.3127 41.8475 15.3673 41.6242 15.5375 41.5173L17.6313 40.2099L15.0459 41.7016C14.8727 41.8033 14.6509 41.7466 14.5462 41.5734C14.4423 41.4024 14.4947 41.1791 14.6634 41.0715L21.625 36.6488L13.9434 41.0833C13.7702 41.185 13.5498 41.1282 13.4444 40.9565C13.3398 40.787 13.3906 40.5644 13.5579 40.4546L24.8928 33.1017L12.5527 40.2261C12.3795 40.3271 12.1584 40.2696 12.0538 40.0994C11.9491 39.9284 12.0007 39.7058 12.1687 39.5968L24.0578 31.9542L11.2504 39.3477C11.0772 39.4494 10.8554 39.3919 10.7515 39.2202C10.6468 39.0492 10.6992 38.8266 10.8672 38.7183L23.4903 30.6372L10.0034 38.4227C9.83026 38.5244 9.60768 38.467 9.50303 38.2938C9.39912 38.1213 9.45365 37.898 9.62316 37.7911L19.2121 31.7928L9.04831 37.6607C8.87512 37.7624 8.65255 37.7049 8.5479 37.5317C8.44398 37.36 8.49852 37.136 8.66802 37.0291L19.4074 30.296L8.07917 36.836C7.90598 36.9384 7.68414 36.8802 7.57949 36.7078C7.47558 36.5368 7.5279 36.3135 7.69741 36.2059L21.1865 27.645L6.99211 35.8396C6.81671 35.9406 6.59414 35.8831 6.49096 35.7091C6.38778 35.5367 6.44306 35.3126 6.61404 35.2065L13.8454 30.7492L6.2647 35.1254C6.09151 35.2271 5.86968 35.1697 5.76503 34.9972C5.66111 34.8262 5.71344 34.6029 5.88294 34.4953L19.885 25.6065L5.25355 34.0539C5.07815 34.1556 4.85705 34.0973 4.75314 33.9242C4.64922 33.751 4.70376 33.5284 4.87474 33.4215L14.5831 27.3885L4.51288 33.2026C4.33969 33.3051 4.11712 33.2469 4.0132 33.0751C3.90929 32.9034 3.96161 32.6809 4.13038 32.5725L18.2695 23.5739L3.59975 32.0434C3.42435 32.1443 3.20178 32.0868 3.0986 31.9129C2.99542 31.739 3.05143 31.5157 3.22315 31.4095L7.763 28.6282L3.0927 31.3241C2.91804 31.425 2.69547 31.3668 2.59229 31.1943C2.48837 31.0226 2.54291 30.7986 2.71315 30.6925L12.1282 24.8216L2.49943 30.3807C2.32624 30.4802 2.10735 30.4257 2.00196 30.2562C1.89657 30.0874 1.94521 29.8663 2.10956 29.755L9.29078 24.9513L1.90836 29.2126C1.73517 29.3128 1.51555 29.2561 1.41016 29.0873C1.30551 28.9178 1.35488 28.6952 1.52144 28.5854L7.47705 24.6705L1.47796 28.1336C1.30698 28.2346 1.08736 28.1793 0.98123 28.0106C0.875841 27.8425 0.922271 27.6214 1.08662 27.5094L9.00557 22.1331L1.05124 26.7252C0.877315 26.8262 0.657692 26.7702 0.552303 26.5985C0.447651 26.4282 0.49924 26.2057 0.666536 26.0966L4.68681 23.4921L0.836781 25.7148C0.663588 25.8158 0.441755 25.7598 0.337839 25.5881C0.233187 25.4178 0.284776 25.1945 0.452072 25.0862L3.54374 23.0912L0.698964 24.7339C0.529456 24.8334 0.309834 24.7796 0.203707 24.6123C0.0975808 24.4457 0.1418 24.2254 0.304675 24.1126L7.55886 19.0724L0.646637 23.0631C0.473445 23.1626 0.255296 23.1074 0.149907 22.9393C0.0445177 22.7713 0.091685 22.5502 0.256034 22.4389L4.93075 19.2831L0.782243 21.6783C0.612736 21.7771 0.393113 21.724 0.287724 21.5575C0.18086 21.3917 0.224343 21.172 0.385744 21.0578L5.38253 17.5262L1.22223 19.928C1.05346 20.0268 0.832359 19.9737 0.726232 19.8049C0.620106 19.6369 0.666536 19.4165 0.830148 19.3045L2.46479 18.1887L1.80813 18.5675C1.64305 18.6633 1.43227 18.6162 1.32246 18.4599C1.21265 18.3037 1.24065 18.0892 1.38657 17.9669L3.89823 15.8524C3.7582 15.8731 3.60049 15.809 3.52237 15.6726C3.41993 15.4965 3.48036 15.271 3.65724 15.1693L7.04002 13.2162C7.2051 13.1204 7.41588 13.1676 7.52569 13.3238C7.6355 13.4801 7.6075 13.6945 7.46157 13.8169L5.05604 15.8414L10.5356 12.6782C10.7058 12.5795 10.9262 12.6333 11.0315 12.8013C11.1377 12.9693 11.0912 13.1897 10.9276 13.3017L9.29447 14.4168L11.9801 12.8662C12.1496 12.7682 12.3684 12.8205 12.4746 12.987C12.5814 13.1529 12.538 13.3725 12.3766 13.4867L7.37903 17.0184L13.6383 13.4042C13.8107 13.3047 14.0289 13.3592 14.135 13.528C14.2404 13.6968 14.1932 13.9179 14.0289 14.0291L9.35048 17.1879L14.8175 14.0313C14.987 13.9333 15.2066 13.9857 15.3127 14.153C15.4188 14.3202 15.3746 14.5406 15.2117 14.6534L7.95757 19.6936L16.088 14.999C16.2612 14.8988 16.4823 14.9555 16.587 15.1258C16.6916 15.296 16.64 15.5193 16.4727 15.6277L13.3774 17.6249L16.7653 15.6689C16.9392 15.5694 17.1589 15.6247 17.2643 15.7957C17.3689 15.9659 17.3173 16.1885 17.15 16.2976L13.1342 18.8992L17.3881 16.4428C17.5605 16.3448 17.7787 16.3986 17.8848 16.5659C17.9902 16.7339 17.9438 16.955 17.7794 17.0663L9.859 22.4441L18.1346 17.6662C18.3078 17.5667 18.5275 17.622 18.6328 17.7922C18.7375 17.9617 18.6881 18.1835 18.5216 18.2934L12.5667 22.2075L18.5872 18.7319C18.7589 18.6324 18.9785 18.6869 19.0846 18.8564C19.19 19.0252 19.1414 19.247 18.977 19.3576L11.7973 24.1605L30.5758 13.3187C30.7497 13.2177 30.9723 13.2752 31.0762 13.4484C31.1801 13.6208 31.1255 13.8442 30.9553 13.951L21.5351 19.8248L31.8154 13.8891C31.9893 13.7881 32.2119 13.8464 32.3165 14.0196C32.4197 14.1928 32.3637 14.4168 32.192 14.5222L27.6573 17.3014L32.6776 14.4021C32.8523 14.3033 33.0734 14.3593 33.1773 14.5303C33.2812 14.7013 33.2289 14.9246 33.0601 15.0322L18.9232 24.0293L33.9136 15.3741C34.0882 15.2732 34.3093 15.3314 34.414 15.5039C34.5179 15.6763 34.4634 15.9004 34.2924 16.0065L24.5818 22.0402L34.7162 16.1893C34.8908 16.0905 35.1119 16.1458 35.2158 16.3175C35.3198 16.4892 35.2674 16.7125 35.0979 16.8201L21.09 25.7119L35.5725 17.35C35.7465 17.249 35.969 17.3073 36.0737 17.4805C36.1769 17.6536 36.1216 17.8777 35.9506 17.9831L28.7274 22.436L36.0442 18.2116C36.2189 18.1121 36.44 18.1681 36.5439 18.3398C36.6478 18.5108 36.5955 18.7341 36.426 18.8417L22.9391 27.4011L36.5697 19.5315C36.7436 19.432 36.9662 19.488 37.0701 19.6605C37.174 19.8322 37.1195 20.0562 36.95 20.1631L26.215 26.8933L36.8741 20.7394C37.0487 20.6399 37.2706 20.6959 37.3745 20.8684C37.4784 21.0409 37.4239 21.2642 37.2543 21.371L27.6558 27.3753L37.0384 21.9577C37.2123 21.8589 37.4334 21.9142 37.5373 22.0852C37.642 22.2561 37.5897 22.4787 37.4216 22.5871L24.7985 30.6681L37.048 23.596C37.2212 23.495 37.4423 23.5525 37.5469 23.7228C37.6516 23.8937 37.6 24.1163 37.432 24.2254L25.5451 31.8665L36.8254 25.3544C36.9986 25.2527 37.219 25.3095 37.3244 25.4812C37.429 25.6507 37.3782 25.8733 37.2109 25.9831L25.8716 33.3382L36.3022 27.3163C36.4768 27.2161 36.6979 27.2721 36.8018 27.4445C36.9058 27.6155 36.8534 27.8388 36.6847 27.9464L29.7326 32.3632L35.63 28.9583C35.8047 28.8559 36.0258 28.9148 36.1304 29.0873C36.2344 29.2597 36.1798 29.4831 36.0096 29.5899L33.9106 30.901L34.8297 30.3704C35.0028 30.2694 35.2239 30.3254 35.3286 30.4972C35.4333 30.6689 35.3817 30.8907 35.2136 30.9998L29.922 34.4047L33.2893 32.4605C33.4618 32.3595 33.6807 32.4148 33.7861 32.5843C33.8915 32.7531 33.8443 32.9742 33.6792 33.0855L27.4097 37.3062L30.1874 35.7032C30.3628 35.6001 30.589 35.6612 30.6907 35.8381C30.7932 36.0143 30.7327 36.2398 30.5559 36.3415L18.5297 43.2846C18.4714 43.3185 18.4081 43.334 18.3454 43.334L18.3476 43.3414Z" fill="#DC2626"/>
<path d="M14.431 5.99447C14.3234 5.99447 14.218 5.9473 14.145 5.85887C14.0315 5.71884 14.0352 5.5169 14.1553 5.38203L14.7074 4.76002C14.6189 4.73422 14.5393 4.676 14.4907 4.59051C14.3882 4.41437 14.4487 4.18885 14.6255 4.08715L16.0678 3.25509C16.2233 3.16591 16.4216 3.20055 16.538 3.34131C16.6515 3.48134 16.6478 3.68328 16.5277 3.81814L16.2138 4.1719L17.3775 3.49977C17.5529 3.39806 17.7791 3.45702 17.8808 3.63463C17.9833 3.81077 17.9228 4.03629 17.746 4.138L14.6152 5.94583C14.5577 5.979 14.4944 5.99521 14.431 5.99521V5.99447Z" fill="#DC2626"/>
<path d="M15.4695 11.0725C15.3589 11.0725 15.2498 11.0224 15.1776 10.9295C15.0649 10.7836 15.0767 10.5773 15.2064 10.4461L16.4239 9.20425L13.8997 10.662C13.7324 10.7586 13.5165 10.7092 13.4096 10.5485C13.302 10.3871 13.3366 10.1704 13.4899 10.0518L14.2785 9.44156L12.8716 10.2537C12.7036 10.3503 12.4876 10.3002 12.3808 10.1388C12.2732 9.97736 12.3085 9.75994 12.4633 9.64203L13.9808 8.48127L11.9452 9.65603C11.7786 9.75331 11.5627 9.7032 11.4551 9.5418C11.3475 9.38039 11.3821 9.16298 11.5362 9.04506L13.6042 7.45243L11.2716 8.79891C11.1139 8.8903 10.9097 8.85197 10.7955 8.70531C10.6827 8.55939 10.6953 8.35229 10.8242 8.22111L11.87 7.16132L10.9591 7.68753C10.8051 7.77671 10.6061 7.74281 10.4911 7.60351C10.3761 7.46496 10.3784 7.2645 10.4955 7.12816L11.1765 6.33737C11.0704 6.32042 10.9738 6.25777 10.9156 6.15754C10.8132 5.9814 10.8736 5.75588 11.0505 5.65418L12.5245 4.80296C12.6792 4.71378 12.8775 4.74768 12.9925 4.88697C13.1074 5.02553 13.1052 5.22599 12.988 5.36233L12.4707 5.96298L13.8628 5.15966C14.022 5.06901 14.2254 5.10733 14.3389 5.25326C14.4517 5.39918 14.4392 5.60627 14.3102 5.73746L13.2644 6.79725L18.0386 4.04091C18.2059 3.94436 18.4211 3.99374 18.5287 4.15514C18.6363 4.31654 18.6017 4.53396 18.4476 4.65187L16.3811 6.24377L18.5302 5.00268C18.6975 4.90466 18.9134 4.95551 19.021 5.11765C19.1286 5.27905 19.0925 5.49646 18.9385 5.61438L17.4203 6.77588L18.6407 6.07131C18.808 5.97477 19.0232 6.02415 19.1308 6.18481C19.2384 6.34547 19.2038 6.56289 19.0505 6.68154L18.2619 7.29177L18.3953 7.21512C18.5545 7.12447 18.7579 7.16279 18.8714 7.30872C18.9849 7.45464 18.9724 7.661 18.8427 7.79218L17.5692 9.08928C17.718 9.06349 17.8765 9.12761 17.9561 9.26763C18.0585 9.44378 17.9981 9.66929 17.8212 9.771L15.6537 11.0224C15.5962 11.0556 15.5329 11.0718 15.4695 11.0718V11.0725Z" fill="#DC2626"/>
<path d="M25.3191 6.54423C25.2093 6.54423 25.101 6.49485 25.0287 6.40273C24.916 6.25828 24.9256 6.05192 25.0531 5.92L26.2684 4.65828L23.5091 6.25165C23.3432 6.34819 23.1295 6.29955 23.0219 6.14183C22.9128 5.98412 22.9438 5.76818 23.0927 5.64732L24.0692 4.85137L22.9482 5.49844C22.7868 5.59278 22.5775 5.5493 22.4662 5.396C22.3557 5.24345 22.3778 5.03193 22.5171 4.90517L23.7257 3.81663L22.4463 4.5551C22.2849 4.64943 22.0749 4.60669 21.9636 4.45118C21.8531 4.29789 21.8766 4.08564 22.0174 3.95961L22.3586 3.65671L22.1611 3.77094C22.0005 3.86454 21.7934 3.82179 21.6806 3.67071C21.5693 3.51963 21.5892 3.30885 21.7263 3.18135L22.1427 2.79591L22.0373 2.85708C21.884 2.94551 21.6858 2.91235 21.57 2.77453C21.4558 2.63745 21.4558 2.43699 21.57 2.30065L22.1493 1.61304C22.0565 1.58945 21.9724 1.52976 21.9201 1.43985C21.8177 1.26371 21.8781 1.03819 22.055 0.936483L23.4044 0.157485C23.5577 0.0690468 23.7552 0.102211 23.8717 0.240028C23.9859 0.377108 23.9859 0.577569 23.8717 0.713912L23.4899 1.16642L24.6241 0.51124C24.7863 0.418379 24.9934 0.461125 25.1046 0.611471C25.2159 0.762553 25.196 0.973332 25.059 1.10083L24.6418 1.48628L25.1297 1.20475C25.2918 1.11189 25.5026 1.15463 25.6124 1.30866C25.723 1.46196 25.6994 1.67421 25.5586 1.80023L25.2174 2.10314L26.3863 1.42805C26.5484 1.33446 26.7585 1.37794 26.8683 1.5305C26.9788 1.68305 26.9567 1.89457 26.8174 2.02133L25.6095 3.10986L27.676 1.91668C27.8418 1.82087 28.0556 1.86804 28.1632 2.02649C28.2722 2.1842 28.2413 2.40014 28.0924 2.52101L27.1144 3.31843L28.1595 2.71484C28.3164 2.62419 28.5206 2.66177 28.6341 2.80696C28.7468 2.95141 28.7373 3.15777 28.6098 3.28969L27.3945 4.55068L27.9236 4.24556C28.099 4.14386 28.3253 4.20355 28.427 4.38043C28.5294 4.55657 28.469 4.78209 28.2921 4.88379L25.5026 6.49485C25.4451 6.52802 25.3825 6.54423 25.3191 6.54423Z" fill="#DC2626"/>
<path d="M9.45053 38.4839C12.2666 40.5681 15.3744 42.5712 18.7373 43.5802C25.9104 41.0737 32.7438 35.8845 36.4398 29.1522C42.9695 17.0243 26.2819 5.42701 18.8862 17.9263C7.44223 2.18942 -11.5853 24.3227 9.45053 38.4839ZM4.1501 15.7463C8.645 11.4475 16.4777 13.399 18.3195 19.3657C19.3925 20.8316 20.8436 14.4035 24.7091 13.7911C27.1803 12.9421 29.9123 13.4477 32.1085 14.7941C44.5201 24.2998 29.3551 39.4818 18.8855 42.7297C9.01349 39.2039 -5.62163 26.258 4.1501 15.7463Z" fill="#262626"/>
<path d="M14.1146 10.8077C17.1672 11.9913 19.1593 8.81636 19.3892 6.13151C19.6361 3.00446 15.0469 2.30064 14.0276 5.01792C8.79866 4.00972 9.45974 10.5947 14.1146 10.8077ZM11.5808 6.11382C12.673 3.99866 14.0062 6.98641 14.9533 5.63699C15.915 0.694003 20.9155 6.33565 16.3565 10.5114C14.06 10.5697 10.2174 8.95417 11.5808 6.11382Z" fill="#262626"/>
<path d="M22.7009 6.04582C23.9619 7.58687 26.9055 6.29271 28.19 5.21008C30.0539 3.55259 28.1738 0.501455 25.8928 1.54429C23.1837 -2.66244 19.2356 2.69989 22.7009 6.04582ZM23.4099 0.833836C25.3453 0.46092 24.3194 3.48405 25.8833 2.41689C28.9454 1.13379 28.5445 6.38484 24.026 5.9618C22.8417 4.78631 21.2675 1.77792 23.4099 0.834574V0.833836Z" fill="#262626"/>
</svg>
