<svg width="30" height="44" viewBox="0 0 30 44" fill="none" xmlns="http://www.w3.org/2000/svg">
<path d="M23.1959 16.9941C23.1335 16.9941 23.0722 16.9783 23.0176 16.9482C22.9629 16.9182 22.9168 16.8748 22.8834 16.8221C22.85 16.7694 22.8305 16.7092 22.8266 16.6469C22.8227 16.5847 22.8346 16.5225 22.8611 16.4661L23.4536 15.2122L21.5517 16.3128C21.4741 16.3575 21.3829 16.3726 21.295 16.3553C21.2071 16.3379 21.1285 16.2893 21.0737 16.2184C21.0189 16.1476 20.9917 16.0592 20.9971 15.9698C21.0024 15.8804 21.04 15.7959 21.1029 15.7321L22.1131 14.7063L21.5517 15.03C21.4755 15.074 21.386 15.0894 21.2994 15.0735C21.2129 15.0575 21.1348 15.0113 21.0792 14.9429C21.0237 14.8746 20.9943 14.7888 20.9963 14.7008C20.9983 14.6127 21.0316 14.5283 21.0903 14.4627L22.4819 12.9007L21.5517 13.4384C21.4756 13.4824 21.3863 13.4979 21.2998 13.4822C21.2133 13.4664 21.1352 13.4204 21.0796 13.3523C21.0239 13.2843 20.9942 13.1986 20.9959 13.1107C20.9976 13.0228 21.0305 12.9384 21.0888 12.8725L22.5034 11.2698L21.5517 11.8186C21.4729 11.8625 21.3807 11.8762 21.2925 11.8569C21.2044 11.8377 21.1262 11.787 21.0728 11.7142C21.0195 11.6414 20.9945 11.5517 21.0026 11.4618C21.0107 11.3719 21.0514 11.2881 21.1169 11.2261L21.4687 10.9069C21.3913 10.9291 21.3087 10.9255 21.2335 10.8966C21.1582 10.8677 21.0945 10.815 21.052 10.7465C21.0094 10.6781 20.9903 10.5976 20.9976 10.5173C21.005 10.4371 21.0383 10.3614 21.0925 10.3018L22.1294 9.1612L21.5028 9.52337C21.4278 9.5669 21.3399 9.58272 21.2544 9.56808C21.1689 9.55342 21.0913 9.50923 21.035 9.44321C20.9788 9.37718 20.9475 9.29351 20.9466 9.20678C20.9458 9.12006 20.9754 9.03578 21.0303 8.96864L22.0331 7.73548L21.2125 8.20949C21.1381 8.25215 21.0512 8.26769 20.9667 8.25344C20.8821 8.2392 20.8052 8.19606 20.7489 8.13138C20.6926 8.0667 20.6605 7.9845 20.658 7.89879C20.6556 7.81308 20.683 7.72919 20.7355 7.66142L21.5984 6.55047L20.7096 7.06076C20.6325 7.10481 20.5422 7.11971 20.4551 7.10275C20.368 7.0858 20.2898 7.03812 20.2349 6.96839C20.18 6.89867 20.152 6.81153 20.1559 6.72287C20.1598 6.6342 20.1955 6.54989 20.2563 6.48529L20.5689 6.15719L20.2489 6.34161C20.1719 6.38616 20.0815 6.40151 19.9941 6.38484C19.9067 6.36818 19.8282 6.32062 19.7731 6.25086C19.7179 6.1811 19.6896 6.09381 19.6935 6.00494C19.6974 5.91607 19.7331 5.83156 19.7942 5.76688L20.0941 5.44766L19.6927 5.67948C19.6216 5.7201 19.5391 5.736 19.458 5.72471C19.3769 5.71343 19.3018 5.67558 19.2445 5.61709C19.1872 5.55861 19.1509 5.48278 19.1413 5.40147C19.1316 5.32016 19.1492 5.23795 19.1913 5.1677L19.9964 3.83456L18.5144 4.6974C18.4387 4.74109 18.35 4.75663 18.264 4.74126C18.178 4.72589 18.1002 4.68061 18.0444 4.61342C17.9885 4.54623 17.9582 4.46146 17.9589 4.37409C17.9595 4.28673 17.991 4.20239 18.0478 4.136L18.5514 3.54794L17.5056 4.15156C17.4328 4.19332 17.3479 4.20907 17.2649 4.19622C17.1819 4.18338 17.1057 4.14271 17.0488 4.08087C16.992 4.01904 16.9579 3.93972 16.9521 3.85594C16.9462 3.77216 16.9691 3.68888 17.0168 3.61978L17.7574 2.55031L15.8103 3.67681C15.7363 3.71941 15.6499 3.73515 15.5657 3.72137C15.4815 3.7076 15.4046 3.66515 15.3481 3.60121C15.2915 3.53727 15.2588 3.45576 15.2555 3.37048C15.2521 3.2852 15.2783 3.20137 15.3296 3.13318L16.1532 2.04297L12.9596 3.88567C12.9175 3.91246 12.8703 3.93045 12.821 3.93856C12.7718 3.94666 12.7213 3.94472 12.6728 3.93284C12.6243 3.92095 12.5787 3.89938 12.5388 3.86942C12.4988 3.83945 12.4653 3.80171 12.4403 3.75847C12.4153 3.71523 12.3993 3.66739 12.3933 3.61781C12.3873 3.56823 12.3914 3.51794 12.4053 3.46997C12.4192 3.42201 12.4427 3.37735 12.4743 3.33869C12.5059 3.30003 12.545 3.26817 12.5893 3.24502L17.3642 0.492084C17.438 0.449136 17.5244 0.433048 17.6088 0.446546C17.6932 0.460044 17.7703 0.502299 17.8271 0.566148C17.8837 0.630222 17.9164 0.711925 17.9197 0.797384C17.9229 0.882843 17.8965 0.96679 17.8448 1.03497L17.022 2.12148L18.8262 1.07941C18.899 1.03765 18.9839 1.02189 19.0669 1.03474C19.1499 1.04758 19.2261 1.08826 19.2829 1.15009C19.3398 1.21192 19.3739 1.29124 19.3797 1.37502C19.3856 1.45881 19.3627 1.54208 19.315 1.61118L18.5743 2.68066L20.0556 1.82597C20.1313 1.78227 20.2199 1.76674 20.306 1.78211C20.392 1.79748 20.4698 1.84276 20.5256 1.90995C20.5814 1.97714 20.6117 2.06191 20.6111 2.14928C20.6105 2.23664 20.579 2.32097 20.5222 2.38737L20.0178 2.97987L20.8792 2.48291C20.9503 2.44196 21.033 2.42578 21.1143 2.43692C21.1956 2.44806 21.2709 2.48588 21.3283 2.54445C21.3858 2.60302 21.4222 2.67902 21.4318 2.76051C21.4414 2.842 21.4236 2.92437 21.3814 2.99469L20.5763 4.32783L21.9094 3.55905C21.9863 3.51503 22.0765 3.50005 22.1635 3.51683C22.2505 3.5336 22.3286 3.58103 22.3836 3.65048C22.4387 3.71994 22.467 3.80683 22.4634 3.89537C22.4598 3.98391 22.4246 4.06824 22.3642 4.13304L22.0679 4.45151L22.4301 4.24265C22.5071 4.19861 22.5975 4.18371 22.6846 4.20067C22.7717 4.21762 22.8498 4.2653 22.9048 4.33503C22.9597 4.40475 22.9877 4.49188 22.9838 4.58055C22.9799 4.66922 22.9442 4.75353 22.8834 4.81813L22.5708 5.14697L22.8782 4.96921C22.9526 4.92576 23.0399 4.90964 23.125 4.92364C23.2101 4.93763 23.2876 4.98088 23.3442 5.0459C23.4008 5.11093 23.4329 5.19367 23.4351 5.27985C23.4372 5.36604 23.4092 5.45027 23.3559 5.51802L22.4871 6.61861L23.4099 6.08609C23.485 6.04256 23.5729 6.02674 23.6584 6.04139C23.7439 6.05604 23.8215 6.10023 23.8777 6.16625C23.934 6.23228 23.9652 6.31595 23.9661 6.40268C23.967 6.48941 23.9374 6.57369 23.8825 6.64083L22.8782 7.87176L23.8121 7.33332C23.8885 7.2898 23.9779 7.27487 24.0642 7.2912C24.1506 7.30753 24.2284 7.35405 24.2836 7.42245C24.3388 7.49085 24.3679 7.57667 24.3656 7.66455C24.3634 7.75243 24.33 7.83664 24.2713 7.90212L23.2344 9.04122L24.0328 8.58055C24.1117 8.53661 24.2038 8.52297 24.292 8.54219C24.3802 8.56142 24.4583 8.61218 24.5117 8.68494C24.5651 8.7577 24.59 8.84745 24.5819 8.93734C24.5738 9.02722 24.5331 9.11104 24.4676 9.17305L24.1395 9.46931C24.2174 9.43661 24.3042 9.43157 24.3854 9.45501C24.4666 9.47846 24.5374 9.52898 24.5859 9.59818C24.6344 9.66739 24.6578 9.75111 24.6522 9.83545C24.6466 9.91979 24.6123 9.99967 24.555 10.0618L23.1411 11.6638L24.1039 11.1091C24.1802 11.065 24.2696 11.0496 24.3562 11.0656C24.4428 11.0815 24.5208 11.1278 24.5764 11.1961C24.6319 11.2644 24.6613 11.3503 24.6593 11.4383C24.6573 11.5263 24.624 11.6107 24.5653 11.6764L23.1722 13.2391L24.1084 12.6992C24.1859 12.6545 24.277 12.6394 24.3648 12.6566C24.4526 12.6739 24.5312 12.7224 24.5861 12.7931C24.6409 12.8638 24.6683 12.952 24.6631 13.0414C24.6579 13.1307 24.6206 13.2152 24.5579 13.2791L23.5492 14.3049L24.1135 13.9783C24.1819 13.9394 24.2609 13.9232 24.339 13.9322C24.4171 13.9411 24.4904 13.9748 24.5481 14.0281C24.6059 14.0815 24.6452 14.1519 24.6602 14.2291C24.6753 14.3063 24.6654 14.3863 24.632 14.4575L24.0395 15.7099L24.118 15.6654C24.1601 15.6387 24.2073 15.6207 24.2566 15.6126C24.3058 15.6044 24.3563 15.6064 24.4048 15.6183C24.4533 15.6302 24.4989 15.6517 24.5388 15.6817C24.5788 15.7117 24.6123 15.7494 24.6373 15.7926C24.6623 15.8359 24.6783 15.8837 24.6843 15.9333C24.6903 15.9829 24.6862 16.0332 24.6723 16.0811C24.6584 16.1291 24.6349 16.1738 24.6033 16.2124C24.5717 16.2511 24.5326 16.2829 24.4883 16.3061L23.3825 16.9445C23.3258 16.9773 23.2614 16.9944 23.1959 16.9941Z" fill="#D1D7DB"/>
<path d="M5.54708 17.0083C5.47353 17.0083 5.40165 16.9864 5.34061 16.9454C5.27956 16.9044 5.23211 16.8461 5.2043 16.778C5.1765 16.7099 5.16959 16.6351 5.18447 16.5631C5.19935 16.4911 5.23534 16.4251 5.28785 16.3736L5.65817 16.0129L5.26045 16.2425C5.18164 16.2859 5.08975 16.2991 5.00192 16.2796C4.9141 16.2602 4.83635 16.2095 4.7832 16.1369C4.73004 16.0643 4.70512 15.9749 4.71308 15.8853C4.72103 15.7957 4.76133 15.7121 4.82644 15.65L5.19676 15.3123C5.11799 15.3401 5.03213 15.3405 4.95312 15.3133C4.87412 15.2862 4.80661 15.2331 4.76157 15.1628C4.71653 15.0924 4.69659 15.0089 4.70501 14.9258C4.71342 14.8427 4.74969 14.7649 4.80792 14.705L5.83667 13.6555L5.25749 13.9895C5.17979 14.0322 5.08936 14.0456 5.00262 14.0273C4.91588 14.009 4.8386 13.9601 4.78481 13.8897C4.73101 13.8192 4.70429 13.7318 4.70948 13.6433C4.71467 13.5548 4.75144 13.4711 4.81311 13.4074L5.74631 12.4734L5.25971 12.7541C5.18384 12.7978 5.09497 12.8131 5.00886 12.7974C4.92276 12.7818 4.84498 12.7361 4.78933 12.6686C4.73368 12.601 4.70375 12.516 4.70485 12.4284C4.70594 12.3409 4.738 12.2566 4.79533 12.1905L6.32845 10.4322L5.25971 11.0484C5.18164 11.0935 5.08982 11.1085 5.00148 11.0907C4.91313 11.0728 4.83431 11.0234 4.7798 10.9516C4.72529 10.8799 4.69883 10.7907 4.70537 10.7008C4.71191 10.6109 4.751 10.5265 4.81533 10.4633L6.19884 9.10725L5.28267 9.63606C5.2021 9.68291 5.10683 9.69766 5.01586 9.67736C4.9249 9.65706 4.84493 9.60321 4.79192 9.52655C4.73891 9.44989 4.71676 9.35606 4.72989 9.26378C4.74301 9.17151 4.79045 9.08758 4.86273 9.02874L5.80926 8.25552L5.43894 8.47104C5.35557 8.51938 5.25664 8.53332 5.16316 8.50988C5.06967 8.48645 4.98901 8.4275 4.9383 8.34555C4.88758 8.2636 4.87082 8.1651 4.89156 8.07099C4.9123 7.97687 4.96891 7.89455 5.04937 7.8415L6.29586 7.00977L5.72557 7.33861C5.6436 7.38487 5.5471 7.39819 5.45567 7.37585C5.36424 7.35351 5.28474 7.29719 5.23334 7.21835C5.18194 7.1395 5.16249 7.04404 5.17895 6.95137C5.1954 6.8587 5.24652 6.77578 5.32192 6.71944L8.85919 4.13537L6.55952 5.46037C6.4791 5.50539 6.38477 5.5188 6.29498 5.49798C6.20519 5.47716 6.12639 5.4236 6.07399 5.34777C6.02159 5.27195 5.99935 5.1793 6.01161 5.08795C6.02388 4.9966 6.06977 4.9131 6.14032 4.85379L8.27409 3.10811C8.20096 3.09258 8.13425 3.05528 8.08272 3.00111C8.0312 2.94694 7.99727 2.87845 7.98541 2.80463C7.97355 2.73082 7.98431 2.65515 8.01627 2.58756C8.04823 2.51998 8.0999 2.46365 8.16448 2.42599L11.404 0.555151C11.4845 0.509363 11.5791 0.495369 11.6694 0.515926C11.7597 0.536482 11.839 0.590098 11.8916 0.666209C11.9443 0.742319 11.9666 0.835405 11.9541 0.927124C11.9416 1.01884 11.8951 1.10254 11.8239 1.16173L10.1427 2.53709L14.4562 0.0478166C14.5381 0.00155686 14.6346 -0.0117564 14.7261 0.0105827C14.8175 0.0329218 14.897 0.0892369 14.9484 0.168082C14.9998 0.246927 15.0192 0.342386 15.0028 0.435057C14.9863 0.527727 14.9352 0.610655 14.8598 0.666986L11.3233 3.25032L16.5077 0.259638C16.5908 0.214886 16.6879 0.203553 16.779 0.227952C16.8702 0.252351 16.9486 0.310642 16.9983 0.390916C17.0479 0.471189 17.065 0.567387 17.0461 0.659856C17.0272 0.752325 16.9737 0.834086 16.8965 0.888436L9.93459 5.49073C9.96615 5.56464 9.97282 5.6468 9.95358 5.72483C9.93434 5.80285 9.89024 5.8725 9.82794 5.92326L8.56886 6.94904C8.63994 6.95427 8.70799 6.9799 8.76486 7.02285C8.82172 7.06581 8.86499 7.12425 8.88946 7.19118C8.91394 7.25812 8.91858 7.33069 8.90283 7.40019C8.88708 7.4697 8.85161 7.53318 8.80068 7.58302L7.42014 8.93986L7.88229 8.67324C7.95817 8.62961 8.04704 8.61427 8.13314 8.62994C8.21925 8.6456 8.29703 8.69125 8.35268 8.7588C8.40833 8.82634 8.43826 8.91141 8.43716 8.99893C8.43606 9.08644 8.404 9.17073 8.34667 9.23686L6.8143 10.9959L7.81045 10.4204C7.88825 10.3772 7.97901 10.3634 8.06612 10.3816C8.15324 10.3998 8.23088 10.4488 8.28484 10.5196C8.3388 10.5903 8.36546 10.6782 8.35995 10.767C8.35444 10.8558 8.31713 10.9397 8.25483 11.0033L7.32238 11.9357L7.81193 11.6535C7.88939 11.6089 7.98039 11.5937 8.06814 11.6109C8.15589 11.6281 8.23446 11.6764 8.28934 11.747C8.34422 11.8176 8.37171 11.9057 8.36673 11.9949C8.36175 12.0842 8.32464 12.1687 8.26224 12.2327L7.23276 13.2822L7.81638 12.946C7.89519 12.9026 7.98708 12.8894 8.07491 12.9088C8.16273 12.9283 8.24048 12.979 8.29363 13.0516C8.34679 13.1241 8.37171 13.2136 8.36375 13.3032C8.3558 13.3928 8.3155 13.4764 8.25039 13.5385L7.88007 13.874C7.95448 13.8478 8.03524 13.8458 8.11088 13.8681C8.18653 13.8904 8.25322 13.936 8.30149 13.9984C8.35626 14.0704 8.38281 14.1599 8.37612 14.25C8.36944 14.3402 8.32998 14.4249 8.2652 14.488L7.88007 14.8642C7.94398 14.84 8.01333 14.834 8.08045 14.8468C8.14756 14.8596 8.20982 14.8908 8.26034 14.9368C8.31087 14.9828 8.34768 15.0418 8.3667 15.1075C8.38573 15.1731 8.38623 15.2427 8.36815 15.3086L8.16744 16.0662C8.23724 16.0968 8.29557 16.1486 8.33408 16.2144C8.38295 16.2994 8.39613 16.4003 8.37072 16.4949C8.34531 16.5896 8.2834 16.6704 8.19855 16.7195L7.82379 16.9357C7.7605 16.9721 7.68787 16.989 7.61502 16.9843C7.54217 16.9795 7.47235 16.9533 7.41434 16.909C7.35633 16.8647 7.31271 16.8042 7.28897 16.7352C7.26523 16.6661 7.26242 16.5916 7.2809 16.521L7.42458 15.9759L5.73372 16.952C5.67782 16.9875 5.61327 17.007 5.54708 17.0083Z" fill="#D1D7DB"/>
<path d="M16.0731 43.5757C15.9949 43.5756 15.9187 43.5508 15.8554 43.5048C15.7921 43.4588 15.7451 43.3939 15.721 43.3194C15.6969 43.245 15.697 43.1648 15.7213 43.0904C15.7455 43.0161 15.7927 42.9513 15.8561 42.9054L21.5205 38.8008L13.3535 43.5157C13.2706 43.5623 13.1729 43.5753 13.0807 43.5518C12.9886 43.5284 12.9089 43.4703 12.8584 43.3898C12.8078 43.3092 12.7902 43.2123 12.8091 43.1191C12.8281 43.0258 12.8822 42.9435 12.9602 42.8891L19.8178 38.2157L11.2953 43.1357C11.212 43.1823 11.1139 43.195 11.0216 43.171C10.9292 43.147 10.8496 43.0883 10.7995 43.0071C10.7493 42.9259 10.7324 42.8285 10.7524 42.7352C10.7723 42.6419 10.8275 42.5598 10.9065 42.5062L17.6573 38.0698L9.75108 42.6343C9.6673 42.6856 9.56659 42.7015 9.4711 42.6785C9.37561 42.6555 9.29316 42.5955 9.2419 42.5118C9.19063 42.428 9.17474 42.3273 9.19773 42.2318C9.22071 42.1363 9.28069 42.0538 9.36447 42.0026L15.9117 37.781L8.4846 42.0663C8.40106 42.1163 8.30119 42.1314 8.20659 42.1083C8.112 42.0853 8.03029 42.0259 7.97917 41.943C7.92805 41.8601 7.91162 41.7605 7.93344 41.6656C7.95526 41.5707 8.01358 41.4882 8.09577 41.436L17.7981 35.0599L7.08554 41.2464C7.00157 41.2975 6.90075 41.3131 6.80525 41.2898C6.70976 41.2666 6.62743 41.2063 6.57636 41.1223C6.52528 41.0384 6.50966 40.9375 6.53293 40.842C6.55619 40.7466 6.61644 40.6642 6.70041 40.6131L14.5852 35.5768L6.0605 40.4991C5.9766 40.5461 5.87769 40.5586 5.78472 40.534C5.69174 40.5094 5.61199 40.4496 5.56234 40.3672C5.51268 40.2848 5.49703 40.1864 5.51868 40.0927C5.54033 39.999 5.59759 39.9173 5.67834 39.8651L12.27 35.7176L5.23914 39.7762C5.15533 39.8216 5.05724 39.833 4.96528 39.8079C4.87332 39.7828 4.79458 39.7232 4.74544 39.6415C4.6963 39.5599 4.68055 39.4624 4.70146 39.3694C4.72237 39.2764 4.77834 39.195 4.85771 39.1422L10.5702 35.5717L4.52887 39.0593C4.44532 39.1052 4.34727 39.1172 4.25512 39.0927C4.16298 39.0681 4.08386 39.009 4.03422 38.9276C3.98459 38.8462 3.96827 38.7487 3.98868 38.6556C4.00908 38.5624 4.06462 38.4808 4.14374 38.4275L14.9918 31.4789L3.66011 38.0202C3.57663 38.0649 3.47921 38.0759 3.38786 38.051C3.29652 38.0261 3.21819 37.9671 3.16897 37.8862C3.11975 37.8053 3.10339 37.7086 3.12325 37.6161C3.1431 37.5235 3.19766 37.442 3.27572 37.3884L15.2236 29.7192L2.86541 36.8574C2.78154 36.9086 2.68077 36.9243 2.58528 36.9012C2.48979 36.8781 2.40739 36.818 2.35622 36.7341C2.30505 36.6502 2.2893 36.5494 2.31243 36.4539C2.33555 36.3585 2.39567 36.2761 2.47954 36.2249L15.3762 27.9379L2.16625 35.5665C2.0824 35.6144 1.98315 35.6277 1.88965 35.6034C1.79616 35.5792 1.71583 35.5194 1.66578 35.4368C1.61574 35.3542 1.59995 35.2554 1.62177 35.1613C1.64359 35.0672 1.70131 34.9854 1.7826 34.9332L13.8712 27.2388L1.63818 34.3015C1.55421 34.3525 1.45339 34.3682 1.35789 34.3449C1.2624 34.3216 1.18007 34.2614 1.12899 34.1774C1.07792 34.0934 1.0623 33.9926 1.08557 33.8971C1.10883 33.8016 1.16908 33.7193 1.25305 33.6682L13.7698 25.6783L1.22343 32.9194C1.13967 32.9655 1.04135 32.9774 0.949037 32.9526C0.856719 32.9279 0.777553 32.8684 0.728095 32.7866C0.678638 32.7048 0.662721 32.607 0.683674 32.5138C0.704627 32.4205 0.760827 32.339 0.840518 32.2862L10.3947 26.2789L0.98346 31.71C0.899382 31.7549 0.801213 31.7657 0.709386 31.7401C0.61756 31.7145 0.539152 31.6544 0.490483 31.5724C0.441813 31.4905 0.426633 31.3929 0.448101 31.3C0.469569 31.2071 0.526032 31.1261 0.605737 31.0738L4.69626 28.5497L0.872365 30.7568C0.787999 30.8071 0.687112 30.8218 0.591899 30.7977C0.496686 30.7736 0.414947 30.7127 0.364661 30.6283C0.314375 30.5439 0.299663 30.443 0.323761 30.3478C0.34786 30.2526 0.408794 30.1709 0.49316 30.1206L3.85564 28.0468L0.819039 29.7977C0.73496 29.8462 0.635207 29.8597 0.541248 29.8354C0.44729 29.811 0.366636 29.7508 0.316644 29.6676C0.266652 29.5844 0.251318 29.4849 0.273942 29.3905C0.296565 29.2962 0.355338 29.2144 0.437613 29.1629L4.94881 26.3485L0.813114 28.7341C0.729443 28.7788 0.631801 28.7897 0.540329 28.7646C0.448856 28.7394 0.370531 28.6801 0.321511 28.5989C0.272491 28.5176 0.256514 28.4207 0.276877 28.328C0.29724 28.2354 0.352388 28.1541 0.430947 28.1009L5.56132 24.8591L0.813114 27.5995C0.729361 27.6455 0.631044 27.6574 0.538726 27.6327C0.446408 27.6079 0.367242 27.5484 0.317784 27.4666C0.268327 27.3848 0.25241 27.2871 0.273363 27.1938C0.294316 27.1005 0.350515 27.019 0.430206 26.9662L4.65997 24.28L0.813114 26.5019C0.729699 26.5471 0.632084 26.5587 0.54042 26.534C0.448757 26.5094 0.370043 26.4506 0.320528 26.3696C0.271014 26.2886 0.254479 26.1917 0.274338 26.0989C0.294196 26.0061 0.348931 25.9245 0.427244 25.8708L5.03473 22.8927L0.813114 25.3302C0.72989 25.3755 0.632473 25.3871 0.540911 25.3628C0.449348 25.3384 0.370604 25.2799 0.320884 25.1992C0.271163 25.1186 0.254248 25.0219 0.273619 24.9292C0.292991 24.8364 0.347175 24.7546 0.425022 24.7006L4.61182 21.9514L0.813114 24.1459C0.730265 24.1933 0.632332 24.2068 0.539737 24.1837C0.447143 24.1606 0.367037 24.1027 0.316125 24.022C0.265212 23.9412 0.247425 23.844 0.266472 23.7505C0.285519 23.657 0.339929 23.5744 0.418356 23.5201L5.26284 20.1872L0.813114 22.7565C0.730635 22.804 0.633008 22.818 0.540503 22.7955C0.447998 22.7729 0.367725 22.7156 0.316351 22.6355C0.264977 22.5553 0.246451 22.4585 0.264618 22.365C0.282785 22.2715 0.336251 22.1887 0.413913 22.1336L4.18226 19.4606L0.813114 21.4056C0.732123 21.452 0.636595 21.4661 0.545649 21.445C0.454702 21.424 0.375047 21.3694 0.322623 21.2922C0.2702 21.215 0.248877 21.1208 0.262919 21.0285C0.276962 20.9362 0.325336 20.8527 0.39836 20.7945L3.91415 18.0009L0.81978 19.7873C0.73914 19.8335 0.644063 19.8477 0.553426 19.8271C0.462789 19.8065 0.383222 19.7525 0.330526 19.6759C0.277829 19.5994 0.255857 19.5058 0.268973 19.4138C0.282088 19.3217 0.329331 19.238 0.401322 19.1792L2.0596 17.8327L1.08937 18.3927C1.01002 18.4378 0.916787 18.4521 0.827574 18.4327C0.738361 18.4133 0.659456 18.3616 0.60601 18.2876C0.552563 18.2136 0.528343 18.1224 0.537998 18.0316C0.547653 17.9408 0.590503 17.8568 0.658322 17.7957L1.67669 16.8907C1.6127 16.8569 1.55974 16.8055 1.52412 16.7425C1.47502 16.6575 1.46171 16.5564 1.48713 16.4615C1.51255 16.3667 1.57461 16.2858 1.65966 16.2367L3.83342 14.9776C3.91277 14.9324 4.006 14.9182 4.09521 14.9376C4.18443 14.957 4.26333 15.0087 4.31678 15.0827C4.37023 15.1567 4.39445 15.2478 4.38479 15.3386C4.37514 15.4294 4.33229 15.5134 4.26447 15.5745L3.86675 15.9286L5.73166 14.8606C5.8123 14.8143 5.90738 14.8001 5.99802 14.8207C6.08865 14.8414 6.16822 14.8953 6.22092 14.9719C6.27361 15.0485 6.29559 15.1421 6.28247 15.2341C6.26935 15.3261 6.22211 15.4098 6.15012 15.4686L4.49406 16.8107L7.8758 14.8606C7.95669 14.8144 8.052 14.8005 8.14273 14.8215C8.23345 14.8425 8.31294 14.8969 8.36535 14.9739C8.41776 15.0508 8.43924 15.1447 8.42552 15.2368C8.41179 15.3289 8.36387 15.4125 8.29129 15.4709L4.7755 18.2623L10.6717 14.8554C10.754 14.8095 10.8507 14.7968 10.9421 14.8197C11.0335 14.8427 11.1127 14.8996 11.1635 14.9789C11.2144 15.0582 11.2332 15.1539 11.216 15.2466C11.1987 15.3392 11.1469 15.4218 11.0709 15.4775L7.30181 18.152L13.0121 14.8554C13.0948 14.8099 13.1917 14.7976 13.2831 14.8211C13.3745 14.8447 13.4535 14.9022 13.5039 14.982C13.5543 15.0618 13.5723 15.1579 13.5542 15.2505C13.5362 15.3431 13.4835 15.4254 13.4068 15.4805L8.5631 18.8133L15.4184 14.8606C15.5016 14.8153 15.5991 14.8036 15.6906 14.828C15.7822 14.8523 15.8609 14.9109 15.9106 14.9915C15.9604 15.0722 15.9773 15.1688 15.9579 15.2616C15.9385 15.3543 15.8843 15.4361 15.8065 15.4901L11.6219 18.2379L17.4729 14.8606C17.5564 14.8139 17.6547 14.8014 17.7472 14.8256C17.8398 14.8498 17.9194 14.9088 17.9693 14.9904C18.0193 15.0719 18.0358 15.1697 18.0153 15.2631C17.9948 15.3565 17.939 15.4384 17.8595 15.4916L13.2469 18.4726L19.503 14.8606C19.5865 14.8164 19.6838 14.8059 19.7748 14.8311C19.8659 14.8563 19.9439 14.9154 19.9928 14.9962C20.0417 15.077 20.0579 15.1735 20.038 15.2659C20.0182 15.3582 19.9637 15.4395 19.8859 15.4931L15.6562 18.1794L21.4057 14.8606C21.4894 14.8145 21.5878 14.8026 21.6801 14.8274C21.7724 14.8522 21.8516 14.9117 21.901 14.9934C21.9505 15.0752 21.9664 15.173 21.9454 15.2662C21.9245 15.3595 21.8683 15.441 21.7886 15.4938L16.6619 18.7304L23.3654 14.8606C23.4492 14.8152 23.5473 14.8038 23.6393 14.8289C23.7312 14.854 23.81 14.9136 23.8591 14.9953C23.9082 15.077 23.924 15.1744 23.9031 15.2674C23.8822 15.3604 23.8262 15.4418 23.7468 15.4946L19.2364 18.309L25.0415 14.9583C25.1256 14.9109 25.2249 14.8983 25.3182 14.9231C25.4116 14.9478 25.4915 15.0081 25.5411 15.0909C25.5906 15.1738 25.6058 15.2728 25.5835 15.3667C25.5611 15.4606 25.503 15.5421 25.4214 15.5938L22.0612 17.6676L26.105 15.3324C26.1894 15.2821 26.2903 15.2674 26.3855 15.2915C26.4807 15.3156 26.5624 15.3765 26.6127 15.4609C26.663 15.5452 26.6777 15.6461 26.6536 15.7413C26.6295 15.8365 26.5686 15.9183 26.4842 15.9686L22.3967 18.4897L26.9367 15.8686C27.0204 15.8239 27.1181 15.813 27.2095 15.8381C27.301 15.8633 27.3793 15.9226 27.4283 16.0038C27.4774 16.0851 27.4933 16.182 27.473 16.2747C27.4526 16.3673 27.3975 16.4486 27.3189 16.5018L17.7647 22.5121L27.7448 16.7499C27.8288 16.699 27.9295 16.6834 28.025 16.7068C28.1204 16.7301 28.2026 16.7904 28.2536 16.8744C28.3046 16.9583 28.3201 17.0591 28.2968 17.1545C28.2734 17.25 28.2131 17.3322 28.1292 17.3832L15.6191 25.3776L28.358 18.0231C28.4419 17.9752 28.5411 17.9619 28.6346 17.9861C28.7281 18.0103 28.8084 18.0701 28.8585 18.1527C28.9085 18.2353 28.9243 18.3342 28.9025 18.4283C28.8807 18.5224 28.823 18.6042 28.7417 18.6563L16.659 26.3404L28.5424 19.4814C28.626 19.4354 28.724 19.4235 28.8162 19.448C28.9083 19.4726 28.9875 19.5317 29.0371 19.6131C29.0867 19.6945 29.103 19.792 29.0826 19.8851C29.0622 19.9782 29.0067 20.0599 28.9276 20.1131L16.0228 28.4031L28.5395 21.1752C28.623 21.1305 28.7204 21.1195 28.8117 21.1444C28.9031 21.1694 28.9814 21.2283 29.0306 21.3092C29.0798 21.3901 29.0962 21.4868 29.0763 21.5793C29.0565 21.6719 29.0019 21.7534 28.9239 21.807L16.9789 29.4733L28.5424 22.7972C28.6261 22.7504 28.7247 22.7379 28.8174 22.7623C28.9102 22.7868 28.9898 22.8462 29.0396 22.9281C29.0894 23.0101 29.1054 23.1081 29.0844 23.2017C29.0634 23.2952 29.0069 23.377 28.9268 23.4297L18.0847 30.3754L28.5424 24.3407C28.6262 24.2965 28.7236 24.2861 28.8148 24.3116C28.906 24.337 28.9839 24.3964 29.0327 24.4776C29.0814 24.5588 29.0972 24.6555 29.0768 24.7479C29.0565 24.8404 29.0015 24.9215 28.9231 24.9747L23.1988 28.5527L28.5424 25.4679C28.6261 25.4232 28.7238 25.4123 28.8152 25.4375C28.9067 25.4626 28.985 25.522 29.034 25.6032C29.0831 25.6844 29.099 25.7814 29.0787 25.874C29.0583 25.9667 29.0032 26.048 28.9246 26.1012L22.3448 30.2487L28.5424 26.6707C28.6264 26.6197 28.7272 26.6042 28.8226 26.6276C28.918 26.6509 29.0003 26.7112 29.0513 26.7951C29.1022 26.8791 29.1178 26.9799 29.0944 27.0753C29.0711 27.1707 29.0108 27.253 28.9268 27.304L21.0472 32.3321L28.5424 28.0031C28.6257 27.9578 28.7231 27.9462 28.8146 27.9705C28.9062 27.9949 28.9849 28.0534 29.0347 28.1341C29.0844 28.2147 29.1013 28.3114 29.0819 28.4041C29.0626 28.4969 29.0084 28.5786 28.9305 28.6327L19.223 35.0117L28.521 29.6436C28.6045 29.597 28.7028 29.5844 28.7953 29.6086C28.8878 29.6328 28.9674 29.6919 29.0174 29.7734C29.0673 29.855 29.0838 29.9527 29.0633 30.0461C29.0429 30.1396 28.9871 30.2214 28.9076 30.2746L22.3581 34.4963L28.3795 31.0249C28.4627 30.9796 28.5601 30.968 28.6517 30.9923C28.7433 31.0167 28.822 31.0752 28.8717 31.1558C28.9214 31.2365 28.9384 31.3331 28.919 31.4259C28.8996 31.5186 28.8454 31.6004 28.7676 31.6544L22.0167 36.0916L28.0447 32.6106C28.1276 32.564 28.2253 32.551 28.3175 32.5745C28.4097 32.5979 28.4893 32.6559 28.5399 32.7365C28.5905 32.8171 28.6081 32.914 28.5891 33.0072C28.5702 33.1004 28.516 33.1828 28.438 33.2372L21.5812 37.9106L27.3426 34.5829C27.4248 34.5357 27.5219 34.5219 27.614 34.5442C27.7061 34.5664 27.7862 34.6232 27.8377 34.7027C27.8892 34.7822 27.9083 34.8785 27.891 34.9717C27.8738 35.0648 27.8214 35.1478 27.7448 35.2036L22.0841 39.3074L25.9095 37.0996C25.9908 37.0529 26.0869 37.0388 26.1782 37.0602C26.2696 37.0815 26.3494 37.1368 26.4016 37.2147C26.4537 37.2927 26.4744 37.3875 26.4594 37.4801C26.4443 37.5727 26.3947 37.6561 26.3205 37.7136L23.6624 39.7555C23.7324 39.7754 23.795 39.8155 23.8423 39.8708C23.8896 39.926 23.9196 39.994 23.9286 40.0662C23.9375 40.1384 23.9249 40.2117 23.8925 40.2768C23.86 40.3419 23.8091 40.3961 23.7461 40.4324L19.84 42.6869C19.7586 42.7336 19.6626 42.7477 19.5713 42.7263C19.4799 42.705 19.4001 42.6497 19.3479 42.5718C19.2957 42.4938 19.2751 42.399 19.2901 42.3064C19.3052 42.2138 19.3548 42.1304 19.4289 42.0729L21.4064 40.5539L16.2583 43.5231C16.2024 43.5569 16.1385 43.5751 16.0731 43.5757Z" fill="#E0BF62"/>
<path d="M14.1254 34.7615C14.05 34.7614 13.9764 34.7383 13.9145 34.6954C13.8526 34.6524 13.8053 34.5915 13.7789 34.5209C13.7525 34.4503 13.7482 34.3733 13.7667 34.3002C13.7853 34.2271 13.8256 34.1615 13.8825 34.1119L14.2328 33.8068L12.8426 34.6089C12.7637 34.6577 12.6693 34.6751 12.5782 34.6577C12.4871 34.6402 12.4058 34.5892 12.3505 34.5147C12.2952 34.4402 12.2698 34.3477 12.2795 34.2554C12.2892 34.1631 12.3331 34.0778 12.4027 34.0164L14.4913 32.0404L11.9494 33.5068C11.8686 33.5527 11.7735 33.5666 11.683 33.5456C11.5925 33.5246 11.5131 33.4704 11.4607 33.3937C11.4083 33.3169 11.3867 33.2233 11.4001 33.1313C11.4135 33.0394 11.461 32.9559 11.5332 32.8973L14.1869 30.7709L12.1872 31.9263C12.1057 31.9734 12.0094 31.9877 11.9178 31.9663C11.8262 31.9449 11.7461 31.8895 11.6939 31.8113C11.6417 31.733 11.6212 31.6378 11.6366 31.545C11.652 31.4522 11.7021 31.3688 11.7768 31.3116L13.5344 29.9696L12.479 30.5784C12.3993 30.6234 12.3058 30.6373 12.2165 30.6174C12.1272 30.5975 12.0484 30.5453 11.9953 30.4708C11.9422 30.3963 11.9186 30.3047 11.929 30.2138C11.9394 30.1229 11.9831 30.0391 12.0516 29.9785L14.7979 27.5996L11.7857 29.3378C11.7063 29.3824 11.6132 29.3962 11.5243 29.3765C11.4354 29.3568 11.3568 29.305 11.3037 29.2311C11.2505 29.1571 11.2265 29.0661 11.2362 28.9756C11.2458 28.885 11.2886 28.8012 11.3562 28.7401L14.0224 26.3901L11.248 27.9913C11.1663 28.0385 11.0697 28.0527 10.9778 28.031C10.886 28.0093 10.8059 27.9534 10.7539 27.8747C10.7019 27.7959 10.6819 27.7003 10.6981 27.6073C10.7142 27.5143 10.7652 27.431 10.8407 27.3744L11.1814 27.1189C11.1051 27.1584 11.0174 27.1702 10.9334 27.1522C10.8494 27.1342 10.7742 27.0876 10.7208 27.0203C10.6674 26.9529 10.6391 26.8691 10.6407 26.7832C10.6423 26.6973 10.6737 26.6146 10.7296 26.5493L12.2197 24.8214L12.1272 24.8748C12.085 24.9016 12.0379 24.9195 11.9886 24.9277C11.9393 24.9358 11.8889 24.9338 11.8404 24.9219C11.7919 24.91 11.7463 24.8885 11.7063 24.8585C11.6664 24.8285 11.6329 24.7908 11.6079 24.7476C11.5829 24.7043 11.5669 24.6565 11.5609 24.6069C11.5549 24.5573 11.5589 24.507 11.5728 24.4591C11.5868 24.4111 11.6102 24.3664 11.6419 24.3278C11.6735 24.2891 11.7126 24.2573 11.7568 24.2341L13.744 23.0861C13.8197 23.0425 13.9084 23.027 13.9945 23.0425C14.0805 23.0579 14.1583 23.1033 14.2141 23.1706C14.2699 23.238 14.3 23.3228 14.2993 23.4102C14.2985 23.4977 14.2668 23.582 14.2098 23.6483L12.7212 25.3777L16.1473 23.3994C16.2291 23.3523 16.3257 23.3381 16.4175 23.3598C16.5094 23.3814 16.5895 23.4374 16.6415 23.5161C16.6935 23.5949 16.7134 23.6905 16.6973 23.7835C16.6812 23.8764 16.6302 23.9597 16.5547 24.0164L16.214 24.2719L16.8806 23.8882C16.9601 23.8428 17.0536 23.8285 17.1431 23.848C17.2325 23.8675 17.3116 23.9195 17.365 23.9939C17.4184 24.0683 17.4423 24.1598 17.4322 24.2508C17.4221 24.3418 17.3786 24.4259 17.3101 24.4867L14.6387 26.8367L17.7782 25.0244C17.858 24.9785 17.952 24.964 18.0419 24.9837C18.1318 25.0034 18.2111 25.0558 18.2644 25.1308C18.3178 25.2058 18.3413 25.2979 18.3304 25.3893C18.3195 25.4806 18.275 25.5647 18.2055 25.625L15.4615 28.0047L18.1618 26.4449C18.2433 26.3979 18.3396 26.3836 18.4312 26.4049C18.5228 26.4263 18.6029 26.4817 18.6551 26.56C18.7073 26.6382 18.7278 26.7334 18.7124 26.8262C18.697 26.919 18.6469 27.0025 18.5722 27.0596L16.8139 28.4017L18.0285 27.7003C18.1094 27.6535 18.2049 27.639 18.2959 27.6597C18.387 27.6804 18.4669 27.7347 18.5196 27.8118C18.5723 27.8888 18.594 27.983 18.5802 28.0753C18.5665 28.1677 18.5184 28.2514 18.4455 28.3098L15.7918 30.4384L16.8502 29.8281C16.9291 29.7793 17.0235 29.7619 17.1146 29.7793C17.2057 29.7968 17.287 29.8478 17.3423 29.9223C17.3976 29.9968 17.423 30.0893 17.4133 30.1816C17.4036 30.2739 17.3597 30.3592 17.2901 30.4206L15.1993 32.3929L17.1657 31.2575C17.2454 31.2111 17.3396 31.1961 17.4298 31.2155C17.52 31.2348 17.5997 31.2871 17.6533 31.3622C17.707 31.4372 17.7307 31.5296 17.7198 31.6212C17.7089 31.7128 17.6643 31.7971 17.5945 31.8575L17.242 32.1648L17.3538 32.1004C17.4287 32.0572 17.5163 32.0416 17.6015 32.0562C17.6867 32.0708 17.764 32.1148 17.8202 32.1805C17.8764 32.2461 17.9078 32.3294 17.9091 32.4158C17.9103 32.5022 17.8813 32.5864 17.8271 32.6536L17.4486 33.121C17.5236 33.1084 17.6007 33.1187 17.6697 33.1507C17.7387 33.1827 17.7964 33.2348 17.8352 33.3002C17.8843 33.3853 17.8976 33.4863 17.8722 33.5812C17.8468 33.6761 17.7847 33.757 17.6997 33.8061L16.1303 34.7096C16.0554 34.7528 15.9678 34.7684 15.8826 34.7538C15.7975 34.7392 15.7201 34.6952 15.6639 34.6296C15.6077 34.5639 15.5763 34.4806 15.575 34.3942C15.5738 34.3078 15.6028 34.2237 15.657 34.1564L15.9962 33.7372L14.3106 34.7096C14.2546 34.7432 14.1906 34.7611 14.1254 34.7615Z" fill="#A87E48"/>
<path d="M1.37364 35.2947C8.23783 49.663 29.9791 44.086 29.2896 28.2061C28.866 23.6652 31.2893 15.6745 24.8458 14.8747C25.1828 9.66578 24.7784 3.5363 19.3651 1.05592C13.1853 -2.01253 5.29308 2.03726 4.56207 8.99477C4.43278 10.9523 4.41275 12.9156 4.50208 14.8754C1.36846 15.1968 -0.365366 18.2312 0.0649423 21.1982C0.252323 25.9323 -0.606812 30.8183 1.37364 35.2947ZM8.57334 3.04304C14.2762 -2.36359 23.8948 2.36314 23.766 10.0324C23.7852 11.6255 23.766 13.2171 23.766 14.8132H21.8803C21.8477 11.0922 22.5402 6.54846 18.8844 4.23398C14.3532 1.06332 7.32167 4.54949 7.47868 10.1842C7.46609 11.727 7.47868 13.2704 7.47868 14.8132C6.84989 14.8132 6.21961 14.8132 5.59303 14.8132C5.55748 10.6953 5.12421 6.02113 8.57334 3.04304ZM20.8079 14.8132H8.5489C8.67407 11.4803 7.85122 7.58164 10.6434 5.08719C11.6721 4.17601 12.9866 3.65248 14.3601 3.60691C15.7336 3.56135 17.0799 3.99661 18.1668 4.83759C21.4344 7.15059 20.7597 11.3248 20.8079 14.8132ZM1.14627 19.971C1.08375 19.3631 1.15859 18.7489 1.36528 18.1738C1.57197 17.5987 1.90522 17.0774 2.34041 16.6484C2.7756 16.2194 3.30162 15.8937 3.8796 15.6952C4.45758 15.4968 5.07275 15.4308 5.67969 15.502C11.7795 15.502 17.8792 15.502 23.9785 15.502C27.0307 15.459 28.6341 18.423 28.2105 21.1967C28.0446 25.4183 28.7371 29.7525 27.4536 33.8497C24.1081 44.0786 10.1427 46.1153 3.88809 37.4136C0.0575357 32.3744 1.37364 25.862 1.14627 19.971Z" fill="#262626"/>
<path d="M11.3385 29.5731C12.1221 30.0611 11.7088 30.6048 11.5399 31.2913C11.0378 32.6985 11.0015 34.6538 12.9716 34.6523C17.4339 34.8108 19.1077 34.7368 17.5406 29.773C19.6143 28.2696 19.2396 24.7123 16.948 23.5613C13.3026 21.4409 8.33448 26.0617 11.3385 29.5731ZM11.6977 25.7492C14.0063 20.2055 20.7201 26.3928 16.5118 29.9219C17.0925 33.8384 18.2464 34.4761 13.3826 34.1665C11.3415 33.6436 12.7538 31.1891 12.896 29.8078C12.3292 29.3164 11.915 28.6727 11.7026 27.9532C11.4903 27.2336 11.4885 26.4682 11.6977 25.7477V25.7492Z" fill="#262626"/>
</svg>
