<svg width="68" height="44" viewBox="0 0 68 44" fill="none" xmlns="http://www.w3.org/2000/svg">
<path d="M3.53942 42.9549C3.40873 42.9547 3.28153 42.9128 3.17632 42.8353C3.07112 42.7577 2.99341 42.6486 2.95452 42.5239C2.91562 42.3991 2.91757 42.2652 2.96009 42.1416C3.0026 42.0181 3.08346 41.9113 3.19088 41.8369L12.335 35.5056L1.52797 41.7461C1.39079 41.8223 1.22958 41.8432 1.07752 41.8042C0.925454 41.7653 0.794094 41.6696 0.710462 41.5367C0.62683 41.4039 0.597285 41.244 0.627906 41.0901C0.658527 40.9361 0.746985 40.7998 0.875083 40.709L10.5482 34.1077L1.14262 39.5383C1.00376 39.6196 0.838481 39.6432 0.682411 39.6039C0.52634 39.5645 0.391972 39.4654 0.308266 39.328C0.22456 39.1905 0.198217 39.0256 0.234915 38.8689C0.271614 38.7122 0.368415 38.5762 0.504457 38.4902L1.70592 37.7183L1.14262 38.0435C1.00513 38.1233 0.842033 38.1466 0.687686 38.1085C0.53334 38.0705 0.39979 37.974 0.315165 37.8394C0.230539 37.7048 0.201443 37.5427 0.234005 37.3871C0.266567 37.2315 0.358245 37.0946 0.48973 37.0052L8.94172 31.2372L1.14262 35.7375C1.00633 35.8145 0.845754 35.8365 0.69376 35.799C0.541766 35.7616 0.409849 35.6674 0.325011 35.5358C0.240173 35.4043 0.208831 35.2452 0.237399 35.0913C0.265967 34.9374 0.352285 34.8002 0.478685 34.7078L10.4058 27.6034L1.14262 32.9504C1.00678 33.0291 0.845959 33.0527 0.693241 33.0164C0.540523 32.9801 0.407522 32.8867 0.321598 32.7553C0.235618 32.6238 0.203344 32.4644 0.231428 32.3098C0.259511 32.1552 0.345812 32.0173 0.472549 31.9245L9.34671 25.4201L1.17821 30.1315C1.04061 30.2099 0.878027 30.2321 0.724454 30.1934C0.570881 30.1547 0.438216 30.0581 0.354208 29.9238C0.270199 29.7896 0.241352 29.6281 0.2737 29.473C0.306049 29.318 0.397087 29.1815 0.527774 29.092L1.91946 28.1581L1.41507 28.4477C1.28026 28.5251 1.12112 28.5484 0.969773 28.513C0.818428 28.4776 0.686164 28.386 0.599693 28.2569C0.513223 28.1277 0.478991 27.9706 0.50391 27.8171C0.52883 27.6637 0.611046 27.5255 0.73395 27.4303L6.35225 23.1166L2.47295 25.3563C2.34075 25.4323 2.185 25.4563 2.03606 25.4237C1.88711 25.3911 1.75564 25.3042 1.66725 25.18C1.57886 25.0557 1.53989 24.903 1.55793 24.7516C1.57597 24.6002 1.64972 24.461 1.76483 24.361L4.87588 21.6684C4.7849 21.6551 4.69815 21.6212 4.62223 21.5693C4.54632 21.5174 4.48323 21.4489 4.43776 21.369C4.35629 21.2282 4.33405 21.0608 4.37593 20.9037C4.41781 20.7465 4.52039 20.6124 4.66111 20.5308L9.30498 17.8517C9.437 17.7772 9.59195 17.7542 9.73994 17.7871C9.88794 17.82 10.0185 17.9065 10.1065 18.03C10.1944 18.1535 10.2336 18.3052 10.2163 18.4558C10.1991 18.6065 10.1267 18.7454 10.0131 18.8458L7.44326 21.0708L13.8249 17.3891C13.9597 17.3117 14.1189 17.2883 14.2702 17.3238C14.4215 17.3592 14.5538 17.4507 14.6403 17.5799C14.7267 17.709 14.761 17.8662 14.7361 18.0196C14.7111 18.173 14.6289 18.3113 14.506 18.4064L8.89018 22.7165L16.9298 18.0788C17.0676 17.9989 17.2311 17.9757 17.3857 18.0142C17.5403 18.0527 17.6738 18.1497 17.7581 18.2849C17.8424 18.42 17.8709 18.5827 17.8375 18.7384C17.804 18.8942 17.7114 19.0308 17.579 19.1195L16.191 20.0522L18.4479 18.7488C18.5838 18.6703 18.7446 18.6469 18.8972 18.6833C19.0499 18.7197 19.1828 18.8132 19.2686 18.9446C19.3544 19.076 19.3866 19.2353 19.3586 19.3897C19.3306 19.5441 19.2445 19.6819 19.118 19.7748L10.245 26.2792L20.6766 20.2559C20.8129 20.1789 20.9734 20.1568 21.1254 20.1943C21.2774 20.2318 21.4093 20.326 21.4942 20.4576C21.579 20.5891 21.6104 20.7482 21.5818 20.9021C21.5532 21.056 21.4669 21.1932 21.3405 21.2855L11.4121 28.3876L22.4033 22.0427C22.5406 21.9643 22.7029 21.9418 22.8563 21.9801C23.0097 22.0183 23.1425 22.1144 23.2268 22.2481C23.3112 22.3818 23.3406 22.543 23.3091 22.6979C23.2775 22.8529 23.1874 22.9897 23.0574 23.0798L14.6128 28.8478L23.5029 23.7167C23.6413 23.6406 23.8038 23.6208 23.9565 23.6614C24.1092 23.7021 24.2403 23.8001 24.3225 23.935C24.4048 24.0699 24.4318 24.2313 24.398 24.3857C24.3642 24.54 24.2722 24.6754 24.1411 24.7635L22.9384 25.5367L24.0613 24.8887C24.1988 24.8089 24.3619 24.7856 24.5162 24.8237C24.6706 24.8617 24.8041 24.9582 24.8888 25.0928C24.9734 25.2273 25.0025 25.3895 24.9699 25.5451C24.9373 25.7007 24.8457 25.8376 24.7142 25.927L15.035 32.532L24.7068 26.948C24.844 26.8682 25.0068 26.8446 25.161 26.8823C25.3151 26.9199 25.4487 27.0158 25.5337 27.1498C25.6187 27.2839 25.6484 27.4457 25.6167 27.6012C25.5849 27.7567 25.4941 27.8938 25.3634 27.9838L16.2156 34.3139L24.7817 29.3694C24.9177 29.292 25.0781 29.2695 25.2301 29.3065C25.3822 29.3435 25.5143 29.4371 25.5996 29.5683C25.6848 29.6995 25.7168 29.8583 25.6888 30.0123C25.6609 30.1662 25.5752 30.3037 25.4493 30.3966L17.7962 35.9584L24.6958 31.9748C24.8301 31.8974 24.9888 31.8738 25.1399 31.9086C25.291 31.9435 25.4233 32.0342 25.5102 32.1626C25.5971 32.291 25.6321 32.4476 25.6083 32.6008C25.5845 32.754 25.5036 32.8925 25.3818 32.9885L19.5622 37.5919L24.6074 34.6747C24.7427 34.5954 24.9033 34.5709 25.0561 34.6062C25.2089 34.6416 25.3424 34.7341 25.4291 34.8648C25.5158 34.9955 25.5492 35.1545 25.5224 35.309C25.4955 35.4635 25.4105 35.6019 25.2848 35.6958L23.7643 36.8432L24.5522 36.3892C24.6788 36.3162 24.8272 36.2909 24.9708 36.3176C25.1144 36.3443 25.2438 36.4214 25.3357 36.535C25.4275 36.6486 25.4758 36.7913 25.4719 36.9373C25.468 37.0833 25.4121 37.2232 25.3143 37.3317L23.0267 39.8598L24.4638 39.0302C24.5837 38.9611 24.7234 38.9346 24.8602 38.9549C24.997 38.9752 25.123 39.0412 25.2176 39.1421C25.3123 39.243 25.3701 39.3729 25.3816 39.5107C25.3931 39.6486 25.3577 39.7863 25.2812 39.9015L24.7559 40.6919C24.8871 40.701 25.0118 40.752 25.1118 40.8373C25.2118 40.9227 25.2817 41.038 25.3113 41.1661C25.3408 41.2942 25.3285 41.4284 25.276 41.5489C25.2235 41.6695 25.1337 41.77 25.0198 41.8356L23.2292 42.869C23.1094 42.938 22.9697 42.9645 22.8328 42.9442C22.696 42.9239 22.57 42.858 22.4754 42.7571C22.3808 42.6562 22.323 42.5263 22.3115 42.3884C22.2999 42.2506 22.3353 42.1129 22.4119 41.9976L22.8095 41.4024L20.2618 42.8751C20.1353 42.9472 19.9874 42.9721 19.8443 42.9452C19.7012 42.9183 19.5724 42.8414 19.4808 42.7282C19.3892 42.6151 19.3408 42.4731 19.3443 42.3276C19.3477 42.182 19.4028 42.0425 19.4997 41.9338L21.7848 39.4033L15.7713 42.869C15.636 42.9483 15.4754 42.9728 15.3226 42.9375C15.1698 42.9021 15.0363 42.8096 14.9496 42.6789C14.8629 42.5482 14.8295 42.3892 14.8563 42.2347C14.8832 42.0801 14.9682 41.9417 15.0939 41.8479L16.6169 40.6992L12.8591 42.869C12.7249 42.9444 12.5673 42.9667 12.4175 42.9314C12.2677 42.8961 12.1366 42.8058 12.0502 42.6784C11.9639 42.5509 11.9286 42.3957 11.9513 42.2435C11.9741 42.0913 12.0532 41.9531 12.173 41.8565L17.9914 37.2605L8.27533 42.869C8.13933 42.9463 7.97892 42.9688 7.82689 42.9318C7.67486 42.8949 7.5427 42.8012 7.45744 42.67C7.37217 42.5388 7.34024 42.38 7.36817 42.2261C7.39611 42.0721 7.48179 41.9347 7.60771 41.8418L15.2645 36.2787L3.85114 42.869C3.75678 42.925 3.64913 42.9546 3.53942 42.9549Z" fill="#E0BF62"/>
<path d="M45.4099 42.955C45.2783 42.9553 45.15 42.9133 45.0441 42.8351C44.9382 42.7569 44.8603 42.6468 44.8217 42.5209C44.7832 42.3951 44.7862 42.2602 44.8302 42.1361C44.8743 42.0121 44.957 41.9055 45.0663 41.8321L51.7658 37.3208L43.5126 42.0849C43.3742 42.1678 43.2087 42.1928 43.0519 42.1546C42.8952 42.1164 42.7598 42.0179 42.6751 41.8806C42.5904 41.7433 42.5631 41.5782 42.5993 41.4209C42.6355 41.2637 42.7321 41.127 42.8683 41.0405L48.008 37.6705L43.4328 40.3115C43.2961 40.3872 43.1357 40.4079 42.9843 40.3694C42.8329 40.3309 42.7018 40.236 42.6179 40.1042C42.534 39.9724 42.5036 39.8136 42.5327 39.6601C42.5619 39.5066 42.6486 39.37 42.775 39.2782L53.3599 31.8976L43.353 37.6742C43.2156 37.7556 43.0519 37.7803 42.8967 37.7429C42.7414 37.7055 42.6068 37.6091 42.5215 37.4741C42.4362 37.3391 42.4069 37.1762 42.4398 37.0199C42.4727 36.8636 42.5652 36.7263 42.6977 36.6372L51.3387 30.6839L43.2819 35.3351C43.1438 35.4171 42.9791 35.4417 42.8231 35.4037C42.6671 35.3656 42.5322 35.2679 42.4474 35.1316C42.3626 34.9952 42.3346 34.8311 42.3695 34.6743C42.4044 34.5176 42.4993 34.3807 42.6339 34.2932L47.3489 31.1428L43.2254 33.5225C43.0875 33.5975 42.9261 33.6168 42.7744 33.5765C42.6226 33.5361 42.4922 33.4391 42.4098 33.3055C42.3274 33.1718 42.2994 33.0117 42.3315 32.858C42.3636 32.7043 42.4533 32.5688 42.5823 32.4793L43.6598 31.7724L43.1812 32.0485C43.0451 32.1248 42.8851 32.1464 42.7336 32.1089C42.5822 32.0713 42.4507 31.9775 42.366 31.8465C42.2812 31.7155 42.2496 31.5571 42.2775 31.4036C42.3053 31.2501 42.3907 31.113 42.5161 31.0201L49.92 25.6878L43.1088 29.6149C42.971 29.6948 42.8075 29.718 42.6529 29.6795C42.4984 29.641 42.3648 29.544 42.2805 29.4088C42.1962 29.2737 42.1677 29.111 42.2012 28.9553C42.2346 28.7995 42.3273 28.6629 42.4596 28.5742L43.1812 28.0833C43.0497 28.1437 42.9011 28.1556 42.7616 28.1169C42.6222 28.0783 42.5009 27.9916 42.4191 27.8722C42.3316 27.7445 42.2956 27.5884 42.3183 27.4352C42.3411 27.282 42.4209 27.1431 42.5418 27.0463L48.2055 22.546L44.5827 24.6446C44.4491 24.7212 44.2916 24.7448 44.1414 24.7106C43.9912 24.6764 43.8593 24.587 43.772 24.4602C43.6847 24.3333 43.6483 24.1782 43.67 24.0257C43.6918 23.8732 43.77 23.7345 43.8893 23.6371L46.3954 21.6047C46.3001 21.5522 46.2206 21.4753 46.1649 21.3819C46.1092 21.2884 46.0793 21.1819 46.0783 21.0731C46.0773 20.9644 46.1052 20.8573 46.1592 20.7629C46.2132 20.6685 46.2913 20.5901 46.3855 20.5358L51.0392 17.8506C51.1728 17.7754 51.3297 17.7528 51.4791 17.7875C51.6284 17.8221 51.7594 17.9114 51.8462 18.0378C51.9331 18.1641 51.9694 18.3184 51.9482 18.4703C51.9269 18.6221 51.8496 18.7605 51.7314 18.8582L50.6931 19.7001L54.7774 17.3425C54.9114 17.2661 55.0694 17.243 55.2197 17.2778C55.37 17.3125 55.5017 17.4027 55.5886 17.5303C55.6754 17.6578 55.711 17.8134 55.6883 17.966C55.6655 18.1186 55.5861 18.2571 55.4659 18.3538L49.8009 22.8541L58.2971 17.9451C58.4345 17.8708 58.5951 17.8517 58.746 17.8917C58.897 17.9317 59.0271 18.0277 59.1097 18.1603C59.1923 18.2928 59.2213 18.4519 59.1907 18.605C59.1601 18.7582 59.0723 18.8939 58.9451 18.9846L58.2652 19.4411L59.8103 18.5501C59.9464 18.4739 60.1065 18.4523 60.2579 18.4898C60.4094 18.5273 60.5408 18.6212 60.6256 18.7522C60.7103 18.8832 60.742 19.0416 60.7141 19.1951C60.6862 19.3486 60.6009 19.4857 60.4755 19.5786L53.0679 24.9207L61.888 19.8289C62.026 19.7517 62.1885 19.7308 62.3416 19.7705C62.4947 19.8102 62.6265 19.9075 62.7096 20.042C62.7927 20.1766 62.8207 20.338 62.7876 20.4927C62.7546 20.6473 62.6631 20.7832 62.5323 20.8721L61.4757 21.5642L62.941 20.7187C63.079 20.6367 63.2437 20.612 63.3997 20.6501C63.5557 20.6881 63.6906 20.7858 63.7754 20.9222C63.8602 21.0585 63.8882 21.2227 63.8533 21.3795C63.8185 21.5362 63.7236 21.673 63.589 21.7606L58.8727 24.9109L64.043 21.9275C64.1804 21.8461 64.3441 21.8214 64.4994 21.8588C64.6547 21.8962 64.7893 21.9926 64.8746 22.1276C64.9599 22.2626 64.9892 22.4255 64.9563 22.5818C64.9234 22.7381 64.8309 22.8754 64.6984 22.9645L56.0525 28.9215L65.1979 23.6444C65.3348 23.5658 65.4969 23.543 65.6502 23.5808C65.8035 23.6186 65.9364 23.7141 66.0211 23.8474C66.1059 23.9807 66.1359 24.1415 66.1051 24.2963C66.0743 24.4512 65.985 24.5883 65.8557 24.679L55.2707 32.0596L66.1293 25.7909C66.2676 25.7123 66.431 25.6904 66.585 25.7299C66.739 25.7694 66.8717 25.8671 66.9551 26.0026C67.0385 26.138 67.0661 26.3005 67.032 26.4558C66.9979 26.6111 66.9048 26.7472 66.7724 26.8352L61.6413 30.1991L66.5307 27.3764C66.6685 27.2966 66.8319 27.2734 66.9865 27.3119C67.1411 27.3503 67.2747 27.4474 67.359 27.5826C67.4433 27.7177 67.4717 27.8804 67.4383 28.0361C67.4049 28.1918 67.3122 28.3285 67.1799 28.4171L60.4693 32.9358L66.7282 29.3265C66.8654 29.2467 67.0282 29.2231 67.1824 29.2608C67.3366 29.2984 67.4702 29.3943 67.5551 29.5284C67.6401 29.6624 67.6698 29.8242 67.6381 29.9797C67.6063 30.1352 67.5155 30.2723 67.3848 30.3623L61.6168 34.3545L66.7331 31.4018C66.8679 31.326 67.0263 31.3038 67.1767 31.3397C67.3271 31.3757 67.4584 31.467 67.5443 31.5956C67.6302 31.7242 67.6644 31.8804 67.6401 32.0331C67.6157 32.1858 67.5347 32.3237 67.413 32.4192L61.2633 37.1428L66.7331 33.9851C66.8671 33.9101 67.0244 33.888 67.1739 33.9232C67.3234 33.9585 67.4542 34.0485 67.5406 34.1756C67.6269 34.3026 67.6624 34.4574 67.6402 34.6093C67.6179 34.7613 67.5395 34.8994 67.4204 34.9964L64.0921 37.6374L66.7319 36.1193C66.8648 36.0431 67.0214 36.0194 67.1709 36.0528C67.3204 36.0862 67.452 36.1744 67.5398 36.2999C67.6276 36.4254 67.6653 36.5792 67.6455 36.7311C67.6257 36.883 67.5498 37.022 67.4327 37.1207L66.0226 38.3038L66.7319 37.8951C66.8498 37.828 66.9867 37.8018 67.121 37.8207C67.2554 37.8396 67.3797 37.9025 67.4745 37.9995C67.5693 38.0966 67.6293 38.2223 67.645 38.3571C67.6608 38.4919 67.6314 38.628 67.5615 38.7444L66.4239 40.6147C66.5665 40.5499 66.7286 40.5421 66.8768 40.593C67.025 40.6438 67.1481 40.7494 67.221 40.8882C67.2938 41.0269 67.3108 41.1882 67.2684 41.3391C67.2261 41.49 67.1277 41.6189 66.9933 41.6995L64.9573 42.874C64.8394 42.9411 64.7026 42.9673 64.5682 42.9484C64.4339 42.9295 64.3096 42.8666 64.2148 42.7696C64.12 42.6725 64.06 42.5468 64.0442 42.412C64.0285 42.2772 64.0578 42.1411 64.1277 42.0248L65.2629 40.1594L60.5552 42.8691C60.4225 42.945 60.2662 42.9685 60.117 42.9352C59.9678 42.9018 59.8364 42.814 59.7485 42.6888C59.6607 42.5637 59.6228 42.4103 59.6421 42.2586C59.6615 42.1069 59.7368 41.968 59.8533 41.8689L61.2633 40.6858L57.481 42.8691C57.347 42.9455 57.189 42.9687 57.0387 42.9339C56.8884 42.8991 56.7566 42.8089 56.6698 42.6814C56.583 42.5538 56.5474 42.3982 56.5701 42.2456C56.5929 42.093 56.6723 41.9545 56.7925 41.8579L60.1208 39.2193L53.7968 42.8691C53.662 42.9465 53.5029 42.9698 53.3515 42.9344C53.2002 42.899 53.0679 42.8074 52.9815 42.6783C52.895 42.5491 52.8608 42.392 52.8857 42.2385C52.9106 42.0851 52.9928 41.9469 53.1157 41.8517L59.2654 37.1293L49.3248 42.8691C49.1884 42.9425 49.0292 42.9616 48.8793 42.9226C48.7294 42.8835 48.5998 42.7892 48.5165 42.6586C48.4333 42.5279 48.4025 42.3706 48.4304 42.2182C48.4583 42.0658 48.5428 41.9296 48.667 41.837L54.435 37.8374L45.7216 42.8691C45.6272 42.9251 45.5196 42.9548 45.4099 42.955Z" fill="#E0BF62"/>
<path d="M13.3264 18.3979C13.197 18.3995 13.0704 18.3601 12.9647 18.2853C12.8591 18.2106 12.7797 18.1044 12.7381 17.9818C12.6964 17.8593 12.6946 17.7267 12.7328 17.6031C12.771 17.4794 12.8474 17.371 12.9509 17.2934L13.7768 16.654L11.331 18.0653C11.1981 18.1402 11.0421 18.163 10.8934 18.1291C10.7446 18.0953 10.6139 18.0072 10.5265 17.8822C10.4392 17.7572 10.4015 17.6041 10.4209 17.4528C10.4403 17.3015 10.5154 17.1628 10.6314 17.0639L15.7232 12.8201L8.66294 16.8982C8.52676 16.9764 8.3658 16.9993 8.21319 16.9624C8.06058 16.9255 7.92793 16.8315 7.84255 16.6997C7.75717 16.5679 7.72554 16.4084 7.75419 16.254C7.78284 16.0997 7.86958 15.9621 7.99655 15.8698L11.2401 13.5307L7.31298 15.7949C7.17784 15.8735 7.01779 15.8976 6.86551 15.8622C6.71322 15.8268 6.58019 15.7346 6.49358 15.6045C6.40697 15.4743 6.3733 15.316 6.39945 15.1619C6.42561 15.0077 6.50961 14.8694 6.63432 14.7751L12.3876 10.4061L6.00597 14.0878C5.87106 14.1642 5.71225 14.1866 5.56146 14.1507C5.41067 14.1147 5.27908 14.023 5.19313 13.894C5.10718 13.765 5.07324 13.6083 5.09813 13.4552C5.12302 13.3022 5.2049 13.1643 5.32731 13.0692L11.304 8.49408L5.14568 12.0531C5.0775 12.0961 5.00152 12.1253 4.92207 12.139C4.84262 12.1526 4.76126 12.1505 4.68263 12.1327C4.604 12.1149 4.52964 12.0819 4.46379 12.0353C4.39795 11.9888 4.34191 11.9298 4.29888 11.8616C4.25585 11.7934 4.22667 11.7175 4.213 11.638C4.19934 11.5586 4.20145 11.4772 4.21923 11.3986C4.23701 11.3199 4.2701 11.2456 4.31661 11.1797C4.36313 11.1139 4.42216 11.0579 4.49033 11.0148L6.17901 9.83177L4.87446 10.5853C4.74046 10.6604 4.58319 10.6824 4.4337 10.6472C4.28421 10.6119 4.15338 10.5219 4.06705 10.3949C3.98072 10.2678 3.94516 10.113 3.96741 9.96108C3.98966 9.80911 4.06808 9.67101 4.1872 9.57405L8.89612 5.83834L5.007 8.08296C4.87111 8.16146 4.71031 8.18491 4.55766 8.1485C4.405 8.11208 4.27211 8.01856 4.18629 7.88717C4.10048 7.75577 4.06827 7.59649 4.09628 7.44208C4.1243 7.28766 4.21042 7.14985 4.33693 7.05698L5.25367 6.38446C5.1293 6.38156 5.00875 6.34094 4.908 6.26796C4.80725 6.19499 4.73106 6.09311 4.68953 5.97585C4.648 5.85858 4.64309 5.73146 4.67546 5.61134C4.70783 5.49122 4.77595 5.38378 4.87077 5.30326L6.68095 3.76308C6.58997 3.70994 6.51462 3.63374 6.4625 3.54217C6.38152 3.40135 6.35969 3.23416 6.40179 3.07726C6.44389 2.92037 6.54649 2.78657 6.68709 2.7052L10.5958 0.448307C10.7283 0.37302 10.884 0.349701 11.0327 0.382889C11.1814 0.416078 11.3125 0.5034 11.4003 0.627863C11.4882 0.752326 11.5266 0.905028 11.5081 1.05626C11.4896 1.20749 11.4156 1.34643 11.3003 1.44605L10.8094 1.86331L13.675 0.210222C13.8109 0.131718 13.9717 0.108264 14.1243 0.144681C14.277 0.181098 14.4099 0.274617 14.4957 0.406012C14.5815 0.537406 14.6137 0.696688 14.5857 0.851102C14.5577 1.00552 14.4716 1.14333 14.3451 1.23619L14.0996 1.4166L15.5011 0.609076C15.6351 0.534011 15.7924 0.511926 15.9419 0.547183C16.0914 0.582441 16.2222 0.672477 16.3085 0.799507C16.3948 0.926537 16.4304 1.08132 16.4082 1.23329C16.3859 1.38526 16.3075 1.52336 16.1884 1.62032L11.4795 5.35603L17.7384 1.74427C17.8749 1.6693 18.0348 1.64903 18.1857 1.68758C18.3365 1.72613 18.4671 1.82061 18.5509 1.95187C18.6348 2.08313 18.6655 2.24135 18.637 2.39445C18.6085 2.54756 18.5228 2.68409 18.3974 2.77638L16.7063 3.96066L18.8711 2.71256C19.0061 2.6346 19.1657 2.61091 19.3175 2.64633C19.4692 2.68174 19.6019 2.7736 19.6884 2.90324C19.7749 3.03289 19.8089 3.1906 19.7834 3.34437C19.7579 3.49814 19.6748 3.63643 19.551 3.73117L13.5719 8.30631L20.199 4.47856C20.3341 4.40167 20.4933 4.37891 20.6445 4.41487C20.7957 4.45083 20.9277 4.54284 21.0137 4.67231C21.0997 4.80179 21.1333 4.95907 21.1078 5.1124C21.0824 5.26573 20.9997 5.40368 20.8764 5.49839L15.1268 9.86491L21.0175 6.46423C21.1537 6.38607 21.3147 6.3631 21.4673 6.40003C21.6199 6.43695 21.7526 6.53098 21.8379 6.66275C21.9233 6.79452 21.9549 6.95401 21.9263 7.10839C21.8976 7.26277 21.8109 7.40029 21.6839 7.49265L18.4489 9.83177L21.3035 8.18604C21.4364 8.10988 21.593 8.08617 21.7425 8.11958C21.892 8.153 22.0235 8.24112 22.1114 8.36662C22.1992 8.49212 22.2369 8.64594 22.2171 8.79783C22.1973 8.94972 22.1213 9.08871 22.0042 9.18747L16.9088 13.4337L20.9955 11.075C21.1301 10.9965 21.2897 10.9722 21.4416 11.0071C21.5935 11.0419 21.7265 11.1333 21.8135 11.2626C21.9005 11.392 21.935 11.5496 21.9101 11.7035C21.8851 11.8573 21.8025 11.9959 21.679 12.0911L20.3683 13.106C20.5033 13.1063 20.6344 13.1511 20.7414 13.2334C20.8483 13.3157 20.9251 13.431 20.96 13.5614C20.9948 13.6918 20.9856 13.8301 20.9339 13.9548C20.8822 14.0794 20.7908 14.1836 20.6739 14.2511L13.6333 18.3157C13.54 18.3695 13.4342 18.3979 13.3264 18.3979Z" fill="#E0BF62"/>
<path d="M54.311 18.3881C54.1833 18.3881 54.0587 18.3483 53.9546 18.2741C53.8506 18.1999 53.7723 18.0951 53.7307 17.9743C53.6891 17.8535 53.6862 17.7227 53.7225 17.6002C53.7588 17.4777 53.8324 17.3696 53.9331 17.2909L55.8966 15.7544L52.2775 17.8407C52.1425 17.9161 51.984 17.9377 51.8337 17.9012C51.6835 17.8647 51.5525 17.7729 51.4671 17.644C51.3816 17.5151 51.348 17.3587 51.3729 17.2061C51.3978 17.0535 51.4793 16.9159 51.6013 16.8209L55.1603 14.121L50.3741 16.8859C50.2385 16.9648 50.0778 16.9888 49.9251 16.9529C49.7724 16.917 49.6392 16.824 49.5529 16.693C49.4667 16.5619 49.4339 16.4028 49.4613 16.2483C49.4887 16.0939 49.5742 15.9558 49.7003 15.8624L54.1184 12.5759L48.8658 15.6071C48.7314 15.6845 48.5728 15.7082 48.4217 15.6733C48.2706 15.6385 48.1383 15.5477 48.0514 15.4193C47.9645 15.2909 47.9294 15.1344 47.9532 14.9811C47.9771 14.8279 48.058 14.6894 48.1798 14.5934L54.759 9.43905L47.4839 13.6399C47.3494 13.7162 47.1911 13.739 47.0406 13.7036C46.89 13.6682 46.7584 13.5773 46.672 13.449C46.5856 13.3208 46.5509 13.1646 46.5747 13.0119C46.5985 12.8591 46.6791 12.7209 46.8003 12.625L53.0102 7.79332L46.7169 11.4272C46.5804 11.505 46.4193 11.5276 46.2667 11.4901C46.1141 11.4527 45.9817 11.3582 45.8967 11.226C45.8117 11.0938 45.7807 10.9341 45.81 10.7797C45.8393 10.6254 45.9267 10.4881 46.0542 10.3963L48.219 8.85734L46.5549 9.81704C46.4214 9.89467 46.2635 9.91912 46.1128 9.88548C45.9621 9.85184 45.8296 9.76261 45.7417 9.63558C45.6539 9.50855 45.6172 9.35307 45.6389 9.20017C45.6607 9.04727 45.7393 8.9082 45.8591 8.8107L50.3385 5.12899L47.0028 7.05575C46.8721 7.13399 46.7169 7.16079 46.5675 7.13094C46.4181 7.10108 46.2851 7.0167 46.1945 6.89422C46.1039 6.77174 46.062 6.61992 46.0772 6.46831C46.0923 6.31669 46.1633 6.17612 46.2763 6.07396L48.6658 3.84284C48.5358 3.83134 48.413 3.77873 48.315 3.69266C48.217 3.60659 48.1489 3.49153 48.1208 3.36418C48.0926 3.23683 48.1057 3.10382 48.1582 2.98444C48.2108 2.86506 48.3 2.76553 48.4129 2.70028L52.3217 0.443392C52.4524 0.366348 52.6071 0.340475 52.7558 0.370769C52.9044 0.401064 53.0366 0.485378 53.1268 0.607428C53.217 0.729478 53.2587 0.880607 53.244 1.03163C53.2292 1.18266 53.1591 1.32287 53.047 1.42518L51.0208 3.32249L56.2022 0.330487C56.3357 0.252851 56.4936 0.22841 56.6443 0.262045C56.7951 0.295681 56.9276 0.384918 57.0154 0.511946C57.1032 0.638974 57.1399 0.794451 57.1182 0.947351C57.0964 1.10025 57.0178 1.23933 56.8981 1.33682L52.4174 5.01854L58.8162 1.32455C58.9527 1.2467 59.1139 1.22416 59.2665 1.26159C59.4191 1.29902 59.5515 1.39356 59.6364 1.52573C59.7214 1.65789 59.7524 1.81762 59.7231 1.97198C59.6938 2.12635 59.6064 2.26359 59.4789 2.35543L57.3141 3.89561L60.1232 2.2732C60.2577 2.19686 60.4161 2.1741 60.5666 2.20948C60.7171 2.24487 60.8488 2.33578 60.9351 2.46404C61.0215 2.5923 61.0563 2.74844 61.0325 2.90124C61.0087 3.05403 60.9281 3.19221 60.8068 3.28813L54.5994 8.11731L61.661 4.04043C61.7953 3.96305 61.954 3.93941 62.1051 3.97426C62.2562 4.0091 62.3885 4.09986 62.4754 4.22826C62.5623 4.35667 62.5973 4.51322 62.5735 4.66643C62.5497 4.81964 62.4688 4.95815 62.347 5.05413L55.7653 10.2085L62.6833 6.21509C62.8188 6.13804 62.9786 6.11547 63.1302 6.15196C63.2817 6.18845 63.4137 6.28128 63.4994 6.41157C63.585 6.54187 63.6178 6.69987 63.5911 6.85348C63.5644 7.00709 63.4803 7.14479 63.3558 7.23861L58.9377 10.5252L63.0244 8.16886C63.1595 8.09197 63.3188 8.0692 63.47 8.10517C63.6212 8.14113 63.7531 8.23314 63.8391 8.36261C63.9251 8.49209 63.9588 8.64937 63.9333 8.8027C63.9078 8.95603 63.8251 9.09398 63.7019 9.18869L60.1429 11.8886L62.9042 10.2932C63.0389 10.2147 63.1984 10.1905 63.3503 10.2253C63.5022 10.2602 63.6352 10.3515 63.7222 10.4809C63.8092 10.6102 63.8438 10.7678 63.8188 10.9217C63.7938 11.0756 63.7112 11.2142 63.5877 11.3094L61.6242 12.8434L62.1408 12.544C62.2817 12.4639 62.4485 12.4427 62.6049 12.4852C62.7613 12.5277 62.8945 12.6302 62.9755 12.7706C63.0565 12.9109 63.0788 13.0776 63.0373 13.2342C62.9959 13.3909 62.8942 13.5248 62.7544 13.6067L54.6191 18.3046C54.5258 18.3596 54.4194 18.3884 54.311 18.3881Z" fill="#E0BF62"/>
<path d="M33.9033 23.318C33.7779 23.318 33.6555 23.2796 33.5525 23.2079C33.4496 23.1361 33.3711 23.0346 33.3277 22.917C33.2842 22.7993 33.2779 22.6711 33.3095 22.5497C33.3411 22.4283 33.4091 22.3195 33.5045 22.238L35.7798 20.2879L31.5654 22.7203C31.4298 22.7992 31.2692 22.8232 31.1164 22.7873C30.9637 22.7514 30.8306 22.6584 30.7443 22.5273C30.658 22.3963 30.6252 22.2372 30.6527 22.0827C30.6801 21.9283 30.7656 21.7902 30.8917 21.6968L32.4478 20.5383L30.0621 21.9153C29.9252 21.9952 29.7627 22.0191 29.6086 21.9819C29.4546 21.9447 29.3208 21.8494 29.2355 21.7158C29.1502 21.5822 29.1198 21.4208 29.1508 21.2654C29.1818 21.1099 29.2718 20.9725 29.4018 20.8819L29.4767 20.8291L29.0557 21.0746C28.9213 21.1536 28.7619 21.1785 28.6098 21.1442C28.4577 21.1099 28.3243 21.019 28.2368 20.89C28.1493 20.7609 28.1142 20.6034 28.1387 20.4494C28.1632 20.2954 28.2453 20.1565 28.3685 20.0609L33.0798 16.346L27.8027 19.3945C27.6671 19.4705 27.5076 19.4922 27.3566 19.4552C27.2056 19.4181 27.0743 19.3252 26.9892 19.195C26.9041 19.0649 26.8716 18.9073 26.8982 18.7541C26.9248 18.6009 27.0086 18.4635 27.1327 18.3698L29.7663 16.432L27.1989 17.9145C27.0638 17.9931 26.9037 18.0171 26.7515 17.9817C26.5992 17.9464 26.4661 17.8542 26.3795 17.724C26.2929 17.5938 26.2592 17.4355 26.2854 17.2814C26.3116 17.1273 26.3956 16.9889 26.5203 16.8946L29.6203 14.5408L26.9203 16.0981C26.7849 16.1763 26.6248 16.1998 26.4726 16.1639C26.3204 16.1279 26.1877 16.0353 26.1015 15.9048C26.0154 15.7743 25.9823 15.6158 26.009 15.4618C26.0358 15.3077 26.1203 15.1697 26.2454 15.0759L27.5438 14.1051L27.0737 14.3763C26.9453 14.4504 26.7943 14.4755 26.6488 14.4469C26.5033 14.4183 26.3731 14.3379 26.2822 14.2207C26.1914 14.1035 26.146 13.9574 26.1546 13.8093C26.1631 13.6613 26.225 13.5213 26.3288 13.4154L28.7452 10.9413C28.6188 10.9691 28.4868 10.9556 28.3687 10.9028C28.2505 10.85 28.1523 10.7607 28.0887 10.648C28.0073 10.507 27.9853 10.3396 28.0274 10.1824C28.0695 10.0252 28.1723 9.89115 28.3133 9.80978L31.9152 7.72347C32.0435 7.64943 32.1943 7.62432 32.3397 7.65279C32.4851 7.68126 32.6153 7.76137 32.7063 7.87834C32.7972 7.99531 32.8428 8.14123 32.8345 8.28916C32.8263 8.43709 32.7647 8.57704 32.6614 8.68317L30.3308 11.0836L35.8853 7.87687C36.0207 7.79872 36.1809 7.77521 36.3331 7.81114C36.4852 7.84708 36.618 7.93975 36.7041 8.07023C36.7903 8.20072 36.8233 8.35917 36.7966 8.51322C36.7699 8.66728 36.6854 8.80532 36.5603 8.89916L35.2668 9.86623L37.4525 8.6034C37.5879 8.52184 37.7495 8.49566 37.9037 8.53029C38.0578 8.56493 38.1927 8.65772 38.2802 8.78933C38.3677 8.92094 38.401 9.08122 38.3732 9.2368C38.3455 9.39237 38.2588 9.53123 38.1312 9.62446L35.025 11.9808L38.8896 9.75087C39.0255 9.67236 39.1863 9.64891 39.3389 9.68532C39.4916 9.72174 39.6245 9.81526 39.7103 9.94665C39.7961 10.078 39.8283 10.2373 39.8003 10.3917C39.7723 10.5462 39.6862 10.684 39.5597 10.7768L36.9223 12.711L39.8677 11.0112C40.0021 10.9322 40.1616 10.9073 40.3137 10.9416C40.4658 10.9759 40.5991 11.0668 40.6866 11.1959C40.7741 11.3249 40.8092 11.4824 40.7847 11.6364C40.7603 11.7904 40.6781 11.9293 40.555 12.0249L35.8387 15.7386L40.6998 12.9319C40.8366 12.8519 40.9991 12.828 41.1532 12.8652C41.3073 12.9024 41.441 12.9978 41.5263 13.1313C41.6117 13.2649 41.642 13.4263 41.611 13.5817C41.58 13.7372 41.4901 13.8746 41.36 13.9652L41.0827 14.1591C41.2207 14.1227 41.3671 14.1357 41.4967 14.1956C41.6262 14.2556 41.7308 14.3588 41.7925 14.4876C41.8541 14.6164 41.8689 14.7626 41.8343 14.9011C41.7997 15.0396 41.7179 15.1617 41.603 15.2464L40.0457 16.4062L40.8716 15.9288C41.0041 15.8509 41.161 15.8257 41.3113 15.8579C41.4615 15.8902 41.5942 15.9777 41.6831 16.1031C41.7719 16.2285 41.8105 16.3827 41.7911 16.5352C41.7717 16.6877 41.6959 16.8273 41.5785 16.9265L39.3056 18.8766L39.9904 18.4814C40.1313 18.4014 40.2981 18.3802 40.4545 18.4227C40.6109 18.4651 40.7441 18.5677 40.8251 18.7081C40.9061 18.8484 40.9284 19.0151 40.8869 19.1717C40.8455 19.3284 40.7438 19.4623 40.604 19.5442L34.2101 23.2333C34.1173 23.2884 34.0113 23.3176 33.9033 23.318Z" fill="#C49A47"/>
<path d="M30.8831 42.9549C30.7529 42.9549 30.6261 42.9135 30.521 42.8366C30.4159 42.7598 30.3379 42.6515 30.2984 42.5274C30.259 42.4033 30.26 42.2699 30.3013 42.1464C30.3427 42.0229 30.4222 41.9158 30.5285 41.8406L32.5239 40.428L28.2924 42.869C28.1562 42.9471 27.9953 42.9701 27.8427 42.9332C27.6901 42.8963 27.5574 42.8022 27.472 42.6705C27.3867 42.5387 27.355 42.3792 27.3837 42.2248C27.4123 42.0705 27.4991 41.9329 27.626 41.8406L33.4701 37.6226L25.3471 42.3131C25.2097 42.3873 25.0491 42.4064 24.8981 42.3665C24.7471 42.3265 24.6171 42.2304 24.5345 42.0979C24.4518 41.9654 24.4229 41.8063 24.4535 41.6531C24.484 41.5 24.5719 41.3642 24.6991 41.2736L27.7107 39.2535L24.5543 41.0748C24.4165 41.1508 24.2547 41.1711 24.1024 41.1312C23.9501 41.0914 23.819 40.9946 23.7361 40.8608C23.6532 40.7269 23.6249 40.5664 23.657 40.4123C23.6891 40.2582 23.7793 40.1224 23.9087 40.0328L25.3237 39.0977L24.4647 39.5886C24.328 39.6643 24.1676 39.685 24.0161 39.6464C23.8647 39.6079 23.7337 39.5131 23.6498 39.3813C23.5659 39.2495 23.5354 39.0906 23.5646 38.9371C23.5938 38.7836 23.6804 38.6471 23.8069 38.5553L29.7504 34.4047L24.4634 37.4593C24.3277 37.5391 24.1664 37.5636 24.0131 37.5278C23.8598 37.4919 23.7261 37.3985 23.6397 37.2669C23.5533 37.1353 23.5208 36.9754 23.549 36.8205C23.5771 36.6656 23.6637 36.5274 23.7909 36.4346L31.1543 30.9869L24.4634 34.849C24.329 34.9253 24.1706 34.9481 24.0201 34.9127C23.8696 34.8773 23.7379 34.7864 23.6515 34.6582C23.5652 34.5299 23.5304 34.3738 23.5542 34.221C23.578 34.0682 23.6586 33.93 23.7799 33.8341L30.5297 28.579L24.5248 32.0423C24.3916 32.1178 24.2351 32.1409 24.0858 32.1069C23.9365 32.0729 23.8053 31.9843 23.718 31.8585C23.6307 31.7328 23.5936 31.579 23.6139 31.4272C23.6342 31.2755 23.7104 31.1368 23.8277 31.0384L28.6704 27.0499L25.3851 28.946C25.2524 29.0227 25.0958 29.0469 24.9462 29.014C24.7965 28.9811 24.6646 28.8933 24.5764 28.768C24.4879 28.6426 24.4497 28.4886 24.4693 28.3364C24.4888 28.1842 24.5647 28.0448 24.6819 27.9458L26.8492 26.1049C26.7488 26.0564 26.6635 25.9815 26.6025 25.8882C26.5415 25.7949 26.507 25.6867 26.5029 25.5753C26.4987 25.4639 26.525 25.3534 26.5788 25.2558C26.6327 25.1582 26.7122 25.0771 26.8087 25.0213L30.9973 22.6036C31.1299 22.528 31.2859 22.5046 31.4348 22.5379C31.5838 22.5711 31.715 22.6587 31.8028 22.7835C31.8907 22.9083 31.9289 23.0614 31.9099 23.2128C31.891 23.3643 31.8163 23.5032 31.7005 23.6026L30.6794 24.4617L34.4679 22.2747C34.6011 22.1992 34.7576 22.1762 34.9069 22.2101C35.0562 22.2441 35.1873 22.3327 35.2747 22.4585C35.362 22.5842 35.3991 22.7381 35.3788 22.8898C35.3585 23.0415 35.2823 23.1802 35.165 23.2786L30.3223 27.2831L37.5826 23.0921C37.7171 23.0157 37.8754 22.9929 38.026 23.0283C38.1765 23.0637 38.3081 23.1546 38.3945 23.2829C38.4809 23.4111 38.5157 23.5673 38.4919 23.7201C38.4681 23.8729 38.3875 24.0111 38.2662 24.107L31.5164 29.3645L39.8947 24.5267C40.0305 24.4469 40.1917 24.4224 40.3451 24.4583C40.4984 24.4941 40.6321 24.5875 40.7185 24.7191C40.8049 24.8508 40.8374 25.0106 40.8092 25.1655C40.7811 25.3204 40.6945 25.4586 40.5673 25.5514L33.2038 30.9991L41.484 26.2191C41.621 26.1404 41.783 26.1177 41.9363 26.1555C42.0897 26.1933 42.2225 26.2888 42.3072 26.422C42.392 26.5553 42.4221 26.7161 42.3913 26.871C42.3604 27.0259 42.2711 27.1629 42.1418 27.2536L36.1971 31.4054L42.4449 27.7985C42.583 27.7213 42.7455 27.7004 42.8985 27.7401C43.0516 27.7798 43.1834 27.8771 43.2666 28.0116C43.3497 28.1461 43.3776 28.3076 43.3446 28.4622C43.3115 28.6169 43.2201 28.7528 43.0892 28.8417L41.6742 29.7768L42.9346 29.0491C43.072 28.9748 43.2325 28.9557 43.3835 28.9956C43.5345 29.0356 43.6646 29.1317 43.7472 29.2642C43.8298 29.3968 43.8588 29.5558 43.8282 29.709C43.7976 29.8622 43.7098 29.9979 43.5826 30.0885L40.5759 32.1061L43.2868 30.5414C43.4228 30.4658 43.5823 30.4446 43.7333 30.4821C43.8842 30.5197 44.0153 30.6131 44.1 30.7436C44.1846 30.8741 44.2166 31.0319 44.1893 31.1851C44.1621 31.3382 44.0777 31.4753 43.9532 31.5686L38.1103 35.7866L43.4132 32.7259C43.5499 32.6471 43.7117 32.6239 43.8649 32.6613C44.0182 32.6986 44.1512 32.7935 44.2364 32.9263C44.3215 33.0592 44.3522 33.2197 44.3221 33.3745C44.292 33.5294 44.2034 33.6667 44.0747 33.758L42.0792 35.1693L43.412 34.4011C43.5435 34.3251 43.6985 34.3006 43.847 34.3324C43.9956 34.3641 44.127 34.4498 44.216 34.5728C44.3051 34.6959 44.3453 34.8475 44.3289 34.9985C44.3125 35.1495 44.2408 35.2891 44.1275 35.3902L40.274 38.8265L43.412 37.0163C43.5339 36.9464 43.676 36.9204 43.8147 36.9427C43.9534 36.965 44.0803 37.0343 44.1741 37.1388C44.2679 37.2434 44.323 37.377 44.3301 37.5173C44.3373 37.6576 44.2961 37.7961 44.2134 37.9097L42.4228 40.3495L43.3764 39.7984C43.5173 39.7184 43.6841 39.6972 43.8405 39.7397C43.9969 39.7821 44.1301 39.8847 44.2111 40.0251C44.2921 40.1654 44.3144 40.3321 44.2729 40.4887C44.2315 40.6454 44.1298 40.7793 43.99 40.8612L40.5071 42.869C40.3853 42.9395 40.2428 42.966 40.1037 42.944C39.9646 42.922 39.8373 42.8528 39.7432 42.748C39.6491 42.6433 39.5939 42.5093 39.5869 42.3687C39.5798 42.228 39.6214 42.0892 39.7045 41.9756L41.4951 39.537L35.7209 42.869C35.5904 42.9382 35.4394 42.958 35.2955 42.9248C35.1516 42.8916 35.0245 42.8076 34.9376 42.6882C34.8506 42.5689 34.8096 42.4222 34.8221 42.2751C34.8345 42.1279 34.8996 41.9902 35.0054 41.8872L38.8589 38.4509L31.1899 42.869C31.097 42.9241 30.9912 42.9538 30.8831 42.9549Z" fill="#C49A47"/>
<path d="M1.80185 42.5648C3.34449 43.3588 5.78056 43.0999 7.69996 42.9796C7.77066 43.0057 7.84603 43.0168 7.92125 43.0121C7.99647 43.0075 8.0699 42.9872 8.13685 42.9526C11.2847 42.8925 14.4179 42.9526 17.5645 42.9305C17.6066 42.973 17.6567 43.0067 17.7119 43.0297C17.7671 43.0526 17.8263 43.0645 17.886 43.0645C17.9458 43.0645 18.005 43.0526 18.0602 43.0297C18.1154 43.0067 18.1655 42.973 18.2076 42.9305C20.3933 42.8237 22.741 43.3478 24.669 42.3095C27.3394 43.9626 31.1733 42.7427 34.2255 43.0974C37.0174 42.9821 40.8096 44.0338 43.1659 42.2249C45.0289 43.3294 47.2477 42.8606 49.4162 42.9428C49.4986 42.9981 49.5956 43.0277 49.6948 43.0277C49.7941 43.0277 49.891 42.9981 49.9734 42.9428C53.0673 42.9502 56.1624 42.9293 59.2575 42.9502C59.3336 42.9945 59.4196 43.0192 59.5076 43.022C59.5957 43.0248 59.6831 43.0056 59.7619 42.9661C64.7224 43.4631 68.609 43.392 67.799 37.2705C68.1746 29.3683 67.3634 20.1456 58.2119 17.7574C67.5205 14.0217 64.7678 -0.490398 54.5179 0.01277C44.8116 0.380942 42.4062 14.3089 51.2767 17.8482C49.2363 18.5003 47.3772 19.6217 45.8486 21.1223C44.32 22.623 43.1645 24.4611 42.475 26.4892C41.2268 24.6767 39.4053 23.3367 37.3034 22.6848C44.5625 19.4498 42.4455 7.56151 34.3445 7.30379C25.6618 6.8129 23.0895 19.2522 30.6419 22.7412C28.5605 23.4198 26.755 24.7546 25.4961 26.5457C24.7882 24.4305 23.5746 22.5201 21.9607 20.9805C20.3469 19.4408 18.3815 18.3184 16.2354 17.7108C18.0692 17.224 19.6807 16.1232 20.8011 14.5921C21.9215 13.0609 22.4832 11.192 22.3925 9.29683C22.4317 -2.49816 4.39378 -2.6442 3.76052 9.11397C3.78079 11.0217 4.40951 12.8731 5.55514 14.3986C6.70078 15.9241 8.30349 17.0441 10.1299 17.5954C0.691199 19.7823 -0.316363 29.3867 0.0665349 37.4521C0.0677621 39.3777 -0.232911 41.5192 1.80185 42.5648ZM46.8415 9.08329C47.4011 -1.30897 62.7305 -0.636437 62.7612 9.40114C62.7931 19.8584 47.379 19.0497 46.8415 9.08329ZM65.7937 26.4242C66.3295 28.6314 66.5175 30.9088 66.3509 33.174C66.832 38.3664 67.3327 42.4752 60.3436 42.1034V28.7265C60.3436 27.8085 59.0795 28.3215 59.0795 29.0357V42.0567C56.2313 41.7546 53.3577 41.7822 50.5158 42.139V28.686C50.5158 27.7717 49.2714 28.362 49.2714 29.0713V42.2028C47.4133 42.4136 45.5333 42.1025 43.8421 41.3044C44.8106 37.0058 44.684 32.5327 43.474 28.2957C46.1469 17.2493 61.9647 14.4316 65.7937 26.4242ZM27.1284 15.379C27.5886 6.82762 40.7507 6.76258 40.7507 15.379C40.7507 23.9955 27.5886 23.928 27.1284 15.379ZM28.3384 25.2546C35.3067 20.2119 44.2434 26.5211 43.188 34.6614C43.6249 39.2402 44.0471 42.4347 38.1821 41.6726V31.2227C36.3069 27.7164 37.2862 40.7497 37.0678 41.6542H30.9942V31.3736C30.9942 30.6373 29.5215 30.5612 29.5215 31.2926V41.6591C24.1216 42.5587 24.4309 38.5321 24.6935 34.616C24.5943 32.5327 24.9368 30.452 25.6986 28.5105C25.7661 28.4651 25.8204 28.4027 25.8561 28.3297C25.8919 28.2567 25.9078 28.1755 25.9024 28.0944C26.4804 26.9706 27.315 25.9986 28.3384 25.2571V25.2546ZM5.22216 9.30664C5.60874 -1.21815 20.5467 -1.37033 20.8952 9.18392C20.6436 19.6744 5.71306 19.8069 5.22216 9.30664ZM2.07184 26.9151C5.69588 14.9274 21.9531 16.5768 24.5021 28.2822C23.2632 32.5121 23.0691 36.9794 23.9363 41.3007C22.2499 42.08 20.384 42.3883 18.5365 42.1929V28.7559C16.5594 25.0165 17.7105 41.1191 17.432 42.15C14.5708 41.7965 11.6785 41.7727 8.81183 42.0788V28.6209C8.81183 27.795 7.52323 28.454 7.52323 29.1364V42.1242C0.739062 42.4629 1.04219 38.9911 1.54045 33.8661C1.37455 31.5356 1.55362 29.1933 2.07184 26.9151Z" fill="#262626"/>
</svg>
