<svg width="44" height="44" viewBox="0 0 44 44" fill="none" xmlns="http://www.w3.org/2000/svg">
<path d="M40.4695 43.5818C40.316 43.5818 40.1783 43.4869 40.1234 43.3435C40.0688 43.2001 40.1082 43.0378 40.2227 42.9354L40.4977 42.6896L39.3718 43.3398C39.2084 43.4429 38.9928 43.4025 38.8776 43.2473C38.762 43.092 38.7854 42.8744 38.9315 42.7472L40.7679 41.0004L38.1314 42.5221C37.9633 42.6171 37.7507 42.5669 37.6426 42.4069C37.5345 42.2469 37.5673 42.0309 37.7182 41.9102L38.4935 41.3038L37.4629 41.8963C37.2995 41.9913 37.091 41.9479 36.9788 41.796C36.8666 41.6438 36.887 41.4319 37.026 41.3038L39.281 39.1969L36.3713 40.8766C36.2063 40.9698 35.9974 40.9234 35.8876 40.7688C35.7778 40.6146 35.8018 40.4024 35.9439 40.2766L37.8162 38.6521L35.4506 40.0183C35.2852 40.1135 35.0743 40.0674 34.9638 39.9115C34.8533 39.7559 34.8794 39.5416 35.0242 39.4169L36.8198 37.8782L34.556 39.1925C34.3868 39.2911 34.1702 39.2406 34.0617 39.0775C33.9533 38.9145 33.9902 38.6951 34.1465 38.5772L34.5858 38.2439L33.9394 38.6141C33.7699 38.7111 33.5542 38.6602 33.4464 38.4972C33.3386 38.3345 33.3756 38.1161 33.5312 37.9982L33.7712 37.8175L33.3468 38.0626C33.181 38.1582 32.9698 38.1117 32.8593 37.9554C32.7488 37.7995 32.7756 37.5846 32.921 37.4605L34.7248 35.9126L32.4501 37.2263C32.284 37.3208 32.0738 37.2737 31.964 37.1178C31.8542 36.9618 31.8806 36.7476 32.0257 36.6235L33.7607 35.1492L31.5755 36.4079C31.4077 36.5018 31.1962 36.452 31.088 36.293C30.9802 36.1343 31.0117 35.9191 31.1606 35.7977L32.2427 34.9387L30.8561 35.7387C30.6931 35.8319 30.4856 35.7882 30.3741 35.6367C30.2625 35.4851 30.2822 35.2743 30.4202 35.1461L32.6535 33.0786L29.7818 34.736C29.6164 34.8295 29.4069 34.7831 29.2967 34.6278C29.1869 34.4725 29.2127 34.2593 29.3561 34.1346L31.1524 32.5972L28.8886 33.9088C28.7191 34.0057 28.5035 33.9546 28.3957 33.7918C28.2879 33.6291 28.3252 33.4105 28.4804 33.2925L28.8154 33.0406L28.2852 33.3467C28.1221 33.4376 27.9167 33.3928 27.8061 33.2423C27.6956 33.0918 27.7146 32.8823 27.8502 32.7542L31.7175 29.2268C31.688 29.0719 31.7596 28.9153 31.8959 28.8367L32.6128 28.4227C32.7759 28.3329 32.98 28.378 33.0902 28.5282C33.2 28.6783 33.1817 28.8868 33.0468 29.015L30.8785 30.9944L33.6512 29.3943C33.8204 29.297 34.0363 29.3482 34.1438 29.5109C34.2516 29.6737 34.2146 29.8923 34.059 30.0103L33.7275 30.2608L34.2526 29.9577C34.418 29.8625 34.6289 29.9086 34.7394 30.0645C34.8499 30.2201 34.8238 30.4344 34.6791 30.5591L32.8823 32.0965L35.1442 30.7917C35.3072 30.6981 35.5147 30.7418 35.6262 30.8934C35.7378 31.0449 35.7181 31.2561 35.5805 31.3843L33.3468 33.4494L36.2157 31.7944C36.3832 31.7005 36.5947 31.7504 36.7029 31.9094C36.811 32.068 36.7795 32.2833 36.6303 32.4046L35.5449 33.2674L36.9334 32.466C37.0992 32.3714 37.3097 32.4185 37.4195 32.5745C37.5294 32.7308 37.5026 32.9447 37.3575 33.0687L35.6225 34.5427L37.805 33.2837C37.9704 33.1884 38.1813 33.2345 38.2918 33.3901C38.4023 33.5461 38.3762 33.7603 38.2314 33.8851L36.4276 35.4312L38.6996 34.1196C38.8688 34.0227 39.0844 34.0739 39.1922 34.2366C39.3 34.3993 39.263 34.6176 39.1074 34.736L38.864 34.9187L39.2905 34.6729C39.4596 34.5746 39.6766 34.6248 39.7851 34.7878C39.8936 34.9509 39.8563 35.1702 39.7 35.2882L39.2617 35.6207L39.9058 35.2506C40.0715 35.155 40.2831 35.2011 40.3933 35.3573C40.5038 35.5136 40.477 35.7282 40.3316 35.8526L38.5372 37.3907L40.7984 36.0852C40.9635 35.9903 41.174 36.0364 41.2845 36.1916C41.395 36.3469 41.3696 36.5608 41.2255 36.6859L39.3529 38.3114L41.715 36.9435C41.8784 36.8486 42.0869 36.892 42.1991 37.0439C42.311 37.1957 42.291 37.408 42.152 37.5358L39.8987 39.6444L42.7073 38.0226C42.8754 37.9276 43.0883 37.9775 43.1965 38.1375C43.3046 38.2975 43.2714 38.5138 43.1205 38.6341L42.3452 39.2406L43.0941 38.8091C43.2565 38.7151 43.4633 38.7575 43.5758 38.9077C43.688 39.0579 43.6704 39.2684 43.5348 39.3976L41.6974 41.1448L43.2348 40.2559C43.3975 40.1698 43.5989 40.2162 43.7073 40.3651C43.8158 40.5139 43.7985 40.72 43.6663 40.8485L43.0134 41.4336C43.1595 41.4699 43.2693 41.5919 43.2904 41.7411C43.3114 41.8906 43.2395 42.0377 43.1087 42.1133L40.6546 43.5324C40.5984 43.5649 40.5346 43.5822 40.4695 43.5818Z" fill="#E0BF62"/>
<path d="M17.9043 36.1828C17.7405 36.1828 17.5965 36.0753 17.5497 35.9183C17.5029 35.7617 17.5646 35.5929 17.7012 35.5031L23.4849 31.7144L16.1076 35.9733C15.933 36.0709 15.7126 36.0126 15.6096 35.8414C15.5062 35.6702 15.5577 35.4478 15.7255 35.3393L18.5138 33.585L14.7953 35.7326C14.621 35.8322 14.399 35.7746 14.2949 35.6031C14.1908 35.4312 14.2427 35.2078 14.4115 35.0993L20.0881 31.5032L13.3711 35.3807C13.1962 35.4817 12.9728 35.4237 12.8687 35.2508C12.765 35.0776 12.8186 34.8532 12.9898 34.7461L17.1029 32.1815L12.2382 34.9885C12.0633 35.0891 11.8399 35.0312 11.7358 34.8583C11.6317 34.6854 11.6856 34.4606 11.8568 34.3535L17.0903 31.0954L11.1429 34.5284C10.9697 34.6213 10.7541 34.5623 10.6517 34.3945C10.5496 34.2264 10.5964 34.0081 10.7585 33.8969L22.5608 26.3222L9.6662 33.767C9.49263 33.8613 9.27567 33.8026 9.17329 33.6335C9.07057 33.4646 9.11871 33.2453 9.28245 33.1348L21.5817 25.2907L8.33257 32.9399C8.15764 33.0334 7.94068 32.9728 7.83932 32.8026C7.7383 32.6321 7.78915 32.4124 7.95458 32.3039L9.63366 31.2761L7.64677 32.4266C7.47151 32.5324 7.24404 32.4761 7.13827 32.3012C7.0325 32.1263 7.08877 31.8985 7.2637 31.7927L19.1159 24.3286L6.61722 31.5439C6.50332 31.6113 6.36196 31.613 6.24636 31.5479C6.1311 31.4828 6.05889 31.3611 6.05753 31.2286C6.05618 31.0964 6.12567 30.973 6.23958 30.9055L9.70552 28.7885L5.94329 30.9635C5.76836 31.0588 5.54937 30.9981 5.44767 30.8265C5.34631 30.6553 5.39885 30.4343 5.56632 30.3265L5.62361 30.2916L5.45174 30.3902C5.27715 30.4899 5.05545 30.4323 4.95137 30.2607C4.8473 30.0889 4.89883 29.8655 5.06799 29.757L18.9558 20.9755L4.52152 29.3088C4.34558 29.4136 4.11845 29.3556 4.0137 29.1797C3.90928 29.0037 3.96725 28.7766 4.14319 28.6722L9.5906 25.3395L3.97268 28.581C3.79843 28.6786 3.57774 28.6203 3.47468 28.4491C3.37129 28.2779 3.42282 28.0555 3.59062 27.9471L15.9306 20.226L3.30925 27.5125C3.13534 27.6081 2.91669 27.5494 2.81397 27.3796C2.71125 27.2097 2.76075 26.9887 2.92618 26.8792L17.7819 17.4577L2.58277 26.2327C2.4092 26.3266 2.19224 26.268 2.08986 26.0992C1.98715 25.9303 2.03528 25.7107 2.19902 25.6002L17.0378 16.1817L2.00274 24.8618C1.8268 24.9659 1.59967 24.9076 1.49559 24.7316C1.39152 24.5554 1.44983 24.3282 1.62577 24.2242L2.2058 23.8733L1.70679 24.1608C1.53221 24.2567 1.31287 24.1977 1.21049 24.0269C1.10812 23.856 1.15897 23.6346 1.32609 23.5258L11.5236 17.1838L1.40373 23.0261C1.2288 23.1268 1.0054 23.0692 0.901326 22.8959C0.797253 22.7231 0.851154 22.4986 1.02235 22.3915L11.4236 15.901L1.11422 21.8539C0.939633 21.9498 0.7203 21.8908 0.617921 21.72C0.515543 21.5491 0.566732 21.3277 0.733521 21.2192L10.055 15.4139L0.927429 20.686C0.753522 20.7816 0.535205 20.7229 0.432149 20.5531C0.329431 20.3833 0.379264 20.1622 0.544697 20.0527L12.7728 12.2859L0.807423 19.1944C0.633176 19.2964 0.409097 19.2402 0.304006 19.0676C0.198916 18.8951 0.2518 18.67 0.422657 18.5618L13.3081 10.2678L0.820305 17.477C0.706739 17.5452 0.565376 17.5472 0.449777 17.4831C0.334177 17.4187 0.261631 17.2977 0.259597 17.1655C0.257563 17.0329 0.326041 16.9095 0.439607 16.8417L4.83238 14.1216L0.907428 16.3861C0.733182 16.4929 0.505034 16.438 0.398587 16.2637C0.291802 16.0891 0.34672 15.8613 0.520967 15.7545L11.0592 8.94876L1.19626 14.6436C1.02201 14.7433 0.799965 14.6857 0.695891 14.5141C0.591818 14.3423 0.643685 14.1189 0.812847 14.0104L6.624 10.3343L1.53424 13.2737C1.35898 13.3795 1.13151 13.3232 1.02574 13.148C0.919971 12.973 0.976245 12.7456 1.15117 12.6398L4.61474 10.4573L2.00444 11.9642C1.83188 12.0611 1.61357 12.0052 1.50882 11.8371C1.4044 11.6692 1.45017 11.4486 1.61323 11.3363L9.29669 6.18048L3.00178 9.81593C2.8299 9.91288 2.61226 9.8583 2.50684 9.69152C2.40141 9.52473 2.44514 9.30472 2.6065 9.19081L8.10374 5.38451L4.64085 7.38393C4.47101 7.48428 4.25235 7.43411 4.14319 7.26969C4.03437 7.10494 4.0737 6.88391 4.23269 6.76695L7.29929 4.46242C7.16505 4.41293 7.07149 4.29055 7.05894 4.14783C7.0464 4.00545 7.11691 3.86849 7.23997 3.79595L11.3493 1.41887C11.5192 1.3209 11.7355 1.37209 11.8436 1.53549C11.9514 1.69889 11.9134 1.91822 11.7568 2.03552L9.56247 3.68577L15.5485 0.230334C15.7201 0.133041 15.9381 0.187959 16.0435 0.354748C16.1489 0.521197 16.1052 0.741548 15.9438 0.855113L10.4496 4.65938L18.4382 0.0472735C18.6107 -0.0493418 18.8287 0.00659341 18.9335 0.174399C19.0382 0.342544 18.9921 0.562894 18.8291 0.675104L11.1473 5.83029L20.8285 0.239826C21.0038 0.134058 21.2312 0.190332 21.337 0.365257C21.4428 0.54052 21.3865 0.76799 21.2116 0.873758L17.7449 3.06065L22.1238 0.532384C22.2987 0.426277 22.5265 0.482551 22.6327 0.657475C22.7384 0.8324 22.6825 1.06021 22.5076 1.16632L16.6889 4.84448L23.5524 0.881894C23.7269 0.775109 23.9548 0.830027 24.0615 1.00427C24.1683 1.17886 24.1134 1.40667 23.9388 1.51345L13.4044 8.31856L25.1609 1.52905C25.3362 1.42396 25.5637 1.48091 25.6687 1.65651C25.7742 1.83211 25.7169 2.05925 25.5416 2.16467L21.156 4.88075L26.2 1.96839C26.3745 1.86161 26.6024 1.91686 26.7091 2.09145C26.8156 2.26637 26.7603 2.49418 26.5857 2.60063L13.6956 10.8987L27.6417 2.84674C27.8156 2.75081 28.0343 2.80945 28.137 2.97929C28.2397 3.14947 28.1902 3.37016 28.0245 3.47966L15.7964 11.2438L28.8865 3.68577C29.0618 3.57966 29.2896 3.63526 29.3957 3.81052C29.5018 3.98545 29.4459 4.21326 29.271 4.3197L19.9437 10.1278L29.7774 4.44988C29.953 4.34445 30.1809 4.40106 30.2863 4.57667C30.3917 4.75193 30.3351 4.97974 30.1595 5.08517L19.7549 11.577L30.7046 5.25501C30.8182 5.18687 30.9595 5.1845 31.0751 5.24891C31.1907 5.31332 31.2633 5.43434 31.2653 5.56655C31.2674 5.69876 31.1989 5.82216 31.0853 5.8903L20.8929 12.2286L31.4565 6.13031C31.6325 6.0259 31.8596 6.08421 31.964 6.26015C32.0684 6.43643 32.0101 6.66356 31.8342 6.76797L31.246 7.12392L31.9569 6.71305C32.1321 6.60728 32.3596 6.66356 32.4654 6.83848C32.5711 7.01375 32.5149 7.24122 32.34 7.34698L17.4961 16.7668L32.8369 7.91142C33.0112 7.81175 33.2332 7.86905 33.3373 8.04092C33.4414 8.21279 33.3895 8.43619 33.2203 8.54434L18.3684 17.9628L33.6129 9.16132C33.7882 9.05589 34.0156 9.1125 34.1214 9.28743C34.2268 9.46269 34.1702 9.6905 33.995 9.79593L21.6594 17.514L34.175 10.2871C34.3499 10.1902 34.5702 10.2499 34.6723 10.4217C34.7747 10.5936 34.7218 10.8156 34.5533 10.9231L29.1015 14.2609L34.5296 11.1268C34.7048 11.0207 34.9326 11.077 35.0384 11.2519C35.1445 11.4269 35.0882 11.6547 34.9133 11.7608L21.0285 20.5379L35.0415 12.4503C35.2174 12.3459 35.4445 12.4045 35.5486 12.5805C35.6527 12.7564 35.5944 12.9836 35.4184 13.0876L35.2615 13.1832C35.4394 13.1053 35.6472 13.1781 35.7378 13.3504C35.8283 13.5222 35.7703 13.7348 35.6049 13.8372L32.1369 15.9559L35.436 14.0511C35.6103 13.9555 35.8286 14.0141 35.9313 14.184C36.034 14.3541 35.9846 14.5748 35.8191 14.6843L23.97 22.1464L35.6811 15.3844C35.8571 15.2796 36.0846 15.3376 36.189 15.5135C36.2934 15.6895 36.2354 15.9166 36.0598 16.021L34.3807 17.0461L35.753 16.2536C35.9276 16.1539 36.1493 16.2115 36.2534 16.3834C36.3575 16.5549 36.3059 16.7783 36.1368 16.8868L23.8375 24.7299L35.8754 17.7808C36.0493 17.6835 36.269 17.7414 36.3724 17.9116C36.4758 18.0818 36.4259 18.3035 36.2595 18.413L24.4575 25.9859L35.7391 19.4727C35.914 19.372 36.1374 19.43 36.2415 19.6029C36.3452 19.7761 36.2917 20.0005 36.1205 20.1077L30.8921 23.3661L35.6466 20.6206C35.8218 20.5155 36.0496 20.5724 36.1547 20.7477C36.2602 20.9233 36.2032 21.1508 36.0279 21.2562L31.905 23.8252L35.3533 21.8352C35.5283 21.7294 35.7557 21.7857 35.8615 21.9606C35.9673 22.1359 35.911 22.3634 35.7361 22.4691L30.0625 26.0632L35.017 23.2024C35.1913 23.1048 35.412 23.1631 35.515 23.3343C35.6184 23.5055 35.5669 23.7275 35.3991 23.8363L32.6034 25.5937L34.4963 24.5004C34.6702 24.3964 34.8953 24.4513 35.0018 24.6238C35.1082 24.796 35.056 25.0222 34.8852 25.1306L29.1089 28.9149L33.6787 26.2771C33.8522 26.1815 34.0702 26.2399 34.1733 26.4087C34.2767 26.5778 34.2282 26.7982 34.0638 26.9087L32.864 27.6789C33.038 27.625 33.2251 27.7054 33.3058 27.8684C33.3864 28.0315 33.337 28.2291 33.1885 28.3345L29.5103 30.9499L30.7595 30.2296C30.9355 30.1374 31.1524 30.2004 31.2518 30.3723C31.3511 30.5442 31.2972 30.7635 31.1297 30.8699L23.0934 35.5105C22.9222 35.6078 22.7049 35.5546 22.5984 35.3892C22.492 35.2234 22.5337 35.0034 22.6933 34.8885L26.3756 32.2714L19.8111 36.06C19.6369 36.1621 19.4128 36.1055 19.3077 35.9329C19.2026 35.7604 19.2552 35.5356 19.426 35.4275L20.4546 34.7684L18.0887 36.1326C18.0324 36.1651 17.969 36.1824 17.9043 36.1828Z" fill="#09CCFF"/>
<path d="M18.1017 36.1747C21.5172 36.0937 24.856 35.1445 27.8029 33.4162L35.0087 40.1552C36.9949 42.0133 39.0645 44.6128 42.0647 43.0279C46.0639 40.9149 42.9661 37.5639 40.8636 35.5957L33.2381 28.4617C33.8819 27.5752 34.4422 26.6308 34.9124 25.6409C38.3692 18.1619 36.3386 9.29156 29.9722 4.06111C17.6054 -5.98823 -1.64171 4.32553 0.111947 20.2416C1.12963 29.4601 9.07412 35.9231 18.1017 36.1747ZM37.4909 33.7746C38.9581 35.1475 43.3414 38.0527 42.8688 40.4566C42.9871 41.559 42.2711 41.9611 40.7212 41.6624C39.8476 42.5208 39.1459 42.6994 38.6167 42.1977C38.5425 42.1672 38.5018 42.0584 38.4292 42.0231C38.0804 41.7719 37.7651 41.4777 37.4909 41.1468L33.9992 37.8809L28.6494 32.8762C30.1566 31.8724 31.5034 30.6466 32.6442 29.2401L37.4909 33.7746ZM18.1017 0.62805C26.9764 0.743649 34.3904 7.42095 35.4308 16.2353C35.9522 21.0864 34.4209 25.9345 31.2075 29.6062C27.9941 33.2776 23.3918 35.4377 18.5143 35.5638C9.74738 35.3194 2.11612 28.8441 1.18522 19.9565C0.137033 9.98414 7.86863 0.638898 18.1017 0.62805Z" fill="#262626"/>
</svg>
