<svg width="45" height="44" viewBox="0 0 45 44" fill="none" xmlns="http://www.w3.org/2000/svg">
<path d="M1.26066 43.5598C1.1795 43.5595 1.10064 43.5328 1.03604 43.4836C0.971444 43.4345 0.924627 43.3657 0.902686 43.2875C0.880746 43.2094 0.884879 43.1262 0.914458 43.0506C0.944038 42.975 0.997452 42.9112 1.0666 42.8687L6.68378 39.413L0.84941 42.7784C0.764986 42.8209 0.667578 42.8298 0.576857 42.8032C0.486135 42.7767 0.40886 42.7167 0.360634 42.6354C0.312408 42.5541 0.296826 42.4576 0.317034 42.3653C0.337242 42.2729 0.391735 42.1917 0.469507 42.138L5.22314 39.2182L0.848663 41.7424C0.763932 41.7913 0.663407 41.8049 0.568721 41.7804C0.474035 41.7559 0.392756 41.6952 0.342377 41.6113C0.291998 41.5275 0.276545 41.4272 0.299344 41.3321C0.322143 41.237 0.381371 41.1546 0.464283 41.1028L9.86854 35.2176L1.39351 40.1131C1.30905 40.1588 1.2102 40.1702 1.11753 40.145C1.02486 40.1197 0.94551 40.0596 0.89599 39.9773C0.84647 39.895 0.830595 39.7968 0.851669 39.7031C0.872744 39.6093 0.929144 39.5274 1.00913 39.4742L8.49895 34.8004L1.89507 38.6129C1.81088 38.6592 1.71206 38.6712 1.6192 38.6465C1.52635 38.6218 1.44661 38.5622 1.39659 38.4801C1.34657 38.3981 1.33013 38.2999 1.35069 38.206C1.37125 38.1122 1.42723 38.0298 1.50696 37.9762L12.1875 31.1447L2.52576 36.726C2.44169 36.7717 2.34332 36.7833 2.25095 36.7585C2.15858 36.7337 2.07925 36.6744 2.02936 36.5928C1.97946 36.5112 1.96279 36.4135 1.98281 36.32C2.00282 36.2265 2.05798 36.1442 2.1369 36.0901L12.7294 29.231L3.19077 34.734C3.10654 34.783 3.0065 34.7971 2.91201 34.7733C2.81753 34.7495 2.7361 34.6897 2.68513 34.6066C2.63415 34.5236 2.61768 34.4239 2.63922 34.3289C2.66076 34.2338 2.71862 34.151 2.80042 34.0981L12.3622 27.8711L3.84011 32.7912C3.75604 32.839 3.65668 32.8523 3.563 32.8283C3.46931 32.8042 3.38861 32.7448 3.3379 32.6624C3.28719 32.5801 3.27044 32.4813 3.29116 32.3868C3.31189 32.2923 3.36848 32.2096 3.44902 32.156L12.1412 26.4493L4.48124 30.8715C4.39763 30.9178 4.29943 30.9303 4.20689 30.9063C4.11435 30.8824 4.03454 30.8238 3.98391 30.7428C3.93327 30.6617 3.91567 30.5643 3.93475 30.4706C3.95382 30.3769 4.00811 30.2942 4.08642 30.2393L12.9339 24.2848L5.18806 28.7571C5.10444 28.8056 5.00525 28.8198 4.91138 28.7966C4.81751 28.7735 4.73629 28.7148 4.68482 28.633C4.63336 28.5511 4.61566 28.4525 4.63546 28.3579C4.65527 28.2632 4.71102 28.18 4.79099 28.1256L12.4114 22.9518L5.86427 26.7329C5.78071 26.7781 5.68307 26.7897 5.59125 26.7654C5.49942 26.7411 5.42033 26.6827 5.37008 26.6021C5.31983 26.5214 5.30221 26.4247 5.32081 26.3316C5.33941 26.2384 5.39283 26.1559 5.47018 26.1007L10.8269 22.507L6.42778 25.0446C6.34429 25.0923 6.24559 25.106 6.15228 25.0827C6.05897 25.0595 5.97824 25.0011 5.92694 24.9197C5.87563 24.8384 5.85771 24.7404 5.8769 24.6461C5.8961 24.5519 5.95093 24.4687 6.02996 24.4139L11.2031 20.8657L7.01666 23.2847C6.93298 23.3304 6.83499 23.3423 6.74279 23.318C6.6506 23.2937 6.57119 23.2351 6.52087 23.1541C6.47054 23.0731 6.45312 22.976 6.47217 22.8826C6.49123 22.7891 6.54531 22.7066 6.62333 22.6518L8.86244 21.159L7.45478 21.9718C7.37136 22.0204 7.27236 22.0347 7.17859 22.0118C7.08482 21.9889 7.00357 21.9306 6.95189 21.8491C6.90021 21.7675 6.88213 21.6692 6.90145 21.5746C6.92076 21.48 6.97597 21.3966 7.05547 21.3419L10.332 19.0662L7.97052 20.4276C7.88792 20.4742 7.79067 20.4876 7.69853 20.4651C7.60639 20.4426 7.52628 20.3858 7.47448 20.3064C7.42268 20.2269 7.40308 20.1307 7.41967 20.0373C7.43625 19.9439 7.48777 19.8604 7.56375 19.8036L11.2023 17.1398L8.55941 18.6639C8.47646 18.7101 8.37901 18.7229 8.28692 18.6998C8.19483 18.6767 8.11502 18.6193 8.06374 18.5394C8.01246 18.4595 7.99357 18.363 8.01092 18.2697C8.02827 18.1763 8.08055 18.0931 8.15712 18.037L9.62448 16.992L8.99604 17.3548C8.91501 17.4024 8.819 17.4177 8.72719 17.3976C8.63538 17.3775 8.55454 17.3235 8.50081 17.2464C8.44708 17.1693 8.42442 17.0747 8.43736 16.9816C8.4503 16.8885 8.49788 16.8038 8.5706 16.7442L11.6777 14.1596L9.67822 15.3127C9.59689 15.3587 9.50126 15.3725 9.41023 15.3514C9.31921 15.3303 9.23941 15.2758 9.18661 15.1987C9.13381 15.1217 9.11185 15.0276 9.12507 14.9351C9.13829 14.8426 9.18573 14.7584 9.25801 14.6992L10.5268 13.6789L10.1537 13.8953C10.0741 13.9422 9.9801 13.9579 9.88967 13.9395C9.79925 13.9211 9.71885 13.8698 9.66402 13.7956C9.60918 13.7214 9.5838 13.6294 9.59276 13.5376C9.60172 13.4457 9.6444 13.3605 9.71255 13.2983L11.0411 12.0645L10.6993 12.2615C10.622 12.3059 10.5315 12.3212 10.4441 12.3046C10.3566 12.2881 10.2779 12.2408 10.2222 12.1713C10.1665 12.1019 10.1375 12.0148 10.1404 11.9258C10.1433 11.8368 10.1779 11.7518 10.238 11.6861L11.068 10.783C11.0146 10.7909 10.9602 10.7869 10.9086 10.7713C10.8569 10.7557 10.8094 10.7288 10.7694 10.6927C10.711 10.641 10.6702 10.5723 10.6528 10.4963C10.6354 10.4203 10.6422 10.3407 10.6724 10.2687L11.3628 8.62672L11.3568 8.61553C11.3073 8.52981 11.2939 8.42795 11.3195 8.33235C11.3451 8.23675 11.4077 8.15525 11.4934 8.10576L11.7173 7.97589C11.7849 7.93707 11.8629 7.92036 11.9404 7.92813C12.0179 7.93589 12.0911 7.96772 12.1496 8.01917C12.2081 8.07061 12.2491 8.13908 12.2667 8.21498C12.2844 8.29088 12.2778 8.37039 12.248 8.44237L11.7882 9.53655L12.7339 8.9917C12.811 8.94785 12.9012 8.93291 12.9883 8.94956C13.0755 8.9662 13.1538 9.01334 13.2093 9.08253C13.2649 9.15171 13.2939 9.23841 13.2913 9.32708C13.2887 9.41576 13.2546 9.5006 13.1951 9.5664L12.4271 10.4031L13.5168 9.77464C13.5963 9.72847 13.69 9.71327 13.78 9.73195C13.87 9.75063 13.95 9.80187 14.0046 9.87585C14.0591 9.94983 14.0845 10.0413 14.0757 10.1329C14.067 10.2244 14.0247 10.3094 13.9572 10.3717L12.6353 11.6047L14.3594 10.6098C14.4408 10.5638 14.5364 10.55 14.6274 10.5711C14.7185 10.5922 14.7983 10.6467 14.8511 10.7238C14.9039 10.8009 14.9258 10.895 14.9126 10.9875C14.8994 11.08 14.8519 11.1641 14.7797 11.2233L13.5108 12.2429L15.0842 11.3346C15.1652 11.286 15.2617 11.27 15.3541 11.2897C15.4465 11.3095 15.5279 11.3636 15.582 11.4411C15.6361 11.5185 15.6588 11.6136 15.6455 11.7072C15.6322 11.8007 15.5839 11.8857 15.5103 11.9451L12.404 14.5298L16.1291 12.3795C16.212 12.3333 16.3095 12.3204 16.4016 12.3436C16.4937 12.3667 16.5735 12.424 16.6248 12.504C16.676 12.5839 16.6949 12.6803 16.6776 12.7737C16.6602 12.867 16.6079 12.9503 16.5314 13.0064L15.0685 14.0461L16.7978 13.0475C16.8804 13.0009 16.9777 12.9874 17.0698 13.0099C17.162 13.0325 17.2421 13.0892 17.2939 13.1687C17.3457 13.2481 17.3653 13.3443 17.3487 13.4377C17.3321 13.5311 17.2806 13.6147 17.2046 13.6714L13.5638 16.3375L17.6995 13.9491C17.7829 13.8983 17.883 13.8823 17.9782 13.9045C18.0734 13.9267 18.1561 13.9853 18.2085 14.0678C18.2609 14.1503 18.2788 14.2501 18.2584 14.3457C18.238 14.4413 18.181 14.5251 18.0995 14.579L14.8229 16.8547L18.4891 14.738C18.573 14.6903 18.6721 14.6769 18.7656 14.7007C18.8591 14.7245 18.9398 14.7836 18.9907 14.8656C19.0416 14.9476 19.0587 15.0461 19.0386 15.1404C19.0184 15.2348 18.9624 15.3177 18.8824 15.3717L16.6433 16.8644L19.1638 15.409C19.2474 15.3595 19.347 15.3445 19.4414 15.3672C19.5358 15.3899 19.6177 15.4486 19.6696 15.5307C19.7214 15.6128 19.7393 15.7119 19.7193 15.8069C19.6993 15.902 19.643 15.9855 19.5624 16.0397L14.3856 19.5901L20.0654 16.3106C20.1493 16.262 20.2487 16.2479 20.3427 16.2713C20.4367 16.2947 20.5179 16.3538 20.5692 16.436C20.6205 16.5182 20.6378 16.6171 20.6175 16.7118C20.5971 16.8065 20.5408 16.8896 20.4603 16.9435L15.0984 20.5395L20.9238 17.1764C21.0073 17.1294 21.1058 17.1164 21.1987 17.14C21.2916 17.1636 21.3718 17.2221 21.4228 17.3033C21.4737 17.3845 21.4915 17.4822 21.4724 17.5761C21.4533 17.67 21.3987 17.753 21.3201 17.8078L13.6989 22.9824L21.965 18.2116C22.0489 18.1591 22.1502 18.1422 22.2467 18.1644C22.3431 18.1867 22.4267 18.2463 22.4792 18.3303C22.5317 18.4142 22.5486 18.5155 22.5264 18.612C22.5041 18.7084 22.4445 18.7921 22.3605 18.8445L13.5116 24.7968L23.0442 19.2938C23.1281 19.2482 23.2262 19.2364 23.3185 19.261C23.4108 19.2855 23.4901 19.3445 23.5402 19.4258C23.5904 19.5071 23.6074 19.6045 23.5879 19.6979C23.5684 19.7914 23.5138 19.8738 23.4353 19.9283L14.7438 25.6342L24.0257 20.2753C24.1098 20.2283 24.2089 20.2157 24.3021 20.2401C24.3954 20.2644 24.4756 20.324 24.5259 20.4061C24.5763 20.4883 24.5929 20.5868 24.5723 20.6809C24.5516 20.7751 24.4954 20.8576 24.4153 20.9112L14.855 27.1382L25.0198 21.2695C25.1041 21.2215 25.2038 21.2082 25.2977 21.2324C25.3916 21.2567 25.4724 21.3165 25.5229 21.3993C25.5735 21.482 25.5898 21.5812 25.5685 21.6759C25.5472 21.7705 25.4899 21.8531 25.4087 21.9061L14.8103 28.7668L26.0342 22.2868C26.1186 22.2373 26.2191 22.223 26.314 22.2469C26.409 22.2708 26.4907 22.3311 26.5416 22.4147C26.5925 22.4983 26.6085 22.5985 26.5862 22.6938C26.5639 22.7891 26.505 22.8719 26.4223 22.9242L15.7492 29.7512L27.0044 23.2541C27.0892 23.2052 27.1897 23.1916 27.2844 23.2161C27.3791 23.2406 27.4604 23.3013 27.5107 23.3851C27.5611 23.469 27.5766 23.5692 27.5538 23.6644C27.531 23.7595 27.4717 23.8418 27.3888 23.8937L19.8908 28.572L27.7725 24.0191C27.857 23.9717 27.9567 23.9591 28.0504 23.9839C28.1441 24.0087 28.2244 24.069 28.2745 24.152C28.3245 24.235 28.3403 24.3342 28.3185 24.4287C28.2967 24.5231 28.239 24.6054 28.1576 24.658L18.7474 30.5476L28.6076 24.8588C28.6922 24.8142 28.7907 24.8038 28.8827 24.8297C28.9748 24.8556 29.0533 24.9158 29.1023 24.998C29.1512 25.0801 29.1667 25.1779 29.1456 25.2711C29.1246 25.3644 29.0685 25.446 28.989 25.4992L24.2496 28.41L29.2652 25.5148C29.3498 25.4703 29.4482 25.4598 29.5403 25.4857C29.6323 25.5116 29.7109 25.5719 29.7598 25.654C29.8087 25.7362 29.8243 25.8339 29.8032 25.9272C29.7821 26.0205 29.7261 26.1021 29.6466 26.1552L24.0137 29.6221L29.9474 26.1978C30.0314 26.1521 30.1298 26.1405 30.2222 26.1653C30.3146 26.1901 30.3939 26.2495 30.4438 26.3311C30.4937 26.4127 30.5103 26.5103 30.4903 26.6038C30.4703 26.6974 30.4152 26.7796 30.3362 26.8337L18.469 34.5071L31.0147 27.2673C31.0995 27.2195 31.1995 27.2068 31.2936 27.2317C31.3876 27.2567 31.4682 27.3174 31.5182 27.4009C31.5681 27.4845 31.5834 27.5842 31.5609 27.6788C31.5384 27.7735 31.4798 27.8556 31.3976 27.9077L30.637 28.3779L31.5804 27.8338C31.6644 27.7868 31.7632 27.7741 31.8563 27.7983C31.9494 27.8224 32.0296 27.8816 32.0801 27.9634C32.1307 28.0452 32.1477 28.1434 32.1276 28.2375C32.1075 28.3315 32.0518 28.4142 31.9723 28.4682L25.7446 32.5807L32.4537 28.7071C32.5378 28.66 32.6369 28.6474 32.7301 28.6718C32.8234 28.6962 32.9036 28.7557 32.9539 28.8379C33.0043 28.9201 33.0209 29.0185 33.0003 29.1127C32.9796 29.2068 32.9234 29.2894 32.8433 29.343L31.367 30.3013L33.0665 29.3198C33.1491 29.2732 33.2463 29.2598 33.3385 29.2823C33.4306 29.3048 33.5107 29.3616 33.5625 29.441C33.6143 29.5205 33.6339 29.6167 33.6173 29.7101C33.6007 29.8034 33.5492 29.887 33.4732 29.9438L30.4056 32.1874L33.9069 30.158C33.9833 30.114 34.0728 30.0985 34.1595 30.1142C34.2462 30.1299 34.3246 30.1757 34.3808 30.2437C34.4369 30.3116 34.4672 30.3973 34.4662 30.4854C34.4653 30.5735 34.4332 30.6585 34.3756 30.7252L33.0135 32.2993L34.9376 31.1887C34.9994 31.1532 35.07 31.1361 35.1411 31.1395C35.2123 31.1428 35.281 31.1664 35.3391 31.2075C35.3973 31.2487 35.4424 31.3056 35.4693 31.3715C35.4962 31.4375 35.5036 31.5098 35.4907 31.5798L35.4533 31.7799L35.5019 31.7522C35.5875 31.7035 35.689 31.6907 35.7841 31.7165C35.8792 31.7423 35.9602 31.8047 36.0095 31.8901C36.0588 31.9754 36.0723 32.0768 36.0471 32.172C36.0219 32.2673 35.9601 32.3488 35.875 32.3986L35.1287 32.8315C35.0669 32.8672 34.9961 32.8844 34.9248 32.8811C34.8535 32.8778 34.7846 32.8541 34.7264 32.8128C34.6685 32.7714 34.6237 32.7142 34.5972 32.6481C34.5708 32.5819 34.5638 32.5096 34.5771 32.4396L34.6144 32.2396L31.4722 34.0533C31.3958 34.0973 31.3063 34.1128 31.2196 34.0971C31.1329 34.0814 31.0545 34.0356 30.9983 33.9676C30.9422 33.8997 30.9119 33.814 30.9128 33.7259C30.9138 33.6377 30.9459 33.5528 31.0035 33.4861L32.3656 31.912L24.784 36.2872C24.7014 36.3338 24.6041 36.3472 24.512 36.3247C24.4199 36.3022 24.3398 36.2454 24.288 36.166C24.2362 36.0865 24.2166 35.9903 24.2331 35.8969C24.2497 35.8036 24.3012 35.72 24.3772 35.6632L27.4426 33.4241L19.3116 38.1188C19.2276 38.165 19.129 38.1772 19.0363 38.1527C18.9436 38.1282 18.8639 38.069 18.8136 37.9873C18.7634 37.9056 18.7466 37.8077 18.7666 37.7139C18.7867 37.6201 18.842 37.5377 18.9213 37.4836L20.3976 36.5223L15.3342 39.4451C15.2503 39.492 15.1514 39.5048 15.0583 39.4806C14.9652 39.4565 14.8851 39.3973 14.8345 39.3155C14.784 39.2337 14.767 39.1355 14.7871 39.0414C14.8072 38.9474 14.8628 38.8647 14.9424 38.8107L21.1723 34.6967L9.67225 41.3394C9.58758 41.3853 9.48843 41.3967 9.39555 41.3712C9.30267 41.3457 9.22325 41.2852 9.17389 41.2025C9.12454 41.1198 9.10907 41.0212 9.13073 40.9274C9.15239 40.8335 9.2095 40.7517 9.2901 40.699L10.0447 40.231L6.0016 42.5634C5.91746 42.6104 5.8184 42.6231 5.72515 42.5987C5.63191 42.5743 5.55171 42.5148 5.50136 42.4326C5.45101 42.3504 5.43441 42.2519 5.45503 42.1578C5.47565 42.0636 5.5319 41.9811 5.61199 41.9275L17.4867 34.2503L1.44725 43.5098C1.3906 43.5428 1.3262 43.56 1.26066 43.5598Z" fill="#FDC70E"/>
<path d="M35.4224 32.4344C35.3595 32.4344 35.2976 32.4185 35.2425 32.3882C35.1863 32.3574 35.139 32.3126 35.1052 32.2582C35.0713 32.2038 35.052 32.1417 35.0492 32.0777L35.0268 31.5776L34.461 31.9038C34.3898 31.9447 34.3071 31.9611 34.2257 31.9502C34.1443 31.9394 34.0687 31.902 34.0107 31.8438C33.9527 31.7856 33.9155 31.7099 33.9049 31.6285C33.8943 31.547 33.9108 31.4643 33.952 31.3933L34.0207 31.2753L33.6423 31.4933C33.5721 31.5345 33.4903 31.5516 33.4095 31.5421C33.3286 31.5325 33.2531 31.4968 33.1945 31.4403C33.136 31.3847 33.0972 31.3117 33.0837 31.2321C33.0703 31.1526 33.0829 31.0709 33.1198 30.9992L33.5587 30.152L32.4242 30.8066C32.352 30.8484 32.2678 30.8648 32.1851 30.8531C32.1025 30.8414 32.0261 30.8024 31.9683 30.7422C31.9104 30.6821 31.8744 30.6042 31.866 30.5212C31.8576 30.4382 31.8773 30.3547 31.9219 30.2842L32.6608 29.1161L31.1464 29.9931C31.0705 30.0372 30.9815 30.0532 30.895 30.0383C30.8085 30.0233 30.73 29.9783 30.6734 29.9111C30.6168 29.844 30.5856 29.7591 30.5855 29.6713C30.5853 29.5834 30.6161 29.4984 30.6725 29.4311L31.5196 28.4137L30.0709 29.2497C29.9932 29.2946 29.902 29.31 29.8139 29.2931C29.7258 29.2763 29.6467 29.2282 29.5911 29.1578C29.5355 29.0873 29.5072 28.9992 29.5113 28.9096C29.5154 28.82 29.5516 28.7348 29.6134 28.6698L30.4695 27.7696L29.1163 28.5496C29.039 28.5939 28.9484 28.6092 28.8609 28.5925C28.7734 28.5759 28.6947 28.5285 28.639 28.4589C28.5834 28.3893 28.5545 28.3021 28.5576 28.213C28.5607 28.124 28.5955 28.039 28.6558 27.9734L29.8336 26.6978L28.0535 27.7256C27.9728 27.7716 27.8779 27.7858 27.7873 27.7656C27.6968 27.7453 27.617 27.6921 27.5635 27.6162C27.5101 27.5403 27.4869 27.4472 27.4984 27.3551C27.5099 27.263 27.5553 27.1785 27.6258 27.118L27.8721 26.9098L27.3899 27.1882C27.3094 27.2346 27.2146 27.2493 27.1238 27.2294C27.0331 27.2095 26.953 27.1565 26.8993 27.0808C26.8455 27.005 26.822 26.9119 26.8332 26.8197C26.8445 26.7275 26.8897 26.6428 26.96 26.5822L27.4825 26.1343L26.6846 26.5948C26.6051 26.6432 26.5104 26.6601 26.419 26.6422C26.3277 26.6243 26.2463 26.573 26.1909 26.4982C26.1355 26.4234 26.11 26.3307 26.1195 26.2381C26.1289 26.1455 26.1726 26.0598 26.242 25.9977L27.4362 24.8737L25.7942 25.8216C25.7159 25.8646 25.6248 25.8781 25.5374 25.8597C25.4499 25.8412 25.3721 25.792 25.3179 25.721C25.2636 25.65 25.2367 25.5619 25.2419 25.4727C25.2472 25.3835 25.2842 25.2991 25.3464 25.235L26.9138 23.6519L24.762 24.8939C24.6826 24.937 24.5902 24.9499 24.5021 24.9301C24.4139 24.9103 24.3359 24.8592 24.2826 24.7862C24.2292 24.7133 24.2042 24.6235 24.2121 24.5335C24.2199 24.4435 24.2602 24.3594 24.3253 24.2968L25.5322 23.2093L23.9372 24.1296C23.8561 24.1752 23.7608 24.1888 23.6702 24.1677C23.5795 24.1467 23.5 24.0926 23.4472 24.0159C23.3944 23.9393 23.3721 23.8457 23.3848 23.7535C23.3974 23.6613 23.4441 23.5772 23.5155 23.5176L23.9574 23.1578L23.3103 23.531C23.2293 23.5769 23.1341 23.5909 23.0433 23.5703C22.9525 23.5496 22.8727 23.4957 22.8196 23.4192C22.7665 23.3428 22.7439 23.2492 22.7563 23.1569C22.7686 23.0646 22.815 22.9803 22.8863 22.9205L23.5118 22.4055L22.6594 22.8973C22.58 22.9422 22.4868 22.9564 22.3976 22.9373C22.3084 22.9181 22.2293 22.8669 22.1752 22.7934C22.1212 22.7199 22.0959 22.6291 22.1043 22.5382C22.1127 22.4473 22.154 22.3627 22.2206 22.3002L23.6245 21.0165L21.8175 22.0614C21.7385 22.1098 21.6443 22.127 21.5533 22.1097C21.4622 22.0925 21.3809 22.042 21.325 21.9681C21.2692 21.8942 21.2428 21.8021 21.2511 21.7098C21.2593 21.6175 21.3016 21.5316 21.3697 21.4688L22.9714 19.9402L20.9062 21.1269C20.8248 21.1741 20.7285 21.1887 20.6368 21.1678C20.545 21.147 20.4645 21.0923 20.4114 21.0146C20.3582 20.9369 20.3364 20.8421 20.3503 20.749C20.3641 20.6559 20.4126 20.5715 20.486 20.5127L20.8592 20.2141L20.327 20.5209C20.246 20.5676 20.1504 20.5822 20.0592 20.5619C19.9679 20.5415 19.8876 20.4875 19.8342 20.4108C19.7808 20.334 19.7581 20.2399 19.7708 20.1473C19.7834 20.0546 19.8304 19.9701 19.9024 19.9104L20.5517 19.3737L19.7105 19.8589C19.631 19.905 19.5373 19.9202 19.4473 19.9015C19.3573 19.8829 19.2773 19.8316 19.2228 19.7577C19.1682 19.6837 19.1429 19.5921 19.1516 19.5006C19.1604 19.4091 19.2026 19.3241 19.2702 19.2618L20.6569 17.9728L18.9149 18.9789C18.8336 19.0255 18.7378 19.0398 18.6465 19.019C18.5552 18.9982 18.475 18.9439 18.4219 18.8667C18.3688 18.7895 18.3466 18.6952 18.3598 18.6025C18.3731 18.5098 18.4207 18.4254 18.4932 18.3661L18.841 18.0832L18.3678 18.3564C18.2884 18.4007 18.1955 18.4144 18.1066 18.3951C18.0178 18.3757 17.9391 18.3245 17.8853 18.2512C17.8315 18.1779 17.8063 18.0874 17.8145 17.9969C17.8227 17.9063 17.8636 17.8218 17.9297 17.7593L19.059 16.7323L17.6662 17.5354C17.5868 17.5785 17.4945 17.5914 17.4063 17.5716C17.3182 17.5518 17.2402 17.5007 17.1868 17.4278C17.1335 17.3548 17.1085 17.265 17.1163 17.175C17.1242 17.085 17.1644 17.0009 17.2296 16.9383L18.1999 16.0628L17.0139 16.7465C16.9333 16.7925 16.8384 16.8067 16.7478 16.7865C16.6572 16.7662 16.5774 16.713 16.524 16.6371C16.4706 16.5612 16.4473 16.4681 16.4588 16.376C16.4703 16.2839 16.5158 16.1994 16.5862 16.139L16.9885 15.7964L16.4885 16.0852C16.4117 16.1296 16.3216 16.1452 16.2344 16.1292C16.1472 16.1132 16.0685 16.0667 16.0125 15.998C15.9565 15.9293 15.9267 15.8429 15.9286 15.7542C15.9305 15.6656 15.9638 15.5805 16.0227 15.5142L17.399 13.9618L15.6466 14.9724C15.5706 15.0161 15.4817 15.0316 15.3954 15.0164C15.3092 15.0011 15.231 14.9559 15.1747 14.8888C15.1183 14.8217 15.0874 14.7369 15.0873 14.6493C15.0872 14.5617 15.1179 14.4769 15.1741 14.4096L16.3773 12.9736L14.8479 13.8558C14.7694 13.9005 14.6772 13.9152 14.5886 13.8971C14.5 13.879 14.421 13.8294 14.3663 13.7574C14.3115 13.6854 14.2848 13.596 14.291 13.5058C14.2972 13.4156 14.336 13.3307 14.4001 13.2669L14.8562 12.8191L14.3501 13.1102C14.275 13.1531 14.1874 13.1686 14.1021 13.154C14.0169 13.1394 13.9394 13.0957 13.8828 13.0303C13.8262 12.9649 13.7941 12.8819 13.7919 12.7955C13.7898 12.709 13.8177 12.6245 13.8709 12.5564L14.6293 11.5951L13.7247 12.1175C13.6524 12.1597 13.5681 12.1763 13.4852 12.1648C13.4024 12.1533 13.3258 12.1143 13.2678 12.054C13.2097 11.9938 13.1736 11.9158 13.1653 11.8325C13.1569 11.7493 13.1767 11.6657 13.2216 11.5951L13.8187 10.6404L13.1141 11.0472C13.05 11.0845 12.9762 11.1018 12.9022 11.0969C12.8282 11.0921 12.7573 11.0653 12.6986 11.0199C12.6398 10.9746 12.596 10.9128 12.5725 10.8424C12.5491 10.772 12.5472 10.6963 12.567 10.6248L12.8574 9.57389L12.4842 9.78809C12.4331 9.818 12.3756 9.83517 12.3165 9.83816C12.2574 9.84115 12.1984 9.82986 12.1446 9.80526C12.0906 9.78101 12.0432 9.74427 12.0062 9.69807C11.9692 9.65187 11.9437 9.59753 11.9319 9.53955L11.7572 8.68421C11.6853 8.66581 11.6205 8.62636 11.5711 8.57093C11.5217 8.5155 11.49 8.44659 11.48 8.37303C11.47 8.29946 11.4821 8.22458 11.5149 8.15796C11.5476 8.09134 11.5995 8.03601 11.6639 7.99904L11.8557 7.88858C11.907 7.85899 11.9646 7.84203 12.0237 7.83908C12.0829 7.83614 12.1418 7.84731 12.1958 7.87166C12.2498 7.89602 12.2971 7.93286 12.3341 7.97915C12.371 8.02544 12.3963 8.07984 12.4081 8.13787L12.5573 8.88424L13.2686 8.47374C13.3328 8.43671 13.4064 8.4196 13.4803 8.42458C13.5542 8.42956 13.6249 8.4564 13.6835 8.50169C13.7421 8.54699 13.7859 8.60868 13.8093 8.67893C13.8327 8.74918 13.8347 8.8248 13.815 8.89618L13.5321 9.95155L14.7442 9.2522C14.8164 9.2104 14.9006 9.19403 14.9833 9.2057C15.0659 9.21737 15.1423 9.25641 15.2001 9.31658C15.258 9.37674 15.294 9.45457 15.3024 9.53761C15.3108 9.62065 15.2911 9.70411 15.2465 9.77466L14.6494 10.7285L15.9421 9.98215C16.0172 9.93884 16.105 9.92302 16.1905 9.93741C16.276 9.9518 16.3538 9.99551 16.4106 10.061C16.4674 10.1265 16.4996 10.2098 16.5017 10.2964C16.5037 10.3831 16.4756 10.4678 16.422 10.536L15.6615 11.4988L17.0318 10.7084C17.1104 10.6636 17.2026 10.6489 17.2912 10.667C17.3798 10.6851 17.4588 10.7348 17.5135 10.8068C17.5682 10.8788 17.595 10.9682 17.5888 11.0584C17.5825 11.1486 17.5438 11.2335 17.4796 11.2973L17.0236 11.7451L17.8349 11.2771C17.9109 11.2334 17.9998 11.2178 18.086 11.2331C18.1723 11.2484 18.2505 11.2935 18.3068 11.3606C18.3631 11.4277 18.3941 11.5125 18.3942 11.6001C18.3943 11.6878 18.3635 11.7726 18.3074 11.8399L17.1042 13.2759L19.0231 12.1683C19.0998 12.1244 19.1896 12.1091 19.2765 12.1252C19.3633 12.1412 19.4417 12.1876 19.4976 12.2561C19.5535 12.3245 19.5833 12.4105 19.5817 12.4989C19.5801 12.5872 19.5472 12.6721 19.4889 12.7385L18.1133 14.2872L20.1837 13.093C20.2644 13.0455 20.36 13.03 20.4516 13.0497C20.5432 13.0693 20.624 13.1227 20.678 13.1992C20.7321 13.2757 20.7554 13.3697 20.7433 13.4626C20.7312 13.5555 20.6847 13.6404 20.6129 13.7006L20.2084 14.0439L20.8689 13.6625C20.9483 13.6194 21.0407 13.6065 21.1288 13.6263C21.217 13.6461 21.295 13.6972 21.3483 13.7701C21.4016 13.8431 21.4267 13.9329 21.4188 14.0229C21.411 14.1129 21.3707 14.197 21.3055 14.2596L20.3353 15.1351L21.6787 14.3589C21.7582 14.3146 21.851 14.3008 21.9399 14.3202C22.0288 14.3396 22.1075 14.3907 22.1613 14.4641C22.2151 14.5374 22.2403 14.6278 22.2321 14.7184C22.2239 14.809 22.1829 14.8935 22.1168 14.956L20.9958 15.9822L22.5221 15.1008C22.6034 15.0533 22.6996 15.0383 22.7915 15.0587C22.8834 15.0792 22.9642 15.1337 23.0176 15.2112C23.071 15.2887 23.0932 15.3835 23.0796 15.4767C23.0661 15.5698 23.0178 15.6544 22.9446 15.7135L22.5968 15.9964L23.1528 15.6755C23.2323 15.6293 23.326 15.6141 23.416 15.6328C23.506 15.6514 23.586 15.7027 23.6406 15.7767C23.6951 15.8506 23.7205 15.9422 23.7117 16.0337C23.703 16.1252 23.6607 16.2102 23.5932 16.2726L22.2057 17.5608L24.0358 16.5047C24.1168 16.458 24.2123 16.4435 24.3036 16.464C24.3948 16.4844 24.475 16.5384 24.5284 16.6151C24.5818 16.692 24.6045 16.7862 24.5917 16.8789C24.579 16.9717 24.5319 17.0563 24.4597 17.116L23.8126 17.6504L24.6963 17.1406C24.7776 17.0937 24.8737 17.0793 24.9652 17.1001C25.0568 17.1209 25.1371 17.1754 25.1902 17.2529C25.2433 17.3303 25.2653 17.4249 25.2518 17.5178C25.2383 17.6107 25.1902 17.695 25.1172 17.7541L24.7441 18.0526L25.3008 17.7317C25.3798 17.6867 25.4725 17.672 25.5616 17.6905C25.6506 17.709 25.7298 17.7594 25.7843 17.8321C25.8388 17.9049 25.8649 17.995 25.8577 18.0857C25.8504 18.1763 25.8103 18.2612 25.7449 18.3243L24.138 19.8581L26.2129 18.6639C26.2924 18.619 26.3855 18.6048 26.4748 18.624C26.564 18.6431 26.6431 18.6943 26.6971 18.7678C26.7512 18.8414 26.7764 18.9322 26.7681 19.023C26.7597 19.1139 26.7183 19.1986 26.6518 19.261L25.2501 20.5403L27.0362 19.5096C27.1172 19.4628 27.2128 19.4482 27.304 19.4686C27.3953 19.489 27.4756 19.5429 27.529 19.6197C27.5824 19.6965 27.6051 19.7905 27.5924 19.8832C27.5798 19.9758 27.5328 20.0604 27.4608 20.1201L26.8354 20.6351L27.6504 20.1649C27.7316 20.1185 27.8272 20.1043 27.9183 20.1251C28.0095 20.1458 28.0895 20.2 28.1426 20.2769C28.1957 20.3539 28.218 20.4479 28.2051 20.5405C28.1922 20.6331 28.145 20.7174 28.0729 20.7769L27.6333 21.1337L28.2259 20.7918C28.3053 20.7487 28.3976 20.7358 28.4858 20.7556C28.5739 20.7754 28.6519 20.8265 28.7053 20.8995C28.7586 20.9724 28.7837 21.0622 28.7758 21.1522C28.7679 21.2422 28.7277 21.3263 28.6625 21.3889L27.4541 22.4786L28.9588 21.6098C29.0371 21.5647 29.1291 21.5495 29.2177 21.5671C29.3064 21.5846 29.3856 21.6338 29.4408 21.7053C29.496 21.7769 29.5233 21.8661 29.5177 21.9563C29.5121 22.0464 29.4739 22.1315 29.4104 22.1957L27.843 23.778L29.8388 22.6257C29.9183 22.5773 30.013 22.5604 30.1044 22.5783C30.1957 22.5961 30.2771 22.6475 30.3325 22.7223C30.3879 22.797 30.4134 22.8898 30.4039 22.9824C30.3945 23.075 30.3508 23.1607 30.2814 23.2227L29.0872 24.3475L30.5575 23.4989C30.638 23.4525 30.7329 23.4379 30.8236 23.4577C30.9144 23.4776 30.9944 23.5306 31.0482 23.6064C31.1019 23.6821 31.1255 23.7752 31.1143 23.8674C31.103 23.9596 31.0578 24.0443 30.9874 24.105L30.4702 24.5528L31.1046 24.1863C31.1853 24.1397 31.2805 24.1249 31.3716 24.1449C31.4626 24.165 31.5428 24.2183 31.5965 24.2945C31.6502 24.3708 31.6735 24.4645 31.6616 24.557C31.6497 24.6496 31.6036 24.7344 31.5323 24.7946L31.2845 25.0043L31.5965 24.8245C31.6737 24.7806 31.764 24.7657 31.8511 24.7825C31.9383 24.7992 32.0167 24.8465 32.0722 24.9158C32.1276 24.9851 32.1566 25.0719 32.1538 25.1606C32.151 25.2494 32.1167 25.3342 32.057 25.3999L30.8785 26.6755L32.3399 25.8321C32.4176 25.7871 32.5089 25.7717 32.5971 25.7887C32.6853 25.8057 32.7644 25.8539 32.8199 25.9244C32.8754 25.995 32.9036 26.0832 32.8994 26.1729C32.8951 26.2626 32.8586 26.3478 32.7966 26.4127L31.9398 27.3143L32.9623 26.724C33.0382 26.68 33.1271 26.6641 33.2135 26.6791C33.2999 26.6941 33.3782 26.7391 33.4348 26.8061C33.4912 26.8733 33.5222 26.9583 33.5222 27.046C33.5222 27.1338 33.4912 27.2188 33.4348 27.286L32.5877 28.3025L33.6072 27.7144C33.6794 27.6726 33.7636 27.6562 33.8463 27.6679C33.9289 27.6796 34.0053 27.7186 34.0631 27.7788C34.1209 27.8389 34.157 27.9168 34.1654 27.9998C34.1738 28.0828 34.1541 28.1663 34.1095 28.2369L33.3706 29.4057L34.2983 28.8705C34.3682 28.8304 34.4491 28.8139 34.5291 28.8235C34.609 28.8331 34.6837 28.8684 34.742 28.924C34.8003 28.9796 34.839 29.0525 34.8524 29.1319C34.8658 29.2114 34.8531 29.293 34.8163 29.3646L34.3775 30.2118L34.8633 29.9319C34.9339 29.8904 35.0163 29.8737 35.0974 29.8844C35.1785 29.895 35.2538 29.9325 35.3112 29.9908C35.3686 30.0488 35.4054 30.1239 35.4161 30.2048C35.4267 30.2857 35.4106 30.3678 35.3701 30.4387L35.2865 30.5827C35.3769 30.5613 35.472 30.5738 35.5537 30.6178C35.6099 30.6486 35.6572 30.6933 35.691 30.7477C35.7249 30.8021 35.7442 30.8643 35.747 30.9283L35.7732 31.5037C35.8524 31.5102 35.9275 31.5418 35.9876 31.5939C36.0476 31.6461 36.0894 31.716 36.1069 31.7936C36.1244 31.8711 36.1166 31.9522 36.0848 32.0251C36.053 32.098 35.9987 32.1587 35.9299 32.1986L35.6112 32.3829C35.554 32.4166 35.4888 32.4344 35.4224 32.4344Z" fill="#D39518"/>
<path d="M10.3505 41.1074C10.2797 41.1074 10.2104 41.0873 10.1506 41.0495C10.0909 41.0116 10.0431 40.9575 10.0129 40.8935C9.98268 40.8295 9.9713 40.7582 9.98007 40.688C9.98883 40.6178 10.0174 40.5515 10.0624 40.4969L11.017 39.3385L8.77267 40.6335C8.695 40.6784 8.60375 40.6938 8.51564 40.6769C8.42753 40.66 8.34844 40.612 8.29287 40.5415C8.2373 40.4711 8.20897 40.383 8.21306 40.2934C8.21715 40.2038 8.25339 40.1186 8.31514 40.0535L9.59367 38.7101L7.81134 39.7386C7.73458 39.7829 7.64453 39.7985 7.55731 39.7826C7.4701 39.7666 7.39142 39.7201 7.33538 39.6514C7.27934 39.5827 7.24959 39.4962 7.25146 39.4076C7.25334 39.319 7.28671 39.2339 7.34561 39.1676L8.76371 37.5689L6.76344 38.725C6.68458 38.7718 6.59127 38.7879 6.5013 38.7702C6.41133 38.7526 6.331 38.7024 6.27564 38.6294C6.22027 38.5563 6.19375 38.4654 6.20112 38.374C6.2085 38.2826 6.24925 38.1971 6.31562 38.1339L7.34188 37.139L5.96856 37.9324C5.8915 37.9767 5.80115 37.9921 5.71376 37.9757C5.62637 37.9594 5.54769 37.9123 5.49189 37.8431C5.43609 37.7739 5.40683 37.6871 5.40938 37.5982C5.41193 37.5093 5.44613 37.4243 5.50581 37.3584L6.88585 35.841L4.99454 36.933C4.91551 36.9813 4.82131 36.9986 4.73028 36.9813C4.63924 36.9641 4.55788 36.9136 4.50202 36.8396C4.44615 36.7657 4.41979 36.6737 4.42805 36.5814C4.43632 36.4891 4.47862 36.4032 4.54672 36.3403L5.517 35.4134L4.24818 36.1463C4.17156 36.1907 4.08165 36.2064 3.99452 36.1906C3.90738 36.1748 3.8287 36.1286 3.77253 36.0601C3.71637 35.9917 3.68637 35.9055 3.68791 35.8169C3.68946 35.7284 3.72243 35.6433 3.78095 35.5768L5.22965 33.9258L3.25177 35.0678C3.17225 35.1179 3.07676 35.1361 2.98438 35.1189C2.89199 35.1016 2.80952 35.0501 2.75343 34.9747C2.69734 34.8993 2.67177 34.8055 2.68183 34.7121C2.69189 34.6186 2.73683 34.5324 2.80768 34.4707L3.75109 33.575L3.5436 33.6945C3.47037 33.7364 3.38509 33.7523 3.30166 33.7395C3.21824 33.7268 3.14161 33.6861 3.08427 33.6242C3.02694 33.5623 2.99229 33.4827 2.98597 33.3986C2.97966 33.3144 3.00205 33.2306 3.04951 33.1608L4.09442 31.6367C4.04259 31.6405 3.99052 31.6341 3.9412 31.6177C3.89189 31.6013 3.8463 31.5753 3.80707 31.5412C3.74842 31.488 3.7082 31.4175 3.69223 31.34C3.67626 31.2624 3.68538 31.1818 3.71825 31.1098L4.15712 30.1455C4.11318 30.0603 4.1037 29.9614 4.13066 29.8695C4.15762 29.7775 4.21894 29.6994 4.30191 29.6514L4.51239 29.5297C4.58103 29.4881 4.66127 29.4697 4.7412 29.4773C4.82113 29.4848 4.89648 29.518 4.95607 29.5718C5.01566 29.6256 5.05631 29.6972 5.07198 29.7759C5.08765 29.8547 5.07751 29.9364 5.04306 30.0089L4.88334 30.3612L5.10725 30.2306C5.18056 30.1879 5.2662 30.1716 5.35007 30.1841C5.43393 30.1967 5.51102 30.2374 5.56864 30.2996C5.62626 30.3619 5.66096 30.4418 5.66704 30.5264C5.67312 30.611 5.65021 30.6951 5.60209 30.765L4.59972 32.2278L6.10066 31.3613C6.17963 31.3169 6.27207 31.3027 6.36074 31.3214C6.4494 31.3401 6.52823 31.3904 6.58251 31.463C6.63679 31.5355 6.66281 31.6254 6.65573 31.7157C6.64865 31.806 6.60894 31.8907 6.54401 31.9539L5.6006 32.8496L6.81942 32.148C6.89603 32.1036 6.98594 32.0879 7.07308 32.1037C7.16021 32.1194 7.23889 32.1657 7.29506 32.2342C7.35123 32.3026 7.38122 32.3888 7.37968 32.4774C7.37814 32.5659 7.34516 32.651 7.28665 32.7175L5.8372 34.3677L7.83 33.2175C7.90904 33.1692 8.00323 33.1519 8.09427 33.1692C8.18531 33.1864 8.26667 33.2369 8.32253 33.3109C8.37839 33.3848 8.40476 33.4768 8.39649 33.5691C8.38823 33.6614 8.34593 33.7473 8.27782 33.8101L7.30754 34.7371L8.5913 33.9967C8.66836 33.9524 8.75871 33.937 8.8461 33.9534C8.93349 33.9697 9.01216 34.0167 9.06797 34.086C9.12377 34.1552 9.15303 34.242 9.15047 34.3309C9.14792 34.4198 9.11373 34.5048 9.05405 34.5707L7.67327 36.0881L9.58099 34.9864C9.65985 34.9397 9.75316 34.9236 9.84313 34.9412C9.9331 34.9589 10.0134 35.009 10.0688 35.0821C10.1242 35.1552 10.1507 35.2461 10.1433 35.3374C10.1359 35.4288 10.0952 35.5143 10.0288 35.5776L9.0033 36.5725L10.3923 35.7709C10.469 35.727 10.5587 35.7117 10.6456 35.7278C10.7325 35.7438 10.8109 35.7902 10.8668 35.8586C10.9227 35.9271 10.9525 36.0131 10.9509 36.1015C10.9493 36.1898 10.9164 36.2747 10.858 36.3411L9.43992 37.9406L11.4603 36.774C11.5381 36.7285 11.6297 36.7127 11.7182 36.7294C11.8067 36.7462 11.8861 36.7944 11.9419 36.8652C11.9976 36.9359 12.0259 37.0244 12.0215 37.1144C12.0171 37.2044 11.9803 37.2897 11.9179 37.3547L10.6386 38.6981L12.4411 37.6577C12.5168 37.6169 12.6043 37.6035 12.6887 37.6198C12.7732 37.6361 12.8494 37.681 12.9045 37.747C12.9596 37.813 12.9903 37.8961 12.9912 37.982C12.9922 38.068 12.9634 38.1517 12.9098 38.219L11.9544 39.3751L13.4278 38.525C13.4703 38.498 13.5177 38.4798 13.5674 38.4717C13.6171 38.4635 13.6679 38.4655 13.7168 38.4774C13.7657 38.4894 13.8116 38.5111 13.8519 38.5413C13.8921 38.5715 13.9259 38.6096 13.9511 38.6531C13.9763 38.6967 13.9924 38.7449 13.9984 38.7949C14.0045 38.8449 14.0004 38.8955 13.9864 38.9439C13.9724 38.9922 13.9487 39.0372 13.9168 39.0762C13.885 39.1151 13.8456 39.1472 13.801 39.1706L10.5371 41.0552C10.4807 41.0891 10.4163 41.1071 10.3505 41.1074Z" fill="#2167D8"/>
<path d="M22.0559 36.7486C21.9819 36.7484 21.9095 36.7262 21.8481 36.6848C21.7867 36.6435 21.739 36.5847 21.7111 36.5161C21.6832 36.4476 21.6763 36.3722 21.6913 36.2997C21.7063 36.2272 21.7426 36.1608 21.7954 36.1089L22.8583 35.0692L21.2752 35.9798C21.1951 36.0263 21.1005 36.0413 21.0099 36.0219C20.9193 36.0025 20.8392 35.9501 20.7851 35.8748C20.731 35.7996 20.7068 35.707 20.7172 35.6149C20.7277 35.5228 20.772 35.4379 20.8416 35.3768L21.4021 34.8834L20.5191 35.3932C20.4407 35.4373 20.3489 35.4516 20.2607 35.4333C20.1725 35.4151 20.0939 35.3656 20.0393 35.294C19.9848 35.2223 19.958 35.1334 19.9638 35.0435C19.9697 34.9537 20.0079 34.8689 20.0713 34.805L21.1707 33.7191L19.5795 34.6364C19.5017 34.6807 19.4106 34.6957 19.3228 34.6786C19.2349 34.6614 19.1562 34.6132 19.1009 34.5428C19.0456 34.4724 19.0175 34.3845 19.0216 34.295C19.0257 34.2056 19.0619 34.1207 19.1234 34.0557L20.3818 32.7421L18.5749 33.787C18.4974 33.8313 18.4065 33.8464 18.3188 33.8295C18.2311 33.8126 18.1524 33.7648 18.097 33.6948C18.0415 33.6248 18.013 33.5373 18.0166 33.4481C18.0202 33.3588 18.0557 33.2738 18.1166 33.2085L19.4302 31.8158L17.5643 32.8913C17.4843 32.9368 17.3904 32.9512 17.3004 32.9316C17.2105 32.9121 17.131 32.86 17.0772 32.7854C17.0233 32.7109 16.9989 32.619 17.0086 32.5275C17.0184 32.436 17.0615 32.3514 17.1299 32.2898L17.7121 31.7733L16.8709 32.2592C16.7931 32.3041 16.7016 32.3195 16.6134 32.3024C16.5252 32.2854 16.4461 32.237 16.3906 32.1663C16.3351 32.0956 16.3071 32.0073 16.3115 31.9175C16.316 31.8277 16.3527 31.7426 16.4149 31.6777L17.6777 30.3589L15.9223 31.3695C15.8429 31.4116 15.7511 31.4236 15.6636 31.4034C15.576 31.3832 15.4988 31.3321 15.4459 31.2596C15.393 31.187 15.368 31.0978 15.3756 31.0083C15.3832 30.9188 15.4228 30.835 15.4871 30.7724L16.1163 30.2089L15.2401 30.7142C15.1623 30.7586 15.0711 30.7735 14.9832 30.7563C14.8953 30.739 14.8165 30.6907 14.7612 30.6202C14.706 30.5496 14.678 30.4616 14.6823 30.3721C14.6866 30.2826 14.723 30.1976 14.7848 30.1328L16.0379 28.8296L14.334 29.8133C14.2574 29.8572 14.1677 29.8726 14.0808 29.8566C13.994 29.8406 13.9156 29.7944 13.8597 29.726C13.8037 29.6577 13.7738 29.5718 13.7752 29.4835C13.7767 29.3952 13.8094 29.3103 13.8675 29.2438L15.302 27.6167L13.31 28.7639C13.2306 28.8065 13.1385 28.819 13.0507 28.799C12.9628 28.779 12.8852 28.7279 12.8321 28.6551C12.779 28.5824 12.754 28.4929 12.7617 28.4031C12.7694 28.3134 12.8093 28.2294 12.8741 28.1668L13.5115 27.5958L12.6606 28.0862C12.5806 28.1325 12.4861 28.1475 12.3957 28.1281C12.3052 28.1088 12.2252 28.0565 12.1711 27.9815C12.1169 27.9065 12.0926 27.814 12.1028 27.7221C12.113 27.6301 12.157 27.5452 12.2262 27.4839L12.8047 26.9711L12.0359 27.4145C11.9592 27.4589 11.8692 27.4745 11.7821 27.4586C11.6949 27.4428 11.6162 27.3964 11.5601 27.3278C11.504 27.2592 11.4741 27.1729 11.4758 27.0843C11.4775 26.9957 11.5107 26.9106 11.5694 26.8442L13.0137 25.2104L11.0709 26.3307C10.9946 26.3748 10.9053 26.3904 10.8186 26.3749C10.7319 26.3595 10.6535 26.3138 10.5972 26.2461C10.541 26.1784 10.5104 26.093 10.5111 26.0049C10.5117 25.9169 10.5434 25.8319 10.6006 25.765L12.0934 24.0192L10.0782 25.1806C10.0003 25.225 9.90902 25.2399 9.82105 25.2226C9.73307 25.2052 9.65429 25.1568 9.59911 25.0861C9.54392 25.0154 9.51603 24.9273 9.52054 24.8377C9.52505 24.7481 9.56165 24.6632 9.62364 24.5984L10.8678 23.3109L9.29151 24.2215C9.21146 24.2671 9.11736 24.2815 9.02733 24.2619C8.9373 24.2423 8.8577 24.1901 8.80387 24.1153C8.75003 24.0406 8.72576 23.9485 8.73573 23.8569C8.7457 23.7653 8.78921 23.6806 8.85787 23.6192L9.39824 23.14L8.7392 23.5207C8.66191 23.5655 8.57109 23.5812 8.48325 23.5647C8.39541 23.5483 8.31638 23.5009 8.26053 23.4311C8.20469 23.3614 8.17573 23.2739 8.17892 23.1846C8.18212 23.0953 8.21725 23.0101 8.27794 22.9445L9.65275 21.4517L7.9361 22.4437C7.85597 22.4899 7.76149 22.5048 7.67102 22.4854C7.58054 22.4659 7.50052 22.4135 7.44648 22.3384C7.39236 22.263 7.36826 22.1702 7.37889 22.078C7.38952 21.9858 7.4341 21.9009 7.50395 21.8398L7.93983 21.4592L7.56068 21.6779C7.47992 21.7248 7.3845 21.7397 7.29327 21.7197C7.20204 21.6997 7.12162 21.6463 7.0679 21.5698C7.01418 21.4934 6.99107 21.3997 7.00312 21.3071C7.01518 21.2144 7.06152 21.1297 7.13301 21.0696L7.64502 20.6367C7.57 20.6187 7.5026 20.5774 7.45245 20.5188C7.39559 20.4532 7.36336 20.3698 7.36131 20.2831C7.35927 20.1963 7.38754 20.1115 7.44126 20.0433L8.42348 18.7969C8.35717 18.8105 8.28839 18.8058 8.22453 18.7834C8.16067 18.7609 8.10412 18.7215 8.06095 18.6693C8.01777 18.6172 7.9896 18.5543 7.97944 18.4873C7.96928 18.4204 7.97752 18.352 8.00327 18.2894L8.64963 16.7078C8.60546 16.6225 8.59587 16.5235 8.62283 16.4314C8.6498 16.3392 8.71126 16.261 8.79443 16.213L8.98102 16.1047C9.04841 16.0658 9.12628 16.0489 9.20374 16.0564C9.28121 16.0639 9.35438 16.0955 9.41303 16.1467C9.47167 16.1978 9.51286 16.266 9.53081 16.3418C9.54877 16.4175 9.54261 16.4969 9.51318 16.569L9.10716 17.5617L9.69753 17.2213C9.77262 17.1784 9.86027 17.1629 9.9455 17.1775C10.0307 17.1921 10.1083 17.2358 10.1648 17.3012C10.2214 17.3666 10.2535 17.4496 10.2557 17.536C10.2579 17.6225 10.2299 17.707 10.1767 17.7751L9.22732 18.982L10.4327 18.2856C10.5134 18.2397 10.6082 18.2254 10.6988 18.2457C10.7894 18.2659 10.8692 18.3192 10.9226 18.3951C10.9761 18.471 10.9993 18.564 10.9878 18.6561C10.9763 18.7482 10.9308 18.8328 10.8604 18.8932L10.7947 18.9499L10.8805 18.8999C10.9609 18.8531 11.0558 18.838 11.1467 18.8575C11.2375 18.877 11.3179 18.9297 11.372 19.0054C11.426 19.081 11.4499 19.1741 11.4389 19.2664C11.428 19.3587 11.3829 19.4436 11.3127 19.5045L10.8768 19.8851L11.3993 19.5866C11.4765 19.5417 11.5674 19.5261 11.6552 19.5425C11.743 19.5589 11.8221 19.6063 11.8779 19.6761C11.9338 19.7459 11.9627 19.8333 11.9595 19.9227C11.9563 20.012 11.9212 20.0972 11.8605 20.1627L10.4857 21.6555L12.2374 20.6442C12.3175 20.5985 12.4116 20.5841 12.5016 20.6037C12.5916 20.6233 12.6712 20.6756 12.7251 20.7503C12.7789 20.8251 12.8032 20.9172 12.7932 21.0088C12.7832 21.1004 12.7397 21.185 12.6711 21.2465L12.1337 21.7219L12.8054 21.3346C12.8833 21.2901 12.9746 21.2752 13.0626 21.2926C13.1505 21.3099 13.2293 21.3584 13.2845 21.429C13.3397 21.4997 13.3676 21.5879 13.3631 21.6774C13.3586 21.767 13.322 21.8519 13.26 21.9167L12.015 23.205L13.6122 22.2824C13.6885 22.2384 13.7778 22.2228 13.8645 22.2382C13.9512 22.2537 14.0296 22.2994 14.0859 22.3671C14.1421 22.4348 14.1727 22.5202 14.172 22.6083C14.1714 22.6963 14.1397 22.7813 14.0825 22.8482L12.586 24.5954L14.6251 23.4184C14.7018 23.374 14.7917 23.3584 14.8789 23.3742C14.9661 23.3901 15.0448 23.4365 15.1009 23.5051C15.157 23.5737 15.1868 23.66 15.1851 23.7486C15.1834 23.8372 15.1503 23.9223 15.0915 23.9886L13.6488 25.6217L15.6148 24.4872C15.6947 24.4417 15.7887 24.4274 15.8786 24.4469C15.9685 24.4664 16.048 24.5185 16.1019 24.5931C16.1557 24.6677 16.1801 24.7596 16.1704 24.851C16.1607 24.9425 16.1175 25.0272 16.0491 25.0888L15.4715 25.6023L16.2514 25.1545C16.3308 25.1119 16.4229 25.0994 16.5107 25.1194C16.5985 25.1394 16.6762 25.1905 16.7293 25.2633C16.7824 25.336 16.8074 25.4255 16.7997 25.5153C16.792 25.605 16.752 25.6889 16.6873 25.7516L16.0506 26.3233L16.9112 25.8262C16.9878 25.7823 17.0775 25.7669 17.1643 25.7829C17.2512 25.7989 17.3296 25.8452 17.3855 25.9135C17.4415 25.9818 17.4714 26.0677 17.47 26.156C17.4685 26.2443 17.4358 26.3292 17.3777 26.3957L15.9417 28.0228L17.9516 26.8622C18.0295 26.8172 18.1209 26.8019 18.2091 26.8189C18.2974 26.836 18.3765 26.8843 18.4319 26.955C18.4874 27.0257 18.5155 27.1141 18.511 27.2038C18.5066 27.2936 18.4699 27.3787 18.4077 27.4436L17.1523 28.7475L18.8734 27.7541C18.9527 27.712 19.0446 27.7 19.1321 27.7202C19.2196 27.7404 19.2969 27.7914 19.3498 27.864C19.4027 27.9366 19.4276 28.0258 19.4201 28.1153C19.4125 28.2048 19.3729 28.2885 19.3085 28.3512L18.6786 28.9147L19.5683 28.4012C19.646 28.3562 19.7374 28.3409 19.8255 28.3578C19.9137 28.3748 19.9928 28.423 20.0483 28.4936C20.1038 28.5641 20.132 28.6524 20.1278 28.742C20.1235 28.8317 20.087 28.9169 20.0251 28.9819L18.7585 30.3074L20.5296 29.2849C20.6097 29.2386 20.7041 29.2236 20.7945 29.243C20.885 29.2623 20.9651 29.3146 21.0192 29.3896C21.0733 29.4646 21.0976 29.5571 21.0874 29.649C21.0772 29.741 21.0332 29.8259 20.964 29.8872L20.3811 30.4037L21.2379 29.9096C21.3154 29.8652 21.4062 29.8501 21.4939 29.867C21.5816 29.8839 21.6603 29.9317 21.7158 30.0017C21.7712 30.0717 21.7998 30.1593 21.7962 30.2485C21.7926 30.3377 21.7571 30.4227 21.6962 30.488L20.3923 31.8748L22.2791 30.7858C22.3568 30.7409 22.4482 30.7255 22.5363 30.7425C22.6245 30.7594 22.7036 30.8076 22.7591 30.8782C22.8146 30.9488 22.8429 31.037 22.8386 31.1267C22.8343 31.2164 22.7978 31.3015 22.7359 31.3665L21.4775 32.6794L23.3113 31.6248C23.3898 31.5806 23.4816 31.5663 23.5698 31.5846C23.658 31.6028 23.7366 31.6523 23.7912 31.724C23.8457 31.7956 23.8725 31.8846 23.8666 31.9744C23.8607 32.0643 23.8226 32.149 23.7591 32.2129L22.6597 33.2989L24.2726 32.3681C24.3528 32.3217 24.4474 32.3067 24.538 32.3261C24.6286 32.3455 24.7087 32.3979 24.7628 32.4731C24.8169 32.5483 24.8411 32.641 24.8306 32.7331C24.8202 32.8251 24.7759 32.91 24.7063 32.9712L24.1465 33.4646L25.0504 32.9421C25.129 32.8967 25.2216 32.8816 25.3106 32.8996C25.3996 32.9175 25.4791 32.9673 25.534 33.0397C25.5889 33.112 25.6156 33.2019 25.609 33.2925C25.6024 33.383 25.563 33.4681 25.4982 33.5317L24.4309 34.5722L26.0438 33.6414C26.1012 33.6076 26.1667 33.5897 26.2334 33.5897C26.3 33.5897 26.3655 33.6076 26.4229 33.6414C26.4799 33.6757 26.5267 33.7246 26.5584 33.7829C26.5902 33.8413 26.6058 33.9071 26.6036 33.9736L26.5759 34.7752L27.2208 34.402C27.2633 34.375 27.3108 34.3569 27.3604 34.3487C27.4101 34.3405 27.4609 34.3425 27.5098 34.3545C27.5587 34.3664 27.6046 34.3882 27.6449 34.4184C27.6852 34.4486 27.7189 34.4866 27.7441 34.5302C27.7693 34.5737 27.7854 34.622 27.7915 34.6719C27.7975 34.7219 27.7934 34.7726 27.7794 34.8209C27.7654 34.8692 27.7417 34.9142 27.7099 34.9532C27.678 34.9922 27.6386 35.0243 27.594 35.0476L26.367 35.7559C26.3093 35.7892 26.2439 35.8065 26.1773 35.806C26.1108 35.8055 26.0456 35.7872 25.9885 35.753C25.9314 35.7188 25.8845 35.67 25.8526 35.6116C25.8207 35.5532 25.805 35.4873 25.8072 35.4208L25.8348 34.6199L22.2403 36.6941C22.1848 36.7284 22.1211 36.7472 22.0559 36.7486Z" fill="#DC2626"/>
<path d="M4.44585 42.921C10.3362 40.9551 16.1952 38.9973 22.0796 37.0299C22.2439 37.0985 22.4273 37.1055 22.5964 37.0497C22.7654 36.9939 22.9087 36.879 22.9999 36.7261C27.1795 35.3409 31.3704 33.9877 35.5262 32.539C38.2721 32.3151 32.5302 25.4343 31.7264 24.1797C33.1109 23.1112 34.7809 22.4767 36.5256 22.3561C38.2702 22.2355 40.0116 22.6342 41.53 23.502C45.4992 22.7235 34.3738 20.2351 31.3375 23.6908C28.0753 19.6657 24.3958 15.9975 20.3607 12.7475C23.5275 10.4435 22.4162 -0.741618 20.2308 2.24386C21.0739 3.79475 21.4701 5.54911 21.3755 7.31178C21.2809 9.07445 20.6991 10.7763 19.6949 12.228C8.15083 3.41342 11.9872 9.29183 6.74914 21.6338C4.60955 28.0302 2.47294 34.4241 0.33932 40.8155C-1.11237 44.1219 2.4411 43.9525 4.44585 42.921ZM9.74507 40.7476C7.53821 38.7699 5.44267 36.6713 3.4681 34.4617L4.7429 30.6485C7.44667 33.8323 10.4181 36.7788 13.6247 39.4556L9.74507 40.7476ZM14.7017 39.0914C11.2201 36.2001 8.01442 32.9918 5.12579 29.508C5.89355 27.2097 6.66182 24.9111 7.43058 22.6123C11.4863 27.9845 16.291 32.7477 21.6982 36.7567L14.7017 39.0914ZM22.8692 36.3619C17.1153 32.1692 12.0475 27.1082 7.84705 21.3599C8.2889 20.0358 8.73125 18.7118 9.1741 17.3877C13.9355 24.3517 20.006 30.323 27.0474 34.9692L22.8692 36.3619ZM19.1187 13.0005C17.6618 14.2037 18.7575 14.7373 19.7427 13.4976C23.6923 16.7233 27.2964 20.3502 30.4971 24.32C29.0395 25.2358 29.7082 25.9426 30.9121 24.8529C32.5705 26.8832 33.9619 29.1176 35.0522 31.5016C25.5363 26.278 17.7403 18.4058 12.6096 8.83953C14.9364 9.96606 17.1217 11.3638 19.1202 13.0035L19.1187 13.0005ZM11.6401 10.0136C11.6707 9.92251 11.7065 9.82772 11.7416 9.73443C17.102 19.076 25.2054 27.5376 34.9082 32.3427L28.0886 34.6221C20.713 29.7879 14.4214 23.475 9.61222 16.083C10.2864 14.0599 10.9624 12.0367 11.6401 10.0136ZM1.28497 41.0028C1.89252 39.1857 2.49981 37.3695 3.10686 35.5543C4.88098 37.4949 6.7484 39.3489 8.70463 41.1021C6.63943 41.288 0.278118 45.6154 1.28497 41.0028Z" fill="#262626"/>
<path d="M16.8658 4.95837C16.6068 4.82253 15.7634 4.97927 15.85 5.34125C16.403 5.90476 17.5666 7.3878 18.1144 6.20704C17.6965 5.79057 17.2803 5.37434 16.8658 4.95837Z" fill="#D39518"/>
<path d="M26.3049 5.54733C27.1469 5.59659 27.2215 3.44107 26.3997 3.50302C25.5578 3.45376 25.4824 5.61002 26.3049 5.54733Z" fill="#D39518"/>
<path d="M26.1485 10.4725C26.7075 10.38 28.1637 10.7867 28.1025 9.92768C27.733 9.59106 24.8655 9.86722 26.1485 10.4725Z" fill="#D39518"/>
<path d="M38.0995 26.1845C37.8323 26.0233 36.98 26.1845 37.0874 26.5786C37.739 27.1189 38.422 28.4602 39.3385 27.6145C39.2915 27.0764 38.4339 26.6629 38.0995 26.1845Z" fill="#D39518"/>
<path d="M39.2198 17.3952C36.9613 17.7952 39.54 18.1027 40.2833 17.7975C41.2611 17.2683 39.6221 17.3952 39.2198 17.3952Z" fill="#D39518"/>
<path d="M33.7904 16.1854C33.0701 16.1652 33.0127 18.3304 33.9001 17.8438C34.6203 17.8639 34.6771 15.6995 33.7904 16.1854Z" fill="#D39518"/>
<path d="M36.7803 8.99785C37.9745 8.00891 37.0639 6.32808 38.0312 5.24883C38.4663 4.77937 37.4162 4.7734 37.1587 5.05104C35.9779 6.05342 36.8796 7.72827 35.9078 8.80006C34.8226 9.63599 33.1305 8.83141 32.1588 10.051C30.9579 11.0317 31.8908 12.7334 30.9116 13.7963C29.8159 14.6232 28.1545 13.8358 27.167 15.0427C26.7677 15.5801 27.8306 15.5383 28.0396 15.2397C29.1442 14.4284 30.8011 15.2002 31.7841 13.9933C32.9828 13.0133 32.0513 11.3064 33.0305 10.2488C34.1195 9.41581 35.8048 10.2144 36.7803 8.99785Z" fill="#D39518"/>
<path d="M29.9891 6.57652C31.7923 6.50188 31.8311 -1.64176 29.5547 0.298805C29.9793 1.2768 30.1991 2.33137 30.2006 3.39755C30.2022 4.46373 29.9854 5.51893 29.5636 6.49815C29.4972 6.66534 29.9294 6.58772 29.9891 6.57652Z" fill="#D39518"/>
<path d="M41.8187 13.6634C48.2531 15.1196 40.9977 11.4452 37.3778 13.6716C35.7999 14.9442 41.1007 12.9917 41.8187 13.6634Z" fill="#D39518"/>
</svg>
