<svg width="1514" height="756" viewBox="0 0 1514 756" fill="none" xmlns="http://www.w3.org/2000/svg">
<g clip-path="url(#clip0_2974_1435)">
<path d="M1401.56 1151.74C1402.72 1149.81 1403.76 1148.17 1405.61 1145.14C1541.21 920.82 1548.84 642.786 1432.31 413.93C1428.18 405.757 1423.84 397.652 1419.37 389.685C1296.78 168.865 1066.6 15.4926 798.445 1.06888C789.639 0.58809 780.283 0.244668 770.927 0.1073V27.581C1041.08 32.595 1273.46 183.632 1395.5 403.422L1371.84 417.09C1244.91 188.234 1003.1 49.6287 743.41 54.9861C743.41 41.3179 743.41 13.7755 743.41 0.175984C487.017 3.95362 255.803 139.262 123.307 342.499C118.56 349.779 113.676 357.54 108.654 365.783C129.911 378.008 158.942 394.767 180.062 406.924C373.99 88.6414 786.475 -12.9427 1106.16 179.305C1099.28 191.187 1085.52 214.952 1078.71 226.766C1250.76 331.44 1362.14 513.317 1375.14 714.218H1347.83C1334.76 521.215 1227.16 349.024 1065.02 250.324C1058.14 262.207 1044.31 286.109 1037.5 297.922C957.907 249.157 866.412 221.683 770.79 219.279V246.753C1154.86 259.322 1383.88 665.658 1205.22 997.884L1229.02 1011.62C1264.73 945.959 1286.6 874.047 1292.59 796.639H1320.17C1306.48 989.917 1193.25 1160.05 1027.39 1250.51L1013.63 1226.74C1096.04 1182.03 1166.21 1115.4 1215.26 1035.45C1194.01 1023.23 1164.98 1006.47 1143.86 994.313C1062.89 1124.74 921.929 1205.17 770.79 1209.29V1236.77C925.368 1232.58 1065.98 1154.69 1152.52 1031.06L1176.33 1044.8C955.293 1358.96 491.145 1329.29 308.843 997.953L332.508 984.285C372.476 1058.26 432.258 1121.38 504.009 1165.54C516.254 1144.32 533.04 1115.33 545.216 1094.25C422.352 1017.46 352.182 882.014 357.342 741.76C371.101 741.76 398.755 741.76 412.445 741.76C414.991 673.008 438.518 606.658 479.037 551.711C484.403 554.802 497.405 562.288 502.771 565.379C464.591 615.931 442.37 677.815 439.688 741.76H467.205C471.401 646.701 522.927 561.327 600.182 511.805L586.424 487.972C562.277 503.357 539.713 522.451 520.451 543.881C518.662 542.851 497.199 530.488 496.442 530.007C596.33 414.961 757.031 381.03 892.485 438.794L878.795 462.49C791.153 425.881 690.508 431.926 610.295 474.166C622.54 495.39 639.326 524.375 651.502 545.461C795.899 473.96 961.76 563.113 988.727 714.287H960.728C954.812 684.753 942.085 656.042 923.58 631.316C909.821 612.84 891.66 595.532 871.916 582.482C864.555 577.605 856.85 573.141 848.87 569.226C833.185 561.464 815.987 555.557 798.376 552.054V580.146C966.644 623.005 985.7 843.688 835.111 917.798C828.232 905.916 814.405 882.014 807.594 870.2C649.576 930.574 558.769 712.089 706.674 640.726C713.622 652.746 727.588 676.923 734.536 688.874C797 669.985 844.674 729.054 821.49 784.276C803.329 826.929 749.257 837.163 714.654 811.956C678.813 786.199 678.194 730.084 710.527 702.267L696.699 678.365C609.401 751.102 686.793 882.701 790.533 847.534C899.433 803.851 860.84 650.273 748.432 657.897L733.641 632.346C868.407 610.367 936.238 777.133 831.465 856.395L845.293 880.297C930.803 819.305 930.39 697.528 852.103 635.643C763.704 566.616 638.707 611.672 609.813 714.218H581.608C591.514 671.084 618.481 631.866 655.354 606.865V606.796C688.857 583.787 730.064 572.797 770.927 575.957V548.414C753.385 547.178 733.435 548.414 715.893 552.054C591.721 577.536 521.001 704.328 560.076 821.503L535.861 835.446C497.818 729.741 539.713 616.961 627.837 559.198L614.079 535.364C498.093 610.986 463.628 758.451 522.996 874.596C534.897 867.728 558.837 853.922 570.67 847.122C623.09 952.415 749.67 992.39 852.103 940.121C926.4 901.932 970.153 823.564 964.58 741.692H992.098C1001.38 926.109 811.103 1044.73 651.64 965.465L637.881 989.299C800.852 1071.03 989.208 969.312 1016.79 796.639H1044.45C1041.15 819.855 1035.09 842.108 1026.63 863.126L1050.64 877C1064.61 843.619 1073 806.255 1074.51 769.166C1060.82 769.166 1033.24 769.166 1019.62 769.166C1021.61 733.175 1015.69 695.193 1002.62 661.537L1026.56 647.732C1038.4 677.06 1045.55 709.41 1046.93 741.692C1060.62 741.692 1088.06 741.692 1101.69 741.692C1106.84 867.384 1043.35 981.95 941.328 1046.51L955.087 1070.35C994.368 1045.69 1029.38 1013.27 1056.97 975.905L1080.98 989.711C1045.34 1038.75 998.702 1079.34 945.043 1107.92C938.164 1096.03 924.336 1072.13 917.526 1060.25C880.721 1079.55 840.752 1092.19 798.445 1097.27V1069.87C901.979 1056.75 992.098 991.909 1038.88 901.932L1015.07 888.195C914.774 1078.31 658.519 1097.75 529.119 934.42L553.059 920.614C570.257 941.769 590.964 960.451 614.01 975.424L627.768 951.591C601.283 934.145 578.168 911.136 560.626 884.486C548.725 891.355 524.922 905.092 513.09 911.892C485.71 869.582 469.681 819.992 467.411 769.028C442.921 769.028 409.487 769.028 385.134 769.028C389.468 893.828 456.748 1005.85 559.25 1070.21C566.061 1058.4 579.819 1034.63 586.63 1022.89C641.114 1057.57 704.679 1074.95 770.996 1072.13V1099.33C709.151 1101.73 649.576 1087.86 596.811 1060.18C584.497 1081.47 567.712 1110.46 555.467 1131.61C839.514 1280.86 1173.23 1082.71 1184.38 769.028C1170.62 769.028 1142.96 769.028 1129.27 769.028C1132.23 694.712 1112.07 619.983 1072.59 557.618L1096.46 543.881C1133.47 602.675 1154.59 671.016 1156.86 741.554C1170.55 741.554 1198.13 741.554 1211.75 741.554C1214.44 821.16 1195.11 901.726 1157.82 970.342L1181.62 984.079C1357.39 653.02 1112.55 265.091 743.41 273.952C743.41 260.283 743.41 232.741 743.41 219.142C667.256 220.859 591.102 239.609 525.06 271.479L511.301 247.646C676.268 167.628 871.297 174.703 1027.53 260.352C1039.77 239.197 1056.49 210.281 1068.66 189.195C626.874 -48.9333 102.188 273.334 110.305 769.166C96.6153 769.166 69.0292 769.166 55.4081 769.166C57.5407 884.83 88.4289 996.442 142.432 1093.9C154.333 1087.04 178.204 1073.3 189.968 1066.5C239.981 1157.3 312.145 1235.67 398.48 1293.16L384.722 1316.85C301.757 1261.91 231.588 1188.9 179.993 1103.93L156.122 1117.67C214.802 1214.58 297.079 1296.73 394.215 1355.39C401.094 1343.5 414.853 1319.67 421.664 1307.93C429.506 1312.66 437.417 1317.27 445.466 1321.66C542.602 1375.37 656.455 1403.81 770.79 1401.2C770.79 1425.72 770.79 1459.17 770.79 1483.48C761.571 1483.69 752.422 1483.69 743.272 1483.48C743.272 1469.75 743.272 1442.2 743.272 1428.53C632.378 1426.41 525.266 1396.94 431.776 1345.36L418.018 1369.12C508.274 1418.78 608.094 1448.59 715.755 1454.91V1482.38C342.07 1460.54 49.8359 1163.55 28.9227 796.571C28.3724 787.436 28.0972 778.301 27.8908 769.097H27.822C27.6156 759.962 27.6156 750.758 27.822 741.623C41.5119 741.623 69.1668 741.623 82.7879 741.623C84.9205 630.904 114.433 523.963 166.097 430.621C144.839 418.395 115.809 401.636 94.6891 389.479C90.2175 397.446 85.9524 405.551 81.756 413.724C-67.9383 708.449 -7.40016 1065.13 226.222 1293.91C474.359 1537.88 854.374 1578.88 1147.16 1402.71C1252.82 1339.25 1339.16 1252.7 1401.56 1151.74ZM170.981 369.972C170.981 369.972 147.247 356.304 147.178 356.235C271.694 166.941 480.413 41.6613 715.824 28.5426V55.9476C488.049 69.135 289.374 190.775 170.981 369.972ZM625.773 878.786C591.446 842.726 573.215 791.763 577.343 741.76H604.723C600.389 785.375 616.968 831.462 647.718 862.301L633.616 886.684C630.933 884.074 628.319 881.464 625.773 878.786ZM808.351 928.101C757.306 943.349 699.382 934.557 655.286 904.061L668.976 880.365C704.679 905.985 752.559 914.57 795.005 903.512L809.108 927.964C808.901 927.964 808.626 928.032 808.351 928.101ZM550.238 1030.85C475.598 975.012 425.654 889.638 414.784 796.639H442.233C452.896 880.159 497.611 956.399 563.997 1007.16L550.238 1030.85ZM798.445 1152.63C727.863 1159.91 656.593 1148.17 593.991 1120.07L607.887 1096.1C703.441 1138.28 814.336 1136.76 906.519 1096.1L920.346 1120.07C882.372 1137.04 841.372 1148.23 798.445 1152.63ZM1154.93 796.639C1148.53 858.455 1128.65 915.12 1096.39 966.839L1072.52 953.033C1102.17 905.847 1120.88 853.166 1127.21 796.571H1154.93V796.639ZM105.834 427.598L129.567 441.335C87.8098 524.237 62.1499 616.549 56.44 714.287H28.9915C34.5638 615.725 60.0861 518.056 105.834 427.598ZM1115.72 217.768L1129.41 194.072C1204.74 244.005 1269.4 308.637 1319.35 383.778L1295.61 397.446C1248.15 326.358 1186.92 265.16 1115.72 217.768ZM1337.03 468.74C1329.05 452.6 1320.04 436.253 1310.47 420.593L1334.14 406.924C1394.74 506.723 1428.94 621.426 1431.27 741.692H1458.79C1457 635.987 1430.24 531.518 1384.63 441.267L1408.3 427.598C1524.21 656.729 1507.43 924.255 1381.67 1131.27L1358.01 1117.6C1362.76 1109.77 1367.37 1101.87 1371.77 1093.84C1425.91 996.236 1456.59 884.83 1458.79 769.097H1431.27C1426.67 1012.86 1290.45 1230.52 1082.35 1345.22L1068.66 1321.59C1375.62 1151.94 1489.2 776.858 1337.03 468.74ZM1215.33 475.403C1175.98 411.252 1122.87 355.48 1060.68 312.896L1074.51 289.062C1148.53 339.408 1210.03 406.993 1252.96 485.499L1229.16 499.236C1224.76 491.131 1220.15 483.233 1215.33 475.403ZM1276.83 1039.16C1321.62 957.704 1347 865.049 1349.2 769.166C1335.45 769.166 1307.79 769.166 1294.17 769.166C1296.65 684.478 1277.59 597.592 1241.75 523.688L1265.62 509.951C1299.95 580.215 1319.9 660.713 1321.69 741.692C1335.38 741.692 1362.82 741.692 1376.45 741.692C1379.27 860.516 1347.21 977.622 1286.67 1076.53L1263.07 1062.93C1267.82 1055.1 1272.43 1047.2 1276.83 1039.16ZM757.1 1291.78C837.519 1292.06 919.246 1273.1 989.208 1239.24L1002.97 1263.07C924.818 1301.26 833.048 1321.52 743.341 1319.05V1291.58C747.95 1291.72 752.559 1291.78 757.1 1291.78ZM500.501 1226.74C566.267 1262.39 638.294 1284.23 715.824 1290.2V1317.75C623.572 1310.88 539.438 1283.27 462.871 1236.77L476.63 1212.93C484.472 1217.74 492.452 1222.34 500.501 1226.74ZM298.868 1035.45C338.217 1099.61 391.326 1155.45 453.515 1197.96L439.688 1221.8C279.881 1113.14 187.491 931.673 192.513 741.692H220.031C217.279 845.611 245.415 948.706 298.868 1035.45ZM991.341 636.33C928.533 514.415 786.887 463.314 663.059 510.363L649.232 486.461C791.496 429.865 948.208 493.123 1015.01 622.662L991.341 636.33ZM1062.47 595.326C1081.8 632.072 1094.46 671.977 1099.55 714.218H1072.1C1058.96 610.917 994.024 520.872 903.905 474.166L917.526 450.608C978.958 482.752 1030.14 533.922 1062.47 595.326ZM1056.97 535.021C995.881 452.05 901.497 397.103 798.445 385.976V358.296C911.885 369.629 1014.87 430.071 1080.98 521.215L1056.97 535.021ZM996.363 369.217C1117.92 444.495 1197.58 572.797 1210.1 714.218H1182.59C1169.1 570.737 1082.49 445.182 958.871 379.176L972.56 355.48C980.609 359.807 988.589 364.409 996.363 369.217ZM757.1 301.425C822.729 301.151 890.146 316.193 947.864 343.185L934.105 367.019C802.159 306.783 648.888 319.558 531.595 392.982L545.354 416.815C611.877 374.986 691.333 353.625 770.858 356.51V384.053C574.041 376.703 408.249 523.07 387.061 714.218H359.337C370.894 600.408 431.363 498.137 522.515 432.132L508.687 408.229C455.441 446.281 411.345 496.145 380.25 554.115L356.516 540.447C436.729 391.951 591.652 301.013 757.1 301.425ZM331.682 714.218H304.165C308.911 661.263 322.808 611.054 344.134 564.967L368.005 578.704C348.88 620.67 336.291 666.276 331.682 714.218ZM538.819 295.519C593.303 269.693 653.016 253.209 715.824 248.195V275.669C458.674 297.716 267.429 517.025 274.996 769.166H302.514C302.238 760.649 302.238 750.621 302.514 741.692H329.893C325.147 886.684 393.871 1020.62 508.618 1102.7L494.86 1126.46C386.51 1050.08 315.791 928.994 304.096 796.639H276.51C281.394 854.471 296.597 909.488 320.194 959.696L296.391 973.433C225.672 825.487 232.964 651.647 308.843 512.973C360.094 418.669 441.545 341.537 538.819 295.519ZM500.501 284.186C340.419 371.277 235.027 533.716 221.544 714.218H193.958C207.648 521.009 320.813 350.878 486.742 260.352L500.501 284.186ZM1030.48 200.322L1016.86 223.949C950.134 191.393 876.387 170.994 798.445 165.636V138.438C881.409 143.795 959.765 165.499 1030.48 200.322ZM227.598 434.33C343.446 244.555 550.926 131.912 770.927 137.132V164.331C546.73 159.043 342.964 279.859 237.435 471.762L213.839 458.163C218.242 450.058 222.851 442.16 227.598 434.33ZM153.507 1055.79C114.02 976.867 89.6672 889.226 84.0261 796.639H111.475C116.978 884.349 140.093 967.32 177.241 1042.12L153.507 1055.79ZM213.839 1052.76C115.877 875.077 113.332 659.957 201.112 482.546L224.777 496.145C135.071 678.983 148.141 895.133 251.263 1062.93L227.667 1076.53C222.92 1068.7 218.311 1060.8 213.839 1052.76ZM757.1 1373.86C651.984 1374.07 548.381 1346.94 459.362 1297.83C372.545 1250.3 297.629 1181.68 242.526 1099.67L266.122 1086.07C313.727 1156.48 376.398 1216.23 449.181 1260.53C722.359 1425.86 1072.17 1345.98 1248.15 1086.07L1271.81 1099.74C1156.17 1271.59 962.792 1374.27 757.1 1373.86ZM798.445 1400.03C886.294 1394.54 969.396 1371.46 1044.31 1334.37L1058 1358.06C978.958 1397.49 891.178 1421.87 798.445 1427.44V1400.03ZM1036.06 1428.33C958.458 1460.27 878.176 1477.99 798.376 1482.52V1454.98C906.037 1448.59 1005.65 1418.85 1096.11 1369.12C1195.38 1314.45 1280.89 1235.46 1343.29 1140.89L1367.02 1154.55C1288.05 1274.75 1173.78 1371.18 1036.06 1428.33Z" fill="url(#paint0_linear_2974_1435)"/>
</g>
<defs>
<linearGradient id="paint0_linear_2974_1435" x1="757" y1="0.1073" x2="757" y2="755.485" gradientUnits="userSpaceOnUse">
<stop stop-color="#38290A" stop-opacity="0.6"/>
<stop offset="0.5" stop-color="#38290A" stop-opacity="0.1"/>
<stop offset="1" stop-opacity="0"/>
</linearGradient>
<clipPath id="clip0_2974_1435">
<rect width="1514" height="755" fill="white" transform="translate(0 0.183105)"/>
</clipPath>
</defs>
</svg>
