<svg width="1801" height="1800" viewBox="0 0 1801 1800" fill="none" xmlns="http://www.w3.org/2000/svg">
<path d="M917.15 0.935547C928.274 1.09912 939.397 1.50757 949.866 2.08008C1268.68 19.2552 1542.34 201.884 1688.09 464.827C1693.41 474.314 1698.56 483.965 1703.47 493.697C1842.02 766.209 1832.94 1097.28 1671.73 1364.39C1669.52 1367.99 1668.3 1369.96 1666.91 1372.25C1592.72 1492.47 1490.08 1595.52 1364.45 1671.09C1016.36 1880.87 564.56 1832.05 269.549 1541.54C-8.20522 1269.11 -80.1799 844.397 97.792 493.452C102.781 483.72 107.853 474.069 113.169 464.582C138.278 479.058 172.793 499.013 198.065 513.571C136.642 624.719 101.555 752.06 99.0195 883.899H33.6699C33.4246 894.777 33.4246 905.737 33.6699 916.614H33.752C33.9973 927.573 34.3242 938.451 34.9785 949.328C59.8423 1386.31 407.281 1739.96 851.557 1765.96V1733.25C723.557 1725.73 604.882 1690.23 497.575 1631.1L513.933 1602.8C625.083 1664.22 752.428 1699.31 884.271 1701.84V1767.27C895.149 1767.52 906.028 1767.52 916.987 1767.27V1669.29C781.055 1672.4 645.694 1638.54 530.209 1574.58C520.64 1569.35 511.234 1563.87 501.91 1558.23C493.813 1572.21 477.455 1600.59 469.276 1614.74C353.791 1544.9 255.972 1447.08 186.206 1331.68L214.587 1315.32C275.928 1416.49 359.352 1503.43 457.989 1568.86L474.347 1540.64C371.702 1472.19 285.907 1378.87 226.446 1270.75C212.46 1278.84 184.079 1295.2 169.93 1303.38C105.726 1187.33 69.0033 1054.42 66.4678 916.696H131.734C122.083 326.281 745.885 -57.4601 1271.13 226.093C1256.66 251.201 1236.78 285.633 1222.22 310.823C1036.48 208.836 804.609 200.412 608.48 295.693L624.838 324.073C703.355 286.124 793.896 263.797 884.436 261.752V327.017C1323.31 316.466 1614.4 778.396 1405.43 1172.61L1377.13 1156.25C1421.46 1074.54 1444.44 978.608 1441.25 883.817H1375.98C1373.29 799.823 1348.18 718.446 1304.17 648.438L1275.79 664.794C1322.74 739.056 1346.7 828.04 1343.19 916.532H1408.7C1395.45 1290.05 998.693 1526 660.988 1348.28C675.547 1323.09 695.503 1288.58 710.144 1263.22C772.875 1296.18 843.705 1312.71 917.232 1309.84V1277.46C838.388 1280.81 762.816 1260.12 698.039 1218.81C689.942 1232.8 673.584 1261.1 665.487 1275.17C543.622 1198.53 463.633 1065.14 458.48 916.532H556.299C558.998 977.218 578.056 1036.27 610.607 1086.65C624.675 1078.55 652.974 1062.19 667.123 1054.01C687.979 1085.75 715.46 1113.15 746.948 1133.92L730.591 1162.3C703.192 1144.47 678.573 1122.22 658.126 1097.03L629.664 1113.47C783.508 1307.96 1088.17 1284.82 1207.42 1058.43L1235.72 1074.79C1180.1 1181.93 1072.96 1259.13 949.866 1274.76V1307.39C1000.17 1301.34 1047.69 1286.29 1091.44 1263.31C1099.54 1277.45 1115.98 1305.92 1124.16 1320.07C1187.95 1286.04 1243.41 1237.71 1285.77 1179.31L1257.23 1162.87C1224.43 1207.36 1182.8 1245.97 1136.1 1275.33L1119.74 1246.95C1241.03 1170.07 1316.52 1033.65 1310.39 883.981H1245.29C1243.65 845.542 1235.14 807.02 1221.08 772.098L1192.61 788.537C1208.15 828.612 1215.19 873.84 1212.82 916.696H1278.08C1276.28 960.861 1266.31 1005.35 1249.7 1045.1L1221.16 1028.58C1231.22 1003.55 1238.42 977.054 1242.34 949.41H1209.46C1176.67 1155.02 952.729 1276.15 758.972 1178.82L775.329 1150.44C964.915 1244.82 1191.14 1103.58 1180.1 883.981H1147.39C1154.01 981.471 1101.99 1074.79 1013.66 1120.26C891.878 1182.5 741.387 1134.9 679.064 1009.52C664.997 1017.62 636.534 1034.06 622.385 1042.24C551.801 903.938 592.777 728.343 730.673 638.296L747.03 666.676C642.259 735.458 592.45 869.751 637.679 995.62L666.469 979.017C620.013 839.489 704.091 688.513 851.72 658.17C872.576 653.835 896.294 652.363 917.15 653.835V686.631C868.568 682.869 819.577 695.955 779.746 723.354V723.435C735.907 753.205 703.846 799.905 692.068 851.267H725.602C759.953 729.16 908.563 675.508 1013.66 757.703C1106.74 831.393 1107.23 976.4 1005.56 1049.03L989.125 1020.56C1113.69 926.183 1033.04 727.606 872.821 753.777L890.406 784.202C1024.05 775.124 1069.93 957.998 940.46 1010.01C817.123 1051.89 725.111 895.186 828.9 808.574L845.34 837.036C806.899 870.16 807.636 936.979 850.248 967.648C891.388 997.664 955.673 985.478 977.266 934.688C1004.83 868.933 948.149 798.597 873.885 821.088C865.624 806.857 849.02 778.068 840.76 763.756C664.915 848.732 772.876 1108.89 960.744 1037C968.841 1051.07 985.28 1079.53 993.459 1093.68C1172.49 1005.43 1149.84 742.655 949.784 691.62V658.17C970.722 662.341 991.17 669.374 1009.82 678.616C1019.3 683.278 1028.47 688.595 1037.22 694.401C1060.69 709.941 1082.28 730.55 1098.64 752.551C1120.64 781.994 1135.77 816.181 1142.81 851.349H1176.09C1144.03 671.337 946.84 565.179 775.166 650.318C760.689 625.21 740.732 590.696 726.174 565.424C821.539 515.125 941.197 507.928 1045.4 551.521L1061.67 523.304C900.629 454.522 709.571 494.924 590.814 631.916C591.717 632.49 617.232 647.211 619.358 648.438C642.259 622.92 669.086 600.183 697.794 581.863L714.151 610.243C622.303 669.211 561.043 770.871 556.054 884.063H523.339C526.529 807.92 552.946 734.231 598.339 674.036C591.959 670.356 576.502 661.441 570.122 657.761C521.949 723.19 493.976 802.195 490.95 884.063H425.438C419.303 1051.07 502.728 1212.35 648.802 1303.79C634.325 1328.9 614.369 1363.41 599.811 1388.68C514.505 1336.1 443.431 1260.93 395.912 1172.85L367.776 1189.13C584.516 1583.66 1136.34 1618.99 1399.13 1244.9L1370.83 1228.55C1267.94 1375.76 1100.77 1468.51 916.987 1473.5V1440.78C1096.68 1435.87 1264.26 1340.1 1360.53 1184.79C1385.64 1199.27 1420.15 1219.22 1445.42 1233.78C1387.11 1328.98 1303.68 1408.31 1205.7 1461.56L1222.06 1489.85C1419.25 1382.14 1553.88 1179.56 1570.15 949.41H1537.35C1530.24 1041.58 1504.23 1127.21 1461.78 1205.4L1433.48 1189.04C1645.89 793.444 1373.61 309.597 916.987 294.63V261.915C1030.67 264.778 1139.45 297.492 1234.08 355.561C1242.18 341.493 1258.62 313.032 1266.8 298.883C1459.57 416.41 1587.49 621.447 1603.03 851.267H1635.5C1620.04 612.042 1487.63 395.472 1283.07 270.83C1291.17 256.763 1307.53 228.464 1315.71 214.315C935.635 -14.6043 445.23 106.358 214.668 485.355C189.559 470.879 155.044 450.923 129.771 436.365C135.742 426.551 141.549 417.309 147.192 408.64C304.717 166.634 579.609 5.51485 884.436 1.0166V66.2822C1193.19 59.903 1480.67 224.948 1631.57 497.46L1659.71 481.185C1514.62 219.469 1238.33 39.6198 917.15 33.6494V0.935547ZM1597.63 1359.32C1523.45 1471.94 1421.79 1566 1303.77 1631.1C1196.21 1690.31 1077.78 1725.72 949.784 1733.33V1766.13C1044.66 1760.73 1140.11 1739.63 1232.36 1701.6C1396.1 1633.55 1531.96 1518.72 1625.85 1375.6L1597.63 1359.32ZM1242.18 1589.71C1153.11 1633.88 1054.31 1661.36 949.866 1667.9V1700.54C1060.12 1693.91 1164.48 1664.88 1258.45 1617.93L1242.18 1589.71ZM1484.52 1294.06C1275.3 1603.54 859.408 1698.65 534.625 1501.79C448.093 1449.04 373.584 1377.89 316.986 1294.06L288.933 1310.25C354.445 1407.9 443.513 1489.61 546.73 1546.21C651.738 1604.23 773.815 1636.48 897.782 1636.74H903.576C1147.05 1636.28 1375.7 1514.16 1512.65 1310.33L1484.52 1294.06ZM1558.62 501.631C1569.99 520.278 1580.7 539.743 1590.19 558.963C1771.11 925.856 1636.07 1372.49 1271.13 1574.5L1287.41 1602.64C1534.82 1466.05 1696.76 1206.87 1702.24 916.614H1734.96C1732.34 1054.42 1695.86 1187.08 1631.49 1303.3C1626.26 1312.87 1620.78 1322.27 1615.13 1331.6L1643.27 1347.87C1792.78 1101.37 1812.74 782.812 1674.92 509.973L1646.79 526.248C1701.01 633.715 1732.83 758.112 1734.96 883.981H1702.24C1699.46 740.774 1658.81 604.191 1586.75 485.355L1558.62 501.631ZM1176.67 1476.44C1093.49 1516.76 996.322 1539.33 900.711 1539.01C895.313 1539.01 889.833 1538.93 884.354 1538.76V1571.48C991.006 1574.42 1100.11 1550.29 1193.02 1504.82L1176.67 1476.44ZM550.901 1473.5C641.932 1528.87 741.959 1561.74 851.638 1569.92V1537.13C759.462 1530.01 673.829 1504 595.64 1461.56C586.07 1456.32 576.583 1450.84 567.259 1445.12L550.901 1473.5ZM649.438 1376.69C659.007 1381.84 668.74 1386.75 678.718 1391.33C742.676 1421.18 816.287 1438.85 889.16 1440.81V1473.52C798.62 1470.99 710.616 1447.11 633.08 1404.99L649.438 1376.69ZM229.472 883.981C223.501 1110.2 333.344 1326.28 523.339 1455.67L539.778 1427.29C465.841 1376.66 402.7 1310.17 355.917 1233.78C292.367 1130.49 258.916 1007.72 262.188 883.981H229.472ZM1078.36 1306C968.76 1354.42 836.916 1356.21 723.312 1306L706.79 1334.54C781.218 1367.99 865.951 1381.98 949.866 1373.31C1000.9 1368.07 1049.65 1354.74 1094.8 1334.54L1078.36 1306ZM851.638 296.348C776.965 302.318 705.973 321.947 641.196 352.698C525.547 407.495 428.709 499.34 367.776 611.633C277.564 776.759 268.894 983.76 352.973 1159.93L381.271 1143.57C353.218 1083.79 335.143 1018.27 329.336 949.41H362.133C376.037 1107.01 460.116 1251.2 588.933 1342.15L605.291 1313.85C468.868 1216.12 387.16 1056.63 392.804 883.981H360.252C359.925 894.614 359.925 906.555 360.252 916.696H327.536C318.539 616.459 545.912 355.315 851.638 329.062V296.348ZM239.695 575.402C135.333 786.656 138.359 1042.81 254.826 1254.39C260.142 1263.96 265.622 1273.37 271.266 1282.69L299.319 1266.5C176.718 1066.69 161.179 809.311 267.831 591.596L239.695 575.402ZM1476.91 624.392C1519.52 712.394 1542.18 815.854 1539.23 916.696H1604.67C1602.05 1030.87 1571.87 1141.2 1518.62 1238.2C1513.39 1247.77 1507.91 1257.17 1502.27 1266.5L1530.32 1282.69C1602.29 1164.92 1640.41 1025.47 1637.05 883.981H1571.95C1569.82 787.555 1546.11 691.702 1505.29 608.034L1476.91 624.392ZM100.491 949.41C107.198 1059.66 136.151 1164.02 183.098 1257.99L211.315 1241.71C167.15 1152.65 139.668 1053.85 133.125 949.41H100.491ZM493.731 949.41C506.654 1060.15 566.032 1161.81 654.772 1228.3L671.131 1200.08C592.205 1139.64 539.041 1048.86 526.364 949.41H493.731ZM1340.73 949.328C1333.21 1016.72 1310.96 1079.45 1275.71 1135.64L1304.09 1152.08C1342.45 1090.49 1366.09 1023.02 1373.69 949.41V949.328H1340.73ZM779.664 1077.32C832.091 1113.64 900.956 1124.11 961.644 1105.95C961.971 1105.87 962.298 1105.79 962.543 1105.79L945.776 1076.67C895.313 1089.84 838.388 1079.61 795.939 1049.11L779.664 1077.32ZM686.997 884.063C682.09 943.604 703.765 1004.29 744.577 1047.23C747.603 1050.42 750.711 1053.52 753.9 1056.63L770.667 1027.6C734.108 990.876 714.397 935.998 719.55 884.063H686.997ZM126.418 509.973C72.0286 617.685 41.6854 733.985 35.0605 851.349H67.6943C74.4828 734.967 104.99 625.046 154.636 526.33L126.418 509.973ZM579.282 310.823C382.008 418.617 247.465 621.202 231.189 851.267H263.987C280.018 636.333 405.318 442.908 595.64 339.203L579.282 310.823ZM409.734 673.545C384.38 728.423 367.858 788.21 362.215 851.267H394.931C400.411 794.18 415.378 739.874 438.115 689.902L409.734 673.545ZM900.711 359.731C704.009 359.241 519.822 467.526 424.456 644.348L452.673 660.623C489.641 591.596 542.068 532.219 605.372 486.909L621.812 515.371C513.442 593.968 441.55 715.747 427.81 851.267H460.771C485.962 623.656 683.072 449.369 917.069 458.12V425.324C822.522 421.889 728.055 447.325 648.966 497.133L632.608 468.753C772.058 381.323 954.283 366.111 1111.15 437.838L1127.51 409.458C1058.89 377.316 978.737 359.404 900.711 359.731ZM1075.25 565.424C1182.39 621.038 1259.6 728.26 1275.22 851.267H1307.85C1301.8 800.968 1286.75 753.451 1263.77 709.695C1225.33 636.578 1164.48 575.647 1091.44 537.371L1075.25 565.424ZM1140.6 452.313C1287.57 530.91 1390.54 680.415 1406.57 851.267H1439.29C1424.4 682.869 1329.69 530.093 1185.17 440.455C1175.93 434.73 1166.44 429.25 1156.87 424.098L1140.6 452.313ZM1207.34 742.246C1127.92 587.997 941.606 512.672 772.467 580.063L788.906 608.525C936.126 552.502 1104.53 613.351 1179.2 758.521L1207.34 742.246ZM949.866 460.41C1072.39 473.66 1184.6 539.089 1257.23 637.887L1285.77 621.447C1207.17 512.917 1084.74 440.945 949.866 427.45V460.41ZM1261.64 373.39C1335.58 424.097 1398.72 490.508 1445.5 566.896C1451.23 576.22 1456.71 585.626 1461.94 595.276L1490.24 578.919C1439.21 485.437 1366.09 404.959 1278.08 345.01L1261.64 373.39ZM917.15 164.099C655.591 157.883 408.917 292.013 271.185 517.988C265.541 527.312 260.061 536.717 254.826 546.368L282.88 562.562C408.344 334.051 650.601 190.189 917.15 196.486V164.099ZM1327.08 260.116C1411.73 316.549 1484.52 389.42 1540.95 474.068L1569.17 457.793C1509.79 368.319 1432.91 291.358 1343.35 231.899L1327.08 260.116ZM851.638 34.7949C571.757 50.4162 323.611 199.594 175.573 424.997C175.655 425.079 203.872 441.354 203.872 441.354C344.63 227.974 580.836 83.1308 851.638 67.4277V34.7949ZM949.866 198.04C1042.53 204.419 1130.21 228.71 1209.54 267.477L1225.74 239.342C1141.66 197.876 1048.5 172.032 949.866 165.652V198.04Z" fill="#D9AF5A"/>
</svg>
