<?xml version="1.0" encoding="UTF-8" standalone="no"?>
<!-- Created with Inkscape (http://www.inkscape.org/) -->

<svg
   version="1.1"
   id="svg2"
   width="526.91998"
   height="180.06667"
   viewBox="0 0 526.91998 180.06667"
   sodipodi:docname="SYRACUSE_Horizontal_2Line_ORANGE_RGB.eps"
   xmlns:inkscape="http://www.inkscape.org/namespaces/inkscape"
   xmlns:sodipodi="http://sodipodi.sourceforge.net/DTD/sodipodi-0.dtd"
   xmlns="http://www.w3.org/2000/svg"
   xmlns:svg="http://www.w3.org/2000/svg">
  <defs
     id="defs6" />
  <sodipodi:namedview
     id="namedview4"
     pagecolor="#ffffff"
     bordercolor="#111111"
     borderopacity="1"
     inkscape:showpageshadow="0"
     inkscape:pageopacity="0"
     inkscape:pagecheckerboard="1"
     inkscape:deskcolor="#d1d1d1" />
  <g
     id="g8"
     inkscape:groupmode="layer"
     inkscape:label="ink_ext_XXXXXX"
     transform="matrix(1.3333333,0,0,-1.3333333,0,180.06667)">
    <g
       id="g10"
       transform="scale(0.1)">
      <path
         d="m 1405.38,847.297 c -75.21,0 -116.43,58.578 -137.41,104.867 l -33.98,-12.301 26.76,-125.836 h 28.2 l 8.67,22.422 c 28.94,-19.523 62.21,-33.269 104.15,-33.269 72.32,0 163.45,40.504 163.45,147.539 0,159.101 -245.18,132.341 -245.18,237.211 0,39.05 24.59,70.15 77.39,70.15 60.75,0 102.69,-48.45 122.95,-92.57 l 33.99,12.29 -28.94,113.55 h -28.92 l -8.68,-23.15 c -9.4,11.58 -38.33,34 -89.68,34 -76.65,0 -143.19,-43.4 -143.19,-130.18 0,-146.81 245.16,-122.22 245.16,-237.938 0,-60.75 -47.72,-86.785 -94.74,-86.785"
         style="fill:#f2571a;fill-opacity:1;fill-rule:nonzero;stroke:none"
         id="path12" />
      <path
         d="m 1859.57,1059.2 c 9.41,20.25 23.15,26.76 41.23,31.09 v 27.49 h -110.65 v -27.49 l 33.98,-7.95 -81.71,-186.586 -83.18,185.866 35.44,8.67 v 27.49 h -132.34 v -27.49 c 29.65,-7.23 33.99,-12.29 42.66,-31.82 l 109.94,-244.443 -66.27,-126.132 c 5.06,-17.356 24.59,-27.477 47.73,-17.356 l 48.18,136.258 114.99,252.403"
         style="fill:#f2571a;fill-opacity:1;fill-rule:nonzero;stroke:none"
         id="path14" />
      <path
         d="m 2020.87,1031.72 c 15.19,18.8 38.33,38.33 60.76,38.33 14.46,0 26.03,-10.85 28.92,-21.71 18.8,0 37.61,15.2 37.61,40.51 0,26.76 -22.42,39.78 -43.4,39.78 -43.39,0 -70.87,-36.17 -87.51,-65.09 l 3.62,65.09 -25.31,4.33 c -15.92,-23.86 -33.27,-35.43 -68.71,-41.22 v -25.31 l 36.16,-10.13 V 848.746 l -28.92,-7.234 v -27.485 h 122.95 v 27.485 l -36.17,8.679 v 181.529"
         style="fill:#f2571a;fill-opacity:1;fill-rule:nonzero;stroke:none"
         id="path16" />
      <path
         d="m 2336.93,892.863 c -9.41,-28.211 -35.44,-51.351 -70.16,-51.351 -32.54,0 -49.18,20.246 -49.18,43.39 0,32.543 29.66,43.395 48.46,47.008 l 70.88,13.738 z m -86.79,71.598 c -56.42,-10.129 -88.23,-38.336 -88.23,-88.961 0,-32.539 27.48,-72.32 88.23,-72.32 39.05,0 71.6,14.461 88.23,39.781 0.73,-18.805 15.19,-37.613 47.01,-37.613 33.27,0 53.52,26.761 55.69,31.828 l -7.24,13.738 c -2.89,-2.168 -10.85,-5.785 -20.96,-5.785 -10.85,0 -18.09,8.676 -18.09,20.25 v 168.511 c 0,53.51 -26.76,94.74 -97.63,94.74 -60.75,0 -125.11,-42.67 -126.56,-108.49 36.88,-20.245 76.66,2.17 67.26,46.29 11.57,13.02 25.31,24.59 52.79,24.59 28.2,0 46.29,-19.52 46.29,-45.56 v -65.093 l -86.79,-15.906"
         style="fill:#f2571a;fill-opacity:1;fill-rule:nonzero;stroke:none"
         id="path18" />
      <path
         d="m 2587.16,803.18 c 76.66,0 120.06,41.226 130.9,88.23 l -15.18,9.406 c -20.97,-26.761 -51.35,-46.285 -93.3,-46.285 -55.68,0 -96.91,41.946 -96.91,106.309 0,77.38 42.68,122.95 96.91,122.95 38.33,0 57.87,-19.53 69.43,-48.46 20.25,0.72 41.23,13.74 41.23,35.44 0,39.77 -47.74,57.86 -91.12,57.86 -84.62,0 -177.19,-67.26 -177.19,-182.251 0,-93.293 63.64,-143.199 135.23,-143.199"
         style="fill:#f2571a;fill-opacity:1;fill-rule:nonzero;stroke:none"
         id="path20" />
      <path
         d="m 2783.17,874.781 c 0,-40.504 34.71,-71.601 80.27,-71.601 44.85,0 86.07,26.035 122.23,60.75 l -3.63,-52.071 25.32,-4.339 c 19.53,15.91 44.84,26.035 68.71,31.824 v 27.484 h -36.16 v 250.952 h -94.03 v -27.49 l 36.16,-8.67 V 897.199 c -36.88,-32.547 -75.93,-41.949 -97.62,-41.949 -28.21,0 -43.4,16.637 -43.4,47.734 v 214.796 h -94.01 v -27.49 l 36.16,-8.67 V 874.781"
         style="fill:#f2571a;fill-opacity:1;fill-rule:nonzero;stroke:none"
         id="path22" />
      <path
         d="m 3170.81,1057.03 c 0,17.36 13.74,36.88 45.57,36.88 45.56,0 69.42,-37.61 78.83,-58.58 l 21.7,5.06 -13.74,77.39 h -22.42 l -2.89,-9.4 c -13.02,10.12 -37.61,20.25 -67.99,20.25 -52.8,0 -94.02,-39.06 -94.02,-86.79 0,-101.977 164.17,-90.402 164.17,-157.66 0,-19.528 -15.9,-46.285 -55.69,-46.285 -44.83,0 -80.27,33.269 -97.63,69.425 l -21.7,-5.058 14.47,-88.235 h 18.08 l 7.23,22.422 c 12.29,-15.91 47.73,-33.269 78.83,-33.269 57.86,0 109.93,40.504 109.93,100.527 0,107.033 -162.73,91.852 -162.73,153.323"
         style="fill:#f2571a;fill-opacity:1;fill-rule:nonzero;stroke:none"
         id="path24" />
      <path
         d="m 3512.9,1091.74 c 30.39,0 59.31,-23.86 59.31,-81 l -141.02,-18.802 c 2.16,54.242 27.48,99.802 81.71,99.802 z m -10.11,-288.56 c 70.14,0 117.16,39.058 129.45,94.742 l -15.2,9.398 c -22.41,-33.265 -52.79,-52.789 -96.9,-52.789 -50.62,0 -87.51,44.114 -90.4,99.801 l 195.26,25.313 11.58,17.359 c 0,92.566 -54.96,131.626 -120.78,131.626 -70.15,0 -146.09,-54.24 -146.09,-180.806 0,-93.293 61.48,-144.644 133.08,-144.644"
         style="fill:#f2571a;fill-opacity:1;fill-rule:nonzero;stroke:none"
         id="path26" />
      <path
         d="m 1571.72,608.641 37.61,-7.961 V 341.051 c 0,-90.403 -50.62,-143.199 -128.01,-143.199 -96.91,0 -135.24,55.687 -135.24,147.539 V 600.68 l 37.61,7.961 v 31.812 h -143.2 v -31.812 l 37.61,-7.961 v -264.7 c 0,-118.601 69.43,-187.308 190.2,-187.308 120.79,0 190.21,68.707 190.21,187.308 v 264.7 l 37.61,7.961 v 31.812 h -124.4 v -31.812"
         style="fill:#f2571a;fill-opacity:1;fill-rule:nonzero;stroke:none"
         id="path28" />
      <path
         d="m 1997,406.141 c 0,40.496 -34.72,71.597 -80.29,71.597 -44.83,0 -86.05,-26.035 -122.21,-60.75 l 3.61,60.75 -25.31,4.336 c -15.91,-23.863 -33.27,-35.437 -68.7,-41.226 v -25.305 l 36.16,-10.125 V 197.852 l -28.94,-7.231 v -27.48 h 122.95 v 27.48 l -36.16,8.668 v 184.43 c 36.88,32.539 75.94,41.941 97.64,41.941 28.2,0 43.38,-16.633 43.38,-47.734 V 197.852 l -28.92,-7.231 v -27.48 h 122.95 v 27.48 l -36.16,8.668 v 206.852"
         style="fill:#f2571a;fill-opacity:1;fill-rule:nonzero;stroke:none"
         id="path30" />
      <path
         d="m 2163.35,477.738 -25.32,4.336 c -15.91,-23.863 -33.26,-35.437 -68.7,-41.226 v -25.305 l 36.16,-10.125 V 198.57 l -32.55,-7.949 v -27.48 h 122.95 v 27.48 l -32.54,7.949 v 279.168"
         style="fill:#f2571a;fill-opacity:1;fill-rule:nonzero;stroke:none"
         id="path32" />
      <path
         d="m 2101.88,567.406 c 0,-20.242 15.91,-36.148 36.15,-36.148 20.26,0 36.16,15.906 36.16,36.148 0,20.254 -15.9,36.164 -36.16,36.164 -20.24,0 -36.15,-15.91 -36.15,-36.164"
         style="fill:#f2571a;fill-opacity:1;fill-rule:nonzero;stroke:none"
         id="path34" />
      <path
         d="m 2542.31,466.883 h -110.66 v -27.485 l 34,-7.949 -81.73,-186.59 -83.16,185.868 35.44,8.671 v 27.485 h -132.36 v -27.485 c 29.66,-7.222 33.27,-12.293 42.68,-31.812 l 113.53,-251.688 h 26.04 l 115,252.407 c 9.39,20.246 23.13,26.758 41.22,31.093 v 27.485"
         style="fill:#f2571a;fill-opacity:1;fill-rule:nonzero;stroke:none"
         id="path36" />
      <path
         d="m 2600.9,341.051 c 2.17,54.238 27.48,99.797 81.73,99.797 30.37,0 59.3,-23.86 59.3,-81 z m 205.39,5.058 c 0,92.571 -54.96,131.629 -120.77,131.629 -70.15,0 -146.09,-54.246 -146.09,-180.808 0,-93.289 61.47,-144.641 133.07,-144.641 70.15,0 117.16,39.051 129.46,94.742 l -15.19,9.399 c -22.42,-33.27 -52.79,-52.789 -96.91,-52.789 -50.63,0 -87.51,44.109 -90.4,99.8 l 195.26,25.321 11.57,17.347"
         style="fill:#f2571a;fill-opacity:1;fill-rule:nonzero;stroke:none"
         id="path38" />
      <path
         d="m 3012.43,477.738 c -43.39,0 -70.88,-36.16 -87.51,-65.097 l 3.61,65.097 -25.31,4.336 c -15.91,-23.863 -33.26,-35.437 -68.7,-41.226 v -25.305 l 36.16,-10.125 V 197.852 l -28.94,-7.231 v -27.48 h 122.95 v 27.48 l -36.16,8.668 v 181.535 c 15.18,18.801 38.33,38.332 60.75,38.332 14.46,0 26.04,-10.851 28.93,-21.699 18.81,0 37.6,15.184 37.6,40.496 0,26.762 -22.41,39.785 -43.38,39.785"
         style="fill:#f2571a;fill-opacity:1;fill-rule:nonzero;stroke:none"
         id="path40" />
      <path
         d="m 3135.38,406.141 c 0,17.351 13.75,36.882 45.56,36.882 45.57,0 69.44,-37.605 78.83,-58.585 l 21.7,5.07 -13.74,77.375 h -22.42 l -2.89,-9.399 c -13.02,10.129 -37.61,20.254 -67.98,20.254 -52.81,0 -94.03,-39.058 -94.03,-86.785 0,-101.984 164.17,-90.402 164.17,-157.664 0,-19.519 -15.9,-46.289 -55.68,-46.289 -44.84,0 -80.28,33.27 -97.64,69.43 l -21.7,-5.071 14.48,-88.218 h 18.07 l 7.23,22.41 c 12.29,-15.91 47.73,-33.262 78.84,-33.262 57.85,0 109.92,40.5 109.92,100.52 0,107.039 -162.72,91.851 -162.72,153.332"
         style="fill:#f2571a;fill-opacity:1;fill-rule:nonzero;stroke:none"
         id="path42" />
      <path
         d="m 3399.36,531.258 c 20.25,0 36.16,15.906 36.16,36.148 0,20.254 -15.91,36.164 -36.16,36.164 -20.24,0 -36.15,-15.91 -36.15,-36.164 0,-20.242 15.91,-36.148 36.15,-36.148"
         style="fill:#f2571a;fill-opacity:1;fill-rule:nonzero;stroke:none"
         id="path44" />
      <path
         d="m 3424.68,477.738 -25.32,4.336 c -15.91,-23.863 -33.26,-35.437 -68.7,-41.226 v -25.305 l 36.16,-10.125 V 198.57 l -32.55,-7.949 v -27.48 h 122.95 v 27.48 l -32.54,7.949 v 279.168"
         style="fill:#f2571a;fill-opacity:1;fill-rule:nonzero;stroke:none"
         id="path46" />
      <path
         d="m 3841.25,466.883 v -27.485 l 33.99,-7.949 -81.72,-186.59 -83.16,185.868 35.43,8.671 v 27.485 h -169.24 v 69.43 l -25.32,4.335 c -13.74,-39.05 -39.77,-75.203 -79.55,-82.437 v -27.484 h 47.02 V 216.66 c 0,-41.961 28.92,-64.371 67.25,-64.371 34.72,0 60.75,24.59 68.7,47.742 l -15.18,11.559 c -7.23,-8.668 -20.25,-17.36 -34,-17.36 -18.8,0 -28.92,12.301 -28.92,34.719 v 201.778 h 33.28 c 20.24,0 37.61,-3.622 46.28,-23.141 L 3766.04,163.141 3692.99,21.3789 c 5.07,-17.34765 24.59,-27.48046 47.74,-17.34765 l 54.96,151.86675 114.99,252.407 c 9.4,20.246 23.14,26.758 41.22,31.093 v 27.485 h -110.65"
         style="fill:#f2571a;fill-opacity:1;fill-rule:nonzero;stroke:none"
         id="path48" />
      <path
         d="m 590.406,959.945 c 15.77,0 289.344,0.039 305.117,0.039 v 222.376 c -5.031,4.8 -170.429,163.56 -175.187,168.14 H 169.508 C 164.715,1345.75 4.84766,1187.24 0,1182.4 V 774.496 C 4.73438,769.719 157.859,614.723 162.664,609.891 H 590.406 V 373.355 H 307.703 V 508.18 c -15.801,0 -291.9217,0 -307.703,-0.02 V 285.75 C 4.82813,280.941 164.715,122.391 169.508,117.629 h 550.828 c 4.758,4.582 170.156,163.34 175.187,168.199 v 407.805 c -4.726,4.801 -157.851,159.797 -162.675,164.66 H 307.703 V 1094.8 H 590.406 V 959.945"
         style="fill:#f2571a;fill-opacity:1;fill-rule:nonzero;stroke:none"
         id="path50" />
    </g>
  </g>
</svg>
