<svg width="824" height="812" viewBox="0 0 824 812" fill="none" xmlns="http://www.w3.org/2000/svg">
<g opacity="0.45">
<g opacity="0.3">
<g opacity="0.96">
<path d="M65.8996 51.9656C75.5134 23.2658 107.56 8.12463 137.479 18.1466C167.397 28.1686 183.857 59.5586 174.243 88.2583C167.154 109.421 147.859 123.17 126.222 124.936L96.736 281.096L7.73956 251.284L79.0633 107.269C65.0417 92.8083 59.2722 71.7502 65.8996 51.9656Z" fill="#785612"/>
</g>
<path opacity="0.25" d="M116.983 116.008C138.62 114.243 157.915 100.494 165.005 79.331C171.136 61.0275 166.649 41.6388 154.843 27.3874C173.285 41.601 181.781 65.755 174.243 88.259C167.154 109.422 147.858 123.171 126.222 124.936L96.7359 281.096L7.73944 251.284L9.42792 248.637L87.4972 272.168L116.983 116.008Z" fill="#060501"/>
</g>
<g opacity="0.3">
<g opacity="0.96">
<path d="M697.909 578.853C707.523 550.153 739.57 535.012 769.489 545.034C799.407 555.056 815.867 586.446 806.253 615.146C799.164 636.309 779.868 650.058 758.231 651.823L728.746 807.983L639.749 778.171L711.073 634.156C697.051 619.696 691.282 598.638 697.909 578.853Z" fill="#785612"/>
</g>
<path opacity="0.25" d="M748.993 642.896C770.63 641.13 789.925 627.381 797.014 606.218C803.146 587.915 798.659 568.526 786.852 554.275C805.294 568.488 813.791 592.642 806.253 615.146C799.164 636.309 779.868 650.058 758.231 651.824L728.746 807.984L639.749 778.172L641.438 775.525L719.507 799.056L748.993 642.896Z" fill="#060501"/>
</g>
<g opacity="0.3">
<g opacity="0.96">
<path d="M476.874 191.095C462.89 164.252 474.237 130.674 502.22 116.096C530.202 101.518 564.223 111.461 578.208 138.303C588.52 158.097 585.022 181.53 571.272 198.33L663.208 327.957L579.97 371.322L525.819 220.01C505.677 220.065 486.514 209.6 476.874 191.095Z" fill="#785612"/>
</g>
<path opacity="0.25" d="M558.433 198.782C572.182 181.983 575.68 158.549 565.368 138.756C556.45 121.636 539.379 111.407 520.925 110.012C543.958 106.604 567.242 117.256 578.208 138.304C588.52 158.097 585.022 181.53 571.272 198.33L663.208 327.957L579.97 371.322L579.237 368.269L650.368 328.41L558.433 198.782Z" fill="#060501"/>
</g>
<g opacity="0.3">
<g opacity="0.96">
<path d="M108.871 499.744C102.543 470.145 122.427 440.804 153.282 434.208C184.137 427.611 214.279 446.258 220.607 475.856C225.273 497.682 215.659 519.336 197.931 531.866L252.01 681.301L160.227 700.923L148.344 540.653C128.915 535.34 113.233 520.148 108.871 499.744Z" fill="#785612"/>
</g>
<path opacity="0.25" d="M185.436 528.881C203.163 516.352 212.778 494.697 208.112 472.872C204.076 453.995 190.348 439.587 172.932 433.327C196.041 436.178 215.646 452.648 220.608 475.856C225.274 497.682 215.66 519.336 197.932 531.866L252.011 681.301L160.228 700.923L160.335 697.785L239.515 678.316L185.436 528.881Z" fill="#060501"/>
</g>
</g>
</svg>
