<svg width="127" height="21" viewBox="0 0 127 21" fill="none" xmlns="http://www.w3.org/2000/svg">
<path d="M10.24 16.9546L16.4199 20.8808L14.7799 13.4809L20.2398 8.50211L13.05 7.86002L10.24 0.881226L7.43008 7.86002L0.240234 8.50211L5.70011 13.4809L4.06015 20.8808L10.24 16.9546Z" fill="#F6B603"/>
<path d="M36.906 16.9549L43.0859 20.8811L41.4459 13.4813L46.9058 8.50248L39.716 7.86038L36.906 0.881592L34.0961 7.86038L26.9062 8.50248L32.3661 13.4813L30.7262 20.8811L36.906 16.9549Z" fill="#F6B603"/>
<path d="M63.572 16.955L69.7519 20.8813L68.1119 13.4814L73.5718 8.5026L66.382 7.86051L63.572 0.881714L60.7621 7.86051L53.5723 8.5026L59.0321 13.4814L57.3922 20.8813L63.572 16.955Z" fill="#F6B603"/>
<path d="M90.2381 16.9549L96.4179 20.8811L94.778 13.4813L100.238 8.50248L93.048 7.86038L90.2381 0.881592L87.4281 7.86038L80.2383 8.50248L85.6982 13.4813L84.0582 20.8811L90.2381 16.9549Z" fill="#F6B603"/>
<mask id="mask0_327_7075" style="mask-type:alpha" maskUnits="userSpaceOnUse" x="106" y="0" width="21" height="21">
<rect x="106.904" y="0.881714" width="19.9996" height="19.9996" fill="#D9D9D9"/>
</mask>
<g mask="url(#mask0_327_7075)">
<path d="M116.904 16.955L123.084 20.8813L121.444 13.4814L126.904 8.5026L119.714 7.86051L116.904 0.881714L114.094 7.86051L106.904 8.5026L112.364 13.4814L110.724 20.8813L116.904 16.955Z" fill="#F6B603"/>
</g>
</svg>
