<svg width="22" height="23" viewBox="0 0 22 23" fill="none" xmlns="http://www.w3.org/2000/svg">
<path d="M20.8499 12.1108C20.8499 11.3958 20.7858 10.7083 20.6666 10.0483H11.1699V13.9533H16.5966C16.3583 15.2092 15.6433 16.2725 14.5708 16.9875V19.5267H17.8433C19.7499 17.7667 20.8499 15.1817 20.8499 12.1108Z" fill="#4285F4"/>
<path d="M11.1696 21.9647C13.8921 21.9647 16.1746 21.0664 17.843 19.5264L14.5705 16.9872C13.6721 17.5922 12.5263 17.9589 11.1696 17.9589C8.54797 17.9589 6.32047 16.1897 5.52297 13.8064H2.16797V16.4097C3.82714 19.7006 7.22797 21.9647 11.1696 21.9647Z" fill="#34A853"/>
<path d="M5.5226 13.7973C5.32094 13.1923 5.20177 12.5506 5.20177 11.8815C5.20177 11.2123 5.32094 10.5706 5.5226 9.96564V7.3623H2.1676C1.4801 8.71897 1.08594 10.2498 1.08594 11.8815C1.08594 13.5131 1.4801 15.044 2.1676 16.4006L4.7801 14.3656L5.5226 13.7973Z" fill="#FBBC05"/>
<path d="M11.1696 5.81322C12.6546 5.81322 13.9746 6.32655 15.0288 7.31655L17.9163 4.42905C16.1655 2.79738 13.8921 1.79822 11.1696 1.79822C7.22797 1.79822 3.82714 4.06238 2.16797 7.36239L5.52297 9.96572C6.32047 7.58239 8.54797 5.81322 11.1696 5.81322Z" fill="#EA4335"/>
</svg>
