<svg width="133" height="21" viewBox="0 0 133 21" fill="none" xmlns="http://www.w3.org/2000/svg">
<g clip-path="url(#clip0_3036_12616)">
<path d="M11.4597 0.605469L14.9304 7.17832L22.6626 8.25312L17.0392 13.3791L18.3572 20.6134L11.4597 17.1823L4.56226 20.6134L5.88025 13.3791L0.300781 8.25312L8.03295 7.17832L11.4597 0.605469Z" fill="#FFA600"/>
<path d="M11.4629 11.6016V0.605469L14.9336 7.17832L11.4629 11.6016Z" fill="#FFDF40"/>
<path d="M11.4629 11.601L14.9336 7.17773L22.6658 8.25254L11.4629 11.601Z" fill="#FFDF40"/>
<path d="M11.4629 11.6016L17.0424 13.3791L18.3603 20.6134L11.4629 11.6016Z" fill="#FFDF40"/>
<path d="M11.459 11.6016V17.1823L4.56152 20.6134C4.56152 20.6134 11.9422 11.2296 11.459 11.6016Z" fill="#FFDF40"/>
<path d="M11.4597 11.6019L0.300781 8.25352L8.03295 7.17871L11.4597 11.6019Z" fill="#FFDF40"/>
</g>
<g clip-path="url(#clip1_3036_12616)">
<path d="M38.822 0.605469L42.2927 7.17832L50.0249 8.25312L44.4015 13.3791L45.7195 20.6134L38.822 17.1823L31.9246 20.6134L33.2425 13.3791L27.6631 8.25312L35.3953 7.17832L38.822 0.605469Z" fill="#FFA600"/>
<path d="M38.8252 11.6016V0.605469L42.2959 7.17832L38.8252 11.6016Z" fill="#FFDF40"/>
<path d="M38.8252 11.601L42.2959 7.17773L50.0281 8.25254L38.8252 11.601Z" fill="#FFDF40"/>
<path d="M38.8252 11.6016L44.4047 13.3791L45.7226 20.6134L38.8252 11.6016Z" fill="#FFDF40"/>
<path d="M38.8213 11.6016V17.1823L31.9238 20.6134C31.9238 20.6134 39.3045 11.2296 38.8213 11.6016Z" fill="#FFDF40"/>
<path d="M38.822 11.6019L27.6631 8.25352L35.3953 7.17871L38.822 11.6019Z" fill="#FFDF40"/>
</g>
<g clip-path="url(#clip2_3036_12616)">
<path d="M66.1853 0.605469L69.656 7.17832L77.3882 8.25312L71.7648 13.3791L73.0827 20.6134L66.1853 17.1823L59.2878 20.6134L60.6058 13.3791L55.0264 8.25312L62.7585 7.17832L66.1853 0.605469Z" fill="#FFA600"/>
<path d="M66.1885 11.6016V0.605469L69.6592 7.17832L66.1885 11.6016Z" fill="#FFDF40"/>
<path d="M66.1885 11.601L69.6592 7.17773L77.3913 8.25254L66.1885 11.601Z" fill="#FFDF40"/>
<path d="M66.1885 11.6016L71.7679 13.3791L73.0859 20.6134L66.1885 11.6016Z" fill="#FFDF40"/>
<path d="M66.1846 11.6016V17.1823L59.2871 20.6134C59.2871 20.6134 66.6678 11.2296 66.1846 11.6016Z" fill="#FFDF40"/>
<path d="M66.1853 11.6019L55.0264 8.25352L62.7585 7.17871L66.1853 11.6019Z" fill="#FFDF40"/>
</g>
<g clip-path="url(#clip3_3036_12616)">
<path d="M93.5476 0.605469L97.0183 7.17832L104.75 8.25312L99.1271 13.3791L100.445 20.6134L93.5476 17.1823L86.6502 20.6134L87.9681 13.3791L82.3887 8.25312L90.1208 7.17832L93.5476 0.605469Z" fill="#FFA600"/>
<path d="M93.5508 11.6016V0.605469L97.0215 7.17832L93.5508 11.6016Z" fill="#FFDF40"/>
<path d="M93.5508 11.601L97.0215 7.17773L104.754 8.25254L93.5508 11.601Z" fill="#FFDF40"/>
<path d="M93.5508 11.6016L99.1302 13.3791L100.448 20.6134L93.5508 11.6016Z" fill="#FFDF40"/>
<path d="M93.5469 11.6016V17.1823L86.6494 20.6134C86.6494 20.6134 94.0301 11.2296 93.5469 11.6016Z" fill="#FFDF40"/>
<path d="M93.5476 11.6019L82.3887 8.25352L90.1208 7.17871L93.5476 11.6019Z" fill="#FFDF40"/>
</g>
<g clip-path="url(#clip4_3036_12616)">
<path d="M120.911 0.605469L124.382 7.17832L132.114 8.25312L126.49 13.3791L127.808 20.6134L120.911 17.1823L114.013 20.6134L115.331 13.3791L109.752 8.25312L117.484 7.17832L120.911 0.605469Z" fill="#FFA600"/>
<path d="M120.914 11.6016V0.605469L124.385 7.17832L120.914 11.6016Z" fill="#FFDF40"/>
<path d="M120.914 11.601L124.385 7.17773L132.117 8.25254L120.914 11.601Z" fill="#FFDF40"/>
<path d="M120.914 11.6016L126.494 13.3791L127.812 20.6134L120.914 11.6016Z" fill="#FFDF40"/>
<path d="M120.91 11.6016V17.1823L114.013 20.6134C114.013 20.6134 121.393 11.2296 120.91 11.6016Z" fill="#FFDF40"/>
<path d="M120.911 11.6019L109.752 8.25352L117.484 7.17871L120.911 11.6019Z" fill="#FFDF40"/>
</g>
<defs>
<clipPath id="clip0_3036_12616">
<rect width="22.3618" height="20.0079" fill="white" transform="translate(0.300781 0.605469)"/>
</clipPath>
<clipPath id="clip1_3036_12616">
<rect width="22.3618" height="20.0079" fill="white" transform="translate(27.6631 0.605469)"/>
</clipPath>
<clipPath id="clip2_3036_12616">
<rect width="22.3618" height="20.0079" fill="white" transform="translate(55.0264 0.605469)"/>
</clipPath>
<clipPath id="clip3_3036_12616">
<rect width="22.3618" height="20.0079" fill="white" transform="translate(82.3887 0.605469)"/>
</clipPath>
<clipPath id="clip4_3036_12616">
<rect width="22.3618" height="20.0079" fill="white" transform="translate(109.752 0.605469)"/>
</clipPath>
</defs>
</svg>
