<svg width="40" height="40" viewBox="0 0 40 40" fill="none" xmlns="http://www.w3.org/2000/svg">
<path d="M8.89145 23.6844L7.53159 28.761L2.56131 28.8661C1.07593 26.111 0.233398 22.9589 0.233398 19.6092C0.233398 16.3701 1.02115 13.3156 2.41748 10.626H2.41855L6.84349 11.4372L8.78188 15.8356C8.37618 17.0184 8.15505 18.2881 8.15505 19.6092C8.15521 21.0431 8.41494 22.4169 8.89145 23.6844Z" fill="#FBBB00"/>
<path d="M38.959 15.9609C39.1833 17.1426 39.3003 18.3629 39.3003 19.61C39.3003 21.0085 39.1533 22.3726 38.8732 23.6885C37.9223 28.1661 35.4377 32.076 31.9957 34.8429L31.9946 34.8419L26.4212 34.5575L25.6324 29.6333C27.9163 28.2939 29.7011 26.1978 30.6413 23.6885H20.1963V15.9609H30.7937H38.959Z" fill="#518EF8"/>
<path d="M31.9948 34.8411L31.9958 34.8422C28.6484 37.5329 24.396 39.1428 19.7671 39.1428C12.3283 39.1428 5.86077 34.985 2.56152 28.8663L8.89166 23.6846C10.5412 28.0871 14.7882 31.2211 19.7671 31.2211C21.9071 31.2211 23.912 30.6425 25.6324 29.6326L31.9948 34.8411Z" fill="#28B446"/>
<path d="M32.2345 4.57314L25.9065 9.75378C24.126 8.64083 22.0213 7.9979 19.7664 7.9979C14.6748 7.9979 10.3484 11.2756 8.78147 15.836L2.41806 10.6264H2.41699C5.66794 4.3585 12.217 0.0761719 19.7664 0.0761719C24.5059 0.0761719 28.8516 1.76444 32.2345 4.57314Z" fill="#F14336"/>
</svg>
