<svg width="114" height="103" viewBox="0 0 114 103" fill="none" xmlns="http://www.w3.org/2000/svg">
<path d="M63.749 101.293L63.749 74.6953L65.249 74.6953C74.2198 74.6953 79.636 72.599 82.2305 68.9893C83.3746 67.3246 84.3141 64.7435 84.958 61.1133C85.5416 57.8227 85.8659 53.7632 85.9209 48.9189L63.749 48.9189L63.749 1.60156L112.249 1.60156L112.249 40.5117C112.249 60.9574 108.829 76.3022 101.733 86.2744C94.5212 96.4106 82.2008 101.293 65.249 101.293L63.749 101.293ZM2.1748 101.293L2.17481 74.6953L3.67481 74.6953C12.6387 74.6953 18.0546 72.6027 20.6514 68.998C21.7981 67.3337 22.7388 64.7497 23.3838 61.1133C23.9674 57.8227 24.2917 53.7632 24.3467 48.9189L2.17481 48.9189L2.17481 1.60155L50.6758 1.60156L50.6758 40.5117C50.6758 60.9574 47.2554 76.3022 40.1602 86.2744C32.948 96.4107 20.6267 101.293 3.6748 101.293L2.1748 101.293Z" fill="#434343" stroke="#F6DBB8" stroke-width="3"/>
</svg>
