<svg width="51" height="51" viewBox="0 0 51 51" fill="none" xmlns="http://www.w3.org/2000/svg">
<path d="M25.4922 0.68457C39.2993 0.68457 50.4922 11.8775 50.4922 25.6846C50.492 39.4915 39.2992 50.6846 25.4922 50.6846C11.6852 50.6846 0.492385 39.4915 0.492188 25.6846C0.492188 11.8775 11.6851 0.68457 25.4922 0.68457ZM25.4932 7.78418C15.6234 7.78424 7.59375 15.8148 7.59375 25.6846C7.59399 35.5542 15.6235 43.5839 25.4932 43.584C35.3629 43.584 43.3923 35.5542 43.3926 25.6846C43.3926 15.8147 35.363 7.78418 25.4932 7.78418ZM25.4932 9.73242C34.2888 9.73242 41.4443 16.8891 41.4443 25.6846C41.4441 34.4799 34.2886 41.6357 25.4932 41.6357C16.6977 41.6357 9.54223 34.4798 9.54199 25.6846C9.54199 16.8891 16.6976 9.73248 25.4932 9.73242ZM25.4287 13.7529C24.911 13.7864 24.5195 14.2399 24.5195 14.7588V15.9766C24.5195 16.2178 24.3422 16.4222 24.1035 16.458C20.0692 17.0631 16.8718 20.2598 16.2666 24.2939C16.2309 24.5324 16.0273 24.7099 15.7861 24.71H14.5342C13.9748 24.7101 13.5258 25.1817 13.5625 25.749C13.5961 26.2667 14.0487 26.658 14.5674 26.6582H15.7861C16.0273 26.6583 16.2308 26.8356 16.2666 27.0742C16.8719 31.1084 20.0693 34.3061 24.1035 34.9111C24.342 34.9468 24.5195 35.1504 24.5195 35.3916V36.6426C24.5195 37.2018 24.9905 37.6517 25.5576 37.6152C26.0754 37.5817 26.4678 37.1282 26.4678 36.6094V35.3916C26.4678 35.1504 26.6442 34.946 26.8828 34.9102C30.9171 34.3051 34.1145 31.1084 34.7197 27.0742C34.7554 26.8358 34.9591 26.6584 35.2002 26.6582H36.4189C36.9377 26.6581 37.3902 26.2667 37.4238 25.749C37.4606 25.1817 37.0117 24.71 36.4521 24.71H35.2002C34.9591 24.7098 34.7555 24.5325 34.7197 24.2939C34.1144 20.2598 30.917 17.063 26.8828 16.458C26.6443 16.4223 26.4678 16.2177 26.4678 15.9766V14.7256C26.4678 14.1663 25.9959 13.7164 25.4287 13.7529ZM27.0596 18.4717C29.8747 19.0825 32.0954 21.303 32.7061 24.1182C32.7719 24.422 32.5404 24.7097 32.2295 24.71H31.2803C30.7615 24.71 30.3081 25.1014 30.2744 25.6191C30.2376 26.1864 30.6876 26.6582 31.2471 26.6582H32.2295C32.5404 26.6584 32.7718 26.9461 32.7061 27.25C32.0954 30.0651 29.8747 32.2857 27.0596 32.8965C26.7556 32.9624 26.4678 32.731 26.4678 32.4199V31.4375C26.4678 30.8782 25.9959 30.4293 25.4287 30.4658C24.911 30.4993 24.5196 30.9519 24.5195 31.4707V32.4199C24.5195 32.7309 24.2317 32.9623 23.9277 32.8965C21.1124 32.2858 18.8909 30.0653 18.2803 27.25C18.2145 26.9461 18.4467 26.6582 18.7578 26.6582H19.7402C20.2996 26.658 20.7487 26.1863 20.7119 25.6191C20.6783 25.1014 20.2249 24.71 19.7061 24.71H18.7578C18.4467 24.71 18.2144 24.4222 18.2803 24.1182C18.8909 21.3029 21.1124 19.0823 23.9277 18.4717C24.2315 18.406 24.5195 18.6373 24.5195 18.9482V19.9307C24.5195 20.4899 24.9905 20.9397 25.5576 20.9033C26.0754 20.8698 26.4678 20.4163 26.4678 19.8975V18.9482C26.4678 18.6372 26.7555 18.4057 27.0596 18.4717ZM25.4932 23.7363C24.419 23.7364 23.5449 24.6104 23.5449 25.6846C23.5452 26.7585 24.4191 27.6328 25.4932 27.6328C26.5672 27.6328 27.4412 26.7586 27.4414 25.6846C27.4414 24.6104 26.5674 23.7363 25.4932 23.7363Z" fill="#D8AF53"/>
</svg>
