<svg width="72" height="72" viewBox="0 0 72 72" fill="none" xmlns="http://www.w3.org/2000/svg">
<path d="M53.7626 18.0319C49.0582 13.3386 42.6843 10.7028 36.0391 10.7028C29.3938 10.7028 23.0199 13.3386 18.3155 18.0319C-4.22251 42.5189 29.2861 76.0138 53.7628 53.479C58.4561 48.7745 61.0918 42.4006 61.0918 35.7554C61.0917 29.1102 58.4559 22.7363 53.7626 18.0319ZM21.1862 23.1053C20.901 22.8118 20.7426 22.4178 20.7456 22.0085C20.7485 21.5992 20.9123 21.2075 21.2018 20.9181C21.4912 20.6287 21.8829 20.4649 22.2922 20.462C22.7014 20.4591 23.0954 20.6174 23.3889 20.9027C23.6742 21.1962 23.8325 21.5902 23.8296 21.9994C23.8267 22.4087 23.6628 22.8004 23.3734 23.0898C23.084 23.3792 22.6923 23.5431 22.283 23.546C21.8737 23.5489 21.4797 23.3905 21.1862 23.1053ZM50.8919 20.9027C51.1772 21.1961 51.3355 21.5901 51.3326 21.9994C51.3297 22.4087 51.1658 22.8004 50.8764 23.0898C50.587 23.3792 50.1953 23.5431 49.786 23.5459C49.3767 23.5488 48.9827 23.3905 48.6892 23.1052C48.404 22.8117 48.2457 22.4177 48.2486 22.0085C48.2515 21.5992 48.4153 21.2075 48.7048 20.9181C48.9942 20.6287 49.3859 20.4648 49.7952 20.4619C50.2044 20.459 50.5984 20.6174 50.8919 20.9027ZM36.0391 14.7428C36.4492 14.7499 36.8401 14.9177 37.1276 15.2102C37.4151 15.5027 37.5762 15.8965 37.5762 16.3066C37.5762 16.7168 37.4151 17.1105 37.1276 17.403C36.84 17.6955 36.4491 17.8634 36.0391 17.8704C35.6287 17.8637 35.2375 17.6959 34.9497 17.4034C34.662 17.1108 34.5007 16.7169 34.5007 16.3065C34.5007 15.8962 34.662 15.5022 34.9498 15.2097C35.2376 14.9172 35.6288 14.7495 36.0391 14.7428ZM16.5902 37.3193C16.1796 37.313 15.7879 37.1455 15.4998 36.8529C15.2117 36.5603 15.0502 36.1661 15.0502 35.7554C15.0502 35.3448 15.2117 34.9506 15.4998 34.658C15.788 34.3654 16.1796 34.1979 16.5902 34.1916C17.0008 34.1979 17.3925 34.3654 17.6806 34.658C17.9687 34.9506 18.1302 35.3448 18.1302 35.7555C18.1302 36.1661 17.9687 36.5603 17.6806 36.8529C17.3924 37.1455 17.0008 37.313 16.5902 37.3193ZM21.1862 50.6083C20.901 50.3148 20.7427 49.9208 20.7456 49.5116C20.7485 49.1023 20.9123 48.7106 21.2018 48.4212C21.4912 48.1318 21.8829 47.9679 22.2922 47.965C22.7014 47.9621 23.0954 48.1205 23.3889 48.4058C23.6742 48.6992 23.8325 49.0932 23.8296 49.5025C23.8267 49.9118 23.6628 50.3035 23.3734 50.5929C23.084 50.8823 22.6923 51.0462 22.283 51.049C21.8737 51.0519 21.4797 50.8936 21.1862 50.6083ZM34.2329 49.5584C34.0112 49.5263 33.8054 49.4242 33.6457 49.2671C33.4859 49.1099 33.3804 48.9059 33.3446 48.6847L32.0303 39.7642L23.1098 38.45C22.8913 38.4118 22.6906 38.3052 22.5366 38.1455C22.3827 37.9858 22.2834 37.7813 22.2532 37.5616C22.223 37.3418 22.2634 37.1182 22.3685 36.9228C22.4737 36.7275 22.6382 36.5707 22.8383 36.4749L42.8377 27.5912C43.0288 27.5058 43.2414 27.4805 43.4472 27.5185C43.653 27.5565 43.8425 27.6561 43.9905 27.8041C44.1385 27.9521 44.2381 28.1415 44.2761 28.3474C44.3141 28.5532 44.2887 28.7657 44.2033 28.9568L35.3196 48.9564C35.2273 49.1603 35.0718 49.329 34.876 49.4375C34.6803 49.546 34.4547 49.5884 34.2329 49.5584ZM55.488 34.1916C55.8983 34.1983 56.2897 34.366 56.5775 34.6586C56.8654 34.9511 57.0267 35.3451 57.0267 35.7555C57.0267 36.166 56.8653 36.5599 56.5775 36.8525C56.2896 37.145 55.8983 37.3127 55.4879 37.3194C55.0775 37.3127 54.6862 37.145 54.3984 36.8525C54.1105 36.5599 53.9492 36.1659 53.9492 35.7555C53.9492 35.3451 54.1106 34.9511 54.3984 34.6585C54.6863 34.366 55.0776 34.1983 55.488 34.1916ZM36.0391 56.7682C35.6282 56.7623 35.2362 56.5949 34.9478 56.3022C34.6594 56.0096 34.4977 55.6152 34.4977 55.2043C34.4977 54.7934 34.6594 54.3991 34.9478 54.1064C35.2363 53.8138 35.6283 53.6464 36.0391 53.6405C36.45 53.6464 36.842 53.8138 37.1304 54.1065C37.4188 54.3991 37.5805 54.7935 37.5805 55.2044C37.5805 55.6153 37.4188 56.0096 37.1303 56.3023C36.8419 56.5949 36.4499 56.7623 36.0391 56.7682ZM48.6893 50.6083C48.404 50.3148 48.2457 49.9208 48.2486 49.5116C48.2515 49.1023 48.4154 48.7106 48.7048 48.4212C48.9942 48.1318 49.3859 47.9679 49.7952 47.965C50.2045 47.9621 50.5985 48.1205 50.8919 48.4058C51.1772 48.6992 51.3355 49.0932 51.3326 49.5025C51.3297 49.9118 51.1658 50.3035 50.8764 50.5929C50.587 50.8823 50.1953 51.0462 49.786 51.049C49.3767 51.0519 48.9828 50.8936 48.6893 50.6083Z" fill="#D8AF53"/>
</svg>
