<svg width="51" height="51" viewBox="0 0 51 51" fill="none" xmlns="http://www.w3.org/2000/svg">
<path fill-rule="evenodd" clip-rule="evenodd" d="M0.679688 25.9245C0.679688 12.133 11.8911 0.924438 25.686 0.924438C39.4811 0.924438 50.6924 12.133 50.6924 25.9245C50.6924 39.7159 39.4811 50.9244 25.686 50.9244C11.8911 50.9244 0.679688 39.7159 0.679688 25.9245ZM47.5637 25.9245C47.5637 13.8391 37.7744 4.0524 25.686 4.0524C13.6214 4.0524 3.80845 13.8628 3.80845 25.9245C3.80845 38.0097 13.5976 47.7965 25.686 47.7965C37.7506 47.7965 47.5637 37.986 47.5637 25.9245Z" fill="#D8AF53"/>
<path d="M8.55565 27.0174C8.69997 27.6565 9.02469 28.2139 9.38549 28.4925C10.304 30.6063 11.401 32.1109 12.8045 32.768C12.3517 33.788 11.6083 34.7611 10.7248 34.9322C8.86593 35.2504 6.82083 35.9241 5.97266 36.6081L7.7004 39.3068C9.16127 38.121 11.6833 36.7892 16.6756 36.1079C17.8512 35.9474 18.6987 35.7481 19.4329 35.2812C18.4347 35.0879 17.3208 33.5958 16.8301 32.3823C17.3336 32.0257 17.795 31.5489 18.2213 30.9654C17.5448 29.9215 17.0187 28.7979 16.461 27.6882C15.7142 26.826 15.168 26.0375 14.8981 24.8976C14.601 23.6507 14.5601 21.5082 15.9084 20.814C15.8152 19.9491 15.69 19.086 15.69 18.2147C13.3071 17.8026 10.3177 18.7139 9.32282 21.258C8.8228 22.5366 9.03613 24.0547 9.23167 25.3695C9.15632 25.3547 9.13659 25.3545 9.10065 25.3545C8.58983 25.3545 8.34487 26.0978 8.55565 27.0174Z" fill="#D8AF53"/>
<path d="M42.8108 27.0174C42.6664 27.6565 42.3417 28.2139 41.981 28.4925C41.0624 30.6063 39.9654 32.1109 38.5619 32.768C39.0148 33.788 39.7582 34.7611 40.6416 34.9322C42.5005 35.2504 44.5456 35.9241 45.3937 36.6081L43.6661 39.3068C42.2051 38.121 39.6832 36.7892 34.6909 36.1079C33.5152 35.9474 32.6678 35.7481 31.9336 35.2812C32.9317 35.0879 34.0456 33.5958 34.5363 32.3823C34.0328 32.0257 33.5715 31.5489 33.1452 30.9654C33.8217 29.9215 34.3477 28.7979 34.9054 27.6882C35.6523 26.826 36.1984 26.0375 36.4683 24.8976C36.7654 23.6507 36.8063 21.5082 35.458 20.814C35.5513 19.9491 35.6765 19.086 35.6765 18.2147C38.0593 17.8026 41.0487 18.7139 42.0437 21.258C42.5436 22.5366 42.3303 24.0547 42.1348 25.3695C42.2101 25.3547 42.2298 25.3545 42.2658 25.3545C42.7766 25.3545 43.0216 26.0978 42.8108 27.0174Z" fill="#D8AF53"/>
<path d="M42.8551 41.8892C38.5759 46.4897 32.4657 49.3979 25.6874 49.399C18.9256 49.3861 12.7899 46.4802 8.51953 41.889C8.58146 40.812 8.80679 40.3979 9.58694 39.8637C11.1208 38.739 14.8092 37.6312 18.1679 37.1049C19.7171 36.8323 21.0272 35.309 21.8503 33.6794C20.2571 32.2179 18.9425 29.9298 17.8065 27.3942C17.2496 26.9773 16.7486 26.1431 16.5217 25.1856C16.1966 23.8143 16.5759 22.6966 17.3665 22.7001C17.4193 22.687 17.5071 22.7073 17.5603 22.7195L17.5628 22.7201C17.2663 20.7428 16.9306 18.476 17.7084 16.5645C18.6551 14.2376 20.9992 11.8935 25.689 11.8636C30.3789 11.8336 32.7764 14.2376 33.668 16.5645C34.4084 18.497 34.1119 20.7328 33.8102 22.7201C33.8181 22.7185 33.8288 22.716 33.8411 22.7132C33.8947 22.7009 33.9799 22.6813 34.0082 22.7001C34.8005 22.6966 35.1815 23.8143 34.8564 25.1856C34.6295 26.1431 34.1268 26.9773 33.5698 27.3942C32.4345 29.9307 31.1191 32.2196 29.525 33.6811C30.3479 35.3101 31.6569 36.8325 33.207 37.1049C36.5656 37.6312 40.2539 38.739 41.7896 39.8637C42.5671 40.398 42.7929 40.812 42.8551 41.8892Z" fill="#D8AF53"/>
</svg>
