<svg width="51" height="51" viewBox="0 0 51 51" fill="none" xmlns="http://www.w3.org/2000/svg">
<path d="M25.6172 0.395874C11.8109 0.395874 0.617188 11.5896 0.617188 25.3959C0.617188 39.2021 11.8109 50.3959 25.6172 50.3959C39.4234 50.3959 50.6172 39.2021 50.6172 25.3959C50.6172 11.5896 39.4234 0.395874 25.6172 0.395874ZM25.6172 10.8125C30.6026 10.8125 33.9505 14.1605 33.9505 19.1459H31.3464C31.3464 15.9813 28.7818 13.4167 25.6172 13.4167C22.4526 13.4167 19.888 15.9813 19.888 19.1459H17.2839C17.2839 14.1605 20.6318 10.8125 25.6172 10.8125ZM36.0339 34.7709C36.0339 36.4959 34.6339 37.8959 32.9089 37.8959H18.3255C16.6005 37.8959 15.2005 36.4959 15.2005 34.7709V24.3542C15.2005 22.6292 16.6005 21.2292 18.3255 21.2292H32.9089C34.6339 21.2292 36.0339 22.6292 36.0339 24.3542V34.7709Z" fill="#D8AF53"/>
</svg>
