<svg width="51" height="51" viewBox="0 0 51 51" fill="none" xmlns="http://www.w3.org/2000/svg">
<path d="M25.2656 0.59082C39.0727 0.59082 50.2656 11.7837 50.2656 25.5908C50.2655 39.3978 39.0727 50.5908 25.2656 50.5908C11.4586 50.5908 0.265757 39.3978 0.265625 25.5908C0.265625 11.7837 11.4585 0.59082 25.2656 0.59082ZM10.6172 40.2393L17.6865 37.6689C16.9064 37.001 16.1232 36.2744 15.3525 35.5039C14.5821 34.7334 13.8552 33.9501 13.1875 33.1699L10.6172 40.2393ZM13.4375 32.4834C14.1571 33.3412 14.9516 34.2054 15.8008 35.0547C16.6502 35.9041 17.5149 36.699 18.373 37.4189L21.9209 36.1289C20.6786 35.1835 19.3669 34.028 18.0977 32.7588C16.8284 31.4896 15.6729 30.1776 14.7275 28.9355L13.4375 32.4834ZM34.334 29.9629C34.1592 29.9732 34.0252 30.1229 34.0352 30.2979C34.0453 30.4728 34.1962 30.6068 34.3711 30.5967C35.109 30.5539 35.6377 30.8876 35.9863 31.6182C36.023 31.6951 36.0552 31.7731 36.084 31.8496C35.7359 31.756 35.3492 31.8172 35.0391 32.0498C34.5037 32.4515 34.3953 33.2136 34.7969 33.749C34.9913 34.0083 35.2748 34.1768 35.5957 34.2227C35.6538 34.231 35.7128 34.2354 35.7705 34.2354C36.0312 34.2353 36.2838 34.1514 36.4961 33.9922C36.5364 33.962 36.5741 33.9294 36.6094 33.8955L36.71 34.2412C36.7684 34.5455 36.7064 34.8548 36.5352 35.1133C36.3614 35.3755 36.0953 35.5537 35.7871 35.6162C35.6156 35.6513 35.5053 35.8187 35.54 35.9902C35.5706 36.1408 35.7028 36.2451 35.8506 36.2451C35.8715 36.2451 35.8928 36.2426 35.9141 36.2383C36.388 36.142 36.7962 35.8671 37.0635 35.4639C37.3308 35.0605 37.4253 34.5767 37.3291 34.1025C37.3274 34.0942 37.3258 34.0855 37.3232 34.0771L36.9717 32.8633L36.9385 32.751C36.9367 32.7316 36.9342 32.7053 36.9307 32.6729C36.9043 32.4413 36.8196 31.8998 36.5674 31.3633C36.1095 30.3892 35.337 29.9044 34.334 29.9629ZM14.9883 28.2227C15.958 29.5375 17.1857 30.9474 18.5479 32.3096C19.91 33.6717 21.32 34.8994 22.6348 35.8691L26.3096 34.5332C24.6596 33.4874 22.7027 31.8727 20.8438 30.0137C18.9848 28.1547 17.3697 26.1978 16.3242 24.5479L14.9883 28.2227ZM16.6016 23.7852C17.5999 25.4756 19.3016 27.5731 21.293 29.5645C23.2843 31.5558 25.3816 33.2575 27.0723 34.2559L31.0322 32.8154C30.5156 32.6244 29.9164 32.3203 29.2451 31.9072C27.5396 30.8577 25.5306 29.2103 23.5889 27.2686C21.6472 25.3268 19.9997 23.3178 18.9502 21.6123C18.5372 20.9411 18.233 20.3417 18.042 19.8252L16.6016 23.7852ZM35.7676 32.4414C35.9435 32.4415 36.1179 32.5216 36.2314 32.6729C36.2632 32.7151 36.2882 32.7606 36.3066 32.8076C36.3294 32.8651 36.3423 32.9251 36.3457 32.9854C36.3465 32.9968 36.3467 33.009 36.3467 33.0205C36.3466 33.1967 36.2667 33.3706 36.1152 33.4844C35.9915 33.5772 35.8386 33.6166 35.6855 33.5947C35.5326 33.5727 35.3974 33.492 35.3047 33.3682C35.1131 33.1128 35.1646 32.7492 35.4199 32.5576C35.524 32.4795 35.6466 32.4414 35.7676 32.4414ZM18.917 18.2354C18.737 18.2354 18.6144 18.2773 18.5449 18.3467C18.4826 18.409 18.4421 18.5141 18.4346 18.665V18.666C18.4353 18.6804 18.4351 18.6945 18.4336 18.709V18.7119C18.4307 19.1691 18.7016 20.0021 19.4883 21.2803C20.5126 22.9447 22.1275 24.9119 24.0352 26.8193C25.9428 28.7272 27.9107 30.3429 29.5752 31.3672C30.8466 32.1494 31.6772 32.4208 32.1357 32.4209H32.1455C32.16 32.4193 32.1742 32.4192 32.1885 32.4199H32.1895C32.3404 32.4124 32.4455 32.3719 32.5078 32.3096C32.7537 32.0632 32.6542 31.1478 31.5645 29.377C31.4701 29.2235 31.3707 29.0674 31.2666 28.9092C30.9172 29.2379 30.5706 29.6011 30.2275 29.9971C30.1647 30.0696 30.0761 30.1064 29.9873 30.1064C29.9135 30.1064 29.8392 30.0812 29.7793 30.0293C29.6469 29.9145 29.6325 29.7133 29.7471 29.5811C30.1284 29.1408 30.515 28.7391 30.9043 28.377C30.4887 27.785 30.0124 27.1667 29.4883 26.5361L28.5186 28.2051C28.4597 28.3063 28.3535 28.3631 28.2441 28.3633C28.1901 28.3633 28.1351 28.3494 28.085 28.3203C27.9335 28.2323 27.8818 28.0382 27.9697 27.8867L29.0537 26.0225C28.5143 25.398 27.931 24.7652 27.3145 24.1367L26.0801 25.3711C26.018 25.4329 25.9367 25.4639 25.8555 25.4639C25.7746 25.4638 25.6938 25.4327 25.6318 25.3711C25.5079 25.2471 25.5079 25.0458 25.6318 24.9219L26.8662 23.6865C26.179 23.0056 25.485 22.3641 24.8018 21.7754L22.9404 22.8574C22.8903 22.8865 22.8353 22.9004 22.7812 22.9004C22.6722 22.9003 22.5657 22.8442 22.5068 22.7432C22.4188 22.5917 22.4706 22.3969 22.6221 22.3086L24.2871 21.3408C23.6672 20.8266 23.0598 20.3591 22.4775 19.9502C22.1154 20.3395 21.7137 20.7261 21.2734 21.1074C21.2136 21.1594 21.1392 21.1846 21.0654 21.1846C20.9767 21.1845 20.888 21.1477 20.8252 21.0752C20.7109 20.943 20.7254 20.7427 20.8574 20.6279C21.2534 20.2849 21.6165 19.9373 21.9453 19.5879C21.7872 19.4838 21.631 19.3844 21.4775 19.29C20.206 18.5077 19.3755 18.2354 18.917 18.2354ZM39.4795 27.8496C39.3555 27.7257 39.1542 27.7257 39.0303 27.8496C38.9066 27.9735 38.9065 28.174 39.0303 28.2979L39.374 28.6406C39.4358 28.7024 39.5166 28.7343 39.5977 28.7344C39.6788 28.7344 39.7604 28.7025 39.8223 28.6406C39.946 28.5167 39.9461 28.3163 39.8223 28.1924L39.4795 27.8496ZM38.043 26.4287C38.0016 26.4039 37.0769 25.8627 35.5781 25.999C34.7118 26.0778 33.8267 26.3671 32.9482 26.8584C32.4241 27.1517 31.9011 27.5178 31.3828 27.9541C31.5089 28.1321 31.6299 28.308 31.7451 28.4814C33.0286 27.3923 34.3347 26.7621 35.5898 26.6357C35.7517 26.6195 35.9057 26.6123 36.0518 26.6123C37.0814 26.6123 37.7043 26.9659 37.7178 26.9736C37.8679 27.0629 38.0623 27.014 38.1523 26.8643C38.2422 26.7139 38.1932 26.5189 38.043 26.4287ZM31.1787 22.998C31.0274 22.9102 30.8331 22.9618 30.7451 23.1133L29.3906 25.4434C29.5397 25.6139 29.6856 25.7838 29.8281 25.9531L31.2939 23.4316C31.3819 23.2802 31.3302 23.0861 31.1787 22.998ZM34.4688 23.2617C34.3227 23.2617 34.1767 23.3176 34.0654 23.4287C33.8429 23.6512 33.8429 24.0138 34.0654 24.2363C34.288 24.4584 34.6496 24.4584 34.8721 24.2363C35.0946 24.0138 35.0946 23.6512 34.8721 23.4287C34.7608 23.3176 34.6148 23.2617 34.4688 23.2617ZM30.0957 20.9072C29.9718 20.7837 29.7714 20.7837 29.6475 20.9072L27.3164 23.2383C27.3668 23.288 27.4174 23.3383 27.4678 23.3887C27.5674 23.4883 27.6658 23.5886 27.7637 23.6885L30.0957 21.3564C30.2195 21.2325 30.2195 21.0312 30.0957 20.9072ZM27.8291 19.6484C27.7411 19.4971 27.547 19.4453 27.3955 19.5332L24.8711 21.001C25.0406 21.1434 25.2111 21.2893 25.3818 21.4385L27.7148 20.082C27.8661 19.9939 27.9171 19.7999 27.8291 19.6484ZM32.3516 20.1182L32.8555 21.0713L33.8086 20.5664L33.3047 19.6143L32.3516 20.1182ZM13.4189 18.082C13.2436 18.082 13.1016 18.2241 13.1016 18.3994V19.3516C13.1018 19.5267 13.2438 19.668 13.4189 19.668C13.594 19.6679 13.7361 19.5266 13.7363 19.3516V18.3994C13.7363 18.2241 13.5942 18.0821 13.4189 18.082ZM24.4277 12.8125C24.3376 12.6624 24.1425 12.6123 23.9922 12.7021C23.8421 12.7924 23.7926 12.9874 23.8828 13.1377C23.8941 13.1575 24.3522 13.9659 24.2217 15.2656C24.0953 16.5208 23.4642 17.8268 22.375 19.1104C22.5485 19.2256 22.7243 19.3466 22.9023 19.4727C23.3386 18.9544 23.7047 18.4314 23.998 17.9072C24.4895 17.0287 24.7787 16.1438 24.8574 15.2773C24.9937 13.7797 24.4535 12.8556 24.4277 12.8125ZM29.8945 18.0186L30.7656 18.4795L31.2266 17.6084L30.3555 17.1475L29.8945 18.0186ZM11.5166 17.1299C11.3413 17.1299 11.1992 17.2719 11.1992 17.4473C11.1992 17.6226 11.3413 17.7646 11.5166 17.7646H12.4688C12.6439 17.7644 12.7861 17.6225 12.7861 17.4473C12.7861 17.2721 12.6439 17.1301 12.4688 17.1299H11.5166ZM14.3721 17.1299C14.1968 17.1299 14.0547 17.2719 14.0547 17.4473C14.0547 17.6226 14.1968 17.7646 14.3721 17.7646H15.3242C15.4994 17.7644 15.6416 17.6225 15.6416 17.4473C15.6416 17.2721 15.4994 17.1301 15.3242 17.1299H14.3721ZM26.9961 15.7881C26.85 15.7881 26.704 15.8439 26.5928 15.9551C26.3703 16.1776 26.3703 16.5402 26.5928 16.7627C26.8152 16.9848 27.177 16.9847 27.3994 16.7627C27.6219 16.5402 27.6219 16.1776 27.3994 15.9551C27.2882 15.844 27.1422 15.7881 26.9961 15.7881ZM13.4189 15.2256C13.2438 15.2256 13.1018 15.3678 13.1016 15.543V16.4951C13.1016 16.6704 13.2436 16.8125 13.4189 16.8125C13.5942 16.8124 13.7363 16.6704 13.7363 16.4951V15.543C13.7361 15.3679 13.5941 15.2257 13.4189 15.2256ZM35.79 15.2256C35.6149 15.2256 35.4729 15.3678 35.4727 15.543V16.4951C35.4727 16.6704 35.6147 16.8125 35.79 16.8125C35.9653 16.8124 36.1074 16.6704 36.1074 16.4951V15.543C36.1072 15.3679 35.9651 15.2257 35.79 15.2256ZM18.3047 12.9668C18.2971 13.0471 18.2587 13.1215 18.1982 13.1748L17.4531 13.833L18.3652 14.2285C18.4392 14.2604 18.4983 14.3196 18.5303 14.3936L18.9258 15.3057L19.583 14.5596C19.6363 14.4991 19.711 14.4619 19.791 14.4541L20.7812 14.3604L20.2754 13.5039C20.2346 13.4345 20.2208 13.3521 20.2383 13.2734L20.4551 12.3037L19.4854 12.5195C19.4066 12.537 19.3233 12.5245 19.2539 12.4834L18.3984 11.9775L18.3047 12.9668ZM33.8838 14.2744C33.7085 14.2744 33.5664 14.4165 33.5664 14.5918C33.5666 14.7669 33.7086 14.9092 33.8838 14.9092H34.8359C35.011 14.909 35.1531 14.7668 35.1533 14.5918C35.1533 14.4166 35.0111 14.2746 34.8359 14.2744H33.8838ZM36.7393 14.2744C36.5639 14.2744 36.4219 14.4165 36.4219 14.5918C36.4221 14.7669 36.564 14.9092 36.7393 14.9092H37.6914C37.8664 14.909 38.0086 14.7668 38.0088 14.5918C38.0088 14.4166 37.8666 14.2746 37.6914 14.2744H36.7393ZM35.79 12.3701C35.6147 12.3701 35.4727 12.5122 35.4727 12.6875V13.6396C35.4727 13.8149 35.6148 13.957 35.79 13.957C35.9652 13.9569 36.1073 13.8148 36.1074 13.6396V12.6875C36.1074 12.5123 35.9653 12.3702 35.79 12.3701ZM22.6631 11.0352C22.5391 10.9112 22.3378 10.9112 22.2139 11.0352C22.0899 11.1589 22.0899 11.3606 22.2139 11.4844L22.5566 11.8271C22.6186 11.8889 22.7001 11.9198 22.7812 11.9199C22.8624 11.9199 22.944 11.889 23.0059 11.8271C23.1297 11.7033 23.1296 11.5029 23.0059 11.3789L22.6631 11.0352Z" fill="#D8AF53"/>
</svg>
