<svg width="51" height="51" viewBox="0 0 51 51" fill="none" xmlns="http://www.w3.org/2000/svg">
<path fill-rule="evenodd" clip-rule="evenodd" d="M25.0431 0.240723C38.8502 0.240723 50.0432 11.4309 50.0432 25.2372C50.0432 39.0435 38.8503 50.2407 25.0431 50.2407C11.2359 50.2407 0.0429688 39.0435 0.0429688 25.2372C0.0429688 11.4309 11.2368 0.240723 25.0431 0.240723ZM11.7846 17.731C11.7542 17.8249 11.7526 17.9257 11.7801 18.0205C11.8075 18.1152 11.8628 18.1996 11.9387 18.2626L13.7596 19.7725L13.1737 22.0642C13.1491 22.1599 13.1539 22.2607 13.1873 22.3536C13.2208 22.4465 13.2814 22.5272 13.3612 22.5853C13.4411 22.6433 13.5366 22.676 13.6353 22.6792C13.734 22.6823 13.8313 22.6557 13.9147 22.6028L15.9141 21.3372L17.9127 22.6028C17.9961 22.6557 18.0934 22.6824 18.1921 22.6793C18.2908 22.6762 18.3863 22.6435 18.4662 22.5854C18.5461 22.5273 18.6067 22.4466 18.6401 22.3537C18.6736 22.2607 18.6783 22.1599 18.6537 22.0642L18.0677 19.7725L19.8887 18.2626C19.9646 18.1996 20.0199 18.1152 20.0473 18.0205C20.0748 17.9257 20.0732 17.8249 20.0428 17.7311C20.0123 17.6372 19.9544 17.5547 19.8765 17.4941C19.7986 17.4335 19.7044 17.3977 19.6059 17.3913L17.2454 17.2406L16.3724 15.0419C16.3361 14.95 16.2729 14.8712 16.1912 14.8157C16.1095 14.7602 16.013 14.7305 15.9143 14.7305C15.8155 14.7305 15.719 14.7602 15.6373 14.8157C15.5556 14.8712 15.4925 14.95 15.4561 15.0419L14.5827 17.2406L12.222 17.3914C12.1234 17.3976 12.029 17.4333 11.951 17.4939C11.873 17.5545 11.815 17.6371 11.7846 17.731ZM38.3016 17.731C38.2713 17.637 38.2133 17.5544 38.1353 17.4938C38.0573 17.4332 37.9629 17.3975 37.8643 17.3913L35.5034 17.2406L34.6306 15.0419C34.5943 14.95 34.5311 14.8712 34.4495 14.8157C34.3678 14.7602 34.2713 14.7305 34.1725 14.7305C34.0737 14.7305 33.9772 14.7602 33.8955 14.8157C33.8139 14.8712 33.7507 14.95 33.7144 15.0419L32.8411 17.2406L30.48 17.3914C30.3815 17.3977 30.2872 17.4335 30.2092 17.494C30.1313 17.5545 30.0733 17.6371 30.0428 17.7309C30.0123 17.8248 30.0107 17.9257 30.0381 18.0205C30.0656 18.1153 30.1209 18.1996 30.1968 18.2627L32.0181 19.7726L31.4322 22.0643C31.4077 22.16 31.4125 22.2607 31.446 22.3536C31.4795 22.4464 31.5401 22.5271 31.6199 22.5851C31.6997 22.6431 31.7952 22.6758 31.8938 22.679C31.9924 22.6822 32.0898 22.6557 32.1732 22.6029L34.1717 21.3373L36.171 22.6029C36.2544 22.6558 36.3518 22.6824 36.4505 22.6793C36.5492 22.6762 36.6447 22.6435 36.7246 22.5855C36.8045 22.5274 36.8651 22.4467 36.8985 22.3537C36.932 22.2608 36.9367 22.16 36.9122 22.0643L36.3262 19.7726L38.1472 18.2627C38.2231 18.1997 38.2784 18.1153 38.3059 18.0206C38.3333 17.9258 38.3317 17.825 38.3012 17.7311L38.3016 17.731ZM31.3555 14.0553C31.3249 13.9615 31.2669 13.879 31.1889 13.8185C31.1109 13.758 31.0166 13.7223 30.9181 13.716L26.963 13.4628L25.501 9.78021C25.4645 9.68848 25.4013 9.60982 25.3196 9.55439C25.2379 9.49897 25.1414 9.46935 25.0427 9.46935C24.9439 9.46935 24.8475 9.49897 24.7658 9.55439C24.6841 9.60982 24.6209 9.68848 24.5844 9.78021L23.1224 13.4628L19.1673 13.716C19.0687 13.7221 18.9743 13.7577 18.8962 13.8182C18.8182 13.8787 18.7601 13.9612 18.7296 14.0551C18.699 14.149 18.6974 14.25 18.725 14.3448C18.7525 14.4396 18.808 14.524 18.8841 14.5869L21.9343 17.1162L20.9529 20.9548C20.9285 21.0504 20.9333 21.1511 20.9668 21.244C21.0003 21.3368 21.0608 21.4175 21.1407 21.4755C21.2205 21.5335 21.3159 21.5663 21.4146 21.5694C21.5132 21.5726 21.6105 21.5461 21.6939 21.4933L25.0418 19.3742L28.3896 21.4933C28.473 21.546 28.5703 21.5724 28.6689 21.5692C28.7675 21.5659 28.8628 21.5332 28.9426 21.4752C29.0224 21.4172 29.083 21.3366 29.1165 21.2438C29.1501 21.1511 29.155 21.0504 29.1307 20.9548L28.1492 17.1162L31.1995 14.5869C31.2756 14.524 31.331 14.4396 31.3586 14.3449C31.3861 14.2501 31.3846 14.1492 31.3541 14.0553H31.3555ZM25.0432 31.0539C22.7485 31.0577 20.533 31.8932 18.8074 33.4057C17.0817 34.9182 15.9629 37.005 15.6584 39.2794C15.6463 39.3727 15.6543 39.4675 15.6818 39.5575C15.7092 39.6475 15.7555 39.7306 15.8176 39.8013C15.8797 39.8719 15.9562 39.9286 16.0418 39.9674C16.1275 40.0063 16.2205 40.0264 16.3146 40.0265H33.7716C33.8657 40.0264 33.9587 40.0063 34.0444 39.9674C34.1301 39.9286 34.2065 39.8719 34.2686 39.8013C34.3307 39.7306 34.377 39.6475 34.4045 39.5575C34.4319 39.4675 34.4399 39.3727 34.4279 39.2794C34.1234 37.005 33.0046 34.9181 31.279 33.4056C29.5533 31.8931 27.3377 31.0576 25.0431 31.0539H25.0432ZM14.6809 39.1511C14.6505 39.3836 14.67 39.6198 14.7382 39.8441C14.8063 40.0684 14.9216 40.2756 15.0763 40.4518C15.2309 40.6279 15.4214 40.7691 15.635 40.8657C15.8485 40.9624 16.0803 41.0124 16.3147 41.0123H33.7716C34.006 41.0123 34.2377 40.9623 34.4513 40.8656C34.6648 40.7689 34.8553 40.6278 35.0099 40.4516C35.1646 40.2755 35.2798 40.0683 35.348 39.8441C35.4162 39.6198 35.4358 39.3836 35.4054 39.1511C35.129 37.0622 34.2278 35.1055 32.8199 33.5378C31.412 31.97 29.5632 30.8643 27.5159 30.3656C28.4133 29.8252 29.1089 29.0057 29.4963 28.0324C29.8838 27.0591 29.9417 25.9857 29.6612 24.9764C29.3808 23.9671 28.7774 23.0775 27.9434 22.4436C27.1094 21.8098 26.0907 21.4666 25.0431 21.4666C23.9956 21.4666 22.9769 21.8098 22.1429 22.4436C21.3089 23.0775 20.7055 23.9671 20.425 24.9764C20.1446 25.9857 20.2025 27.0591 20.5899 28.0324C20.9773 29.0057 21.6729 29.8252 22.5703 30.3656C20.5229 30.8643 18.6741 31.9701 17.2662 33.5379C15.8583 35.1058 14.9572 37.0626 14.6809 39.1516V39.1511Z" fill="#D8AF53"/>
</svg>
