<svg width="51" height="51" viewBox="0 0 51 51" fill="none" xmlns="http://www.w3.org/2000/svg">
<path d="M25.5391 0.229858C11.7533 0.229858 0.539062 11.4441 0.539062 25.2299C0.539062 39.0156 11.7533 50.2299 25.5391 50.2299C39.3248 50.2299 50.5391 39.0156 50.5391 25.2299C50.5391 11.4441 39.3248 0.229858 25.5391 0.229858ZM39.0641 24.362L34.2033 29.3441L35.3569 36.4084C35.5212 37.4191 35.0962 38.437 34.2533 39.0299C33.7962 39.3513 33.2533 39.5156 32.7141 39.5156C32.2676 39.5156 31.8212 39.4049 31.4176 39.1799L25.5391 35.9334L19.6605 39.1834C18.7641 39.6799 17.6569 39.6227 16.8212 39.0299C15.9819 38.437 15.5569 37.4191 15.7176 36.4084L16.8712 29.3441L12.0105 24.362C11.3105 23.6441 11.0676 22.5906 11.3891 21.6406C11.7069 20.687 12.5283 19.9977 13.5248 19.8441L20.1355 18.8334L23.1141 12.487C23.9926 10.6049 27.0819 10.6049 27.9605 12.487L30.9391 18.8334L37.5498 19.8441C38.5426 19.9941 39.3676 20.687 39.6855 21.6406C40.0069 22.5906 39.7641 23.6441 39.0641 24.362Z" fill="#D8AF53"/>
</svg>
