<svg width="50" height="50" viewBox="0 0 50 50" fill="none" xmlns="http://www.w3.org/2000/svg">
<path d="M25 0C38.8071 0 50 11.1929 50 25C50 38.8071 38.8071 50 25 50C11.1929 50 0 38.8071 0 25C0 11.1929 11.1929 0 25 0ZM17.957 37.707C18.0166 38.0882 18.3446 38.369 18.7305 38.3691H31.2646C31.6506 38.3691 31.9785 38.0883 32.0381 37.707L33.2568 29.9092H16.7383L17.957 37.707ZM15.0029 24.6865C14.4825 24.6865 14.106 25.1851 14.249 25.6855L14.8467 27.7744C14.9429 28.1105 15.25 28.3428 15.5996 28.3428H34.4004C34.75 28.3427 35.0572 28.1105 35.1533 27.7744L35.75 25.6855C35.893 25.1851 35.5175 24.6865 34.9971 24.6865H15.0029ZM26.4941 18.3271C25.671 19.0356 24.6003 19.4639 23.4316 19.4639C22.263 19.4639 21.1923 19.0356 20.3691 18.3271C18.6365 19.1017 17.4259 20.8411 17.4258 22.8584V23.1201H29.4375V22.8584C29.4374 20.8412 28.2267 19.1017 26.4941 18.3271ZM31.2666 14.1113C30.1852 14.1115 29.3087 14.9879 29.3086 16.0693C29.3086 17.1509 30.1851 18.0282 31.2666 18.0283C31.5191 18.0283 31.7608 17.9796 31.9824 17.8926L33.0947 19.0049V23.1201H34.6611V18.6807C34.6611 18.4729 34.5786 18.2739 34.4316 18.127L33.0898 16.7852C33.1769 16.5635 33.2256 16.3219 33.2256 16.0693C33.2255 14.9878 32.3481 14.1113 31.2666 14.1113ZM23.4346 11.6309C21.7041 11.6309 20.3009 13.0332 20.3008 14.7637C20.3008 16.4942 21.704 17.8975 23.4346 17.8975C25.165 17.8973 26.5674 16.4941 26.5674 14.7637C26.5672 13.0333 25.1649 11.631 23.4346 11.6309Z" fill="#D8AF53"/>
</svg>
