<svg width="50" height="50" viewBox="0 0 50 50" fill="none" xmlns="http://www.w3.org/2000/svg">
<path d="M25 0C38.8071 0 50 11.1929 50 25C50 38.8071 38.8071 50 25 50C11.1929 50 0 38.8071 0 25C0 11.1929 11.1929 0 25 0ZM13.9521 33.0957C12.3208 33.0957 10.998 34.4184 10.998 36.0498C10.9982 37.6811 12.3208 39.0039 13.9521 39.0039C15.5833 39.0037 16.9052 37.681 16.9053 36.0498C16.9053 34.4186 15.5834 33.0959 13.9521 33.0957ZM36.0498 33.0957C34.4185 33.0958 33.0957 34.4185 33.0957 36.0498C33.0958 37.681 34.4186 39.0038 36.0498 39.0039C37.6811 39.0039 39.0038 37.6811 39.0039 36.0498C39.0039 34.4184 37.6812 33.0957 36.0498 33.0957ZM32.7373 25.3281C32.6541 25.3285 32.5735 25.3602 32.5127 25.417C32.452 25.4738 32.4153 25.5519 32.4092 25.6348C32.2575 27.3808 31.495 29.0174 30.2559 30.2568C29.0165 31.4964 27.3791 32.2593 25.6328 32.4111C25.5499 32.4173 25.4727 32.4549 25.416 32.5156C25.3593 32.5764 25.3276 32.6561 25.3271 32.7393V36.4648C25.3271 36.5092 25.3361 36.5539 25.3535 36.5947C25.3708 36.6352 25.396 36.6717 25.4277 36.7021C25.4597 36.7327 25.4977 36.7568 25.5391 36.7725C25.5804 36.788 25.6248 36.7958 25.6689 36.7939C28.5642 36.6263 31.2979 35.4003 33.3486 33.3496C35.3992 31.299 36.6244 28.566 36.792 25.6709C36.7939 25.6267 36.787 25.5824 36.7715 25.541C36.7559 25.4996 36.7318 25.4617 36.7012 25.4297C36.6705 25.3977 36.6336 25.3719 36.5928 25.3545C36.552 25.3371 36.5082 25.3281 36.4639 25.3281H32.7373ZM13.5352 25.3281C13.4908 25.3281 13.4461 25.3371 13.4053 25.3545C13.3646 25.3719 13.3284 25.3978 13.2979 25.4297C13.2672 25.4617 13.2432 25.4995 13.2275 25.541C13.212 25.5825 13.2041 25.6266 13.2061 25.6709C13.3739 28.5658 14.5999 31.2982 16.6504 33.3486C18.7008 35.3991 21.4332 36.6251 24.3281 36.793C24.3724 36.7949 24.4166 36.7871 24.458 36.7715C24.4993 36.7559 24.5374 36.7326 24.5693 36.7021C24.6013 36.6716 24.6271 36.6344 24.6445 36.5938C24.6619 36.5531 24.6709 36.509 24.6709 36.4648V32.7383C24.6702 32.6553 24.6388 32.5752 24.582 32.5146C24.5252 32.454 24.4471 32.4172 24.3643 32.4111C22.618 32.2594 20.9807 31.4973 19.7412 30.2578C18.5017 29.0183 17.7396 27.381 17.5879 25.6348C17.5818 25.5518 17.5442 25.4738 17.4834 25.417C17.4227 25.3603 17.3428 25.3286 17.2598 25.3281H13.5352ZM24.3291 13.208C21.434 13.3756 18.701 14.6009 16.6504 16.6514C14.5999 18.7018 13.3739 21.4342 13.2061 24.3291C13.2041 24.3735 13.2119 24.4184 13.2275 24.46C13.2432 24.5013 13.2672 24.5394 13.2979 24.5713C13.3285 24.6032 13.3655 24.6282 13.4062 24.6455C13.4472 24.6628 13.4917 24.6721 13.5361 24.6719H17.2617C17.3448 24.6714 17.4246 24.6397 17.4854 24.583C17.5462 24.5262 17.5837 24.4482 17.5898 24.3652C17.7415 22.6192 18.504 20.9826 19.7432 19.7432C20.9825 18.5037 22.6191 17.7408 24.3652 17.5889C24.4482 17.5828 24.5262 17.5452 24.583 17.4844C24.6397 17.4236 24.6714 17.3438 24.6719 17.2607V13.5361C24.6719 13.4919 24.6628 13.4479 24.6455 13.4072C24.6281 13.3664 24.6023 13.3295 24.5703 13.2988C24.5383 13.2682 24.5005 13.2441 24.459 13.2285C24.4175 13.2129 24.3733 13.2061 24.3291 13.208ZM25.6689 13.2061C25.6248 13.2042 25.5804 13.212 25.5391 13.2275C25.4978 13.2431 25.4596 13.2663 25.4277 13.2969C25.3958 13.3274 25.3709 13.3647 25.3535 13.4053C25.3362 13.4459 25.3272 13.49 25.3271 13.5342V17.2617C25.3276 17.3448 25.3593 17.4246 25.416 17.4854C25.4727 17.546 25.55 17.5837 25.6328 17.5898C27.3791 17.7415 29.0163 18.5038 30.2559 19.7432C31.4953 20.9825 32.2583 22.6191 32.4102 24.3652C32.4163 24.4482 32.4529 24.5262 32.5137 24.583C32.5745 24.6398 32.6551 24.6715 32.7383 24.6719H36.4639C36.5082 24.6719 36.552 24.6629 36.5928 24.6455C36.6336 24.6281 36.6705 24.6023 36.7012 24.5703C36.7318 24.5383 36.7559 24.5004 36.7715 24.459C36.7871 24.4175 36.7939 24.3733 36.792 24.3291C36.6244 21.4339 35.3992 18.7011 33.3486 16.6504C31.2979 14.5997 28.5642 13.3737 25.6689 13.2061ZM13.9521 10.9961C12.3208 10.9961 10.9981 12.3189 10.998 13.9502C10.998 15.5816 12.3208 16.9043 13.9521 16.9043C15.5834 16.9041 16.9053 15.5814 16.9053 13.9502C16.9052 12.319 15.5833 10.9963 13.9521 10.9961ZM36.0498 10.9961C34.4186 10.9962 33.0958 12.3189 33.0957 13.9502C33.0957 15.5815 34.4185 16.9042 36.0498 16.9043C37.6812 16.9043 39.0039 15.5816 39.0039 13.9502C39.0038 12.3189 37.6811 10.9961 36.0498 10.9961Z" fill="#D8AF53"/>
</svg>
