<svg width="51" height="51" viewBox="0 0 51 51" fill="none" xmlns="http://www.w3.org/2000/svg">
<path d="M25.4732 0.222595C19.6893 0.222489 14.0843 2.22789 9.61324 5.89696C5.14226 9.56613 2.08167 14.6721 0.953174 20.3447C-0.175321 26.0174 0.697984 31.906 3.42436 37.0069C6.15074 42.1079 10.5613 46.1057 15.9049 48.3193C21.2484 50.5329 27.1942 50.8251 32.729 49.1463C38.2639 47.4676 43.0454 43.9216 46.2589 39.1126C49.4724 34.3036 50.9192 28.5292 50.3524 22.7731C49.7858 17.0171 47.2408 11.6356 43.1511 7.54569C40.8296 5.22408 38.0737 3.38245 35.0405 2.12588C32.0073 0.869417 28.7563 0.222701 25.4732 0.222595ZM11.523 20.3126C12.0631 19.6136 12.7521 19.0437 13.54 18.6442C14.328 18.2447 15.1949 18.0259 16.0781 18.0033C17.0659 17.9651 18.05 18.1445 18.9607 18.5289C19.8715 18.9134 20.6865 19.4934 21.3482 20.2279C21.4794 20.3749 21.5805 20.5464 21.6456 20.7325C21.7107 20.9186 21.7384 21.1157 21.7273 21.3125C21.7162 21.5093 21.6664 21.702 21.5808 21.8797C21.4952 22.0572 21.3755 22.2162 21.2285 22.3476C21.0815 22.4789 20.9099 22.58 20.7238 22.645C20.5377 22.7101 20.3407 22.7378 20.1438 22.7267C19.947 22.7156 19.7542 22.6658 19.5767 22.5802C19.399 22.4946 19.24 22.3749 19.1088 22.2279C18.7426 21.8245 18.2919 21.5069 17.789 21.2978C17.2859 21.0887 16.743 20.9932 16.1988 21.0181C15.7618 21.0189 15.3305 21.1181 14.9371 21.3085C14.5437 21.4989 14.1983 21.7754 13.9266 22.1177C13.7866 22.3039 13.6054 22.4551 13.3971 22.5593C13.1889 22.6636 12.9592 22.718 12.7264 22.7184C12.4468 22.7192 12.1726 22.6419 11.9346 22.4952C11.6966 22.3484 11.5043 22.1382 11.3795 21.8879C11.2548 21.6378 11.2023 21.3578 11.2283 21.0794C11.2541 20.8011 11.3573 20.5355 11.5262 20.3126H11.523ZM39.3334 29.7078C38.858 33.0451 37.1946 36.0991 34.6483 38.3083C32.1021 40.5176 28.8443 41.734 25.4732 41.734C22.1021 41.734 18.8442 40.5176 16.298 38.3083C13.7518 36.0991 12.0882 33.0451 11.613 29.7078C11.5762 29.4491 11.6001 29.1854 11.6829 28.9376C11.766 28.6992 11.9009 28.4821 12.0781 28.302C12.2611 28.1189 12.4787 27.9738 12.7181 27.875C12.9575 27.7763 13.2142 27.726 13.4732 27.7268H37.4731C37.7355 27.7247 37.9955 27.7754 38.2378 27.8761C38.4801 27.9767 38.6996 28.1252 38.8831 28.3126C39.0631 28.4957 39.1984 28.7179 39.2783 28.962C39.3552 29.2043 39.374 29.4611 39.3334 29.712V29.7078ZM39.4732 22.3381C39.3259 22.4691 39.1542 22.5697 38.968 22.6343C38.7818 22.699 38.5847 22.7263 38.3879 22.7146C38.1912 22.703 37.9986 22.6528 37.8213 22.5667C37.6439 22.4806 37.4854 22.3604 37.3545 22.2131C36.9881 21.8101 36.5374 21.4927 36.0344 21.2836C35.5316 21.0745 34.9887 20.9788 34.4446 21.0033C34.0059 21.0055 33.5735 21.1069 33.1796 21.2999C32.7858 21.4928 32.4408 21.7725 32.1702 22.1177C32.0303 22.3039 31.849 22.4551 31.6408 22.5593C31.4325 22.6636 31.2028 22.718 30.97 22.7184C30.6905 22.7192 30.4162 22.6419 30.1783 22.4952C29.9402 22.3484 29.7481 22.1382 29.6232 21.8879C29.4984 21.6378 29.446 21.3578 29.4719 21.0794C29.4978 20.8011 29.6009 20.5355 29.7698 20.3126C30.3093 19.6143 30.9976 19.0447 31.7844 18.6454C32.5714 18.2459 33.4374 18.0266 34.3195 18.0033C35.3072 17.9666 36.2909 18.1467 37.2014 18.5311C38.1118 18.9154 38.9271 19.4946 39.5896 20.2279C39.8545 20.5248 39.9909 20.9147 39.9684 21.312C39.946 21.7092 39.7666 22.0814 39.47 22.3465L39.4732 22.3381Z" fill="#D8AF53"/>
</svg>
