<svg width="50" height="50" viewBox="0 0 50 50" fill="none" xmlns="http://www.w3.org/2000/svg">
<path d="M25 0C38.8071 0 50 11.1929 50 25C50 38.8071 38.8071 50 25 50C11.1929 50 0 38.8071 0 25C0 11.1929 11.1929 0 25 0ZM19.1475 33.1973C19.0594 30.0926 14.5409 30.0977 14.4492 33.1973C14.5425 36.3005 19.0536 36.3085 19.1475 33.1973ZM35.5498 33.1973C35.4588 30.0988 30.94 30.0916 30.8516 33.1973C30.9451 36.308 35.456 36.3011 35.5498 33.1973ZM17.0215 27.4297C16.6771 27.777 16.4359 28.2133 16.3242 28.6895C16.2126 29.1654 16.2348 29.6629 16.3887 30.127C16.8616 30.0615 17.3433 30.1068 17.7959 30.2588C18.2484 30.4107 18.6595 30.6655 18.9971 31.0029C19.3347 31.3406 19.5902 31.7524 19.7422 32.2051C19.894 32.6576 19.9385 33.1395 19.873 33.6123C20.3371 33.7672 20.8352 33.7895 21.3115 33.6777C21.7877 33.566 22.2236 33.3245 22.5703 32.9795L24.5488 31.001C24.5187 30.9817 24.4907 30.9592 24.4658 30.9336L22.3447 28.8125C22.2926 28.7601 22.2569 28.6935 22.2422 28.6211C22.2275 28.5486 22.234 28.4729 22.2617 28.4043C22.2894 28.3359 22.3368 28.2773 22.3975 28.2354C22.4583 28.1933 22.5306 28.1695 22.6045 28.168C22.7518 28.1643 22.8946 28.1174 23.0156 28.0332C23.1366 27.949 23.2305 27.8312 23.2852 27.6943C23.3398 27.5576 23.3538 27.4079 23.3242 27.2637C23.2945 27.1193 23.2224 26.9861 23.1182 26.8818C23.014 26.7778 22.8816 26.7064 22.7373 26.6768C22.5929 26.6471 22.4426 26.6601 22.3057 26.7148C22.1688 26.7695 22.051 26.8634 21.9668 26.9844C21.8826 27.1054 21.8357 27.2491 21.832 27.3965C21.8293 27.4697 21.8057 27.5406 21.7637 27.6006C21.7215 27.6607 21.6628 27.7079 21.5947 27.7354C21.5267 27.7628 21.4519 27.7698 21.3799 27.7559C21.3079 27.7419 21.2413 27.707 21.1885 27.6562C20.8183 27.2744 19.3229 25.8152 18.999 25.4521L17.0215 27.4297ZM31.002 25.4521C30.983 25.4961 29.25 27.2188 29.25 27.2188C29.4922 27.3451 29.6954 27.5358 29.8369 27.7695C29.9784 28.0033 30.0532 28.2716 30.0527 28.5449C30.0488 28.879 29.9347 29.2027 29.7275 29.4648C29.5204 29.7269 29.2314 29.9132 28.9072 29.9941C28.5832 30.0749 28.2414 30.046 27.9355 29.9121C27.6295 29.7782 27.3763 29.546 27.2158 29.2529L25.5361 30.9336C25.5113 30.9592 25.4831 30.9817 25.4531 31.001L27.4307 32.9795C27.7773 33.3245 28.2133 33.566 28.6895 33.6777C29.1657 33.7895 29.6639 33.7672 30.1279 33.6123C30.0664 33.1401 30.1142 32.6598 30.2676 32.209C30.4209 31.7582 30.676 31.3484 31.0127 31.0117C31.3494 30.675 31.7592 30.42 32.21 30.2666C32.6607 30.1133 33.1411 30.0654 33.6133 30.127C33.7671 29.663 33.7893 29.1653 33.6777 28.6895C33.566 28.2134 33.3247 27.777 32.9805 27.4297L31.002 25.4521ZM22.8525 21.749C22.7991 21.8 22.7318 21.8341 22.6592 21.8477C22.5866 21.8612 22.5116 21.8535 22.4434 21.8252C22.3751 21.7968 22.3161 21.7495 22.2744 21.6885C22.2328 21.6274 22.2105 21.5553 22.209 21.4814C22.2143 21.3314 22.1742 21.1831 22.0947 21.0557C22.0152 20.9283 21.8989 20.8277 21.7617 20.7666C21.6247 20.7056 21.4729 20.687 21.3252 20.7129C21.1773 20.7389 21.0397 20.8078 20.9316 20.9121C20.8236 21.0164 20.7491 21.151 20.7178 21.2979C20.6865 21.4447 20.7006 21.5981 20.7568 21.7373C20.813 21.8762 20.9091 21.9952 21.0332 22.0791C21.1577 22.1631 21.3049 22.208 21.4551 22.208C21.5296 22.208 21.6023 22.2302 21.665 22.2705C21.7278 22.3109 21.7776 22.3686 21.8086 22.4365C21.8395 22.5044 21.8505 22.5795 21.8398 22.6533C21.8292 22.7271 21.7978 22.7962 21.749 22.8525L19.6016 25C19.6825 25.0758 21.1421 26.5503 21.2705 26.6729C21.3851 26.4706 21.5448 26.2973 21.7373 26.167C21.9297 26.0368 22.1497 25.9532 22.3799 25.9219C22.6102 25.8906 22.8452 25.913 23.0654 25.9873C23.2857 26.0616 23.486 26.1853 23.6504 26.3496C23.8147 26.5139 23.9384 26.7144 24.0127 26.9346C24.087 27.1548 24.1094 27.3898 24.0781 27.6201C24.0468 27.8503 23.9632 28.0703 23.833 28.2627C23.7027 28.4552 23.5294 28.6148 23.3271 28.7295C23.3575 28.7451 24.9838 30.3821 25 30.3984L27.1475 28.251C27.2009 28.1999 27.2682 28.1659 27.3408 28.1523C27.4135 28.1388 27.4884 28.1465 27.5566 28.1748C27.6249 28.2031 27.6839 28.2505 27.7256 28.3115C27.7673 28.3726 27.7904 28.4446 27.792 28.5186C27.7867 28.6686 27.8258 28.817 27.9053 28.9443C27.9848 29.0717 28.1011 29.1723 28.2383 29.2334C28.3754 29.2945 28.5279 29.3131 28.6758 29.2871C28.8235 29.261 28.9604 29.1921 29.0684 29.0879C29.1764 28.9836 29.2509 28.849 29.2822 28.7021C29.3134 28.5555 29.3002 28.4028 29.2441 28.2637C29.188 28.1245 29.0911 28.0049 28.9668 27.9209C28.8423 27.8369 28.6951 27.792 28.5449 27.792C28.4688 27.792 28.3941 27.7698 28.3301 27.7285C28.2659 27.6871 28.215 27.6272 28.1836 27.5576C28.154 27.4901 28.1443 27.4155 28.1562 27.3428C28.1683 27.27 28.2012 27.2019 28.251 27.1475C28.3359 27.0595 30.381 25.0216 30.3984 25C30.3576 24.966 28.8265 23.4208 28.7295 23.3271C28.6148 23.5294 28.4552 23.7027 28.2627 23.833C28.0703 23.9632 27.8503 24.0469 27.6201 24.0781C27.3898 24.1094 27.1548 24.087 26.9346 24.0127C26.7144 23.9384 26.5139 23.8147 26.3496 23.6504C26.1853 23.4861 26.0616 23.2856 25.9873 23.0654C25.913 22.8452 25.8906 22.6102 25.9219 22.3799C25.9531 22.1497 26.0368 21.9297 26.167 21.7373C26.2973 21.5448 26.4707 21.3852 26.6729 21.2705C26.5799 21.1684 25.0261 19.6468 25 19.6016L22.8525 21.749ZM21.3115 16.3232C20.8354 16.2115 20.3372 16.2338 19.873 16.3877C19.9319 16.8338 19.8935 17.2881 19.7598 17.7178C19.626 18.1472 19.4001 18.5422 19.0986 18.876C18.797 19.2098 18.4265 19.4748 18.0127 19.6514C17.5988 19.8279 17.151 19.9128 16.7012 19.8994C16.5966 19.8964 16.4923 19.8876 16.3887 19.873C16.2348 20.3371 16.2126 20.8346 16.3242 21.3105C16.4359 21.7867 16.6771 22.223 17.0215 22.5703L18.999 24.5479C19.343 24.1703 20.3838 23.1681 20.751 22.7852C20.5426 22.6751 20.363 22.5174 20.2266 22.3252C20.0902 22.1331 20.001 21.9116 19.9658 21.6787C19.9307 21.4457 19.9508 21.2073 20.0244 20.9834C20.0981 20.7595 20.223 20.5553 20.3896 20.3887C20.5562 20.2222 20.7597 20.0971 20.9834 20.0234C21.2073 19.9498 21.4456 19.9297 21.6787 19.9648C21.9116 20 22.1331 20.0893 22.3252 20.2256C22.5174 20.362 22.6751 20.5426 22.7852 20.751C23.1656 20.3875 24.1777 19.3354 24.5488 18.999L22.5703 17.0205C22.2231 16.6764 21.7874 16.4349 21.3115 16.3232ZM30.1279 16.3877C29.6639 16.2339 29.1663 16.2117 28.6904 16.3232C28.2144 16.4349 27.7779 16.6762 27.4307 17.0205L25.4531 18.999C25.8298 19.3377 27.2645 20.8053 27.6572 21.1875C27.7081 21.2403 27.7428 21.3069 27.7568 21.3789C27.7708 21.451 27.7628 21.5256 27.7354 21.5938C27.7079 21.6618 27.6616 21.7205 27.6016 21.7627C27.5414 21.8049 27.4699 21.8294 27.3965 21.832C27.2492 21.8358 27.1063 21.8827 26.9854 21.9668C26.8644 22.051 26.7705 22.1688 26.7158 22.3057C26.6612 22.4424 26.6482 22.5921 26.6777 22.7363C26.7074 22.8807 26.7786 23.0139 26.8828 23.1182C26.9869 23.2223 27.1195 23.2935 27.2637 23.3232C27.408 23.3529 27.5585 23.3398 27.6953 23.2852C27.8321 23.2305 27.95 23.1365 28.0342 23.0156C28.1183 22.8947 28.1651 22.7517 28.1689 22.6045C28.1716 22.5311 28.1961 22.4595 28.2383 22.3994C28.2805 22.3394 28.3392 22.2931 28.4072 22.2656C28.4753 22.2382 28.55 22.2301 28.6221 22.2441C28.6941 22.2582 28.7606 22.2929 28.8135 22.3438C29.1548 22.6964 30.7595 24.2673 31.002 24.5479L32.9795 22.5703C33.3238 22.223 33.566 21.7867 33.6777 21.3105C33.7893 20.8347 33.7671 20.337 33.6133 19.873C33.1405 19.9385 32.6586 19.8931 32.2061 19.7412C31.7534 19.5892 31.3415 19.3347 31.0039 18.9971C30.6663 18.6594 30.4117 18.2476 30.2598 17.7949C30.1079 17.3424 30.0625 16.8606 30.1279 16.3877ZM19.1475 16.8027C19.0539 13.692 14.543 13.6989 14.4492 16.8027C14.5403 19.9012 19.0589 19.9084 19.1475 16.8027ZM35.5498 16.8027C35.4565 13.6995 30.9454 13.6915 30.8516 16.8027C30.9397 19.9073 35.4581 19.9023 35.5498 16.8027Z" fill="#D8AF53"/>
</svg>
