<svg width="20" height="19" viewBox="0 0 20 19" fill="none" xmlns="http://www.w3.org/2000/svg">
<path d="M14.916 0.116211H15.0996C15.0996 0.0758564 15.0936 0.0375888 15.0908 0H19.248C19.6384 0 19.9587 0.297233 19.9961 0.677734C19.7225 0.576217 19.4436 0.451304 19.1406 0.299805C19.0672 0.409971 18.9207 0.55736 18.8105 0.630859C19.236 0.729044 19.6329 0.824292 20 0.896484V4.59082C18.9051 4.78766 18.5632 5.93606 17.7812 6.58203C18.626 7.27986 18.4794 5.6641 19.1035 6.06738C18.9757 5.4025 19.6131 5.32381 20 5.06543V9.4082C19.9599 9.45661 19.9173 9.50591 19.875 9.55762C19.9171 9.55762 19.9591 9.55761 20 9.55762V17.3057C20 17.3162 19.9985 17.3265 19.998 17.3369C19.7303 17.4685 19.4488 17.604 19.1406 17.749C19.1762 17.838 19.2286 17.9448 19.2861 18.0557C19.2735 18.0563 19.2608 18.0576 19.248 18.0576H18.5596C18.545 18.0507 18.5311 18.044 18.5166 18.0439C18.5137 18.0483 18.5116 18.0532 18.5088 18.0576H17.5586C17.6945 17.9604 17.829 17.888 17.9648 17.7861C17.9284 17.7495 17.9283 17.7124 17.8916 17.6758C17.7079 17.7493 17.5606 17.823 17.377 17.8965C17.4098 17.9622 17.4437 17.998 17.5029 18.0576H15.2207C15.1849 18.0245 15.1614 18.0068 15.1367 18.0068C15.1159 18.0068 15.095 18.0305 15.0742 18.0576H12.7754C12.3601 18.0576 12.0227 17.7209 12.0225 17.3057V13.4111C12.4918 13.5072 12.9123 13.5906 13.373 13.6719C13.0156 13.2044 12.5345 13.004 12.0225 13.1025V10.8135H12.2852C12.245 10.9227 12.2099 11.0371 12.1602 11.1367C12.3437 11.1734 12.5274 11.1738 12.7109 11.1738C12.7842 11.1372 12.8946 11.0642 12.9316 11.0273C13.1888 11.211 13.4097 11.3947 13.5566 11.5049C13.6897 11.2768 13.7929 11.0581 13.8975 10.8496V10.8613C13.8975 11.0354 13.9511 11.1889 14.0381 11.3145C14.0243 11.3284 14.0111 11.3434 13.9971 11.3574C14.0185 11.3536 14.0397 11.3477 14.0605 11.3438C14.3144 11.6758 14.8154 11.7877 15.1924 11.4941L17.2578 9.88574C17.6704 9.56433 17.6697 8.94108 17.2578 8.62012L15.1924 7.01074C15.1905 7.0093 15.1884 7.00826 15.1865 7.00684C15.1821 7.00015 15.1783 6.99302 15.1738 6.98633C15.1706 6.98796 15.1672 6.98958 15.1641 6.99121C14.6398 6.61603 13.8977 6.98951 13.8975 7.64355V7.69141H12.0225V5.39746L12.6592 4.54102C13.0389 4.02948 12.9322 3.30683 12.4209 2.92676C12.2979 2.83541 12.1621 2.7726 12.0225 2.73633V0.751953C12.0226 0.336611 12.36 4.73802e-05 12.7754 0H14.9072C14.91 0.0375868 14.916 0.0758587 14.916 0.116211ZM11.5439 3.1377C11.7538 3.08292 11.9852 3.11839 12.1729 3.25781C12.5012 3.50181 12.5702 3.96562 12.3262 4.29395L10.543 6.69336C10.3516 6.95088 10.0141 7.05677 9.70801 6.95215L8.95508 6.69434C8.94108 6.52849 8.94442 6.3409 8.85449 6.25098C8.70754 6.06736 8.44987 5.99398 8.22949 5.88379C8.19283 5.95712 8.15678 6.03073 8.12012 6.14062C8.23893 6.25945 8.34708 6.38902 8.45605 6.52344L7.78516 6.29492L8.71387 6.83887C8.7241 6.85098 8.73376 6.86386 8.74414 6.87598C8.75075 6.87267 8.75804 6.87093 8.76465 6.86816L8.80859 6.89453L8.38281 9.97754L9.59375 12.5479C9.63615 12.6378 9.66331 12.7342 9.67383 12.833L10.1221 17.0742C10.1736 17.5623 9.82009 18 9.33203 18.0518C8.84272 18.1033 8.40602 17.7481 8.35449 17.2607L7.92188 13.1699L7.50391 12.2832C7.69059 12.1031 7.88329 11.8979 8.15723 11.6514C7.63021 11.5597 7.41727 11.6966 7.34082 11.9375L6.90332 11.0088L5.85156 10.8359L5.66797 13.5479C5.64022 13.9569 5.33569 14.2936 4.93164 14.3633L1.04004 15.0352C0.556268 15.1186 0.096251 14.7942 0.0126953 14.3105C-0.0707514 13.8268 0.253582 13.3667 0.737305 13.2832L3.94141 12.7305L4.05566 11.0312C4.27536 10.6566 4.31845 10.1918 4.15234 9.99805C4.1446 10.0066 4.13662 10.0149 4.12891 10.0234C4.13944 9.92029 4.15184 9.8173 4.16699 9.71484L4.69727 6.125L3.72363 6.69629L3.92383 9.6084C3.95156 10.0163 3.64321 10.3694 3.23535 10.3975C2.82797 10.4256 2.47333 10.1176 2.44531 9.70898L2.21387 6.33984C2.19471 6.05951 2.33669 5.79254 2.5791 5.65039L2.64453 5.61133C2.59914 5.70444 2.55023 5.80569 2.49902 5.9209C2.9882 5.96982 2.93803 5.70947 2.89453 5.46484L4.96875 4.25195C5.32785 4.04184 5.74706 3.95864 6.15918 4.01562L8.18457 4.29492C8.57597 4.35007 8.87998 4.63054 8.98535 4.98633L8.51855 4.9248C8.47458 4.89845 8.4297 4.87305 8.37695 4.85547C8.37529 4.85713 8.35966 4.87178 8.33105 4.90039L8.26465 4.89258L8.32031 4.91113C8.30534 4.92611 8.28755 4.94487 8.2666 4.96582C8.41352 5.03928 8.48747 5.07596 8.59766 5.14941C8.62934 5.11773 8.65889 5.08555 8.66699 5.03027L9.67578 5.37598L11.0078 3.58203C11.08 3.62102 11.1769 3.68364 11.2432 3.7168C11.3333 3.50651 11.4449 3.31894 11.5439 3.1377ZM18.7734 16.9785C18.7367 16.9785 18.6627 17.015 18.626 17.0518C18.6627 17.1252 18.7367 17.2351 18.7734 17.3086C18.8467 17.3085 18.8833 17.272 18.9199 17.2354C18.8832 17.162 18.8467 17.052 18.7734 16.9785ZM16.6797 16.6104C16.643 16.6838 16.6055 16.7211 16.6055 16.7578L16.6426 16.8311C16.6792 16.7944 16.7526 16.7943 16.7529 16.7578C16.7529 16.7211 16.7164 16.6838 16.6797 16.6104ZM16.8262 12.7539C16.8262 12.7172 16.6426 12.79 16.6426 12.79C16.6793 12.9735 16.7167 13.1208 16.7168 13.2676C16.6801 13.8553 18.0022 14.2232 17.084 14.8477C17.4511 14.8843 17.7814 14.848 18.0752 14.958C18.3691 15.0682 18.5534 15.3616 18.8105 15.582C18.7371 15.1781 18.5903 14.9208 18.4434 14.627C18.1862 14.1494 18.0388 13.5983 17.3408 13.5615C17.2307 13.5613 17.1208 13.2681 17.0107 13.1211C16.9373 13.0109 16.8996 12.8641 16.8262 12.7539ZM14.0342 14.2959C14.1811 14.4796 14.3287 14.7001 14.4756 14.8838C14.5491 14.847 14.6591 14.7735 14.7324 14.7002C14.5855 14.5165 14.4018 14.2959 14.2549 14.1123C14.1815 14.1857 14.1076 14.2225 14.0342 14.2959ZM8.2666 14.5537C8.34006 14.5537 8.37733 14.5898 8.41406 14.5898C8.4508 14.4433 8.52383 14.3331 8.56055 14.1865C8.52382 14.1498 8.48692 14.1494 8.4502 14.1494C8.37677 14.2963 8.34004 14.4068 8.2666 14.5537ZM16.2383 14.0391C16.1649 14.0757 16.1285 14.1493 16.0918 14.2227C16.0918 14.2594 16.1277 14.3332 16.2012 14.4434C16.2746 14.2965 16.3115 14.2228 16.3115 14.1494C16.3115 14.1127 16.275 14.0758 16.2383 14.0391ZM14.2178 13.1943C14.5117 13.525 14.6962 13.7083 14.8799 13.9287C14.99 13.7085 15.1002 13.525 15.2471 13.3047C14.9532 13.268 14.6953 13.2311 14.2178 13.1943ZM14.0352 13.3779C13.8879 13.4516 13.74 13.4886 13.5928 13.5254L13.6299 13.709C13.777 13.6722 13.9242 13.6724 14.0713 13.6357C14.0345 13.5253 14.0352 13.4516 14.0352 13.3779ZM15.6133 13.2314C15.5768 13.2318 15.5404 13.2673 15.5039 13.2676C15.5406 13.3777 15.6137 13.4514 15.6504 13.5615C15.6871 13.5248 15.7244 13.4877 15.7979 13.5244C15.7245 13.4143 15.6867 13.3416 15.6133 13.2314ZM9.14844 12.9736C9.11164 12.9742 9.03809 13.1211 9.03809 13.1211C9.07475 13.1944 9.1484 13.2673 9.22168 13.2676C9.25841 13.2676 9.33279 13.1946 9.40625 13.1211C9.25934 13.0844 9.18517 13.0104 9.14844 12.9736ZM12.123 12.6064C12.1597 12.6064 12.1968 12.643 12.2334 12.6797C12.27 12.5697 12.27 12.4962 12.3066 12.4229C12.3066 12.3861 12.2334 12.3857 12.2334 12.3857L12.123 12.6064ZM16.7539 11.9824C16.7537 12.0557 16.7163 12.1288 16.6797 12.2021C16.9001 12.2756 17.0843 12.3865 17.3047 12.46C17.3414 12.3865 17.3779 12.3127 17.3779 12.2393C17.1577 12.1658 16.9741 12.0559 16.7539 11.9824ZM15.4297 11.5781C15.3563 11.7249 15.2826 11.7986 15.3193 11.8721C15.356 11.9087 15.4296 11.9818 15.5029 12.0186C15.5396 11.9453 15.613 11.8721 15.6133 11.7988C15.6133 11.7254 15.5399 11.6883 15.4297 11.5781ZM12.3818 11.5049C12.3452 11.5783 12.3443 11.6512 12.3076 11.7246C12.4912 11.7613 12.7119 11.8353 12.8955 11.8721C12.8955 11.7986 12.933 11.7619 12.9697 11.6885C12.7862 11.6151 12.5654 11.5782 12.3818 11.5049ZM19.7646 11.541C19.6914 11.5777 19.6548 11.6147 19.6182 11.6514C19.5815 11.6881 19.6186 11.7245 19.6553 11.7979C19.7283 11.7614 19.7652 11.7614 19.8018 11.6885C19.8385 11.6517 19.7646 11.5777 19.7646 11.541ZM4.18848 11.2842C4.15167 11.2845 4.07812 11.3579 4.07812 11.3945C4.07831 11.4313 4.11573 11.5045 4.15234 11.6143C4.22568 11.5044 4.29924 11.4678 4.33594 11.3945C4.33594 11.3578 4.2252 11.3209 4.18848 11.2842ZM14.3701 7.64355C14.3702 7.36861 14.6862 7.21553 14.9023 7.38379L16.9678 8.99219C17.1371 9.12417 17.1371 9.38072 16.9678 9.5127L16.834 9.61621C16.7947 9.59658 16.7551 9.57725 16.7158 9.55762C16.6792 9.55802 16.6421 9.63134 16.6055 9.66797C16.621 9.69894 16.6439 9.72267 16.667 9.74609L14.9023 11.1211C14.8063 11.1959 14.6917 11.2045 14.5928 11.1699C14.8527 11.0178 15.0035 10.7573 15.0264 10.2559C14.7956 10.5097 14.592 10.7329 14.3828 10.9561C14.3742 10.9266 14.3701 10.8947 14.3701 10.8613V10.3408H14.1855C14.1963 10.3247 14.2066 10.3079 14.2178 10.292C14.4015 10.0717 14.6957 9.96193 14.916 9.77832C14.9895 9.70484 14.9893 9.55746 14.9893 9.44727C14.8791 9.44727 14.7317 9.4109 14.6582 9.48438C14.2667 9.7691 13.8747 10.0874 13.5166 10.3408H11.5771C11.3833 10.3407 11.2257 10.1841 11.2256 9.99023V8.51465C11.2257 8.32078 11.3833 8.16317 11.5771 8.16309H14.3701V7.64355ZM4.74023 11.1006H4.84961C4.8863 10.9905 4.88672 10.8435 4.88672 10.7334H4.74023V11.1006ZM13.4463 10.8799C13.4253 10.8589 13.4048 10.8361 13.3838 10.8135H13.4473C13.4472 10.8351 13.4463 10.8572 13.4463 10.8799ZM12.2715 10.1084C12.2715 10.1451 12.3441 10.1821 12.3809 10.2188C12.4176 10.182 12.4912 10.1451 12.4912 10.1084C12.5279 10.0717 12.4547 10.0352 12.418 9.96191L12.2715 10.1084ZM13.8506 9.66797C13.7771 9.74127 13.6667 9.77818 13.5566 9.85156C13.5933 9.88828 13.5936 9.9252 13.667 9.96191C13.7404 9.88853 13.8504 9.81459 13.9238 9.74121L13.8506 9.66797ZM3.49219 9.41016C3.38176 9.52059 3.27059 9.66789 3.16016 9.77832L3.27051 9.88867C3.38089 9.77829 3.52826 9.668 3.63867 9.55762C3.56523 9.48418 3.52894 9.44691 3.49219 9.41016ZM19.582 9.08008C19.4348 9.11689 19.2869 9.19073 19.1396 9.22754C19.1399 9.26432 19.1765 9.33719 19.1768 9.37402L19.6182 9.26367C19.5817 9.22676 19.582 9.15341 19.582 9.08008ZM14.1445 8.93262C14.1078 8.96935 14.0338 9.00624 13.9971 9.04297C13.9971 9.0797 14.0346 9.1537 14.0713 9.19043C14.1079 9.1538 14.1803 9.1167 14.1807 9.08008C14.2174 9.04335 14.1813 9.00607 14.1445 8.93262ZM19.1768 8.05176C19.14 8.1251 19.066 8.19814 19.0293 8.27148C19.066 8.30821 19.0668 8.308 19.1035 8.34473L19.2871 8.16113C19.2505 8.16113 19.2134 8.12491 19.1768 8.05176ZM19.8389 7.46289C19.6553 7.09577 19.6548 7.09645 18.7734 7.53711C18.7734 7.61035 18.7731 7.6836 18.8096 7.75684C19.1402 7.64663 19.4715 7.5731 19.8389 7.46289ZM16.7158 6.61816C16.6056 6.83858 16.5321 7.02275 16.4219 7.24316C16.4953 7.27988 16.5321 7.3168 16.6055 7.35352C16.7523 7.16993 16.8625 6.94925 16.9727 6.76562C16.8626 6.72885 16.7892 6.65486 16.7158 6.61816ZM16.2021 6.50879C16.1654 6.54534 16.0914 6.54536 16.0547 6.58203C16.0914 6.72889 16.1654 6.8756 16.2021 7.02246C16.2756 7.02242 16.349 6.98593 16.3857 6.94922C16.3123 6.80242 16.2755 6.65559 16.2021 6.50879ZM15.9072 6.25098C15.9072 6.25098 15.9439 6.28761 15.9805 6.32422C16.017 6.28765 16.0544 6.25141 16.0547 6.21484C16.0908 6.21461 16.0542 6.17724 16.0176 6.14062L15.9072 6.25098ZM14.1816 6.10449C14.1817 6.14111 14.218 6.17789 14.1816 6.25098H14.9531V6.10449H14.1816ZM4.41016 5.58984C4.15303 5.66331 3.89521 5.73649 3.6748 5.84668C3.63813 5.88335 3.67467 6.06689 3.6748 6.14062C3.93193 5.9937 4.15265 5.88364 4.37305 5.77344C4.37305 5.73663 4.37349 5.66317 4.41016 5.58984ZM9.40527 5.36914C9.36868 5.36942 9.33145 5.40625 9.22168 5.40625C9.25841 5.51644 9.2953 5.59001 9.33203 5.7002C9.36875 5.66348 9.40567 5.66309 9.44238 5.66309C9.4423 5.58963 9.40527 5.47921 9.40527 5.36914ZM7.45801 5.40625H7.6416V4.67188H7.49512C7.49508 4.92886 7.45801 5.14923 7.45801 5.40625ZM13.9238 4.8916C13.9606 4.92833 13.998 5.00211 13.998 5.1123C14.2183 5.00222 14.4018 4.92889 14.6221 4.85547C14.5854 4.78212 14.5854 4.7451 14.5488 4.67188C14.3284 4.74535 14.1442 4.81813 13.9238 4.8916ZM17.1572 4.34082C17.1205 4.56123 17.0475 4.81865 17.0107 5.03906C17.084 5.0392 17.1572 5.07609 17.2305 5.07617C17.3039 4.85584 17.3406 4.59829 17.4141 4.37793C17.3407 4.3413 17.2673 4.34082 17.1572 4.34082ZM6.80762 0.881836C7.25965 0.429981 7.91051 0.299581 8.47852 0.488281C8.35417 0.505177 8.2365 0.524085 8.11914 0.557617C7.89886 0.594462 7.67829 0.741025 7.45801 0.814453C7.53133 0.851117 7.56821 0.887755 7.56836 0.960938C7.75202 0.997671 7.89897 0.998429 8.0459 1.03516C8.33979 1.07189 8.67096 1.10877 8.96484 1.14551V0.748047C9.01755 0.789133 9.06871 0.833384 9.11719 0.881836C9.75499 1.51964 9.75499 2.55458 9.11719 3.19238C8.47944 3.82982 7.44535 3.82985 6.80762 3.19238C6.58609 2.97084 6.44263 2.70108 6.375 2.41699C6.40823 2.42325 6.43983 2.43066 6.4668 2.43066C6.4668 2.39394 6.50293 2.31993 6.50293 2.2832H6.34961C6.27443 1.78728 6.42593 1.26355 6.80762 0.881836ZM14.8066 3.01855C14.77 3.09181 14.7326 3.12841 14.7324 3.16504C14.7324 3.16504 14.7695 3.20253 14.7695 3.23926C14.8063 3.20253 14.8799 3.20177 14.8799 3.16504C14.8797 3.12845 14.8432 3.09165 14.8066 3.01855ZM17.708 1.58594C17.5244 1.84302 17.4137 2.02648 17.1934 2.32031C17.4136 2.32031 17.6343 2.35741 17.7812 2.28418C17.8915 2.24744 17.9648 1.98934 17.9648 1.80566C17.964 1.73222 17.7814 1.62263 17.708 1.58594ZM9.03809 1.91602C9.14827 1.95274 9.25896 2.02675 9.36914 2.06348C9.36914 2.0268 9.4057 1.95324 9.44238 1.87988C9.33228 1.80648 9.2224 1.76912 9.1123 1.73242C9.07559 1.80585 9.07478 1.84261 9.03809 1.91602ZM14.916 1.03516C14.8426 1.03519 14.7687 1.07129 14.6953 1.07129C14.732 1.2917 14.806 1.4755 14.8428 1.65918C14.9162 1.65914 14.9529 1.62207 15.0264 1.62207C14.9897 1.43861 14.9527 1.21863 14.916 1.03516ZM17.6348 0.0800781C17.5981 0.0803908 17.5611 0.152803 17.5244 0.189453C17.5611 0.226104 17.5981 0.299496 17.6348 0.299805C17.6715 0.299805 17.7088 0.226181 17.7822 0.189453C17.7455 0.116086 17.6715 0.0800781 17.6348 0.0800781Z" fill="#D4B56A"/>
</svg>
