<svg width="151" height="37" viewBox="0 0 151 37" fill="none" xmlns="http://www.w3.org/2000/svg">
<path d="M139.761 36.7684C138.704 36.7684 137.688 36.5153 136.785 36.0481C135.881 36.5153 134.865 36.7684 133.808 36.7684H129.221C128.438 36.7684 127.674 36.63 126.956 36.3618C125.995 36.632 124.967 36.7684 123.887 36.7684H118.422C116.847 36.7684 115.37 36.4718 114.063 35.9001C112.756 36.4717 111.279 36.7684 109.704 36.7684H104.239C103.221 36.7684 102.249 36.647 101.334 36.4063C100.652 36.6451 99.9305 36.7684 99.1967 36.7684H94.3172C93.8256 36.7684 93.3422 36.714 92.8707 36.606C92.3989 36.714 91.9148 36.7684 91.4222 36.7684H86.7054C85.4935 36.7684 84.3421 36.4331 83.3549 35.8368C82.3678 36.4331 81.2163 36.7684 80.0043 36.7684H71.0262C69.2192 36.7684 67.5829 36.0248 66.4069 34.8273C65.2311 36.0248 63.5948 36.7684 61.7878 36.7684H57.1035C56.8862 36.7684 56.6683 36.7575 56.4518 36.7358C56.2359 36.7575 56.0187 36.7684 55.8022 36.7684H51.0528C50.3541 36.7684 49.6698 36.6579 49.0197 36.443C48.3695 36.6579 47.6853 36.7684 46.9867 36.7684H42.2374C41.9327 36.7684 41.6287 36.7469 41.3274 36.7042C41.0259 36.7469 40.7212 36.7684 40.4156 36.7684H35.1457C33.4129 36.7684 31.8657 36.4815 30.5236 35.9134C29.1803 36.4817 27.6353 36.7684 25.9077 36.7684H20.085C19.4354 36.7684 18.7947 36.6716 18.182 36.4832C17.5693 36.6716 16.9287 36.7684 16.2789 36.7684H7.30085C3.72961 36.7684 0.824219 33.863 0.824219 30.2918V6.70813C0.824219 3.1369 3.72961 0.231506 7.30085 0.231506H16.4741C17.3036 0.231506 18.1239 0.393071 18.8874 0.699262C19.891 0.388325 20.9665 0.231506 22.1018 0.231506H28.6076C29.4817 0.231506 30.3387 0.408022 31.1305 0.74295C32.1147 0.405864 33.1642 0.231506 34.235 0.231506H40.4481C41.515 0.231506 42.5528 0.499881 43.4735 0.987183C44.3944 0.499881 45.4319 0.231506 46.4988 0.231506H51.5408C52.5213 0.231506 53.4672 0.448277 54.3223 0.854506C55.1775 0.448277 56.1232 0.231506 57.1035 0.231506H66.3744C67.2775 0.231506 68.1481 0.342762 68.9765 0.563415C69.6331 0.344487 70.3243 0.231506 71.0262 0.231506H80.1995C81.3694 0.231506 82.4856 0.543719 83.4528 1.10491C84.42 0.543719 85.5361 0.231506 86.7054 0.231506H95.651C97.1578 0.231506 98.5792 0.515694 99.8474 1.06351C101.116 0.515844 102.537 0.231506 104.044 0.231506H109.899C111.392 0.231506 112.803 0.510948 114.063 1.0497C115.323 0.510948 116.733 0.231506 118.227 0.231506H124.082C125.109 0.231506 126.09 0.360882 127.014 0.617326C127.716 0.362739 128.46 0.231506 129.221 0.231506H134.198C135.088 0.231506 135.963 0.417663 136.768 0.765817C137.573 0.417513 138.448 0.231506 139.338 0.231506H144.348C147.919 0.231506 150.824 3.1369 150.824 6.70813V30.2918C150.824 33.8631 147.919 36.7685 144.348 36.7685L139.761 36.7684Z" fill="#A00000"/>
<path d="M144.348 3.17542H139.338C138.34 3.17542 137.42 3.59416 136.769 4.28384C136.117 3.59416 135.197 3.17542 134.199 3.17542H129.222C128.472 3.17542 127.777 3.40901 127.205 3.80717C126.297 3.39693 125.245 3.17542 124.082 3.17542H118.227C116.589 3.17542 115.17 3.61513 114.063 4.40314C112.957 3.61513 111.538 3.17542 109.899 3.17542H104.044C102.39 3.17542 100.959 3.62391 99.8478 4.42657C98.7365 3.62389 97.3058 3.17542 95.6515 3.17542H86.7058C85.2442 3.17542 83.9899 4.06306 83.4526 5.32873C82.9092 4.04595 81.6414 3.17542 80.1999 3.17542H71.0266C70.3292 3.17542 69.6787 3.37767 69.131 3.72653C68.3148 3.36904 67.3862 3.17542 66.3748 3.17542H57.1039C55.9748 3.17542 54.9693 3.70511 54.3226 4.52965C53.6706 3.69808 52.6583 3.17542 51.5413 3.17542H46.4992C45.2314 3.17542 44.0982 3.84887 43.4738 4.88326C42.8494 3.84844 41.7161 3.17542 40.4485 3.17542H34.2354C33.0383 3.17542 31.9071 3.48174 30.9406 4.05499C30.3137 3.504 29.4936 3.17542 28.608 3.17542H22.1022C20.811 3.17542 19.6558 3.44869 18.6825 3.95036C18.0735 3.46277 17.3027 3.17542 16.4746 3.17542H7.30126C5.35019 3.17542 3.76855 4.75706 3.76855 6.70812V30.2918C3.76855 32.2429 5.35019 33.8245 7.30126 33.8245H16.2794C16.9747 33.8245 17.6297 33.622 18.1824 33.2682C18.7352 33.622 19.3903 33.8245 20.0854 33.8245H25.9082C27.812 33.8245 29.3621 33.3933 30.526 32.5634C31.7075 33.4107 33.2292 33.8245 35.1462 33.8245H40.416C40.73 33.8245 41.0359 33.7833 41.3278 33.7054C41.6218 33.7837 41.9274 33.8245 42.2379 33.8245H46.9871C47.7392 33.8245 48.4422 33.5879 49.0201 33.181C49.5981 33.5881 50.3012 33.8245 51.0533 33.8245H55.8026C56.0221 33.8245 56.2393 33.8041 56.4516 33.7644C56.663 33.8038 56.8811 33.8245 57.104 33.8245H61.7882C63.7393 33.8245 65.3209 32.2429 65.3209 30.2918V27.5464H65.8217C66.4111 27.5464 66.9694 27.4971 67.4939 27.4009V30.2918C67.4939 32.2429 69.0756 33.8245 71.0266 33.8245H80.0047C81.5408 33.8245 82.8797 32.836 83.3549 31.4133C83.8238 32.8147 85.1468 33.8245 86.7059 33.8245H91.4226C91.9387 33.8245 92.429 33.7138 92.871 33.5149C93.316 33.7148 93.8071 33.8245 94.3176 33.8245H99.1971C99.8985 33.8245 100.573 33.6164 101.143 33.2401C102.047 33.6214 103.087 33.8245 104.239 33.8245H109.704C111.44 33.8245 112.922 33.3634 114.063 32.5275C115.205 33.3634 116.687 33.8245 118.422 33.8245H123.887C125.116 33.8245 126.218 33.5934 127.161 33.1616C127.741 33.5789 128.453 33.8245 129.222 33.8245H133.809C135.059 33.8245 136.157 33.1752 136.785 32.1956C137.413 33.1752 138.511 33.8245 139.761 33.8245H144.348C146.299 33.8245 147.881 32.2429 147.881 30.2918V6.70812C147.881 4.75706 146.299 3.17542 144.348 3.17542Z" fill="url(#paint0_linear_118_16494)"/>
<g filter="url(#filter0_d_118_16494)">
<mask id="path-3-outside-1_118_16494" maskUnits="userSpaceOnUse" x="10.9326" y="5.92197" width="129" height="25" fill="black">
<rect fill="white" x="10.9326" y="5.92197" width="129" height="25"/>
<path d="M12.2604 28.922V7.17197H20.7204L21.4704 11.222H16.7304V16.382H20.3304V20.132H16.7304V24.872H21.2904L20.5404 28.922H12.2604ZM29.433 28.922H24.063L23.283 24.872H27.963C28.353 24.872 28.473 24.752 28.473 24.422V20.462C28.473 19.862 28.263 19.832 27.663 19.832H25.413C24.123 19.832 22.983 19.532 22.983 17.372V9.99197C22.983 8.28197 23.883 7.17197 25.923 7.17197H31.923L32.673 11.222H27.753C27.393 11.222 27.213 11.372 27.213 11.702V15.662C27.213 16.112 27.423 16.232 27.873 16.232H30.603C31.983 16.232 32.763 16.832 32.763 18.452V25.622C32.763 28.022 31.923 28.922 29.433 28.922ZM42.8053 28.922H37.9453C35.4553 28.922 34.5553 27.962 34.5553 25.562V9.84197C34.5553 8.13197 35.6653 7.17197 37.1053 7.17197H42.8353L43.5853 11.222H39.4153C39.1153 11.222 39.0253 11.372 39.0253 11.642V24.452C39.0253 24.722 39.1153 24.872 39.4153 24.872H43.5853L42.8053 28.922ZM52.2129 26.222H49.2429L48.8529 28.922H44.4729L48.4029 7.17197H53.0529L56.9829 28.922H52.6029L52.2129 26.222ZM50.7429 15.062L49.7229 22.772H51.7329L50.7429 15.062ZM64.6786 10.982H62.4886V19.532H64.6486C65.0086 19.532 65.0686 19.412 65.0686 19.082V11.402C65.0686 11.132 64.9786 10.982 64.6786 10.982ZM58.1686 7.17197H66.7186C68.4286 7.17197 69.2986 8.22196 69.2986 9.81197V20.222C69.2986 21.872 68.6386 23.132 66.2086 23.132H62.4886V28.922H58.1686V7.17197ZM71.0006 28.922V7.17197H79.4606L80.2106 11.222H75.4706V16.382H79.0706V20.132H75.4706V24.872H80.0306L79.2806 28.922H71.0006ZM91.9532 10.982H89.8232V18.482H91.9532C92.2832 18.482 92.3732 18.362 92.3732 18.032V11.432C92.3732 11.162 92.2532 10.982 91.9532 10.982ZM96.6632 9.99197V20.072C96.6632 21.032 95.9732 21.992 94.7132 21.992L96.9932 28.922H92.4932L90.3932 21.992H89.8232V28.922H85.4732V7.17197H93.7232C95.7632 7.17197 96.6632 8.28197 96.6632 9.99197ZM104.99 10.982H103.28C102.98 10.982 102.89 11.132 102.89 11.402V24.662C102.89 24.992 102.95 25.112 103.31 25.112H104.96C105.32 25.112 105.38 24.992 105.38 24.662V11.402C105.38 11.132 105.29 10.982 104.99 10.982ZM109.79 9.99197V25.832C109.79 27.482 109.1 28.922 106.67 28.922H101.63C99.2004 28.922 98.5104 27.482 98.5104 25.832V9.99197C98.5104 8.28197 99.4104 7.17197 101.45 7.17197H106.85C108.89 7.17197 109.79 8.28197 109.79 9.99197ZM118.057 10.982H116.347C116.047 10.982 115.957 11.132 115.957 11.402V24.662C115.957 24.992 116.017 25.112 116.377 25.112H118.027C118.387 25.112 118.447 24.992 118.447 24.662V11.402C118.447 11.132 118.357 10.982 118.057 10.982ZM122.857 9.99197V25.832C122.857 27.482 122.167 28.922 119.737 28.922H114.697C112.267 28.922 111.577 27.482 111.577 25.832V9.99197C111.577 8.28197 112.477 7.17197 114.517 7.17197H119.917C121.957 7.17197 122.857 8.28197 122.857 9.99197ZM131.603 27.362L128.873 18.662V28.922H124.643V7.17197H129.233L131.603 16.352L133.973 7.17197H138.593V28.922H134.363V18.662L131.603 27.362Z"/>
</mask>
<path d="M12.2604 28.922V7.17197H20.7204L21.4704 11.222H16.7304V16.382H20.3304V20.132H16.7304V24.872H21.2904L20.5404 28.922H12.2604ZM29.433 28.922H24.063L23.283 24.872H27.963C28.353 24.872 28.473 24.752 28.473 24.422V20.462C28.473 19.862 28.263 19.832 27.663 19.832H25.413C24.123 19.832 22.983 19.532 22.983 17.372V9.99197C22.983 8.28197 23.883 7.17197 25.923 7.17197H31.923L32.673 11.222H27.753C27.393 11.222 27.213 11.372 27.213 11.702V15.662C27.213 16.112 27.423 16.232 27.873 16.232H30.603C31.983 16.232 32.763 16.832 32.763 18.452V25.622C32.763 28.022 31.923 28.922 29.433 28.922ZM42.8053 28.922H37.9453C35.4553 28.922 34.5553 27.962 34.5553 25.562V9.84197C34.5553 8.13197 35.6653 7.17197 37.1053 7.17197H42.8353L43.5853 11.222H39.4153C39.1153 11.222 39.0253 11.372 39.0253 11.642V24.452C39.0253 24.722 39.1153 24.872 39.4153 24.872H43.5853L42.8053 28.922ZM52.2129 26.222H49.2429L48.8529 28.922H44.4729L48.4029 7.17197H53.0529L56.9829 28.922H52.6029L52.2129 26.222ZM50.7429 15.062L49.7229 22.772H51.7329L50.7429 15.062ZM64.6786 10.982H62.4886V19.532H64.6486C65.0086 19.532 65.0686 19.412 65.0686 19.082V11.402C65.0686 11.132 64.9786 10.982 64.6786 10.982ZM58.1686 7.17197H66.7186C68.4286 7.17197 69.2986 8.22196 69.2986 9.81197V20.222C69.2986 21.872 68.6386 23.132 66.2086 23.132H62.4886V28.922H58.1686V7.17197ZM71.0006 28.922V7.17197H79.4606L80.2106 11.222H75.4706V16.382H79.0706V20.132H75.4706V24.872H80.0306L79.2806 28.922H71.0006ZM91.9532 10.982H89.8232V18.482H91.9532C92.2832 18.482 92.3732 18.362 92.3732 18.032V11.432C92.3732 11.162 92.2532 10.982 91.9532 10.982ZM96.6632 9.99197V20.072C96.6632 21.032 95.9732 21.992 94.7132 21.992L96.9932 28.922H92.4932L90.3932 21.992H89.8232V28.922H85.4732V7.17197H93.7232C95.7632 7.17197 96.6632 8.28197 96.6632 9.99197ZM104.99 10.982H103.28C102.98 10.982 102.89 11.132 102.89 11.402V24.662C102.89 24.992 102.95 25.112 103.31 25.112H104.96C105.32 25.112 105.38 24.992 105.38 24.662V11.402C105.38 11.132 105.29 10.982 104.99 10.982ZM109.79 9.99197V25.832C109.79 27.482 109.1 28.922 106.67 28.922H101.63C99.2004 28.922 98.5104 27.482 98.5104 25.832V9.99197C98.5104 8.28197 99.4104 7.17197 101.45 7.17197H106.85C108.89 7.17197 109.79 8.28197 109.79 9.99197ZM118.057 10.982H116.347C116.047 10.982 115.957 11.132 115.957 11.402V24.662C115.957 24.992 116.017 25.112 116.377 25.112H118.027C118.387 25.112 118.447 24.992 118.447 24.662V11.402C118.447 11.132 118.357 10.982 118.057 10.982ZM122.857 9.99197V25.832C122.857 27.482 122.167 28.922 119.737 28.922H114.697C112.267 28.922 111.577 27.482 111.577 25.832V9.99197C111.577 8.28197 112.477 7.17197 114.517 7.17197H119.917C121.957 7.17197 122.857 8.28197 122.857 9.99197ZM131.603 27.362L128.873 18.662V28.922H124.643V7.17197H129.233L131.603 16.352L133.973 7.17197H138.593V28.922H134.363V18.662L131.603 27.362Z" fill="#EDC766"/>
<path d="M12.2604 28.922H11.2604V29.922H12.2604V28.922ZM12.2604 7.17197V6.17197H11.2604V7.17197H12.2604ZM20.7204 7.17197L21.7036 6.98988L21.5522 6.17197H20.7204V7.17197ZM21.4704 11.222V12.222H22.6725L22.4536 11.0399L21.4704 11.222ZM16.7304 11.222V10.222H15.7304V11.222H16.7304ZM16.7304 16.382H15.7304V17.382H16.7304V16.382ZM20.3304 16.382H21.3304V15.382H20.3304V16.382ZM20.3304 20.132V21.132H21.3304V20.132H20.3304ZM16.7304 20.132V19.132H15.7304V20.132H16.7304ZM16.7304 24.872H15.7304V25.872H16.7304V24.872ZM21.2904 24.872L22.2736 25.0541L22.4925 23.872H21.2904V24.872ZM20.5404 28.922V29.922H21.3722L21.5236 29.1041L20.5404 28.922ZM13.2604 28.922V7.17197H11.2604V28.922H13.2604ZM12.2604 8.17197H20.7204V6.17197H12.2604V8.17197ZM19.7371 7.35406L20.4871 11.4041L22.4536 11.0399L21.7036 6.98988L19.7371 7.35406ZM21.4704 10.222H16.7304V12.222H21.4704V10.222ZM15.7304 11.222V16.382H17.7304V11.222H15.7304ZM16.7304 17.382H20.3304V15.382H16.7304V17.382ZM19.3304 16.382V20.132H21.3304V16.382H19.3304ZM20.3304 19.132H16.7304V21.132H20.3304V19.132ZM15.7304 20.132V24.872H17.7304V20.132H15.7304ZM16.7304 25.872H21.2904V23.872H16.7304V25.872ZM20.3071 24.6899L19.5571 28.7399L21.5236 29.1041L22.2736 25.0541L20.3071 24.6899ZM20.5404 27.922H12.2604V29.922H20.5404V27.922ZM24.063 28.922L23.0811 29.1111L23.2372 29.922H24.063V28.922ZM23.283 24.872V23.872H22.072L22.3011 25.0611L23.283 24.872ZM31.923 7.17197L32.9063 6.98988L32.7548 6.17197H31.923V7.17197ZM32.673 11.222V12.222H33.8752L33.6563 11.0399L32.673 11.222ZM29.433 27.922H24.063V29.922H29.433V27.922ZM25.045 28.7328L24.265 24.6828L22.3011 25.0611L23.0811 29.1111L25.045 28.7328ZM23.283 25.872H27.963V23.872H23.283V25.872ZM27.963 25.872C28.2 25.872 28.6623 25.8496 29.0352 25.5123C29.4397 25.1463 29.473 24.6611 29.473 24.422H27.473C27.473 24.5128 27.4463 24.2527 27.6933 24.0292C27.8068 23.9265 27.9179 23.8895 27.9663 23.8775C28.0086 23.867 28.0168 23.872 27.963 23.872V25.872ZM29.473 24.422V20.462H27.473V24.422H29.473ZM29.473 20.462C29.473 20.1326 29.4359 19.4704 28.8363 19.0824C28.5856 18.9202 28.3269 18.8725 28.159 18.8528C27.989 18.8329 27.8079 18.832 27.663 18.832V20.832C27.8181 20.832 27.8883 20.8348 27.9264 20.8392C27.9667 20.844 27.8729 20.8412 27.7498 20.7615C27.6824 20.718 27.62 20.6603 27.5695 20.5916C27.5206 20.5252 27.4949 20.465 27.4821 20.4266C27.4614 20.3643 27.473 20.3542 27.473 20.462H29.473ZM27.663 18.832H25.413V20.832H27.663V18.832ZM25.413 18.832C24.7955 18.832 24.4887 18.7467 24.3259 18.6208C24.2213 18.5399 23.983 18.2894 23.983 17.372H21.983C21.983 18.6145 22.3148 19.594 23.1026 20.2031C23.8323 20.7672 24.7405 20.832 25.413 20.832V18.832ZM23.983 17.372V9.99197H21.983V17.372H23.983ZM23.983 9.99197C23.983 9.30302 24.163 8.8855 24.4033 8.63959C24.639 8.39834 25.0797 8.17197 25.923 8.17197V6.17197C24.7264 6.17197 23.697 6.50059 22.9728 7.24185C22.253 7.97843 21.983 8.97091 21.983 9.99197H23.983ZM25.923 8.17197H31.923V6.17197H25.923V8.17197ZM30.9397 7.35406L31.6897 11.4041L33.6563 11.0399L32.9063 6.98988L30.9397 7.35406ZM32.673 10.222H27.753V12.222H32.673V10.222ZM27.753 10.222C27.4602 10.222 27.04 10.2789 26.6895 10.5856C26.3116 10.9163 26.213 11.3585 26.213 11.702H28.213C28.213 11.7154 28.2044 11.9176 28.0065 12.0908C27.836 12.24 27.6858 12.222 27.753 12.222V10.222ZM26.213 11.702V15.662H28.213V11.702H26.213ZM26.213 15.662C26.213 16.0185 26.2957 16.5367 26.7529 16.8992C27.1468 17.2117 27.6175 17.232 27.873 17.232V15.232C27.7981 15.232 27.7802 15.2263 27.7952 15.2296C27.8139 15.2337 27.8985 15.2552 27.9957 15.3322C28.1018 15.4164 28.1644 15.5204 28.1942 15.6034C28.2189 15.6723 28.213 15.7039 28.213 15.662H26.213ZM27.873 17.232H30.603V15.232H27.873V17.232ZM30.603 17.232C31.1717 17.232 31.4065 17.3586 31.5083 17.4561C31.6023 17.5463 31.763 17.7854 31.763 18.452H33.763C33.763 17.4986 33.5338 16.6276 32.8927 16.0128C32.2595 15.4054 31.4144 15.232 30.603 15.232V17.232ZM31.763 18.452V25.622H33.763V18.452H31.763ZM31.763 25.622C31.763 26.7538 31.5542 27.2336 31.3221 27.4674C31.0911 27.7 30.605 27.922 29.433 27.922V29.922C30.751 29.922 31.9299 29.6939 32.7414 28.8765C33.5518 28.0603 33.763 26.8901 33.763 25.622H31.763ZM42.8053 28.922V29.922H43.6311L43.7872 29.1111L42.8053 28.922ZM42.8353 7.17197L43.8186 6.98988L43.6671 6.17197H42.8353V7.17197ZM43.5853 11.222V12.222H44.7875L44.5686 11.0399L43.5853 11.222ZM43.5853 24.872L44.5672 25.0611L44.7962 23.872H43.5853V24.872ZM42.8053 27.922H37.9453V29.922H42.8053V27.922ZM37.9453 27.922C36.7889 27.922 36.2784 27.6914 36.0261 27.4373C35.7727 27.1821 35.5553 26.6778 35.5553 25.562H33.5553C33.5553 26.8462 33.7879 28.0218 34.607 28.8466C35.4272 29.6725 36.6116 29.922 37.9453 29.922V27.922ZM35.5553 25.562V9.84197H33.5553V25.562H35.5553ZM35.5553 9.84197C35.5553 9.21025 35.755 8.81323 35.9945 8.57573C36.2381 8.33411 36.6091 8.17197 37.1053 8.17197V6.17197C36.1615 6.17197 35.2575 6.48982 34.5861 7.15571C33.9106 7.8257 33.5553 8.76368 33.5553 9.84197H35.5553ZM37.1053 8.17197H42.8353V6.17197H37.1053V8.17197ZM41.852 7.35406L42.602 11.4041L44.5686 11.0399L43.8186 6.98988L41.852 7.35406ZM43.5853 10.222H39.4153V12.222H43.5853V10.222ZM39.4153 10.222C39.1134 10.222 38.6689 10.2994 38.3429 10.6866C38.0504 11.0339 38.0253 11.4375 38.0253 11.642H40.0253C40.0253 11.5764 40.0451 11.7701 39.8727 11.9749C39.6666 12.2196 39.4172 12.222 39.4153 12.222V10.222ZM38.0253 11.642V24.452H40.0253V11.642H38.0253ZM38.0253 24.452C38.0253 24.6564 38.0504 25.0601 38.3429 25.4074C38.6689 25.7946 39.1134 25.872 39.4153 25.872V23.872C39.4172 23.872 39.6666 23.8744 39.8727 24.1191C40.0451 24.3239 40.0253 24.5175 40.0253 24.452H38.0253ZM39.4153 25.872H43.5853V23.872H39.4153V25.872ZM42.6033 24.6828L41.8233 28.7328L43.7872 29.1111L44.5672 25.0611L42.6033 24.6828ZM52.2129 26.222L53.2026 26.079L53.0788 25.222H52.2129V26.222ZM49.2429 26.222V25.222H48.3769L48.2531 26.079L49.2429 26.222ZM48.8529 28.922V29.922H49.7188L49.8426 29.0649L48.8529 28.922ZM44.4729 28.922L43.4888 28.7442L43.276 29.922H44.4729V28.922ZM48.4029 7.17197V6.17197H47.5673L47.4188 6.99416L48.4029 7.17197ZM53.0529 7.17197L54.0369 6.99416L53.8884 6.17197H53.0529V7.17197ZM56.9829 28.922V29.922H58.1797L57.9669 28.7442L56.9829 28.922ZM52.6029 28.922L51.6131 29.0649L51.7369 29.922H52.6029V28.922ZM50.7429 15.062L51.7347 14.9346L49.7515 14.9308L50.7429 15.062ZM49.7229 22.772L48.7315 22.6408L48.5818 23.772H49.7229V22.772ZM51.7329 22.772V23.772H52.8695L52.7247 22.6446L51.7329 22.772ZM52.2129 25.222H49.2429V27.222H52.2129V25.222ZM48.2531 26.079L47.8631 28.779L49.8426 29.0649L50.2326 26.3649L48.2531 26.079ZM48.8529 27.922H44.4729V29.922H48.8529V27.922ZM45.4569 29.0998L49.3869 7.34978L47.4188 6.99416L43.4888 28.7442L45.4569 29.0998ZM48.4029 8.17197H53.0529V6.17197H48.4029V8.17197ZM52.0688 7.34978L55.9988 29.0998L57.9669 28.7442L54.0369 6.99416L52.0688 7.34978ZM56.9829 27.922H52.6029V29.922H56.9829V27.922ZM53.5926 28.779L53.2026 26.079L51.2231 26.3649L51.6131 29.0649L53.5926 28.779ZM49.7515 14.9308L48.7315 22.6408L50.7142 22.9031L51.7342 15.1931L49.7515 14.9308ZM49.7229 23.772H51.7329V21.772H49.7229V23.772ZM52.7247 22.6446L51.7347 14.9346L49.751 15.1893L50.741 22.8993L52.7247 22.6446ZM62.4886 10.982V9.98197H61.4886V10.982H62.4886ZM62.4886 19.532H61.4886V20.532H62.4886V19.532ZM58.1686 7.17197V6.17197H57.1686V7.17197H58.1686ZM62.4886 23.132V22.132H61.4886V23.132H62.4886ZM62.4886 28.922V29.922H63.4886V28.922H62.4886ZM58.1686 28.922H57.1686V29.922H58.1686V28.922ZM64.6786 9.98197H62.4886V11.982H64.6786V9.98197ZM61.4886 10.982V19.532H63.4886V10.982H61.4886ZM62.4886 20.532H64.6486V18.532H62.4886V20.532ZM64.6486 20.532C64.8651 20.532 65.3887 20.5139 65.7585 20.0749C66.0826 19.69 66.0686 19.2124 66.0686 19.082H64.0686C64.0686 19.1452 64.0646 19.138 64.0721 19.1C64.0807 19.0556 64.1133 18.9235 64.2286 18.7866C64.3519 18.6403 64.4964 18.5742 64.5861 18.5481C64.6591 18.5268 64.6943 18.532 64.6486 18.532V20.532ZM66.0686 19.082V11.402H64.0686V19.082H66.0686ZM66.0686 11.402C66.0686 11.1975 66.0434 10.7939 65.751 10.4466C65.4249 10.0594 64.9805 9.98197 64.6786 9.98197V11.982C64.6766 11.982 64.4272 11.9796 64.2211 11.7349C64.0487 11.5301 64.0686 11.3364 64.0686 11.402H66.0686ZM58.1686 8.17197H66.7186V6.17197H58.1686V8.17197ZM66.7186 8.17197C67.3637 8.17197 67.7185 8.36389 67.9193 8.57867C68.1303 8.80427 68.2986 9.1919 68.2986 9.81197H70.2986C70.2986 8.84203 70.0318 7.90966 69.3803 7.21276C68.7186 6.50504 67.7834 6.17197 66.7186 6.17197V8.17197ZM68.2986 9.81197V20.222H70.2986V9.81197H68.2986ZM68.2986 20.222C68.2986 20.9407 68.1503 21.3723 67.9212 21.627C67.7105 21.8614 67.2614 22.132 66.2086 22.132V24.132C67.5857 24.132 68.6816 23.7725 69.4084 22.9644C70.1168 22.1766 70.2986 21.1532 70.2986 20.222H68.2986ZM66.2086 22.132H62.4886V24.132H66.2086V22.132ZM61.4886 23.132V28.922H63.4886V23.132H61.4886ZM62.4886 27.922H58.1686V29.922H62.4886V27.922ZM59.1686 28.922V7.17197H57.1686V28.922H59.1686ZM71.0006 28.922H70.0006V29.922H71.0006V28.922ZM71.0006 7.17197V6.17197H70.0006V7.17197H71.0006ZM79.4606 7.17197L80.4439 6.98988L80.2924 6.17197H79.4606V7.17197ZM80.2106 11.222V12.222H81.4128L81.1939 11.0399L80.2106 11.222ZM75.4706 11.222V10.222H74.4706V11.222H75.4706ZM75.4706 16.382H74.4706V17.382H75.4706V16.382ZM79.0706 16.382H80.0706V15.382H79.0706V16.382ZM79.0706 20.132V21.132H80.0706V20.132H79.0706ZM75.4706 20.132V19.132H74.4706V20.132H75.4706ZM75.4706 24.872H74.4706V25.872H75.4706V24.872ZM80.0306 24.872L81.0139 25.0541L81.2328 23.872H80.0306V24.872ZM79.2806 28.922V29.922H80.1124L80.2639 29.1041L79.2806 28.922ZM72.0006 28.922V7.17197H70.0006V28.922H72.0006ZM71.0006 8.17197H79.4606V6.17197H71.0006V8.17197ZM78.4773 7.35406L79.2273 11.4041L81.1939 11.0399L80.4439 6.98988L78.4773 7.35406ZM80.2106 10.222H75.4706V12.222H80.2106V10.222ZM74.4706 11.222V16.382H76.4706V11.222H74.4706ZM75.4706 17.382H79.0706V15.382H75.4706V17.382ZM78.0706 16.382V20.132H80.0706V16.382H78.0706ZM79.0706 19.132H75.4706V21.132H79.0706V19.132ZM74.4706 20.132V24.872H76.4706V20.132H74.4706ZM75.4706 25.872H80.0306V23.872H75.4706V25.872ZM79.0473 24.6899L78.2973 28.7399L80.2639 29.1041L81.0139 25.0541L79.0473 24.6899ZM79.2806 27.922H71.0006V29.922H79.2806V27.922ZM89.8232 10.982V9.98197H88.8232V10.982H89.8232ZM89.8232 18.482H88.8232V19.482H89.8232V18.482ZM94.7132 21.992V20.992H93.3315L93.7633 22.3045L94.7132 21.992ZM96.9932 28.922V29.922H98.375L97.9432 28.6094L96.9932 28.922ZM92.4932 28.922L91.5362 29.212L91.7514 29.922H92.4932V28.922ZM90.3932 21.992L91.3503 21.702L91.1351 20.992H90.3932V21.992ZM89.8232 21.992V20.992H88.8232V21.992H89.8232ZM89.8232 28.922V29.922H90.8232V28.922H89.8232ZM85.4732 28.922H84.4732V29.922H85.4732V28.922ZM85.4732 7.17197V6.17197H84.4732V7.17197H85.4732ZM91.9532 9.98197H89.8232V11.982H91.9532V9.98197ZM88.8232 10.982V18.482H90.8232V10.982H88.8232ZM89.8232 19.482H91.9532V17.482H89.8232V19.482ZM91.9532 19.482C92.1863 19.482 92.6711 19.4512 93.0322 19.0475C93.3645 18.6762 93.3732 18.22 93.3732 18.032H91.3732C91.3732 18.0775 91.3692 18.0607 91.3807 18.012C91.3938 17.9564 91.4328 17.8357 91.5418 17.7139C91.7754 17.4528 92.0502 17.482 91.9532 17.482V19.482ZM93.3732 18.032V11.432H91.3732V18.032H93.3732ZM93.3732 11.432C93.3732 11.1696 93.3176 10.7846 93.035 10.4549C92.7281 10.0968 92.3095 9.98197 91.9532 9.98197V11.982C91.897 11.982 91.6884 11.9571 91.5165 11.7565C91.4427 11.6704 91.4065 11.5851 91.3895 11.5268C91.3733 11.471 91.3732 11.4356 91.3732 11.432H93.3732ZM95.6632 9.99197V20.072H97.6632V9.99197H95.6632ZM95.6632 20.072C95.6632 20.5634 95.3408 20.992 94.7132 20.992V22.992C96.6057 22.992 97.6632 21.5006 97.6632 20.072H95.6632ZM93.7633 22.3045L96.0433 29.2345L97.9432 28.6094L95.6632 21.6794L93.7633 22.3045ZM96.9932 27.922H92.4932V29.922H96.9932V27.922ZM93.4503 28.632L91.3503 21.702L89.4362 22.282L91.5362 29.212L93.4503 28.632ZM90.3932 20.992H89.8232V22.992H90.3932V20.992ZM88.8232 21.992V28.922H90.8232V21.992H88.8232ZM89.8232 27.922H85.4732V29.922H89.8232V27.922ZM86.4732 28.922V7.17197H84.4732V28.922H86.4732ZM85.4732 8.17197H93.7232V6.17197H85.4732V8.17197ZM93.7232 8.17197C94.5666 8.17197 95.0073 8.39834 95.243 8.63959C95.4833 8.8855 95.6632 9.30302 95.6632 9.99197H97.6632C97.6632 8.97091 97.3932 7.97843 96.6735 7.24185C95.9492 6.50059 94.9199 6.17197 93.7232 6.17197V8.17197ZM104.99 9.98197H103.28V11.982H104.99V9.98197ZM103.28 9.98197C102.978 9.98197 102.534 10.0594 102.208 10.4466C101.915 10.7939 101.89 11.1975 101.89 11.402H103.89C103.89 11.3364 103.91 11.5301 103.738 11.7349C103.532 11.9796 103.282 11.982 103.28 11.982V9.98197ZM101.89 11.402V24.662H103.89V11.402H101.89ZM101.89 24.662C101.89 24.7924 101.876 25.27 102.2 25.6549C102.57 26.0939 103.094 26.112 103.31 26.112V24.112C103.265 24.112 103.3 24.1068 103.373 24.1281C103.463 24.1542 103.607 24.2203 103.73 24.3666C103.846 24.5035 103.878 24.6356 103.887 24.68C103.894 24.718 103.89 24.7252 103.89 24.662H101.89ZM103.31 26.112H104.96V24.112H103.31V26.112ZM104.96 26.112C105.177 26.112 105.701 26.0939 106.07 25.6549C106.394 25.27 106.38 24.7924 106.38 24.662H104.38C104.38 24.7252 104.376 24.718 104.384 24.68C104.393 24.6356 104.425 24.5035 104.54 24.3666C104.664 24.2203 104.808 24.1542 104.898 24.1281C104.971 24.1068 105.006 24.112 104.96 24.112V26.112ZM106.38 24.662V11.402H104.38V24.662H106.38ZM106.38 11.402C106.38 11.1975 106.355 10.7939 106.063 10.4466C105.737 10.0594 105.292 9.98197 104.99 9.98197V11.982C104.988 11.982 104.739 11.9796 104.533 11.7349C104.36 11.5301 104.38 11.3364 104.38 11.402H106.38ZM108.79 9.99197V25.832H110.79V9.99197H108.79ZM108.79 25.832C108.79 26.542 108.638 27.0407 108.376 27.352C108.142 27.6302 107.682 27.922 106.67 27.922V29.922C108.088 29.922 109.188 29.4937 109.907 28.6394C110.598 27.8183 110.79 26.7719 110.79 25.832H108.79ZM106.67 27.922H101.63V29.922H106.67V27.922ZM101.63 27.922C100.618 27.922 100.158 27.6302 99.9244 27.352C99.6625 27.0407 99.5104 26.542 99.5104 25.832H97.5104C97.5104 26.7719 97.7032 27.8183 98.3938 28.6394C99.1124 29.4937 100.212 29.922 101.63 29.922V27.922ZM99.5104 25.832V9.99197H97.5104V25.832H99.5104ZM99.5104 9.99197C99.5104 9.30302 99.6903 8.8855 99.9306 8.63959C100.166 8.39834 100.607 8.17197 101.45 8.17197V6.17197C100.254 6.17197 99.2244 6.50059 98.5001 7.24185C97.7804 7.97843 97.5104 8.97091 97.5104 9.99197H99.5104ZM101.45 8.17197H106.85V6.17197H101.45V8.17197ZM106.85 8.17197C107.694 8.17197 108.134 8.39834 108.37 8.63959C108.61 8.8855 108.79 9.30302 108.79 9.99197H110.79C110.79 8.97091 110.52 7.97843 109.801 7.24185C109.076 6.50059 108.047 6.17197 106.85 6.17197V8.17197ZM118.057 9.98197H116.347V11.982H118.057V9.98197ZM116.347 9.98197C116.045 9.98197 115.6 10.0594 115.274 10.4466C114.982 10.7939 114.957 11.1975 114.957 11.402H116.957C116.957 11.3364 116.977 11.5301 116.804 11.7349C116.598 11.9796 116.349 11.982 116.347 11.982V9.98197ZM114.957 11.402V24.662H116.957V11.402H114.957ZM114.957 24.662C114.957 24.7924 114.943 25.27 115.267 25.6549C115.637 26.0939 116.16 26.112 116.377 26.112V24.112C116.331 24.112 116.366 24.1068 116.439 24.1281C116.529 24.1542 116.673 24.2203 116.797 24.3666C116.912 24.5035 116.945 24.6356 116.953 24.68C116.961 24.718 116.957 24.7252 116.957 24.662H114.957ZM116.377 26.112H118.027V24.112H116.377V26.112ZM118.027 26.112C118.243 26.112 118.767 26.0939 119.137 25.6549C119.461 25.27 119.447 24.7924 119.447 24.662H117.447C117.447 24.7252 117.443 24.718 117.45 24.68C117.459 24.6356 117.492 24.5035 117.607 24.3666C117.73 24.2203 117.875 24.1542 117.964 24.1281C118.037 24.1068 118.072 24.112 118.027 24.112V26.112ZM119.447 24.662V11.402H117.447V24.662H119.447ZM119.447 11.402C119.447 11.1975 119.422 10.7939 119.129 10.4466C118.803 10.0594 118.359 9.98197 118.057 9.98197V11.982C118.055 11.982 117.805 11.9796 117.599 11.7349C117.427 11.5301 117.447 11.3364 117.447 11.402H119.447ZM121.857 9.99197V25.832H123.857V9.99197H121.857ZM121.857 25.832C121.857 26.542 121.705 27.0407 121.443 27.352C121.209 27.6302 120.749 27.922 119.737 27.922V29.922C121.155 29.922 122.255 29.4937 122.973 28.6394C123.664 27.8183 123.857 26.7719 123.857 25.832H121.857ZM119.737 27.922H114.697V29.922H119.737V27.922ZM114.697 27.922C113.685 27.922 113.225 27.6302 112.991 27.352C112.729 27.0407 112.577 26.542 112.577 25.832H110.577C110.577 26.7719 110.77 27.8183 111.46 28.6394C112.179 29.4937 113.279 29.922 114.697 29.922V27.922ZM112.577 25.832V9.99197H110.577V25.832H112.577ZM112.577 9.99197C112.577 9.30302 112.757 8.8855 112.997 8.63959C113.233 8.39834 113.673 8.17197 114.517 8.17197V6.17197C113.32 6.17197 112.291 6.50059 111.567 7.24185C110.847 7.97843 110.577 8.97091 110.577 9.99197H112.577ZM114.517 8.17197H119.917V6.17197H114.517V8.17197ZM119.917 8.17197C120.76 8.17197 121.201 8.39834 121.437 8.63959C121.677 8.8855 121.857 9.30302 121.857 9.99197H123.857C123.857 8.97091 123.587 7.97843 122.867 7.24185C122.143 6.50059 121.113 6.17197 119.917 6.17197V8.17197ZM131.603 27.362L130.649 27.6614L131.598 30.6854L132.556 27.6644L131.603 27.362ZM128.873 18.662L129.827 18.3626L127.873 18.662H128.873ZM128.873 28.922V29.922H129.873V28.922H128.873ZM124.643 28.922H123.643V29.922H124.643V28.922ZM124.643 7.17197V6.17197H123.643V7.17197H124.643ZM129.233 7.17197L130.201 6.92199L130.008 6.17197H129.233V7.17197ZM131.603 16.352L130.635 16.6019H132.571L131.603 16.352ZM133.973 7.17197V6.17197H133.199L133.005 6.92199L133.973 7.17197ZM138.593 7.17197H139.593V6.17197H138.593V7.17197ZM138.593 28.922V29.922H139.593V28.922H138.593ZM134.363 28.922H133.363V29.922H134.363V28.922ZM134.363 18.662H135.363L133.41 18.3596L134.363 18.662ZM132.557 27.0626L129.827 18.3626L127.919 18.9614L130.649 27.6614L132.557 27.0626ZM127.873 18.662V28.922H129.873V18.662H127.873ZM128.873 27.922H124.643V29.922H128.873V27.922ZM125.643 28.922V7.17197H123.643V28.922H125.643ZM124.643 8.17197H129.233V6.17197H124.643V8.17197ZM128.265 7.42194L130.635 16.6019L132.571 16.102L130.201 6.92199L128.265 7.42194ZM132.571 16.6019L134.941 7.42194L133.005 6.92199L130.635 16.102L132.571 16.6019ZM133.973 8.17197H138.593V6.17197H133.973V8.17197ZM137.593 7.17197V28.922H139.593V7.17197H137.593ZM138.593 27.922H134.363V29.922H138.593V27.922ZM135.363 28.922V18.662H133.363V28.922H135.363ZM133.41 18.3596L130.65 27.0596L132.556 27.6644L135.316 18.9644L133.41 18.3596Z" fill="#2A2525" mask="url(#path-3-outside-1_118_16494)"/>
</g>
<defs>
<filter id="filter0_d_118_16494" x="11.2607" y="6.17197" width="130.332" height="25.5134" filterUnits="userSpaceOnUse" color-interpolation-filters="sRGB">
<feFlood flood-opacity="0" result="BackgroundImageFix"/>
<feColorMatrix in="SourceAlpha" type="matrix" values="0 0 0 0 0 0 0 0 0 0 0 0 0 0 0 0 0 0 127 0" result="hardAlpha"/>
<feOffset dx="2" dy="1"/>
<feComposite in2="hardAlpha" operator="out"/>
<feColorMatrix type="matrix" values="0 0 0 0 0.164706 0 0 0 0 0.145098 0 0 0 0 0.145098 0 0 0 1 0"/>
<feBlend mode="normal" in2="BackgroundImageFix" result="effect1_dropShadow_118_16494"/>
<feBlend mode="normal" in="SourceGraphic" in2="effect1_dropShadow_118_16494" result="shape"/>
</filter>
<linearGradient id="paint0_linear_118_16494" x1="3.682" y1="17.945" x2="147.967" y2="19.0549" gradientUnits="userSpaceOnUse">
<stop stop-color="#8A0E13"/>
<stop offset="1" stop-color="#E1001A"/>
</linearGradient>
</defs>
</svg>
