<svg width="93" height="48" viewBox="0 0 93 48" fill="none" xmlns="http://www.w3.org/2000/svg">
<path d="M92.4666 38.8939V37.1015C91.8932 37.1015 91.4311 36.6399 91.4311 36.0583C91.4311 35.4768 91.8932 35.0147 92.4666 35.0147V34.0429C91.8932 34.0429 91.4311 33.5812 91.4311 32.9997C91.4311 32.4263 91.8932 31.9561 92.4666 31.9561V30.9924C91.8932 30.9924 91.4311 30.5226 91.4311 29.9451C91.4311 29.3677 91.8932 28.9056 92.4666 28.9056V27.9338C91.8932 27.9338 91.4311 27.464 91.4311 26.8902C91.4311 26.3127 91.8932 25.847 92.4666 25.847V24.8792C91.8932 24.8792 91.4311 24.409 91.4311 23.8316C91.4311 23.2582 91.8932 22.7884 92.4666 22.7884V21.8243C91.8932 21.8243 91.4311 21.3545 91.4311 20.777C91.4311 20.1996 91.8932 19.7334 92.4666 19.7334V18.7657C91.8932 18.7657 91.4311 18.2959 91.4311 17.7225C91.4311 17.145 91.8932 16.6789 92.4666 16.6789V15.7071C91.8932 15.7071 91.4311 15.2454 91.4311 14.6679C91.4311 14.0905 91.8932 13.6203 92.4666 13.6203V12.6525C91.8932 12.6525 91.4311 12.1868 91.4311 11.613C91.4311 11.0318 91.8932 10.5616 92.4666 10.5616V8.52459C87.7674 8.52459 83.9441 4.70743 83.9441 0H82.9405C82.9405 0.575429 82.4707 1.04523 81.8891 1.04523C81.3158 1.04523 80.8537 0.575429 80.8537 0H79.9537C79.9537 0.575429 79.4916 1.04523 78.9182 1.04523C78.3367 1.04523 77.8669 0.575429 77.8669 0H76.9827C76.9827 0.575429 76.5126 1.04523 75.9392 1.04523C75.3576 1.04523 74.8878 0.575429 74.8878 0H74.0037C74.0037 0.575429 73.5339 1.04523 72.9601 1.04523C72.3867 1.04523 71.9169 0.575429 71.9169 0H71.0246C71.0246 0.575429 70.5626 1.04523 69.9814 1.04523C69.3999 1.04523 68.9378 0.575429 68.9378 0H68.046C68.046 0.575429 67.5839 1.04523 67.0024 1.04523C66.429 1.04523 65.9588 0.575429 65.9588 0H65.0669C65.0669 0.575429 64.5971 1.04523 64.0314 1.04523C63.4499 1.04523 62.9801 0.575429 62.9801 0H62.096C62.096 0.575429 61.6258 1.04523 61.0524 1.04523C60.4708 1.04523 60.001 0.575429 60.001 0H59.1169C59.1169 0.575429 58.6471 1.04523 58.0656 1.04523C57.4999 1.04523 57.0301 0.575429 57.0301 0H56.1378C56.1378 0.575429 55.6762 1.04523 55.0946 1.04523C54.5131 1.04523 54.0511 0.575429 54.0511 0H53.1592C53.1592 0.575429 52.6971 1.04523 52.1156 1.04523C51.534 1.04523 51.0724 0.575429 51.0724 0H50.1801C50.1801 0.575429 49.7103 1.04523 49.1447 1.04523C48.5631 1.04523 48.0933 0.575429 48.0933 0H47.2092C47.2092 0.575429 46.7394 1.04523 46.1578 1.04523C45.584 1.04523 45.1143 0.575429 45.1143 0H44.2301C44.2301 0.575429 43.7603 1.04523 43.1788 1.04523C42.6054 1.04523 42.1433 0.575429 42.1433 0H41.251C41.251 0.575429 40.7812 1.04523 40.2079 1.04523C39.6263 1.04523 39.1643 0.575429 39.1643 0H38.2724C38.2724 0.575429 37.8022 1.04523 37.2288 1.04523C36.6472 1.04523 36.1774 0.575429 36.1774 0H35.2933C35.2933 0.575429 34.8235 1.04523 34.2501 1.04523C33.6763 1.04523 33.2065 0.575429 33.2065 0H32.3142C32.3142 0.575429 31.8526 1.04523 31.2711 1.04523C30.6977 1.04523 30.2275 0.575429 30.2275 0H29.3433C29.3433 0.575429 28.8735 1.04523 28.292 1.04523C27.7186 1.04523 27.2566 0.575429 27.2566 0H26.3565C26.3565 0.575429 25.8945 1.04523 25.3211 1.04523C24.7395 1.04523 24.2697 0.575429 24.2697 0H23.3856C23.3856 0.575429 22.9158 1.04523 22.342 1.04523C21.7609 1.04523 21.2907 0.575429 21.2907 0H20.4065C20.4065 0.575429 19.9367 1.04523 19.3633 1.04523C18.7896 1.04523 18.3198 0.575429 18.3198 0H17.4279C17.4279 0.575429 16.9577 1.04523 16.3843 1.04523C15.8109 1.04523 15.3407 0.575429 15.3407 0H14.4565C14.4565 0.575429 13.9867 1.04523 13.4052 1.04523C12.8237 1.04523 12.362 0.575429 12.362 0H11.4697C11.4697 0.575429 11.0077 1.04523 10.4343 1.04523C9.85275 1.04523 9.38295 0.575429 9.38295 0H8.52287C8.52287 4.70743 4.70738 8.52459 0 8.52459V10.5616C0.573384 10.5616 1.04359 11.0318 1.04359 11.613C1.04359 12.1868 0.573384 12.6525 0 12.6525V13.6203C0.573384 13.6203 1.04359 14.0905 1.04359 14.6679C1.04359 15.2454 0.573384 15.7071 0 15.7071V16.6789C0.573384 16.6789 1.04359 17.145 1.04359 17.7225C1.04359 18.2959 0.573384 18.7657 0 18.7657V19.7334C0.573384 19.7334 1.04359 20.1996 1.04359 20.777C1.04359 21.3545 0.573384 21.8243 0 21.8243V22.7884C0.573384 22.7884 1.04359 23.2582 1.04359 23.8316C1.04359 24.409 0.573384 24.8792 0 24.8792V25.847C0.573384 25.847 1.04359 26.3127 1.04359 26.8902C1.04359 27.464 0.573384 27.9338 0 27.9338V28.9056C0.573384 28.9056 1.04359 29.3677 1.04359 29.9451C1.04359 30.5226 0.573384 30.9924 0 30.9924V31.9561C0.573384 31.9561 1.04359 32.4263 1.04359 32.9997C1.04359 33.5812 0.573384 34.0429 0 34.0429V35.0147C0.573384 35.0147 1.04359 35.4768 1.04359 36.0583C1.04359 36.6399 0.573384 37.1015 0 37.1015V38.8939C4.70738 38.8939 8.52287 42.709 8.52287 47.4164H9.38295C9.38295 46.843 9.85275 46.3732 10.4343 46.3732C11.0077 46.3732 11.4697 46.843 11.4697 47.4164H12.362C12.362 46.843 12.8237 46.3732 13.4052 46.3732C13.9867 46.3732 14.4565 46.843 14.4565 47.4164H15.3407C15.3407 46.843 15.8109 46.3732 16.3843 46.3732C16.9577 46.3732 17.4279 46.843 17.4279 47.4164H18.3198C18.3198 46.843 18.7896 46.3732 19.3633 46.3732C19.9367 46.3732 20.4065 46.843 20.4065 47.4164H21.2907C21.2907 46.843 21.7609 46.3732 22.342 46.3732C22.9158 46.3732 23.3856 46.843 23.3856 47.4164H24.2697C24.2697 46.843 24.7395 46.3732 25.3211 46.3732C25.8945 46.3732 26.3565 46.843 26.3565 47.4164H27.2566C27.2566 46.843 27.7186 46.3732 28.292 46.3732C28.8735 46.3732 29.3433 46.843 29.3433 47.4164H30.2275C30.2275 46.843 30.6977 46.3732 31.2711 46.3732C31.8526 46.3732 32.3142 46.843 32.3142 47.4164H33.2065C33.2065 46.843 33.6763 46.3732 34.2501 46.3732C34.8235 46.3732 35.2933 46.843 35.2933 47.4164H36.1774C36.1774 46.843 36.6472 46.3732 37.2288 46.3732C37.8022 46.3732 38.2724 46.843 38.2724 47.4164H39.1643C39.1643 46.843 39.6263 46.3732 40.2079 46.3732C40.7812 46.3732 41.251 46.843 41.251 47.4164H42.1433C42.1433 46.843 42.6054 46.3732 43.1788 46.3732C43.7603 46.3732 44.2301 46.843 44.2301 47.4164H45.1143C45.1143 46.843 45.584 46.3732 46.1578 46.3732C46.7394 46.3732 47.2092 46.843 47.2092 47.4164H48.0933C48.0933 46.843 48.5631 46.3732 49.1447 46.3732C49.7103 46.3732 50.1801 46.843 50.1801 47.4164H51.0724C51.0724 46.843 51.534 46.3732 52.1156 46.3732C52.6971 46.3732 53.1592 46.843 53.1592 47.4164H54.0511C54.0511 46.843 54.5131 46.3732 55.0946 46.3732C55.6762 46.3732 56.1378 46.843 56.1378 47.4164H57.0301C57.0301 46.843 57.4999 46.3732 58.0656 46.3732C58.6471 46.3732 59.1169 46.843 59.1169 47.4164H60.001C60.001 46.843 60.4708 46.3732 61.0524 46.3732C61.6258 46.3732 62.096 46.843 62.096 47.4164H62.9801C62.9801 46.843 63.4499 46.3732 64.0314 46.3732C64.5971 46.3732 65.0669 46.843 65.0669 47.4164H65.9588C65.9588 46.843 66.429 46.3732 67.0024 46.3732C67.5839 46.3732 68.046 46.843 68.046 47.4164H68.9378C68.9378 46.843 69.3999 46.3732 69.9814 46.3732C70.5626 46.3732 71.0246 46.843 71.0246 47.4164H71.9169C71.9169 46.843 72.3867 46.3732 72.9601 46.3732C73.5339 46.3732 74.0037 46.843 74.0037 47.4164H74.8878C74.8878 46.843 75.3576 46.3732 75.9392 46.3732C76.5126 46.3732 76.9827 46.843 76.9827 47.4164H77.8669C77.8669 46.843 78.3367 46.3732 78.9182 46.3732C79.4916 46.3732 79.9537 46.843 79.9537 47.4164H80.8537C80.8537 46.843 81.3158 46.3732 81.8891 46.3732C82.4707 46.3732 82.9405 46.843 82.9405 47.4164H83.9441C83.9441 42.709 87.7674 38.8939 92.4666 38.8939Z" fill="url(#paint0_radial_3652_4165)"/>
<defs>
<radialGradient id="paint0_radial_3652_4165" cx="0" cy="0" r="1" gradientUnits="userSpaceOnUse" gradientTransform="translate(49.913 20.3623) scale(62.3178 62.3184)">
<stop stop-color="#714002"/>
<stop offset="1" stop-color="#010102"/>
</radialGradient>
</defs>
</svg>
