<svg width="21" height="19" viewBox="0 0 21 19" fill="none" xmlns="http://www.w3.org/2000/svg">
<path d="M7.68583 10.8633C7.35059 10.8633 7.07812 11.1353 7.07812 11.471C7.07812 11.8067 7.35059 12.0785 7.68583 12.0785C8.02172 12.0785 8.29353 11.8064 8.29353 11.471C8.29353 11.1355 8.0215 10.8633 7.68583 10.8633Z" fill="#E0BF62"/>
<path d="M13.303 10.8633C12.9671 10.8633 12.6953 11.1353 12.6953 11.471C12.6953 11.8067 12.9671 12.0785 13.303 12.0785C13.6383 12.0785 13.9107 11.8064 13.9107 11.471C13.9107 11.1355 13.6385 10.8633 13.303 10.8633Z" fill="#E0BF62"/>
<path d="M10.496 13.3045C10.188 13.3045 9.93778 13.0554 9.93778 12.748H8.98438C8.98438 13.5816 9.66248 14.2592 10.496 14.2592C11.3295 14.2592 12.0076 13.5816 12.0076 12.748H11.0542C11.0542 13.0554 10.804 13.3045 10.496 13.3045Z" fill="#E0BF62"/>
<path d="M17.8402 9.76351V9.16801H18.3652C18.6283 9.16801 18.8415 8.95375 18.8415 8.69066V6.96172C18.8415 4.72098 17.1546 2.84709 14.9152 2.40243L15.5574 1.27334L14.7284 0.800781L13.9734 2.12822L13.0768 0.818219L12.2898 1.35617L12.9358 2.30042H7.27862C4.55682 2.30042 2.34289 4.39141 2.34289 6.96193V8.69088C2.34289 8.95397 2.5565 9.16823 2.81959 9.16823H3.46348V9.75849H3.20562C1.93769 9.75828 0.90625 10.791 0.90625 12.0587C0.90625 13.3265 1.93769 14.3581 3.20562 14.3581H3.77016C4.56292 16.921 6.92638 18.8008 9.74539 18.8008H11.558C14.3777 18.8008 16.7411 16.9212 17.5333 14.3581H17.7876C19.0562 14.3581 20.0877 13.3267 20.0877 12.0587C20.0877 10.8089 19.0841 9.79228 17.8402 9.76351ZM3.20562 13.4034C2.46343 13.4034 1.85987 12.8003 1.85987 12.0587C1.85987 11.3159 2.46343 10.713 3.20562 10.713H3.33662V12.3988C3.33662 12.7399 3.36234 13.0764 3.41226 13.4034H3.20562ZM11.558 17.8461H9.74539C6.80758 17.8461 4.41688 15.456 4.41688 12.5176V9.16801H11.4865C12.5256 9.16801 13.4581 8.55573 13.8727 7.63132C13.9531 7.76864 14.0392 7.89899 14.1277 8.02258C14.5963 8.7397 15.4096 9.16823 16.3024 9.16823H16.8868V9.75849H16.8861V12.399C16.8861 12.506 16.8728 12.6098 16.8669 12.7153C16.8599 12.9047 16.8366 13.0895 16.8105 13.2735C16.7847 13.4383 16.7592 13.6035 16.7191 13.7622L16.6899 13.8753C16.0851 16.1537 14.0246 17.8461 11.558 17.8461ZM17.7878 13.4034H17.7641C17.7892 13.239 17.7898 13.0668 17.802 12.8984C17.8101 12.7698 17.8404 12.6477 17.8404 12.5173V10.7132C18.5586 10.7418 19.1345 11.3338 19.1345 12.0587C19.1342 12.8003 18.5305 13.4034 17.7878 13.4034Z" fill="#E0BF62"/>
</svg>
