<svg width="19" height="19" viewBox="0 0 19 19" fill="none" xmlns="http://www.w3.org/2000/svg">
<path d="M7.54216 10.7314H0.714451C0.371514 10.7314 0.09375 11.0092 0.09375 11.3521V18.1799C0.09375 18.5228 0.371514 18.8006 0.714451 18.8006H7.54216C7.8851 18.8006 8.16286 18.5228 8.16286 18.1799V11.3521C8.16286 11.0092 7.8851 10.7314 7.54216 10.7314ZM5.20336 16.6281H3.05325L1.9782 14.766L3.05325 12.9039H5.20336L6.27841 14.766L5.20336 16.6281Z" fill="#E0BF62"/>
<path d="M17.5835 10.8445L10.8595 9.65896C10.5218 9.59937 10.2 9.825 10.1404 10.1623L8.95486 16.8864C8.89527 17.2241 9.12089 17.5459 9.45825 17.6055L16.1823 18.791C16.52 18.8506 16.8418 18.6253 16.9014 18.2876L18.0869 11.5636C18.1465 11.2259 17.9209 10.9041 17.5835 10.8445ZM11.0547 15.7006L13.8475 12.372L15.3335 16.455L11.0547 15.7006Z" fill="#E0BF62"/>
<path d="M4.70535 9.57251C4.77239 9.90862 5.09919 10.1271 5.4353 10.0601L12.1314 8.7265C12.4675 8.65946 12.686 8.33266 12.619 7.99655L11.2854 1.30043C11.2184 0.964323 10.8916 0.745836 10.5555 0.812872L3.85903 2.14614C3.52292 2.21317 3.30443 2.53997 3.37147 2.87608L4.70504 9.5722L4.70535 9.57251ZM7.57113 3.30561C8.74798 3.07129 9.89162 3.83506 10.1259 5.01191C10.3602 6.18876 9.59647 7.3324 8.41963 7.56672C7.24278 7.80103 6.09914 7.03726 5.86482 5.86041C5.63051 4.68356 6.39428 3.53992 7.57113 3.30561Z" fill="#E0BF62"/>
</svg>
