<svg width="19" height="19" viewBox="0 0 19 19" fill="none" xmlns="http://www.w3.org/2000/svg">
<path d="M14.8568 3.49777H3.69078C2.89632 3.49777 2.25 2.85141 2.25 2.05699C2.25 1.26257 2.89632 0.616211 3.69078 0.616211H14.8568C15.6512 0.616211 16.2976 1.26257 16.2976 2.05699C16.2976 2.85141 15.6512 3.49777 14.8568 3.49777ZM3.69078 1.33662C3.29355 1.33662 2.97041 1.65976 2.97041 2.05699C2.97041 2.45422 3.29359 2.77736 3.69078 2.77736H14.8568C15.254 2.77736 15.5772 2.45422 15.5772 2.05699C15.5772 1.65976 15.254 1.33662 14.8568 1.33662H3.69078Z" fill="#E0BF62"/>
<path d="M9.26639 9.98101C7.18098 9.98101 5.48438 8.28441 5.48438 6.199V4.93831C5.48438 4.73941 5.64562 4.57812 5.84456 4.57812H12.6882C12.8871 4.57812 13.0484 4.73941 13.0484 4.93831V6.199C13.0484 8.28441 11.3518 9.98101 9.26639 9.98101ZM6.20474 5.29849V6.199C6.20474 7.88719 7.5782 9.26064 9.26639 9.26064C10.9546 9.26064 12.328 7.88719 12.328 6.199V5.29849H6.20474Z" fill="#E0BF62"/>
<path d="M14.8568 18.986H3.69078C2.89632 18.986 2.25 18.3397 2.25 17.5453C2.25 16.7509 2.89632 16.1045 3.69078 16.1045H14.8568C15.6512 16.1045 16.2976 16.7509 16.2976 17.5453C16.2976 18.3397 15.6512 18.986 14.8568 18.986ZM3.69078 16.8249C3.29355 16.8249 2.97041 17.148 2.97041 17.5452C2.97041 17.9425 3.29359 18.2656 3.69078 18.2656H14.8568C15.254 18.2656 15.5772 17.9425 15.5772 17.5452C15.5772 17.148 15.254 16.8249 14.8568 16.8249H3.69078Z" fill="#E0BF62"/>
<path d="M14.4933 16.8249H4.04768C3.84875 16.8249 3.6875 16.6636 3.6875 16.4647V14.7718C3.6875 13.5444 4.07823 12.3799 4.81748 11.404C5.34163 10.7122 6.02733 10.1488 6.80095 9.76509C6.02733 9.3814 5.34159 8.81803 4.81748 8.12618C4.07823 7.15033 3.6875 5.98579 3.6875 4.7584V3.13753C3.6875 2.93863 3.84875 2.77734 4.04768 2.77734H14.4933C14.6922 2.77734 14.8535 2.93863 14.8535 3.13753V4.7584C14.8535 5.98575 14.4628 7.15029 13.7235 8.12618C13.1994 8.81803 12.5137 9.3814 11.74 9.76509C12.5137 10.1488 13.1994 10.7122 13.7235 11.404C14.4628 12.3799 14.8535 13.5444 14.8535 14.7718V16.4647C14.8535 16.6636 14.6922 16.8249 14.4933 16.8249ZM4.40787 16.1045H14.1331V14.7718C14.1331 12.6353 12.7041 10.7185 10.6581 10.1104C10.5053 10.065 10.4005 9.9245 10.4005 9.76509C10.4005 9.60568 10.5053 9.46523 10.6581 9.41982C12.7041 8.81172 14.1331 6.89489 14.1331 4.7584V3.49771H4.40787V4.7584C4.40787 6.89485 5.83684 8.81168 7.88284 9.41982C8.03564 9.46523 8.14042 9.60568 8.14042 9.76509C8.14042 9.9245 8.03564 10.065 7.88284 10.1104C5.83684 10.7185 4.40787 12.6353 4.40787 14.7718V16.1045Z" fill="#E0BF62"/>
<path d="M12.6882 15.024H5.84456C5.64562 15.024 5.48438 14.8627 5.48438 14.6638V13.4031C5.48438 11.3177 7.18101 9.62109 9.26639 9.62109C11.3518 9.62109 13.0484 11.3177 13.0484 13.4031V14.6638C13.0484 14.8627 12.8872 15.024 12.6882 15.024ZM6.20474 14.3036H12.328V13.4031C12.328 11.7149 10.9546 10.3415 9.26639 10.3415C7.5782 10.3415 6.20474 11.7149 6.20474 13.4031V14.3036Z" fill="#E0BF62"/>
<path d="M0.626215 6.01903C0.924602 6.01903 1.16649 5.77714 1.16649 5.47875C1.16649 5.18037 0.924602 4.93848 0.626215 4.93848C0.327828 4.93848 0.0859375 5.18037 0.0859375 5.47875C0.0859375 5.77714 0.327828 6.01903 0.626215 6.01903Z" fill="#E0BF62"/>
<path d="M15.3918 9.98192C15.6902 9.98192 15.9321 9.74003 15.9321 9.44164C15.9321 9.14326 15.6902 8.90137 15.3918 8.90137C15.0935 8.90137 14.8516 9.14326 14.8516 9.44164C14.8516 9.74003 15.0935 9.98192 15.3918 9.98192Z" fill="#E0BF62"/>
<path d="M17.7352 4.21842C17.9341 4.21842 18.0954 4.05716 18.0954 3.85823C18.0954 3.65931 17.9341 3.49805 17.7352 3.49805C17.5363 3.49805 17.375 3.65931 17.375 3.85823C17.375 4.05716 17.5363 4.21842 17.7352 4.21842Z" fill="#E0BF62"/>
<path d="M16.6571 14.3034C16.856 14.3034 17.0172 14.1421 17.0172 13.9432C17.0172 13.7443 16.856 13.583 16.6571 13.583C16.4581 13.583 16.2969 13.7443 16.2969 13.9432C16.2969 14.1421 16.4581 14.3034 16.6571 14.3034Z" fill="#E0BF62"/>
<path d="M2.25081 11.4225C2.44973 11.4225 2.61099 11.2613 2.61099 11.0623C2.61099 10.8634 2.44973 10.7021 2.25081 10.7021C2.05189 10.7021 1.89062 10.8634 1.89062 11.0623C1.89062 11.2613 2.05189 11.4225 2.25081 11.4225Z" fill="#E0BF62"/>
<path d="M1.52425 18.2663C1.72317 18.2663 1.88443 18.105 1.88443 17.9061C1.88443 17.7072 1.72317 17.5459 1.52425 17.5459C1.32532 17.5459 1.16406 17.7072 1.16406 17.9061C1.16406 18.105 1.32532 18.2663 1.52425 18.2663Z" fill="#E0BF62"/>
</svg>
