<svg version="1.1" id="Layer_1" xmlns="http://www.w3.org/2000/svg" xmlns:xlink="http://www.w3.org/1999/xlink" x="0px" y="0px"
	 width="100%" viewBox="0 0 396 608" enable-background="new 0 0 396 608" xml:space="preserve">
<path fill="#FFFFFF" opacity="1.000000" stroke="none" 
	d="
M170.000000,609.000000 
	C113.333344,609.000000 57.166695,609.000000 1.000030,609.000000 
	C1.000020,406.333405 1.000020,203.666794 1.000010,1.000139 
	C132.999908,1.000093 264.999817,1.000093 396.999817,1.000046 
	C396.999878,203.666519 396.999878,406.333038 396.999939,608.999756 
	C321.500000,609.000000 246.000000,609.000000 170.000000,609.000000 
M394.000000,592.247314 
	C394.000000,414.781372 394.000031,237.315445 394.000000,59.849514 
	C394.000000,51.880901 389.997559,48.000771 381.766968,48.000542 
	C339.608429,47.999378 297.449890,47.995857 255.291336,48.006882 
	C251.389908,48.007900 248.131012,47.064899 245.784180,43.502571 
	C239.299255,33.658916 232.634598,23.933388 226.012268,14.180668 
	C222.452499,8.938224 218.581635,5.717588 211.129211,5.764103 
	C145.810989,6.171791 80.489166,5.999696 15.168406,6.000456 
	C8.409322,6.000535 4.000401,10.425308 4.000385,17.207851 
	C3.999912,209.337524 3.999937,401.467194 4.000272,593.596863 
	C4.000284,600.585083 7.433964,603.996948 14.522486,603.997192 
	C137.498810,604.001099 260.475128,604.000671 383.451447,603.997925 
	C389.529602,603.997803 393.955444,599.441223 394.000000,592.247314 
z"/>
<path fill="#231800" opacity="1.000000" stroke="none" 
	d="
M394.000000,592.710022 
	C393.955444,599.441223 389.529602,603.997803 383.451447,603.997925 
	C260.475128,604.000671 137.498810,604.001099 14.522486,603.997192 
	C7.433964,603.996948 4.000284,600.585083 4.000272,593.596863 
	C3.999937,401.467194 3.999912,209.337524 4.000385,17.207851 
	C4.000401,10.425308 8.409322,6.000535 15.168406,6.000456 
	C80.489166,5.999696 145.810989,6.171791 211.129211,5.764103 
	C218.581635,5.717588 222.452499,8.938224 226.012268,14.180668 
	C232.634598,23.933388 239.299255,33.658916 245.784180,43.502571 
	C248.131012,47.064899 251.389908,48.007900 255.291336,48.006882 
	C297.449890,47.995857 339.608429,47.999378 381.766968,48.000542 
	C389.997559,48.000771 394.000000,51.880901 394.000000,59.849514 
	C394.000031,237.315445 394.000000,414.781372 394.000000,592.710022 
z"/>
</svg>