<svg width="32" height="76" viewBox="0 0 32 76" fill="none" xmlns="http://www.w3.org/2000/svg">
<path d="M16.629 59.4492L27.3377 75.3416L31.1172 71.5274L16.629 59.4492Z" fill="#0396D0"/>
<path d="M13.9012 66.6602L12.6414 75.348L16.2109 74.9242L13.9012 66.6602Z" fill="#FFBD35"/>
<path d="M2.98727 10.2933L3.61719 1.60547L0.0476343 2.24116L2.98727 10.2933Z" fill="#101229"/>
<path d="M5.08594 65.8086L0.0465671 72.8012L3.19617 74.0726L5.08594 65.8086Z" fill="#101229"/>
<path d="M8.43988 14.3183L17.4687 2.24008L12.8493 0.121094L8.43988 14.3183Z" fill="#FFBD35"/>
<path d="M27.1328 51.613L24.8231 52.4606L24.4032 54.5796L23.1433 52.6725L20.8336 53.0963L22.3034 51.1892L21.2535 49.0702L23.3533 49.9178L25.243 48.2227L25.0331 50.5535L27.1328 51.613Z" fill="#2B1A3B"/>
<path d="M25.875 21.309L22.9354 20.6734L20.8356 23.0042L20.6257 19.8258L17.686 18.7663L20.6257 17.4949L20.8356 14.3164L22.7254 16.8592L25.875 16.0116L24.1952 18.7663L25.875 21.309Z" fill="#EC2021"/>
<path d="M26.9219 34.2342L25.2421 34.8699L25.2421 36.777L23.9822 35.5056L22.3025 35.9294L23.1423 34.2342L22.0925 32.7509L23.9822 33.1747L25.0321 31.6914L25.2421 33.5985L26.9219 34.2342Z" fill="#0396D0"/>
<path d="M31.121 42.0742L31.121 43.1337L31.9609 43.7694L30.9111 43.9813L30.4911 45.0408L30.0712 43.9813L29.0213 43.9813L29.6512 43.3456L29.4413 42.2861L30.2811 42.7099L31.121 42.0742Z" fill="#FFBD35"/>
</svg>
