<svg width="32" height="76" viewBox="0 0 32 76" fill="none" xmlns="http://www.w3.org/2000/svg">
<path d="M15.3788 59.4492L4.67015 75.3416L0.890626 71.5274L15.3788 59.4492Z" fill="#0396D0"/>
<path d="M18.1066 66.6602L19.3664 75.348L15.7969 74.9242L18.1066 66.6602Z" fill="#FFBD35"/>
<path d="M29.0205 10.2933L28.3906 1.60547L31.9602 2.24116L29.0205 10.2933Z" fill="#101229"/>
<path d="M26.9219 65.8086L31.9612 72.8012L28.8116 74.0726L26.9219 65.8086Z" fill="#101229"/>
<path d="M23.5601 14.3183L14.5313 2.24008L19.1507 0.121094L23.5601 14.3183Z" fill="#FFBD35"/>
<path d="M4.875 51.613L7.18471 52.4606L7.60466 54.5796L8.8645 52.6725L11.1742 53.0963L9.7044 51.1892L10.7543 49.0702L8.65453 49.9178L6.76476 48.2227L6.97474 50.5535L4.875 51.613Z" fill="#2B1A3B"/>
<path d="M6.13281 21.309L9.07245 20.6734L11.1722 23.0042L11.3822 19.8258L14.3218 18.7663L11.3822 17.4949L11.1722 14.3164L9.28242 16.8592L6.13281 16.0116L7.8126 18.7663L6.13281 21.309Z" fill="#EC2021"/>
<path d="M5.08594 34.2342L6.76573 34.8699L6.76573 36.777L8.02557 35.5056L9.70536 35.9294L8.86546 34.2342L9.91533 32.7509L8.02557 33.1747L6.9757 31.6914L6.76573 33.5985L5.08594 34.2342Z" fill="#0396D0"/>
<path d="M0.88677 42.0742L0.88677 43.1337L0.0468751 43.7694L1.09674 43.9813L1.51669 45.0408L1.93664 43.9813L2.98651 43.9813L2.35659 43.3456L2.56656 42.2861L1.72666 42.7099L0.88677 42.0742Z" fill="#FFBD35"/>
</svg>
