<svg width="76" height="81" viewBox="0 0 76 81" fill="none" xmlns="http://www.w3.org/2000/svg">
<g clip-path="url(#clip0_6252_11301)">
<path d="M59.3281 15.4491L75.2205 4.74046L71.4063 0.960938L59.3281 15.4491Z" fill="#0396D0"/>
<path d="M66.5391 18.1789L75.2269 19.4387L74.8031 15.8691L66.5391 18.1789Z" fill="#FFBD35"/>
<path d="M10.1722 29.0977L1.48438 28.4678L2.12007 32.0373L10.1722 29.0977Z" fill="#101229"/>
<path d="M65.6875 26.998L72.6801 32.0374L73.9515 28.8878L65.6875 26.998Z" fill="#101229"/>
<path d="M14.1972 23.6382L2.11898 14.6094L0 19.2288L14.1972 23.6382Z" fill="#FFBD35"/>
<path d="M51.4919 4.9502L52.3395 7.25991L54.4585 7.67985L52.5514 8.9397L52.9752 11.2494L51.0681 9.77959L48.9492 10.8295L49.7967 8.72972L48.1016 6.83996L50.4324 7.04993L51.4919 4.9502Z" fill="#2B1A3B"/>
<path d="M21.188 6.20996L20.5523 9.14959L22.8831 11.2493L19.7047 11.4593L18.6452 14.3989L17.3738 11.4593L14.1953 11.2493L16.7381 9.35957L15.8905 6.20996L18.6452 7.88975L21.188 6.20996Z" fill="#EC2021"/>
<path d="M34.1131 5.16016L34.7488 6.83995H36.6559L35.3845 8.09979L35.8083 9.77958L34.1131 8.93968L32.6298 9.98955L33.0536 8.09979L31.5703 7.04992L33.4774 6.83995L34.1131 5.16016Z" fill="#0396D0"/>
<path d="M41.9531 0.960989H43.0126L43.6483 0.121094L43.8602 1.17096L44.9197 1.59091L43.8602 2.01086V3.06073L43.2245 2.4308L42.165 2.64078L42.5888 1.80088L41.9531 0.960989Z" fill="#FFBD35"/>
<path opacity="0.2" d="M71.6221 35.3963C71.1983 34.9764 70.5626 34.7664 70.1388 34.7664C70.1388 34.7664 64.4176 34.7664 59.1201 34.9764C62.5105 32.0367 63.57 29.5171 63.57 27.6273C63.57 27.2073 63.57 26.7874 63.3581 26.5774C63.3581 26.3674 61.6629 20.0682 55.094 19.0184C53.3989 18.8084 51.068 19.6483 48.949 21.1181C49.1609 20.6982 49.1609 20.4882 49.1609 20.0682C49.1609 19.8583 49.1609 19.4383 48.949 19.2283C48.7371 18.5984 48.1014 18.1785 47.2538 17.9685L40.4731 16.9186C39.6255 16.7087 38.7779 17.3386 38.3541 18.1785C37.5065 19.8583 37.2946 21.958 37.2946 24.0577C36.8708 23.4278 36.2351 22.7979 35.5994 22.3779C32.8447 20.0682 29.8782 19.0184 27.5473 19.2283C20.7665 20.2782 19.2832 26.5774 19.2832 26.7874C19.2832 27.2073 19.2832 27.4173 19.2832 27.8373C19.2832 29.727 20.3427 32.2467 23.7331 35.1863C22.6736 35.1863 21.1903 35.1863 21.1903 35.1863C21.4022 35.1863 21.6141 35.3963 21.6141 35.3963C20.7665 35.1863 18.2238 35.6063 8.47644 36.8661C7.41694 37.0761 6.78125 37.916 6.78125 38.9659V39.1758L7.20505 43.7953C7.20505 44.4252 7.62884 44.8451 8.05264 45.2651C8.05264 46.7349 9.74782 77.1811 9.74782 77.1811C9.74782 78.231 10.5954 79.0709 11.6549 79.0709L22.0379 80.1207H22.2498L65.2652 79.4908C66.3246 79.4908 67.1722 78.6509 67.3841 77.601C67.3841 77.601 70.3507 46.105 70.5626 43.5853C70.9864 43.1653 71.4102 42.7454 71.4102 42.1155L72.0459 37.0761V36.8661C72.0459 36.2362 71.834 35.8163 71.6221 35.3963Z" fill="black"/>
<path d="M69.9268 33.9266C69.503 33.5066 68.8673 33.2967 68.4435 33.2967C68.4435 33.2967 62.7223 33.2967 57.4248 33.5066C60.8152 30.567 61.8747 28.0473 61.8747 26.1575C61.8747 25.7376 61.8747 25.3177 61.6628 25.1077C61.6628 24.8977 59.9676 18.5985 53.3987 17.5486C51.7036 17.3387 49.3727 18.1785 47.2537 19.6484C47.4656 19.2284 47.4656 19.0184 47.4656 18.5985C47.4656 18.3885 47.4656 17.9686 47.2537 17.7586C47.0418 17.1287 46.4061 16.7087 45.5585 16.4988L38.7778 15.6589C37.9302 15.4489 37.0826 16.0788 36.6588 16.9187C35.8112 18.5985 35.5993 20.6982 35.5993 22.798C34.9636 22.168 34.5398 21.5381 33.9041 21.1182C31.1494 18.8085 28.1828 17.7586 25.852 17.9686C19.2831 18.8085 17.5879 25.1077 17.5879 25.3177C17.5879 25.7376 17.5879 25.9476 17.5879 26.3675C17.5879 28.2573 18.6474 30.777 22.0378 33.7166C20.9783 33.7166 19.495 33.7166 19.495 33.7166C19.7069 33.7166 19.9188 33.9266 19.9188 33.9266C19.0712 33.7166 16.5284 34.1365 6.78112 35.3964C5.72163 35.6064 5.08594 36.4463 5.08594 37.4961V37.7061L5.50973 42.3255C5.50973 42.9555 5.93353 43.3754 6.35733 43.7953C6.56922 45.2652 8.26441 75.7114 8.26441 75.7114C8.26441 76.7612 9.112 77.6011 10.1715 77.6011L20.5545 78.651H20.7664L63.7817 77.8111C64.8412 77.8111 65.6888 76.9712 65.9007 75.9213C65.9007 75.9213 68.8673 44.4253 69.0792 41.9056C69.503 41.4856 69.9268 41.0657 69.9268 40.4358L70.5625 35.3964V35.1864C70.5625 34.7665 70.3506 34.1366 69.9268 33.9266Z" fill="white"/>
<path d="M20.7646 76.5513L63.78 75.9214L67.3822 36.2364L19.4932 35.8164L7.20312 37.4962L7.62692 42.1156L8.47451 42.3256L10.3816 75.5014L20.7646 76.5513Z" fill="#EC2021"/>
<path d="M42.5904 40.6458C42.5904 40.6458 54.4567 40.4358 60.6018 42.5355C63.7803 43.5854 61.4494 56.1838 60.8137 63.7429C60.178 71.3019 50.2188 75.0815 33.4788 75.7114C29.2408 75.9214 26.2743 76.1313 24.3672 76.3413L63.5684 75.7114L67.1706 36.2363H63.3565L42.1666 40.2258L42.5904 40.6458Z" fill="#DE2021"/>
<path d="M19.9158 25.3174C19.9158 25.3174 17.1612 29.7268 29.8751 36.446L34.3249 36.0261C34.3249 36.0261 24.5776 30.5667 26.0609 25.1074C24.7895 25.1074 19.9158 25.3174 19.9158 25.3174Z" fill="#D9591F"/>
<path d="M36.6559 35.8167C36.6559 35.8167 31.3585 24.4781 19.4922 25.7379C19.4922 25.7379 20.7636 20.4886 26.061 19.6487C29.8752 19.0188 38.7749 25.318 38.7749 35.8167H36.6559Z" fill="#FFBD35"/>
<path d="M59.5419 24.6875C59.5419 24.6875 62.2966 28.887 49.5827 36.2361L45.1328 36.0261C45.1328 36.0261 54.8801 30.3568 53.3968 24.8975C54.4563 24.6875 59.5419 24.6875 59.5419 24.6875Z" fill="#D9591F"/>
<path d="M42.8001 36.0265L42.3763 32.247C41.9525 23.6381 45.3428 18.3887 45.3428 18.3887L38.5621 17.5488C36.0193 23.0081 39.4097 33.7168 40.2573 36.2365L42.8001 36.0265Z" fill="#E6850D"/>
<path d="M42.7996 35.8167C42.7996 35.8167 48.0971 24.4781 59.7515 25.318C59.7515 25.318 58.4801 20.0686 53.1826 19.4387C49.3685 19.0188 40.4688 25.318 40.4688 36.0266L42.7996 35.8167Z" fill="#FFBD35"/>
<path d="M7.20312 37.4962L7.62692 42.1157L8.47451 42.3256L19.2813 40.8558L67.806 40.4359L68.4417 35.1865L19.4932 35.8164L7.20312 37.4962Z" fill="#EC2021"/>
<path d="M19.2813 35.8164L7.20312 37.4962L7.62692 42.1156L8.47451 42.3256L19.2813 40.8558V35.8164Z" fill="#BA2021"/>
<path d="M19.2756 40.8555L8.46875 42.3253L10.3758 75.5011L20.7588 76.551L19.4875 40.8555H19.2756Z" fill="#BA2021"/>
<path d="M13.3484 75.9213L15.8912 76.1313L14.4079 36.6562L10.5938 37.0762L13.3484 75.9213Z" fill="#FD9605"/>
<path d="M8.47656 42.3253L19.2834 40.8555H19.4953V41.2754H19.2834L8.47656 42.7452V42.3253Z" fill="#CBB6A6"/>
<path opacity="0.5" d="M61.0223 39.596C56.1486 40.0159 51.6988 40.2259 45.7656 40.6458L67.803 40.4359L68.4387 35.3965H63.777C63.9889 35.8164 64.4127 39.176 61.0223 39.596Z" fill="#DE2021"/>
<path d="M45.9789 76.1314L47.2503 35.6064H38.5625L39.1982 76.1314H45.9789Z" fill="#FFBD35"/>
<path d="M67.1703 40.4355L19.2812 41.0655V41.4854L66.9584 40.8555L67.1703 40.4355Z" fill="#E5D8BB"/>
<path opacity="0.79" d="M40.0438 36.4463C39.62 36.6563 30.2965 38.966 25.2109 44.0054C25.2109 44.0054 29.237 48.8348 31.7798 51.3545C31.7798 51.3545 38.1367 37.7062 43.4342 35.8164L40.0438 36.4463Z" fill="#E5D8BB"/>
<path d="M40.0505 35.6064C39.6267 35.8164 28.8199 38.7561 23.7344 43.7954C23.7344 43.7954 26.2772 47.7849 29.0318 50.0946C29.0318 50.0946 36.4483 38.3361 44.0766 35.6064H40.0505Z" fill="#FFBD35"/>
</g>
<defs>
<clipPath id="clip0_6252_11301">
<rect width="75.2239" height="80" fill="white" transform="translate(0 0.121094)"/>
</clipPath>
</defs>
</svg>
