<?xml version="1.0" encoding="utf-8"?>
<!-- Generator: Adobe Illustrator 25.0.0, SVG Export Plug-In . SVG Version: 6.00 Build 0)  -->
<svg version="1.1" id="Layer_1" xmlns="http://www.w3.org/2000/svg" xmlns:xlink="http://www.w3.org/1999/xlink" x="0px" y="0px"
	 viewBox="0 0 75 280" style="enable-background:new 0 0 75 280;" xml:space="preserve">
<style type="text/css">
	.st0{fill:url(#SVGID_1_);}
	.st1{fill:url(#SVGID_2_);}
	.st2{fill:url(#SVGID_3_);}
	.st3{fill:url(#SVGID_4_);}
	.st4{fill:url(#SVGID_5_);}
</style>
<g>
	
		<linearGradient id="SVGID_1_" gradientUnits="userSpaceOnUse" x1="549.1353" y1="-47.9542" x2="584.9791" y2="-47.9542" gradientTransform="matrix(-0.4303 0.9027 -0.9027 -0.4303 251.2424 -277.4775)">
		<stop  offset="0" style="stop-color:#DCBA3A"/>
		<stop  offset="0.3361" style="stop-color:#9D7000"/>
		<stop  offset="0.3802" style="stop-color:#A17506"/>
		<stop  offset="0.4403" style="stop-color:#AB8318"/>
		<stop  offset="0.5095" style="stop-color:#BD9A34"/>
		<stop  offset="0.5856" style="stop-color:#D5BA5C"/>
		<stop  offset="0.6665" style="stop-color:#F4E28F"/>
		<stop  offset="0.6755" style="stop-color:#F8E795"/>
		<stop  offset="0.725" style="stop-color:#F4E28F"/>
		<stop  offset="0.7924" style="stop-color:#EAD37D"/>
		<stop  offset="0.8701" style="stop-color:#DABB61"/>
		<stop  offset="0.9548" style="stop-color:#C39A39"/>
		<stop  offset="1" style="stop-color:#B58621"/>
	</linearGradient>
	<path class="st0" d="M57,261.8c-8.8-9.9-13.8-20-15.1-30.7l2.1,17.2c1.3,10.7,6.3,20.9,15.1,30.7L57,261.8z"/>
	
		<linearGradient id="SVGID_2_" gradientUnits="userSpaceOnUse" x1="447.716" y1="-27.1383" x2="563.8575" y2="-27.1383" gradientTransform="matrix(-0.4303 0.9027 -0.9027 -0.4303 251.2424 -277.4775)">
		<stop  offset="0" style="stop-color:#DCBA3A"/>
		<stop  offset="0.3361" style="stop-color:#9D7000"/>
		<stop  offset="0.3802" style="stop-color:#A17506"/>
		<stop  offset="0.4403" style="stop-color:#AB8318"/>
		<stop  offset="0.5095" style="stop-color:#BD9A34"/>
		<stop  offset="0.5856" style="stop-color:#D5BA5C"/>
		<stop  offset="0.6665" style="stop-color:#F4E28F"/>
		<stop  offset="0.6755" style="stop-color:#F8E795"/>
		<stop  offset="0.725" style="stop-color:#F4E28F"/>
		<stop  offset="0.7924" style="stop-color:#EAD37D"/>
		<stop  offset="0.8701" style="stop-color:#DABB61"/>
		<stop  offset="0.9548" style="stop-color:#C39A39"/>
		<stop  offset="1" style="stop-color:#B58621"/>
	</linearGradient>
	<path class="st1" d="M44,235.1c2-13.9,9.1-27.1,16-40c7.3-13.6,14.3-26.5,14.7-39.3c0.1-1.9,0-3.7-0.2-5.5l-2.1-17.2
		c0.2,1.8,0.3,3.6,0.2,5.5c-0.4,12.8-7.4,25.6-14.7,39.3c-6.9,12.8-14,26-16,40c-0.6,4.5-0.7,8.9-0.2,13.2l2.1,17.2
		C43.3,244,43.4,239.6,44,235.1z"/>
	
		<linearGradient id="SVGID_3_" gradientUnits="userSpaceOnUse" x1="392.1986" y1="32.9203" x2="462.206" y2="32.9203" gradientTransform="matrix(-0.4303 0.9027 -0.9027 -0.4303 251.2424 -277.4775)">
		<stop  offset="0" style="stop-color:#DCBA3A"/>
		<stop  offset="0.3361" style="stop-color:#9D7000"/>
		<stop  offset="0.3802" style="stop-color:#A17506"/>
		<stop  offset="0.4403" style="stop-color:#AB8318"/>
		<stop  offset="0.5095" style="stop-color:#BD9A34"/>
		<stop  offset="0.5856" style="stop-color:#D5BA5C"/>
		<stop  offset="0.6665" style="stop-color:#F4E28F"/>
		<stop  offset="0.6755" style="stop-color:#F8E795"/>
		<stop  offset="0.725" style="stop-color:#F4E28F"/>
		<stop  offset="0.7924" style="stop-color:#EAD37D"/>
		<stop  offset="0.8701" style="stop-color:#DABB61"/>
		<stop  offset="0.9548" style="stop-color:#C39A39"/>
		<stop  offset="1" style="stop-color:#B58621"/>
	</linearGradient>
	<path class="st2" d="M2.8,54.8L0.7,37.6c1.1,9.1,4.4,18,9.7,26.7c8,12.9,20.6,25.1,37.5,36.3c9.2,6.1,15.7,12.3,19.7,19
		c2.7,4.4,4.3,8.9,4.9,13.6l2.1,17.2c-0.6-4.8-2.2-9.3-4.9-13.6c-4.1-6.7-10.5-12.9-19.7-19c-16.9-11.2-29.6-23.5-37.5-36.3
		C7.2,72.8,3.9,63.9,2.8,54.8z"/>
	
		<linearGradient id="SVGID_4_" gradientUnits="userSpaceOnUse" x1="355.9914" y1="90.7025" x2="406.9242" y2="90.7025" gradientTransform="matrix(-0.4303 0.9027 -0.9027 -0.4303 251.2424 -277.4775)">
		<stop  offset="0" style="stop-color:#DCBA3A"/>
		<stop  offset="0.3361" style="stop-color:#9D7000"/>
		<stop  offset="0.3802" style="stop-color:#A17506"/>
		<stop  offset="0.4403" style="stop-color:#AB8318"/>
		<stop  offset="0.5095" style="stop-color:#BD9A34"/>
		<stop  offset="0.5856" style="stop-color:#D5BA5C"/>
		<stop  offset="0.6665" style="stop-color:#F4E28F"/>
		<stop  offset="0.6755" style="stop-color:#F8E795"/>
		<stop  offset="0.725" style="stop-color:#F4E28F"/>
		<stop  offset="0.7924" style="stop-color:#EAD37D"/>
		<stop  offset="0.8701" style="stop-color:#DABB61"/>
		<stop  offset="0.9548" style="stop-color:#C39A39"/>
		<stop  offset="1" style="stop-color:#B58621"/>
	</linearGradient>
	<path class="st3" d="M2.2,49.6C1.7,35.1,6.8,24.2,9.1,20c0.6-1.2,1.1-1.8,1.1-1.8L8.1,1C8,1.1-0.6,13.8,0.1,32.4
		c0,0.9,0.1,1.7,0.1,2.6c0.1,0.9,0.2,1.7,0.3,2.6l2.1,17.2C2.4,53.1,2.3,51.3,2.2,49.6z"/>
	<g>
		
			<linearGradient id="SVGID_5_" gradientUnits="userSpaceOnUse" x1="385.8184" y1="95.5668" x2="488.3865" y2="-7.0012" gradientTransform="matrix(-0.4303 0.9027 -0.9027 -0.4303 251.2424 -277.4775)">
			<stop  offset="0" style="stop-color:#DCBA3A"/>
			<stop  offset="0.3361" style="stop-color:#9D7000"/>
			<stop  offset="0.3802" style="stop-color:#A17506"/>
			<stop  offset="0.4403" style="stop-color:#AB8318"/>
			<stop  offset="0.5095" style="stop-color:#BD9A34"/>
			<stop  offset="0.5856" style="stop-color:#D5BA5C"/>
			<stop  offset="0.6665" style="stop-color:#F4E28F"/>
			<stop  offset="0.6755" style="stop-color:#F8E795"/>
			<stop  offset="0.725" style="stop-color:#F4E28F"/>
			<stop  offset="0.7924" style="stop-color:#EAD37D"/>
			<stop  offset="0.8701" style="stop-color:#DABB61"/>
			<stop  offset="0.9548" style="stop-color:#C39A39"/>
			<stop  offset="1" style="stop-color:#B58621"/>
		</linearGradient>
		<path class="st4" d="M74.7,150.4c0.2,1.8,0.3,3.6,0.2,5.5c-0.4,12.8-7.4,25.7-14.7,39.3c-6.9,12.8-14,26-16,39.9
			c-0.6,4.5-0.7,8.9-0.2,13.1c1.3,10.7,6.3,20.9,15.1,30.7c-9-9.8-14-20-15.3-30.7c-0.5-4.3-0.5-8.7,0.2-13.2c2-13.9,9.1-27.1,16-40
			c7.3-13.6,14.3-26.5,14.7-39.3c0.1-1.9,0-3.7-0.2-5.5c-0.6-4.8-2.2-9.2-4.8-13.6c-4.1-6.7-10.5-12.8-19.7-18.9
			c-17-11.3-29.6-23.5-37.6-36.4C7,72.9,3.7,63.9,2.6,54.8c-0.2-1.7-0.3-3.5-0.4-5.2c-0.6-18.6,8-31.2,8-31.4
			c0.1,0.2-8.5,12.9-7.8,31.4c0.1,1.7,0.2,3.5,0.4,5.2c1.1,9.1,4.4,18,9.7,26.7c8,12.9,20.6,25.1,37.5,36.3
			c9.2,6.1,15.7,12.3,19.7,19C72.5,141.1,74.1,145.6,74.7,150.4z"/>
	</g>
</g>
</svg>
