<svg width="50" height="50" viewBox="0 0 50 50" fill="none" xmlns="http://www.w3.org/2000/svg">
<path d="M47.6738 26.1663L36.3742 44.649C35.7752 45.6287 34.4955 45.9373 33.5158 45.3384L3.01839 26.6935C2.03869 26.0945 1.73003 24.8148 2.32898 23.8351L13.6286 5.35237C14.2275 4.37267 15.5073 4.06402 16.487 4.66297L46.9844 23.3079C47.9641 23.9068 48.2727 25.1866 47.6738 26.1663Z" fill="#EF515C"/>
<path d="M8.40218 29.9886L3.01845 26.6972C2.03384 26.0953 1.73255 24.8145 2.32905 23.8388L13.6294 5.35484C14.2313 4.37029 15.5032 4.06349 16.4878 4.66544L21.8715 7.95684C20.8959 7.36039 19.6151 7.66169 19.0132 8.64625L7.71277 27.1302C7.11628 28.1059 7.42655 29.3921 8.40218 29.9886Z" fill="#E0344C"/>
<path d="M44.9504 14.17V35.8331C44.9504 36.9814 44.0196 37.9122 42.8713 37.9122H7.12601C5.97774 37.9122 5.04688 36.9814 5.04688 35.8331V14.17C5.04688 13.0217 5.97774 12.0908 7.12601 12.0908H42.8713C44.0196 12.0908 44.9504 13.0217 44.9504 14.17Z" fill="#EF515C"/>
<path d="M13.444 37.9157H7.13383C5.97979 37.9157 5.05469 36.9801 5.05469 35.8365V14.1719C5.05469 13.0179 5.97979 12.0928 7.13383 12.0928H13.444C12.3005 12.0928 11.3648 13.0179 11.3648 14.1719V35.8365C11.3648 36.9801 12.3005 37.9157 13.444 37.9157Z" fill="#E0344C"/>
<path d="M5.05469 19.1514H44.9532V23.2572H5.05469V19.1514Z" fill="#FADB43"/>
<path d="M5.05469 19.1514H15.4503V23.2572H5.05469V19.1514Z" fill="#E8C635"/>
<path d="M17.2109 12.0898H21.3168V37.9119H17.2109V12.0898Z" fill="#FADB43"/>
<path d="M17.2109 12.0908H19.2639V37.9129H17.2109V12.0908Z" fill="#E8C635"/>
<path d="M22.8651 18.2285L29.8265 25.1899L26.395 25.8969L25.6879 29.3284L18.7266 22.367L22.8651 18.2285Z" fill="#FADB43"/>
<path d="M18.7266 22.3648L20.4224 20.6689L26.2672 26.5138L25.6892 29.3274L18.7266 22.3648Z" fill="#E8C635"/>
<path d="M19.7952 22.367L12.8338 29.3284L12.1268 25.8969L8.69531 25.1899L15.6567 18.2285L19.7952 22.367Z" fill="#FADB43"/>
<path d="M15.658 18.2295L17.3538 19.9253L11.509 25.7701L8.69531 25.1921L15.658 18.2295Z" fill="#E8C635"/>
<path d="M29.5303 18.1974L29.0233 19.4215C27.8966 22.1415 24.7783 23.4332 22.0583 22.3065L20.8342 21.7995C19.9578 21.4365 19.5416 20.4317 19.9046 19.5553L20.4117 18.3312C21.5383 15.6112 24.6567 14.3196 27.3767 15.4462L28.6008 15.9533C29.4772 16.3163 29.8933 17.321 29.5303 18.1974Z" fill="#FADB43"/>
<path d="M22.655 19.2639L22.1489 20.4857C21.84 21.2316 22.0961 22.072 22.7253 22.5278C22.4979 22.4709 22.2771 22.398 22.0549 22.3059L20.8331 21.7998C19.9603 21.4383 19.542 20.4285 19.9035 19.5557L20.4096 18.3338C21.5369 15.6123 24.6562 14.3202 27.3777 15.4475L28.5996 15.9536C28.7266 16.0062 28.8469 16.0746 28.9528 16.1557C26.4127 15.4661 23.6903 16.7645 22.655 19.2639Z" fill="#E8C635"/>
<path d="M8.99838 18.1974L9.50542 19.4215C10.6321 22.1415 13.7504 23.4332 16.4704 22.3065L17.6945 21.7995C18.5709 21.4365 18.9871 20.4317 18.6241 19.5553L18.117 18.3312C16.9904 15.6112 13.872 14.3196 11.152 15.4462L9.92794 15.9533C9.05154 16.3163 8.63537 17.321 8.99838 18.1974Z" fill="#FADB43"/>
<path d="M18.0466 21.5977C17.9407 21.6788 17.8203 21.7472 17.6934 21.7998L16.4715 22.3059C13.7501 23.4332 10.6307 22.1411 9.5034 19.4197L8.99727 18.1977C8.63576 17.325 9.05398 16.3151 9.92683 15.9536L11.1487 15.4475C11.3708 15.3555 11.5917 15.2826 11.819 15.2256C11.1898 15.6814 10.9337 16.5219 11.2426 17.2677L11.7488 18.4896C12.784 20.9889 15.5063 22.2874 18.0466 21.5977Z" fill="#E8C635"/>
<path d="M21.7821 20.9148C21.7821 22.3134 20.6581 23.4375 19.2727 23.4375C17.874 23.4375 16.75 22.3134 16.75 20.9148C16.75 19.5293 17.8741 18.4053 19.2727 18.4053C20.6581 18.4053 21.7821 19.5293 21.7821 20.9148Z" fill="#FADB43"/>
<path d="M20.2225 23.2521C19.9297 23.3679 19.6097 23.436 19.276 23.436C17.8735 23.436 16.75 22.3126 16.75 20.9167C16.75 19.5278 17.8735 18.4043 19.276 18.4043C19.6097 18.4043 19.9297 18.4724 20.2225 18.5881C19.2965 18.9558 18.6429 19.8614 18.6429 20.9167C18.6429 21.9789 19.2965 22.8845 20.2225 23.2521Z" fill="#E8C635"/>
<path d="M47.269 22.8368L45.5017 21.7563V14.1692C45.5017 12.7207 44.3251 11.5369 42.8693 11.5369H28.7854L16.7719 4.19239C15.534 3.43556 13.9115 3.8269 13.155 5.06412L9.19805 11.5369H7.12663C5.67812 11.5369 4.4943 12.7207 4.4943 14.1692V19.2312L1.85596 23.547C1.09913 24.7837 1.48418 26.4034 2.72805 27.1632L4.4943 28.243V35.831C4.4943 37.2795 5.67812 38.4634 7.12663 38.4634H21.2115L33.2255 45.8083C33.6438 46.064 34.1141 46.1954 34.5924 46.1954C34.7995 46.1954 35.0081 46.171 35.2142 46.1214C35.8974 45.9563 36.4755 45.5355 36.8417 44.9366L40.7991 38.4634H42.8693C44.3251 38.4634 45.5017 37.2795 45.5017 35.831V30.7716L48.1414 26.4537C48.8979 25.2165 48.5066 23.5937 47.269 22.8368ZM44.3987 14.1692V18.5996H29.961L30.0402 18.4086C30.5188 17.2525 29.9681 15.9226 28.8123 15.443L27.5884 14.936C26.1365 14.3357 24.5381 14.335 23.0862 14.9367C22.6472 15.1185 22.2421 15.3539 21.8676 15.6268V12.6398H42.8693C43.7149 12.6398 44.3987 13.3237 44.3987 14.1692ZM17.7617 37.3596V25.1815L18.9724 23.9707C19.3413 23.9971 19.3374 23.9825 19.5538 23.9706L20.7647 25.1814V37.3596H17.7617ZM29.0213 17.9863L28.5143 19.2099C28.0257 20.3897 27.1073 21.3081 25.9279 21.7964C24.7481 22.2861 23.4491 22.2861 22.2701 21.7964L22.2056 21.7697C22.2062 21.768 22.2071 21.7665 22.2075 21.7648C22.353 21.2754 22.3569 20.7685 22.2957 20.4781L25.7958 19.0296C26.0752 18.9119 26.2076 18.5884 26.0899 18.3089C25.9722 18.0222 25.6487 17.8972 25.3692 18.0075L21.9502 19.4266C21.7161 19.0097 21.387 18.6589 20.9999 18.3874C21.7968 16.6448 23.5226 15.5916 25.3434 15.5916C25.9519 15.5916 26.5702 15.7087 27.1662 15.9557L28.3901 16.4619C28.9839 16.7082 29.2672 17.3925 29.0213 17.9863ZM19.2737 22.8825C18.1855 22.8825 17.3031 22.0075 17.2957 20.9192V20.9119C17.2957 19.833 18.1866 18.956 19.2737 18.956C20.3541 18.956 21.2296 19.8469 21.2296 20.9119V20.9192C21.2222 22.0075 20.3472 22.8825 19.2737 22.8825ZM17.7617 16.6696V12.6411H20.7647V16.6696C20.453 17.0556 20.1929 17.4856 19.9839 17.948C19.7569 17.8824 19.5152 17.8531 19.2737 17.8531C19.0237 17.8531 18.7737 17.8825 18.5458 17.9486C18.5449 17.9488 18.5441 17.9493 18.5432 17.9495C18.334 17.4865 18.0737 17.056 17.7617 16.6696ZM17.5322 18.3892C17.5319 18.3894 17.5314 18.3895 17.5311 18.3898C17.1413 18.6619 16.8178 19.0148 16.5825 19.4266L13.1561 18.0075C12.8766 17.8972 12.5531 18.0222 12.4355 18.3089C12.3178 18.5883 12.4501 18.9119 12.7369 19.0295L16.2296 20.4781C16.2001 20.6178 16.1928 20.7648 16.1928 20.9119C16.1928 21.213 16.2369 21.4993 16.3175 21.7711L16.2567 21.7964C13.8228 22.8045 11.0202 21.6449 10.0121 19.2099L9.50511 17.9863C9.25918 17.3925 9.54245 16.7082 10.1363 16.4626L11.3602 15.9557C13.7407 14.9687 16.4705 16.0607 17.5322 18.3892ZM9.06557 19.7854C9.49075 20.7348 10.146 21.5372 10.9712 22.135L10.3172 22.789H5.60281V19.7854L9.06557 19.7854ZM11.955 22.7106C12.0293 22.745 12.1006 22.7838 12.1767 22.8153C13.5823 23.3979 15.1779 23.4366 16.6789 22.816L16.8186 22.7582C17.0758 23.1033 17.4061 23.3898 17.7807 23.6028L13.1683 28.2151L12.6678 25.7859C12.6236 25.5705 12.4549 25.4018 12.2391 25.3572L9.80957 24.856L11.955 22.7106ZM20.7453 23.6023C21.1199 23.3965 21.4504 23.1101 21.7148 22.7648C21.7156 22.7639 21.716 22.7627 21.7167 22.7617L21.8478 22.816C22.5738 23.1162 23.3364 23.267 24.099 23.267C24.8615 23.267 25.6241 23.1162 26.3501 22.8153C26.426 22.7838 26.4973 22.745 26.5715 22.7107L28.7168 24.856L26.2876 25.3572C26.0718 25.4018 25.9031 25.5705 25.8589 25.7859L25.3581 28.2151L20.7453 23.6023ZM27.5553 22.1351C28.4048 21.5196 29.0762 20.6886 29.5001 19.7025H44.3986V22.7062H28.1264L27.5553 22.1351ZM14.096 5.64C14.384 5.16895 14.8873 4.90902 15.4022 4.90902C15.6736 4.90902 15.9486 4.98154 16.1967 5.13306L26.6715 11.5369H10.4911L14.096 5.64ZM7.12663 12.6398H16.6588V15.6268C16.2843 15.354 15.8792 15.1185 15.4402 14.9367C13.9883 14.335 12.3899 14.3357 10.938 14.936L9.71407 15.4437C8.55835 15.9226 8.0076 17.2525 8.48619 18.4086L8.59964 18.6824H5.59724V14.1692C5.59724 13.3237 6.28102 12.6398 7.12663 12.6398ZM3.30322 26.2225C2.58265 25.7812 2.35589 24.8417 2.79699 24.1229L4.4943 21.3464V26.9507L3.30322 26.2225ZM5.59724 35.831V23.8919H9.2143L8.30631 24.8C7.99657 25.1098 8.15559 25.6414 8.58492 25.7299L11.6611 26.364L12.2948 29.4401C12.3837 29.8724 12.9163 30.0271 13.2247 29.7187L16.6588 26.2845V37.3604H7.12663C6.28102 37.3604 5.59724 36.6766 5.59724 35.831ZM35.901 44.3607C35.6881 44.709 35.3524 44.9531 34.9557 45.0493C34.5597 45.1441 34.149 45.0809 33.8007 44.8677L23.3253 38.4634H39.5064L35.901 44.3607ZM42.8693 37.3604H21.8676V26.2844L25.3017 29.7187C25.6101 30.0271 26.1427 29.8723 26.2316 29.4401L26.8657 26.364L29.9415 25.7299C30.3705 25.6415 30.5301 25.11 30.2201 24.8L29.2292 23.8091H44.3987V35.831C44.3987 36.6766 43.7149 37.3604 42.8693 37.3604ZM47.2008 25.8778L45.5017 28.6571V23.0488L46.6935 23.7775C47.4123 24.2177 47.6399 25.1598 47.2008 25.8778Z" fill="black"/>
<path d="M40.4507 29.9072H32.4655C32.1611 29.9072 31.9141 30.1542 31.9141 30.4587C31.9141 30.7632 32.1611 31.0102 32.4655 31.0102H40.4507C40.7552 31.0102 41.0022 30.7632 41.0022 30.4587C41.0022 30.1542 40.7552 29.9072 40.4507 29.9072Z" fill="black"/>
<path d="M40.4507 32.8828H32.4655C32.1611 32.8828 31.9141 33.1298 31.9141 33.4343C31.9141 33.7387 32.1611 33.9858 32.4655 33.9858H40.4507C40.7552 33.9858 41.0022 33.7387 41.0022 33.4343C41.0022 33.1298 40.7552 32.8828 40.4507 32.8828Z" fill="black"/>
<path d="M2.02022 4.06147H2.95621V4.99782C2.95621 5.30228 3.20323 5.54929 3.50768 5.54929C3.81214 5.54929 4.05915 5.30228 4.05915 4.99782V4.06147H4.99551C5.29996 4.06147 5.54698 3.81445 5.54698 3.51C5.54698 3.20554 5.29996 2.95853 4.99551 2.95853H4.05915V2.02217C4.05915 1.71772 3.81214 1.4707 3.50768 1.4707C3.20323 1.4707 2.95621 1.71772 2.95621 2.02217V2.95853H2.02022C1.71576 2.95853 1.46875 3.20554 1.46875 3.51C1.46875 3.81445 1.71576 4.06147 2.02022 4.06147Z" fill="#CA9342"/>
<path d="M43.6049 45.5652H42.6689V44.6296C42.6689 44.3251 42.4219 44.0781 42.1174 44.0781C41.813 44.0781 41.5659 44.3251 41.5659 44.6296V45.5652H40.6296C40.3251 45.5652 40.0781 45.8122 40.0781 46.1167C40.0781 46.4212 40.3251 46.6682 40.6296 46.6682H41.5659V47.6045C41.5659 47.909 41.813 48.156 42.1174 48.156C42.4219 48.156 42.6689 47.909 42.6689 47.6045V46.6682H43.6049C43.9093 46.6682 44.1564 46.4212 44.1564 46.1167C44.1564 45.8122 43.9093 45.5652 43.6049 45.5652Z" fill="#CA9342"/>
<path d="M3.93612 44.4854C2.82582 44.4854 1.91406 45.3971 1.91406 46.5074C1.91406 47.625 2.82582 48.5295 3.93612 48.5295C5.05378 48.5295 5.95818 47.625 5.95818 46.5074C5.95818 45.3971 5.05378 44.4854 3.93612 44.4854ZM3.93612 47.4265C3.42881 47.4265 3.017 47.0148 3.017 46.5074C3.017 46.0001 3.42881 45.5883 3.93612 45.5883C4.44343 45.5883 4.85524 46.0001 4.85524 46.5074C4.85524 47.0148 4.44343 47.4265 3.93612 47.4265Z" fill="#CA9342"/>
<path d="M36.7408 8.08904C37.8585 8.08904 38.7629 7.1846 38.7629 6.0743C38.7629 4.95668 37.8585 4.04492 36.7408 4.04492C35.6231 4.04492 34.7188 4.95668 34.7188 6.0743C34.7188 7.1846 35.6231 8.08904 36.7408 8.08904ZM36.7408 5.14786C37.2482 5.14786 37.6599 5.56699 37.6599 6.0743C37.6599 6.58165 37.2482 6.9861 36.7408 6.9861C36.2334 6.9861 35.8217 6.58165 35.8217 6.0743C35.8217 5.56698 36.2334 5.14786 36.7408 5.14786Z" fill="#CA9342"/>
<path d="M7.30147 8.88566C7.60593 8.88566 7.85294 8.63864 7.85294 8.33419V8.12667C7.85294 7.82221 7.60593 7.5752 7.30147 7.5752C6.99701 7.5752 6.75 7.82221 6.75 8.12667V8.33419C6.75 8.63865 6.99701 8.88566 7.30147 8.88566Z" fill="#CA9342"/>
<path d="M22.5046 4.16398C22.8091 4.16398 23.0561 3.91696 23.0561 3.61251V3.40499C23.0561 3.10053 22.8091 2.85352 22.5046 2.85352C22.2001 2.85352 21.9531 3.10053 21.9531 3.40499V3.61251C21.9531 3.91696 22.2001 4.16398 22.5046 4.16398Z" fill="#CA9342"/>
<path d="M28.9499 8.29874C29.2544 8.29874 29.5014 8.05173 29.5014 7.74727V7.53975C29.5014 7.2353 29.2544 6.98828 28.9499 6.98828C28.6455 6.98828 28.3984 7.2353 28.3984 7.53975V7.74727C28.3984 8.05173 28.6455 8.29874 28.9499 8.29874Z" fill="#CA9342"/>
<path d="M47.2468 13.8144C47.5512 13.8144 47.7983 13.5674 47.7983 13.2629V13.0554C47.7983 12.7509 47.5512 12.5039 47.2468 12.5039C46.9423 12.5039 46.6953 12.7509 46.6953 13.0554V13.2629C46.6953 13.5674 46.9423 13.8144 47.2468 13.8144Z" fill="#CA9342"/>
<path d="M43.5983 4.16398C43.9028 4.16398 44.1498 3.91696 44.1498 3.61251V3.40499C44.1498 3.10053 43.9028 2.85352 43.5983 2.85352C43.2939 2.85352 43.0469 3.10053 43.0469 3.40499V3.61251C43.0469 3.91696 43.2939 4.16398 43.5983 4.16398Z" fill="#CA9342"/>
<path d="M18.239 40.7314C17.9345 40.7314 17.6875 40.9785 17.6875 41.2829V41.4904C17.6875 41.7949 17.9345 42.0419 18.239 42.0419C18.5434 42.0419 18.7904 41.7949 18.7904 41.4904V41.2829C18.7904 40.9785 18.5434 40.7314 18.239 40.7314Z" fill="#CA9342"/>
<path d="M24.9968 45.8516C24.6923 45.8516 24.4453 46.0986 24.4453 46.403V46.6106C24.4453 46.915 24.6923 47.162 24.9968 47.162C25.3012 47.162 25.5483 46.915 25.5483 46.6106V46.403C25.5483 46.0986 25.3012 45.8516 24.9968 45.8516Z" fill="#CA9342"/>
<path d="M46.7233 40.627C46.4189 40.627 46.1719 40.874 46.1719 41.1784V41.3867C46.1719 41.6911 46.4189 41.9381 46.7233 41.9381C47.0278 41.9381 47.2748 41.6911 47.2748 41.3867V41.1784C47.2748 40.874 47.0278 40.627 46.7233 40.627Z" fill="#CA9342"/>
<path d="M10.7937 43.1885C10.4892 43.1885 10.2422 43.4355 10.2422 43.7399V43.9475C10.2422 44.2519 10.4892 44.4989 10.7937 44.4989C11.0981 44.4989 11.3451 44.2519 11.3451 43.9475V43.7399C11.3451 43.4355 11.0981 43.1885 10.7937 43.1885Z" fill="#CA9342"/>
<path d="M3.14982 38.0197V37.8122C3.14982 37.5078 2.9028 37.2607 2.59835 37.2607C2.29389 37.2607 2.04688 37.5078 2.04688 37.8122V38.0197C2.04688 38.3242 2.29389 38.5712 2.59835 38.5712C2.9028 38.5712 3.14982 38.3242 3.14982 38.0197Z" fill="#CA9342"/>
</svg>
