<svg width="92" height="90" viewBox="0 0 92 90" fill="none" xmlns="http://www.w3.org/2000/svg">
<g clip-path="url(#clip0_6244_8322)">
<mask id="mask0_6244_8322" style="mask-type:luminance" maskUnits="userSpaceOnUse" x="0" y="0" width="92" height="92">
<path d="M0 7.62939e-06H91.25V91.25H0V7.62939e-06Z" fill="white"/>
</mask>
<g mask="url(#mask0_6244_8322)">
<path fill-rule="evenodd" clip-rule="evenodd" d="M76.9909 12.8301C79.946 12.8301 82.3413 10.4357 82.3413 7.48696C82.3413 4.53292 79.946 2.1385 76.9909 2.1385C74.0358 2.1385 71.6406 4.53292 71.6406 7.48696C71.6406 10.4357 74.0358 12.8301 76.9909 12.8301Z" fill="#FE76A8"/>
<path fill-rule="evenodd" clip-rule="evenodd" d="M27.6756 49.5171L21.4544 39.9709C0.229342 23.3454 -8.36116 54.228 16.5344 51.2738L27.6756 49.5171Z" fill="#FE76A8"/>
<path fill-rule="evenodd" clip-rule="evenodd" d="M36.8003 39.9763C52.4001 20.3657 21.61 11.4311 24.5962 38.2194L29.7858 47.1592L36.8003 39.9763Z" fill="#FE76A8"/>
<path fill-rule="evenodd" clip-rule="evenodd" d="M19.3914 49.6777L28.122 48.0194L33.7884 41.6552L31.9687 38.3954C31.6266 37.7787 31.1341 37.302 30.5638 36.9755C29.4647 36.3483 28.065 36.2913 26.8828 36.9496L24.6017 38.2193L21.4549 39.9708L19.0182 41.3339C17.8879 41.9611 17.214 43.096 17.1155 44.2983C17.0533 45.0083 17.1984 45.7442 17.5717 46.4127L19.3914 49.6777Z" fill="#FECE85"/>
<path fill-rule="evenodd" clip-rule="evenodd" d="M39.0513 51.0928L54.3246 42.583C55.5843 41.8783 56.0405 40.2768 55.3406 39.0177L52.6292 34.1563C51.9241 32.897 50.3222 32.4409 49.0624 33.1458L36.8064 39.9763L33.7891 41.6553V48.0195L39.0513 51.0928Z" fill="#01D0FB"/>
<path fill-rule="evenodd" clip-rule="evenodd" d="M39.473 89.1113L43.3146 71.7086L39.473 55.2282H31.6237L22.0171 54.3989L20.0938 61.6543V85.7012C20.0938 87.5774 21.6282 89.1113 23.5049 89.1113H39.473Z" fill="#99E6FC"/>
<path fill-rule="evenodd" clip-rule="evenodd" d="M9.38032 67.6296L24.6535 59.1149L25.089 52.7507L19.3913 49.6774L16.5347 51.2738L4.11295 58.1924C2.85826 58.8921 2.40201 60.4934 3.10189 61.7527L5.81337 66.6191C6.51343 67.8732 8.12046 68.3293 9.38032 67.6296Z" fill="#01D0FB"/>
<path fill-rule="evenodd" clip-rule="evenodd" d="M71.6186 85.7012V63.5098V57.1353C71.6186 56.0885 70.7579 55.2282 69.7107 55.2282H52.2394L47.6719 72.1748L52.2394 89.1113H68.2072C70.0841 89.1113 71.6186 87.5772 71.6186 85.7012Z" fill="#99E6FC"/>
<path fill-rule="evenodd" clip-rule="evenodd" d="M36.8065 39.9762C47.5123 26.5172 36.3657 18.0853 29.2891 22.7808C35.1216 23.1073 40.1712 30.0933 32.9389 40.1368L33.7892 41.6553L36.8065 39.9762Z" fill="#FE5694"/>
<path fill-rule="evenodd" clip-rule="evenodd" d="M21.4566 39.9711C9.3458 30.4872 1.35144 36.4626 1.33594 42.8008C3.85565 39.1524 9.73468 37.4163 17.703 42.5677C18.0245 42.0701 18.4651 41.6398 19.0199 41.3342L21.4566 39.9711Z" fill="#FE5694"/>
<path fill-rule="evenodd" clip-rule="evenodd" d="M32.9332 40.1378L31.9639 38.3963C31.6217 37.7797 31.1291 37.3029 30.5588 36.9764C29.4597 36.3495 28.0599 36.2922 26.8778 36.9506L24.5967 38.2203L22.4297 39.4277C23.6117 38.7695 25.0063 38.8266 26.1105 39.4537C26.6808 39.7802 27.1734 40.2622 27.5156 40.8736L29.3353 44.1387L33.7835 41.6562L32.9332 40.1378Z" fill="#FDB440"/>
<path fill-rule="evenodd" clip-rule="evenodd" d="M54.3199 42.5821C55.5796 41.8772 56.0358 40.2759 55.3359 39.0166L52.6245 34.1554C51.9194 32.896 50.3176 32.44 49.0577 33.1448L42.9297 36.5599C44.1895 35.8552 45.7914 36.3113 46.4915 37.5706L49.2029 42.4318C49.9028 43.6912 49.4517 45.2873 48.2022 45.9922L54.3199 42.5821Z" fill="#00B1CD"/>
<path fill-rule="evenodd" clip-rule="evenodd" d="M39.0498 51.0927L33.7876 41.6553L19.3906 49.678L24.6528 59.1152C29.4588 56.4358 34.2439 53.7721 39.0498 51.0927Z" fill="#FE5694"/>
<path fill-rule="evenodd" clip-rule="evenodd" d="M52.2483 55.2282H39.4844V89.1113H52.2483V55.2282Z" fill="#FE76A8"/>
<path fill-rule="evenodd" clip-rule="evenodd" d="M71.6232 63.5098V57.1353C71.6232 56.0885 70.7626 55.2282 69.7153 55.2282H62.0165C63.0637 55.2282 63.9243 56.0885 63.9243 57.1353V63.5098V85.7012C63.9243 87.5774 62.3847 89.1113 60.5078 89.1113H68.2118C70.0887 89.1113 71.6232 87.5774 71.6232 85.7012V63.5098Z" fill="#2ED1E2"/>
<path fill-rule="evenodd" clip-rule="evenodd" d="M40.0488 90C40.7661 90 41.3476 89.4066 41.3476 88.6745V74.4187C41.3476 73.6867 40.7661 73.0933 40.0488 73.0933C39.3315 73.0933 38.75 73.6867 38.75 74.4187V88.6745C38.75 89.4066 39.3315 90 40.0488 90ZM52.4512 90C53.1685 90 53.75 89.4066 53.75 88.6745V55.0755C53.75 54.3434 53.1685 53.75 52.4512 53.75C51.7339 53.75 51.1524 54.3434 51.1524 55.0755V88.6745C51.1524 89.4066 51.7339 90 52.4512 90ZM40.0488 69.4643C40.7661 69.4643 41.3476 68.8709 41.3476 68.1389V55.0755C41.3476 54.3434 40.7661 53.75 40.0488 53.75C39.3315 53.75 38.75 54.3434 38.75 55.0755V68.1389C38.75 68.8709 39.3315 69.4643 40.0488 69.4643Z" fill="black"/>
<path fill-rule="evenodd" clip-rule="evenodd" d="M6.98161 65.968C6.98156 65.9679 6.9815 65.9678 6.98145 65.9677L4.27118 61.1035C4.27107 61.1033 4.27096 61.1031 4.27085 61.1029C3.92919 60.4874 4.15542 59.7 4.76464 59.36C4.76473 59.36 4.76482 59.3599 4.76491 59.3599L49.7152 34.3119C50.328 33.969 51.1171 34.1907 51.4632 34.8089L54.1725 39.6668C54.1727 39.6671 54.1729 39.6674 54.173 39.6677C54.5132 40.2807 54.2906 41.0702 53.6722 41.4161L8.73226 66.4612C8.73204 66.4613 8.73181 66.4614 8.73159 66.4616C8.11378 66.8042 7.32096 66.5756 6.98161 65.968ZM4.64715 67.2707C5.70788 69.171 8.12852 69.8544 10.0302 68.7983L54.9772 43.7492C56.8782 42.6859 57.5683 40.273 56.509 38.3678L53.7958 33.503C52.7322 31.6032 50.3184 30.9126 48.4119 31.9778L48.4099 31.9789M48.4099 31.9789L3.46285 57.0251C1.56309 58.0845 0.876893 60.4992 1.93446 62.4022L4.64715 67.2707" fill="black"/>
<path fill-rule="evenodd" clip-rule="evenodd" d="M25.3048 60.2817C25.9495 59.9222 26.1808 59.1081 25.8212 58.4633L20.559 49.026C20.1995 48.3813 19.3854 48.1501 18.7406 48.5096C18.0959 48.8691 17.8646 49.6832 18.2242 50.328L23.4864 59.7652C23.8459 60.41 24.66 60.6412 25.3048 60.2817ZM39.7018 52.2594C40.3465 51.8999 40.5778 51.0857 40.2183 50.441L34.9561 41.0035C34.5965 40.3588 33.7824 40.1275 33.1376 40.4871C32.4929 40.8466 32.2616 41.6607 32.6212 42.3055L37.8834 51.7429C38.2429 52.3876 39.057 52.6189 39.7018 52.2594Z" fill="black"/>
<path fill-rule="evenodd" clip-rule="evenodd" d="M2.90092 49.391C5.64753 51.9705 10.2271 53.369 16.6922 52.6019C17.4253 52.5149 17.9491 51.8501 17.8621 51.117C17.7751 50.3839 17.1103 49.8602 16.3772 49.9472C10.3947 50.657 6.71226 49.303 4.73104 47.4423C2.76019 45.5914 2.27819 43.0721 2.9726 40.9039C3.66463 38.7431 5.53989 36.8952 8.42946 36.4609C11.3446 36.0228 15.4991 37.0043 20.6305 41.0237C21.2116 41.479 22.0518 41.3769 22.507 40.7957C22.9622 40.2146 22.8601 39.3744 22.279 38.9192C16.798 34.6259 11.9193 33.2331 8.03217 33.8173C4.1195 34.4053 1.42343 36.9761 0.426643 40.0885C-0.567763 43.1935 0.143937 46.8018 2.90092 49.391Z" fill="black"/>
<path fill-rule="evenodd" clip-rule="evenodd" d="M18.75 85.293C18.75 87.8859 20.8658 90 23.4588 90H67.791C70.3842 90 72.5 87.8859 72.5 85.293V56.9666C72.5 55.196 71.0524 53.75 69.2821 53.75H31.4286C30.6964 53.75 30.1029 54.3434 30.1029 55.0755C30.1029 55.8075 30.6964 56.4009 31.4286 56.4009H69.2821C69.5891 56.4009 69.8486 56.661 69.8486 56.9666V85.293C69.8486 86.421 68.9207 87.3491 67.791 87.3491H23.4588C22.3293 87.3491 21.4014 86.421 21.4014 85.293V61.4479C21.4014 60.7159 20.8078 60.1225 20.0757 60.1225C19.3435 60.1225 18.75 60.7159 18.75 61.4479V85.293Z" fill="black"/>
<path fill-rule="evenodd" clip-rule="evenodd" d="M18.2251 50.3284C18.5844 50.9733 19.3985 51.2047 20.0433 50.8454L34.4403 42.8228C34.7501 42.6502 34.9786 42.3615 35.0755 42.0203C35.1724 41.6791 35.1297 41.3134 34.9568 41.0037L33.1381 37.7455C33.1378 37.7451 33.1376 37.7447 33.1374 37.7443C31.7766 35.3 28.6704 34.4231 26.2332 35.7821L26.233 35.7822L18.3699 40.1656C18.3695 40.1659 18.3691 40.1661 18.3686 40.1664M18.2251 50.3284L18.3686 40.1664L16.4058 47.0641M16.4058 47.0641L16.4055 47.0636L16.4054 47.0634C15.0454 44.6256 15.9248 41.526 18.3686 40.1664M19.9096 47.8595L18.7402 45.7613C18.0996 44.6134 18.5161 43.1431 19.669 42.5021L19.6703 42.5014L27.5349 38.1171L27.5351 38.117C28.6852 37.4756 30.1614 37.894 30.802 39.0452L31.9705 41.1387L19.9096 47.8595Z" fill="black"/>
<path fill-rule="evenodd" clip-rule="evenodd" d="M18.3642 44.7546C18.6166 44.0609 18.2587 43.2939 17.565 43.0416C15.3077 42.2205 13.5488 41.7881 10.5604 41.4609C9.82655 41.3805 9.16653 41.9103 9.08618 42.6441C9.00584 43.378 9.5356 44.038 10.2694 44.1183C13.0565 44.4235 14.6054 44.8098 16.6512 45.5539C17.3449 45.8062 18.1119 45.4484 18.3642 44.7546Z" fill="black"/>
<path fill-rule="evenodd" clip-rule="evenodd" d="M35.9687 41.0218C36.5464 41.4814 37.3873 41.3856 37.8469 40.8079C43.115 34.1855 43.5843 28.3154 41.2013 24.3971C38.8641 20.5542 34.005 19.0731 29.8761 20.9288C29.2028 21.2314 28.9022 22.0226 29.2049 22.6959C29.5075 23.3693 30.2987 23.6698 30.972 23.3672C33.8886 22.0564 37.2908 23.1121 38.9172 25.7862C40.4976 28.3849 40.6325 33.0119 35.7548 39.1436C35.2952 39.7214 35.391 40.5623 35.9687 41.0218ZM24.7446 39.5473C25.4783 39.4656 26.0069 38.8046 25.9252 38.071C25.3291 32.7173 26.1464 29.0116 27.5267 26.6267C27.8965 25.9878 27.6783 25.17 27.0394 24.8003C26.4005 24.4305 25.5827 24.6487 25.213 25.2876C23.4619 28.3131 22.6307 32.6403 23.2682 38.3668C23.3499 39.1005 24.0109 39.629 24.7446 39.5473Z" fill="black"/>
<path fill-rule="evenodd" clip-rule="evenodd" d="M30.4578 38.3073C31.1937 38.3656 31.8375 37.8162 31.8958 37.0803C32.0285 35.4056 32.8798 32.7504 33.9395 31.0104C34.3235 30.3799 34.1236 29.5575 33.4931 29.1735C32.8626 28.7895 32.0402 28.9894 31.6562 29.6199C30.3929 31.6942 29.3986 34.7504 29.2308 36.8692C29.1725 37.6052 29.7218 38.249 30.4578 38.3073Z" fill="black"/>
<path fill-rule="evenodd" clip-rule="evenodd" d="M60.8835 48.5462C61.4261 49.0467 62.2717 49.0126 62.7723 48.47C64.5244 46.5707 65.6471 44.0175 66.375 41.3695C67.1066 38.7078 67.4664 35.849 67.6266 33.2443C67.7871 30.6344 67.7491 28.2451 67.6715 26.5098C67.6327 25.641 67.5837 24.9334 67.5443 24.4406C67.5245 24.1942 67.5072 24.0013 67.4946 23.8687C67.4883 23.8024 67.4832 23.7511 67.4796 23.7157C67.4778 23.698 67.4763 23.6843 67.4753 23.6747L67.4741 23.6633L67.4736 23.6588C67.4736 23.6584 67.4736 23.6581 66.1447 23.802L67.4736 23.6581C67.3941 22.9241 66.7347 22.3936 66.0007 22.4731C65.2669 22.5526 64.7364 23.2118 64.8157 23.9456L64.8158 23.9459L64.8166 23.9541C64.8174 23.9609 64.8185 23.9717 64.82 23.9865C64.823 24.016 64.8275 24.0612 64.8332 24.1213C64.8446 24.2416 64.8608 24.4214 64.8795 24.654C64.9167 25.1194 64.9635 25.7955 65.0008 26.6293C65.0755 28.2991 65.1114 30.5898 64.9583 33.0802C64.8048 35.5757 64.4634 38.2372 63.7972 40.661C63.1272 43.0985 62.1555 45.1959 60.8073 46.6574C60.3068 47.2 60.3409 48.0457 60.8835 48.5462Z" fill="black"/>
<path fill-rule="evenodd" clip-rule="evenodd" d="M91.2026 14.0022C91.374 14.7203 90.9308 15.4413 90.2127 15.6127C84.684 16.9324 81.2983 20.32 79.2731 23.4209C78.2586 24.9743 77.5931 26.4461 77.1825 27.5265C76.9777 28.0657 76.8375 28.5043 76.7497 28.8027C76.7059 28.9518 76.6752 29.0656 76.6562 29.1391C76.6467 29.1758 76.6401 29.2025 76.6363 29.2184C76.6343 29.2264 76.6331 29.2317 76.6325 29.2342L76.6324 29.2344C76.6325 29.2339 76.6327 29.2334 75.3291 28.9375L76.6327 29.2334C76.6325 29.2342 76.6323 29.2349 76.6321 29.2357C76.4677 29.9543 75.7524 30.4043 75.0333 30.241C74.3134 30.0776 73.8622 29.3615 74.0256 28.6416L75.3291 28.9375C74.0256 28.6416 74.0258 28.641 74.0259 28.6403L74.0263 28.6388L74.0272 28.6348L74.0298 28.6237C74.0319 28.6149 74.0346 28.6032 74.0381 28.5888C74.0451 28.56 74.055 28.5201 74.068 28.4698C74.094 28.3694 74.1324 28.2272 74.185 28.0485C74.29 27.6913 74.4517 27.187 74.6835 26.5769C75.1464 25.3589 75.8933 23.707 77.0348 21.9591C79.3217 18.4575 83.2227 14.5327 89.5921 13.0124C90.3101 12.841 91.0312 13.2842 91.2026 14.0022Z" fill="black"/>
<path d="M51.2375 20.9654C51.5037 20.919 51.764 20.823 51.9712 20.7394C51.9758 20.7375 51.9803 20.7357 51.9848 20.7338L55.5597 19.2443C55.5635 19.2433 55.5742 19.2404 55.5924 19.2373C55.6259 19.2316 55.6697 19.2274 55.7188 19.2274C55.7679 19.2274 55.8109 19.2316 55.8428 19.2371C55.8573 19.2396 55.8664 19.2418 55.8704 19.2429L59.4546 20.734C59.4589 20.7358 59.4632 20.7376 59.4675 20.7394C59.674 20.8227 59.9339 20.9187 60.1995 20.9653C60.4395 21.0073 60.969 21.0616 61.4682 20.7126C61.9868 20.35 62.1081 19.8121 62.1419 19.5449C62.1764 19.273 62.1572 18.9955 62.1336 18.7741L61.8245 14.8899L61.8243 14.8878C61.8176 14.7985 61.8158 14.7326 61.8171 14.6824C61.8178 14.6532 61.8195 14.6323 61.8212 14.6182L64.4165 11.4906C64.5594 11.3277 64.7291 11.1216 64.857 10.8956C64.9764 10.6846 65.2064 10.2022 65.0421 9.61288C64.8726 9.00506 64.4069 8.71261 64.1721 8.59306C63.9236 8.4665 63.6496 8.38923 63.4318 8.33516L63.4315 8.33509L59.4863 7.35655C59.4789 7.34424 59.4712 7.33156 59.4633 7.31863L57.411 3.89277L57.4094 3.88994C57.2866 3.683 57.1241 3.43645 56.9136 3.22891C56.7046 3.02285 56.3017 2.71286 55.7187 2.71286C55.1372 2.71286 54.7348 3.02148 54.5263 3.22551C54.3147 3.43266 54.1506 3.67927 54.0263 3.88651L51.9668 7.32473C51.9604 7.33538 51.9541 7.34597 51.948 7.35637L48.0021 8.33509L47.9998 8.33566C47.7832 8.38978 47.5103 8.46716 47.2625 8.59361C47.0284 8.71311 46.5658 9.00411 46.3949 9.60761C46.2284 10.1955 46.4552 10.6783 46.5754 10.8922C46.7034 11.1201 46.8739 11.3273 47.0175 11.4911L49.6159 14.6162C49.621 14.6521 49.6262 14.7311 49.6145 14.8866L49.3001 18.7733C49.2763 18.9962 49.2572 19.2758 49.2931 19.5502C49.3287 19.8219 49.4543 20.3572 49.9733 20.7163C50.4706 21.0604 50.9963 21.0075 51.2375 20.9654Z" fill="black"/>
<path fill-rule="evenodd" clip-rule="evenodd" d="M60.2769 13.5953L62.6439 10.7428C63.1305 10.191 63.0977 10.0273 62.3819 9.84962L58.7051 8.93779C58.2887 8.83487 58.2654 8.72262 58.0595 8.38588L56.2023 5.28551C55.8281 4.65415 55.5989 4.65415 55.2199 5.28551L53.3628 8.38588C53.1616 8.72262 53.1336 8.83487 52.7173 8.93779L49.0402 9.84962C48.3292 10.0273 48.2918 10.191 48.7782 10.7428L51.1501 13.5953C51.4026 13.8993 51.4401 14.2547 51.4074 14.6849L51.122 18.2109C51.0425 18.9404 51.1969 19.0293 51.8799 18.7533L55.1123 17.4065C55.4492 17.2663 55.9778 17.2663 56.3099 17.4065L59.5471 18.7533C60.2301 19.0293 60.3798 18.9404 60.3004 18.2109L60.0196 14.6849C59.9869 14.2547 60.0196 13.8993 60.2769 13.5953Z" fill="#FECE85"/>
<path fill-rule="evenodd" clip-rule="evenodd" d="M55.8476 10.6539C55.3657 13.7403 54.3413 16.4293 53.1016 18.2436L55.1132 17.4066C55.45 17.2663 55.9786 17.2663 56.3106 17.4066L59.5479 18.7534C60.2308 19.0292 60.3806 18.9404 60.3011 18.2108L60.0205 14.6849C59.9877 14.2548 60.0205 13.8994 60.2776 13.5954L62.6448 10.7429C63.1313 10.1909 63.0985 10.0274 62.3829 9.8497L58.7058 8.93771C58.2896 8.83479 58.2662 8.7227 58.0603 8.38595L56.2031 5.28559C56.1424 5.18267 56.0861 5.09856 56.0348 5.03295C56.2125 6.71186 56.1657 8.63843 55.8476 10.6539Z" fill="#FDB440"/>
<path d="M77.4406 51.7086C77.7068 51.6621 77.9671 51.5662 78.1743 51.4825C78.1789 51.4807 78.1834 51.4788 78.1879 51.4769L81.7628 49.9875C81.7666 49.9864 81.7774 49.9836 81.7956 49.9805C81.829 49.9747 81.8729 49.9706 81.9219 49.9706C81.971 49.9706 82.014 49.9747 82.046 49.9802C82.0604 49.9827 82.0695 49.985 82.0736 49.9861L85.6577 51.4772C85.662 51.479 85.6663 51.4808 85.6706 51.4825C85.8771 51.5659 86.137 51.6619 86.4027 51.7084C86.6427 51.7505 87.1721 51.8048 87.6713 51.4558C88.1899 51.0932 88.3112 50.5553 88.3451 50.288C88.3795 50.0162 88.3603 49.7387 88.3367 49.5173L88.0276 45.6331L88.0274 45.631C88.0207 45.5417 88.0189 45.4758 88.0202 45.4256C88.0209 45.3964 88.0227 45.3755 88.0243 45.3614L90.6196 42.2337C90.7625 42.0709 90.9323 41.8647 91.0602 41.6387C91.1795 41.4278 91.4095 40.9454 91.2452 40.356C91.0758 39.7482 90.61 39.4558 90.3752 39.3362C90.1267 39.2097 89.8527 39.1324 89.6349 39.0783L89.6346 39.0783L85.6894 38.0997C85.682 38.0874 85.6743 38.0747 85.6664 38.0618L83.6142 34.6359L83.6125 34.6331C83.4897 34.4262 83.3272 34.1796 83.1167 33.9721C82.9077 33.766 82.5048 33.456 81.9218 33.456C81.3404 33.456 80.9379 33.7646 80.7295 33.9687C80.5178 34.1758 80.3538 34.4224 80.2294 34.6297L78.1699 38.0679C78.1636 38.0785 78.1573 38.0891 78.1511 38.0995L74.2052 39.0783L74.2029 39.0788C73.9863 39.1329 73.7134 39.2103 73.4657 39.3368C73.2315 39.4563 72.7689 39.7473 72.598 40.3508C72.4315 40.9387 72.6583 41.4215 72.7785 41.6354C72.9066 41.8632 73.077 42.0705 73.2206 42.2342L75.819 45.3594C75.8241 45.3953 75.8294 45.4742 75.8176 45.6298L75.5032 49.5164C75.4794 49.7393 75.4603 50.019 75.4963 50.2934C75.5318 50.5651 75.6575 51.1003 76.1764 51.4595C76.6737 51.8036 77.1994 51.7507 77.4406 51.7086Z" fill="black"/>
<path fill-rule="evenodd" clip-rule="evenodd" d="M86.48 44.3385L88.847 41.486C89.3337 40.9342 89.3009 40.7705 88.5851 40.5928L84.9082 39.681C84.4918 39.578 84.4685 39.4658 84.2627 39.129L82.4054 36.0287C82.0312 35.3973 81.802 35.3973 81.423 36.0287L79.5659 39.129C79.3647 39.4658 79.3367 39.578 78.9204 39.681L75.2433 40.5928C74.5324 40.7705 74.4949 40.9342 74.9814 41.486L77.3532 44.3385C77.6057 44.6424 77.6432 44.9978 77.6105 45.428L77.3251 48.9541C77.2456 49.6835 77.4 49.7725 78.083 49.4965L81.3154 48.1497C81.6523 48.0094 82.1809 48.0094 82.513 48.1497L85.7502 49.4965C86.4332 49.7725 86.5829 49.6835 86.5035 48.9541L86.2227 45.428C86.19 44.9978 86.2227 44.6424 86.48 44.3385Z" fill="#FECE85"/>
<path fill-rule="evenodd" clip-rule="evenodd" d="M82.0508 41.3971C81.5688 44.4835 80.5444 47.1725 79.3047 48.9868L81.3163 48.1497C81.6531 48.0095 82.1817 48.0095 82.5138 48.1497L85.751 49.4966C86.434 49.7724 86.5837 49.6836 86.5042 48.954L86.2236 45.4281C86.1908 44.9979 86.2236 44.6425 86.4808 44.3386L88.848 41.486C89.3344 40.9341 89.3016 40.7706 88.586 40.5929L84.9089 39.6809C84.4928 39.578 84.4693 39.4659 84.2634 39.1291L82.4062 36.0288C82.3455 35.9258 82.2893 35.8417 82.238 35.7761C82.4157 37.455 82.3689 39.3816 82.0508 41.3971Z" fill="#FDB440"/>
<path fill-rule="evenodd" clip-rule="evenodd" d="M82.338 7.48696C82.338 4.53292 79.9429 2.13868 76.9876 2.13868C76.0131 2.13868 75.1006 2.39781 74.3125 2.85371C75.9145 3.77637 76.9876 5.50727 76.9876 7.48696C76.9876 9.46149 75.9145 11.1926 74.3125 12.1149C75.1006 12.5709 76.0131 12.8301 76.9876 12.8301C79.9429 12.8301 82.338 10.4358 82.338 7.48696Z" fill="#FE5694"/>
<path fill-rule="evenodd" clip-rule="evenodd" d="M76.9916 11.4927C74.7829 11.4927 72.978 9.68942 72.978 7.48623C72.978 5.27683 74.7838 3.47444 76.9916 3.47444C79.2038 3.47444 81.0054 5.27605 81.0054 7.48623C81.0054 9.6902 79.2047 11.4927 76.9916 11.4927ZM70.3047 7.48623C70.3047 11.1701 73.3107 14.166 76.9916 14.166C80.6784 14.166 83.6787 11.1693 83.6787 7.48623C83.6787 3.79867 80.6793 0.801101 76.9916 0.801101C73.3099 0.801101 70.3047 3.79789 70.3047 7.48623Z" fill="black"/>
</g>
</g>
<defs>
<clipPath id="clip0_6244_8322">
<rect width="91.25" height="90" fill="white"/>
</clipPath>
</defs>
</svg>
