<svg width="30" height="30" viewBox="0 0 30 30" fill="none" xmlns="http://www.w3.org/2000/svg">
<path d="M3.86719 4.01961C3.86719 4.23046 3.95095 4.43267 4.10004 4.58176C4.24913 4.73085 4.45134 4.81461 4.66219 4.81461C4.87303 4.81461 5.07525 4.73085 5.22434 4.58176C5.37343 4.43267 5.45719 4.23046 5.45719 4.01961C5.45719 3.80876 5.37343 3.60655 5.22434 3.45746C5.07525 3.30837 4.87303 3.22461 4.66219 3.22461C4.45134 3.22461 4.24913 3.30837 4.10004 3.45746C3.95095 3.60655 3.86719 3.80876 3.86719 4.01961Z" fill="#F55369"/>
<path d="M28.0907 25.2258C28.0823 25.1893 28.0668 25.1549 28.045 25.1244C28.0233 25.094 27.9957 25.0681 27.964 25.0483C27.9322 25.0285 27.8968 25.0152 27.8599 25.0091C27.823 25.003 27.7852 25.0043 27.7487 25.0128L27.3632 25.1028L27.2732 24.7173C27.2563 24.6437 27.2109 24.5798 27.1469 24.5398C27.0829 24.4997 27.0056 24.4866 26.932 24.5036C26.8584 24.5205 26.7945 24.5659 26.7544 24.6299C26.7143 24.6939 26.7013 24.7712 26.7182 24.8448L26.8082 25.2303L26.4227 25.3203C26.3494 25.3374 26.2859 25.3828 26.246 25.4466C26.206 25.5104 26.193 25.5874 26.2097 25.6608C26.2352 25.7733 26.3252 25.8543 26.4317 25.8753C26.4692 25.8828 26.5097 25.8828 26.5502 25.8738L26.9357 25.7838L27.0257 26.1693C27.0512 26.2818 27.1412 26.3628 27.2477 26.3838C27.2852 26.3913 27.3257 26.3913 27.3662 26.3823C27.4395 26.3652 27.5031 26.3198 27.543 26.256C27.5829 26.1922 27.5959 26.1152 27.5792 26.0418L27.4892 25.6563L27.8747 25.5663C27.9114 25.5584 27.9462 25.5433 27.977 25.5219C28.0078 25.5004 28.034 25.4731 28.0542 25.4414C28.0743 25.4097 28.0879 25.3743 28.0941 25.3373C28.1004 25.3003 28.0993 25.2624 28.0907 25.2258ZM25.3412 5.02831C25.3328 4.99183 25.3173 4.95738 25.2955 4.92692C25.2738 4.89646 25.2462 4.87059 25.2145 4.8508C25.1827 4.83101 25.1473 4.81769 25.1104 4.8116C25.0735 4.80551 25.0357 4.80677 24.9992 4.81531L24.6137 4.90531L24.5237 4.51981C24.5068 4.44621 24.4614 4.38234 24.3974 4.34226C24.3334 4.30217 24.2561 4.28915 24.1825 4.30606C24.1089 4.32297 24.045 4.36842 24.0049 4.43241C23.9648 4.49641 23.9518 4.57371 23.9687 4.64731L24.0587 5.03281L23.6732 5.12281C23.5999 5.13988 23.5364 5.18529 23.4965 5.2491C23.4565 5.31291 23.4435 5.38992 23.4602 5.46331C23.4857 5.57581 23.5757 5.65681 23.6822 5.67781C23.7197 5.68531 23.7602 5.68531 23.8007 5.67631L24.1862 5.58631L24.2762 5.97181C24.3017 6.08431 24.3917 6.16531 24.4982 6.18631C24.5357 6.19381 24.5762 6.19381 24.6167 6.18481C24.69 6.16773 24.7536 6.12233 24.7935 6.05852C24.8334 5.99471 24.8464 5.91769 24.8297 5.84431L24.7397 5.45881L25.1252 5.36881C25.1619 5.36094 25.1967 5.34584 25.2275 5.32439C25.2583 5.30294 25.2845 5.27556 25.3047 5.24386C25.3248 5.21216 25.3384 5.17678 25.3446 5.13977C25.3509 5.10276 25.3498 5.06487 25.3412 5.02831Z" fill="#E2E5F1"/>
<path d="M4.95842 25.668C4.95001 25.6315 4.93448 25.597 4.91273 25.5666C4.89097 25.5361 4.86342 25.5102 4.83165 25.4905C4.79987 25.4707 4.7645 25.4573 4.72757 25.4512C4.69064 25.4452 4.65287 25.4464 4.61642 25.455L4.23092 25.545L4.14092 25.1595C4.12401 25.0859 4.07856 25.022 4.01457 24.9819C3.95057 24.9418 3.87327 24.9288 3.79967 24.9457C3.72607 24.9626 3.66221 25.0081 3.62212 25.0721C3.58204 25.1361 3.56901 25.2134 3.58592 25.287L3.67592 25.6725L3.29042 25.7625C3.21712 25.7795 3.15356 25.8249 3.11365 25.8887C3.07373 25.9526 3.06071 26.0296 3.07742 26.103C3.10292 26.2155 3.19292 26.2965 3.29942 26.3175C3.33692 26.325 3.37742 26.325 3.41792 26.316L3.80342 26.226L3.89342 26.6115C3.91892 26.724 4.00892 26.805 4.11542 26.826C4.15292 26.8335 4.19342 26.8335 4.23392 26.8245C4.30722 26.8074 4.37078 26.762 4.4107 26.6982C4.45061 26.6344 4.46364 26.5573 4.44692 26.484L4.35692 26.0985L4.74242 26.0085C4.89842 25.9725 4.99442 25.821 4.95842 25.668Z" fill="#FFC5E7"/>
<path d="M15.6395 7.31356C15.6395 7.31356 12.2765 1.55506 8.43046 3.58156C6.49546 4.75606 5.91946 7.03606 7.32496 8.07256C9.21346 8.37406 15.6395 7.31356 15.6395 7.31356Z" fill="#FAC573"/>
<path d="M14.4219 7.31356C14.4219 7.31356 17.7849 1.55506 21.6309 3.58156C23.5659 4.75606 24.1419 7.03606 22.7364 8.07256C20.8479 8.37406 14.4219 7.31356 14.4219 7.31356Z" fill="#FAC573"/>
<path d="M8.77344 3.56986C8.77344 3.56986 10.4459 3.85186 11.8214 5.32636C13.1969 6.80086 13.5614 7.26436 13.5614 7.26436L15.1844 6.93286C15.1844 6.93286 13.1969 3.78586 11.4569 3.30586C9.71694 2.82586 8.77344 3.56986 8.77344 3.56986ZM18.3644 3.70336C18.3644 3.70336 21.7769 4.58086 21.8594 6.81736C22.8704 6.98236 23.7809 6.86686 23.7809 6.86686C23.7809 6.86686 22.6214 2.09536 18.3644 3.70336Z" fill="#FFAE43"/>
<path d="M24.1134 6.36494C24.0564 5.11094 23.2254 3.84794 21.9444 3.06944L21.9129 3.05144C19.0014 1.51694 16.4349 3.75194 15.0309 5.43794C13.6269 3.75194 11.0604 1.51694 8.14888 3.05144L8.11738 3.06944C6.83638 3.84794 6.00538 5.10944 5.94838 6.36494C5.90788 7.26344 6.26938 8.04194 6.96688 8.55644C7.04488 8.61344 7.13488 8.65094 7.22938 8.66594C7.48588 8.70644 7.81738 8.72444 8.19988 8.72444C10.1919 8.72444 13.5669 8.24144 15.0309 8.01644C16.4949 8.24144 19.8699 8.72444 21.8619 8.72444C22.2444 8.72444 22.5759 8.70644 22.8324 8.66594C22.9269 8.65094 23.0169 8.61344 23.0949 8.55644C23.7909 8.04344 24.1539 7.26494 24.1134 6.36494ZM7.56838 7.50194C7.19788 7.16594 7.13188 6.73544 7.14688 6.41894C7.18438 5.57594 7.80388 4.66994 8.72488 4.10444C10.9809 2.93144 13.1394 4.99994 14.2809 6.42794C14.1591 6.60398 14.0426 6.78356 13.9314 6.96644C11.8224 7.27094 8.81638 7.63094 7.56838 7.50194ZM22.4919 7.50194C21.2454 7.63094 18.2379 7.27094 16.1304 6.96944C16.0779 6.88244 15.9579 6.68894 15.7794 6.42794C16.9194 4.99844 19.0749 2.92994 21.3369 4.10594C22.2579 4.67144 22.8759 5.57744 22.9149 6.42044C22.9284 6.73544 22.8624 7.16594 22.4919 7.50194Z" fill="#211D38"/>
<path d="M22.5204 26.4567H7.56087C6.06837 26.4567 4.85938 25.2477 4.85938 23.7552V11.9922H25.2219V23.7552C25.2219 25.2477 24.0129 26.4567 22.5204 26.4567Z" fill="#F3556E"/>
<path d="M23.2502 14.2051V22.8856C23.2502 23.9791 23.0012 24.6751 21.6932 24.6751H8.12721C6.72021 24.6751 5.34471 24.6256 5.06271 23.4661C4.86321 24.5101 5.34471 26.3476 8.35971 26.3476H21.1637C22.6547 26.3476 25.1717 26.1151 25.1717 23.4481V14.2711L23.2502 14.2051Z" fill="#D6283F"/>
<path d="M22.4954 27.0556H7.53588C5.71488 27.0556 4.23438 25.5752 4.23438 23.7542V11.9896C4.23438 11.6581 4.50287 11.3896 4.83437 11.3896H25.1969C25.5284 11.3896 25.7969 11.6581 25.7969 11.9896V23.7526C25.7969 25.5751 24.3164 27.0556 22.4954 27.0556ZM5.43437 12.5896V23.7526C5.43437 24.9121 6.37788 25.8541 7.53588 25.8541H22.4939C23.6534 25.8541 24.5954 24.9107 24.5954 23.7526V12.5896H5.43437Z" fill="#211D38"/>
<path d="M25.1512 14.2168H4.86975C3.88875 14.2168 3.09375 13.4218 3.09375 12.4408V8.8678C3.09375 7.8868 3.88875 7.0918 4.86975 7.0918H25.1512C26.1322 7.0918 26.9272 7.8868 26.9272 8.8678V12.4408C26.9272 13.4218 26.1322 14.2168 25.1512 14.2168Z" fill="#FF6C73"/>
<path d="M24.5809 7.26451C24.5809 7.26451 25.1944 7.89451 25.1944 9.15301V11.79C25.1944 12.1905 24.8689 12.516 24.4684 12.516H5.54738C3.79088 12.516 3.34388 12.102 3.04688 11.307C3.19538 13.08 3.31238 14.1555 6.25988 14.1555H24.7789C26.0044 14.1555 26.9659 13.5585 26.9659 12.135V8.70601C26.9659 8.24251 26.6509 7.08151 24.5809 7.26451Z" fill="#FF4E51"/>
<path d="M25.1575 14.8172H4.876C3.5665 14.8172 2.5 13.7507 2.5 12.4412V8.86819C2.5 7.55869 3.5665 6.49219 4.876 6.49219H25.1575C26.467 6.49219 27.5335 7.55869 27.5335 8.86819V12.4412C27.5335 13.7507 26.467 14.8172 25.1575 14.8172ZM4.876 7.69219C4.228 7.69219 3.7 8.22019 3.7 8.86819V12.4412C3.7 13.0892 4.228 13.6172 4.876 13.6172H25.1575C25.8055 13.6172 26.3335 13.0892 26.3335 12.4412V8.86819C26.3335 8.22019 25.8055 7.69219 25.1575 7.69219H4.876Z" fill="#211D38"/>
<path d="M12.8594 7.0918H17.1674V26.4553H12.8594V7.0918Z" fill="#FAC573"/>
<path d="M17.1673 27.0557H12.8578C12.5263 27.0557 12.2578 26.7872 12.2578 26.4557V7.09219C12.2578 6.76069 12.5263 6.49219 12.8578 6.49219H17.1658C17.4973 6.49219 17.7658 6.76069 17.7658 7.09219V26.4557C17.7673 26.7872 17.4988 27.0557 17.1673 27.0557ZM13.4578 25.8557H16.5658V7.69219H13.4578V25.8557Z" fill="#211D38"/>
<path d="M4.125 11.496C4.02554 11.496 3.93016 11.4565 3.85983 11.3862C3.78951 11.3159 3.75 11.2205 3.75 11.121V8.79301C3.75 8.18701 4.2435 7.69351 4.851 7.69351C4.95046 7.69351 5.04584 7.73302 5.11617 7.80335C5.18649 7.87367 5.226 7.96906 5.226 8.06851C5.226 8.16797 5.18649 8.26335 5.11617 8.33368C5.04584 8.40401 4.95046 8.44351 4.851 8.44351C4.75817 8.44351 4.66912 8.48029 4.60333 8.54579C4.53755 8.61129 4.5004 8.70018 4.5 8.79301V11.121C4.5 11.2205 4.46049 11.3159 4.39017 11.3862C4.31984 11.4565 4.22446 11.496 4.125 11.496ZM6.4965 8.44201H5.862C5.76254 8.44201 5.66716 8.4025 5.59683 8.33218C5.52651 8.26185 5.487 8.16647 5.487 8.06701C5.487 7.96756 5.52651 7.87217 5.59683 7.80185C5.66716 7.73152 5.76254 7.69201 5.862 7.69201H6.4965C6.59596 7.69201 6.69134 7.73152 6.76166 7.80185C6.83199 7.87217 6.8715 7.96756 6.8715 8.06701C6.8715 8.16647 6.83199 8.26185 6.76166 8.33218C6.69134 8.4025 6.59596 8.44201 6.4965 8.44201ZM5.823 22.2765C5.72354 22.2765 5.62816 22.237 5.55783 22.1667C5.48751 22.0964 5.448 22.001 5.448 21.9015V17.766C5.448 17.6666 5.48751 17.5712 5.55783 17.5008C5.62816 17.4305 5.72354 17.391 5.823 17.391C5.92246 17.391 6.01784 17.4305 6.08817 17.5008C6.15849 17.5712 6.198 17.6666 6.198 17.766V21.9015C6.198 21.9508 6.1883 21.9995 6.16945 22.045C6.15061 22.0905 6.12299 22.1319 6.08817 22.1667C6.05334 22.2015 6.012 22.2291 5.96651 22.248C5.92101 22.2668 5.87225 22.2765 5.823 22.2765ZM5.823 16.695C5.72354 16.695 5.62816 16.6555 5.55783 16.5852C5.48751 16.5149 5.448 16.4195 5.448 16.32V15.591C5.448 15.4916 5.48751 15.3962 5.55783 15.3258C5.62816 15.2555 5.72354 15.216 5.823 15.216C5.92246 15.216 6.01784 15.2555 6.08817 15.3258C6.15849 15.3962 6.198 15.4916 6.198 15.591V16.32C6.198 16.4195 6.15849 16.5149 6.08817 16.5852C6.01784 16.6555 5.92246 16.695 5.823 16.695ZM14.0325 20.157C13.933 20.157 13.8377 20.1175 13.7673 20.0472C13.697 19.9769 13.6575 19.8815 13.6575 19.782V12.693C13.6575 12.5936 13.697 12.4982 13.7673 12.4278C13.8377 12.3575 13.933 12.318 14.0325 12.318C14.132 12.318 14.2273 12.3575 14.2977 12.4278C14.368 12.4982 14.4075 12.5936 14.4075 12.693V19.782C14.4075 19.9905 14.2395 20.157 14.0325 20.157ZM14.0325 10.374C13.933 10.374 13.8377 10.3345 13.7673 10.2642C13.697 10.1939 13.6575 10.0985 13.6575 9.99901V8.82901C13.6575 8.72956 13.697 8.63417 13.7673 8.56385C13.8377 8.49352 13.933 8.45401 14.0325 8.45401C14.132 8.45401 14.2273 8.49352 14.2977 8.56385C14.368 8.63417 14.4075 8.72956 14.4075 8.82901V9.99901C14.4075 10.0985 14.368 10.1939 14.2977 10.2642C14.2273 10.3345 14.132 10.374 14.0325 10.374ZM8.259 6.21001C8.2245 6.21001 8.1885 6.20551 8.1525 6.19501C8.0573 6.16685 7.97715 6.10208 7.92963 6.01491C7.88211 5.92775 7.87109 5.82529 7.899 5.73001C8.2125 4.66651 9.1785 4.45051 9.219 4.44151C9.42 4.39951 9.621 4.52851 9.663 4.73101C9.68311 4.82782 9.66433 4.92864 9.61072 5.01172C9.55712 5.09479 9.47299 5.15345 9.3765 5.17501C9.345 5.18251 8.8005 5.32051 8.6175 5.94151C8.59461 6.01889 8.54735 6.08682 8.48276 6.13519C8.41817 6.18357 8.3397 6.20981 8.259 6.21001ZM17.355 6.13501C17.2785 6.13501 17.202 6.11251 17.136 6.06301C17.0961 6.03419 17.0622 5.99777 17.0364 5.95584C17.0106 5.91392 16.9932 5.86731 16.9854 5.81868C16.9776 5.77006 16.9795 5.72037 16.9909 5.67247C17.0023 5.62457 17.0231 5.57939 17.052 5.53951C17.6835 4.66801 18.555 4.38151 18.5925 4.36951C18.7905 4.30651 19.0005 4.41451 19.0635 4.61251C19.1265 4.80901 19.0185 5.01901 18.822 5.08351C18.8085 5.08801 18.138 5.31901 17.658 5.98051C17.586 6.08101 17.472 6.13501 17.355 6.13501Z" fill="white"/>
</svg>
