<svg width="41" height="40" viewBox="0 0 41 40" fill="none" xmlns="http://www.w3.org/2000/svg">
<path d="M15.8722 31.7845C15.7997 31.7845 15.7291 31.7612 15.6708 31.7181C15.6126 31.6749 15.5697 31.6143 15.5484 31.545C15.5272 31.4757 15.5288 31.4014 15.5529 31.333C15.577 31.2647 15.6224 31.2058 15.6824 31.1652L22.6695 26.4292L13.802 31.548C13.7254 31.5902 13.6354 31.6011 13.5509 31.5784C13.4665 31.5557 13.394 31.5013 13.3488 31.4265C13.3035 31.3516 13.289 31.2622 13.3082 31.1769C13.3273 31.0916 13.3787 31.017 13.4517 30.9687L16.5972 28.9798L12.5775 31.3007C12.5009 31.3429 12.4109 31.3537 12.3265 31.3311C12.242 31.3084 12.1696 31.254 12.1243 31.1791C12.0791 31.1043 12.0645 31.0149 12.0837 30.9296C12.1028 30.8442 12.1543 30.7696 12.2272 30.7213L15.9291 28.3937L11.4479 30.9802C11.3714 31.0217 11.2819 31.0321 11.1979 31.0093C11.1139 30.9866 11.0419 30.9324 10.9968 30.858C10.9517 30.7836 10.9369 30.6947 10.9555 30.6097C10.9742 30.5247 11.0248 30.4502 11.0969 30.4015L17.4863 26.352L10.241 30.5343C10.1643 30.5753 10.0747 30.5852 9.99091 30.562C9.90708 30.5387 9.83539 30.4841 9.79071 30.4095C9.74603 30.3348 9.73177 30.2459 9.75089 30.161C9.77001 30.0761 9.82105 30.0019 9.89342 29.9536L13.6102 27.6449L9.33099 30.1162C9.25447 30.1598 9.16399 30.1718 9.07873 30.1498C8.99347 30.1278 8.92013 30.0735 8.87423 29.9984C8.82834 29.9232 8.81349 29.8332 8.83285 29.7473C8.85221 29.6614 8.90425 29.5864 8.97794 29.5382L19.5659 22.73L8.03265 29.3871C7.95555 29.4333 7.86326 29.4469 7.77608 29.4251C7.68891 29.4032 7.61398 29.3476 7.5678 29.2705C7.52161 29.1934 7.50794 29.1011 7.5298 29.014C7.55165 28.9268 7.60725 28.8519 7.68435 28.8057L13.657 25.0957L7.19171 28.8287C7.11469 28.8713 7.02413 28.8822 6.93918 28.8592C6.85424 28.8362 6.78158 28.7811 6.73659 28.7054C6.69159 28.6298 6.6778 28.5396 6.69811 28.454C6.71843 28.3684 6.77127 28.294 6.84544 28.2466L9.44144 26.6549L6.53712 28.3293C6.46062 28.3708 6.37111 28.3812 6.28712 28.3585C6.20314 28.3357 6.13112 28.2815 6.086 28.2071C6.04087 28.1327 6.0261 28.0438 6.04474 27.9588C6.06337 27.8739 6.11399 27.7993 6.18611 27.7506L17.4917 20.5677L5.55252 27.4633C5.47591 27.5037 5.38674 27.5132 5.30332 27.4899C5.21991 27.4666 5.14858 27.4123 5.10399 27.338C5.0594 27.2638 5.04495 27.1753 5.06359 27.0907C5.08223 27.0061 5.13255 26.9319 5.20422 26.8832L14.3041 21.1966L4.78951 26.6888C4.71288 26.7309 4.62293 26.7418 4.53847 26.7191C4.454 26.6965 4.38157 26.642 4.33632 26.5672C4.29107 26.4924 4.2765 26.4029 4.29568 26.3176C4.31485 26.2323 4.36626 26.1577 4.43918 26.1094L16.2259 18.6507L3.975 25.7238C3.89781 25.7698 3.80551 25.7833 3.71839 25.7612C3.63128 25.7392 3.55649 25.6834 3.51049 25.6063C3.46448 25.5291 3.45102 25.4368 3.47307 25.3496C3.49511 25.2625 3.55086 25.1877 3.62805 25.1417L10.6307 20.8157L3.42815 24.9737C3.35123 25.018 3.25996 25.0304 3.17399 25.0082C3.08803 24.9859 3.01423 24.9308 2.96849 24.8547C2.92276 24.7786 2.90873 24.6875 2.92943 24.6012C2.95012 24.5148 3.0039 24.4401 3.07917 24.393L12.2787 18.6643L2.86843 24.0962C2.79156 24.1378 2.70155 24.1482 2.61722 24.125C2.53289 24.1019 2.46079 24.047 2.41598 23.9719C2.37117 23.8968 2.35712 23.8073 2.37679 23.7221C2.39645 23.6369 2.4483 23.5626 2.52148 23.5147L7.74872 20.3048L2.45846 23.3582C2.38165 23.4005 2.29141 23.4114 2.20674 23.3885C2.12207 23.3657 2.04956 23.3109 2.00445 23.2357C1.95934 23.1605 1.94515 23.0707 1.96487 22.9853C1.98458 22.8998 2.03666 22.8253 2.11016 22.7775L10.5609 17.5299L2.0241 22.459C1.9475 22.4994 1.85832 22.5089 1.7749 22.4856C1.69149 22.4623 1.62016 22.408 1.57557 22.3337C1.53098 22.2595 1.51653 22.171 1.53517 22.0864C1.55381 22.0018 1.60413 21.9276 1.6758 21.8789L11.2588 15.8928L1.62024 21.4561C1.54305 21.5022 1.45071 21.5157 1.36353 21.4938C1.27635 21.4718 1.20148 21.4161 1.15538 21.3389C1.10928 21.2617 1.09574 21.1693 1.11772 21.0822C1.13971 20.995 1.19542 20.9201 1.27261 20.874L7.16732 17.2412L1.3397 20.6036C1.26278 20.6501 1.17055 20.6641 1.08331 20.6426C0.996072 20.621 0.920961 20.5657 0.874504 20.4888C0.828047 20.4119 0.814049 20.3196 0.835589 20.2324C0.857129 20.1452 0.912443 20.0701 0.989362 20.0236L11.1701 13.6213L1.05306 19.4652C0.976187 19.5069 0.886176 19.5173 0.80185 19.4941C0.717524 19.471 0.645415 19.4161 0.600605 19.341C0.555794 19.2659 0.541753 19.1764 0.561417 19.0912C0.581081 19.006 0.632927 18.9317 0.706113 18.8838L5.15272 16.1476L0.890428 18.6073C0.813599 18.6541 0.721354 18.6684 0.633986 18.6471C0.546618 18.6258 0.471285 18.5707 0.424558 18.4938C0.377831 18.417 0.363539 18.3248 0.384824 18.2374C0.40611 18.15 0.461231 18.0747 0.538061 18.028L11.7969 10.8397L0.739317 17.2236C0.662128 17.2696 0.569824 17.2831 0.48271 17.261C0.395597 17.239 0.32081 17.1832 0.274802 17.1061C0.228794 17.0289 0.215333 16.9366 0.237382 16.8495C0.25943 16.7623 0.315181 16.6876 0.39237 16.6415L2.86572 15.1216L0.705436 16.3685C0.628761 16.4134 0.537502 16.4264 0.451327 16.4047C0.365151 16.383 0.290959 16.3283 0.244739 16.2523C0.19852 16.1764 0.183975 16.0854 0.204238 15.9989C0.224502 15.9124 0.277951 15.8373 0.353068 15.7898L10.5446 9.24521L0.757613 14.8926C0.681115 14.934 0.591599 14.9445 0.507614 14.9217C0.42363 14.899 0.351614 14.8448 0.30649 14.7704C0.261366 14.696 0.246591 14.6071 0.265229 14.5221C0.283866 14.4371 0.334486 14.3626 0.406601 14.3139L8.43923 9.18694L0.931086 13.5217C0.854077 13.5681 0.761802 13.582 0.674562 13.5603C0.587321 13.5386 0.512261 13.4832 0.465893 13.4062C0.419526 13.3292 0.405649 13.2369 0.427317 13.1497C0.448984 13.0624 0.50442 12.9874 0.581429 12.941L4.15864 10.7048L1.15674 12.4368C1.08036 12.4777 0.991227 12.4878 0.907651 12.465C0.824074 12.4422 0.752407 12.3883 0.707377 12.3143C0.662347 12.2402 0.647377 12.1518 0.665543 12.0671C0.683708 11.9824 0.73363 11.9079 0.805047 11.8588L6.19153 8.41647L1.55654 11.0918C1.4802 11.1351 1.39 11.1472 1.30495 11.1254C1.21989 11.1036 1.14662 11.0496 1.10058 10.9749C1.05454 10.9001 1.03933 10.8104 1.05815 10.7246C1.07697 10.6388 1.12835 10.5637 1.20146 10.5151L7.11311 6.63905L2.22604 9.45866C2.14976 9.50289 2.05924 9.51564 1.97371 9.4942C1.88818 9.47276 1.81438 9.41882 1.76798 9.34384C1.72158 9.26886 1.70624 9.17875 1.72521 9.09264C1.74419 9.00653 1.79599 8.93121 1.8696 8.88268L6.04787 6.11253L3.16184 7.77882C3.0857 7.82025 2.99657 7.83093 2.9128 7.80864C2.82902 7.78635 2.75698 7.7328 2.71149 7.65901C2.666 7.58522 2.65052 7.4968 2.66824 7.41194C2.68597 7.32708 2.73554 7.25225 2.80677 7.20283L4.05835 6.38155C3.99986 6.38121 3.94226 6.36711 3.89023 6.34039C3.8382 6.31366 3.79319 6.27507 3.75884 6.22772C3.71143 6.15504 3.69372 6.06694 3.70935 5.98159C3.72499 5.89623 3.77277 5.82013 3.84286 5.76897L6.27691 3.98748C6.21999 3.95767 6.17292 3.91201 6.14138 3.85602C6.0964 3.77828 6.08412 3.68587 6.10725 3.59908C6.13037 3.51229 6.18701 3.43824 6.26471 3.3932L10.2011 1.11975C10.2761 1.07742 10.3644 1.06524 10.448 1.08568C10.5317 1.10612 10.6044 1.15765 10.6514 1.22978C10.6985 1.30192 10.7162 1.38926 10.7012 1.47405C10.6861 1.55883 10.6394 1.63471 10.5704 1.68625L9.29778 2.61731L13.4354 0.228665C13.5116 0.18604 13.6013 0.174482 13.6858 0.196403C13.7704 0.218324 13.8432 0.272032 13.8891 0.346323C13.9349 0.420614 13.9504 0.509752 13.9321 0.595145C13.9139 0.680538 13.8634 0.755591 13.7912 0.804651L13.0939 1.26205L15.2013 0.0457053C15.2776 0.00147743 15.3681 -0.0112706 15.4536 0.0101688C15.5392 0.0316082 15.613 0.0855459 15.6594 0.160526C15.7058 0.235506 15.7211 0.32562 15.7021 0.411729C15.6831 0.497839 15.6313 0.573158 15.5577 0.621691L11.3781 3.39252L17.1197 0.0775539C17.1958 0.0361198 17.2849 0.0254478 17.3687 0.047734C17.4525 0.0700203 17.5245 0.123569 17.57 0.197362C17.6155 0.271154 17.631 0.359576 17.6133 0.444433C17.5955 0.529289 17.546 0.604125 17.4747 0.653539L11.5563 4.53297L18.8747 0.309981C18.9511 0.269093 19.0402 0.259014 19.1238 0.281815C19.2074 0.304616 19.2791 0.358564 19.3241 0.432572C19.3691 0.506581 19.3841 0.595026 19.3659 0.679731C19.3478 0.764435 19.2978 0.838964 19.2264 0.887999L13.8393 4.33104L20.2368 0.639309C20.3138 0.592942 20.4061 0.579065 20.4933 0.600733C20.5805 0.6224 20.6556 0.677836 20.702 0.754845C20.7483 0.831855 20.7622 0.924129 20.7405 1.01137C20.7189 1.09861 20.6634 1.17367 20.5864 1.22004L17.0146 3.45622L21.2993 0.978124C21.3758 0.936667 21.4653 0.926229 21.5493 0.948974C21.6333 0.971718 21.7053 1.0259 21.7504 1.10029C21.7955 1.17469 21.8103 1.26359 21.7917 1.34858C21.773 1.43357 21.7224 1.50814 21.6503 1.55682L13.6163 6.68716L22.5705 1.52023C22.647 1.47819 22.7367 1.46725 22.821 1.4897C22.9053 1.51215 22.9777 1.56626 23.0231 1.64075C23.0685 1.71524 23.0834 1.80438 23.0648 1.8896C23.0461 1.97482 22.9953 2.04956 22.9229 2.09825L12.7334 8.64212L23.8716 2.21141C23.9486 2.16883 24.0392 2.15789 24.1241 2.1809C24.209 2.20391 24.2817 2.25907 24.3267 2.3347C24.3717 2.41034 24.3855 2.50051 24.3652 2.58614C24.3449 2.67177 24.292 2.74613 24.2178 2.79349L21.7445 4.3141L24.5939 2.6722C24.6708 2.62547 24.763 2.61118 24.8504 2.63247C24.9377 2.65375 25.0131 2.70887 25.0598 2.7857C25.1065 2.86253 25.1208 2.95478 25.0995 3.04215C25.0782 3.12951 25.0231 3.20485 24.9463 3.25157L13.6868 10.4365L25.7188 3.49213C25.7957 3.45045 25.8857 3.4401 25.97 3.46325C26.0543 3.4864 26.1264 3.54126 26.1712 3.61636C26.2161 3.69145 26.2301 3.78096 26.2104 3.86617C26.1908 3.95137 26.1389 4.02568 26.0657 4.07354L21.6198 6.80981L26.3781 4.06134C26.4547 4.02043 26.544 4.01045 26.6277 4.03348C26.7114 4.05651 26.7831 4.11077 26.8279 4.18509C26.8728 4.25941 26.8874 4.3481 26.8687 4.43288C26.8501 4.51766 26.7997 4.59205 26.7278 4.64071L16.5444 11.0443L27.215 4.88466C27.292 4.8413 27.3828 4.82972 27.4682 4.85238C27.5536 4.87504 27.6268 4.93016 27.6721 5.00599C27.7174 5.08181 27.7314 5.17234 27.7109 5.25829C27.6905 5.34423 27.6373 5.41879 27.5626 5.46607L21.6672 9.09952L27.8127 5.55145C27.8894 5.50991 27.9791 5.49954 28.0632 5.5225C28.1474 5.54545 28.2194 5.59997 28.2644 5.6747C28.3093 5.74942 28.3237 5.83861 28.3046 5.9237C28.2855 6.00878 28.2343 6.08321 28.1617 6.1315L18.5867 12.1129L28.4835 6.39917C28.5603 6.35686 28.6506 6.34598 28.7352 6.36883C28.8199 6.39168 28.8924 6.44647 28.9375 6.52168C28.9827 6.59689 28.9968 6.68666 28.9771 6.77211C28.9574 6.85757 28.9053 6.93205 28.8318 6.97989L20.375 12.2315L29.0487 7.22316C29.1255 7.18148 29.2156 7.17113 29.2999 7.19428C29.3842 7.21744 29.4563 7.2723 29.5011 7.34739C29.5459 7.42248 29.56 7.51199 29.5403 7.5972C29.5206 7.6824 29.4688 7.75671 29.3956 7.80457L24.1691 11.0145L29.4837 7.94619C29.5219 7.92332 29.5642 7.9082 29.6082 7.90168C29.6522 7.89516 29.6971 7.89737 29.7403 7.9082C29.7834 7.91902 29.824 7.93824 29.8598 7.96476C29.8955 7.99127 29.9257 8.02457 29.9486 8.06275C29.9714 8.10092 29.9866 8.14323 29.9931 8.18725C29.9996 8.23127 29.9974 8.27615 29.9866 8.31931C29.9757 8.36248 29.9565 8.40309 29.93 8.43883C29.9035 8.47457 29.8702 8.50473 29.832 8.5276L20.6366 14.2597L29.9689 8.87116C30.0461 8.82515 30.1384 8.81169 30.2255 8.83374C30.3126 8.85579 30.3874 8.91154 30.4334 8.98873C30.4794 9.06592 30.4929 9.15822 30.4708 9.24534C30.4488 9.33245 30.393 9.40724 30.3158 9.45324L23.3173 13.7738L30.3416 9.71955C30.4185 9.67301 30.5108 9.65892 30.5981 9.6804C30.6854 9.70187 30.7606 9.75715 30.8071 9.83407C30.8537 9.91099 30.8678 10.0033 30.8463 10.0906C30.8248 10.1779 30.7695 10.2531 30.6926 10.2996L18.8978 17.7623L30.7726 10.9061C30.8495 10.8617 30.9408 10.8493 31.0267 10.8716C31.1127 10.8939 31.1865 10.949 31.2322 11.0251C31.278 11.1012 31.292 11.1922 31.2713 11.2786C31.2506 11.3649 31.1968 11.4397 31.1215 11.4868L22.0257 17.1735L31.0606 11.9557C31.1373 11.9119 31.2281 11.8998 31.3136 11.9219C31.3992 11.9441 31.4727 11.9988 31.5184 12.0743C31.5642 12.1499 31.5787 12.2404 31.5587 12.3265C31.5387 12.4125 31.4859 12.4874 31.4116 12.5351L20.1012 19.716L31.3153 13.2432C31.3922 13.2015 31.4822 13.1912 31.5666 13.2143C31.6509 13.2375 31.723 13.2924 31.7678 13.3675C31.8126 13.4425 31.8266 13.5321 31.807 13.6173C31.7873 13.7025 31.7355 13.7768 31.6623 13.8246L29.0961 15.3981L31.4156 14.0564C31.4924 14.0141 31.5827 14.0032 31.6674 14.026C31.752 14.0489 31.8245 14.1037 31.8696 14.1789C31.9148 14.2541 31.9289 14.3439 31.9092 14.4293C31.8895 14.5148 31.8374 14.5893 31.7639 14.6371L25.7805 18.3553L31.4787 15.0681C31.5552 15.0245 31.6456 15.0125 31.7309 15.0345C31.8162 15.0565 31.8895 15.1108 31.9354 15.1859C31.9813 15.2611 31.9961 15.3511 31.9768 15.437C31.9574 15.5229 31.9054 15.5979 31.8317 15.6461L21.2383 22.459L31.4597 16.5582C31.5368 16.512 31.6291 16.4983 31.7162 16.5202C31.8034 16.5421 31.8783 16.5976 31.9245 16.6747C31.9707 16.7518 31.9844 16.8441 31.9625 16.9313C31.9407 17.0185 31.8851 17.0934 31.808 17.1396L28.0973 19.4435L31.3641 17.5577C31.4406 17.5162 31.5301 17.5058 31.6141 17.5285C31.6981 17.5513 31.7701 17.6055 31.8153 17.6799C31.8604 17.7543 31.8752 17.8432 31.8565 17.9282C31.8379 18.0131 31.7873 18.0877 31.7151 18.1364L25.3339 22.1812L31.1554 18.8201C31.2322 18.7771 31.3227 18.7657 31.4077 18.7882C31.4928 18.8107 31.5658 18.8654 31.6112 18.9408C31.6566 19.0161 31.671 19.1062 31.6512 19.192C31.6313 19.2777 31.579 19.3524 31.5051 19.4002L27.8066 21.7258L30.8688 19.9592C30.9454 19.9171 31.0354 19.9062 31.1198 19.9289C31.2043 19.9515 31.2767 20.006 31.322 20.0808C31.3672 20.1556 31.3818 20.2451 31.3626 20.3304C31.3434 20.4157 31.292 20.4903 31.2191 20.5386L28.0627 22.5335L30.4697 21.1437C30.5455 21.1022 30.6343 21.0912 30.7179 21.1129C30.8016 21.1347 30.8738 21.1877 30.9197 21.2609C30.9655 21.3342 30.9817 21.4222 30.9648 21.507C30.9479 21.5918 30.8993 21.6669 30.8288 21.717L23.8418 26.457L29.5244 23.1759C29.6008 23.1332 29.6907 23.1218 29.7754 23.1439C29.86 23.1661 29.9328 23.2201 29.9785 23.2947C30.0242 23.3693 30.0393 23.4587 30.0206 23.5442C30.0019 23.6297 29.9508 23.7046 29.8781 23.7533L28.7817 24.458C28.8501 24.4422 28.9218 24.4478 28.9869 24.4739C29.0521 24.5001 29.1077 24.5456 29.1462 24.6044C29.1933 24.6775 29.2105 24.7658 29.1942 24.8512C29.1779 24.9366 29.1295 25.0125 29.0588 25.0631L26.2128 27.1021L26.6919 26.8256C26.7693 26.7851 26.8594 26.7761 26.9433 26.8005C27.0272 26.8248 27.0985 26.8806 27.1423 26.9563C27.186 27.032 27.1988 27.1216 27.178 27.2065C27.1572 27.2913 27.1044 27.3649 27.0307 27.4118L20.5932 31.1299C20.5179 31.1725 20.4293 31.1846 20.3454 31.1639C20.2614 31.1432 20.1886 31.0912 20.1418 31.0186C20.0949 30.9459 20.0776 30.8581 20.0934 30.7732C20.1091 30.6882 20.1568 30.6124 20.2266 30.5614L23.0679 28.5245L17.5954 31.6836C17.519 31.7263 17.429 31.7377 17.3444 31.7156C17.2597 31.6934 17.1869 31.6394 17.1412 31.5648C17.0955 31.4902 17.0804 31.4008 17.0991 31.3153C17.1179 31.2298 17.1689 31.1549 17.2416 31.1062L18.1138 30.5431L16.0416 31.7425C15.9897 31.7711 15.9313 31.7856 15.8722 31.7845Z" fill="#E0BF62"/>
<path d="M16.1866 18.2332C16.1155 18.2332 16.0461 18.2108 15.9885 18.1693C15.9308 18.1277 15.8876 18.069 15.8651 18.0015C15.8427 17.9341 15.842 17.8613 15.8632 17.7934C15.8844 17.7255 15.9264 17.666 15.9833 17.6234L17.6245 16.3657L14.7839 18.0055C14.708 18.0505 14.6176 18.0641 14.5319 18.0435C14.4461 18.0228 14.3718 17.9696 14.3247 17.8951C14.2776 17.8205 14.2614 17.7305 14.2796 17.6443C14.2978 17.558 14.3489 17.4822 14.422 17.4329L14.8835 17.1158L13.8752 17.6979C13.8005 17.7417 13.7118 17.7552 13.6274 17.7357C13.543 17.7162 13.4693 17.6651 13.4215 17.5929C13.3736 17.5208 13.3552 17.433 13.37 17.3477C13.3848 17.2623 13.4317 17.1859 13.5011 17.1341L17.533 14.0902L12.5897 16.9437C12.5148 16.9857 12.4268 16.9976 12.3434 16.9772C12.26 16.9567 12.1875 16.9054 12.1405 16.8336C12.0935 16.7617 12.0756 16.6747 12.0903 16.5901C12.105 16.5055 12.1512 16.4297 12.2197 16.3779L16.6812 13.0961L11.6132 16.0214C11.5373 16.0647 11.4475 16.077 11.3627 16.0556C11.2779 16.0342 11.2046 15.9809 11.1583 15.9068C11.1119 15.8327 11.0959 15.7435 11.1138 15.6579C11.1317 15.5723 11.1819 15.4969 11.2541 15.4475L13.3202 14.0563L11.1159 15.3289C11.0409 15.3718 10.9524 15.3845 10.8685 15.3644C10.7845 15.3442 10.7114 15.2928 10.664 15.2206C10.6167 15.1483 10.5988 15.0607 10.6138 14.9757C10.6289 14.8907 10.6759 14.8146 10.7452 14.7631L15.6336 11.1567L10.529 14.1024C10.453 14.1433 10.3642 14.1537 10.2808 14.1314C10.1974 14.1091 10.1256 14.0557 10.0802 13.9823C10.0348 13.9088 10.0191 13.8208 10.0364 13.7362C10.0537 13.6516 10.1027 13.5768 10.1733 13.5271L10.5121 13.3021L10.3332 13.4051C10.2579 13.4488 10.1687 13.4618 10.0841 13.4414C9.99944 13.4211 9.92589 13.369 9.87866 13.2958C9.83143 13.2227 9.81415 13.1343 9.83039 13.0488C9.84664 12.9632 9.89517 12.8873 9.96592 12.8366L13.5099 10.288L10.195 12.2023C10.1198 12.2455 10.0309 12.2582 9.94663 12.2378C9.86236 12.2174 9.78912 12.1655 9.74198 12.0927C9.69483 12.0199 9.67737 11.9319 9.69319 11.8466C9.70901 11.7614 9.7569 11.6855 9.82701 11.6345L12.5375 9.67611L10.3068 10.9636C10.2696 10.9882 10.2279 11.0052 10.1841 11.0137C10.1403 11.0222 10.0953 11.022 10.0516 11.0131C10.0079 11.0042 9.96639 10.9868 9.92942 10.9619C9.89245 10.9369 9.86076 10.9049 9.83616 10.8677C9.81155 10.8305 9.79451 10.7888 9.78602 10.7451C9.77752 10.7013 9.77773 10.6563 9.78663 10.6126C9.79554 10.5689 9.81296 10.5273 9.83791 10.4904C9.86286 10.4534 9.89484 10.4217 9.93204 10.3971L11.765 9.04185L10.7167 9.64697C10.6439 9.6893 10.5579 9.70297 10.4755 9.6853C10.3931 9.66764 10.3203 9.61991 10.2712 9.55143C10.2221 9.48295 10.2002 9.39864 10.21 9.31495C10.2197 9.23125 10.2602 9.15418 10.3237 9.09877L11.8721 7.73944C11.8038 7.72719 11.7408 7.69423 11.6918 7.64504C11.6429 7.59584 11.6102 7.53279 11.5982 7.4644C11.5862 7.39601 11.5955 7.3256 11.6249 7.26268C11.6542 7.19976 11.7022 7.14739 11.7623 7.11264L14.1957 5.70723C14.2684 5.66569 14.354 5.65258 14.4359 5.67043C14.5177 5.68828 14.5901 5.73583 14.6389 5.80389C14.6878 5.87195 14.7097 5.9557 14.7004 6.03897C14.6911 6.12223 14.6513 6.19911 14.5887 6.25476L13.3459 7.3471L16.5647 5.48836C16.6395 5.4467 16.7273 5.43491 16.8104 5.45536C16.8936 5.4758 16.9659 5.52696 17.0128 5.59855C17.0598 5.67014 17.0779 5.75686 17.0635 5.84126C17.0491 5.92566 17.0034 6.00149 16.9353 6.0535L15.1017 7.40876L17.9172 5.78245C17.9924 5.73929 18.0813 5.72661 18.1656 5.747C18.2498 5.76739 18.3231 5.81931 18.3702 5.89206C18.4174 5.96482 18.4348 6.05288 18.419 6.13813C18.4032 6.22337 18.3553 6.2993 18.2852 6.3503L15.5747 8.30865L19.0414 6.30761C19.1167 6.26395 19.2059 6.25095 19.2906 6.27129C19.3752 6.29163 19.4487 6.34376 19.496 6.41687C19.5432 6.48998 19.5605 6.57846 19.5442 6.66397C19.528 6.74947 19.4795 6.82545 19.4087 6.87614L15.8647 9.42403L20.0125 7.02996C20.0886 6.98796 20.1779 6.9768 20.262 6.9988C20.346 7.02079 20.4185 7.07426 20.4642 7.14814C20.51 7.22202 20.5256 7.31067 20.5079 7.39575C20.4902 7.48083 20.4404 7.55584 20.3689 7.60527L20.0247 7.83296L20.5193 7.547C20.5943 7.50407 20.6828 7.49138 20.7667 7.51152C20.8507 7.53165 20.9238 7.58309 20.9712 7.65533C21.0185 7.72757 21.0364 7.81515 21.0213 7.90018C21.0063 7.98521 20.9593 8.06127 20.89 8.11282L16.0036 11.7212L21.2891 8.67186C21.3649 8.63031 21.4537 8.6193 21.5374 8.64109C21.6211 8.66288 21.6932 8.71583 21.7391 8.78909C21.785 8.86234 21.8012 8.95038 21.7843 9.03516C21.7674 9.11994 21.7187 9.19506 21.6483 9.24514L19.5862 10.639L21.6415 9.44843C21.7164 9.40645 21.8044 9.39448 21.8878 9.41492C21.9712 9.43537 22.0437 9.48671 22.0907 9.55857C22.1377 9.63042 22.1556 9.71744 22.1409 9.80203C22.1262 9.88662 22.08 9.96246 22.0115 10.0142L17.5506 13.296L21.9552 10.7542C22.0299 10.711 22.1182 10.6979 22.2022 10.7175C22.2862 10.7372 22.3595 10.7881 22.4072 10.8599C22.455 10.9319 22.4734 11.0194 22.4588 11.1046C22.4442 11.1897 22.3976 11.2661 22.3286 11.318L18.294 14.364L21.96 12.2477C22.0358 12.2028 22.1262 12.1892 22.212 12.2098C22.2977 12.2304 22.372 12.2836 22.4191 12.3582C22.4662 12.4327 22.4824 12.5227 22.4643 12.609C22.4461 12.6953 22.395 12.7711 22.3218 12.8203L21.8197 13.1652C21.8958 13.1353 21.9801 13.1339 22.0572 13.1613C22.1342 13.1887 22.1987 13.2431 22.2389 13.3143C22.279 13.3855 22.292 13.4689 22.2755 13.549C22.259 13.6291 22.2141 13.7005 22.149 13.75L20.5031 15.0118L21.1475 14.6397C21.1861 14.6152 21.2292 14.5988 21.2743 14.5914C21.3194 14.5839 21.3655 14.5857 21.4099 14.5966C21.4543 14.6075 21.496 14.6272 21.5325 14.6546C21.5691 14.682 21.5997 14.7166 21.6226 14.7561C21.6455 14.7957 21.6601 14.8395 21.6656 14.8848C21.6711 14.9302 21.6674 14.9762 21.6547 15.0201C21.6419 15.064 21.6205 15.1048 21.5915 15.1402C21.5626 15.1756 21.5268 15.2047 21.4863 15.2259L16.356 18.1899C16.3044 18.2191 16.2459 18.2341 16.1866 18.2332Z" fill="#DBE5FF"/>
<path d="M17.2138 31.7426C17.1429 31.7419 17.0741 31.719 17.017 31.6772C16.9598 31.6353 16.9172 31.5766 16.8952 31.5093C16.8731 31.442 16.8727 31.3695 16.894 31.3019C16.9153 31.2344 16.9572 31.1752 17.0138 31.1327L20.5165 28.5726L15.107 31.6958C15.0305 31.7403 14.9397 31.7531 14.8539 31.7315C14.7681 31.7099 14.6942 31.6556 14.6479 31.5802C14.6016 31.5048 14.5867 31.4143 14.6062 31.328C14.6258 31.2417 14.6783 31.1665 14.7526 31.1185L15.0426 30.9287L13.9367 31.5677C13.8613 31.6101 13.7725 31.622 13.6886 31.6011C13.6047 31.5801 13.532 31.5278 13.4854 31.4549C13.4388 31.3821 13.4218 31.2941 13.4379 31.2091C13.4541 31.1242 13.5021 31.0486 13.5722 30.9979L18.7384 27.357L12.1146 31.1801C12.0387 31.2222 11.9495 31.2335 11.8655 31.2118C11.7815 31.19 11.709 31.1368 11.663 31.0632C11.6171 30.9896 11.6011 30.9012 11.6184 30.8162C11.6357 30.7311 11.685 30.656 11.7561 30.6062L16.0821 27.6985L10.7925 30.7519C10.7169 30.7941 10.6281 30.8058 10.5441 30.7846C10.4602 30.7633 10.3876 30.7108 10.3412 30.6377C10.2948 30.5646 10.2781 30.4765 10.2947 30.3915C10.3112 30.3065 10.3596 30.2311 10.43 30.1806L16.8051 25.7577L9.29293 30.0946C9.21646 30.1391 9.12563 30.1519 9.03985 30.1302C8.95406 30.1086 8.88013 30.0543 8.83386 29.9789C8.78758 29.9036 8.77262 29.813 8.79218 29.7268C8.81174 29.6405 8.86426 29.5653 8.93853 29.5172L12.1986 27.3969L8.38762 29.5965C8.31142 29.6374 8.22246 29.6476 8.13898 29.6251C8.05549 29.6025 7.98379 29.5489 7.93858 29.4751C7.89336 29.4014 7.87804 29.3132 7.89576 29.2286C7.91348 29.1439 7.9629 29.0692 8.0339 29.0199L11.3916 26.8379L7.54126 29.0598C7.46487 29.1025 7.37493 29.114 7.29027 29.0919C7.20562 29.0697 7.13281 29.0157 7.08709 28.9411C7.04138 28.8665 7.0263 28.777 7.04503 28.6916C7.06375 28.6061 7.11482 28.5312 7.18754 28.4825L10.0871 26.6082L6.78502 28.515C6.70837 28.5619 6.61623 28.5765 6.52886 28.5554C6.44149 28.5344 6.36606 28.4795 6.31915 28.4029C6.27225 28.3262 6.25771 28.2341 6.27874 28.1467C6.29977 28.0594 6.35465 27.9839 6.4313 27.937L9.32817 26.064L6.1345 27.9072C6.05869 27.9487 5.96987 27.9598 5.88622 27.938C5.80256 27.9162 5.7304 27.8632 5.6845 27.79C5.63861 27.7167 5.62245 27.6287 5.63934 27.5439C5.65623 27.4591 5.70489 27.384 5.77535 27.3339L11.4139 23.5148L6.30526 26.4632C6.22995 26.5051 6.14148 26.5168 6.05787 26.4958C5.97426 26.4748 5.9018 26.4227 5.85524 26.3501C5.80869 26.2776 5.79154 26.19 5.80729 26.1053C5.82304 26.0205 5.8705 25.9449 5.94002 25.894L11.42 22.0125L6.82094 24.6674C6.74525 24.7102 6.65603 24.7222 6.57173 24.701C6.48743 24.6798 6.4145 24.627 6.36803 24.5536C6.32156 24.4801 6.30509 24.3916 6.32204 24.3063C6.33898 24.2211 6.38805 24.1456 6.45908 24.0955L8.89855 22.4096L7.54736 23.1889C7.47373 23.2315 7.38674 23.2449 7.3037 23.2263C7.22066 23.2078 7.14763 23.1587 7.09914 23.0887C7.05065 23.0188 7.03024 22.9332 7.04197 22.8489C7.05371 22.7647 7.09672 22.6879 7.16246 22.6339L9.51384 20.7013C9.43947 20.701 9.36726 20.6763 9.30833 20.6309C9.2494 20.5856 9.20704 20.5221 9.18777 20.4502C9.16851 20.3784 9.17341 20.3022 9.20172 20.2335C9.23003 20.1647 9.28018 20.1072 9.34443 20.0697L12.5245 18.234C12.5982 18.1914 12.6852 18.178 12.7682 18.1965C12.8512 18.2151 12.9243 18.2642 12.9728 18.3341C13.0213 18.404 13.0417 18.4897 13.0299 18.5739C13.0182 18.6582 12.9752 18.735 12.9094 18.789L10.7715 20.5461L15.786 17.6506C15.8615 17.6093 15.9499 17.5984 16.0332 17.6199C16.1165 17.6415 16.1885 17.6939 16.2346 17.7666C16.2806 17.8393 16.2973 17.9268 16.2812 18.0114C16.2651 18.0959 16.2174 18.1712 16.1478 18.2218L13.7043 19.9105L17.4313 17.7617C17.5066 17.7198 17.5951 17.7081 17.6787 17.7291C17.7623 17.7501 17.8347 17.8022 17.8813 17.8747C17.9278 17.9473 17.945 18.0349 17.9292 18.1196C17.9135 18.2044 17.866 18.2799 17.7965 18.3309L12.3118 22.2131L19.2521 18.2069C19.3279 18.1654 19.4167 18.1544 19.5003 18.1761C19.584 18.1979 19.6562 18.2509 19.7021 18.3241C19.748 18.3974 19.7641 18.4854 19.7472 18.5702C19.7303 18.655 19.6817 18.7301 19.6112 18.7802L13.9767 22.5946L20.5843 18.7802C20.6609 18.7333 20.7531 18.7187 20.8404 18.7398C20.9278 18.7608 21.0032 18.8157 21.0502 18.8923C21.0971 18.969 21.1116 19.0611 21.0906 19.1485C21.0695 19.2359 21.0147 19.3113 20.938 19.3582L18.0418 21.2319L21.4361 19.2742C21.5126 19.2306 21.6031 19.2186 21.6883 19.2406C21.7736 19.2626 21.8469 19.3169 21.8928 19.392C21.9387 19.4672 21.9536 19.5572 21.9342 19.6431C21.9148 19.729 21.8628 19.804 21.7891 19.8522L18.8861 21.7286L22.1943 19.8197C22.2706 19.7777 22.3601 19.7666 22.4443 19.7889C22.5285 19.8111 22.6009 19.8649 22.6464 19.9391C22.692 20.0132 22.7073 20.1021 22.6891 20.1873C22.6709 20.2724 22.6207 20.3473 22.5487 20.3963L19.1945 22.5756L22.9058 20.4329C22.9822 20.3902 23.0722 20.3788 23.1568 20.4009C23.2415 20.4231 23.3143 20.4771 23.36 20.5517C23.4057 20.6263 23.4208 20.7157 23.4021 20.8012C23.3834 20.8867 23.3323 20.9616 23.2596 21.0103L20.0015 23.1292L23.5354 21.0896C23.611 21.0462 23.7004 21.0336 23.7851 21.0545C23.8698 21.0753 23.9431 21.128 23.9899 21.2016C24.0367 21.2752 24.0533 21.364 24.0363 21.4495C24.0193 21.5351 23.97 21.6107 23.8986 21.6608L17.5221 26.0844L24.3492 22.1433C24.4253 22.0992 24.5156 22.0864 24.6009 22.1076C24.6863 22.1289 24.76 22.1825 24.8066 22.2571C24.8531 22.3317 24.8688 22.4215 24.8504 22.5075C24.8319 22.5935 24.7807 22.6689 24.7077 22.7179L20.3817 25.6249L24.8838 23.0262C24.9593 22.9839 25.048 22.9719 25.1319 22.9929C25.2159 23.0139 25.2886 23.0662 25.3352 23.139C25.3818 23.2119 25.3988 23.2998 25.3827 23.3848C25.3665 23.4698 25.3185 23.5454 25.2484 23.5961L20.0822 27.2384L25.4029 24.1667C25.4792 24.1233 25.5694 24.1112 25.6545 24.133C25.7396 24.1548 25.8128 24.2088 25.8589 24.2836C25.9049 24.3583 25.9201 24.4481 25.9013 24.5338C25.8825 24.6196 25.8311 24.6947 25.758 24.7433L25.4707 24.931L25.6326 24.8375C25.7076 24.7952 25.7959 24.783 25.8796 24.8035C25.9632 24.8239 26.036 24.8754 26.083 24.9476C26.13 25.0197 26.1478 25.107 26.1328 25.1918C26.1177 25.2766 26.0709 25.3525 26.0019 25.404L22.4999 27.9634L25.9098 25.9949C25.9844 25.9525 26.0723 25.9399 26.1558 25.9598C26.2393 25.9796 26.3121 26.0304 26.3596 26.1019C26.4071 26.1734 26.4257 26.2602 26.4116 26.3449C26.3976 26.4296 26.3519 26.5057 26.2838 26.558L24.4149 27.9729L26.0412 27.0344C26.1187 26.9939 26.2088 26.9849 26.2927 27.0092C26.3766 27.0336 26.4479 27.0894 26.4916 27.1651C26.5354 27.2407 26.5482 27.3304 26.5274 27.4152C26.5066 27.5001 26.4538 27.5737 26.3801 27.6206L20.0483 31.2757C19.9737 31.3181 19.8858 31.3307 19.8023 31.3109C19.7188 31.291 19.6459 31.2402 19.5984 31.1687C19.551 31.0972 19.5324 31.0104 19.5464 30.9257C19.5605 30.841 19.6062 30.7649 19.6742 30.7126L21.5397 29.3031L17.3832 31.6999C17.3315 31.729 17.273 31.7437 17.2138 31.7426Z" fill="#DBE5FF"/>
<path d="M35.3526 24.3489C35.2909 24.3488 35.2304 24.332 35.1776 24.3001C35.1247 24.2682 35.0816 24.2224 35.0529 24.1678C35.0242 24.1132 35.0109 24.0518 35.0145 23.9902C35.0181 23.9286 35.0385 23.8692 35.0734 23.8183L35.9679 22.5145L34.5821 23.3148C34.512 23.3551 34.4297 23.3689 34.3503 23.3538C34.2708 23.3387 34.1994 23.2957 34.1488 23.2325C34.0983 23.1693 34.0721 23.0901 34.0749 23.0093C34.0777 22.9284 34.1093 22.8512 34.164 22.7917L35.3275 21.5313L34.5821 21.9616C34.5127 22.0019 34.4312 22.0163 34.3522 22.0021C34.2731 21.988 34.2017 21.9462 34.1506 21.8843C34.0995 21.8224 34.072 21.7443 34.0731 21.664C34.0742 21.5837 34.1038 21.5064 34.1566 21.4459L35.5017 19.8975L34.5821 20.4261C34.5123 20.4659 34.4306 20.4796 34.3516 20.4648C34.2726 20.4499 34.2015 20.4074 34.1509 20.345C34.1004 20.2825 34.0736 20.2041 34.0755 20.1237C34.0774 20.0434 34.1079 19.9663 34.1613 19.9063L35.2584 18.6866L34.5808 19.0769C34.5103 19.1177 34.4276 19.1317 34.3476 19.1165C34.2677 19.1012 34.1959 19.0577 34.1454 18.9939C34.0949 18.9301 34.0691 18.8502 34.0726 18.7689C34.0762 18.6876 34.1089 18.6103 34.1647 18.5511L34.8424 17.8335L34.4751 18.0449C34.4052 18.0847 34.3234 18.0984 34.2444 18.0834C34.1654 18.0685 34.0942 18.0259 34.0437 17.9633C33.9932 17.9007 33.9666 17.8222 33.9686 17.7418C33.9707 17.6614 34.0013 17.5844 34.0549 17.5245L34.576 16.9498L34.1336 17.2046C34.0665 17.2428 33.9885 17.2569 33.9123 17.2447C33.8362 17.2325 33.7665 17.1946 33.7147 17.1374C33.663 17.0803 33.6323 17.0071 33.6278 16.9301C33.6232 16.8531 33.6451 16.7769 33.6897 16.714L34.4114 15.7111L33.3895 16.3013C33.3228 16.3402 33.2448 16.355 33.1684 16.3435C33.0921 16.3319 33.022 16.2946 32.9697 16.2378C32.9174 16.1809 32.8862 16.108 32.881 16.0309C32.8759 15.9539 32.8973 15.8774 32.9416 15.8141L33.6016 14.8715L32.2464 15.6535C32.1776 15.6933 32.097 15.7076 32.0188 15.694C31.9405 15.6804 31.8695 15.6398 31.8182 15.5792C31.7669 15.5186 31.7385 15.4418 31.7379 15.3624C31.7374 15.283 31.7648 15.2059 31.8154 15.1446L32.3893 14.4487L30.475 15.5539C30.3973 15.5981 30.3051 15.6098 30.2188 15.5864C30.1324 15.5629 30.0589 15.5063 30.0141 15.4288C29.9694 15.3513 29.9571 15.2593 29.98 15.1728C30.0029 15.0863 30.059 15.0123 30.1362 14.9671L33.6728 12.9254C33.7415 12.8856 33.8221 12.8713 33.9003 12.8849C33.9786 12.8985 34.0496 12.9391 34.1009 12.9997C34.1522 13.0603 34.1807 13.1371 34.1812 13.2165C34.1817 13.2959 34.1543 13.373 34.1037 13.4343L33.5305 14.1302L34.5849 13.5203C34.6515 13.4821 34.7292 13.4677 34.8051 13.4795C34.8811 13.4912 34.9508 13.5284 35.0028 13.585C35.0548 13.6416 35.086 13.7142 35.0913 13.7908C35.0967 13.8675 35.0758 13.9437 35.0321 14.0069L34.3728 14.9501L35.44 14.3342C35.5071 14.296 35.5851 14.2819 35.6612 14.2941C35.7374 14.3063 35.8071 14.3442 35.8588 14.4013C35.9106 14.4585 35.9413 14.5317 35.9458 14.6087C35.9504 14.6857 35.9285 14.7619 35.8839 14.8248L35.1622 15.8277L36.1109 15.2801C36.1808 15.2399 36.2629 15.2259 36.3422 15.2408C36.4215 15.2556 36.493 15.2983 36.5436 15.3611C36.5943 15.424 36.6209 15.5028 36.6186 15.5835C36.6162 15.6642 36.5852 15.7414 36.531 15.8012L36.0113 16.3752L36.4985 16.0933C36.5689 16.0521 36.6519 16.0376 36.7322 16.0527C36.8124 16.0677 36.8845 16.1113 36.9352 16.1752C36.9859 16.2392 37.0118 16.3194 37.0082 16.4009C37.0045 16.4825 36.9715 16.56 36.9152 16.6191L36.2376 17.3368L36.7743 17.0271C36.8442 16.9868 36.9261 16.9728 37.0054 16.9876C37.0847 17.0023 37.1562 17.0449 37.2069 17.1076C37.2576 17.1703 37.2843 17.2491 37.2821 17.3297C37.2799 17.4104 37.2491 17.4876 37.1951 17.5475L36.0973 18.7672L36.9105 18.2929C36.9799 18.2525 37.0614 18.2382 37.1404 18.2523C37.2195 18.2665 37.2909 18.3082 37.342 18.3702C37.3932 18.4321 37.4206 18.5102 37.4195 18.5905C37.4184 18.6708 37.3888 18.7481 37.336 18.8086L35.9916 20.3563L36.9166 19.8223C36.9867 19.782 37.069 19.7682 37.1485 19.7833C37.2279 19.7984 37.2994 19.8415 37.3499 19.9046C37.4004 19.9678 37.4266 20.047 37.4238 20.1279C37.421 20.2087 37.3894 20.2859 37.3347 20.3454L36.1705 21.6065L36.9213 21.1728C36.9879 21.1345 37.0655 21.1199 37.1414 21.1314C37.2174 21.143 37.2871 21.18 37.3393 21.2364C37.3914 21.2928 37.4228 21.3652 37.4284 21.4418C37.434 21.5184 37.4134 21.5947 37.3699 21.658L36.4748 22.9624L36.9267 22.7016C36.9864 22.6669 37.0553 22.6514 37.124 22.657C37.1928 22.6625 37.2582 22.689 37.3116 22.7327C37.3649 22.7765 37.4036 22.8355 37.4225 22.9019C37.4414 22.9682 37.4396 23.0388 37.4173 23.1041L37.2818 23.5106C37.3288 23.5399 37.3677 23.5804 37.395 23.6286C37.4397 23.7063 37.4518 23.7986 37.4285 23.8853C37.4053 23.9719 37.3486 24.0458 37.271 24.0907L36.9281 24.2886C36.8685 24.3228 36.7998 24.3381 36.7313 24.3325C36.6628 24.3268 36.5976 24.3004 36.5444 24.2568C36.4913 24.2132 36.4526 24.1544 36.4336 24.0883C36.4147 24.0222 36.4162 23.9519 36.4382 23.8867L36.487 23.7424L35.5213 24.2994C35.4706 24.3308 35.4123 24.3479 35.3526 24.3489Z" fill="#D1D7DB"/>
<path d="M26.9734 24.3415C26.9177 24.3416 26.8629 24.3279 26.8138 24.3018C26.7647 24.2756 26.7227 24.2377 26.6917 24.1915C26.6607 24.1453 26.6415 24.0921 26.636 24.0367C26.6304 23.9814 26.6385 23.9255 26.6597 23.874L26.9199 23.239L25.0943 24.2921C25.0242 24.3323 24.9419 24.3461 24.8624 24.331C24.783 24.3159 24.7115 24.2729 24.661 24.2097C24.6105 24.1465 24.5843 24.0674 24.5871 23.9865C24.5899 23.9057 24.6215 23.8285 24.6762 23.7689L25.8397 22.5099L25.0943 22.9402C25.0236 22.9805 24.9407 22.9941 24.8609 22.9783C24.781 22.9626 24.7095 22.9186 24.6594 22.8544C24.6093 22.7902 24.584 22.7102 24.588 22.6289C24.5921 22.5476 24.6254 22.4705 24.6817 22.4116L25.6798 21.3749L25.0943 21.7137C25.0246 21.754 24.9429 21.7681 24.8637 21.7536C24.7845 21.7391 24.7131 21.6969 24.6622 21.6345C24.6113 21.5721 24.5843 21.4937 24.586 21.4132C24.5877 21.3327 24.618 21.2555 24.6715 21.1953L25.9664 19.735L25.0943 20.2385C25.023 20.2791 24.9393 20.2924 24.8589 20.276C24.7784 20.2596 24.7067 20.2145 24.657 20.1491C24.6073 20.0838 24.583 20.0026 24.5887 19.9207C24.5943 19.8388 24.6295 19.7617 24.6878 19.7038L25.942 18.4712L25.0943 18.9605C25.0191 19.0036 24.9303 19.0163 24.846 18.9959C24.7617 18.9755 24.6885 18.9236 24.6413 18.8509C24.5942 18.7781 24.5767 18.69 24.5926 18.6048C24.6084 18.5195 24.6563 18.4436 24.7264 18.3926L27.4457 16.4275L25.2095 17.715C25.1353 17.7571 25.0478 17.7697 24.9647 17.7502C24.8816 17.7306 24.8089 17.6804 24.7612 17.6096C24.7135 17.5388 24.6943 17.4526 24.7075 17.3682C24.7206 17.2838 24.7651 17.2075 24.8321 17.1546L27.216 15.3047L25.7442 16.1571C25.6708 16.1985 25.5847 16.211 25.5026 16.1923C25.4204 16.1737 25.3482 16.125 25.3 16.056C25.2518 15.987 25.231 15.9024 25.2417 15.8189C25.2524 15.7354 25.2938 15.6588 25.3579 15.6042L26.6942 14.4874C26.6378 14.4614 26.5897 14.4203 26.5551 14.3688C26.5205 14.3172 26.5007 14.2572 26.4979 14.1951C26.4951 14.1331 26.5094 14.0715 26.5392 14.0171C26.5691 13.9626 26.6133 13.9174 26.6671 13.8864L29.1005 12.481C29.1739 12.4389 29.2603 12.4258 29.3429 12.4443C29.4254 12.4627 29.4981 12.5114 29.5466 12.5807C29.595 12.65 29.6159 12.7349 29.6049 12.8188C29.594 12.9026 29.5521 12.9794 29.4874 13.0339L28.7901 13.6167L31.1761 12.2397C31.2503 12.1976 31.3377 12.185 31.4209 12.2045C31.504 12.2241 31.5767 12.2743 31.6244 12.3451C31.6721 12.4159 31.6913 12.5021 31.6781 12.5865C31.665 12.6709 31.6205 12.7472 31.5535 12.8001L29.1737 14.6494L32.8051 12.5528C32.8803 12.5096 32.9692 12.497 33.0534 12.5173C33.1377 12.5377 33.2109 12.5897 33.2581 12.6624C33.3052 12.7352 33.3227 12.8232 33.3069 12.9085C33.291 12.9937 33.2431 13.0697 33.173 13.1207L28.3381 16.6206L28.3558 16.6416C28.4056 16.7073 28.4298 16.7888 28.4238 16.871C28.4178 16.9532 28.382 17.0304 28.3232 17.0882L27.0676 18.3215L27.4396 18.1067C27.5093 18.0664 27.5911 18.0522 27.6702 18.0667C27.7494 18.0812 27.8209 18.1234 27.8717 18.1858C27.9226 18.2482 27.9496 18.3267 27.9479 18.4071C27.9462 18.4876 27.9159 18.5649 27.8624 18.625L26.5641 20.0874L27.4308 19.588C27.5015 19.5476 27.5844 19.5341 27.6643 19.5498C27.7441 19.5656 27.8157 19.6096 27.8658 19.6737C27.9159 19.7379 27.9412 19.818 27.9371 19.8993C27.933 19.9806 27.8998 20.0577 27.8435 20.1165L26.8453 21.1499L27.4349 20.8111C27.505 20.7703 27.5875 20.7562 27.6672 20.7711C27.747 20.786 27.8187 20.829 27.8694 20.8924C27.9201 20.9557 27.9464 21.0351 27.9435 21.1162C27.9406 21.1973 27.9087 21.2747 27.8536 21.3342L26.6901 22.5932L27.4396 22.1602C27.5008 22.1249 27.5715 22.1096 27.6418 22.1164C27.7121 22.1232 27.7786 22.1518 27.8318 22.1983C27.8851 22.2447 27.9225 22.3067 27.9388 22.3754C27.9551 22.4442 27.9495 22.5163 27.9228 22.5817L27.6293 23.298C27.7024 23.3015 27.7724 23.3285 27.8288 23.375C27.8853 23.4216 27.9251 23.4852 27.9424 23.5562C27.9597 23.6273 27.9536 23.7021 27.9249 23.7694C27.8962 23.8367 27.8465 23.8928 27.7832 23.9295L27.1428 24.2995C27.091 24.3281 27.0326 24.3426 26.9734 24.3415Z" fill="#D1D7DB"/>
<path d="M24.9723 39.9216C24.8996 39.9217 24.8288 39.8985 24.7704 39.8554C24.7119 39.8122 24.6688 39.7514 24.6476 39.6819C24.6263 39.6124 24.6279 39.5379 24.6523 39.4694C24.6766 39.4009 24.7223 39.3421 24.7826 39.3015L31.3874 34.8597L23.5391 39.3917C23.4622 39.436 23.3709 39.4484 23.285 39.4261C23.199 39.4039 23.1252 39.3488 23.0795 39.2727C23.0337 39.1965 23.0197 39.1055 23.0404 39.0192C23.0611 38.9328 23.1149 38.858 23.1901 38.8109L24.2215 38.1631L22.9855 38.8767C22.9093 38.92 22.8194 38.9321 22.7345 38.9105C22.6496 38.8889 22.5763 38.8353 22.5301 38.7608C22.4839 38.6864 22.4683 38.597 22.4867 38.5113C22.505 38.4256 22.5558 38.3504 22.6284 38.3013L30.7369 32.904L22.438 37.6962C22.3617 37.7404 22.2712 37.7532 22.1856 37.7318C22.1001 37.7103 22.0263 37.6564 21.9799 37.5814C21.9335 37.5064 21.9182 37.4163 21.9371 37.3302C21.9561 37.2441 22.0079 37.1688 22.0815 37.1202L30.4543 31.5698L22.3838 36.2292C22.3074 36.2725 22.2172 36.2846 22.1322 36.2628C22.0471 36.241 21.9738 36.187 21.9278 36.1123C21.8818 36.0375 21.8666 35.9478 21.8854 35.862C21.9042 35.7762 21.9556 35.7011 22.0287 35.6525L29.5029 30.7342L22.3838 34.8448C22.3075 34.889 22.217 34.9017 22.1314 34.8803C22.0459 34.8588 21.9721 34.8049 21.9257 34.7299C21.8793 34.655 21.864 34.5648 21.8829 34.4787C21.9019 34.3926 21.9537 34.3173 22.0273 34.2688L29.1736 29.5348L22.3838 33.4522C22.3078 33.4955 22.218 33.5078 22.1332 33.4864C22.0484 33.465 21.9752 33.4117 21.9288 33.3376C21.8824 33.2635 21.8665 33.1743 21.8843 33.0887C21.9022 33.003 21.9525 32.9277 22.0246 32.8783L28.5732 28.4547L22.3838 32.0272C22.3077 32.0681 22.2189 32.0785 22.1355 32.0562C22.0521 32.0338 21.9804 31.9805 21.9349 31.9071C21.8895 31.8336 21.8739 31.7456 21.8912 31.661C21.9085 31.5764 21.9574 31.5016 22.028 31.4519L25.3321 29.2679L22.3838 30.9701C22.3077 31.0142 22.2174 31.027 22.132 31.0057C22.0467 30.9845 21.973 30.9309 21.9264 30.8563C21.8798 30.7816 21.8641 30.6918 21.8826 30.6058C21.901 30.5198 21.9522 30.4444 22.0253 30.3954L24.7778 28.5414L22.3838 29.9231C22.3085 29.9668 22.2193 29.9798 22.1346 29.9594C22.05 29.9391 21.9765 29.887 21.9292 29.8139C21.882 29.7408 21.8647 29.6523 21.881 29.5668C21.8972 29.4813 21.9457 29.4053 22.0165 29.3546L25.2481 27.029L22.3838 28.6824C22.3082 28.7252 22.2192 28.7374 22.1349 28.7165C22.0506 28.6956 21.9776 28.6431 21.9309 28.5699C21.8842 28.4967 21.8674 28.4083 21.884 28.3231C21.9005 28.2379 21.9492 28.1622 22.0199 28.1118L22.9354 27.4694L22.3838 27.7872C22.3091 27.83 22.2209 27.8428 22.1372 27.8229C22.0534 27.8031 21.9804 27.7521 21.9328 27.6803C21.8853 27.6086 21.8669 27.5214 21.8813 27.4366C21.8957 27.3517 21.9418 27.2755 22.0104 27.2234L23.1427 26.3642L22.3824 26.8026C22.3093 26.8436 22.2236 26.8559 22.1419 26.8374C22.0602 26.8188 21.9882 26.7707 21.94 26.7022C21.8917 26.6337 21.8705 26.5497 21.8805 26.4665C21.8905 26.3834 21.931 26.3068 21.9941 26.2517L22.8452 25.5287L22.4481 25.7577C22.3763 25.8025 22.2903 25.8187 22.2071 25.8033C22.1239 25.7878 22.0495 25.7418 21.9986 25.6743C21.9476 25.6067 21.9237 25.5225 21.9317 25.4383C21.9396 25.354 21.9788 25.2758 22.0416 25.219L22.6684 24.6274C22.616 24.598 22.5727 24.5549 22.543 24.5028C22.498 24.425 22.4857 24.3326 22.5089 24.2458C22.532 24.159 22.5886 24.085 22.6663 24.0399L24.2771 23.1102C24.3493 23.0648 24.436 23.0482 24.5198 23.0639C24.6037 23.0795 24.6786 23.1262 24.7295 23.1947C24.7804 23.2632 24.8036 23.3483 24.7945 23.4332C24.7854 23.518 24.7446 23.5963 24.6802 23.6523L24.5752 23.7526L25.7563 23.0689C25.8294 23.028 25.9151 23.0156 25.9968 23.0341C26.0786 23.0527 26.1505 23.1009 26.1988 23.1694C26.247 23.2378 26.2682 23.3218 26.2582 23.405C26.2482 23.4882 26.2077 23.5647 26.1446 23.6198L25.2942 24.3422L27.5005 23.0689C27.5751 23.0264 27.6631 23.0139 27.7465 23.0337C27.83 23.0536 27.9029 23.1044 27.9504 23.1759C27.9979 23.2474 28.0165 23.3342 28.0024 23.4189C27.9883 23.5035 27.9427 23.5797 27.8746 23.632L26.7416 24.4919L29.2048 23.0689C29.2802 23.0275 29.3684 23.0163 29.4518 23.0376C29.5351 23.0589 29.6072 23.1111 29.6535 23.1835C29.6997 23.256 29.7167 23.3434 29.701 23.4279C29.6852 23.5124 29.6379 23.5878 29.5687 23.6388L28.6525 24.2825L30.7532 23.0689C30.8285 23.0252 30.9177 23.0122 31.0023 23.0326C31.0869 23.0529 31.1605 23.105 31.2077 23.1782C31.2549 23.2513 31.2722 23.3397 31.256 23.4253C31.2397 23.5108 31.1912 23.5867 31.1204 23.6374L27.8902 25.9617L32.9046 23.0689C32.9806 23.0268 33.0697 23.0155 33.1537 23.0373C33.2377 23.059 33.3102 23.1122 33.3562 23.1858C33.4022 23.2594 33.4181 23.3479 33.4008 23.4329C33.3835 23.5179 33.3342 23.5931 33.2631 23.6428L30.5106 25.4975L34.7173 23.0689C34.7934 23.0269 34.8827 23.0157 34.9668 23.0377C35.0509 23.0597 35.1233 23.1132 35.1691 23.1871C35.2148 23.261 35.2305 23.3496 35.2127 23.4347C35.195 23.5198 35.1452 23.5948 35.0737 23.6442L31.7723 25.8262L36.5489 23.0689C36.6247 23.0273 36.7136 23.0163 36.7972 23.0381C36.8809 23.0599 36.953 23.1129 36.9989 23.1861C37.0448 23.2594 37.061 23.3474 37.0441 23.4322C37.0272 23.517 36.9786 23.5921 36.9081 23.6422L30.3574 28.0678L38.3325 23.464C38.4086 23.4206 38.4986 23.4085 38.5835 23.4301C38.6684 23.4517 38.7416 23.5053 38.7878 23.5798C38.8341 23.6542 38.8496 23.7437 38.8313 23.8293C38.813 23.915 38.7622 23.9902 38.6896 24.0393L31.5514 28.7698L39.2175 24.3428C39.2938 24.2994 39.384 24.2874 39.469 24.3092C39.5541 24.331 39.6274 24.385 39.6734 24.4597C39.7194 24.5345 39.7347 24.6242 39.7158 24.71C39.697 24.7958 39.6456 24.8709 39.5725 24.9195L32.0969 29.8384L39.6051 25.5016C39.6814 25.4542 39.7735 25.4392 39.861 25.4597C39.9485 25.4802 40.0242 25.5346 40.0716 25.611C40.119 25.6874 40.134 25.7795 40.1135 25.867C40.093 25.9545 40.0385 26.0302 39.9622 26.0776L31.59 31.6274L39.6227 26.9924C39.6986 26.9509 39.7876 26.9401 39.8713 26.9621C39.955 26.9842 40.0271 27.0374 40.0728 27.1109C40.1185 27.1844 40.1343 27.2727 40.117 27.3575C40.0997 27.4423 40.0506 27.5173 39.9798 27.567L31.8686 32.9657L39.6227 28.4899C39.6994 28.4484 39.7891 28.438 39.8732 28.461C39.9574 28.4839 40.0294 28.5385 40.0744 28.6132C40.1193 28.6879 40.1337 28.7771 40.1146 28.8622C40.0955 28.9473 40.0443 29.0217 39.9717 29.07L38.9437 29.7158L39.6213 29.3241C39.6974 29.28 39.7877 29.2672 39.873 29.2885C39.9584 29.3097 40.0321 29.3633 40.0787 29.4379C40.1252 29.5125 40.1409 29.6023 40.1225 29.6883C40.104 29.7743 40.0529 29.8498 39.9798 29.8987L33.3749 34.3399L39.6227 30.7336C39.6985 30.6909 39.7879 30.6791 39.8722 30.7005C39.9566 30.722 40.0295 30.7751 40.0757 30.8488C40.122 30.9225 40.1381 31.0112 40.1208 31.0965C40.1034 31.1817 40.0539 31.2571 39.9825 31.3068L34.9951 34.7004L39.6227 32.0285C39.6978 31.9858 39.7863 31.9734 39.8703 31.9938C39.9542 32.0142 40.0272 32.066 40.0743 32.1384C40.1214 32.2108 40.139 32.2985 40.1236 32.3835C40.1081 32.4685 40.0608 32.5444 39.9913 32.5957L35.2479 36.0381L39.6227 33.5125C39.6985 33.471 39.7873 33.46 39.871 33.4818C39.9546 33.5036 40.0268 33.5565 40.0727 33.6298C40.1186 33.703 40.1347 33.791 40.1178 33.8758C40.1009 33.9606 40.0523 34.0357 39.9818 34.0858L39.2961 34.55L39.6227 34.3623C39.6972 34.3207 39.7847 34.3087 39.8677 34.3289C39.9507 34.349 40.023 34.3997 40.0702 34.4709C40.1173 34.5421 40.1359 34.6284 40.1222 34.7127C40.1084 34.7969 40.0634 34.8729 39.996 34.9254L37.8073 36.5849L39.6227 35.5373C39.6958 35.4945 39.7822 35.4806 39.8651 35.4984C39.9479 35.5162 40.021 35.5644 40.0701 35.6334C40.1191 35.7025 40.1406 35.7874 40.1301 35.8714C40.1197 35.9555 40.0781 36.0326 40.0137 36.0875L38.3785 37.5024L39.6118 36.7902C39.6816 36.7504 39.7633 36.7367 39.8423 36.7515C39.9213 36.7664 39.9925 36.8089 40.043 36.8713C40.0936 36.9338 40.1203 37.0122 40.1184 37.0926C40.1165 37.1729 40.0861 37.25 40.0326 37.31L39.1619 38.2709C39.2221 38.272 39.2811 38.2881 39.3336 38.3177C39.3861 38.3472 39.4305 38.3894 39.4628 38.4403C39.5077 38.518 39.52 38.6104 39.4969 38.6972C39.4738 38.784 39.4171 38.858 39.3394 38.9031L37.7294 39.8328C37.6595 39.8731 37.5775 39.8871 37.4982 39.8723C37.4189 39.8575 37.3475 39.815 37.2968 39.7522C37.2461 39.6895 37.2194 39.6108 37.2215 39.5301C37.2237 39.4495 37.2546 39.3723 37.3086 39.3124L38.0885 38.4511L35.6165 39.8741C35.5435 39.9168 35.4572 39.9306 35.3745 39.9128C35.2919 39.8951 35.2188 39.847 35.1698 39.7782C35.1207 39.7093 35.0991 39.6246 35.1093 39.5407C35.1195 39.4568 35.1607 39.3797 35.2249 39.3246L36.8613 37.9124L33.4623 39.8775C33.3878 39.92 33.2998 39.9325 33.2163 39.9127C33.1328 39.8928 33.06 39.842 33.0125 39.7705C32.965 39.699 32.9464 39.6122 32.9605 39.5275C32.9746 39.4429 33.0202 39.3667 33.0883 39.3144L35.277 37.6549L31.4267 39.8741C31.3509 39.9157 31.2621 39.9267 31.1785 39.9049C31.0948 39.8831 31.0226 39.8302 30.9767 39.7569C30.9308 39.6836 30.9147 39.5956 30.9316 39.5108C30.9485 39.426 30.9971 39.3509 31.0676 39.3008L31.7527 38.8367L29.9549 39.8741C29.8798 39.9168 29.7913 39.9293 29.7073 39.9088C29.6234 39.8884 29.5504 39.8367 29.5033 39.7643C29.4562 39.6918 29.4386 39.6041 29.454 39.5191C29.4695 39.4341 29.5168 39.3582 29.5863 39.3069L34.3297 35.8653L27.3853 39.8741C27.3097 39.9152 27.2211 39.926 27.1378 39.9042C27.0545 39.8824 26.9826 39.8296 26.9367 39.7567C26.8909 39.6837 26.8746 39.5961 26.8911 39.5115C26.9076 39.427 26.9556 39.3519 27.0255 39.3015L32.0142 35.9073L25.1424 39.8741C25.0909 39.9047 25.0322 39.9211 24.9723 39.9216Z" fill="#FCBE5D"/>
<path d="M31.5748 34.5004C31.5111 34.5005 31.4487 34.4826 31.3947 34.4488C31.3407 34.4151 31.2973 34.3668 31.2695 34.3095C31.2417 34.2522 31.2306 34.1882 31.2375 34.1249C31.2444 34.0616 31.269 34.0015 31.3085 33.9515L31.3986 33.8377L30.3645 34.4346C30.294 34.4754 30.2112 34.4894 30.1312 34.4741C30.0512 34.4588 29.9794 34.4151 29.9289 34.3512C29.8785 34.2872 29.8528 34.2073 29.8565 34.1259C29.8602 34.0445 29.8931 33.9672 29.9492 33.9081L30.7284 33.0889L29.5114 33.7902C29.4381 33.8328 29.3515 33.8464 29.2686 33.8282C29.1858 33.8101 29.1128 33.7615 29.064 33.6921C29.0152 33.6228 28.9943 33.5376 29.0052 33.4535C29.0161 33.3695 29.0582 33.2925 29.1231 33.238L29.3447 33.0516C29.2697 33.0786 29.1876 33.0783 29.1128 33.0508C29.038 33.0233 28.9753 32.9703 28.9357 32.9011C28.8962 32.8319 28.8823 32.7509 28.8964 32.6725C28.9106 32.5941 28.952 32.5232 29.0133 32.4722L29.7099 31.8942L29.5697 31.9749C29.4987 32.0158 29.4152 32.0296 29.3348 32.0137C29.2544 31.9979 29.1825 31.9534 29.1324 31.8885C29.0822 31.8237 29.0573 31.7429 29.0622 31.6611C29.0671 31.5792 29.1015 31.502 29.159 31.4436L30.6776 29.9088L29.3847 30.6541C29.3131 30.6966 29.2284 30.7112 29.1467 30.6952C29.065 30.6792 28.9921 30.6337 28.9418 30.5673C28.8915 30.501 28.8675 30.4184 28.8742 30.3355C28.8809 30.2525 28.9179 30.1749 28.9781 30.1175L29.775 29.345L29.1577 29.7014C29.0877 29.7421 29.0055 29.7564 28.9259 29.7418C28.8462 29.7271 28.7745 29.6844 28.7237 29.6214C28.6728 29.5585 28.6462 29.4793 28.6486 29.3984C28.651 29.3175 28.6823 29.2401 28.7369 29.1803L29.2912 28.5704C29.2485 28.5589 29.2086 28.539 29.1737 28.5119C29.1388 28.4848 29.1096 28.451 29.0879 28.4126C29.0431 28.3349 29.031 28.2426 29.0541 28.156C29.0772 28.0694 29.1337 27.9954 29.2112 27.9504L30.5997 27.1488C30.6696 27.108 30.7519 27.0937 30.8315 27.1084C30.9111 27.1231 30.9828 27.1658 31.0337 27.2287C31.0846 27.2917 31.1112 27.3708 31.1088 27.4517C31.1063 27.5327 31.075 27.61 31.0205 27.6699L30.6864 28.0392L31.8106 27.39C31.8822 27.3476 31.9669 27.3329 32.0486 27.349C32.1303 27.365 32.2032 27.4105 32.2535 27.4768C32.3037 27.5432 32.3278 27.6257 32.3211 27.7087C32.3144 27.7917 32.2774 27.8693 32.2172 27.9267L31.4223 28.6972L32.5255 28.0609C32.5965 28.0199 32.6799 28.0061 32.7604 28.022C32.8408 28.0378 32.9127 28.0823 32.9628 28.1472C33.0129 28.212 33.0379 28.2928 33.033 28.3746C33.0281 28.4565 32.9937 28.5337 32.9361 28.5921L31.4169 30.1276L32.8318 29.3091C32.9052 29.2675 32.9915 29.2549 33.0738 29.2736C33.1561 29.2924 33.2284 29.3411 33.2766 29.4103C33.3248 29.4796 33.3455 29.5643 33.3345 29.648C33.3236 29.7316 33.2818 29.8082 33.2174 29.8627L32.413 30.5301C32.4749 30.5223 32.5377 30.5312 32.595 30.556C32.6522 30.5808 32.7017 30.6206 32.7383 30.6711C32.7868 30.7404 32.8077 30.8253 32.7968 30.9092C32.7859 30.9931 32.744 31.0699 32.6793 31.1244L32.4632 31.3074C32.5349 31.2795 32.614 31.2769 32.6874 31.3C32.7608 31.323 32.8242 31.3704 32.8671 31.4343C32.9101 31.4982 32.9299 31.5748 32.9235 31.6515C32.9171 31.7282 32.8847 31.8004 32.8318 31.8563L32.0525 32.6762L32.5892 32.3665C32.6574 32.3276 32.7369 32.3135 32.8143 32.3267C32.8917 32.34 32.9621 32.3797 33.0135 32.439C33.0648 32.4984 33.094 32.5738 33.096 32.6522C33.0979 32.7307 33.0726 32.8075 33.0242 32.8693L32.7417 33.2278C32.8199 33.2539 32.8859 33.3076 32.9273 33.3789C32.9723 33.4567 32.9844 33.5492 32.9612 33.636C32.9379 33.7228 32.8811 33.7968 32.8033 33.8417L31.7415 34.4516C31.6912 34.4824 31.6337 34.4992 31.5748 34.5004Z" fill="#A87E48"/>
<path d="M37.5942 23.0011C37.8741 18.3492 37.6376 12.8123 31.7795 12.2905C27.5653 -4.96873 2.4767 -3.26178 0.133452 14.1343C-1.41629 25.8953 10.8231 34.9037 21.697 30.6008C22.1246 33.6501 20.1669 38.9675 24.2788 39.9378C28.5268 40.0774 32.8067 39.931 37.0657 39.9819C39.7443 39.9338 40.6422 37.3357 40.3129 35.0352V27.3488C40.6097 25.3959 39.7613 23.2268 37.5942 23.0011ZM36.613 19.0878V22.9503C36.037 22.9431 35.4606 22.9404 34.8837 22.9422C34.757 20.1761 35.7836 15.863 32.1217 15.0776C32.0319 14.9795 31.9105 14.916 31.7787 14.8983C31.647 14.8806 31.5131 14.9098 31.4007 14.9807C26.5515 14.9129 27.0408 19.4531 27.1262 22.9442C26.5495 22.9442 25.9742 22.9442 25.3969 22.951C25.5066 19.924 24.7721 16.3834 27.3118 14.1208C31.0334 10.6805 37.0033 14.3024 36.613 19.0905V19.0878ZM28.4977 16.9384C28.7345 16.4459 29.1198 16.0403 29.5994 15.7785C30.079 15.5167 30.6287 15.4121 31.1709 15.4794C31.2365 18.0713 30.6559 20.6388 29.4816 22.9503L28.1074 22.9456C28.2619 20.9682 27.7035 18.7998 28.4977 16.9384ZM32.1677 15.8122C34.7509 17.2176 33.689 20.5501 33.9025 22.9456C32.7627 22.9517 31.6243 22.9632 30.4859 22.9557C31.5903 20.7363 32.166 18.2912 32.1677 15.8122ZM1.00692 16.1117C1.09433 -2.24465 25.8793 -5.27773 30.7251 12.281C25.8075 12.4952 23.8302 17.1301 24.4157 21.4968C22.7464 19.5081 20.4021 18.2051 17.8318 17.8376C23.8776 16.3536 24.3465 7.52948 18.2241 5.77578C9.94621 3.48539 5.64123 15.3798 14.258 17.9094C12.069 18.2961 10.0552 19.3558 8.49674 20.9408C6.93832 22.5258 5.91291 24.5573 5.5633 26.7525C2.73928 23.919 1.10865 20.1109 1.00692 16.1117ZM11.6105 15.2131C6.41779 6.21759 20.6778 1.51416 21.7051 11.9517C21.7476 13.1505 21.3981 14.3304 20.7095 15.3126C20.0209 16.2948 19.0308 17.0257 17.8894 17.3945C16.748 17.7632 15.5174 17.7498 14.3844 17.3561C13.2513 16.9625 12.2774 16.2101 11.6105 15.2131ZM6.94906 27.9858C6.77219 27.8503 6.60211 27.7019 6.43202 27.5555C6.48113 25.4593 7.21606 23.4369 8.52425 21.7983C9.83243 20.1596 11.6417 18.9949 13.675 18.4827C15.7083 17.9705 17.8534 18.1389 19.7818 18.9623C21.7102 19.7856 23.3156 21.2183 24.352 23.0411C20.8818 23.651 21.7959 27.6612 21.6977 30.2355C19.2544 31.1667 16.6116 31.4489 14.0268 31.0546C11.4421 30.6603 9.00357 29.603 6.94906 27.9858ZM37.1415 39.2216C22.1849 38.5541 22.4471 42.6429 22.6951 29.6094C22.9032 27.8089 22.0697 25.5436 23.5659 24.1599C24.1977 23.7709 24.9458 23.6158 25.6801 23.7215H35.5268C37.3638 23.4463 39.3791 24.1504 39.3147 26.2965C39.3567 28.5875 39.3147 30.8827 39.3147 33.1737C39.3154 35.1029 40.0208 39.0989 37.1415 39.2216Z" fill="#262626"/>
<path d="M33.4278 28.6802C32.3436 25.4479 26.8832 27.8596 28.8809 30.7971C28.9227 30.8519 28.9712 30.9013 29.0252 30.9442C28.7684 32.3198 28.1734 34.4496 30.2924 34.4679C33.2109 34.7599 33.6629 33.3159 32.9832 30.7863C33.2277 30.5005 33.3965 30.1579 33.4742 29.79C33.5519 29.422 33.5359 29.0404 33.4278 28.6802ZM31.96 33.8302C29.1878 34.415 29.6378 32.765 30.0152 30.7809C29.3647 29.9433 29.1777 28.5623 30.2063 27.8826C31.565 27.0986 33.0083 28.9343 32.4113 30.2218C32.3056 30.4929 31.981 30.73 31.9953 31.0146C32 31.9084 32.7379 33.1078 31.96 33.8288V33.8302Z" fill="#262626"/>
</svg>
