<svg width="27" height="40" viewBox="0 0 27 40" fill="none" xmlns="http://www.w3.org/2000/svg">
<path d="M13.8199 39.9042C13.7148 39.9042 13.6111 39.8554 13.5461 39.7646C13.4444 39.6242 13.4647 39.4297 13.5928 39.3138L15.0197 38.0279L11.9612 39.793C11.8108 39.8825 11.6155 39.8378 11.5145 39.6941C11.4142 39.5504 11.4393 39.3538 11.5735 39.2406L13.0709 37.9764L10.3351 39.5558C10.1812 39.6466 9.98393 39.5992 9.88361 39.4514C9.78464 39.3023 9.81718 39.1023 9.95885 38.9938L10.6286 38.4787L9.25524 39.2718C9.10137 39.3612 8.90343 39.3152 8.80514 39.1681C8.7055 39.0203 8.73668 38.821 8.877 38.7119L9.43419 38.2753L8.36454 38.8928C8.21338 38.9823 8.01748 38.9383 7.91716 38.7932C7.81683 38.6488 7.84395 38.4509 7.97952 38.339L8.47367 37.9296L7.69482 38.379C7.55179 38.4631 7.36945 38.4292 7.26235 38.3004C7.15796 38.1716 7.16135 37.9852 7.27184 37.8612L7.67381 37.4077L7.61822 37.4395C7.45554 37.5337 7.24811 37.4775 7.15525 37.3155C7.06103 37.1535 7.11661 36.946 7.2793 36.8525L9.14068 35.7781C9.28303 35.6941 9.46605 35.7279 9.57315 35.8567C9.67754 35.9855 9.67415 36.1719 9.56366 36.296L9.16237 36.7488L11.625 35.3267C11.7769 35.2372 11.9721 35.2812 12.0724 35.4263C12.1727 35.5707 12.1463 35.7686 12.01 35.8805L11.5145 36.2912L13.2919 35.265C13.4457 35.1741 13.643 35.2216 13.742 35.3687C13.8416 35.5165 13.8104 35.7157 13.6701 35.8249L13.1129 36.2607L14.7452 35.3185C14.8984 35.2277 15.097 35.2745 15.1966 35.4229C15.2956 35.572 15.2631 35.772 15.1214 35.8805L14.451 36.3956L16.0317 35.4832C16.1829 35.3951 16.3781 35.4385 16.4785 35.5822C16.5788 35.7259 16.5537 35.9225 16.4195 36.0357L14.9221 37.2999L17.4688 35.8296C17.6186 35.7422 17.8104 35.7835 17.9121 35.9238C18.0138 36.0642 17.9935 36.2587 17.8653 36.3746L16.4364 37.6625L18.6686 36.3746C18.8211 36.2851 19.015 36.3306 19.1153 36.4736C19.2156 36.6173 19.1906 36.8145 19.0563 36.9271L18.693 37.2335L19.2197 36.9298C19.3817 36.8356 19.5891 36.8905 19.6827 37.0538C19.7769 37.2158 19.7213 37.4233 19.5586 37.5168L15.7206 39.7327C15.5688 39.8222 15.3742 39.7774 15.2739 39.6337C15.1736 39.49 15.1987 39.2928 15.3329 39.1803L15.6969 38.8732L13.9894 39.8581C13.9365 39.8893 13.8775 39.9042 13.8199 39.9042Z" fill="#E0BF62"/>
<path d="M13.2353 37.1513C13.1452 37.1513 13.0557 37.1147 12.9899 37.0462C12.8822 36.933 12.8659 36.7608 12.9499 36.6293L13.0665 36.4483C12.9323 36.5032 12.7744 36.4653 12.6781 36.3494C12.5731 36.2219 12.5751 36.0369 12.6835 35.9115L13.1194 35.4085L12.8123 35.5854C12.6639 35.6735 12.4714 35.6315 12.369 35.4919C12.2673 35.3516 12.287 35.157 12.4151 35.0411L12.8449 34.652L12.5012 34.8499C12.3521 34.9381 12.1596 34.896 12.0565 34.7544C11.9555 34.6127 11.9772 34.4175 12.1074 34.3022L14.3355 32.3365L11.9332 33.7234C11.7779 33.8135 11.578 33.7654 11.479 33.6142C11.3807 33.4624 11.4194 33.2611 11.5658 33.1546L12.8686 32.2172L11.5129 32.9994C11.3543 33.0909 11.153 33.0401 11.056 32.8855C10.9591 32.7303 11.0025 32.5276 11.1543 32.4253L11.7264 32.0389L11.1252 32.386C10.9672 32.4788 10.7659 32.4273 10.6683 32.2728C10.5714 32.1175 10.6147 31.9142 10.7659 31.8118L13.4495 29.9979L10.6127 31.6349C10.4527 31.7264 10.2521 31.6762 10.1552 31.5203C10.0582 31.3644 10.103 31.1611 10.2548 31.0594L14.105 28.4917L10.0304 30.8438C9.87113 30.936 9.66845 30.8845 9.5722 30.7279C9.47594 30.5713 9.52204 30.3673 9.67523 30.2663L13.5892 27.7094L9.45154 30.0975C9.29224 30.1917 9.08821 30.1382 8.99195 29.9796C8.89638 29.8216 8.94518 29.6162 9.10041 29.5173L10.366 28.7167L8.98382 29.5146C8.82385 29.6088 8.62117 29.5552 8.52424 29.3973C8.42866 29.24 8.47679 29.0346 8.63134 28.9357L12.3934 26.532L8.41713 28.8272C8.25784 28.9201 8.05448 28.8686 7.95823 28.7106C7.86197 28.554 7.90942 28.3493 8.0633 28.249L14.1484 24.3181L7.73793 28.0192C7.57795 28.1121 7.37527 28.0599 7.2797 27.9033C7.18344 27.7474 7.22953 27.5427 7.38273 27.4417L15.5448 22.1117L6.9428 27.0784C6.78351 27.1705 6.58015 27.1197 6.48389 26.9618C6.38764 26.8052 6.43509 26.5998 6.58896 26.5001L14.5382 21.3708L6.19784 26.1856C6.03854 26.2798 5.83451 26.227 5.73758 26.067C5.642 25.9091 5.69148 25.7037 5.84739 25.6054L10.8642 22.4506L5.62234 25.4773C5.46305 25.5694 5.26037 25.5186 5.16343 25.3607C5.06718 25.2041 5.11463 24.9994 5.2685 24.8991L14.6866 18.8092L4.85298 24.4862C4.693 24.5798 4.491 24.5269 4.39475 24.3703C4.29781 24.2137 4.34459 24.009 4.49846 23.9087L14.9259 17.1288L4.06531 23.399C3.90601 23.4911 3.70266 23.4403 3.6064 23.2824C3.51015 23.1244 3.5576 22.9204 3.71215 22.8201L13.4977 16.5215L3.38474 22.3598C3.22409 22.4534 3.01938 22.3991 2.92448 22.2412C2.8289 22.0826 2.87907 21.8772 3.03565 21.7789L8.26665 18.5137L2.92923 21.5952C2.76993 21.6874 2.5659 21.6365 2.47032 21.4786C2.37406 21.3213 2.42151 21.1166 2.57606 21.017L12.7019 14.4947L2.34288 20.4754C2.18359 20.5676 1.98023 20.5167 1.88398 20.3588C1.78772 20.2022 1.83517 19.9968 1.98972 19.8972L12.1684 13.3342L1.82771 19.304C1.66774 19.3983 1.46371 19.3447 1.36745 19.1854C1.27187 19.0275 1.32203 18.8214 1.47794 18.7231L7.12311 15.1901L1.51116 18.4296C1.35186 18.5225 1.14918 18.471 1.05225 18.313C0.955993 18.1564 1.00344 17.9517 1.15732 17.8514L11.0608 11.4511L1.15054 17.1722C0.989208 17.2651 0.785174 17.2115 0.690274 17.0529C0.594697 16.8943 0.644858 16.6882 0.80212 16.5906L3.63419 14.8336L0.979717 16.3662C0.818388 16.4598 0.613676 16.4062 0.518777 16.2462C0.423877 16.0876 0.474716 15.8816 0.632656 15.7839L0.891597 15.6247L0.862449 15.6409C0.701119 15.7345 0.496408 15.6809 0.402186 15.5216C0.306608 15.363 0.357447 15.1569 0.514032 15.0593L2.34288 13.9253L0.772972 14.8316C0.613676 14.9251 0.408964 14.8716 0.312709 14.7129C0.217132 14.555 0.267293 14.3489 0.423199 14.2506L4.13513 11.9236L0.719421 13.8954C0.560125 13.9897 0.356092 13.9368 0.259836 13.7768C0.164259 13.6196 0.213065 13.4135 0.368971 13.3152L4.21986 10.8892L0.727556 12.9058C0.566226 12.9986 0.362192 12.9451 0.267293 12.7865C0.171715 12.6279 0.221876 12.4225 0.379138 12.3242L0.730945 12.1059C0.583173 12.1588 0.410998 12.1025 0.326266 11.9622C0.230688 11.8049 0.278816 11.5996 0.434722 11.5006L3.60844 9.48803L0.942436 11.0268C0.782462 11.121 0.579105 11.0674 0.48285 10.9095C0.387273 10.7522 0.435401 10.5468 0.590629 10.4472L3.26815 8.74036L1.19731 9.9361C1.03801 10.0276 0.837368 9.97677 0.740435 9.82222C0.643502 9.66699 0.686885 9.46363 0.838724 9.36128L6.44526 5.58766L1.79992 8.26925C1.64469 8.36008 1.44337 8.31128 1.34576 8.15944C1.24747 8.0076 1.28611 7.8056 1.4332 7.70053L6.44797 4.11401L3.01938 6.09334C2.86551 6.18349 2.66825 6.13672 2.56861 5.98963C2.46964 5.84186 2.50082 5.64189 2.64114 5.53275L5.2197 3.52427C5.12141 3.51004 5.03125 3.45174 4.9777 3.35888C4.88348 3.19687 4.93906 2.98944 5.10175 2.8959L8.69777 0.820311C8.85096 0.730157 9.04889 0.776929 9.14854 0.924023C9.24751 1.0718 9.21632 1.27176 9.07601 1.3809L6.92314 3.05791L12.1487 0.0502687C12.304 -0.0412416 12.5046 0.00756389 12.6029 0.160081C12.7012 0.31192 12.6625 0.513921 12.5154 0.618988L7.50068 4.20484L14.6256 0.0922957C14.7835 -0.000570377 14.9849 0.0509465 15.0825 0.206175C15.1794 0.361404 15.136 0.56476 14.9842 0.667116L9.37765 4.44073L16.3467 0.416988C16.5066 0.324122 16.7107 0.376994 16.8063 0.534257C16.9018 0.691519 16.8537 0.896909 16.6985 0.996553L14.0237 2.70136L17.3987 0.753204C17.5594 0.660338 17.7627 0.712532 17.8583 0.87115C17.9539 1.02841 17.9057 1.2338 17.7498 1.33277L14.57 3.35006L18.3735 1.15449C18.5334 1.06027 18.7381 1.11382 18.8337 1.2738C18.9293 1.43241 18.8791 1.6378 18.7219 1.73609L18.5239 1.85946L19.1028 1.52528C19.2635 1.43241 19.4668 1.48461 19.5624 1.64323C19.658 1.80184 19.6092 2.00723 19.4533 2.10552L15.5854 4.54241L19.9447 2.02621C20.1047 1.93335 20.3094 1.9869 20.405 2.14484C20.5006 2.30278 20.4504 2.50885 20.2945 2.60713L16.5921 4.92811L20.7012 2.55562C20.8612 2.4614 21.0666 2.51495 21.1615 2.67492C21.2571 2.83354 21.2062 3.03961 21.0496 3.13722L19.2323 4.26381L21.3228 3.05723C21.4828 2.96301 21.6875 3.01656 21.7837 3.17721C21.8786 3.33583 21.8278 3.5419 21.6699 3.63951L21.4055 3.80219L21.8576 3.54122C22.0176 3.447 22.2216 3.50055 22.3179 3.66052C22.4135 3.81914 22.3633 4.02521 22.206 4.12282L19.3685 5.88321L22.4257 4.11807C22.5856 4.02521 22.7876 4.07672 22.8846 4.23466C22.9808 4.39125 22.9334 4.59596 22.7795 4.69628L12.8788 11.0952L23.2574 5.10299C23.4174 5.01013 23.6221 5.063 23.7177 5.22162C23.8132 5.38024 23.7631 5.58563 23.6072 5.68392L17.9525 9.22299L23.7915 5.85202C23.9508 5.75916 24.1542 5.81067 24.2505 5.96861C24.3467 6.1252 24.2993 6.33059 24.1447 6.43023L13.9701 12.9905L24.4409 6.9454C24.6002 6.85186 24.8043 6.90473 24.8998 7.06199C24.9961 7.21926 24.9486 7.42397 24.7941 7.52361L14.6663 14.0473L24.9853 8.0903C25.1452 7.99608 25.3493 8.05031 25.4455 8.20892C25.5411 8.36754 25.4909 8.57293 25.3343 8.67122L20.1061 11.9344L25.3066 8.93219C25.4658 8.84001 25.6692 8.89084 25.7655 9.04878C25.8617 9.20672 25.8143 9.41076 25.6597 9.51108L15.8742 15.8097L25.6834 10.1469C25.8434 10.0547 26.0454 10.1062 26.1417 10.2628C26.2386 10.4194 26.1918 10.6241 26.038 10.7244L15.6146 17.5023L25.9905 11.5114C26.1505 11.4186 26.3525 11.4701 26.4494 11.628C26.5457 11.7846 26.4982 11.9893 26.3443 12.0896L16.9262 18.1802L26.0969 12.8848C26.2569 12.7919 26.4609 12.8441 26.5572 13.0034C26.6528 13.1613 26.6033 13.3667 26.4474 13.465L21.4258 16.6225L26.0563 13.9497C26.2156 13.8575 26.4189 13.9083 26.5152 14.0663C26.6114 14.2228 26.564 14.4282 26.4101 14.5279L18.4663 19.6538L25.9037 15.3603C26.063 15.2674 26.2657 15.3189 26.362 15.4762C26.4582 15.6321 26.4121 15.8368 26.2589 15.9378L18.0949 21.2691L25.5689 16.9539C25.7282 16.8611 25.9322 16.9126 26.0278 17.0705C26.124 17.2271 26.0766 17.4318 25.9227 17.5321L19.8295 21.4684L25.0998 18.4262C25.2598 18.334 25.4631 18.3862 25.5594 18.5435C25.655 18.7008 25.6068 18.9061 25.4523 19.0051L21.7024 21.4013L24.5338 19.767C24.6938 19.6742 24.8978 19.727 24.9934 19.885C25.089 20.0429 25.0402 20.2483 24.8849 20.3473L23.6099 21.1532L23.9007 20.9858C24.0607 20.8929 24.2627 20.9451 24.3589 21.1017C24.4552 21.2583 24.4091 21.4623 24.2559 21.5633L20.3487 24.1161L22.8514 22.6709C23.0093 22.5781 23.2113 22.6289 23.3089 22.7855C23.4058 22.9407 23.3611 23.1448 23.2093 23.2464L19.3536 25.8182L21.3974 24.6388C21.556 24.5472 21.7573 24.5981 21.8542 24.752C21.9512 24.9072 21.9078 25.1105 21.7566 25.2129L19.071 27.0289L19.7644 26.6283C19.9224 26.5354 20.1244 26.5869 20.2213 26.7421C20.3182 26.8974 20.2748 27.1 20.123 27.2024L18.6148 28.2205C18.7049 28.2361 18.7883 28.2883 18.8412 28.3703C18.9395 28.5222 18.9008 28.7235 18.7544 28.8299L17.1004 30.0202C17.1879 30.0419 17.3119 30.0684 17.3797 30.1612C17.4807 30.3029 17.459 30.4981 17.3289 30.6134L15.1015 32.5785L15.2621 32.4856C15.4112 32.3988 15.6031 32.4395 15.7054 32.5791C15.8071 32.7195 15.7874 32.914 15.6593 33.0299L14.81 33.8C14.8662 33.8196 14.9171 33.8542 14.9578 33.903C15.0628 34.0304 15.0608 34.2155 14.9523 34.3409L14.2426 35.1611C14.284 35.178 14.3206 35.2038 14.3524 35.2377C14.4609 35.3509 14.4772 35.5231 14.3931 35.6546L13.9911 36.2802C14.0135 36.3012 14.0332 36.3263 14.0501 36.3548C14.1436 36.5168 14.0881 36.7242 13.9254 36.8184L13.4095 37.1153C13.3567 37.1458 13.2984 37.1601 13.2401 37.1601L13.2353 37.1513Z" fill="#E0BF62"/>
<path d="M13.962 22.9462C13.8508 22.9462 13.7417 22.8913 13.6773 22.7909C13.579 22.6384 13.6176 22.4371 13.764 22.3313L16.4192 20.4252L12.2578 22.8275C12.0985 22.919 11.8972 22.8689 11.8003 22.713C11.7033 22.5571 11.7481 22.3537 11.8999 22.252L13.64 21.0915L11.058 22.5815C10.8981 22.6737 10.6967 22.6228 10.5991 22.4649C10.5029 22.3083 10.5503 22.1036 10.7042 22.0033L11.3854 21.5627L10.149 22.2764C9.98973 22.3686 9.78909 22.3171 9.69216 22.1626C9.59522 22.008 9.63861 21.8047 9.78977 21.7023L14.6947 18.3896L8.94448 21.7091C8.78519 21.8033 8.58115 21.7497 8.4849 21.5911C8.38932 21.4339 8.43813 21.2285 8.59335 21.1295L8.86246 20.958L8.27205 21.299C8.11208 21.3932 7.90804 21.3396 7.81247 21.181C7.71689 21.0224 7.76569 20.8177 7.92092 20.7187L8.32899 20.4611L7.66266 20.8455C7.50336 20.9377 7.30204 20.8862 7.20579 20.7316C7.10885 20.5764 7.15224 20.3737 7.30408 20.2707L14.2067 15.6179L6.69536 19.9541C6.53607 20.0456 6.33407 19.9955 6.23781 19.8396C6.14088 19.6843 6.18562 19.4796 6.33813 19.3779L12.8408 15.0614L5.93684 19.0471C5.77755 19.14 5.57487 19.0878 5.47861 18.9312C5.38236 18.7746 5.42845 18.5706 5.58165 18.4696L10.9503 14.9692L5.37219 18.1897C5.21289 18.2825 5.01022 18.2303 4.91396 18.0737C4.81703 17.9172 4.8638 17.7124 5.01767 17.6121L10.2256 14.2222L4.91464 17.2881C4.75534 17.3803 4.55402 17.3295 4.45709 17.1736C4.36015 17.0183 4.40489 16.815 4.55605 16.7126L11.5013 12.0686L4.48488 16.1195C4.32626 16.213 4.12223 16.1608 4.02597 16.0029C3.92972 15.8463 3.97717 15.6416 4.13104 15.5413L7.98939 13.0481L4.26322 15.1996C4.10393 15.2918 3.90057 15.241 3.80431 15.083C3.70806 14.9251 3.75551 14.7211 3.91006 14.6214L6.90279 12.6936L4.1385 14.2893C3.9792 14.3815 3.77652 14.3306 3.68027 14.1734C3.58401 14.0175 3.6301 13.8127 3.7833 13.7117L7.4471 11.3196L4.10257 13.2501C3.94531 13.343 3.74466 13.2922 3.64637 13.1383C3.54876 12.9844 3.59079 12.7817 3.7406 12.678L9.53218 8.6719L4.2578 11.7168C4.10257 11.809 3.90057 11.7588 3.80228 11.6063C3.70467 11.4531 3.74466 11.2511 3.89311 11.1461L8.52896 7.88423L4.71332 10.0873C4.55944 10.1794 4.3588 10.1306 4.25983 9.97948C4.16154 9.82832 4.19815 9.62632 4.34389 9.52057L7.62063 7.123L5.63927 8.26654C5.48539 8.3567 5.28746 8.30993 5.18917 8.16283C5.08952 8.01574 5.12071 7.81577 5.26102 7.70664L7.07835 6.28518C7.01599 6.25671 6.96176 6.20993 6.92515 6.14622C6.83093 5.98421 6.88652 5.77679 7.0492 5.68324L10.1246 3.90726C10.2785 3.81643 10.4758 3.86388 10.5747 4.01097C10.6744 4.15807 10.6432 4.35804 10.5029 4.46717L9.48473 5.26365L12.7052 3.40497C12.8604 3.31482 13.0597 3.36227 13.1587 3.51275C13.257 3.66391 13.2204 3.86591 13.0746 3.97166L9.79926 6.36855L14.7449 3.51343C14.9008 3.42192 15.1021 3.4714 15.2004 3.62392C15.298 3.77711 15.258 3.97912 15.1096 4.08418L10.471 7.34737L16.3894 3.93031C16.548 3.8388 16.7473 3.88896 16.8456 4.04216C16.9432 4.19603 16.9011 4.39871 16.7513 4.50242L10.9611 8.50718L17.7918 4.5641C17.9511 4.47192 18.1545 4.52343 18.2501 4.68002C18.3463 4.83592 18.3002 5.04063 18.147 5.14164L14.4846 7.53311L18.6737 5.1152C18.8337 5.02301 19.0371 5.07385 19.1326 5.23179C19.2289 5.38905 19.1814 5.59376 19.0269 5.69341L16.0335 7.62123L19.3984 5.67917C19.557 5.58631 19.761 5.63782 19.8573 5.79576C19.9535 5.95235 19.9061 6.15706 19.7522 6.25738L15.8966 8.7485L20.0823 6.33195C20.2402 6.23908 20.4422 6.28992 20.5399 6.4465C20.6368 6.60173 20.5921 6.80509 20.4409 6.90745L13.4929 11.5528L20.8801 7.2884C21.0394 7.19553 21.2421 7.24705 21.3384 7.40431C21.4346 7.56158 21.3885 7.76561 21.2347 7.86593L16.0281 11.2545L21.4339 8.13368C21.5939 8.04082 21.7966 8.09301 21.8922 8.2496C21.9884 8.4055 21.9423 8.61022 21.7891 8.71122L16.4199 12.2123L21.8969 9.05014C22.0555 8.95728 22.2569 9.00812 22.3545 9.1647C22.4514 9.31993 22.4067 9.52464 22.2542 9.62632L15.7542 13.9409L22.3036 10.1598C22.4616 10.0676 22.6629 10.1184 22.7605 10.2737C22.8574 10.4289 22.8141 10.6316 22.6622 10.7346L15.7583 15.3881L22.589 11.445C22.7497 11.3521 22.953 11.4043 23.0486 11.5629C23.1442 11.7216 23.0954 11.9263 22.9401 12.0252L22.5287 12.2855L22.6758 12.2008C22.8364 12.1086 23.0398 12.1608 23.1354 12.3188C23.2309 12.4767 23.1821 12.6814 23.0269 12.7804L22.7239 12.9729C22.8757 12.9031 23.0601 12.9566 23.1516 13.1017C23.2486 13.2562 23.2052 13.4596 23.054 13.5619L18.1484 16.8753L22.5836 14.315C22.7429 14.2215 22.9456 14.2744 23.0425 14.4316C23.1388 14.5882 23.0913 14.7929 22.9374 14.8932L22.2582 15.3325L22.3904 15.2566C22.549 15.1644 22.7503 15.2152 22.848 15.3711C22.9449 15.5264 22.9001 15.7304 22.7483 15.8321L21.0116 16.9899L22.0054 16.4164C22.1606 16.3249 22.3619 16.3744 22.4595 16.5255C22.5578 16.678 22.5192 16.8794 22.3728 16.9851L19.7163 18.8912L21.1343 18.0731C21.2875 17.9829 21.4855 18.0297 21.5851 18.1768C21.6841 18.3245 21.6529 18.5245 21.5119 18.6336L19.7258 20.0246C19.7841 20.0531 19.8349 20.0985 19.8701 20.1595C19.9644 20.3215 19.9088 20.5289 19.7461 20.6225L16.6707 22.3978C16.5168 22.4886 16.3195 22.4412 16.2199 22.2941C16.1209 22.1463 16.1521 21.9463 16.2931 21.8372L17.2197 21.116L14.1301 22.8994C14.0772 22.9306 14.0182 22.9448 13.9606 22.9448L13.962 22.9462Z" fill="white"/>
<path d="M13.5701 20.2477C13.4582 20.2477 13.3491 20.1921 13.2847 20.0918C13.1864 19.9386 13.2264 19.7366 13.3749 19.6322L13.3999 19.6146L12.5174 20.1236C12.3628 20.2158 12.1642 20.1663 12.0646 20.0165C11.9656 19.8654 12.0015 19.664 12.1466 19.5576L15.0526 17.4115L11.0586 19.7169C10.9 19.8091 10.698 19.7583 10.6011 19.603C10.5041 19.4478 10.5489 19.2444 10.7 19.1421L11.6009 18.5374L10.2439 19.3204C10.0846 19.4119 9.88188 19.3617 9.7863 19.2058C9.68937 19.0499 9.73478 18.8459 9.88662 18.7442L10.7692 18.1599L9.54498 18.8662C9.38976 18.9577 9.18843 18.9082 9.09082 18.7564C8.99253 18.6046 9.03117 18.4026 9.17827 18.2975L13.9734 14.8682L8.57701 17.9836C8.41703 18.0758 8.21571 18.0236 8.11878 17.8684C8.02252 17.7125 8.06794 17.5085 8.22046 17.4068L9.70021 16.4334L8.07879 17.3688C7.92152 17.461 7.7202 17.4109 7.62259 17.2563C7.52498 17.1017 7.56768 16.8991 7.71749 16.796L11.668 14.0853L7.5365 16.4707C7.37856 16.5635 7.17792 16.5127 7.08031 16.3581C6.98269 16.2043 7.02472 16.0016 7.17453 15.8979L11.1949 13.1282L7.13318 15.4729C6.97388 15.5657 6.7712 15.5135 6.67495 15.357C6.57869 15.2004 6.62479 14.9963 6.77798 14.8953L7.29722 14.5571L6.95219 14.7557C6.79696 14.8472 6.59564 14.7977 6.49735 14.6459C6.39906 14.4934 6.43905 14.2914 6.58615 14.1863L10.7658 11.2159L6.82136 13.4929C6.66749 13.5844 6.4682 13.5349 6.36856 13.3864C6.26959 13.2359 6.30484 13.0353 6.44922 12.9282L10.5584 9.86091L6.99829 11.9155C6.84441 12.005 6.64783 11.9595 6.54819 11.8125C6.44922 11.6654 6.47905 11.4661 6.61869 11.3563L9.55583 9.0407L7.71139 10.1049C7.55751 10.1944 7.36162 10.1483 7.26197 10.0033C7.16233 9.85684 7.19147 9.65823 7.33043 9.54774L8.65089 8.48825C8.60412 8.45978 8.56277 8.41843 8.53363 8.3676C8.4394 8.20559 8.49499 7.99816 8.65767 7.90462L11.2539 6.40521C11.4064 6.31505 11.603 6.36115 11.7033 6.50688C11.8029 6.6533 11.7738 6.85191 11.6348 6.9624L11.2139 7.30065L13.2854 6.10492C13.4372 6.01409 13.6352 6.06018 13.7355 6.20795C13.8344 6.35505 13.8046 6.55433 13.665 6.66415L10.7299 8.97834L15.2003 6.39707C15.3556 6.30692 15.5542 6.35505 15.6531 6.5035C15.7521 6.65398 15.7168 6.85462 15.5725 6.96173L11.4626 10.0304L16.653 7.03426C16.8082 6.94275 17.0088 6.99223 17.1078 7.14407C17.2061 7.29659 17.1661 7.49859 17.019 7.60365L12.8421 10.572L17.6847 7.77651C17.844 7.68432 18.0466 7.73584 18.1429 7.89242C18.2391 8.049 18.193 8.25304 18.0399 8.35404L17.526 8.6889L18.2114 8.29371C18.3679 8.2022 18.5699 8.25168 18.6675 8.40623C18.7652 8.56011 18.7231 8.76278 18.5733 8.8665L14.5496 11.6389L18.875 9.1417C19.0329 9.04952 19.2342 9.10036 19.3312 9.25423C19.4288 9.40878 19.3861 9.61146 19.2363 9.71449L15.2871 12.4239L19.3847 10.0588C19.5447 9.96598 19.746 10.0182 19.8429 10.1741C19.9392 10.33 19.8938 10.534 19.7413 10.6357L18.2615 11.6091L19.6728 10.795C19.828 10.7028 20.0294 10.7523 20.127 10.9048C20.2253 11.0566 20.1866 11.2586 20.0395 11.3637L15.2444 14.793L19.948 12.0775C20.106 11.9839 20.3093 12.0355 20.4056 12.192C20.5025 12.348 20.4571 12.552 20.3052 12.6537L19.4254 13.2366L19.9975 12.9065C20.1554 12.8136 20.3574 12.8652 20.455 13.0204C20.552 13.1756 20.5072 13.379 20.3561 13.4813L19.4539 14.0873L19.9284 13.8135C20.0836 13.7226 20.2822 13.7715 20.3812 13.9206C20.4801 14.0717 20.4442 14.2731 20.2991 14.3795L17.3932 16.5256L19.5467 15.2824C19.702 15.1902 19.904 15.2404 20.0016 15.3929C20.0999 15.5461 20.0599 15.7481 19.9114 15.8525L19.2288 16.3337C19.3278 16.348 19.4193 16.4063 19.4728 16.4998C19.5671 16.6618 19.5115 16.8692 19.3488 16.9628L13.7395 20.2016C13.6867 20.2328 13.6277 20.247 13.5701 20.247V20.2477Z" fill="#E0BF62"/>
<path d="M14.6102 0.0659439C3.65204 -1.02405 -3.67353 11.6301 1.92825 20.8612C4.63493 26.1227 9.76967 29.777 12.0608 35.2798C0.282425 37.0666 11.0983 41.3425 16.616 39.5842C23.1085 38.2163 18.8943 35.1646 14.6645 35.2568C17.9182 27.6356 26.6266 22.7334 26.7547 13.7484C27.0048 6.9177 21.4335 0.604838 14.6102 0.0672996V0.0659439ZM16.8472 36.2451C23.3701 38.4881 12.942 39.9577 10.8353 39.0636C5.15077 38.0746 8.67697 35.8173 12.2899 35.8675C12.5346 37.6313 14.1025 37.4882 14.4408 35.8804C15.2515 35.936 16.0588 36.0404 16.8472 36.2451ZM22.8109 22.6215C19.8094 27.1788 15.3423 30.7531 13.4003 35.9753C10.6719 28.1135 2.01027 23.5827 1.11686 14.8784C1.04094 -10.4645 36.1633 1.75312 22.8109 22.6215Z" fill="#262626"/>
<path d="M23.3804 13.0251C22.0945 -3.52942 -2.83565 3.6233 4.86342 18.328C9.76024 26.629 23.6129 22.6425 23.3804 13.0251ZM16.5876 21.8284C1.6775 26.0616 -0.05916 1.70022 15.4007 4.21167C23.8488 6.08933 24.7903 18.8974 16.5876 21.8284Z" fill="#262626"/>
<path d="M18.1169 7.69381C7.62375 0.364853 0.0819445 19.0113 13.2127 20.2382C19.7052 20.5053 23.3825 11.8226 18.1169 7.69381ZM19.6184 14.1443C18.9405 20.5697 9.6607 21.4827 7.55936 15.4525C4.28396 5.07594 20.4488 3.42062 19.6184 14.1443Z" fill="#262626"/>
</svg>
