<svg width="41" height="40" viewBox="0 0 41 40" fill="none" xmlns="http://www.w3.org/2000/svg">
<path d="M24.9571 11.3327C24.8737 11.3327 24.7916 11.3022 24.7272 11.2425C24.618 11.1421 24.5869 10.9821 24.6506 10.8485L24.9388 10.241L23.721 10.9435C23.5786 11.0269 23.3962 10.9937 23.2897 10.8662C23.1846 10.7387 23.1867 10.5536 23.2952 10.4282L24.1353 9.45514L23.1921 9.99962C23.0456 10.0857 22.8565 10.0478 22.7527 9.91147C22.6496 9.77518 22.6632 9.58397 22.7859 9.46395L23.5447 8.7208L23.1921 8.92422C23.0443 9.01101 22.8544 8.97168 22.7514 8.83336C22.649 8.69571 22.6646 8.50315 22.79 8.38516L23.3881 7.81695L23.1928 7.92951C23.0511 8.01291 22.868 7.97969 22.7629 7.85357C22.6571 7.72677 22.6578 7.54302 22.7642 7.4169L24.0485 5.90212L23.1928 6.39642C23.0517 6.47915 22.87 6.44728 22.7642 6.32251C22.6585 6.19775 22.6571 6.014 22.7615 5.8872L23.7284 4.7162L23.0199 5.12506C22.8748 5.2105 22.6863 5.17321 22.5818 5.03895C22.4774 4.9047 22.4896 4.71416 22.609 4.59347L22.809 4.39073L22.6713 4.47006C22.5371 4.54872 22.3662 4.52498 22.2584 4.41243C22.1506 4.30055 22.1316 4.12968 22.2143 3.99813L22.9649 2.78916L21.5898 3.58316C21.4495 3.66521 21.2684 3.63469 21.1627 3.51061C21.0569 3.38653 21.0542 3.20413 21.1566 3.07665L21.7166 2.383L19.9856 3.38246C19.8228 3.47671 19.6153 3.42043 19.5224 3.25837C19.4282 3.09632 19.4838 2.88883 19.6465 2.79526L22.9561 0.884494C23.0958 0.801771 23.2769 0.832962 23.3833 0.957046C23.4891 1.08181 23.4918 1.26353 23.3894 1.391L22.8293 2.08466L23.7976 1.52594C23.9312 1.4466 24.102 1.47101 24.2105 1.58357C24.3183 1.69545 24.3373 1.86632 24.2546 1.99786L23.5033 3.20752L24.6526 2.5437C24.7984 2.45827 24.9869 2.49556 25.0907 2.62981C25.1944 2.76407 25.1829 2.9546 25.0635 3.0753L24.8635 3.27736L25.0161 3.18989C25.1557 3.10649 25.3381 3.13903 25.4446 3.2638C25.5504 3.38924 25.5517 3.57231 25.4473 3.69911L24.4811 4.87012L25.3992 4.33987C25.5409 4.25715 25.7233 4.28902 25.8291 4.41582C25.9348 4.54261 25.9342 4.72637 25.8277 4.85249L24.5421 6.36862L25.5266 5.80041C25.6745 5.7143 25.8643 5.75295 25.9674 5.89127C26.0698 6.02891 26.0542 6.22148 25.9287 6.33947L25.3327 6.90564L25.5307 6.79173C25.6765 6.70494 25.8664 6.74359 25.9701 6.87988C26.0732 7.01617 26.0596 7.20738 25.9369 7.32739L25.1781 8.07055L25.5348 7.86442C25.6765 7.78102 25.8596 7.81356 25.966 7.94171C26.0711 8.06919 26.0691 8.2543 25.9606 8.37974L25.1198 9.35343L25.5409 9.11069C25.6697 9.03678 25.8311 9.05441 25.9403 9.15476C26.0494 9.25511 26.0806 9.41513 26.0169 9.54871L25.6996 10.2159C25.8141 10.2159 25.943 10.2722 26.0087 10.3854C26.103 10.5475 26.0474 10.755 25.8847 10.8485L25.1252 11.2866C25.0723 11.3171 25.014 11.332 24.9557 11.332L24.9571 11.3327Z" fill="#E9EFFF"/>
<path d="M16.0153 11.2452C15.9197 11.2452 15.8255 11.2046 15.759 11.1279C15.6526 11.0052 15.6485 10.8249 15.7482 10.6967L16.2167 10.1L15.0559 10.7699C14.9087 10.8574 14.7148 10.8167 14.6131 10.6764C14.5107 10.5367 14.5304 10.3428 14.6579 10.2261L15.0254 9.89117C14.8823 9.95626 14.7067 9.91219 14.6124 9.78132C14.5107 9.64097 14.5311 9.44636 14.6592 9.33042L14.9847 9.03614C14.8525 9.07682 14.7053 9.03207 14.6172 8.91816C14.5134 8.78322 14.5256 8.59269 14.6463 8.472L15.5034 7.61357L15.0559 7.87191C14.9067 7.96006 14.7128 7.91802 14.6111 7.77631C14.51 7.63459 14.5317 7.43864 14.6626 7.32404L14.9318 7.08605C14.8084 7.10842 14.6789 7.05011 14.605 6.93891C14.506 6.79041 14.5378 6.59039 14.6789 6.4819L18.3085 3.68084L15.0816 5.54347C14.9291 5.63297 14.7338 5.58822 14.6334 5.44379C14.5338 5.29869 14.5609 5.10069 14.6965 4.98881L17.4433 2.72343L15.5468 3.81781C15.3956 3.90731 15.2017 3.86324 15.1006 3.72017C14.9996 3.5771 15.024 3.38046 15.1569 3.26655L16.3862 2.21488C16.3211 2.18708 16.2649 2.13894 16.2276 2.07317C16.1333 1.91111 16.1889 1.70363 16.3516 1.61006L18.6645 0.274282C18.8143 0.186135 19.009 0.228174 19.1107 0.371922C19.2117 0.514992 19.1873 0.711629 19.0544 0.825543L18.3912 1.3924L20.6309 0.100021C20.7821 0.0111957 20.978 0.0552695 21.0791 0.199696C21.1787 0.3448 21.1516 0.542793 21.016 0.654672L18.2699 2.91938L22.3558 0.560422C22.5098 0.469563 22.7078 0.517027 22.8068 0.664843C22.9057 0.81266 22.8739 1.01336 22.7328 1.12185L17.8359 4.90067C17.8603 4.91965 17.882 4.94271 17.9017 4.96915C18.0027 5.11087 17.981 5.30682 17.8502 5.42142L17.5389 5.69535C17.6494 5.68654 17.7573 5.73603 17.8278 5.82689C17.9315 5.96183 17.9193 6.15236 17.7986 6.27306L16.9416 7.13148L17.3925 6.8711C17.5423 6.78431 17.7349 6.82432 17.8359 6.96535C17.9376 7.10571 17.9173 7.30031 17.7891 7.41626L17.4643 7.70986C17.5999 7.66714 17.7518 7.71461 17.8386 7.83394C17.941 7.97362 17.9213 8.16755 17.7939 8.28417L17.4291 8.6171C17.5613 8.55472 17.7261 8.58862 17.8251 8.70389C17.9315 8.82662 17.9356 9.00698 17.8359 9.13514L17.3667 9.7325L17.4033 9.71216C17.5647 9.61656 17.7729 9.67284 17.8664 9.83625C17.9607 9.9983 17.9051 10.2058 17.7423 10.2994L16.1855 11.1978C16.1326 11.229 16.0743 11.2432 16.016 11.2432L16.0153 11.2452Z" fill="#E9EFFF"/>
<path d="M20.5438 26.4274C20.4319 26.4274 20.3228 26.3718 20.2577 26.2708C20.16 26.1176 20.2007 25.9155 20.3492 25.8111L22.0044 24.6489L19.1599 26.2911C19.0006 26.3834 18.7985 26.3332 18.7015 26.1759C18.6053 26.0206 18.6507 25.8158 18.8033 25.7148L19.1918 25.4578L18.1225 26.0748C17.9645 26.1677 17.7638 26.1169 17.6662 25.9623C17.5685 25.8077 17.6112 25.6049 17.7618 25.5012L21.4755 22.9639L16.8721 25.6212C16.7128 25.7141 16.5101 25.6626 16.4138 25.5053C16.3175 25.348 16.3636 25.1439 16.5175 25.0435L18.2873 23.8908L16.0314 25.1934C15.8754 25.2863 15.674 25.2347 15.575 25.0815C15.4774 24.9276 15.5194 24.7248 15.6693 24.6211L21.925 20.2951L14.8637 24.3716C14.7064 24.4638 14.505 24.4136 14.4074 24.259C14.3098 24.1051 14.3518 23.9023 14.5023 23.7986L21.3161 19.1173L13.8711 23.4155C13.7131 23.5084 13.5124 23.4575 13.4147 23.3023C13.3171 23.1477 13.3598 22.9449 13.5103 22.8419L20.4835 18.0839L13.075 22.3604C12.9157 22.4533 12.7129 22.4018 12.616 22.2445C12.5197 22.0879 12.5665 21.8831 12.7204 21.7827L16.6647 19.2197L12.6106 21.5597C12.4512 21.6519 12.2498 21.6003 12.1529 21.4457C12.0559 21.2905 12.1007 21.0864 12.2519 20.984L18.2269 16.9862L12.1556 20.4917C11.9976 20.5839 11.7962 20.5338 11.6986 20.3785C11.6016 20.2232 11.645 20.0205 11.7962 19.9174L18.0235 15.7019L11.8308 19.2766C11.6714 19.3702 11.4673 19.3173 11.3711 19.1587C11.2755 19.0013 11.3236 18.7959 11.4796 18.6969L11.7033 18.5545C11.5474 18.6311 11.3582 18.5796 11.2653 18.4291C11.1683 18.2738 11.2131 18.0697 11.365 17.968L15.575 15.1615L11.6728 17.414C11.5148 17.5055 11.3148 17.456 11.2171 17.3028C11.1195 17.1496 11.1602 16.9468 11.3094 16.8424L16.4246 13.2799L11.826 15.9345C11.6687 16.0274 11.4667 15.9765 11.369 15.8213C11.2721 15.6667 11.3148 15.4639 11.466 15.3609L14.1403 13.5403L12.1596 14.6842C12.0037 14.775 11.803 14.7269 11.7047 14.5743C11.607 14.4217 11.6457 14.2204 11.7935 14.1146L14.2684 12.351L12.8621 13.1626C12.7096 13.2514 12.5143 13.2073 12.4139 13.0622C12.3136 12.9171 12.3414 12.7185 12.4783 12.6073L14.4277 11.0138C14.3369 10.9942 14.2548 10.9386 14.2053 10.8518C14.1111 10.6897 14.1667 10.4822 14.3294 10.3887L17.2946 8.67656C17.4465 8.58706 17.6424 8.63249 17.7428 8.77692C17.8431 8.9227 17.8153 9.12069 17.6784 9.23189L16.1487 10.4829L20.0827 8.21142C20.238 8.11988 20.4387 8.1687 20.5377 8.32126C20.6354 8.47382 20.5967 8.67521 20.4489 8.78098L17.976 10.5433L21.7501 8.36398C21.9094 8.27244 22.1095 8.32194 22.2071 8.47721C22.3041 8.63181 22.2613 8.83455 22.1101 8.93761L19.4332 10.7596L23.0086 8.69555C23.1666 8.60401 23.3666 8.65351 23.4642 8.80675C23.5619 8.95999 23.5212 9.16273 23.372 9.26715L18.2581 12.829L24.3633 9.30444C24.522 9.21087 24.7234 9.26308 24.821 9.41904C24.918 9.57431 24.8732 9.77841 24.7213 9.88011L20.5065 12.69L25.316 9.91334C25.4767 9.82045 25.6801 9.87266 25.7757 10.0313C25.8713 10.1886 25.8232 10.3941 25.6672 10.4931L25.4679 10.6199L25.8957 10.3737C26.0544 10.2822 26.2551 10.3317 26.3527 10.487C26.4497 10.6423 26.4063 10.845 26.2551 10.9481L20.0299 15.1622L26.7806 11.2647C26.9386 11.1711 27.1406 11.2233 27.2383 11.3786C27.3352 11.5339 27.2905 11.738 27.1393 11.8404L21.1595 15.8402L27.4797 12.1916C27.6383 12.0987 27.8418 12.1509 27.9387 12.3076C28.035 12.4642 27.9882 12.669 27.8343 12.7693L23.8839 15.3364L27.9469 12.991C28.1055 12.8988 28.3062 12.9497 28.4032 13.1043C28.5008 13.2589 28.4581 13.4616 28.3076 13.5647L21.3344 18.3233L28.4608 14.2095C28.6195 14.1187 28.8202 14.1681 28.9172 14.3221C29.0148 14.476 28.9728 14.6787 28.8222 14.7825L22.0125 19.4604L28.7917 15.5473C28.9511 15.4558 29.1497 15.506 29.248 15.6592C29.3457 15.8131 29.3036 16.0159 29.1538 16.1196L22.898 20.4463L28.9158 16.9719C29.0758 16.8797 29.2779 16.9312 29.3742 17.0879C29.4705 17.2445 29.4243 17.4493 29.2704 17.5496L27.5007 18.7023L28.867 17.9137C29.0256 17.8222 29.2264 17.8717 29.3233 18.0263C29.421 18.1809 29.3782 18.3836 29.2277 18.4874L25.5126 21.0267L28.6337 19.2251C28.7917 19.1322 28.9945 19.1831 29.0921 19.3404C29.1884 19.4956 29.143 19.7004 28.9904 19.8014L28.3991 20.192C28.5334 20.1595 28.6819 20.2157 28.7619 20.3405C28.8595 20.4937 28.8188 20.6958 28.6703 20.8002L27.0152 21.9624L27.6119 21.618C27.7658 21.5271 27.9645 21.5746 28.0642 21.7237C28.1632 21.8729 28.1293 22.0736 27.9862 22.1814L26.504 23.305C26.5806 23.3301 26.6497 23.3823 26.6925 23.4582C26.7867 23.6203 26.7311 23.8278 26.5684 23.9213L22.875 26.0538C22.7204 26.1433 22.5217 26.0965 22.4227 25.948C22.3237 25.7989 22.3576 25.5982 22.5007 25.4904L23.2655 24.9106L20.714 26.3834C20.6605 26.4145 20.6021 26.4288 20.5445 26.4288L20.5438 26.4274Z" fill="#EFBC48"/>
<path d="M19.4652 20.0422C19.3648 20.0422 19.2658 19.9981 19.1994 19.914C19.0949 19.7832 19.1024 19.5947 19.217 19.4719L20.2185 18.402L19.1295 19.0305C18.9817 19.118 18.7905 19.078 18.6874 18.9383C18.585 18.7993 18.6033 18.606 18.7295 18.4887L19.8428 17.4567L19.1187 17.8744C18.9729 17.9605 18.7851 17.9232 18.6806 17.7876C18.5776 17.6534 18.5891 17.4628 18.7091 17.3421L19.815 16.2274L18.5755 16.9428C18.427 17.0309 18.2338 16.9896 18.1321 16.8485C18.0304 16.7082 18.0507 16.5129 18.1796 16.3969L18.5511 16.0633L18.4542 16.1189C18.3097 16.2037 18.1233 16.1678 18.0182 16.0355C17.9144 15.904 17.9219 15.7148 18.0378 15.5928L18.5389 15.0632C18.4732 15.0354 18.4155 14.9873 18.3775 14.9201C18.2833 14.7581 18.3389 14.5506 18.5016 14.457L19.891 13.6549C20.0354 13.5694 20.2219 13.6054 20.327 13.7383C20.4307 13.8698 20.4232 14.059 20.3073 14.181L20.129 14.3689L21.0206 13.8542C21.1705 13.7674 21.363 13.8074 21.4641 13.9485C21.5658 14.0895 21.5454 14.2841 21.4166 14.4001L21.0464 14.7323L21.6722 14.3716C21.8187 14.2861 22.0065 14.3234 22.1103 14.4577C22.2133 14.5926 22.2018 14.7825 22.0818 14.9039L20.9752 16.0193L22.113 15.3629C22.2621 15.2768 22.452 15.3168 22.5551 15.4551C22.6574 15.5941 22.6391 15.7874 22.513 15.9047L21.401 16.936L21.8539 16.6743C21.9984 16.5895 22.1842 16.6241 22.2893 16.757C22.3937 16.8878 22.3862 17.0763 22.2716 17.1991L21.2701 18.2697L21.4559 18.1626C21.6173 18.0677 21.8255 18.1239 21.919 18.2867C22.0133 18.4487 21.9577 18.6562 21.795 18.7498L19.6347 19.9967C19.5818 20.0279 19.5235 20.0422 19.4652 20.0422Z" fill="#D1A243"/>
<path d="M13.6052 39.9967C13.4899 39.9967 13.378 39.9377 13.3143 39.8319C13.2187 39.674 13.2689 39.4678 13.4255 39.3695L13.4974 39.3254L12.4125 39.9513C12.2531 40.0428 12.0511 39.992 11.9541 39.836C11.8578 39.6807 11.9033 39.476 12.0558 39.3749L18.9395 34.834L10.0752 39.9513C9.91587 40.0428 9.71313 39.9933 9.61752 39.836C9.52056 39.6807 9.56599 39.4766 9.71788 39.3749L16.788 34.6963L7.68574 39.9513C7.52639 40.0448 7.32162 39.9926 7.22601 39.8333C7.13041 39.6753 7.17923 39.4699 7.33518 39.3709L9.95384 37.7178L6.08484 39.9513C5.92482 40.0428 5.7248 39.992 5.62783 39.8374C5.53087 39.6821 5.57427 39.4787 5.72615 39.3763L13.6045 34.0752L3.42618 39.9513C3.26684 40.0442 3.0641 39.992 2.96781 39.8353C2.87153 39.6787 2.91764 39.4746 3.07088 39.3736L9.20662 35.3717L1.78325 39.657C1.62323 39.7492 1.42252 39.6984 1.32556 39.5424C1.2286 39.3871 1.27335 39.1837 1.42456 39.0813L8.56653 34.3085L0.963477 38.6975C0.804134 38.7904 0.601395 38.7382 0.50511 38.5816C0.408826 38.425 0.454934 38.2202 0.608853 38.1198L4.71178 35.4469L0.813627 37.6974C0.656317 37.7896 0.454934 37.7395 0.357294 37.5849C0.259654 37.4309 0.301693 37.2282 0.452222 37.1245L5.77768 33.4657L0.813627 36.3318C0.656317 36.424 0.454934 36.3738 0.357294 36.2192C0.259654 36.0646 0.302371 35.8619 0.4529 35.7582L3.6296 33.5863L0.814305 35.211C0.656995 35.3039 0.45629 35.253 0.357972 35.0991C0.260332 34.9452 0.302371 34.7424 0.452222 34.6387L2.37248 33.3111L0.814305 34.2102C0.660386 34.299 0.463071 34.2542 0.364753 34.1078C0.265078 33.9606 0.294913 33.762 0.434593 33.6514L3.22209 31.4376L0.814305 32.8276C0.667166 32.9144 0.475276 32.8751 0.371533 32.7347C0.269825 32.595 0.28881 32.4011 0.415607 32.2845L2.15482 30.6897L0.813627 31.464C0.674625 31.5461 0.495618 31.5156 0.388485 31.3935C0.28203 31.2708 0.276605 31.0911 0.375601 30.9629L1.12485 29.9947C0.984497 30.0327 0.823797 29.9716 0.745821 29.836C0.651571 29.674 0.707172 29.4665 0.869905 29.3729L2.25992 28.5701C2.3996 28.4887 2.57861 28.5192 2.68506 28.6406C2.79152 28.7633 2.79694 28.943 2.69795 29.0712L1.96768 30.015L4.49616 28.5558C4.64465 28.4691 4.83654 28.5091 4.93893 28.6487C5.04064 28.7884 5.02165 28.9823 4.89485 29.099L3.15564 30.6931L6.85783 28.5565C7.01107 28.4663 7.20771 28.5124 7.30738 28.6589C7.40706 28.8054 7.37722 29.0047 7.23754 29.1152L4.45005 31.3291L9.25273 28.5565C9.41139 28.465 9.61074 28.5152 9.70906 28.6684C9.8067 28.8223 9.76466 29.0251 9.61481 29.1288L7.69523 30.4558L10.9858 28.5565C11.1445 28.465 11.3452 28.5152 11.4422 28.6691C11.5398 28.8237 11.4971 29.0264 11.3466 29.1302L8.17191 31.3013L12.9258 28.5565C13.0838 28.465 13.2851 28.5152 13.3821 28.6691C13.4797 28.823 13.4377 29.0257 13.2872 29.1295L7.96035 32.789L15.2922 28.5565C15.4515 28.4636 15.6549 28.5152 15.7506 28.6725C15.8468 28.8291 15.8007 29.0339 15.6468 29.1342L11.5385 31.8105L17.1745 28.5565C17.3325 28.4636 17.5345 28.5145 17.6322 28.6711C17.7291 28.8264 17.6844 29.0298 17.5325 29.1322L10.3932 33.9037L19.6555 28.5565C19.8148 28.4636 20.0176 28.5152 20.1139 28.6725C20.2101 28.8284 20.164 29.0332 20.0108 29.1342L13.8784 33.1341L21.807 28.5565C21.9656 28.4636 22.167 28.5152 22.264 28.6704C22.3609 28.8257 22.3175 29.0291 22.1657 29.1315L14.2873 34.4326L24.4656 28.5565C24.6256 28.4636 24.8297 28.5165 24.9253 28.6745C25.021 28.8325 24.9721 29.0379 24.8162 29.1369L22.1975 30.79L26.0665 28.5565C26.2252 28.4636 26.4272 28.5145 26.5242 28.6718C26.6212 28.8271 26.5757 29.0312 26.4239 29.1329L19.3538 33.8115L28.456 28.5565C28.614 28.4636 28.8167 28.5152 28.9144 28.6718C29.0106 28.8271 28.9652 29.0318 28.8126 29.1329L21.929 33.6738L30.7933 28.5565C30.954 28.4623 31.1574 28.5158 31.2537 28.6759C31.3493 28.8338 31.2991 29.04 31.1425 29.1383L31.0624 29.1878L32.1555 28.5565C32.3155 28.4623 32.5196 28.5165 32.6159 28.6752C32.7115 28.8338 32.6613 29.0393 32.5047 29.1376L31.6571 29.6672L33.5814 28.5565C33.7394 28.4636 33.9428 28.5145 34.0391 28.6711C34.1361 28.8264 34.0913 29.0312 33.9388 29.1329L26.7351 33.9118L36.0109 28.5572C36.1702 28.4643 36.3743 28.5158 36.47 28.6738C36.5662 28.8311 36.5188 29.0359 36.3642 29.1363L31.415 32.3197L37.9142 28.568C38.0736 28.4752 38.2763 28.5274 38.3726 28.684C38.4695 28.8406 38.4228 29.0454 38.2688 29.1458L32.3941 32.9659L39.109 29.0895C39.2696 28.9966 39.4731 29.0488 39.5687 29.2075C39.6643 29.3648 39.6155 29.5702 39.4602 29.6692L37.0633 31.1894L39.5809 29.7357C39.7402 29.6421 39.9436 29.695 40.0392 29.8516C40.1355 30.0076 40.0894 30.2123 39.9362 30.3134L35.6088 33.1361L39.7653 30.7365C39.926 30.6443 40.1294 30.6965 40.225 30.8545C40.3206 31.0124 40.2725 31.2172 40.1172 31.3162L39.8446 31.4898C39.9836 31.4498 40.1389 31.5047 40.221 31.6335C40.3193 31.7868 40.2793 31.9888 40.1308 32.0933L35.1206 35.6259L39.766 32.9449C39.9213 32.854 40.1199 32.9022 40.2189 33.052C40.3179 33.2019 40.282 33.4033 40.1382 33.5104L36.1696 36.4667L39.766 34.3905C39.9179 34.3017 40.1132 34.3451 40.2135 34.4895C40.3139 34.6333 40.2874 34.8306 40.1532 34.9438L37.2023 37.412L39.7653 35.9324C39.9152 35.845 40.1091 35.8863 40.2108 36.0287C40.3118 36.1711 40.2888 36.3664 40.1579 36.4817L38.8479 37.6249L39.7653 37.096C39.9131 37.0092 40.1043 37.0485 40.2074 37.1882C40.3098 37.3265 40.2915 37.5198 40.1654 37.6377L39.7945 37.9829C39.9219 37.9713 40.042 38.0371 40.1077 38.1517C40.202 38.3138 40.1464 38.5213 39.9836 38.6148L37.664 39.954C37.5162 40.0408 37.325 40.0015 37.2219 39.8618C37.1195 39.7234 37.1378 39.5302 37.264 39.4122L37.5169 39.1769L36.1709 39.954C36.0204 40.0421 35.8272 40.0001 35.7254 39.8577C35.6244 39.7153 35.6475 39.52 35.7783 39.4048L37.0877 38.2622L34.1578 39.9533C34.0059 40.0428 33.8106 39.9981 33.7103 39.8543C33.6099 39.7106 33.6363 39.5133 33.7706 39.4L36.7222 36.9312L31.4862 39.9533C31.3316 40.0455 31.1323 39.996 31.0333 39.8462C30.9343 39.6963 30.9702 39.4949 31.114 39.3878L35.082 36.4322L28.9822 39.9533C28.8249 40.0448 28.6248 39.9953 28.5272 39.8428C28.4289 39.6895 28.4689 39.4875 28.6174 39.3831L33.6262 35.8511L26.5208 39.9533C26.3608 40.0469 26.1567 39.9947 26.0611 39.8353C25.9655 39.678 26.0136 39.4726 26.1689 39.3736L26.2286 39.3356L25.1593 39.9526C24.9999 40.0455 24.7965 39.9933 24.7009 39.8367C24.6046 39.6807 24.6507 39.476 24.804 39.3749L29.1347 36.5501L23.2417 39.9526C23.0817 40.0462 22.8776 39.994 22.782 39.8346C22.6864 39.6773 22.7352 39.4719 22.8905 39.3729L25.2847 37.8547L21.651 39.9526C21.491 40.0455 21.2889 39.9933 21.1926 39.8367C21.0957 39.6801 21.1425 39.4753 21.2964 39.3749L27.1704 35.5547L19.5538 39.952C19.3944 40.0448 19.191 39.9933 19.0947 39.8353C18.9984 39.6773 19.0459 39.4732 19.2005 39.3729L24.151 36.1887L17.6322 39.952C17.4728 40.0435 17.2708 39.9926 17.1745 39.8374C17.0775 39.6821 17.1223 39.4773 17.2748 39.3756L24.4812 34.5953L15.202 39.9513C15.0413 40.0442 14.8365 39.9906 14.7416 39.8326C14.646 39.674 14.6962 39.4685 14.8528 39.3702L15.7004 38.8406L13.776 39.9513C13.7225 39.9825 13.6642 39.9967 13.6065 39.9967H13.6052Z" fill="#FF9F9F"/>
<path d="M40.4413 30.7534C40.1945 27.835 36.7242 28.7443 34.7096 28.5992C26.4862 28.5992 18.2634 28.5992 10.0399 28.5992C6.93302 29.1328 0.602 26.7657 0.131428 31.3236C0.62302 34.0101 -1.50744 39.6332 2.53853 39.9078C14.1245 39.9099 25.7098 39.9058 37.2958 39.9078C42.1439 40.0665 40.0683 33.8189 40.4413 30.7534ZM39.4588 37.0702C39.4588 38.0127 39.3957 39.3796 38.1203 39.4481C26.3865 39.4088 14.6398 39.5071 2.9135 39.4481C0.88136 39.3132 1.11393 37.1983 1.11393 35.7541C1.39872 33.5822 -0.166917 28.8107 3.30948 29.0589C14.6758 29.0657 26.0427 29.0487 37.409 29.0589C40.9566 29.5492 38.9624 34.6027 39.4588 37.0702Z" fill="#262626"/>
<path d="M18.4384 18.7802C18.936 21.7169 22.9827 20.1167 22.1446 17.498C25.52 12.2573 15.0209 12.536 18.4343 17.618C18.4316 18.0052 18.42 18.3944 18.4384 18.7802ZM19.5029 14.4678C21.4089 13.528 22.5684 16.3026 21.1479 17.498C21.0326 18.1483 21.3804 18.968 20.819 19.482C19.389 20.2218 19.391 18.172 19.4046 17.2831C18.5665 16.5657 18.5001 15.0862 19.5029 14.4678Z" fill="#262626"/>
<path d="M13.1557 11.5814C7.39969 17.9314 14.0121 28.3118 22.1983 26.0973C29.5206 24.8001 32.2207 14.7208 26.2076 10.226C28.4683 -3.67148 12.0756 -3.20566 14.3735 10.4172C13.9355 10.7671 13.5246 11.1529 13.1564 11.5807L13.1557 11.5814ZM15.4096 4.97443C18.2059 -3.53926 26.9399 1.48989 25.2197 9.53911C24.6813 9.21636 24.103 8.95191 23.4927 8.74714C24.9085 0.496537 15.691 0.933206 17.0857 8.88818C16.4836 9.1099 15.9059 9.39197 15.3587 9.72558C15.3919 8.14367 15.2855 6.55091 15.4096 4.97443ZM18.0682 8.58712C16.9352 1.61126 23.4608 1.60245 22.5102 8.47388C21.0449 8.16198 19.5159 8.21554 18.0682 8.58712ZM14.958 10.6437C15.1621 10.5915 15.3404 10.4762 15.3533 10.3229C17.3983 8.81291 20.0549 8.29352 22.538 9.1038C30.1072 11.2193 30.6469 22.9206 23.0696 25.4714C14.4928 28.5145 7.93671 16.26 14.958 10.6437Z" fill="#262626"/>
<path d="M7.27953 34.1627C10.1714 31.7271 9.23437 30.9656 6.81777 33.7009C6.1865 33.2046 4.79513 31.0517 4.23438 32.4051C4.88124 33.0513 5.52743 33.6982 6.17362 34.3444C3.2817 36.78 4.21878 37.5414 6.63538 34.8061C7.26665 35.3025 8.65802 37.4553 9.21877 36.1019C8.57191 35.4557 7.92572 34.8088 7.27953 34.1627Z" fill="#262626"/>
<path d="M15.9546 32.3578C15.9899 30.7895 13.9957 33.2888 13.555 33.6631C12.8972 33.1539 11.7147 31.1767 11.0156 32.3924C11.651 33.0278 12.2856 33.6624 12.9203 34.2971C9.9287 36.789 11.0021 37.7064 13.4675 34.8443C14.1252 35.3535 15.3077 37.3307 16.0068 36.115C15.3715 35.4796 14.7368 34.845 14.1021 34.2103C14.7199 33.5926 15.3376 32.9756 15.9546 32.3578Z" fill="#262626"/>
<path d="M20.8102 34.1242C23.6533 31.6838 22.8321 31.1156 20.4149 33.7288C19.7849 33.2549 18.2559 30.8905 17.7969 32.4188L19.7605 34.3825C16.9174 36.8228 17.7379 37.391 20.1558 34.7778C20.7858 35.2518 22.3148 37.6161 22.7738 36.0878C22.1188 35.4328 21.4645 34.7785 20.8102 34.1242Z" fill="#262626"/>
<path d="M29.5544 32.1991C28.9536 31.3699 27.7786 33.2962 27.1771 33.718C26.5296 33.2189 25.1857 31.0756 24.5781 32.4012C25.2311 33.0542 25.8834 33.7065 26.5364 34.3588C23.6648 36.7977 24.5402 37.4704 26.9656 34.788C27.6131 35.287 28.957 37.4304 29.5646 36.1048C28.9116 35.4518 28.2593 34.7995 27.607 34.1465L29.5551 32.1985L29.5544 32.1991Z" fill="#262626"/>
<path d="M36.3307 32.1985C35.734 31.3753 34.5657 33.2827 33.969 33.7037C31.4351 30.6532 30.1773 31.8425 33.2978 34.375C30.4458 36.7957 31.3192 37.4636 33.7263 34.8036C36.2602 37.8541 37.518 36.6648 34.3976 34.1323C35.0424 33.4881 35.6859 32.8433 36.3307 32.1985Z" fill="#262626"/>
</svg>
