<svg width="1920" height="52" viewBox="0 0 1920 52" fill="none" xmlns="http://www.w3.org/2000/svg">
<path d="M1920 27.1666V45.7866C1919.88 45.6965 1919.74 45.6166 1919.57 45.5665C1919.46 45.5365 1919.34 45.5166 1919.24 45.5466C1919.1 45.5766 1919.03 45.6666 1918.97 45.7565C1918.59 46.2665 1918.22 46.7766 1917.85 47.2866C1917.71 47.4765 1917.55 47.6866 1917.26 47.7465C1916.82 47.8366 1916.41 47.5165 1916.16 47.2465C1915.68 46.7465 1915.22 46.2466 1914.74 45.7366C1914.59 45.5767 1914.43 45.4065 1914.17 45.3367C1913.34 45.1367 1912.87 46.1468 1912.01 46.2766C1911.6 46.0066 1911.57 45.5666 1911.44 45.1765C1911.32 44.7866 1910.96 44.3466 1910.41 44.3666C1910.2 44.3766 1910 44.4568 1909.79 44.4368C1909.6 44.4168 1909.44 44.2067 1909.6 44.1166C1908.69 43.1166 1907.76 42.4464 1906.85 41.4567C1906.27 40.8166 1905.28 40.0967 1904.34 40.4368C1903.76 40.6565 1903.53 41.2266 1902.92 41.4265C1901.92 41.7466 1901.05 40.8766 1900.23 40.3466C1899.11 39.6466 1896.87 39.7966 1896.63 40.8466C1895.38 39.9865 1893.55 39.7265 1891.83 39.5566C1890.46 39.4265 1889.02 39.3166 1887.68 39.6066C1886.35 39.9064 1885.13 40.6668 1884.93 41.6765C1883.23 41.1565 1881.52 40.6266 1879.82 40.1066C1879.39 39.9765 1878.92 39.8367 1878.45 39.8767C1877.1 40.0066 1876.55 41.4966 1875.19 41.5266C1875.29 40.6367 1873.77 40.1166 1872.54 40.1564C1871.3 40.1964 1870.03 40.5166 1868.88 40.1965C1867.02 39.6867 1866.67 37.9166 1866.64 36.4664C1865.18 36.6666 1863.83 37.2665 1862.94 38.1367C1862.64 37.2966 1862.68 36.4064 1863.06 35.5966C1862.23 35.8866 1861.25 35.3366 1860.95 34.7067C1860.65 34.0866 1860.74 33.3866 1860.52 32.7465C1860.08 31.5465 1858.47 30.6467 1856.78 30.6467C1856.14 32.3366 1855.84 34.1066 1855.93 35.8666C1853.45 36.0165 1850.97 36.0566 1848.49 35.9866C1847.96 37.0767 1847.01 38.3767 1845.42 38.2766C1844.8 38.2266 1844.24 37.9464 1843.63 37.8466C1841.78 37.5566 1840.27 38.9065 1839.43 40.1367C1839.19 40.4966 1838.88 40.8966 1838.34 40.9664C1838 41.0265 1837.64 40.9166 1837.31 40.8165C1836.18 40.4664 1835.06 40.1066 1833.92 39.7465C1832.44 39.2865 1831.32 38.7066 1829.99 38.0565C1829.23 38.6065 1828.09 38.7865 1827.05 38.9166C1822.49 39.5265 1817.89 39.9465 1813.29 40.1965C1812.66 40.2265 1811.96 40.2364 1811.46 39.9567C1810.61 39.4665 1810.94 38.5066 1811.33 37.7766C1808.82 37.7366 1806.31 37.7265 1803.8 37.7565C1803.15 37.7665 1802.48 37.7866 1801.93 38.0266C1801.38 38.2766 1801.05 38.7164 1800.63 39.0966C1799.34 40.2365 1797 40.6868 1795.12 40.1467C1792.26 42.5566 1789.81 45.2068 1787.84 48.0366C1787.56 47.2366 1787.23 46.3866 1786.35 45.8566C1785.48 45.3266 1783.88 45.3666 1783.42 46.1166C1783.18 46.5165 1783.31 46.9966 1783.03 47.3767C1782.33 48.3166 1780.37 47.7266 1778.89 47.7866C1776.01 47.9065 1774.17 50.9664 1771.37 50.4567C1771.7 49.3166 1772.34 48.2067 1773.24 47.2465C1771.61 47.4865 1769.8 46.9765 1768.82 45.9965C1767.85 45.0265 1767.76 43.6267 1768.59 42.5767C1767.07 41.9368 1765.53 43.2967 1764.26 44.1668C1762.8 45.1668 1760.68 45.6565 1758.69 45.4368C1757.27 45.2867 1755.97 44.8266 1754.58 44.5966C1750.98 44.0165 1747.24 45.1467 1743.57 44.9866C1739.69 44.8167 1735.3 43.3267 1732.27 45.0366C1732.57 44.7766 1732.23 44.2666 1731.72 44.1965C1731.18 44.1067 1730.64 44.3465 1730.16 44.5765C1730.51 43.3765 1728.98 42.1065 1727.3 42.1866C1727.18 42.9464 1726.71 43.6764 1726.01 44.2465C1725.16 43.7665 1724.04 43.5464 1722.98 43.6465C1723.17 44.5164 1722.98 45.4264 1722.41 46.2067C1721.32 45.2067 1719.78 44.3366 1718.02 44.2965C1716.24 44.2465 1714.4 45.3765 1714.67 46.6365C1713.71 45.7764 1712.07 45.3465 1710.58 45.5866C1710.44 44.7966 1710.31 44.0064 1710.17 43.2164C1708.74 44.0765 1706.62 43.2465 1705.12 42.4465C1703.61 41.6565 1701.31 40.9464 1700.1 41.9764C1699.23 42.6866 1697.88 43.6765 1696.62 43.4064C1695.37 43.1266 1694.35 42.4665 1693.14 42.1066C1691.53 41.6166 1689.72 41.6867 1687.97 41.7465C1685.09 41.8666 1682.04 42.0265 1679.63 43.1866C1678.54 43.6964 1677.42 44.4567 1676.15 44.2465C1675.34 44.1166 1674.72 43.6266 1673.91 43.4965C1672.92 43.3266 1671.94 43.7364 1670.98 44.0364C1670.04 44.3264 1668.77 44.4463 1668.14 43.8665C1667.87 43.6265 1667.75 43.2765 1667.41 43.0966C1666.63 42.6667 1665.51 43.3265 1664.56 43.1465C1663.72 42.9864 1663.39 42.2765 1662.81 41.7965C1661.27 40.5665 1658.46 41.3064 1656.46 42.1265C1656.43 41.6963 1656.38 41.2564 1656.35 40.8265C1654.99 42.0565 1652.2 41.7066 1650.38 40.8065C1648.57 39.9264 1647.07 38.6167 1644.98 38.1467C1644 39.1367 1642.73 39.9764 1641.26 40.5966C1641.28 39.3266 1641.14 38.0566 1640.89 36.7966C1638.53 36.9367 1636.15 37.0767 1633.79 37.2166C1632.25 37.2967 1630.32 37.2465 1629.65 36.2465C1628.55 36.4465 1628.9 37.9568 1627.8 38.1668C1627.4 38.2366 1626.99 38.0867 1626.63 37.9368C1625.66 37.5367 1624.68 37.1368 1623.69 36.7366C1622.97 37.9168 1621.85 38.9766 1620.46 39.7866C1619.85 40.1367 1619.06 40.4665 1618.33 40.2866C1617.4 40.0766 1617.1 39.2565 1616.44 38.7264C1615.61 38.0465 1614.16 37.9064 1612.93 38.1367C1611.72 38.3667 1610.66 38.9166 1609.64 39.4567C1607.49 40.6066 1605.33 41.7365 1603.17 42.8666C1602.02 43.4765 1600.57 44.1067 1599.27 43.6965C1596.36 42.7866 1592.46 44.1467 1591.79 46.3867C1590.79 45.9665 1589.8 45.5365 1588.82 45.1166C1588.22 45.6867 1587.8 46.3367 1587.56 47.0266C1586.6 46.4167 1585.47 45.7866 1584.23 45.9368C1583.57 46.0166 1583 46.2966 1582.41 46.5165C1580.91 47.0365 1579.06 47.0066 1577.58 46.4368C1576.55 46.0567 1575.77 44.8667 1576.8 44.4666C1575.11 43.8768 1572.93 44.0966 1571.56 45.0165C1570.9 45.4464 1570.42 46.0065 1569.74 46.4064C1569.05 46.7965 1568 47.0065 1567.3 46.6166C1566.54 46.2067 1566.52 45.3167 1565.73 44.9368C1564.6 44.4168 1563.27 45.3666 1561.95 45.5966C1560.76 45.8266 1559.47 45.3966 1558.62 44.7465C1557.78 44.0966 1557.27 43.2566 1556.8 42.4368C1555.54 42.9368 1554.29 43.4367 1553.02 43.9465C1553 43.5066 1552.97 43.0766 1552.94 42.6367C1551.79 42.6067 1550.64 42.5766 1549.49 42.5466C1549.37 42.1867 1549.24 41.8466 1549.1 41.4966C1548.26 41.6868 1547.34 41.8667 1546.58 41.5867C1545.8 41.3067 1545.57 40.3368 1546.4 40.1168C1545.84 39.4266 1544.83 39.1565 1543.75 39.2966C1542.68 39.4265 1541.78 40.0867 1541.6 40.8668C1540.84 40.3268 1539.9 39.9265 1538.88 39.7166C1538.51 39.6468 1538.06 39.5967 1537.77 39.7867C1537.06 40.2467 1538.31 40.9466 1538.57 41.6168C1538.81 42.2567 1537.97 42.8868 1537.06 43.0067C1536.16 43.1168 1535.26 42.8668 1534.41 42.6168C1534.61 43.3168 1534.4 44.0969 1533.68 44.5869C1532.98 45.0769 1531.72 45.1567 1531.02 44.647C1529.87 43.8069 1530.62 41.9267 1529.06 41.5468C1527.58 41.1767 1526.61 42.8168 1525.09 43.0668C1524.75 42.1669 1524.67 41.2168 1524.85 40.2869C1523.07 41.0069 1520.7 40.8269 1519.14 39.877C1518.47 39.4668 1517.8 38.8869 1516.93 38.9667C1515.6 39.0768 1514.82 40.667 1513.58 40.2869C1513.29 39.917 1513.14 39.4767 1513.15 39.0468C1512.22 39.3669 1510.91 39.6069 1510.33 38.9968C1510.15 38.7968 1510.09 38.5569 1509.92 38.3369C1509.31 37.5469 1507.64 37.7769 1506.53 38.2169C1505.43 38.6568 1504.1 39.207 1503.01 38.7468C1502.65 38.5969 1502.38 38.3469 1502.08 38.1169C1500.67 37.0869 1498.57 36.7569 1496.6 36.4769C1494.65 36.2071 1492.71 35.937 1490.77 35.6567C1489.69 35.5068 1488.56 35.3669 1487.53 35.6169C1486.52 35.8669 1485.7 36.4669 1484.66 36.577C1482.92 36.7469 1481.61 35.5769 1480.28 34.7568C1478.32 33.5468 1475.77 32.9969 1473.3 32.4669C1472.75 32.347 1472.18 32.2368 1471.61 32.3069C1470.96 32.387 1470.42 32.7269 1469.82 32.9669C1468.83 33.3771 1467.64 33.537 1466.5 33.4171C1465.91 32.7071 1467.09 31.7769 1466.7 30.9868C1466.44 30.4768 1465.64 30.2568 1465.01 29.957C1463.63 29.2468 1463.08 27.8169 1463.77 26.707C1462.63 26.5569 1461.5 26.4067 1460.38 26.2468C1458.99 26.0769 1457.15 28.057 1455.86 27.647C1455.3 27.4668 1455.07 26.9867 1454.86 26.5568C1454.41 25.6369 1453.74 24.7368 1452.68 24.147C1451.61 23.5569 1450.11 23.3068 1448.89 23.7167C1448.05 23.9867 1447.42 24.5369 1446.56 24.7468C1445.69 24.9768 1444.42 24.5668 1444.61 23.9169C1443.69 24.5868 1441.76 23.867 1442 22.9268C1441.3 23.2168 1440.61 23.5068 1439.91 23.7968C1439.58 23.9369 1439.2 24.0968 1438.82 24.0468C1438.44 24.0168 1438.1 23.707 1438.29 23.457C1437.46 24.2268 1435.84 23.5569 1434.53 23.3469C1433.59 23.1968 1432.6 23.337 1431.64 23.4769C1430.33 23.6769 1429 23.8669 1427.68 24.0569C1427.28 24.117 1426.86 24.1768 1426.56 24.387C1426 24.7869 1426.09 25.5269 1425.43 25.837C1424.88 26.107 1424.13 25.8971 1423.5 25.7269C1420.9 24.9969 1417.84 25.1568 1415.42 26.1671C1416.04 27.1671 1416.45 28.257 1416.6 29.3571C1415.09 28.8971 1413.36 28.827 1411.79 29.1768C1411.22 29.3069 1410.59 29.4768 1410.07 29.2869C1409.22 28.9668 1409.38 28.027 1408.8 27.497C1407.92 26.6371 1406.08 27.1872 1404.64 27.447C1402.22 27.907 1399.68 27.2571 1397.44 26.447C1396.92 27.0671 1396.37 27.7073 1395.54 28.1472C1394.74 28.5871 1393.59 28.767 1392.71 28.4069C1391.91 28.0971 1391.53 27.427 1390.85 26.9871C1390.18 26.5572 1388.84 26.487 1388.61 27.1271C1388.76 25.817 1386.28 25.0772 1384.61 25.5872C1382.93 26.0872 1381.9 27.2872 1380.8 28.3272C1379.68 29.3572 1378.12 30.3872 1376.31 30.257C1376.57 31.1471 1375.25 32.0672 1374.03 31.8472C1373.3 31.7271 1372.76 31.3171 1372.15 31.007C1370.94 30.4069 1369.35 30.2073 1367.93 30.4971C1366.89 30.2771 1365.97 29.777 1365.23 29.197C1364.5 28.6172 1363.35 28.1073 1362.36 28.4271C1361.87 28.6073 1361.42 28.967 1360.88 28.907C1359.83 28.7671 1360.34 27.4373 1359.52 26.9573C1357.71 27.7171 1356.16 28.8173 1355.08 30.1273C1354.95 28.9574 1354.8 27.8072 1354.66 26.6373C1354.6 26.1771 1354.51 25.6571 1353.99 25.3773C1353.27 24.9772 1352.2 25.2871 1351.38 24.9971C1350.15 24.5672 1350.41 23.2372 1349.73 22.3773C1349.06 21.5272 1347.3 21.2671 1346.22 21.8472C1346.8 22.3972 1347.4 22.9772 1347.57 23.6771C1347.72 24.3573 1347.27 25.157 1346.36 25.3572C1346 25.4173 1345.62 25.3972 1345.28 25.4971C1343.62 25.9173 1344.74 27.907 1343.73 28.9471C1343.08 29.6273 1341.72 29.6873 1340.6 29.5272C1339.48 29.3773 1338.35 29.0673 1337.24 29.2473C1336.02 29.4575 1335.09 30.2074 1333.87 30.4374C1331.79 30.8273 1329.22 29.6274 1327.59 30.6572C1327.71 31.7973 1327.8 33.0072 1327.1 34.0472C1326.39 35.0672 1324.57 35.7873 1323.17 35.2573C1322.4 34.9773 1321.9 34.3873 1321.09 34.1971C1319.85 33.8873 1318.43 34.8873 1318.82 35.7772C1318.37 35.3573 1317.92 34.9272 1317.47 34.4973C1316.91 34.8974 1315.8 34.7372 1315.49 34.2172C1314.83 35.3173 1313.26 36.1074 1311.6 36.1475C1310.03 36.9473 1307.24 35.8173 1305.97 36.8373C1305.33 37.3473 1305.24 38.3073 1304.31 38.3773C1303.43 38.4671 1302.92 37.6074 1302.04 37.4672C1301.71 37.4071 1301.35 37.4671 1301.02 37.5272C1295.46 38.5572 1289.89 39.5874 1284.33 40.6174C1282.76 40.9072 1281.11 41.2372 1280.09 42.1373C1279.25 42.8773 1279.01 43.8674 1278.57 44.7573C1278.13 45.6572 1277.3 46.5774 1276 46.7473C1274.44 46.9272 1272.89 45.9374 1271.39 46.2972C1270.87 46.4271 1270.44 46.7272 1270.03 47.0073C1268.12 48.3474 1266.25 49.7472 1264.43 51.1674C1264.25 50.0072 1264.09 48.8373 1263.91 47.6874C1263.47 47.6073 1263 47.6571 1262.61 47.8373C1262.71 47.4772 1262.83 47.1173 1262.94 46.7772C1262.2 47.2171 1261.28 47.5073 1260.32 47.5974C1260.23 46.3374 1260.14 45.0573 1260.05 43.7872C1255.11 42.8272 1250.37 41.2972 1246.07 39.2872C1244.33 38.4771 1242.02 37.5872 1240.37 38.4872C1239.13 39.1771 1238.46 40.7773 1236.95 40.5173C1236.22 40.3974 1235.82 39.8573 1235.23 39.5272C1234.13 38.8773 1232.56 38.9772 1231.14 39.0472C1226.87 39.2572 1222.53 38.8472 1218.48 37.8472C1219.04 37.3272 1218.48 36.4771 1217.63 36.2571C1216.77 36.0271 1215.8 36.2671 1215.02 36.6072C1215.21 37.3772 1213.3 38.0773 1212.21 38.0372C1211.13 38.0072 1209.98 37.7271 1209.03 38.0772C1207.8 38.5472 1207.64 39.727 1207.16 40.6569C1206.67 41.5971 1204.87 42.4269 1204.04 41.6271C1203.69 41.297 1203.69 40.777 1203.24 40.507C1202.08 39.8371 1200.84 41.7171 1199.37 41.5872C1198.16 41.4771 1197.94 40.1872 1196.85 39.777C1195.89 39.4069 1194.71 39.927 1194.09 40.5571C1193.44 41.197 1193.05 41.9769 1192.22 42.4769C1191.38 42.9769 1189.83 42.977 1189.47 42.247C1189.05 42.6672 1188.44 42.9869 1187.73 43.137C1187.45 42.587 1187.17 42.0369 1186.9 41.4869C1186.35 43.367 1183.28 44.107 1180.7 44.5269C1181.3 43.647 1179.94 42.6569 1178.59 42.507C1177.25 42.3371 1175.86 42.6371 1174.51 42.4572C1171.87 42.1171 1169.57 40.0269 1167.06 40.7269C1166.41 40.9068 1165.88 41.247 1165.28 41.497C1163.37 42.287 1160.66 41.877 1159.35 40.597C1158.51 41.597 1158 42.7269 1157.85 43.887C1156.28 42.7969 1154.06 42.2072 1151.87 42.317C1150.46 42.3871 1148.69 42.6169 1147.92 41.7568C1147.29 42.1269 1146.66 42.4968 1146.03 42.8569C1145.64 42.4768 1145.24 42.107 1144.84 41.7169C1143.75 42.537 1142.64 43.357 1141.54 44.1671C1141.16 43.4068 1141.09 42.567 1141.34 41.767C1137.75 42.267 1135.69 44.9371 1134.11 47.327C1133.93 47.587 1133.72 47.8671 1133.33 47.9572C1132.82 48.0571 1132.35 47.7769 1131.94 47.5469C1128.72 45.617 1124.2 45.437 1120.03 45.3469C1118.49 45.3069 1116.69 45.3669 1115.79 46.2568C1115.19 45.9968 1114.31 46.147 1113.94 46.567C1113.77 46.1271 1113.61 45.687 1113.43 45.2468C1112.41 45.7868 1110.9 45.7568 1109.9 45.207C1109.19 45.6469 1108.48 46.087 1107.77 46.5269C1107.54 46.667 1107.27 46.8169 1106.97 46.7769C1106.5 46.7071 1106.42 46.2568 1106.18 45.957C1105.5 45.0969 1103.7 45.5368 1102.48 45.9968C1101.27 46.457 1099.24 46.5669 1099.03 45.5869C1097.77 45.0068 1096.46 44.6767 1095.2 44.0869C1094.39 44.647 1093.5 45.147 1092.53 45.5569C1092.33 45.647 1092.09 45.7268 1091.85 45.707C1091.24 45.6469 1091.21 45.0268 1090.97 44.6069C1090.54 43.8169 1089.1 43.6567 1087.92 43.6169C1086.19 43.5568 1084.44 43.4969 1082.71 43.4371C1082.02 43.4068 1081.25 43.3669 1080.78 42.9868C1080.41 42.6767 1080.36 42.2269 1080.36 41.817C1080.36 40.6871 1080.62 39.5669 1081.11 38.5068C1080.11 38.8969 1079.05 39.2968 1077.93 39.2968C1076.79 39.2868 1075.57 38.7167 1075.51 37.9067C1075.1 38.0468 1074.7 38.1871 1074.31 38.327C1074.12 38.067 1074.04 37.7669 1074.1 37.4669C1073.34 37.567 1072.59 37.6768 1071.85 37.7869C1071.67 36.9768 1071.62 36.1568 1071.67 35.347C1070.89 35.6871 1070.04 35.9171 1069.14 36.0369C1069.01 35.367 1068.87 34.6968 1068.74 34.0269C1065.93 34.347 1063.05 34.2869 1060.27 33.887C1061.09 35.617 1062.09 37.287 1063.26 38.9069C1061.46 38.1872 1059.65 37.4669 1057.86 36.7369C1056.1 36.0269 1054.07 34.9669 1054.31 33.5269C1053.75 34.0469 1053.15 34.5669 1052.35 34.837C1051.53 35.117 1050.41 35.037 1049.91 34.4869C1048.66 35.0169 1047.07 35.5571 1045.83 35.017C1045.36 34.807 1045.01 34.4769 1044.59 34.2169C1043.7 33.6568 1042.41 33.4572 1041.28 33.7072C1039.35 33.037 1036.46 34.1871 1035.18 35.4268C1034.78 35.8269 1034.25 36.347 1033.6 36.1968C1032.85 36.0169 1033 35.1568 1032.37 34.8069C1031.38 34.2669 1029.95 35.5169 1028.87 35.0869C1028.02 34.7568 1028.29 33.7169 1027.53 33.3069C1026.29 32.6271 1024.18 34.2969 1023.18 33.457C1022.93 33.2568 1022.87 32.9371 1022.57 32.7769C1021.99 32.4371 1021.19 32.887 1020.54 33.147C1019.19 33.6768 1017.29 33.2468 1016.61 32.2668C1016.05 33.2268 1014.29 33.4969 1012.89 33.2769C1011.48 33.0569 1010.21 32.4968 1008.79 32.3268C1007.84 32.1967 1006.85 32.2468 1005.89 32.0969C1004.95 31.9468 1003.98 31.5167 1003.77 30.8268C1003.31 31.2868 1002.85 31.7468 1002.38 32.207C1002.02 32.1069 1001.73 31.8868 1001.59 31.6268C1001.22 32.4666 999.249 32.5667 998.719 31.7567C998.119 32.2167 997.539 32.687 996.959 33.1469C996.629 33.0468 996.329 32.8668 996.149 32.6368C995.749 33.5367 995.329 34.4368 994.539 35.1868C993.729 35.9265 992.459 36.4666 991.179 36.3367C989.439 36.1668 988.379 34.9369 987.349 33.9169C986.339 32.8869 984.629 31.8768 983.019 32.3367C982.379 32.5166 981.899 32.9066 981.459 33.2968C980.129 34.4968 979.009 35.7968 978.119 37.1967C977.069 35.9867 976.009 34.7768 974.949 33.5668C974.639 33.1967 973.769 32.8567 973.579 33.2767C973.409 32.9168 973.249 32.5668 973.079 32.207C972.499 32.937 971.379 33.437 970.199 33.457C970.899 32.8369 969.529 31.9967 968.409 32.0768C967.279 32.1669 966.209 32.6567 965.119 32.4868C964.359 32.3669 963.699 31.9169 962.919 31.9169C961.819 31.9169 961.109 32.7368 960.559 33.437C960.009 34.1269 959.069 34.8869 958.009 34.6566C956.719 34.3768 955.059 35.0769 954.239 35.8469C953.939 36.1069 953.569 36.4467 953.119 36.3668C952.519 36.2367 952.669 35.5668 952.249 35.2267C951.839 34.8869 951.039 35.0568 950.479 35.2968C949.919 35.5168 949.249 35.7969 948.679 35.5869C948.289 35.4468 948.099 35.1169 947.729 34.957C946.679 34.5368 945.589 35.6966 944.389 35.6268C943.859 35.5968 943.349 35.3067 942.839 35.4066C942.41 35.4867 942.119 35.7967 941.699 35.8868C940.93 36.0567 940.309 35.4066 939.569 35.1566C938.93 34.9569 938.119 35.0969 937.689 35.4968C937.259 35.0969 936.449 34.9569 935.809 35.1566C935.069 35.4066 934.449 36.0567 933.68 35.8868C933.259 35.7967 932.969 35.4867 932.539 35.4066C932.029 35.3067 931.519 35.5968 930.989 35.6268C929.789 35.6966 928.699 34.5368 927.649 34.957C927.279 35.1169 927.09 35.4467 926.699 35.5869C926.129 35.7969 925.459 35.5167 924.899 35.2968C924.339 35.0568 923.539 34.8869 923.129 35.2267C922.709 35.5668 922.859 36.2367 922.259 36.3668C921.809 36.4466 921.439 36.1069 921.14 35.8469C920.319 35.0769 918.659 34.3768 917.37 34.6566C916.309 34.8868 915.37 34.1269 914.82 33.437C914.27 32.7368 913.56 31.9169 912.459 31.9169C911.68 31.9169 911.019 32.367 910.259 32.4868C909.169 32.6567 908.1 32.1669 906.969 32.0768C905.85 31.9967 904.479 32.8369 905.18 33.457C903.999 33.437 902.879 32.937 902.299 32.207C902.129 32.5669 901.969 32.9169 901.799 33.2767C901.61 32.8568 900.739 33.1967 900.43 33.5668C899.37 34.7768 898.31 35.9867 897.259 37.1967C896.37 35.7968 895.249 34.4967 893.919 33.2968C893.479 32.9067 892.999 32.5167 892.359 32.3367C890.749 31.8767 889.039 32.8868 888.029 33.9169C886.999 34.9369 885.939 36.1668 884.199 36.3367C882.919 36.4666 881.649 35.9265 880.839 35.1868C880.049 34.4368 879.629 33.5367 879.229 32.6368C879.049 32.8668 878.749 33.0468 878.419 33.1469C877.839 32.6869 877.259 32.2166 876.659 31.7567C876.129 32.5668 874.159 32.4667 873.789 31.6268C873.649 31.8868 873.359 32.1069 872.999 32.207C872.529 31.7468 872.069 31.2867 871.609 30.8268C871.399 31.5167 870.43 31.9468 869.489 32.0969C868.529 32.2468 867.539 32.1967 866.589 32.3268C865.169 32.4967 863.899 33.0569 862.489 33.2769C861.089 33.4969 859.329 33.2268 858.769 32.2668C858.089 33.2468 856.189 33.6768 854.839 33.147C854.189 32.887 853.389 32.437 852.809 32.7769C852.509 32.9371 852.449 33.2568 852.199 33.457C851.199 34.2968 849.089 32.6269 847.849 33.3069C847.089 33.7169 847.359 34.7569 846.509 35.0869C845.43 35.5168 843.999 34.2668 843.009 34.8069C842.379 35.1568 842.529 36.0169 841.779 36.1968C841.129 36.3469 840.599 35.8269 840.199 35.4268C838.919 34.1871 836.029 33.037 834.099 33.7072C832.969 33.4572 831.679 33.6568 830.789 34.2169C830.369 34.4769 830.019 34.8071 829.549 35.017C828.309 35.557 826.719 35.0169 825.469 34.4869C824.969 35.0369 823.849 35.117 823.029 34.837C822.229 34.567 821.629 34.047 821.069 33.5269C821.309 34.9668 819.279 36.0269 817.519 36.7369C815.729 37.4669 813.919 38.1872 812.119 38.9069C813.289 37.287 814.289 35.617 815.109 33.887C812.329 34.2869 809.449 34.347 806.639 34.0269C806.509 34.6968 806.369 35.367 806.239 36.0369C805.339 35.917 804.489 35.687 803.709 35.347C803.759 36.1568 803.709 36.9769 803.529 37.7869C802.789 37.6768 802.039 37.567 801.279 37.4669C801.339 37.7669 801.259 38.067 801.069 38.327C800.679 38.1871 800.279 38.0469 799.869 37.9067C799.809 38.7168 798.589 39.2868 797.449 39.2968C796.329 39.2968 795.269 38.8969 794.269 38.5068C794.759 39.5669 795.019 40.6871 795.019 41.817C795.019 42.2269 794.969 42.6768 794.599 42.9868C794.129 43.3669 793.359 43.4068 792.669 43.4371C790.939 43.4969 789.189 43.5569 787.459 43.6169C786.279 43.6567 784.839 43.8169 784.409 44.6069C784.169 45.0268 784.139 45.6469 783.529 45.707C783.289 45.7268 783.049 45.6469 782.849 45.5569C781.879 45.147 780.989 44.647 780.179 44.0869C778.919 44.6767 777.609 45.0068 776.349 45.5869C776.139 46.5669 774.109 46.457 772.899 45.9968C771.679 45.5368 769.879 45.0969 769.199 45.957C768.959 46.2568 768.879 46.7071 768.409 46.7769C768.109 46.8169 767.839 46.667 767.609 46.5269C766.899 46.087 766.189 45.6469 765.479 45.207C764.479 45.7568 762.969 45.7868 761.949 45.2468C761.769 45.687 761.609 46.127 761.439 46.567C761.069 46.1471 760.189 45.9968 759.589 46.2568C758.689 45.3669 756.889 45.3068 755.349 45.3469C751.179 45.437 746.659 45.6169 743.439 47.5469C743.029 47.7769 742.559 48.057 742.049 47.9572C741.659 47.8671 741.449 47.587 741.269 47.327C739.689 44.9371 737.629 42.267 734.039 41.767C734.289 42.567 734.219 43.4069 733.839 44.1671C732.739 43.357 731.629 42.537 730.539 41.7169C730.139 42.107 729.739 42.4768 729.349 42.8569C728.719 42.4968 728.089 42.1269 727.459 41.7568C726.689 42.6169 724.919 42.387 723.509 42.317C721.319 42.2071 719.099 42.7969 717.529 43.887C717.379 42.7268 716.869 41.597 716.029 40.597C714.719 41.877 712.009 42.287 710.099 41.497C709.499 41.247 708.969 40.9068 708.319 40.7269C705.809 40.0269 703.509 42.1171 700.869 42.4572C699.519 42.6371 698.129 42.3371 696.789 42.507C695.439 42.6569 694.079 43.647 694.679 44.5269C692.099 44.107 689.029 43.367 688.479 41.4869C688.209 42.0369 687.929 42.587 687.649 43.137C686.939 42.9869 686.329 42.6671 685.909 42.247C685.549 42.977 683.999 42.9769 683.159 42.4769C682.329 41.9769 681.939 41.197 681.289 40.5571C680.669 39.927 679.489 39.4069 678.529 39.777C677.439 40.1872 677.219 41.4771 676.009 41.5872C674.539 41.7171 673.299 39.8371 672.139 40.507C671.689 40.777 671.689 41.297 671.339 41.6271C670.509 42.4269 668.709 41.5971 668.219 40.6569C667.739 39.727 667.579 38.5471 666.349 38.0772C665.399 37.7271 664.249 38.0071 663.169 38.0372C662.079 38.0772 660.169 37.3772 660.359 36.6072C659.579 36.2671 658.609 36.0271 657.749 36.2571C656.899 36.4771 656.339 37.3272 656.899 37.8472C652.849 38.8472 648.509 39.2571 644.239 39.0472C642.819 38.9771 641.249 38.8773 640.149 39.5272C639.559 39.8573 639.159 40.3974 638.429 40.5173C636.919 40.7773 636.249 39.1771 635.009 38.4872C633.359 37.5873 631.049 38.4772 629.309 39.2872C625.009 41.2972 620.269 42.8272 615.329 43.7872C615.239 45.0572 615.149 46.3373 615.059 47.5974C614.099 47.5073 613.179 47.2172 612.439 46.7772C612.549 47.1173 612.669 47.4772 612.769 47.8373C612.379 47.6571 611.909 47.6073 611.469 47.6874C611.289 48.8373 611.129 50.0072 610.949 51.1674C609.129 49.7472 607.259 48.3474 605.349 47.0073C604.939 46.7273 604.509 46.4271 603.989 46.2972C602.489 45.9373 600.939 46.9272 599.379 46.7473C598.079 46.5774 597.249 45.6572 596.809 44.7573C596.369 43.8674 596.129 42.8773 595.289 42.1373C594.269 41.2372 592.619 40.9072 591.049 40.6174C585.489 39.5874 579.919 38.5572 574.359 37.5272C574.029 37.4671 573.669 37.4072 573.339 37.4672C572.459 37.6073 571.949 38.4671 571.069 38.3773C570.14 38.3072 570.049 37.3473 569.409 36.8373C568.139 35.8173 565.349 36.9473 563.779 36.1475C562.12 36.1075 560.549 35.3173 559.89 34.2172C559.579 34.7372 558.469 34.8975 557.909 34.4973C557.459 34.9272 557.009 35.3573 556.559 35.7772C556.949 34.8873 555.529 33.8873 554.289 34.1971C553.479 34.3873 552.979 34.9772 552.209 35.2573C550.809 35.7873 548.989 35.0673 548.279 34.0472C547.579 33.0072 547.669 31.7973 547.789 30.6572C546.16 29.6274 543.589 30.8273 541.509 30.4374C540.289 30.2074 539.359 29.4575 538.14 29.2473C537.029 29.0674 535.899 29.3773 534.779 29.5272C533.66 29.6874 532.299 29.6273 531.649 28.9471C530.639 27.9071 531.759 25.9173 530.099 25.4971C529.759 25.3972 529.379 25.4173 529.019 25.3572C528.109 25.157 527.659 24.3573 527.809 23.6771C527.979 22.9771 528.579 22.3972 529.159 21.8472C528.079 21.2671 526.319 21.5272 525.649 22.3773C524.969 23.2372 525.229 24.5671 523.999 24.9971C523.18 25.2871 522.109 24.9772 521.389 25.3773C520.869 25.6571 520.779 26.1771 520.719 26.6373C520.579 27.8072 520.429 28.9574 520.299 30.1273C519.219 28.8172 517.669 27.717 515.859 26.9573C515.039 27.4373 515.549 28.7671 514.499 28.907C513.959 28.9671 513.509 28.6073 513.019 28.4271C512.029 28.1073 510.879 28.6172 510.149 29.197C509.41 29.7771 508.489 30.2772 507.449 30.4971C506.029 30.2073 504.439 30.4069 503.229 31.007C502.619 31.3171 502.079 31.7271 501.349 31.8472C500.129 32.0672 498.809 31.1471 499.069 30.257C497.259 30.3871 495.699 29.3572 494.579 28.3272C493.479 27.2872 492.449 26.0872 490.769 25.5872C489.099 25.0772 486.619 25.8171 486.769 27.1271C486.539 26.487 485.199 26.5571 484.529 26.9871C483.849 27.427 483.469 28.0971 482.669 28.4069C481.789 28.767 480.639 28.5872 479.839 28.1472C479.009 27.7073 478.459 27.0671 477.939 26.447C475.699 27.2571 473.159 27.907 470.739 27.447C469.299 27.1872 467.459 26.6371 466.579 27.497C465.999 28.027 466.159 28.9669 465.309 29.2869C464.789 29.4768 464.159 29.3069 463.589 29.1768C462.019 28.8269 460.289 28.8971 458.779 29.3571C458.929 28.257 459.339 27.1671 459.959 26.1671C457.539 25.1568 454.479 24.9969 451.879 25.7269C451.25 25.8966 450.5 26.1066 449.95 25.8365C449.29 25.5264 449.379 24.7865 448.82 24.3865C448.52 24.1763 448.1 24.1166 447.7 24.0565C446.379 23.8666 445.05 23.6763 443.74 23.4763C442.78 23.3364 441.79 23.1963 440.85 23.3464C439.54 23.5564 437.919 24.2263 437.09 23.4565C437.28 23.7065 436.94 24.0163 436.56 24.0463C436.18 24.0963 435.8 23.9364 435.47 23.7963C434.77 23.5063 434.08 23.2163 433.379 22.9263C433.62 23.8665 431.69 24.5864 430.77 23.9164C430.959 24.5663 429.689 24.9762 428.82 24.7462C427.959 24.5362 427.329 23.9862 426.489 23.7162C425.269 23.3063 423.769 23.5563 422.699 24.1464C421.64 24.7362 420.969 25.6364 420.52 26.5563C420.31 26.9862 420.08 27.4662 419.52 27.6464C418.229 28.0563 416.39 26.0763 415 26.2463C413.879 26.4062 412.75 26.5564 411.61 26.7065C412.3 27.8164 411.75 29.2463 410.37 29.9565C409.74 30.2563 408.939 30.4763 408.68 30.9863C408.29 31.7763 409.47 32.7066 408.879 33.4166C407.74 33.5365 406.55 33.3766 405.56 32.9664C404.96 32.7264 404.42 32.3866 403.77 32.3065C403.2 32.2364 402.63 32.3465 402.08 32.4664C399.61 32.9964 397.06 33.5465 395.1 34.7564C393.77 35.5765 392.46 36.7463 390.72 36.5764C389.68 36.4663 388.86 35.8665 387.85 35.6165C386.82 35.3665 385.69 35.5064 384.61 35.6563C382.67 35.9366 380.73 36.2065 378.78 36.4763C376.81 36.7563 374.71 37.0865 373.3 38.1165C373 38.3465 372.73 38.5964 372.37 38.7463C371.28 39.2065 369.949 38.6563 368.85 38.2164C367.74 37.7765 366.07 37.5464 365.46 38.3364C365.29 38.5564 365.23 38.7964 365.05 38.9963C364.47 39.6064 363.16 39.3664 362.23 39.0463C362.24 39.4762 362.09 39.9164 361.8 40.2863C360.56 40.6664 359.78 39.0764 358.45 38.9663C357.58 38.8865 356.91 39.4663 356.24 39.8765C354.68 40.8265 352.31 41.0063 350.53 40.2863C350.71 41.2162 350.63 42.1665 350.29 43.0663C348.77 42.8163 347.8 41.1762 346.32 41.5463C344.76 41.9262 345.51 43.8063 344.36 44.6464C343.66 45.1562 342.399 45.0764 341.699 44.5864C340.979 44.0964 340.77 43.3163 340.969 42.6163C340.12 42.8663 339.219 43.1163 338.32 43.0062C337.41 42.8863 336.57 42.2562 336.81 41.6163C337.07 40.9461 338.319 40.2463 337.609 39.7863C337.319 39.5964 336.87 39.6463 336.499 39.7161C335.479 39.9261 334.539 40.3263 333.779 40.8663C333.6 40.0863 332.699 39.426 331.629 39.2961C330.549 39.156 329.539 39.4261 328.979 40.1163C329.81 40.3363 329.579 41.3061 328.799 41.5862C328.039 41.8662 327.12 41.6864 326.28 41.4962C326.14 41.8463 326.01 42.1863 325.89 42.5461C324.74 42.5761 323.59 42.6062 322.439 42.6362C322.41 43.0761 322.379 43.5061 322.36 43.946C321.09 43.4362 319.84 42.9362 318.58 42.4362C318.11 43.256 317.6 44.0961 316.76 44.746C315.91 45.3961 314.62 45.8261 313.43 45.5961C312.11 45.3661 310.78 44.4162 309.649 44.9362C308.86 45.3161 308.84 46.2063 308.08 46.6162C307.379 47.0061 306.33 46.796 305.64 46.4059C304.96 46.0061 304.48 45.446 303.82 45.0161C302.45 44.0962 300.27 43.8762 298.58 44.4661C299.61 44.8662 298.83 46.0561 297.8 46.4362C296.32 47.006 294.47 47.0362 292.97 46.5161C292.379 46.2961 291.81 46.016 291.149 45.9362C289.91 45.7861 288.78 46.4163 287.82 47.0261C287.58 46.3362 287.16 45.6863 286.56 45.1162C285.58 45.5361 284.59 45.9661 283.59 46.3862C282.919 44.1462 279.02 42.786 276.11 43.6959C274.81 44.1061 273.36 43.476 272.21 42.8662C270.05 41.7361 267.89 40.6061 265.74 39.4562C264.72 38.9162 263.66 38.3662 262.45 38.1362C261.22 37.906 259.77 38.0461 258.94 38.726C258.28 39.256 257.98 40.0761 257.05 40.2861C256.32 40.466 255.53 40.1362 254.919 39.7861C253.53 38.976 252.41 37.9161 251.689 36.736C250.699 37.1361 249.719 37.536 248.75 37.9362C248.39 38.0861 247.98 38.2361 247.58 38.1663C246.48 37.9563 246.83 36.446 245.73 36.246C245.06 37.246 243.129 37.2961 241.59 37.2161C239.23 37.0762 236.85 36.9362 234.49 36.7961C234.24 38.0561 234.1 39.3261 234.12 40.5961C232.649 39.976 231.379 39.1361 230.399 38.1461C228.31 38.6161 226.81 39.9259 225 40.806C223.18 41.7061 220.39 42.0561 219.03 40.8261C219 41.256 218.949 41.6959 218.919 42.126C216.919 41.3059 214.11 40.566 212.57 41.796C211.99 42.276 211.66 42.9859 210.82 43.1461C209.87 43.326 208.749 42.6661 207.969 43.0961C207.629 43.276 207.51 43.626 207.24 43.866C206.61 44.4458 205.34 44.3261 204.399 44.036C203.439 43.736 202.46 43.326 201.469 43.496C200.66 43.6261 200.04 44.1161 199.229 44.246C197.959 44.4562 196.84 43.696 195.749 43.1862C193.34 42.026 190.29 41.8661 187.41 41.746C185.66 41.6862 183.85 41.616 182.24 42.106C181.029 42.4659 180.009 43.126 178.759 43.4058C177.499 43.6758 176.149 42.6862 175.279 41.976C174.069 40.946 171.769 41.6558 170.259 42.4459C168.759 43.2459 166.64 44.076 165.21 43.2159C165.07 44.0059 164.939 44.7961 164.8 45.5861C163.31 45.3461 161.67 45.776 160.71 46.6361C160.98 45.3761 159.14 44.246 157.36 44.296C155.6 44.336 154.06 45.2061 152.969 46.2061C152.399 45.4258 152.21 44.516 152.399 43.6461C151.34 43.546 150.219 43.766 149.37 44.246C148.669 43.6759 148.199 42.946 148.08 42.1862C146.399 42.1061 144.87 43.3761 145.219 44.5761C144.74 44.3461 144.199 44.106 143.66 44.1959C143.149 44.266 142.81 44.7761 143.11 45.0361C140.08 43.3261 135.689 44.816 131.81 44.986C128.14 45.1462 124.399 44.016 120.8 44.5961C119.41 44.8261 118.11 45.286 116.69 45.4362C114.7 45.6559 112.58 45.1663 111.12 44.1663C109.85 43.2962 108.31 41.9363 106.79 42.5762C107.62 43.6262 107.53 45.0261 106.56 45.996C105.58 46.976 103.77 47.486 102.14 47.246C103.04 48.2062 103.68 49.3161 104.01 50.4562C101.21 50.966 99.3698 47.906 96.4897 47.7861C95.0097 47.726 93.0498 48.3161 92.3498 47.3762C92.0698 46.9961 92.1997 46.5161 91.9597 46.1162C91.4997 45.3662 89.8996 45.3261 89.0298 45.8561C88.1497 46.3861 87.8198 47.2361 87.5398 48.0361C85.5698 45.2063 83.1199 42.556 80.2598 40.1461C78.3797 40.6861 76.0398 40.2359 74.7498 39.0961C74.3299 38.716 73.9998 38.2761 73.4498 38.0261C72.8998 37.7861 72.2298 37.766 71.5799 37.756C69.0699 37.726 66.5599 37.7361 64.0499 37.7761C64.4398 38.5061 64.7699 39.4659 63.9198 39.9562C63.4198 40.236 62.7198 40.226 62.09 40.1959C57.4899 39.9459 52.89 39.526 48.33 38.9161C47.29 38.786 46.1498 38.606 45.3901 38.056C44.06 38.7061 42.9399 39.2861 41.4599 39.746C40.32 40.1061 39.1999 40.4659 38.07 40.816C37.7399 40.9161 37.3798 41.026 37.04 40.9659C36.5 40.8961 36.1899 40.496 35.9499 40.1362C35.1101 38.906 33.6 37.556 31.7499 37.8461C31.14 37.946 30.58 38.2261 29.9599 38.2761C28.3701 38.3762 27.4199 37.076 26.8901 35.986C24.4101 36.0561 21.9301 36.0161 19.4499 35.8662C19.54 34.1062 19.2399 32.3361 18.6 30.6461C16.9101 30.6461 15.3 31.546 14.86 32.746C14.64 33.3861 14.7299 34.0861 14.4301 34.7062C14.1298 35.3361 13.1498 35.8861 12.32 35.5961C12.6999 36.4059 12.7399 37.2962 12.4399 38.1362C11.55 37.2661 10.1999 36.6661 8.7399 36.4659C8.7099 37.9161 8.36 39.6861 6.4999 40.1959C5.35 40.516 4.08 40.1959 2.84 40.1559C1.61 40.1161 0.09 40.6362 0.1899 41.5261C0.1298 41.5261 0.06 41.516 0 41.506V17.226C1.73 18.726 4.3999 19.6663 7.0901 19.5562C10.23 19.4363 13.22 17.7862 13.97 15.5762C19.69 17.3762 26.22 17.8161 32.2901 16.7961C35.2901 17.8261 39.1002 17.466 41.6402 15.926C42.98 15.1062 45.8502 15.4962 47.5301 15.1163C48.3602 16.0863 49.72 16.8163 51.2501 17.1163C53.1102 16.3863 55.2201 15.9564 57.3402 15.8663C64.7201 15.5562 72.6402 19.2063 79.0802 16.5862C81.4401 19.4761 86.9601 19.7761 91.6002 19.7361C93.0101 19.7261 94.4103 19.7064 95.8202 19.6962C99.7802 19.6762 104.68 19.1863 105.98 16.4861C109.48 21.6663 121.67 21.5462 124.16 27.0261C125.34 26.6863 126.51 26.3363 127.69 25.9962C128.72 26.7064 129.75 27.426 130.8 28.1462C132.46 26.7761 134.43 25.3161 136.94 25.2761C137.91 25.2661 138.9 25.4761 139.82 25.2761C140.55 25.1162 141.15 24.7161 141.7 24.3262C144.39 22.4761 147.08 20.6162 149.79 18.7661C152.49 21.5461 156.78 23.496 161.43 24.056C165.92 24.596 170.54 23.8762 174.8 22.6862C176.01 20.3761 177.71 18.3962 178.94 16.0761C184.29 15.3962 189.65 14.7062 195.02 14.0261C196.15 13.8762 197.3 13.726 198.3 13.316C199.27 12.9259 200.04 12.3061 200.99 11.8862C204.82 10.2361 209.54 12.3561 213.05 14.3461C216.55 16.3361 221.42 18.3662 225.12 16.5662C226.47 15.9163 227.57 14.7761 229.2 14.7761C229.94 14.7761 230.62 15.0261 231.26 15.2761C234.78 16.656 238 18.4261 240.78 20.5062C241.66 21.1664 242.52 21.8562 243.64 22.2761C244.92 22.7661 246.42 22.8262 247.82 23.0662C250.39 23.4961 252.69 24.5361 255.25 25.0261C257.8 25.5361 260.94 25.3362 262.48 23.7861C265.09 25.7961 269.65 25.0861 273.27 24.2361C275.91 23.5962 278.56 22.9662 281.2 22.3463C282.19 22.1163 283.28 21.8762 284.23 22.176C286.03 22.696 286.91 24.8563 288.76 24.4564C289.85 24.2262 290.15 23.2262 290.67 22.4962C291.2 21.7662 292.93 21.2961 293.3 22.0762C297.99 22.7962 303.31 24.1663 306.86 26.4861C307.8 25.7561 308.74 25.0262 309.68 24.2963C315.79 27.2963 324.31 27.5262 330.7 24.8362C332.85 23.9363 335.86 22.8262 337.43 24.2261C338.79 21.3762 340.15 18.5261 341.52 15.6762C341.79 15.1063 342.09 14.4962 342.76 14.1163C345.36 12.6761 349.05 16.3364 351.96 15.2263C350.51 12.5664 353.83 9.22623 357.78 9.35633C361.11 9.45643 363.63 11.4663 365.76 13.3364C368.88 10.6364 373.73 9.03634 378.59 9.11634C379.92 11.0062 381.24 12.8863 382.56 14.7762C384.12 12.8262 385.67 10.8764 387.23 8.92615C388.23 9.28625 389.23 9.65614 390.23 10.0162C394.11 8.28624 399.96 10.2662 402.51 13.0062C402.95 11.6463 405.49 11.5062 407.43 11.4564C409.36 11.3863 411.88 10.3863 411.1 9.11634C414.6 11.0462 420.65 8.56632 420.13 5.41632C422.04 6.22612 424.4 6.46613 426.55 6.06623C428.24 8.01623 431.89 8.91636 434.86 8.13635C435.13 6.51625 438.28 6.31622 440.49 6.66632C446.38 7.60622 452.07 9.20637 457.29 11.4061C457 9.20637 460.08 7.31622 463.13 7.37622C466.16 7.44602 468.84 9.03614 470.26 10.9761C471.11 9.53624 472.25 8.17613 473.62 6.96613C477.89 10.5662 484.74 12.4962 491.27 11.9262C492.67 11.8162 494.15 11.5963 495.43 12.0162C498.51 8.95644 501.59 5.88636 504.67 2.82636C505.4 2.08636 506.21 1.31637 507.39 0.98627C509.41 0.43647 511.59 1.45644 513.14 2.55634C514.68 3.64644 516.2 4.96626 518.34 5.22626C520.48 5.48626 522.94 3.72622 521.69 2.45642C523.5 2.42612 525.3 2.37632 527.11 2.34632C531.67 2.24622 536.66 4.74623 537.21 8.00623C539.35 7.96623 541.47 7.32636 542.96 6.22626C544.56 7.46626 545.83 8.90616 546.71 10.4763C547.91 9.88646 549.09 9.30636 550.29 8.72626C550.57 9.78636 550.93 10.9262 552.09 11.5963C553.15 12.2262 555.07 12.0664 555.58 11.2263C555.4 11.9062 556.19 12.6962 557.17 12.6962C562.12 13.6962 567.05 14.7066 571.98 15.7163C575.28 16.3865 578.69 17.0963 581.39 18.6364C582.83 19.4364 584.07 20.4763 585.71 21.0264C587.37 21.5764 589.69 21.4462 590.57 20.2963C591.47 23.1064 596.98 24.4762 600.09 22.6464C601.18 24.1264 603.63 24.9862 605.9 24.7162C608.17 24.4462 610.1 23.0463 610.47 21.4061C613.64 22.5663 616.24 24.5262 617.73 26.8563C618.46 26.9962 619.3 26.7663 619.75 26.3264C620.89 27.7764 622.98 29.4462 625.05 28.6962C626.85 28.0563 626.68 26.2163 627.27 24.8264C629.06 20.5464 638.85 19.9061 639.83 15.4962C640.71 17.1664 642.42 18.6063 644.57 19.5062C645.21 18.4061 645.85 17.2963 646.51 16.1962C647.81 16.2362 648.87 15.4761 649.8 14.8162C654.61 11.3362 660.79 8.85626 667.41 7.74616C670.24 9.05626 672.14 11.3562 672.4 13.7761C673.91 12.7261 676.23 12.3261 678.23 12.7661C679.02 11.3862 680.73 10.3161 682.71 9.92603C683.4 9.71603 684.07 10.216 684.45 10.676C684.82 11.1362 685.28 11.696 686.02 11.676C686.08 11.676 686.14 11.656 686.18 11.6462C687.05 14.986 692.73 18.0362 697.36 17.6561C698.22 18.2862 699.08 18.9163 699.93 19.5361C700.99 18.8662 701.82 18.0062 702.35 17.0662C702.93 17.8763 703.8 18.5761 704.86 19.0861C707.16 18.6662 708.06 16.1162 710.42 16.1262C712.82 16.1262 715.17 18.8361 716.8 17.556C717.9 19.8961 718.31 22.3961 717.95 24.856C722.64 24.066 727.93 25.876 730.06 29.0059C730.38 29.4659 730.66 29.9859 731.27 30.2559C733.17 31.096 734.77 28.876 734.91 27.2659C737.73 28.3465 741.75 26.8565 742.2 24.5765C743.81 26.0365 747.1 24.3366 747.83 22.5466C748.56 20.7466 748.64 18.5065 750.86 17.5565C756.26 17.7565 761.529 19.2966 765.6 21.8566C768.05 20.8166 771.27 20.7864 773.75 21.8065C778.52 21.2464 783.87 20.1565 787.32 17.7067C791.16 17.5265 795.03 17.8766 798.69 18.7067C799.66 17.8966 800.62 17.0965 801.58 16.2864C802.379 17.3565 803.62 18.2565 805.09 18.8566C805.79 16.9965 807.399 15.3065 809.57 14.1763C808.82 15.5264 811.419 16.8365 813.3 16.3264C815.19 15.8164 816.14 14.3165 816.61 12.9063C817.07 11.4864 817.26 9.96635 818.39 8.75635C819.24 10.2464 821.52 11.2263 823.75 11.0563C825.96 10.8964 827.92 9.59637 828.35 8.02637C833.55 12.0164 838.75 15.9963 843.97 19.9963C844.74 19.3764 845.53 18.7463 846.31 18.1364C847.67 19.5663 849.6 20.7163 851.81 21.4063C852.2 20.8765 852.6 20.3364 852.99 19.8063C855.56 19.6464 858.13 19.4863 860.72 19.3264C861.42 19.2663 862.18 19.2162 862.75 18.8864C863.34 18.5463 863.58 17.9763 863.79 17.4365C864.61 15.2663 865.44 13.0863 866.27 10.9164C866.14 12.1962 869.11 12.0062 870.29 11.0463C871.46 10.0763 872.89 8.69625 874.52 9.20655C875.3 9.45655 875.7 10.0765 876.3 10.5064C876.85 10.8965 877.85 11.0764 878.33 10.7263C879.769 11.2663 881.62 12.0164 882.83 12.4464C884.5 13.0465 886.46 13.6465 888.19 13.1265C889.01 12.8765 889.66 12.4063 890.46 12.1265C893.12 11.2163 896.26 12.7364 899.129 12.2864C900.219 12.1165 901.219 11.6764 902.33 11.6964C904.75 11.7464 906.29 13.9567 908.71 13.9567C911.19 13.9567 912.73 11.6265 915.21 11.5665C917.629 11.5064 919.02 13.5466 921.169 14.3566C923.54 15.2565 926.49 14.4764 928.68 13.3665C930.88 12.2564 932.82 10.8065 935.35 10.1564C935.95 10.0065 936.57 9.90637 937.19 10.0065C937.37 10.0465 937.53 10.0865 937.69 10.1465C937.85 10.0864 938.01 10.0465 938.19 10.0065C938.81 9.90637 939.43 10.0065 940.03 10.1564C942.56 10.8065 944.5 12.2564 946.7 13.3665C948.89 14.4764 951.84 15.2565 954.21 14.3566C956.36 13.5465 957.75 11.5064 960.169 11.5665C962.649 11.6266 964.19 13.9567 966.669 13.9567C969.09 13.9567 970.63 11.7465 973.05 11.6964C974.16 11.6764 975.16 12.1165 976.25 12.2864C979.12 12.7364 982.26 11.2163 984.919 12.1265C985.719 12.4063 986.37 12.8765 987.19 13.1265C988.919 13.6465 990.879 13.0465 992.55 12.4464C993.76 12.0165 995.61 11.2664 997.05 10.7263C997.53 11.0764 998.53 10.8966 999.08 10.5064C999.68 10.0765 1000.08 9.45655 1000.86 9.20655C1002.49 8.69625 1003.92 10.0764 1005.09 11.0463C1006.27 12.0063 1009.24 12.1962 1009.11 10.9164C1009.94 13.0863 1010.77 15.2664 1011.59 17.4365C1011.8 17.9763 1012.04 18.5463 1012.63 18.8864C1013.2 19.2162 1013.96 19.2664 1014.66 19.3264C1017.25 19.4863 1019.82 19.6464 1022.39 19.8063C1022.78 20.3363 1023.18 20.8765 1023.57 21.4063C1025.78 20.7164 1027.71 19.5664 1029.07 18.1364C1029.85 18.7463 1030.64 19.3764 1031.41 19.9963C1036.63 15.9963 1041.83 12.0164 1047.03 8.02637C1047.46 9.59647 1049.42 10.8964 1051.63 11.0563C1053.86 11.2262 1056.14 10.2463 1056.99 8.75635C1058.12 9.96635 1058.31 11.4864 1058.77 12.9063C1059.24 14.3165 1060.19 15.8164 1062.08 16.3264C1063.96 16.8364 1066.56 15.5264 1065.81 14.1763C1067.98 15.3064 1069.59 16.9965 1070.29 18.8566C1071.76 18.2565 1073 17.3565 1073.8 16.2864C1074.76 17.0965 1075.72 17.8966 1076.69 18.7067C1080.35 17.8766 1084.22 17.5265 1088.06 17.7067C1091.51 20.1564 1096.86 21.2464 1101.63 21.8065C1104.11 20.7865 1107.33 20.8166 1109.78 21.8566C1113.85 19.2965 1119.12 17.7564 1124.52 17.5565C1126.74 18.5065 1126.82 20.7465 1127.55 22.5466C1128.28 24.3366 1131.57 26.0365 1133.18 24.5765C1133.63 26.8565 1137.65 28.3465 1140.47 27.2664C1140.61 28.8765 1142.21 31.0966 1144.11 30.2565C1144.72 29.9865 1145 29.4665 1145.32 29.0065C1147.45 25.8766 1152.74 24.0666 1157.43 24.8566C1157.07 22.3966 1157.48 19.8965 1158.58 17.5565C1160.21 18.8365 1162.56 16.1267 1164.96 16.1267C1167.32 16.1167 1168.22 18.6667 1170.52 19.0867C1171.58 18.5767 1172.45 17.8767 1173.03 17.0667C1173.56 18.0066 1174.39 18.8666 1175.45 19.5366C1176.3 18.9167 1177.16 18.2867 1178.02 17.6566C1182.65 18.0367 1188.33 14.9866 1189.2 11.6467C1189.24 11.6565 1189.3 11.6765 1189.36 11.6765C1190.1 11.6965 1190.56 11.1367 1190.93 10.6765C1191.31 10.2165 1191.98 9.71652 1192.67 9.92652C1194.65 10.3166 1196.36 11.3868 1197.15 12.7667C1199.15 12.3268 1201.47 12.7267 1202.98 13.7767C1203.24 11.3568 1205.14 9.05665 1207.97 7.74665C1214.59 8.85675 1220.77 11.3368 1225.58 14.8168C1226.51 15.4767 1227.57 16.2367 1228.87 16.1967C1229.53 17.2968 1230.17 18.4066 1230.81 19.5067C1232.96 18.6068 1234.67 17.167 1235.55 15.4968C1236.53 19.9067 1246.32 20.5467 1248.11 24.8268C1248.7 26.2167 1248.53 28.0568 1250.33 28.6967C1252.4 29.4467 1254.49 27.7768 1255.63 26.3268C1256.08 26.7667 1256.92 26.9968 1257.65 26.8569C1259.14 24.5268 1261.74 22.5668 1264.91 21.4066C1265.28 23.0467 1267.21 24.4466 1269.48 24.7167C1271.75 24.9868 1274.2 24.127 1275.29 22.647C1278.4 24.4768 1283.91 23.1069 1284.81 20.2968C1285.69 21.4467 1288.01 21.5769 1289.67 21.0269C1291.31 20.4769 1292.55 19.4371 1293.99 18.637C1296.69 17.097 1300.1 16.3869 1303.4 15.7167C1308.33 14.7069 1313.26 13.6967 1318.21 12.6967C1319.19 12.6967 1319.98 11.9067 1319.8 11.2267C1320.31 12.0668 1322.23 12.2268 1323.29 11.5969C1324.45 10.9267 1324.81 9.78675 1325.09 8.72675C1326.29 9.30685 1327.47 9.88695 1328.67 10.4767C1329.55 8.90665 1330.82 7.46675 1332.42 6.22675C1333.91 7.32685 1336.03 7.96672 1338.17 8.00672C1338.72 4.74672 1343.71 2.24677 1348.27 2.34687C1350.08 2.37687 1351.88 2.42667 1353.69 2.45697C1352.44 3.72677 1354.9 5.48675 1357.04 5.22675C1359.18 4.96675 1360.7 3.64693 1362.24 2.55683C1363.79 1.45693 1365.97 0.436958 1367.99 0.986758C1369.17 1.31686 1369.98 2.08685 1370.71 2.82685C1373.79 5.88695 1376.87 8.95693 1379.95 12.0167C1381.23 11.5968 1382.71 11.8167 1384.11 11.9266C1390.64 12.4967 1397.49 10.5667 1401.76 6.96662C1403.13 8.17662 1404.27 9.53673 1405.12 10.9766C1406.54 9.03673 1409.22 7.44667 1412.25 7.37677C1415.3 7.31667 1418.38 9.20686 1418.09 11.4066C1423.31 9.20686 1429 7.60677 1434.89 6.66687C1437.1 6.31677 1440.25 6.51674 1440.52 8.13684C1443.49 8.91684 1447.14 8.01678 1448.83 6.06677C1450.98 6.46667 1453.34 6.22667 1455.25 5.41687C1454.73 8.56677 1460.78 11.0467 1464.28 9.11682C1463.5 10.3868 1466.02 11.3869 1467.95 11.457C1469.89 11.5068 1472.43 11.6468 1472.87 13.0067C1475.42 10.2667 1481.27 8.28673 1485.15 10.0167C1486.15 9.65663 1487.15 9.28674 1488.15 8.92664C1489.71 10.8768 1491.26 12.8267 1492.82 14.7767C1494.14 12.8868 1495.46 11.0067 1496.79 9.11682C1501.65 9.03672 1506.5 10.6369 1509.62 13.3369C1511.75 11.4668 1514.27 9.45697 1517.6 9.35688C1521.55 9.22678 1524.87 12.5668 1523.42 15.2267C1526.33 16.3368 1530.02 12.6767 1532.62 14.1168C1533.29 14.4967 1533.59 15.1068 1533.86 15.6766C1535.23 18.5267 1536.59 21.3768 1537.95 24.2266C1539.52 22.8267 1542.53 23.9368 1544.68 24.8367C1551.07 27.5266 1559.59 27.2968 1565.7 24.2968C1566.64 25.0268 1567.58 25.7567 1568.52 26.4866C1572.07 24.1668 1577.39 22.7967 1582.08 22.0767C1582.45 21.2967 1584.18 21.7666 1584.71 22.4966C1585.23 23.2266 1585.53 24.2267 1586.62 24.4569C1588.47 24.8568 1589.35 22.6965 1591.15 22.1765C1592.1 21.8767 1593.19 22.1167 1594.18 22.3467C1596.82 22.9666 1599.47 23.5967 1602.11 24.2366C1605.73 25.0867 1610.29 25.7967 1612.9 23.7866C1614.44 25.3366 1617.58 25.5367 1620.13 25.0267C1622.69 24.5367 1624.99 23.4967 1627.56 23.0667C1628.96 22.8267 1630.46 22.7667 1631.74 22.2767C1632.86 21.8568 1633.72 21.1668 1634.6 20.5067C1637.38 18.4266 1640.6 16.6566 1644.12 15.2767C1644.76 15.0267 1645.44 14.7767 1646.18 14.7767C1647.81 14.7767 1648.91 15.9168 1650.26 16.5667C1653.96 18.3667 1658.83 16.3366 1662.33 14.3466C1665.84 12.3566 1670.56 10.2366 1674.39 11.8867C1675.34 12.3066 1676.11 12.9264 1677.08 13.3165C1678.08 13.7264 1679.23 13.8767 1680.36 14.0266C1685.73 14.7068 1691.09 15.3966 1696.44 16.0765C1697.67 18.3966 1699.37 20.3765 1700.58 22.6866C1704.84 23.8765 1709.46 24.5965 1713.95 24.0565C1718.6 23.4964 1722.89 21.5465 1725.59 18.7665C1728.3 20.6166 1730.99 22.4766 1733.68 24.3267C1734.23 24.7166 1734.83 25.1167 1735.56 25.2767C1736.48 25.4767 1737.47 25.2667 1738.44 25.2767C1740.95 25.3167 1742.92 26.7766 1744.58 28.1467C1745.63 27.4265 1746.66 26.7068 1747.69 25.9966C1748.87 26.3367 1750.04 26.6869 1751.22 27.0267C1753.71 21.5467 1765.9 21.6667 1769.4 16.4866C1770.7 19.1868 1775.6 19.6766 1779.56 19.6967C1780.97 19.707 1782.37 19.7266 1783.78 19.7366C1788.42 19.7766 1793.94 19.4766 1796.3 16.5867C1802.74 19.2068 1810.66 15.5568 1818.04 15.8668C1820.16 15.9569 1822.27 16.3868 1824.13 17.1168C1825.66 16.8168 1827.02 16.0868 1827.85 15.1168C1829.53 15.4967 1832.4 15.1067 1833.74 15.9265C1836.28 17.4665 1840.09 17.8266 1843.09 16.7966C1849.16 17.8166 1855.69 17.3768 1861.41 15.5767C1862.16 17.7867 1865.15 19.4367 1868.29 19.5566C1871.42 19.6867 1874.53 18.3868 1876.16 16.4368C1879.85 21.2666 1886.9 24.6667 1894.49 25.2665C1895.99 25.3866 1897.53 25.4064 1898.93 25.8065C1900.23 26.1764 1901.32 26.8565 1902.52 27.3666C1906.91 29.2365 1913.01 28.6765 1916.62 26.0767C1917.77 26.3967 1918.9 26.7564 1920 27.1666Z" fill="#2F2104"/>
</svg>
