<svg width="248" height="36" viewBox="0 0 248 36" fill="none" xmlns="http://www.w3.org/2000/svg">
<g clip-path="url(#clip0_2242_1238)">
<path d="M192.597 36C191.941 36 191.284 35.9955 190.628 35.991C190.628 35.991 189.856 35.9854 189.498 35.9837C189.444 35.9848 189.389 35.9854 189.334 35.9854C188.736 35.9854 188.175 35.9168 187.622 35.7759L187.467 35.7473C186.952 35.652 186.512 35.5006 186.158 35.3478C185.301 35.7636 184.334 35.9792 183.293 35.9808C182.534 35.9818 181.777 35.9823 181.019 35.9823L179.089 35.9813C178.639 35.9813 178.202 35.9343 177.781 35.8408C177.331 35.9345 176.864 35.9818 176.387 35.9818L173.948 35.9829C173.417 35.9829 172.886 35.9821 172.356 35.9791C171.65 35.9791 171.086 35.8359 170.837 35.7683C170.007 35.568 169.25 35.2043 168.585 34.6868L168.482 34.607L168.384 34.5217C168.251 34.4073 168.139 34.2999 168.051 34.2136C167.891 34.0885 167.74 33.9562 167.596 33.8172C166.452 35.1985 164.733 35.9866 162.674 35.9887L161.123 35.9909C160.277 35.9922 159.431 35.9936 158.585 35.9936C157.362 35.9936 156.138 35.9908 154.914 35.981L154.873 35.9806C154.702 35.9788 154.304 35.9745 153.811 35.8832L153.707 35.8642L153.6 35.8393C152.785 35.6528 152.013 35.298 151.309 34.7859L151.145 34.6669L150.99 34.5331C150.903 34.4589 150.817 34.3796 150.724 34.2907C150.415 34.0503 150.128 33.7806 149.866 33.4855C148.749 35.0347 146.964 35.9611 144.865 35.9779C144.271 35.9828 143.676 35.9841 143.082 35.9841L140.871 35.9813C140.835 35.9819 140.799 35.9822 140.763 35.9822C140.254 35.9822 139.76 35.924 139.286 35.8087C138.791 35.9238 138.276 35.9818 137.746 35.9818L135.261 35.9829C134.717 35.9829 134.174 35.9821 133.63 35.9793L133.416 35.9781L133.204 35.9588C132.743 35.9169 132.294 35.8284 131.86 35.6941C130.905 35.9923 130.113 35.9923 129.789 35.9923L128.105 35.9933C127.415 35.9933 126.601 35.9915 125.778 35.9784L125.67 35.9757C124.998 35.9505 124.468 35.8148 124.172 35.7321C123.585 35.903 122.967 35.9894 122.325 35.9903L121.178 35.9932C120.64 35.9949 120.099 35.9966 119.559 35.9966C118.911 35.9966 118.262 35.9942 117.613 35.9866C117.499 35.992 117.384 35.9948 117.269 35.9948C116.286 35.9948 115.47 35.7995 114.797 35.6034C114.776 35.598 114.755 35.5927 114.735 35.5873C114.021 35.4428 113.382 35.1996 112.789 34.8465C112.768 34.8581 112.747 34.8696 112.726 34.881C111.421 35.5933 109.943 35.9642 108.332 35.9833C107.429 35.9939 106.526 35.9995 105.624 35.9995C104.629 35.9995 103.623 35.9926 102.635 35.979C102.022 35.9759 101.524 35.8713 101.178 35.7793L101.16 35.776L100.99 35.7312C100.683 35.6501 100.385 35.5427 100.1 35.4109C99.2903 35.7798 98.3812 35.9763 97.3994 35.989C97.0144 35.9942 96.6298 35.9956 96.2452 35.9956L94.3127 35.9923L92.2562 35.9936C91.3631 35.9936 90.4716 35.9914 89.5801 35.9814L89.5702 35.9815C88.8929 35.9815 88.2408 35.869 87.5651 35.6376C87.0644 35.4653 86.6003 35.2367 86.144 34.9378C85.5608 34.5633 85.1413 34.1673 84.8072 33.8264C84.7912 33.8127 84.7755 33.7989 84.76 33.7854C83.5949 35.2139 81.8415 35.9905 79.65 35.9905L78.8849 35.99L75.4541 35.9931C74.0825 35.9931 73.0331 35.9884 72.0492 35.9782L71.6936 35.9746L71.3417 35.9204C71.09 35.8816 70.6884 35.8197 70.2077 35.6716C69.5448 35.8874 68.8331 35.9961 68.0796 35.9961C67.5965 35.9943 67.1462 35.9936 66.6956 35.9936L63.6825 35.9967C62.3968 35.9967 61.4127 35.9914 60.4888 35.9793L60.3186 35.9771L60.1485 35.9633C59.6779 35.9248 59.2202 35.8405 58.7787 35.7113C58.1409 35.9004 57.46 35.9937 56.7217 35.9942L55.3135 35.9954C54.5917 35.9954 53.7391 35.9936 52.8658 35.9798C52.2039 35.9768 51.6756 35.8532 51.4073 35.7819L51.2494 35.7417C50.8418 35.6362 50.4506 35.4884 50.0772 35.2991C48.8992 35.7559 47.6973 35.9878 46.4952 35.9896L44.8838 35.9931C43.9829 35.9953 43.0813 35.9975 42.1794 35.9975C40.7301 35.9975 39.5441 35.9917 38.4438 35.9795L38.3171 35.9781L38.1916 35.9703C37.2806 35.9138 36.4135 35.6678 35.6013 35.2365C34.5287 35.6564 33.3451 35.876 32.0649 35.8913C31.3286 35.8998 30.5928 35.9023 29.8567 35.9023C29.3655 35.9023 26.8337 35.8978 26.8337 35.8978C26.2213 35.8943 25.6981 35.8175 25.2863 35.7393C24.6214 35.6909 24.126 35.5349 23.8921 35.4596L23.5193 35.3439L23.4385 35.3051C22.5728 35.7399 21.5882 35.9755 20.5447 35.9869C20.0473 35.9924 19.5495 35.9945 19.0518 35.9945C18.2385 35.9945 17.4252 35.9887 16.612 35.9821L16.564 35.9824C16.3762 35.9824 16.1858 35.9747 15.9816 35.9585L15.8883 35.9511L15.7958 35.9404C15.0402 35.8519 14.4029 35.6299 13.8889 35.3782C13.0252 35.7863 12.0596 35.9922 11.0034 35.9922L9.46006 35.993C8.78362 35.993 7.98525 35.9913 7.17689 35.979C6.57323 35.9756 6.08444 35.8738 5.74367 35.7843L5.6799 35.7723L5.4664 35.7122C4.71852 35.5014 4.03122 35.1539 3.42307 34.6793L3.31847 34.5975L3.21959 34.5115C3.09229 34.4009 2.98477 34.2989 2.89942 34.2146C2.62375 33.9983 2.36526 33.7558 2.12752 33.4904C1.96988 33.3508 1.82038 33.2028 1.68102 33.0483L1.52556 32.876L1.41851 32.7324C1.25136 32.5254 0.911068 32.0964 0.620265 31.4877L0.437982 31.106L0.322395 30.6991C0.0128399 29.6083 0.0151371 28.6363 0.0164855 28.0556L0.0166103 27.9537C0.0175842 25.4681 0.0169849 22.9805 0.0163606 20.493C0.0153369 16.2563 0.014363 12.0202 0.0209552 7.78393C0.0196068 7.66567 0.0208303 7.54764 0.022778 7.42938L0.0240015 7.35904C0.0171847 7.08434 0.021929 6.8071 0.0383844 6.5135C0.0477731 6.23149 0.0825317 5.51202 0.40672 4.66938L0.73298 3.50292L1.44428 2.65481C1.73216 2.31109 2.40079 1.51259 3.53641 0.944298C3.90851 0.739592 4.86832 0.244333 6.20412 0.244333H6.23461C6.85033 0.240188 7.48252 0.238965 8.11469 0.238965L10.481 0.240663C11.3528 0.240663 12.1843 0.397101 12.9434 0.69984C13.4648 0.495384 14.0233 0.355276 14.6156 0.281139L14.9016 0.245407L15.8944 0.236018C16.5555 0.229201 17.2188 0.222609 17.882 0.222609C18.6321 0.222609 19.2931 0.231274 19.9031 0.249178L20.3149 0.261138L20.72 0.340643C21.3678 0.467941 21.9662 0.671174 22.5116 0.948443C22.6983 0.876753 22.8813 0.811756 23.0601 0.750429L23.4655 0.611195L25.2565 0.324063L28.926 0.325412L30.7976 0.324063C31.4757 0.324063 32.2134 0.342966 33.0242 0.480377L33.3292 0.53194L34.7871 0.969892C35.4783 0.564851 36.2478 0.326385 37.0779 0.260164L37.2528 0.246256L37.4269 0.244558C38.485 0.23457 39.5416 0.232248 40.5986 0.232248L43.4133 0.234071C44.2321 0.234071 45.0528 0.232597 45.8731 0.227004H45.9203C46.9286 0.227004 47.7366 0.432559 48.4596 0.654843L48.5849 0.693372L48.7062 0.737744C48.8787 0.800669 49.0461 0.866615 49.2087 0.935758C49.933 0.526696 50.7524 0.290903 51.5919 0.251525L51.6856 0.24738L51.7741 0.246406C52.4129 0.240188 53.0487 0.238241 53.6847 0.238241C54.2375 0.238241 54.7904 0.239714 55.3433 0.241287L55.9252 0.24286C56.5824 0.244433 57.2119 0.335275 57.8079 0.513787C58.2676 0.380646 58.6444 0.326136 58.8595 0.295048L59.1993 0.245782L59.5431 0.243584C60.143 0.240038 60.7415 0.239189 61.3403 0.239189L63.6367 0.239689C64.8213 0.239689 65.912 0.513287 66.878 1.05292L67.0354 1.14084L67.1858 1.2396C67.307 1.31945 67.4193 1.40018 67.5229 1.47941C68.0158 1.11365 68.559 0.835028 69.1491 0.646303C69.3697 0.557659 69.5974 0.482199 69.8285 0.421597L69.9484 0.390009L70.0704 0.364415C70.4737 0.279566 70.8876 0.238216 71.3344 0.238216L71.4941 0.239314L78.9839 0.238465C79.3421 0.238465 80.0822 0.238465 80.9635 0.491463C81.8384 0.726408 82.6401 1.16411 83.3466 1.79288L83.4259 1.86348L83.5018 1.93686C83.5909 2.02356 83.6753 2.11011 83.7587 2.1979L83.9031 2.34592C83.9031 2.34592 83.9872 2.42957 83.9885 2.4309C84.5798 1.75618 85.2744 1.23385 86.063 0.871959C86.6152 0.579833 87.2193 0.385839 87.8609 0.294898L88.1782 0.249702L88.5 0.245807C89.9555 0.227279 91.3806 0.224832 92.4594 0.224832C93.0798 0.224832 96.4907 0.228377 96.4907 0.228377C97.6782 0.228377 98.7724 0.505022 99.7413 1.05087C100.446 0.763239 101.216 0.552191 102.062 0.413581C102.833 0.247879 103.513 0.224956 104.08 0.224956L104.42 0.22593L108.817 0.225805C109.26 0.225805 110.084 0.225805 111.05 0.526222C111.507 0.666554 111.946 0.863344 112.362 1.11439C112.727 0.945172 113.105 0.801668 113.494 0.684483C114.333 0.352005 115.048 0.288955 115.364 0.261038L115.566 0.243235L115.769 0.241761C117.212 0.231998 118.653 0.224457 120.095 0.224457C120.466 0.224457 121.251 0.226155 121.251 0.226155C121.468 0.22628 121.881 0.22653 122.389 0.306384L122.521 0.327234L122.65 0.354677C123.541 0.544026 124.378 0.909789 125.138 1.44225C125.657 1.08306 126.298 0.759968 127.084 0.543426C127.692 0.341268 128.323 0.238865 128.961 0.238865C129.195 0.239839 129.403 0.240213 129.612 0.240213L131.49 0.237167C132.079 0.237167 132.664 0.239739 133.248 0.249128L133.738 0.256694L134.218 0.359845C134.638 0.450188 135.567 0.650024 136.534 1.29635C136.79 1.12955 137.06 0.980679 137.344 0.850834L137.835 0.625753L138.547 0.471387C139.18 0.299468 139.844 0.215842 140.574 0.215842C140.757 0.215842 140.94 0.221211 141.123 0.227553L141.151 0.228527C141.207 0.2306 141.264 0.233272 141.321 0.233272C142.419 0.224857 143.516 0.223159 144.614 0.223159L147.037 0.224132L148.062 0.223408C148.961 0.223408 149.783 0.341792 150.576 0.585276C150.816 0.656591 151.106 0.74963 151.427 0.876928C151.875 0.681362 152.255 0.580532 152.491 0.522626C153.09 0.334001 153.7 0.238415 154.309 0.238415C154.739 0.239389 155.155 0.239889 155.572 0.239889L159.052 0.236967C160.118 0.236967 161.181 0.239289 162.245 0.248553L162.67 0.252199L163.089 0.327659C163.926 0.478978 164.715 0.789508 165.432 1.25063L165.548 1.32524L165.691 1.42767C165.856 1.54386 166.184 1.77685 166.539 2.12324C166.539 2.12324 166.783 2.36745 166.789 2.37307L167.817 1.3183L168.871 0.876079C169.664 0.45678 170.508 0.244383 171.382 0.244383C173.243 0.227079 175.101 0.224757 176.67 0.224757L179.647 0.22623C180.369 0.226604 181.033 0.319144 181.676 0.508967L181.782 0.540555L181.857 0.566049L181.961 0.593491C182.397 0.709553 183.185 0.919153 184.034 1.42427C184.382 1.23116 184.742 1.06385 185.114 0.920851C186.113 0.467167 187.159 0.237092 188.226 0.237092L188.3 0.237691C189.117 0.233921 189.934 0.232572 190.751 0.231224C191.714 0.229651 192.652 0.228053 193.59 0.222559L193.655 0.222434C194.762 0.222434 195.766 0.370932 196.731 0.676243L196.855 0.717443C197.429 0.915932 197.951 1.14711 198.429 1.41583C199.761 0.710752 200.996 0.495059 201.505 0.406165L201.927 0.332278L203.794 0.329607C204.968 0.327784 206.141 0.326061 207.315 0.325586L207.89 0.322665C208.463 0.322665 209.21 0.342042 210.025 0.493835L210.323 0.549194L210.613 0.640635C210.665 0.656966 210.811 0.700489 210.811 0.700489C211.036 0.767434 211.332 0.855454 211.67 0.980904C211.772 0.930664 211.875 0.883121 211.981 0.838374C212.636 0.509067 213.329 0.315673 214.041 0.263261L214.167 0.254122L214.29 0.251325C215.208 0.229876 216.093 0.227054 216.762 0.227054C217.14 0.227054 218.739 0.230949 218.739 0.230949C219.58 0.232048 220.388 0.388586 221.144 0.696818L221.743 0.566599L223.698 0L223.816 0.269828C224.288 0.241287 224.791 0.228003 225.364 0.228003C225.744 0.228003 226.125 0.233971 226.506 0.240188C226.844 0.245682 227.165 0.250925 227.485 0.250925C227.612 0.250925 227.739 0.250076 227.866 0.247879L227.942 0.247155C228.921 0.24703 229.858 0.485396 230.748 0.955909L230.833 0.922124C231.792 0.466243 232.813 0.235319 233.871 0.235319C233.914 0.235319 233.957 0.235694 234 0.236543C235.366 0.228003 236.732 0.224956 238.098 0.224956L239.682 0.224707C239.93 0.224707 240.31 0.232023 240.753 0.295422L240.957 0.324438L241.157 0.370158C241.606 0.472461 242.655 0.711675 243.724 1.50113C244.075 1.75633 244.332 2.00298 244.496 2.16696L244.573 2.24584C244.592 2.26619 244.611 2.28694 244.632 2.30657L244.706 2.37741L244.776 2.44983C244.811 2.48556 244.855 2.52823 244.899 2.57041C245.349 2.98713 245.663 3.40254 245.85 3.65067L246.105 3.9812L246.264 4.2493C246.608 4.83126 246.846 5.46757 246.973 6.14254C246.996 6.23241 247.021 6.3442 247.046 6.47087C247.148 6.94371 247.221 7.38531 247.286 7.77632C247.336 8.07541 247.383 8.3573 247.433 8.59347L247.508 8.9451L247.532 9.30417C247.538 9.35233 247.579 9.56094 247.607 9.69897C247.653 9.93392 247.698 10.168 247.736 10.4033C247.989 11.9693 247.69 13.4856 246.936 14.7258C247.093 15.0228 247.245 15.3627 247.371 15.7466L247.394 15.8129C247.45 15.9741 247.521 16.1832 247.583 16.4158L247.617 16.5383L247.636 16.6281L247.646 16.6622C247.714 16.919 247.839 17.3835 247.889 17.98C248.004 18.791 247.996 19.485 247.989 20.0471C247.988 20.1546 247.986 20.2619 247.987 20.3693L247.988 21.3331C247.991 22.9331 247.994 24.5879 247.983 26.2435C247.974 27.6682 247.784 28.9395 247.402 30.1301C246.613 32.5916 244.863 34.4398 242.474 35.3342C241.3 35.7739 240.173 35.9879 239.027 35.9883C238.563 35.9886 236.469 35.9936 235.967 35.9936C234.943 35.9936 234.113 35.9886 233.354 35.9779L233.181 35.9754L233.009 35.961C232.275 35.8996 231.687 35.7228 231.256 35.5755L231.144 35.5371C230.382 35.8406 229.55 35.9937 228.654 35.9941L227.805 35.9942C226.893 35.9942 225.83 35.9932 224.763 35.9815C224.579 35.981 224.39 35.973 224.205 35.9571L224.077 35.9463L223.947 35.9285C223.305 35.8399 222.689 35.6522 222.114 35.3726C221.25 35.7894 220.297 35.9936 219.223 35.9936H218.912C217.748 35.9936 216.545 35.9936 215.347 35.9794L215.29 35.9783C214.83 35.9659 214.417 35.9101 214.01 35.8073L213.876 35.7715C213.405 35.6385 212.956 35.4598 212.531 35.2364C211.342 35.683 210.061 35.9011 208.641 35.9011L208.509 35.9005C207.897 35.8943 207.299 35.8923 206.7 35.8923C206.195 35.8923 205.69 35.8937 205.185 35.895L203.664 35.8978L203.567 35.8941C202.851 35.8667 202.254 35.7344 201.897 35.6556L201.852 35.6456C201.813 35.6368 201.773 35.6269 201.733 35.6201L201.259 35.539L200.38 35.2074C199.977 35.0963 199.625 34.949 199.331 34.799C198.041 35.5338 196.546 35.9351 194.915 35.9749C194.215 35.9921 193.478 36 192.597 36Z" fill="#A00000"/>
<path d="M245.493 20.3749C245.492 20.2555 245.494 20.1361 245.495 20.0168C245.502 19.4935 245.508 18.9069 245.408 18.2575C245.382 17.8511 245.293 17.5211 245.236 17.3077C245.226 17.2704 245.216 17.2333 245.207 17.1958L245.194 17.132L245.176 17.0691C245.135 16.918 245.086 16.7699 245.035 16.6224L245.006 16.5391C244.778 15.8366 244.401 15.3529 244.151 15.0311C244.107 14.9754 244.063 14.9209 244.023 14.8627L243.895 14.6745L243.744 14.521C244.925 13.7488 245.529 12.3767 245.274 10.8036C245.241 10.5964 245.201 10.3902 245.16 10.1841C245.107 9.91382 245.056 9.6585 245.044 9.47L245.032 9.29042L244.994 9.11448C244.932 8.82527 244.881 8.51472 244.826 8.18601C244.761 7.7945 244.694 7.39033 244.601 6.96604C244.58 6.85168 244.556 6.75327 244.535 6.67379L244.529 6.641C244.457 6.23866 244.319 5.86191 244.118 5.52112L244.037 5.3843L243.861 5.15643C243.705 4.9499 243.492 4.66848 243.186 4.38477C243.117 4.3188 243.048 4.25188 242.982 4.18324L242.948 4.1486L242.913 4.11532C242.864 4.0685 242.817 4.01961 242.77 3.97059L242.731 3.93059C242.616 3.815 242.459 3.66578 242.251 3.51556C241.6 3.03151 240.931 2.87887 240.605 2.80461L240.505 2.78181L240.403 2.7673C240.12 2.72695 239.871 2.72171 239.685 2.72171L238.101 2.72196C236.73 2.72196 235.358 2.725 233.986 2.73367C233.949 2.73282 233.911 2.73232 233.874 2.73232C233.165 2.73232 232.481 2.89313 231.84 3.21062L231.214 3.45728C230.934 3.5471 230.689 3.66446 230.471 3.79303C230.278 3.62273 230.062 3.45099 229.806 3.29035L229.768 3.26633L229.729 3.24378C229.148 2.90751 228.572 2.74401 227.967 2.74401L227.912 2.74451C227.77 2.74695 227.629 2.74793 227.488 2.74793C227.148 2.74793 226.808 2.74231 226.468 2.73684C226.101 2.73087 225.734 2.725 225.367 2.725C224.475 2.725 223.778 2.75986 223.107 2.83814L222.984 2.8524L222.453 2.96799L222.632 3.78988L222.291 3.00834C221.87 3.13027 221.489 3.32326 221.16 3.57761C220.982 3.4408 220.794 3.31425 220.596 3.19879L220.511 3.14892L220.422 3.106C219.905 2.8558 219.337 2.72865 218.736 2.7279C218.736 2.7279 217.141 2.72401 216.765 2.72401C216.109 2.72401 215.243 2.72668 214.352 2.74753L214.29 2.749L214.227 2.75352C213.688 2.79315 213.283 2.97371 213.034 3.10612C212.683 3.24586 212.372 3.43398 212.105 3.66893C212.026 3.72771 211.951 3.78976 211.879 3.85416L211.849 3.83036L211.702 3.74366C211.111 3.39411 210.527 3.22011 210.1 3.09306C210.021 3.06964 209.943 3.04637 209.865 3.02185L209.72 2.97625L209.571 2.94859C208.96 2.83495 208.387 2.81959 207.906 2.81959L207.319 2.82251C206.146 2.82301 204.974 2.82471 203.801 2.82653L202.149 2.82885L201.938 2.86591C200.964 3.03591 199.573 3.38684 198.404 4.4627C198.244 4.32077 198.074 4.17809 197.884 4.03846C197.369 3.63929 196.782 3.33313 196.042 3.07733L195.98 3.05673C195.263 2.8297 194.505 2.71936 193.664 2.71936L193.608 2.71949C192.658 2.72498 191.708 2.72655 190.758 2.72815C189.94 2.7295 189.121 2.73082 188.303 2.73462C188.278 2.73424 188.253 2.73402 188.229 2.73402C187.497 2.73402 186.776 2.89922 186.082 3.22526C185.344 3.49861 184.666 3.91418 184.022 4.48555C183.904 4.381 183.775 4.27371 183.627 4.16808C183.452 4.03299 183.287 3.9218 183.152 3.83046C183.094 3.79133 183.036 3.75243 182.979 3.71183L182.927 3.67427L182.872 3.63941C182.283 3.26241 181.704 3.1083 181.321 3.00637C181.239 2.98442 181.156 2.96454 181.076 2.937L181.024 2.91932L180.972 2.90372C180.561 2.78251 180.129 2.72338 179.649 2.72316L176.673 2.72168C175.111 2.72168 173.263 2.72401 171.385 2.74131C170.71 2.74131 170.204 2.98979 169.958 3.12927L169.254 3.42457L168.398 4.30242L167.889 5.62617L167.852 5.93402C167.742 6.84658 167.686 7.70593 167.676 8.55337H166.986C166.962 8.40363 166.936 8.25355 166.914 8.10613L166.904 8.03981C166.88 7.90277 166.853 7.76646 166.825 7.63015C166.797 7.49444 166.771 7.36641 166.76 7.28216L166.74 7.11818L166.699 6.95823C166.688 6.91615 166.68 6.87348 166.671 6.83105C166.645 6.70548 166.618 6.58013 166.585 6.456C166.485 6.05378 166.315 5.67433 166.081 5.32685C165.886 5.02813 165.652 4.74806 165.361 4.46935C165.237 4.35034 165.115 4.22916 164.995 4.10663L164.795 3.90789C164.578 3.6955 164.371 3.55004 164.247 3.46312L164.145 3.38974L164.086 3.35121C163.645 3.06822 163.162 2.87765 162.648 2.78498L162.439 2.74718L162.226 2.74535C161.17 2.73622 160.114 2.73389 159.057 2.73389L155.575 2.73681C155.156 2.73681 154.738 2.73632 154.312 2.73534C153.932 2.73534 153.559 2.79802 153.176 2.92651L153.155 2.93163C152.831 3.00996 152.157 3.17834 151.545 3.73637L151.532 3.72793C150.923 3.32204 150.319 3.11247 149.857 2.97553C149.302 2.80386 148.719 2.72033 148.067 2.72033L147.039 2.72106L144.617 2.72008C143.525 2.72008 142.434 2.72178 141.324 2.7302C141.229 2.7302 141.134 2.72643 141.039 2.72301C140.885 2.71764 140.731 2.71277 140.577 2.71277C140.233 2.71277 139.722 2.73289 139.15 2.89627L138.632 3.00857L138.386 3.12111C137.816 3.38239 137.114 3.87533 136.655 4.79661C136.594 4.73418 136.539 4.68029 136.491 4.6342C136.469 4.61298 136.447 4.59203 136.427 4.57127L136.377 4.51751L136.323 4.46667C136.224 4.37244 136.127 4.27635 136.031 4.17894L135.981 4.12955C135.949 4.09894 135.919 4.067 135.881 4.02737C135.881 4.02737 135.776 3.91448 135.741 3.8785C135.007 3.08283 134.126 2.89335 133.697 2.80106L133.457 2.7495L133.212 2.74573C132.64 2.73659 132.069 2.73414 131.497 2.73414L129.615 2.73719C129.403 2.73719 129.191 2.73681 128.964 2.73584C128.573 2.73584 128.187 2.80216 127.815 2.93348C127.335 3.05821 126.435 3.36167 125.769 4.261L125.618 4.46523L125.442 4.84308C125.397 4.92051 125.354 4.99901 125.315 5.07864C125.16 4.87319 124.981 4.67313 124.774 4.47267C124.653 4.35573 124.532 4.23797 124.416 4.11629L124.376 4.07399L124.285 3.98585C124.17 3.87089 123.996 3.69702 123.753 3.51936L123.718 3.49436C123.232 3.15174 122.699 2.91717 122.134 2.79719L122.069 2.78341L122.004 2.77305C121.69 2.72366 121.424 2.72331 121.248 2.72318C121.248 2.72318 120.467 2.72148 120.098 2.72148C118.662 2.72148 117.226 2.72905 115.79 2.73866L115.688 2.73939L115.587 2.74828C115.35 2.76925 114.864 2.81205 114.324 3.0443C113.517 3.27133 112.791 3.65135 112.15 4.1741C112.08 4.10501 112.018 4.04191 111.967 3.9869L111.934 3.95141C111.443 3.43556 110.912 3.09489 110.311 2.91043C109.708 2.72278 109.167 2.72278 108.82 2.72278L104.416 2.72291L104.083 2.72193C103.608 2.72193 103.092 2.74046 102.532 2.86751C101.677 3.00235 100.531 3.27412 99.4754 4.02615C99.4613 4.01152 99.4474 3.99664 99.4334 3.982C99.2839 3.82654 99.0581 3.59147 98.7395 3.36591L98.6377 3.29385L98.529 3.23215C97.9281 2.89113 97.2627 2.7253 96.4912 2.7253C96.4912 2.7253 93.0824 2.72176 92.4624 2.72176C91.3929 2.72176 89.9796 2.72408 88.5332 2.74261L88.373 2.74456L88.2143 2.7671C87.7982 2.82611 87.4546 2.95413 87.1736 3.11179C86.5054 3.40235 85.9386 3.89576 85.4841 4.58403L85.2004 5.0137L85.0906 5.62734L85.0641 5.75841C84.8778 6.32438 84.8694 6.84231 84.8869 7.24783L84.8899 7.30269C84.8914 7.34269 84.89 7.38267 84.8895 7.42267C84.8888 7.48874 84.8882 7.55484 84.8887 7.59691C84.8882 7.91571 84.8887 8.23453 84.8883 8.55332H84.1556C84.0827 8.1306 84.008 7.70341 83.9266 7.2732C83.8929 7.01276 83.8388 6.79964 83.8007 6.65029L83.7579 6.47668L83.734 6.40461L83.7281 6.38241C83.6789 6.19721 83.5874 5.85265 83.3618 5.46773L83.2974 5.35799L83.2222 5.25533C82.9901 4.93834 82.754 4.71118 82.5815 4.54523C82.5435 4.50877 82.505 4.47304 82.4689 4.43476L82.4155 4.37796L82.3587 4.32467C82.307 4.27615 82.256 4.22739 82.2064 4.17702L82.1621 4.13287C82.134 4.10581 82.1071 4.07764 82.08 4.04985L81.9629 3.92974C81.8988 3.86232 81.8344 3.7955 81.768 3.731L81.7296 3.69382L81.6896 3.65821C81.2701 3.28489 80.8028 3.02944 80.2986 2.89752C79.7489 2.73622 79.2672 2.73537 78.9868 2.73537C78.9852 2.73537 71.4774 2.73622 71.4774 2.73622L71.3372 2.73512C71.1639 2.73512 70.8972 2.74268 70.5859 2.80815L70.5255 2.82084L70.4657 2.83657C70.3055 2.87865 70.1499 2.93253 70.0001 2.99788C68.8099 3.34257 68.2442 4.24407 68.0297 4.58596L67.9997 4.63338C67.883 4.80445 67.7857 4.98635 67.7079 5.17813C67.5345 4.94915 67.3656 4.7842 67.2569 4.678L67.2194 4.64154L67.1665 4.58473L67.1101 4.5312C67.0396 4.46438 66.9706 4.39611 66.9035 4.32599L66.8443 4.26601C66.7558 4.17944 66.6553 4.08131 66.5873 4.00558L66.5493 3.9634L66.4795 3.89196C66.361 3.76858 66.1402 3.53886 65.8179 3.32671L65.7422 3.27697L65.663 3.23272C65.0654 2.8989 64.4053 2.73662 63.6391 2.73662L61.3432 2.73612C60.7494 2.73612 60.1557 2.73696 59.562 2.74051L59.3899 2.74161L59.2197 2.76623C58.9119 2.81068 58.372 2.88946 57.7961 3.19864C57.2442 2.89715 56.6166 2.74151 55.9215 2.73979L55.3732 2.73831C54.8114 2.73674 54.2494 2.73514 53.6876 2.73514C53.0597 2.73514 52.4319 2.73709 51.804 2.74318L51.7577 2.74368L51.7115 2.74575C51.2163 2.76893 50.7492 2.91548 50.3446 3.16615C50.1419 3.25929 49.9851 3.35707 49.8792 3.42597L49.8152 3.46377C49.6387 3.56795 49.4788 3.69542 49.3291 3.83418C48.9061 3.53671 48.427 3.29288 47.8514 3.08275L47.7907 3.06055L47.729 3.04153C47.2291 2.88791 46.6361 2.72391 45.9232 2.72391H45.8931C45.067 2.72952 44.2406 2.73097 43.4146 2.73097L40.6015 2.72915C39.5524 2.72915 38.5036 2.73147 37.4544 2.74133L37.3668 2.74218L37.2793 2.74912C36.7183 2.79387 36.2795 2.97346 35.9449 3.1905L35.6437 3.32706L35.5391 3.38974C35.4201 3.45636 35.1669 3.60158 34.9019 3.8582L34.1495 3.38462L32.7628 2.96799L32.6099 2.94214C31.9499 2.83033 31.3307 2.82094 30.8023 2.82094L28.9281 2.82229L25.4578 2.82106L24.0759 3.0426L23.8732 3.11222C23.3709 3.28451 22.8359 3.48355 22.2874 3.83088C21.4981 3.03815 20.5677 2.85485 20.2413 2.7907L20.039 2.75095L19.833 2.74498C19.2461 2.7278 18.6089 2.71949 17.8848 2.71949C17.2302 2.71949 16.5755 2.72608 15.9208 2.73277L15.0719 2.74081L14.9285 2.75874C14.0486 2.86883 13.4028 3.18341 12.9336 3.55002L12.8405 3.47943C12.1896 2.98709 11.3963 2.73751 10.4821 2.73751L8.11759 2.73582C7.49089 2.73582 6.86421 2.73704 6.23751 2.74118H6.20702C5.47268 2.74118 4.93657 3.0243 4.69675 3.15744C4.00106 3.49406 3.58785 3.98762 3.36045 4.25915L2.99553 4.6943L2.77764 5.47327C2.56804 5.96633 2.54305 6.40246 2.53598 6.62547C2.52172 6.86786 2.5177 7.09524 2.52355 7.313C2.52477 7.36494 2.52317 7.417 2.52232 7.46894C2.52075 7.5693 2.5194 7.6695 2.52085 7.76986C2.51438 12.0107 2.51536 16.2514 2.51633 20.4924C2.51693 22.9804 2.51755 25.4685 2.51658 27.9569L2.51645 28.0615C2.51523 28.5688 2.51366 29.2638 2.72763 30.0175L2.78531 30.2208L2.87637 30.4115C3.05012 30.7752 3.25812 31.0326 3.36994 31.1708L3.39126 31.1969L3.46063 31.29L3.53841 31.3762C3.64681 31.4964 3.76579 31.6089 3.89443 31.7129C4.09085 31.9504 4.30996 32.1568 4.5499 32.3302L4.5505 32.3309C4.62536 32.4073 4.72789 32.5117 4.86093 32.6273L4.91042 32.6704L4.96223 32.7109C5.31374 32.9852 5.71194 33.1864 6.14587 33.3086L6.25292 33.3388L6.30338 33.3483C6.46639 33.3936 6.78998 33.481 7.20343 33.4821C7.99691 33.4943 8.78967 33.496 9.46161 33.496L11.0063 33.4952C11.3812 33.4952 12.5218 33.4952 13.5552 32.6606L13.6041 32.62C13.7048 32.5344 13.8005 32.4426 13.8909 32.3448C13.9056 32.3597 14.0151 32.4686 14.0151 32.4686L14.1021 32.5405C14.416 32.8003 15.0693 33.3408 16.0859 33.4599L16.1333 33.4654L16.1808 33.4692C16.3091 33.4793 16.4381 33.4854 16.5669 33.4854C16.5855 33.4854 16.6042 33.4853 16.6227 33.485C17.4332 33.4916 18.2439 33.4975 19.0546 33.4975C19.5432 33.4975 20.0317 33.4954 20.5203 33.49C21.6458 33.4777 22.5903 33.0812 23.255 32.3864C23.6456 32.6866 24.0241 32.8374 24.233 32.9197L24.2847 32.9403L24.437 33.0133L24.6456 33.078C24.8149 33.1326 25.1562 33.2421 25.6001 33.2556C25.9299 33.3229 26.3523 33.398 26.8409 33.4008C26.8409 33.4008 29.3691 33.4053 29.8596 33.4053C30.5859 33.4053 31.3119 33.4028 32.0382 33.3943C33.6791 33.3749 34.9027 32.9324 35.8144 32.3327C35.8535 32.3706 35.8915 32.4098 35.9314 32.447L36.0109 32.521L36.0965 32.5878C36.79 33.1289 37.5474 33.4284 38.3479 33.478L38.4111 33.4819L38.4744 33.4826C39.5683 33.4948 40.7454 33.5004 42.1787 33.5004C42.18 33.5004 42.1811 33.5004 42.1823 33.5004C43.0821 33.5004 43.9818 33.4982 44.8815 33.496L46.4944 33.4926C47.5569 33.491 48.6308 33.2428 49.686 32.7546L49.7959 32.7037L49.9002 32.6426C50.0324 32.5652 50.1561 32.4793 50.2804 32.3942C50.5543 32.6633 51.0834 33.1186 51.8762 33.3238L51.9517 33.3433L51.9773 33.3483C52.139 33.3929 52.4691 33.4828 52.8905 33.4828H52.8926C53.7544 33.4965 54.5997 33.4983 55.3143 33.4983L56.7229 33.4971C57.2378 33.4967 57.9953 33.4415 58.7704 33.0319L58.8086 33.051C59.2832 33.2869 59.8028 33.4294 60.3533 33.4744L60.4386 33.4813L60.5242 33.4824C61.4329 33.4943 62.407 33.4996 63.6827 33.4996L66.6985 33.4964C67.1523 33.4964 67.6057 33.4972 68.0825 33.499C68.8834 33.499 69.5882 33.3165 70.188 32.9549C70.7947 33.3092 71.377 33.3988 71.7245 33.4523L71.9003 33.4794L72.0782 33.4812C73.055 33.4915 74.0964 33.496 75.4548 33.496L78.8894 33.4929L79.6529 33.4934C81.9326 33.4934 83.3057 32.3507 83.734 30.0975C83.7464 30.0322 83.7577 29.9669 83.7688 29.9015L83.7814 29.8286C83.8493 29.4466 83.9141 29.064 83.9798 28.6815H84.8847C84.8902 28.9987 84.9179 29.4083 85.0579 29.8703C85.2049 30.3865 85.4473 30.7527 85.5807 30.954L85.6427 31.0465C85.7916 31.2601 85.9353 31.4123 86.0212 31.5031L86.0321 31.5148C86.1105 31.6099 86.2667 31.7968 86.5029 31.9873L86.5173 31.9989C86.5283 32.0104 86.5777 32.0625 86.5777 32.0625C86.8312 32.3221 87.1188 32.5956 87.5046 32.8421C87.7887 33.0291 88.0735 33.1707 88.3772 33.2752C88.7882 33.416 89.1757 33.4844 89.5617 33.4844L89.5912 33.4843C90.48 33.4943 91.3688 33.4965 92.2576 33.4965L94.3198 33.4952L96.2481 33.4985C96.6218 33.4985 96.9955 33.4971 97.3696 33.4922C98.5163 33.4772 99.4612 33.0856 100.131 32.3761C100.169 32.4121 100.209 32.4485 100.25 32.4851C100.617 32.8865 101.092 33.175 101.628 33.3163L101.715 33.3391L101.743 33.3444C101.909 33.3909 102.239 33.4811 102.66 33.482C103.636 33.4955 104.634 33.5024 105.626 33.5024C106.519 33.5024 107.412 33.4969 108.305 33.4863C109.508 33.4721 110.596 33.2022 111.541 32.6843C112.003 32.4372 112.419 32.1325 112.785 31.7783C112.914 31.8827 113.035 31.9727 113.138 32.0481C113.181 32.0802 113.225 32.112 113.268 32.1451C113.464 32.3018 113.645 32.4223 113.792 32.5199L113.96 32.6335L114.009 32.664C114.501 32.9703 114.973 33.0923 115.31 33.1547C115.352 33.1666 115.4 33.1798 115.454 33.193C115.971 33.3452 116.575 33.4977 117.272 33.4977C117.369 33.4977 117.467 33.4946 117.564 33.4887C118.23 33.497 118.896 33.4995 119.562 33.4995C120.1 33.4995 120.637 33.4978 121.175 33.4961L122.325 33.4932C122.992 33.4924 123.606 33.348 124.156 33.0635C124.284 33.1297 124.423 33.1913 124.575 33.245L124.654 33.2728L124.777 33.3073C124.983 33.3659 125.328 33.4639 125.766 33.4804L125.82 33.4818C126.628 33.4946 127.429 33.4963 128.106 33.4963L129.792 33.4953C130.109 33.4953 130.97 33.4953 131.854 32.9911C132.341 33.2594 132.872 33.4211 133.433 33.472L133.539 33.4817L133.646 33.4823C134.185 33.4851 134.724 33.4859 135.263 33.4859L137.748 33.4848C138.31 33.4848 138.833 33.3856 139.311 33.1891C139.701 33.3626 140.183 33.4852 140.766 33.4852C140.795 33.4852 140.823 33.4849 140.852 33.4843L143.085 33.4871C143.673 33.4871 144.26 33.4858 144.848 33.4809C146.739 33.4658 148.107 32.3504 148.504 30.4972L148.55 30.2872L148.558 30.0726C148.569 29.7984 148.568 29.5372 148.566 29.3068C148.566 29.3068 148.566 29.0242 148.566 28.6815H150.271C150.294 29.1406 150.365 29.6609 150.568 30.2131L150.595 30.285L150.625 30.3552C150.796 30.7444 151.008 31.0337 151.193 31.2655L151.24 31.325L151.291 31.3815C151.396 31.4975 151.511 31.6066 151.635 31.7076C151.848 31.9695 152.091 32.1995 152.36 32.3952C152.445 32.4801 152.532 32.5633 152.623 32.6414L152.699 32.7074L152.781 32.7669C153.211 33.0794 153.677 33.2946 154.166 33.4067L154.217 33.4185L154.269 33.428C154.549 33.4798 154.778 33.4824 154.902 33.4837L154.937 33.4841C156.154 33.4937 157.371 33.4965 158.588 33.4965C159.433 33.4965 160.277 33.4952 161.122 33.4938L162.674 33.4916C164.735 33.4896 166.137 32.3372 166.522 30.3295C166.622 29.8048 166.721 29.2619 166.822 28.6816H167.679C167.692 29.0781 167.741 29.5723 167.928 30.1036L167.996 30.2964L168.118 30.5202C168.243 30.7504 168.475 31.179 168.906 31.5765L169.037 31.6975L169.047 31.7044C169.231 31.9387 169.447 32.1444 169.701 32.3291L169.704 32.3313C169.775 32.4046 169.884 32.5154 170.02 32.6331L170.069 32.6759L170.121 32.7161C170.513 33.021 170.962 33.2336 171.457 33.348V33.3485C171.616 33.3919 171.945 33.4822 172.367 33.4822H172.373C172.898 33.4851 173.424 33.486 173.95 33.486L176.39 33.4849C176.898 33.4849 177.376 33.4034 177.816 33.2422C178.206 33.4049 178.627 33.4844 179.093 33.4844L181.022 33.4853C181.778 33.4853 182.535 33.4848 183.292 33.4839C184.612 33.4818 185.472 32.9692 186.015 32.4265L186.47 32.6974L186.6 32.7719C186.865 32.9238 187.308 33.178 187.923 33.2918L188.061 33.3172L188.097 33.3197C188.097 33.3197 188.157 33.3345 188.184 33.3411C188.551 33.4401 188.929 33.4883 189.337 33.4883C189.384 33.4883 189.431 33.4877 189.478 33.4865C189.85 33.4882 190.222 33.4909 190.594 33.4936C191.263 33.4982 191.932 33.503 192.6 33.503C193.459 33.503 194.177 33.4953 194.858 33.4787C196.65 33.435 198.192 32.807 199.306 31.7172C199.41 31.8199 199.546 31.9479 199.715 32.0783L199.836 32.172L199.896 32.2079C200.089 32.356 200.514 32.6743 201.14 32.8244L201.919 33.1182L202.156 33.1586C202.251 33.1749 202.345 33.1967 202.439 33.2175C202.749 33.2862 203.174 33.3802 203.664 33.399L203.712 33.4008C203.712 33.4008 204.707 33.3993 205.181 33.3981C205.688 33.3968 206.196 33.3954 206.703 33.3954C207.31 33.3954 207.917 33.3974 208.525 33.4036L208.644 33.4042C210.025 33.4042 211.22 33.1484 212.298 32.6222L212.418 32.5633L212.531 32.492C212.604 32.4462 212.675 32.3982 212.745 32.35L212.781 32.3826C213.293 32.8486 213.89 33.1803 214.557 33.3684L214.624 33.3864C214.852 33.4438 215.086 33.475 215.341 33.4819L215.379 33.4827C216.563 33.4967 217.759 33.4967 218.915 33.4967H219.226C219.791 33.4967 220.641 33.431 221.484 32.8631L221.523 32.8365L221.562 32.8084C221.764 32.6608 221.948 32.4969 222.113 32.3186C222.119 32.3248 222.159 32.3666 222.159 32.3666C222.751 32.9681 223.489 33.3444 224.292 33.455L224.356 33.4639L224.421 33.4694C224.545 33.48 224.67 33.4844 224.794 33.4848C225.848 33.4963 226.902 33.4973 227.808 33.4973L228.656 33.4972C229.624 33.4968 230.425 33.2388 231.105 32.7086L231.122 32.6948C231.338 32.8561 231.573 33.0008 231.836 33.1208L231.949 33.1726L232.067 33.213C232.38 33.32 232.762 33.4345 233.219 33.4728L233.305 33.48L233.392 33.4812C234.143 33.4918 234.963 33.4967 235.97 33.4967C236.507 33.4967 237.045 33.4953 237.582 33.4941C238.065 33.4929 238.547 33.4916 239.029 33.4914C239.871 33.4911 240.713 33.3289 241.602 32.9959C243.283 32.366 244.468 31.1117 245.027 29.368C245.33 28.4223 245.481 27.3949 245.489 26.2271C245.5 24.5938 245.497 22.9385 245.494 21.3376L245.493 20.3749Z" fill="url(#paint0_linear_2242_1238)"/>
</g>
<defs>
<linearGradient id="paint0_linear_2242_1238" x1="2.51563" y1="18.1079" x2="245.498" y2="18.1079" gradientUnits="userSpaceOnUse">
<stop stop-color="#8A0E13"/>
<stop offset="1" stop-color="#E1001A"/>
</linearGradient>
<clipPath id="clip0_2242_1238">
<rect width="247.977" height="36" fill="white" transform="translate(0.015625)"/>
</clipPath>
</defs>
</svg>
