<svg width="152" height="40" viewBox="0 0 152 40" fill="none" xmlns="http://www.w3.org/2000/svg">
<path d="M16.6055 39.9951L16.6055 -0.00485229L9.20547 -0.00483964L9.20554 39.9952L16.6055 39.9951Z" fill="#FF492C"/>
<path d="M7.37702 39.984L7.37695 -0.0159607L-0.0230465 -0.015948L-0.0229781 39.9841L7.37702 39.984Z" fill="#35414D"/>
<path d="M23.6808 20.76L28.3608 34.72L33.0008 20.76H37.9208V40H34.1608V34.72L34.5208 25.64L29.6408 40H27.0808L22.1608 25.68L22.5208 34.76V40H18.8008V20.76H23.6808Z" fill="#35414D"/>
<path d="M51.9211 36.04H45.3611L44.1211 40H40.1211L46.8811 20.76H50.3611L57.1611 40H53.1611L51.9211 36.04ZM46.4011 32.84H50.9611L48.6811 25.64L46.4011 32.84Z" fill="#35414D"/>
<path d="M65.8811 32.96H62.8811V40H59.1211V20.76H65.8811C68.0411 20.76 69.6811 21.28 70.8411 22.28C72.0011 23.28 72.6011 24.72 72.6011 26.56C72.6011 27.88 72.3211 28.96 71.8011 29.84C71.2811 30.72 70.4411 31.4 69.3611 31.92L73.2811 39.8V40H69.2411L65.8811 32.96ZM62.8811 29.72H65.9211C66.8811 29.72 67.6011 29.48 68.1211 28.96C68.6411 28.44 68.8811 27.76 68.8811 26.88C68.8811 25.96 68.6411 25.24 68.1611 24.72C67.6811 24.2 66.9211 23.96 65.9211 23.96H62.9211V29.72H62.8811Z" fill="#35414D"/>
<path d="M81.4016 32.28L79.4416 34.52V40H75.6816V20.76H79.4416V29.48L81.0816 27.08L85.7216 20.76H90.3216L83.8816 29.32L90.5216 40H86.0816L81.4016 32.28Z" fill="#35414D"/>
<path d="M103.161 31.64H95.9612V36.8H104.401V40H92.2012V20.76H104.361V23.96H95.9612V28.56H103.161V31.64Z" fill="#35414D"/>
<path d="M120.801 23.96H115.201V40H111.441V23.96H105.961V20.76H120.761V23.96H120.801Z" fill="#35414D"/>
<path d="M134.12 31.64H126.92V36.8H135.36V40H123.16V20.76H135.32V23.96H126.92V28.56H134.12V31.64Z" fill="#35414D"/>
<path d="M144.561 32.96H141.561V40H137.801V20.76H144.561C146.721 20.76 148.361 21.28 149.521 22.28C150.681 23.28 151.281 24.72 151.281 26.56C151.281 27.88 151.001 28.96 150.481 29.84C149.961 30.72 149.121 31.4 148.041 31.92L151.961 39.8V40H147.921L144.561 32.96ZM141.561 29.72H144.601C145.561 29.72 146.281 29.48 146.801 28.96C147.321 28.44 147.561 27.76 147.561 26.88C147.561 25.96 147.321 25.24 146.841 24.72C146.361 24.2 145.601 23.96 144.601 23.96H141.601V29.72H141.561Z" fill="#35414D"/>
<path d="M27.0808 8.52001H21.2408V13.16H28.0408V15.24H18.8008V0.200012H28.0008V2.32001H21.2408V6.48001H27.0808V8.52001Z" fill="#35414D"/>
<path d="M37.4804 11.36C37.4804 10.68 37.2804 10.2 36.8404 9.84C36.4004 9.48 35.6004 9.12 34.4804 8.76C33.3204 8.4 32.4404 8 31.7604 7.56C30.4804 6.72 29.8404 5.56 29.8404 4.2C29.8404 3 30.3204 2 31.2404 1.2C32.1204 0.4 33.3204 0 34.8004 0C35.8004 0 36.6804 0.2 37.4404 0.56C38.2004 0.96 38.8404 1.48 39.2804 2.2C39.7204 2.92 39.9604 3.72 39.9604 4.56H37.5204C37.5204 3.76 37.2804 3.16 36.8404 2.72C36.3604 2.28 35.7204 2.04 34.8404 2.04C34.0404 2.04 33.4004 2.24 32.9604 2.6C32.5204 2.96 32.2804 3.48 32.2804 4.12C32.2804 4.68 32.5204 5.12 33.0004 5.48C33.4804 5.84 34.2804 6.2 35.3604 6.56C36.4804 6.92 37.3604 7.32 38.0404 7.76C38.7204 8.2 39.2004 8.72 39.5204 9.28C39.8404 9.84 40.0004 10.52 40.0004 11.28C40.0004 12.52 39.5604 13.52 38.6404 14.28C37.7204 15 36.5204 15.4 34.9604 15.4C33.9204 15.4 33.0004 15.2 32.1204 14.8C31.2404 14.4 30.6004 13.84 30.1204 13.12C29.6404 12.4 29.4004 11.6 29.4004 10.64H31.8804C31.8804 11.48 32.1604 12.16 32.6804 12.64C33.2004 13.12 33.9604 13.36 34.9604 13.36C35.8004 13.36 36.4804 13.16 36.8804 12.8C37.2804 12.44 37.4804 11.96 37.4804 11.36Z" fill="#35414D"/>
<path d="M52.9616 10.32C52.8016 11.92 52.2416 13.16 51.2816 14.08C50.3216 14.96 49.0016 15.44 47.4016 15.44C46.2816 15.44 45.2816 15.16 44.4016 14.6C43.5216 14.04 42.8816 13.24 42.4016 12.2C41.9216 11.16 41.6816 9.96001 41.6816 8.56001V7.16001C41.6816 5.76001 41.9216 4.48001 42.4016 3.40001C42.8816 2.32001 43.5616 1.48001 44.4416 0.920009C45.3216 0.360009 46.3616 0.0400085 47.5216 0.0400085C49.0816 0.0400085 50.3616 0.480009 51.3216 1.40001C52.2816 2.28001 52.8416 3.56001 53.0016 5.20001H50.5616C50.4416 4.12001 50.1616 3.36001 49.6816 2.88001C49.2016 2.40001 48.5216 2.16001 47.6016 2.16001C46.5216 2.16001 45.7216 2.56001 45.1216 3.40001C44.5616 4.24001 44.2416 5.44001 44.2416 7.04001V8.36001C44.2416 10 44.5216 11.24 45.0816 12.08C45.6416 12.92 46.4416 13.36 47.4816 13.36C48.4416 13.36 49.1616 13.12 49.6816 12.68C50.1616 12.2 50.4816 11.44 50.6016 10.36H52.9616V10.32Z" fill="#35414D"/>
<path d="M63.0809 11.72H57.6009L56.4409 15.2H53.8809L59.2409 0.160004H61.4409L66.8009 15.24H64.2409L63.0809 11.72ZM58.2809 9.64H62.4009L60.3609 3.4L58.2809 9.64Z" fill="#35414D"/>
<path d="M70.8804 9.64001V15.2H68.4004V0.200012H73.8404C75.4404 0.200012 76.6804 0.640012 77.6004 1.52001C78.5204 2.40001 79.0004 3.56001 79.0004 5.00001C79.0004 6.48001 78.5604 7.64001 77.6404 8.44001C76.7204 9.24001 75.4404 9.68001 73.8004 9.68001H70.8804V9.64001ZM70.8804 7.56001H73.8404C74.7204 7.56001 75.4004 7.36001 75.8404 6.92001C76.3204 6.48001 76.5204 5.84001 76.5204 5.04001C76.5204 4.24001 76.2804 3.60001 75.8004 3.08001C75.3204 2.56001 74.6804 2.36001 73.8804 2.32001H70.8404V7.56001H70.8804Z" fill="#35414D"/>
<path d="M89.4812 8.52001H83.6412V13.16H90.4412V15.24H81.2012V0.200012H90.4012V2.32001H83.6412V6.48001H89.4812V8.52001Z" fill="#35414D"/>
<path d="M102.64 9.44001H99.8804V15.2H97.4004V0.200012H102.4C104.04 0.200012 105.32 0.600012 106.2 1.36001C107.08 2.12001 107.52 3.28001 107.52 4.72001C107.52 5.72001 107.28 6.56001 106.84 7.24001C106.4 7.92001 105.76 8.44001 104.92 8.80001L108.12 15.04V15.16H105.48L102.64 9.44001ZM99.8804 7.36001H102.4C103.24 7.36001 103.88 7.12001 104.36 6.68001C104.84 6.24001 105.08 5.64001 105.08 4.84001C105.08 4.04001 104.88 3.40001 104.44 2.96001C104 2.52001 103.36 2.28001 102.52 2.28001H99.9204V7.36001H99.8804Z" fill="#35414D"/>
<path d="M140.641 0.200012L144.721 11.72L148.801 0.200012H152.001V15.24H149.561V10.28L149.801 3.64001L145.601 15.24H143.841L139.641 3.68001L139.881 10.28V15.24H137.441V0.200012H140.641Z" fill="#35414D"/>
<path d="M134.361 4.32001C134.161 3.80001 133.921 3.32001 133.601 2.84001C133.361 2.48001 133.121 2.20001 132.801 1.88001C132.601 1.68001 132.361 1.48001 132.121 1.32001C131.881 1.16001 131.641 1.00001 131.401 0.840012C131.161 0.720012 130.881 0.600012 130.601 0.480012C130.481 0.440012 130.361 0.400012 130.241 0.360012C130.121 0.320012 130.001 0.320012 129.841 0.280012C129.681 0.240012 129.561 0.240012 129.401 0.200012C129.361 0.200012 129.321 0.200012 129.321 0.200012C129.281 0.200012 129.281 0.200012 129.241 0.200012C129.161 0.200012 129.041 0.200012 128.961 0.200012C128.961 0.200012 128.921 0.200012 128.881 0.200012C128.481 0.200012 126.801 0.240012 125.561 1.36001C125.441 1.44001 125.361 1.56001 125.241 1.68001C124.881 2.00001 124.481 2.48001 124.121 2.92001C123.081 4.20001 122.281 5.44001 122.281 5.44001C121.481 4.24001 120.481 2.84001 119.281 1.60001C119.161 1.48001 119.001 1.36001 118.881 1.24001C118.641 1.04001 118.401 0.880012 118.121 0.760012C118.081 0.760012 118.041 0.720012 118.001 0.720012C117.721 0.600012 117.481 0.480012 117.201 0.400012C116.961 0.320012 116.721 0.280012 116.481 0.240012C116.281 0.200012 116.121 0.200012 115.921 0.200012C115.801 0.200012 115.721 0.200012 115.601 0.200012C115.561 0.200012 115.521 0.200012 115.521 0.200012C115.321 0.200012 115.121 0.200012 114.921 0.240012C114.721 0.280012 114.521 0.320012 114.361 0.360012C114.161 0.400012 114.001 0.480012 113.801 0.520012C113.601 0.600012 113.441 0.680012 113.281 0.760012C113.121 0.840012 112.921 0.960012 112.761 1.04001C112.601 1.16001 112.441 1.28001 112.281 1.40001C112.121 1.52001 111.961 1.64001 111.841 1.80001C111.761 1.88001 111.721 1.92001 111.641 2.00001C111.561 2.08001 111.441 2.20001 111.361 2.32001C111.321 2.36001 111.281 2.40001 111.241 2.44001C111.241 2.48001 111.201 2.48001 111.201 2.52001C111.201 2.52001 111.201 2.56001 111.161 2.56001L111.121 2.60001C111.081 2.68001 111.001 2.76001 110.961 2.84001C110.841 3.00001 110.761 3.16001 110.681 3.32001C110.561 3.52001 110.481 3.68001 110.361 3.88001C110.321 3.96001 110.241 4.08001 110.201 4.20001C110.201 4.20001 110.201 4.20001 110.201 4.24001C110.161 4.32001 110.121 4.44001 110.081 4.52001V4.56001C110.041 4.64001 110.001 4.76001 109.961 4.84001V4.88001C109.921 5.00001 109.881 5.12001 109.841 5.28001C109.801 5.36001 109.801 5.48001 109.761 5.56001C109.721 5.64001 109.721 5.76001 109.681 5.84001V5.88001C109.201 8.20001 109.321 11.4 112.241 14.08C112.361 14.16 112.441 14.28 112.561 14.36C112.681 14.44 112.801 14.52 112.921 14.6C113.041 14.68 113.161 14.72 113.281 14.8C113.401 14.84 113.521 14.92 113.641 14.96C113.761 15 113.841 15.04 113.961 15.08C114.081 15.12 114.161 15.16 114.281 15.16C114.561 15.24 114.881 15.28 115.201 15.28C115.521 15.28 115.801 15.28 116.121 15.24C116.361 15.2 116.641 15.16 116.881 15.12C117.001 15.08 117.081 15.08 117.161 15.04C117.281 15 117.361 14.96 117.481 14.96C117.601 14.92 117.681 14.88 117.801 14.84C117.921 14.8 118.001 14.76 118.121 14.68C118.241 14.64 118.321 14.56 118.441 14.52C118.561 14.44 118.641 14.4 118.761 14.32C118.881 14.24 118.961 14.16 119.041 14.08C119.081 14.04 119.121 14 119.161 13.96C119.201 13.92 119.241 13.88 119.281 13.84C120.001 13.2 121.361 11.36 122.281 10C122.281 10.04 122.561 10.44 122.601 10.48C122.721 10.64 122.841 10.84 122.961 11C123.161 11.28 123.361 11.56 123.601 11.84C124.041 12.44 124.481 13 124.961 13.52C125.321 13.88 125.681 14.2 126.081 14.44C127.321 15.24 128.881 15.44 130.321 15.08C130.601 15 130.881 14.92 131.161 14.76C132.081 14.36 132.841 13.64 133.441 12.8C134.801 10.84 135.321 8.36001 134.841 6.00001C134.721 5.40001 134.561 4.84001 134.361 4.32001ZM117.841 11.52C117.761 11.56 117.721 11.64 117.641 11.68C117.601 11.72 117.521 11.76 117.481 11.8C117.001 12.12 116.441 12.28 115.841 12.32C115.401 12.36 114.961 12.32 114.561 12.24C114.521 12.24 114.441 12.2 114.401 12.2C114.361 12.2 114.321 12.16 114.241 12.16C114.161 12.12 114.081 12.08 114.041 12.04C113.961 12 113.921 11.96 113.841 11.92C113.761 11.88 113.721 11.84 113.641 11.8C113.561 11.76 113.521 11.72 113.441 11.64C113.361 11.6 113.321 11.52 113.241 11.48C113.161 11.44 113.121 11.36 113.081 11.32C113.041 11.24 112.961 11.2 112.921 11.12C112.881 11.04 112.801 11 112.761 10.92C112.721 10.84 112.641 10.8 112.601 10.72C112.561 10.64 112.521 10.56 112.481 10.52C112.441 10.44 112.401 10.36 112.361 10.28C112.321 10.2 112.281 10.12 112.241 10.04C112.201 9.96001 112.161 9.88001 112.121 9.80001C112.081 9.72001 112.041 9.64001 112.041 9.56001C112.001 9.48001 112.001 9.40001 111.961 9.28001C111.921 9.20001 111.921 9.08001 111.881 9.00001C111.841 8.92001 111.841 8.80001 111.841 8.72001C111.841 8.64001 111.801 8.52001 111.801 8.44001C111.801 8.36001 111.761 8.24001 111.761 8.16001C111.761 8.08001 111.761 7.96001 111.761 7.88001C111.761 7.84001 111.761 7.80001 111.761 7.76001C111.761 4.84001 114.401 1.76001 117.401 3.64001C117.881 3.92001 118.281 4.32001 118.641 4.80001C119.361 5.76001 120.121 6.76001 120.761 7.76001C120.441 8.28001 120.081 8.80001 119.721 9.28001C119.441 9.68001 119.121 10.12 118.801 10.52C118.521 10.84 118.201 11.2 117.841 11.52ZM130.641 11.88C130.121 12.16 129.601 12.28 129.201 12.36C128.841 12.4 128.481 12.4 128.121 12.32C127.761 12.24 127.401 12.12 127.121 11.92C126.801 11.72 126.521 11.44 126.241 11.16C126.041 10.92 125.841 10.72 125.641 10.48C125.441 10.2 125.201 9.92001 125.001 9.64001C124.761 9.32001 124.521 9.00001 124.281 8.64001C124.241 8.56001 124.201 8.52001 124.121 8.44001C124.001 8.20001 123.841 8.00001 123.681 7.72001C124.521 6.44001 125.361 5.16001 126.401 4.08001C126.801 3.68001 127.241 3.40001 127.761 3.24001C128.521 3.00001 129.401 3.00001 130.121 3.32001C130.641 3.56001 131.081 3.88001 131.481 4.32001C132.281 5.24001 132.681 6.48001 132.681 7.72001C132.721 9.56001 131.881 11.12 130.641 11.88Z" fill="#FF492C"/>
</svg>
