<svg width="34" height="41" viewBox="0 0 34 41" fill="none" xmlns="http://www.w3.org/2000/svg">
<path d="M16.8942 11.3903C18.9033 11.3903 20.5306 9.76305 20.5306 7.75391C20.5306 7.07209 20.3397 6.42666 20.0124 5.88121L16.8942 0.481201L13.776 5.88121C13.4487 6.42666 13.2578 7.07209 13.2578 7.75391C13.2578 9.76305 14.8851 11.3903 16.8942 11.3903Z" fill="black"/>
<path d="M27.804 16.8449H18.7131V13.2085H15.0767V16.8449H5.9858C2.97668 16.8449 0.53125 19.2903 0.53125 22.2994V25.0994C0.53125 27.0631 2.13122 28.663 4.09486 28.663C5.04941 28.663 5.94029 28.2903 6.61307 27.6175L10.504 23.7357L14.3858 27.6084C15.7313 28.9539 18.0767 28.9539 19.4221 27.6084L23.313 23.7357L27.1949 27.6084C27.8676 28.2811 28.7585 28.6539 29.7131 28.6539C31.6767 28.6539 33.2767 27.0539 33.2767 25.0903V22.2994C33.2585 19.2903 30.8131 16.8449 27.804 16.8449Z" fill="black"/>
<path d="M25.2495 29.5449L23.295 27.5903L21.3313 29.5449C18.9586 31.9176 14.8131 31.9176 12.4404 29.5449L10.4858 27.5903L8.52216 29.5449C7.34944 30.7357 5.77674 31.3903 4.09486 31.3903C2.77665 31.3903 1.54938 30.9721 0.53125 30.2721V38.6631C0.53125 39.663 1.34943 40.4812 2.3494 40.4812H31.4403C32.4403 40.4812 33.2585 39.663 33.2585 38.6631V30.2722C32.2402 30.9722 31.0221 31.3904 29.6948 31.3904C28.0131 31.3904 26.4404 30.7358 25.2495 29.5449Z" fill="black"/>
</svg>
