<svg width="41" height="41" viewBox="0 0 41 41" fill="none" xmlns="http://www.w3.org/2000/svg">
<path d="M22.0631 4.92429L24.4133 4.93299L24.422 2.58027L22.0705 2.57157L22.0781 0.218222L19.7253 0.210693L19.7179 2.56286L17.3639 2.55416L17.3552 4.90688L19.7104 4.91558L19.7009 7.88244L9.125 16.1081V40.2106H15.0068V32.396C15.0068 29.0771 17.7069 26.3769 21.0258 26.3769C24.3447 26.3769 27.0449 29.0771 27.0449 32.396V40.2106H32.6522V16.1081L22.0537 7.86487L22.0631 4.92429ZM24.4177 17.8599C24.4177 19.8058 22.8345 21.3889 20.8886 21.3889C18.9426 21.3889 17.3595 19.8058 17.3595 17.8599C17.3595 15.9139 18.9426 14.3308 20.8886 14.3308C22.8345 14.3308 24.4177 15.9139 24.4177 17.8599Z" fill="black"/>
<path d="M21.0257 28.7297C19.0041 28.7297 17.3594 30.3744 17.3594 32.3961V40.2107H24.692V32.3961C24.692 30.3744 23.0473 28.7297 21.0257 28.7297Z" fill="black"/>
<path d="M0.890625 40.2107H6.77243V23.0295L0.890625 27.8933V40.2107Z" fill="black"/>
<path d="M35.0078 23.0295V40.2106H40.8896V27.8932L35.0078 23.0295Z" fill="black"/>
<path d="M20.8873 19.0363C21.537 19.0363 22.0637 18.5096 22.0637 17.86C22.0637 17.2103 21.537 16.6836 20.8873 16.6836C20.2376 16.6836 19.7109 17.2103 19.7109 17.86C19.7109 18.5096 20.2376 19.0363 20.8873 19.0363Z" fill="black"/>
</svg>
