<svg width="36" height="31" viewBox="0 0 36 31" fill="none" xmlns="http://www.w3.org/2000/svg">
<path d="M18.4062 16.2253C11.9405 16.2253 6.10853 15.2978 0.90625 13.4467V10.0489C0.90625 8.3433 2.28889 6.96066 3.99445 6.96066H10.1709V11.0783C10.1709 11.6468 10.6318 12.1077 11.2004 12.1077C11.7689 12.1077 12.2298 11.6468 12.2298 11.0783V6.96066H24.5827V11.0783C24.5827 11.6468 25.0436 12.1077 25.6121 12.1077C26.1807 12.1077 26.6416 11.6468 26.6416 11.0783V6.96066H32.818C34.5236 6.96066 35.9062 8.3433 35.9062 10.0489V13.4467C30.704 15.2978 24.872 16.2253 18.4062 16.2253ZM35.9062 27.5489C35.9062 29.2545 34.5236 30.6371 32.818 30.6371H3.99445C2.28889 30.6371 0.90625 29.2545 0.90625 27.5489V15.6257C6.16131 17.3992 11.9958 18.2842 18.4062 18.2842C24.8167 18.2842 30.6512 17.3993 35.9062 15.6257V27.5489ZM15.8327 23.4312H20.9798C21.5483 23.4312 22.0092 22.9704 22.0092 22.4018C22.0092 21.8333 21.5483 21.3724 20.9798 21.3724H15.8327C15.2642 21.3724 14.8033 21.8333 14.8033 22.4018C14.8033 22.9704 15.2642 23.4312 15.8327 23.4312ZM12.2298 6.96066H10.1709V4.90181C10.1709 2.6277 12.0144 0.78418 14.2886 0.78418H22.5239C24.798 0.78418 26.6415 2.6277 26.6415 4.90181V6.96066H24.5827V4.90181C24.5827 3.76472 23.6609 2.84296 22.5238 2.84296H14.2886C13.1516 2.84296 12.2298 3.76472 12.2298 4.90181V6.96066Z" fill="black"/>
</svg>
