<svg width="40" height="41" viewBox="0 0 40 41" fill="none" xmlns="http://www.w3.org/2000/svg">
<path fill-rule="evenodd" clip-rule="evenodd" d="M15.2504 23.0546C15.2467 23.0722 15.2429 23.0898 15.2395 23.1076C15.4335 22.1106 15.9683 21.2648 16.7207 20.6779C16.7662 20.6424 16.7803 20.5815 16.7549 20.5295C15.7198 18.417 16.8519 15.8548 19.1246 15.2068C19.1772 15.1917 19.2123 15.1454 19.2123 15.0907V13.6415C19.2123 10.7071 16.819 8.31384 13.8846 8.31384H11.266C7.80588 8.31384 6.36508 10.0576 4.84615 12.8212L0.916636 19.9708C-0.585498 22.7041 3.10276 24.3347 4.30026 22.1679L8.62621 14.3395C8.65285 14.2912 8.70653 14.2676 8.76022 14.2804C8.81377 14.2934 8.85079 14.3388 8.8527 14.3938C9.09163 21.5818 8.63072 30.7489 8.90967 38.2646C8.96513 39.7579 10.1921 40.94 11.6864 40.94H13.0093C14.5397 40.94 15.7879 39.6919 15.7879 38.1615V30.2705C15.7879 30.23 15.7698 30.1952 15.7369 30.1718L15.6556 30.1143C14.8417 29.5385 14.4283 28.5723 14.574 27.5859L15.2063 23.3023C15.2066 23.301 15.2067 23.2998 15.207 23.2986L15.2504 23.0546ZM20.1712 20.6026C19.0347 20.6026 18.1133 19.6814 18.1133 18.5448C18.1133 17.4082 19.0346 16.4869 20.1712 16.4869C21.3077 16.4869 22.229 17.4082 22.229 18.5448C22.229 19.6812 21.3077 20.6026 20.1712 20.6026ZM16.5157 28.8733C16.1817 28.6369 16.0198 28.2585 16.0795 27.8538L16.7121 23.5682C16.8968 22.318 17.952 21.4071 19.2157 21.4071H21.1266C22.3904 21.4071 23.4455 22.318 23.6302 23.5682L24.2628 27.8538C24.3225 28.2585 24.1607 28.6369 23.8266 28.8733C23.4166 29.1634 23.032 29.373 23.032 29.9836V38.9978C23.032 40.0675 22.1595 40.94 21.0899 40.94H19.2525C18.1827 40.94 17.3103 40.0675 17.3103 38.9978V29.9836C17.3103 29.3728 16.9258 29.1634 16.5157 28.8733ZM20.1033 13.6415C20.1033 10.7071 22.4966 8.31384 25.4311 8.31384H28.0497C30.087 8.31384 31.7226 9.34577 32.9478 10.9734L38.864 18.8322C40.034 20.3864 38.0341 23.6214 35.9066 21.0056L31.7443 15.8879C31.7094 15.8451 31.6523 15.8313 31.6019 15.8536C31.5514 15.8759 31.523 15.9272 31.5312 15.9819L33.5154 29.3506C33.5154 29.3506 31.6704 29.3506 30.8951 29.3506C30.8286 29.3506 30.7744 29.4048 30.7744 29.4713V38.1616C30.7744 39.692 29.5262 40.9402 27.9958 40.9402H27.4241C25.8937 40.9402 24.6455 39.692 24.6455 38.1616V30.2706C24.6455 30.2302 24.6635 30.1953 24.6966 30.172L24.7778 30.1145C25.5963 29.5355 26.0046 28.5653 25.8595 27.586L25.2269 23.3005C25.0642 22.1979 24.4785 21.2558 23.6481 20.6276C23.6021 20.5928 23.5872 20.532 23.6119 20.4798C24.7758 18.0162 23.0095 15.0971 20.2228 15.0614C20.1568 15.0606 20.1035 15.0068 20.1035 14.9408V13.6415H20.1033ZM26.0964 0.940186C27.8135 0.940186 29.2056 2.33221 29.2056 4.04937C29.2056 5.76652 27.8135 7.15855 26.0964 7.15855C24.3792 7.15855 22.9872 5.76652 22.9872 4.04937C22.9872 2.33221 24.3792 0.940186 26.0964 0.940186ZM13.2476 7.15842C14.8897 7.15842 16.2209 5.82718 16.2209 4.18516C16.2209 2.54314 14.8897 1.2119 13.2476 1.2119C11.6055 1.2119 10.2744 2.54314 10.2744 4.18516C10.2744 5.82731 11.6056 7.15842 13.2476 7.15842Z" fill="black"/>
</svg>
