<svg width="41" height="37" viewBox="0 0 41 37" fill="none" xmlns="http://www.w3.org/2000/svg">
<path d="M25.3396 3.97927C25.4822 3.73547 25.5894 3.47264 25.658 3.19867C25.6711 3.15025 25.6728 3.09945 25.663 3.05026C25.6532 3.00106 25.6322 2.9548 25.6015 2.91508C25.5709 2.87537 25.5315 2.84328 25.4864 2.82133C25.4413 2.79937 25.3917 2.78815 25.3415 2.78854C24.1918 2.8035 20.9406 2.76512 20.375 1.87231V4.7384C21.8819 6.07809 24.6126 5.76455 25.7926 5.54859C25.8499 5.53791 25.9032 5.51207 25.9471 5.47375C25.9909 5.43543 26.0236 5.38605 26.0419 5.33076C26.0601 5.27546 26.0632 5.21628 26.0508 5.1594C26.0383 5.10252 26.0109 5.05002 25.9712 5.00737L25.3783 4.36599C25.3306 4.31452 25.3011 4.24891 25.2941 4.17912C25.2871 4.10933 25.3031 4.03916 25.3396 3.97927Z" fill="black"/>
<path d="M20.3753 10.5266C20.2675 10.5266 20.1641 10.4838 20.0878 10.4075C20.0116 10.3313 19.9688 10.2279 19.9688 10.12V1.12433C19.9688 1.01651 20.0116 0.913097 20.0878 0.836852C20.1641 0.760608 20.2675 0.717773 20.3753 0.717773C20.4831 0.717773 20.5865 0.760608 20.6628 0.836852C20.739 0.913097 20.7819 1.01651 20.7819 1.12433V10.12C20.7819 10.2279 20.739 10.3313 20.6628 10.4075C20.5865 10.4838 20.4831 10.5266 20.3753 10.5266Z" fill="black"/>
<path d="M39.8192 35.3496H38.8663C36.9954 32.8283 34.9932 27.1133 34.8953 24.0258C35.1623 23.8333 35.356 23.5558 35.4446 23.2388C35.5333 22.9219 35.5116 22.5842 35.3832 22.2811C35.3832 22.2811 34.7756 20.8292 34.5567 20.3527C34.4782 20.1453 34.3389 19.9664 34.157 19.8395L24.4308 12.4196C24.4473 12.3128 24.4385 12.2036 24.4052 12.1007C24.3719 11.9978 24.3149 11.9042 24.2389 11.8274L21.0755 8.66823C20.8904 8.48358 20.6396 8.37988 20.3781 8.37988C20.1166 8.37988 19.8657 8.48358 19.6806 8.66823L16.5162 11.829C16.4405 11.9058 16.3839 11.9992 16.3508 12.1018C16.3177 12.2045 16.3091 12.3134 16.3256 12.42C16.3256 12.42 9.04562 18.0038 6.60073 19.8395C6.42964 19.9771 6.293 20.1527 6.20165 20.3524C5.99772 20.8357 5.37552 22.2811 5.37552 22.2811C5.24681 22.5841 5.22498 22.9219 5.31364 23.239C5.40231 23.556 5.59617 23.8335 5.8634 24.0258C5.76582 27.1133 3.7636 32.8283 1.89278 35.3496H0.984684C0.876858 35.3496 0.773448 35.3924 0.697203 35.4687C0.620959 35.5449 0.578125 35.6483 0.578125 35.7561C0.578125 35.864 0.620959 35.9674 0.697203 36.0436C0.773448 36.1199 0.876858 36.1627 0.984684 36.1627H39.8192C39.9271 36.1627 40.0305 36.1199 40.1067 36.0436C40.183 35.9674 40.2258 35.864 40.2258 35.7561C40.2258 35.6483 40.183 35.5449 40.1067 35.4687C40.0305 35.3924 39.9271 35.3496 39.8192 35.3496ZM22.1111 12.8503L28.1308 19.8951H23.5773L21.5641 12.8005C21.7439 12.8161 21.928 12.8327 22.1111 12.8503ZM18.645 12.8503C18.8281 12.833 19.0125 12.8177 19.1924 12.8005L17.1794 19.8951H12.6259L18.645 12.8503ZM10.1235 35.3496H6.88728C9.43852 31.8883 11.0179 26.2609 11.5217 24.2612C12.0138 24.7135 12.632 25.0052 13.294 25.0974C14.0257 25.1698 14.7617 25.0106 15.398 24.6421C14.6126 26.9624 12.6207 32.3306 10.1219 35.3496H10.1235ZM15.7743 35.3496C17.5829 33.0125 19.1274 30.4827 20.3798 27.8061C21.6322 30.4827 23.1768 33.0125 24.9853 35.3496H15.7743ZM30.6362 35.3496C28.1373 32.3306 26.1478 26.9627 25.36 24.6421C25.9962 25.0106 26.7321 25.1699 27.4637 25.0974C28.1258 25.0052 28.744 24.7134 29.236 24.2609C29.7408 26.2609 31.3195 31.8883 33.8705 35.3496H30.6362ZM34.3291 23.4195C34.3265 23.4195 34.3242 23.4224 34.3212 23.4237C32.95 24.0375 31.6419 23.7991 30.4326 22.7147C30.3586 22.6485 30.2711 22.599 30.1763 22.5696C30.0814 22.5402 29.9813 22.5315 29.8828 22.5442C29.7843 22.5569 29.6897 22.5907 29.6055 22.6433C29.5212 22.6958 29.4492 22.7659 29.3944 22.8487C29.0757 23.333 28.3884 24.164 27.3639 24.2905C26.5062 24.3962 25.5669 23.9845 24.5668 23.0666C24.4905 22.9964 24.3996 22.9441 24.3005 22.9137C24.2015 22.8832 24.0968 22.8753 23.9943 22.8906C23.8918 22.9058 23.7941 22.9439 23.7082 23.0018C23.6223 23.0598 23.5505 23.1363 23.498 23.2257C22.855 24.3204 21.8103 24.8753 20.3909 24.8753H20.3649C18.9478 24.8753 17.9031 24.3201 17.2597 23.2257C17.2072 23.1364 17.1354 23.0601 17.0495 23.0021C16.9637 22.9442 16.866 22.9063 16.7636 22.891C16.6611 22.8757 16.5566 22.8835 16.4576 22.9139C16.3586 22.9442 16.2676 22.9963 16.1913 23.0663C15.1918 23.9845 14.2522 24.3969 13.3942 24.2905C12.37 24.164 11.6824 23.333 11.364 22.8487C11.3093 22.7659 11.2374 22.6958 11.1532 22.6433C11.0691 22.5907 10.9745 22.557 10.8761 22.5443C10.7771 22.5315 10.6765 22.54 10.5812 22.5695C10.4858 22.5989 10.3978 22.6484 10.3232 22.7147C9.1136 23.7994 7.80512 24.0368 6.43421 23.4234C6.4316 23.4234 6.42965 23.4205 6.42738 23.4195C6.28025 23.3494 6.16603 23.225 6.10871 23.0725C6.05139 22.9199 6.05544 22.7511 6.12002 22.6015L6.93053 20.7082H33.8217L34.6328 22.6015C34.6974 22.7509 34.7016 22.9195 34.6447 23.0719C34.5878 23.2244 34.4741 23.349 34.3274 23.4195H34.3291Z" fill="black"/>
</svg>
