<svg width="41" height="41" viewBox="0 0 41 41" fill="none" xmlns="http://www.w3.org/2000/svg">
<path d="M17.8905 20.481H23.8905C27.3475 20.481 28.8907 18.9393 28.8907 15.4812V7.69554C28.2506 7.37291 27.5808 7.11326 26.8905 6.9199V6.48118C26.8905 3.16735 24.2043 0.481201 20.8905 0.481201C17.577 0.481201 14.8905 3.16735 14.8905 6.48118V6.9199C14.2006 7.11326 13.5308 7.37291 12.8906 7.69554V15.4812C12.8906 18.9393 14.4335 20.481 17.8905 20.481ZM16.8907 6.48118C16.8907 4.27221 18.6815 2.48107 20.8905 2.48107C23.0998 2.48107 24.8906 4.27221 24.8906 6.48118V6.54234C24.5599 6.51158 24.2292 6.48118 23.8905 6.48118H17.8905C17.5521 6.48118 17.2211 6.51121 16.8907 6.54234V6.48118Z" fill="black"/>
<path d="M30.8906 9.00293V15.4812C30.8906 20.0603 28.4706 22.4813 23.8905 22.4813H17.8905C13.3107 22.4813 10.8907 20.0603 10.8907 15.4812V9.00293C8.35766 11.0892 6.89026 14.1994 6.89063 17.4811V35.481C6.89355 38.2415 9.13036 40.4783 11.8905 40.4812H29.8904C32.6509 40.4783 34.8877 38.2415 34.8907 35.481V17.4811C34.891 14.1994 33.4236 11.0892 30.8906 9.00293ZM25.8907 32.481H24.8906V33.4811C24.8906 34.0334 24.4427 34.4813 23.8905 34.4813C23.3382 34.4813 22.8907 34.0334 22.8907 33.4811V32.481H15.8906C15.3384 32.481 14.8905 32.0335 14.8905 31.4813C14.8905 30.929 15.3384 30.4811 15.8906 30.4811H25.8907C26.4429 30.4811 26.8904 30.929 26.8904 31.4813C26.8904 32.0335 26.4429 32.481 25.8907 32.481Z" fill="black"/>
<path d="M37.8907 24.4812H36.8906V36.3801C39.2168 35.9022 40.8874 33.8562 40.8907 31.4813V27.4812C40.8889 25.8252 39.5467 24.483 37.8907 24.4812Z" fill="black"/>
<path d="M0.890625 27.4812V31.4813C0.893555 33.8562 2.5642 35.9022 4.89074 36.3801V24.4812H3.89062C2.23462 24.483 0.892456 25.8252 0.890625 27.4812Z" fill="black"/>
</svg>
