<svg width="1920" height="51" viewBox="0 0 1920 51" fill="none" xmlns="http://www.w3.org/2000/svg">
<path opacity="0.8" d="M1920 26.3477V44.9676C1919.88 44.8775 1919.74 44.7977 1919.57 44.7476C1919.46 44.7176 1919.34 44.6976 1919.24 44.7276C1919.1 44.7576 1919.03 44.8477 1918.97 44.9376C1918.59 45.4476 1918.22 45.9576 1917.85 46.4676C1917.71 46.6575 1917.55 46.8677 1917.26 46.9276C1916.82 47.0177 1916.41 46.6976 1916.16 46.4276C1915.68 45.9276 1915.22 45.4276 1914.74 44.9176C1914.59 44.7577 1914.43 44.5875 1914.17 44.5177C1913.34 44.3177 1912.87 45.3278 1912.01 45.4576C1911.6 45.1876 1911.57 44.7476 1911.44 44.3575C1911.32 43.9676 1910.96 43.5277 1910.41 43.5477C1910.2 43.5577 1910 43.6378 1909.79 43.6178C1909.6 43.5978 1909.44 43.3878 1909.6 43.2977C1908.69 42.2977 1907.76 41.6275 1906.85 40.6378C1906.27 39.9977 1905.28 39.2777 1904.34 39.6178C1903.76 39.8375 1903.53 40.4076 1902.92 40.6075C1901.92 40.9276 1901.05 40.0577 1900.23 39.5277C1899.11 38.8277 1896.87 38.9777 1896.63 40.0277C1895.38 39.1676 1893.55 38.9076 1891.83 38.7377C1890.46 38.6076 1889.02 38.4977 1887.68 38.7877C1886.35 39.0875 1885.13 39.8478 1884.93 40.8575C1883.23 40.3375 1881.52 39.8077 1879.82 39.2877C1879.39 39.1576 1878.92 39.0177 1878.45 39.0577C1877.1 39.1876 1876.55 40.6776 1875.19 40.7076C1875.29 39.8177 1873.77 39.2977 1872.54 39.3375C1871.3 39.3775 1870.03 39.6976 1868.88 39.3775C1867.02 38.8677 1866.67 37.0977 1866.64 35.6475C1865.18 35.8477 1863.83 36.4475 1862.94 37.3177C1862.64 36.4776 1862.68 35.5875 1863.06 34.7777C1862.23 35.0677 1861.25 34.5177 1860.95 33.8878C1860.65 33.2677 1860.74 32.5677 1860.52 31.9276C1860.08 30.7276 1858.47 29.8277 1856.78 29.8277C1856.14 31.5176 1855.84 33.2877 1855.93 35.0477C1853.45 35.1976 1850.97 35.2376 1848.49 35.1676C1847.96 36.2577 1847.01 37.5577 1845.42 37.4576C1844.8 37.4076 1844.24 37.1275 1843.63 37.0277C1841.78 36.7377 1840.27 38.0875 1839.43 39.3177C1839.19 39.6776 1838.88 40.0777 1838.34 40.1475C1838 40.2076 1837.64 40.0977 1837.31 39.9976C1836.18 39.6475 1835.06 39.2876 1833.92 38.9275C1832.44 38.4675 1831.32 37.8877 1829.99 37.2376C1829.23 37.7876 1828.09 37.9676 1827.05 38.0977C1822.49 38.7076 1817.89 39.1275 1813.29 39.3775C1812.66 39.4075 1811.96 39.4175 1811.46 39.1378C1810.61 38.6476 1810.94 37.6876 1811.33 36.9576C1808.82 36.9176 1806.31 36.9076 1803.8 36.9376C1803.15 36.9476 1802.48 36.9676 1801.93 37.2076C1801.38 37.4576 1801.05 37.8975 1800.63 38.2777C1799.34 39.4176 1797 39.8678 1795.12 39.3277C1792.26 41.7376 1789.81 44.3878 1787.84 47.2176C1787.56 46.4176 1787.23 45.5677 1786.35 45.0377C1785.48 44.5077 1783.88 44.5477 1783.42 45.2977C1783.18 45.6976 1783.31 46.1776 1783.03 46.5577C1782.33 47.4976 1780.37 46.9076 1778.89 46.9676C1776.01 47.0875 1774.17 50.1475 1771.37 49.6378C1771.7 48.4977 1772.34 47.3878 1773.24 46.4276C1771.61 46.6676 1769.8 46.1576 1768.82 45.1776C1767.85 44.2076 1767.76 42.8077 1768.59 41.7577C1767.07 41.1178 1765.53 42.4777 1764.26 43.3478C1762.8 44.3478 1760.68 44.8375 1758.69 44.6178C1757.27 44.4677 1755.97 44.0077 1754.58 43.7777C1750.98 43.1976 1747.24 44.3277 1743.57 44.1676C1739.69 43.9977 1735.3 42.5077 1732.27 44.2176C1732.57 43.9576 1732.23 43.4476 1731.72 43.3775C1731.18 43.2877 1730.64 43.5276 1730.16 43.7576C1730.51 42.5576 1728.98 41.2876 1727.3 41.3677C1727.18 42.1275 1726.71 42.8574 1726.01 43.4275C1725.16 42.9475 1724.04 42.7275 1722.98 42.8276C1723.17 43.6975 1722.98 44.6074 1722.41 45.3877C1721.32 44.3877 1719.78 43.5176 1718.02 43.4775C1716.24 43.4275 1714.4 44.5576 1714.67 45.8176C1713.71 44.9575 1712.07 44.5276 1710.58 44.7676C1710.44 43.9776 1710.31 43.1875 1710.17 42.3975C1708.74 43.2576 1706.62 42.4275 1705.12 41.6275C1703.61 40.8375 1701.31 40.1275 1700.1 41.1575C1699.23 41.8677 1697.88 42.8575 1696.62 42.5874C1695.37 42.3076 1694.35 41.6475 1693.14 41.2876C1691.53 40.7976 1689.72 40.8677 1687.97 40.9275C1685.09 41.0476 1682.04 41.2075 1679.63 42.3677C1678.54 42.8775 1677.42 43.6377 1676.15 43.4275C1675.34 43.2976 1674.72 42.8076 1673.91 42.6775C1672.92 42.5076 1671.94 42.9175 1670.98 43.2175C1670.04 43.5075 1668.77 43.6273 1668.14 43.0476C1667.87 42.8075 1667.75 42.4575 1667.41 42.2776C1666.63 41.8477 1665.51 42.5076 1664.56 42.3276C1663.72 42.1674 1663.39 41.4575 1662.81 40.9775C1661.27 39.7475 1658.46 40.4875 1656.46 41.3076C1656.43 40.8774 1656.38 40.4375 1656.35 40.0076C1654.99 41.2376 1652.2 40.8877 1650.38 39.9876C1648.57 39.1075 1647.07 37.7977 1644.98 37.3277C1644 38.3177 1642.73 39.1575 1641.26 39.7777C1641.28 38.5077 1641.14 37.2377 1640.89 35.9777C1638.53 36.1178 1636.15 36.2577 1633.79 36.3976C1632.25 36.4777 1630.32 36.4276 1629.65 35.4276C1628.55 35.6276 1628.9 37.1378 1627.8 37.3478C1627.4 37.4176 1626.99 37.2677 1626.63 37.1178C1625.66 36.7177 1624.68 36.3178 1623.69 35.9176C1622.97 37.0978 1621.85 38.1576 1620.46 38.9676C1619.85 39.3177 1619.06 39.6475 1618.33 39.4676C1617.4 39.2576 1617.1 38.4376 1616.44 37.9075C1615.61 37.2276 1614.16 37.0874 1612.93 37.3177C1611.72 37.5477 1610.66 38.0977 1609.64 38.6378C1607.49 39.7877 1605.33 40.9176 1603.17 42.0477C1602.02 42.6576 1600.57 43.2877 1599.27 42.8775C1596.36 41.9676 1592.46 43.3277 1591.79 45.5677C1590.79 45.1475 1589.8 44.7176 1588.82 44.2977C1588.22 44.8678 1587.8 45.5177 1587.56 46.2076C1586.6 45.5977 1585.47 44.9676 1584.23 45.1178C1583.57 45.1976 1583 45.4777 1582.41 45.6976C1580.91 46.2176 1579.06 46.1876 1577.58 45.6178C1576.55 45.2377 1575.77 44.0477 1576.8 43.6476C1575.11 43.0578 1572.93 43.2777 1571.56 44.1976C1570.9 44.6275 1570.42 45.1876 1569.74 45.5875C1569.05 45.9776 1568 46.1876 1567.3 45.7977C1566.54 45.3878 1566.52 44.4977 1565.73 44.1178C1564.6 43.5978 1563.27 44.5477 1561.95 44.7777C1560.76 45.0077 1559.47 44.5777 1558.62 43.9276C1557.78 43.2777 1557.27 42.4376 1556.8 41.6178C1555.54 42.1178 1554.29 42.6178 1553.02 43.1276C1553 42.6877 1552.97 42.2577 1552.94 41.8178C1551.79 41.7878 1550.64 41.7577 1549.49 41.7277C1549.37 41.3678 1549.24 41.0277 1549.1 40.6777C1548.26 40.8679 1547.34 41.0478 1546.58 40.7678C1545.8 40.4878 1545.57 39.5178 1546.4 39.2978C1545.84 38.6076 1544.83 38.3376 1543.75 38.4777C1542.68 38.6076 1541.78 39.2677 1541.6 40.0478C1540.84 39.5078 1539.9 39.1075 1538.88 38.8976C1538.51 38.8278 1538.06 38.7778 1537.77 38.9678C1537.06 39.4278 1538.31 40.1277 1538.57 40.7979C1538.81 41.4378 1537.97 42.0678 1537.06 42.1877C1536.16 42.2978 1535.26 42.0479 1534.41 41.7979C1534.61 42.4979 1534.4 43.2779 1533.68 43.7679C1532.98 44.2579 1531.72 44.3377 1531.02 43.828C1529.87 42.9879 1530.62 41.1077 1529.06 40.7278C1527.58 40.3577 1526.61 41.9979 1525.09 42.2479C1524.75 41.348 1524.67 40.3978 1524.85 39.4679C1523.07 40.1879 1520.7 40.0079 1519.14 39.058C1518.47 38.6478 1517.8 38.068 1516.93 38.1478C1515.6 38.2579 1514.82 39.848 1513.58 39.4679C1513.29 39.098 1513.14 38.6577 1513.15 38.2278C1512.22 38.5479 1510.91 38.788 1510.33 38.1779C1510.15 37.9779 1510.09 37.7379 1509.92 37.5179C1509.31 36.7279 1507.64 36.9579 1506.53 37.3979C1505.43 37.8378 1504.1 38.3881 1503.01 37.9279C1502.65 37.778 1502.38 37.528 1502.08 37.298C1500.67 36.268 1498.57 35.9379 1496.6 35.6579C1494.65 35.3881 1492.71 35.1181 1490.77 34.8378C1489.69 34.6879 1488.56 34.548 1487.53 34.798C1486.52 35.048 1485.7 35.6479 1484.66 35.758C1482.92 35.9279 1481.61 34.758 1480.28 33.9379C1478.32 32.7279 1475.77 32.1779 1473.3 31.6479C1472.75 31.528 1472.18 31.4179 1471.61 31.488C1470.96 31.5681 1470.42 31.9079 1469.82 32.1479C1468.83 32.5581 1467.64 32.718 1466.5 32.5981C1465.91 31.8881 1467.09 30.9579 1466.7 30.1678C1466.44 29.6578 1465.64 29.4379 1465.01 29.1381C1463.63 28.4279 1463.08 26.998 1463.77 25.8881C1462.63 25.738 1461.5 25.5878 1460.38 25.4279C1458.99 25.258 1457.15 27.238 1455.86 26.828C1455.3 26.6478 1455.07 26.1678 1454.86 25.7379C1454.41 24.818 1453.74 23.9178 1452.68 23.328C1451.61 22.7379 1450.11 22.4879 1448.89 22.8978C1448.05 23.1678 1447.42 23.7179 1446.56 23.9278C1445.69 24.1578 1444.42 23.7479 1444.61 23.098C1443.69 23.7679 1441.76 23.048 1442 22.1078C1441.3 22.3978 1440.61 22.6878 1439.91 22.9778C1439.58 23.1179 1439.2 23.2778 1438.82 23.2278C1438.44 23.1978 1438.1 22.8881 1438.29 22.6381C1437.46 23.4079 1435.84 22.738 1434.53 22.528C1433.59 22.3779 1432.6 22.518 1431.64 22.6579C1430.33 22.8579 1429 23.048 1427.68 23.238C1427.28 23.2981 1426.86 23.3579 1426.56 23.5681C1426 23.968 1426.09 24.708 1425.43 25.0181C1424.88 25.2881 1424.13 25.0782 1423.5 24.908C1420.9 24.178 1417.84 24.3378 1415.42 25.3481C1416.04 26.3481 1416.45 27.438 1416.6 28.5381C1415.09 28.0781 1413.36 28.0081 1411.79 28.3579C1411.22 28.488 1410.59 28.6579 1410.07 28.468C1409.22 28.1479 1409.38 27.208 1408.8 26.678C1407.92 25.8181 1406.08 26.3682 1404.64 26.628C1402.22 27.088 1399.68 26.4381 1397.44 25.628C1396.92 26.2481 1396.37 26.8883 1395.54 27.3282C1394.74 27.7681 1393.59 27.9481 1392.71 27.588C1391.91 27.2782 1391.53 26.608 1390.85 26.1681C1390.18 25.7382 1388.84 25.6681 1388.61 26.3082C1388.76 24.9981 1386.28 24.2582 1384.61 24.7682C1382.93 25.2682 1381.9 26.4682 1380.8 27.5082C1379.68 28.5382 1378.12 29.5683 1376.31 29.4381C1376.57 30.3282 1375.25 31.2482 1374.03 31.0282C1373.3 30.9081 1372.76 30.4982 1372.15 30.1881C1370.94 29.588 1369.35 29.3883 1367.93 29.6781C1366.89 29.4581 1365.97 28.9581 1365.23 28.3781C1364.5 27.7983 1363.35 27.2883 1362.36 27.6081C1361.87 27.7883 1361.42 28.1481 1360.88 28.0881C1359.83 27.9482 1360.34 26.6184 1359.52 26.1384C1357.71 26.8982 1356.16 27.9983 1355.08 29.3083C1354.95 28.1384 1354.8 26.9882 1354.66 25.8183C1354.6 25.3581 1354.51 24.8381 1353.99 24.5583C1353.27 24.1582 1352.2 24.4682 1351.38 24.1782C1350.15 23.7483 1350.41 22.4182 1349.73 21.5583C1349.06 20.7082 1347.3 20.4482 1346.22 21.0283C1346.8 21.5783 1347.4 22.1582 1347.57 22.8581C1347.72 23.5383 1347.27 24.3381 1346.36 24.5383C1346 24.5984 1345.62 24.5783 1345.28 24.6782C1343.62 25.0984 1344.74 27.0881 1343.73 28.1282C1343.08 28.8084 1341.72 28.8684 1340.6 28.7083C1339.48 28.5584 1338.35 28.2483 1337.24 28.4283C1336.02 28.6385 1335.09 29.3885 1333.87 29.6185C1331.79 30.0084 1329.22 28.8084 1327.59 29.8382C1327.71 30.9783 1327.8 32.1883 1327.1 33.2283C1326.39 34.2483 1324.57 34.9683 1323.17 34.4383C1322.4 34.1583 1321.9 33.5684 1321.09 33.3782C1319.85 33.0684 1318.43 34.0684 1318.82 34.9583C1318.37 34.5384 1317.92 34.1082 1317.47 33.6783C1316.91 34.0784 1315.8 33.9183 1315.49 33.3983C1314.83 34.4984 1313.26 35.2884 1311.6 35.3285C1310.03 36.1283 1307.24 34.9984 1305.97 36.0184C1305.33 36.5284 1305.24 37.4884 1304.31 37.5584C1303.43 37.6482 1302.92 36.7884 1302.04 36.6482C1301.71 36.5881 1301.35 36.6482 1301.02 36.7083C1295.46 37.7383 1289.89 38.7684 1284.33 39.7984C1282.76 40.0882 1281.11 40.4183 1280.09 41.3184C1279.25 42.0584 1279.01 43.0484 1278.57 43.9383C1278.13 44.8382 1277.3 45.7584 1276 45.9283C1274.44 46.1082 1272.89 45.1185 1271.39 45.4783C1270.87 45.6082 1270.44 45.9082 1270.03 46.1883C1268.12 47.5284 1266.25 48.9283 1264.43 50.3485C1264.25 49.1883 1264.09 48.0184 1263.91 46.8685C1263.47 46.7884 1263 46.8382 1262.61 47.0184C1262.71 46.6583 1262.83 46.2984 1262.94 45.9583C1262.2 46.3982 1261.28 46.6883 1260.32 46.7784C1260.23 45.5184 1260.14 44.2384 1260.05 42.9683C1255.11 42.0083 1250.37 40.4783 1246.07 38.4683C1244.33 37.6582 1242.02 36.7683 1240.37 37.6683C1239.13 38.3582 1238.46 39.9583 1236.95 39.6983C1236.22 39.5784 1235.82 39.0384 1235.23 38.7083C1234.13 38.0584 1232.56 38.1583 1231.14 38.2283C1226.87 38.4383 1222.53 38.0283 1218.48 37.0283C1219.04 36.5083 1218.48 35.6582 1217.63 35.4382C1216.77 35.2082 1215.8 35.4482 1215.02 35.7883C1215.21 36.5583 1213.3 37.2583 1212.21 37.2182C1211.13 37.1882 1209.98 36.9081 1209.03 37.2582C1207.8 37.7282 1207.64 38.9081 1207.16 39.838C1206.67 40.7782 1204.87 41.608 1204.04 40.8082C1203.69 40.4781 1203.69 39.9581 1203.24 39.6881C1202.08 39.0182 1200.84 40.8981 1199.37 40.7682C1198.16 40.6581 1197.94 39.3683 1196.85 38.9581C1195.89 38.588 1194.71 39.108 1194.09 39.7381C1193.44 40.378 1193.05 41.158 1192.22 41.658C1191.38 42.158 1189.83 42.158 1189.47 41.428C1189.05 41.8482 1188.44 42.168 1187.73 42.3181C1187.45 41.7681 1187.17 41.218 1186.9 40.668C1186.35 42.5481 1183.28 43.2881 1180.7 43.708C1181.3 42.828 1179.94 41.8379 1178.59 41.688C1177.25 41.5181 1175.86 41.8181 1174.51 41.6382C1171.87 41.2981 1169.57 39.208 1167.06 39.908C1166.41 40.0879 1165.88 40.428 1165.28 40.678C1163.37 41.468 1160.66 41.0581 1159.35 39.7781C1158.51 40.7781 1158 41.908 1157.85 43.0681C1156.28 41.978 1154.06 41.3882 1151.87 41.498C1150.46 41.5681 1148.69 41.798 1147.92 40.9379C1147.29 41.308 1146.66 41.6779 1146.03 42.038C1145.64 41.6579 1145.24 41.288 1144.84 40.8979C1143.75 41.718 1142.64 42.538 1141.54 43.3481C1141.16 42.5878 1141.09 41.748 1141.34 40.948C1137.75 41.448 1135.69 44.1182 1134.11 46.5081C1133.93 46.7681 1133.72 47.0481 1133.33 47.1382C1132.82 47.2381 1132.35 46.958 1131.94 46.728C1128.72 44.7981 1124.2 44.6181 1120.03 44.528C1118.49 44.488 1116.69 44.548 1115.79 45.4379C1115.19 45.1779 1114.31 45.328 1113.94 45.748C1113.77 45.3081 1113.61 44.8681 1113.43 44.4279C1112.41 44.9679 1110.9 44.9379 1109.9 44.3881C1109.19 44.828 1108.48 45.268 1107.77 45.7079C1107.54 45.848 1107.27 45.9979 1106.97 45.9579C1106.5 45.8881 1106.42 45.4379 1106.18 45.1381C1105.5 44.278 1103.7 44.7179 1102.48 45.1779C1101.27 45.6381 1099.24 45.7479 1099.03 44.7679C1097.77 44.1878 1096.46 43.8577 1095.2 43.2679C1094.39 43.828 1093.5 44.3281 1092.53 44.738C1092.33 44.8281 1092.09 44.9079 1091.85 44.8881C1091.24 44.828 1091.21 44.2079 1090.97 43.788C1090.54 42.998 1089.1 42.8378 1087.92 42.798C1086.19 42.7379 1084.44 42.6779 1082.71 42.6181C1082.02 42.5878 1081.25 42.548 1080.78 42.1679C1080.41 41.8577 1080.36 41.4079 1080.36 40.998C1080.36 39.8681 1080.62 38.748 1081.11 37.6879C1080.11 38.078 1079.05 38.4778 1077.93 38.4778C1076.79 38.4678 1075.57 37.8978 1075.51 37.0878C1075.1 37.2279 1074.7 37.3681 1074.31 37.508C1074.12 37.248 1074.04 36.9479 1074.1 36.6479C1073.34 36.748 1072.59 36.8579 1071.85 36.968C1071.67 36.1579 1071.62 35.3379 1071.67 34.5281C1070.89 34.8682 1070.04 35.0982 1069.14 35.218C1069.01 34.5481 1068.87 33.8778 1068.74 33.208C1065.93 33.528 1063.05 33.468 1060.27 33.0681C1061.09 34.7981 1062.09 36.468 1063.26 38.0879C1061.46 37.3682 1059.65 36.648 1057.86 35.918C1056.1 35.208 1054.07 34.1479 1054.31 32.708C1053.75 33.228 1053.15 33.748 1052.35 34.0181C1051.53 34.2981 1050.41 34.2181 1049.91 33.668C1048.66 34.198 1047.07 34.7381 1045.83 34.198C1045.36 33.988 1045.01 33.658 1044.59 33.398C1043.7 32.8379 1042.41 32.6382 1041.28 32.8882C1039.35 32.218 1036.46 33.3682 1035.18 34.6079C1034.78 35.008 1034.25 35.5281 1033.6 35.3779C1032.85 35.198 1033 34.3379 1032.37 33.988C1031.38 33.448 1029.95 34.6979 1028.87 34.2679C1028.02 33.9378 1028.29 32.8979 1027.53 32.488C1026.29 31.8081 1024.18 33.478 1023.18 32.6381C1022.93 32.4379 1022.87 32.1181 1022.57 31.9579C1021.99 31.6181 1021.19 32.068 1020.54 32.328C1019.19 32.8578 1017.29 32.4279 1016.61 31.4479C1016.05 32.4079 1014.29 32.6779 1012.89 32.4579C1011.48 32.2379 1010.21 31.6779 1008.79 31.5079C1007.84 31.3778 1006.85 31.4278 1005.89 31.2779C1004.95 31.1278 1003.98 30.6978 1003.77 30.0079C1003.31 30.4679 1002.85 30.9278 1002.38 31.388C1002.02 31.2879 1001.73 31.0679 1001.59 30.8079C1001.22 31.6477 999.249 31.7477 998.719 30.9377C998.119 31.3977 997.539 31.868 996.959 32.3279C996.629 32.2278 996.329 32.0479 996.149 31.8179C995.749 32.7178 995.329 33.6179 994.539 34.3679C993.729 35.1076 992.459 35.6477 991.179 35.5178C989.439 35.3479 988.379 34.1179 987.349 33.0979C986.339 32.0679 984.629 31.0579 983.019 31.5178C982.379 31.6977 981.899 32.0876 981.459 32.4778C980.129 33.6778 979.009 34.9778 978.119 36.3777C977.069 35.1677 976.009 33.9578 974.949 32.7478C974.639 32.3777 973.769 32.0378 973.579 32.4578C973.409 32.0979 973.249 31.7478 973.079 31.388C972.499 32.118 971.379 32.618 970.199 32.638C970.899 32.0179 969.529 31.1778 968.409 31.2579C967.279 31.348 966.209 31.8377 965.119 31.6678C964.359 31.5479 963.699 31.098 962.919 31.098C961.819 31.098 961.109 31.9178 960.559 32.618C960.009 33.3079 959.069 34.068 958.009 33.8377C956.719 33.5578 955.059 34.2579 954.239 35.0279C953.939 35.2879 953.569 35.6278 953.119 35.5479C952.519 35.4178 952.669 34.7479 952.249 34.4078C951.839 34.068 951.039 34.2378 950.479 34.4778C949.919 34.6978 949.249 34.9779 948.679 34.7679C948.289 34.6278 948.099 34.2979 947.729 34.138C946.679 33.7178 945.589 34.8777 944.389 34.8079C943.859 34.7779 943.349 34.4878 942.839 34.5877C942.41 34.6678 942.119 34.9778 941.699 35.0679C940.93 35.2378 940.309 34.5877 939.569 34.3377C938.93 34.138 938.119 34.2779 937.689 34.6778C937.259 34.2779 936.449 34.138 935.809 34.3377C935.069 34.5877 934.449 35.2378 933.68 35.0679C933.259 34.9778 932.969 34.6678 932.539 34.5877C932.029 34.4878 931.519 34.7779 930.989 34.8079C929.789 34.8777 928.699 33.7178 927.649 34.138C927.279 34.2979 927.09 34.6277 926.699 34.7679C926.129 34.9779 925.459 34.6977 924.899 34.4778C924.339 34.2378 923.539 34.068 923.129 34.4078C922.709 34.7479 922.859 35.4178 922.259 35.5479C921.809 35.6277 921.439 35.2879 921.14 35.0279C920.319 34.2579 918.659 33.5578 917.37 33.8377C916.309 34.0679 915.37 33.3079 914.82 32.618C914.27 31.9178 913.56 31.098 912.459 31.098C911.68 31.098 911.019 31.548 910.259 31.6678C909.169 31.8377 908.1 31.348 906.969 31.2579C905.85 31.1778 904.479 32.0179 905.18 32.638C903.999 32.618 902.879 32.118 902.299 31.388C902.129 31.7479 901.969 32.098 901.799 32.4578C901.61 32.0379 900.739 32.3777 900.43 32.7478C899.37 33.9578 898.31 35.1677 897.259 36.3777C896.37 34.9778 895.249 33.6777 893.919 32.4778C893.479 32.0877 892.999 31.6978 892.359 31.5178C890.749 31.0578 889.039 32.0678 888.029 33.0979C886.999 34.1179 885.939 35.3479 884.199 35.5178C882.919 35.6477 881.649 35.1076 880.839 34.3679C880.049 33.6179 879.629 32.7178 879.229 31.8179C879.049 32.0479 878.749 32.2278 878.419 32.3279C877.839 31.8679 877.259 31.3976 876.659 30.9377C876.129 31.7478 874.159 31.6478 873.789 30.8079C873.649 31.0679 873.359 31.2879 872.999 31.388C872.529 30.9278 872.069 30.4678 871.609 30.0079C871.399 30.6978 870.43 31.1278 869.489 31.2779C868.529 31.4278 867.539 31.3778 866.589 31.5079C865.169 31.6778 863.899 32.2379 862.489 32.4579C861.089 32.6779 859.329 32.4079 858.769 31.4479C858.089 32.4279 856.189 32.8578 854.839 32.328C854.189 32.068 853.389 31.618 852.809 31.9579C852.509 32.1181 852.449 32.4379 852.199 32.6381C851.199 33.4779 849.089 31.808 847.849 32.488C847.089 32.8979 847.359 33.9379 846.509 34.2679C845.43 34.6978 843.999 33.4479 843.009 33.988C842.379 34.3379 842.529 35.198 841.779 35.3779C841.129 35.528 840.599 35.008 840.199 34.6079C838.919 33.3682 836.029 32.218 834.099 32.8882C832.969 32.6382 831.679 32.8379 830.789 33.398C830.369 33.658 830.019 33.9881 829.549 34.198C828.309 34.738 826.719 34.198 825.469 33.668C824.969 34.218 823.849 34.2981 823.029 34.0181C822.229 33.7481 821.629 33.2281 821.069 32.708C821.309 34.1479 819.279 35.208 817.519 35.918C815.729 36.648 813.919 37.3682 812.119 38.0879C813.289 36.468 814.289 34.7981 815.109 33.0681C812.329 33.468 809.449 33.528 806.639 33.208C806.509 33.8778 806.369 34.5481 806.239 35.218C805.339 35.0981 804.489 34.8681 803.709 34.5281C803.759 35.3379 803.709 36.158 803.529 36.968C802.789 36.8579 802.039 36.748 801.279 36.6479C801.339 36.9479 801.259 37.248 801.069 37.508C800.679 37.3681 800.279 37.228 799.869 37.0878C799.809 37.8979 798.589 38.4678 797.449 38.4778C796.329 38.4778 795.269 38.078 794.269 37.6879C794.759 38.748 795.019 39.8681 795.019 40.998C795.019 41.4079 794.969 41.8578 794.599 42.1679C794.129 42.548 793.359 42.5878 792.669 42.6181C790.939 42.6779 789.189 42.738 787.459 42.798C786.279 42.8378 784.839 42.998 784.409 43.788C784.169 44.2079 784.139 44.828 783.529 44.8881C783.289 44.9079 783.049 44.828 782.849 44.738C781.879 44.3281 780.989 43.828 780.179 43.2679C778.919 43.8577 777.609 44.1878 776.349 44.7679C776.139 45.7479 774.109 45.6381 772.899 45.1779C771.679 44.7179 769.879 44.278 769.199 45.1381C768.959 45.4379 768.879 45.8881 768.409 45.9579C768.109 45.9979 767.839 45.848 767.609 45.7079C766.899 45.268 766.189 44.828 765.479 44.3881C764.479 44.9379 762.969 44.9679 761.949 44.4279C761.769 44.8681 761.609 45.308 761.439 45.748C761.069 45.3281 760.189 45.1779 759.589 45.4379C758.689 44.548 756.889 44.4879 755.349 44.528C751.179 44.6181 746.659 44.798 743.439 46.728C743.029 46.958 742.559 47.238 742.049 47.1382C741.659 47.0481 741.449 46.7681 741.269 46.5081C739.689 44.1182 737.629 41.448 734.039 40.948C734.289 41.748 734.219 42.5879 733.839 43.3481C732.739 42.538 731.629 41.718 730.539 40.8979C730.139 41.288 729.739 41.6579 729.349 42.038C728.719 41.6779 728.089 41.308 727.459 40.9379C726.689 41.798 724.919 41.568 723.509 41.498C721.319 41.3881 719.099 41.978 717.529 43.0681C717.379 41.9079 716.869 40.7781 716.029 39.7781C714.719 41.0581 712.009 41.468 710.099 40.678C709.499 40.428 708.969 40.0879 708.319 39.908C705.809 39.208 703.509 41.2981 700.869 41.6382C699.519 41.8181 698.129 41.5181 696.789 41.688C695.439 41.8379 694.079 42.828 694.679 43.708C692.099 43.2881 689.029 42.5481 688.479 40.668C688.209 41.218 687.929 41.7681 687.649 42.3181C686.939 42.168 686.329 41.8481 685.909 41.428C685.549 42.158 683.999 42.158 683.159 41.658C682.329 41.158 681.939 40.378 681.289 39.7381C680.669 39.108 679.489 38.588 678.529 38.9581C677.439 39.3683 677.219 40.6581 676.009 40.7682C674.539 40.8981 673.299 39.0182 672.139 39.6881C671.689 39.9581 671.689 40.4781 671.339 40.8082C670.509 41.608 668.709 40.7782 668.219 39.838C667.739 38.9081 667.579 37.7281 666.349 37.2582C665.399 36.9081 664.249 37.1881 663.169 37.2182C662.079 37.2582 660.169 36.5583 660.359 35.7883C659.579 35.4482 658.609 35.2082 657.749 35.4382C656.899 35.6582 656.339 36.5083 656.899 37.0283C652.849 38.0283 648.509 38.4382 644.239 38.2283C642.819 38.1582 641.249 38.0584 640.149 38.7083C639.559 39.0384 639.159 39.5784 638.429 39.6983C636.919 39.9583 636.249 38.3582 635.009 37.6683C633.359 36.7684 631.049 37.6583 629.309 38.4683C625.009 40.4783 620.269 42.0083 615.329 42.9683C615.239 44.2383 615.149 45.5183 615.059 46.7784C614.099 46.6883 613.179 46.3983 612.439 45.9583C612.549 46.2984 612.669 46.6583 612.769 47.0184C612.379 46.8382 611.909 46.7884 611.469 46.8685C611.289 48.0184 611.129 49.1883 610.949 50.3485C609.129 48.9283 607.259 47.5284 605.349 46.1883C604.939 45.9083 604.509 45.6082 603.989 45.4783C602.489 45.1184 600.939 46.1082 599.379 45.9283C598.079 45.7584 597.249 44.8382 596.809 43.9383C596.369 43.0484 596.129 42.0584 595.289 41.3184C594.269 40.4183 592.619 40.0882 591.049 39.7984C585.489 38.7684 579.919 37.7383 574.359 36.7083C574.029 36.6482 573.669 36.5882 573.339 36.6482C572.459 36.7883 571.949 37.6482 571.069 37.5584C570.14 37.4883 570.049 36.5284 569.409 36.0184C568.139 34.9984 565.349 36.1283 563.779 35.3285C562.12 35.2885 560.549 34.4984 559.89 33.3983C559.579 33.9183 558.469 34.0785 557.909 33.6783C557.459 34.1082 557.009 34.5384 556.559 34.9583C556.949 34.0684 555.529 33.0684 554.289 33.3782C553.479 33.5684 552.979 34.1582 552.209 34.4383C550.809 34.9683 548.989 34.2484 548.279 33.2283C547.579 32.1883 547.669 30.9783 547.789 29.8382C546.16 28.8084 543.589 30.0084 541.509 29.6185C540.289 29.3885 539.359 28.6385 538.14 28.4283C537.029 28.2484 535.899 28.5584 534.779 28.7083C533.66 28.8685 532.299 28.8084 531.649 28.1282C530.639 27.0882 531.759 25.0984 530.099 24.6782C529.759 24.5783 529.379 24.5984 529.019 24.5383C528.109 24.3381 527.659 23.5383 527.809 22.8581C527.979 22.1581 528.579 21.5783 529.159 21.0283C528.079 20.4482 526.319 20.7082 525.649 21.5583C524.969 22.4182 525.229 23.7482 523.999 24.1782C523.18 24.4682 522.109 24.1582 521.389 24.5583C520.869 24.8381 520.779 25.3581 520.719 25.8183C520.579 26.9882 520.429 28.1384 520.299 29.3083C519.219 27.9982 517.669 26.8981 515.859 26.1384C515.039 26.6184 515.549 27.9482 514.499 28.0881C513.959 28.1482 513.509 27.7883 513.019 27.6081C512.029 27.2883 510.879 27.7983 510.149 28.3781C509.41 28.9582 508.489 29.4582 507.449 29.6781C506.029 29.3883 504.439 29.588 503.229 30.1881C502.619 30.4982 502.079 30.9081 501.349 31.0282C500.129 31.2482 498.809 30.3282 499.069 29.4381C497.259 29.5682 495.699 28.5382 494.579 27.5082C493.479 26.4682 492.449 25.2682 490.769 24.7682C489.099 24.2582 486.619 24.9982 486.769 26.3082C486.539 25.6681 485.199 25.7381 484.529 26.1681C483.849 26.608 483.469 27.2782 482.669 27.588C481.789 27.9481 480.639 27.7682 479.839 27.3282C479.009 26.8883 478.459 26.2481 477.939 25.628C475.699 26.4381 473.159 27.088 470.739 26.628C469.299 26.3682 467.459 25.8182 466.579 26.678C465.999 27.208 466.159 28.148 465.309 28.468C464.789 28.6579 464.159 28.488 463.589 28.3579C462.019 28.008 460.289 28.0781 458.779 28.5381C458.929 27.438 459.339 26.3481 459.959 25.3481C457.539 24.3378 454.479 24.178 451.879 24.908C451.25 25.0777 450.5 25.2876 449.95 25.0176C449.29 24.7075 449.379 23.9676 448.82 23.5676C448.52 23.3574 448.1 23.2976 447.7 23.2375C446.379 23.0476 445.05 22.8574 443.74 22.6574C442.78 22.5175 441.79 22.3774 440.85 22.5275C439.54 22.7375 437.919 23.4074 437.09 22.6376C437.28 22.8876 436.94 23.1974 436.56 23.2274C436.18 23.2774 435.8 23.1175 435.47 22.9774C434.77 22.6874 434.08 22.3973 433.379 22.1073C433.62 23.0475 431.69 23.7675 430.77 23.0975C430.959 23.7474 429.689 24.1572 428.82 23.9272C427.959 23.7172 427.329 23.1673 426.489 22.8973C425.269 22.4874 423.769 22.7374 422.699 23.3275C421.64 23.9173 420.969 24.8175 420.52 25.7374C420.31 26.1673 420.08 26.6473 419.52 26.8275C418.229 27.2374 416.39 25.2574 415 25.4274C413.879 25.5873 412.75 25.7375 411.61 25.8876C412.3 26.9975 411.75 28.4274 410.37 29.1376C409.74 29.4374 408.939 29.6574 408.68 30.1674C408.29 30.9574 409.47 31.8876 408.879 32.5976C407.74 32.7175 406.55 32.5576 405.56 32.1474C404.96 31.9074 404.42 31.5676 403.77 31.4875C403.2 31.4174 402.63 31.5275 402.08 31.6474C399.61 32.1774 397.06 32.7275 395.1 33.9374C393.77 34.7575 392.46 35.9273 390.72 35.7575C389.68 35.6474 388.86 35.0475 387.85 34.7975C386.82 34.5475 385.69 34.6874 384.61 34.8373C382.67 35.1176 380.73 35.3876 378.78 35.6574C376.81 35.9374 374.71 36.2675 373.3 37.2975C373 37.5275 372.73 37.7775 372.37 37.9274C371.28 38.3876 369.949 37.8373 368.85 37.3974C367.74 36.9575 366.07 36.7275 365.46 37.5175C365.29 37.7375 365.23 37.9775 365.05 38.1774C364.47 38.7875 363.16 38.5475 362.23 38.2274C362.24 38.6573 362.09 39.0975 361.8 39.4674C360.56 39.8475 359.78 38.2574 358.45 38.1473C357.58 38.0675 356.91 38.6473 356.24 39.0575C354.68 40.0075 352.31 40.1874 350.53 39.4674C350.71 40.3973 350.63 41.3475 350.29 42.2474C348.77 41.9974 347.8 40.3573 346.32 40.7274C344.76 41.1073 345.51 42.9874 344.36 43.8275C343.66 44.3373 342.399 44.2574 341.699 43.7674C340.979 43.2774 340.77 42.4974 340.969 41.7974C340.12 42.0474 339.219 42.2974 338.32 42.1873C337.41 42.0674 336.57 41.4373 336.81 40.7974C337.07 40.1272 338.319 39.4273 337.609 38.9673C337.319 38.7774 336.87 38.8274 336.499 38.8972C335.479 39.1072 334.539 39.5073 333.779 40.0473C333.6 39.2673 332.699 38.6071 331.629 38.4772C330.549 38.3371 329.539 38.6071 328.979 39.2973C329.81 39.5173 329.579 40.4872 328.799 40.7673C328.039 41.0473 327.12 40.8674 326.28 40.6772C326.14 41.0273 326.01 41.3674 325.89 41.7272C324.74 41.7572 323.59 41.7873 322.439 41.8173C322.41 42.2572 322.379 42.6872 322.36 43.1271C321.09 42.6173 319.84 42.1173 318.58 41.6173C318.11 42.4371 317.6 43.2772 316.76 43.9271C315.91 44.5772 314.62 45.0072 313.43 44.7772C312.11 44.5472 310.78 43.5973 309.649 44.1173C308.86 44.4972 308.84 45.3873 308.08 45.7972C307.379 46.1871 306.33 45.9771 305.64 45.587C304.96 45.1871 304.48 44.627 303.82 44.1971C302.45 43.2772 300.27 43.0572 298.58 43.6471C299.61 44.0472 298.83 45.2372 297.8 45.6173C296.32 46.1871 294.47 46.2172 292.97 45.6971C292.379 45.4771 291.81 45.1971 291.149 45.1173C289.91 44.9672 288.78 45.5973 287.82 46.2071C287.58 45.5172 287.16 44.8673 286.56 44.2972C285.58 44.7171 284.59 45.1471 283.59 45.5672C282.919 43.3272 279.02 41.9671 276.11 42.877C274.81 43.2872 273.36 42.657 272.21 42.0472C270.05 40.9171 267.89 39.7872 265.74 38.6373C264.72 38.0973 263.66 37.5472 262.45 37.3172C261.22 37.087 259.77 37.2271 258.94 37.907C258.28 38.437 257.98 39.2571 257.05 39.4671C256.32 39.647 255.53 39.3172 254.919 38.9671C253.53 38.157 252.41 37.0972 251.689 35.9171C250.699 36.3172 249.719 36.7171 248.75 37.1173C248.39 37.2672 247.98 37.4171 247.58 37.3473C246.48 37.1373 246.83 35.6271 245.73 35.4271C245.06 36.4271 243.129 36.4771 241.59 36.3971C239.23 36.2572 236.85 36.1173 234.49 35.9772C234.24 37.2372 234.1 38.5072 234.12 39.7772C232.649 39.1571 231.379 38.3172 230.399 37.3272C228.31 37.7972 226.81 39.107 225 39.9871C223.18 40.8872 220.39 41.2371 219.03 40.0071C219 40.437 218.949 40.877 218.919 41.3071C216.919 40.487 214.11 39.747 212.57 40.977C211.99 41.457 211.66 42.1669 210.82 42.3271C209.87 42.507 208.749 41.8471 207.969 42.2771C207.629 42.457 207.51 42.8071 207.24 43.0471C206.61 43.6269 205.34 43.5071 204.399 43.217C203.439 42.917 202.46 42.507 201.469 42.677C200.66 42.8071 200.04 43.2971 199.229 43.427C197.959 43.6372 196.84 42.877 195.749 42.3672C193.34 41.207 190.29 41.0471 187.41 40.927C185.66 40.8672 183.85 40.7971 182.24 41.2871C181.029 41.647 180.009 42.3071 178.759 42.5869C177.499 42.8569 176.149 41.8672 175.279 41.157C174.069 40.127 171.769 40.8369 170.259 41.627C168.759 42.427 166.64 43.2571 165.21 42.397C165.07 43.187 164.939 43.9771 164.8 44.7671C163.31 44.5271 161.67 44.957 160.71 45.8171C160.98 44.5571 159.14 43.427 157.36 43.477C155.6 43.517 154.06 44.3871 152.969 45.3871C152.399 44.6068 152.21 43.697 152.399 42.8271C151.34 42.727 150.219 42.947 149.37 43.427C148.669 42.8569 148.199 42.127 148.08 41.3672C146.399 41.2871 144.87 42.5571 145.219 43.7571C144.74 43.5271 144.199 43.2871 143.66 43.377C143.149 43.4471 142.81 43.9571 143.11 44.2171C140.08 42.5071 135.689 43.9971 131.81 44.1671C128.14 44.3273 124.399 43.1971 120.8 43.7772C119.41 44.0072 118.11 44.4671 116.69 44.6173C114.7 44.837 112.58 44.3473 111.12 43.3473C109.85 42.4772 108.31 41.1173 106.79 41.7572C107.62 42.8072 107.53 44.2072 106.56 45.1771C105.58 46.1571 103.77 46.6671 102.14 46.4271C103.04 47.3873 103.68 48.4972 104.01 49.6373C101.21 50.1471 99.3698 47.087 96.4897 46.9671C95.0097 46.907 93.0498 47.4971 92.3498 46.5572C92.0698 46.1771 92.1997 45.6971 91.9597 45.2972C91.4997 44.5472 89.8996 44.5072 89.0298 45.0372C88.1497 45.5672 87.8198 46.4171 87.5398 47.2171C85.5698 44.3873 83.1199 41.7371 80.2598 39.3272C78.3797 39.8672 76.0398 39.417 74.7498 38.2772C74.3299 37.8971 73.9998 37.4571 73.4498 37.2071C72.8998 36.9671 72.2298 36.9471 71.5799 36.9371C69.0699 36.9071 66.5599 36.9171 64.0499 36.9571C64.4398 37.6871 64.7699 38.647 63.9198 39.1373C63.4198 39.4171 62.7198 39.4071 62.09 39.377C57.4899 39.127 52.89 38.7071 48.33 38.0972C47.29 37.9671 46.1498 37.7871 45.3901 37.2371C44.06 37.8872 42.9399 38.4671 41.4599 38.927C40.32 39.2871 39.1999 39.647 38.07 39.9971C37.7399 40.0972 37.3798 40.2071 37.04 40.147C36.5 40.0772 36.1899 39.677 35.9499 39.3172C35.1101 38.087 33.6 36.7371 31.7499 37.0272C31.14 37.1271 30.58 37.4071 29.9599 37.4571C28.3701 37.5572 27.4199 36.2571 26.8901 35.1671C24.4101 35.2372 21.9301 35.1971 19.4499 35.0472C19.54 33.2872 19.2399 31.5172 18.6 29.8272C16.9101 29.8272 15.3 30.7271 14.86 31.9271C14.64 32.5672 14.7299 33.2672 14.4301 33.8873C14.1298 34.5172 13.1498 35.0672 12.32 34.7772C12.6999 35.587 12.7399 36.4772 12.4399 37.3172C11.55 36.4471 10.1999 35.8472 8.7399 35.647C8.7099 37.0972 8.36 38.8672 6.4999 39.377C5.35 39.6971 4.08 39.377 2.84 39.337C1.61 39.2972 0.09 39.8172 0.1899 40.7071C0.1298 40.7071 0.06 40.6971 0 40.6871V16.407C1.73 17.907 4.3999 18.8473 7.0901 18.7372C10.23 18.6173 13.22 16.9672 13.97 14.7572C19.69 16.5572 26.22 16.9972 32.2901 15.9772C35.2901 17.0072 39.1002 16.6471 41.6402 15.1071C42.98 14.2873 45.8502 14.6772 47.5301 14.2973C48.3602 15.2673 49.72 15.9973 51.2501 16.2973C53.1102 15.5673 55.2201 15.1374 57.3402 15.0473C64.7201 14.7372 72.6402 18.3874 79.0802 15.7673C81.4401 18.6572 86.9601 18.9572 91.6002 18.9172C93.0101 18.9072 94.4103 18.8874 95.8202 18.8772C99.7802 18.8572 104.68 18.3674 105.98 15.6672C109.48 20.8474 121.67 20.7273 124.16 26.2072C125.34 25.8674 126.51 25.5173 127.69 25.1772C128.72 25.8874 129.75 26.6071 130.8 27.3273C132.46 25.9572 134.43 24.4972 136.94 24.4572C137.91 24.4472 138.9 24.6572 139.82 24.4572C140.55 24.2973 141.15 23.8971 141.7 23.5072C144.39 21.6571 147.08 19.7972 149.79 17.9471C152.49 20.7271 156.78 22.6771 161.43 23.2371C165.92 23.7771 170.54 23.0572 174.8 21.8672C176.01 19.5571 177.71 17.5772 178.94 15.2571C184.29 14.5772 189.65 13.8872 195.02 13.2071C196.15 13.0572 197.3 12.9071 198.3 12.4971C199.27 12.107 200.04 11.4871 200.99 11.0672C204.82 9.4171 209.54 11.5372 213.05 13.5272C216.55 15.5172 221.42 17.5472 225.12 15.7472C226.47 15.0973 227.57 13.9572 229.2 13.9572C229.94 13.9572 230.62 14.2072 231.26 14.4572C234.78 15.8371 238 17.6071 240.78 19.6872C241.66 20.3474 242.52 21.0373 243.64 21.4572C244.92 21.9472 246.42 22.0072 247.82 22.2472C250.39 22.6771 252.69 23.7172 255.25 24.2072C257.8 24.7172 260.94 24.5173 262.48 22.9672C265.09 24.9772 269.65 24.2672 273.27 23.4172C275.91 22.7773 278.56 22.1472 281.2 21.5273C282.19 21.2973 283.28 21.0573 284.23 21.3571C286.03 21.8771 286.91 24.0373 288.76 23.6374C289.85 23.4072 290.15 22.4072 290.67 21.6772C291.2 20.9472 292.93 20.4772 293.3 21.2573C297.99 21.9773 303.31 23.3474 306.86 25.6672C307.8 24.9372 308.74 24.2072 309.68 23.4773C315.79 26.4773 324.31 26.7073 330.7 24.0173C332.85 23.1174 335.86 22.0073 337.43 23.4072C338.79 20.5573 340.15 17.7072 341.52 14.8572C341.79 14.2874 342.09 13.6773 342.76 13.2974C345.36 11.8572 349.05 15.5174 351.96 14.4073C350.51 11.7474 353.83 8.40726 357.78 8.53736C361.11 8.63746 363.63 10.6473 365.76 12.5174C368.88 9.8174 373.73 8.21737 378.59 8.29737C379.92 10.1873 381.24 12.0674 382.56 13.9573C384.12 12.0073 385.67 10.0574 387.23 8.10718C388.23 8.46728 389.23 8.83717 390.23 9.19727C394.11 7.46727 399.96 9.44726 402.51 12.1873C402.95 10.8274 405.49 10.6873 407.43 10.6375C409.36 10.5674 411.88 9.56737 411.1 8.29737C414.6 10.2273 420.65 7.74735 420.13 4.59735C422.04 5.40715 424.4 5.64716 426.55 5.24726C428.24 7.19726 431.89 8.09739 434.86 7.31739C435.13 5.69729 438.28 5.49725 440.49 5.84735C446.38 6.78725 452.07 8.3874 457.29 10.5871C457 8.3874 460.08 6.49725 463.13 6.55725C466.16 6.62705 468.84 8.21717 470.26 10.1572C471.11 8.71727 472.25 7.35716 473.62 6.14716C477.89 9.74726 484.74 11.6772 491.27 11.1072C492.67 10.9973 494.15 10.7774 495.43 11.1973C498.51 8.13747 501.59 5.06739 504.67 2.00739C505.4 1.26739 506.21 0.4974 507.39 0.1673C509.41 -0.3825 511.59 0.637468 513.14 1.73737C514.68 2.82747 516.2 4.14729 518.34 4.40729C520.48 4.66729 522.94 2.90725 521.69 1.63745C523.5 1.60715 525.3 1.55735 527.11 1.52735C531.67 1.42725 536.66 3.92726 537.21 7.18726C539.35 7.14726 541.47 6.50739 542.96 5.40729C544.56 6.64729 545.83 8.08719 546.71 9.65729C547.91 9.06749 549.09 8.48739 550.29 7.90729C550.57 8.96739 550.93 10.1072 552.09 10.7773C553.15 11.4072 555.07 11.2474 555.58 10.4073C555.4 11.0872 556.19 11.8773 557.17 11.8773C562.12 12.8773 567.05 13.8876 571.98 14.8973C575.28 15.5675 578.69 16.2773 581.39 17.8174C582.83 18.6174 584.07 19.6573 585.71 20.2074C587.37 20.7574 589.69 20.6273 590.57 19.4774C591.47 22.2875 596.98 23.6573 600.09 21.8275C601.18 23.3075 603.63 24.1673 605.9 23.8973C608.17 23.6273 610.1 22.2274 610.47 20.5872C613.64 21.7474 616.24 23.7073 617.73 26.0374C618.46 26.1773 619.3 25.9473 619.75 25.5074C620.89 26.9574 622.98 28.6273 625.05 27.8773C626.85 27.2374 626.68 25.3973 627.27 24.0074C629.06 19.7274 638.85 19.0871 639.83 14.6772C640.71 16.3474 642.42 17.7874 644.57 18.6873C645.21 17.5872 645.85 16.4773 646.51 15.3772C647.81 15.4172 648.87 14.6572 649.8 13.9973C654.61 10.5173 660.79 8.03729 667.41 6.92719C670.24 8.23729 672.14 10.5373 672.4 12.9572C673.91 11.9072 676.23 11.5071 678.23 11.9471C679.02 10.5672 680.73 9.49716 682.71 9.10706C683.4 8.89706 684.07 9.39706 684.45 9.85706C684.82 10.3173 685.28 10.8771 686.02 10.8571C686.08 10.8571 686.14 10.8371 686.18 10.8273C687.05 14.1671 692.73 17.2172 697.36 16.8371C698.22 17.4672 699.08 18.0974 699.93 18.7172C700.99 18.0473 701.82 17.1872 702.35 16.2472C702.93 17.0573 703.8 17.7572 704.86 18.2672C707.16 17.8473 708.06 15.2972 710.42 15.3072C712.82 15.3072 715.17 18.0172 716.8 16.7371C717.9 19.0772 718.31 21.5772 717.95 24.0371C722.64 23.247 727.93 25.0571 730.06 28.187C730.38 28.647 730.66 29.167 731.27 29.437C733.17 30.2771 734.77 28.0571 734.91 26.447C737.73 27.5276 741.75 26.0376 742.2 23.7576C743.81 25.2176 747.1 23.5176 747.83 21.7276C748.56 19.9276 748.64 17.6876 750.86 16.7376C756.26 16.9376 761.529 18.4776 765.6 21.0376C768.05 19.9976 771.27 19.9675 773.75 20.9876C778.52 20.4275 783.87 19.3375 787.32 16.8877C791.16 16.7075 795.03 17.0576 798.69 17.8877C799.66 17.0776 800.62 16.2776 801.58 15.4675C802.379 16.5376 803.62 17.4375 805.09 18.0376C805.79 16.1775 807.399 14.4876 809.57 13.3574C808.82 14.7075 811.419 16.0175 813.3 15.5074C815.19 14.9974 816.14 13.4975 816.61 12.0873C817.07 10.6674 817.26 9.14738 818.39 7.93738C819.24 9.42738 821.52 10.4074 823.75 10.2374C825.96 10.0775 827.92 8.7774 828.35 7.2074C833.55 11.1974 838.75 15.1774 843.97 19.1774C844.74 18.5575 845.53 17.9273 846.31 17.3174C847.67 18.7473 849.6 19.8973 851.81 20.5873C852.2 20.0575 852.6 19.5175 852.99 18.9874C855.56 18.8275 858.13 18.6673 860.72 18.5074C861.42 18.4473 862.18 18.3972 862.75 18.0674C863.34 17.7273 863.58 17.1573 863.79 16.6175C864.61 14.4473 865.44 12.2674 866.27 10.0975C866.14 11.3773 869.11 11.1873 870.29 10.2274C871.46 9.25736 872.89 7.87728 874.52 8.38758C875.3 8.63758 875.7 9.25748 876.3 9.68738C876.85 10.0775 877.85 10.2575 878.33 9.90735C879.769 10.4474 881.62 11.1974 882.83 11.6274C884.5 12.2275 886.46 12.8276 888.19 12.3076C889.01 12.0576 889.66 11.5874 890.46 11.3076C893.12 10.3974 896.26 11.9175 899.129 11.4675C900.219 11.2976 901.219 10.8574 902.33 10.8774C904.75 10.9274 906.29 13.1377 908.71 13.1377C911.19 13.1377 912.73 10.8076 915.21 10.7476C917.629 10.6875 919.02 12.7276 921.169 13.5376C923.54 14.4375 926.49 13.6574 928.68 12.5475C930.88 11.4374 932.82 9.9875 935.35 9.33741C935.95 9.1875 936.57 9.0874 937.19 9.1875C937.37 9.2275 937.53 9.26758 937.69 9.32758C937.85 9.26748 938.01 9.2275 938.19 9.1875C938.81 9.0874 939.43 9.1875 940.03 9.33741C942.56 9.9875 944.5 11.4374 946.7 12.5475C948.89 13.6574 951.84 14.4375 954.21 13.5376C956.36 12.7275 957.75 10.6875 960.169 10.7476C962.649 10.8077 964.19 13.1377 966.669 13.1377C969.09 13.1377 970.63 10.9275 973.05 10.8774C974.16 10.8574 975.16 11.2976 976.25 11.4675C979.12 11.9175 982.26 10.3974 984.919 11.3076C985.719 11.5874 986.37 12.0576 987.19 12.3076C988.919 12.8276 990.879 12.2275 992.55 11.6274C993.76 11.1975 995.61 10.4475 997.05 9.90735C997.53 10.2575 998.53 10.0776 999.08 9.68738C999.68 9.25748 1000.08 8.63758 1000.86 8.38758C1002.49 7.87728 1003.92 9.25746 1005.09 10.2274C1006.27 11.1874 1009.24 11.3773 1009.11 10.0975C1009.94 12.2674 1010.77 14.4474 1011.59 16.6175C1011.8 17.1573 1012.04 17.7273 1012.63 18.0674C1013.2 18.3972 1013.96 18.4474 1014.66 18.5074C1017.25 18.6673 1019.82 18.8275 1022.39 18.9874C1022.78 19.5174 1023.18 20.0575 1023.57 20.5873C1025.78 19.8974 1027.71 18.7474 1029.07 17.3174C1029.85 17.9273 1030.64 18.5575 1031.41 19.1774C1036.63 15.1774 1041.83 11.1974 1047.03 7.2074C1047.46 8.7775 1049.42 10.0775 1051.63 10.2374C1053.86 10.4073 1056.14 9.42728 1056.99 7.93738C1058.12 9.14738 1058.31 10.6674 1058.77 12.0873C1059.24 13.4975 1060.19 14.9974 1062.08 15.5074C1063.96 16.0174 1066.56 14.7075 1065.81 13.3574C1067.98 14.4875 1069.59 16.1775 1070.29 18.0376C1071.76 17.4375 1073 16.5376 1073.8 15.4675C1074.76 16.2776 1075.72 17.0776 1076.69 17.8877C1080.35 17.0576 1084.22 16.7075 1088.06 16.8877C1091.51 19.3374 1096.86 20.4275 1101.63 20.9876C1104.11 19.9676 1107.33 19.9976 1109.78 21.0376C1113.85 18.4775 1119.12 16.9375 1124.52 16.7376C1126.74 17.6876 1126.82 19.9275 1127.55 21.7276C1128.28 23.5176 1131.57 25.2176 1133.18 23.7576C1133.63 26.0376 1137.65 27.5275 1140.47 26.4475C1140.61 28.0576 1142.21 30.2776 1144.11 29.4375C1144.72 29.1675 1145 28.6475 1145.32 28.1875C1147.45 25.0576 1152.74 23.2476 1157.43 24.0376C1157.07 21.5776 1157.48 19.0776 1158.58 16.7376C1160.21 18.0176 1162.56 15.3077 1164.96 15.3077C1167.32 15.2977 1168.22 17.8477 1170.52 18.2677C1171.58 17.7577 1172.45 17.0577 1173.03 16.2477C1173.56 17.1876 1174.39 18.0477 1175.45 18.7177C1176.3 18.0978 1177.16 17.4677 1178.02 16.8376C1182.65 17.2177 1188.33 14.1677 1189.2 10.8278C1189.24 10.8376 1189.3 10.8575 1189.36 10.8575C1190.1 10.8775 1190.56 10.3177 1190.93 9.85755C1191.31 9.39755 1191.98 8.89755 1192.67 9.10755C1194.65 9.49765 1196.36 10.5678 1197.15 11.9477C1199.15 11.5078 1201.47 11.9077 1202.98 12.9577C1203.24 10.5378 1205.14 8.23768 1207.97 6.92768C1214.59 8.03778 1220.77 10.5178 1225.58 13.9978C1226.51 14.6577 1227.57 15.4177 1228.87 15.3777C1229.53 16.4778 1230.17 17.5876 1230.81 18.6877C1232.96 17.7878 1234.67 16.348 1235.55 14.6778C1236.53 19.0877 1246.32 19.7278 1248.11 24.0079C1248.7 25.3978 1248.53 27.2378 1250.33 27.8777C1252.4 28.6277 1254.49 26.9579 1255.63 25.5079C1256.08 25.9478 1256.92 26.1778 1257.65 26.0379C1259.14 23.7078 1261.74 21.7478 1264.91 20.5876C1265.28 22.2277 1267.21 23.6277 1269.48 23.8978C1271.75 24.1679 1274.2 23.308 1275.29 21.828C1278.4 23.6578 1283.91 22.2879 1284.81 19.4778C1285.69 20.6277 1288.01 20.7579 1289.67 20.2079C1291.31 19.6579 1292.55 18.6181 1293.99 17.818C1296.69 16.278 1300.1 15.568 1303.4 14.8978C1308.33 13.888 1313.26 12.8777 1318.21 11.8777C1319.19 11.8777 1319.98 11.0878 1319.8 10.4078C1320.31 11.2479 1322.23 11.4078 1323.29 10.7779C1324.45 10.1077 1324.81 8.96778 1325.09 7.90778C1326.29 8.48788 1327.47 9.06798 1328.67 9.65778C1329.55 8.08768 1330.82 6.64778 1332.42 5.40778C1333.91 6.50788 1336.03 7.14775 1338.17 7.18775C1338.72 3.92775 1343.71 1.4278 1348.27 1.5279C1350.08 1.5579 1351.88 1.6077 1353.69 1.638C1352.44 2.9078 1354.9 4.66778 1357.04 4.40778C1359.18 4.14778 1360.7 2.82796 1362.24 1.73786C1363.79 0.637957 1365.97 -0.382012 1367.99 0.167788C1369.17 0.497888 1369.98 1.26788 1370.71 2.00788C1373.79 5.06798 1376.87 8.13796 1379.95 11.1978C1381.23 10.7779 1382.71 10.9978 1384.11 11.1077C1390.64 11.6778 1397.49 9.74775 1401.76 6.14765C1403.13 7.35765 1404.27 8.71776 1405.12 10.1577C1406.54 8.21776 1409.22 6.6277 1412.25 6.5578C1415.3 6.4977 1418.38 8.38789 1418.09 10.5876C1423.31 8.38789 1429 6.7878 1434.89 5.8479C1437.1 5.4978 1440.25 5.69777 1440.52 7.31787C1443.49 8.09787 1447.14 7.19781 1448.83 5.24781C1450.98 5.64771 1453.34 5.4077 1455.25 4.5979C1454.73 7.7478 1460.78 10.2278 1464.28 8.29785C1463.5 9.56785 1466.02 10.5679 1467.95 10.638C1469.89 10.6878 1472.43 10.8278 1472.87 12.1877C1475.42 9.44775 1481.27 7.46776 1485.15 9.19776C1486.15 8.83766 1487.15 8.46777 1488.15 8.10767C1489.71 10.0579 1491.26 12.0078 1492.82 13.9578C1494.14 12.0679 1495.46 10.1878 1496.79 8.29785C1501.65 8.21775 1506.5 9.81789 1509.62 12.5179C1511.75 10.6478 1514.27 8.63801 1517.6 8.53791C1521.55 8.40781 1524.87 11.7479 1523.42 14.4078C1526.33 15.5179 1530.02 11.8578 1532.62 13.2979C1533.29 13.6778 1533.59 14.2879 1533.86 14.8577C1535.23 17.7078 1536.59 20.5579 1537.95 23.4077C1539.52 22.0078 1542.53 23.1179 1544.68 24.0178C1551.07 26.7077 1559.59 26.4778 1565.7 23.4778C1566.64 24.2078 1567.58 24.9378 1568.52 25.6677C1572.07 23.3479 1577.39 21.9778 1582.08 21.2578C1582.45 20.4778 1584.18 20.9477 1584.71 21.6777C1585.23 22.4077 1585.53 23.4077 1586.62 23.6379C1588.47 24.0378 1589.35 21.8775 1591.15 21.3575C1592.1 21.0577 1593.19 21.2978 1594.18 21.5278C1596.82 22.1477 1599.47 22.7778 1602.11 23.4177C1605.73 24.2678 1610.29 24.9778 1612.9 22.9677C1614.44 24.5177 1617.58 24.7177 1620.13 24.2077C1622.69 23.7177 1624.99 22.6777 1627.56 22.2477C1628.96 22.0077 1630.46 21.9477 1631.74 21.4577C1632.86 21.0378 1633.72 20.3478 1634.6 19.6877C1637.38 17.6076 1640.6 15.8376 1644.12 14.4577C1644.76 14.2077 1645.44 13.9577 1646.18 13.9577C1647.81 13.9577 1648.91 15.0978 1650.26 15.7477C1653.96 17.5477 1658.83 15.5177 1662.33 13.5277C1665.84 11.5377 1670.56 9.41759 1674.39 11.0677C1675.34 11.4876 1676.11 12.1075 1677.08 12.4976C1678.08 12.9075 1679.23 13.0577 1680.36 13.2076C1685.73 13.8878 1691.09 14.5777 1696.44 15.2576C1697.67 17.5777 1699.37 19.5576 1700.58 21.8677C1704.84 23.0576 1709.46 23.7776 1713.95 23.2376C1718.6 22.6775 1722.89 20.7276 1725.59 17.9476C1728.3 19.7977 1730.99 21.6576 1733.68 23.5077C1734.23 23.8976 1734.83 24.2977 1735.56 24.4577C1736.48 24.6577 1737.47 24.4477 1738.44 24.4577C1740.95 24.4977 1742.92 25.9577 1744.58 27.3278C1745.63 26.6076 1746.66 25.8879 1747.69 25.1777C1748.87 25.5178 1750.04 25.8679 1751.22 26.2077C1753.71 20.7277 1765.9 20.8478 1769.4 15.6677C1770.7 18.3679 1775.6 18.8576 1779.56 18.8777C1780.97 18.888 1782.37 18.9077 1783.78 18.9177C1788.42 18.9577 1793.94 18.6577 1796.3 15.7678C1802.74 18.3879 1810.66 14.7378 1818.04 15.0478C1820.16 15.1379 1822.27 15.5678 1824.13 16.2978C1825.66 15.9978 1827.02 15.2678 1827.85 14.2978C1829.53 14.6777 1832.4 14.2877 1833.74 15.1075C1836.28 16.6475 1840.09 17.0077 1843.09 15.9777C1849.16 16.9977 1855.69 16.5578 1861.41 14.7577C1862.16 16.9677 1865.15 18.6178 1868.29 18.7377C1871.42 18.8678 1874.53 17.5678 1876.16 15.6178C1879.85 20.4476 1886.9 23.8478 1894.49 24.4476C1895.99 24.5677 1897.53 24.5875 1898.93 24.9876C1900.23 25.3575 1901.32 26.0376 1902.52 26.5477C1906.91 28.4176 1913.01 27.8575 1916.62 25.2577C1917.77 25.5777 1918.9 25.9375 1920 26.3477Z" fill="#F3DCAD"/>
</svg>
