<svg width="52" height="76" viewBox="0 0 52 76" fill="none" xmlns="http://www.w3.org/2000/svg">
<mask id="mask0_6378_12765" style="mask-type:alpha" maskUnits="userSpaceOnUse" x="0" y="0" width="52" height="76">
<path d="M0 0H52V46C52 62.5685 38.5685 76 22 76H0V0Z" fill="#D9D9D9"/>
</mask>
<g mask="url(#mask0_6378_12765)">
<g clip-path="url(#clip0_6378_12765)">
<path d="M36.5864 31.0775C39.8217 30.8755 42.9559 29.2591 45.2812 26.8345C47.5055 24.4098 48.921 21.278 49.3254 18.0452C49.8309 14.5093 49.2243 10.8724 47.5055 7.74061C45.7868 4.60881 42.9559 2.18419 39.5184 1.07291C33.9577 -0.644528 27.2849 1.98214 24.0496 6.9324C20.8143 11.8827 20.9154 18.7524 23.9485 23.9047C26.5772 28.2488 31.5312 31.3806 36.5864 31.0775Z" fill="#869DFD"/>
<path d="M47.6094 7.84206C46.3961 5.51847 44.4752 3.59898 42.2509 2.28564C42.352 3.09385 42.4531 3.90206 42.4531 4.60924C42.7564 10.4687 40.7344 16.9344 35.5781 19.9651C32.0395 21.9857 27.8943 22.3898 24.2546 20.2682C23.4458 19.6621 22.6369 18.9549 21.8281 18.2477C22.1314 20.1672 22.8392 22.0867 23.9513 23.8041C26.58 28.1482 31.534 31.28 36.5892 30.9769C39.8244 30.7749 42.9586 29.1585 45.284 26.7339C47.5083 24.3092 48.9237 21.1775 49.3281 17.9446C49.9347 14.6108 49.3281 10.8728 47.6094 7.84206Z" fill="#7A4EBD"/>
<path d="M28.8047 28.8552C31.1301 30.3706 33.8598 31.1788 36.5896 31.0777C39.8249 30.8757 42.9591 29.2593 45.2845 26.8347C47.5087 24.41 48.9242 21.2782 49.3286 18.0454C49.3286 17.7423 49.4297 17.4393 49.4297 17.0352C46.4977 25.3193 37.6006 32.6941 28.8047 28.8552Z" fill="#4848A3"/>
<path d="M26.7825 13.0953C28.0968 11.984 29.1078 10.5696 30.22 9.35732C31.3321 8.04399 32.6465 6.83168 34.2641 6.32655C35.174 6.02347 36.2862 6.02347 37.1961 5.61937C38.106 5.21527 39.0159 4.40706 38.9148 3.3968C38.9148 2.79065 38.4093 2.1845 37.9038 1.88142C37.3983 1.57834 36.7917 1.37629 36.084 1.37629C34.5674 1.27526 32.9498 1.57834 31.4332 2.08347C29.3101 2.79065 27.3891 4.00296 25.8726 5.61937C24.356 7.33681 23.5472 9.55937 23.7494 11.7819C23.8505 12.5901 24.1538 13.4994 24.9626 13.7014C25.6703 13.9035 26.277 13.4994 26.7825 13.0953Z" fill="#6FD0FF"/>
<path d="M39.5152 4.30579C39.6163 4.60887 39.7174 4.91194 39.9196 5.21502C40.1218 5.41707 40.4251 5.61912 40.7284 5.61912C41.0317 5.5181 41.335 5.21502 41.335 4.91194C41.335 4.60887 41.2339 4.20476 41.1328 3.90169C41.0317 3.59861 40.8295 3.29553 40.5262 3.19451C40.2229 2.99246 39.9196 2.99246 39.6163 3.19451C39.313 3.29553 39.4141 3.90169 39.5152 4.30579Z" fill="#6FD0FF"/>
<path d="M33.5519 1.98215C31.2265 2.38625 29.0022 3.29549 27.3846 4.9119C25.6658 6.52831 24.5537 8.75087 24.6548 11.0745C24.7559 9.96318 25.2614 9.05395 25.9691 8.14472C28.5978 4.50779 32.9452 2.28523 37.4949 2.08318C36.1805 1.67907 34.8662 1.67907 33.5519 1.98215Z" fill="#CBEFF7"/>
<path d="M42.2482 22.8948C44.2702 22.0866 46.4945 21.5815 48.6176 21.3794C48.7187 21.0764 48.8199 20.7733 48.921 20.4702C46.4945 20.6723 44.1691 21.1774 41.9449 22.0866C38.0018 23.703 34.4632 26.3297 31.9357 29.7646C31.8346 29.9666 31.6324 30.0677 31.5312 30.2697C31.8346 30.3707 32.1379 30.4718 32.3401 30.5728C32.4412 30.4718 32.5423 30.3707 32.5423 30.2697C35.0699 26.9359 38.4062 24.4102 42.2482 22.8948Z" fill="#CBEFF7"/>
<path d="M41.5432 17.7424C44.0708 16.4291 46.8006 15.6209 49.5303 15.1158C49.5303 14.8127 49.5303 14.5096 49.5303 14.2065C46.5983 14.7117 43.8686 15.6209 41.2399 16.9342C36.5892 19.2578 32.545 22.8948 29.6131 27.2389C29.3097 27.744 29.0064 28.2491 28.7031 28.8553C28.9053 29.0573 29.2086 29.1583 29.4108 29.3604C29.7142 28.8553 30.0175 28.2491 30.3208 27.845C33.1517 23.5009 36.9936 19.965 41.5432 17.7424Z" fill="#FED835"/>
<path d="M27.1797 24.9152C29.6062 19.7629 33.5492 15.2168 38.301 12.085C41.1319 10.2665 44.3672 8.85215 47.7036 8.04395C47.7036 7.94292 47.6025 7.94292 47.6025 7.8419C47.4003 7.53882 47.2992 7.33677 47.097 7.03369C43.7606 7.94292 40.5253 9.25626 37.5933 11.1757C32.6392 14.4086 28.5951 19.1568 26.0676 24.5111C25.8653 25.0163 25.6631 25.5214 25.4609 26.1276C25.7642 26.4306 26.0676 26.7337 26.3709 27.0368C26.5731 26.2286 26.8764 25.5214 27.1797 24.9152Z" fill="#FED835"/>
<path d="M25.0574 18.1465C28.8994 12.085 34.7633 7.53883 41.5372 5.31627C42.7505 4.91216 43.9637 4.60909 45.0758 4.40704C44.5703 3.90191 43.9637 3.39678 43.3571 2.99268C42.6494 3.19473 41.8405 3.39678 41.0317 3.69986C33.8534 6.12447 27.6861 10.8727 23.642 17.2373C23.0354 18.1465 22.631 18.9547 22.2266 19.864C22.4288 20.6722 22.7321 21.5814 23.1365 22.3896C23.5409 20.9753 24.1475 19.5609 25.0574 18.1465Z" fill="#FED835"/>
<path d="M35.0694 3.49776C36.9903 2.68956 38.9113 1.98238 41.0345 1.6793C40.6301 1.47725 40.1245 1.2752 39.619 1.17417C39.2146 1.07315 38.8102 0.972119 38.3047 0.871094C36.9903 1.2752 35.676 1.6793 34.4628 2.28545C29.812 4.40699 25.7679 7.84187 22.7348 12.186C22.3304 12.6911 21.926 13.2973 21.6227 14.0044C21.5216 15.1157 21.5216 16.126 21.6227 17.2373C22.2293 15.6208 23.1392 14.2065 23.9481 12.9942C26.8801 8.7511 30.722 5.51828 35.0694 3.49776Z" fill="#FED835"/>
<path d="M42.2482 22.8948C44.2702 22.0866 46.4945 21.5815 48.6176 21.3794C48.7187 21.0764 48.8199 20.7733 48.921 20.4702C46.4945 20.6723 44.1691 21.1774 41.9449 22.0866C38.0018 23.703 34.4632 26.3297 31.9357 29.7646C31.8346 29.9666 31.6324 30.0677 31.5312 30.2697C31.8346 30.3707 32.1379 30.4718 32.3401 30.5728C32.4412 30.4718 32.5423 30.3707 32.5423 30.2697C35.0699 26.9359 38.4062 24.4102 42.2482 22.8948Z" fill="#6FD0FF"/>
<path d="M29.6052 27.2391C29.3019 27.7442 28.9986 28.2493 28.6953 28.8555C28.8975 29.0575 29.2008 29.1586 29.403 29.3606C29.7063 28.8555 30.0097 28.2493 30.313 27.8452C31.2229 26.4309 32.335 25.1175 33.4471 23.8042C32.9416 23.9052 32.5372 24.0063 32.0317 24.0063C31.2229 25.0165 30.313 26.1278 29.6052 27.2391Z" fill="#6FD0FF"/>
<path d="M41.136 16.9342L41.0349 17.0353C40.7316 17.5404 40.4283 18.0455 40.125 18.5506C40.6305 18.2476 41.0349 18.0455 41.5404 17.7424C44.068 16.4291 46.7978 15.6209 49.5276 15.1158C49.5276 14.8127 49.5276 14.5096 49.5276 14.2065C46.5956 14.7117 43.7647 15.6209 41.136 16.9342Z" fill="#6FD0FF"/>
<path d="M26.7757 23.0972C26.5735 23.5013 26.3713 24.0064 26.1691 24.4105C25.9669 24.9156 25.7647 25.4208 25.5625 26.0269C25.8658 26.33 26.1691 26.6331 26.4724 26.9361C26.6746 26.229 26.9779 25.5218 27.2813 24.9156C27.4835 24.4105 27.7868 24.0064 27.989 23.5013C27.4835 23.4002 27.1801 23.1982 26.7757 23.0972Z" fill="#6FD0FF"/>
<path d="M47.6066 7.8419C47.4044 7.53882 47.3033 7.33677 47.1011 7.03369C45.8879 7.33677 44.7757 7.74087 43.6636 8.14497C43.6636 8.54908 43.5625 9.05421 43.5625 9.45831C44.9779 8.95318 46.2923 8.44805 47.8088 8.14497C47.7077 7.94292 47.6066 7.8419 47.6066 7.8419Z" fill="#6FD0FF"/>
<path d="M23.1369 22.2885C23.2381 21.8844 23.3392 21.5814 23.5414 21.1772C23.1369 20.8742 22.7325 20.4701 22.3281 20.167C22.5303 20.8742 22.8336 21.5814 23.1369 22.2885Z" fill="#6FD0FF"/>
<path d="M43.7656 3.2959C43.7656 3.7 43.7656 4.20513 43.8667 4.60923C44.2711 4.50821 44.6756 4.40718 45.08 4.40718C44.5744 4.00308 44.17 3.59898 43.7656 3.2959Z" fill="#6FD0FF"/>
<path d="M39.5184 29.4614C39.114 29.5625 38.8107 29.6635 38.4062 29.7645V29.6635C38.7096 29.4614 39.114 29.4614 39.5184 29.4614Z" fill="#7A4EBD"/>
<path d="M32.3419 79.368C32.3419 78.9639 32.3419 78.5598 32.3419 78.2567C31.2298 77.4485 30.7243 75.8321 30.9265 74.5188C31.1287 72.9024 32.0386 71.488 33.0496 70.1747L33.1507 69.9726C34.0607 68.7603 34.9706 67.447 35.2739 65.9316C35.375 65.5275 35.4761 65.0224 35.375 64.5173C34.8695 65.0224 34.1618 65.3255 33.454 65.5275C32.6452 65.7296 31.6342 65.4265 31.0276 64.9214C30.5221 64.5173 30.2188 63.9111 30.2188 63.3049C30.2188 62.5978 30.6232 61.9916 31.3309 61.5875C32.1397 61.0824 33.2518 61.0824 33.9596 61.5875C34.8695 62.1937 35.375 63.2039 35.4761 64.2142C35.9816 63.709 36.386 63.2039 36.6893 62.7998C40.5312 57.5465 41.4412 51.2829 41.4412 46.9388C41.5423 41.6854 40.5313 36.4321 39.1158 30.2695H39.2169C40.7335 36.4321 41.6434 41.5844 41.5423 46.9388C41.4412 51.2829 40.6324 57.6475 36.7904 62.9008C36.4871 63.406 35.9816 63.9111 35.4761 64.4162C35.4761 64.9214 35.4761 65.5275 35.375 66.0326C34.9706 67.548 34.0607 68.8614 33.1507 70.0737L33.0496 70.2757C32.1397 71.589 31.2298 73.0034 30.9265 74.6198C30.7243 75.8321 31.2298 77.3475 32.2408 78.1557C32.3419 77.6506 32.5441 77.2465 32.8474 76.9434C33.2518 76.5393 33.8585 76.4383 34.364 76.5393C34.7684 76.6403 35.0717 76.9434 35.1728 77.2465C35.2739 77.6506 35.1728 77.9537 34.8695 78.2567C34.364 78.6608 33.6563 78.8629 33.0496 78.6609C32.8474 78.5598 32.6452 78.4588 32.443 78.3578C32.443 78.6608 32.443 78.9639 32.443 79.368C32.8474 84.6214 36.9926 89.3696 42.1489 90.3798V90.4809C36.8915 89.4706 32.7463 84.6214 32.3419 79.368ZM33.1507 76.9434C32.8474 77.2465 32.6452 77.6506 32.5441 78.1557C32.7463 78.2567 32.9485 78.3578 33.1507 78.4588C33.6562 78.6608 34.4651 78.4588 34.8695 78.1557C35.0717 77.9537 35.2739 77.6506 35.1728 77.2465C35.0717 76.9434 34.8695 76.7414 34.4651 76.6403C34.1618 76.5393 33.8585 76.5393 33.6562 76.6403C33.454 76.6403 33.2518 76.7414 33.1507 76.9434ZM33.9596 61.6885C33.2518 61.2844 32.2408 61.2844 31.432 61.6885C30.8254 62.0926 30.421 62.5978 30.421 63.3049C30.421 63.8101 30.7243 64.4162 31.2298 64.8203C31.8364 65.3255 32.7463 65.5275 33.5551 65.4265C34.2629 65.2244 34.9706 64.9214 35.4761 64.4162C35.375 63.3049 34.8695 62.1937 33.9596 61.6885Z" fill="#6FD0FF"/>
<path d="M39.6199 29.6631C39.9233 30.2692 40.2266 30.7744 40.5299 31.3805C39.9233 31.8857 39.2155 32.0877 38.5078 32.0877C38.5078 31.4816 38.5078 30.8754 38.5078 30.2692C38.8111 30.0672 39.2155 29.8651 39.6199 29.6631Z" fill="#7A4EBD"/>
<path d="M38.4062 29.8651C38.7096 29.7641 39.0129 29.6631 39.3162 29.6631C39.0129 29.7641 38.7096 29.9662 38.5074 30.0672C38.4062 30.0672 38.4062 29.9662 38.4062 29.8651Z" fill="#7A4EBD"/>
<path d="M38.4062 29.5623V29.4612C38.7096 29.0571 39.0129 29.0571 39.4173 29.0571C39.4173 29.1582 39.5184 29.2592 39.5184 29.3602C39.114 29.2592 38.7096 29.3602 38.4062 29.5623Z" fill="#7A4EBD"/>
<path d="M38.6094 31.8859C39.0138 31.4818 39.7215 31.2797 40.3281 31.3807C40.0248 31.5828 39.8226 31.6838 39.5193 31.7848C39.216 31.8859 38.9127 31.9869 38.6094 31.8859Z" fill="#491D6B"/>
<path d="M32.648 96.7451L32.5469 96.6441C38.6131 81.4902 38.6131 64.1138 32.5469 48.9599L32.648 48.8589C38.8153 64.2148 38.8153 81.5912 32.648 96.7451Z" fill="#6FD0FF"/>
<path d="M33.4566 34.6143C31.4345 31.4825 27.8959 29.1589 24.1551 29.0579C20.4143 28.9568 16.6735 31.2804 14.9547 34.7153C13.236 38.1502 13.6404 42.3933 15.6625 45.525C17.7856 48.6568 21.5264 50.5763 25.2672 50.6774C27.7948 50.6774 30.3224 49.8692 32.1422 48.2527C35.9841 44.9189 36.1864 38.8574 33.4566 34.6143Z" fill="#F99AF6"/>
<path d="M18.2887 46.4342C18.8953 46.6362 19.7042 46.7372 20.2097 46.3331C20.8163 45.828 21.0185 44.9188 20.9174 44.1106C20.8163 42.0901 19.9064 40.1706 19.9064 38.049C19.8053 35.9275 20.7152 33.806 21.7262 31.9875C22.0295 31.4824 22.3328 30.8762 21.9284 30.3711C21.6251 29.967 21.0185 30.068 20.513 30.2701C17.9854 31.0783 15.9634 33.0988 15.0534 35.5234C14.1435 37.948 14.2446 40.7767 15.2556 43.2013C16.0645 44.6157 16.9744 45.929 18.2887 46.4342Z" fill="#FED835"/>
<path d="M19.6022 31.2804C17.8834 32.0886 16.5691 33.5029 15.7603 35.1193C14.9515 36.8368 14.8503 38.7563 15.3559 40.5747C15.457 40.9788 15.5581 41.2819 15.8614 41.585C15.8614 41.585 15.8614 41.585 15.8614 41.686C16.1647 42.0901 16.7713 41.787 16.7713 41.2819C16.7713 37.9481 18.0856 34.7152 20.2088 32.0886C20.6132 31.6845 20.2088 31.0783 19.6022 31.2804Z" fill="white"/>
<path d="M33.4536 34.6145C31.4315 31.4827 27.8929 29.1591 24.1521 29.0581C23.5455 29.0581 22.8378 29.1591 22.2312 29.2602C25.972 30.3714 29.1062 33.6043 29.6117 37.7463C30.3194 43.2017 26.7808 47.9499 22.029 49.7684C21.8267 49.8694 21.6245 49.8694 21.5234 49.8694C22.7367 50.2735 24.051 50.5766 25.3654 50.5766C27.8929 50.5766 30.4205 49.7684 32.2404 48.152C35.9812 44.9191 36.1834 38.8576 33.4536 34.6145Z" fill="#7A4EBD"/>
<path d="M23.8471 46.6359C24.1504 43.3021 25.768 40.0693 28.2956 37.9477C29.9133 36.5334 31.7331 35.6241 33.7552 35.119C33.6541 35.018 33.6541 34.9169 33.553 34.8159C31.5309 35.321 29.6099 36.3313 27.9923 37.7457C25.3636 39.9682 23.746 43.3021 23.4427 46.6359C23.3416 47.6462 23.3416 49.3636 24.2515 50.677C24.3526 50.677 24.5548 50.677 24.6559 50.677C23.746 49.3636 23.746 47.6462 23.8471 46.6359Z" fill="white"/>
<path d="M25.1633 34.5129C26.5787 33.3006 28.2975 32.1893 30.3195 31.2801C30.1173 31.1791 29.9151 30.977 29.7129 30.876C27.8931 31.7852 26.1743 32.8965 24.7589 34.1088C22.0291 36.4324 20.1081 39.2611 19.2993 42.2919C18.6927 44.5144 18.5916 46.737 19.0971 48.7575C19.2993 48.9596 19.6026 49.0606 19.9059 49.2627C19.1982 47.0401 19.1982 44.7165 19.9059 42.3929C20.7148 39.4632 22.5346 36.7355 25.1633 34.5129Z" fill="white"/>
<path d="M19.0983 35.1192C21.0193 32.6946 23.5469 30.7751 26.6811 29.4618C26.1756 29.3607 25.67 29.2597 25.0634 29.1587C22.3336 30.472 20.1094 32.2905 18.3906 34.5131C16.1664 37.3418 15.0542 40.7766 14.9531 44.1105C15.1553 44.6156 15.4586 45.1208 15.7619 45.6259C15.8631 45.7269 15.9642 45.8279 15.9642 45.929C15.5597 42.292 16.6719 38.251 19.0983 35.1192Z" fill="white"/>
<path d="M23.4427 46.5351C23.3416 47.5453 23.3416 49.2628 24.2515 50.5761C24.3526 50.5761 24.5548 50.5761 24.6559 50.5761C23.746 49.3638 23.6449 47.5453 23.746 46.5351C23.746 46.131 23.8471 45.7269 23.9482 45.3228C23.8471 45.4238 23.746 45.4238 23.6449 45.4238C23.5438 45.8279 23.5438 46.232 23.4427 46.5351Z" fill="#FED835"/>
<path d="M33.5524 34.7153C31.5303 35.2205 29.6094 36.2307 27.9917 37.6451L27.8906 37.7461C27.8906 37.8471 27.8906 38.0492 27.8906 38.1502C27.9917 38.0492 28.0928 37.9482 28.1939 37.8471C29.8116 36.4328 31.6314 35.5235 33.6535 35.0184C33.6535 34.9174 33.6535 34.8164 33.5524 34.7153Z" fill="#FED835"/>
<path d="M18.7969 45.9292C18.7969 46.8384 18.898 47.8487 19.1002 48.7579C19.3024 48.96 19.6057 49.061 19.909 49.263C19.6057 48.2528 19.5046 47.2425 19.5046 46.1312H19.4035C19.1002 46.0302 18.898 46.0302 18.7969 45.9292Z" fill="#FED835"/>
<path d="M30.3199 31.2801C30.1176 31.1791 29.9154 30.977 29.7132 30.876C28.7022 31.3811 27.6912 31.9873 26.7812 32.4924C26.8824 32.6944 26.9835 32.8965 26.9835 33.0985C28.0956 32.3914 29.1066 31.7852 30.3199 31.2801Z" fill="#FED835"/>
<path d="M14.9531 44.1103C15.1553 44.6154 15.4586 45.1205 15.7619 45.6256C15.8631 45.7267 15.9642 45.8277 15.9642 45.9287C15.8631 45.5246 15.8631 45.1205 15.8631 44.7164C15.5597 44.5144 15.1553 44.2113 14.9531 43.9082C14.9531 43.9082 14.9531 44.0092 14.9531 44.1103Z" fill="#FED835"/>
<path d="M26.6783 29.4618C26.1728 29.3607 25.6673 29.2597 25.0607 29.1587C24.9596 29.2597 24.7574 29.2597 24.6562 29.3607C24.8585 29.5628 25.0607 29.8659 25.2629 30.0679C25.7684 29.8659 26.1728 29.6638 26.6783 29.4618Z" fill="#FED835"/>
<path d="M31.7417 48.4553C31.9439 48.2532 32.1461 48.0512 32.2472 47.8491L31.6406 48.3542C31.6406 48.3542 31.6406 48.3543 31.7417 48.4553Z" fill="#7A4EBD"/>
<path d="M32.1452 47.6468C32.0441 47.5458 31.943 47.4448 31.8419 47.3438C31.7408 47.6468 31.6397 47.8489 31.4375 48.0509L31.5386 48.152L32.1452 47.6468Z" fill="#7A4EBD"/>
<path d="M32.3493 47.9497C32.1471 48.1518 32.046 48.3538 31.8438 48.5559C32.2482 49.061 32.5515 49.5661 32.8548 50.0712C33.1581 49.6671 33.4614 49.3641 33.7647 48.96C33.1581 48.6569 32.7537 48.3538 32.3493 47.9497Z" fill="#7A4EBD"/>
<path d="M33.5588 48.96C33.1544 49.061 32.8511 49.4651 32.75 49.8692C33.0533 49.6671 33.3566 49.3641 33.5588 48.96Z" fill="#491D6B"/>
<path d="M18.2891 18.0457C18.2891 18.1467 18.3902 18.1467 18.3902 18.2478C18.4913 18.0457 18.6935 17.8437 18.7946 17.6416C18.7946 17.6416 18.7946 17.6416 18.6935 17.6416C18.5924 17.6416 18.4913 17.7426 18.3902 17.8437C18.3902 17.8437 18.3902 17.9447 18.2891 18.0457Z" fill="#F84E59"/>
<path d="M18.9982 17.6416C18.796 17.8437 18.6949 17.9447 18.5938 18.1467C18.796 17.9447 18.8971 17.8437 19.0993 17.7426C19.0993 17.7426 18.9982 17.7426 18.9982 17.6416Z" fill="#F84E59"/>
<path d="M18.3897 17.6416C18.2886 17.6416 18.1875 17.7426 18.1875 17.8437C18.1875 17.8437 18.1875 17.9447 18.2886 17.9447C18.2886 17.8437 18.3897 17.7426 18.3897 17.6416Z" fill="#F84E59"/>
<path d="M19.1999 17.9448C18.8966 18.0458 18.6944 18.2479 18.4922 18.45C18.6944 18.8541 18.8966 19.3592 18.8966 19.8643C19.301 19.8643 19.7054 19.6623 19.9076 19.3592C20.1098 19.0561 20.2109 18.652 20.2109 18.2479C19.9076 18.3489 19.5032 18.2479 19.1999 17.9448Z" fill="#F84E59"/>
<path d="M1.40579 18.7531C2.11351 21.8849 4.03447 24.9156 6.96646 26.431C9.59513 27.8454 12.7293 27.7444 15.6613 27.0372C19.5032 26.0269 22.9407 23.6023 25.0639 20.2684C27.187 16.9346 27.6926 12.5905 26.3782 8.95357C24.7606 4.71049 20.7165 1.67972 16.2679 1.17459C11.8194 0.669463 7.06756 2.58895 4.23668 6.12485C1.40579 9.55972 0.394764 14.409 1.40579 18.7531Z" fill="#F84E59"/>
<path d="M7.47105 27.0372C4.43796 24.3095 2.82031 20.1675 3.22472 16.1264C3.52803 12.0854 5.8534 8.24644 9.08869 5.92285C12.324 3.59926 16.6714 2.589 20.6144 3.29618C16.5703 1.17464 11.313 1.47772 7.47105 3.90234C3.62914 6.32695 1.10156 10.8731 1.10156 15.4193C1.20267 20.0665 3.62914 24.5116 7.47105 27.0372Z" fill="#FAB06F"/>
<path d="M25.3689 15.5204C25.6723 13.2978 24.6612 10.9742 22.9425 9.55988C21.2237 8.14552 18.7973 7.6404 16.573 7.94347C14.3487 8.24655 12.3267 9.45886 10.709 10.9742C8.78806 12.8937 7.37262 15.5204 7.37262 18.2481C7.27152 20.9758 8.58586 23.8045 10.9112 25.2189C13.0344 26.5322 15.7642 26.7343 18.0895 25.724C20.4149 24.7137 22.2348 22.7943 23.1447 20.4707C24.1557 18.1471 24.2568 15.6214 23.8524 13.0958L25.3689 15.5204Z" fill="#8D2A60"/>
<path d="M33.7601 87.0464C31.637 85.733 31.3336 82.8033 31.3336 81.1869C31.3336 80.5807 31.4347 79.8735 31.4347 79.2674C31.5358 77.752 31.6369 76.1356 31.2325 74.7212C30.9292 73.711 30.4237 72.8017 29.6149 72.0946C29.1094 72.2966 28.4017 72.5997 27.795 72.4987C27.1884 72.3976 26.4807 71.8925 26.4807 71.1853V71.0843H26.5818C27.6939 70.7812 28.8061 71.1853 29.6149 71.9935C34.2656 69.872 37.602 64.9217 38.4108 59.0622C39.0175 54.4151 38.2086 49.1617 35.8833 43.1002C32.2436 33.8058 26.2785 25.4207 18.7969 18.955L18.898 18.854C26.4807 25.4207 32.4458 33.7048 36.0855 43.1002C38.5119 49.1617 39.3208 54.4151 38.6131 59.1633C37.8042 65.0228 34.3667 70.074 29.8171 72.1956C30.5248 72.9028 31.1314 73.812 31.4347 74.8223C31.8392 76.3376 31.7381 77.954 31.6369 79.4694C31.6369 80.0756 31.5358 80.7828 31.5358 81.3889C31.5358 83.0053 31.8392 85.8341 33.8612 87.1474L33.7601 87.0464ZM26.6829 71.0843C26.6829 71.6905 27.2895 72.1956 27.795 72.2966C28.4017 72.3976 29.0083 72.1956 29.5138 71.9935C28.705 71.2863 27.6939 70.8823 26.6829 71.0843Z" fill="#6FD0FF"/>
<path d="M1.70982 16.5304C1.81092 13.2975 2.92305 10.1657 4.94511 7.6401C6.96717 5.11446 9.79805 3.296 12.8311 2.48779C9.49474 2.68984 6.36055 4.50831 4.3385 7.13498C2.31644 9.76164 1.50761 13.1965 1.70982 16.5304Z" fill="white"/>
<path d="M17.4805 18.45C17.4805 18.7531 17.5816 19.0562 17.7838 19.1572C17.986 19.3593 18.3905 19.3593 18.5927 19.2582C18.896 19.1572 19.0982 18.9552 19.3004 18.6521C19.6037 18.248 19.8059 17.7428 19.6037 17.2377C19.3004 16.7326 18.5927 16.6316 18.0872 16.9346C17.6827 17.2377 17.3794 17.8439 17.4805 18.45Z" fill="#491D6B"/>
<path d="M7.97357 25.5217C6.35592 23.9053 5.85041 21.7837 5.5471 20.2683C4.94048 15.6211 6.76033 10.5699 10.4 6.73088C12.4221 4.60934 15.0508 2.8919 18.0839 1.57856C17.8817 1.57856 17.7806 1.47754 17.5783 1.47754C14.6464 2.79087 12.1188 4.50831 10.1978 6.52883C6.35592 10.4688 4.53607 15.6211 5.24379 20.3694C5.44599 21.8847 6.05261 24.1073 7.67026 25.8247C8.37798 26.5319 9.28791 27.1381 10.1978 27.5422C10.7033 27.6432 11.1078 27.6432 11.6133 27.6432C10.2989 27.2391 8.9846 26.6329 7.97357 25.5217Z" fill="#6FD0FF"/>
<path d="M4.13469 10.3679C5.55013 6.83195 8.07771 3.80118 11.313 1.57861C11.0097 1.67964 10.7064 1.78066 10.4031 1.88169C7.47109 4.10426 5.14572 6.93298 3.83138 10.1658C2.11263 14.4089 2.11263 19.2581 3.93249 23.1981C4.23579 23.8043 4.5391 24.4104 4.84241 25.0166C5.14572 25.2186 5.34793 25.5217 5.65124 25.7238C5.04462 24.9156 4.5391 24.0063 4.13469 23.0971C2.51704 19.2581 2.51704 14.5099 4.13469 10.3679Z" fill="#6FD0FF"/>
<path d="M20.1126 18.3491C19.506 18.5512 19.1016 19.1573 19.1016 19.7635C19.4049 19.6625 19.7082 19.4604 19.9104 19.2584C20.1126 18.9553 20.2137 18.6522 20.1126 18.3491Z" fill="#491D6B"/>
</g>
</g>
<defs>
<clipPath id="clip0_6378_12765">
<rect width="48.5294" height="96.1765" fill="white" transform="translate(1 0.568359)"/>
</clipPath>
</defs>
</svg>
