<svg width="218" height="60" viewBox="0 0 218 60" fill="none" xmlns="http://www.w3.org/2000/svg">
<g clip-path="url(#clip0_6378_12958)">
<path d="M215.748 11.5454C214.352 10.7279 212.716 9.95859 210.839 10.1509C209.877 11.1607 209.203 11.7858 208 12.5071C209.155 12.8437 209.636 13.5649 210.069 15.1998C211.513 13.7573 213.294 12.7956 215.748 11.5454Z" fill="url(#paint0_linear_6378_12958)"/>
<path d="M35.3266 34.3575C35.1341 35.4154 35.3266 36.1848 36.1447 37.0503C37.2997 37.0022 38.1178 36.8099 38.8396 36.2328C38.6953 34.9826 38.9359 34.1652 39.5134 32.7227C38.0215 33.5882 37.0591 34.069 35.3266 34.3575Z" fill="url(#paint1_linear_6378_12958)"/>
<path d="M68.481 56.9198C69.0585 57.2083 69.636 57.1121 70.4541 56.7755C70.0691 55.4292 69.9729 54.5636 70.1173 53.2173C69.4916 53.4577 69.0104 53.4096 68.0479 53.1211C67.9036 54.4675 68.0961 55.5253 68.481 56.9198Z" fill="url(#paint2_linear_6378_12958)"/>
<path d="M33.0212 10.1211C32.4437 10.5539 31.8181 10.7943 31 10.9866C32.155 12.3811 32.8287 13.3909 33.4062 14.6411C34.3687 14.6891 34.8499 14.4487 35.4755 14.016C35.0424 13.1023 34.1762 11.6598 33.0212 10.1211Z" fill="url(#paint3_linear_6378_12958)"/>
<path d="M208.469 57.9188C209.335 58.7363 209.864 59.0729 211.116 59.121C212.126 57.438 212.848 56.5244 214.147 55.1299C213.522 54.8414 213.089 54.5529 212.848 54.2163C211.356 55.8512 210.249 56.6686 208.469 57.9188Z" fill="url(#paint4_linear_6378_12958)"/>
<path d="M104 14.3045C105.396 14.8334 106.021 15.5066 106.791 16.7087C108.042 14.6411 109.053 12.4292 109.197 11.3232C108.235 10.6981 107.272 10.3615 105.877 10.1211C105.732 11.3713 105.107 12.4772 104 14.3045Z" fill="url(#paint5_linear_6378_12958)"/>
<path d="M4.81361 56.0435C5.58359 55.1299 5.82421 54.3605 5.53546 53.0622C4.42862 52.4852 3.51427 52.1967 2.5518 52.341C2.02244 53.5912 1.30059 54.2163 -0.046875 55.226C1.87807 55.2741 3.03304 55.3703 4.81361 56.0435Z" fill="url(#paint6_linear_6378_12958)"/>
</g>
<defs>
<linearGradient id="paint0_linear_6378_12958" x1="213.126" y1="13.6619" x2="209.891" y2="9.97376" gradientUnits="userSpaceOnUse">
<stop stop-color="#400300"/>
<stop offset="0.0709114" stop-color="#750300"/>
<stop offset="0.1439" stop-color="#A50300"/>
<stop offset="0.2084" stop-color="#C80300"/>
<stop offset="0.2612" stop-color="#DD0300"/>
<stop offset="0.2957" stop-color="#E50300"/>
<stop offset="0.3376" stop-color="#EE190C"/>
<stop offset="0.3927" stop-color="#F82E18"/>
<stop offset="0.4459" stop-color="#FD3C20"/>
<stop offset="0.4946" stop-color="#FF4022"/>
<stop offset="0.5442" stop-color="#FD3B1F"/>
<stop offset="0.5995" stop-color="#F72E18"/>
<stop offset="0.6574" stop-color="#EE180C"/>
<stop offset="0.6989" stop-color="#E50300"/>
<stop offset="0.7336" stop-color="#DB0300"/>
<stop offset="0.7914" stop-color="#C20300"/>
<stop offset="0.8653" stop-color="#980300"/>
<stop offset="0.9515" stop-color="#5E0300"/>
<stop offset="1" stop-color="#3B0300"/>
</linearGradient>
<linearGradient id="paint1_linear_6378_12958" x1="37.1428" y1="33.4013" x2="38.3655" y2="37.2688" gradientUnits="userSpaceOnUse">
<stop stop-color="#AB3C00"/>
<stop offset="0.3441" stop-color="#FFC700"/>
<stop offset="0.3696" stop-color="#FFCD17"/>
<stop offset="0.4069" stop-color="#FFD533"/>
<stop offset="0.4445" stop-color="#FFDA46"/>
<stop offset="0.4826" stop-color="#FFDD52"/>
<stop offset="0.5215" stop-color="#FFDE56"/>
<stop offset="0.5509" stop-color="#FFDD51"/>
<stop offset="0.5855" stop-color="#FFD943"/>
<stop offset="0.6225" stop-color="#FFD32B"/>
<stop offset="0.6612" stop-color="#FFCA0B"/>
<stop offset="0.672" stop-color="#FFC700"/>
<stop offset="1" stop-color="#AB3C00"/>
</linearGradient>
<linearGradient id="paint2_linear_6378_12958" x1="70.683" y1="54.8452" x2="67.6507" y2="55.192" gradientUnits="userSpaceOnUse">
<stop stop-color="#400300"/>
<stop offset="0.0709114" stop-color="#750300"/>
<stop offset="0.1439" stop-color="#A50300"/>
<stop offset="0.2084" stop-color="#C80300"/>
<stop offset="0.2612" stop-color="#DD0300"/>
<stop offset="0.2957" stop-color="#E50300"/>
<stop offset="0.3376" stop-color="#EE190C"/>
<stop offset="0.3927" stop-color="#F82E18"/>
<stop offset="0.4459" stop-color="#FD3C20"/>
<stop offset="0.4946" stop-color="#FF4022"/>
<stop offset="0.5442" stop-color="#FD3B1F"/>
<stop offset="0.5995" stop-color="#F72E18"/>
<stop offset="0.6574" stop-color="#EE180C"/>
<stop offset="0.6989" stop-color="#E50300"/>
<stop offset="0.7336" stop-color="#DB0300"/>
<stop offset="0.7914" stop-color="#C20300"/>
<stop offset="0.8653" stop-color="#980300"/>
<stop offset="0.9515" stop-color="#5E0300"/>
<stop offset="1" stop-color="#3B0300"/>
</linearGradient>
<linearGradient id="paint3_linear_6378_12958" x1="31.5417" y1="13.5135" x2="34.5734" y2="11.7059" gradientUnits="userSpaceOnUse">
<stop stop-color="#0038AB"/>
<stop offset="0.1131" stop-color="#0062C9"/>
<stop offset="0.272" stop-color="#0097F0"/>
<stop offset="0.3495" stop-color="#00ACFF"/>
<stop offset="0.4014" stop-color="#00BFFF"/>
<stop offset="0.469" stop-color="#00D2FF"/>
<stop offset="0.5161" stop-color="#00D9FF"/>
<stop offset="0.6633" stop-color="#00B8FF"/>
<stop offset="0.7097" stop-color="#00ACFF"/>
<stop offset="0.755" stop-color="#00A2F8"/>
<stop offset="0.833" stop-color="#0086E3"/>
<stop offset="0.9337" stop-color="#0059C3"/>
<stop offset="1" stop-color="#0038AB"/>
</linearGradient>
<linearGradient id="paint4_linear_6378_12958" x1="212.614" y1="57.4735" x2="209.964" y2="55.655" gradientUnits="userSpaceOnUse">
<stop stop-color="#AB3C00"/>
<stop offset="0.3441" stop-color="#FFC700"/>
<stop offset="0.3696" stop-color="#FFCD17"/>
<stop offset="0.4069" stop-color="#FFD533"/>
<stop offset="0.4445" stop-color="#FFDA46"/>
<stop offset="0.4826" stop-color="#FFDD52"/>
<stop offset="0.5215" stop-color="#FFDE56"/>
<stop offset="0.5509" stop-color="#FFDD51"/>
<stop offset="0.5855" stop-color="#FFD943"/>
<stop offset="0.6225" stop-color="#FFD32B"/>
<stop offset="0.6612" stop-color="#FFCA0B"/>
<stop offset="0.672" stop-color="#FFC700"/>
<stop offset="1" stop-color="#AB3C00"/>
</linearGradient>
<linearGradient id="paint5_linear_6378_12958" x1="104.51" y1="12.2455" x2="109.026" y2="14.5062" gradientUnits="userSpaceOnUse">
<stop stop-color="#AB3C00"/>
<stop offset="0.3441" stop-color="#FFC700"/>
<stop offset="0.3696" stop-color="#FFCD17"/>
<stop offset="0.4069" stop-color="#FFD533"/>
<stop offset="0.4445" stop-color="#FFDA46"/>
<stop offset="0.4826" stop-color="#FFDD52"/>
<stop offset="0.5215" stop-color="#FFDE56"/>
<stop offset="0.5509" stop-color="#FFDD51"/>
<stop offset="0.5855" stop-color="#FFD943"/>
<stop offset="0.6225" stop-color="#FFD32B"/>
<stop offset="0.6612" stop-color="#FFCA0B"/>
<stop offset="0.672" stop-color="#FFC700"/>
<stop offset="1" stop-color="#AB3C00"/>
</linearGradient>
<linearGradient id="paint6_linear_6378_12958" x1="2.55981" y1="55.9291" x2="3.57408" y2="51.6221" gradientUnits="userSpaceOnUse">
<stop stop-color="#005200"/>
<stop offset="0.1859" stop-color="#00890B"/>
<stop offset="0.3118" stop-color="#00A912"/>
<stop offset="0.3267" stop-color="#11AD12"/>
<stop offset="0.3667" stop-color="#3AB512"/>
<stop offset="0.406" stop-color="#5ABC12"/>
<stop offset="0.4438" stop-color="#71C112"/>
<stop offset="0.4795" stop-color="#7EC412"/>
<stop offset="0.5108" stop-color="#83C512"/>
<stop offset="0.55" stop-color="#7FC412"/>
<stop offset="0.5906" stop-color="#72C112"/>
<stop offset="0.632" stop-color="#5EBD12"/>
<stop offset="0.6737" stop-color="#41B712"/>
<stop offset="0.7154" stop-color="#1CAF12"/>
<stop offset="0.7419" stop-color="#00A912"/>
<stop offset="0.783" stop-color="#009E10"/>
<stop offset="0.8555" stop-color="#00800C"/>
<stop offset="0.9504" stop-color="#005004"/>
<stop offset="1" stop-color="#003400"/>
</linearGradient>
<clipPath id="clip0_6378_12958">
<rect width="218" height="59" fill="white" transform="translate(0 0.121094)"/>
</clipPath>
</defs>
</svg>
