<svg width="113" height="19" viewBox="0 0 113 19" fill="none" xmlns="http://www.w3.org/2000/svg">
<g clip-path="url(#clip0_6378_12974)">
<path d="M10.3257 1.24609L13.2529 6.78974L19.7744 7.69625L15.0315 12.0196L16.1431 18.1211L10.3257 15.2272L4.50826 18.1211L5.61987 12.0196L0.914062 7.69625L7.4355 6.78974L10.3257 1.24609Z" fill="#A78849"/>
<path d="M10.3281 10.5204V1.24609L13.2554 6.78974L10.3281 10.5204Z" fill="#A78849"/>
<path d="M10.3281 10.5202L13.2554 6.78955L19.7768 7.69606L10.3281 10.5202Z" fill="#A78849"/>
<path d="M10.3281 10.5205L15.0339 12.0197L16.1455 18.1212L10.3281 10.5205Z" fill="#A78849"/>
<path d="M10.3252 10.5203V15.2272L4.50781 18.121C4.50781 18.121 10.7328 10.2065 10.3252 10.5203Z" fill="#A78849"/>
<path d="M10.3257 10.5202L0.914062 7.69606L7.4355 6.78955L10.3257 10.5202Z" fill="#A78849"/>
</g>
<g clip-path="url(#clip1_6378_12974)">
<path d="M33.4038 1.24609L36.331 6.78974L42.8525 7.69625L38.1096 12.0196L39.2212 18.1211L33.4038 15.2272L27.5864 18.1211L28.698 12.0196L23.9922 7.69625L30.5136 6.78974L33.4038 1.24609Z" fill="#A78849"/>
<path d="M33.4062 10.5204V1.24609L36.3335 6.78974L33.4062 10.5204Z" fill="#A78849"/>
<path d="M33.4062 10.5202L36.3335 6.78955L42.8549 7.69606L33.4062 10.5202Z" fill="#A78849"/>
<path d="M33.4062 10.5205L38.1121 12.0197L39.2237 18.1212L33.4062 10.5205Z" fill="#A78849"/>
<path d="M33.4034 10.5203V15.2272L27.5859 18.121C27.5859 18.121 33.8109 10.2065 33.4034 10.5203Z" fill="#A78849"/>
<path d="M33.4038 10.5202L23.9922 7.69606L30.5136 6.78955L33.4038 10.5202Z" fill="#A78849"/>
</g>
<g clip-path="url(#clip2_6378_12974)">
<path d="M56.4819 1.24609L59.4092 6.78974L65.9306 7.69625L61.1877 12.0196L62.2994 18.1211L56.4819 15.2272L50.6645 18.1211L51.7761 12.0196L47.0703 7.69625L53.5918 6.78974L56.4819 1.24609Z" fill="#A78849"/>
<path d="M56.4844 10.5204V1.24609L59.4116 6.78974L56.4844 10.5204Z" fill="#A78849"/>
<path d="M56.4844 10.5202L59.4116 6.78955L65.9331 7.69606L56.4844 10.5202Z" fill="#A78849"/>
<path d="M56.4844 10.5205L61.1902 12.0197L62.3018 18.1212L56.4844 10.5205Z" fill="#A78849"/>
<path d="M56.4815 10.5203V15.2272L50.6641 18.121C50.6641 18.121 56.8891 10.2065 56.4815 10.5203Z" fill="#A78849"/>
<path d="M56.4819 10.5202L47.0703 7.69606L53.5917 6.78955L56.4819 10.5202Z" fill="#A78849"/>
</g>
<g clip-path="url(#clip3_6378_12974)">
<path d="M79.5601 1.24609L82.4873 6.78974L89.0087 7.69625L84.2659 12.0196L85.3775 18.1211L79.5601 15.2272L73.7426 18.1211L74.8542 12.0196L70.1484 7.69625L76.6699 6.78974L79.5601 1.24609Z" fill="#A78849"/>
<path d="M79.5625 10.5204V1.24609L82.4897 6.78974L79.5625 10.5204Z" fill="#A78849"/>
<path d="M79.5625 10.5202L82.4897 6.78955L89.0112 7.69606L79.5625 10.5202Z" fill="#A78849"/>
<path d="M79.5625 10.5205L84.2683 12.0197L85.3799 18.1212L79.5625 10.5205Z" fill="#A78849"/>
<path d="M79.5596 10.5203V15.2272L73.7422 18.121C73.7422 18.121 79.9672 10.2065 79.5596 10.5203Z" fill="#A78849"/>
<path d="M79.5601 10.5202L70.1484 7.69606L76.6699 6.78955L79.5601 10.5202Z" fill="#A78849"/>
</g>
<g clip-path="url(#clip4_6378_12974)">
<path d="M102.638 1.24609L105.565 6.78974L112.087 7.69625L107.344 12.0196L108.456 18.1211L102.638 15.2272L96.8208 18.1211L97.9324 12.0196L93.2266 7.69625L99.748 6.78974L102.638 1.24609Z" fill="#A78849"/>
<path d="M102.641 10.5204V1.24609L105.568 6.78974L102.641 10.5204Z" fill="#A78849"/>
<path d="M102.641 10.5202L105.568 6.78955L112.089 7.69606L102.641 10.5202Z" fill="#A78849"/>
<path d="M102.641 10.5205L107.346 12.0197L108.458 18.1212L102.641 10.5205Z" fill="#A78849"/>
<path d="M102.638 10.5203V15.2272L96.8203 18.121C96.8203 18.121 103.045 10.2065 102.638 10.5203Z" fill="#A78849"/>
<path d="M102.638 10.5202L93.2266 7.69606L99.748 6.78955L102.638 10.5202Z" fill="#A78849"/>
</g>
<g clip-path="url(#clip5_6378_12974)">
<path d="M10.3257 0.121094L13.2529 5.66474L19.7744 6.57125L15.0315 10.8946L16.1431 16.9961L10.3257 14.1022L4.50826 16.9961L5.61987 10.8946L0.914062 6.57125L7.4355 5.66474L10.3257 0.121094Z" fill="#FFA600"/>
<path d="M10.3281 9.39537V0.121094L13.2554 5.66474L10.3281 9.39537Z" fill="#FFDF40"/>
<path d="M10.3281 9.39518L13.2554 5.66455L19.7768 6.57106L10.3281 9.39518Z" fill="#FFDF40"/>
<path d="M10.3281 9.39551L15.0339 10.8947L16.1455 16.9962L10.3281 9.39551Z" fill="#FFDF40"/>
<path d="M10.3252 9.39532V14.1022L4.50781 16.996C4.50781 16.996 10.7328 9.08153 10.3252 9.39532Z" fill="#FFDF40"/>
<path d="M10.3257 9.39518L0.914062 6.57106L7.4355 5.66455L10.3257 9.39518Z" fill="#FFDF40"/>
</g>
<g clip-path="url(#clip6_6378_12974)">
<path d="M33.4038 0.121094L36.331 5.66474L42.8525 6.57125L38.1096 10.8946L39.2212 16.9961L33.4038 14.1022L27.5864 16.9961L28.698 10.8946L23.9922 6.57125L30.5136 5.66474L33.4038 0.121094Z" fill="#FFA600"/>
<path d="M33.4062 9.39537V0.121094L36.3335 5.66474L33.4062 9.39537Z" fill="#FFDF40"/>
<path d="M33.4062 9.39518L36.3335 5.66455L42.8549 6.57106L33.4062 9.39518Z" fill="#FFDF40"/>
<path d="M33.4062 9.39551L38.1121 10.8947L39.2237 16.9962L33.4062 9.39551Z" fill="#FFDF40"/>
<path d="M33.4034 9.39532V14.1022L27.5859 16.996C27.5859 16.996 33.8109 9.08153 33.4034 9.39532Z" fill="#FFDF40"/>
<path d="M33.4038 9.39518L23.9922 6.57106L30.5136 5.66455L33.4038 9.39518Z" fill="#FFDF40"/>
</g>
<g clip-path="url(#clip7_6378_12974)">
<path d="M56.4819 0.121094L59.4092 5.66474L65.9306 6.57125L61.1877 10.8946L62.2994 16.9961L56.4819 14.1022L50.6645 16.9961L51.7761 10.8946L47.0703 6.57125L53.5918 5.66474L56.4819 0.121094Z" fill="#FFA600"/>
<path d="M56.4844 9.39537V0.121094L59.4116 5.66474L56.4844 9.39537Z" fill="#FFDF40"/>
<path d="M56.4844 9.39518L59.4116 5.66455L65.9331 6.57106L56.4844 9.39518Z" fill="#FFDF40"/>
<path d="M56.4844 9.39551L61.1902 10.8947L62.3018 16.9962L56.4844 9.39551Z" fill="#FFDF40"/>
<path d="M56.4815 9.39532V14.1022L50.6641 16.996C50.6641 16.996 56.8891 9.08153 56.4815 9.39532Z" fill="#FFDF40"/>
<path d="M56.4819 9.39518L47.0703 6.57106L53.5917 5.66455L56.4819 9.39518Z" fill="#FFDF40"/>
</g>
<g clip-path="url(#clip8_6378_12974)">
<path d="M79.5601 0.121094L82.4873 5.66474L89.0087 6.57125L84.2659 10.8946L85.3775 16.9961L79.5601 14.1022L73.7426 16.9961L74.8542 10.8946L70.1484 6.57125L76.6699 5.66474L79.5601 0.121094Z" fill="#FFA600"/>
<path d="M79.5625 9.39537V0.121094L82.4897 5.66474L79.5625 9.39537Z" fill="#FFDF40"/>
<path d="M79.5625 9.39518L82.4897 5.66455L89.0112 6.57106L79.5625 9.39518Z" fill="#FFDF40"/>
<path d="M79.5625 9.39551L84.2683 10.8947L85.3799 16.9962L79.5625 9.39551Z" fill="#FFDF40"/>
<path d="M79.5596 9.39532V14.1022L73.7422 16.996C73.7422 16.996 79.9672 9.08153 79.5596 9.39532Z" fill="#FFDF40"/>
<path d="M79.5601 9.39518L70.1484 6.57106L76.6699 5.66455L79.5601 9.39518Z" fill="#FFDF40"/>
</g>
<g clip-path="url(#clip9_6378_12974)">
<path d="M102.638 0.121094L105.565 5.66474L112.087 6.57125L107.344 10.8946L108.456 16.9961L102.638 14.1022L96.8208 16.9961L97.9324 10.8946L93.2266 6.57125L99.748 5.66474L102.638 0.121094Z" fill="#FFA600"/>
<path d="M102.641 9.39537V0.121094L105.568 5.66474L102.641 9.39537Z" fill="#FFDF40"/>
<path d="M102.641 9.39518L105.568 5.66455L112.089 6.57106L102.641 9.39518Z" fill="#FFDF40"/>
<path d="M102.641 9.39551L107.346 10.8947L108.458 16.9962L102.641 9.39551Z" fill="#FFDF40"/>
<path d="M102.638 9.39532V14.1022L96.8203 16.996C96.8203 16.996 103.045 9.08153 102.638 9.39532Z" fill="#FFDF40"/>
<path d="M102.638 9.39518L93.2266 6.57106L99.748 5.66455L102.638 9.39518Z" fill="#FFDF40"/>
</g>
<defs>
<clipPath id="clip0_6378_12974">
<rect width="18.8603" height="16.875" fill="white" transform="translate(0.914062 1.24609)"/>
</clipPath>
<clipPath id="clip1_6378_12974">
<rect width="18.8603" height="16.875" fill="white" transform="translate(23.9922 1.24609)"/>
</clipPath>
<clipPath id="clip2_6378_12974">
<rect width="18.8603" height="16.875" fill="white" transform="translate(47.0703 1.24609)"/>
</clipPath>
<clipPath id="clip3_6378_12974">
<rect width="18.8603" height="16.875" fill="white" transform="translate(70.1484 1.24609)"/>
</clipPath>
<clipPath id="clip4_6378_12974">
<rect width="18.8603" height="16.875" fill="white" transform="translate(93.2266 1.24609)"/>
</clipPath>
<clipPath id="clip5_6378_12974">
<rect width="18.8603" height="16.875" fill="white" transform="translate(0.914062 0.121094)"/>
</clipPath>
<clipPath id="clip6_6378_12974">
<rect width="18.8603" height="16.875" fill="white" transform="translate(23.9922 0.121094)"/>
</clipPath>
<clipPath id="clip7_6378_12974">
<rect width="18.8603" height="16.875" fill="white" transform="translate(47.0703 0.121094)"/>
</clipPath>
<clipPath id="clip8_6378_12974">
<rect width="18.8603" height="16.875" fill="white" transform="translate(70.1484 0.121094)"/>
</clipPath>
<clipPath id="clip9_6378_12974">
<rect width="18.8603" height="16.875" fill="white" transform="translate(93.2266 0.121094)"/>
</clipPath>
</defs>
</svg>
