<svg width="45" height="76" viewBox="0 0 45 76" fill="none" xmlns="http://www.w3.org/2000/svg">
<g clip-path="url(#clip0_6419_262)">
<path d="M28.4157 26.4339L1.85156 81.2358L2.49901 81.5507L29.0631 26.7488L28.4157 26.4339Z" fill="white"/>
<path d="M38.8745 24.1321C35.7558 22.0895 32.5171 20.167 29.2784 18.4849C23.7606 29.7793 18.6027 41.3141 13.8047 52.8489C14.8842 55.1319 16.8035 56.3334 19.6823 55.9729C26.0397 45.3994 32.5171 34.8258 38.8745 24.1321Z" fill="#FAB06F"/>
<path d="M23.8828 49.0043C24.6025 47.8027 25.3222 46.6012 26.1618 45.2795C23.283 45.1593 20.4042 44.4384 17.8852 43.1167C17.2854 44.5585 16.6857 46.0004 16.0859 47.4422C18.485 48.6438 21.1239 49.1244 23.8828 49.0043Z" fill="#FAB06F"/>
<path d="M15.3668 49.0044C14.7671 50.3261 14.2873 51.6478 13.6875 52.9695C14.7671 55.2524 16.6863 56.4539 19.5651 56.0935C20.6447 54.2912 21.7242 52.4889 22.8038 50.6865C20.2848 50.5664 17.6459 50.0858 15.3668 49.0044Z" fill="#FAB06F"/>
<path d="M31.5621 36.3881C32.2818 35.1866 33.1214 33.8649 33.8412 32.6633C30.3626 32.7835 26.764 31.9424 23.7653 30.2603C23.1655 31.4618 22.5657 32.7835 22.0859 33.985C24.8448 35.547 28.2035 36.3881 31.5621 36.3881Z" fill="#FAB06F"/>
<path d="M38.8831 24.1321C35.7644 22.0895 32.5257 20.167 29.287 18.4849C27.8476 21.4887 26.4082 24.4926 24.9688 27.4964C28.2074 28.8181 31.9259 29.7793 35.5245 29.7793C36.604 27.8569 37.8035 26.0546 38.8831 24.1321Z" fill="#FAB06F"/>
<path d="M29.2784 18.4849C23.7606 29.7793 18.6027 41.3141 13.8047 52.8489C14.5244 54.4109 15.604 55.3722 17.0434 55.8528L35.5159 21.8492C33.3567 20.7678 31.3176 19.5663 29.2784 18.4849Z" fill="#F84E59"/>
<path d="M31.9173 19.9271C31.1976 19.5666 30.5979 19.2062 29.8781 18.8457L13.8047 53.2098C14.1645 53.9307 14.5244 54.4113 15.0042 54.8919L31.9173 19.9271Z" fill="#491D6B"/>
<path d="M29.2818 18.4849C28.4422 20.167 27.7225 21.8492 26.8828 23.4112C30.1215 25.4538 33.9599 26.415 37.6784 26.0546C38.0383 25.4538 38.5181 24.7329 38.8779 24.1321C35.7592 22.0895 32.5205 20.167 29.2818 18.4849Z" fill="#491D6B"/>
<path d="M41.037 20.5276C42.2366 14.2796 43.7959 6.58977 44.8755 0.461914C44.8755 0.461914 35.1594 11.1556 29.4018 17.0432C28.3222 18.1246 28.0823 19.6866 28.802 21.0083C29.4018 21.9695 30.0015 22.9307 30.8412 23.6517C32.2806 24.9733 34.3198 25.8144 36.3589 25.5741C37.6784 25.454 38.9979 24.8532 39.7176 23.892C40.6772 22.9307 40.9171 21.7292 41.037 20.5276Z" fill="#7A4EBD"/>
<path d="M44.8759 0.461914C44.8759 0.461914 43.6763 1.78361 41.8771 3.70607L28.5625 19.9269C28.5625 20.2873 28.6825 20.6478 28.9224 21.0083C29.5221 21.9695 30.1219 22.9307 30.9615 23.6517C31.0815 23.7718 31.2014 23.892 31.3214 24.0121L44.8759 0.702222C44.8759 0.702222 44.8759 0.582068 44.8759 0.461914Z" fill="#869DFD"/>
<path d="M30.239 38.4311C30.5989 37.7101 31.0787 37.1094 31.4385 36.3884C28.0799 36.3884 24.8412 35.5474 21.8424 33.9854C21.4826 34.7063 21.1227 35.4272 20.8828 36.1481C23.7616 37.59 27.0003 38.3109 30.239 38.4311Z" fill="#FED835"/>
<path d="M22.9214 50.5664C23.2812 50.0858 23.5211 49.485 23.881 49.0044C21.242 49.1245 18.4832 48.6439 16.0841 47.4424C15.8442 47.923 15.6043 48.4036 15.4844 48.8842C17.6435 50.0858 20.2824 50.5664 22.9214 50.5664Z" fill="#FED835"/>
<path d="M26.0423 45.3997C26.5221 44.5586 27.0019 43.8377 27.4817 42.9966C24.4829 42.9966 21.4841 42.516 18.6053 41.3145C18.3654 41.9152 18.0055 42.6361 17.7656 43.2369C20.4046 44.5586 23.2834 45.1594 26.0423 45.3997Z" fill="#FED835"/>
<path d="M33.7165 32.6637C34.3163 31.7025 34.916 30.7412 35.3958 29.78C31.7973 29.9002 28.0788 28.9389 24.8401 27.4971C24.4803 28.3381 24.0005 29.2994 23.6406 30.1405C26.6394 31.9428 30.2379 32.7838 33.7165 32.6637Z" fill="#FED835"/>
<path d="M44.992 0.702148C41.8733 6.5897 38.1548 15.2408 35.3959 21.2485C35.156 21.8493 34.7962 22.5702 34.7962 23.171C34.6762 23.8919 34.9161 24.6128 35.3959 24.9733C36.1157 25.574 37.0753 25.3337 37.795 24.8531C38.5147 24.2523 38.9945 23.4113 39.3543 22.5702C40.074 20.6477 40.5538 18.7253 41.0337 16.6826C41.9933 12.3571 43.9125 5.268 44.992 0.702148Z" fill="#869DFD"/>
<path d="M22.4394 34.2247C22.3195 34.1045 22.1995 34.1045 21.9596 33.9844C21.5998 34.7053 21.2399 35.4262 21 36.1471C21.12 36.2673 21.2399 36.2673 21.4798 36.3875C21.7197 35.6665 22.0796 34.9456 22.4394 34.2247Z" fill="white"/>
<path d="M31.1991 36.3882C30.5994 36.3882 29.8797 36.3882 29.2799 36.2681C28.9201 36.989 28.6802 37.5898 28.3203 38.3107C28.9201 38.4308 29.5198 38.4308 30.1196 38.4308C30.4794 37.7099 30.8393 36.989 31.1991 36.3882Z" fill="white"/>
<path d="M16.324 47.5621C16.2041 47.5621 16.2041 47.4419 16.0841 47.4419C15.8442 47.9225 15.6043 48.4031 15.4844 48.8837C15.6043 48.8837 15.6043 49.0039 15.7243 49.0039C15.8442 48.5233 16.0841 48.0427 16.324 47.5621Z" fill="white"/>
<path d="M23.1604 49.0044C23.0405 49.0044 22.9205 49.0044 22.8006 49.0044C22.5607 49.485 22.2008 50.0858 21.9609 50.5664C22.0809 50.5664 22.2008 50.5664 22.3208 50.5664C22.5607 50.0858 22.9205 49.6052 23.1604 49.0044Z" fill="white"/>
<path d="M26.7552 42.9966C26.5153 42.9966 26.2754 42.9966 26.0354 42.9966C26.0354 43.1167 25.9155 43.1167 25.9155 43.2369C25.5556 43.9578 25.1958 44.6787 24.8359 45.3997C24.9559 45.3997 25.0758 45.3997 25.3157 45.3997C25.7955 44.4384 26.2754 43.7175 26.7552 42.9966Z" fill="white"/>
<path d="M19.0823 41.4341C18.9624 41.4341 18.8424 41.314 18.7225 41.314C18.4826 41.9147 18.1227 42.6357 17.8828 43.2364C18.0028 43.2364 18.1227 43.3566 18.2427 43.3566C18.4826 42.6357 18.8424 42.0349 19.0823 41.4341Z" fill="white"/>
<path d="M25.3199 27.7369C25.2 27.7369 25.08 27.6167 24.8401 27.6167C24.4803 28.4578 24.0005 29.419 23.6406 30.2601C23.7606 30.3802 23.8805 30.3802 24.1204 30.5004C24.4803 29.5392 24.9601 28.5779 25.3199 27.7369Z" fill="white"/>
<path d="M34.8017 29.7798C34.082 29.7798 33.4822 29.6597 32.7625 29.6597C32.1627 30.6209 31.6829 31.5821 31.2031 32.5434C31.9228 32.6635 32.6425 32.6635 33.3622 32.6635C33.8421 31.7023 34.3219 30.7411 34.8017 29.7798Z" fill="white"/>
<path d="M38.3947 21.0087C38.2747 21.2491 38.2747 21.4894 38.3947 21.7297C38.6346 21.97 38.9944 21.97 39.2343 21.7297C39.4742 21.4894 39.5942 21.249 39.5942 20.8886C40.9136 15.722 42.2331 10.4352 43.5526 5.26855C41.6333 10.4352 39.8341 15.6018 38.3947 21.0087Z" fill="#6FD0FF"/>
<path d="M16.5591 57.1743C14.4 60.4185 12.6007 64.0231 11.2812 67.7479C13.2005 64.6239 15.4795 60.4185 16.5591 57.1743Z" fill="#F84E59"/>
<path d="M10.2031 59.5772C11.6425 58.0152 12.8421 56.3331 13.9216 54.5308C12.4822 56.0928 11.2827 57.7749 10.2031 59.5772Z" fill="white"/>
<path d="M11.2801 59.8184C9.36092 62.3416 7.6816 64.8648 6.24219 67.6284C8.16141 65.2253 9.96067 62.7021 11.2801 59.8184Z" fill="#FED835"/>
<path d="M17.3999 57.2949C16.4403 59.4577 15.8406 61.7406 15.9605 64.1437C16.5603 61.8608 17.0401 59.5778 17.3999 57.2949Z" fill="#FED835"/>
<path d="M13.0781 72.7945C14.1577 69.6704 14.8774 66.4263 15.2372 63.1821C14.1577 66.3061 13.438 69.5503 13.0781 72.7945Z" fill="#FED835"/>
<path d="M17.4012 67.3874C17.7611 65.7052 17.8811 63.9029 17.5212 62.1006C17.4012 63.9029 17.2813 65.5851 17.4012 67.3874Z" fill="#F84E59"/>
<path d="M18.3575 60.7789C18.4774 60.7789 18.8373 57.1743 18.7173 57.1743C18.3575 58.2557 18.2375 59.5774 18.3575 60.7789Z" fill="white"/>
<path d="M10.8047 55.9731C11.5244 55.6127 12.2441 55.1321 12.7239 54.4111C12.0042 54.7716 11.2845 55.3724 10.8047 55.9731Z" fill="#FED835"/>
<path d="M9.60178 60.6592C7.92246 61.9809 6.72295 63.9033 5.52344 65.8258C6.96285 64.6243 8.40227 62.2212 9.60178 60.6592Z" fill="#F84E59"/>
<path d="M11.8797 68.5889C11.2799 70.0307 10.8001 71.4726 10.3203 72.9144C11.3999 71.4726 11.5198 70.3912 11.8797 68.5889Z" fill="#F84E59"/>
<path d="M3.72656 71.2323C4.44627 70.3912 5.04603 69.5501 5.52583 68.5889C4.68617 69.3098 4.08642 70.271 3.72656 71.2323Z" fill="#F84E59"/>
<path d="M16.9238 68.8296C16.324 70.7521 16.2041 72.6745 16.444 74.7171C17.2836 72.9148 17.5235 70.7521 16.9238 68.8296Z" fill="#FED835"/>
<path d="M17.2807 11.0351C17.1608 9.47309 17.0408 7.91109 16.9209 6.46924C16.6809 8.51186 16.561 10.6746 17.0408 12.5971C17.0408 12.8374 17.4007 12.7173 17.4007 12.5971C17.4007 11.9963 17.2807 11.5157 17.2807 11.0351Z" fill="white"/>
<path d="M-2.50781 72.4335C3.8496 55.4918 8.7676 37.9493 12.1262 20.1665L12.8459 20.2867C9.48731 38.0695 4.56931 55.7321 -1.78811 72.6738L-2.50781 72.4335Z" fill="white"/>
<path d="M16.9245 0.581543C15.3651 5.26755 13.3259 10.6745 11.0469 15.1202C13.8058 15.8411 16.5646 16.3217 19.3235 16.6822C18.4838 14.7597 18.124 12.597 17.8841 10.5543C17.4043 7.43033 17.4043 3.70555 16.9245 0.581543Z" fill="#7A4EBD"/>
<path d="M16.9245 0.581543C15.3651 5.26755 13.3259 10.6745 11.0469 15.1202C11.8865 15.3605 12.7262 15.4806 13.5659 15.721C14.6454 10.6745 15.605 5.62801 16.9245 0.581543Z" fill="#491D6B"/>
<path d="M18.602 15.2401C17.2826 14.0385 15.2434 13.5579 13.4441 13.6781C12.9643 13.6781 12.4845 13.7982 12.0047 14.0385C11.5249 14.2788 11.1651 14.6393 11.0451 15.1199C10.8052 15.8408 11.1651 16.5618 11.6449 17.0424C12.1247 17.523 12.8444 17.7633 13.5641 18.0036C15.0035 18.4842 16.6828 18.6044 18.1222 18.0036C18.722 17.7633 19.2018 17.2827 19.3217 16.6819C19.3217 16.0811 18.9619 15.6005 18.602 15.2401Z" fill="#491D6B"/>
<path d="M10.691 45.0386C13.2099 35.7867 15.8489 26.5349 18.6077 17.4032C18.9676 16.3218 18.4878 15.2404 17.4082 14.8799C16.0888 14.3993 14.6493 14.159 13.2099 14.2792C12.6102 14.2792 11.8905 14.3993 11.5306 14.8799C11.1708 15.3605 11.1708 15.9613 11.0508 16.4419C10.3311 25.6938 8.65179 35.0658 6.13281 44.1975C6.61262 45.3991 9.73135 45.8797 10.691 45.0386Z" fill="#F84E59"/>
<path d="M11.6506 14.76C11.2907 15.2406 11.2907 15.8413 11.1708 16.322C10.3311 25.694 8.65179 35.066 6.13281 44.1977C6.25276 44.438 6.61262 44.6783 6.97247 44.9186C9.6114 34.8257 12.0104 24.6126 12.8501 14.1592C12.3703 14.2793 11.8905 14.3995 11.6506 14.76Z" fill="#491D6B"/>
<path d="M8.28906 44.798C9.48857 45.0383 9.84843 45.0383 10.928 44.5577C13.447 35.426 16.0859 26.2943 18.7248 17.2827C19.0847 16.2013 18.6049 15.1199 17.5253 14.7595C16.6856 14.399 15.846 14.2788 15.0063 14.1587C14.5265 17.4029 14.0467 20.647 13.327 23.8912C11.6477 31.3407 9.96838 37.9492 8.28906 44.798Z" fill="#F99AF6"/>
<path d="M16.9346 1.78271C16.5747 4.54626 16.0949 8.03073 15.735 10.7943C15.6151 11.395 15.6151 11.9958 15.855 12.4764C16.0949 12.957 17.6543 14.0384 18.254 13.9183C17.2944 9.71288 16.9346 5.62765 16.9346 1.78271Z" fill="#6FD0FF"/>
<path d="M14.7626 14.8798C15.3624 14.7597 15.9621 14.6395 16.5619 14.5194C15.4823 14.2791 14.4027 14.0388 13.3232 14.1589C12.7234 14.1589 12.0037 14.2791 11.6439 14.7597C11.404 15.1201 11.284 15.4806 11.1641 15.9612C12.4835 15.4806 13.5631 15.1201 14.7626 14.8798Z" fill="#491D6B"/>
<path d="M18.4838 15.6006C17.4043 15.7207 16.4447 15.8409 15.4851 16.0812C14.1656 16.4417 12.8461 16.8021 11.5267 17.2827C11.4067 17.2827 11.2868 17.4029 11.1668 17.4029C11.1668 17.8835 11.0469 18.244 11.0469 18.7246C13.5659 17.6432 16.2048 16.9223 18.8437 16.4417C18.7238 16.0812 18.6038 15.8409 18.4838 15.6006Z" fill="#6FD0FF"/>
<path d="M10.7996 20.2869C10.7996 20.6473 10.6797 20.8876 10.6797 21.2481C12.2391 20.407 13.7984 19.5659 15.3578 19.0853C16.3174 18.845 17.277 18.6047 18.3566 18.4846C18.4765 18.2443 18.4765 18.1241 18.5965 17.8838C15.8376 18.2443 13.1987 19.0853 10.7996 20.2869Z" fill="#491D6B"/>
<path d="M17.5174 21.1273C17.6373 20.7669 17.7573 20.2862 17.8772 19.9258C17.2775 20.0459 16.6777 20.1661 16.1979 20.2862C14.5186 20.7669 12.9592 21.4878 11.5198 22.3289C11.16 22.5692 10.8001 22.8095 10.4403 22.9296C10.4403 23.2901 10.3203 23.7707 10.3203 24.1312C12.4794 22.6893 14.9984 21.7281 17.5174 21.1273Z" fill="#6FD0FF"/>
<path d="M16.806 23.7718C16.9259 23.4114 17.0459 23.0509 17.1658 22.6904C14.5269 23.2912 12.1279 24.3726 10.0887 26.0547C10.0887 26.2951 9.96875 26.6555 9.96875 26.8958C12.0079 25.454 14.287 24.3726 16.806 23.7718Z" fill="#491D6B"/>
<path d="M15.9617 26.4149C16.0817 26.0545 16.2016 25.5738 16.3216 25.2134C13.9226 25.9343 11.6435 27.1358 9.60433 28.6978C9.60433 28.9382 9.48438 29.2986 9.48438 29.5389C11.2836 28.0971 13.5627 27.1358 15.9617 26.4149Z" fill="#6FD0FF"/>
<path d="M15.2402 28.8171C15.3602 28.5768 15.3602 28.3365 15.4801 28.0962C13.0811 28.8171 10.802 30.0187 9.00276 31.821C9.00276 32.0613 8.88281 32.3016 8.88281 32.4217C10.922 30.9799 13.0811 29.7783 15.2402 28.8171Z" fill="#491D6B"/>
<path d="M11.1651 33.5034C12.2447 33.0227 13.2043 32.5421 14.2839 32.1817C14.4038 31.5809 14.6437 30.9801 14.7637 30.4995C12.6045 31.5809 10.4454 32.9026 8.5262 34.3444C8.5262 34.5848 8.40625 34.8251 8.40625 35.0654C9.24591 34.4646 10.2055 33.984 11.1651 33.5034Z" fill="#6FD0FF"/>
<path d="M13.5679 34.9456C13.6878 34.5852 13.8078 34.2247 13.9277 33.8643C13.4479 34.1046 12.8482 34.2247 12.3684 34.465C10.9289 35.0658 9.36958 35.7867 7.93017 36.8681C7.81022 37.3487 7.69026 37.8293 7.57031 38.31C9.36958 36.8681 11.4088 35.7867 13.5679 34.9456Z" fill="#491D6B"/>
<path d="M12.6037 38.1895C12.7236 37.5887 12.9635 37.1081 13.0835 36.5073C10.9244 37.4686 9.00516 38.6701 7.32584 40.2321L7.20589 40.3523C7.20589 40.4724 7.08594 40.5926 7.08594 40.7127C8.6453 39.6313 10.6845 38.7903 12.6037 38.1895Z" fill="#6FD0FF"/>
<path d="M11.765 41.0732C11.8849 40.5925 12.0049 40.2321 12.1248 39.7515C9.96572 40.4724 7.92655 41.3135 6.36719 42.9956C6.36719 42.9956 6.36719 42.9956 6.36719 43.1158C7.92655 42.0344 9.84577 41.4336 11.765 41.0732Z" fill="#491D6B"/>
<path d="M7.20408 45.159C8.40359 44.1978 9.84301 43.597 11.2824 43.2365C11.4024 42.9962 11.4024 42.7559 11.5223 42.5156C9.72306 42.9962 7.92379 43.597 6.48438 44.6784C6.60433 44.7986 6.84423 45.0389 7.20408 45.159Z" fill="#6FD0FF"/>
<path d="M9.00781 45.5193C9.72752 45.5193 10.3273 45.3991 10.6871 45.0387C10.6871 44.9185 10.6871 44.7984 10.8071 44.6782C10.2073 44.9185 9.60757 45.1588 9.00781 45.5193Z" fill="#FED835"/>
<path d="M17.4004 16.5618C17.5203 16.3215 17.6403 15.961 17.7602 15.6006C17.1604 15.7207 16.6806 15.7207 16.0809 15.8409C16.0809 16.2014 15.9609 16.5618 15.9609 16.9223C16.4407 16.8021 16.9205 16.682 17.4004 16.5618Z" fill="white"/>
<path d="M15.9624 21.1272C16.0823 20.8869 16.0823 20.5264 16.2023 20.2861C16.2023 20.2861 16.2023 20.2861 16.0823 20.2861C15.7225 20.4063 15.4826 20.5264 15.1227 20.6466C15.0028 21.1272 14.8828 21.4877 14.8828 21.9683C15.1227 21.8481 15.4826 21.728 15.7225 21.728C15.9624 21.3675 15.9624 21.2474 15.9624 21.1272Z" fill="white"/>
<path d="M14.6365 25.814C14.3966 25.9341 14.2767 25.9341 14.0368 26.0543C13.9168 26.4147 13.9168 26.7752 13.7969 27.1357C14.0368 27.0155 14.1567 27.0155 14.3966 26.8954C14.3966 26.655 14.5166 26.1744 14.6365 25.814Z" fill="white"/>
<path d="M13.2068 31.3408C13.0869 31.461 12.847 31.461 12.727 31.5811C12.6071 32.0617 12.4871 32.5424 12.3672 32.9028C12.4871 32.7827 12.6071 32.7827 12.847 32.6625C12.9669 32.3021 13.0869 31.8214 13.2068 31.3408Z" fill="white"/>
<path d="M11.7615 37.2285C11.6416 37.3487 11.4017 37.3487 11.2817 37.4688C11.1618 37.9494 11.0418 38.4301 10.9219 38.7905C11.1618 38.6704 11.2817 38.6704 11.5216 38.5502C11.5216 38.1897 11.6416 37.7091 11.7615 37.2285Z" fill="white"/>
<path d="M10.444 42.7554C10.2041 42.8755 9.96418 42.8755 9.72428 42.9957C9.60433 43.236 9.60433 43.5964 9.48438 43.8368C9.72428 43.7166 10.0841 43.5964 10.324 43.4763C10.444 43.236 10.444 42.9957 10.444 42.7554Z" fill="white"/>
<path d="M6.72656 53.4493C7.68617 51.2866 8.28593 49.1238 8.40588 46.7207C7.92607 49.0036 6.72656 51.1664 6.72656 53.4493Z" fill="#FED835"/>
<path d="M8.04989 57.8955C8.7696 54.8916 9.12945 51.6474 8.88955 48.5234C8.40975 51.6474 7.92994 54.7714 8.04989 57.8955Z" fill="#F84E59"/>
<path d="M4.92969 63.0622C5.76935 60.1785 6.48905 57.2948 6.96886 54.4111C6.00925 57.1747 5.16959 60.1785 4.92969 63.0622Z" fill="#F84E59"/>
<path d="M10.0837 52.1279C10.5635 50.5659 10.6834 49.0039 9.84375 47.4419C9.84375 49.0039 9.84375 50.5659 10.0837 52.1279Z" fill="#FED835"/>
<path d="M4.32812 58.2554C4.92788 57.2942 5.40769 56.0927 5.52764 54.8911C4.92788 55.8523 4.56803 57.0539 4.32812 58.2554Z" fill="#F84E59"/>
<path d="M7.56346 46.1201C7.08365 46.9612 6.84375 47.9224 6.84375 48.7635C7.2036 47.8023 7.32355 47.3217 7.56346 46.1201Z" fill="#FED835"/>
</g>
<defs>
<clipPath id="clip0_6419_262">
<rect width="52.0588" height="82.0588" fill="white" transform="translate(-7.0625 0.461914)"/>
</clipPath>
</defs>
</svg>
