<svg width="47" height="46" viewBox="0 0 47 46" fill="none" xmlns="http://www.w3.org/2000/svg">
<g clip-path="url(#clip0_1620_52730)">
<path opacity="0.4" d="M20.4405 42.8693C20.0181 43.2373 19.5569 43.572 19.0579 43.8674C14.638 46.4813 8.9365 45.0173 6.32259 40.5975C5.23847 38.7645 4.85654 36.7108 5.09545 34.7488C5.75359 29.3049 5.39706 28.4675 2.51264 25.2027C2.16905 24.8264 1.85864 24.4103 1.58865 23.9543C-0.519995 20.3889 0.661043 15.7892 4.2264 13.6805C4.8581 13.3069 5.52194 13.0374 6.19926 12.8649C10.6917 11.6294 11.5742 11.1102 14.2706 5.6585C15.0738 3.98931 16.3621 2.53155 18.0759 1.5179C22.6668 -1.19705 28.5818 0.29904 31.3345 4.85369L31.3351 4.85318C34.6879 10.3981 35.6353 10.8205 40.6242 11.7388C40.6293 11.7398 40.6345 11.7409 40.6397 11.7414C40.6428 11.7419 40.6459 11.7424 40.649 11.7429C42.7432 12.129 44.6647 13.3847 45.8338 15.3612C47.9637 18.9623 46.7926 23.6003 43.223 25.7634L43.2236 25.7639C37.9408 28.967 37.5879 29.905 36.7137 34.6923C36.4136 36.3527 35.4212 37.8784 33.8552 38.8044C32.6285 39.5299 31.249 39.7693 29.94 39.5812C26.0098 39.0189 25.0651 38.963 20.4405 42.8693Z" fill="#99BC08"/>
<path d="M21.3002 17.3605C20.32 17.3605 19.5273 16.5679 19.5273 15.5876C19.5273 14.6073 20.3199 13.8147 21.3002 13.8147C22.2806 13.8147 23.0731 14.6073 23.0731 15.5876C23.0731 16.5679 22.2805 17.3605 21.3002 17.3605Z" fill="black"/>
<path d="M20.2379 31.8146C19.7999 31.8146 19.4453 31.46 19.4453 31.022V26.0162H21.0305V31.022C21.0304 31.46 20.6759 31.8146 20.2379 31.8146Z" fill="black"/>
<path d="M22.3238 31.8146C21.8858 31.8146 21.5312 31.46 21.5312 31.022V26.0162H23.1164V31.022C23.1164 31.46 22.7618 31.8146 22.3238 31.8146Z" fill="black"/>
<path d="M27.9756 24.6396C28.7891 24.6396 29.4357 23.9931 29.4357 23.1796C29.4357 22.3662 28.7891 21.7196 27.9756 21.7196C27.1622 21.7196 26.5156 22.3662 26.5156 23.1796C26.5156 23.9931 27.1622 24.6396 27.9756 24.6396Z" fill="black"/>
<path d="M25.3045 22.6166C25.1376 22.0535 25.0125 21.532 24.8456 20.9063C24.6997 20.3849 24.5328 19.9052 24.3868 19.4463C24.1365 18.5494 23.3231 17.9028 22.3845 17.9028H20.1944C19.2559 17.9028 18.4215 18.5286 18.1921 19.4463C18.0252 20.0094 17.8375 20.5934 17.6498 21.2192C17.3995 22.0117 17.1284 22.8252 16.9198 23.6178C16.8364 23.9515 17.0032 24.2852 17.3161 24.3895C17.3787 24.4103 17.4621 24.4312 17.5455 24.4312C17.8375 24.4312 18.0878 24.2435 18.1713 23.9515L19.1724 20.656L19.3184 20.1137C19.3393 20.0095 19.4227 19.9469 19.527 19.9469H19.5687C19.673 19.9886 19.7565 20.0929 19.7147 20.1971C19.6313 20.5308 19.4645 21.2609 19.2767 22.116C18.943 23.5343 18.5467 25.2863 18.359 26.1415C18.3382 26.2249 18.359 26.2875 18.4007 26.3501C18.4424 26.3918 18.505 26.4335 18.5676 26.4335H23.907C23.9696 26.4335 24.0322 26.4127 24.0739 26.3501C24.1156 26.2875 24.1365 26.2249 24.1156 26.1415C23.9279 25.2863 23.5316 23.5343 23.1979 22.116C22.9893 21.2609 22.8225 20.5308 22.7599 20.1971C22.7391 20.0929 22.8016 19.9677 22.9059 19.9469H22.9476H22.9684C23.0727 19.9469 23.1562 20.0094 23.177 20.1137L23.323 20.656L24.1365 23.1798C24.2407 23.4926 24.5745 23.6804 24.9082 23.5761C24.9956 23.5548 25.0586 23.5191 25.103 23.4855C25.3206 23.3206 25.3905 22.98 25.3045 22.6166Z" fill="black"/>
<path d="M30.2696 25.8077C30.1027 25.5158 29.8316 25.2654 29.5188 25.1403C29.3102 25.0568 29.1016 25.0151 28.8722 25.036C28.5176 25.036 27.7668 25.036 27.4331 24.9943C27.4122 24.9943 26.3276 24.9943 25.827 24.0348C25.7019 23.7846 25.4516 23.6594 25.1805 23.7011C24.8676 23.7637 24.6799 24.0766 24.7425 24.3686C24.7425 24.4103 24.7633 24.452 24.7842 24.4938C25.097 25.2238 25.7227 25.7661 26.4945 25.9746V31.1472C26.4945 31.4601 26.7031 31.7313 26.995 31.7938C27.3287 31.8773 27.6625 31.6478 27.7459 31.3141C27.7667 31.2724 27.7667 31.2098 27.7667 31.1681V28.3941H28.1421V31.189C28.1421 31.5436 28.4341 31.8147 28.7679 31.8147C29.1016 31.8147 29.3936 31.5228 29.3936 31.189V26.5169C29.4145 26.4335 29.4979 26.4335 29.5396 26.5795C29.6439 26.8506 29.7273 27.1009 29.7482 27.8935C29.769 28.1438 29.9776 28.3524 30.2279 28.3524H30.2905C30.5616 28.3315 30.7702 28.1021 30.7493 27.8309C30.7076 27.1009 30.7076 26.6003 30.2696 25.8077Z" fill="black"/>
</g>
<defs>
<clipPath id="clip0_1620_52730">
<rect width="46.3541" height="45" fill="white" transform="translate(0.542969 0.163696)"/>
</clipPath>
</defs>
</svg>
