<svg width="47" height="46" viewBox="0 0 47 46" fill="none" xmlns="http://www.w3.org/2000/svg">
<g clip-path="url(#clip0_1620_52721)">
<path opacity="0.4" d="M46.9149 21.496C46.9149 34.4832 36.413 45.011 23.4578 45.011C10.5025 45.011 0 34.4825 0 21.496C0 8.50953 13.965 12.7753 23.4571 3.93763C35.7754 -7.53147 46.9149 8.50885 46.9149 21.496Z" fill="#FF9680"/>
<path d="M21.1585 25.6614C20.8232 25.6614 20.5508 25.9334 20.5508 26.2691C20.5508 26.6048 20.8232 26.8766 21.1585 26.8766C21.4944 26.8766 21.7662 26.6045 21.7662 26.2691C21.7662 25.9336 21.4942 25.6614 21.1585 25.6614Z" fill="black"/>
<path d="M26.7757 25.6614C26.4398 25.6614 26.168 25.9334 26.168 26.2691C26.168 26.6048 26.4398 26.8766 26.7757 26.8766C27.1109 26.8766 27.3834 26.6045 27.3834 26.2691C27.3834 25.9336 27.1111 25.6614 26.7757 25.6614Z" fill="black"/>
<path d="M23.9648 28.1021C23.6568 28.1021 23.4065 27.853 23.4065 27.5457H22.4531C22.4531 28.3792 23.1312 29.0568 23.9648 29.0568C24.7983 29.0568 25.4764 28.3792 25.4764 27.5457H24.523C24.523 27.853 24.2727 28.1021 23.9648 28.1021Z" fill="black"/>
<path d="M31.3089 24.5612V23.9657H31.834C32.0971 23.9657 32.3103 23.7515 32.3103 23.4884V21.7594C32.3103 19.5187 30.6234 17.6448 28.384 17.2002L29.0261 16.0711L28.1972 15.5985L27.4421 16.926L26.5456 15.6159L25.7585 16.1539L26.4046 17.0981H20.7474C18.0256 17.0981 15.8116 19.1891 15.8116 21.7597V23.4886C15.8116 23.7517 16.0253 23.966 16.2883 23.966H16.9322V24.5562H16.6744C15.4064 24.556 14.375 25.5888 14.375 26.8565C14.375 28.1242 15.4064 29.1558 16.6744 29.1558H17.2389C18.0317 31.7187 20.3951 33.5985 23.2141 33.5985H25.0268C27.8464 33.5985 30.2099 31.719 31.002 29.1558H31.2564C32.525 29.1558 33.5564 28.1244 33.5564 26.8565C33.5564 25.6066 32.5529 24.59 31.3089 24.5612ZM16.6744 28.2011C15.9322 28.2011 15.3286 27.598 15.3286 26.8565C15.3286 26.1136 15.9322 25.5107 16.6744 25.5107H16.8054V27.1965C16.8054 27.5376 16.8311 27.8742 16.881 28.2011H16.6744ZM25.0268 32.6438H23.2141C20.2763 32.6438 17.8856 30.2538 17.8856 27.3153V23.9657H24.9553C25.9944 23.9657 26.9268 23.3535 27.3414 22.4291C27.4218 22.5664 27.5079 22.6967 27.5964 22.8203C28.0651 23.5374 28.8783 23.966 29.7711 23.966H30.3555V24.5562H30.3548V27.1967C30.3548 27.3037 30.3416 27.4075 30.3357 27.513C30.3287 27.7024 30.3054 27.8872 30.2792 28.0712C30.2535 28.236 30.228 28.4012 30.1879 28.5599L30.1587 28.673C29.5538 30.9515 27.4933 32.6438 25.0268 32.6438ZM31.2566 28.2011H31.2328C31.2579 28.0368 31.2586 27.8646 31.2708 27.6961C31.2788 27.5675 31.3091 27.4454 31.3091 27.3151V25.5109C32.0273 25.5395 32.6032 26.1315 32.6032 26.8565C32.603 27.598 31.9992 28.2011 31.2566 28.2011Z" fill="black"/>
</g>
<defs>
<clipPath id="clip0_1620_52721">
<rect width="46.9149" height="45" fill="white" transform="translate(0 0.0109863)"/>
</clipPath>
</defs>
</svg>
