<svg width="50" height="46" viewBox="0 0 50 46" fill="none" xmlns="http://www.w3.org/2000/svg">
<g clip-path="url(#clip0_1620_52724)">
<path opacity="0.4" d="M46.1712 30.2811C43.4236 37.1875 39.7067 42.7462 34.1849 44.4052C28.1147 46.229 21.5332 43.6854 17.778 40.0961C13.8708 36.3614 15.7424 34.0868 11.3722 29.4689C6.47069 24.2897 1.96488 24.8776 0.668056 20.5554C-0.20824 17.6348 1.02836 14.6309 1.84515 12.6469C3.28417 9.15135 5.50178 7.0533 6.49371 6.13462C15.0707 -1.8092 29.0657 0.214913 29.6602 0.308958C34.1366 1.01709 42.4976 2.33976 46.7601 9.31882C51.4509 16.9994 47.8453 26.0728 46.1712 30.2811Z" fill="#00CDB9"/>
<path d="M28.023 20.5088C29.241 19.3984 30.888 17.8966 31.0381 14.3088H32.1256V13.2324H18.1328V14.3088H19.2203C19.3704 17.8966 21.0174 19.3984 22.2354 20.5088C23.0524 21.2537 23.5146 21.7096 23.5146 22.4174C23.5146 23.1253 23.0524 23.5812 22.2354 24.3261C21.0174 25.4365 19.3704 26.9383 19.2203 30.5261H18.1328V31.6024H32.1256V30.5261H31.0381C30.888 26.9383 29.241 25.4365 28.023 24.3261C27.206 23.5812 26.7438 23.1253 26.7438 22.4174C26.7438 21.7096 27.206 21.2537 28.023 20.5088ZM24.591 26.4516C24.4248 26.4859 24.2606 26.5358 24.1003 26.6021L20.8039 27.9662C21.3422 26.5974 22.2092 25.8065 22.9606 25.1215C23.7991 24.357 24.591 23.635 24.591 22.4174V26.4516ZM27.2978 25.1215C28.0492 25.8065 28.9162 26.5974 29.4545 27.9661L26.1581 26.6021C25.9978 26.5357 25.8336 26.4858 25.6674 26.4515V22.4174C25.6674 23.635 26.4593 24.357 27.2978 25.1215ZM20.7849 16.8203C20.5247 16.1422 20.345 15.3235 20.298 14.3088H29.9604C29.9134 15.3235 29.7337 16.1422 29.4734 16.8203H20.7849Z" fill="black"/>
</g>
<defs>
<clipPath id="clip0_1620_52724">
<rect width="48.7108" height="45" fill="white" transform="translate(0.367188 0.0109863)"/>
</clipPath>
</defs>
</svg>
