<svg width="47" height="46" viewBox="0 0 47 46" fill="none" xmlns="http://www.w3.org/2000/svg">
<g clip-path="url(#clip0_1620_52727)">
<path opacity="0.4" d="M45.8613 24.2507C48.1663 35.7759 41.1324 47.1687 22.3981 44.8643C10.7324 43.4297 -2.02581 34.9089 1.11637 23.5833C4.63334 10.912 10.4071 5.94143 21.3668 1.69663C38.5856 -4.97269 43.3145 11.5183 45.8613 24.2507Z" fill="#8CBAAD"/>
<path d="M22.3273 23.764H15.4996C15.1567 23.764 14.8789 24.0418 14.8789 24.3847V31.2124C14.8789 31.5554 15.1567 31.8331 15.4996 31.8331H22.3273C22.6703 31.8331 22.948 31.5554 22.948 31.2124V24.3847C22.948 24.0418 22.6703 23.764 22.3273 23.764ZM19.9885 29.6607H17.8384L16.7634 27.7986L17.8384 25.9365H19.9885L21.0636 27.7986L19.9885 29.6607Z" fill="black"/>
<path d="M32.3648 23.877L25.6407 22.6914C25.3031 22.6318 24.9812 22.8575 24.9216 23.1948L23.7361 29.9189C23.6765 30.2565 23.9021 30.5784 24.2395 30.638L30.9635 31.8235C31.3012 31.8831 31.623 31.6578 31.6826 31.3201L32.8682 24.596C32.9278 24.2584 32.7021 23.9366 32.3648 23.877ZM25.8359 28.733L28.6288 25.4045L30.1147 29.4875L25.8359 28.733Z" fill="black"/>
<path d="M19.4944 22.6049C19.5614 22.941 19.8882 23.1595 20.2244 23.0924L26.9205 21.7588C27.2566 21.6918 27.4751 21.365 27.408 21.0289L26.0745 14.3328C26.0074 13.9967 25.6806 13.7782 25.3445 13.8452L18.6481 15.1785C18.312 15.2455 18.0935 15.5723 18.1605 15.9084L19.4941 22.6046L19.4944 22.6049ZM22.3602 16.338C23.537 16.1036 24.6807 16.8674 24.915 18.0443C25.1493 19.2211 24.3855 20.3648 23.2087 20.5991C22.0318 20.8334 20.8882 20.0696 20.6539 18.8928C20.4196 17.7159 21.1833 16.5723 22.3602 16.338Z" fill="black"/>
</g>
<defs>
<clipPath id="clip0_1620_52727">
<rect width="45.6508" height="45" fill="white" transform="translate(0.632812 0.163696)"/>
</clipPath>
</defs>
</svg>
