<svg width="370" height="74" viewBox="0 0 370 74" fill="none" xmlns="http://www.w3.org/2000/svg">
<path d="M329.672 22.1539C328.11 21.2395 326.279 20.3789 324.178 20.594C323.101 21.7236 322.347 22.4229 321 23.2297C322.293 23.6063 322.831 24.4131 323.316 26.242C324.932 24.6283 326.925 23.5525 329.672 22.1539Z" fill="url(#paint0_linear_8054_6170)"/>
<path d="M26.672 36.8375C25.1099 35.9231 23.2786 35.0625 21.1779 35.2776C20.1007 36.4072 19.3466 37.1065 18 37.9133C19.2927 38.2899 19.8314 39.0967 20.3161 40.9256C21.932 39.3119 23.9249 38.2361 26.672 36.8375Z" fill="url(#paint1_linear_8054_6170)"/>
<path d="M39.538 65.2215C39.3225 66.4049 39.538 67.2656 40.4536 68.2338C41.7463 68.18 42.662 67.9648 43.47 67.3193C43.3084 65.9208 43.5777 65.0064 44.224 63.3927C42.5543 64.3609 41.477 64.8988 39.538 65.2215Z" fill="url(#paint2_linear_8054_6170)"/>
<path d="M280.077 42.3895C279.862 43.5729 280.077 44.4335 280.993 45.4017C282.285 45.348 283.201 45.1328 284.009 44.4873C283.847 43.0888 284.117 42.1744 284.763 40.5607C283.093 41.5289 282.016 42.0668 280.077 42.3895Z" fill="url(#paint3_linear_8054_6170)"/>
<path d="M207.538 40.8101C208.185 41.1328 208.831 41.0252 209.747 40.6487C209.316 39.1426 209.208 38.1744 209.37 36.6682C208.67 36.9372 208.131 36.8834 207.054 36.5607C206.892 38.0668 207.108 39.2502 207.538 40.8101Z" fill="url(#paint4_linear_8054_6170)"/>
<path d="M110.262 38.5607C109.616 39.0448 108.916 39.3137 108 39.5289C109.293 41.0888 110.047 42.2184 110.693 43.6169C111.77 43.6707 112.309 43.4017 113.009 42.9176C112.525 41.8956 111.555 40.2819 110.262 38.5607Z" fill="url(#paint5_linear_8054_6170)"/>
<path d="M153.262 38.5607C152.616 39.0448 151.916 39.3137 151 39.5289C152.293 41.0888 153.047 42.2184 153.693 43.6169C154.77 43.6707 155.309 43.4017 156.009 42.9176C155.525 41.8956 154.555 40.2819 153.262 38.5607Z" fill="url(#paint6_linear_8054_6170)"/>
<path d="M255 67.2404C256.562 67.8321 257.262 68.5851 258.124 69.9299C259.524 67.6169 260.656 65.1426 260.817 63.9054C259.74 63.2061 258.663 62.8296 257.101 62.5607C256.939 63.9592 256.239 65.1964 255 67.2404Z" fill="url(#paint7_linear_8054_6170)"/>
<path d="M353.44 68.7436C354.302 67.7216 354.571 66.861 354.248 65.4086C353.009 64.7632 351.986 64.4404 350.909 64.6018C350.316 66.0003 349.508 66.6996 348 67.8292C350.155 67.883 351.447 67.9905 353.44 68.7436Z" fill="url(#paint8_linear_8054_6170)"/>
<path d="M89.4402 17.9272C90.302 16.9052 90.5713 16.0446 90.2481 14.5922C89.0093 13.9468 87.9859 13.624 86.9086 13.7854C86.3161 15.1839 85.5082 15.8832 84 17.0128C86.1545 17.0666 87.4472 17.1741 89.4402 17.9272Z" fill="url(#paint9_linear_8054_6170)"/>
<defs>
<linearGradient id="paint0_linear_8054_6170" x1="326.737" y1="24.5216" x2="323.118" y2="20.3939" gradientUnits="userSpaceOnUse">
<stop stop-color="#400300"/>
<stop offset="0.0709114" stop-color="#750300"/>
<stop offset="0.1439" stop-color="#A50300"/>
<stop offset="0.2084" stop-color="#C80300"/>
<stop offset="0.2612" stop-color="#DD0300"/>
<stop offset="0.2957" stop-color="#E50300"/>
<stop offset="0.3376" stop-color="#EE190C"/>
<stop offset="0.3927" stop-color="#F82E18"/>
<stop offset="0.4459" stop-color="#FD3C20"/>
<stop offset="0.4946" stop-color="#FF4022"/>
<stop offset="0.5442" stop-color="#FD3B1F"/>
<stop offset="0.5995" stop-color="#F72E18"/>
<stop offset="0.6574" stop-color="#EE180C"/>
<stop offset="0.6989" stop-color="#E50300"/>
<stop offset="0.7336" stop-color="#DB0300"/>
<stop offset="0.7914" stop-color="#C20300"/>
<stop offset="0.8653" stop-color="#980300"/>
<stop offset="0.9515" stop-color="#5E0300"/>
<stop offset="1" stop-color="#3B0300"/>
</linearGradient>
<linearGradient id="paint1_linear_8054_6170" x1="23.7368" y1="39.2052" x2="20.1184" y2="35.0775" gradientUnits="userSpaceOnUse">
<stop stop-color="#400300"/>
<stop offset="0.0709114" stop-color="#750300"/>
<stop offset="0.1439" stop-color="#A50300"/>
<stop offset="0.2084" stop-color="#C80300"/>
<stop offset="0.2612" stop-color="#DD0300"/>
<stop offset="0.2957" stop-color="#E50300"/>
<stop offset="0.3376" stop-color="#EE190C"/>
<stop offset="0.3927" stop-color="#F82E18"/>
<stop offset="0.4459" stop-color="#FD3C20"/>
<stop offset="0.4946" stop-color="#FF4022"/>
<stop offset="0.5442" stop-color="#FD3B1F"/>
<stop offset="0.5995" stop-color="#F72E18"/>
<stop offset="0.6574" stop-color="#EE180C"/>
<stop offset="0.6989" stop-color="#E50300"/>
<stop offset="0.7336" stop-color="#DB0300"/>
<stop offset="0.7914" stop-color="#C20300"/>
<stop offset="0.8653" stop-color="#980300"/>
<stop offset="0.9515" stop-color="#5E0300"/>
<stop offset="1" stop-color="#3B0300"/>
</linearGradient>
<linearGradient id="paint2_linear_8054_6170" x1="41.5708" y1="64.1518" x2="42.9379" y2="68.4786" gradientUnits="userSpaceOnUse">
<stop stop-color="#AB3C00"/>
<stop offset="0.3441" stop-color="#FFC700"/>
<stop offset="0.3696" stop-color="#FFCD17"/>
<stop offset="0.4069" stop-color="#FFD533"/>
<stop offset="0.4445" stop-color="#FFDA46"/>
<stop offset="0.4826" stop-color="#FFDD52"/>
<stop offset="0.5215" stop-color="#FFDE56"/>
<stop offset="0.5509" stop-color="#FFDD51"/>
<stop offset="0.5855" stop-color="#FFD943"/>
<stop offset="0.6225" stop-color="#FFD32B"/>
<stop offset="0.6612" stop-color="#FFCA0B"/>
<stop offset="0.672" stop-color="#FFC700"/>
<stop offset="1" stop-color="#AB3C00"/>
</linearGradient>
<linearGradient id="paint3_linear_8054_6170" x1="282.11" y1="41.3198" x2="283.477" y2="45.6466" gradientUnits="userSpaceOnUse">
<stop stop-color="#AB3C00"/>
<stop offset="0.3441" stop-color="#FFC700"/>
<stop offset="0.3696" stop-color="#FFCD17"/>
<stop offset="0.4069" stop-color="#FFD533"/>
<stop offset="0.4445" stop-color="#FFDA46"/>
<stop offset="0.4826" stop-color="#FFDD52"/>
<stop offset="0.5215" stop-color="#FFDE56"/>
<stop offset="0.5509" stop-color="#FFDD51"/>
<stop offset="0.5855" stop-color="#FFD943"/>
<stop offset="0.6225" stop-color="#FFD32B"/>
<stop offset="0.6612" stop-color="#FFCA0B"/>
<stop offset="0.672" stop-color="#FFC700"/>
<stop offset="1" stop-color="#AB3C00"/>
</linearGradient>
<linearGradient id="paint4_linear_8054_6170" x1="210.003" y1="38.4893" x2="206.609" y2="38.8777" gradientUnits="userSpaceOnUse">
<stop stop-color="#400300"/>
<stop offset="0.0709114" stop-color="#750300"/>
<stop offset="0.1439" stop-color="#A50300"/>
<stop offset="0.2084" stop-color="#C80300"/>
<stop offset="0.2612" stop-color="#DD0300"/>
<stop offset="0.2957" stop-color="#E50300"/>
<stop offset="0.3376" stop-color="#EE190C"/>
<stop offset="0.3927" stop-color="#F82E18"/>
<stop offset="0.4459" stop-color="#FD3C20"/>
<stop offset="0.4946" stop-color="#FF4022"/>
<stop offset="0.5442" stop-color="#FD3B1F"/>
<stop offset="0.5995" stop-color="#F72E18"/>
<stop offset="0.6574" stop-color="#EE180C"/>
<stop offset="0.6989" stop-color="#E50300"/>
<stop offset="0.7336" stop-color="#DB0300"/>
<stop offset="0.7914" stop-color="#C20300"/>
<stop offset="0.8653" stop-color="#980300"/>
<stop offset="0.9515" stop-color="#5E0300"/>
<stop offset="1" stop-color="#3B0300"/>
</linearGradient>
<linearGradient id="paint5_linear_8054_6170" x1="108.606" y1="42.3556" x2="111.999" y2="40.3318" gradientUnits="userSpaceOnUse">
<stop stop-color="#0038AB"/>
<stop offset="0.1131" stop-color="#0062C9"/>
<stop offset="0.272" stop-color="#0097F0"/>
<stop offset="0.3495" stop-color="#00ACFF"/>
<stop offset="0.4014" stop-color="#00BFFF"/>
<stop offset="0.469" stop-color="#00D2FF"/>
<stop offset="0.5161" stop-color="#00D9FF"/>
<stop offset="0.6633" stop-color="#00B8FF"/>
<stop offset="0.7097" stop-color="#00ACFF"/>
<stop offset="0.755" stop-color="#00A2F8"/>
<stop offset="0.833" stop-color="#0086E3"/>
<stop offset="0.9337" stop-color="#0059C3"/>
<stop offset="1" stop-color="#0038AB"/>
</linearGradient>
<linearGradient id="paint6_linear_8054_6170" x1="151.606" y1="42.3556" x2="154.999" y2="40.3318" gradientUnits="userSpaceOnUse">
<stop stop-color="#0038AB"/>
<stop offset="0.1131" stop-color="#0062C9"/>
<stop offset="0.272" stop-color="#0097F0"/>
<stop offset="0.3495" stop-color="#00ACFF"/>
<stop offset="0.4014" stop-color="#00BFFF"/>
<stop offset="0.469" stop-color="#00D2FF"/>
<stop offset="0.5161" stop-color="#00D9FF"/>
<stop offset="0.6633" stop-color="#00B8FF"/>
<stop offset="0.7097" stop-color="#00ACFF"/>
<stop offset="0.755" stop-color="#00A2F8"/>
<stop offset="0.833" stop-color="#0086E3"/>
<stop offset="0.9337" stop-color="#0059C3"/>
<stop offset="1" stop-color="#0038AB"/>
</linearGradient>
<linearGradient id="paint7_linear_8054_6170" x1="255.571" y1="64.9371" x2="260.625" y2="67.4683" gradientUnits="userSpaceOnUse">
<stop stop-color="#AB3C00"/>
<stop offset="0.3441" stop-color="#FFC700"/>
<stop offset="0.3696" stop-color="#FFCD17"/>
<stop offset="0.4069" stop-color="#FFD533"/>
<stop offset="0.4445" stop-color="#FFDA46"/>
<stop offset="0.4826" stop-color="#FFDD52"/>
<stop offset="0.5215" stop-color="#FFDE56"/>
<stop offset="0.5509" stop-color="#FFDD51"/>
<stop offset="0.5855" stop-color="#FFD943"/>
<stop offset="0.6225" stop-color="#FFD32B"/>
<stop offset="0.6612" stop-color="#FFCA0B"/>
<stop offset="0.672" stop-color="#FFC700"/>
<stop offset="1" stop-color="#AB3C00"/>
</linearGradient>
<linearGradient id="paint8_linear_8054_6170" x1="350.918" y1="68.6156" x2="352.052" y2="63.7974" gradientUnits="userSpaceOnUse">
<stop stop-color="#005200"/>
<stop offset="0.1859" stop-color="#00890B"/>
<stop offset="0.3118" stop-color="#00A912"/>
<stop offset="0.3267" stop-color="#11AD12"/>
<stop offset="0.3667" stop-color="#3AB512"/>
<stop offset="0.406" stop-color="#5ABC12"/>
<stop offset="0.4438" stop-color="#71C112"/>
<stop offset="0.4795" stop-color="#7EC412"/>
<stop offset="0.5108" stop-color="#83C512"/>
<stop offset="0.55" stop-color="#7FC412"/>
<stop offset="0.5906" stop-color="#72C112"/>
<stop offset="0.632" stop-color="#5EBD12"/>
<stop offset="0.6737" stop-color="#41B712"/>
<stop offset="0.7154" stop-color="#1CAF12"/>
<stop offset="0.7419" stop-color="#00A912"/>
<stop offset="0.783" stop-color="#009E10"/>
<stop offset="0.8555" stop-color="#00800C"/>
<stop offset="0.9504" stop-color="#005004"/>
<stop offset="1" stop-color="#003400"/>
</linearGradient>
<linearGradient id="paint9_linear_8054_6170" x1="86.9176" y1="17.7992" x2="88.0516" y2="12.981" gradientUnits="userSpaceOnUse">
<stop stop-color="#005200"/>
<stop offset="0.1859" stop-color="#00890B"/>
<stop offset="0.3118" stop-color="#00A912"/>
<stop offset="0.3267" stop-color="#11AD12"/>
<stop offset="0.3667" stop-color="#3AB512"/>
<stop offset="0.406" stop-color="#5ABC12"/>
<stop offset="0.4438" stop-color="#71C112"/>
<stop offset="0.4795" stop-color="#7EC412"/>
<stop offset="0.5108" stop-color="#83C512"/>
<stop offset="0.55" stop-color="#7FC412"/>
<stop offset="0.5906" stop-color="#72C112"/>
<stop offset="0.632" stop-color="#5EBD12"/>
<stop offset="0.6737" stop-color="#41B712"/>
<stop offset="0.7154" stop-color="#1CAF12"/>
<stop offset="0.7419" stop-color="#00A912"/>
<stop offset="0.783" stop-color="#009E10"/>
<stop offset="0.8555" stop-color="#00800C"/>
<stop offset="0.9504" stop-color="#005004"/>
<stop offset="1" stop-color="#003400"/>
</linearGradient>
</defs>
</svg>
