<svg width="35" height="35" viewBox="0 0 35 35" fill="none" xmlns="http://www.w3.org/2000/svg">
<mask id="mask0_8001_112" style="mask-type:alpha" maskUnits="userSpaceOnUse" x="0" y="0" width="35" height="35">
<rect width="35" height="34.8791" fill="#4D4D4D"/>
</mask>
<g mask="url(#mask0_8001_112)">
</g>
<g clip-path="url(#clip0_8001_112)">
<path d="M31.8765 5.20215C29.8599 3.18555 27.1802 2.07129 24.3228 2.07129C21.4722 2.07129 18.7856 3.17871 16.769 5.20215L16.0444 5.92676C14.3901 7.58105 14.3901 10.2744 16.0444 11.9287C16.8442 12.7285 17.9106 13.1729 19.0454 13.1729C20.1802 13.1729 21.2466 12.7285 22.0464 11.9287L23.4956 10.4795L24.9448 9.03027L33.729 17.8145C35.9028 13.7676 35.2876 8.61328 31.8765 5.20215Z" fill="#D4B56A"/>
<path d="M15.9482 21.1299C15.2441 20.4258 14.3281 19.9951 13.3438 19.9062L8.72266 24.5273C8.81152 25.5049 9.23535 26.4141 9.93945 27.1182L9.95313 27.1318C10.6572 27.8359 11.5664 28.2598 12.5439 28.3486L17.165 23.7275C17.083 22.75 16.6592 21.834 15.9482 21.1299Z" fill="#D4B56A"/>
<path d="M11.4023 16.5771C10.6025 15.7773 9.53613 15.333 8.40137 15.333C7.2666 15.333 6.2002 15.7773 5.40039 16.5771C4.60059 17.377 4.15625 18.4434 4.15625 19.5781C4.15625 20.7129 4.60059 21.7793 5.40039 22.5791C5.81738 22.9961 6.30273 23.3105 6.8291 23.5225L12.3389 18.0127C12.1338 17.4932 11.8193 17.001 11.4023 16.5771Z" fill="#D4B56A"/>
<path d="M29.5997 16.5771L27.3234 14.3008L24.9513 11.9287L23.5021 13.3779C22.3126 14.5674 20.7335 15.2236 19.0519 15.2236C17.3702 15.2236 15.7911 14.5674 14.6017 13.3779C12.1476 10.9238 12.1476 6.93164 14.6017 4.47754L15.3263 3.75293C15.463 3.61621 15.6066 3.47949 15.7501 3.34961C14.212 2.51563 12.4757 2.07129 10.6778 2.07129C7.82726 2.07129 5.14073 3.17871 3.12413 5.20215C-0.676648 9.00293 -1.01161 14.9707 2.11925 19.1475C2.22179 17.6299 2.85753 16.2148 3.94445 15.1279C5.1339 13.9385 6.713 13.2822 8.39464 13.2822C10.0763 13.2822 11.6554 13.9385 12.8448 15.1279C13.6515 15.9346 14.2189 16.9395 14.4923 18.0264C15.5792 18.2998 16.5841 18.8672 17.3976 19.6807C18.211 20.4941 18.7784 21.4922 19.0519 22.5791C20.1388 22.8525 21.1368 23.4199 21.9503 24.2334C22.9825 25.2656 23.6114 26.5918 23.7618 28.0205C24.2403 27.8086 24.6778 27.5146 25.0538 27.1387C25.8536 26.3389 26.298 25.2725 26.298 24.1377C26.298 24.0283 26.2911 23.9189 26.2843 23.8164C26.3937 23.8232 26.4962 23.8301 26.6056 23.8301C27.6925 23.8301 28.7794 23.4131 29.6066 22.5859C30.4064 21.7861 30.8507 20.7197 30.8507 19.585C30.8439 18.4502 30.4064 17.3838 29.5997 16.5771Z" fill="#D4B56A"/>
<path d="M21.7383 28.5059C21.7383 28.458 21.7314 28.417 21.7314 28.3691C21.6562 27.3506 21.2324 26.4072 20.501 25.6758C20.084 25.2588 19.5986 24.9443 19.0723 24.7324L13.5557 30.249C13.7607 30.7686 14.0752 31.2539 14.4854 31.6641L14.499 31.6777C15.2988 32.4775 16.3652 32.9219 17.5 32.9219C18.6348 32.9219 19.7012 32.4775 20.501 31.6777C21.1162 31.0625 21.5195 30.2969 21.6699 29.4629C21.7178 29.21 21.7451 28.9434 21.7451 28.6768C21.7451 28.6221 21.7451 28.5674 21.7383 28.5059Z" fill="#D4B56A"/>
</g>
<defs>
<clipPath id="clip0_8001_112">
<rect width="35" height="35" fill="white"/>
</clipPath>
</defs>
</svg>
