<svg width="35" height="35" viewBox="0 0 35 35" fill="none" xmlns="http://www.w3.org/2000/svg">
<g clip-path="url(#clip0_8024_114)">
<path d="M28.6973 2.45414C28.7656 4.94242 26.0381 7.10257 23.9463 8.09378C22.8389 7.6016 20.4121 6.00882 19.6465 4.30667C19.3525 3.73246 19.2021 3.09671 19.1953 2.45414C19.2021 1.17582 20.2412 0.143588 21.5127 0.150424C22.333 0.150424 23.0986 0.59476 23.5088 1.3057C23.6523 1.54496 23.96 1.62699 24.2061 1.48343C24.2813 1.44242 24.3428 1.37406 24.3906 1.29886C25.5801 -0.724576 28.6768 0.102573 28.6973 2.45414Z" fill="#D4B56A"/>
<path d="M35.0001 17.5137C35.0138 22.5039 31.6642 26.8857 26.8448 28.1846C27.3575 26.9746 27.672 25.6826 27.7814 24.377C30.2765 22.9961 31.8214 20.3643 31.8146 17.5137C31.8419 10.8486 23.8644 7.1709 18.8399 11.5459C17.5753 12.626 16.6866 14.082 16.297 15.7021C16.297 15.709 16.297 15.7158 16.2901 15.7158C15.2716 19.9131 18.006 24.2949 22.2032 25.1768C21.9161 26.2432 21.3761 27.2344 20.6378 28.0547C15.6544 26.5303 12.3321 21.4717 12.961 16.2627V16.2559C13.1456 14.6084 13.6993 13.0225 14.588 11.6211C15.962 9.43359 18.0538 7.7998 20.5079 7.00684C21.4786 7.86816 22.5724 8.5791 23.7481 9.11914C23.878 9.17383 24.0216 9.17383 24.1515 9.11914C25.3272 8.5791 26.421 7.86816 27.3917 7.00684C31.8829 8.46973 35.0001 12.749 35.0001 17.5137Z" fill="#D4B56A"/>
<path d="M26.7975 24.0283C26.7018 25.6484 26.2643 27.2344 25.5055 28.6699C23.5777 32.4297 19.524 34.8906 15.2994 34.8496C6.78184 34.9453 1.13535 25.6211 5.025 18.1016C6.37168 18.0264 7.70469 17.7461 8.96934 17.2744C9.09922 17.2266 9.20176 17.124 9.24961 16.9941C9.72129 15.7295 10.0016 14.4033 10.0768 13.0566C11.0611 12.5508 12.1207 12.1885 13.2145 11.9971C12.5855 13.207 12.1754 14.5127 11.9908 15.8594C6.80918 18.0674 5.47617 25.1631 9.52305 29.0938C12.7359 32.3135 18.027 32.2793 21.1715 28.9844C22.2652 27.8564 23.0104 26.4346 23.3111 24.8896C23.3111 24.8828 23.3111 24.8828 23.3111 24.876C24.1793 20.8018 21.4654 16.4541 17.4117 15.4561C17.7672 14.335 18.4098 13.3232 19.2711 12.5234C23.9674 14.1504 27.1734 19.0723 26.7975 24.0283Z" fill="#D4B56A"/>
<path d="M9.07833 12.7217C9.04415 14.3623 8.57247 15.8662 8.3879 16.3994C7.85469 16.584 6.34395 17.0625 4.69649 17.0898C2.48848 17.1514 0.0548877 16.2148 0.000200197 14.041C-0.0203076 12.4619 1.53829 11.2793 3.05586 11.7031C3.3293 11.7783 3.60274 11.6143 3.67793 11.3477C3.69844 11.2588 3.69844 11.1699 3.67793 11.0811C3.44551 10.2471 3.68477 9.34473 4.3 8.73633C5.2502 7.79297 6.78145 7.79297 7.72481 8.73633C8.64766 9.65918 9.10567 10.999 9.07833 12.7217Z" fill="#D4B56A"/>
</g>
<defs>
<clipPath id="clip0_8024_114">
<rect width="35" height="35" fill="white"/>
</clipPath>
</defs>
</svg>
