<svg width="35" height="35" viewBox="0 0 35 35" fill="none" xmlns="http://www.w3.org/2000/svg">
<mask id="mask0_8001_75" style="mask-type:alpha" maskUnits="userSpaceOnUse" x="0" y="0" width="35" height="35">
<rect y="0.12085" width="35" height="34.8791" fill="#4D4D4D"/>
</mask>
<g mask="url(#mask0_8001_75)">
</g>
<g clip-path="url(#clip0_8001_75)">
<path d="M21.2051 5.00391C21.6836 4.57324 22.3262 4.32031 23.0303 4.34766C24.3633 4.40234 25.4502 5.48926 25.498 6.82227C25.5527 8.29199 24.377 9.49512 22.9209 9.49512C22.2578 9.49512 21.6562 9.24902 21.2051 8.83887V13.7881H26.1543C25.7236 14.2666 25.4707 14.9092 25.498 15.6133C25.5527 16.9463 26.6396 18.0332 27.9727 18.0811C29.4424 18.1357 30.6455 16.96 30.6455 15.5039C30.6455 14.8408 30.3994 14.2393 29.9893 13.7881H35V1.71582C35 0.765625 34.2344 0 33.2842 0H21.2051V5.00391Z" fill="#D4B56A"/>
<path d="M18.0946 23.0234C18.0673 22.3193 18.3202 21.6836 18.7509 21.1982H13.8016V26.1475C13.3231 25.7168 12.6805 25.4639 11.9764 25.4912C10.6434 25.5459 9.55652 26.6328 9.50867 27.9658C9.45398 29.4355 10.6298 30.6387 12.0858 30.6387C12.7489 30.6387 13.3505 30.3926 13.8016 29.9824V35H25.8807C26.8309 35 27.5966 34.2344 27.5966 33.2842V21.2051H22.5858C22.996 21.6631 23.2421 22.2646 23.2421 22.9209C23.2421 24.377 22.0321 25.5527 20.5692 25.498C19.2294 25.4434 18.1425 24.3564 18.0946 23.0234Z" fill="#D4B56A"/>
<path d="M15.5107 11.7579C14.8477 11.7579 14.2461 12.004 13.7949 12.4141V7.4102H1.71582C0.765625 7.40337 0 8.17583 0 9.12602V19.1543H2.31055C2.47461 16.8233 4.40234 14.9502 6.74707 14.8614C6.80859 14.8614 6.86328 14.8614 6.9248 14.8614C9.36523 14.8614 11.3682 16.7618 11.5391 19.1543H13.7949V16.2559C14.2734 16.6866 14.916 16.9395 15.6201 16.9122C16.9531 16.8575 18.04 15.7706 18.0879 14.4375C18.1426 12.9678 16.9668 11.7579 15.5107 11.7579Z" fill="#D4B56A"/>
<path d="M8.74316 31.2811C7.86133 30.3651 7.40332 29.162 7.45117 27.8973C7.54004 25.5458 9.41309 23.6249 11.7441 23.4608V21.205H8.8457C9.25586 20.747 9.50195 20.1454 9.50195 19.4891C9.50195 18.0331 8.29199 16.8573 6.8291 16.912C5.49609 16.9598 4.40918 18.0468 4.35449 19.3798C4.32715 20.0839 4.58008 20.7196 5.01074 21.205H0V33.2841C0 34.2343 0.765625 34.9999 1.71582 34.9999H11.7441V32.6893C10.6162 32.6073 9.53613 32.1014 8.74316 31.2811Z" fill="#D4B56A"/>
</g>
<defs>
<clipPath id="clip0_8001_75">
<rect width="35" height="35" fill="white"/>
</clipPath>
</defs>
</svg>
