<svg width="42" height="41" viewBox="0 0 42 41" fill="none" xmlns="http://www.w3.org/2000/svg">
<path d="M39.9823 17.5725L35.2739 12.8641C33.3375 10.9277 34.5209 8.88382 36.631 8.75969C40.1064 8.54455 42.0593 4.83737 39.221 1.75082C36.1345 -1.0792 32.4438 0.865406 32.2287 4.3326C32.0963 6.44271 30.0358 7.6343 28.1078 5.70624L23.4986 1.0971C22.1167 -0.28481 19.8742 -0.28481 18.4923 1.0971L13.8252 5.76417C11.8889 7.7005 9.83672 6.50064 9.70432 4.39053C9.48917 0.915056 5.76545 -1.06265 2.6789 1.77565C-0.167678 4.87047 1.81003 8.5942 5.2855 8.80934C7.39561 8.94174 8.59548 11.0022 6.66742 12.9385L2.0169 17.5808C0.63499 18.9627 0.63499 21.2052 2.0169 22.5871L6.62604 27.1962C8.56238 29.1243 7.41216 31.1351 5.30205 31.2675C1.82658 31.4827 -0.118029 35.1816 2.72027 38.2681C5.80682 41.1064 9.48917 39.1701 9.70432 35.6946C9.83672 33.5845 11.8558 32.426 13.7921 34.3541L18.4426 39.0046C19.8494 40.4113 22.1498 40.4113 23.5566 39.0129L26.8169 35.7525L28.2153 34.3541C30.0441 32.4426 28.8608 30.4317 26.7755 30.2993C23.3 30.0842 21.3306 26.3605 24.1689 23.2739C27.2555 20.4356 30.9792 22.4133 31.1943 25.8888C31.3267 27.9741 33.3293 29.1491 35.2408 27.3204L36.5068 26.0543L39.9161 22.645C39.9244 22.6368 39.9244 22.6368 39.9327 22.6285L39.9823 22.5788C41.3642 21.1969 41.3642 18.9544 39.9823 17.5725Z" fill="#D4B56A"/>
</svg>
