<svg width="42" height="41" viewBox="0 0 42 41" fill="none" xmlns="http://www.w3.org/2000/svg">
<path d="M41.4327 11.8249L37.9924 8.38453C37.9854 8.37719 37.9769 8.37135 37.9676 8.36736C37.9583 8.36337 37.9483 8.36131 37.9381 8.36131C37.928 8.36131 37.9179 8.36337 37.9086 8.36736C37.8993 8.37135 37.8909 8.37719 37.8839 8.38453C37.3366 8.89201 36.6141 9.16783 35.8679 9.15412C35.1217 9.14041 34.4098 8.83824 33.8815 8.311C33.3533 7.78376 33.0498 7.07243 33.0346 6.32624C33.0195 5.58006 33.2939 4.85701 33.8004 4.30879C33.8077 4.3018 33.8136 4.29338 33.8176 4.28406C33.8216 4.27474 33.8236 4.2647 33.8236 4.25455C33.8236 4.24441 33.8216 4.23437 33.8176 4.22505C33.8136 4.21572 33.8077 4.20731 33.8004 4.20031L30.36 0.759955C30.2093 0.606097 30.0297 0.483582 29.8314 0.39947C29.6332 0.315359 29.4202 0.271313 29.2048 0.269873C28.9895 0.268432 28.776 0.309625 28.5766 0.391077C28.3772 0.472529 28.196 0.59263 28.0432 0.744458C26.1061 2.6816 24.0294 4.75821 21.8831 6.90456C21.8942 7.01745 21.8806 7.1314 21.8431 7.23847C21.8056 7.34553 21.7452 7.44313 21.6661 7.52444C21.5942 7.59689 21.5084 7.65412 21.4139 7.69273C21.3194 7.73133 21.2181 7.75052 21.116 7.74915C21.0928 7.74915 21.0695 7.7414 21.0463 7.7414C17.1332 11.6544 12.9955 15.7922 9.02051 19.7672H32.9713C32.9294 19.6032 32.9426 19.4301 33.0088 19.2744C33.0749 19.1187 33.1904 18.9891 33.3375 18.9054C33.4845 18.8218 33.655 18.7888 33.8226 18.8115C33.9902 18.8342 34.1458 18.9113 34.2653 19.031L34.8154 19.5812C34.8704 19.6364 34.9173 19.699 34.9549 19.7672H35.8305L41.4482 14.1495C41.7532 13.8385 41.9228 13.4195 41.9199 12.984C41.917 12.5484 41.7418 12.1317 41.4327 11.8249ZM23.859 9.71728C23.787 9.78972 23.7013 9.84695 23.6068 9.88556C23.5122 9.92416 23.4109 9.94335 23.3088 9.94199C23.2069 9.94265 23.1057 9.92314 23.0113 9.88457C22.9169 9.84601 22.8311 9.78916 22.7587 9.71728L22.2163 9.16714C22.0714 9.02226 21.99 8.82576 21.99 8.62086C21.99 8.41597 22.0714 8.21947 22.2163 8.07459C22.3612 7.92971 22.5577 7.84832 22.7626 7.84832C22.9675 7.84832 23.164 7.92971 23.3088 8.07459L23.859 8.62474C23.9308 8.69642 23.9878 8.78156 24.0267 8.8753C24.0656 8.96904 24.0856 9.06952 24.0856 9.17101C24.0856 9.2725 24.0656 9.37298 24.0267 9.46672C23.9878 9.56046 23.9308 9.64561 23.859 9.71728ZM26.0518 11.9101C25.9049 12.0542 25.7074 12.1348 25.5017 12.1348C25.296 12.1348 25.0984 12.0542 24.9515 11.9101L24.4091 11.36C24.3356 11.2892 24.2772 11.2044 24.2372 11.1105C24.1973 11.0167 24.1767 10.9157 24.1767 10.8137C24.1767 10.7117 24.1973 10.6107 24.2372 10.5169C24.2772 10.423 24.3356 10.3382 24.4091 10.2674C24.4808 10.1956 24.566 10.1386 24.6597 10.0997C24.7534 10.0608 24.8539 10.0408 24.9554 10.0408C25.0569 10.0408 25.1574 10.0608 25.2511 10.0997C25.3449 10.1386 25.43 10.1956 25.5017 10.2674L26.0518 10.8098C26.197 10.9561 26.2785 11.1539 26.2785 11.36C26.2785 11.5661 26.197 11.7638 26.0518 11.9101ZM28.2447 14.103C28.0965 14.2451 27.8998 14.3254 27.6945 14.3277C27.489 14.3268 27.2917 14.2463 27.1444 14.103L26.5942 13.5528C26.5224 13.4811 26.4654 13.396 26.4265 13.3023C26.3876 13.2085 26.3676 13.108 26.3676 13.0065C26.3676 12.9051 26.3876 12.8046 26.4265 12.7108C26.4654 12.6171 26.5224 12.532 26.5942 12.4603C26.7405 12.3151 26.9383 12.2336 27.1444 12.2336C27.3505 12.2336 27.5482 12.3151 27.6945 12.4603L28.2447 13.0027C28.3899 13.149 28.4713 13.3467 28.4713 13.5528C28.4713 13.7589 28.3899 13.9567 28.2447 14.103ZM30.4298 16.2958C30.2854 16.4389 30.0906 16.5196 29.8874 16.5205C29.6818 16.5197 29.4846 16.4391 29.3372 16.2958L28.7871 15.7457C28.7148 15.6734 28.6575 15.5876 28.6184 15.4932C28.5793 15.3989 28.5592 15.2977 28.5592 15.1955C28.5592 15.0933 28.5793 14.9922 28.6184 14.8978C28.6575 14.8034 28.7148 14.7176 28.7871 14.6454C28.8593 14.5731 28.9451 14.5158 29.0395 14.4767C29.1339 14.4376 29.235 14.4175 29.3372 14.4175C29.4394 14.4175 29.5406 14.4376 29.635 14.4767C29.7293 14.5158 29.8151 14.5731 29.8874 14.6454L30.4298 15.1955C30.575 15.3418 30.6564 15.5396 30.6564 15.7457C30.6564 15.9518 30.575 16.1495 30.4298 16.2958ZM32.6226 18.4809C32.5519 18.5544 32.467 18.6129 32.3732 18.6528C32.2793 18.6928 32.1783 18.7134 32.0763 18.7134C31.9743 18.7134 31.8734 18.6928 31.7795 18.6528C31.6856 18.6129 31.6008 18.5544 31.5301 18.4809L30.9799 17.9385C30.8347 17.7922 30.7533 17.5945 30.7533 17.3884C30.7533 17.1822 30.8347 16.9845 30.9799 16.8382C31.0516 16.7664 31.1367 16.7094 31.2305 16.6705C31.3242 16.6316 31.4247 16.6115 31.5262 16.6115C31.6277 16.6115 31.7282 16.6316 31.8219 16.6705C31.9156 16.7094 32.0008 16.7664 32.0725 16.8382L32.6226 17.3884C32.6944 17.46 32.7514 17.5452 32.7903 17.6389C32.8292 17.7327 32.8492 17.8331 32.8492 17.9346C32.8492 18.0361 32.8292 18.1366 32.7903 18.2303C32.7514 18.3241 32.6944 18.4092 32.6226 18.4809Z" fill="#D4B56A"/>
<path d="M16.3324 33.2285C16.1106 33.2285 15.8937 33.2942 15.7093 33.4174C15.5249 33.5407 15.3812 33.7158 15.2963 33.9207C15.2114 34.1256 15.1892 34.3511 15.2325 34.5687C15.2758 34.7862 15.3826 34.986 15.5394 35.1429C15.6962 35.2997 15.8961 35.4065 16.1136 35.4498C16.3311 35.493 16.5566 35.4708 16.7615 35.3859C16.9664 35.3011 17.1416 35.1573 17.2648 34.9729C17.388 34.7885 17.4538 34.5717 17.4538 34.3499C17.4535 34.0525 17.3352 33.7675 17.125 33.5572C16.9148 33.347 16.6297 33.2287 16.3324 33.2285Z" fill="#D4B56A"/>
<path d="M39.3721 27.9109C39.3926 27.9109 39.4123 27.9027 39.4268 27.8882C39.4413 27.8737 39.4495 27.854 39.4495 27.8334V22.9673C39.4514 22.5317 39.2802 22.1132 38.9736 21.8038C38.6671 21.4943 38.2502 21.3192 37.8146 21.3169H29.2868V21.5784C29.2868 21.7839 29.2052 21.981 29.0599 22.1263C28.9145 22.2716 28.7175 22.3533 28.512 22.3533C28.3064 22.3533 28.1094 22.2716 27.964 22.1263C27.8187 21.981 27.7371 21.7839 27.7371 21.5784V21.3169H1.71409C1.49821 21.3174 1.28456 21.3605 1.08541 21.4438C0.886253 21.5271 0.705521 21.649 0.553596 21.8023C0.401671 21.9557 0.281546 22.1376 0.200125 22.3375C0.118703 22.5374 0.0775889 22.7515 0.0791441 22.9673V27.8334C0.079181 27.854 0.0873563 27.8737 0.10188 27.8882C0.116403 27.9027 0.13609 27.9109 0.15663 27.9109C0.901962 27.9395 1.60724 28.2557 2.12444 28.7932C2.64164 29.3306 2.93056 30.0475 2.93056 30.7934C2.93056 31.5393 2.64164 32.2561 2.12444 32.7936C1.60724 33.331 0.901962 33.6472 0.15663 33.6758C0.136528 33.6772 0.117602 33.6858 0.103355 33.7001C0.0891084 33.7143 0.0805071 33.7332 0.0791441 33.7533V38.6272C0.0783868 38.8424 0.120103 39.0558 0.201903 39.2549C0.283703 39.454 0.40398 39.6351 0.555849 39.7877C0.707717 39.9403 0.888192 40.0614 1.08694 40.1441C1.28569 40.2269 1.49881 40.2696 1.71409 40.2699H27.7563C27.7478 40.2387 27.7414 40.207 27.7371 40.1749V39.4001C27.7371 39.1946 27.8187 38.9975 27.964 38.8522C28.1094 38.7069 28.3064 38.6252 28.512 38.6252C28.7175 38.6252 28.9145 38.7069 29.0599 38.8522C29.2052 38.9975 29.2868 39.1946 29.2868 39.4001V40.1749C29.2825 40.207 29.2761 40.2387 29.2677 40.2699H37.8146C38.249 40.268 38.6649 40.0941 38.9714 39.7862C39.2778 39.4783 39.4498 39.0616 39.4495 38.6272V33.7533C39.4482 33.7332 39.4396 33.7143 39.4253 33.7001C39.4111 33.6858 39.3922 33.6772 39.3721 33.6758C38.6253 33.6493 37.918 33.334 37.3991 32.7963C36.8802 32.2587 36.5903 31.5406 36.5903 30.7934C36.5903 30.0462 36.8802 29.3281 37.3991 28.7904C37.918 28.2528 38.6253 27.9375 39.3721 27.9109ZM10.1708 24.5689C10.699 24.5689 11.2153 24.7256 11.6545 25.0191C12.0936 25.3126 12.4359 25.7297 12.638 26.2177C12.8401 26.7058 12.8929 27.2427 12.7898 27.7608C12.6868 28.2788 12.4324 28.7547 12.0589 29.1281C11.6854 29.5016 11.2096 29.756 10.6916 29.859C10.1735 29.9621 9.63655 29.9093 9.14854 29.7072C8.66054 29.5051 8.24342 29.1628 7.94993 28.7237C7.65644 28.2845 7.49975 27.7682 7.49967 27.24C7.5005 26.5318 7.78219 25.8529 8.28295 25.3521C8.7837 24.8514 9.46263 24.5697 10.1708 24.5689ZM8.27415 37.021C8.12397 37.021 7.97705 36.9772 7.85128 36.8952C7.7255 36.8131 7.6263 36.6962 7.56572 36.5588C7.50515 36.4214 7.48583 36.2693 7.51011 36.1211C7.53438 35.9729 7.60121 35.835 7.70247 35.7241L17.6568 24.8216C17.7253 24.7463 17.808 24.6852 17.9001 24.6419C17.9923 24.5986 18.092 24.5738 18.1938 24.5691C18.2955 24.5644 18.3971 24.5798 18.4929 24.6143C18.5886 24.6489 18.6766 24.7021 18.7518 24.7707C18.827 24.8394 18.888 24.9221 18.9311 25.0144C18.9743 25.1066 18.9989 25.2064 19.0034 25.3081C19.008 25.4098 18.9925 25.5114 18.9577 25.6071C18.9229 25.7028 18.8697 25.7907 18.8009 25.8658L8.84659 36.7683C8.77415 36.8481 8.68577 36.9118 8.58717 36.9554C8.48857 36.9989 8.38193 37.0213 8.27415 37.021ZM16.3326 37.021C15.8043 37.021 15.2878 36.8644 14.8486 36.5709C14.4093 36.2774 14.0669 35.8602 13.8648 35.3721C13.6626 34.884 13.6097 34.3469 13.7128 33.8288C13.8158 33.3106 14.0702 32.8347 14.4438 32.4611C14.8174 32.0876 15.2933 31.8332 15.8115 31.7301C16.3296 31.627 16.8667 31.6799 17.3548 31.8821C17.8429 32.0843 18.26 32.4266 18.5535 32.8659C18.847 33.3052 19.0037 33.8216 19.0037 34.3499C19.0029 35.0581 18.7212 35.737 18.2204 36.2378C17.7197 36.7385 17.0407 37.0202 16.3326 37.021ZM29.2868 37.0755C29.2868 37.281 29.2052 37.4781 29.0599 37.6234C28.9145 37.7687 28.7175 37.8504 28.512 37.8504C28.3064 37.8504 28.1094 37.7687 27.964 37.6234C27.8187 37.4781 27.7371 37.281 27.7371 37.0755V36.3007C27.7371 36.0952 27.8187 35.8981 27.964 35.7528C28.1094 35.6074 28.3064 35.5258 28.512 35.5258C28.7175 35.5258 28.9145 35.6074 29.0599 35.7528C29.2052 35.8981 29.2868 36.0952 29.2868 36.3007V37.0755ZM29.2868 33.9761C29.2868 34.1816 29.2052 34.3787 29.0599 34.524C28.9145 34.6693 28.7175 34.751 28.512 34.751C28.3064 34.751 28.1094 34.6693 27.964 34.524C27.8187 34.3787 27.7371 34.1816 27.7371 33.9761V33.2012C27.7371 32.9957 27.8187 32.7986 27.964 32.6533C28.1094 32.508 28.3064 32.4264 28.512 32.4264C28.7175 32.4264 28.9145 32.508 29.0599 32.6533C29.2052 32.7986 29.2868 32.9957 29.2868 33.2012V33.9761ZM29.2868 30.8767C29.2868 31.0822 29.2052 31.2793 29.0599 31.4246C28.9145 31.5699 28.7175 31.6515 28.512 31.6515C28.3064 31.6515 28.1094 31.5699 27.964 31.4246C27.8187 31.2793 27.7371 31.0822 27.7371 30.8767V30.1018C27.7371 29.8963 27.8187 29.6992 27.964 29.5539C28.1094 29.4086 28.3064 29.327 28.512 29.327C28.7175 29.327 28.9145 29.4086 29.0599 29.5539C29.2052 29.6992 29.2868 29.8963 29.2868 30.1018V30.8767ZM29.2868 27.7773C29.2868 27.9828 29.2052 28.1798 29.0599 28.3252C28.9145 28.4705 28.7175 28.5521 28.512 28.5521C28.3064 28.5521 28.1094 28.4705 27.964 28.3252C27.8187 28.1798 27.7371 27.9828 27.7371 27.7773V27.0024C27.7371 26.7969 27.8187 26.5998 27.964 26.4545C28.1094 26.3092 28.3064 26.2275 28.512 26.2275C28.7175 26.2275 28.9145 26.3092 29.0599 26.4545C29.2052 26.5998 29.2868 26.7969 29.2868 27.0024V27.7773ZM29.2868 24.6778C29.2868 24.8833 29.2052 25.0804 29.0599 25.2257C28.9145 25.3711 28.7175 25.4527 28.512 25.4527C28.3064 25.4527 28.1094 25.3711 27.964 25.2257C27.8187 25.0804 27.7371 24.8833 27.7371 24.6778V23.903C27.7371 23.6975 27.8187 23.5004 27.964 23.3551C28.1094 23.2098 28.3064 23.1281 28.512 23.1281C28.7175 23.1281 28.9145 23.2098 29.0599 23.3551C29.2052 23.5004 29.2868 23.6975 29.2868 23.903V24.6778Z" fill="#D4B56A"/>
<path d="M10.1712 28.3606C10.393 28.3605 10.6097 28.2947 10.794 28.1715C10.9783 28.0482 11.1219 27.8731 11.2067 27.6682C11.2915 27.4634 11.3136 27.2379 11.2703 27.0205C11.227 26.8031 11.1201 26.6033 10.9633 26.4466C10.8064 26.2899 10.6067 26.1832 10.3892 26.14C10.1717 26.0968 9.94631 26.1191 9.74149 26.204C9.53668 26.2889 9.36164 26.4327 9.23852 26.6171C9.1154 26.8015 9.04973 27.0182 9.0498 27.24C9.05013 27.5372 9.16841 27.8222 9.37867 28.0323C9.58893 28.2424 9.87398 28.3605 10.1712 28.3606Z" fill="#D4B56A"/>
</svg>
