<svg width="42" height="41" viewBox="0 0 42 41" fill="none" xmlns="http://www.w3.org/2000/svg">
<path d="M35.0467 8.97219H19.921L33.5625 0.861888C33.7004 0.780785 33.8869 0.821337 33.968 0.959212L36.6768 5.52531C35.6063 6.34445 34.998 7.6421 35.0467 8.97219ZM41.6809 23.741V29.0533C41.689 29.2074 41.5511 29.3453 41.3889 29.3453H0.61033C0.448124 29.3453 0.318359 29.2155 0.318359 29.0533V23.741C5.16021 23.0841 5.16832 16.1985 0.318359 15.5253V10.2131C0.318359 10.0671 0.456234 9.92109 0.61033 9.92109H41.3889C41.543 9.92109 41.6809 10.0509 41.6809 10.2131V15.5253C36.839 16.1822 36.8309 23.0679 41.6809 23.741ZM10.0669 27.05C10.0669 26.4337 9.11804 26.4337 9.11804 27.05V27.8854C9.11804 28.5018 10.0588 28.5018 10.0669 27.8854V27.05ZM10.0669 24.4385C10.0588 23.814 9.12615 23.814 9.11804 24.4385V25.282C9.12615 25.9065 10.0507 25.9065 10.0669 25.282V24.4385ZM10.0669 21.827C10.0669 21.2106 9.11804 21.2106 9.11804 21.827V22.6624C9.11804 23.2788 10.0588 23.2788 10.0669 22.6624V21.827ZM10.0669 19.2074C10.0588 18.5829 9.12615 18.5829 9.11804 19.2074V20.0509C9.12615 20.6754 10.0507 20.6754 10.0669 20.0509V19.2074ZM10.0669 16.5959C10.0669 15.9795 9.11804 15.9795 9.11804 16.5959V17.4312C9.11804 18.0476 10.0588 18.0476 10.0669 17.4312V16.5959ZM10.0669 13.9844C10.0588 13.3599 9.12615 13.3599 9.11804 13.9844V14.8278C9.12615 15.4523 10.0507 15.4523 10.0669 14.8278V13.9844ZM10.0669 11.3728C10.0588 10.7483 9.12615 10.7483 9.11804 11.3728V12.2082C9.11804 12.8246 10.0588 12.8246 10.0669 12.2082V11.3728ZM34.7871 13.2463C34.7871 12.5651 34.2356 12.0136 33.5544 12.0136H14.9169C14.2356 12.0136 13.6841 12.5651 13.6841 13.2463V26.0119C13.6841 26.6932 14.2356 27.2447 14.9169 27.2447H33.5544C34.2356 27.2447 34.7871 26.6932 34.7871 26.0119V13.2463ZM5.33052 33.741L8.03937 38.299C8.12047 38.4369 8.29889 38.4856 8.44488 38.3964L22.0783 30.2861H6.95259C7.00936 31.6243 6.39297 32.9219 5.33052 33.741ZM33.8463 13.2463V26.0119C33.8463 26.1741 33.7166 26.3039 33.5544 26.3039H14.9169C14.7628 26.3039 14.6249 26.1741 14.6249 26.0119V13.2463C14.6249 13.0841 14.7547 12.9543 14.9169 12.9543H33.5544C33.7166 12.9625 33.8463 13.0922 33.8463 13.2463ZM22.3378 18.591C24.9007 18.5099 24.9088 14.7873 22.3378 14.7062C19.775 14.7873 19.775 18.5099 22.3378 18.591ZM25.6793 21.5107C23.1164 21.5918 23.1164 25.3144 25.6793 25.3955C28.2502 25.3144 28.2583 21.5918 25.6793 21.5107ZM27.3824 14.8846L19.7425 24.6332C19.3613 25.1198 20.1075 25.7118 20.4887 25.2171L28.1205 15.4767C28.5017 14.9819 27.7636 14.4061 27.3824 14.8846ZM23.3354 16.6445C23.3111 15.3388 21.3646 15.3388 21.3403 16.6445C21.3646 17.9584 23.3111 17.9584 23.3354 16.6445ZM24.6898 23.4491C24.7223 24.7711 26.6444 24.7629 26.6849 23.4491C26.6606 22.1514 24.7141 22.1433 24.6898 23.4491ZM3.14074 1.82701C3.7328 1.82701 4.22752 1.3404 4.22752 0.740234C4.22752 0.480704 4.43839 0.269836 4.69792 0.269836C4.95745 0.269836 5.16832 0.480704 5.16832 0.740234C5.16832 1.33229 5.64683 1.82701 6.24699 1.82701C6.86337 1.82701 6.86337 2.76781 6.24699 2.77592C5.65494 2.77592 5.16832 3.25443 5.16832 3.85459C5.16832 4.47908 4.21941 4.47097 4.21941 3.85459C4.21941 3.26254 3.7328 2.77592 3.13263 2.77592C2.51625 2.7597 2.52436 1.83512 3.14074 1.82701ZM4.4465 2.29741C4.53572 2.3704 4.62493 2.45962 4.69792 2.54883C4.77091 2.45151 4.86013 2.3704 4.94934 2.29741C4.86013 2.21631 4.77091 2.13521 4.69792 2.04599C4.61682 2.13521 4.53572 2.21631 4.4465 2.29741ZM20.951 38.7289C20.3508 38.7289 19.8723 39.2155 19.8723 39.8076C19.8723 40.4239 18.9315 40.4239 18.9234 39.8076C18.9234 39.2074 18.4368 38.7289 17.8447 38.7289C17.2283 38.7289 17.2283 37.7881 17.8447 37.78C18.4449 37.78 18.9234 37.2934 18.9234 36.7013C18.9234 36.4418 19.1343 36.2309 19.3938 36.2309C19.6533 36.2309 19.8642 36.4418 19.8642 36.7013C19.8642 37.3015 20.3508 37.78 20.9429 37.78C21.5673 37.78 21.5673 38.7208 20.951 38.7289ZM19.6452 38.2504C19.556 38.1693 19.4668 38.0882 19.3938 37.999C19.3127 38.0882 19.2316 38.1774 19.1424 38.2504C19.2316 38.3315 19.3208 38.4126 19.3938 38.5018C19.4749 38.4126 19.556 38.3315 19.6452 38.2504ZM27.8204 33.7167C27.2283 33.7167 26.7417 34.2033 26.7417 34.8035C26.7336 35.428 25.8009 35.4199 25.7928 34.8035C25.7928 34.2114 25.3062 33.7167 24.706 33.7167C24.0815 33.7086 24.0815 32.784 24.706 32.7678C25.2981 32.7678 25.7928 32.2812 25.7928 31.681C25.7928 31.4215 26.0037 31.2106 26.2632 31.2106C26.5227 31.2106 26.7336 31.4215 26.7336 31.681C26.7336 32.2731 27.2121 32.7678 27.8123 32.7678C28.4449 32.7759 28.4449 33.7005 27.8204 33.7167ZM26.5227 33.2382C26.4335 33.1652 26.3443 33.076 26.2713 32.9868C26.1902 33.0841 26.1091 33.1652 26.0199 33.2382C26.1091 33.3112 26.1983 33.4004 26.2713 33.4896C26.3443 33.4004 26.4335 33.3193 26.5227 33.2382ZM13.3759 2.8408C14.2194 2.8408 14.9007 2.15143 14.9007 1.31607C14.9088 0.691572 15.8334 0.699682 15.8496 1.31607C15.8496 2.15954 16.539 2.8408 17.3743 2.8408C17.9988 2.84891 17.9907 3.77349 17.3743 3.78971C16.5308 3.78971 15.8496 4.47908 15.8496 5.31444C15.8415 5.93894 14.9169 5.93083 14.9007 5.31444C14.9007 4.47097 14.2113 3.78971 13.3759 3.78971C12.7514 3.77349 12.7514 2.84891 13.3759 2.8408ZM14.8277 3.3112C15.0386 3.46529 15.2251 3.64372 15.3792 3.8627C15.5333 3.65183 15.7198 3.46529 15.9307 3.3112C15.7198 3.1571 15.5414 2.97868 15.3792 2.7597C15.2251 2.97868 15.0386 3.1571 14.8277 3.3112ZM37.7068 37.8854C36.8634 37.8854 36.1821 38.5748 36.1821 39.4101C36.1821 40.0265 35.2413 40.0265 35.2332 39.4101C35.2332 38.5667 34.5438 37.8854 33.7085 37.8854C33.0921 37.8854 33.0921 36.9446 33.7085 36.9365C34.5519 36.9365 35.2332 36.2471 35.2332 35.4118C35.2332 34.7954 36.174 34.7954 36.1821 35.4118C36.1821 36.2552 36.8715 36.9365 37.7068 36.9365C38.3313 36.9446 38.3232 37.8854 37.7068 37.8854ZM36.2551 37.415C36.0442 37.2609 35.8577 37.0744 35.7117 36.8716C35.5576 37.0825 35.3711 37.269 35.1683 37.415C35.3792 37.5691 35.5657 37.7556 35.7117 37.9584C35.8577 37.7556 36.0442 37.5691 36.2551 37.415Z" fill="#D4B56A"/>
</svg>
