<svg width="35" height="35" viewBox="0 0 35 35" fill="none" xmlns="http://www.w3.org/2000/svg">
<mask id="mask0_8001_104" style="mask-type:alpha" maskUnits="userSpaceOnUse" x="0" y="0" width="35" height="35">
<rect width="35" height="34.8791" fill="#4D4D4D"/>
</mask>
<g mask="url(#mask0_8001_104)">
</g>
<g clip-path="url(#clip0_8001_104)">
<path d="M17.5 4.10156C18.0674 4.10156 18.5254 3.64355 18.5254 3.07617V1.02539C18.5254 0.458008 18.0674 0 17.5 0C16.9326 0 16.4746 0.458008 16.4746 1.02539V3.07617C16.4746 3.64355 16.9326 4.10156 17.5 4.10156Z" fill="#D4B56A"/>
<path d="M22.3259 5.85145L24.3767 3.80066C24.78 3.39734 24.78 2.74793 24.3767 2.35145C23.9734 1.95496 23.324 1.94813 22.9275 2.35145L20.8767 4.40223C20.4734 4.80555 20.4734 5.45496 20.8767 5.85145C21.28 6.24793 21.9226 6.25477 22.3259 5.85145Z" fill="#D4B56A"/>
<path d="M12.674 5.85156C13.0773 6.25488 13.7267 6.25488 14.1232 5.85156C14.5197 5.44824 14.5265 4.79883 14.1232 4.40234L12.0724 2.35156C11.6691 1.94824 11.0197 1.94824 10.6232 2.35156C10.2267 2.75488 10.2199 3.4043 10.6232 3.80078L12.674 5.85156Z" fill="#D4B56A"/>
<path d="M9.22852 14.4922C9.22852 12.2295 7.38965 10.3906 5.12695 10.3906C2.86426 10.3906 1.02539 12.2295 1.02539 14.4922C1.02539 16.7549 2.86426 18.5938 5.12695 18.5938C7.38965 18.5938 9.22852 16.7549 9.22852 14.4922Z" fill="#D4B56A"/>
<path d="M17.5 8.27148C15.8047 8.27148 14.4238 9.65234 14.4238 11.3477C14.4238 15.3057 11.1357 18.5938 7.17773 18.5938H5.12695C2.29688 18.5938 0 20.8906 0 23.7207V33.9746C0 34.542 0.458008 35 1.02539 35H9.22852C9.7959 35 10.2402 34.542 10.2402 33.9746L10.2471 24.3838C16.2354 22.9756 20.5762 17.582 20.5762 11.3477C20.5762 9.65234 19.1953 8.27148 17.5 8.27148Z" fill="#D4B56A"/>
<path d="M33.9746 14.4922C33.9746 12.2295 32.1357 10.3906 29.873 10.3906C27.6104 10.3906 25.7715 12.2295 25.7715 14.4922C25.7715 16.7549 27.6104 18.5938 29.873 18.5938C32.1357 18.5938 33.9746 16.7549 33.9746 14.4922Z" fill="#D4B56A"/>
<path d="M29.873 18.5937H27.8223C25.4639 18.5937 23.3174 17.3701 22.0117 15.6064C21.4102 17.7256 20.3643 19.6465 18.9697 21.2871C20.6035 22.7295 22.627 23.8779 24.7529 24.3838L24.7598 33.9746C24.7598 34.542 25.2041 35 25.7715 35H33.9746C34.542 35 35 34.542 35 33.9746V23.7207C35 20.8906 32.7031 18.5937 29.873 18.5937Z" fill="#D4B56A"/>
</g>
<defs>
<clipPath id="clip0_8001_104">
<rect width="35" height="35" fill="white"/>
</clipPath>
</defs>
</svg>
