<svg width="35" height="35" viewBox="0 0 35 35" fill="none" xmlns="http://www.w3.org/2000/svg">
<mask id="mask0_8001_83" style="mask-type:alpha" maskUnits="userSpaceOnUse" x="0" y="0" width="35" height="35">
<rect y="0.12085" width="35" height="34.8791" fill="#4D4D4D"/>
</mask>
<g mask="url(#mask0_8001_83)">
</g>
<g clip-path="url(#clip0_8001_83)">
<path d="M17.5 0C7.83398 0 0 7.83398 0 17.5C0 27.166 7.83398 35 17.5 35C27.166 35 35 27.166 35 17.5C35 7.83398 27.166 0 17.5 0ZM7.17773 10.9238H9.1875C9.39941 10.9238 9.58398 10.7871 9.64551 10.5889L10.2676 8.68164C10.3564 8.42871 10.6299 8.29199 10.8828 8.37402C11.0264 8.42188 11.1426 8.53809 11.1904 8.68164L11.8125 10.5957C11.874 10.7939 12.0654 10.9307 12.2705 10.9307H14.2734C14.54 10.9307 14.7588 11.1494 14.7588 11.416C14.7588 11.5664 14.6836 11.7168 14.5605 11.8057L12.9473 12.9883C12.7764 13.1113 12.708 13.3301 12.7695 13.5283L13.3848 15.4287C13.4668 15.6816 13.3301 15.9551 13.0771 16.0439C12.9268 16.0918 12.7627 16.0645 12.6396 15.9756L11.0195 14.793C10.8486 14.6699 10.6162 14.6699 10.4453 14.793L8.81836 15.9688C8.60645 16.1328 8.29883 16.0986 8.13477 15.8867C8.03223 15.7568 8.00488 15.5859 8.05957 15.4287L8.68164 13.5215C8.75 13.3232 8.68164 13.1113 8.51758 12.9814L6.9043 11.7988C6.68555 11.6416 6.6377 11.3408 6.78809 11.1221C6.88379 10.999 7.02051 10.9238 7.17773 10.9238ZM27.3506 21.9639C26.6191 26.1543 22.4834 29.0664 17.5 29.0664C12.5166 29.0664 8.38086 26.1611 7.64258 21.9639C7.63574 21.9229 7.62891 21.875 7.62891 21.834C7.62891 21.2256 8.36035 20.8359 9.00977 21.0547C11.498 21.916 14.4033 22.3535 17.5 22.3535C20.5967 22.3535 23.4951 21.916 25.9902 21.0547C26.6328 20.8223 27.3711 21.2256 27.3711 21.834C27.3711 21.875 27.3643 21.9229 27.3506 21.9639ZM28.1094 11.7988L26.4961 12.9814C26.3252 13.1045 26.2568 13.3232 26.3184 13.5215L26.9404 15.4287C27.0225 15.6816 26.8857 15.9551 26.6328 16.0439C26.4824 16.0918 26.3184 16.0645 26.1953 15.9756L24.582 14.793C24.4111 14.6699 24.1787 14.6699 24.0078 14.793L22.3809 15.9756C22.1758 16.1465 21.8682 16.126 21.6973 15.9209C21.5811 15.7842 21.5469 15.5996 21.6152 15.4287L22.2373 13.5215C22.3057 13.3232 22.2305 13.1045 22.0596 12.9814L20.4395 11.7988C20.2275 11.6348 20.1865 11.334 20.3438 11.1152C20.4326 10.9922 20.5762 10.9238 20.7266 10.9238H22.7295C22.9414 10.9238 23.126 10.7871 23.1875 10.5889L23.8096 8.68164C23.8984 8.42871 24.1719 8.29199 24.4248 8.37402C24.5684 8.42188 24.6846 8.53809 24.7324 8.68164L25.3545 10.5889C25.416 10.7871 25.6074 10.9238 25.8125 10.9238H27.8223C28.0889 10.917 28.3076 11.1289 28.3145 11.3955C28.3145 11.5527 28.2393 11.7031 28.1094 11.7988Z" fill="#D4B56A"/>
</g>
<defs>
<clipPath id="clip0_8001_83">
<rect width="35" height="35" fill="white"/>
</clipPath>
</defs>
</svg>
