<svg width="35" height="35" viewBox="0 0 35 35" fill="none" xmlns="http://www.w3.org/2000/svg">
<mask id="mask0_8001_92" style="mask-type:alpha" maskUnits="userSpaceOnUse" x="0" y="0" width="35" height="35">
<rect y="0.12085" width="35" height="34.8791" fill="#4D4D4D"/>
</mask>
<g mask="url(#mask0_8001_92)">
</g>
<g clip-path="url(#clip0_8001_92)">
<path d="M28.4854 6.50098C25.1289 6.50098 22.3535 9.05762 22.0049 12.3252C24.4453 13.8359 26.0723 16.543 26.0723 19.6123V24.0078C26.0723 25.6143 25.3477 27.084 24.165 28.0684V33.9746C24.165 34.542 24.623 35 25.1904 35H31.7803C32.3477 35 32.8057 34.542 32.8057 33.9746V23.7686C34.084 23.3379 35 22.1279 35 20.7129V13.0225C35 9.42676 32.0742 6.50098 28.4854 6.50098Z" fill="#D4B56A"/>
<path d="M28.4854 6.50098C30.2832 6.50098 31.7461 5.03809 31.7461 3.24023C31.5821 -1.08008 25.3955 -1.08008 25.2315 3.24023C25.2246 5.03809 26.6875 6.50098 28.4854 6.50098Z" fill="#D4B56A"/>
<path d="M20.7605 9.83008C20.7605 8.03223 19.2976 6.56934 17.4998 6.56934C13.1863 6.7334 13.1863 12.9268 17.4998 13.0908C19.2976 13.0908 20.7605 11.6279 20.7605 9.83008Z" fill="#D4B56A"/>
<path d="M17.5 13.0908C14.1436 13.0908 11.3682 15.6475 11.0195 18.915C13.46 20.4258 15.0869 23.1328 15.0869 26.2021V27.3027C15.0869 28.9092 14.3623 30.3789 13.1797 31.3633V33.9746C13.1797 34.542 13.6377 35 14.2051 35H20.7949C21.3623 35 21.8203 34.542 21.8203 33.9746V27.0703C23.0986 26.6396 24.0146 25.4297 24.0146 24.0146V19.6191C24.0146 16.0166 21.0957 13.0908 17.5 13.0908Z" fill="#D4B56A"/>
<path d="M6.51465 19.6875C2.91211 19.6875 0 22.6064 0 26.209V27.3096C0 28.7314 0.922851 29.9346 2.19434 30.3652V33.9746C2.19434 34.542 2.65234 35 3.21973 35H9.80957C10.377 35 10.835 34.542 10.835 33.9746V30.3652C12.1133 29.9346 13.0293 28.7246 13.0293 27.3096V26.209C13.0361 22.5996 10.1172 19.6875 6.51465 19.6875Z" fill="#D4B56A"/>
<path d="M6.51465 19.6875C8.3125 19.6875 9.77539 18.2246 9.77539 16.4268C9.61133 12.1064 3.4248 12.1064 3.26074 16.4268C3.26074 18.2246 4.72363 19.6875 6.51465 19.6875Z" fill="#D4B56A"/>
</g>
<defs>
<clipPath id="clip0_8001_92">
<rect width="35" height="35" fill="white"/>
</clipPath>
</defs>
</svg>
