<svg width="127" height="360" viewBox="0 0 127 360" fill="none" xmlns="http://www.w3.org/2000/svg">
<g clip-path="url(#clip0_6294_60647)">
<path d="M73.8852 334.089C75.1483 331.931 76.337 329.401 76.0398 326.5C74.4796 325.012 73.5137 323.97 72.3992 322.11C71.8792 323.896 70.7647 324.64 68.2386 325.31C70.4675 327.541 71.9535 330.294 73.8852 334.089Z" fill="url(#paint0_linear_6294_60647)"/>
<path d="M77.8461 37.3826C79.1092 35.225 80.298 32.6954 80.0008 29.7938C78.4405 28.3059 77.4747 27.2643 76.3602 25.4043C75.8401 27.1899 74.7256 27.9339 72.1995 28.6035C74.4284 30.8354 75.9144 33.5882 77.8461 37.3826Z" fill="url(#paint1_linear_6294_60647)"/>
<path d="M38.6379 55.1523C37.0034 54.8547 35.8146 55.1523 34.4773 56.4171C34.5516 58.2026 34.8488 59.4674 35.7403 60.5834C37.6721 60.3602 38.9351 60.7322 41.1641 61.625C39.8267 59.3186 39.0837 57.8306 38.6379 55.1523Z" fill="url(#paint2_linear_6294_60647)"/>
<path d="M26.6379 246.513C25.0034 246.215 23.8146 246.513 22.4773 247.777C22.5516 249.563 22.8488 250.828 23.7403 251.944C25.6721 251.721 26.9351 252.093 29.1641 252.985C27.8267 250.679 27.0837 249.191 26.6379 246.513Z" fill="url(#paint3_linear_6294_60647)"/>
<path d="M12.9977 29.1802C12.5519 30.073 12.7005 30.9658 13.2206 32.2306C15.3009 31.6354 16.6383 31.4866 18.7186 31.7098C18.3471 30.7426 18.4214 29.9986 18.8672 28.5106C16.7869 28.2874 15.1523 28.585 12.9977 29.1802Z" fill="url(#paint4_linear_6294_60647)"/>
<path d="M52.9531 112.787C52.2844 111.894 51.913 110.927 51.6158 109.662C49.4611 111.448 47.9009 112.489 45.9691 113.382C45.8948 114.87 46.2663 115.614 46.935 116.581C48.3467 115.912 50.5756 114.572 52.9531 112.787Z" fill="url(#paint5_linear_6294_60647)"/>
<path d="M118.32 327.721C117.652 326.829 117.28 325.861 116.983 324.597C114.828 326.382 113.268 327.424 111.336 328.317C111.262 329.805 111.634 330.549 112.302 331.516C113.714 330.846 115.943 329.507 118.32 327.721Z" fill="url(#paint6_linear_6294_60647)"/>
<path d="M2.22439 322.839C0.961331 324.178 0.441247 324.996 0.366949 326.931C2.96737 328.493 4.37902 329.609 6.53365 331.618C6.97944 330.651 7.42523 329.981 7.94531 329.609C5.41919 327.303 4.15613 325.592 2.22439 322.839Z" fill="url(#paint7_linear_6294_60647)"/>
<path d="M62.0986 193.919C61.2813 196.077 60.2412 197.044 58.3837 198.234C61.5785 200.168 64.9962 201.731 66.7051 201.954C67.6709 200.466 68.191 198.978 68.5625 196.821C66.6308 196.597 64.9219 195.63 62.0986 193.919Z" fill="url(#paint8_linear_6294_60647)"/>
<path d="M16.941 197.29C18.3527 198.48 19.5414 198.852 21.5475 198.406C22.4391 196.695 22.8848 195.281 22.6619 193.793C20.7302 192.975 19.7643 191.859 18.2041 189.775C18.1298 192.751 17.9812 194.537 16.941 197.29Z" fill="url(#paint9_linear_6294_60647)"/>
<path d="M103.964 124.083C105.376 125.273 106.565 125.645 108.571 125.199C109.462 123.487 109.908 122.074 109.685 120.586C107.754 119.768 106.788 118.652 105.228 116.568C105.153 119.544 105.005 121.33 103.964 124.083Z" fill="url(#paint10_linear_6294_60647)"/>
</g>
<defs>
<linearGradient id="paint0_linear_6294_60647" x1="70.6148" y1="330.034" x2="76.3163" y2="325.036" gradientUnits="userSpaceOnUse">
<stop stop-color="#400300"/>
<stop offset="0.0709114" stop-color="#750300"/>
<stop offset="0.1439" stop-color="#A50300"/>
<stop offset="0.2084" stop-color="#C80300"/>
<stop offset="0.2612" stop-color="#DD0300"/>
<stop offset="0.2957" stop-color="#E50300"/>
<stop offset="0.3376" stop-color="#EE190C"/>
<stop offset="0.3927" stop-color="#F82E18"/>
<stop offset="0.4459" stop-color="#FD3C20"/>
<stop offset="0.4946" stop-color="#FF4022"/>
<stop offset="0.5442" stop-color="#FD3B1F"/>
<stop offset="0.5995" stop-color="#F72E18"/>
<stop offset="0.6574" stop-color="#EE180C"/>
<stop offset="0.6989" stop-color="#E50300"/>
<stop offset="0.7336" stop-color="#DB0300"/>
<stop offset="0.7914" stop-color="#C20300"/>
<stop offset="0.8653" stop-color="#980300"/>
<stop offset="0.9515" stop-color="#5E0300"/>
<stop offset="1" stop-color="#3B0300"/>
</linearGradient>
<linearGradient id="paint1_linear_6294_60647" x1="74.5758" y1="33.3284" x2="80.2773" y2="28.3304" gradientUnits="userSpaceOnUse">
<stop stop-color="#400300"/>
<stop offset="0.0709114" stop-color="#750300"/>
<stop offset="0.1439" stop-color="#A50300"/>
<stop offset="0.2084" stop-color="#C80300"/>
<stop offset="0.2612" stop-color="#DD0300"/>
<stop offset="0.2957" stop-color="#E50300"/>
<stop offset="0.3376" stop-color="#EE190C"/>
<stop offset="0.3927" stop-color="#F82E18"/>
<stop offset="0.4459" stop-color="#FD3C20"/>
<stop offset="0.4946" stop-color="#FF4022"/>
<stop offset="0.5442" stop-color="#FD3B1F"/>
<stop offset="0.5995" stop-color="#F72E18"/>
<stop offset="0.6574" stop-color="#EE180C"/>
<stop offset="0.6989" stop-color="#E50300"/>
<stop offset="0.7336" stop-color="#DB0300"/>
<stop offset="0.7914" stop-color="#C20300"/>
<stop offset="0.8653" stop-color="#980300"/>
<stop offset="0.9515" stop-color="#5E0300"/>
<stop offset="1" stop-color="#3B0300"/>
</linearGradient>
<linearGradient id="paint2_linear_6294_60647" x1="40.1155" y1="57.9601" x2="34.1391" y2="59.8485" gradientUnits="userSpaceOnUse">
<stop stop-color="#AB3C00"/>
<stop offset="0.3441" stop-color="#FFC700"/>
<stop offset="0.3696" stop-color="#FFCD17"/>
<stop offset="0.4069" stop-color="#FFD533"/>
<stop offset="0.4445" stop-color="#FFDA46"/>
<stop offset="0.4826" stop-color="#FFDD52"/>
<stop offset="0.5215" stop-color="#FFDE56"/>
<stop offset="0.5509" stop-color="#FFDD51"/>
<stop offset="0.5855" stop-color="#FFD943"/>
<stop offset="0.6225" stop-color="#FFD32B"/>
<stop offset="0.6612" stop-color="#FFCA0B"/>
<stop offset="0.672" stop-color="#FFC700"/>
<stop offset="1" stop-color="#AB3C00"/>
</linearGradient>
<linearGradient id="paint3_linear_6294_60647" x1="28.1155" y1="249.32" x2="22.1391" y2="251.209" gradientUnits="userSpaceOnUse">
<stop stop-color="#AB3C00"/>
<stop offset="0.3441" stop-color="#FFC700"/>
<stop offset="0.3696" stop-color="#FFCD17"/>
<stop offset="0.4069" stop-color="#FFD533"/>
<stop offset="0.4445" stop-color="#FFDA46"/>
<stop offset="0.4826" stop-color="#FFDD52"/>
<stop offset="0.5215" stop-color="#FFDE56"/>
<stop offset="0.5509" stop-color="#FFDD51"/>
<stop offset="0.5855" stop-color="#FFD943"/>
<stop offset="0.6225" stop-color="#FFD32B"/>
<stop offset="0.6612" stop-color="#FFCA0B"/>
<stop offset="0.672" stop-color="#FFC700"/>
<stop offset="1" stop-color="#AB3C00"/>
</linearGradient>
<linearGradient id="paint4_linear_6294_60647" x1="16.2032" y1="32.5845" x2="15.6667" y2="27.8966" gradientUnits="userSpaceOnUse">
<stop stop-color="#400300"/>
<stop offset="0.0709114" stop-color="#750300"/>
<stop offset="0.1439" stop-color="#A50300"/>
<stop offset="0.2084" stop-color="#C80300"/>
<stop offset="0.2612" stop-color="#DD0300"/>
<stop offset="0.2957" stop-color="#E50300"/>
<stop offset="0.3376" stop-color="#EE190C"/>
<stop offset="0.3927" stop-color="#F82E18"/>
<stop offset="0.4459" stop-color="#FD3C20"/>
<stop offset="0.4946" stop-color="#FF4022"/>
<stop offset="0.5442" stop-color="#FD3B1F"/>
<stop offset="0.5995" stop-color="#F72E18"/>
<stop offset="0.6574" stop-color="#EE180C"/>
<stop offset="0.6989" stop-color="#E50300"/>
<stop offset="0.7336" stop-color="#DB0300"/>
<stop offset="0.7914" stop-color="#C20300"/>
<stop offset="0.8653" stop-color="#980300"/>
<stop offset="0.9515" stop-color="#5E0300"/>
<stop offset="1" stop-color="#3B0300"/>
</linearGradient>
<linearGradient id="paint5_linear_6294_60647" x1="47.7114" y1="110.5" x2="50.5067" y2="115.185" gradientUnits="userSpaceOnUse">
<stop stop-color="#0038AB"/>
<stop offset="0.1131" stop-color="#0062C9"/>
<stop offset="0.272" stop-color="#0097F0"/>
<stop offset="0.3495" stop-color="#00ACFF"/>
<stop offset="0.4014" stop-color="#00BFFF"/>
<stop offset="0.469" stop-color="#00D2FF"/>
<stop offset="0.5161" stop-color="#00D9FF"/>
<stop offset="0.6633" stop-color="#00B8FF"/>
<stop offset="0.7097" stop-color="#00ACFF"/>
<stop offset="0.755" stop-color="#00A2F8"/>
<stop offset="0.833" stop-color="#0086E3"/>
<stop offset="0.9337" stop-color="#0059C3"/>
<stop offset="1" stop-color="#0038AB"/>
</linearGradient>
<linearGradient id="paint6_linear_6294_60647" x1="113.079" y1="325.434" x2="115.874" y2="330.12" gradientUnits="userSpaceOnUse">
<stop stop-color="#0038AB"/>
<stop offset="0.1131" stop-color="#0062C9"/>
<stop offset="0.272" stop-color="#0097F0"/>
<stop offset="0.3495" stop-color="#00ACFF"/>
<stop offset="0.4014" stop-color="#00BFFF"/>
<stop offset="0.469" stop-color="#00D2FF"/>
<stop offset="0.5161" stop-color="#00D9FF"/>
<stop offset="0.6633" stop-color="#00B8FF"/>
<stop offset="0.7097" stop-color="#00ACFF"/>
<stop offset="0.755" stop-color="#00A2F8"/>
<stop offset="0.833" stop-color="#0086E3"/>
<stop offset="0.9337" stop-color="#0059C3"/>
<stop offset="1" stop-color="#0038AB"/>
</linearGradient>
<linearGradient id="paint7_linear_6294_60647" x1="2.91257" y1="329.247" x2="5.72452" y2="325.151" gradientUnits="userSpaceOnUse">
<stop stop-color="#AB3C00"/>
<stop offset="0.3441" stop-color="#FFC700"/>
<stop offset="0.3696" stop-color="#FFCD17"/>
<stop offset="0.4069" stop-color="#FFD533"/>
<stop offset="0.4445" stop-color="#FFDA46"/>
<stop offset="0.4826" stop-color="#FFDD52"/>
<stop offset="0.5215" stop-color="#FFDE56"/>
<stop offset="0.5509" stop-color="#FFDD51"/>
<stop offset="0.5855" stop-color="#FFD943"/>
<stop offset="0.6225" stop-color="#FFD32B"/>
<stop offset="0.6612" stop-color="#FFCA0B"/>
<stop offset="0.672" stop-color="#FFC700"/>
<stop offset="1" stop-color="#AB3C00"/>
</linearGradient>
<linearGradient id="paint8_linear_6294_60647" x1="65.28" y1="194.708" x2="61.7838" y2="201.688" gradientUnits="userSpaceOnUse">
<stop stop-color="#AB3C00"/>
<stop offset="0.3441" stop-color="#FFC700"/>
<stop offset="0.3696" stop-color="#FFCD17"/>
<stop offset="0.4069" stop-color="#FFD533"/>
<stop offset="0.4445" stop-color="#FFDA46"/>
<stop offset="0.4826" stop-color="#FFDD52"/>
<stop offset="0.5215" stop-color="#FFDE56"/>
<stop offset="0.5509" stop-color="#FFDD51"/>
<stop offset="0.5855" stop-color="#FFD943"/>
<stop offset="0.6225" stop-color="#FFD32B"/>
<stop offset="0.6612" stop-color="#FFCA0B"/>
<stop offset="0.672" stop-color="#FFC700"/>
<stop offset="1" stop-color="#AB3C00"/>
</linearGradient>
<linearGradient id="paint9_linear_6294_60647" x1="17.1178" y1="193.805" x2="23.7731" y2="195.372" gradientUnits="userSpaceOnUse">
<stop stop-color="#005200"/>
<stop offset="0.1859" stop-color="#00890B"/>
<stop offset="0.3118" stop-color="#00A912"/>
<stop offset="0.3267" stop-color="#11AD12"/>
<stop offset="0.3667" stop-color="#3AB512"/>
<stop offset="0.406" stop-color="#5ABC12"/>
<stop offset="0.4438" stop-color="#71C112"/>
<stop offset="0.4795" stop-color="#7EC412"/>
<stop offset="0.5108" stop-color="#83C512"/>
<stop offset="0.55" stop-color="#7FC412"/>
<stop offset="0.5906" stop-color="#72C112"/>
<stop offset="0.632" stop-color="#5EBD12"/>
<stop offset="0.6737" stop-color="#41B712"/>
<stop offset="0.7154" stop-color="#1CAF12"/>
<stop offset="0.7419" stop-color="#00A912"/>
<stop offset="0.783" stop-color="#009E10"/>
<stop offset="0.8555" stop-color="#00800C"/>
<stop offset="0.9504" stop-color="#005004"/>
<stop offset="1" stop-color="#003400"/>
</linearGradient>
<linearGradient id="paint10_linear_6294_60647" x1="104.141" y1="120.598" x2="110.796" y2="122.165" gradientUnits="userSpaceOnUse">
<stop stop-color="#005200"/>
<stop offset="0.1859" stop-color="#00890B"/>
<stop offset="0.3118" stop-color="#00A912"/>
<stop offset="0.3267" stop-color="#11AD12"/>
<stop offset="0.3667" stop-color="#3AB512"/>
<stop offset="0.406" stop-color="#5ABC12"/>
<stop offset="0.4438" stop-color="#71C112"/>
<stop offset="0.4795" stop-color="#7EC412"/>
<stop offset="0.5108" stop-color="#83C512"/>
<stop offset="0.55" stop-color="#7FC412"/>
<stop offset="0.5906" stop-color="#72C112"/>
<stop offset="0.632" stop-color="#5EBD12"/>
<stop offset="0.6737" stop-color="#41B712"/>
<stop offset="0.7154" stop-color="#1CAF12"/>
<stop offset="0.7419" stop-color="#00A912"/>
<stop offset="0.783" stop-color="#009E10"/>
<stop offset="0.8555" stop-color="#00800C"/>
<stop offset="0.9504" stop-color="#005004"/>
<stop offset="1" stop-color="#003400"/>
</linearGradient>
<clipPath id="clip0_6294_60647">
<rect width="360" height="127" fill="white" transform="translate(127) rotate(90)"/>
</clipPath>
</defs>
</svg>
