<?xml version="1.0" encoding="utf-8"?>
<!-- Generator: Adobe Illustrator 25.0.0, SVG Export Plug-In . SVG Version: 6.00 Build 0)  -->
<svg version="1.1" id="Layer_1" xmlns="http://www.w3.org/2000/svg" xmlns:xlink="http://www.w3.org/1999/xlink" x="0px" y="0px"
	 viewBox="0 0 400 400" style="enable-background:new 0 0 400 400;" xml:space="preserve">
<style type="text/css">
	.st0{opacity:0.1;}
	.st1{fill:#895003;}
</style>
<g class="st0">
	<path class="st1" d="M171,369.9c4.4,12.2,16.5,18.4,29.1,21.3c12.5,2.8,26,2.8,37.4-2.7c1.7-0.8,3.4-2.3,4.7-3.9
		c0.1,0.1,0.2,0.2,0.3,0.3c0.9,0.7,2.1,1,3.6,0.7c0.5-0.1,1.1-0.3,1.5-0.5c-0.4,2.3-1.4,4.6-3,6.4l-3.8,4.4l5.1-3.1
		c5.6-3.4,10.1-8.5,12.5-14.1c0.4,2.8-0.1,5.7-1.8,8l-3.7,5.3l5.2-4.2c3.4-2.6,4.6-6.7,5.3-10.3l0.2-1.2c0.7-3.1,1.3-6.3,3.2-8.9
		c1.2-1.5,2.6-2.7,4.3-4c1.2-0.9,2.4-1.9,3.4-3c2.5-2.6,4.1-5.8,4.5-9.1c0.7,3.1,0.2,6.7-1.5,9.9l-3.3,6.2l5-5.2
		c3.3-3.4,5-8.2,4.9-13.7c1.7-0.8,3.4-1.6,5.2-2.3c-0.7,0.1-1.5,0.1-2.1,0.2c0.4-0.5,0.9-1,1.2-1.6c-0.7,0.1-1.4,0.1-2,0.3
		c0.4-2,2.4-3.5,4.6-3.6c-0.5-0.1-1-0.2-1.6-0.3c1.2-1.1,2.8-1.7,4.6-1.7c-0.7-0.4-1.4-0.7-2.1-1.1c0.9-0.8,2.4-0.8,3.4-0.1
		c1.3-0.5,3.4-0.4,4.7,0.2c1.7,0.8,2.8,2,4.4,2.8c2.1,0.9,4.7,2.8,6.7,1.7c-1,0.2-2.1-0.3-2.9-0.9c-0.8-0.7-2.4-1.2-3.1-1.9
		c-0.9-0.9-1-1.7-2.2-2.3c-1.4-0.7-2.9-0.7-4.2-1.5c-0.9-0.5-1.8-1.7-2.3-2.6c-0.4-0.9,1.2-1.6,2.3-2c-0.5-0.1-2-0.3-2.6-0.4
		c1.9-1.3,3.3-2.3,5.8-3.1c-0.5,0.1-1.3-0.6-1.8-0.4c0.7-0.7,0.8-2.4,1.5-3.1c-0.9,0.1-2,1.2-2.9,1.2c0.4-3,2.3-5.9,4.2-8.3
		c-0.7,0.3-1.5,0.6-2.2,0.9c-0.1-1.7,0.6-3.3,1.7-4.5c-0.6,0.2-1.1,0.4-1.7,0.7c0-1.5,1.3-2.7,2.8-3.2c0.4-0.1,0.7-0.1,1-0.1
		c5.5-0.4,13.7-0.7,16,1.5c-0.8-1.3-2.6-1.7-4.2-1.9c-1.9-0.3-3.9-0.1-5.8-0.8c-2.1-0.9-4.5-0.7-6.2-2c0.4-0.5,0.9-1,1.3-1.5
		c-0.4,0-0.9,0.1-1.4,0.1c1.2-1.3,2.6-2.6,3.8-3.9c-0.8,0.4-1.6,0.7-2.4,1c-0.1-1.4,1.2-2.4,2.4-3.2c1.2-0.8,2.7-1.5,3.2-2.8
		c-0.5,0.1-1.1,0.2-1.6,0.3c1-1,2-2,3.1-3.1c-0.9,0.3-1.9,0.5-2.8,0.8c2.1-4.6,5.3-6.5,6.9-10.4c-0.6,0.4-1.2,0.8-1.8,1.2
		c0.1-0.9,0.1-1.9,0.2-2.9c-0.6,0.7-1.2,1.5-1.8,2.3c0-1.2,0-2.3,0-3.4c-0.4,0.2-0.9,0.4-1.4,0.7c1.1-3.1,3.4-5.8,6.3-7.6
		c-0.7,0.1-1.3,0.2-2,0.4c0.5-1,1.2-2,2.5-2.3c0.9-0.2,1.8-0.2,2.8-0.3c1.2-0.1,2.3-0.1,3.6,0c1.7,0.1,3.6,0.3,5.2,1
		c1.9,0.9,3.7,1.7,5.5,1.5c-2.3,0.1-4-1.7-5.9-2.9c-0.9-0.6-2-1-3.1-1.3c-0.8-0.2-1.7-0.3-2.5-0.2c-0.9,0.1-1.8,0.4-2.7,0.5
		c-0.9,0.1-2-0.1-2.6-0.7c-0.6-0.7-0.3-1.8,0.7-2c-0.6-0.1-0.9-0.2-1.5,0.1c0.1-1.7,1-3.4,2.3-4.7c-0.6,0.3-1.2,0.6-1.7,0.9
		c-0.4-2.7,0.7-5.5,2.7-7.6c-0.5,0.1-1,0.3-1.5,0.4c0.5-1.5,1.8-2.6,2.9-3.8s2.1-2.6,1.7-4.2c-0.5,0.9-1.1,1.4-1.7,1.5
		c0-0.7,0-1.2,0-1.9c-1.1,1.6-2,1.4-3,2c1.1-2.3,2.2-4.7,3.3-7c-0.5,0.2-0.9,0.4-1.5,0.7c0.5-2.5,1-4.9,1.5-7.4
		c-0.4,0.4-0.7,0.7-1.1,1.1c0.3-5.5,1.8-5.8,1.7-8.8c-0.3,0.1-0.5,0.2-0.8,0.4c1.5-4.7,1.6-9.8,0.4-14.6c0.1,6.9-1.1,13.8-3.5,20.4
		c-0.1-0.4-0.1-0.7-0.1-1.1c-2.7,5-1.3,8.4-4.2,16c-0.3-0.4-0.5-0.7-0.8-1c-0.1,0.7-0.2,1.5-0.4,2.2c-2.2,0-4.2-1.2-6.5-1.5
		c4,1.2,5.5,2.6,5.3,5.1c-0.4-0.1-0.7-0.4-1-0.5c-0.2,1.7-0.4,3.4-0.6,5c-0.3-0.4-0.5-0.8-0.8-1.2c0.4,2.5-0.1,5.2-1.4,7.4
		c-0.2-0.2-0.4-0.4-0.7-0.7l-0.3,0.8c-0.1,0.4-0.6,0.8-1,0.9c-1.2,0.4-2.4,0.2-3.8-0.1c-1.7-0.5-4.7-1.2-6.4-1.5
		c-2.1-0.4-3.9-1.1-6.1-1.9c2.4,1.2,4.7,2,7.4,2.7c2.5,0.7,4.5,2.4,5.8,4.4c1.3,2,1.5,4.7-0.2,6.5c-0.3-0.5-0.5-0.9-0.8-1.5
		c-0.4,1.3-0.8,2.6-1.2,4c-0.3,0.9-0.2,1.7-0.5,2.6c-0.2-0.3-0.4-0.6-0.7-0.9c0.4,1.1,0.3,2.4-0.7,3.1c-0.9,0.7-3.4,0.1-3.4-1
		c-0.3,1.1,0.4,2.1,0.6,2.8c-1.6-0.1-3.1-0.1-4.7-0.2c2.6,0.4,4.7,2.3,5.6,4.4c-0.5-0.1-0.9-0.5-1.4-0.5c-0.1,0.9-0.4,2.1-0.4,3
		c-0.3-0.4-1-0.7-1.3-1.1c-0.6,1.5,0.1,3.1-1.3,4.6c-0.3-0.4-0.7-0.7-0.9-1c-0.1,3.3-1.1,6.6-2.8,9.5c-0.2-0.3-0.5-0.6-0.7-0.9
		c-0.3,0.5-0.6,1.1-0.9,1.6c-3.5-0.3-7.1-0.8-10.3-2c1.7,1.1,3.8,1.5,5.7,2.2c0.9,0.4,1.8,0.7,2.5,1.4s0.9,1.7,0.4,2.5
		c-0.4-0.2-0.7-0.4-1.1-0.7c-0.2,0.9-0.4,1.9-0.7,2.9c-0.4-0.4-0.9-0.7-1.3-1c-0.5,1.9-1,3.9-1.6,5.8c-0.2-0.3-0.4-0.6-0.6-0.9
		c-0.2,0.8-0.5,1.5-0.7,2.3c-1.7-1.4-4.5-1.7-6.6-0.7c1.3,0.5,2.6,1.1,3.9,1.6c-0.7,0-1.5,0-2.2,0c0.9,0.7,1.3,1.9,0.9,2.9
		c-2.1-0.1-4.2-0.4-6.3-0.5c1.3,0.7,2.8,0.8,4.2,1.5c1.3,0.7,2.3,2.2,1.5,3.3c-0.4-0.2-0.9-0.4-1.3-0.7c-0.2,0.7-0.4,1.4-0.6,2
		c-0.7-0.7-1.5-1.3-2.3-2c0.1,1-0.3,2.1-1.1,2.8c-0.2-0.3-0.4-0.7-0.7-0.9c-1.2,1.5-2.3,3-3.4,4.5c-0.6,0.4-1.2,0.9-1.7,1.3
		c-2,1.7-4.4,3.3-6.9,4.9c-3.6,2.3-7.2,4.6-10,7.7l-3,3.2l4.2-1.8c1-0.4,2.6-0.9,4.2-1.2c0.1,0,0.2-0.1,0.4-0.1
		c-5,4.3-10.9,7.9-17.1,10.6l-2.5,1.1l2.6,0.7c1.7,0.4,3.6,0.5,5.5,0.2c-1.8,1.1-4.2,1.7-6.6,2.5c-4,1.2-8.2,2.4-10.3,5.8l-2.2,3.6
		l3.7-2.4c0.2-0.1,0.4-0.3,0.7-0.4c-1.9,1.3-3.4,3.2-4.2,5.2l-0.5,1.2c-2.6,1.4-5.2,2.8-8.1,3.7c-7.5,2.5-15.7,1.4-23.7,0.2
		c-3.9-0.6-7.9-1.2-11.7-2.5C176.5,375.2,173,373,171,369.9z M234.7,374.9c0.4,0.1,0.9,0.4,1.3,0.6c-0.1,0.1-0.2,0.2-0.4,0.4
		c-0.4,0.3-0.7,0.6-1.1,0.9c-0.4,0.3-0.8,0.7-1.2,0.9c-0.4,0.3-0.9,0.6-1.3,0.9c-0.4,0.3-0.9,0.6-1.4,0.8c-0.4,0.3-0.9,0.5-1.4,0.7
		s-0.9,0.5-1.3,0.7c-0.4,0.2-0.8,0.4-1.2,0.5c-0.7,0.4-1.4,0.5-1.8,0.7c-0.4,0.1-0.7,0.3-0.7,0.3s0.2-0.1,0.7-0.3
		c0.4-0.2,1-0.4,1.7-0.9c0.4-0.2,0.7-0.4,1.1-0.7c0.4-0.2,0.8-0.5,1.2-0.8c0.4-0.3,0.9-0.5,1.2-0.9c0.4-0.3,0.8-0.7,1.2-0.9
		c0.4-0.4,0.8-0.7,1.2-1c0.4-0.3,0.7-0.7,1.1-1s0.7-0.7,0.9-0.9C234.6,375,234.7,375,234.7,374.9z M241.6,378
		c-2.8-4.4-9-6.6-14.5-5.5c1.2-1.8,3.3-3.3,5.5-4l2.5-0.8l-2.5-0.9c-0.8-0.3-1.6-0.4-2.4-0.4c1.9-1.2,4.3-2,6.9-2.7
		c4-1.2,8.2-2.4,10.3-5.7l1.7-2.6l-3.1,1.4c-1.5,0.7-3.1,1-4.8,1.1c6.6-3.2,12.6-7.4,17.6-12.4l3.6-3.5l-4.7,2
		c-1,0.4-2.6,0.9-4.2,1.2c-0.1,0-0.3,0.1-0.4,0.1c2.1-1.7,4.4-3.2,6.8-4.7c2.5-1.6,5-3.2,7.1-5c1.8-1.5,3.5-2.8,5.5-3.1
		c2-0.3,4.3,0.7,5.9,2.4c1.6,1.7,2.3,4,2.9,6c1.4,5,1.5,9.7,0.3,13.6c0.1-3.2-0.8-6.2-2.6-8.4l-2.5-3l0.7,3.6c0.8,4.4-0.7,9-4,12.4
		c-0.9,1-2.1,1.9-3.3,2.8c-1.6,1.3-3.4,2.6-4.6,4.3c-2.2,2.8-2.8,6.3-3.6,9.6l-0.2,1.2c-0.2,1.1-0.5,2.2-0.9,3.3
		c0-1.8-0.4-3.6-1.2-5.2l-1.1-2.4l-0.8,2.5c-1.5,5-4.7,9.6-8.9,13.1c0.7-1.8,1.1-3.7,1-5.7l-0.1-3.9l-1.8,3.6
		c-0.3,0.6-1.2,1.1-2.1,1.2c-0.7,0.1-1.4,0-1.7-0.3c-0.7-0.6-1-1.7-1.4-2.9C242.3,379.7,242,378.7,241.6,378z M210.7,389.5
		c0,0,0.6,0,1.5,0s2.3-0.1,3.9-0.1c0.8-0.1,1.7-0.1,2.6-0.2c0.9-0.1,1.9-0.2,2.9-0.4c1-0.1,2-0.4,3.1-0.6s2-0.5,3.1-0.8
		c0.9-0.4,2-0.7,2.9-1.1c0.9-0.4,1.8-0.9,2.7-1.3c0.4-0.2,0.8-0.5,1.2-0.7s0.7-0.5,1.1-0.8c0.4-0.3,0.7-0.5,0.9-0.8
		c0.3-0.2,0.6-0.5,0.9-0.8c0.3-0.3,0.5-0.5,0.7-0.7s0.4-0.5,0.6-0.7c0.1-0.2,0.4-0.4,0.5-0.6c0.1-0.2,0.3-0.4,0.4-0.6
		c0-0.1,0.1-0.1,0.1-0.1c0.3,0.5,0.5,1.2,0.7,2c0.1,0.2,0.1,0.4,0.2,0.7l0,0c-0.2,0.2-0.5,0.5-0.7,0.8c-0.3,0.2-0.6,0.5-0.9,0.8
		c-0.3,0.3-0.7,0.6-1,0.8c-0.4,0.2-0.7,0.5-1.2,0.8c-0.4,0.3-0.8,0.5-1.2,0.7c-0.4,0.2-0.9,0.5-1.3,0.7c-0.9,0.4-1.9,0.9-3,1.2
		c-1,0.4-2.1,0.7-3.2,0.9c-1.1,0.2-2.1,0.4-3.2,0.6c-1.1,0.2-2.1,0.3-3.2,0.4c-1,0.1-2,0.1-3,0.1s-1.8,0.1-2.6,0
		c-1.7,0-3-0.1-3.9-0.1C211.3,389.6,210.7,389.5,210.7,389.5z"/>
	<path class="st1" d="M147.4,240.6c-0.1-1.5,0.4-3.1,1.3-4.5c-1.2,6,0.9,12.5,5.7,16.8l0.4,0.4c0,3.9,0.2,7.9,0.1,12
		c-0.3,11.8-3.6,23.5-9.8,34c9-8.6,17.5-17.7,24.1-28c3.9-6.2,7.2-12.8,9.4-19.6l0.7-0.4c4.6-2.3,6.6-7.1,7.9-12
		c0.3-0.9,0.5-1.7,0.7-2.7c0.7-2.8,1.5-5.7,3.1-7.8c-0.1,1.4-0.3,3.1-0.4,4.2l-0.4,3.2l2.2-2.6c4.1-4.9,5.5-11.9,4.1-18.1
		c0.4-0.6,0.7-1.2,0.9-1.9l1.7,2.3l-0.7-4.1c-0.1-0.4-0.1-0.8-0.2-1.2c0.6-1.2,1.5-2.4,2.8-3.1c-0.7,0.2-1.5,0.4-2.2,0.7
		c0.3-0.7,0.7-1.4,0.9-2c-0.5,0.4-1,0.7-1.5,1c-1.2-1.4-0.7-3.5,0.7-4.7c1.4-1.2,3.4-1.7,5.3-2c1.9-0.3,3.9-0.4,5.7-1
		c-3.8-0.4-7.7-0.7-11.4-1c1.1-1,2.2-2.1,3.3-3.1c-0.9,0.1-1.8,0.2-2.8,0.4c1.4-1.7,2.8-3.5,4.2-5.2c-0.8,0.2-1.7,0.4-2.5,0.6
		c1.2-2.3,3.5-4.3,6.1-5.5c-1.7,0.4-3.4,0.7-5,1.1c1.4-3.4,3.9-6.3,7.1-8.5c-1.7,0.7-3.4,1.4-5.1,2c1.4-2.8,2.7-5.8,4.1-8.6
		c-0.9,0.5-1.8,1-2.7,1.5c-0.7-1.5,0.4-3.4,1.9-4.3s3.4-1.3,5.2-1.6c3.7-0.6,9.7,1.2,13.4,0.7c-5.5-0.4-13.1-2.6-18.6-1.8
		c1.6-1.9,4.4-3.4,7.5-4.2c-2,0.1-5,0.2-6.9,0.4c0.4-1.7,1.4-3,2.8-3.7c-1.5-0.1-2.7,1-4.2,0.9c-1.1-1.2-0.9-4.2,0.2-5.2
		c1.1-1.2,2.6-1.8,3.9-2.7c1.3-0.9,2.6-2.2,2.5-3.6c-0.5,0.9-2.3,2.6-2.9,2.5c0.2-1.2,1.5-3.8,1.7-5c-0.7,0.4-1.3,0.7-2,1.1
		c1.1-2.7,2.2-5.5,3.4-8.2c-0.9,0.6-1.7,1.2-2.6,1.7c-1.2-1.5,0.4-4,2.3-5c1.8-0.9,4-0.9,6.1-0.8c2.1,0.1,4.2,0.3,6.2-0.4
		c-7,0.1-8.6-1.2-12.7-2.3c0.3-0.4,1-1.5,1.3-1.8c-0.6,0.1-1.2,0.1-1.7,0.1c0.4-2.3,2.6-4.4,5.2-4.6c-1.6,0.1-3.2,0.2-4.8,0.4
		c0-2.1,1.7-4.2,3.7-5.2c2-1,4.4-1.2,6.7-1.5c-4.1-0.6-8.4,0.5-11.4,3c0.8-1.5,1.7-2.9,2.5-4.4c-0.8,0.1-1.5,0.1-2.3,0.2
		c0.1-1.8,1-3.6,2.5-4.9c-0.9,0.2-1.7,0.4-2.6,0.7c-0.6-3.6,0.1-7.4,2-10.6c-0.7,0.3-1.5,0.6-2.2,0.9c-1.2-1.3-0.7-3.5,0.7-4.7
		c1.5-1.2,3.5-1.5,5.4-1.5c1.9,0.1,3.8,0.4,5.8,0.5c2.1,0.1,2.6-0.1,4.7-0.4c2-0.2,3.4-1.5,7.5-0.8c-1.5-1.1-3.6-1.1-5.4-0.8
		c-1.8,0.4-3.6,1-5.5,1.1c-2.3,0.1-4.4-0.7-6.6-1.1c-2.2-0.4-4.7-0.6-6.6,0.6c0.1-1.5,1.1-3,2.5-3.9c-1.3,0.4-2.6,0.9-4,1.2
		c0,0.1,0.1-0.2,0.1-0.1c0.2-3,1.5-5.8,3.8-7.9c-0.9,0.5-2,1-2.9,1.6c0.7-1.7,1.4-3.4,2-5.1c-0.8,0.4-1.6,0.9-2.4,1.3
		c0.7-4.5,3.6-7.4,5-12.8c-0.9,0.8-2,1.5-2.9,2.3c-0.2-2.3-0.4-4.7-0.7-6.9c-0.7,1.2-1.5,2.3-2.1,3.6c1-4.2,1.4-8.5,1.2-12.8
		c-0.7,2-1.2,4.2-1.9,6.2c-0.4-6.4-0.7-12.8-1.1-19.2c-0.4,0.8-0.7,1.6-1.2,2.5c-1.8-9.6-5.2-19-10.1-27.8c0.4,4,2.4,7.7,3.8,11.5
		c2.6,6.9,3.4,14.1,2.3,21.3c-0.3-0.7-0.6-1.5-0.9-2.3c0.4,4.1,0.9,8.2,1.3,12.2c-0.8-0.8-1.5-1.6-2.3-2.3
		c2.4,5.5,3.4,11.6,2.8,17.6c-0.9-0.8-1.7-1.7-2.7-2.5c0.4,1.9,0.7,3.9,1,5.8c-0.9-0.7-1.9-1.3-2.8-2c0.8,3.6,1.6,7.4,2.4,11
		c-1.4-0.4-2.8-0.9-4.2-1.4c3.6,3.4,3.7,10.2,2.8,15.4c-0.5-0.4-0.9-0.7-1.5-1c0,0.5,0,1,0,1.5c-4.4,0.1-9,1.2-13.4,1.3
		c-2.8,0.1-5.4-1-8.3-0.9c3.7,1.5,7.9,2.1,12,1.5c1.9-0.3,3.7-0.7,5.6-0.7c1.9,0.1,3.9,0.9,4.7,2.4c-1,0.1-1.7,0.3-2.7,0.4
		c1,1.1,2,2.2,3,3.2c-1.1-1-2.8-1.5-4.3-1.3c1.4,2,2,4.4,1.6,6.9c-0.9-1.2-2.3-2.2-3.9-2.5c1.4,1.2,2.2,2.5,2.3,3.8
		c-2.4-2-5.9-3.1-9.2-2.7c6,1.1,9.7,6.6,8.7,12.9c-0.7-0.4-1.3-0.9-1.9-1.3c0.4,1.7,0.9,3.5,1.4,5.2c-1.6-0.3-3.1-0.6-4.7-0.9
		c1.5,1.1,2.6,2.7,2.8,4.4c-3.4-0.4-6.7,0.9-9.9,2c-3.2,1.1-6.8,2-10,0.9c1.7,1.5,4.4,1.5,6.8,0.8c2.3-0.7,4.4-1.7,6.8-2
		c2.3-0.4,5.2,0.4,6,2.4c-0.9,0.1-1.7,0.1-2.6,0.2c0.6,1.3,1.2,2.7,1.8,4c-1.2-0.3-2.5-0.6-3.6-0.9c1.5,2,1.5,4,1.1,6
		c-0.8-1-1.6-2-2.4-3.1c1.2,2.6,1.7,5,1.7,7.5c-1.4-0.3-2.3-1.2-2.9-2.6c0.4,1.6,0.7,3.2,1.1,4.8c-0.5-0.3-1.1-0.5-1.6-0.8
		c1.5,2,2.3,4.4,2.4,6.8c-0.6-0.6-1.2-1.2-1.8-1.8c-0.1,1.2-0.2,2.5-0.4,3.7c-1-0.6-2-1.2-3-1.8c0.5,0.7,0.9,1.5,0.9,2.8
		c-5.3,0.4-10.6,2.5-14.3,2.6c1.7,0.7,3.6,0.3,5.3-0.1c1.7-0.4,3.5-1.1,5.3-0.9c1.8,0.1,3.6,1.3,3.7,2.9c-0.5-0.1-0.9-0.4-1.4-0.6
		c0.3,1.5,0.6,2.8,0.9,4.3c-0.9-0.7-1.9-1.3-2.8-2c1.2,1.8,1.7,4,1.4,6.1c-1.5-0.1-2.8-1.4-4.2-2c0.7,1.7,1.5,3.6,2.2,5.3
		c-0.5-0.4-1-0.9-1.6-1.3c0.4,1.2,0.7,2.3,1.2,3.6c-0.8-0.7-1.6-1.3-2.4-2c0.3,1.2,0.6,2.5,0.9,3.7c-2.4-1.8-6.4,0-9.5-0.8
		c-2.1-0.5-4.1-2.4-5.8-3.6c-1.7-1.2-3.4-2.2-5.3-1.3c2-0.2,3.8,1.2,5.1,2.6c1.3,1.4,2.5,3.1,4.3,3.8c1.8,0.7,4,0.4,6,0.5
		c2,0.1,4.3,1.4,4.2,3.1c-0.6-0.4-1.2-0.7-1.7-1.1c0.4,1.2,0.7,2.3,1.1,3.6c-1.2-0.9-2.8-1.3-4.3-1.1c1.4,1.1,2,2.9,1.5,4.6
		c-0.6-0.5-1.2-0.9-1.8-1.5c0.2,0.9-0.1,2-1,2.7c-0.5-0.9-1-1.7-1.5-2.6c-2.3,5.4-4.7,8.1-7.2,11.5c-1.2,1.4-2.2,2.8-3.1,4.2
		l-12.5,18.2l6-4.7c-1.2,1.5-2.6,3.1-3.6,4.8c-3.4,5.3-4.2,10-2.4,14.3l2.3,5.9L147.4,240.6z M164.3,271.4c0,0,0.3-0.7,0.7-1.9
		c0.2-0.6,0.5-1.3,0.8-2.2c0.4-0.9,0.7-1.8,1-2.8c0.4-1,0.7-2.2,1.2-3.4c0.4-1.2,0.7-2.5,1.1-3.8s0.8-2.7,1.1-4.1
		c0.4-1.4,0.7-2.8,1-4.2c0.3-1.5,0.6-2.8,0.8-4.3c0.3-1.4,0.4-2.8,0.7-4.2c0.1-1.4,0.4-2.6,0.5-3.9c0.1-1.2,0.2-2.4,0.4-3.5
		c0.1-1.1,0.2-2.1,0.2-3c0.1-0.7,0.1-1.4,0.1-2c0.7-0.1,1.4-0.1,1.9-0.1c-0.1,0.6-0.1,1.3-0.2,2.1c-0.1,0.9-0.1,1.9-0.4,3
		c-0.1,1.1-0.3,2.3-0.5,3.6c-0.1,1.2-0.4,2.6-0.7,3.9c-0.3,1.4-0.5,2.8-0.9,4.2c-0.4,1.4-0.7,2.8-1,4.3c-0.4,1.4-0.8,2.8-1.2,4.2
		s-0.9,2.8-1.3,4.1c-0.4,1.3-0.8,2.6-1.3,3.8c-0.4,1.2-0.9,2.3-1.3,3.4c-0.4,1-0.8,2-1.2,2.8c-0.4,0.8-0.7,1.5-0.9,2.2
		C164.6,270.7,164.3,271.4,164.3,271.4z M161.7,264.9c0,0,0.1-0.5,0.4-1.4c0.1-0.4,0.2-1,0.4-1.6c0.1-0.7,0.3-1.3,0.4-2.1
		c0.1-0.8,0.3-1.6,0.4-2.6c0.1-0.9,0.2-1.8,0.4-2.8c0.1-0.9,0.2-2,0.3-3c0.1-1,0.1-2.1,0.1-3.1s0-2.1,0-3.1c0-1-0.1-2-0.1-3
		c-0.1-0.9-0.1-1.9-0.2-2.8c-0.1-0.9-0.2-1.7-0.3-2.5c-0.1-0.4-0.1-0.9-0.1-1.3c0.5-0.7,1-1.2,1.6-1.8c0,0.2,0.1,0.5,0.1,0.8
		c0.1,0.7,0.1,1.4,0.1,2.2c0.1,0.8,0.1,1.7,0.1,2.6c0.1,0.9,0,1.9,0,2.8c0,1,0,2-0.1,3.1c-0.1,1-0.1,2.1-0.2,3.1
		c-0.1,1-0.2,2.1-0.4,3.1c-0.1,1-0.3,2-0.4,3.1c-0.2,0.9-0.3,1.9-0.5,2.8c-0.2,0.9-0.4,1.7-0.6,2.5c-0.1,0.8-0.4,1.5-0.6,2.1
		s-0.4,1.2-0.5,1.6C161.8,264.4,161.7,264.9,161.7,264.9z M146.7,235.8c0.1-2.6,1.2-5.2,3-8.2c1.1-1.7,2.5-3.4,3.8-5
		c1.4-1.7,2.8-3.5,4-5.4l2.7-4.4l-6.3,4.8l5.8-8.4c1.8-2.7,3.8-5.5,6.6-7.4c4.6-3.2,11.4-3.7,17.6-1.4c4.5,1.7,9,3.9,11.4,7.7
		c-0.8-0.6-1.7-0.9-2.9-1.2l-2.5-0.4l1.5,1.8c4.5,5.7,5.1,14.3,1.9,20.8c0.1-1.2,0.1-2.1-0.1-2.8l-0.3-1.5l-1.3,0.9
		c-3.5,2.4-4.5,6.4-5.5,10.3c-0.2,0.9-0.4,1.7-0.7,2.6c-1,3.4-2.3,6.6-4.5,9c1.5-4.8,1.7-9.9,0.7-14.9c-0.7-3.4-2.2-5.5-4.5-6.3
		c-1.8-0.6-3.9-0.4-6.5,0.8c-3.3,1.5-6.1,3.6-8.3,6.2l0.8-3.4l-2.3,1.8c-2.8,2.3-4.7,5.5-5.8,9.5c-0.7,2.7-0.8,5.5-0.9,8.2
		c-3.9-4.7-4.9-11.3-2.3-16.8l1.2-2.5l-2.6,1.4C149,232.6,147.6,234.1,146.7,235.8z"/>
	<path class="st1" d="M68.2,270.1c-3.7,4.6-5.1,10.6-3.1,15.3l2.9,7l-1-7.4c-0.1-1.2,0.1-2.4,0.7-3.5c0.1,5.4,1.6,10.7,4.4,15.6
		l0.8,1.4c0.1,1.7,0.4,3.4,0.7,5.1c1.9,9.7,5,19.4,11.2,27.4c6.3,8.1,16,14.4,26.9,15.2c-6.9-3.1-11.8-9-14.4-15.6
		c-2.5-6.6-2.8-13.6-2.2-20.5c0.4-3.7,0.9-7.5,0.7-11.2c-0.1-2.3-0.6-4.7-1.6-6.9c3.7,5.1,5.3,11.5,4.3,17.6l-0.8,4.7l2.7-4.1
		c2.1-3.3,3.2-7.3,3.1-12c-0.1-2.3-0.4-4.7-0.9-6.9c0.4,0.9,0.7,1.7,0.9,2.6l1.1,4.5l0.9-4.5c1-5.2-0.3-11.6-3.3-16.8
		c0.8,0.4,1.6,0.9,2.6,1.7l3.2,2.4l-1.6-3.5c-0.4-1-0.9-1.8-1.2-2.4c-0.8-1.6-1.2-2.3-1.1-3.8c0.1-0.8,0.1-1.7,0.3-2.5
		c0.2-1.6,0.4-3.2,0.2-4.9c-0.2-1.8-1-3.6-2.2-5.2c0.4,0.4,0.7,0.9,1,1.4l0.4-0.7c-0.7-2.8,0.9-5.9,3.8-7.1
		c-1.1,0.1-2.2,0.2-3.3,0.4c0.9-0.9,1.7-1.7,2.6-2.6c-1.2-0.1-2.3-0.2-3.5-0.3c-0.4-1.9,0.7-3.9,2.4-5.1c1.7-1.2,3.7-1.9,5.8-2.6
		c2.4-0.7,4.8-1.5,7.2-2.3c-1.9,0-3.7,0-5.6,0.1c1.4-0.6,2.8-1.1,4.2-1.7c-2.1-0.1-4.2-0.3-6.4-0.4c-0.5,0-1-0.1-1.5-0.2
		c-1-0.2-1.4-0.8-1.5-1.5c0.4-0.8,1-1.5,1.8-2c1.4-0.9,3.1-1.2,4.8-0.9c1.2,0.2,2.3,0.7,3.5,0.7c1.5,0,2.8-1.2,4-1.9
		c1.1-0.6,1.7-0.7,3.4-0.8c-1.1-0.5-2.4-0.3-3.6,0.1c-1.1,0.4-2.3,1-3.4,1.1c-1.3,0.1-2.6-0.4-3.7-0.9c-1.2-0.5-2.3-1.1-3.6-1.1
		c-1,0-2,0.4-2.6,1c0.1-2-0.3-3.6,1.7-4.7c2.2-1.2,4.7-1.9,7.2-2.5c-1.4-0.2-2.8-0.4-4.2-0.6c0.8-0.8,1.6-1.6,2.5-2.4
		c-1.5,0.1-2.8,0.3-4.3,0.4c-0.9-1.2-0.6-2.9,0.4-4.1c1-1.2,2.5-1.9,3.9-2.6c3.4-1.5,6.5-1.7,10-4.7c-1.3,0.4-2.7,0.7-4,1
		c0.8-1.2,1.5-2.3,2.3-3.4c-2.1,1.5-4.3,1.9-6.5,1.8c0.1-4,3.4-7.8,6.8-10.9c-1.7,0.7-3.4,1.5-5,2.3c-1.1-2,0.1-4.5,2.2-5.9
		c2-1.4,4.5-1.9,6.9-2.6c2.4-0.7,4.8-1.7,6.1-3.6c-4.1,2.3-7.6,1.6-9,2.1c-0.7-2.1,5.5-4,6.9-5.2c-3.2,0.5-6.4,1-9.7,1.6
		c0.1-1.7,1.6-3.4,3.4-4.2c-1,0.1-2,0.1-3.1,0.1c0.7-2.4,2.6-4.5,5.1-5.5c-0.9,0.2-2.6,0.4-3.6,0.7c-0.1-1.1,1.1-2.2,2-3
		c0.9-0.8,2-1.3,3.1-1.8c2.5-1.2,5-2.3,7.4-3.2c-1.4,0.1-2.7,0.1-4.1,0.2c1-1.6,2.6-2.9,4.6-3.5c-1.8,0.2-3.6,0.4-5.4,0.6
		c0.9-1.2,1.8-2.3,2.9-3.2c2.6-0.4,5.2-0.5,7.7-0.5c1.8-0.1,3.7-0.1,5.5,0.5c2.7,0.9,4.6,3.4,7.4,4.2c-2-2-4.1-4.2-6.9-5.2
		c-1.3-0.5-2.8-0.8-4.2-0.8c-1.2,0-2.5,0.2-3.6-0.2c-0.8-0.2-1.5-0.9-1.6-1.6c1.8-1.2,3.7-2.3,5.8-3.1c-1.1,0.1-2.2,0.3-3.3,0.4
		c1.4-1.7,2.8-3.4,4.2-5.1c-0.7,0.1-1.4,0.4-2.1,0.5c1.7-2.8,5-4.7,8.5-5.4c3.4-0.7,6.9-2.2,7.8-6c-0.7,0.7-1.5,1.4-2.3,2.1
		c1.3-3.6,0.9-6.9,4-10.9c-1,0.4-1.9,0.8-2.9,1.2c3.4-5.2,7.4-9,10.2-15.6c-0.7,0.4-1.5,0.9-2.3,1.4c1.7-7.6,0.9-15.6-2-22.9
		c1.8,9,0.4,18.5-3.9,26.8c-1.2,2.3-2.7,4.5-4.4,6.6c0.1-0.7,0.1-1.3-0.1-2c-0.9,2.1-2.3,4-4.2,5.5c-0.2-0.5-0.4-1-0.7-1.6
		c-0.3,0.9-0.6,1.9-0.8,2.8c-3.1-1.1-5.5-3.4-6.7-6c0.1,1.2,0.4,2.3,1.1,3.4c0.7,1.2,1.9,2.2,2.6,3.4c0.4,0.8,0.7,1.7,0.4,2.6
		c-2.5,1.9-5.2,3.6-7.9,5c-0.4-1.2-0.9-1.9-0.8-2.6c-2.1,3.6-3,7.7-5.1,11.3c-0.1-0.6-0.3-1.2-0.4-1.7c-4.1,6-8.2,12.2-12.3,18.2
		c-0.2-0.8-0.4-1.6-0.6-2.4c-0.6,3.1-1.7,5-3.1,6.3c-0.3-0.9-0.7-1.7-0.9-2.6c-1.7,3.6-3.4,6.3-5,8.9c-0.1-0.9-0.4-1.7-0.7-2.5
		c0.4,1,0.3,2.2-0.2,3.1c-1.2-1.7-4.1-1.5-5.8-2.7c-1.8-1.3-2.1-3.9-4.2-5c0.9,2.3,2,4.6,3.9,6.3c1.2,1.1,2.8,1.9,4,3.1
		c0.4,0.4,0.7,0.8,0.9,1.3c-1.1,2.1-2,4.2-2.5,6.6c-0.3-1.5-0.8-3-1.1-4.4c-0.3,1.4-0.5,2.7-0.8,4.1c-0.7-1.5-1.4-2.8-2-4.3
		c0.7,8.3-4.2,11-4.7,19.2c-0.4-1.3-0.8-2.6-1.2-3.9c-0.8,2.6-1.6,5.3-2.4,7.9c-0.7-0.9-1.4-1.9-2.1-2.8c-0.3,3.5-0.6,7-0.9,10.5
		c-2.9-2.8-2.4-6.9-3.6-10.4c-1.5,6.8-1.5,13.8,0.1,20.6c-0.6-1-1.2-2.1-1.7-3.1c0.1,2.9,0.2,5.8,0.3,8.7c-0.5-0.7-1-1.5-1.5-2.3
		c0.1,2.1,0.3,4.2,0.4,6.3c-1.7,0-3.1-1.3-4.2-2.9c0.5,3.1,0.9,6.3,1.5,9.4c-0.7-0.6-1.4-1.1-2-1.7c0.1,2.4,0.1,4.7,0.3,7.1
		c-1.5-1.2-3-2.4-4.4-3.6c-1.5,6.2-3.9,12.2-7.2,17.8c-2.2,2.5-3.9,5.2-4.7,7.8l-1.3,4.2l3.1-3.3C67.4,270.7,67.7,270.4,68.2,270.1z
		 M84.4,295c0.1-1.7,0.1-3.4,0.2-4.9c0.1-0.8,0.1-1.5,0.1-2.3c0-0.1,0.1-0.4,0.1-0.5c0.5,0.1,1,0.3,1.5,0.5c0,0.1,0,0.1-0.1,0.2
		c-0.1,0.7-0.2,1.5-0.3,2.2c-0.2,1.5-0.4,3.1-0.6,4.8c-0.1,1.7-0.2,3.3-0.3,4.8c0,0.8-0.1,1.5-0.1,2.3c0,0.7,0,1.4,0,2
		c0,2.5,0,4.2,0,4.2s-0.1-1.7-0.4-4.1c-0.1-0.6-0.1-1.3-0.1-2c-0.1-0.7-0.1-1.5-0.1-2.3C84.5,298.3,84.5,296.6,84.4,295z M77,289
		c0.5-0.4,1.1-0.8,1.7-1.1c0,0.1,0,0.2,0,0.4c0,0.9-0.1,1.9-0.1,2.9c-0.1,1,0.1,2.1,0.1,3.3c0.1,2.3,0.2,4.7,0.3,7.1
		c0.3,2.4,0.6,4.8,0.8,7.1c0.1,1.1,0.2,2.3,0.4,3.3c0.2,1,0.4,2,0.5,2.9c0.7,3.6,1.1,6,1.1,6s-0.6-2.4-1.5-5.9
		c-0.2-0.9-0.4-1.8-0.7-2.8c-0.3-1-0.4-2.1-0.6-3.2c-0.4-2.3-0.8-4.7-1.2-7.1c-0.2-2.4-0.5-4.9-0.7-7.1c-0.1-1.2-0.3-2.3-0.3-3.3
		C77,290.5,77,289.8,77,289z M72.5,268.6l2.4-1.9l-3.2,0.4c-0.9,0.1-2.2,0.4-3.4,0.9c2-3.8,5.6-7.5,9.9-10.1
		c4.7-2.8,10-3.8,14.6-2.8c5.1,1.1,9.2,5,9.7,9.2c0.1,1.5,0,2.9-0.2,4.4c-0.1,0.9-0.2,1.7-0.3,2.6c-0.1,1.7,0.3,2.7,0.9,3.9
		c-0.6-0.3-1.2-0.6-1.7-0.9c-0.4-0.2-0.9-0.4-1.4-0.7l-4.2-2.2l2.8,3.5c3.2,4,5.2,9.4,5.3,14.4c-0.8-1.4-1.7-2.7-2.6-3.6l-2.6-2.6
		l0.8,3.4c0.9,3.8,1.8,7.7,2,11.7c0.1,2.2-0.1,4.2-0.7,6.1c-0.4-6.3-3.3-12.4-8-16.9l-1.6-1.5l-0.1,3.1c-2.7-2.8-7.3-4.3-11.4-3.2
		c-3.7,0.9-6.6,3.9-7.6,7.2c-1.9-4.4-2.8-9.3-2.4-14.1l0.1-2.2l-1.8,1.4c-0.7,0.6-1.4,1.3-1.9,2C66.4,276,68.8,271.5,72.5,268.6z"/>
	<path class="st1" d="M326.1,204.4c0.1-0.8-4.2-1.8-5.1-1.8c-1,0-1.9-0.4-2.8-0.8c-2.7-1-6-0.8-8.5,0.7c0.7-0.7,1.3-1.5,2-2.2
		c-0.9,0.2-1.8,0.4-2.7,0.6c1.2-1.5,2.3-3.1,3.5-4.7c-0.7,0.1-1.4,0.3-2,0.4c-0.9-3.6-0.2-7.6,1.9-10.8c1.3-2,2-4.2,2.8-6.3
		c-0.7,0.8-1.2,1.7-1.9,2.5c0.8-2.7,1.6-5.4,2.4-8.1c-0.5,0.5-1,1-1.5,1.5c-0.2-2.4,0.7-4.9,2.4-6.7c1.7-1.8,4.3-3,7-3.2
		c-2.8-0.2-5.6,0.5-7.8,2c0.5-0.9,0.9-1.7,1.5-2.6c-0.6,0.4-1.2,0.8-1.8,1.2c0.1-3,0.3-6,0.4-9c0.1-2.8,0.3-5.6,1.5-8.2
		c0.7-1.6,1.8-3.1,3.2-4.4c-0.9,0.5-1.9,0.9-2.8,1.5c-0.1-0.4-0.1-0.9-0.1-1.3c-0.4,0.3-0.7,0.6-1.1,0.9c-0.9-5.3-0.8-10.9,0.3-16.2
		c-0.3,0.4-0.7,0.7-0.9,1.1c-0.3-3.1-0.5-6.3-0.8-9.5c0.2-4,0.4-8,0.7-12c-0.2,0.6-0.4,1.2-0.7,1.7c-0.2-0.9-0.5-1.9-0.7-2.8
		c-0.4,0.3-0.7,0.6-1,0.9c-0.2-6.6-2.4-13-6.1-18.6c2.6,7.2,3.8,14.8,3.6,22.4c-0.1-0.1-0.1-0.4-0.1-0.5c0.1,2.2,0.2,4.4,0.4,6.6
		c-0.4-0.5-0.8-1-1.2-1.5c0.4,2.5,0.8,5,1.2,7.4c-0.8-0.7-1.7-1.4-2.5-2.1c2,4.6,2.5,9.7,1.4,14.5c-0.1-0.4-0.2-0.7-0.4-1.1
		l-1.5,12.8c-0.1,1.4-1.5,2.4-3,2.3c-2.4-0.1-4.8-0.4-7.2-0.1c2,0.1,4.6,0.1,6.2,1.2c1.1,0.7,2,0.9,2.7,2c0.7,1,0.9,2.5,0,3.4
		c-0.6-0.4-1.2-0.8-1.7-1.2c0.9,1.9,1.2,4,0.7,6c-0.5-0.5-1-1-1.6-1.5c0.1,1.6,0.3,3.1,0.4,4.7c0.3,2.6-0.1,5.2-1.5,7.5
		c-0.2-0.3-0.5-0.6-0.7-0.9c0,1.7,0,3.4,0,5c-0.4-0.7-1.3-0.8-2.1-0.8c-0.8,0-1.6,0.2-2.4,0.1c-1.4-0.2-2.3-1.3-3.4-2.2
		c-1-0.9-2.6-1.6-3.8-1c1.8,0.1,3.3,1.5,4.6,2.6c0.9,0.9,1.8,1.7,2.8,2.6c0.9,0.8,1.8,1.9,1.5,3c-0.4-0.1-0.7-0.1-1-0.3
		c0.9,1.8,1.2,3.9,0.6,5.9c-0.3-0.4-0.6-0.9-0.9-1.3c0.3,1.7,0.1,3.6-0.6,5.2c-0.5-0.9-1.6-1.5-2.7-1.5c1.2,1.7,1.6,3.7,1.2,5.6
		c-0.1,0.6-0.1,1.1-0.1,1.7c-0.4-0.5-0.7-1-1-1.6c0,1.2,0,2.3-0.1,3.4c-0.4-0.9-1.6-1.5-2.8-1.5c-1.2-0.1-2.3,0.2-3.4,0.4
		s-2.3,0.1-3.4-0.4c-1.5-0.8-1.9-2.6-3.4-3.4c-1.1-0.7-2.6-0.5-3.9-0.4c-1.7,0.1-3.3,0.3-5,0.4c0.9,0.1,1.7,0.1,2.6,0.1
		c1.7,0.1,3.5,0.2,5,0.9c1.5,0.7,2.8,2.2,2.5,3.7c0.4,0.1,0.8,0.2,1.2,0.3c-0.3,0.3-0.6,0.7-0.9,0.9c2.5-0.3,5,0.4,6.9,1.9
		c-0.6,0.1-1.2,0.3-1.8,0.5c1.2,1.3,1.8,3.1,1.5,4.8c-0.5-0.4-1.1-0.7-1.6-1.2c0,2-0.1,3.9-0.1,6c-0.7-0.8-1.4-1.6-2-2.3
		c0.1,2.2,0.2,4.3,0.4,6.5c-0.4-0.5-0.7-1-1.2-1.5c0.3,4.5-0.9,9.2-3.6,13c-0.4-0.5-0.7-1-1.1-1.5c0,1.5,0.1,2.9,0.1,4.4
		c-0.1-0.7-0.9-1.3-1.7-1.5c-0.8-0.2-1.6-0.2-2.4-0.4c-1.7-0.4-2.9-1.5-4.4-2.3c-1.5-0.8-3.6-1.1-4.7,0c3.6,0.1,7,1.7,9,4.4
		c-0.4,0-0.8,0-1.2,0c1.7,0.7,3.1,2.3,3.1,4c-0.5-0.1-1-0.1-1.5-0.3c0.4,2.7,0,5.5-1.2,8c-0.2-0.3-0.4-0.6-0.7-0.8
		c-0.7,1.6-1.5,3.2-2.3,4.8l-4.6-4.6c1.7,2.3,2.4,5.2,1.8,7.8c-0.4-0.3-0.7-0.6-1-0.9c0,2.9-0.9,5.8-2.6,8.2c-0.4-0.7-0.9-1.4-1.3-2
		c0.6,3.3-0.4,6.8-2.8,9.3c-0.1-0.6-0.3-1.2-0.4-1.7c-1.7,2.7-3.4,5.4-5,8c-3.1,1.1-6,2.9-7.9,5.4c-1.2,1.5-2.2,3.1-3.1,4.8
		c-0.6,0.9-1.1,2-1.7,2.9c-1.3,2-3.6,3.4-6,4.7c-2.5,1.5-5.3,3.1-7.4,5.8l-2.5,3.3l3.9-2c1.2-0.6,2.6-1,4.2-1.4
		c-3.1,2-6.5,4.9-8.2,8.6l-1.6,3.5l3.2-2.5c2.5-1.9,6.2-3.6,9.4-4.6c-1.5,1.3-3.5,2.4-5.4,3.4c-0.4,0.2-0.9,0.4-1.2,0.7
		c-5.8,3.2-9.1,6-10.1,8.5l-1.3,3.3l2.9-2.3c0.8-0.7,1.5-1,2.3-1.4c-1.3,1.5-2.4,3.1-2.9,4.6l-1.5,4.2l3.2-3.4
		c0.7-0.7,1.3-1.3,2-1.9c-1.6,3.6-3.1,7.2-5.5,10.3c-3.6,4.8-9.4,8.2-15.5,10.2s-12.6,2.8-19.1,3.4c11.3,4.8,24.9,4.1,36.5-0.2
		c11.6-4.3,21.4-11.8,29.8-20c1.6-1.6,3.4-3.1,4.7-4.9c-0.2,1.8-1.1,3.9-2.3,5l-3.7,3.4l4.8-2c0.1-0.1,0.4-0.1,0.5-0.2
		c0.9-0.4,2-0.8,3.3-1.7c-0.6,2.5-2,5.2-3.6,6.5l-5.2,4.2l6.3-2.8c6.9-3.1,11.7-9.6,14.2-19.5c0.6-2.2,0.8-4.5,1.1-6.7
		c0.4-3.3,0.7-6.4,2-9.3c0.4,0.9,0.7,1.8,0.9,2.8l0.3,2.2l1.5-1.7c0.5-0.7,0.9-1.3,1.3-2.1l-0.4,6l2.4-7.1c0.8-2.4,0.9-5,0.4-7.4
		c-0.1-2.6,0.9-5.1,2.7-7.1c-0.7,0.2-1.4,0.4-2,0.7c0.9-2.5,1.9-5,2.8-7.4c-0.4,0.4-0.9,0.7-1.3,1c0.3-3.7,3.3-6.8,6.2-9.5
		c2.9-2.6,6-5.5,6.9-9.2c-0.7,0.6-1.5,1.2-2.2,1.8c0.1-0.6,0.1-1.1,0.2-1.7c-1,0.7-2.1,1.5-3.1,2.2c1.9-4.2,4.6-8.2,8.1-11.5
		c-0.9,0.6-2,1.2-2.9,1.7c-0.2-2.3,1.2-4.7,3.5-5.8c2-0.9,4.3-0.9,6.5-0.4c2.1,0.5,4.1,1.5,6,2.4c-1.2-2.1-4.2-2.8-6.7-3.2
		c-2-0.4-3.9-0.7-5.8-1.1c0.1-1,0.3-2.1,0.4-3.1c-0.5,0.1-0.9,0.4-1.5,0.5c0.5-2.4,2.1-4.6,4.4-6c-0.7,0.1-1.5,0.1-2.2,0.2
		c1-1.7,2.1-3.5,3.1-5.2c-1,0.4-1.9,0.9-2.9,1.3c2.4-5.1,5.5-10,9.2-14.4c-0.9,0.6-1.9,1.1-2.9,1.7c0.1-0.7,0.2-1.2,0.3-1.9
		c-0.9,0.7-1.7,1.5-2.6,2.3c-0.2-2.6,1.3-5.2,3.6-6.9s5.5-2.1,8.4-1.6c1.2,0.2,2.6,0.7,3.9,0.4C322.1,203.1,325.8,203.8,326.1,204.4
		z M233.2,329.4c0,0,0.4-0.4,1.2-0.9c0.4-0.3,0.9-0.7,1.4-1.1c0.3-0.2,0.6-0.4,0.9-0.7c0.3-0.2,0.6-0.5,0.9-0.8
		c0.6-0.5,1.3-1.2,2-1.7c0.7-0.6,1.4-1.4,2.1-2c0.7-0.7,1.5-1.5,2.1-2.3s1.4-1.6,2-2.5c0.7-0.9,1.2-1.7,1.8-2.6
		c0.7-0.8,1.2-1.7,1.7-2.6c0.5-0.9,1-1.6,1.5-2.4c0.4-0.8,0.8-1.5,1.1-2.3c0.1-0.4,0.4-0.7,0.5-1c0,0,0,0,0-0.1
		c0.2,0,0.4,0.1,0.6,0.1c0.7,0.1,1.2,0.4,1.7,0.6c0,0.1-0.1,0.1-0.1,0.1c-0.1,0.3-0.4,0.7-0.6,1c-0.4,0.7-0.9,1.5-1.4,2.3
		c-0.4,0.8-1.1,1.6-1.7,2.4c-0.6,0.8-1.2,1.7-1.9,2.5c-0.7,0.8-1.4,1.7-2.1,2.5c-0.8,0.8-1.5,1.6-2.3,2.3c-0.7,0.8-1.5,1.5-2.3,2.2
		c-0.8,0.7-1.5,1.4-2.3,2c-0.7,0.6-1.5,1.2-2.1,1.6c-0.4,0.2-0.7,0.5-0.9,0.7c-0.3,0.2-0.7,0.4-0.9,0.6c-0.6,0.4-1.1,0.7-1.5,0.9
		C233.8,329.1,233.2,329.4,233.2,329.4z M231,323.6c0,0,0.7-0.9,1.8-2.3c0.3-0.4,0.6-0.7,0.9-1.2c0.3-0.4,0.6-0.9,0.9-1.3
		c0.6-0.9,1.2-1.9,1.9-2.8c0.6-1,1.2-2,1.7-3c0.3-0.5,0.5-0.9,0.7-1.4c0.2-0.4,0.4-0.9,0.6-1.2c0.1-0.1,0.1-0.4,0.2-0.5
		c0.8-0.3,1.5-0.7,2.3-0.9c-0.3,0.4-0.7,1.2-1.2,2c-0.2,0.4-0.4,0.8-0.7,1.2c-0.2,0.4-0.6,0.9-0.9,1.3c-0.7,0.9-1.3,1.9-2,2.8
		c-0.7,0.9-1.5,1.9-2.2,2.8c-0.4,0.4-0.7,0.9-1,1.2c-0.4,0.4-0.7,0.7-0.9,1.1C231.8,322.8,231,323.6,231,323.6z M270.9,272.3
		c5.5,2.5,9,8.1,9,13.6c-0.2-0.3-0.4-0.6-0.7-0.8l-3-2.8l1.3,3.8c0.5,1.5,0.4,3-0.1,4.4c-0.4-0.9-0.8-1.8-1.4-2.7l-0.9-1.3l-0.8,1.4
		c-2.1,3.6-2.6,7.7-3.1,11.6c-0.2,2.2-0.5,4.4-1,6.5c-1.8,7.1-4.9,12.5-9,15.8c1-2.1,1.7-4.5,1.5-6.5l-0.1-2.6l-1.7,2
		c-0.7,0.8-1.3,1.4-1.9,1.8c0.9-2.1,1.2-4.6,0.5-6.4c-1.2-2.9-2.9-4.4-5.9-5.2c-2.6-0.7-5.7-0.3-9.3,1.1c-0.9,0.4-2,0.8-2.9,1.2
		c-1.7,0.7-3.4,1.5-5.1,1.9c-0.9,0.2-2,0.4-3,0.6c-1.1,0.2-2.3,0.4-3.4,0.7c-0.3,0.1-0.6,0.1-0.9,0.3c0.5-0.4,0.9-0.8,1.4-1l5.8-3.4
		l-7.7,2c-0.7,0.2-1.5,0.4-2.1,0.6c1.5-1.3,3.8-2.8,6.6-4.4c0.4-0.2,0.8-0.4,1.2-0.7c3-1.7,6.1-3.4,8-6.1l1.2-1.7l-2.3,0.4
		c-2.6,0.4-6.2,1.7-9.5,3.4c2.8-3.3,6.9-5.5,9.5-6.8l5-2.4l-5.7,0.7c-2,0.2-4.1,0.5-6,1c1.3-1,2.7-1.8,4.1-2.6
		c2.6-1.5,5-2.9,6.6-5.3c0.7-1,1.2-2,1.8-3.1c0.9-1.6,1.7-3.1,2.9-4.5C254.7,271.2,264,269.1,270.9,272.3z"/>
	<path class="st1" d="M293.5,129.9c-5.3-1.7-11.2-2-16.7-1c0.2-0.7,0.4-1.3,0.7-2c-0.9,0.2-1.7,0.4-2.6,0.7c0.4-1,0.7-2,1.1-3.1
		c-1.3,0-2.6,0-3.9,0c0.7-1.2,1.2-2.6,1.9-3.8c-1,0.4-2,0.7-3,1c-0.1-1.9,0.9-3.9,2.6-5.2c-0.6-0.2-1.2-0.2-1.8,0.1
		c-0.4-0.8,0-1.7,0.7-2.3c0.7-0.6,2.5-1.7,3.6-2c1.2-0.4,4.7-0.7,6-1c-1.1-0.4-2.3-0.3-3.6-0.2c-1.5,0.1-3,0.4-4.5,0.5
		c-1.2,0.1-2.7,0.4-3.3,1.5c0.2-2.4,0.4-5,0.7-7.4c-0.3,0.4-0.5,0.8-0.8,1.2c0.1-1.8,0.3-3.6,0.4-5.4c-0.7,0.8-1.3,1.6-2,2.3
		c0.3-4.2,0.6-8.5,0.9-12.8c-0.7,0.7-1.5,1.3-2.2,2c0.4-5.8,0.7-11.6,1.1-17.3c-0.4,1.5-0.7,3-1,4.4c-0.2-1.1-0.5-2.3-0.7-3.4
		c-0.7,2.5-1.2,4.9-1.9,7.4c-0.9-5.9-1.7-11.9-2.6-17.8c-0.1,0.8-0.4,1.6-0.5,2.3c-0.9-3.9-1.7-7.7-2.6-11.5
		c-0.2,1.1-0.5,2.2-0.7,3.3c-1.8-3.2-1.5-7.3,0.9-10.3c-1.9,1.2-3.1,2.9-3.4,5c-0.1-2.8-0.3-5.7-0.4-8.5c-0.4,0.8-0.7,1.6-1,2.5
		c-4-9.7-8-19.4-12-29.1c-0.1,1.1-0.2,2.1-0.4,3.2c-0.8-1.8-1.5-3.6-2.3-5.4c-0.2,0.5-0.5,1.1-0.7,1.6C236.7,13.3,232,7.8,226.1,4
		C237,15.4,245,29.1,249.2,43.6c-0.7-0.7-1.3-1.3-1.9-2c2.2,6.4,4.4,12.8,6.6,19.2c-0.7-0.4-1.4-0.8-2.1-1.2
		c1.7,5.8,3.4,11.6,5,17.3c-0.5-0.2-1-0.4-1.5-0.7c0,0.7,0.1,1.5,0.1,2.2c-1.7,1.2-7-0.5-10.5,0.8c6.6,0.1,12.4,2.7,13.3,8
		c-0.7-0.5-1.4-0.9-2-1.5c1.1,3.8,2.2,7.6,3.3,11.4c-0.7-0.9-1.5-1.8-2.3-2.7c0.9,4.8,1.7,9.6,2.6,14.5c-0.7-0.6-0.9-1.2-1.6-1.8
		c0.5,1.9,1,3.9,1.5,5.8c-0.7-0.7-1.7-1.1-2.6-1.2c1.4,2.8,2.8,5.6,4.2,8.5c-1.6-1-3.6-1.2-5.5-1.1c-2,0.1-6-0.6-7.8,0
		c1.8,0,5.8,1.2,7.7,1.2c0.9,0,2,0,2.8,0.4c0.9,0.4,1.5,1.2,1.2,2c-0.6-0.1-1.2-0.1-1.7-0.1c0.4,3.1,0.9,6.1,1.2,9.2
		c-0.4-0.5-0.9-0.8-1.6-0.9c0.4,1.5,0.9,2.9,1.3,4.4c-1.9-1.2-4.6-1.2-6.6-0.1c2.6-0.3,5.3,1.4,5.9,3.7c-0.8,0.1-1.5,0.1-2.3,0.2
		c1.5,3.2,1.9,6.9,1.2,10.3c-1.1-0.8-2.1-1.7-3.2-2.5c0.9,4.2,0.8,8.6-0.2,12.8c-0.4-0.8-0.9-1.6-1.4-2.4c0.3,2.3,0.6,4.7,0.9,7.1
		c-0.9-1.2-2.8-1.5-4.4-1.6c-2.8-0.2-5.7-0.5-8.6-0.7c1.4,0.4,2.8,0.8,4.2,1.2c2.1,0.6,4.3,1.2,5.8,2.6c1.5,1.4,2.3,3.8,0.9,5.4
		c-0.8-0.7-1.1-1.5-1.9-2.3c0.3,1.4,0.7,2.8,0.9,4.2c-3.8-0.9-6.5,0.4-11.7-0.9c0.9,1,2.5,1.4,3.9,1.5c1.5,0.1,3,0.1,4.3,0.6
		c1.4,0.5,2.6,1.7,2.3,3c-0.7-0.4-1.4-0.9-2.1-1.3c0.2,1.7,0.4,3.5,0.7,5.3c-0.7-0.7-1.2-1.5-1.9-2.2c-0.3,2.6-0.7,5.1-0.9,7.7
		c-0.8-1.2-1.5-2.5-2.3-3.7c0.3,2,0.7,4,0.9,6c-0.9-0.1-2-0.3-2.9-0.4c0.9,1.9,1.9,3.9,2.8,5.8c-2.5-0.9-5-1.8-7.5-2.8
		c-2-0.7-4.1-1.5-5.9-2.6c-1.8-1.1-3.4-2.6-4.1-4.4c1.2,3.1,3.6,5.7,6.6,7.3c1.7,0.9,3.7,1.5,5.2,2.6c1.5,1.2,2.6,3.1,1.7,4.8
		c-0.5-0.3-0.9-0.6-1.5-0.8c0,1.7,0.1,3.5,0.1,5.2c-1.1-0.9-2.3-1.9-3.4-2.8c-0.3,3-0.6,6-0.8,9c-0.5-0.7-1-1.3-1.6-2
		c-0.6,1.2-1.1,2.5-1.7,3.6c-0.4-0.7-0.7-1.4-1.1-2c-1,1.7-2.1,3.5-3.1,5.2c-0.2-0.8-0.4-1.6-0.7-2.4c-1.5,1.6-3,3.3-4.5,4.9
		c0.1-0.9,0.3-1.8,0.4-2.7c-1.9,2.5-3.2,5.3-3.9,8.2c-0.7,0.7-1.4,1.6-2,2.5c-1.1,1.6-2.6,3.3-3.9,4.9c-1.2,1.5-2.6,3-3.6,4.4
		l-4.4,6.1l5.9-5c1.4-1.1,2.8-1.8,4.3-2.4c-1.1,1-2.3,1.9-3.5,2.9c-1.2,0.9-2.5,2-3.7,3.1c-3.3,2.9-7.1,7.4-7.1,12.2l0.1,4l1.9-3.6
		c0.7-1.2,1.8-2.5,3.2-3.4c-3.3,4.3-7.2,11.3-5.6,18.8l1.5,6.8l0.5-6.9c0.4-5,3-8.4,5.8-10.6c-0.2,0.4-0.4,0.9-0.7,1.3l-2.7,4.4
		l2.6-2c-2.6,5.2-3.9,10.8-6,16.1c-5,12.5-15.2,23.4-28.1,30c10.8-0.2,21.1-4.2,29.7-10c8.6-5.8,15.6-13.3,21.7-21.3
		c0.7-0.9,1.3-1.7,2-2.6l-0.1,4.8l1.7-1.6c4-3.7,8.5-8.1,11.9-13.3c0.1,0.7,0.1,1.3,0.1,1.7l-0.3,3.9l2.2-3.3
		c3.9-5.8,4.5-13.1,4.5-19.8c0.6,1.4,1.1,2.8,1.2,3.7l0.8,6.1l1.2-6c0.9-4.7,1.6-10.2,1.6-14.2c0-0.1,0-0.4,0-0.5
		c0.1-0.4,0.2-0.8,0.4-1.2c0.9-2,2-3.9,2.9-5.8c-0.7,0.2-1.2,0.5-1.9,0.7c0.7-1.2,1.2-2.6,1.9-3.8c-0.8,0.5-1.6,0.9-2.4,1.5
		c2-5.2,5.6-9.8,10.4-13.3c-1,0.3-2,0.7-3,0.9c0.4-0.7,0.9-1.4,1.3-2.1c-1.4,0.1-2.7,0.3-4.1,0.4c2.6-3.6,5.2-7.3,7.9-10.9
		c-0.9,0.5-1.9,1-2.8,1.5c0.9-1.2,1.7-2.3,2.6-3.6c-0.9,0.3-1.9,0.6-2.8,0.9c3.8-5.5,7.6-10.9,11.4-16.5c-0.7,0.5-1.5,0.9-2.3,1.5
		c0.1-0.8,0.2-1.5,0.4-2.3c-0.8,0.5-1.6,1-2.4,1.6c-0.1-2.7,1.8-5.4,4.6-6.6c2.8-1.1,6.5,0.9,10.3,1.7c-4.4-1.8-9.8-4.4-14.1-3.7
		c0.1-0.7,0.2-1.5,0.3-2.1c-0.5-2.1,1-4.5,3.3-5.2c-1,0-2,0-3.1,0c1.7-3.2,4.8-5.8,8.5-7.1c-2.1,0.7-4.2,1.2-6.3,1.9
		c0.1-0.7,0.1-1.4,0.2-2.1c-0.7,0.1-1.4,0.2-2.1,0.4c1.3-3.8,2.6-7.5,3.9-11.3c-0.5,0.1-0.9,0.1-1.5,0.1c-0.9-2.9,1.8-6.3,5.2-6.4
		c-0.9-0.1-1.7-0.1-2.7-0.1c0.7-1.5,2.2-2.8,4-3.1c-1.7,0-3.4,0-5-0.1c0.4-2,2.3-2.9,2.7-4.8c-0.5,0-3.3-0.1-3.8-0.1
		C277.8,130.9,286.4,128.4,293.5,129.9z M218.3,272.6c0,0,0.2-0.2,0.5-0.7c0.3-0.4,0.8-1,1.3-1.7c0.2-0.4,0.5-0.8,0.8-1.2
		c0.3-0.4,0.6-0.9,0.9-1.4c0.3-0.5,0.6-0.9,0.9-1.5s0.6-1,0.9-1.5c0.3-0.5,0.5-1.1,0.8-1.6s0.5-1,0.7-1.5s0.4-1,0.6-1.5
		c0-0.1,0.1-0.2,0.1-0.3c0.1,0.7,0.1,1.5,0.1,2.2c-0.2,0.5-0.5,0.9-0.8,1.5s-0.6,1-0.9,1.5s-0.7,1-0.9,1.5c-0.3,0.5-0.7,0.9-1,1.5
		c-0.4,0.4-0.7,0.9-0.9,1.3c-0.3,0.4-0.7,0.8-0.9,1.2c-0.6,0.7-1.1,1.2-1.5,1.7C218.5,272.3,218.3,272.6,218.3,272.6z M207.7,279.5
		c0.4-0.7,0.9-1.5,1.5-2.3c0.5-0.8,0.9-1.7,1.5-2.7c0.9-1.9,2-3.9,3.1-5.9c0.9-2,1.7-4.2,2.6-6c0.4-0.9,0.9-1.9,1.2-2.8
		c0.3-0.9,0.7-1.7,0.9-2.6c0.3-0.9,0.6-1.7,0.8-2.3c0.7,0,1.3,0.1,1.9,0.2c-0.3,0.7-0.7,1.6-1.1,2.6c-0.3,0.8-0.7,1.6-1,2.6
		c-0.4,0.9-0.9,1.8-1.3,2.8c-0.9,1.9-2,3.9-3,6c-1.2,2-2.3,3.9-3.4,5.8c-0.6,0.9-1,1.8-1.6,2.6c-0.6,0.8-1.1,1.6-1.5,2.3
		c-2,2.8-3.2,4.7-3.2,4.7S205.9,282.4,207.7,279.5z M245.8,226.4c1.7,2.3,2.6,5.3,2.6,8.6c-0.1,2.8-0.4,6.4-0.9,9.9
		c-0.7-1.6-1.5-3.2-2-4.1l-1.9-2.8l0.1,3.4c0.1,6.2,0.1,13.7-2.6,19.9c-0.1-0.6-0.1-1.1,0-1.5l0.4-4.8l-2.3,4.4
		c-3,5.6-7.4,10.3-11.4,14.2l0.2-10.2c0.1-2,0.1-4.5-1.2-6.6c-2.2-3.4-7.1-4.2-10.9-3.3c-2.3,0.6-4,1.4-5.6,2.5
		c0.1-0.3,0.4-0.7,0.6-1l1.9-3l-3.3,1.8c-3.4,1.9-6,4.3-7.7,7.2c0.9-4.4,3.5-9.2,7.5-13.4l1.9-2l-2.8,0.6c-1.9,0.4-3.9,1.3-5.4,2.6
		c1.2-2.8,3.6-5.5,5.8-7.4c1.2-1,2.4-2,3.6-3c2.4-1.9,4.9-3.9,6.9-6.3l2.7-3.3l-4,2c-0.9,0.4-1.9,0.8-2.9,1.2
		c-0.5,0.2-1.1,0.4-1.6,0.7c0.1-0.2,0.4-0.4,0.5-0.6c1.4-1.7,2.8-3.4,4-5c2.3-3.2,5-5.3,8.4-6.4c1.2-0.4,2.6-0.5,3.9-0.5
		c1.2,0.3,2.4,0.9,3.4,1.7c3.1,2.6,8.5,2.1,12,4.4C245.3,226,245.6,226.2,245.8,226.4z"/>
</g>
</svg>
