<?xml version="1.0" encoding="utf-8"?>
<!-- Generator: Adobe Illustrator 25.0.0, SVG Export Plug-In . SVG Version: 6.00 Build 0)  -->
<svg version="1.1" id="Layer_1" xmlns="http://www.w3.org/2000/svg" xmlns:xlink="http://www.w3.org/1999/xlink" x="0px" y="0px"
	 viewBox="0 0 400 400" style="enable-background:new 0 0 400 400;" xml:space="preserve">
<style type="text/css">
	.st0{opacity:0.1;}
	.st1{fill:#543004;}
</style>
<g class="st0">
	<path class="st1" d="M244.4,102.1c-3.5-1.1-6.9-2.3-10.5-3.2c-4.8-1.3-9.6-2.1-14.6-2c-4,0.1-7.9,0.3-11.7,1.6
		c-8.2,2.8-15.7,7.2-22.3,12.7c-3.5,2.9-6.7,6.3-9.7,9.8c-4.5,5.3-9.2,10.5-12.4,16.7c-2,3.9-3.8,8-5.7,11.9
		c-0.1,0.3-0.4,0.5-0.6,0.7c-0.2-0.2-0.4-0.3-0.5-0.5c-2.3-4.4-3.6-9.2-4.7-14c-1.1-5.1-1.6-10.3-1.7-15.6
		c-0.3-9.1,0.4-18.2,1.4-27.3c2.4-22.3,9.1-43.4,19.5-63.2c4.6-8.7,9.9-17,17-24c1.6-1.6,4.1-1.9,6-0.4c9.4,7.3,19.3,13.8,29.7,19.6
		c13.4,7.3,27.4,13.4,41.5,19.2c2.6,1.1,2.6,0.7,3.7-1.5c0.6-1.3,1.1-1.6,2.5-1.2c1.4,0.4,2.7,0.9,4.1,1.3
		c12.1,4.1,24.2,8.2,36.3,12.1c4.3,1.4,8.7,2.5,13,3.7c0.9,0.3,1.2,0.8,1.2,1.7c-0.1,0.8-0.1,1.6-0.2,2.4c-0.1,0.6,0.1,0.9,0.7,1.1
		c1.2,0.4,1.8,1.3,1.8,2.6c0,1-0.1,2-0.3,3c-1.8,8.2-4.5,16.2-7.4,24.1c-2.6,7.1-5.6,14.1-8.4,21.1c-1.2,2.9-2.4,5.7-3.7,8.6
		c-0.7,1.4-1.8,2.5-3.5,2.6c-0.7,0-1,0.2-1.2,0.8c-3,8.6-6,17.1-9.2,25.6c-5.1,13.6-10.3,27.1-16.9,40.1c-1.8,3.4-4,6.5-7,8.8
		c-1.5,1.2-3.4,2-5.1,2.8c-5.5,2.7-10.3,6.2-13.4,11.6c-1.8,3.1-3.5,6.2-5.1,9.5c-5.8,11.8-11.4,23.7-17.3,35.4
		c-6.5,12.9-13.8,25.4-21.6,37.6c-8.8,13.7-18.8,26.6-29.2,39.1c-13.9,16.6-29.2,31.8-47,44.3c-7.1,5-14.5,9.4-22.5,12.9
		c-1.4,0.6-3,1.2-4.6,1.3c-3.5,0.2-6.8-0.7-9.6-3c-1.8-1.5-3.6-3.3-5.3-4.9c-3.8-3.7-6.9-7.9-9.2-12.7c-3.8-7.9-6.9-16-8.4-24.7
		c-0.7-4.1-0.8-8.1,1.1-11.9c1.4-2.9,3.7-4.6,6.9-5.1c2.2-0.3,4.3,0.3,6.4,0.6c2.6,0.4,5.2,0.6,7.8,0.9c0.6,0,1.3-0.1,1.7-0.4
		c3.9-2.7,8-5.2,11.7-8.1c8.5-6.6,16.2-14.1,23.6-22c15.9-17,30.1-35.4,43.6-54.4c9.3-13.1,17.2-27.1,24.9-41.2
		c10-18.3,19.1-36.9,26.9-56.3c6.2-15.3,12.1-30.6,16.9-46.4c0.3-1.1,0.8-2.2,1.2-3.5C244.9,102.2,244.6,102.2,244.4,102.1z
		 M151.8,294.2c-5.4,10-12.4,18.9-19.7,27.5c-2.2,2.6-4.9,4.7-7.6,6.8c-8.4,6.6-16.5,13.4-24.5,20.4c-1.3,1.1-3,1.2-4.6,1.2
		c-1.9,0-3.8-0.1-5.7-0.1c-0.2,0-0.5,0-0.7,0.3c0.5,0.1,1,0.2,1.5,0.3c3.1,0.4,6.2,1,9.3,0c2-0.6,4-1.5,5.9-2.3
		c2.8-1.3,5.3-3.2,7.7-5.2c0.1-0.1,0.3-0.1,0.5-0.1c-2.3,3.8-5.6,6.7-9.6,8.7c-4.1,2-8.4,1.8-12.8,1.3c0,0.1,0,0.2-0.1,0.4
		c1,0.3,2,0.6,2.9,0.8c-0.1,2.2-0.3,4.4-0.4,6.8c-2.5-1.3-4.9-2.5-7.3-3.8c4,4.1,8.4,7.3,14.3,7.9c-1,0.7-2,0.7-3.1,0.5
		c-1-0.2-2.1-0.5-3.3-0.8c0.3,1.4,0.6,2.8,0.9,4.2c-1.9-0.3-3-1.9-4.6-2.5c-0.1,0.1-0.1,0.1-0.2,0.2c1.4,1.2,2.7,2.6,4.1,3.7
		c1.8,1.3,3.8,2.1,6,2.1c2,0.1,3.7-0.7,5.3-1.8c4.7-2.9,8.7-6.8,12.9-10.3c3.5-2.8,7.3-5.2,11.3-7.2c0.2-0.1,0.4-0.2,0.8-0.3
		c-0.2,0.3-0.3,0.4-0.4,0.5c-4.4,4.2-8.8,8.4-13.3,12.5c-2.6,2.4-5.3,4.8-8.2,6.8c-3.5,2.5-7.4,3.2-11.7,1.1
		c1.4,3.4,3.6,6.1,6.1,8.7c-3.2,0.7-5.8-0.6-8.5-1.8c1.2,1.2,2.5,2.1,4.1,2.6c4.2,1.4,8.1,0.3,11.9-1.6c5.7-2.8,10.7-6.9,15.9-10.6
		c7.1-4.9,13.6-10.6,20.3-16c1.1-0.9,2.3-1.6,3.5-2.5c0.1,0.1,0.1,0.1,0.2,0.2c-1.2,1.2-2.4,2.5-3.6,3.7c-4.6,4.6-9.6,8.9-14.7,12.9
		c-3.2,2.5-6.5,5.1-9.8,7.5c-2.5,1.8-5.1,3.6-7.8,5.1c-3.2,1.8-6.6,3.3-10.4,3.4c-1,0-2-0.2-3-0.3c-0.6-0.1-1.3-0.2-1.9-0.2
		c3.6,2.1,7.4,1.6,11.2,0.8c0,0.1,0,0.2,0.1,0.3c-0.3,0.2-0.6,0.4-0.9,0.5c-2.7,1.3-5.5,1.5-8.5,1.1c-1.6-0.2-2.9-1.1-4.1-2.1
		c-3.7-3.1-6.5-7-8.9-11.2c-2.8-4.9-4.7-10-6.7-15.2c-1.6-4.3-2.3-8.8-2.6-13.3c-0.1-2.1,0.5-3.9,2.2-5.4c0.8-0.7,1.8-0.9,2.8-0.7
		c0.8,0.2,1.7,0.3,2.5,0.6c2.8,1,5.7,0.7,8.4-0.3c3.7-1.3,7-3.5,10.1-5.9c0.1-0.1,0.1-0.1,0.3-0.4c-1.9,1-3.7,1.8-5.4,2.7
		c-2.4,1.2-4.7,2.3-7.4,2.6c-1.8,0.2-3.5,0.1-5.2-0.4c-1.1-0.3-2.2-0.6-3.3-0.8c-1.3-0.2-2.5,0.1-3.6,0.9c-2.5,1.9-3.8,4.4-3.7,7.6
		c0.2,4.9,0.9,9.7,2.9,14.3c2.2,5.1,4.4,10.2,7,15.1c2.3,4.5,6,8.1,9.7,11.5c2.3,2.1,5.1,2.7,8.2,2.7c2.9,0,5.6-0.9,8.1-2.2
		c3.6-2,7.1-4.2,10.6-6.4c2.2-1.4,4.4-2.9,6.5-4.5c19.8-15.2,37-32.9,52.5-52.5c15.1-19.1,28.2-39.6,39.7-61.1
		c5.6-10.6,10.8-21.3,16-32.1c3.2-6.7,6.6-13.5,11.1-19.5c2.1-2.8,4.3-5.5,6.8-7.8c1.9-1.8,4.3-3.2,6.7-4.2c4.1-1.8,6.8-4.8,8.6-8.7
		c6.1-13.4,12.4-26.8,18.3-40.3c2.9-6.6,5.1-13.5,7.6-20.2c0.6-1.7,1-3.4,1.4-5.1c0.1-0.3,0.1-0.5,0.1-0.8c-0.1,0-0.2-0.1-0.3-0.1
		c-1.7,4.3-3.4,8.6-5,12.9c-0.1,0-0.1,0-0.2-0.1c0.2-1.2,0.5-2.3,0.7-3.6c-5.2-2.7-10.5-5.1-16.3-6.7c-1,4.1-2.2,8.1-4.1,11.9
		c1.8-7.5,2.9-15,3.5-22.6c-0.1,0-0.2,0-0.3,0c-0.7,3.3-1.4,6.6-2.1,10c-2-0.4-4-0.7-6-1.1c-0.7-0.2-1.2,0-1.6,0.6
		c-1.2,1.6-2.5,3.2-3.8,4.7c3.6-5,6.4-10.5,8.5-16.3c-1.4,2.3-2.8,4.5-4.2,6.8c-0.6,1-1.2,2-1.7,3c-0.3,0.6-0.7,0.7-1.3,0.6
		c-4.5-0.6-9-0.8-13.6-0.6c-0.6,0-0.9,0.3-1.1,0.8c-1,2.2-2.1,4.3-3.1,6.5c-0.1,0.3-0.3,0.5-0.6,0.7c1.8-6.7,3.9-13.2,4.8-20
		c-0.3,1.2-0.7,2.3-1,3.5c-0.8,2.7-1.3,5.6-2.5,8.2c-2.4,5.5-4.1,11.4-7.1,16.6c-1.5,2.5-2.4,5.3-3.7,7.9c-1,2.1-2.1,4.1-3.2,6.1
		c-0.1,0-0.1-0.1-0.2-0.1c0.9-2.2,1.8-4.4,2.7-6.7c1.6-3.9,3.3-7.8,4.6-11.8c2.1-6.2,4.1-12.5,5.9-18.8c0.7-2.5,0.8-5.2,1.2-7.8
		c0-0.3,0-0.7,0-1c-0.1,0-0.2,0-0.2,0c-0.1,0.3-0.2,0.6-0.3,0.9c-1.4,6.4-3.5,12.7-5.9,18.8c-6.2,15.8-12.2,31.6-18.8,47.1
		c-5.4,12.8-11.2,25.5-18,37.7c-6.1,11.1-13.1,21.6-20.3,32c-8.7,12.7-17.6,25.3-27.3,37.3c-11,13.7-22.8,26.8-35.2,39.3
		c-2.4,2.4-5,4.8-7.5,7.1c-0.2,0.2-0.4,0.4-0.5,0.6c0,0.1,0.1,0.2,0.1,0.2c0.4-0.1,0.8-0.2,1.1-0.4c3.6-3.2,7.3-6.4,10.7-9.8
		c5.8-5.8,11.6-11.6,17.3-17.5c4-4.2,7.7-8.7,11.6-13c0.2-0.2,0.3-0.3,0.5-0.5c0.1,0.1,0.1,0.1,0.2,0.2
		C154.1,290.1,152.9,292.2,151.8,294.2z M158,136.7c-1.9-9.5-2.6-19-1.7-28.7c0.8-8.7,1.9-17.3,3.7-25.8c0.8-3.5,1.9-6.9,2.9-10.4
		c0.1-0.2,0.2-0.4,0.3-0.6c-5.2,21.2-7.4,42.6-3.5,64.5c0.2-0.4,0.4-0.7,0.6-1c4.6-8.1,10.1-15.7,16.7-22.2c2.1-2.1,4.7-3.7,7.3-5.3
		c3.4-2.2,6.8-4.1,10.2-6.2c2.9-1.8,6.1-3,9.4-3.9c6.4-1.7,12.9-2.7,19.6-2.4c4.1,0.2,8.1,0.9,12,2.1c6.4,1.9,12.6,4.2,19,6.2
		c11.1,3.5,21.8,8.2,32.7,12.3c3.1,1.2,6.2,2.5,9.3,3.7c0.7,0.3,1.5,0.5,2.3,0.7c0.2,0.1,0.5-0.1,0.8-0.2c-0.1-0.2-0.2-0.6-0.4-0.7
		c-0.9-0.5-1.8-1.1-2.8-1.5c-7.3-3.1-14.6-6.4-22-9.3c-6.8-2.6-13.7-4.9-20.5-7.3c-1.1-0.4-2.3-0.8-3.3-1.2c0-1.1,0.5-1.1,1.3-1
		c4.8,1,9.4,2.7,14,4.4c5,1.8,10.1,3.6,15.1,5.4c0.1,0.1,0.3,0.1,0.5,0c-0.2-0.1-0.4-0.3-0.6-0.4c-3.4-1.4-6.9-2.8-10.3-4.1
		c-1.9-0.7-3.7-1.5-5.6-2.1c-4.3-1.5-8.7-2.9-13-4.3c-0.4-0.1-0.9-0.1-0.8-0.7c0.1-0.7,0.6-0.4,1-0.3c1,0.2,2.1,0.4,3.1,0.6
		c0-0.1,0-0.2,0.1-0.2c-1.2-0.5-2.4-1-3.8-1.5c0.2-0.6,0.3-1.2,0.5-2.1c5.6,1.9,11.1,3.8,16.6,5.6c0-0.1,0.1-0.2,0.1-0.3
		c-5.4-2.1-10.8-4.3-16.3-6.5c0-0.1,0.1-0.4,0.2-0.7c1.2,0.2,2.4,0.4,3.5,0.5c0-0.1,0.1-0.2,0.1-0.3c-0.9-0.4-1.8-0.8-2.7-1.1
		c-0.5-0.2-0.7-0.3-0.5-0.9c0.2-0.5,0.3-0.8,0.9-0.6c1.4,0.5,2.8,0.9,4.2,1.4c0.4,0.1,0.7,0.2,1.2,0.1c-0.3-0.2-0.6-0.5-1-0.6
		c-1.2-0.6-2.4-1.2-3.6-1.7c-1.4-0.7-1.4-0.7-0.6-2.2c0.7,0.2,1.5,0.5,2.3,0.8c-0.4-1.1-2.1-0.8-2.1-2.2c0.8,0.1,1.5,0.2,2.2,0.3
		c0-0.1,0-0.1,0.1-0.2c-0.6-0.4-1.3-0.7-1.9-1.1c0.1-0.1,0.1-0.2,0.1-0.3c1.1,0.3,2.1,0.5,3.2,0.8c0-0.1,0.1-0.2,0.1-0.3
		c-0.8-0.4-1.5-0.9-2.3-1.2c-0.8-0.3-0.9-0.7-0.4-1.4c2.7,0.7,5.3,1.4,8,2.2c0-0.1,0.1-0.2,0.1-0.3c-1.6-0.6-3.1-1.3-4.7-1.9
		c-0.8-0.3-1.7-0.7-2.5-0.9c-0.5-0.2-0.6-0.5-0.5-0.9c0.2-0.6,0.4-1.2,0.5-1.7c3.5,1.1,7,2.1,10.4,3.2c0-0.1,0.1-0.2,0.1-0.3
		c-3.3-1.4-6.7-2.9-10.1-4.4c0.2-0.9,0.4-1.9,0.7-3c-0.1,0-0.2-0.1-0.3-0.1c-2.8,8.6-5.4,17.3-8.5,25.9c-0.1,0-0.2-0.1-0.3-0.1
		c4.4-14.3,8.9-28.7,13.3-43c-0.1,0-0.2-0.1-0.3-0.1c-5.3,14-10.5,28.1-15.8,42.3c-1.4-0.5-2.8-1-4.3-1.4c-6.7-2-13.4-4-20.5-3.9
		c-1.2,0-2.5,0.1-3.8,0.2c3.8-5.8,7.5-11.6,11.2-17.4c-0.1-0.1-0.2-0.1-0.3-0.2c-1,1.5-2,2.9-3,4.4c-3,4.2-6,8.4-9,12.6
		c-0.5,0.6-1.1,0.9-1.8,1c-2.6,0.3-5.1,0.8-7.9,1.2c0.8-1,1.5-1.9,2.2-2.8c0-0.1-0.1-0.1-0.1-0.2c-0.6,0.4-1.2,0.8-1.6,1.4
		c-1.2,1.5-2.9,2.2-4.6,3c-2.7,1.2-5.4,2.6-8,3.9c-6.3,3-11.6,7.4-17,11.8c-4.1,3.4-7.7,7.3-11,11.5c-0.8,1-1.6,2-2.5,3
		c-0.2,0.3-0.5,0.5-1,0.6c0.5-0.8,1-1.6,1.6-2.4c4.4-5.6,8.9-11.2,14.1-16c0.6-0.5,0.6-1.2,0.3-2.9c-1.3,1.2-2.5,2.4-3.7,3.5
		c1.9-3.3,4.4-6.1,7-8.9c2.6-2.8,5.3-5.6,8-8.3c2.7-2.7,5.4-5.3,8-8c-6.8,5.3-12.8,11.4-19,17.8c0.1-1.6,0.1-2.9,0.2-4.2
		c0.6-7.5,1.9-14.9,3.5-22.2c0.7-3.4,1.6-6.8,2.3-10.2c0.2-1.2,0.9-1.5,1.9-1.8c4.5-1.2,9.1-1.6,13.7-2c3-0.3,6-0.7,9-1.3
		c-2.1,0.1-4.1,0.1-6.2,0.3c-4.1,0.3-8.2,0.7-12.3,1.2c-1.8,0.2-3.6,0.9-5.3,1.4c-3.3,0.9-6.5,1.8-9.7,2.9c-2.5,0.8-4.8,1.9-7.3,2.8
		c-0.4,0.1-0.8,0-1.2,0.1c0.3-0.3,0.6-0.6,0.9-0.7c4-1.6,8-3.2,12-4.8c0.4-0.1,0.6-0.7,0.8-1.2c1-3.7,1.9-7.5,2.9-11.2
		c0.5-2,0.6-2,2.6-2.4c-1.4,4.7-2.8,9.3-4.3,14.2c1.3-0.3,2.3-0.5,3.3-0.8c0.2-0.1,0.4-0.6,0.5-0.9c1.4-4.2,2.7-8.5,4.1-12.7
		c0.2-0.6,0.5-0.9,1.2-1.1c1.6-0.3,3.1-0.8,4.6-1.4c-1.7,0.3-3.3,0.6-5.2,0.9c3.6-9.3,7.3-18.3,11.8-27.1c6.6,5,13.7,8.9,21,12.6
		c-0.8,2.1-1.6,4.2-2.4,6.3c1.6-1.7,2.3-3.7,3.3-5.9c0.9,0.4,1.7,0.8,2.5,1.2c-0.1,0.7-0.2,1.4-0.4,2.1c0.1,0,0.2,0.1,0.2,0.1
		c0.3-0.6,0.6-1.1,0.9-1.6c3,1.2,5.9,2.4,8.8,3.7c9.5,4.1,19,8.3,28.5,12.2c12.8,5.2,25.8,9.9,39.1,13.8c2.3,0.7,4.5,1.8,6.8,2.4
		c4.1,1.2,8.1,2.6,12.4,3c0.2,0,0.3,0.1,0.5,0.2c-1.4,1.4-5.2,2.1-11.6,2.1c-1.7,4.5-3.4,9-5.2,13.6c3,0.3,5.8,0.6,8.7,0.9
		c0,0.1,0,0.2,0,0.3c-6.4,0-12.8,0-19.3-0.1c0,0.1,0,0.3,0,0.4c2,0.1,4.1,0.2,6.2,0.4c-0.6,1.5-1.1,2.9-1.7,4.3
		c1.6,0.2,1.6,0.2,2.1-1c0.3-0.7,0.6-1.4,0.8-2c0.5-1.4,0.7-1.5,2.3-1.1c-0.5,1.4-1,2.8-1.6,4.3c3.6,0.4,7.2,0.7,10.8,1.1
		c0,0.1,0,0.3,0,0.4c-0.4,0-0.8,0.1-1.2,0.1c-5.2-0.2-10.4-0.4-15.5-0.5c-5.8,0-11.7,0.1-17.5,0.2c-0.2,0-0.3,0-0.5,0
		c0,0.1,0,0.2,0,0.2c6.4,0.3,12.8,0.5,19.2,0.8c-2,6.2-4.1,12.4-6.1,18.5c0.1,0.1,0.3,0.1,0.4,0.2c0.2-0.3,0.4-0.5,0.5-0.8
		c2.2-5.7,4.4-11.4,6.6-17c0.5-1.2,1.3-0.5,2.2-0.7c-1.2,2.8-2.2,5.4-3.3,8c-1.4,3.4-2.7,6.8-4.1,10.2c-0.3,0.8-0.1,1,0.7,1.3
		c2.8,0.9,5.4,2.3,7.8,4.1c0.3,0.2,0.6,0.6,0.8,1c-1.5-0.8-3-1.6-4.6-2.4c0,0.1-0.1,0.1-0.1,0.2c1.5,1.6,4,2.2,4.7,4.7
		c6.2-13.5,11.3-27.3,15.9-41.3c-1.2,5.6-3,11-5,16.4c-2,5.4-4,10.7-5.8,16.2c0.5-1.2,1.1-2.3,1.6-3.5c4.5-10.9,8.5-22,11.5-33.4
		c0.6-2.2,1.4-4.4,2.1-6.5c0.5-1.6,0.3-2.1-1.3-2.5c-1.2-0.3-2.4-0.3-3.6-0.6c-2-0.4-4-0.6-6-1.2c-16-4.3-31.8-9.5-47.2-15.8
		c-1-0.4-1.8-1.3-2.8-1.7c-4.7-1.9-9.4-3.8-14.1-5.7c-6.5-2.7-13-5.6-19.5-8.3c-8.9-3.7-17.3-8.3-25.2-13.7c-4.5-3-8.8-6.4-13.1-9.6
		c-0.8-0.6-1.3-0.7-2.1,0c-2.1,1.6-3.5,3.7-5,5.7c-10.1,13.5-17,28.6-22.3,44.5c-5.3,16-7.7,32.4-8.5,49.2c-0.5,10,0.2,20,2,29.8
		c0.1,0.4,0.2,0.7,0.3,1.2C158.4,139,158.2,137.9,158,136.7z M272.1,46.1c-0.2,0.1-0.3,0.2-0.6,0.3c0.3,0.2,0.5,0.3,0.7,0.4
		c2.6,0.9,5.1,1.8,7.7,2.7c6.5,2.3,13,4.7,19.6,6.9c6.2,2.1,12.4,4.3,18.9,5.5c0.6,0.1,1.2,0.2,1.9,0.3c0.4,0,0.8-0.1,1.2-0.2
		c-0.1-1.3-1.1-1.5-1.9-1.7c-2.7-0.7-5.4-1.4-8.1-2.1c-2.3-0.6-4.6-1.2-6.9-2c-9.8-3.4-19.5-6.8-29.3-10.2c-0.9-0.3-1.8-0.6-2.7-0.8
		c-0.3-0.1-0.6,0-1.1,0C271.8,45.6,271.9,45.9,272.1,46.1z M285.8,61c0-0.1,0.1-0.2,0.1-0.3c-1.9-0.8-3.7-1.6-5.6-2.4
		c-1.9-0.8-3.9-1.6-5.8-2.3c-1.9-0.8-3.8-1.5-5.8-2.3c-1.9-0.8-3.8-1.6-5.7-2.4c-1.9-0.8-3.9-1.6-5.8-2.3c-1.8-0.7-3.6-1.6-5.5-2.1
		C262.4,53.4,274,57.5,285.8,61z M295.9,120.9c-2-2.9-38.2-15.6-44.9-15.9C266.2,109.6,281.2,114.7,295.9,120.9z M303.6,84.7
		c1,0.4,1.3,0.3,1.7-0.7c1.2-3.6,2.4-7.3,3.7-10.9c0.1-0.3,0.1-0.6,0.1-0.8C307.2,76.3,305.4,80.5,303.6,84.7z M265.7,58.7
		c-0.2,0-0.4,0.2-0.6,0.3c0.1,0.2,0.2,0.5,0.4,0.6c1.1,0.4,2.1,0.7,3.2,1c0-0.1,0.1-0.2,0.1-0.3C267.9,59.4,266.8,59,265.7,58.7z
		 M263.3,62.8c-0.1-0.1-0.4,0.1-0.6,0.1c0.1,0.2,0.2,0.5,0.4,0.6c1.3,0.5,2.6,1,4,1.5c0.1-0.1,0.1-0.2,0.2-0.4
		C265.9,64,264.6,63.4,263.3,62.8z M265.3,60.3c-0.2-0.1-0.4,0-0.7,0c0.1,0.2,0.1,0.6,0.3,0.7c0.8,0.5,1.7,0.8,2.6,1.2
		c0.1-0.1,0.1-0.3,0.2-0.4C266.9,61.3,266.1,60.8,265.3,60.3z"/>
	<path class="st1" d="M128.4,329.4c1.1-1.1,2.2-2.1,3.1-3.2c4.4-5.3,8.8-10.8,13.2-16.1c2.9-3.4,5.9-6.7,8.8-10.2
		c5.8-7.1,11.5-14.3,17.2-21.6c0.8-1.1,1.3-2.4,2-3.6c2.1-3.3,4.2-6.6,6.4-9.9c3.1-4.7,5.2-9.9,6.7-15.2c0.4-1.3,0.8-2.7,1-4.1
		c-0.2,0.3-0.4,0.6-0.6,0.8c-7.8,11.4-16,22.5-24.5,33.4c-0.7,0.9-1.4,1.8-2.2,2.6c-1.7,1.8-2.7,3.8-3.7,6
		c-1.7,3.7-3.6,7.2-5.6,10.7c-2.6,4.5-5.3,9.1-8.3,13.3c-2.5,3.5-5.5,6.6-8.2,10c-1.8,2.2-3.6,4.5-5.5,6.8
		C128.3,329.2,128.4,329.3,128.4,329.4z"/>
	<path class="st1" d="M169.1,311.2c0.5-0.7,1.1-1.3,1.6-2c3.3-4.5,7.7-7.9,12.2-11.1c3.7-2.6,7.6-4.6,11.6-6.6
		c5.1-2.5,9.3-6.2,12.9-10.7c6.8-8.5,11.5-17.9,13.7-28.6c1.4-6.6,2.5-13.2,3.7-19.7c0.4-2,0.7-4.1,1.3-6c0.4-1.3,1.3-2.5,2.1-3.7
		c2.2-3.3,4.7-6.3,7.7-8.9c0.2-0.2,0.4-0.4,0.6-0.7c-2.3,1.3-4.3,2.9-6.1,4.8c-3.4,3.4-5.6,7.5-8,11.5c-1.5,2.7-2,5.6-2.5,8.5
		c-1.4,7.8-2.5,15.7-5.1,23.3c-3,9.2-7.9,17.2-15.3,23.6c-2.5,2.1-5.3,3.7-8.2,5.1c-7.8,3.9-14.8,8.9-19.8,16.2
		c-1,1.5-1.7,3.2-2.6,4.8C168.9,311.1,169,311.2,169.1,311.2z"/>
	<path class="st1" d="M224.7,196c-1.9,1.6-3.9,3.2-5.6,4.9c-3.7,3.8-7.5,7.7-11,11.7c-1.9,2.2-3,5-4.6,7.4
		c-4.3,6.7-8.6,13.3-13,19.9c-1.5,2.2-2.4,4.6-3.2,7.1c-1.5,5.2-3,10.4-5.4,15.3c-1.3,2.5-2.8,4.9-4.2,7.3c-0.2,0.3-0.4,0.6-0.7,1.1
		c0.2-0.1,0.3-0.1,0.4-0.2c3.6-4,7.1-8.1,8.6-13.4c0.2-0.7,0.6-1.2,1-1.8c7.1-10.8,13.9-21.7,20.1-33c0.8-1.4,1.6-2.9,2.3-4.4
		c3-6.5,7.4-11.9,11.8-17.3c1.2-1.5,2.5-3,3.8-4.5C224.8,196.1,224.8,196.1,224.7,196z"/>
	<path class="st1" d="M221.1,209.4c-1.2,1.9-2.4,3.9-3.7,5.7c-1.7,2.3-3.4,4.4-5.3,6.6c-3.3,3.8-5.9,8.2-8.7,12.3
		c-6.3,9.3-10.8,19.6-15.4,29.7c-2,4.3-4.2,8.5-6.4,12.7c-0.2,0.3-0.4,0.7-0.5,1c2.7-3.5,5.1-7.1,7-11.1c2-3.9,3.8-7.8,5.8-11.7
		c-1.8,5.9-4.4,11.5-7.3,16.9c-2.9,5.4-6.3,10.6-10.3,15.3c0.1,0.1,0.1,0.1,0.2,0.2c1-0.9,2.1-1.6,3.1-2.6c4.5-4.6,8-10,11-15.7
		c3.6-6.8,6.5-13.9,9.1-21.2c3.4-9.5,8.1-18.2,14.3-26.2c2.7-3.5,5.1-7.2,7-11.2c0.1-0.3,0.2-0.5,0.3-0.8
		C221.2,209.4,221.2,209.4,221.1,209.4z"/>
	<path class="st1" d="M123.2,349.2c3.6-5,7.1-10,10.6-15c4.2-6,8.4-12,13.4-17.3c6.4-6.6,13.4-12.6,21.1-17.6
		c8.9-5.8,16.4-12.9,22-22c0.1-0.2,0.2-0.4,0.2-0.7c-0.2,0.2-0.4,0.4-0.6,0.6c-4.4,5.7-9.7,10.3-15.8,14.2
		c-3.9,2.4-7.8,4.8-11.4,7.5c-11,8.3-20,18.3-27.2,30c-2.7,4.5-5.7,8.8-8.5,13.2c-1.4,2.3-2.8,4.6-4.2,6.9
		C123,349.1,123.1,349.2,123.2,349.2z"/>
	<path class="st1" d="M241.8,200.7c-1.3,1-2.5,1.9-3.8,2.9c-3.1,2.6-6.4,5-9.3,7.9c-5.7,5.6-11.6,11.1-15.8,18
		c-4.4,7.2-7.7,15-9.7,23.2c0,0.1,0,0.3,0,0.5c2.1-6.3,4-12.6,7.8-18.2c-0.3,0.8-0.5,1.6-0.9,2.4c-2.8,6.2-4.6,12.7-5.9,19.4
		c-1.1,6.2-3.1,12.1-6.1,17.7c-1.2,2.1-2.8,3.9-4.2,5.9c-0.1,0.1-0.2,0.2-0.3,0.3c0.1,0.1,0.1,0.1,0.2,0.2c0.6-0.6,1.3-1.1,1.9-1.7
		c2.1-2.1,3.4-4.7,4.7-7.4c2.6-5.3,4.2-10.9,5.8-16.5c2.4-8.3,5.4-16.5,9.4-24.2c3.9-7.6,9.3-13.9,15.4-19.8
		c3.5-3.4,7-6.8,10.5-10.2C241.8,201.1,241.8,201,241.8,200.7C241.9,200.8,241.9,200.8,241.8,200.7z"/>
	<path class="st1" d="M121.2,367.7c1.4-1.3,2.8-2.5,4.2-3.8c3.2-2.8,6.2-5.8,9.6-8.4c3.1-2.4,6.6-4.4,9.9-6.5
		c4.4-2.7,9-5.1,13.4-7.9c6.8-4.3,12.5-9.9,17.6-16.1c5.9-7.2,10.2-15.4,13.6-24c0.3-0.7,0.5-1.5,0.6-2.3c-0.1,0.1-0.2,0.3-0.3,0.4
		c-2.4,6.1-5.8,11.7-9.6,17c-3.4,4.6-6.8,9.2-11,13c-3.4,3-7,5.8-10.5,8.6c-2.4,1.9-4.9,3.6-7.4,5.3c-1.7,1.1-3.6,2.1-5.3,3.2
		c-1.6,1-3.2,2.1-4.9,3.1c-7.4,4.8-13.5,11.2-19.5,17.6c-0.2,0.2-0.3,0.4-0.5,0.5C121.1,367.6,121.2,367.6,121.2,367.7z"/>
	<path class="st1" d="M262.8,186.2c3-3.9,5.1-8.4,7.5-12.7c-3.1,8.2-7.5,15.6-12.9,22.5c0.1,0.1,0.1,0.1,0.2,0.2
		c0.3-0.3,0.7-0.5,1-0.8c6.1-5.8,10.5-12.6,13.4-20.4c2.1-5.7,4-11.5,6-17.3c1.6-4.7,3.6-9.3,6-13.7c1.1-2,2.5-3.9,3.8-5.8
		c0.1-0.2,0.2-0.4,0.3-0.6c-0.1-0.1-0.1-0.1-0.2-0.2c-1,1.2-2.1,2.4-3.1,3.7c-3.9,4.9-6.6,10.4-9.1,16c-3.1,6.9-5.9,14-8.9,21
		c-1,2.4-2.3,4.8-3.4,7.2C263.1,185.6,262.9,185.9,262.8,186.2z"/>
	<path class="st1" d="M226.9,187.1c0.4-0.5,1-0.9,1.3-1.5c0.9-1.9,1.9-3.9,2.6-5.9c1.8-5.3,3.4-10.6,5.3-15.9
		c3.3-9.1,7.7-17.5,13.5-25.2c2-2.7,3.6-5.7,5.4-8.6c0.1-0.2,0.1-0.4,0.3-0.7c-2.4,3-4.7,5.9-7.2,8.6c-5.7,6.4-9.7,13.8-13.2,21.6
		c-3.2,7.3-5.3,15-7.2,22.8c-0.3,1.2-0.7,2.4-1.1,3.7c-0.1,0.3-0.1,0.6-0.2,1C226.6,186.9,226.7,187,226.9,187.1z"/>
	<path class="st1" d="M247.8,200.2c0.2-0.5,0.5-0.9,0.7-1.4c2.1-4.2,3.5-8.7,4.5-13.3c2.3-10.7,7-20.4,12.4-29.7
		c1.1-1.9,2.2-3.9,3.3-5.8c0.4-0.7,0.7-1.5,0.9-2.3c-0.3,0.5-0.5,0.9-0.9,1.3c-2.3,3.1-4.6,6.2-7,9.3c-3.1,4-6,8.2-8.1,12.9
		c-1.8,4.1-3,8.3-3.5,12.8c-0.7,5.3-1.7,10.6-2.5,15.9c0,0.1,0,0.2,0,0.3C247.7,200.2,247.7,200.2,247.8,200.2z"/>
	<path class="st1" d="M237.6,185.6c-0.7,4.1-0.6,8.4-2.4,12.3c-0.1,0.2,0,0.6,0.1,0.8c0.3-0.1,0.6-0.2,0.8-0.4
		c1.6-1.8,2.8-3.8,3.4-6c0.9-3.2,1.5-6.4,2.1-9.7c0.3-1.4,0.5-2.9,0.7-4.3c0.2-1.4,0.7-2.5,1.6-3.6c0.9-1.2,1.7-2.4,2.4-3.7
		c-0.4,0.5-0.9,0.9-1.3,1.4c-6.3,7.7-11.1,16.2-14.5,25.6c-2.1,5.7-4.4,11.3-7.3,16.7c-0.1,0.2-0.2,0.4-0.4,0.7
		c0.1,0,0.1,0.1,0.2,0.1c0.9-1,1.9-2,2.8-3c0.8-0.9,1.7-1.7,2.5-2.6c0.5-0.6,0.9-1.2,1.3-1.9c2-4.1,2.9-8.4,4.2-12.7
		c0.9-2.9,2-5.7,3-8.5c0.2-0.4,0.3-0.9,0.4-1.3C237.4,185.5,237.5,185.5,237.6,185.6z"/>
	<path class="st1" d="M144.9,339.7c0.9-1.3,1.8-2.5,2.6-3.8c5.3-9.2,10.8-18.2,17.3-26.5c3.6-4.6,7.9-8.6,12.3-12.5
		c1.2-1.1,2.3-2.3,3.4-3.5c-16.5,11.8-29.4,26.6-35.9,46.2C144.7,339.6,144.8,339.6,144.9,339.7z"/>
	<path class="st1" d="M226,244.4c1-2,2.1-4,2.9-6.1c3-7.6,7.8-14,13.5-19.9c6.6-6.8,10.9-14.9,13-24.2c0.3-1.2,0.5-2.4,0.7-3.6
		c-0.1,0-0.2,0-0.3-0.1c-0.2,0.7-0.4,1.4-0.6,2c-1.9,7-4.8,13.5-9.5,19.1c-1.3,1.6-2.8,3.1-4.4,4.5c-3.2,2.8-5.6,6.1-7.6,9.8
		c-3.2,5.6-5.6,11.6-7.8,17.6c-0.1,0.2-0.1,0.4-0.2,0.6C225.9,244.4,225.9,244.4,226,244.4z"/>
	<path class="st1" d="M262.3,133.1c-0.8,1.4-1.6,2.8-2.5,4.2c-2.8,4.2-5.6,8.3-8.3,12.6c-5.4,8.4-9.8,17.2-12.2,26.9
		c-0.1,0.3-0.1,0.6-0.1,1c0.2-0.2,0.4-0.5,0.6-0.7c1.3-1.8,2.6-3.6,3.8-5.5c0.3-0.4,0.6-0.9,0.7-1.4c2.5-8.8,6.4-16.9,11.3-24.5
		c2.2-3.4,4.1-6.9,6.1-10.4c0.4-0.6,0.7-1.3,1-2C262.5,133.2,262.4,133.2,262.3,133.1z"/>
	<path class="st1" d="M211.2,206.4c1.4-1.6,3-3.6,4.8-5.5c1.3-1.3,2.1-2.7,2.7-4.4c3.9-9.7,7.4-19.6,10.3-29.7
		c0.1-0.3,0.1-0.6,0.1-0.7C223.2,179.6,217.1,193.2,211.2,206.4z"/>
	<path class="st1" d="M126.4,335c-1.1,0.7-2.2,1.3-3.2,2.2c-1.8,1.5-3,3.4-4.2,5.4c-1.6,2.7-3.3,5.3-5.1,7.9
		c-1.6,2.3-3.9,3.9-6.3,5.4c-2.2,1.4-4.4,2.5-7,2.6c-0.8,0-1.7-0.1-2.8-0.2c0.4,0.3,0.6,0.5,0.7,0.5c2.5,0,5,0.2,7.4-0.3
		c2.6-0.5,5.1-1.6,7.1-3.7c3.4-3.4,5.8-7.4,8.2-11.5c1.5-2.5,3.3-4.9,5-7.3c0.2-0.3,0.3-0.5,0.5-0.8
		C126.5,335.2,126.4,335.1,126.4,335z"/>
	<path class="st1" d="M180,308.1c-2.2,3.8-4.5,7.6-7.4,10.8c-3,3.2-6,6.4-9.3,9.3c-3.3,2.8-6.9,5.3-10.4,7.9c1,0.2,6.9-3.3,10.8-6.2
		C171.2,324.2,176.9,317.1,180,308.1z"/>
	<path class="st1" d="M277.3,141.2c-4.7,10.3-9.4,20.7-14.2,31c0.1,0,0.2,0.1,0.3,0.1C269.8,162.8,275.1,152.6,277.3,141.2z"/>
	<path class="st1" d="M164.1,293c3.4-2.6,6.2-5.7,8.9-8.9c0.9-1.1,1.5-2.4,2-3.7c0.3-0.6,0.2-1.4,0.2-2c0-0.2-0.3-0.4-0.5-0.6
		c-0.2,0.2-0.4,0.3-0.5,0.5c-1.7,2.4-3.3,4.9-4.9,7.3c-1.6,2.3-3.2,4.6-4.8,6.8C164.3,292.6,164.2,292.8,164.1,293z"/>
	<path class="st1" d="M168.1,316c-3.9,1.1-10.8,10.4-9.8,13.7C160.9,324.5,164.4,320.2,168.1,316z"/>
	<path class="st1" d="M261.7,146.3c0.6-1,1.3-2,1.8-3.1c0.9-2,1.8-4,2.6-6c0.2-0.6,0.3-1.2,0.4-1.9c0-0.3-0.1-0.5-0.2-0.8
		c-0.1,0-0.2,0-0.3,0c-1.5,3.9-3,7.7-4.5,11.6C261.5,146.2,261.6,146.3,261.7,146.3z"/>
	<path class="st1" d="M222.9,226.2c2.1-4.5,4.9-8.8,8.8-12.3C227.3,217,223.8,220.9,222.9,226.2z"/>
	<path class="st1" d="M107.6,375.5c2.3,0.3,4.4-0.2,6.3-1.3c0.3-0.2,0.5-0.6,0.6-0.9c0.1-0.2,0-0.5-0.1-0.7c-0.1-0.1-0.4,0-0.6,0
		c-2,0.9-4,1.8-5.9,2.7C107.8,375.4,107.7,375.5,107.6,375.5z"/>
	<path class="st1" d="M175.7,49.4c0.6,0.3,11.6-2.1,13.9-3.1c-0.8,0-1.5,0.1-2.5,0.1c0.8-2.1,1.4-4.1,2.3-5.9
		c2.4-4.9,4.9-9.8,7.5-14.7c1.2-2.3,2.5-4.6,3.8-6.9c0.3-0.5,0.2-0.8-0.3-1.2c-0.7-0.5-1.3-1-2.1-1.5c-1.4,2.5-2.9,4.8-4.2,7.2
		c-4,7.1-6.5,14.8-8.9,22.5c-0.2,0.7-0.5,0.9-1.3,1.1c-2.6,0.6-5.1,1.4-7.7,2.1C176.1,49.1,176,49.3,175.7,49.4z"/>
	<path class="st1" d="M181.5,64.8c-1.1,0.1-1.5,0.6-1.7,1.5c-0.9,4.7-2,9.4-2.7,14.2c-0.5,3.1-0.3,6.3-0.5,9.4c0.1,0,0.2,0,0.3,0
		c0.1-0.6,0.3-1.2,0.4-1.7c0.1-0.6,0.2-1.2,0.3-1.8c0.5-6.3,1.7-12.5,3.1-18.6C180.9,66.8,181.2,65.8,181.5,64.8z"/>
	<path class="st1" d="M181,26.3c3.8-5,7.7-10.1,11.5-15.2c-0.6-0.8-0.7-0.8-1.4,0c-2.4,2.5-4.4,5.4-6.2,8.4
		c-1.1,1.9-2.3,3.8-3.4,5.7c-0.2,0.3-0.4,0.7-0.6,1.1C180.9,26.3,181,26.3,181,26.3z"/>
	<path class="st1" d="M194.2,20.4c1-1.7,1.9-3.4,3-5.2c-0.4-0.3-0.7-0.6-1.1-0.9c-0.8,2-1.5,4-2.2,5.9
		C193.9,20.3,194.1,20.3,194.2,20.4z"/>
</g>
</svg>
