<?xml version="1.0" encoding="utf-8"?>
<!-- Generator: Adobe Illustrator 25.0.0, SVG Export Plug-In . SVG Version: 6.00 Build 0)  -->
<svg version="1.1" id="Layer_1" xmlns="http://www.w3.org/2000/svg" xmlns:xlink="http://www.w3.org/1999/xlink" x="0px" y="0px"
	 viewBox="0 0 400 400" style="enable-background:new 0 0 400 400;" xml:space="preserve">
<style type="text/css">
	.st0{opacity:0.1;}
	.st1{fill:#895003;}
</style>
<g class="st0">
	<g>
		<g>
			<g>
				<path class="st1" d="M371.9,132.2c0.2-0.6-0.4-1.2-1-0.7c-4.6,4.4-8.4,10.3-11.8,15.7c-1,1.6,1.1,4.3,2.4,2.4
					C365.4,144.3,369.4,138.2,371.9,132.2z"/>
				<path class="st1" d="M359.4,215.1c0.2-0.3,0.1-0.6-0.1-0.8c7.3-10.4,11.3-23,10.6-36.8c-0.9-15.9-7.9-30.7-20.2-40.8
					c2.2-0.3,4.3-0.7,6.5-1.1c2.7-0.5,13.7-2.1,16.2-3c0.4-0.1,0.5-0.5,0.5-0.9c0.1-0.2,0.2-0.6-0.1-0.9c-1.5-1.8-2.7-4.1-4.7-5.4
					c-0.7-0.4-1.2,0.1-1.4,0.7c-6.9,1.4-21.9,4-28.6,5.8c-0.3,0.1-0.5,0.3-0.5,0.6c-0.8,0-1.7,0.4-2.5,0.6c-0.3,0.1-0.4,0.3-0.4,0.5
					c-0.1,0-0.2,0.1-0.3,0.1c-0.1,0.2-0.3,0.4-0.5,0.5c-0.1,0-0.2-0.1-0.3-0.1c-0.3,0-0.5,0.5-0.3,0.7l0,0
					c-7.3,8.9-13.4,19-19.7,28.6c-6.2,9.5-12.5,19.1-17.7,29.2c-0.3,0.6-0.1,1.2,0.3,1.6c0,0.2,0.1,0.4,0.3,0.5
					c13.2,7.5,19.4,17.5,20.6,32.1c-28.9,7.5-60.3-6.8-75.7-32.7c-0.7-1.1-1.6-1.2-2.4-0.9c-0.1-0.1-0.3-0.1-0.4-0.1
					c-1.8,0.2-3.6,1-5.3,1.7c-0.3-0.2-0.5-0.3-0.7,0.1c-0.1,0.1-0.2,0.3-0.3,0.5c-0.2,0.1-0.3,0.3-0.3,0.5
					c-12.6,19.1-24.9,39.2-35.7,59.3c-0.5,0.9,0.9,2.2,1.5,1.2c9.8-14.9,19.2-30.5,28-46.2c4.8,9.4,13.2,16.6,22.9,20.6
					c-0.1,0-0.2,0.1-0.3,0.2c-9,14.1-18.1,28.2-26.7,42.5c-0.6,1,1,2.5,1.7,1.4c8.9-14.2,17.3-28.7,25.8-43.2c0.1-0.3,0-0.5-0.2-0.7
					c0.2,0.1,0.3,0.1,0.5,0.2c0.8,0.3,1.2-1.1,0.5-1.4c-10.1-5-17.3-11.7-23.7-20.6c2.2-3.9,4.3-7.9,6.5-11.8c0.1,0,0.3,0,0.5-0.1
					c0.2-0.1,0.5-0.1,0.7-0.2c15.6,29.5,48.5,49.7,82.4,43.6c10.4-1.9,20-6,28.2-12c-5.9,6.6-11.6,13.3-17.5,20
					c-10,11.3-20.6,22.3-30.2,34.1c-16.2,8.6-33.7,13.2-52.3,11.8c-21.9-1.6-39.1-11.9-56.4-24.2l0,0c1.5-1.6,2.7-4,3.6-6
					c0.2-0.5-0.3-1-0.7-0.6c-1.5,1.6-3.3,3.6-4.1,5.6c-0.1,0.2-0.1,0.3-0.1,0.5c-0.2,0.2-0.2,0.6,0,0.9
					c26.1,33.2,80.7,35.9,114.6,14.4c1-0.6,1-1.7,0.6-2.5c9.3-10.3,17.9-21.3,26.9-31.9C339.4,239.4,350,227.7,359.4,215.1z
					 M298.6,194.5c6.4-10.8,12.5-21.7,19.2-32.3c5.5-8.7,11.8-17,16.8-26c0.5,0.4,1.1,0.8,1.7,1.2c1,0.7,2.1,1.4,3.3,1.8
					c13.4,10.3,21.4,26.4,19.1,43.6c-2.3,17.6-14.4,32.9-30.2,40.5c-2.7,1.3-5.4,2.3-8.2,3.2C320.3,213.4,310.7,199.2,298.6,194.5z
					 M336.8,230.7c-37.5,20.6-80.4,0.5-101.6-33.4c1-0.3,2-0.7,2.9-1.2c0.1,0.3,0.1,0.5,0.3,0.7c16.3,27,49.7,42.3,79.7,34.2
					c0.5,0.3,1.3,0.3,1.6-0.5c5-1.5,9.9-3.6,14.6-6.5c15.2-9.3,26.1-26.1,26.9-44c0.7-16.2-6.9-33.2-20.9-42
					c-0.1-0.1-0.1-0.2-0.2-0.3c-1-0.8-2.2-1.4-3.3-2c-0.5-0.3-1.1-0.6-1.7-0.8c0.1-0.1,0.1-0.1,0.1-0.2c0.1,0.1,0.3,0.1,0.4,0.1
					c0.8-0.3,1.8-0.4,2.6-0.9c0.2,0.1,0.4,0.2,0.6,0.1c6.9-1.4,21.7-4.7,28.5-6.5c1,1.4,2.4,2.4,3.8,3.5c-2.3,0.3-12.8,2.3-15,2.9
					c-2.6,0.6-5.3,1.2-7.9,1.9c-1.4-0.3-2.2,2.3-0.8,3.5c14.7,11.3,21.5,30.3,19.5,48.5C364.9,206.2,353,221.8,336.8,230.7z"/>
				<path class="st1" d="M230,231c0.1-0.7-0.5-1.8-1.4-1.4c-0.4,0.2-0.7,0.5-1.1,0.7c-0.2,0.1-0.6,0.1-0.7-0.2
					c-0.3-0.6,0.7-1.2,1.2-1.3c0.7-0.1,0.6-1,0.1-1.2c-1.8-0.8-3.5,1.5-2.9,3.2c0.3,1,1.3,1.7,2.4,1.8
					C228.4,232.7,229.8,232.2,230,231z"/>
				<path class="st1" d="M220.6,247.7c0.6-1.3-1.1-3-2.2-1.8c-0.1,0.1-0.2,0.3-0.3,0.4c0,0,0,0.1-0.1,0.1c-0.1-0.1-0.3-0.4-0.3-0.6
					c0.2-0.7,1.2-1.4,2-1.4c0.7-0.1,0.3-1.1-0.2-1.2c-1.2-0.1-2.2-0.1-3.1,0.7c-0.8,0.7-1.2,1.8-1,2.9
					C216,249.3,219.4,250.2,220.6,247.7z"/>
				<path class="st1" d="M212.2,262.2c0.3-0.7,0.1-1.6-0.6-2c-0.6-0.3-1.4-0.1-1.7,0.5c-0.2,0.5-1.2,0.8-1.4,0.4
					c-0.4-0.6,0.6-1.4,1-1.6c0.3-0.3,0.3-0.8-0.1-1c-2-1.1-3.4,2-2.9,3.6C207.4,264.5,211.2,264.6,212.2,262.2z"/>
				<path class="st1" d="M222.1,279.1c-11.8-2.6-20.7-8.1-29.4-16.4c-0.5-0.5-1.3,0.2-0.9,0.8c7.1,9.6,18.2,15.8,29.8,18
					C223.2,281.8,223.5,279.4,222.1,279.1z"/>
			</g>
			<g>
				<path class="st1" d="M305.1,107.5c2.2-14.1,3.3-28.5,4.9-42.8c1.5-13.4,3.6-27,4.3-40.6c0.3,0.1,0.5,0.1,0.7,0.2
					c0.4,0.1,0.5-0.5,0.1-0.7c-0.3-0.1-0.6-0.1-0.9-0.2c0-0.1,0-0.1,0-0.3c0-0.1,0-0.1-0.1-0.1c4.5-2.6,8.9-5.4,13.2-8.3
					c0.6-0.4,0-1.6-0.6-1.2c-4.7,3-9.4,6.1-13.9,9.4c-22.3-5.5-47.8-6-69.4,2.5c-10.1,4-19.6,10.5-25,20.2c-5,9-6,20.2-2.7,30
					c4,12.1,14.3,21.1,26.5,24.3c1.1,0.3,1.4-1.5,0.4-1.8c-22.5-5.8-34.4-31.7-22.6-52.2c11.3-19.6,37-24.9,57.7-25.7
					c12-0.5,24,0.8,35.8,3.5c-2.6,13.7-3.6,27.9-5.2,41.7c-1.6,13.8-3.8,27.6-4.8,41.4C303.5,108.1,305,108.5,305.1,107.5z"/>
				<path class="st1" d="M327.6,81.4c-6.2,6.9-17.2,20-22.7,27.5c-0.2,0.3,0.1,0.7,0.4,0.4c6.2-6.9,17.5-19.6,23.1-27
					C328.8,81.8,328.1,80.8,327.6,81.4z"/>
				<path class="st1" d="M329.5,80.5c1.3-11.3,2-22.7,2.9-34c1-11.8,2.1-23.5,2.6-35.3c0-0.3-0.5-0.5-0.5-0.1
					c-1.5,11.7-2.4,23.4-3.4,35.1c-1,11.3-2.3,22.6-3,34C327.9,81,329.4,81.4,329.5,80.5z"/>
				<path class="st1" d="M275,99c11.1,1,20.6,4.7,30.6,9.2c0.2,0.1,0.3-0.2,0.1-0.3c-16.6-12.2-42.9-13.9-61.9-6.4
					c-0.1-0.5-0.1-1.1-0.3-1.6c-0.1-0.3-0.5-0.3-0.5,0.1c0.1,0.6,0.1,1.2,0.1,1.8c-0.1,0-0.1,0.1-0.2,0.1c-0.8,0.3-0.5,1.7,0.3,1.6
					c0.7,9.5,1.9,19,2.9,28.5c1.1,10.2,2.2,31.7,3.9,41.8c0.1,0.9,1.5,0.7,1.4-0.1c-0.6-10.7-2.9-32.5-4.1-43.1
					c-1.1-9.1-2-18.3-3.4-27.3C254.2,99.9,264.3,98.2,275,99z"/>
				<path class="st1" d="M237.2,101.3c-12-5-21.4-15.5-24.5-28.2c-3.2-12.8,0.2-26.6,8.6-36.7c0.1-0.2-0.1-0.5-0.3-0.3
					c-8.8,10.2-12.7,24.1-9.6,37.3c3.1,13.2,12.9,24.3,25.5,29.3C237.7,103.2,238,101.6,237.2,101.3z"/>
				<path class="st1" d="M308.3,19.5c-27.6-9.4-59.8-5.1-83.1,12.8c-0.2,0.1,0,0.5,0.2,0.4c24.3-16.1,54.9-21.1,82.6-11.6
					C308.9,21.3,309.1,19.8,308.3,19.5z"/>
				<path class="st1" d="M334.8,10.3c-1-0.2-2.1-0.1-3.1-0.1c-1,0-2,0.1-2.9,0.1c-0.1-0.4-0.5-0.7-1-0.5
					c-5.7,3.4-11.3,7.4-16.5,11.5c-0.2,0.1,0,0.5,0.2,0.4c5.6-3.1,11.3-6.5,16.5-10.3c0.1,0,0.1,0.1,0.2,0.1c1.2,0,2.3-0.1,3.5-0.3
					c1-0.1,2.1-0.1,3.1-0.5C335,10.7,335,10.3,334.8,10.3z"/>
				<path class="st1" d="M251.6,173.3c-2.9-1.5-5.7-3.1-8.5-4.7c-4.4-2.8-8.6-5.8-12.5-9.5c-6-5.6-10.7-12-15.5-18.5
					c-4.6-21.5-6.5-43.3-5.4-65.1c0.9-8.8,2.2-17.7,4.1-26.7c0.1-0.3-0.5-0.7-0.6-0.3c-0.4,1.1-0.7,2.2-1.2,3.3c0-0.1,0-0.1,0-0.1
					c0.1-0.2-0.3-0.4-0.3-0.1c-0.1,0.8-0.3,1.6-0.4,2.4c-8.7,27.9-7,59.6,0.7,87.2c0.3,1,1.1,1.2,1.8,1
					c6.3,15.3,22.1,27.6,36.7,34.2C252.3,177,253.1,174,251.6,173.3z"/>
				<path class="st1" d="M242.7,99.1c-1.3,0.7-2.6,2-3.6,3.1c-0.5,0.5,0.2,1.6,0.8,1.1c1.2-1,2.5-2.2,3.3-3.5
					C243.5,99.5,243.2,98.8,242.7,99.1z"/>
				<path class="st1" d="M250.8,173.3c-3.2-23-6.9-45.9-10.6-68.9c-0.1-0.4-0.7-0.3-0.6,0.1c2.7,23,5.6,45.9,8.8,68.7
					C248.7,174.9,251.1,175.1,250.8,173.3z"/>
				<path class="st1" d="M302.8,105.8c-18.1-9.6-41.9-12.2-60.5-2.2c-0.6,0.3-0.1,1.4,0.5,1.2l0,0c1.2,23,5.3,46.1,8.3,68.9
					c0,0.3,0.1,0.5,0.2,0.7c-0.1,0.4-0.2,0.8-0.3,1.2c-0.1,0.4,0.5,0.8,0.7,0.3c0.1-0.3,0.3-0.6,0.4-0.9c0.9,0.4,2,0,1.8-1.3
					c-3.1-23-5.2-46.6-10.1-69.4c19.6-5.5,39-5.8,57.5,4.1C303.3,109.6,304.4,106.7,302.8,105.8z"/>
				<path class="st1" d="M326.6,80.5c-7.5,8.8-15.8,18.5-21.3,28.7c-0.2,0.4,0.3,0.8,0.6,0.5c8.5-7.6,16-17.8,22.8-27
					C329.7,81.4,327.9,79,326.6,80.5z"/>
				<path class="st1" d="M329.8,81.1c1.4-11.2,2-22.6,2.9-34c1-12,2.4-24.2,2.2-36.2c0-0.3-0.1-0.5-0.3-0.5
					c-0.1-0.3-0.3-0.6-0.7-0.7c-1.1-0.3-2.3-0.1-3.4-0.1c-0.7,0-1.4-0.1-2,0c-0.3-0.7-1.1-1.2-1.8-0.6c-4,2.6-8.5,5.6-12.4,8.8
					c-0.1-0.1-0.3-0.2-0.5-0.3c-21.5-4.8-45.3-7.4-66.6-0.3c-19,6.4-34.7,21.3-36.7,41.9c-0.1,0.5,0.6,0.8,0.7,0.3
					c4.1-21.1,21.9-35.7,42-40.8c19.5-5,38.9-1.6,58.3,1.6c-0.8,0.7-1.6,1.5-2.2,2.2c-0.3,0.3,0,1,0.5,0.8
					c6.5-2.6,12.8-7.5,18.3-11.6c0.1-0.1,0.3-0.3,0.4-0.4c0.6,0.1,1.2,0.2,1.8,0.3c1,0.1,2,0.5,3,0.5c-1.9,10.7-2.5,21.7-3.5,32.5
					c-1,12-2.5,24.1-3,36.2C326.8,82.3,329.6,82.9,329.8,81.1z"/>
				<path class="st1" d="M335,10.1c-2.1,0.9-4.3,2.1-6.3,3.4c-0.3,0.2-0.1,0.9,0.3,0.7c2.2-0.7,4.5-1.8,6.5-2.9
					C336.1,11,335.7,9.8,335,10.1z"/>
				<path class="st1" d="M324.2,59.8c0-0.3-0.3-0.6-0.5-0.7c0.1-0.2,0.2-0.4,0.2-0.7c0-1,0-1.9,0-2.9c0.1-0.7,0.1-1.4,0.2-2.1
					c0-0.3-0.1-0.5-0.2-0.8c0-0.2,0-0.3,0-0.5c0.3,0,0.5-0.1,0.4-0.4c-0.3-1.9,2.8-13.4-3.6-11c-1.5,0.5-2.3,2.5-2.8,3.9
					c-0.2,0.1-0.3,0.3-0.5,0.4c-0.3,0.2-0.1,0.7,0.2,0.7c-1.8,5.3-2.4,11.3-2.6,16.8c-0.1,2.7-1.8,15,3.3,15.4
					C323.6,78.4,324.1,63,324.2,59.8z M316.7,58.5c0.1-1.7,0.5-9,1.7-12.6c1.6,2.1,0.7,13.3,0.7,14.3c-0.4,3.7-1.2,7.1-2.1,10.7
					C315.9,66.8,316.6,59.7,316.7,58.5z"/>
				<path class="st1" d="M241.5,114.7c-8.6-0.1-16.4-3.9-21.6-10.9c-0.1-0.2-0.5,0-0.3,0.2c5,7.2,13.2,11.6,22,11.4
					C242.1,115.5,242,114.7,241.5,114.7z"/>
				<path class="st1" d="M245.8,160c-7.5-2.2-13.8-6.7-18.1-13.2c-1.9-13.2-4.3-26.2-6.5-39.3c0-0.2-0.3-0.2-0.3,0
					c2.1,13.7,3.9,27.4,6.4,41c0.1,0.3,0.7,0.3,0.6-0.1c0-0.2-0.1-0.4-0.1-0.5c4.2,6.4,10.3,11.1,17.8,13.2
					C246.2,161.3,246.3,160.2,245.8,160z"/>
				<path class="st1" d="M234.6,121.5c-0.7-0.3-1.3,0-1.7,0.5c-0.1-0.2-0.1-0.5-0.2-0.7c-0.1-0.3-0.5-0.1-0.4,0.1
					c0.1,0.4,0.2,0.7,0.3,1.2c-0.1,0.4-0.1,0.7,0,1.2c0.1,0.2,0.2,0.3,0.3,0.3c0.1,0.1,0.1,0.2,0.2,0.2c0.7,0,1.3-0.4,1.6-1
					C235,122.7,235.2,121.7,234.6,121.5z M233.3,123.6c-0.1-0.2-0.1-0.4-0.1-0.5c0.1-0.5,0.7-0.9,1.2-0.9
					C234.4,122.7,234,123.4,233.3,123.6z"/>
				<path class="st1" d="M236,134.8c-0.1-0.2-0.3-0.3-0.4-0.5c0-0.1,0-0.1-0.1-0.2c-0.4-0.2-0.8-0.2-1.2-0.1l0,0
					c-0.4,0.1-0.8,0.5-1,1c-0.3,1,0.6,1.8,1.6,1.8C235.9,136.7,236.5,135.6,236,134.8z M234.7,136c-0.5,0.1-1-0.3-0.7-0.9
					c0.1,0,0.1,0,0.2-0.1C235,134.4,236,135.9,234.7,136z"/>
				<path class="st1" d="M236,146.1c-0.2,0.1-0.3,0.3-0.3,0.5c-0.1,0-0.1,0-0.1,0.1c-1.3,1.1,0.3,3.5,1.8,2.9
					C239.1,148.8,237.8,145.5,236,146.1z M236.9,148.7c-0.8,0.3-1.5-1-1.1-1.6V147c0.1,0.1,0.2,0.1,0.4,0.1
					C237.1,146.8,237.9,148.4,236.9,148.7z"/>
				<path class="st1" d="M307.5,108.6c0.7-0.5,1.4-1.3,1.7-2.2c0.1-0.1,0-0.2,0-0.3c0.1-0.1,0.1-0.3,0.2-0.5c0.1-0.5-0.4-1.7-1-1.1
					c-0.9,0.8-1.8,1.6-2.6,2.4c-0.3,0.3-0.6,0.5-1,0.9c-0.6,0.1-1.3,0.1-1.9-0.1c-0.2-0.1-0.4-0.3-0.6-0.4c-0.1-0.1-0.3-0.1-0.3,0
					c-0.2-0.1-0.4-0.2-0.6-0.4c-0.7-0.5-1.4,0.7-0.7,1.2c0.1,0.1,0.1,0.1,0.1,0.1l0,0c0.1,0,0.1,0.1,0.1,0.1
					c0.2,0.1,0.3,0.3,0.5,0.3c0.1,0.1,0.2,0.1,0.3,0.2c0.1,0.8,0.8,1.6,1.8,1.5c0.5,0,0.9-0.2,1.3-0.5c0.2,0,0.4,0,0.6-0.1
					C306.2,109.6,306.9,109.2,307.5,108.6z"/>
			</g>
			<g>
				<g>
					<path class="st1" d="M179,159c-8.9,11.1-18,22.1-26.3,33.7c-0.5,0.7,0.4,2.1,1.2,1.3c9.2-10.9,17.5-22.6,26-34
						C180.4,159.4,179.6,158.3,179,159z"/>
					<path class="st1" d="M171.8,150.9c0.3-0.5-0.3-1.4-0.7-0.8c-10.1,12.7-20.7,25.8-29.3,39.5c-0.4,0.6,0.5,1.5,1,0.9
						C153.4,178.3,162.7,164.2,171.8,150.9z"/>
					<path class="st1" d="M148.6,201.3c-3.2,0.9-6.8-0.9-7.9-4c-0.2-0.6-1-0.4-0.8,0.2c0.7,4.3,5,7,9.2,6
						C150.4,203.1,149.8,200.9,148.6,201.3z"/>
					<path class="st1" d="M218.6,179.6c-11,12.4-31.9,36.7-42,49.9c-0.7,0.9,0.5,2.5,1.4,1.5c11.3-12.2,31.1-37.4,41.6-50.4
						C220,180.1,219.2,179,218.6,179.6z"/>
					<path class="st1" d="M198.7,177.5c-0.2-1-1.6-1.1-1.8-0.1c-0.3,1.3-1.8,2.7-3.2,2c-1.6-0.7-1-3.5,0.4-4c0.5-0.2,0.3-1.1-0.3-1
						c-2.9,0.8-3.8,5-1.3,6.7C195.2,183.1,199.3,180.7,198.7,177.5z"/>
					<path class="st1" d="M176,201.9c-0.6,0.5-1.9,0.7-2.4-0.1c-0.4-0.6-0.1-1.3,0.4-1.8c0.8,0.4,1.6,0.9,2.4,1.4
						c0.7,0.5,1.2-0.7,0.5-1.2c-0.7-0.5-1.6-1.1-2.2-1.7c-0.7-0.5-1.1-0.7-1.9-0.3c-1.1,0.6-1.6,2-1.6,3.2c0.3,2.9,3.8,4.3,5.9,2.2
						C178.1,202.9,177,201.1,176,201.9z"/>
					<path class="st1" d="M185.1,191c-0.8,0-1.5,0-2-0.7c-0.4-0.5-0.7-1.2-0.4-1.8c0.8-1.6,3.7-0.7,4,0.8c0.1,0.5,0.9,0.5,0.9-0.1
						c-0.1-3.3-4.8-4.9-6.7-2c-0.9,1.4-0.6,3.3,0.3,4.6c1,1.4,2.9,2.4,4.5,1.4C186.6,192.7,186.2,191,185.1,191z"/>
					<path class="st1" d="M218.6,179.1c-12.2-7.5-22.3-17-31.4-28c-0.4-0.5-1,0.1-0.7,0.6c8,12,18.8,21.8,31.1,29.4
						C219,182,219.8,179.9,218.6,179.1z"/>
					<path class="st1" d="M178.7,227.6c-12.8-4.8-23.4-13.9-29.5-26.2c-0.3-0.5-1-0.1-0.7,0.5c5.8,13.5,15.8,23.6,29.6,28.9
						C179.9,231.4,180.5,228.2,178.7,227.6z"/>
					<path class="st1" d="M220.3,178.4c1.2-0.2,1.6-2.4,0.3-3.3c-6.7-4.4-12.8-9.5-18.8-14.7c-3.7-3.2-7.5-6.9-11.6-9.8
						c-0.3-0.3-0.5-0.7-0.7-1l0,0c0.3-0.2,0.1-0.6-0.3-0.6c-0.3,0.1-0.7,0.2-1.1,0.3c-0.2-0.1-0.4-0.3-0.7-0.3
						c-0.4-0.7-1-1.5-1.5-2.2c-0.3-0.7-0.6-1.4-1.1-2c0-0.1,0.1-0.1,0.1-0.1c0.8,0.4,1.8-0.3,1.6-1.6c-1-5.6-2.3-10.9-2.7-16.6
						c-0.4-4.8-0.3-9.7-0.3-14.5c0.3-0.5,0.3-1.4-0.4-1.8c-1.2-0.5-2.6-0.8-3.9-1c-0.5-0.5-1.2-0.7-1.8,0.1
						c-14.7,19-28.5,41.6-37.7,63.8c-0.1,0.2-0.1,0.4,0.1,0.5c-1.2,4.8-0.8,10.6,1,14.7c-3.4,1.8-4.9,7.1-3.4,10.5
						c1.6,3.7,7.3,6.2,10.7,3.7c-1.3,4.3,6.9,14.1,9.2,16.8c5,5.8,11.3,10.1,18.2,13.3c1.6,0.7,2.4-0.6,2.2-1.8
						c0.3,0,0.6-0.1,0.9-0.5C193,213.7,207.4,196.4,220.3,178.4z M183.4,147.1c0.4,0.8,0.7,1.8,1.5,2.2c0.1,0.1,0.1,0.1,0.3,0.1v0.1
						c-1.6,0.5-3.1,1-4.9,0c-1.1-0.6-2-1.7-2.3-2.9c-0.5-1.8,0.9-4.3,3.1-3.1c0.1,0.1,0.3,0.1,0.3,0.1c0.4,0.2,0.7,0.5,1.1,0.7
						c0,0.1,0,0.2-0.1,0.3C182.5,145.5,183,146.4,183.4,147.1z M184,153.2c-2.5,3-5,6.1-7.3,9.3c0,0,0,0-0.1,0
						c-1.9-0.8-3.5-1.2-5.1-2.6c-1.4-1.3-2.3-2.9-2.7-4.8c2.4-3.1,4.7-6.2,6.9-9.4c-0.1,1,0.1,2,0.5,2.9
						C177.3,151.3,180.9,153.6,184,153.2z M184.1,143c-0.2,0.1-0.4,0.3-0.6,0.4c-0.3-0.2-0.7-0.4-1.2-0.5c0.1-0.1,0.1-0.2,0.2-0.3
						c0.5,0.1,1,0.1,1.5,0.1C184.1,142.8,184.1,142.9,184.1,143z M182.4,112.4c-0.3,1.4-0.5,2.8-0.7,4.2c-0.1-1.6-0.1-3.1-0.3-4.6
						C181.7,112.2,182.1,112.3,182.4,112.4z M179.6,111.6c0-0.1,0-0.1,0.1-0.1c0.3,0.1,0.6,0.1,1,0.1c0.1,0.1,0.3,0.1,0.5,0.3
						c-0.8,5-0.5,10.5,0.4,15.9c0.3,4.8,1,9.6,2.3,14c-0.4,0-0.8,0.1-1.2,0.2c0-0.1,0-0.2-0.1-0.3c-4.3-9.2-5.8-18.7-3.9-28.5
						C178.9,112.6,179.2,112.1,179.6,111.6z M176.2,228.1c-0.3,0.3-0.3,0.7-0.3,1.1c-12.5-5.7-20.9-15.5-27-27.5l0,0
						c0.4-0.5-0.1-1.2-0.7-1.1l0,0c-0.3-0.1-0.6-0.1-0.7,0.1c-2.9,0.5-6.4,0.1-7.6-3c-1.4-3.4,1.7-5.8,4.3-7.1
						c1.2-0.6,0.4-2.7-0.8-2.8c-0.1,0-0.1,0-0.1,0c-0.7-3-1.6-5.8-1.8-9c-0.1-1.6,0-3.2,0.1-4.8c0.5,0.5,1.2,0.5,1.6-0.3
						c3.1-7.1,6.5-14.1,10-20.9c1.6-2.9,3.3-5.6,5-8.4c5.8-9.6,12.2-18.7,18.3-28.1c-1.6,8.6-0.5,17.7,3.7,25.5c-1-0.2-2,0-2.9,0.7
						c-0.2-0.3-0.6-0.4-0.9-0.1c-3.1,3.5-6,7.4-8.8,11.1c-0.3,0.1-0.5,0.3-0.5,0.7c-0.1,0.1-0.3,0.3-0.3,0.5
						c-0.5,0.6,0.1,1.6,0.6,1.7c1,4,4.1,8.4,8.2,8.6c0.3,0.5,0.8,0.8,1.2,0.3c3.7-4.3,7.1-8.9,10.3-13.7c0,0,0,0,0.1-0.1
						c0,0,0-0.1,0.1-0.1c0.1-0.1,0.1-0.1,0.1-0.1c4.1,5,9.6,9,14.5,13.2c0.5,0.5,1.1,0.9,1.6,1.4c4.6,4.3,9.3,8.4,14.3,12
						c0.3,0.3,0.7,0.1,0.8-0.3c0.2,0.1,0.4,0.3,0.6,0.4C204,193.9,189.8,211,176.2,228.1z"/>
					<path class="st1" d="M157.9,184.1c-4.1,0.1-6.1-2.1-7.6-5.7c-0.2-0.4-0.8-0.3-0.9,0.1c-1,4.8,4.1,8.9,8.6,8.6
						C159.7,186.9,159.6,184.1,157.9,184.1z"/>
					<path class="st1" d="M144.5,186.9c-0.8-5.2-1.7-10.2-1.4-15.6c0-0.6-1-0.9-1-0.2c-0.9,5.3-1.2,11.1,0.3,16.4
						C142.7,189.2,144.7,188.6,144.5,186.9z"/>
					<path class="st1" d="M152.3,196c0.3-0.6-0.4-1.4-1-0.8c-1.6,1.7-3.3,3.5-4.5,5.6c-0.7,1.2,1.2,3.2,2.2,1.8
						C150.3,200.6,151.3,198.2,152.3,196z"/>
					<path class="st1" d="M168.2,162.3c-4.4,6-10.3,11.9-13.8,18.5c-0.3,0.5,0.3,1,0.7,0.7c5.5-4.8,9.7-12,14.4-17.7
						C170.3,163,168.9,161.3,168.2,162.3z"/>
					<path class="st1" d="M175.8,153.1c-0.7-0.5-1.7-0.2-2,0.5c-0.4,0.8-0.1,1.8,0.6,2.4c0.7,0.5,1.7,0.2,2-0.5
						C176.9,154.7,176.6,153.6,175.8,153.1z"/>
					<path class="st1" d="M148.1,190.2c-2-1.4-3.4,2-1.6,3.3C148.5,194.9,149.8,191.5,148.1,190.2z"/>
					<path class="st1" d="M168.2,137.9c-0.1-0.9-1.4-1-1.6-0.1c-0.2,0.9,0,1.8-0.3,2.6c-0.3,0.9-2,1.8-2.1,0.3
						c-0.1-0.8,0.8-2.1,1.3-2.7c0.5-0.7,1.1-1.2,1.6-1.9c0.2-0.3-0.1-0.9-0.5-0.7c-2.2,0.7-5.5,5.7-2.9,7.6c1,0.7,2.5,0.5,3.5-0.3
						C168.2,141.4,168.4,139.5,168.2,137.9z"/>
					<path class="st1" d="M158.9,151.3c-0.7-0.9-2.1,0.1-1.7,1.1c0.5,1.2,0.5,2.4-1,3.1c-0.5,0.2-1.4,0.2-1.6-0.5
						c-0.2-0.8,0.9-1.3,1.5-1.3s0.6-1,0.1-1.1c-1.3-0.4-2.6,0.2-3.1,1.5c-0.5,1.4,0.4,3.1,1.8,3.6
						C158.6,158.9,161.1,154,158.9,151.3z"/>
					<path class="st1" d="M154.3,163.3c0.2-0.8-0.7-1.8-1.5-1.3c-1.3,0.9-1.1,2.5-2,3.6c-0.3,0.3-1.1,0.9-1,0.1
						c0.1-0.7,1.2-1.5,1.6-1.9c0.4-0.3-0.1-1.2-0.5-1c-1.4,0.3-2.7,1-3,2.6c-0.3,1.2,0.3,2.6,1.5,3.1
						C152.1,169.5,153.8,165.3,154.3,163.3z"/>
					<path class="st1" d="M219.6,179.9c0.1-0.5,0-1-0.1-1.6c-0.1-0.5-0.1-0.9-0.3-1.3c-0.1-0.2-0.4-0.1-0.5,0.1
						c-0.1,0.4-0.1,0.9-0.1,1.4s-0.1,1,0.1,1.4C218.9,180.3,219.5,180.5,219.6,179.9z"/>
				</g>
				<path class="st1" d="M147.3,202.3c-0.4-0.3-0.6,0.4-0.3,0.6C147.4,203.1,147.6,202.5,147.3,202.3z"/>
			</g>
			<g>
				<path class="st1" d="M119.9,276.5c-4.3,2.1-5.6,7.6-3.5,11.8c0.2,0.4,0.9,0.2,0.7-0.3c-1.7-3.9,0.1-8.2,3.6-10.4
					C121.2,277.2,120.4,276.2,119.9,276.5z"/>
				<path class="st1" d="M159,326.2c-16.2,13.2-35.9-21.2-40.4-32.8c-0.1-0.3-0.7-0.2-0.5,0.1c4.6,12.5,24.7,48,42.3,34.2
					C161.2,326.9,159.9,325.5,159,326.2z"/>
				<path class="st1" d="M184.8,337.5c-5.7-12.8-23.4-51.7-42.2-31.2c-0.2,0.3,0.3,0.6,0.5,0.4c19.2-17.8,34,17.9,40.3,31.2
					C183.9,338.8,185.2,338.4,184.8,337.5z"/>
				<path class="st1" d="M173.7,342.4c-4-7.9-8.4-16.4-13.4-23.6c-2.8-4-7.1-6.9-11.8-4.1c-0.4,0.2,0.1,0.7,0.4,0.6
					c8.4-3.3,12.5,8.3,15.5,13.6c2.6,4.7,5.1,9.5,7.9,14.1C172.8,343.6,174.2,343.3,173.7,342.4z"/>
				<path class="st1" d="M163.6,337.6c-1.8-3-3.7-5.8-5.6-8.7c-0.2-0.3-0.9-0.2-0.6,0.3c1.7,3,3.3,6,5.2,8.9
					C162.9,338.7,164.1,338.3,163.6,337.6z"/>
				<path class="st1" d="M165.9,332.5c-5.6,7.8-5,17.9,2.2,24.4c0.4,0.3,1.1-0.1,0.6-0.5c-6.5-6.3-7.3-15.8-1.4-22.8
					C168,332.8,166.5,331.6,165.9,332.5z"/>
				<path class="st1" d="M198.8,337.2c-3.6,1.2-27,10-27.4,2.6c0-0.3-0.5-0.6-0.7-0.2c-2.8,10.6,25.5,0.2,28.8-1
					C200.4,338.2,199.6,336.9,198.8,337.2z"/>
				<path class="st1" d="M212.2,349c-12.5,6.3-25.7,9-39.6,9.3c-0.4,0-0.3,0.6,0.1,0.6c14.1,1,27.7-2.2,40.3-8.5
					C213.8,350,213,348.5,212.2,349z"/>
				<path class="st1" d="M211.2,330.7c-0.3-0.5-1.2-0.2-0.8,0.3c1,1.6-2.6,2.8-3.6,3.3c-1.1,0.5-2.1,1.2-3.2,1.8
					c-0.3,0.2,0.1,0.6,0.3,0.5c2-0.9,4.1-1.7,5.9-2.9C211,333,211.8,332,211.2,330.7z"/>
				<path class="st1" d="M235.1,318.8c-10.1-2.9-41-7.9-38.3,11.3c0.1,0.3,0.7,0.4,0.7,0c-1.4-18.1,27.4-12.3,37-9.3
					C236,321.3,236.5,319.3,235.1,318.8z"/>
				<path class="st1" d="M231.1,329.6c-5.1-0.2-10.3-0.5-15.4-0.5c-2.7,0-4.8,0.3-6,2.9c-0.1,0.3,0.4,0.7,0.7,0.3
					c2.2-3.3,8.3-1.7,11.5-1.5c3.1,0.2,6.1,0.3,9.2,0.5C232.2,331.5,232.1,329.7,231.1,329.6z"/>
				<path class="st1" d="M197.2,332.8c-0.1-0.3-0.7-0.4-0.7,0c0,0.7,0,1.4,0,2.2c0,0.7,1.1,0.7,1,0
					C197.5,334.3,197.4,333.5,197.2,332.8z"/>
				<path class="st1" d="M200,319.9c-7.3,0.9-14.3,2.9-21.1,5.8c-0.3,0.1-0.1,0.7,0.3,0.5c6.9-2.3,13.9-3.9,21.1-5
					C201.3,321.2,200.8,319.9,200,319.9z"/>
				<path class="st1" d="M197.2,332.2c-4.4,0.8-9,2.2-13.2,3.7c-0.3,0.1-0.1,0.7,0.2,0.6c4.5-0.6,9.2-1.6,13.4-2.9
					C198.7,333.3,198,332,197.2,332.2z"/>
				<path class="st1" d="M185,338.3c-0.1-0.3-0.7-0.4-0.7,0c0,1.1-0.1,2.4,0.2,3.4c0.1,0.5,1.1,0.7,1.2,0
					C185.8,340.6,185.3,339.4,185,338.3z"/>
				<path class="st1" d="M164.3,351.8c-5.8,0.5-9.2-7.1-12-11.1c-3-4.2-6-8.4-9-12.4c-0.2-0.3-0.8-0.1-0.5,0.3
					c4.3,6.7,8.4,13.5,13.1,19.9c2.2,3.1,4.8,5.4,8.8,5C165.9,353.3,165.3,351.7,164.3,351.8z"/>
				<path class="st1" d="M172.5,342.5c-5.2,3.1-6,10-1.8,14.3c0.3,0.3,0.8,0,0.5-0.4c-3.5-4.3-2.6-10.1,2-13.2
					C173.6,342.9,172.9,342.2,172.5,342.5z"/>
				<path class="st1" d="M152.1,314.2c-6.1,1.8-12.4-11.6-15.1-15.9c-3.1-4.7-6.2-9.4-9.3-14.1c-0.2-0.3-0.8-0.1-0.5,0.2
					c5.3,8.5,10.7,16.9,16,25.5c2.4,3.9,5,7.8,10.1,6.1C154.2,315.5,153.1,313.9,152.1,314.2z"/>
				<path class="st1" d="M162.5,324.6c-0.5,0.3-0.9,0.7-1.3,1.2s0.1,1.1,0.6,0.9c0.6-0.3,1.2-0.5,1.7-0.9
					C164.4,325.2,163.3,324.1,162.5,324.6z"/>
				<path class="st1" d="M132.2,283.6c-2.1,1.4-2.8,4.5-1.5,6.6c0.2,0.3,1,0.3,0.7-0.2c-0.6-2-0.1-4,1.6-5.4
					C133.7,284,132.8,283.2,132.2,283.6z"/>
				<path class="st1" d="M145.1,277.1c0.3-0.3,0.7-0.7,1.1-1c-0.2-0.3-0.5-0.5-0.7-0.7c-4.8-4.7-11.6-6.6-17.3-2.5
					c-0.3,0.3,0.1,0.7,0.5,0.5C134.9,269.5,140.4,272,145.1,277.1z"/>
				<path class="st1" d="M163.3,304.3c-3.4-6.9-7.3-15-12-21.9c-0.4,0.4-0.9,0.7-1.4,1.1c4.3,6.8,7.8,14.9,10.6,19.8
					c1,0.4,2,1,2.9,1.5C163.5,304.7,163.5,304.5,163.3,304.3z"/>
				<path class="st1" d="M243.6,356.3c-10.3-0.9-20.6-1-31-1h-0.1c-2.2-0.2-4.1-1.2-5.5-3c-0.2-0.3-0.7-0.1-0.5,0.3
					c1,2.4,3.5,4.1,6.2,4c0.2,0,0.3-0.1,0.4-0.2c10.2,1,20.4,1.8,30.6,2C245.1,358.4,244.7,356.4,243.6,356.3z"/>
				<path class="st1" d="M220,330.3c-0.4-0.5-1.3-0.3-1,0.4c1.6,3.7,2,7.2,0.5,11c-0.3,0.7,0.8,1.1,1.2,0.5
					C222.4,338.5,222.3,333.8,220,330.3z"/>
				<path class="st1" d="M219.9,341.7c-1.6,1.5-2.8,3.4-3.9,5.2c-0.3,0.3,0.3,0.9,0.7,0.6c1.6-1.4,3.3-2.9,4.6-4.7
					C221.6,342.1,220.5,341.1,219.9,341.7z"/>
				<path class="st1" d="M259.5,371.8c-6.5-6-33.1-31.5-18.3-38.8c0.1-0.1,0.1-0.1,0.2-0.1c1.9,1.1,3.3,2.6,5.1,3.9
					c0.4,0.3,1.4,0,1.1-0.6c-1.8-4.8-9-7.2-13.7-5.6c-0.3,0.1-0.1,0.6,0.1,0.6c2.1,0.1,4.1,0.3,6,1.1c-4.3,1.4-5.8,4.3-5.5,7.9
					c-4.3-0.1-8.6,0-13,0.1c-0.6,0-0.4,0.9,0.1,1c4.3,0.3,8.8,0.6,13.1,0.7c2.4,11.3,19.2,27.9,22.9,31.3
					C258.9,373.9,260.6,372.8,259.5,371.8z"/>
				<path class="st1" d="M247.2,338.2c-0.1-0.3-0.7-0.4-0.7,0c0.1,0.7,0,1.5,0.1,2.2c0.1,0.7,1.2,0.6,1.2-0.1
					C247.7,339.6,247.4,338.9,247.2,338.2z"/>
				<path class="st1" d="M290.4,378c-2.9-4.5-6.5-8.5-10.7-11.8c-2.5-1.9-6.9-5.2-10-2.9c0-0.3-0.1-0.6-0.5-0.9
					c-4.5-3.3-8.6-7-12.5-10.9c0.4,0.2,1,0.2,1.3-0.2c7.5-10.8,0.1-25.1-11.5-28.7c-0.4-0.1-0.5,0.4-0.2,0.5
					c11.7,5.1,13.8,16.2,9.7,27.1c-0.1,0.2-0.1,0.5,0.1,0.7c-1.4-1.5-2.9-3.1-4.2-4.7c-0.3-0.3-0.9-0.1-0.6,0.3
					c4.5,6.9,10.1,12.7,16.6,17.6c0.5,0.3,1,0.3,1.3,0c0.1,0.1,0.2,0.1,0.3,0.1c5.2-0.4,8.3,2.9,11.8,6.2c2.6,2.6,5,5.4,7.1,8.4
					C289.2,380.1,291.1,379.2,290.4,378z"/>
				<path class="st1" d="M241.3,330.6c-0.1,0-0.1,0.1-0.2,0.1l0,0H241c-0.1,0.1-0.3,0.1-0.4,0.1c-0.3-0.5-1-0.8-1.5-0.4
					c-0.1,0.1-0.1,0.1-0.3,0.2c-0.1,0-0.2-0.1-0.3,0s-0.2,0.1-0.3,0.3c-0.1-0.1-0.3-0.1-0.3,0c-1.6,1.2-2.7,3.1-2.7,5
					c-0.1,0.7-0.2,1.5-0.1,2.2c0.1,0.7,1.4,1.1,1.4,0.2c0-0.3,0.1-0.7,0.1-1.1c0-0.1,0.1-0.1,0.1-0.2c0.1-0.4,0.1-0.7,0.1-1.2l0,0
					c0.1,0,0.1-0.1,0.1-0.1c0.5-0.5,1-1,1.4-1.6c0.1-0.1,0.1-0.1,0.2-0.2c1.1-0.6,2.2-1.2,3.3-1.8
					C242.8,331.8,242.3,330.4,241.3,330.6z"/>
				<path class="st1" d="M278.9,352.2c-3.5-7.1-7.7-14.1-13-20.1c-3.6-4.1-8-7.5-13.9-6.5c-0.6,0.1-0.3,0.8,0.2,0.8
					c8.2-0.2,12.6,7,16.6,12.8c3.1,4.4,5.6,9,8.1,13.7C277.6,354.1,279.6,353.5,278.9,352.2z"/>
				<path class="st1" d="M266.4,353.2c-1.7-2.9-4.1-5.4-6.4-7.9c-0.3-0.3-0.8-0.1-0.6,0.3c1.7,2.9,3.3,5.9,5.5,8.4
					C265.5,354.7,266.9,354.2,266.4,353.2z"/>
				<path class="st1" d="M294.8,365c-4.8-11.2-22.9-19.7-31.2-7.3c-0.3,0.5,0.4,1.2,0.8,0.7c4.9-4.6,11.1-6.2,17.5-3.6
					c5.3,2.2,8.3,6.5,11.8,10.8C294.2,366.3,295.1,365.8,294.8,365z"/>
				<path class="st1" d="M276.8,366.6c-2.3,5.5-7.3,8.8-13.4,7.9c-0.4-0.1-0.5,0.5-0.1,0.6c6.5,1.9,13.5-1,15.8-7.7
					C279.6,366.2,277.4,365.2,276.8,366.6z"/>
				<path class="st1" d="M289.6,377.7c-0.4-0.8-1.6-0.4-1.3,0.5c0.5,1.5,1.9,3.1,1.8,4.7c-0.1,0.8-0.4,1.4-1,1.9
					c-4.6-4.3-8.2-9-12.1-13.8c-0.3-0.3-0.7-0.1-0.5,0.3c2.9,5.2,7.4,10.1,11.8,14.1c-0.7,0.3-1.5,0.6-2.2,1
					c-0.4,0.2-0.1,0.7,0.3,0.7c2-0.1,4.3-1,5-3.1C291.9,382,290.4,379.4,289.6,377.7z"/>
				<path class="st1" d="M301,379.2c-0.4-3.3-2.2-6.9-4.3-9.2c-0.3-0.3-0.8-0.1-0.6,0.3c1,1.6,2,3.1,2.6,5c0.4,1.2,0.6,2.4,0.7,3.7
					c0,0.1,0,0.1,0,0.2c1.6,9.4-7,17.7-16.3,12.8c-6.1-3.2-10.6-10.1-14.1-15.8c-0.2-0.3-0.9-0.2-0.7,0.3c4.2,7.5,11,19.4,21,19
					C297.8,395.1,303.1,387,301,379.2z"/>
				<path class="st1" d="M294.7,366.7c-2.6,0.3-5.1,1.9-6.5,4.1c-0.2,0.3,0.3,0.7,0.5,0.4c1.6-2,3.6-3.1,6.2-3.4
					C295.7,367.8,295.4,366.7,294.7,366.7z"/>
				<path class="st1" d="M296.8,364.1c-0.7-0.5-1.9-1.1-2.7-1c-0.3,0.1-0.3,0.3-0.2,0.5c0.5,0.7,1.8,1.2,2.6,1.4
					C297.1,365.2,297.2,364.4,296.8,364.1z"/>
				<path class="st1" d="M298.2,366.5c-0.2-0.3-0.7-0.1-0.5,0.3c0.3,0.7,0.4,1.5,0.3,2.2c-0.1,0.7-0.6,1.2-1,1.8
					c-0.5,0.6,0.5,1.3,1,1C299.6,370.7,299.3,367.9,298.2,366.5z"/>
				<path class="st1" d="M286.7,372.4c-0.1,0.4-0.3,0.9-0.4,1.3c-0.1,0.3,0.5,0.7,0.7,0.3c0.3-0.4,0.5-0.9,0.7-1.3
					C287.8,372.4,286.8,372,286.7,372.4z"/>
				<path class="st1" d="M275.6,382c-0.5,0.5-0.7,1.3-0.7,2s0.3,1.3,0.7,1.9c0.3,0.3,0.7,0,0.5-0.3c-0.6-0.9-0.3-2.2,0.3-3
					C276.7,382.1,276,381.6,275.6,382z"/>
				<path class="st1" d="M282.3,378.6c-1.4,0-2.8,0.7-4.1,1.2c-0.4,0.1-0.1,0.7,0.3,0.6c0.7-0.1,1.5-0.2,2.2-0.3s1.4-0.2,2-0.5
					C283.2,379.3,282.8,378.6,282.3,378.6z"/>
				<path class="st1" d="M288.3,394.3c-4.6-2.4-8.8-4.3-12.6-8.1c-2.6-2.6-4.8-5.6-6.7-8.6c0.3-0.1,0.5-0.4,0.4-0.7
					c0.1,0,0.1,0,0.1,0c-0.2,0.1-0.1,0.5,0.2,0.5c3.2,0.7,6.9-1.6,8.6-4.1c0.1-0.1,0.1-0.3-0.1-0.4c0-0.1,0.1-0.1,0.1-0.1
					c0.1-1.2,0.1-2.6-0.3-3.8c-0.2-0.7-1.4-1-1.5,0c0,0.5,0.1,1,0.1,1.5c-0.5,0-1,0.3-0.8,1c0,0,0,0-0.1,0.1
					c-0.1,0.1-0.1,0.3-0.3,0.4c-0.4,0.2-0.7,0.5-0.9,0.9c-0.1,0.1-0.1,0.1-0.2,0.1c-0.5-0.2-1.1-0.2-1.3,0.4
					c-0.1,0.1-0.1,0.3-0.2,0.4c-0.6-0.1-1.2,0.1-1.4,0.5c-0.3-0.1-0.7-0.1-0.9,0.2c0,0.1,0,0.1-0.1,0.1c-0.2,0-0.4,0.1-0.6,0.2
					c-0.5-0.2-1,0-0.9,0.6c0,0,0,0.1-0.1,0.1c-0.2-0.1-0.3,0-0.5,0.1c-0.3-0.5-0.7-0.8-1.2-0.9c-0.1,0-0.3,0-0.3,0.1
					c-0.1,0.1-0.1,0.1-0.1,0.2c-0.3-0.1-0.6,0-0.5,0.3c2.6,9.2,12,18.4,21.4,20.6C288.9,395.9,288.9,394.7,288.3,394.3z"/>
				<path class="st1" d="M138.3,282.2c0.7-0.3,1.4-0.6,2-1c-0.3-0.1-0.7-0.1-1.1-0.1c-0.1-0.3-0.4-0.7-0.9-0.6
					c-3.1,0.6-5.8,2.6-7.2,5.4c-0.1,0.3,0.3,0.7,0.5,0.4c1.3-1.4,2.9-2.6,4.6-3.4c0.3-0.1,0.5-0.1,0.8-0.2c-0.1-0.1-0.1-0.1-0.3-0.1
					c0.3-0.1,0.5-0.2,0.7-0.3C137.7,282.2,138,282.2,138.3,282.2z"/>
				<path class="st1" d="M141.7,288.1c-0.4,0.1-0.9,0.3-1.3,0.4c0.9,1.6,1.6,3.3,2.2,4.4c1.7,3.3,3.1,6.7,4.4,10.2
					c0.1,0.1,0.1,0.3,0.3,0.4c0.6-0.3,1.2-0.6,1.9-0.8c-1.8-4.7-4.1-9.2-6.7-13.4C142.1,288.9,141.9,288.5,141.7,288.1z"/>
				<path class="st1" d="M116,282.6c-7.8-6.8-12.8-15.4-12-26c0-0.3-0.6-0.6-0.6-0.2c-1.3,10.4,2.6,21.7,11.7,27.6
					C115.9,284.6,116.8,283.3,116,282.6z"/>
				<path class="st1" d="M162.3,258.1c0.1-1.2-2-1.6-2-0.1c-1.2,16.8-10.7,32.9-29.5,30.9c-0.5-0.1-0.4,0.6-0.1,0.7
					C150.2,296.2,161.4,273.7,162.3,258.1z"/>
				<path class="st1" d="M151.1,257.6c-0.2-0.8-1.7-0.9-1.6,0.1c1.4,12-4.1,19.1-14.1,24.6c-0.5,0.3-0.1,1,0.4,1
					C147.2,281,153.4,268.2,151.1,257.6z"/>
				<path class="st1" d="M122.6,273.3c-5.5-5-7.9-10.9-5.8-18.2c0.3-1-1.5-2-1.9-0.9c-2.5,6.9,0.4,16.6,7.5,19.7
					C122.6,274,122.9,273.5,122.6,273.3z"/>
				<path class="st1" d="M162.2,252.8c-7-27.6-46.3-31.7-57.8-5.2c-0.2,0.4,0.4,0.8,0.7,0.4c5.9-10.1,16.7-17.2,28.8-16.4
					c12.3,0.9,22.3,10.1,26.2,21.5C160.5,254.5,162.5,254.3,162.2,252.8z"/>
				<path class="st1" d="M150.3,252.4c-5.9-12.5-24.7-21.1-33.1-6c-0.2,0.3,0.3,0.7,0.5,0.3c3.9-5.7,11.3-7.7,17.8-5.7
					c6.2,2,9.9,6.9,12.9,12.3C149.1,254.7,150.9,253.8,150.3,252.4z"/>
				<path class="st1" d="M131.9,277c-1.8-2.2-4.1-3.4-6.9-3c-0.3,0.1-0.2,0.6,0.1,0.6c2.3,0,4.8,1,6.3,2.8
					C131.6,277.7,132.1,277.3,131.9,277z"/>
				<path class="st1" d="M134.3,282.6c-0.6-1.4-1.2-2.7-1.6-4.1c-0.1-0.3-0.7-0.3-0.5,0.1c0.4,1.4,0.7,2.9,1,4.3
					C133.3,283.5,134.6,283.3,134.3,282.6z"/>
				<path class="st1" d="M128.6,272.3c-3-1-7,0.5-7.8,3.7c-0.1,0.3,0.3,0.6,0.5,0.3c0.9-1,1.8-2,3-2.6c1.4-0.6,2.7-0.5,4.2-0.3
					C129.2,273.6,129.2,272.5,128.6,272.3z"/>
				<path class="st1" d="M149.7,257.1c-1.4-0.7-1.8-2.6-0.9-3.9c0.2-0.3-0.3-0.6-0.5-0.4c-1.5,1.6-1,4.1,1,5.2
					C149.8,258.2,150.2,257.4,149.7,257.1z"/>
				<path class="st1" d="M156.6,254.7c-2.3,0.2-4.6,0.5-6.9,0.7c-0.4,0.1-0.2,0.7,0.2,0.6c2.3-0.2,4.6-0.3,6.9-0.6
					C157.4,255.3,157,254.6,156.6,254.7z"/>
				<path class="st1" d="M160.8,252.8c-0.4,0-0.4,0.5-0.1,0.7c2.1,0.7,2.5,3.3,0.5,4.4c-0.7,0.4,0,1.6,0.7,1.2
					C165,257.6,164.2,253,160.8,252.8z"/>
				<path class="st1" d="M126.1,239.4c-7.1,2.6-12.4,10.7-11,18.3c0.1,0.3,0.7,0.4,0.7,0.1c0.8-7.6,4.1-13.4,11.1-16.9
					C127.9,240.4,127,239.1,126.1,239.4z"/>
				<path class="st1" d="M113.2,236.7c-6,3.7-10.3,10.7-9.9,17.9c0,0.3,0.6,0.5,0.7,0.1c1.6-6.9,4.6-12.4,10.3-16.8
					C114.8,237.5,113.9,236.3,113.2,236.7z"/>
				<path class="st1" d="M118.9,276.2c-8.6-7-10.7-17-6-27c0.1-0.3-0.3-0.7-0.5-0.3c-5.3,9.5-2.6,21.5,6,28
					C118.8,277.1,119.3,276.5,118.9,276.2z"/>
				<path class="st1" d="M132.8,238.4c-6.2-2-13.3-0.3-17.7,4.7c-0.3,0.3,0.2,0.7,0.5,0.5c4.9-4.2,10.7-5.8,17-4.3
					C133.2,239.4,133.4,238.6,132.8,238.4z"/>
				<path class="st1" d="M288.3,385.9c-3.5,0.2-6.7-0.5-8.8-3.6c-0.1-0.1-0.3-0.1-0.3,0.1c1.9,3.1,5.4,5.4,9.2,4.3
					C288.9,386.6,288.7,385.9,288.3,385.9z"/>
				<path class="st1" d="M222.3,342.2c-2,5.6-6,9.9-11.6,12c-0.2,0.1,0,0.3,0.1,0.3c5.6-1.9,10.3-6.3,12-12.1
					C222.9,342.1,222.4,341.9,222.3,342.2z"/>
				<path class="st1" d="M229.5,354.5c-1.8-4.3-1.6-8.8,1-12.8c0.1-0.3-0.3-0.5-0.5-0.3c-2.5,4-3,8.9-0.8,13.1
					C229.3,354.8,229.6,354.7,229.5,354.5z"/>
				<path class="st1" d="M208.8,352.5c-0.1-0.2-0.4-0.2-0.3,0c0.1,0.6,0.1,1.2,0.2,1.8c0.1,0.3,0.5,0.3,0.4,0
					C209.1,353.7,209,353.1,208.8,352.5z"/>
				<path class="st1" d="M210.3,351.5c0-0.2-0.4-0.3-0.4,0c0,1,0,1.9,0,2.9c0,0.3,0.4,0.3,0.4,0
					C210.3,353.4,210.3,352.4,210.3,351.5z"/>
				<path class="st1" d="M211.3,350.8c0-0.2-0.3-0.3-0.3,0c0,1.1,0,2.2,0.1,3.3c0,0.3,0.5,0.3,0.5,0
					C211.5,352.9,211.4,351.9,211.3,350.8z"/>
				<path class="st1" d="M213,350.2c0-0.2-0.4-0.3-0.5-0.1c-0.1,1-0.2,2-0.2,2.9c0,0.3,0.5,0.4,0.5,0.1
					C212.9,352.2,213,351.2,213,350.2z"/>
				<path class="st1" d="M214.2,349.4c0-0.2-0.4-0.4-0.5-0.1c-0.1,1-0.1,2-0.2,2.9c0,0.4,0.7,0.5,0.7,0.1
					C214.2,351.3,214.3,350.4,214.2,349.4z"/>
				<path class="st1" d="M215.8,348.7c0-0.4-0.6-0.5-0.6-0.1c0,0.7,0,1.6,0,2.3c0,0.4,0.6,0.5,0.6,0.1
					C215.8,350.3,215.8,349.6,215.8,348.7z"/>
				<path class="st1" d="M217.2,347.6c0-0.4-0.7-0.5-0.7-0.1c-0.1,0.7-0.1,1.4-0.1,2.1c0,0.4,0.6,0.5,0.7,0.1
					C217.1,348.9,217.1,348.3,217.2,347.6z"/>
				<path class="st1" d="M218.3,345.5c0-0.3-0.5-0.3-0.5,0c0,1.1,0,2.2,0,3.2c0,0.3,0.4,0.3,0.4,0
					C218.3,347.7,218.3,346.6,218.3,345.5z"/>
				<path class="st1" d="M219.5,344.3c0-0.3-0.7-0.5-0.7-0.1c-0.1,1.3-0.2,2.6-0.3,3.9c0,0.3,0.5,0.5,0.6,0.1
					C219.4,346.9,219.4,345.5,219.5,344.3z"/>
				<path class="st1" d="M220.2,343.8c0-0.4-0.6-0.5-0.6-0.1c-0.1,0.8-0.1,1.6-0.1,2.4c0,0.3,0.5,0.5,0.6,0.1
					C220.1,345.4,220.2,344.6,220.2,343.8z"/>
				<path class="st1" d="M222.8,340.2c0.1,0,0.1-0.1,0.1-0.1c0.1-0.4-0.1-1-0.5-1.3c0.7-3-0.2-6.5-2-8.8c-0.4-0.5-1.2-0.4-1.4,0
					c-3-0.8-6.3-0.1-8.6,2c-1.4,0.5-2.9,1-4.3,1.4c-0.8,0.2-1.6,0.3-2.4,0.4c-1.9,0.2-7.3,0.3-6.1-3.8c0.1-0.2-0.2-0.3-0.3-0.1
					c-0.1-2.8,0.9-5.6,2.8-8.2c0.1-0.2-0.1-0.5-0.3-0.3c-4.1,4.3-5,10.6-2,15.7c0.5,0.8,1.8,0.3,1.3-0.7c-0.1-0.1-0.1-0.1-0.1-0.3
					c0-0.8-0.1-1.6-0.1-2.4c0.3,0.1,0.6,0.3,1,0.4c-0.1,1-0.1,2,0,3c0,0.2,0.5,0.4,0.5,0.1c0.1-1,0-2-0.1-3c0.2,0.1,0.4,0.1,0.6,0.1
					c0.1,0,0.1,0,0.1,0c0,0.7,0,1.4,0.1,2.1c0.1,0.3,0.5,0.4,0.5,0.1c0-0.7-0.1-1.4-0.1-2.1c0.3,0,0.7,0.1,1.1,0.1
					c0.1,0.5,0.1,1.2,0.2,1.7c0.1,0.3,0.5,0.3,0.5,0c-0.1-0.5-0.1-1.1-0.3-1.7c0.5,0,0.9-0.1,1.4-0.1c0,0.3,0,0.6,0,1
					s0.5,0.4,0.5,0.1c0-0.3-0.1-0.7-0.1-1c2.3-0.4,4.6-1.3,6.7-2.1c0.1-0.1,0.1-0.1,0.1-0.2c2.6-1,5.2-1.2,8.1-0.5
					c1.5,2.9,1.6,5.7,1.2,9.1c0,0.1,0.1,0.3,0.2,0.4c-0.1,0-0.1,0.1-0.2,0.2c0,0.1-0.1,0.2-0.1,0.3c-0.1,0.1-0.1,0.3-0.2,0.4
					c-0.1,0.1,0,0.3,0.1,0.5c-0.2,1.1-0.3,2.1-0.4,3.2c0,0.3,0.5,0.7,0.6,0.2c0.1-0.3,0.1-0.7,0.2-1c0.1,0.3,0.7,0.5,0.7,0.1
					c0.1-0.3,0.1-0.7,0.1-1.1c0.2,0.1,0.5,0.1,0.5-0.1C222.8,342.8,222.8,341.5,222.8,340.2z M197.7,332.8c0.2,0.3,0.5,0.5,0.8,0.8
					c0,0.5,0,1,0,1.5C198.2,334.4,197.9,333.6,197.7,332.8z"/>
				<path class="st1" d="M196.4,355.8c-5.2-2.5-7.3-8.2-5-13.5c0.1-0.1-0.2-0.3-0.3-0.1c-2.5,5.5-0.4,11.5,5,14.2
					C196.5,356.5,196.8,356,196.4,355.8z"/>
				<path class="st1" d="M176.4,321.8c-1.6,3.9-4.5,6.9-9,7.2c-0.2,0-0.1,0.3,0.1,0.3c4.1-0.2,8.6-3,9.5-7.3
					C177.1,321.8,176.5,321.4,176.4,321.8z"/>
				<path class="st1" d="M137.1,300.4c-4.4,0.7-8.3,3.1-11,6.6c-0.1,0.1,0.1,0.4,0.3,0.3c2.9-3.4,6.6-5.5,10.9-6.2
					C137.7,301,137.5,300.4,137.1,300.4z"/>
				<path class="st1" d="M156.8,292.8c-3.5-0.6-6.8,0.1-9.8,2c-0.1,0.1,0,0.3,0.1,0.3c2.9-1.8,6.3-2.4,9.6-1.6
					C157.3,293.6,157.3,292.8,156.8,292.8z"/>
				<path class="st1" d="M143.6,305.3c-0.3,0.3-0.5,0.5-0.9,0.9c-0.1,0.1-0.1,0.1-0.1,0.2c-0.3,0.3-0.6,0.7-0.9,1.1
					c-0.3,0.3,0.2,0.8,0.5,0.5c0.4-0.3,0.7-0.7,1.2-1.1h0.1c0.3-0.2,0.5-0.5,0.8-0.7c0.1-0.1,0.1-0.2,0.1-0.3
					C144.5,305.5,143.9,304.9,143.6,305.3z"/>
				<path class="st1" d="M267.5,374.2c-10.5,3.7-18.1-10.9-23.9-17c-0.2-0.2-0.5-0.1-0.4,0.2c0,0.1,0.1,0.1,0.1,0.2
					c-6.7-0.3-13.4-0.6-20-0.9c-4.8-0.2-10.5,0.2-14.9-2.2c0.8-0.4,0.3-1.8-0.7-1.6c-0.4,0.1-0.8,0.2-1.2,0.3
					c-0.3-0.2-0.5-0.4-0.7-0.7c-0.3-0.3-0.8,0-0.5,0.4c0.1,0.1,0.2,0.3,0.3,0.5c-6.9,1.6-13.7,3.3-20.5,4.8
					c-7.5,1.7-16.8,2.2-20.5-6.1c-0.1-0.2-0.5-0.3-0.5,0c0,0.1,0.1,0.3,0.1,0.4c-0.1-0.1-0.3-0.1-0.4-0.1c-6.2-0.2-9-6.4-11.9-10.9
					c-2.5-4-5.1-8-7.7-11.9c0.1-0.3,0-0.5-0.2-0.8c-0.3-0.2-0.5-0.5-0.7-0.7L143,328c-0.1-0.1-0.1-0.1-0.3-0.2
					c-6.5-6-12.3-12-16.9-19.6c-2.4-3.9-4.4-7.9-6.1-12.2c-1.7-4.3-2.6-9-4.3-13.2c-0.1-0.2-0.4-0.3-0.4,0
					c-0.1,4.5,1.8,9.3,3.3,13.4c1.7,4.3,3.7,8.6,6.1,12.6c4.7,7.9,10.9,15.7,18.5,21.1c0.1,0.1,0.2,0.1,0.3,0.1
					c3.2,5.6,6.5,11.1,9.9,16.4c2.4,3.8,5.6,7.7,10.5,7.5c0.3,0,0.5-0.1,0.7-0.3c2,5.6,8.8,7.6,14.3,7.3c4.6-0.3,9.2-1.6,13.8-2.6
					c4.8-1.1,9.5-2.2,14.3-3.3c3.1,2.8,8,3.1,12,3.3c8.2,0.4,16.5,0.8,24.7,1.2c0.2,0,0.3-0.1,0.5-0.1c2.3,4.9,6.8,9.4,10.7,12.8
					c3.9,3.3,8.8,5.8,13.8,3.7C269.5,375.4,268.4,373.9,267.5,374.2z"/>
				<path class="st1" d="M289.3,383.7c-6.1-3.9-8.3-9.3-10.1-16c-0.1-0.3-0.7-0.5-0.8-0.1c-0.8,6.9,4.4,14.1,10.1,17.5
					C289.5,385.7,290.2,384.3,289.3,383.7z"/>
				<path class="st1" d="M259,345.7c-0.3-0.1-0.5,0.1-0.4,0.4c2.8,3.8,6.8,6.9,4.1,12c-0.5,0.8,0.8,1.6,1.4,0.9
					C267.7,354.2,263.3,348.2,259,345.7z"/>
				<path class="st1" d="M198.8,337.3c-0.3-0.7-0.7-1.4-1.2-2.1c-0.4-0.7-0.7-1.4-1.3-2c-0.1-0.1-0.1-0.1-0.2-0.1
					c-0.1-0.3-0.5-0.6-0.9-0.5c-3.3,0.6-7.2,2-10.3,3.5c-0.1,0-0.1,0-0.1,0s0,0.1-0.1,0.1c-0.3,0.1-0.5,0.3-0.8,0.4
					c-0.5,0.3-0.1,0.9,0.3,0.8c0.1,0,0.1,0,0.1,0c0,0.2,0.1,0.4,0.1,0.5c0.1,0.9,0.2,1.9,0.5,2.8c0.3,0.7,1.5,0.8,1.4-0.1
					c-0.1-1-0.3-1.9-0.5-2.8c-0.1-0.2-0.1-0.5-0.2-0.7c3.4-0.7,7.1-1.8,10.1-3.2c0,0,0,0,0.1,0c0.2,0.6,0.4,1.2,0.7,1.8
					c0.3,0.7,0.5,1.4,1,2C198,338.3,199.1,338.1,198.8,337.3z"/>
				<path class="st1" d="M189.1,333.6c-3.1-2.5-3.4-6.7-1.2-9.9c0.2-0.3-0.3-0.6-0.5-0.3c-2.6,3.5-1.8,7.8,1.5,10.4
					C189.1,333.9,189.3,333.7,189.1,333.6z"/>
				<path class="st1" d="M185.2,330.3c-1.3,0.6-2.6,1.2-3.9,1.8c-0.2,0.1,0,0.4,0.2,0.3c1.3-0.6,2.6-1.2,3.9-1.8
					C185.7,330.5,185.4,330.2,185.2,330.3z"/>
				<path class="st1" d="M196.2,326.9c-3.1,0.5-6.1,1.4-9,2.7c-0.2,0.1,0,0.3,0.2,0.3c2.9-1.2,5.9-2,9-2.4
					C196.8,327.5,196.6,326.9,196.2,326.9z"/>
				<path class="st1" d="M253.1,324.6c-8.3-4.4-18.3-7.3-27.8-7.1c-0.3,0-0.3,0.4,0,0.5c9.5,1.7,18.1,3.9,27,8.1
					C253.3,326.6,254.1,325.2,253.1,324.6z"/>
				<path class="st1" d="M237.8,330.8c-5.5-0.9-11.4-0.7-16.9,0.2c-0.4,0.1-0.2,0.7,0.1,0.7c5.7-0.1,11.2,0.1,16.8,0.7
					C239.1,332.6,238.8,331,237.8,330.8z"/>
			</g>
		</g>
		<g>
			<path class="st1" d="M172.8,83.1c0.4-3.2,0.5-6.7,0.3-9.9c-0.1-0.7-1-0.7-1,0c0,0.3,0,0.7-0.1,1c-2.1,1.6-4.2,3.3-6.2,5
				c-0.1-0.1-0.4,0-0.3,0.2v0.1c-0.1,0.1-0.1,0.1-0.2,0.2c-0.3,0.2,0,0.7,0.3,0.6c0.1,0.8,0.1,1.6,0.2,2.4c0.1,1,0.1,2.1,0.4,3.1
				c0.1,0.3,0.6,0.4,0.7,0c1.8-1,3.7-2,5.5-3.1c0,0.1,0,0.3,0,0.3C172.4,83.3,172.8,83.4,172.8,83.1z M172,81.6
				c-1.8,1-3.5,2.3-5.1,3.5c0-0.9-0.2-1.8-0.3-2.6c-0.1-0.9-0.3-1.8-0.4-2.6c2-1.6,4-3.3,6-5c-0.1,2.2,0,4.4,0.2,6.6
				C172.2,81.6,172.1,81.6,172,81.6z"/>
			<path class="st1" d="M147.9,129.1c0-1.2-0.9-2.9-1.2-4.1c-0.5-1.6-1-3.3-1.5-4.9c0.1-0.1,0.1-0.1,0.1-0.1
				c0.3-0.3-0.1-1.2-0.6-0.7c-0.1,0.1-0.1,0.1-0.2,0.2c-0.5-0.1-1,0.3-1,0.9c-2.6,2.4-5.1,5-7.5,7.5c-0.3,0.3-0.3,0.8-0.1,1.1
				c1.8,3.1,5.8,4.5,9.2,3.1C146.4,131.4,147.9,130.5,147.9,129.1z M144.9,129.9c-2.4,1.3-5.6,0.7-7.3-1.4c2.1-2.2,4.2-4.5,6.1-6.8
				c0.3,1.3,0.7,2.6,1.2,3.8C145.5,127,146.7,128.9,144.9,129.9z"/>
			<path class="st1" d="M130.7,153.7c-0.9-1.3-1.8-2.6-2.6-3.9c-0.6-0.9-1.4-1-2.4-0.9c-0.2-0.2-0.5-0.2-0.6,0.1H125
				c-0.7,0.1-0.9,1.3-0.1,1.4c0.2,0,0.3,0.1,0.5,0.1c0.6,2,1.3,4,1.8,6c0.1,0.3,0.6,0.7,1,0.4c0.8-0.7,1.6-1.4,2.4-2.1
				C130.7,154.5,130.9,154.1,130.7,153.7z M126.7,150.5c0.8,1.2,1.6,2.3,2.4,3.5c-0.4,0.4-0.8,0.8-1.2,1.2c-0.6-1.5-1.2-3.1-1.7-4.6
				C126.4,150.5,126.5,150.5,126.7,150.5z"/>
			<path class="st1" d="M108.7,174.8c-1.7-2.3-4.5-3.9-7.4-3.7c-0.7,0.1-0.6,1.2,0.1,1.2c0.3,0,0.5,0,0.8,0.1
				c0.5,1.9,1.1,3.8,1.6,5.7c0.1,0.3,0.4,0.5,0.7,0.3c1.4-1,2.8-1.9,4.2-2.9C108.9,175.5,108.9,175.1,108.7,174.8z M104.4,177.3
				c-0.5-1.6-1-3.1-1.5-4.7c1.8,0.3,3.4,1.1,4.7,2.4C106.5,175.8,105.4,176.5,104.4,177.3z"/>
			<path class="st1" d="M180,245.3c0.1-0.1,0.1-0.1,0.2-0.1c0.2-0.1,0-0.5-0.2-0.3c0,0-0.1,0-0.1,0.1c0-0.1,0-0.1-0.1-0.1
				c-0.3-0.8-1.4-0.5-1.2,0.3c0.1,0.1,0.1,0.3,0.1,0.4c-2,1.2-3.9,2.5-4.3,4.9c-0.3,2,0.5,4,2.5,4.8c0.2,0.1,0.4,0,0.5-0.1
				C180,252.4,180.9,248.7,180,245.3z M177.1,253.7c-1.1,0.2-1.6-1.6-1.7-2.4c-0.1-1.1,0.3-2.1,1-2.9c0.7-1,1.7-1.7,2.6-2.4
				c0.2,1.2,0.3,2.4,0.1,3.5C178.9,250.2,178,253.6,177.1,253.7z"/>
			<path class="st1" d="M114.8,200c-3.1-1.5-6.2-3.2-9.4-4.2c-0.2-0.1-0.3,0-0.4,0.1c-0.1,0-0.1-0.1-0.1-0.1
				c-0.2-0.1-0.3,0.2-0.1,0.3c0,0,0,0,0.1,0c-0.1,0.3-0.1,0.7,0.3,0.9c0.7,0.4,1.5,0.8,2.3,1.2c1.4,1.5,2.2,3.3,2.6,5.3
				c0.1,0.3,0.4,0.7,0.7,0.5c1.4-1,2.8-2,4.2-2.9C115.3,200.9,115.2,200.2,114.8,200z M110.7,202.7c-0.5-1.4-1.2-2.8-2.1-3.9
				c1.5,0.7,3.1,1.3,4.6,1.9C112.3,201.4,111.5,202.1,110.7,202.7z"/>
			<path class="st1" d="M261.3,185.7c-1.8-1.8-4.3-3-6.9-3.1c0-0.1,0-0.1-0.1-0.1c-0.1-0.3-0.6-0.3-0.5,0.1v0.1
				c-0.3,0-0.5,0-0.8,0.1c-0.9,0.1-0.7,1.5,0.1,1.4c0.3,0,0.7,0,1,0c0.3,1.5,0.5,3.1,0.8,4.6c0.1,0.3,0.3,0.6,0.6,0.5
				c1.9-0.7,3.7-1.7,5.6-2.4C261.6,186.7,261.6,186.1,261.3,185.7z M255.7,188c-0.3-1.3-0.6-2.6-0.9-3.8c1.8,0.1,3.5,0.7,5,1.8
				C258.4,186.7,257,187.3,255.7,188z"/>
			<path class="st1" d="M193.9,129.8c4.3-0.3,6.1-6.2,3.7-9.4c-0.2-0.3-0.5-0.5-0.9-0.3c-3.3,2.8-4.6,7.2-3.3,11.3
				c0.1,0.5,0.9,0.3,0.7-0.2C194,130.8,193.9,130.3,193.9,129.8z M197,121.7c1.4,2.7-0.5,5.6-3.2,6.7
				C193.9,125.8,195.1,123.4,197,121.7z"/>
			<path class="st1" d="M98.3,142.4c-2.9-0.6-5.9-1.3-8.8-1.9c-4.3-2-8.6-4.1-12.9-6.1c-0.3-0.1-0.5,0-0.5,0.3
				c-0.8,3.4,2.4,4.4,5.2,5.1c3.2,0.7,6.4,1.4,9.6,2.1c1.4,0.6,2.7,1.3,4.1,1.9c0.4,0.2,0.6-0.4,0.3-0.6c-0.4-0.2-0.9-0.4-1.3-0.6
				c1.4,0.3,2.9,0.6,4.3,1C98.8,143.7,98.9,142.6,98.3,142.4z M78.4,137.1c-2.4-2.9,1.2-0.3,2.4,0.3c1.6,0.7,3.1,1.4,4.7,2.2
				c0.3,0.1,0.7,0.3,1,0.5C83.6,139.5,80.1,139.1,78.4,137.1z"/>
			<path class="st1" d="M132.6,76.7C121.8,60,109.5,44.1,98.1,27.9c0.1-0.1,0.1-0.1,0.2-0.1c0.2-0.1,0-0.5-0.2-0.4
				c-8.7,4.7,3.7,15.8,6.9,19.4c8.4,9.6,16.6,19.3,25.3,28.6c0.1,0.2,0.3,0.2,0.5,0.2c0.4,0.5,0.8,1.1,1.2,1.6
				C132.3,77.8,133,77.2,132.6,76.7z M111.8,52.8c-3.1-3.5-6.2-7-9.4-10.5c-2.9-3.2-10.4-10.3-4.8-14.2
				c8.8,12.6,17.3,25.7,26.3,38.3C120,61.9,115.9,57.4,111.8,52.8z"/>
			<path class="st1" d="M117.4,218c-1.9,0.5-3.8,1-5.7,1.5c-28.2,4.3-56.3,9-84.5,13c-0.5,0.1-0.4,0.7-0.2,1
				c4.4,4.5,10.5,5.2,16.6,4.4c7.7-1,15.3-3.5,22.8-5.4c17.1-4.4,34.3-8.8,51.4-13.2C118.5,219.1,118.1,217.8,117.4,218z
				 M49.3,235.6c-6.8,1.6-15,2.7-20.7-2c25.2-4.3,50.5-8.2,75.7-12.2c-11.1,2.9-22.1,5.7-33.1,8.6C63.9,231.8,56.6,233.8,49.3,235.6
				z"/>
			<path class="st1" d="M199.6,239.4c-1.2-2.2-1-4.5,0.2-6.7c0.2-0.4-0.2-1-0.6-1c0.3-0.3,0.6-0.5,1-0.8c0.2-0.2,0-0.5-0.2-0.4
				c-2.6,2-5.1,4.1-7.7,6c-0.1,0.1-0.2,0.3-0.2,0.4c0.3,1.7,0.6,3.4,0.9,5c0.1,0.3,0.4,0.5,0.7,0.5c1.9-0.7,3.8-1.4,5.7-2.1
				C199.7,240.2,199.8,239.7,199.6,239.4z M193.8,241c-0.2-0.7-0.5-1.5-0.5-2.2c-0.5-1-0.2-1.9,0.8-2.7c0.4-0.3,0.7-0.6,1.2-1
				c1.2-1,2.3-2,3.4-3c-1.4,2.2-1.5,4.8-0.5,7.2C196.8,239.8,195.3,240.4,193.8,241z"/>
			<path class="st1" d="M284.4,207.7c-3.4-0.1-6.8-0.2-10.2-0.3l0,0c-0.3-0.2-0.5-0.2-0.6,0c-0.2,0-0.4,0-0.5,0
				c-0.5,0-0.4,0.7,0.1,0.8c0.2,0,0.3,0,0.5,0c2.6,3.5,8.2,3.3,11.2,0.4C285.1,208.3,284.8,207.7,284.4,207.7z M275.3,208.3
				c2.5,0.1,5,0.3,7.5,0.4C280.5,210,277.7,209.8,275.3,208.3z"/>
			<path class="st1" d="M276.5,317.1c-5.6-3.9-11.2-8.2-16.8-12.2c-0.3-0.3-0.6,0.4-0.3,0.6c0.1,0.1,0.1,0.1,0.2,0.1
				c-0.1,0.2-0.2,0.5-0.1,0.7c2.9,6.6,9.8,10.9,16.8,11.8C276.9,318.3,276.8,317.4,276.5,317.1z M261,306.8c4.3,3.3,8.7,6.5,13,9.8
				C268.4,315,264.3,311.6,261,306.8z"/>
			<path class="st1" d="M129.1,107.5c-2.6-4.6-5.2-9.3-7.9-13.9c-0.1-0.3-0.5-0.3-0.7-0.1c-0.9,0.9-1.8,1.8-2.6,2.7
				c-0.2,0.2-0.1,0.5,0.1,0.7c3,3.5,5.9,6.9,9,10.3c0.5,0.5,1.1-0.3,0.7-0.8c-1.8-2.2-3.7-4.3-5.6-6.4c-0.5-0.6-2.5-2.2-2.6-3
				c-0.1-1,0.7-1.8,1.5-2.4c2.6,4.4,5.2,8.9,7.8,13.3C128.8,108.2,129.3,107.8,129.1,107.5z"/>
			<g>
				<path class="st1" d="M222.3,6c0,0.2,0,0.4,0,0.5l0.1-0.3c0.2-0.6,0.4-1.2,0.6-1.8c0.4-0.5,0.5-0.9,0.4-1.2
					C223,4.1,222.6,5.1,222.3,6z"/>
				<path class="st1" d="M220.8,2.6c0.1-0.1,0.3-0.3,0.4-0.4c0.2-0.2,0.4-0.2,0.6-0.1C221.9,2,222,2,222,1.9c-0.5-0.3-1-0.1-1.4,0.6
					C220.7,2.6,220.7,2.6,220.8,2.6z"/>
				<g>
					<path class="st1" d="M220.6,2.6c0.1,0,0.1,0,0.2,0.1c0.1-0.1,0.3-0.3,0.4-0.4c0.2-0.2,0.4-0.2,0.6-0.1C221.9,2.1,222,2,222,2
						C221.5,1.6,221,2,220.6,2.6z"/>
					<path class="st1" d="M223,4.4c0.4-0.5,0.5-0.9,0.4-1.2c-0.4,1-0.7,1.9-1.2,2.8c0,0.2,0,0.4,0,0.5l0.1-0.3
						C222.6,5.6,222.8,5,223,4.4z"/>
					<path class="st1" d="M217.3,22.8c0-0.1,0-0.1,0.1-0.1l0,0l0,0c0.3-1.1,0.7-2.2,1-3.2c0.3,0.1,0.6-0.1,0.7-0.5
						c0.1-0.3,0.2-0.7,0.3-1.1c1.8-5.1,3.5-10.3,5.2-15.4c0.1-0.2,0.1-0.4-0.1-0.5c-1.6-1.8-4.1-1-5.2,1c-1.2,2.1-1,5-1.3,7.3
						c-0.1,0.6-0.1,1.2-0.2,1.8c-0.1,0.5-0.2,1.2-0.3,1.7c-0.2,0.8-0.4,1.7-0.6,2.5c-0.1,0.2,0,0.4,0.1,0.5c0,0.1,0,0.1,0.1,0.1
						c-0.1,0.3-0.2,0.6-0.3,1s0.1,0.6,0.3,0.8c0,0.1,0,0.3-0.1,0.4c0,0.1,0,0.2,0.1,0.3c-0.1,0.3-0.2,0.6-0.3,1
						c-0.1,0.1,0,0.3,0,0.4c-0.1,0.5-0.3,1.2-0.4,1.7C216.2,23,217,23.3,217.3,22.8L217.3,22.8z M221.8,2.2
						c-0.2-0.1-0.4-0.1-0.6,0.1c-0.1,0.1-0.3,0.3-0.4,0.4c-0.1,0-0.1-0.1-0.2-0.1c0.4-0.7,0.9-1,1.4-0.6C222,2,221.9,2.1,221.8,2.2z
						 M222.3,6c0.4-1,0.7-1.9,1.2-2.8c0.1,0.3,0,0.7-0.4,1.2c-0.2,0.6-0.4,1.2-0.6,1.8l-0.1,0.3C222.2,6.4,222.3,6.2,222.3,6z"/>
				</g>
			</g>
			<g>
				<path class="st1" d="M180.8,32.3c-0.2,0-0.5,0.1-0.6,0.1c-0.1,0.1-0.1,0.2-0.2,0.3C180.3,32.5,180.5,32.4,180.8,32.3z"/>
				<path class="st1" d="M183.7,31.9c0.1,0,0.1,0,0.1,0c0.2-0.1,0.1-0.5-0.1-0.5c-0.1,0-0.3,0-0.3,0c-0.1-0.1-0.1-0.1-0.2-0.2
					c-0.2-0.1-0.4-0.1-0.5-0.1c-0.1-0.1-0.3-0.1-0.5-0.1c-0.3-0.1-0.6,0.1-0.7,0.3c0,0,0,0,0,0.1c-0.3,0-0.7,0.1-1,0.1
					c-0.7,0.1-1,0.1-1.2,0.9c-0.1,0.6,0,1.2,0.3,1.8c0.1,0.3,0.2,0.4,0.4,0.5c0.2,0.3,0.5,0.4,0.7,0.6
					C182.7,36.3,184.5,33.6,183.7,31.9z M180.2,32.5c0.1-0.1,0.3-0.1,0.6-0.1c-0.3,0.1-0.5,0.2-0.7,0.4
					C180,32.6,180,32.5,180.2,32.5z"/>
			</g>
			<path class="st1" d="M198.4,42.9c-0.4-0.3-0.8-0.5-1.2-0.8l0,0c0-0.1,0.1-0.1,0.1-0.1c0.1-0.1-0.1-0.5-0.3-0.3
				c-0.1,0.1-0.1,0.1-0.1,0.1c-0.2-0.1-0.5-0.2-0.7-0.3c-0.1,0-0.3,0.1-0.3,0.2c-0.3,0.6-0.5,1.2-0.8,1.8c-0.1,0.1-0.1,0.1-0.1,0.1
				c-0.1,0.1-0.1,0.2-0.1,0.3c0,0,0,0.1-0.1,0.1c-0.1,0.3,0,0.5,0.3,0.7c1.4,0.5,2.8,0,3.5-1.2C198.7,43.3,198.6,43,198.4,42.9z"/>
			<path class="st1" d="M160.3,54.1c-0.1-0.3-0.1-0.5-0.1-0.8c0.5,0,0.8-0.3,0.8-0.9c0-0.1,0-0.1,0-0.2c0-0.1,0-0.3-0.1-0.5
				l-0.1-0.1c-0.1-0.1-0.2-0.3-0.3-0.4c-0.6-0.8-1.2-1.6-1.8-2.4c-0.1-0.2-0.4-0.3-0.5-0.3c-0.3-0.3-0.7-0.6-1.1-0.9
				c-1.6-0.9-4-0.8-4.9,1.1c-0.8,1.7,0.1,3.9,1.7,4.9c1.8,1.2,4.1,0.6,5.8-0.3c0.1,0.3,0.1,0.5,0.2,0.8
				C160.1,54.3,160.4,54.3,160.3,54.1z"/>
			<path class="st1" d="M192.5,84.8c0-0.3-0.1-0.7-0.3-1c0-0.1,0-0.1,0-0.2c0-0.2-0.1-0.5-0.4-0.6c-0.1-0.5-0.4-1-0.8-1.1
				c-1.2-0.5-2.9,0.8-3.4,1.8c-0.6,1.2-0.3,2.6,0.7,3.4c0.2,0.1,0.4,0.3,0.6,0.4c0,0.2-0.1,0.4-0.1,0.5c0,0.3,0.2,0.6,0.5,0.5
				c0.5-0.2,0.8-0.5,1.2-0.8c0.5-0.1,0.9-0.3,1.2-0.6C192.7,86.6,192.8,85.7,192.5,84.8z"/>
			<path class="st1" d="M172.8,79.7c0.1-0.5-0.3-1-0.7-1.1c-0.1-0.1-0.2-0.3-0.3-0.3c0.7-1.1,1.3-2.2,2-3.3c0.2-0.3-0.3-0.8-0.6-0.5
				c-0.2,0.3-0.5,0.6-0.7,1c-0.2-0.3-0.7-0.4-1-0.1c-0.2,0.2-0.4,0.4-0.6,0.6c-0.3-0.3-0.7-0.5-1-0.1c-0.3,0.5-0.7,0.9-1,1.4l0,0
				c-0.1,0.1-0.1,0.1-0.1,0.1c-0.3-0.1-0.5-0.1-0.7,0.2c-0.5,0.8-1.2,1.6-1.7,2.4c-0.2,0.3-0.2,0.6-0.1,0.9c-0.1,0.3-0.1,0.7,0.1,1
				c-0.3,0.6-0.5,1.2-0.7,1.8s0.3,1.4,0.9,1.4c0.2,0.3,0.5,0.5,1,0.5C170.3,84.8,172.2,82.7,172.8,79.7z"/>
			<path class="st1" d="M146.5,128.7c-0.3-0.3-0.5-0.7-0.6-1c0.3-1.1,0.1-2.3-0.7-3.3c-0.1-0.1-0.1-0.1-0.2-0.1l0,0
				c-0.1-0.3-0.3-0.5-0.6-0.5c0-0.2,0-0.4-0.1-0.5c0-0.1-0.1-0.3-0.1-0.4c0.1-0.1,0.2-0.3,0.3-0.5c0.1,0,0.2,0,0.2-0.1
				c0.1-0.2,0.1-0.5,0.3-0.7c0.1-0.3-0.3-0.9-0.6-0.5c-0.3,0.5-0.7,1-1.1,1.4c-0.1,0-0.2,0.1-0.3,0.1c-0.2-0.1-0.4-0.1-0.6,0.1
				c-1.4,1.7-2.8,3.4-4.2,5.1c-0.3,0.4-0.7,0.8-1.1,1.2c-0.5,0.5,0.3,1.7,0.9,1.2c0.1-0.1,0.3-0.3,0.5-0.4c0,0.5,0.5,1.1,1,0.8
				c0.1,0.5,0.7,1,1.2,0.6c0.1-0.1,0.1-0.1,0.2-0.2c1.2,1.3,3.5,1.2,4.3-0.5c0.4-0.1,0.7-0.1,1.2-0.2
				C147,130.1,146.8,129.1,146.5,128.7z"/>
			<path class="st1" d="M128.2,105.9c-0.3-0.5-0.5-1.1-0.8-1.6c-0.1-0.3-0.5-0.5-0.7-0.4c-0.3-0.5-0.7-1-1-1.4
				c-0.2-0.3-0.3-0.7-0.5-1c0-0.1-0.1-0.3-0.1-0.3c-0.8-1.6-1.7-3.3-2.5-4.9c-0.2-0.4-0.5-0.5-0.8-0.5c-0.1-0.1-0.1-0.1-0.1-0.1
				c-0.1-0.2-0.3-0.3-0.3-0.3c0.3-0.5-0.4-1.3-1-1c-0.1,0.1-0.2,0.1-0.3,0.2c-0.3,0-0.6,0.2-0.7,0.5c-0.1,0.1-0.3,0.2-0.5,0.3
				c-0.3,0.2-0.3,0.6-0.1,0.9c0,0.1,0,0.1,0,0.1c-0.1,0.1-0.1,0.3-0.1,0.4c-0.2,0.5,0.5,1.4,1,1.2c0.2,0.2,0.4,0.5,0.5,0.7
				c0.7,1.1,1.4,2.2,2.1,3.3c0.3,0.4,0.6,0.5,0.9,0.4c0.7,1.2,1.5,2.3,2.2,3.5c0.3,0.4,0.6,0.5,0.9,0.4c0.2,0.3,0.4,0.5,0.6,0.7
				C127.5,107.9,128.7,106.9,128.2,105.9z"/>
			<path class="st1" d="M197.2,132.3c0.1-0.1,0.1-0.3,0.1-0.5l0,0c0-0.1,0.1-0.3,0.1-0.4c0.3-0.3,0.5-0.5,0.7-0.7
				c0.2-0.2,0-0.7-0.3-0.5c-0.1,0.1-0.3,0.1-0.5,0.2c-0.1-1-0.5-2-1.3-2.8c0.1-0.2,0.2-0.4,0.3-0.6c0.3,0.1,0.5-0.1,0.6-0.4
				c0.3-0.7,0.5-1.4,0.7-2.2c0.2-0.5-0.1-1-0.5-1.2c-0.1-0.6-0.3-1.3-0.5-1.9c-0.2-0.4-1-0.6-1.2-0.1c-0.4,0.7-0.4,1.4,0,1.9
				c-0.6,1.7-1.2,3.3-1.8,5c-0.1,0.2-0.1,0.4,0,0.6c-0.5-0.1-1,0.4-0.8,1c0.3,1.2,0.7,2.3,1.1,3.5c0.2,0.5,0.7,0.7,1.2,0.3
				c0.2-0.2,0.4-0.3,0.6-0.5c0.1,0.1,0.2,0.1,0.3,0.2c0.3,0.2,0.9,0.1,1-0.3C197.2,132.6,197.2,132.5,197.2,132.3z"/>
			<path class="st1" d="M259.8,186.3c0.3-0.4-0.1-1.2-0.6-1.2c-0.1-0.3-0.5-0.6-0.9-0.5c-0.1,0-0.1,0.1-0.2,0.1
				c0-0.3-0.3-0.7-0.6-0.7c-0.8,0.1-1.7,0.2-2.5,0.4c-0.1,0-0.1,0.1-0.2,0.1c-0.2,0.1-0.4,0.1-0.6,0.1c-0.7,0.1-0.4,1.4,0.3,1.4
				c0.1,0,0.1,0,0.1,0c-0.1,0.3-0.1,0.5,0.1,0.7c0,0.3,0.1,0.5,0.3,0.7c-0.1,0.5,0.3,1.1,0.8,1.1c0.1,0.4,0.5,0.7,0.9,0.5
				c1.1-0.4,2.1-1,3.1-1.5C260.1,187.2,260.1,186.6,259.8,186.3z"/>
			<path class="st1" d="M282.1,208.3c-0.3,0-0.5,0-0.7,0c-0.1-0.2-0.3-0.3-0.5-0.4c-0.7-0.1-1.3-0.1-2-0.2c-0.3,0-0.4,0.1-0.5,0.3
				c-0.5,0-1,0.1-1.6,0.1c-0.6,0.1-0.7,0.7-0.5,1.2c0.1,0.3,0.3,0.6,0.6,0.5c1.8,0.1,3.6-0.1,5.4-0.1
				C283,209.8,282.9,208.3,282.1,208.3z"/>
			<path class="st1" d="M198.1,239.4L198.1,239.4c0.7-0.5,0.1-1.8-0.7-1.4l0,0c0.3-0.3,0.2-0.9-0.1-1.2c0.2-0.2,0.4-0.3,0.6-0.5l0,0
				l0,0c0.1-0.1,0.1-0.1,0.1-0.1c0.5-0.5-0.1-1.4-0.7-1.3c0.1-0.1,0.3-0.3,0.3-0.4c0.1-0.1,0.1-0.3,0.1-0.4c0.2-0.2,0.4-0.4,0.6-0.6
				c0.1-0.1,0.1-0.1,0.1-0.3c0.1-0.1,0.2-0.1,0.3-0.3c0.3-0.3-0.1-1-0.5-0.7c-0.1,0.1-0.1,0.1-0.1,0.1c-0.1-0.1-0.3-0.1-0.5,0.1
				c-1.2,1.1-2.4,2.1-3.5,3.2c-0.1,0.1-0.2,0.3-0.2,0.4c-0.3,0.3-0.7,0.7-1,1c-0.3,0.3-0.2,0.6,0,0.9c-0.1,0.3,0,0.5,0.1,0.7
				c-0.1,0.3-0.1,0.6,0.1,0.9c0,0.1,0,0.1,0.1,0.1c-0.2,0.1-0.3,0.3-0.5,0.5c-0.6,0.6-0.1,1.9,0.8,1.4c0.2-0.1,0.5-0.3,0.7-0.4
				l0.1,0.1c0.1,0.5,0.5,1,1.1,0.6c0.3-0.2,0.6-0.4,1-0.6c0.1,0,0.3,0,0.4-0.1c0.3-0.3,0.7-0.5,1-0.8
				C198.1,240,198.2,239.6,198.1,239.4z"/>
			<path class="st1" d="M178.1,253.4c0.3-0.3,0.5-0.7,0.7-1.1c0.2-0.3,0.1-0.8-0.1-1.1l0.4-0.5c0.3-0.3,0.1-1-0.2-1.2
				c0.1-0.1,0.1-0.1,0.1-0.2c0.1-0.1,0.1-0.3,0.1-0.5c0.2-0.3,0.1-0.8-0.2-1.1l0.1-0.1c0.1-0.1,0.1-0.3,0.1-0.4
				c0.1-0.1,0.3-0.3,0.5-0.5c0.4-0.4-0.2-1.4-0.7-1c-1.3,1-2.6,2-3.8,3.1c-0.3,0.3-0.1,1,0.3,1c-0.1,0.1-0.3,0.3-0.4,0.5
				c-0.1,0.2-0.1,0.5-0.1,0.7c-0.1,0.2-0.1,0.5,0,0.7l-0.1,0.1c-0.3,0.4-0.1,1,0.3,1.3c-0.1,0.4,0.1,1,0.5,1.2c0,0.5,0.3,1,0.9,0.8
				c0.5-0.2,1-0.4,1.6-0.7C178.6,254.2,178.5,253.6,178.1,253.4z"/>
			<path class="st1" d="M274.7,316c-4.6-2.9-9-5.9-13.6-8.8c-0.7-0.5-1.2,0.5-0.7,1.1c0,0.2,0.1,0.4,0.3,0.5
				c2.8,2.1,5.6,4.3,8.4,6.4c0.2,0.1,0.4,0.1,0.5,0c0.3,0.1,0.5,0.2,0.7,0.3c0.1,0.1,0.3,0.2,0.5,0.3s0.3,0.1,0.5,0.1
				c1,0.4,1.8,0.9,2.8,1.3l0,0l0,0c0.1,0,0.1,0.1,0.1,0.1C275.1,317.6,275.3,316.3,274.7,316z"/>
			<path class="st1" d="M125.8,65.9c-2.2-3-4.5-5.9-6.8-8.8c0.2-0.4,0.2-0.9-0.1-1.3c-3.7-4-7.1-8.1-10.3-12.3
				c-3.2-5.2-6.6-10.3-10-15.4c-0.1-0.2-0.3-0.3-0.5-0.2c-0.1-0.2-0.3-0.4-0.3-0.6c-0.3-0.6-1.1-0.1-0.8,0.5c0.1,0.3,0.3,0.7,0.5,1
				h-0.1c-0.3-0.4-0.8-0.1-0.9,0.3c-0.1,0-0.1,0.1-0.1,0.1c-1.5,1.8-1,3.7,0.3,5.5c0.1,0.1,0.3,0.3,0.3,0.5c-0.2,0-0.4,0.3-0.2,0.5
				c2.3,3.4,5,6.6,7.8,9.6c2,2.8,4.2,5.4,6.7,7.8c0.3,0.3,0.6,0.3,0.9,0.3c0.3,0.3,0.6,0.6,1,1c3.2,4.7,6.9,9,10.9,13
				c0.5,0.5,1,0.3,1.2-0.2C125.7,67.3,126.3,66.5,125.8,65.9z"/>
			<path class="st1" d="M96.5,142.2c-6.3-2.6-13.3-4.4-20-6.1c-1-0.2-1,1.2-0.3,1.4c0.4,0.1,0.8,0.3,1.2,0.4c3.9,2,8.4,4.1,12.7,5.2
				c0.5,0.1,0.8-0.3,0.9-0.7c1.7,0.5,3.4,1,5.1,1.3C97.3,144.1,97.4,142.5,96.5,142.2z"/>
			<path class="st1" d="M129.1,154.1c-0.1-0.2-0.2-0.4-0.3-0.5c0-0.3,0-0.5,0.1-0.7c0-0.5-0.3-0.9-0.7-1.1c-0.4-0.9-1-1.6-1.8-2.3
				c-0.1-0.2-0.2-0.3-0.3-0.5c-0.3-0.4-0.9-0.3-1,0.1c-0.5,0.3-0.8,1.1-0.4,1.6c0.6,1,1.2,1.9,1.8,2.9c0,0.1,0,0.2,0.1,0.3
				c0,0.5-0.1,1-0.1,1.4c-0.1,1.3,2,1.8,2.2,0.3C129.1,155.3,129.4,154.7,129.1,154.1z"/>
			<path class="st1" d="M107.4,175.4c0.5-0.4,0.5-1.4-0.2-1.8c-0.2-0.1-0.5-0.3-0.7-0.5c0-0.1-0.1-0.2-0.1-0.3
				c-0.4-0.5-1-0.6-1.5-0.5c-0.7-0.3-1.5-0.6-2.2-0.9c-1-0.5-1.6,1.1-1.2,1.8c0.5,0.9,1.1,1.8,1.6,2.6c0.1,1,0.7,1.8,1.7,2.2
				c0.8,0.3,1.3-0.5,1.2-1.2C106.8,176.6,107.3,176.1,107.4,175.4z"/>
			<path class="st1" d="M113.5,201.3c0.4-0.6-0.3-1.7-1-1.8c-0.7-0.1-1.5-0.2-2.3-0.3c-0.4-0.3-0.9-0.5-1.4-0.6
				c-0.5-0.1-0.7,0.5-0.4,0.8c-0.3,0.4-0.3,1.2,0.1,1.5c0.8,0.7,1.6,1.4,2.4,2.1c0.4,0.4,1,0.3,1.2-0.1c0.1,0,0.2,0.1,0.3,0.1
				C113.5,203.2,114,202,113.5,201.3z"/>
			<path class="st1" d="M111.1,218.9c-6.5,1.2-12.9,2.8-19.3,4.5c-9.8,1.1-19.7,2.8-29.4,4.2c-10.9,1.6-21.8,2.9-32.6,5
				c-0.3,0.1-0.5,0.4-0.5,0.7c-1.9,0.1-1.5,3.1,0.3,3.3c1.4,0.1,2.9,0.3,4.3,0.3c0.3,0.5,0.7,0.8,1.3,0.8c2.2,0.1,4.6,0.3,6.8,0.5
				c0.5,0,0.7-0.1,1-0.3c0.1,0.1,0.2,0.1,0.3,0.1c11.1-1.4,22.2-4.8,33.1-7.5c6.2-1.5,12.4-2.9,18.5-4.5c1-0.2,2-0.3,2.9-0.5
				c0.3-0.1,0.4-0.2,0.5-0.3c4.5-1.2,9-2.4,13.3-3.8C113.1,220.8,112.5,218.6,111.1,218.9z"/>
		</g>
	</g>
</g>
</svg>
