<?xml version="1.0" encoding="utf-8"?>
<!-- Generator: Adobe Illustrator 25.0.0, SVG Export Plug-In . SVG Version: 6.00 Build 0)  -->
<svg version="1.1" id="Layer_1" xmlns="http://www.w3.org/2000/svg" xmlns:xlink="http://www.w3.org/1999/xlink" x="0px" y="0px"
	 viewBox="0 0 400 400" style="enable-background:new 0 0 400 400;" xml:space="preserve">
<style type="text/css">
	.st0{opacity:0.1;}
	.st1{fill:#543004;}
</style>
<g class="st0">
	<path class="st1" d="M380.6,394.3c-121,0-240.4,0-361.3,0c0-129.7,0-258.7,0-388.7c120.7,0,240.5,0,361.3,0
		C380.6,135.5,380.6,264.2,380.6,394.3z M32.9,351.6c2.2,1,3.2,1.8,4.2,1.8c104.7-0.1,209.3-0.4,314-0.1c13.1,0,16.8-4.1,16.6-17
		c-0.8-71-0.7-142.1-0.9-213.1c-0.1-34.3,0-68.6,0-103.1c-112.2,0-223.1,0-333.9,0C32.9,131.4,32.9,241.2,32.9,351.6z"/>
	<path class="st1" d="M331.2,75.7c-5.9-9-11.7-13.9-11.4-18.3c0.3-4.2,7.7-11.7,10.7-11.1c5.1,1,11.7,6.6,12.9,11.4
		C344.2,61.3,337.6,66.7,331.2,75.7z"/>
	<path class="st1" d="M67.3,75.3c-5.7-8-12-13-11.7-17.5c0.3-4.3,7.7-11.5,11.7-11.3c4.5,0.2,11.8,7,12.1,11.4
		C79.7,62.4,73.2,67.4,67.3,75.3z"/>
	<path class="st1" d="M68.6,332.8c-6.5-9.3-12.7-14.4-12.3-18.7c0.5-4.4,7-10.3,11.8-11.4c2.9-0.7,10.4,6.4,10.7,10.4
		C79.2,317.8,74,323,68.6,332.8z"/>
	<path class="st1" d="M332.6,332c-6.4-8.5-12.7-13.1-12.6-17.8c0.1-4.1,7.1-11.6,10.9-11.4c4.4,0.1,11.3,6.4,12.2,10.9
		C343.9,317.8,338,323.2,332.6,332z"/>
	<g>
		<g>
			<polygon class="st1" points="114.9,107.2 112.5,105 129.7,87.8 132,90.2 			"/>
		</g>
		<g>
			
				<rect x="89.2" y="100.8" transform="matrix(0.7071 -0.7071 0.7071 0.7071 -34.5762 121.3585)" class="st1" width="80.1" height="3.3"/>
		</g>
		<g>
			<polygon class="st1" points="99.1,146.7 96.7,144.4 173.3,67.8 175.6,70.1 			"/>
		</g>
		<g>
			
				<rect x="78.8" y="110.5" transform="matrix(0.7071 -0.7071 0.7071 0.7071 -37.4202 134.055)" class="st1" width="128.5" height="3.3"/>
		</g>
		<g>
			
				<rect x="78" y="115.5" transform="matrix(0.7071 -0.7071 0.7071 0.7071 -38.9046 140.3677)" class="st1" width="143.9" height="3.3"/>
		</g>
		<g>
			
				<rect x="78.8" y="120.5" transform="matrix(0.7071 -0.7071 0.7071 0.7071 -40.4285 146.6834)" class="st1" width="156.1" height="3.3"/>
		</g>
		<g>
			
				<rect x="80.9" y="125.4" transform="matrix(0.7071 -0.7071 0.7071 0.7071 -41.9182 152.9849)" class="st1" width="165.7" height="3.3"/>
		</g>
		<g>
			
				<rect x="84" y="130.4" transform="matrix(0.7071 -0.7071 0.7071 0.7071 -43.3974 159.3088)" class="st1" width="173.2" height="3.3"/>
		</g>
		<g>
			
				<rect x="88.2" y="135.3" transform="matrix(0.7071 -0.7071 0.7071 0.7071 -44.8439 165.6485)" class="st1" width="178.7" height="3.3"/>
		</g>
		<g>
			
				<rect x="93.2" y="140.2" transform="matrix(0.7071 -0.7071 0.7071 0.7071 -46.2836 171.9694)" class="st1" width="182.5" height="3.3"/>
		</g>
		<g>
			
				<rect x="98.9" y="145.1" transform="matrix(0.7071 -0.7071 0.7071 0.7071 -47.6927 178.3336)" class="st1" width="185" height="3.3"/>
		</g>
		<g>
			
				<rect x="105.5" y="149.9" transform="matrix(0.7071 -0.7071 0.7071 0.7071 -49.0736 184.6982)" class="st1" width="185.8" height="3.3"/>
		</g>
		<g>
			
				<rect x="112.7" y="154.8" transform="matrix(0.7071 -0.7071 0.7071 0.7071 -50.4701 191.0572)" class="st1" width="185.4" height="3.3"/>
		</g>
		<g>
			<polygon class="st1" points="148.6,227.4 146.2,225.1 276.6,94.7 277.3,94.7 277.3,96.4 278.5,97.5 			"/>
		</g>
		<g>
			
				<rect x="129.1" y="164.5" transform="matrix(0.7071 -0.7071 0.7071 0.7071 -53.2569 203.758)" class="st1" width="180.5" height="3.3"/>
		</g>
		<g>
			
				<rect x="138.4" y="169.5" transform="matrix(0.7071 -0.7071 0.7071 0.7071 -54.7746 210.0565)" class="st1" width="175.6" height="3.3"/>
		</g>
		<g>
			
				<rect x="148.5" y="174.6" transform="matrix(0.7071 -0.7071 0.7071 0.7071 -56.4026 216.3206)" class="st1" width="168.9" height="3.3"/>
		</g>
		<g>
			
				<rect x="159.4" y="179.8" transform="matrix(0.7071 -0.7071 0.7071 0.7071 -58.1532 222.5514)" class="st1" width="160.3" height="3.3"/>
		</g>
		<g>
			
				<rect x="171.2" y="185.2" transform="matrix(0.7071 -0.7071 0.7071 0.7071 -60.104 228.661)" class="st1" width="149.5" height="3.3"/>
		</g>
		<g>
			<polygon class="st1" points="207.3,239.8 204.9,237.5 299.2,143.1 301.5,145.5 			"/>
		</g>
		<g>
			
				<rect x="205.5" y="193.7" transform="matrix(0.7071 -0.7071 0.7071 0.7071 -61.683 241.873)" class="st1" width="111.3" height="3.3"/>
		</g>
		<g>
			
				<rect x="225.5" y="198.5" transform="matrix(0.7071 -0.7071 0.7071 0.7071 -63.0026 248.2535)" class="st1" width="85.3" height="3.3"/>
		</g>
		<g>
			<polygon class="st1" points="258.6,223.9 256.3,221.5 290.1,187.8 292.4,190.1 			"/>
		</g>
	</g>
	<path class="st1" d="M315.1,169.6c1.7,72.9-41,118.5-112.3,120.6C145.6,291.9,86.6,253.9,83.3,182C78.8,86.5,142.6,53.2,199.6,52
		C268.3,50.5,313.4,96.7,315.1,169.6z M199.9,240.1c18.2-5.2,37.4-8.2,54.5-15.9c50.9-22.8,63.1-92.1,23.8-128.3
		c-37.3-34.3-93.8-39.9-137.4-13.6c-51.8,31.2-57.2,96.2-10.7,132C150.2,230,173.4,237.5,199.9,240.1z"/>
</g>
</svg>
