<?xml version="1.0" encoding="utf-8"?>
<!-- Generator: Adobe Illustrator 25.0.0, SVG Export Plug-In . SVG Version: 6.00 Build 0)  -->
<svg version="1.1" id="Layer_1" xmlns="http://www.w3.org/2000/svg" xmlns:xlink="http://www.w3.org/1999/xlink" x="0px" y="0px"
	 viewBox="0 0 400 400" style="enable-background:new 0 0 400 400;" xml:space="preserve">
<style type="text/css">
	.st0{opacity:0.1;}
	.st1{fill:#543004;}
</style>
<g class="st0">
	<g id="XMLID_1_">
		<path id="XMLID_161_" class="st1" d="M218.3,182.6c0,0.1,0,0.2,0,0.4l0,0C218.4,182.8,218.3,182.7,218.3,182.6z M218.3,182.6
			c0,0.1,0,0.2,0,0.4l0,0C218.4,182.8,218.3,182.7,218.3,182.6z M218.3,182.6c0,0.1,0,0.2,0,0.4l0,0
			C218.4,182.8,218.3,182.7,218.3,182.6z M218.3,182.6c0,0.1,0,0.2,0,0.4l0,0C218.4,182.8,218.3,182.7,218.3,182.6z M218.3,182.6
			c0,0.1,0,0.2,0,0.4l0,0C218.4,182.8,218.3,182.7,218.3,182.6z M218.3,182.6c0,0.1,0,0.2,0,0.4l0,0
			C218.4,182.8,218.3,182.7,218.3,182.6z M218.3,182.6c0,0.1,0,0.2,0,0.4l0,0C218.4,182.8,218.3,182.7,218.3,182.6z M218.3,182.6
			c0,0.1,0,0.2,0,0.4l0,0C218.4,182.8,218.3,182.7,218.3,182.6z M218.3,182.6c0,0.1,0,0.2,0,0.4l0,0
			C218.4,182.8,218.3,182.7,218.3,182.6z M218.3,182.6c0,0.1,0,0.2,0,0.4l0,0C218.4,182.8,218.3,182.7,218.3,182.6z M218.3,182.6
			c0,0.1,0,0.2,0,0.4l0,0C218.4,182.8,218.3,182.7,218.3,182.6z M218.3,182.6c0,0.1,0,0.2,0,0.4l0,0
			C218.4,182.8,218.3,182.7,218.3,182.6z M218.3,182.6c0,0.1,0,0.2,0,0.4l0,0C218.4,182.8,218.3,182.7,218.3,182.6z M218.3,182.6
			c0,0.1,0,0.2,0,0.4l0,0C218.4,182.8,218.3,182.7,218.3,182.6z M218.3,182.6c0,0.1,0,0.2,0,0.4l0,0
			C218.4,182.8,218.3,182.7,218.3,182.6z M218.3,182.6c0,0.1,0,0.2,0,0.4l0,0C218.4,182.8,218.3,182.7,218.3,182.6z M218.3,182.6
			c0,0.1,0,0.2,0,0.4l0,0C218.4,182.8,218.3,182.7,218.3,182.6z M218.3,182.6c0,0.1,0,0.2,0,0.4l0,0
			C218.4,182.8,218.3,182.7,218.3,182.6z M314.9,209.3c0,0-0.1-0.1-0.1-0.1c0-0.1-0.1-0.2-0.2-0.3c-0.1,0-0.1-0.1-0.2-0.1
			c0,0,0-0.1-0.1-0.1l-76.9-29c-0.1-7-0.7-74.3-1.5-88.2C235,76.8,227,13.5,227,12.9c-0.3-2.6-1.3-8.7-4-8.7h0
			c-3.6,0-131.4,5.5-136.9,5.8C86,9.9,86,10,85.9,10c-0.1,0-0.3,0.1-0.4,0.2c-0.1,0.1-0.1,0.2-0.1,0.2c-0.1,0.1-0.1,0.2-0.2,0.3
			L84,23.7l11.4,203.1c0,0.2,0.1,0.5,0.3,0.6l1.6,1.4l-5,115.7c0,0.4,0.2,0.7,0.5,0.9l4.8,2.5c0.1,0,0.2,0.1,0.3,0.1c0,0,0,0,0,0
			h8.1c0.5,0,0.9-0.4,0.9-0.9l7.1-103.1l16.5,14.9l3.8,135c0,0.3,0.1,0.6,0.4,0.7l4.2,3c0.2,0.1,0.3,0.2,0.5,0.2c0,0,0,0,0,0h0
			c0.1,0,0.1,0,0.2,0l8.5-2.3c0.4-0.1,0.7-0.5,0.7-0.9l5.5-131.4l59.4-6l-3.1,72.5c0,0.3,0.1,0.6,0.4,0.8l5.8,3.7
			c0.2,0.1,0.3,0.1,0.5,0.1c0.1,0,0.1,0,0.2,0l8.1-2.1c0.4-0.1,0.7-0.4,0.7-0.8l5-76l55.9-5.7l7.8,123.5c0,0.3,0.1,0.5,0.4,0.7
			l3.7,2.8c0.2,0.1,0.4,0.2,0.6,0.2h0c0,0,0,0,0,0c0,0,0.1,0,0.1,0l9-1.4c0.5-0.1,0.8-0.5,0.8-0.9V247.5l0.4,0c0,0,0,0,0,0
			c0,0,0.1,0,0.1,0c0.4,0,0.7-0.2,0.9-0.6c0-0.1,1.3-3.4,3.7-14.7C317.4,220.7,315,209.8,314.9,209.3z M222.9,6L222.9,6
			c0.7,0.2,1.8,3.3,2.2,7.1c0.1,0.6,8,63.8,8.9,78.4c0.9,13.8,1.5,79.8,1.5,87.9l-6.4,0.6c-0.3,0-0.5-0.1-0.8-0.1
			c-0.1,0-0.2,0.1-0.2,0.2l-6.3,0.6c0,0,0,0,0,0c0,0,0,0,0,0l-2.8,0.3l-0.6,0c0.2,0.6,0.3,1.2,0.4,1.8l0.6,0l1.2-0.1
			c0.4,0.1,0.7,0.3,1.1,0.5c0.3,0.1,0.4-0.3,0.1-0.4c-0.1,0-0.2-0.1-0.3-0.1l0.3,0c1.1,0.4,2.3,0.9,3.4,1.3c0.3,0.1,0.4-0.3,0.1-0.4
			c-0.8-0.3-1.7-0.7-2.5-1l1.9-0.2c0.2,0.1,0.5,0.2,0.7,0.4c0.3,0.1,0.5-0.2,0.2-0.4c0,0-0.1,0-0.1,0l2.6-0.2
			c0.4,0.1,0.8,0.2,1.2,0.3c0.1,0,0.2,0,0.3-0.2c0,0,0,0,0,0c0.2,0.1,0.3-0.1,0.2-0.3c0.8,0.1,1.6,0.3,2.4,0.5
			c0.3,0.1,0.4-0.4,0.1-0.4c-0.4-0.1-0.7-0.2-1.1-0.2l1.5-0.1c0.6,0.2,1.1,0.5,1.7,0.8c0.3,0.1,0.5-0.2,0.2-0.4
			c-0.3-0.2-0.7-0.3-1-0.5c0.2,0.1,0.4,0.1,0.5,0.2c0.2,0.1,0.2-0.1,0.2-0.3l1-0.1c0.3,0.1,0.5,0.3,0.8,0.6c0.2,0.2,0.5-0.1,0.3-0.3
			c-0.1-0.1-0.2-0.2-0.4-0.3l0,0L310,209l-174.3,16.8l-24.8-24.5l-0.1-0.1l-4.7-4.6c10.9-1.9,21.8-3,32.9-3.3c0.3,0,0.3-0.5,0-0.5
			c-1.9,0.1-3.8,0.1-5.7,0.3c-1.4,0.1-2.8,0.2-4.1,0.3c0-0.1,0-0.2-0.1-0.2c-1.3-0.5-2.6-0.8-4-1.1c-0.3-0.1-0.4,0.4-0.1,0.4
			c1.2,0.2,2.4,0.6,3.5,0.9c-7.6,0.6-15.1,1.5-22.6,2.8c0,0,0,0.1-0.1,0.1l-0.3-0.3c0,0,0.1,0.1,0.1,0.1c0.2,0.2,0.6-0.1,0.3-0.3
			c-0.3-0.2-0.5-0.4-0.8-0.6c-0.2-0.1-0.4,0-0.4,0.1l-1.6-1.6l1.5-0.1c-0.1,0-0.2,0-0.3,0c-0.3,0-0.2,0.5,0.1,0.4
			c0.6-0.1,1.2-0.2,1.8-0.3c0,0.1,0,0.1,0.1,0.2c0.8,0.3,1.5,0.5,2.3,0.8c0.3,0.1,0.4-0.4,0.1-0.4c-0.6-0.2-1.2-0.4-1.8-0.6
			c0.4-0.1,0.8-0.1,1.2-0.2c0,0.1,0.1,0.2,0.2,0.2c1.3,0.1,2.5,0.3,3.8,0.6c0.1,0,0.1-0.1,0.2-0.1c0.4,0.1,0.9,0.3,1.3,0.4
			c0.3,0.1,0.4-0.4,0.1-0.4c-0.8-0.3-1.6-0.5-2.5-0.8c-0.2-0.1-0.3,0.1-0.2,0.3c-0.6-0.1-1.3-0.2-2-0.3c1.4-0.2,2.7-0.4,4.1-0.6
			l5.6-0.5c0.8,0.2,1.5,0.4,2.3,0.6c-0.6-0.1-1.3-0.2-1.9-0.3c-0.3-0.1-0.4,0.4-0.1,0.4c1.2,0.3,2.5,0.5,3.8,0.6
			c0.2,0,0.2-0.2,0.1-0.3c0.4,0.1,0.8,0.2,1.2,0.3c0.3,0.1,0.4-0.4,0.1-0.4c-1.4-0.3-2.7-0.6-4.1-1l18.6-1.7c0,0.1,0,0.2,0.1,0.2
			c2,0.8,4.1,1.4,6.1,2c0.3,0.1,0.4-0.4,0.1-0.4c-1.9-0.5-3.8-1.2-5.7-1.9l3-0.3c0,0,0,0.1,0.1,0.1c1.3,0.5,2.7,0.9,4,1.4
			c0.3,0.1,0.4-0.3,0.1-0.4c-1.1-0.4-2.2-0.8-3.3-1.2l2.9-0.3v0c0.9,0.3,1.8,0.6,2.8,0.9c0.3,0.1,0.4-0.4,0.1-0.4
			c-0.6-0.2-1.2-0.4-1.8-0.6l2.2-0.2c0.7,0.4,1.4,0.8,2,1.3c0.2,0.2,0.6-0.1,0.3-0.3c-0.5-0.4-1-0.8-1.6-1.1l2.7-0.2
			c0.2,0.1,0.4,0.2,0.6,0.3c0.1,0.1,0.2,0,0.3-0.1c1.2,0.5,2.5,1,3.7,1.7c0.3,0.1,0.5-0.3,0.2-0.4c-1.2-0.6-2.4-1.1-3.5-1.6l3.9-0.4
			c0,0.1,0.1,0.2,0.2,0.2c1.1,0.1,2.2,0.3,3.3,0.6c0.3,0.1,0.4-0.3,0.1-0.4c-0.8-0.2-1.5-0.4-2.2-0.5l0.7-0.1c2,0.4,4,0.9,5.9,1.6
			c0.3,0.1,0.4-0.3,0.1-0.4c-1.5-0.5-3-0.9-4.5-1.3l3.1-0.3c0.9,0.2,1.7,0.4,2.6,0.8c0.3,0.1,0.4-0.3,0.1-0.4
			c-0.5-0.2-1-0.3-1.5-0.5l4.7-0.4l0.5,0l0-1.1c0-0.2,0-0.5,0-0.7l-0.4,0l-18.1,1.7c-0.2,0-0.4-0.1-0.6-0.1c-0.1,0-0.2,0.1-0.2,0.2
			l-2.8,0.3c0,0,0,0-0.1,0c0,0,0,0,0,0l-47.4,4.4c-0.1-0.3-0.1-0.7-0.2-1.2c11.9-2,23.8-3.7,35.8-4.9c0.3,0,0.3-0.5,0-0.5
			c-12,1.2-24,2.9-35.9,4.9c-0.5-2.9-1.3-8.7-2.1-19.1c3.5-0.5,7-0.7,10.5-0.5c0.3,0,0.3-0.4,0-0.5c-3.5-0.2-7,0-10.5,0.6
			c-0.2-2.9-0.4-6.1-0.6-9.7h1.8c0.3,0,0.3-0.5,0-0.5h-1.8c-0.1-1.2-0.1-2.5-0.2-3.8c0.6,0,1.1,0.1,1.7,0.1c0.3,0,0.3-0.4,0-0.5
			c-0.6,0-1.2-0.1-1.7-0.1c-0.7-14.7-1.3-35-1.3-62.7c0-60.3-5.3-77.2-8.7-81.9C135.3,9.6,220.2,6,222.9,6z M134.4,227.1
			c0,0.9-0.2,3.5-0.2,6.8c-0.3-1.1-0.6-2.1-0.8-3.2c-0.4-1.5-1.3-3.8-0.8-5.4L134.4,227.1z M98,186.7c0.3,0.4,0.6,0.8,0.9,1.2
			c0.1,0.1,0.2,0.1,0.2,0c0.3,1.8,0.5,3,0.7,3.9c-0.2-0.5-0.5-1-0.7-1.4c0.2,0.1,0.5,0,0.4-0.2C99.2,188.9,98.7,187.8,98,186.7z
			 M97.2,183.3c0.5,0.9,1.1,1.7,1.7,2.6c0,0,0,0,0,0c0.1,0.4,0.1,0.9,0.2,1.3C98.5,186,97.8,184.7,97.2,183.3z M95,67.5
			c-0.2-0.3-0.3-0.6-0.5-0.8c0.1,0,0.2,0,0.4-0.1c0.1,0,0-0.1,0-0.1C94.9,66.8,95,67.2,95,67.5z M86.9,12.4c0.7,0.8,1.7,2.6,2.8,6.4
			c-0.9-1.3-1.9-2.5-2.7-3.9c-0.1-0.2-0.3-0.1-0.4,0.1L86.9,12.4z M86.6,15.2c1,1.7,2.2,3.4,3.4,4.9c0,0,0,0,0,0
			c0.2,0.7,0.3,1.3,0.5,2.1c-1.4-2-2.7-3.9-4-5.9c0,0,0,0,0,0L86.6,15.2z M85.8,23.7l0.6-6.8c1.4,2.2,2.9,4.3,4.4,6.5
			c0.3,1.6,0.7,3.4,1,5.5c-1.8-2.6-3.6-5.2-5.2-7.9c-0.1-0.3-0.6,0-0.4,0.2c1.7,2.8,3.5,5.5,5.3,8.1c0.1,0.1,0.3,0.1,0.4,0
			c0.2,1.3,0.4,2.7,0.6,4.1c-2-2.7-4-5.4-6-8.1c-0.2-0.2-0.6,0-0.4,0.2c1,1.4,2,2.7,3,4.1c0.4,0.6,0.9,1.2,1.3,1.7
			c0.2,0.3,1.1,1.8,1.3,1.9c-0.3-0.1-0.4,0.3-0.1,0.4c0.4,0.2,0.4,0.2,0.8,0.1c0.1,0,0.1-0.1,0.2-0.2c0.1,0.9,0.2,1.8,0.3,2.8
			c-1.6-2.3-3.4-4.5-5.4-6.4c-0.2-0.2-0.5,0.1-0.3,0.3c2.2,2,4,4.2,5.7,6.7c0,0.1,0.1,0.1,0.2,0.1c0.4,3.2,0.7,6.9,1,11
			c-0.5-0.8-1-1.5-1.5-2.2c0.3,0.2,0.6,0.3,1.1,0.3c0.2,0,0.3-0.2,0.2-0.3c-0.5-0.8-1-1.7-1.6-2.5c0,0,0,0,0,0
			c0.2,0.2,0.5,0.3,0.7,0.5c0.2,0.1,0.4-0.1,0.3-0.3c-0.7-1.1-1.4-2.1-2.1-3.2c0.1-0.1,0.1-0.1,0.1-0.3c-1.3-2.4-2.9-4.6-4.8-6.5
			L85.8,23.7z M88.1,64l4.2,6.4c0.2,0.2,0.6,0,0.4-0.2c-1.4-2.2-2.8-4.3-4.3-6.5c-0.1-0.1-0.2-0.1-0.3,0l-1.6-29.3
			c1,1.1,1.9,2.2,2.8,3.4c-0.5-0.6-1-1.3-1.5-1.9c-0.2-0.2-0.5,0.1-0.3,0.3c1.9,2.1,3.5,4.4,5,6.8c-0.1,0-0.2,0.2-0.1,0.3
			c-1-1.5-2.1-2.9-3.3-4.3c-0.2-0.2-0.5,0.1-0.3,0.3c1,1.1,1.9,2.2,2.8,3.4c0.4,0.5,0.7,1.1,1.1,1.6c0.1,0.1,1.3,1.9,0,0.9
			c-0.1-0.1-0.2-0.1-0.3,0c-0.7-1.1-1.4-2.1-2.1-3.2c-0.2-0.2-0.6,0-0.4,0.2c1.5,2.1,2.9,4.1,4.2,6.3c0.1,0.1,0.1,0.1,0.2,0.1
			c0.1,0.8,0.1,1.6,0.2,2.4c0,0,0,0,0,0.1c0,0.7,0.1,1.4,0.1,2c0,0.1,0,0.1,0,0.2c0,0,0,0,0,0c0.2,3.9,0.4,8.1,0.6,12.7
			c-1.2-2.5-2.6-4.8-4.4-6.9c-0.2-0.2-0.5,0.1-0.3,0.3c1,1.1,1.9,2.3,2.6,3.6c0.3,0.6,0.7,1.1,1,1.7c0-0.1,0.7,1.5,0.5,1.4
			c-0.1,0-0.1,0-0.1,0.1c-0.9-1.4-1.8-2.7-2.9-4c-0.2-0.2-0.5,0.1-0.3,0.3c1.6,1.8,2.9,3.8,4,5.9c0.2,7.4,0.4,15.7,0.4,25.1v2.1
			c-1.5-2.5-2.8-5.1-4-7.7c-0.1-0.3-0.5,0-0.4,0.2c1.3,2.9,2.8,5.7,4.4,8.4V97c0,0,0,0-0.1,0c-0.2-0.2-0.4,0-0.3,0.2
			c-0.8-1.6-1.7-3-2.8-4.4c-0.2-0.2-0.5,0.1-0.3,0.3c1.3,1.6,2.3,3.3,3.2,5.1c0.1,0.2,0.3,0.1,0.3-0.1v2.6c-1.8-3.2-3.6-6.5-5.4-9.7
			c-0.1-0.2-0.4-0.1-0.4,0.1L88.1,64z M95.4,97.6V98c-0.1-0.2-0.2-0.4-0.3-0.6C95.2,97.5,95.3,97.6,95.4,97.6z M97.2,226.3l0-0.6
			c0.1,0.3,0.3,0.6,0.4,0.8c0,0,0.1,0,0.1,0c0,0.1,0.1,0.3,0.2,0.4L97.2,226.3z M97.1,225L97.1,225c0,0,0.1,0,0.1,0
			c0,0.1,0,0.3,0.1,0.4C97.3,225.2,97.2,225.1,97.1,225z M97.6,262.7c0.4,1,0.7,2,1.1,3c0.4,1-0.2-0.5-0.3-0.7
			c-0.2-0.4-0.4-0.8-0.6-1.2c0-0.1-0.1-0.1-0.2-0.1L97.6,262.7z M98.3,324.2c0-0.1-0.1-0.1-0.1-0.2c0,0,0,0,0,0c0,0,0,0,0.1,0
			L98.3,324.2z M97.2,312.9c0.5,1.4,0.9,2.9,1.4,4.3c0,0.1,0.1,0,0.1,0.1l-0.2,2.9c-0.4-1.2-0.9-2.4-1.3-3.7
			c-0.1-0.3-0.5-0.2-0.4,0.1c0.5,1.3,0.9,2.6,1.4,3.8c0.1,0.2,0.3,0.2,0.4,0l-0.1,2.5c-0.3-0.9-0.6-1.8-0.9-2.7
			c-0.1-0.3-0.5-0.2-0.4,0.1c0.3,0.9,0.6,1.8,0.9,2.7c0,0,0,0,0,0c-0.2-0.2-0.5,0.1-0.3,0.3c0.1,0.1,0.1,0.1,0.2,0.2
			c-0.1,0.1-0.1,0.1-0.1,0.2c0.5,0.4,0.6,0.8,0.3,1.2c-0.3-0.1-0.4,0.3-0.1,0.4c0.2,0.1,0.3,0.1,0.4,0.1l-1.1,20l-3.1-1.6l3.5-79.5
			c0.4,1,0.7,2.1,1.1,3.2c0.1,0.4,0.3,1.6,0.5,2c-0.3-0.3-0.5-1.1-0.7-1.5c-0.1-0.3-0.5-0.2-0.4,0.1c0.1,0.3,0.2,0.6,0.3,0.9
			c0,0,0,0.1,0.1,0.2c0.1,0.2,0.1,0.3,0.2,0.5c-0.1,0-0.1,0-0.1,0.1c0.2,2.6,0.7,5.2,1.3,7.8c0.1,0.3,0.5,0.2,0.4-0.1
			c-0.6-2.1-0.9-4.3-1.2-6.4c0.4,0.9,0.8,1.8,1.3,2.7c0.1,0.3,0.5,0,0.4-0.2c-0.2-0.4-0.7-1.8-1.2-2.9c0.2,0.1,0.4,0,0.4-0.2
			c-0.4-1.4-0.8-3-1.3-4.4c0.2,0.3,0.4,0.6,0.6,0.8c0.1,0.2,0.5,0,0.4-0.2c-0.6-1.5-1.1-3.1-1.7-4.6c0-0.1-0.1-0.1-0.2-0.1l0.9-20.8
			c0,0.7,0,1.3,0.2,2c0,0-0.1,0-0.1,0.1c-0.1,0.8,0,1.3,0.3,2.1c0.1,0.2,0.3,0.2,0.4,0.1c0,0,0-0.1,0-0.1v0c0-0.5,0-1,0-1.6
			c0,0,0,0,0,0c0-2.1,0-4.1,0-6.2c0,0,0,0,0.1,0c0.2,0.4,0.3,0.8,0.5,1.2c0,0-0.1,0-0.1,0.1c-0.1,1.1-0.9,4.2,0.4,4.8c0,0,0,0,0.1,0
			v0.6c0,0.3,0.3,0.2,0.4,0.1c0.1,0.3,0.1,0.6,0,0.7c-0.2,0.2,0.1,0.6,0.3,0.3c0.2-0.2,0.2-0.5,0.2-0.7c0.1,0.4,0.1,0.9,0.2,1.3
			c0,0.3,0.5,0.2,0.5-0.1c0-0.5,0-0.9,0-1.4c0.1,0,0.2,0.1,0.3,0.1c0,0.6,0,1.2-0.1,1.8c0,0.3,0.4,0.3,0.5,0c0.1-0.6,0-1.2,0.1-1.7
			c0.1-0.1,0.1-0.1,0.1-0.2c0,0,0-0.1-0.1-0.1c0-0.2,0-0.5,0-0.7c0,0,0.1,0,0.1-0.1v-4.9c0-0.1-0.1-0.2-0.2-0.2
			c0-0.8-0.1-1.6-0.1-2.4c0.2,0.7,0.4,1.4,0.6,2c0,0,0.1,0,0.1,0c0,1.7-0.1,3.3-0.3,5c0,0,0,0,0,0l-0.8,15c-0.4-1.2-0.9-2.5-1.4-3.7
			c-0.1-0.3-0.6-0.2-0.4,0.1c0.2,0.4,1.1,3.6,1.4,3.7c-0.3-0.1-0.4,0.3-0.1,0.4c0.2,0.1,0.3,0.1,0.5,0.2c0,0,0,0,0,0l-1.3,23.8
			c-1.1-2.5-2-5.1-2.9-7.7c-0.1-0.3-0.5-0.2-0.4,0.1c0.9,2.7,1.9,5.3,3,7.9c0.1,0.1,0.2,0.2,0.3,0.1l-0.3,4.8
			c-0.7-1.8-1.4-3.6-2-5.5c-0.1-0.3-0.5-0.2-0.4,0.1c0.7,2.2,1.6,4.3,2.4,6.5l-0.2,3.3c-0.3-1.2-0.6-2.5-0.9-3.7
			c-0.1-0.3-0.5-0.2-0.4,0.1c0.3,1.3,0.6,2.7,1,4c0,0.2,0.2,0.2,0.4,0l-0.2,3.1c-0.6-2-1.4-3.9-2.4-5.8c-0.1-0.3-0.5,0-0.4,0.2
			c1.1,2,1.9,4.1,2.6,6.3c0,0.1,0.1,0.1,0.2,0.1l-0.3,4.6c-0.4-1.4-0.9-2.8-1.7-4.1c-0.1-0.3-0.5,0-0.4,0.2c0.9,1.6,1.5,3.1,1.9,4.8
			c0,0.1,0.1,0,0.1,0.1l-0.8,14.1c-0.4-1.2-0.7-2.3-1.1-3.5C97.5,312.5,97.1,312.7,97.2,312.9z M99,233.5c0-0.1,0-0.3,0-0.4
			c0-0.1-0.1-0.1-0.1-0.1l0.1-2.6l0.4,0.4c0,0-0.1,0-0.1,0.1c0,0.8,0,1.7-0.1,2.6c0,0.1,0,0.1-0.1,0.2c0,0,0-0.1-0.1-0.1
			C99.1,233.5,99.1,233.6,99,233.5z M99.1,234.4c0,0.1,0,0.2,0,0.3C99.1,234.6,99.1,234.5,99.1,234.4
			C99.1,234.4,99.1,234.4,99.1,234.4z M99.8,235.8L99.8,235.8c0.1,0.6,0.1,1.2,0.2,1.7c-0.1-0.3-0.2-0.5-0.3-0.8c0-0.4,0-0.8,0-1.2
			C99.7,235.7,99.8,235.7,99.8,235.8z M99.7,234.6v-0.3c0,0.1,0,0.3,0,0.4C99.8,234.7,99.7,234.7,99.7,234.6z M100.1,233.7
			c0.1,0.2,0.2,0.4,0.2,0.5c0,0.5,0,1,0,1.5c0,0,0,0,0,0c-0.1-0.7-0.1-1.4-0.2-2.2c0,0,0,0,0,0c0-0.4-0.1-0.7-0.1-1.1
			c0-0.1-0.1-0.2-0.2-0.2c0-0.4,0-0.7,0-1.1l0.6,0.5c0,0.6,0,1.2,0,1.8C100.2,233.5,100.1,233.6,100.1,233.7z M100.2,240.8
			c0,0.3-0.1,0.7-0.1,1.1c0,0,0,0,0,0c0-0.1,0-0.3,0-0.4c0-0.4,0-0.8,0.1-1.3C100.2,240.4,100.2,240.6,100.2,240.8z M103,234.5
			c0,0.6,0,1.2,0,1.8c-0.2-1-0.5-2-0.8-3l0.6,0.6c0,0.1-0.1,0.2-0.1,0.4C102.7,234.4,102.9,234.5,103,234.5z M102.4,235.6
			c-0.1-0.2-0.4-0.2-0.4,0c0,0.4,0,0.9,0.1,1.3c-0.1-0.1-0.1-0.2-0.1-0.4c0-1-0.1-2-0.3-2.9c0,0.2,0.2,0.2,0.3,0.1
			C102,234.4,102.2,235,102.4,235.6z M101.8,242.2v-1.9c0,0,0,0,0,0.1c0.1,0.2,0.3,0.2,0.4,0c0,0.9,0,1.8,0,2.7
			C102,242.8,101.9,242.5,101.8,242.2z M101.8,243.8v-0.4C101.9,243.7,101.9,243.9,101.8,243.8z M101.8,239.1c0-0.4,0-0.9,0-1.3
			c0,0.1,0.1,0.1,0.1,0.1c0,0,0.1,0,0.1,0c0,0.7,0.1,1.4,0.1,2.1C102.1,239.7,101.9,239.4,101.8,239.1z M101.7,232.9
			c-0.1-0.1-0.3,0-0.3,0.1v2.4c-0.1-0.4-0.3-0.7-0.5-1.1c0-0.7,0-1.5,0-2.2L101.7,232.9C101.7,232.9,101.7,232.9,101.7,232.9z
			 M100.9,235.5C100.9,235.6,100.9,235.6,100.9,235.5c0,0.5,0,0.9,0,1.4c0,0,0-0.1-0.1-0.2C100.9,236.4,100.9,235.9,100.9,235.5z
			 M100.9,238.2c0,0.6,0,1.3,0,1.9c-0.1-0.2-0.1-0.4-0.2-0.6c0-0.6,0-1.1,0.1-1.6C100.9,238,100.9,238.1,100.9,238.2z M100.9,241.2
			c0,0.7,0,1.5,0.1,2.2c0,0,0,0.1,0,0.1v0.1c-0.1-0.2-0.2-0.4-0.2-0.5v-2.3C100.8,240.9,100.9,241,100.9,241.2z M112.3,242.7
			l-7.2,103.5h-6.2l6.1-110.3l1.5,1.4c0,0-0.1,0-0.1,0.1c0,5.2-0.3,10.4-0.7,15.5c0,0.3,0.4,0.3,0.5,0c0.5-5.1,0.7-10.2,0.7-15.3
			l0.8,0.8c-0.4,6-0.9,12.1-1.3,18.1c0,0.3,0.4,0.3,0.5,0c0.4-5.9,0.8-11.8,1.3-17.7l1.2,1.1c-0.5,4.2-0.9,8.4-1.4,12.7
			c0,0.3,0.4,0.3,0.5,0c0.5-4.1,0.9-8.2,1.4-12.3l1.7,1.5c0,0,0,0,0,0c-0.1,0.2,0.2,0.4,0.3,0.3l0,0c-0.7,1-0.4,3.5-0.5,4.7
			c-0.1,1.4-0.4,2.8-0.6,4.2c-0.1-3.2-0.2-6.5-0.1-9.7c0-0.3-0.5-0.3-0.5,0c-0.2,5,0,9.9,0.4,14.9c0,0.3,0.5,0.3,0.5,0
			c-0.1-1.3-0.1-2.5-0.2-3.8c0.1,0,0.2,0,0.2-0.1c0.3-1.8,0.5-3.7,0.7-5.5c0.1-1.3,0.5-3,0.4-4.4l0.3,0.3
			C112.4,242.6,112.3,242.6,112.3,242.7z M103,231.5c0.2,0.1,0.4,0.3,0.7,0.4c0.1,0,0.3-0.1,0.3-0.2c-0.1-0.8-0.2-1.6-0.3-2.4
			c0-0.3-0.5-0.3-0.5,0c0,0.2,0.3,1.2,0.2,1.5c-0.3,0.8-1-0.3-1.3-0.8c-0.1-0.3-0.5,0-0.4,0.2c0.1,0.2,0.3,0.4,0.4,0.6l-1.1-1
			c0-0.5,0-1-0.4-1.5c-0.2-0.2-0.6,0-0.4,0.2c0.1,0.4,0.2,0.6,0.3,0.8l-0.9-0.8c-0.2-0.2-0.3-0.4-0.5-0.6c-0.4-0.6-0.7-1.2-1-1.9
			c0-0.1-0.1-0.1-0.2-0.1c-0.1-0.4-0.3-0.8-0.3-1.2c0-0.1-0.2-0.2-0.3-0.1c0,0,0,0,0,0c-0.1-0.1-0.2-0.1-0.3-0.1c0,0,0,0,0,0
			l-2-36.1c0,0.1,0.1,0.2,0.3,0.1c0.3,0.6,0.6,1.2,0.8,1.8c0.8,2.2,1.6,4.3,2.5,6.4c0,0,0,0,0,0c4.1,10.5,8.6,21.3,11.6,32.1
			c2.2,8.2-3.1-5.7-3.8-7.3c-2-4.4-3.9-8.9-5.7-13.4c-0.5-1.6-1-3.1-1.7-4.7c-0.3-0.6-0.6-1.2-0.9-1.7c0.6,1,1.1,2,1.7,3
			c0.1,0.2,0.5,0.1,0.4-0.2c-1.2-3-2.3-6.1-3.3-9.2c-0.1-0.3-0.5-0.2-0.4,0.1c0.7,2.1,1.4,4.1,2.2,6.1c-0.3-0.6-0.7-1.1-1-1.6
			c-0.1-0.2-0.4-0.1-0.4,0.1c-0.1,1.2,0.6,2,1.2,3.1c0,0,0,0,0,0c-0.1,0-0.1,0.1-0.1,0.2c0.7,1.8,1.3,3.5,2,5.3c0.9,3,2,5.9,3.3,8.9
			c1,2.8,2.1,5.6,3,8.4c2.3,6.8,0.7,3.7-1.2-0.2c-1.9-3.9-3.5-8-4.9-12.1c-0.1-0.3-0.5-0.2-0.4,0.1c2.3,6.6,5.2,13,8.6,19.1
			c-0.1,0-0.2,0.1-0.2,0.3c0.3,1,0.6,1.9,1,2.9c-0.4-0.5-0.7-1-1-1.6c-0.1-0.3-0.6-0.2-0.4,0.1c0.4,1.1,1,1.9,1.8,2.6
			c0.2,0.1,0.5,0,0.4-0.2c-0.2-0.7-0.4-1.3-0.7-2c0.4,0.7,0.7,1.5,1.1,2.2c0.3,0.6,0.5,1.1,1,1.5c0.2,0.1,0.4,0,0.4-0.2
			c-0.1-0.6-0.3-1.2-0.4-1.8c0.5,1.3,0.8,2.6,1.8,3.7c0.2,0.2,0.4,0,0.4-0.2c-0.1-0.7-0.2-1.5-0.3-2.2c0.3,1,0.7,2,1,3.1
			c0.1,0.3,0.5,0.2,0.4-0.1c-0.1-0.7-0.3-1.3-0.4-2c0-0.2-0.2-0.2-0.3-0.1c-0.4-1.1-0.8-2.2-1.1-3.4c-0.1-0.3-0.5-0.2-0.4,0.1
			c0.2,1.2,0.4,2.5,0.6,3.7c-0.9-1.4-1.1-3.1-2.1-4.5c-0.1-0.2-0.5-0.1-0.4,0.2c0.3,0.9,0.4,1.8,0.6,2.7c-0.3-0.6-0.5-1.2-0.8-1.8
			c-0.5-1-1-1.9-1.6-2.8c0.1,0,0.2-0.1,0.1-0.3c-1-3.8-2.2-7.4-3.6-11.1c2.2,4.4,4.5,8.6,6.5,12.7c0.1,0.2,0.5,0.1,0.4-0.2
			c-3.8-11.8-7.8-23.5-12.3-35c0,0,0,0,0,0c4.2,10.2,9.8,21.6,13.8,32.5c0.1,0.3,0.5,0.2,0.4-0.1c-2.6-10.1-6-19.8-10.1-29.4
			c-0.1-0.3-0.5,0-0.4,0.2c2.6,6,5,12.1,7,18.4c0.3,0.8,0.5,2.2,0.8,3.7c-0.1-0.3-0.2-0.6-0.3-0.8c-3.5-8.7-7.5-17.1-11.5-25.6
			c0-0.1,0-0.2-0.1-0.3c0.3,0.6,0.6,1.2,1,1.8c0.1,0.3,0.5,0,0.4-0.2c-0.6-1.1-1.2-2.3-1.8-3.4c-0.5-1.8-1-3.6-1.5-5.3
			c-0.1-0.3-0.5-0.2-0.4,0.1c0.4,1.1,0.7,2.3,1,3.4c-0.7-1.4-1.3-2.8-2-4.2c-0.3-0.9-0.7-1.8-1-2.7c-0.1-0.2-0.4-0.2-0.5,0.1
			c0,0.1,0,0.1,0,0.2c0,0,0,0.1,0,0.2c0,0,0,0,0,0c0,0.1,0,0.2,0,0.4l-5.4-96.9c1.2,2.2,2.4,4.3,3.6,6.5c0.6,1.1,1.2,2.2,1.8,3.2
			c0.1,0.2,0.2,0.4,0.4,0.7c0,0.5,0,0.9,0,1.4c-0.6-1.3-1.2-2.6-1.7-3.9c-0.1-0.3-0.6-0.2-0.4,0.1c0.6,1.7,1.4,3.3,2.2,4.9
			c0,0.5,0,1,0,1.5c-0.9-2.4-2-4.7-3.3-6.9c-0.1-0.3-0.5,0-0.4,0.2c1.4,2.5,2.7,5.2,3.7,7.9c0,0.9,0,1.9,0,2.8
			c-0.9-3.1-2.2-5.9-4-8.6c-0.2-0.2-0.6,0-0.4,0.2c1.8,2.7,3.1,5.5,4,8.6c0.1,0.2,0.3,0.2,0.4,0c0.1,13.4,0.4,24.7,0.7,34.2
			c-0.3-0.6-0.5-1.3-0.8-1.9c0.2,0,0.3,0,0.3-0.2c0-0.1-0.1-0.2-0.1-0.3c0.1,0,0.2-0.1,0.2-0.2c-0.5-3.2-1.4-6.2-2.7-9.1
			c-0.1-0.3-0.5,0-0.4,0.2c0.9,2.1,1.6,4.2,2.1,6.4c-0.4-0.8-0.8-1.5-1.3-2.2c-0.2-0.2-0.5,0-0.4,0.2c0.6,1.1,1.1,2.3,1.5,3.4
			c-0.5-1-1-2.1-1.5-3.1c-0.1-0.3-0.5,0-0.4,0.2c1.3,2.5,2.5,5.1,3.5,7.8c0,0,0,0,0,0c0,0.4,0,0.7,0,1.1c-0.6-1.2-1.1-2.3-1.8-3.4
			c-0.2-0.3-0.6,0-0.4,0.2c0.7,1.2,1.3,2.3,1.9,3.5c0.1,0.3,0.2,0.5,0.3,0.8c0,0.6,0,1.2,0.1,1.7c-0.3-0.5-0.5-1-0.7-1.4
			c-0.1-0.3-0.5,0-0.4,0.2c0.1,0.3,0.8,1.5,1.2,2.4c0,1,0.1,2,0.1,3c-0.6-1.6-1.2-3.1-1.8-4.6c-0.1-0.3-0.6-0.1-0.4,0.1
			c0.6,1.4,1.1,2.8,1.6,4.1c-0.2-0.2-0.4-0.4-0.5-0.6c0-0.1-0.1-0.1-0.2,0c-0.1-0.2-0.2-0.4-0.2-0.5c-0.1-0.3-0.6-0.2-0.4,0.1
			c0.1,0.3,1.1,2.8,1.1,2.8c-0.3,0.1-0.2,0.5,0.1,0.4c0,0,0.1,0,0.1,0c0.1,0,0.2-0.1,0.2-0.2c0-0.3-0.1-0.7-0.2-1.1
			c0.2,0.2,0.4,0.5,0.7,0.7c0,0,0.1,0,0.1,0c0.1,1.5,0.1,2.9,0.2,4.3c-0.6-1.4-1.3-2.8-1.9-4.1c-0.1-0.3-0.5,0-0.4,0.2
			c0.6,1.4,1.3,2.8,1.9,4.1c-0.8-0.7-1.1-2-1.9-2.8c-0.2-0.2-0.5,0-0.4,0.2c0.5,1.4,1.1,3.8,2.1,4.7c-0.2-0.2-0.5,0.1-0.3,0.3
			c0.3,0.2,0.3,0.3,0.6,0.2c0.2,0,0.3-0.2,0.2-0.3c-0.4-0.8-0.7-1.7-1.1-2.5c0.3,0.4,0.6,0.8,1.2,1c0.2,4.6,0.5,8.6,0.8,12
			c-0.5-1.3-1-2.6-1.6-3.9c-0.1-0.3-0.5,0-0.4,0.2c0.8,1.5,1.4,3.1,1.9,4.7c-0.1-0.2-0.3-0.3-0.4-0.5c-0.2-0.3-0.6,0-0.4,0.2
			c0.3,0.5,0.7,1,1.1,1.4c0.2,2.2,0.4,4.2,0.5,5.9c-0.4-0.8-0.8-1.6-1.3-2.4c0.1,0.2,0.5,0.1,0.4-0.2c-0.6-1.4-1.2-2.8-1.8-4.2
			c-0.1-0.3-0.5,0-0.4,0.2c0.6,1.3,1.2,2.7,1.7,4.1c-0.2-0.2-0.5,0-0.3,0.2c0.6,1.2,1.2,2.3,1.8,3.5c0,0,0,0,0,0.1
			c-0.2-0.1-0.4,0-0.3,0.3c0.1,0.2,0.2,0.4,0.4,0.6c0.1,0.6,0.1,1.2,0.2,1.8c-0.6-1.5-1.3-2.9-2.1-4.3c-0.1-0.3-0.5,0-0.4,0.2
			c0.6,1.1,1.2,2.3,1.7,3.5c-0.7-1.1-1.3-2.3-1.8-3.6c-0.1-0.2-0.5-0.2-0.4,0.1c0,0,0,0,0,0.1c0,0,0,0,0,0c0.1,1.7,1,3.4,1.8,5
			c-0.3-0.4-0.6-0.8-0.8-1.3c-0.1-0.3-0.5,0-0.4,0.2c0.3,0.5,0.6,1,0.9,1.5c-0.2,0-0.3,0.2-0.2,0.3c0.6,0.9,1.1,1.9,1.5,2.9
			c-0.3-0.4-0.6-0.9-0.8-1.5c0-0.1-0.1-0.2-0.1-0.3c-0.1-0.2-0.5-0.1-0.4,0.2c0,0,0,0,0,0.1c1.3,2.7,2.6,5.3,4,8
			c0.1,0.3,0.5,0,0.4-0.2c-0.2-0.4-0.4-0.8-0.6-1.1l16.7,16.5c1.9,6,3.7,12.1,5.6,18.2c1,3.2,2,6.5,2.9,9.7c0.3,0.9,3.4,9.3,1.6,5.1
			c-0.1-0.3-0.6-0.2-0.4,0.1c0.4,1,0.9,2.1,1.3,3.1c0.1,0.3,0.5,0.2,0.4-0.1c-3.5-11.8-7.1-23.6-10.8-35.4l2.6,2.5
			c2.2,6.6,4.3,13.3,6.1,20.1c0.3,1.3,1,3.1,1.6,5c-2.1-8.2-4.4-16.3-7.1-24.4l3.3,3.2c1.4,5,2.7,10,3.9,15c0.7,2.8,1.5,5.6,1.9,8.4
			c0.9,5.3-0.9-1.9-1.2-2.9c-0.1-0.3-0.5-0.2-0.4,0.1c0.7,2.4,1.6,4.7,2.6,7.1c0.1,0.3,0.5,0.1,0.4-0.2c-1.9-9-4.1-17.9-6.6-26.8
			l1.7,1.7c1.3,3.6,2.4,7.1,3.3,10.8c0.6,2.3,1.2,4.6,1.6,6.9c0.7,4.5-0.7,0.2-1.2-1.5c-0.1-0.3-0.5-0.2-0.4,0.1
			c0.5,1.9,1.2,3.3,2.3,4.9c0.1,0.2,0.5,0.1,0.4-0.2c-1.2-6.9-3-13.7-5.2-20.3l1.4,1.4c0,0-0.1,0-0.1,0.1c1.1,4.4,2.3,8.8,3.4,13.3
			c0.1,0.3,0.5,0.2,0.4-0.1c-1.1-4.2-2.2-8.5-3.3-12.7l2.2,2.2c0,0-0.1,0-0.1,0.1c-0.5,1.4,0.1,2.9,0.4,4.3c0.5,2.1,1,4.1,1.6,6.2
			c0,0,0,0,0,0c0,3.8,0,8.5,0.3,13c0.4,6.1,1.1,10.3,1.6,12.9l-1.2-1.1c0.1,0,0.2-0.1,0.2-0.2c-0.1-2.3-0.3-4.5-0.6-6.8
			c0-0.3-0.5-0.3-0.5,0c0.2,1.5,0.3,2.9,0.4,4.4c-0.3-1.4-0.6-2.8-0.9-4.1c-0.1-0.3-0.5-0.2-0.4,0.1c0.4,1.7,0.7,3.5,1.1,5.2
			c0,0.2,0.2,0.2,0.3,0c0,0.4,0.1,0.7,0.1,1.1l-1.1-1c0,0,0.1-0.1,0-0.1c0,0,0-0.1-0.1-0.2c0-0.1-0.1-0.2-0.2-0.2
			c-0.1,0-0.1,0-0.2,0c0,0,0,0,0,0c-0.1-0.9-0.5-2.8-0.5-3.1c-0.2-1.3-0.4-2.7-0.5-4.1c0-0.3-0.5-0.3-0.5,0c0.1,1.6,0.3,3.3,0.6,4.9
			c0.1,0.4,0.1,1.2,0.3,1.8L103,231.5z M135.7,269.5c0-0.8-0.1-1.6-0.2-2.4c0-0.1-0.1-0.1-0.2-0.1c-0.1-1.3-0.1-2.6-0.2-3.9
			c0-0.3-0.5-0.3-0.5,0c0,0.4,0,0.8,0.1,1.2c-0.3-0.8-0.8-2-1.3-2.8l2.6,2.3c0,0-0.1,0-0.1,0.1v3.5c-0.1,0-0.3,0-0.3,0.2
			C135.6,268.3,135.7,268.9,135.7,269.5z M132.5,260.7l0.1,0.1c0,0,0,0,0,0c-0.1,0-0.1,0.1-0.1,0.1L132.5,260.7z M132.7,269.2
			l-0.2-6.5c0,0.1,0,0.1,0.1,0.2c0,0,0,0,0,0c0.1,0.4,0.1,0.7,0.1,1.1V269.2z M132.5,262.4l0-1.2c0,0,0,0.1,0.1,0.1
			c0.3,0,1.9,3.7,2,4.1c0,0,0,0,0,0.1v0c0,0,0,0,0,0v1.2c-0.2-0.5-0.4-1-0.6-1.5c0-0.4,0-0.8,0-1.3c0-0.3-0.5-0.3-0.5,0c0,0,0,0,0,0
			c-0.1-0.3-0.2-0.6-0.3-0.9v-0.4c0-0.1-0.1-0.2-0.2-0.2c0,0,0-0.1,0-0.1C132.8,262.2,132.6,262.3,132.5,262.4z M134.1,272.1
			c0.1,0.3,0.3,0.7,0.4,1v1.4c-0.1-0.4-0.3-0.8-0.4-1.2c0,0,0.1,0,0.1-0.1C134.2,272.8,134.2,272.5,134.1,272.1z M134.1,271
			c0-0.2,0-0.5,0-0.7c0.1,0,0.2-0.1,0.2-0.3c-0.1-0.1-0.1-0.2-0.2-0.4c0-0.8,0-1.5,0-2.3c0.2,0.5,0.4,1,0.5,1.6v3.1
			C134.4,271.6,134.2,271.3,134.1,271z M134.4,267.1c0.1,0,0.1-0.1,0.1-0.2v0.6C134.5,267.3,134.5,267.2,134.4,267.1z M133.3,269.1
			c0,0.2,0,0.4,0.1,0.5c0,0,0-0.1,0-0.1c0,0-0.1,0-0.1,0V268c0,0.3,0.1,0.6,0.1,0.9c0,0,0,0,0,0.1
			C133.3,269,133.3,269.1,133.3,269.1z M133.2,264.5c0.1,0.3,0.2,0.5,0.3,0.8c0,0.7,0,1.4,0,2.1
			C133.5,266.4,133.4,265.5,133.2,264.5z M134.7,340.4l-0.1-2.5c0.2,0.5,0.6,1.4,0.5,1.8C135.2,340.2,135,340.4,134.7,340.4
			C134.7,340.4,134.7,340.4,134.7,340.4z M136.2,393.5l0-1c0.1,0.3,0.1,0.7,0.2,1c0.1,0.3,0.5,0.2,0.4-0.1c-0.2-0.8-0.3-1.5-0.5-2.3
			c0-0.1-0.1-0.1-0.2-0.1l0-1.6c0.1,0.4,0.3,0.8,0.4,1.1c0.1,0.3,0.6,0.2,0.4-0.1c-0.1-0.4-0.3-0.8-0.4-1.2
			c-0.1-0.2-0.4-0.2-0.4,0.1L136,384c0.3,0.9,0.5,1.7,0.5,2.6c0,0.3,0.5,0.3,0.5,0c0-1-0.1-1.9-0.5-2.8c-0.1-0.2-0.3-0.2-0.4-0.1
			l-1.2-40.8c0,0,0,0.1,0,0.1c0.4,1.3,1.3,2.6,1.2,4c0,0.3,0.4,0.3,0.5,0c0.1-1.2-0.5-2.2-0.9-3.2c-0.2-0.6-0.4-1.2-0.6-1.8
			c-0.1-0.2-0.1-0.5-0.2-0.7l0-0.2c0.1-0.1,0.2-0.2,0.4-0.2c0.3-0.6,0.4,0,0.5-0.7c0.1-0.7-0.4-1.9-0.6-2.6c-0.1-0.2-0.3-0.2-0.4,0
			l-0.5-17c0.6,1.3,1.1,2.5,1.6,3.8c0.1,0.3,0.6,0.1,0.4-0.1c-0.6-1.7-1.3-3.3-2.1-5L134,313c0.2,0.4,0.4,0.9,0.6,1.3
			c-0.1-0.1-0.4-0.1-0.4,0.2c0.7,2.5,1.3,5,2,7.5c0.1,0.3,0.5,0.2,0.4-0.1c-0.6-2.4-1.3-4.8-1.9-7.2c0.4,1,0.9,1.9,1.3,2.9
			c0.1,0.3,0.5,0,0.4-0.2c-0.7-1.4-1.3-2.9-2-4.3c0.1,0,0.2-0.1,0.2-0.1c0.2-0.9,0.2-1.6-0.1-2.5c-0.1-0.3-0.6-0.2-0.4,0.1
			c0.3,0.4,0.2,0.8-0.2,1.2l-0.1-3.6c0,0.2,0.1,0.4,0.1,0.6c0,0.3,0.5,0.2,0.4-0.1c-0.1-0.8-0.3-1.5-0.6-2.3c0,0,0,0,0,0l0-1.7
			l0.3,0.9c0.1,0.3,0.5,0.2,0.4-0.1c-0.3-0.9-0.5-1.8-0.8-2.7l-0.1-2.5c0.1,0.5,0.3,1.1,0.4,1.6c0.1,0.3,0.5,0.2,0.4-0.1
			c-0.2-0.9-0.4-1.7-0.6-2.6c0-0.1-0.1-0.2-0.2-0.1l-0.8-26.9c0.1,0.2,0.4,0.2,0.4-0.1v-1.5c0.1,0.2,0.2,0.5,0.3,0.7
			c0,0.3,0.1,0.6,0.1,1c0,0.2,0,0.3,0,0.5c-0.1,0-0.2,0.1-0.2,0.3c0.1,0.2,0.1,0.4,0.2,0.6c0,0.2,0,0.4,0,0.6c0,0.2,0.1,0.2,0.3,0.2
			c0.5,1.6,1.1,3.3,1.6,4.9c0.1,0.3,0.5,0.2,0.4-0.1c-0.3-1-0.7-2.1-1-3.1c0,0,0.1,0,0.1,0v-0.6c0.1,0,0.1,0,0.1,0
			c0.1,0.3,0.2,0.6,0.3,1c0.1,0.3,0.5,0.2,0.4-0.1c0-0.1-0.1-0.3-0.1-0.4c0,0,0,0,0,0c0-0.9,0-1.7,0-2.6c0,0.5,0.1,1,0.2,1.6v0.6
			c0,0,0,0,0.1,0.1c0,0.3,0,0.5,0.1,0.8c0,0.3,0.5,0.2,0.4-0.1c0-0.3,0-0.6-0.1-0.9c0,0,0.1,0,0.1-0.1c0-0.5-0.1-0.9-0.1-1.4v-9.1
			l0.3,0.3l1.8,130.6L136.2,393.5z M147.1,393.9l-6.7,1.8l-1.8-130.8l1.3-0.1c0,0-0.1,0-0.1,0.1c0.3,5.5,0.8,11,1.5,16.5
			c0,0.3,0.5,0.3,0.5,0c-0.7-5.5-1.2-11-1.5-16.5c0-0.1-0.1-0.1-0.1-0.1l6.2-0.6v9.2c0,0.3,0.5,0.3,0.5,0v-9.2l4.8-0.5v11.3
			c0,0.3,0.5,0.3,0.5,0v-11.3l0.6-0.1L147.1,393.9z M218.2,302c-0.3-0.9-0.6-1.8-0.9-2.7c0.1,0.3,0.3,0.5,0.6,0.8
			c0.1,0.1,0.3,0.1,0.4-0.1L218.2,302z M215.3,290.2c-0.1-0.3-0.5-0.2-0.4,0.1c1,2.7,1.8,5.4,2.5,8.1c-0.1-0.1-0.3-0.1-0.4,0.1
			c0.1,0.2,0.2,0.5,0.2,0.7c-0.1-0.2-0.2-0.4-0.2-0.6c0,0,0-0.1,0-0.1c-0.4-1.3-0.9-2.5-1.4-3.7c-0.1-0.3-0.6-0.1-0.4,0.1
			c0.8,2,1.5,4,2.2,6.1c0.1,0.5,0.2,0.9,0.5,1.4c0.1,0.1,0.2,0.1,0.3,0l-0.4,10.2c-0.8-2.4-1.5-4.7-2.1-7.2
			c-0.1-0.3-0.5-0.2-0.4,0.1c0.6,2.5,1.3,5,2.2,7.4c0.1,0.2,0.3,0.1,0.4,0l-0.8,17.2c-0.5-1.6-1.1-3.1-1.6-4.7
			c0.3,0.5,0.5,1,0.8,1.5c0.1,0.2,0.5,0.1,0.4-0.2c-0.6-2-1.3-3.9-2-5.8c-0.1-0.3-0.6-0.2-0.4,0.1c0.4,1,0.7,2,1,2.9
			c-0.2-0.5-0.5-0.9-0.7-1.4c-0.1-0.2-0.5-0.1-0.4,0.2c0.7,2.1,1.6,4.2,2.2,6.3c0.5,1.7-0.5-0.5-0.8-0.9c-0.5-0.9-0.9-1.8-1.4-2.7
			c-0.1-0.2-0.5-0.1-0.4,0.1c0.1,0.6,0.3,1.2,0.4,1.8c-0.2-0.3-0.5-0.5-0.7-0.8c-0.1-0.1-0.4,0-0.4,0.2c0,0.7,0.1,1.4,0.4,2.1
			c0.1,0.3,0.5,0.2,0.4-0.1c-0.2-0.5-0.3-0.9-0.3-1.4c0.3,0.3,0.6,0.6,0.9,0.9c0.1,0.2,0.5,0,0.4-0.2c-0.1-0.2-0.1-0.5-0.2-0.7
			c0.4,0.9,0.8,1.7,1.4,2.5c0.3,0.5,0.5,0.7,1.1,0.8c0,0,0.1,0,0.1-0.1l-0.1,1.4l-4.2-2.7l2.4-55.2c0.9,2.5,1.9,5.1,2.8,7.7
			c0.8,2.5-0.2,0-0.4-0.5c-0.3-0.5-0.5-1.1-0.7-1.7c-0.1-0.3-0.2-0.6-0.3-0.8c-0.2-0.4-0.4-0.9-0.6-1.3c-0.1-0.2-0.5-0.1-0.4,0.2
			c0.6,1.7,1.2,3.5,1.7,5.2c0.1,0.5,0.8,4.8,0.8,4.8c-0.2-0.2-0.5,0.2-0.2,0.4c0.4,0.3,0.3,0.3,0.9,0.3c0.2,0,0.2-0.2,0.2-0.3
			c-0.4-1.8-0.8-3.6-1.3-5.4c0-0.2-0.1-0.5-0.2-0.8c0.4,0.8,0.8,1.4,1.4,2c0.1,0.1,0.2,0,0.3-0.1l-0.7,15.8
			C217.4,296.6,216.4,293.4,215.3,290.2z M215.6,262.3c0.1,0,0.2-0.1,0.2-0.2V262c0.1,0,0.1,0,0.2-0.1c0.1-0.2,0.1-0.5,0.2-0.7
			c0,0,0,0,0,0c0-0.1,0-0.2,0.1-0.2c0-0.2,0.1-0.3,0.1-0.5c0,0.2,0,0.3,0,0.5c0,0-0.1,0-0.1,0c0,0.1,0,0.2-0.1,0.3
			c0.1,0.2,0.1,0.3,0.2,0.5c0,0.3,0,0.6,0,0.9c0,0.2,0.2,0.2,0.4,0.1c0.2,0.6,0.4,1.1,0.6,1.7v0.1c-0.1,0-0.3,0-0.3,0.2
			c0,1,0.1,1.9,0.2,2.8c-0.3-0.9-0.6-1.8-0.9-2.7c0-0.3,0-0.7,0-1c0-0.2-0.2-0.2-0.3-0.2c0,0,0,0,0,0c-0.1-0.3-0.2-0.6-0.3-0.9
			c0,0,0,0,0,0c0,0,0.1,0,0.1-0.1C215.6,262.4,215.6,262.3,215.6,262.3z M215.7,258.5l0.1-1.4l0.8-0.1c-0.1,0.3-0.2,0.7-0.3,1.1
			c-0.1-0.2-0.4-0.2-0.4,0.1c0,0.8,0,1.6-0.1,2.3L215.7,258.5C215.8,258.5,215.7,258.5,215.7,258.5z M217.8,260.7
			c0.1,0.4,0.1,0.9,0.2,1.3c-0.1-0.2-0.1-0.4-0.2-0.6c0-0.2,0-0.3,0-0.5c0-0.1-0.1-0.1-0.1-0.1C217.7,260.8,217.7,260.7,217.8,260.7
			z M217.8,256.9l0.1,0c0,0.1,0,0.1,0,0.2C217.8,257,217.8,257,217.8,256.9z M217.7,262.8c0,0,0,0.1,0.1,0.1c0,0,0,0,0,0
			c0.1,0.1,0.1,0.3,0.2,0.4c0,0.5,0,1.1,0,1.6c-0.1-0.3-0.2-0.5-0.3-0.8C217.7,263.7,217.7,263.3,217.7,262.8z M217.7,267.2
			c0-0.6,0-1.1,0-1.7c0.1,0.3,0.2,0.6,0.3,1c0,1.1,0,2.3,0,3.4c-0.2-0.6-0.4-1.2-0.6-1.8c0.1-0.2,0.1-0.4,0.1-0.7
			C217.6,267.4,217.7,267.3,217.7,267.2z M217.5,260.7C217.5,260.7,217.5,260.7,217.5,260.7C217.5,260.7,217.5,260.7,217.5,260.7
			C217.5,260.7,217.5,260.7,217.5,260.7z M217,257.2c0-0.2,0-0.2,0.1-0.2l0,0c0,0,0.1,0.1,0.1,0.3c0.2,0.3,0.2,0.7,0.3,1.1
			C217.3,257.9,217.2,257.6,217,257.2z M217.3,259C217.3,259,217.3,259,217.3,259c0,0.4-0.1,0.8-0.1,1.1c-0.1-0.1-0.2-0.1-0.2,0
			c0,0,0,0,0-0.1c0-0.1-0.1-0.2-0.2-0.2c0-0.4,0-0.7,0-1.1c0-0.3,0.1-0.6,0.1-0.8C217,258.3,217.2,258.7,217.3,259z M217.3,261.5
			c0,0.2,0,0.5,0,0.7c-0.1-0.2-0.1-0.5-0.1-0.7C217.2,261.5,217.2,261.5,217.3,261.5C217.3,261.4,217.3,261.5,217.3,261.5z
			 M217,260.8c0,0.1-0.1,0.3-0.1,0.4c0,0,0,0,0,0c0-0.2,0-0.4,0-0.6C216.9,260.6,217,260.7,217,260.8z M215.7,264.4
			c0.1,0.9,0.2,1.7,0.2,2.6c0,0.2,0,0.4,0,0.6c0,0.1,0.1,0.2,0.2,0.2c0.1,0,0.2-0.1,0.2-0.2c0-0.3,0.1-0.5,0.1-0.8
			c0.1,0.4,0.3,0.8,0.4,1.2c0,0-0.1,0-0.1,0.1c0,0,0,0.1,0,0.1c0,0.1,0.1,0.2,0.2,0.2c0,0,0,0,0.1,0c0.7,2,1.4,4.1,2.1,6.1
			c0.1,0.2,0.2,0.2,0.3,0.1l-0.4,9.1c-1.3-3.6-2.6-7.1-3.9-10.7c0,0,0,0,0,0l0.4-9.3C215.5,263.9,215.6,264.2,215.7,264.4z
			 M219.1,263.2c0,0.2,0,0.5,0,0.7c0,0.2,0.3,0.2,0.4,0.1c0.1,0.2,0.2,0.5,0.3,0.7l-0.1,1.8c-0.4-1.1-0.8-2.2-1.2-3.2
			c0-0.2,0-0.5,0-0.8c0,0,0,0,0,0c0,0,0-0.1,0-0.1v-0.4c0,0,0,0.1,0.1,0.1C218.8,262.4,219,262.8,219.1,263.2z M218.9,261.5
			c0-0.2,0.1-0.5,0.1-0.7v0.9C218.9,261.6,218.9,261.6,218.9,261.5z M219.9,263.3l0,0.4c-0.1-0.2-0.2-0.4-0.2-0.6
			c0-0.9,0-1.9,0.1-2.8c0,0,0.1-0.1,0.1-0.1c0-0.1,0-0.1,0-0.2c0-0.2,0-0.5,0-0.7c0.1,0.1,0.3,0,0.3-0.2c-0.1-0.3-0.2-0.6-0.3-0.9
			c0-0.2,0-0.4,0-0.5c0-0.1-0.1-0.2-0.2-0.2c0-0.1-0.1-0.3-0.1-0.4c0-0.1-0.1,0-0.1-0.1v-0.2l0.9-0.1l-0.2,5.1
			c-0.1,0.5-0.1,0.9-0.2,1.4C219.7,263.2,219.8,263.3,219.9,263.3z M219.4,269.4c-0.3-1-0.6-2-0.9-3.1c0-0.6,0-1.2,0-1.8
			c0.4,1,0.8,2.1,1.2,3.1l-0.3,6.4c-0.4-1.2-0.8-2.4-1.2-3.5c0.1,0,0.2-0.1,0.2-0.2c0-0.8,0-1.6,0-2.4c0.2,0.6,0.4,1.1,0.5,1.6
			C219.1,269.9,219.5,269.7,219.4,269.4z M218.8,257.1C218.8,257.1,218.8,257,218.8,257.1c-0.1-0.3-0.4-0.3-0.5,0c0-0.1,0-0.1,0-0.2
			l0.5,0V257.1z M218.8,258.7v0.8c-0.1,0-0.2,0-0.2,0.1c0,0.3-0.1,0.7-0.1,1c0,0,0-0.1,0-0.1c0-0.3,0-0.6,0-0.9c0-0.3-0.4-0.3-0.4,0
			c0,0,0,0,0-0.1c0.1-0.8,0.2-1.6,0.3-2.4C218.5,257.7,218.7,258.2,218.8,258.7z M226.4,304.8c-0.8-2.4-1.6-4.9-2.6-7.2
			c-0.1-0.3-0.6-0.1-0.4,0.1c1.1,2.7,2.1,5.5,3,8.4l-1.6,24.7l-6,1.5l3.1-69.5v4.7c0,0.3,0.5,0.3,0.5,0v-10.5c0-0.1-0.1-0.2-0.2-0.2
			l0-0.4l4.3-0.4c0,0,0,0.1,0,0.1c-0.1-0.1-0.3-0.1-0.3,0.1v0.4c-0.1,0.1-0.2,0.2-0.1,0.3c0,0,0,0.1,0.1,0.1v3.9
			c-0.3-0.5-0.5-1.1-0.8-1.6c0-0.4,0-0.8,0-1.2c0-0.3-0.5-0.3-0.5,0c0,0.1,0,0.2,0,0.2c-0.1-0.2-0.2-0.4-0.3-0.7
			c-0.1-0.3-0.5,0-0.4,0.2c0.3,0.5,0.5,1,0.7,1.5c0,2.3,0,4.6-0.1,6.8c-0.2-0.6-0.4-1.1-0.6-1.7c-0.1-2.3-0.2-4.7-0.2-7
			c0-0.3-0.5-0.3-0.5,0c0.1,1.9,0.1,3.8,0.2,5.7c0,0,0,0,0,0c0-0.1-0.1-0.1-0.2-0.1c0-2,0-4,0-6c0-0.3-0.5-0.3-0.5,0
			c0.1,3.1,0.1,6.3,0,9.4c0,0.3,0.5,0.3,0.5,0c0-0.8,0-1.6,0-2.5c0.1,0.2,0.2,0.5,0.2,0.7c0,1,0.1,1.9,0.1,2.9c0,0.3,0.5,0.3,0.5,0
			c0-0.5,0-1,0-1.5c0.9,2.3,1.8,4.6,2.6,7c0.1,0.3,0.5,0.2,0.4-0.1c-0.7-2.2-1.6-4.3-2.4-6.5c0.1,0.2,0.4,0.1,0.4-0.1
			c0.1-2,0.1-4,0-6c0.3,0.5,0.5,1.1,0.8,1.6v4.5c0,0.3,0.5,0.3,0.5,0V263c0.1,0.2,0.2,0.4,0.3,0.6c0,0.2,0,0.4,0,0.6
			c0,0.2,0.2,0.2,0.3,0.1c0.5,1,1,2,1.5,3.1c0,0.1,0.1,0,0.1,0L226.4,304.8z M226.5,262v-3.5c0.1,1.3,0.2,2.7,0.2,4
			C226.7,262.3,226.6,262.2,226.5,262z M227.4,257.8c0,0.1,0,0.2,0,0.4c-0.2-0.2-0.3-0.5-0.5-0.7c0-0.5-0.1-1-0.1-1.5l1.7-0.2
			c0.1,1.4,0,2.8,0.1,4.2c-0.2-0.4-0.4-0.8-0.7-1.1c0-0.3,0-0.7,0-1C227.9,257.5,227.4,257.5,227.4,257.8z M227.6,264.1
			c-0.1-0.2-0.2-0.4-0.3-0.6c-0.1-1.7-0.2-3.5-0.3-5.2c0.2,0.2,0.3,0.4,0.5,0.7C227.5,260.7,227.6,262.4,227.6,264.1z M228.9,266.8
			c-0.3-0.6-0.6-1.1-0.8-1.7c0,0,0,0,0,0c0-1.8,0-3.5-0.1-5.2c0.2,0.3,0.4,0.7,0.6,1c0,0,0,0,0,0c0,1.4,0.1,2.8,0.1,4.2
			c0,0.2,0.2,0.2,0.3,0.1L228.9,266.8z M229.1,263.4c0-2.6,0-5.1-0.1-7.7l0.6-0.1L229.1,263.4z M289.2,249.6l4.8-0.5l0,0.8
			c0,0,0-0.1,0-0.1c0-0.1,0-0.2-0.1-0.4c-0.1-0.3-0.6-0.2-0.4,0.1c0,0.2,0.1,0.4,0.1,0.6c0,0.1,0.1,0.2,0.2,0.2
			c0.2,0.5,0.3,0.9,0.1,0.7c0,0-0.1,0-0.1,0v-0.4c0-0.2-0.1-0.2-0.2-0.2c-0.1-0.1-0.1-0.2-0.2-0.2c-0.1-0.2-0.1-0.4-0.2-0.5
			c-0.1-0.3-0.5-0.2-0.4,0.1c0,0,0,0,0,0c-0.2,0-0.3,0.2-0.1,0.4c0,0.1,0,0.1,0,0.2c-0.1-0.2-0.3-0.4-0.4-0.6
			c-0.2-0.2-0.6,0-0.4,0.2c0.1,0.1,0.1,0.2,0.2,0.3c0,0,0,0-0.1,0c-0.1,0-0.1-0.1-0.2-0.1c-0.1,0-0.1,0.1-0.1,0.1
			c-0.1-0.2-0.2-0.4-0.3-0.6c-0.1-0.1-0.2-0.1-0.3-0.1c0,0,0,0,0-0.1c-0.1-0.2-0.4-0.1-0.4,0.1c-0.1,0-0.2,0.1-0.1,0.3
			c0,0,0,0,0,0.1c0,0,0,0,0-0.1c-0.2-0.2-0.6,0-0.4,0.2c0.2,0.2,0.3,0.4,0.5,0.6c0,0,0,0,0,0c0,0.1,0,0.1,0.1,0.1
			c-0.1,0-0.1,0-0.2,0.1c-0.1-0.1-0.3-0.3-0.4-0.4c0-0.1-0.1,0-0.2,0c0-0.1-0.1-0.2-0.3-0.5c-0.1-0.1-0.2,0-0.2,0L289.2,249.6z
			 M294.2,255.7c-0.1-0.2-0.2-0.3-0.2-0.5c-0.1-0.2-0.2-0.2-0.3-0.1v-2.3l0.2,0.5c0.1,0.2,0.2,0.2,0.3,0.1l0,0.7c0,0-0.1,0-0.1,0.1
			C294.2,254.7,294.2,255.2,294.2,255.7z M293.8,256C293.7,256,293.7,256,293.8,256l-0.1-0.2C293.7,255.8,293.7,255.9,293.8,256z
			 M293.8,251.7c0.1,0.1,0.2,0.1,0.3,0.1l0,0.9C294.1,252.4,293.9,252,293.8,251.7z M293.2,255.1
			C293.2,255.1,293.2,255.1,293.2,255.1l0.1,0.1C293.2,255.2,293.2,255.2,293.2,255.1z M293.2,256.2v0.1
			C293.2,256.3,293.2,256.2,293.2,256.2C293.2,256.2,293.2,256.2,293.2,256.2z M293.1,253.7c0.1-0.1,0.2-0.2,0-0.3
			c0-0.1-0.1-0.1-0.1-0.2c-0.1-0.6-0.2-1.2-0.3-1.7c0.1,0,0.1,0.1,0.2,0.1c0.1,0.1,0.2,0.1,0.3,0.1v3
			C293.2,254.4,293.2,254.1,293.1,253.7z M291.9,251.6L291.9,251.6c0,0,0.1,0,0.1,0.1c0,0,0,0.1,0,0.1
			C292,251.7,292,251.6,291.9,251.6z M292.2,252.7c0,0.3,0.1,0.5,0.1,0.8c-0.1-0.1-0.2-0.3-0.2-0.4c0-0.2,0-0.4,0-0.6
			C292,252.5,292.1,252.6,292.2,252.7z M292.2,256.6c0-0.6-0.1-1.2-0.1-1.8c0,0,0.1,0,0.1-0.1c0-0.1-0.1-0.2-0.1-0.3
			c0-0.1,0-0.2,0-0.3c0.1,0.2,0.2,0.3,0.3,0.5c0,0.7,0.1,1.5,0,2.2c0,0.3,0.5,0.3,0.5,0c0,0.2,0,0.3,0,0.5c-0.2,0-0.3,0.1-0.2,0.3
			c0.4,0.8,0.2,0.7-0.2,0.3c-0.2-0.4-0.4-0.7-0.6-1.1C291.9,256.9,292.2,256.8,292.2,256.6z M293.1,251
			C293.1,251,293.1,251,293.1,251C293.1,251.1,293.1,251.1,293.1,251C293.1,251.1,293.1,251.1,293.1,251z M291.1,252.7
			c0.2,0.6,0.4,1.1,0.5,1.8c0,0.7,0.1,1.4,0.1,2.1c0,0,0,0.1,0,0.1c-0.2-0.3-0.3-0.5-0.5-0.8c0,0,0,0,0-0.1
			C291.2,254.8,291.1,253.8,291.1,252.7z M290.6,257c0.1,0.2,0.2,0.5,0.3,0.7c-0.1-0.1-0.2-0.2-0.3-0.3c0,0,0,0,0,0
			C290.6,257.2,290.6,257.1,290.6,257z M290.8,256.2C290.7,256.1,290.7,256.2,290.8,256.2c-0.1-0.1-0.1-0.2-0.1-0.3
			c0.2,0.3,0.3,0.5,0.5,0.8c-0.1,0-0.1,0-0.1,0.1C290.9,256.6,290.9,256.4,290.8,256.2z M290.7,254.5L290.7,254.5
			C290.7,254.4,290.7,254.4,290.7,254.5C290.7,254.5,290.7,254.5,290.7,254.5C290.7,254.5,290.7,254.5,290.7,254.5z M290.9,250.9
			c0.1,0.1,0.1,0.2,0.2,0.3c0,0.2,0,0.4,0,0.7c0-0.1-0.1-0.2-0.1-0.3C291,251.4,291,251.1,290.9,250.9z M290.3,251.8
			c0,0.3,0,0.7,0,1c-0.3-0.7-0.6-1.4-0.5-1.5C289.9,251.4,290.1,251.6,290.3,251.8z M289.4,253.2l-0.1-1.1c0.2,0.3,0.4,0.6,0.6,1
			c0,0,0,0,0,0c0,0,0,0,0,0C289.8,252.7,289.4,252.8,289.4,253.2C289.4,253.1,289.4,253.1,289.4,253.2
			C289.4,253.2,289.4,253.2,289.4,253.2z M289.5,253.8c0.1,0.1,0.1,0.2,0.2,0.3c0.1,0.7,0.3,1.4,0.4,2c0,0.2,0,0.5,0.1,0.8
			c-0.1-0.1-0.1-0.1-0.2-0.2c-0.1-0.1-0.2-0.1-0.3,0L289.5,253.8z M297,372.7l-0.2-2.5c0.3,0.5,0.5,0.9,0.8,1.4
			c0.1,0.3,0.5,0,0.4-0.2c-0.2-0.4-0.4-0.8-0.6-1.2c0,0,0,0,0-0.1c-0.2-0.5-0.4-0.9-0.6-1.4l-0.2-3.4c0.1,0,0.2,0,0.3-0.1
			c0.2-0.7,0.2-1.1,0-1.8c-0.1-0.2-0.3-0.2-0.4,0l-0.4-6.2c0,0,0,0.1,0,0.1c0.1,0.3,0.5,0.2,0.4-0.1c-0.2-0.9-0.4-1.7-0.6-2.6
			c0,0,0,0,0,0l-0.2-2.6c0.1,0.5,0.2,0.9,0.4,1.4c0.1,0.3,0.5,0.2,0.4-0.1c-0.2-0.6-0.3-1.2-0.5-1.8c-0.1-0.2-0.3-0.2-0.4,0
			l-0.2-3.1c0.4,0.7,1.2,2.2,0.7,2.3c-0.3,0-0.3,0.5,0,0.5c1.6-0.1-0.1-2.6-0.4-3.2c-0.1-0.1-0.2-0.1-0.3-0.1l-0.1-1.3
			c0.1,0.4,0.3,0.8,0.4,1.2c0.1,0.3,0.5,0.2,0.4-0.1c-0.3-1-0.6-1.9-0.9-2.9c0,0,0,0,0,0l-0.1-2c0.1,0.3,0.2,0.6,0.4,0.9
			c0.1,0.3,0.5,0.2,0.4-0.1c-0.3-0.8-0.6-1.6-0.9-2.4l-0.1-1.8c0,0.2,0,0.3,0.1,0.5c0,0.3,0.5,0.2,0.4-0.1c-0.1-0.7-0.2-1.4-0.3-2.2
			c0-0.2-0.2-0.2-0.3,0l-0.8-12.3c0.5,0.8,0.8,1.5,0.9,2.4c0,0.3,0.5,0.2,0.4-0.1c-0.2-1.1-0.5-1.9-1.1-2.8
			c-0.1-0.1-0.2-0.1-0.3-0.1l-0.9-13.7c0.8,1.9,1.6,3.8,2.2,5.8c0.1,0.3,0.5,0.2,0.4-0.1c-0.7-2.1-1.5-4.2-2.4-6.2
			c-0.1-0.2-0.2-0.1-0.3,0l-0.2-3.9c0.8,1.2,1.3,2.4,1.7,3.7c0.1,0.3,0.5,0.2,0.4-0.1c-0.4-1.5-1-2.8-1.9-4.1
			c-0.1-0.1-0.2-0.1-0.3-0.1l-0.1-2.2c0.4,0.7,0.8,1.5,1.1,2.2c0.1,0.3,0.5,0,0.4-0.2c-0.5-1.1-1-2.1-1.6-3.2l-0.3-5.4
			c0.6,1.3,1.1,2.7,1.4,4.1c0.1,0.3,0.5,0.2,0.4-0.1c-0.3-1.6-0.9-3.2-1.6-4.6c-0.1-0.1-0.2-0.1-0.3-0.1l-1.2-18.3
			c1.3,2.1,2.3,4.3,3.2,6.7c0.1,0.3,0.5,0.2,0.4-0.1c-0.9-2.5-2-4.9-3.4-7.1c-0.1-0.1-0.2-0.1-0.2-0.1l-1.2-18.4
			c0.1,0,0.2-0.1,0.2-0.2c-0.3-0.5-0.3-0.9,0-1.3c0.1,0.2,0.3,0.3,0.4,0.5c0.3,0.2,0.7,0.6,1,0.9c0.3,0.8,0.5,1.6,0.6,2.4
			c0,0.3,0.5,0.2,0.4-0.1c-0.1-0.7-0.3-1.3-0.5-1.9c0.1,0,0.3-0.1,0.2-0.2c-0.1-0.4-0.3-0.8-0.4-1.2c0.1,0.1,0.2,0.2,0.3,0.3
			c0.1,0.3,0.3,0.5,0.5,0.8c0.1,0.1,0.2,0.1,0.3,0.1c0,0,0,0,0,0c0.1,0.1,0.3,0.1,0.4-0.1c0,0,0,0,0-0.1v0.7c0,0.3,0.5,0.3,0.5,0
			v-1.2c0.1,0,0.3,0,0.3-0.2c0-0.4,0-0.8,0-1.2c0,0,0,0.1,0.1,0.1c0,0.1,0.1,0,0.1,0c0,0.1,0.1,0.1,0.1,0.2h0l0.6,17
			c-0.9-1.9-1.9-3.7-2.8-5.6c-0.1-0.3-0.5,0-0.4,0.2c1.1,2.2,2.2,4.3,3.3,6.5l3.8,98.7L297,372.7z M296.8,370
			C296.8,370,296.8,370.1,296.8,370c0,0.1,0,0.1,0,0.1L296.8,370z M307.9,373.8l-7.2,1.1l-4.8-126l0.1,0c0.2,3.2,0.3,6.4,0.3,9.7
			c0,0.3,0.5,0.3,0.5,0c0-3.2-0.1-6.5-0.3-9.7l2-0.2c0.5,2.7,0.8,5.4,0.9,8.1c0,0.3,0.5,0.3,0.5,0c-0.1-2.7-0.4-5.4-0.9-8.1l3.2-0.3
			c0.4,3.2,0.8,6.3,1,9.5c0,0.3,0.5,0.3,0.5,0c0-0.2,0-0.4-0.1-0.5c0.1,0,0.2-0.1,0.2-0.2V256c0,0.3,0.4,0.3,0.5,0
			c0.1-2.4,0-4.8-0.1-7.2c0-0.2-0.2-0.2-0.3-0.1v-0.3c0-0.1-0.1-0.1-0.1-0.1l2-0.2c0,0,0,0,0,0c0.1,3.3,0,6.7-0.4,10
			c0,0.3,0.4,0.3,0.5,0c0.1-1.2,0.3-2.4,0.3-3.5c0.1-2.1,0.2-4.3,0.1-6.5c0,0,0,0-0.1-0.1l1.2-0.1c0,0,0,0,0,0c0.1,3.1,0,6.1,0,9.2
			c0,0.3,0.5,0.3,0.5,0c0.1-2.7,0.1-5.3,0-8c0.1,0,0.2-0.1,0.2-0.2v-1.2l0.1,0V373.8z M302.5,248.3l0.8-0.1c0,0-0.1,0-0.1,0.1v6.8
			C303,252.8,302.8,250.5,302.5,248.3z M313.1,231.8c-1.9,8.7-3.1,12.6-3.5,13.9l-171.3,17.4c0,0,0-0.1,0-0.2
			c10.8-1.8,21.7-3.1,32.6-3.9c0.3,0,0.3-0.5,0-0.5c-11,0.7-21.9,2.1-32.8,3.9c-0.1-0.3-0.1-0.6-0.2-1c12.1-2.7,24.2-4,36.5-4.1
			c0.3,0,0.3-0.5,0-0.5c-12.4,0.1-24.5,1.5-36.6,4.1c-0.2-0.9-0.4-2-0.6-3.4c3.5-0.5,7-1,10.5-1.4c9.6-0.5,19.2-1,28.9-1.4
			c0.3,0,0.3-0.5,0-0.5c-7.8,0.4-15.6,0.8-23.3,1.2c3.7-0.4,7.5-0.8,11.2-1.1c3.6-0.1,7.1-0.2,10.7-0.3c0.3,0,0.3-0.5,0-0.5
			c-1.6,0-3.3,0.1-5,0.1c0.1-0.1,0.1-0.4-0.1-0.4c-1.9,0.1-3.7,0.4-5.6,0.5c-4,0.1-8.1,0.2-12.1,0.4c-5.1,0.2-10.4-0.4-15.1,1.7
			c-0.3,0.1,0,0.5,0.2,0.4c5.6-2.4,13.8-1.6,20-1.8c-3.3,0.3-6.5,0.7-9.8,1.1c-3,0.2-6.1,0.3-9.1,0.5c-0.3,0-0.3,0.5,0,0.5
			c1.2-0.1,2.4-0.1,3.6-0.2c-1.7,0.2-3.4,0.4-5.1,0.7c-0.1-0.9-0.3-1.9-0.4-3c0,0.1,0.1,0.2,0.2,0.1c8.5-2.1,17.1-3.5,25.8-4.2
			c0.3,0,0.3-0.5,0-0.5c-8.8,0.7-17.4,2.1-25.9,4.2c-0.1,0-0.1,0.1-0.1,0.2c-0.1-1.1-0.2-2.4-0.3-3.7c0,0,0.1,0.1,0.1,0.1
			c7.8-1.1,15.5-1.6,23.3-1.5c0.3,0,0.3-0.5,0-0.5c-7.9-0.1-15.7,0.4-23.5,1.5c0,0,0,0,0,0c0-0.5-0.1-0.9-0.1-1.4
			c0,0.1,0.1,0.2,0.2,0.2c5.7-0.9,11.4-1.4,17.2-1.5c0.3,0,0.3-0.5,0-0.5c-5.8,0.1-11.6,0.6-17.3,1.5c-0.1,0-0.1,0.1-0.1,0.2
			c0-0.1,0-0.1,0-0.2c0-0.5,0-1-0.1-1.5c0.8-0.3,3-0.3,3.6-0.3c1.2,0,2.4,0,3.7,0c0.3,0,0.3-0.5,0-0.5c-1.9-0.1-3.8,0-5.7,0.1
			c-0.4,0-1.1,0-1.6,0.1c0-0.5,0-1.1-0.1-1.6c0.1,0.1,0.3,0.1,0.3-0.1c0.1-0.8,5.4-0.6,6.1-0.7c0.3,0,0.3-0.5,0-0.5
			c-1.7,0.1-3.9-0.1-5.6,0.3c-0.4,0.1-0.7,0.2-0.8,0.5c0-1.1-0.1-2.1-0.1-3.2c1.3-0.2,2.5-0.3,3.9-0.2c0.3,0,0.3-0.4,0-0.5
			c-1.3-0.1-2.6,0-3.9,0.2c0-0.8,0-1.6,0-2.3h2.4c0.3,0,0.3-0.5,0-0.5H136c0-0.8,0-1.6,0-2.3h1.4c0.3,0,0.3-0.5,0-0.5H136
			c0-0.3,0-0.6,0-0.9h0.8c0.3,0,0.3-0.5,0-0.5H136c0-1.7,0.1-3.1,0.1-4.2c0,0.1,0.1,0.2,0.2,0.2h1.2c0.3,0,0.3-0.5,0-0.5h-1.2
			c-0.1,0-0.2,0.1-0.2,0.2c0-0.8,0.1-1.5,0.1-1.9l0.4,0c0.1,0.1,0.3,0.1,0.4,0.2c0.2,0.1,0.3-0.1,0.3-0.3l176-17
			C313.7,213.2,315.1,222.4,313.1,231.8z M218.4,182.9c0-0.1,0-0.2,0-0.3C218.3,182.7,218.3,182.8,218.4,182.9L218.4,182.9z
			 M218.3,182.6c0,0.1,0,0.2,0,0.4l0,0C218.4,182.8,218.3,182.7,218.3,182.6z M218.3,182.6c0,0.1,0,0.2,0,0.4l0,0
			C218.4,182.8,218.3,182.7,218.3,182.6z M218.3,182.6c0,0.1,0,0.2,0,0.4l0,0C218.4,182.8,218.3,182.7,218.3,182.6z M218.3,182.6
			c0,0.1,0,0.2,0,0.4l0,0C218.4,182.8,218.3,182.7,218.3,182.6z M218.3,182.6c0,0.1,0,0.2,0,0.4l0,0
			C218.4,182.8,218.3,182.7,218.3,182.6z M218.3,182.6c0,0.1,0,0.2,0,0.4l0,0C218.4,182.8,218.3,182.7,218.3,182.6z M218.3,182.6
			c0,0.1,0,0.2,0,0.4l0,0C218.4,182.8,218.3,182.7,218.3,182.6z M218.3,182.6c0,0.1,0,0.2,0,0.4l0,0
			C218.4,182.8,218.3,182.7,218.3,182.6z M218.3,182.6c0,0.1,0,0.2,0,0.4l0,0C218.4,182.8,218.3,182.7,218.3,182.6z M218.3,182.6
			c0,0.1,0,0.2,0,0.4l0,0C218.4,182.8,218.3,182.7,218.3,182.6z M218.3,182.6c0,0.1,0,0.2,0,0.4l0,0
			C218.4,182.8,218.3,182.7,218.3,182.6z M218.3,182.6c0,0.1,0,0.2,0,0.4l0,0C218.4,182.8,218.3,182.7,218.3,182.6z M218.3,182.6
			c0,0.1,0,0.2,0,0.4l0,0C218.4,182.8,218.3,182.7,218.3,182.6z M218.3,182.6c0,0.1,0,0.2,0,0.4l0,0
			C218.4,182.8,218.3,182.7,218.3,182.6z M218.3,182.6c0,0.1,0,0.2,0,0.4l0,0C218.4,182.8,218.3,182.7,218.3,182.6z M218.3,182.6
			c0,0.1,0,0.2,0,0.4l0,0C218.4,182.8,218.3,182.7,218.3,182.6z M218.3,182.6c0,0.1,0,0.2,0,0.4l0,0
			C218.4,182.8,218.3,182.7,218.3,182.6z M218.3,182.6c0,0.1,0,0.2,0,0.4l0,0C218.4,182.8,218.3,182.7,218.3,182.6z"/>
		<path id="XMLID_160_" class="st1" d="M87.1,20c1.1,1.7,2.2,3.4,3.3,5.2c0.2,0.3-0.2,0.5-0.4,0.2c-1.1-1.7-2.2-3.4-3.3-5.2
			C86.6,20,87,19.8,87.1,20z"/>
		<path id="XMLID_159_" class="st1" d="M86.8,24.5c1.8,2.4,3.5,4.8,5.3,7.2c0.2,0.2-0.2,0.5-0.4,0.2c-1.8-2.4-3.5-4.8-5.3-7.2
			C86.3,24.5,86.7,24.2,86.8,24.5z"/>
		<path id="XMLID_158_" class="st1" d="M87.7,32c1.8,1.8,3.3,3.7,4.5,6c0.1,0.3-0.3,0.5-0.4,0.2c-1.2-2.2-2.6-4.1-4.4-5.9
			C87.2,32.1,87.5,31.8,87.7,32z"/>
		<path id="XMLID_157_" class="st1" d="M93.7,51.3c-1.6-2.6-3.3-5.1-5.2-7.5c-0.2-0.2,0.1-0.6,0.3-0.3c2,2.4,3.7,4.9,5.3,7.5
			C94.3,51.3,93.9,51.5,93.7,51.3z"/>
		<path id="XMLID_156_" class="st1" d="M94.1,53.5c-0.2-0.1-0.5-0.2-0.7-0.3c-0.2-0.1-0.2-0.4,0.1-0.4c-1.8-2.3-3.7-4.6-5.6-6.9
			c-0.2-0.2,0.1-0.6,0.3-0.3c2.1,2.5,4.1,5,6.1,7.5C94.4,53.3,94.3,53.6,94.1,53.5z"/>
		<path id="XMLID_155_" class="st1" d="M89.9,49.5c1.7,1.7,3,3.5,4,5.6c0.1,0.3-0.3,0.5-0.4,0.2c-1-2.1-2.3-3.9-4-5.6
			C89.3,49.6,89.7,49.3,89.9,49.5z"/>
		<path id="XMLID_154_" class="st1" d="M92.8,58c-1-2.2-2.3-4.2-3.9-6c-0.2-0.2,0.1-0.6,0.3-0.3c1.6,1.9,2.9,3.9,4,6.1
			C93.3,58.1,92.9,58.3,92.8,58z"/>
		<path id="XMLID_153_" class="st1" d="M94.6,61.5c0.2,0.3-0.2,0.5-0.4,0.2c-1.9-3-4-5.7-6.5-8.2c-0.2-0.2,0.1-0.5,0.3-0.3
			C90.5,55.7,92.7,58.5,94.6,61.5z"/>
		<path id="XMLID_152_" class="st1" d="M88.7,55.1c2,2.4,3.7,4.9,5.2,7.6c0.1,0.3-0.3,0.5-0.4,0.2c-1.5-2.7-3.2-5.2-5.2-7.5
			C88.2,55.2,88.5,54.9,88.7,55.1z"/>
		<path id="XMLID_151_" class="st1" d="M90.3,63.5c1.2,1.6,2.1,3.3,2.8,5.1c0.1,0.3-0.3,0.4-0.4,0.1c-0.7-1.8-1.6-3.5-2.8-5
			C89.7,63.5,90.1,63.3,90.3,63.5z"/>
		<path id="XMLID_150_" class="st1" d="M94.7,74.6c-0.5,0-0.9-0.1-1.3-0.5c-0.2-0.2,0-0.6,0.2-0.4c1.1,0.8-0.2-0.8-0.3-1
			c-0.5-0.7-0.9-1.4-1.4-2c-0.9-1.3-1.8-2.5-2.6-3.8c-0.2-0.2,0.2-0.5,0.4-0.2c1.8,2.5,3.5,5.1,5.3,7.6C95,74.4,94.8,74.6,94.7,74.6
			z"/>
		<path id="XMLID_149_" class="st1" d="M89.5,70.5c-0.2-0.2,0.2-0.5,0.4-0.2c1.5,2,2.8,4.2,3.9,6.4c0.1,0.3-0.3,0.5-0.4,0.2
			C92.3,74.7,91,72.5,89.5,70.5z"/>
		<path id="XMLID_148_" class="st1" d="M94.8,80.5c-0.2-0.1-0.4-0.2-0.5-0.3c-0.2-0.1-0.1-0.4,0.1-0.4c-1.2-2.3-2.5-4.6-3.9-6.8
			c-0.2-0.2,0.2-0.5,0.4-0.2c1.6,2.4,3,4.8,4.2,7.4C95.2,80.3,95,80.6,94.8,80.5z"/>
		<path id="XMLID_147_" class="st1" d="M90.9,76.2c-0.1-0.3,0.2-0.5,0.4-0.2c0.9,1.5,1.7,3,2.6,4.5c0.6,1,1.1,1.8,1.2,2.9
			c0,0.3-0.4,0.3-0.5,0c-0.1-1.4-1.2-2.7-1.8-3.8C92.2,78.4,91.6,77.3,90.9,76.2z"/>
		<path id="XMLID_146_" class="st1" d="M89.6,76.6c1.7,2.4,3.1,4.9,4.2,7.7c0.1,0.1-0.1,0.3-0.2,0.3c-0.3,0-0.4-0.1-0.6-0.3
			c0.3,0.7,0.7,1.4,1,2.1c0.1,0.2,0,0.3-0.2,0.3c0.3,0.5,0.6,0.9,0.8,1.4c0.1,0.3-0.3,0.5-0.4,0.2c-0.8-1.8-1.8-3.4-3.2-4.8
			c-0.2-0.2,0.1-0.5,0.3-0.3c0.5,0.6,1,1.2,1.5,1.9c-0.5-1.1-1-2.2-1.7-3.3c-0.1-0.3,0.3-0.5,0.4-0.2c0.5,0.9,0.9,1.8,1.4,2.7
			c-0.2-0.2,0.1-0.5,0.3-0.3c-0.4-0.3-0.7-1.5-1-1.9c-0.3-0.6-0.6-1.2-0.9-1.8c-0.7-1.2-1.4-2.3-2.2-3.4
			C89.1,76.6,89.5,76.3,89.6,76.6z"/>
		<path id="XMLID_145_" class="st1" d="M90.9,84c1,2.4,2.1,4.7,3.1,7.1c0.1,0.3-0.3,0.5-0.4,0.2c-1-2.4-2.1-4.7-3.1-7.1
			C90.4,83.9,90.8,83.7,90.9,84z"/>
		<path id="XMLID_144_" class="st1" d="M95.1,112.8c-0.1,0-0.1,0-0.2,0c-0.3,0.1-0.4-0.4-0.1-0.4c0.3-0.1-2.6-5.1-2.9-5.6
			c-0.2-0.3,0.2-0.5,0.4-0.2c0.9,1.3,1.7,2.7,2.4,4.2c0.3,0.6,0.8,1.3,0.6,2C95.2,112.8,95.1,112.8,95.1,112.8z"/>
		<path id="XMLID_143_" class="st1" d="M92.7,110.4c0.6,1.5,1.3,3,1.9,4.4c0.1,0.2-0.1,0.4-0.3,0.3c-0.7-0.2-0.5-0.1-1.1-0.5
			c-0.2-0.2,0.1-0.5,0.3-0.3c0.1,0.1,0.2,0.1,0.3,0.2c-0.6-1.3-1.1-2.6-1.7-3.9C92.2,110.4,92.6,110.1,92.7,110.4z"/>
		<path id="XMLID_142_" class="st1" d="M93.6,117.2c-0.4-1.2-0.8-2.2-1.5-3.3c-0.2-0.3,0.2-0.5,0.4-0.2c0.6,1.1,1.1,2.2,1.5,3.4
			C94.1,117.3,93.7,117.5,93.6,117.2z"/>
		<path id="XMLID_141_" class="st1" d="M92.6,117.8c-0.2-0.5-0.5-1-0.7-1.5c-0.1-0.3,0.3-0.5,0.4-0.2c0.7,1.3,1.3,2.6,2,4
			c0.1,0.3-0.3,0.5-0.4,0.2c-0.1-0.2-0.3-0.4-0.4-0.6c0.4,1.1,0.9,2.2,1.3,3.3c0.1,0.2-0.3,0.4-0.4,0.2c-0.4-0.6-0.3-0.4-0.4-1.1
			c0,0,0,0,0,0c-0.5-1.3-1.1-2.7-1.6-4C92.2,117.9,92.4,117.7,92.6,117.8z"/>
		<path id="XMLID_140_" class="st1" d="M95,127.4c-0.2-0.2-0.4-0.5-0.6-0.7c0.3,0.7,0.6,1.4,0.9,2.1c0.1,0.3-0.3,0.5-0.4,0.2
			c-0.5-1.2-1-2.3-1.5-3.5c-0.1-0.3,0.2-0.5,0.4-0.2c0.3,0.4,0.6,0.7,0.8,1c-0.3-1.2-0.8-2.3-1.3-3.5c-0.1-0.3,0.3-0.5,0.4-0.2
			c0.7,1.4,1.3,2.9,1.6,4.5C95.5,127.4,95.2,127.6,95,127.4z"/>
		<path id="XMLID_139_" class="st1" d="M93.5,127.6c0.7,1.3,1.4,2.7,2.2,4c0.1,0.3-0.3,0.5-0.4,0.2c-0.7-1.3-1.4-2.7-2.2-4
			C92.9,127.6,93.3,127.4,93.5,127.6z"/>
		<path id="XMLID_138_" class="st1" d="M93.9,130.2c0.6,1.1,1.1,2.3,1.7,3.4c0.1,0.3-0.3,0.5-0.4,0.2c-0.6-1.1-1.1-2.3-1.7-3.4
			C93.4,130.2,93.8,130,93.9,130.2z"/>
		<path id="XMLID_137_" class="st1" d="M95.9,165.2c-0.3-0.1-0.2-0.5,0.1-0.4c0,0-1.1-3.6-1.2-3.9c-0.1-0.3,0.3-0.4,0.4-0.1
			c0.5,1.4,1,2.7,1.5,4.1c0,0.1,0,0.2-0.2,0.3C96.2,165.3,96.2,165.3,95.9,165.2z"/>
		<path id="XMLID_136_" class="st1" d="M94.8,164.5c0.9,1.4,1.5,2.8,2,4.3c0.1,0.3-0.4,0.4-0.4,0.1c-0.5-1.5-1.1-2.9-1.9-4.2
			C94.3,164.5,94.7,164.3,94.8,164.5z"/>
		<path id="XMLID_135_" class="st1" d="M95.8,171.3c0.5,1.1,1,2.2,1.4,3.3c0.1,0.2-0.2,0.4-0.4,0.2c-0.4-0.5-0.8-1-1.2-1.4
			c-0.2-0.2,0.1-0.6,0.3-0.3c0.1,0.1,0.2,0.2,0.2,0.3c-0.2-0.6-0.5-1.3-0.8-1.9C95.2,171.3,95.6,171,95.8,171.3z"/>
		<path id="XMLID_134_" class="st1" d="M128.8,239c0.4,1.3,0.8,2.6,1,3.8C129.5,241.5,129.1,240.2,128.8,239z"/>
		<path id="XMLID_133_" class="st1" d="M130.5,247.2c-1.1-3.1-2.1-6.2-3.1-9.3c-0.1-0.3,0.4-0.4,0.4-0.1c0.6,1.9,2.3,5.4,2.1,7
			c0.1-0.6,0-1.3-0.1-2c0.4,1.4,0.8,2.9,1.1,4.3C131,247.4,130.6,247.5,130.5,247.2z"/>
		<path id="XMLID_132_" class="st1" d="M121.8,234.4c0.8,2.1,2.8,5.9,2.9,7.2c-0.2-3-2.2-6.9-3.1-9.7c-2-6.1-4.2-12.1-6.5-18.1
			c-0.1-0.3,0.3-0.4,0.4-0.1c3.8,9.9,7.2,19.9,10.3,30c0.1,0.2-0.3,0.4-0.4,0.2c-1.5-3-2.9-6.1-4-9.3
			C121.2,234.2,121.7,234.1,121.8,234.4z"/>
		<path id="XMLID_131_" class="st1" d="M121.5,242.6c-0.9-2.1-1.8-4.3-2.7-6.4c0.8,2.2,1.5,4.3,2.3,6.5c0.1,0.3-0.3,0.4-0.4,0.2
			c-5.6-9.2-8.4-21-12.2-31.1c-0.1-0.3,0.3-0.4,0.4-0.1c2,5.2,3.9,10.4,5.9,15.6c1,2.6,1.9,5.2,2.9,7.8c0.6,1.6,3.3,9.2,1.5,3.6
			c-1.1-3.4-2.2-6.8-3.4-10.1c-1-2.6-1.9-5.2-2.8-7.8c-1.9-5.3-3.9-10.5-5.9-15.7c-0.1-0.3,0.3-0.4,0.4-0.1c1.1,2.8,2.1,5.7,3.1,8.5
			c0-0.2,0.3-0.3,0.4-0.1c1.6,5.4,3.4,10.7,5.4,16c1.2,3.1,6,16.3,2.8,5.9c-3.4-11.1-7.2-22.1-10.9-33.1c-0.1-0.3,0.3-0.4,0.4-0.1
			c4.6,13.4,9.1,26.8,13.1,40.3C121.9,242.7,121.6,242.9,121.5,242.6z"/>
		<path id="XMLID_130_" class="st1" d="M103.1,226.9c-0.4-0.9-0.9-1.8-1.3-2.7c-0.1-0.3,0.3-0.5,0.4-0.2c0.1,0.2,0.2,0.3,0.2,0.5
			c-0.4-1.7-0.9-3.5-1.4-5.2c-0.1,0.1-0.3,0.1-0.3-0.1c-1.1-3.6-2.3-7.1-3.6-10.6c-0.1-0.3,0.3-0.4,0.4-0.1c1.1,2.9,2.1,5.7,3,8.7
			c0-0.2,0.3-0.3,0.4-0.1c0.9,3.2,1.7,6.4,2.5,9.6C103.6,227,103.2,227.2,103.1,226.9z"/>
		<path id="XMLID_129_" class="st1" d="M97.3,204.8c2.3,3.3,3.8,6.9,4.7,10.8c0.1,0.3-0.4,0.4-0.4,0.1c-0.9-3.9-2.4-7.4-4.7-10.7
			C96.7,204.8,97.1,204.6,97.3,204.8z"/>
		<path id="XMLID_128_" class="st1" d="M98.1,216.7c0.6,1,1.1,2,1.5,3c-0.5-1.4-0.9-2.7-1.3-4.1c-0.1-0.3,0.3-0.4,0.4-0.1
			c1.4,3.8,2.6,7.6,3.8,11.5c0.1,0.3-0.4,0.4-0.4,0.1c-0.3-0.9-0.6-1.8-0.9-2.7c0,0.3-0.4,0.4-0.4,0.1c-0.6-2.7-1.6-5.2-3-7.6
			C97.5,216.6,97.9,216.4,98.1,216.7z"/>
		<path id="XMLID_127_" class="st1" d="M99.5,222.8c0.7,1.1,1.3,2.3,1.9,3.5c0.1,0.3-0.3,0.5-0.4,0.2c-0.6-1.2-1.2-2.4-1.9-3.5
			C98.9,222.8,99.3,222.6,99.5,222.8z"/>
		<path id="XMLID_126_" class="st1" d="M98.5,223.6c0.5,0.9,0.9,1.9,1.3,2.9c0.1,0.2-0.1,0.3-0.3,0.3c-0.5-0.2-0.8-0.3-1.2-0.8
			c-0.2-0.2,0.1-0.5,0.3-0.3c1.2,1.3-0.4-1.6-0.5-1.9C98,223.5,98.4,223.3,98.5,223.6z"/>
		<path id="XMLID_125_" class="st1" d="M130.7,250.6c0.1,1.9,0.2,3.9,0.5,5.8c0,0.3-0.4,0.4-0.4,0.1c-0.3-2-0.5-3.9-0.5-5.9
			C130.3,250.3,130.7,250.3,130.7,250.6z"/>
		<path id="XMLID_124_" class="st1" d="M128.9,249.3c0.3,1.5,0.5,3.1,0.8,4.6c0,0.3-0.4,0.4-0.4,0.1c-0.3-1.5-0.5-3.1-0.8-4.6
			C128.4,249.1,128.8,249,128.9,249.3z"/>
		<path id="XMLID_123_" class="st1" d="M126.8,247.9c0.3,1.4,0.6,2.9,0.9,4.3c0.1,0.3-0.4,0.4-0.4,0.1c-0.3-1.4-0.6-2.9-0.9-4.3
			C126.3,247.8,126.8,247.6,126.8,247.9z"/>
		<path id="XMLID_122_" class="st1" d="M124.9,247.5c0.1,1,0.2,1.9,0.2,2.9c0,0.3-0.4,0.3-0.5,0.1c0-0.1-0.1-0.3-0.1-0.4
			c0,0,0,0,0-0.1c-0.1-0.8-0.1-1.6-0.2-2.5C124.4,247.2,124.9,247.2,124.9,247.5z"/>
		<path id="XMLID_121_" class="st1" d="M123,247.7c0-0.3-0.1-0.7-0.1-1c0-0.3,0.4-0.4,0.4-0.1c0.1,0.7,0.2,1.4,0.3,2.1
			c0,0.2-0.3,0.4-0.4,0.2c-0.2-0.3-0.3-0.6-0.5-0.9C122.6,247.7,122.9,247.6,123,247.7z"/>
		<path id="XMLID_120_" class="st1" d="M120.6,245.1c0.2,0.7,0.5,1.2,0.9,1.7c-0.1-0.6-0.3-1.3-0.4-1.9c-0.1-0.3,0.4-0.4,0.4-0.1
			c0.2,1,0.4,1.9,0.6,2.9c0,0.2-0.2,0.4-0.4,0.2c-0.8-0.8-1.2-1.6-1.6-2.6C120.1,245,120.5,244.9,120.6,245.1z"/>
		<path id="XMLID_119_" class="st1" d="M119.5,243.2c0.2,0.5,0.1,0.8-0.1,1.3c-0.1,0.3-0.5,0-0.4-0.2c0-0.3,0-0.6,0-0.9
			C118.9,243,119.4,242.9,119.5,243.2z"/>
		<path id="XMLID_118_" class="st1" d="M117,242.6c0-0.3-0.1-0.7-0.1-1c0-0.3,0.4-0.4,0.4-0.1c0.1,0.5,0.1,1.1,0.2,1.6
			c0,0.2-0.3,0.4-0.4,0.2c-0.1-0.1-0.2-0.2-0.2-0.4C116.8,242.7,116.9,242.6,117,242.6z"/>
		<path id="XMLID_117_" class="st1" d="M106.5,231.7c0.2,0.3,0.4,0.7,0.6,1c0-0.2,0.3-0.3,0.4,0c0.2,0.5,0.3,1.1,0.5,1.6
			c0.1,0.2-0.3,0.4-0.4,0.2c-0.5-0.9-0.9-1.7-1.4-2.6C106,231.7,106.4,231.5,106.5,231.7z"/>
		<path id="XMLID_116_" class="st1" d="M105.1,231.8c0.1,0.1,0.2,0.2,0.4,0.4c-0.1-0.3-0.1-0.6-0.2-0.8c-0.1-0.3,0.4-0.4,0.4-0.1
			c0.1,0.6,0.3,1.1,0.4,1.7c0.1,0.2-0.2,0.3-0.3,0.3c-0.6-0.3-0.9-0.5-1.1-1.2C104.5,231.6,105,231.5,105.1,231.8z"/>
		<path id="XMLID_115_" class="st1" d="M99.7,245.2c0.3,0.4,0.6,0.9,0.8,1.3c-0.3-0.6-0.5-1.3-0.8-1.9c-0.1-0.3,0.3-0.4,0.4-0.1
			c0.6,1.4,1.1,2.8,1.7,4.2c0.1,0.3-0.3,0.4-0.4,0.2c-0.3-0.4-0.6-0.9-0.8-1.3c0.6,1.5,1.2,3,1.5,4.6c0,0.2-0.2,0.3-0.3,0.3
			c-0.5-0.2-0.8-0.5-1.1-1c-0.2-0.3,0.2-0.5,0.4-0.2c0.1,0.1,0.2,0.2,0.4,0.3c-0.6-2.1-1.4-4.1-2.2-6.1
			C99.2,245.2,99.6,245,99.7,245.2z"/>
		<path id="XMLID_114_" class="st1" d="M100.7,251.3c0.4,1.3,0.7,2.6,1.1,3.8c0.1,0.3-0.4,0.4-0.4,0.1c-0.4-1.3-0.7-2.6-1.1-3.8
			C100.2,251.1,100.6,251,100.7,251.3z"/>
		<path id="XMLID_113_" class="st1" d="M100.1,260c-0.2-0.2,0.1-0.5,0.3-0.3c0.4,0.4-0.2-1.4-0.1-1.3c-0.2-0.7-0.4-1.3-0.6-2
			c-0.1-0.3,0.4-0.4,0.4-0.1c0.4,1.3,0.8,2.6,1.2,3.9c0.1,0.2-0.1,0.3-0.3,0.3C100.3,260.4,100.5,260.4,100.1,260z"/>
		<path id="XMLID_112_" class="st1" d="M100.3,264.2c-0.4-1.7-0.9-3.4-1.7-5c-0.1-0.3,0.3-0.5,0.4-0.2c0.8,1.6,1.3,3.3,1.7,5.1
			C100.8,264.3,100.3,264.5,100.3,264.2z"/>
		<path id="XMLID_111_" class="st1" d="M98.1,279.5c0.9,1.3,1.5,2.7,1.8,4.2c0.1,0.3-0.4,0.4-0.4,0.1c-0.4-1.5-1-2.8-1.8-4.1
			C97.5,279.5,97.9,279.3,98.1,279.5z"/>
		<path id="XMLID_110_" class="st1" d="M98.8,297.6c0.1,0.3-0.4,0.4-0.4,0.1c-0.4-1.3-0.9-2.5-1.4-3.8c-0.1-0.3,0.3-0.5,0.4-0.2
			C97.9,295,98.4,296.2,98.8,297.6z"/>
		<path id="XMLID_109_" class="st1" d="M98.7,305.6c-0.1-1.5-0.5-2.7-1.2-4c-0.1-0.3,0.3-0.5,0.4-0.2c0.7,1.3,1.2,2.7,1.3,4.2
			C99.2,305.9,98.7,305.9,98.7,305.6z"/>
		<path id="XMLID_108_" class="st1" d="M98.4,308.6c0,0-1.2-3.9-1.2-4c-0.1-0.3,0.3-0.5,0.4-0.2c0.6,1.4,1.1,2.9,1.4,4.4
			c0,0.1,0,0.2-0.2,0.3c-0.3,0.1-0.3,0.1-0.6,0C98,309,98.2,308.5,98.4,308.6z"/>
		<path id="XMLID_107_" class="st1" d="M98,310.8c0.1,0.2-0.2,0.4-0.4,0.2c-0.1-0.2-0.3-0.3-0.4-0.5c0.5,1.1,0.9,2.1,1.3,3.2
			c0.1,0.3-0.3,0.4-0.4,0.1c-0.6-1.5-1.3-3.1-1.9-4.6c-0.1-0.2,0.2-0.5,0.4-0.3c0.2,0.3,0.4,0.5,0.7,0.8c-0.1-0.4-0.2-0.9-0.4-1.3
			c-0.1-0.3,0.3-0.4,0.4-0.1C97.5,309.2,97.8,309.9,98,310.8z"/>
		<path id="XMLID_106_" class="st1" d="M96.7,324.9c0.4,0.7,0.8,1.3,1.2,2c0.2,0.3-0.2,0.5-0.4,0.2c-0.4-0.7-0.8-1.3-1.2-2
			C96.2,324.9,96.6,324.6,96.7,324.9z"/>
		<path id="XMLID_105_" class="st1" d="M96.7,330.6c-0.3-1.4-0.7-2.7-1.4-3.9c-0.1-0.3,0.3-0.5,0.4-0.2c0.7,1.3,1.2,2.6,1.4,4
			C97.2,330.8,96.8,330.9,96.7,330.6z"/>
		<path id="XMLID_104_" class="st1" d="M95.8,330.3c0.7,1,1,2,1.1,3.2c0,0.3-0.4,0.3-0.5,0c-0.1-1.1-0.4-2-1.1-2.9
			C95.2,330.3,95.6,330.1,95.8,330.3z"/>
		<path id="XMLID_103_" class="st1" d="M95.5,334.4c-0.1-0.3,0.3-0.5,0.4-0.2c0.4,0.9,0.7,1.8,0.8,2.9c0,0.3-0.4,0.3-0.5,0
			C96.2,336,96,335.3,95.5,334.4z"/>
		<path id="XMLID_102_" class="st1" d="M96.8,339.6c0.1,0.2-0.1,0.3-0.2,0.3c0.4,0.6,0.7,1.3,0.7,1.9c0,0.1,0,0.2-0.1,0.2
			c-0.1,0-0.1,0.1-0.2,0.1c-0.1,0-0.2,0-0.3,0c0,0-0.1-0.1-0.1-0.1c-0.2-0.2,0.1-0.5,0.3-0.3c-0.5-0.6-0.8-1.6-1.2-2.3
			c-0.1-0.2,0.1-0.4,0.3-0.3c-0.3-0.6-0.6-1.3-0.9-1.9c-0.1-0.3,0.3-0.5,0.4-0.2C95.9,337.8,96.4,338.7,96.8,339.6z"/>
		<path id="XMLID_101_" class="st1" d="M95.8,341.3c0.1,0.5,0.1,1,0.2,1.5c0,0.3-0.4,0.3-0.5,0c-0.1-0.5-0.1-1-0.2-1.5
			C95.3,341,95.8,341,95.8,341.3z"/>
		<path id="XMLID_100_" class="st1" d="M95.1,344.1c-0.1-0.6-0.3-1.1-0.6-1.6c-0.1-0.3,0.3-0.5,0.4-0.2c0.3,0.6,0.5,1.1,0.6,1.7
			C95.6,344.3,95.1,344.4,95.1,344.1z"/>
		<path id="XMLID_99_" class="st1" d="M135,281.6c-0.7-1.7-1.2-3.5-1.6-5.2c-0.1-0.3,0.4-0.4,0.4-0.1c0.4,1.8,1,3.5,1.6,5.2
			C135.5,281.7,135.1,281.9,135,281.6z"/>
		<path id="XMLID_98_" class="st1" d="M135.2,285.9c-0.6-1.6-1.2-3.3-1.7-4.9c-0.1-0.3,0.4-0.4,0.4-0.1c0.5,1.7,1.1,3.3,1.7,4.9
			C135.8,286,135.3,286.1,135.2,285.9z"/>
		<path id="XMLID_97_" class="st1" d="M133.8,284.5c0.6,1.6,1.2,3.3,1.8,4.9c0.1,0.3-0.3,0.4-0.4,0.1c-0.6-1.6-1.2-3.3-1.8-4.9
			C133.2,284.4,133.7,284.2,133.8,284.5z"/>
		<path id="XMLID_96_" class="st1" d="M134.1,289.1c0.5,1.2,0.8,2.3,1.1,3.5c0.1,0.3-0.4,0.4-0.4,0.1c-0.3-1.2-0.6-2.4-1.1-3.5
			C133.5,289,134,288.9,134.1,289.1z"/>
		<path id="XMLID_95_" class="st1" d="M135.2,296.7c-0.1-1.2-0.4-2.2-0.8-3.3c-0.1-0.3,0.3-0.4,0.4-0.1c0.4,1.1,0.7,2.2,0.8,3.4
			C135.7,297,135.2,297,135.2,296.7z"/>
		<path id="XMLID_94_" class="st1" d="M134.6,296.7c0.2,0.7,0.6,1.3,0.6,2c0,0.1,0,0.2-0.1,0.2c0,0-0.1,0.1-0.1,0.1
			c-0.1,0-0.2,0-0.2,0c0,0-0.1,0-0.1-0.1c-0.3-0.1,0-0.5,0.2-0.4c-0.2-0.1-0.6-1.5-0.7-1.7C134,296.5,134.5,296.4,134.6,296.7z"/>
		<path id="XMLID_93_" class="st1" d="M136.2,329.7c-0.2-1.5-0.6-3-1.1-4.4c-0.1-0.3,0.3-0.4,0.4-0.1c0.5,1.5,0.9,2.9,1.1,4.4
			C136.7,329.8,136.3,330,136.2,329.7z"/>
		<path id="XMLID_92_" class="st1" d="M136.6,334.6c-0.3-1.7-0.8-3.3-1.4-4.9c-0.1-0.3,0.3-0.4,0.4-0.1c0.6,1.6,1.1,3.2,1.4,4.9
			C137.1,334.8,136.7,334.9,136.6,334.6z"/>
		<path id="XMLID_91_" class="st1" d="M135.8,334.6c0.5,1,0.7,1.9,0.8,3c0,0.3-0.4,0.3-0.5,0c-0.1-1.1-0.3-1.8-0.8-2.8
			C135.2,334.6,135.6,334.3,135.8,334.6z"/>
		<path id="XMLID_90_" class="st1" d="M135.8,350.6c-0.1-0.7-0.3-1.4-0.4-2.2c-0.1-0.3,0.4-0.4,0.4-0.1c0.2,0.7,0.3,1.4,0.4,2.2
			C136.3,350.8,135.9,350.9,135.8,350.6z"/>
		<path id="XMLID_89_" class="st1" d="M135.7,353.2c-0.1,0.3-0.5,0.2-0.4-0.1c0-0.5,0-1.1-0.1-1.6c-0.1-0.3,0.4-0.4,0.4-0.1
			C135.8,352.1,135.8,352.6,135.7,353.2z"/>
		<path id="XMLID_88_" class="st1" d="M135.8,355.8c-0.2-0.5-0.3-1-0.5-1.5c-0.1-0.3,0.4-0.4,0.4-0.1c0.2,0.5,0.3,1,0.5,1.5
			C136.3,356,135.9,356.1,135.8,355.8z"/>
		<path id="XMLID_87_" class="st1" d="M136.4,360.7c-0.1-1.1-0.4-1.8-0.9-2.8c-0.1-0.3,0.3-0.5,0.4-0.2c0.5,1,0.8,1.9,0.9,3
			C136.9,361,136.4,361,136.4,360.7z"/>
		<path id="XMLID_86_" class="st1" d="M136.1,361.6c0.2,1,0.5,1.9,0.8,2.8c0.1,0.3-0.3,0.4-0.4,0.1c-0.4-0.9-0.6-1.8-0.8-2.8
			C135.6,361.4,136,361.3,136.1,361.6z"/>
		<path id="XMLID_85_" class="st1" d="M136.9,368.6c-0.3-1.1-0.6-2.1-0.8-3.2c-0.1-0.3,0.4-0.4,0.4-0.1c0.3,1.1,0.6,2.1,0.8,3.2
			C137.5,368.7,137,368.9,136.9,368.6z"/>
		<path id="XMLID_84_" class="st1" d="M136.1,369.7c0.3,1.1,0.6,2.3,0.9,3.4c0.1,0.3-0.4,0.4-0.4,0.1c-0.3-1.1-0.6-2.3-0.9-3.4
			C135.6,369.5,136,369.4,136.1,369.7z"/>
		<path id="XMLID_83_" class="st1" d="M136.8,374.6c0.5,0.8,0.6,1.6,0.3,2.5c-0.1,0.3-0.5,0.2-0.4-0.1c0.3-0.7,0.2-1.5-0.3-2.1
			C136.2,374.6,136.6,374.3,136.8,374.6z"/>
		<path id="XMLID_82_" class="st1" d="M136.3,379.1c-0.1-0.3,0.3-0.5,0.4-0.2c0.4,0.8,0.6,1.6,0.6,2.6c0,0.3-0.4,0.3-0.5,0
			C136.8,380.6,136.6,379.8,136.3,379.1z"/>
		<path id="XMLID_81_" class="st1" d="M136.4,388.7c-0.1-0.4-0.2-0.7-0.3-1.1c-0.1-0.3,0.4-0.4,0.4-0.1c0.1,0.4,0.2,0.7,0.3,1.1
			C136.9,388.9,136.5,389,136.4,388.7z"/>
		<path id="XMLID_80_" class="st1" d="M215.8,268.1c0.8,2.6,1.6,5.2,2.5,7.8c0.1,0.2-0.3,0.4-0.4,0.2c-0.2-0.5-0.5-0.9-0.7-1.4
			c0.6,1.5,1.1,3.1,1.5,4.7c0.1,0.3-0.4,0.4-0.4,0.1c-0.6-2.4-1.4-4.7-2.3-6.9c-0.1-0.3,0.3-0.4,0.4-0.1c0.2,0.5,0.4,1,0.5,1.4
			c0-0.2,0.2-0.2,0.3-0.1c-0.6-1.9-1.2-3.8-1.8-5.6C215.3,267.9,215.8,267.8,215.8,268.1z"/>
		<path id="XMLID_79_" class="st1" d="M215.2,282.2c1,3.3,2,6.5,3.1,9.7c0.1,0.3-0.3,0.4-0.4,0.2c-1-1.7-1.8-3.4-2.5-5.3
			c0.2,2,1.8,3.9,1.6,5.8c0,0.1-0.1,0.2-0.2,0.2c0,0-0.1,0-0.1,0c-0.1,0-0.2-0.1-0.2-0.2c0,0,0-0.1,0-0.1c0-0.3,0.4-0.4,0.4-0.1
			c-0.1-0.5-0.7-1.6-0.9-2.2c-0.2-0.7-0.4-1.4-0.6-2.1c-0.3-0.9-0.5-1.6-0.4-2.4c0,0,0,0,0,0h0c0,0,0-0.1,0-0.1c0-0.2,0.4-0.2,0.4,0
			c0.5,1.4,1.1,2.7,1.8,4c-0.8-2.5-1.6-4.9-2.3-7.4C214.6,282,215.1,281.9,215.2,282.2z"/>
		<path id="XMLID_78_" class="st1" d="M217,304.6c-0.3-0.1-0.2-0.5,0.1-0.4c-0.2-0.1-0.7-2.8-0.8-3.2c-0.3-1-0.6-2.1-1-3.1
			c-0.1-0.3,0.3-0.4,0.4-0.1c0.5,1.5,1,3.1,1.4,4.7c0.2,0.6,0.6,1.5,0.2,2.1c-0.1,0.1-0.2,0.1-0.3,0.1
			C217.1,304.7,217.1,304.7,217,304.6z"/>
		<path id="XMLID_77_" class="st1" d="M215.1,300.4c0.9,2.4,1.7,4.8,2.3,7.4c0.1,0.3-0.4,0.4-0.4,0.1c-0.6-2.5-1.3-5-2.3-7.4
			C214.6,300.2,215,300.1,215.1,300.4z"/>
		<path id="XMLID_76_" class="st1" d="M217.1,317.6c0,0.2-0.2,0.4-0.4,0.2c-0.2-0.2-0.4-0.5-0.6-0.7c-0.2-0.2,0.1-0.5,0.3-0.4
			c-0.6-2.5-1.3-5.1-2-7.6c-0.1-0.3,0.4-0.4,0.4-0.1C215.7,311.8,216.4,314.7,217.1,317.6z"/>
		<path id="XMLID_75_" class="st1" d="M216,319.5c-0.3-0.3-0.4-0.7-0.7-1.1c0.5,1.4,1,2.9,1.6,4.3c0.1,0.2-0.2,0.4-0.3,0.3
			c-0.8-0.5-1.2-0.9-1.4-1.8c-0.1-0.3,0.4-0.4,0.4-0.1c0.2,0.3,0.4,0.7,0.6,1c-0.1-0.4-0.3-0.8-0.4-1.2c-0.2-0.7-0.5-1.3-0.7-2
			c-0.5-1.3-0.9-2.6-1.4-3.9c-0.1-0.3,0.3-0.4,0.4-0.1c0.4,1,0.9,2,1.4,2.9c-0.5-2-1.2-4-2-5.9c-0.1-0.3,0.3-0.4,0.4-0.1
			c1,2.4,1.8,4.9,2.4,7.5C216.5,319.6,216.2,319.8,216,319.5z"/>
		<path id="XMLID_72_" class="st1" d="M225.4,280.2c-0.6-3-1.4-5.9-2.4-8.8c-0.1-0.3,0.3-0.4,0.4-0.1c1,2.9,1.8,5.8,2.4,8.8
			C225.9,280.4,225.5,280.5,225.4,280.2z"/>
		<path id="XMLID_71_" class="st1" d="M223.4,280.2c0.8,2.8,1.6,5.7,2.2,8.6c0.1,0.3-0.4,0.4-0.4,0.1c-0.6-2.9-1.4-5.8-2.2-8.6
			C222.9,280,223.3,279.9,223.4,280.2z"/>
		<path id="XMLID_70_" class="st1" d="M222.7,286.7c0.9,3.3,1.9,6.5,3.2,9.7c0.1,0.3-0.3,0.4-0.4,0.1c-1.3-3.2-2.4-6.4-3.2-9.7
			C222.1,286.5,222.6,286.4,222.7,286.7z"/>
		<path id="XMLID_69_" class="st1" d="M224.5,314.8c0.1,0.3-0.4,0.4-0.4,0.1c-1.4-4.3-2.6-8.7-3.6-13.2c-0.1-0.3,0.4-0.4,0.4-0.1
			C221.9,306.1,223.1,310.5,224.5,314.8z"/>
		<path id="XMLID_68_" class="st1" d="M224,322.8c-1.2-4.2-2.6-8.4-4.2-12.5c-0.1-0.3,0.3-0.4,0.4-0.1c1.7,4.1,3.1,8.2,4.2,12.5
			C224.6,322.9,224.1,323.1,224,322.8z"/>
		<path id="XMLID_67_" class="st1" d="M221.4,319.3c1,2.5,1.8,5.1,2.6,7.7c0.1,0.3-0.4,0.4-0.4,0.1c-0.8-2.6-1.6-5.2-2.6-7.7
			C220.9,319.1,221.3,319,221.4,319.3z"/>
		<path id="XMLID_66_" class="st1" d="M221.1,326.7c0.1,0.3,0.1,0.5,0.2,0.8c0.1,0.3-0.4,0.4-0.4,0.1c-0.1-0.3-0.1-0.5-0.2-0.8
			C220.6,326.5,221,326.4,221.1,326.7z"/>
		<path id="XMLID_65_" class="st1" d="M219.3,330.6c-0.1-0.4-0.3-0.7-0.4-1.1c-0.1-0.3,0.3-0.4,0.4-0.1c0.1,0.4,0.3,0.7,0.4,1.1
			C219.8,330.8,219.4,330.9,219.3,330.6z"/>
		<path id="XMLID_64_" class="st1" d="M293.3,266.2c-0.8-2-1.7-4-2.5-6c-0.1-0.3,0.3-0.4,0.4-0.1c0.8,2,1.7,4,2.5,6
			C293.8,266.3,293.4,266.4,293.3,266.2z"/>
		<path id="XMLID_63_" class="st1" d="M291.3,264c1,1.8,1.8,3.6,2.5,5.5c0.1,0.3-0.3,0.4-0.4,0.1c-0.7-1.9-1.5-3.6-2.4-5.3
			C290.7,264,291.1,263.7,291.3,264z"/>
		<path id="XMLID_62_" class="st1" d="M292.9,277.7c-0.5-2.2-1.1-4.2-2.1-6.3c-0.1-0.3,0.3-0.5,0.4-0.2c1,2.1,1.7,4.2,2.1,6.4
			C293.4,277.9,293,278,292.9,277.7z"/>
		<path id="XMLID_61_" class="st1" d="M293.8,280.6c-0.7-1.7-1.4-3.4-2.3-5c-0.1-0.3,0.3-0.5,0.4-0.2c0.9,1.7,1.7,3.4,2.4,5.1
			C294.3,280.8,293.9,280.9,293.8,280.6z"/>
		<path id="XMLID_60_" class="st1" d="M294,287c-0.6-1.2-1.2-2.4-1.8-3.6c-0.1-0.3,0.3-0.5,0.4-0.2c0.6,1.2,1.2,2.4,1.8,3.6
			C294.5,287.1,294.1,287.3,294,287z"/>
		<path id="XMLID_59_" class="st1" d="M294.2,290.2c-0.7-1.3-1.4-2.6-2.2-3.8c-0.2-0.3,0.2-0.5,0.4-0.2c0.8,1.2,1.5,2.5,2.2,3.8
			C294.7,290.3,294.3,290.5,294.2,290.2z"/>
		<path id="XMLID_58_" class="st1" d="M293.9,292.6c-0.3-0.8-0.6-1.6-0.9-2.5c-0.1-0.3,0.3-0.4,0.4-0.1c0.3,0.8,0.6,1.6,0.9,2.5
			C294.5,292.8,294,292.9,293.9,292.6z"/>
		<path id="XMLID_57_" class="st1" d="M292.5,292.5c0.6,1.3,1.2,2.7,1.9,4c0.1,0.3-0.3,0.5-0.4,0.2c-0.6-1.3-1.2-2.7-1.9-4
			C291.9,292.4,292.3,292.2,292.5,292.5z"/>
		<path id="XMLID_56_" class="st1" d="M295,321.2c-0.4-1.6-0.9-3.1-1.5-4.6c-0.1-0.3,0.3-0.4,0.4-0.1c0.6,1.5,1.1,3,1.5,4.6
			C295.5,321.4,295.1,321.5,295,321.2z"/>
		<path id="XMLID_55_" class="st1" d="M295.3,324.3c-0.2-0.9-0.4-1.5-0.8-2.4c-0.1-0.3,0.3-0.5,0.4-0.2c0.4,0.8,0.7,1.6,0.9,2.5
			C295.8,324.5,295.4,324.6,295.3,324.3z"/>
		<path id="XMLID_54_" class="st1" d="M294.9,330.2c-0.2-0.6-0.3-1.1-0.5-1.7c-0.1-0.3,0.4-0.4,0.4-0.1c0.2,0.6,0.3,1.1,0.5,1.7
			C295.5,330.3,295,330.4,294.9,330.2z"/>
		<path id="XMLID_53_" class="st1" d="M296.3,336c-0.5-2.1-1.2-4.2-2-6.2c-0.1-0.3,0.3-0.4,0.4-0.1c0.8,2,1.5,4,2,6.2
			C296.8,336.2,296.4,336.3,296.3,336z"/>
		<path id="XMLID_52_" class="st1" d="M295.2,334.2c0.2,1,0.3,1.9,0.5,2.9c0,0.3-0.4,0.4-0.4,0.1c-0.2-1-0.3-1.9-0.5-2.9
			C294.7,334,295.2,333.9,295.2,334.2z"/>
		<path id="XMLID_51_" class="st1" d="M297.4,361.6c-0.2,0-0.4-0.1-0.5-0.1c0.2,0.6,0.3,1.1,0.4,1.7c0,0.3-0.4,0.3-0.5,0
			c-0.1-0.7-0.2-1.3-0.5-1.9c-0.1-0.3,0.3-0.4,0.4-0.1c0.1-0.1,0.1-0.1,0.2-0.1c0.5,0.1-0.6-2.6-0.6-2.5c-0.1-0.3,0.3-0.5,0.4-0.2
			c0.4,1,0.7,1.9,0.9,3C297.7,361.4,297.6,361.6,297.4,361.6z"/>
		<path id="XMLID_50_" class="st1" d="M306.2,248.3c0-0.3,0.4-0.3,0.5,0c0,0.1,0,0.2,0,0.3c0.2,0,0.3,0.2,0.2,0.3
			c-0.1,0.1-0.1,0.1-0.2,0.2c0,0,0,0,0,0c0.1,1.8,0,3.6-0.4,5.4c-0.1,0.3-0.5,0.2-0.4-0.1C306.3,252.3,306.4,250.4,306.2,248.3z"/>
		<path id="XMLID_49_" class="st1" d="M301.8,249.2c0.5,3.4,0.7,6.9,0.6,10.4c0,0.3-0.5,0.3-0.5,0c0.1-3.4-0.1-6.8-0.6-10.2
			C301.4,249,301.8,248.9,301.8,249.2z"/>
		<path id="XMLID_48_" class="st1" d="M300.7,248.7c0.4,3.3,0.6,6.7,0.6,10c0,0.3-0.5,0.3-0.5,0c0-3.3-0.2-6.7-0.6-10
			C300.2,248.5,300.6,248.5,300.7,248.7z"/>
		<path id="XMLID_47_" class="st1" d="M298.5,251.5c0.3,2.4,0.4,4.8,0.3,7.2c0,0.3-0.5,0.3-0.5,0c0-2.4-0.1-4.8-0.3-7.2
			C298,251.2,298.4,251.2,298.5,251.5z"/>
		<path id="XMLID_46_" class="st1" d="M297.2,249.9c0.4,2.5,0.6,5,0.5,7.6c0,0.3-0.5,0.3-0.5,0c0.1-2.5-0.1-5-0.5-7.5
			C296.7,249.8,297.1,249.6,297.2,249.9z"/>
		<path id="XMLID_45_" class="st1" d="M149.5,264.3c0,4.5,0,9,0,13.5c0,0.3-0.5,0.3-0.5,0c0-4.5,0-9,0-13.5
			C149,264,149.5,264,149.5,264.3z"/>
		<path id="XMLID_44_" class="st1" d="M145.2,264.9c0,3.7,0,7.5,0,11.2c0,0.3-0.5,0.3-0.5,0c0-3.7,0-7.5,0-11.2
			C144.7,264.6,145.2,264.6,145.2,264.9z"/>
		<path id="XMLID_43_" class="st1" d="M143.3,266.1c0.3,3.8,0.5,7.7,0.6,11.5c0,0.3-0.5,0.3-0.5,0c-0.1-3.9-0.3-7.7-0.6-11.5
			C142.9,265.8,143.3,265.8,143.3,266.1z"/>
		<path id="XMLID_42_" class="st1" d="M141.8,265c0.3,4.4,0.6,8.8,0.9,13.2c0,0.3-0.4,0.3-0.5,0c-0.3-4.4-0.6-8.8-0.9-13.2
			C141.3,264.8,141.8,264.8,141.8,265z"/>
		<path id="XMLID_41_" class="st1" d="M139.4,282.1c-0.1-5.2-0.3-10.5-0.4-15.7c0-0.3,0.5-0.3,0.5,0c0.1,5.2,0.3,10.5,0.4,15.7
			C139.9,282.4,139.4,282.4,139.4,282.1z"/>
		<path id="XMLID_40_" class="st1" d="M106.4,237.8c-0.6,7.3-1.3,14.6-1.9,21.8c0,0.3-0.5,0.3-0.5,0c0.6-7.3,1.3-14.6,1.9-21.8
			C106,237.6,106.4,237.5,106.4,237.8z"/>
		<path id="XMLID_39_" class="st1" d="M146.3,245c-1.9,0-5.1-0.5-6.8,0.5c-0.3,0.2-0.5-0.2-0.2-0.4c1.5-0.9,3.4-0.6,5.1-0.6
			c2.6,0,5.1,0,7.7,0c0.3,0,0.3,0.5,0,0.5C150.1,245,148.2,245,146.3,245z"/>
		<path id="XMLID_38_" class="st1" d="M143.7,242.3c-1.8-0.1-5.1-0.7-6.6,0.6c-0.2,0.2-0.6-0.1-0.3-0.3c1.3-1.1,2.9-0.8,4.5-0.8
			c2.9,0.1,5.7,0.2,8.6,0.3c0.3,0,0.3,0.5,0,0.5C147.8,242.5,145.7,242.4,143.7,242.3z"/>
		<path id="XMLID_37_" class="st1" d="M136.5,232.8c-0.3,0-0.3-0.5,0-0.5c0.6,0,1,0.1,1.6,0.3c0.3,0.1,0.2,0.6-0.1,0.4
			C137.5,232.9,137,232.8,136.5,232.8z"/>
		<path id="XMLID_36_" class="st1" d="M136.5,231.9c-0.3,0-0.3-0.5,0-0.5c0.2,0,0.3,0,0.5,0c0.3,0,0.3,0.5,0,0.5
			C136.8,231.9,136.6,231.9,136.5,231.9z"/>
		<path id="XMLID_35_" class="st1" d="M109.4,198.5c-0.3,0-0.3-0.4,0-0.5c8.4-0.9,16.7-1.9,25.1-2.8c0.3,0,0.3,0.4,0,0.5
			C126.1,196.6,117.8,197.5,109.4,198.5z"/>
		<path id="XMLID_34_" class="st1" d="M111,201.3c-0.3,0-0.4-0.4-0.1-0.4c8.4-1.3,16.9-1.9,25.5-1.8c0.3,0,0.3,0.5,0,0.5
			C127.8,199.4,119.4,199.9,111,201.3z"/>
		<path id="XMLID_33_" class="st1" d="M117.5,204.2c5.3-0.8,10.7-1.2,16-1.2c0.3,0,0.3,0.5,0,0.5c-5.3,0-10.6,0.3-15.9,1.2
			C117.4,204.7,117.2,204.2,117.5,204.2z"/>
		<path id="XMLID_32_" class="st1" d="M134.3,203.5c0.3,0,0.3,0.5,0,0.5c-6.2,0-12.4,0.6-18.5,1.8c-0.3,0.1-0.4-0.4-0.1-0.4
			C121.8,204.2,128,203.6,134.3,203.5z"/>
		<path id="XMLID_31_" class="st1" d="M122.1,208.5c3.6-1.5,7.4-2.2,11.3-2.3c0.3,0,0.3,0.5,0,0.5c-3.9,0-7.6,0.8-11.2,2.3
			C122,209.1,121.8,208.6,122.1,208.5z"/>
		<path id="XMLID_30_" class="st1" d="M134.5,209.5c0.3,0,0.3,0.5,0,0.5c-4.3-0.2-8.5,0.1-12.7,0.7c-0.3,0-0.4-0.4-0.1-0.4
			C125.9,209.6,130.2,209.3,134.5,209.5z"/>
		<path id="XMLID_29_" class="st1" d="M135.4,212.8c0.3,0,0.3,0.5,0,0.5c-3.4-0.4-6.8-0.4-10.2,0.1c-0.3,0-0.4-0.4-0.1-0.4
			C128.5,212.5,131.9,212.4,135.4,212.8z"/>
		<path id="XMLID_28_" class="st1" d="M133.3,216c0.3,0.1,0.2,0.5-0.1,0.4c-2.3-0.8-4.6-1-7-0.8c-0.3,0-0.3-0.4,0-0.5
			C128.7,215,131,215.2,133.3,216z"/>
		<path id="XMLID_27_" class="st1" d="M135.2,218.9c0.3,0.1,0.2,0.5-0.1,0.4c-0.6-0.2-1.1-0.3-1.7-0.5c-0.3-0.1-0.2-0.5,0.1-0.4
			C134,218.5,134.6,218.7,135.2,218.9z"/>
		<path id="XMLID_26_" class="st1" d="M135.6,221.6c-0.3-0.1,0-0.5,0.2-0.4c0.5,0.2,0.9,0.4,1.4,0.6c0.3,0.1,0,0.5-0.2,0.4
			C136.5,222,136.1,221.8,135.6,221.6z"/>
		<path id="XMLID_25_" class="st1" d="M137.8,223.3c0.3,0.1,0.5,0.1,0.8,0.2c0.3,0.1,0.2,0.5-0.1,0.4c-0.3-0.1-0.5-0.1-0.8-0.2
			C137.4,223.7,137.5,223.3,137.8,223.3z"/>
		<path id="XMLID_24_" class="st1" d="M134.8,223.4c1.1,0.1,2.1,0.4,3.1,0.8c0.3,0.1,0.2,0.6-0.1,0.4c-1-0.4-1.9-0.6-3-0.8
			C134.5,223.9,134.5,223.4,134.8,223.4z"/>
		<path id="XMLID_23_" class="st1" d="M132,183.4c0.3,0,0.3,0.4,0,0.5c-10,1-20,1.9-30,2.9c-0.3,0-0.3-0.4,0-0.5
			C112,185.4,122,184.4,132,183.4z"/>
		<path id="XMLID_22_" class="st1" d="M101.7,182.6c-0.3,0-0.3-0.4,0-0.5c10.8-1.1,21.6-2.3,32.3-3.4c0.3,0,0.3,0.4,0,0.5
			C123.3,180.3,112.5,181.5,101.7,182.6z"/>
		<path id="XMLID_21_" class="st1" d="M101.5,179c-0.3,0-0.4-0.4-0.1-0.4c7.7-1.1,15.5-1.7,23.3-2c0.3,0,0.3,0.5,0,0.5
			C116.9,177.3,109.2,177.9,101.5,179z"/>
		<path id="XMLID_20_" class="st1" d="M100.6,175.3c-0.3,0.1-0.4-0.4-0.1-0.4c5-1,9.9-1.4,15-1.2c0.3,0,0.3,0.5,0,0.5
			C110.4,173.9,105.5,174.3,100.6,175.3z"/>
		<path id="XMLID_19_" class="st1" d="M101.4,168c-0.3,0-0.3-0.5,0-0.5c2.8,0,5.5,0,8.3,0c0.3,0,0.3,0.5,0,0.5
			C107,168,104.2,168,101.4,168z"/>
		<path id="XMLID_18_" class="st1" d="M104.7,164c0.3,0,0.3,0.5,0,0.5c-1.2,0-2.3,0.1-3.5,0.3c-0.3,0.1-0.4-0.4-0.1-0.4
			C102.3,164,103.4,163.9,104.7,164z"/>
		<path id="XMLID_17_" class="st1" d="M102.2,154.9c-1-0.1-1.9-0.1-2.9-0.2c-0.3,0-0.3-0.5,0-0.5c1,0.1,1.9,0.1,2.9,0.2
			C102.5,154.4,102.5,154.9,102.2,154.9z"/>
		<path id="XMLID_16_" class="st1" d="M101.9,152c-0.5,0-1,0-1.5,0c-0.3,0-0.3-0.5,0-0.5c0.5,0,1,0,1.5,0
			C102.2,151.5,102.2,152,101.9,152z"/>
		<path id="XMLID_15_" class="st1" d="M100,149.3c0.5-0.1,0.9-0.2,1.4-0.1c0.3,0,0.3,0.5,0,0.5c-0.4-0.1-0.9,0-1.3,0.1
			C99.8,149.9,99.7,149.4,100,149.3z"/>
		<path id="XMLID_14_" class="st1" d="M100.1,148.2c-0.3,0-0.4-0.4-0.1-0.4c0.9-0.2,1.7-0.1,2.6,0c0.3,0.1,0.2,0.5-0.1,0.4
			C101.7,148.1,100.9,148.1,100.1,148.2z"/>
		<path id="XMLID_13_" class="st1" d="M101.6,159.4C101.6,159.4,101.6,159.5,101.6,159.4c-0.1,0.1-0.1,0-0.1,0
			c-0.5,0-1.1-0.1-1.6-0.1c-0.3,0-0.3-0.5,0-0.5c2,0,4,0.1,6,0.3c0.3,0,0.3,0.5,0,0.5C104.5,159.5,103.1,159.5,101.6,159.4z"/>
		<path id="XMLID_6_" class="st1" d="M136.1,190.9c1.4,0.3,2.8,0.7,4.1,1.4c0.3,0.1,0,0.5-0.2,0.4c-1.3-0.6-2.6-1.1-4-1.3
			C135.7,191.3,135.8,190.8,136.1,190.9z"/>
		<path id="XMLID_5_" class="st1" d="M131.1,191.8c-0.3,0-0.3-0.5,0-0.5c1.4,0.1,2.6,0.3,3.9,0.7c0.3,0.1,0.2,0.5-0.1,0.4
			C133.6,192.1,132.4,191.9,131.1,191.8z"/>
		<path id="XMLID_4_" class="st1" d="M133.2,193c-1.4-0.5-2.7-0.9-4.2-1.2c-0.3-0.1-0.2-0.5,0.1-0.4c1.4,0.3,2.8,0.7,4.2,1.2
			C133.6,192.6,133.5,193.1,133.2,193z"/>
		<path id="XMLID_3_" class="st1" d="M116.4,192.9c-0.3-0.1-0.2-0.5,0.1-0.4c1.2,0.2,2.4,0.5,3.5,0.9c0.3,0.1,0.2,0.5-0.1,0.4
			C118.8,193.4,117.6,193.1,116.4,192.9z"/>
		<path id="XMLID_2_" class="st1" d="M116.6,194.4c-1-0.2-2-0.5-2.9-0.7c-0.3-0.1-0.2-0.5,0.1-0.4c1,0.2,2,0.5,2.9,0.7
			C117,194,116.9,194.4,116.6,194.4z"/>
	</g>
	<g>
		<path class="st1" d="M219.1,181c-0.2-0.7-0.4-1.3-0.6-2c-0.1-0.3-0.2-0.5-0.3-0.8c0,0,0,0,0-0.1c-0.2-0.4-0.3-0.8-0.6-1.1
			c-0.2-0.2-0.5-0.4-0.9-0.6c-1.2-0.5-2.4-1-3.5-1.5c-6.3-2.4-12.9-3.4-19.8-2.9c-7,0.4-13.6,2.3-19.7,5.7c-0.5,0.3-1,0.6-1.4,1
			c-0.5,0.6-0.9,1.3-1,2.1c0,0.2,0,0.3,0,0.5c0,0,0,0.1,0,0.1c0,0.2,0,0.4-0.1,0.7c-0.1,1.1-0.1,2.2-0.2,3.3c0,0.6-0.1,1.2-0.1,1.9
			l0.5,0l0-1.1c0-0.2,0-0.5,0-0.7c0-1,0.1-2.1,0.2-3.1c0-0.2,0-0.4,0.1-0.6c0-0.1,0-0.2,0-0.4c0-0.1,0-0.3,0-0.4
			c0.1-0.9,0.7-1.7,1.4-2.2c0.2-0.2,0.4-0.3,0.6-0.4c5.5-3.1,11.4-4.9,17.6-5.5c7-0.7,13.8,0,20.4,2.3c1.5,0.5,3,1.1,4.5,1.8
			c0.1,0.1,0.3,0.1,0.4,0.2c0.3,0.2,0.5,0.4,0.7,0.7c0.1,0.1,0.2,0.3,0.2,0.5c0,0.1,0.1,0.2,0.1,0.3c0.3,0.8,0.5,1.6,0.7,2.4
			c0.2,0.6,0.3,1.2,0.4,1.8l0.6,0C219.4,182.2,219.2,181.6,219.1,181z"/>
		<path class="st1" d="M230.1,200.1c0.2,2.6-1.5,4-3.1,5.5c-3.1,2.8-6.9,4.2-10.9,5c-7,1.5-14.1,1.8-21.3,1.5
			c-10.8-0.5-21.2-2.9-31.2-7c-0.5-0.2-0.8-0.5-1-1c-0.8-2.4-0.7-4.9,0.2-7.3c0.1-0.2,0.3-0.4,0.6-0.5c2.5-0.7,5.1-1.5,7.7-2.2
			c-0.1-1.4-0.2-2.9-0.2-4.5c0-0.8,0-1.6,0.1-2.3l0.5,0c0.1,3.1,0.3,6.3,0.4,9.4c0,0.8,0.3,1.5,1.3,1.4v-14.5h0.2v14.8
			c0.5,0.1,0.9,0.2,1.3,0.3c-0.1-3.9-0.2-7.8-0.3-11.6c0-0.6,0-1.2-0.1-1.8c0-0.3,0-0.6,0-0.9c0.2,0.2,0.2,0.3,0.2,0.5
			c0,0.1,0,0.2,0,0.4c0,0.6,0,1.2,0.1,1.8c0.1,3.7,0.3,7.3,0.4,11c0,0.6,0.2,0.8,0.8,1c4.1,1.2,8.2,2,12.5,2.4
			c6.1,0.5,12.2,0.1,18.2-1.3c4.5-1,8.9-2.5,13-4.5c0.3-0.1,0.6-0.2,1-0.3c-0.1,0.3-0.1,0.4-0.1,0.4c-0.2,0.1-0.4,0.2-0.6,0.4
			c-7.7,3.7-15.9,5.7-24.5,6c-7.7,0.2-15.2-0.9-22.4-3.4c-0.9-0.3-1.4-0.7-1.5-1.6c0-0.7,0-1.3,0.1-2.2c-2.8,0.3-5.3,1-7.6,1.9
			c-0.2,0.1-0.4,0.4-0.5,0.7c-0.7,2-0.6,4-0.1,6c0.2,0.7,0.5,1,1.1,1.2c3.8,1.3,7.5,2.7,11.3,3.8c5.8,1.7,11.8,2.6,17.9,2.9
			c3.6,0.2,7.2,0.1,10.8,0c4.6-0.2,9.2-0.6,13.6-1.8c4.1-1.1,7.8-2.8,10.5-6.2c0.5-0.6,1.1-1.2,1.2-1.8c0.1-1.6,0-3.3-0.1-4.9
			c0-0.3-0.3-0.7-0.6-0.8c-2.7-1.3-5.6-2.2-8.6-2.5c-0.1,0.6-0.2,1.1-0.3,1.7c-0.1,0-0.2,0-0.3,0c0-0.2-0.1-0.4-0.1-0.6
			c0.5-3.9,0.3-7.8-0.6-11.6l0.6,0c0.7,3.1,0.9,6.2,0.7,9.5v0.2c3.2,1,6.4,1.9,9.7,2.9C230,197.1,230,198.6,230.1,200.1z"/>
		<path class="st1" d="M194,207c-1-0.2-2-0.3-3-0.5c-3.6-0.4-7.3-0.8-10.9-1.3c0-0.1,0-0.2,0-0.3c2.9,0.4,5.8,0.9,8.7,1.1
			c3,0.3,6,0.4,9,0.3c2.9-0.1,5.9-0.4,8.8-0.8c2.9-0.4,5.8-1.1,8.8-1.6c-1.1,0.3-2.3,0.6-3.4,0.9c-5.3,1.2-10.6,1.8-16,1.8
			C195.2,206.8,194.6,206.9,194,207L194,207z"/>
		<path class="st1" d="M194,207c-6.1,0.3-12.2-0.4-18.2-1.8c1.6,0.3,3.2,0.7,4.8,0.8c4,0.4,8,0.6,12,0.9
			C193.1,207,193.5,207,194,207C194,207,194,207,194,207z"/>
		<rect x="172.2" y="182.2" class="st1" width="0.1" height="14.9"/>
		<path class="st1" d="M218.2,194.4c-0.2-3.5-0.4-7.3-0.6-10.9c0-0.2,0-0.4,0-0.5c0,0,0,0,0,0c0-0.6-0.1-1.2-0.1-1.8h0
			c0.1,0.6,0.2,1.2,0.3,1.8c0,0,0,0.1,0,0.1c0,0.2,0,0.3,0.1,0.5C218.2,187.2,218.3,191,218.2,194.4z"/>
		<path class="st1" d="M217.5,181.1L217.5,181.1c0-0.1,0-0.2,0-0.3C217.4,181,217.5,181,217.5,181.1z"/>
		<path class="st1" d="M175.9,198.1h-0.2c-0.1-3.7-0.2-7.4-0.2-11c0-0.7,0-1.3,0-2c0.1,0,0.1,0,0.2,0c0,0.7,0,1.4,0,2
			C175.7,190.8,175.8,194.4,175.9,198.1z"/>
		<path class="st1" d="M218.7,194.1c0-1.9,0.1-3.8,0-5.7c-0.1-1.8-0.2-3.6-0.4-5.5c0-0.1,0-0.2,0-0.4c0,0.1,0,0.2,0,0.3
			C219,186.6,219.2,190.4,218.7,194.1z"/>
		<path class="st1" d="M177.8,186.4v11.3c0,0-0.1,0-0.1,0L177.8,186.4C177.8,186.4,177.8,186.4,177.8,186.4z"/>
		<rect x="176.7" y="185.7" class="st1" width="0.1" height="12.7"/>
		<path class="st1" d="M193.7,203.1c3.6-0.5,7.1-0.9,10.7-1.4c0,0.1,0,0.1,0,0.2c-3.6,0.5-7.1,0.9-10.7,1.4
			C193.7,203.2,193.7,203.2,193.7,203.1z"/>
		<path class="st1" d="M216.7,192.2c0-1.8,0.1-3.7,0-5.5c0-1.2-0.2-2.4-0.3-3.6c0-0.6-0.1-1.2-0.2-1.8h0c0.1,0.6,0.2,1.2,0.3,1.8
			C217,186.1,216.9,189.1,216.7,192.2z"/>
		<path class="st1" d="M216.3,181.3L216.3,181.3c0,0,0-0.1,0-0.1C216.3,181.2,216.3,181.2,216.3,181.3z"/>
		<path class="st1" d="M188.5,208.2c-3.4,0-6.6-0.3-9.6-1.1C181.9,207.4,185.1,207.8,188.5,208.2z"/>
		<path class="st1" d="M205.1,185.2c-3,0.9-6,1.4-9.1,1.2c0-0.1,0-0.2,0-0.3c1.5,0,3,0.1,4.6,0C202.1,185.9,203.6,185.5,205.1,185.2
			z"/>
		<path class="st1" d="M215.4,184c0.5,3,0.8,6.2,0.4,9C215.7,190.2,215.5,187,215.4,184z"/>
		<path class="st1" d="M212.6,185.1c0.6,2.3,0.6,5,0.4,7.6C212.9,190.1,212.8,187.4,212.6,185.1z"/>
		<path class="st1" d="M180,197.7c-0.1-2.1-0.2-4.3-0.2-6.4c0-1,0.1-1.9,0.3-2.9C180.1,191.5,180.1,194.6,180,197.7
			C180,197.7,180,197.7,180,197.7z"/>
		<ellipse class="st1" cx="182.5" cy="193.4" rx="0.1" ry="6.9"/>
		<path class="st1" d="M181.3,188.4c0.1,3.1,0.2,6.2,0.3,9.3c-0.1,0-0.1,0-0.2,0c-0.1-3.1-0.2-6.1-0.3-9.2
			C181.1,188.4,181.2,188.4,181.3,188.4z"/>
		<ellipse class="st1" cx="178.8" cy="192.1" rx="0.1" ry="6.7"/>
		<path class="st1" d="M214.2,185.2c0.6,2.5,0.6,5.3,0.4,8.1C214.5,190.5,214.4,187.7,214.2,185.2z"/>
		<path class="st1" d="M179.2,177.6c2.4-0.6,4.9-1.2,7.3-1.9c0,0.1,0,0.1,0,0.2c-2.4,0.6-4.9,1.2-7.3,1.9
			C179.2,177.7,179.2,177.7,179.2,177.6z"/>
		<path class="st1" d="M183.9,189.2c0,2.5,0,5,0,7.6c0,0-0.1,0-0.1,0c0-2.5,0-5.1,0-7.6C183.8,189.2,183.9,189.2,183.9,189.2z"/>
		<path class="st1" d="M211,185.6c0.7,2.1,0.6,4.6,0.4,7.1C211.2,190.2,211.1,187.8,211,185.6z"/>
		<path class="st1" d="M209.5,186.3c0.2,2.3,0.4,4.7,0.5,7c-0.1,0-0.1,0-0.2,0c-0.2-2.4-0.4-4.7-0.6-7.1
			C209.4,186.3,209.4,186.3,209.5,186.3z"/>
		<path class="st1" d="M217.2,204.8c-2.1,0.6-4.2,1.2-6.3,1.7c0-0.1,0-0.1-0.1-0.2c2.1-0.6,4.2-1.2,6.3-1.7
			C217.2,204.7,217.2,204.7,217.2,204.8z"/>
		<path class="st1" d="M197.3,189.6c0,2,0,4,0,5.9c0,0-0.1,0-0.1,0c0-2,0-4,0-6C197.2,189.5,197.2,189.5,197.3,189.6z"/>
		<path class="st1" d="M208.1,201.9c-2.1,0.5-4.2,1-6.3,1.4c0-0.1,0-0.1,0-0.2c2.1-0.5,4.2-1,6.3-1.4
			C208,201.7,208.1,201.8,208.1,201.9z"/>
		<path class="st1" d="M200.7,194.7c0-2,0-3.9,0-5.7C201.1,189.9,201.2,192.4,200.7,194.7z"/>
		<path class="st1" d="M202.5,195.4c-0.1-2.2-0.2-4.4-0.4-6.7c0.1,0,0.1,0,0.2,0c0.1,2.2,0.2,4.4,0.4,6.7
			C202.6,195.4,202.5,195.4,202.5,195.4z"/>
		<path class="st1" d="M187.3,195.8c0-1.9,0-3.9,0-5.8c0,0,0,0,0.1,0C187.4,192,187.4,193.9,187.3,195.8
			C187.4,195.8,187.3,195.8,187.3,195.8z"/>
		<ellipse class="st1" cx="192" cy="193.2" rx="0.1" ry="5"/>
		<path class="st1" d="M207.9,187.9c0.1,2,0.2,4,0.4,6c-0.1,0-0.1,0-0.2,0c-0.1-2-0.2-4-0.4-6C207.8,187.9,207.8,187.9,207.9,187.9z
			"/>
		<ellipse class="st1" cx="199.4" cy="192.5" rx="0.1" ry="4.8"/>
		<path class="st1" d="M185.2,189.6c0,2,0,4.1,0,6.1c0,0-0.1,0-0.1,0c0-2,0-4.1,0-6.1C185.1,189.6,185.1,189.6,185.2,189.6z"/>
		<path class="st1" d="M195.3,190.1c-0.1,2-0.2,3.9-0.3,5.9c0,0,0,0,0,0c0-2,0-4,0-5.9C195.2,190.1,195.3,190.1,195.3,190.1z"/>
		<path class="st1" d="M204.2,189c0.1,1.9,0.2,3.8,0.3,5.8c-0.1,0-0.3,0-0.4,0c0-1.9,0-3.9,0-5.8C204.1,189,204.1,189,204.2,189z"/>
		<path class="st1" d="M196,173.3c-2,0.1-4,0.3-5.9,0.4c0-0.1,0-0.1,0-0.2c2-0.1,4-0.3,5.9-0.4C196,173.1,196,173.2,196,173.3z"/>
		<ellipse class="st1" cx="188.7" cy="193.2" rx="0.1" ry="4.5"/>
		<path class="st1" d="M190.1,190.1c0,1.8,0,3.7,0,5.5c0,0-0.1,0-0.1,0c0-1.8,0-3.7,0-5.5C190,190.1,190.1,190.1,190.1,190.1z"/>
		<path class="st1" d="M187.8,186.6c-1.6,0-3.2,0-4.8,0c0,0,0-0.1,0-0.1c1.6,0,3.2,0,4.8,0C187.8,186.5,187.8,186.6,187.8,186.6z"/>
		<path class="st1" d="M180.9,183.6c1.8,0.2,3.5,0.3,5.3,0.5c0,0.1,0,0.1,0,0.2c-1.8-0.2-3.5-0.3-5.3-0.5
			C180.9,183.7,180.9,183.6,180.9,183.6z"/>
		<path class="st1" d="M206,189.4c0,1.6,0,3.1,0,4.7c-0.1,0-0.1,0-0.2,0c0-1.6,0-3.1,0-4.7C205.9,189.4,205.9,189.4,206,189.4z"/>
		<path class="st1" d="M219.9,201.5c0.9-0.3,1.7-1.3,3.1-0.8C221.8,201,220.9,201.2,219.9,201.5z"/>
		<path class="st1" d="M185.3,174.7c-1.4,0.4-2.8,0.9-4.2,1.3c0-0.1,0-0.1-0.1-0.2c1.4-0.5,2.8-0.9,4.2-1.4
			C185.3,174.6,185.3,174.7,185.3,174.7z"/>
		<path class="st1" d="M185.1,209c-1.5-0.2-2.9-0.4-4.4-0.6c0-0.1,0-0.1,0-0.2c1.5,0.2,2.9,0.4,4.4,0.5
			C185.1,208.8,185.1,208.9,185.1,209z"/>
		<path class="st1" d="M186.4,189.5c0,1.8,0,3.6,0,5.4c0,0-0.1,0-0.1,0C186.3,193.1,186.3,191.3,186.4,189.5
			C186.3,189.5,186.3,189.5,186.4,189.5z"/>
		<path class="st1" d="M215.2,201.7c-1.4,0.4-2.7,0.9-4.1,1.3c0-0.1,0-0.1-0.1-0.2c1.3-0.4,2.7-0.9,4-1.3
			C215.1,201.5,215.1,201.6,215.2,201.7z"/>
		<path class="st1" d="M164.8,204.4c0-1.2,0-2.4,0-3.6c0,0,0.1,0,0.1,0c0,1.2,0,2.4,0,3.6C164.8,204.4,164.8,204.4,164.8,204.4z"/>
		<path class="st1" d="M210.7,183.9c-1.2,0.6-2.4,1.1-3.6,1.7c0-0.1-0.1-0.1-0.1-0.2c1.2-0.6,2.4-1.1,3.6-1.7
			C210.6,183.8,210.7,183.8,210.7,183.9z"/>
		<path class="st1" d="M163.4,203.7c0-1.4,0-2.8,0-4.2c0,0,0.1,0,0.1,0c0,1.4,0,2.8,0,4.2C163.5,203.7,163.5,203.7,163.4,203.7z"/>
		<path class="st1" d="M228.5,198.1c0.5,1.2,0.8,2.5,0.3,3.7C228.8,200.7,228.6,199.4,228.5,198.1z"/>
		<path class="st1" d="M221.4,198.8c-1.1,0.6-2.2,1.1-3.4,1.7c0-0.1-0.1-0.1-0.1-0.2c1.1-0.6,2.2-1.1,3.4-1.7
			C221.3,198.7,221.4,198.7,221.4,198.8z"/>
		<path class="st1" d="M185.7,185.2c0,0.1,0,0.1,0,0.2c-1.3-0.2-2.6-0.5-3.9-0.7c-0.1,0-0.2,0-0.3-0.1c0,0,0-0.1,0-0.1
			c0,0,0-0.1,0-0.1c0.1,0,0.2,0,0.3,0.1c0,0,0,0,0,0c0,0,0.1,0,0.1,0C183.2,184.7,184.4,184.9,185.7,185.2z"/>
		<path class="st1" d="M199.9,184.8c1.4-0.2,2.8-0.4,4.1-0.6c0,0.1,0,0.1,0,0.2c-1.4,0.2-2.8,0.4-4.1,0.6
			C199.9,184.9,199.9,184.9,199.9,184.8z"/>
		<path class="st1" d="M215,199.7c-1.2,0.4-2.3,0.8-3.5,1.2c0-0.1,0-0.1-0.1-0.2c1.1-0.4,2.3-0.8,3.4-1.2
			C214.9,199.5,214.9,199.6,215,199.7z"/>
		<path class="st1" d="M214.2,180.6c-0.7,0.4-1.4,0.7-2.1,1.1c-0.2,0.1-0.5,0.2-0.7,0.3c-0.1,0-0.2,0.1-0.3,0.1c0,0,0-0.1-0.1-0.2
			c0,0,0.1,0,0.1-0.1c0.1-0.1,0.3-0.1,0.4-0.2c0.8-0.4,1.6-0.8,2.5-1.3C214.1,180.5,214.1,180.5,214.2,180.6z"/>
	</g>
</g>
</svg>
