<?xml version="1.0" encoding="utf-8"?>
<!-- Generator: Adobe Illustrator 25.0.0, SVG Export Plug-In . SVG Version: 6.00 Build 0)  -->
<svg version="1.1" id="Layer_1" xmlns="http://www.w3.org/2000/svg" xmlns:xlink="http://www.w3.org/1999/xlink" x="0px" y="0px"
	 viewBox="0 0 400 400" style="enable-background:new 0 0 400 400;" xml:space="preserve">
<style type="text/css">
	.st0{opacity:0.1;}
	.st1{fill:#895003;}
</style>
<g>
	<g class="st0">
		<path class="st1" d="M353.7,131.2c-3-1-7.5,0.1-9.2,3c-0.2,0.1-0.4,0.2-0.5,0.5c-1.5-0.3-2.8,0.5-4.3,1c-1.4,0.4-2.9,0.8-4.3,1.1
			c-1.8-4.5-5.3-8.2-10.7-10c-3-1-6.6-1.3-10.1-0.9l0,0c-0.6-1.5-1.2-2.9-1.8-4.4c-0.3-0.6-0.5-1.2-0.8-1.8c0.9-1,1.5-2.2,1.8-3.5
			c0.9-4.3-2.1-8.9-6.3-10c-4.3-1.1-9,1.7-10.4,5.8c-1.4,4.3,1,9.3,5.2,10.9c0.1,0,0.1,0,0.2,0c0,1,0.7,2.2,1.2,3.1
			c0.5,1.1,1.1,2.1,1.8,3.1c-2.3,1.7-4.1,4.1-4.7,7.4c-0.2,0-0.3,0-0.4,0c-0.2-0.1-0.5-0.2-0.8-0.2c-5.5,0.7-11,1.3-16.5,2.2
			c-3-9.2-19.5-10.5-27-8c-10.6,3.5-15.5,16-12.5,26.3c0.4,1.4,1,2.7,1.6,4c-0.6,0.2-1.1,0.6-1.5,1c-0.2,0.2-0.4,0.5-0.6,0.8
			c-3.3,3.1-5.9,7-9.1,10.2c-3.2,3.4-6.8,6.4-10.1,9.7c-2.9-1-5.9-1.4-9-1.3c-1-3.6-1.9-7.3-3-10.8c4.3-2.8,5.7-9,2.9-13.5
			c-3.4-5.3-11.4-6.4-16.3-2.6c-4.7,3.7-6.3,11.4-2,16c1.7,1.8,4,2.7,6.2,2.9c0.3,3.5,1.8,7,3.3,10.2c-7.8,3.7-13.5,11.8-12.9,20.6
			c0.6,10.9,10.1,20.3,21.1,18c0.5,3.8,1,7.6,1.8,11.4c-2.4,1-4.5,2.5-6.3,4.8c-9.3,3.9-10.3,17.4-7,26.4c-2.8,1.3-5.3,3.6-7.8,5.5
			c-2.7,2.1-5.5,4.2-8,6.5c-0.2-0.3-0.5-0.6-0.7-1c-6.8-8.6-15.3-9.4-24.7-4.9c-3.1-5.3-7-10.5-10.5-15.1c-0.1-0.1-0.2-0.2-0.3-0.2
			c0.3-0.4,0.6-0.7,0.9-1.1c6-7.9,8.1-22.3,2.7-31.7c0.8-0.7,1.5-1.7,2.1-2.3c0.9-1,2.2-2.2,2.8-3.6c1.6,0.3,3.2,0.2,4.9-0.1
			c8.4-1.9,13.3-10.7,10.5-18.8c-2.7-7.9-11.4-11.8-19.2-9.1c-6.7,2.3-12.8,11.5-7,17.7c0.2,0.8,0.4,1.6,0.7,2.4
			c-1,0.5-1.5,1.7-2.1,2.6c-0.6,0.8-1.1,1.6-1.6,2.4c-9.7-6.5-24.9-1.4-33,6.5c-3.7-2-7.4-4.2-10.9-6.6c0-0.1,0.1-0.2,0.1-0.3
			c1.3-7.1-0.2-14.5-4.4-20.3c2.2-2.2,4.3-4.4,6.2-6.9c2-2.5,3.3-5.1,4.8-7.8c0.1-0.1,0.1-0.2,0.1-0.3c4.3,1.5,9.9,0.1,13-3
			c5.1-5.1,4.7-13.9-1-18.3c-6.1-4.7-14.9-2.7-19.4,3.3c-2.9,3.9-2.2,8.4,0.2,12c-0.2,0.1-0.4,0.2-0.6,0.4c-3.9,4.2-7.1,9.4-10.7,14
			c-5.3-3-13-5.1-17.9-2.1c-1.9-2.8-3.9-5.4-6.1-7.9c5.4-4.6,3.3-13.5-1.3-18.1c-5.6-5.6-14.9-5.6-20.5,0
			c-5.4,5.4-5.1,14.8,0.6,19.9c3,2.7,6.8,3.6,10.4,3c2.1,3.3,4.4,6.5,6.7,9.7c-9.1,7.9-10,21.9-3.1,31.5l0,0
			c-2.2,1.3-3.8,3.8-5.6,5.6c-1.7,1.8-3.3,3.6-4.9,5.5c-4.3-1.8-9.6-1.6-13.7,1c-6.7,4.4-8.9,14.3-4.5,21.1
			c4.4,6.7,14.5,8.7,21.1,4.3c6.4-4.2,8.5-13.3,5-20c3.9-2.7,8.2-6.4,10.5-10.8c8.4,4.4,19.2,3.7,26-3.8c0.2-0.3,0.4-0.6,0.4-0.9
			c1.7,1.2,3.5,2.2,5.3,3.2c1.9,1,4.9,3,7.4,3c-3.5,9.9-1.2,21.2,7.5,28.5c8.3,6.9,19.8,7.4,29,2.8c2.6,4.6,5.5,9.3,8.5,13.9
			c-14.1,6.8-13.4,24.8-5.7,36.3c-0.4,0-0.9,0.2-1.2,0.7c-3.2,4.4-6.3,8.8-9.3,13.3c-9.4-6.8-23.5-4.3-31.4,3.9
			c-2.9,3-4.6,6.7-5.4,10.6c-0.2-0.1-0.3-0.1-0.6-0.1c-3.5,0.1-7.2,0.4-10.7,0.9c-1.6-3.6-4.9-6.9-7.8-8.1
			c-6.7-2.8-14.7,0.2-17.7,6.9c-2.8,6.3,0.6,13.6,6.8,16.2c5.9,2.5,12.9-0.4,16-5.8c0.2,0.2,0.4,0.3,0.8,0.3
			c2.4-0.2,4.8-0.2,7.2-0.3c1.9-0.1,4.1,0.1,5.8-1c0.1-0.1,0.1-0.1,0.2-0.2c0.8,4.1,2.6,8,5.3,11.1c7.2,8.2,18,9.2,27.2,5.9
			c1,2,2.1,4,3.1,6c0.9,1.8,1.8,3.8,3.2,5.2c-1.4,2-2.2,4.4-2.3,6.8c-0.3,7.2,6.3,13.5,13.4,13.2c7.4-0.3,13-7.7,13.1-14.8
			c0.1-7.2-6.1-13.1-13.1-11.9c0,0,0,0,0-0.1c-1.9-3.7-4.9-7.2-8-10.1c7.6-6.6,10.8-16.9,3.3-27.3c-0.2-0.3-0.5-0.5-0.8-0.6
			c1.8-2.2,3.5-4.4,5.2-6.7c1.5-1.9,3.8-4.2,4.6-6.6c4,3.2,8.7,5.3,14,4.7c6.4-0.7,14-3.2,17.9-8.7c-0.1,2.6,0.6,5.4,2,7.7
			c4,6.5,12.7,8.1,18.8,3.5c5.9-4.4,6.6-13.1,2.3-18.8c-3.2-4.2-9.2-6.4-14.5-5.3c1-4.9,0.9-10-0.2-14.8c0.5-0.4,0.7-1.1,1-1.7
			c0.2-0.5,0.6-1,0.9-1.4c1.9-0.8,3.8-2.7,5.2-3.8c3.1-2.4,6.1-5,8.9-7.7c0.2-0.2,0.3-0.4,0.4-0.6c7.9,6.4,20.2,5.1,27.9-2.3
			c0.4-0.4,0.7-0.8,1.1-1.2c0.1,0.1,0.1,0.1,0.2,0.2c3.1,1.4,6.1,2.8,9.3,4c2.4,0.9,4.9,2,7.5,2.5c-1,5.8,1,12.3,5.6,16.3
			c2.4,2.1,5.4,3.4,8.4,4c0.7,4.2,1.7,8.4,2.9,12.4c-1.7,1.1-3,2.8-3.7,4.9c-1.7,5.3,1.5,10.9,6.8,12.5c5,1.5,10.3-1.4,12.4-6
			c2.3-5.2-0.2-11.3-5-14.1c-0.2-0.1-0.4-0.2-0.6-0.2c-0.6-3.5-1.4-7-2.4-10.4c2.7-1,5.2-2.7,7.1-4.9c2.9-3.4,4.7-7.9,5-12.4
			c0.1,0,0.2,0,0.2-0.1c5-2.3,10.7-4.7,15.2-7.9c0.2-0.1,0.3-0.3,0.4-0.4c7.4,5.7,18.3,6.9,25.9-1.3c3.4,1.4,6.8,2.7,10.4,3.7
			c0.1,1.2,0.5,2.4,1.2,3.6c2.6,4.4,8.8,5.8,13.3,3.6c4.9-2.4,6.7-8.6,4.7-13.5c-1.8-4.4-8.9-8.8-13-4.8c-1.3-1.3-4-1.7-5.5-2.2
			c-1.4-0.5-2.9-0.9-4.3-1.3c0.2-0.2,0.3-0.4,0.3-0.7c0.6-3.8,0-7.5-1.4-10.9c1.8-3.5,3.4-7.2,5.1-10.7c1.5-3.2,3.6-6.6,4-10.2
			c12.2-0.1,23.8-5.2,25.8-18.7c1.6-10.8-6.2-21.2-16.7-23.5c-1.1-0.2-2.2-0.4-3.4-0.4c0-0.1-0.1-0.3-0.1-0.4
			c-5.7-10.2-10.4-21-16.3-31c-0.2-0.4-0.5-0.5-0.9-0.6c0.5-1.9,0.8-3.8,0.9-5.6c1.7-0.1,3.5-0.4,5.2-0.5c0.8-0.1,1.6-0.1,2.3-0.2
			c0.9,1.4,2.2,2.6,3.8,3.1c4.1,1.4,9.1-1.1,10.6-5.2C360.3,138.3,358.2,132.8,353.7,131.2z M82.5,346.4c-0.1,0.4-0.2,0.9-0.3,1.3
			c-0.3,0.1-0.6,0.3-0.8,0.6c-2.2,3.6-5.4,6.5-10,6.2c-5-0.3-9.1-5.6-8.1-10.5c1.1-5.2,6.3-8.5,11.5-7.5c2.6,0.5,4.7,1.7,6.4,3.8
			c0.2,0.2,1.1,2.4,1.8,4.5C82.8,345.4,82.7,345.9,82.5,346.4z M97.3,348.6L97.3,348.6c-1.9-0.8-3.8-0.3-5.7-0.1
			c-1.7,0.2-3.4,0.5-5.2,0.7c0.7-1.4,0.9-2.9,0.7-4.5c3.3,0.1,6.7-0.1,9.9-0.4c0.1,0,0.1,0,0.2,0C97.1,345.7,97.1,347.1,97.3,348.6z
			 M150.7,197.6c1.3-2.6,4.1-4.3,6.8-5c5.6-1.4,11.3,1.7,13,7.3c1.7,5.5-1.5,11.3-7,12.9c-5.4,1.6-10.1-1.9-12.4-6.5
			c0-0.2,0.1-0.4,0-0.7C150.3,202.9,149.3,200.3,150.7,197.6z M149,213.5c0.5-0.5,1-1,1.5-1.5c1.2,1.6,2.7,2.9,4.5,3.8
			c-0.7,0.8-1.3,1.8-1.9,2.6c-0.4,0.5-0.8,1-1.3,1.5c-1.1-1.2-2.3-2.2-3.8-3.1c-0.4-0.4-0.8-0.8-1.2-1.2
			C147.6,214.9,148.3,214.2,149,213.5z M102.8,163.4c2.8-4.8,9.7-6.9,14.4-3.8c4.4,2.8,5.2,8.9,1.9,12.9c-4,4.9-9,2.8-13.6,0.6
			c-0.5-0.2-1-0.2-1.4,0C102,170.2,100.8,166.7,102.8,163.4z M102.3,174.6c1.1,1.2,2.4,2.2,3.7,3c0,0,0,0-0.1,0.1
			c-3,4.9-6.7,9.7-10.5,14.1c-0.9-1-1.9-2-3.1-2.9c-0.4-0.3-0.7-0.6-1.2-0.8C95.5,184.2,99.9,179.6,102.3,174.6z M47.1,175.9
			c-3.9-3.4-4.6-9.8-1.2-13.7c3.3-4,9.3-5.2,13.8-2.3c4.1,2.6,8.2,11.1,2.8,14.5l0,0c-0.4,0.1-0.7,0.3-0.9,0.7
			c-0.2,0-0.3,0.1-0.4,0.2C57.4,178.4,51,179.3,47.1,175.9z M57.6,180.8c1.7-0.8,3.3-1.9,4.5-3.4c0.2,0.2,0.4,0.3,0.6,0.4
			c3.1,4.7,6.1,9.4,9,14.2c0.3,0.4,0.6,0.7,0.9,0.8c0,0.9-0.2,1.7-1,2.3c-1,0.8-2.4,0.6-3.4-0.1c-0.1-0.1-0.1-0.2-0.2-0.3
			C64.7,190,61.3,185.3,57.6,180.8z M49.1,257.6c-5.4,3.7-13.7,2-17.1-3.7c-3.2-5.5-1.1-13.7,4.7-16.5c5.6-2.7,11.9-0.3,15.8,4.1
			C55.1,246.9,54.5,254,49.1,257.6z M60,233.1c-1.6,2-3.5,3.9-5.5,5.6c-0.3-0.2-0.6-0.2-0.9-0.2c-1.1-1.4-2.4-2.6-3.8-3.5
			c1.7-1.5,3.3-3,4.9-4.6c1.7-1.8,4-3.6,5.1-5.8c1.1,1.3,2.4,2.4,3.8,3.4C62.3,229.7,61.3,231.4,60,233.1z M88.2,219.2
			c-0.3,0.3-0.5,0.7-0.3,1.2c0.3,1.2,1,2,1.9,2.7c-9.2,7.1-21.8,6.9-28.5-3.6c-5.4-8.4-3.1-18,1.7-26c0.7,1,1.5,2,2.2,3.1
			c0.5,0.6,1.1,0.8,1.7,0.7c1.7,1.5,4.2,2,6.3,0.9c2.5-1.3,3.9-5,2.3-7.5c-0.2-0.3-0.4-0.5-0.7-0.6c-0.5-1-1.1-1.9-1.7-2.8
			c1.2,0,2.5,0,3.8,0c3.9,0.2,7.7,1.3,11.1,3.4c7.1,4.5,10.3,12.5,9.5,20.6c-0.6-0.5-1.3-1-1.9-1.5c-1-0.9-2.3-0.5-3,0.4
			C88.5,210.7,86.1,215.7,88.2,219.2z M102.1,226.3c-1.6-1-3.3-1.9-4.9-2.9c-2-1.2-4.2-3.5-6.6-4.3c-1.4-2.3,0.1-5.5,2.7-6
			c0,0,0,0,0.1,0c5.1,4.2,10.7,7.6,17.1,9.5c-1.6,1.9-2.9,3.9-4,6.1C105.3,228.7,103,226.8,102.1,226.3z M116,256.6
			c-10.1-8.1-10.1-22.7-1.5-31.9c6.6-7.1,19.5-11.9,28.7-7.3c0,0.4,0.2,0.8,0.6,1.2c9.8,7.6,11.9,21.5,5.2,32
			C142.1,261.5,126.3,264.9,116,256.6z M143.7,261.6c2-1.2,3.9-2.7,5.6-4.4c3.3,6.7,7.4,14.8,12.5,20.3c0,0.1,0,0.1,0,0.2
			c0,0.9-0.4,1.6-0.9,2.2c-1.1,1.2-2.3,1.4-3.8,1.3C153.8,274.3,148.8,267.2,143.7,261.6z M146.8,375.3c6.7-2.1,11.5,4.4,10.1,10.6
			c-1.2,5.4-6.3,10.2-12.1,8.7c-4.9-1.3-8.4-6.3-7-11.4c1.1-3.9,4.3-6.4,7.8-8C145.9,375.4,146.3,375.5,146.8,375.3z M144.3,372.9
			c-2.3,0.4-4.3,1.5-6,3.1c-0.6-1.6-1.7-3-2.6-4.5c-1.1-1.8-2.2-3.6-3.4-5.4c2.1-1,4.1-2.2,5.9-3.6
			C140.3,366,142.2,369.5,144.3,372.9z M105.9,359.3c-6.5-7.1-7.3-19-0.4-26.1s18.7-8.8,27.5-4.4c-0.7,1-1.4,2.1-2,3.1
			c-0.5,0.8,0.2,1.7,1,1.8c0.8,2.8,4.2,4.3,7.1,3.2h0.1c0.1,0,0.2-0.1,0.3-0.1c0.2-0.1,0.4-0.3,0.5-0.4
			C153.8,356.6,120.8,375.6,105.9,359.3z M144.4,324.9c-2,2.9-3.9,5.8-5.8,8.8c-0.3,0-0.6,0-0.9,0.2c-1.4,0.6-3.3-0.4-4.1-1.6
			c4.4-5.6,8.6-11.4,12.7-17.3c0,0,0,0,0-0.1c1,1.2,2,2.3,3.1,3.4C147.3,319.8,145.9,322.8,144.4,324.9z M175.2,306.6
			c-0.5-0.9-0.5-2.1,0-3c0.7-1.2,1.8-1.1,3-1.4c1.3,0.7,2.6,1.4,3.8,2.3c1.1,0.8,2.4,2.4,3.8,2.8c0.3,0.2,0.5,0.4,0.8,0.6
			c0.2,0.1,0.4,0.3,0.5,0.4c-1.4,1.2-2.3,2.7-2.9,4.4C181.4,310.5,178.4,308.3,175.2,306.6z M202.9,309.4c4,3.8,4.5,10.8,0.3,14.7
			c-4.4,4.2-11.5,3.2-14.7-1.9c-2.7-4.3-1.8-10.1,1.6-13.8c0.3-0.3,0.3-0.6,0.2-0.9C194.7,306.3,199.2,305.9,202.9,309.4z
			 M188.5,304.6c0,0.1,0,0.1,0,0.2c-0.3,0.2-0.5,0.3-0.7,0.5c-0.1,0-0.1,0.1-0.2,0.2h-0.1c-0.6-1.5-2.6-2.5-3.8-3.2
			c-1.5-0.8-3-1.5-4.7-2.1c-0.1-0.1-0.2-0.2-0.3-0.3c-2-1.2-4.9,0.5-5.9,2.3c-1.1,2-0.6,4.6,1.2,6.1c0.2,0.2,0.6,0.3,0.8,0.2
			c2,2.1,4.3,4.1,6.7,5.9c-3.9,4.2-9.4,6.1-15,7c-7,1.1-12.7-3.1-17-8.3c-8.8-10.5-9.7-26.4,2.8-34.2c1.1,1.6,2.3,3.1,3.4,4.6
			c0.7,0.9,1.8,0.6,2.1-0.2c1.8,0.5,3.9,0.1,5.3-1.1c1.7-1.4,3.3-5.5,1.2-7.2c-0.3-0.3-0.7-0.4-1-0.4c-0.3-0.6-0.6-1.1-0.9-1.7
			c4.1-1,8.2-2.2,12.4-1.1c4.7,1.3,8,5,10.6,9C189.8,288,190.7,296.6,188.5,304.6z M205.7,271.7c-3,2.7-6,5.3-9.1,7.8
			c-1.9,1.5-5.2,3.1-5.6,5.7l0,0c-0.8-2.3-1.9-4.6-3.2-6.7c3.1-1.8,6.1-4,9-6c2.2-1.6,4.8-3.1,6.8-5.1c0.1,0.2,0.2,0.5,0.4,0.7
			c0.7,1.2,1.5,2.3,2.3,3.2C206.1,271.4,205.9,271.5,205.7,271.7z M310.1,122.5c0.7,1.3,1.5,2.6,2.3,3.8c-1.8,0.4-3.5,0.9-5,1.8
			c-0.5-1.1-0.9-2.1-1.4-3.2c-0.3-0.8-0.4-1.6-0.8-2.3c1.6,0.2,3.1-0.1,4.5-0.9C309.8,121.9,309.9,122.2,310.1,122.5z M300.2,112
			c1.8-3,6.3-3.9,8.8-1.4c2.3,2.3,2.4,5.8-0.1,8c-1.4,1.2-2.6,1.1-4.2,1.7c-0.4,0.1-1,0.3-1.1,0.9c-0.1-0.2-0.2-0.3-0.4-0.4
			C300.3,118.9,298.2,115.3,300.2,112z M302.1,148.9C302.1,148.8,302.1,148.8,302.1,148.9c0.3-0.6,0.2-1.3-0.3-1.7
			c-0.4-2.8-0.3-5.7,0.2-8.5c0.7,0.2,1.6-0.1,1.9-1.1c2.7-8.1,12.8-9.6,20-7.2c9.5,3.2,11.2,13.7,7.8,22.1
			c-3.3,8.3-11.8,13.2-20.4,9C305.8,158.9,303.1,154.2,302.1,148.9z M283.3,141.5c5.2-0.5,10.3-1.3,15.4-2c-0.7,2.7-0.8,5.5-0.6,8.2
			l0,0c-0.1-0.2-0.3-0.3-0.6-0.3c-2.8-0.5-5.6,0.2-8.3,0.6c-1.1,0.2-2.3,0.4-3.4,0.5c-0.8-0.4-1.8-0.3-2.3,0.4c-1.5,0.3-3,0.6-4.5,1
			c-0.4,0.1-0.6,0.4-0.7,0.7c-1.2-1.4-1.8-3.2-1.8-5c0-1.4,0.7-2.5,1.2-3.7c1.3-0.1,2.6-0.1,4-0.3
			C282.1,142.2,283.1,142.1,283.3,141.5z M255,135.2c7.5-4,18.7-1.8,24.7,4.1c-0.6,0.1-1.2,0.3-1.9,0.4c-0.3-0.3-0.7-0.5-1.1-0.3
			c-2.6,0.8-3.3,4.2-3.2,6.5c0.2,2.8,1.6,5,3.9,6.4c0.6,0.4,1.2,0,1.3-0.5c0.1,0.1,0.3,0.2,0.5,0.2c1.3,0,2.6-0.1,3.9-0.2
			c-0.4,7.8-4.7,15.1-12.7,17.3c-8.9,2.5-18.3-1.8-22.3-10.1C244.3,150.8,246.6,139.6,255,135.2z M245.4,163.8
			c0.1-0.2,0.1-0.5,0.1-0.7c0.2-0.1,0.4-0.2,0.6-0.3c0.9,1.4,1.9,2.6,3,3.8c-5.4,7.1-11,14.1-16.7,21.1c-2-1.7-4.2-3-6.6-4.1
			C233.3,179.1,241.9,171.5,245.4,163.8z M199.3,168.5c-3.4-2.9-2.3-8.2,0.7-11s8.4-2.6,11.2,0.5c3,3.3,1.6,7.9-1.6,10.2
			c-0.1,0-0.1,0.1-0.2,0.1c-0.3,0.1-0.6,0.3-0.8,0.5c-0.1,0.1-0.2,0.2-0.3,0.2C205.6,170.7,201.7,170.5,199.3,168.5z M205.2,173.3
			c1.3-0.3,2.6-0.8,3.6-1.7l0,0c1.2,3.4,2.6,6.7,4,10c-0.1,0-0.2,0-0.3,0c-1.6,0.2-3.2,0.6-4.7,1.2
			C206.9,179.7,206.2,176.4,205.2,173.3z M197,203.5c-0.3-9.4,8.1-17.4,17.2-18.1c8.3-0.6,16.7,4.2,20.6,11.5
			c2.6,4.9,3.2,11,0.4,15.8c-2,3.5-5.2,5-8.5,6.6c-0.2-2.6-0.6-5.1-1.1-7.7c-0.2-1.1-1.4-1.4-2.3-1c-2.7-1.2-6-0.5-8.4,1.3
			c-1-0.3-2.1,0.2-2,1.4c0.3,2.3,0.5,4.6,0.8,7C205,218.7,197.3,213.3,197,203.5z M222.5,213.5c0.7,6.2,1.4,12.4,1.8,18.6
			c0,0.2,0.1,0.3,0.1,0.5c-2.2-0.2-4.4-0.1-6.5,0.4c-0.3-6.4-1-12.8-1.7-19.2C218.3,212.6,220.3,212.8,222.5,213.5z M234.4,268
			c-7.6,7.9-21.4,8.5-27.3-1.7c-4.9-8.5-2.7-17.1,2.3-24.3c0.6,0.3,1.3,0.4,1.9-0.3c6.7-8.4,18.9-6.6,25.1,1.4
			C242.1,250.5,240.7,261.4,234.4,268z M248.3,271.5c-3.2-1-6.4-1.9-9.6-3c1.6-2.1,2.8-4.4,3.6-6.8c2.7,1.5,5.5,2.8,8.3,3.9
			c2.4,1,5.2,2.3,8,2.7c-1.5,1.5-2.6,3.3-3.3,5.2C253,272.7,250.5,272.2,248.3,271.5z M283.9,318.9c-1.1,3.3-4.8,5.6-8.2,4.8
			c-3.4-0.8-5.7-4.2-5.1-7.7c0.8-4,5.1-6,8.8-5.7c0.4,0,0.7-0.2,0.8-0.5c0.1,0,0.1,0,0.2,0C283.3,311.8,285.1,315.4,283.9,318.9z
			 M270.5,297.2c2.1,0.2,4.3,0,6.3-0.6c0.4,3.9,1,7.7,1.8,11.5c-1.6-0.4-3.2-0.4-4.7,0C272.9,304.5,271.9,300.8,270.5,297.2z
			 M279.2,292c-6,3.3-14.4,1.7-18.5-3.8c-4.3-5.8-3.1-13.2,0.4-19.1c0.6,0.4,1.3,0.3,1.7-0.4c4.3-8.1,18.4-6.6,22.6,0.7
			C289.7,276.7,286.6,287.8,279.2,292z M284.3,262.6c-4.9-3.7-22-4.8-23.8,3.2c-2.5-1.5-5.9-2.1-8.6-3.1c-3-1-6.1-2.1-9.1-3.2
			c1.7-6.8,0.4-14.1-4.3-19.6c-3.1-3.5-7.4-6-11.9-7c0.2-0.2,0.3-0.5,0.3-0.8c0.2-3.2,0.2-6.4,0-9.6c10.7,0.2,15.9-13.9,13.4-22.8
			c-1.2-4.2-3.4-7.8-6.4-10.8c6.6-6,12.5-12.9,17.7-20.2c4.5,3.5,10.3,5.3,16.3,4.6c11-1.3,19.4-11,19-21.9c0.9-0.1,1.8-0.2,2.7-0.3
			c2.3-0.3,4.8-0.4,7-1.1c0.6,0.2,1.2,0.3,1.9,0.3l0,0c1.4,6.8,5.8,12.8,12.8,15.3c6.1,2.3,12,1,16.6-2.5
			c3.1,8.4,7.4,16.5,12.8,23.6c-4.2,2.8-7.4,7-8.7,11.9c-2.1,7.9-0.5,18.5,5.6,23.9c-1.4,2.3-2.1,5.3-3,7.7c-1,2.6-2.1,5.2-3.3,7.7
			c-1.1-0.7-2.2-1.4-3.5-1.9c-9.1-3.8-19.8,0.3-25.4,8c-4.2,5.7-4.6,11.7-2.8,16.8c-3.4,2.6-7.1,4.9-11,6.6
			C287.5,265.7,286.1,264,284.3,262.6z M291,276c-0.1-2.3-0.6-4.6-1.5-6.6c4.1-1.3,7.9-3.1,11.4-5.7c1,1.7,2.2,3.3,3.6,4.6
			C299.8,270.3,295.2,273.3,291,276z M310.4,269.1c-9-5.3-10.9-16.9-3.8-24.6c11-11.9,31.8-4.6,29.7,12.4c0,0.1,0,0.3,0,0.4
			c-0.8-0.2-1.6-0.4-2.4-0.6c0,0-0.1,0-0.1-0.1c-2-1-4.6,0.8-5.9,2.3c-1.5,1.7-2.3,4-1.9,6.2c0.1,0.3,0.3,0.6,0.5,0.7
			c0,0.3,0.2,0.5,0.5,0.7c0.9,0.4,1.9,0.9,2.8,1.3C324,271.5,316.8,272.8,310.4,269.1z M349.4,265.1c0.4-0.3,0.4-0.7,0.3-1.1
			c0.2,0.1,0.4,0.1,0.7,0.1c2-0.3,3.5-0.8,5.5,0.2c1.7,0.8,2.9,2.4,3.4,4.2c0.9,3.4-0.7,7.4-4.2,8.5
			C347.3,279.5,343.9,269.7,349.4,265.1z M343.3,262.9c0.9,0.3,2.3,0.6,3.3,1c0,0.1,0.1,0.2,0.2,0.2c-1.8,1.2-3,3.1-3.5,5.2
			c-3.1-1.1-6.2-2-9.4-2.9c-0.3-0.5-0.8-0.9-1.4-0.4l0,0c-1.3-0.4-2.5-0.7-3.8-1.1c0-0.1,0-0.1,0-0.2c0.1-1.5,0.5-2.8,1.5-3.9
			c0.5-0.5,1-0.9,1.6-1.2c0.6-0.3,1.3-0.3,1.9-0.7c1.9,0.9,3.9,1.6,5.8,2.4C340.8,261.9,342,262.4,343.3,262.9z M341,234.7
			c-1.2,3.3-2.4,6.6-3.6,10c-1.1-2-2.6-3.9-4.4-5.4c1.5-2.6,2.9-5.3,4.1-8c1-2.2,2.3-4.6,2.8-7.1c1.4,0.8,2.9,1.3,4.6,1.6
			C342.9,228.5,342,231.8,341,234.7z M358,187.6c8.7,3,13.9,12.8,11.1,21.6c-3.4,10.7-13.2,12.5-23.1,12.8c-0.4,0-0.8,0.2-1,0.4
			c-1.4-0.3-2.7-0.7-4-1.4C327.4,209.5,337.9,180.6,358,187.6z M350.9,183.1c-2.9,0.2-5.7,1.1-8.3,2.5c-4.5-8-8.7-16.1-12.5-24.4
			c2-2,3.6-4.5,4.7-7.2C338.5,164.2,344.8,174.2,350.9,183.1z M343.2,141.9c-0.5,0.1-1,0.2-1.5,0.3c-1.6,0.3-3.3,0.6-4.9,0.9
			c-0.1-1.4-0.3-2.8-0.6-4.2c1.5,0,2.9-0.2,4.4-0.5c0.9-0.2,1.8-0.3,2.6-0.6C342.9,139.2,342.9,140.5,343.2,141.9z M355.5,141.8
			c-1.1,2.2-4.1,3.6-6.5,2.7c-0.6-0.2-1.1-0.6-1.5-1.1c0.3-0.6,0-1.6-0.7-1.8c-0.1,0-0.2,0-0.3,0c-0.5-1.4-0.7-2.9-0.7-4.4l0,0
			c1.8-2.1,4.2-4.3,7.2-2.8C355.6,135.6,356.7,139.2,355.5,141.8z"/>
		<path class="st1" d="M334,239.2c-0.3,0.1-0.1,0.5,0.1,0.4C334.3,239.5,334.2,239.1,334,239.2z"/>
	</g>
	<g class="st0">
		<path class="st1" d="M39.4,7.5c0-1.2-1.7-1.2-1.8,0c-0.3,4.7-0.8,9.8-0.8,14.7c-0.7,0.1-1.3,0.2-2,0.3c-1.7,0.1-3.4,0.1-5.1,0.2
			c-0.1,0-0.1,0-0.2,0c-0.1-1.7-0.1-3.4-0.1-5c0-4.1,0.4-8.4-0.4-12.4c-0.1-0.6-1-0.5-1.2,0c-1.2,4.3-1,9-1.1,13.5
			s-0.3,9.2,0.6,13.6c0.3,1.2,1.9,0.8,2-0.3c0.2-2.5,0.2-5,0.2-7.6c1.7,0.4,3.5,0.4,5.3,0.4c0.7,0,1.4,0,2.1,0
			c0.1,2.3,0.3,4.6,0.7,6.9c0.3,1.4,2.1,0.9,2.2-0.3C40.8,23.7,39.6,15.3,39.4,7.5z"/>
		<path class="st1" d="M48.8,28.3c0.3-0.5,0.4-1,0.4-1.6c-0.1-1.9-1.8-3.1-3.6-2.9c-1.2,0.1-1.2,1.7,0,1.8c1.3,0.1,1.6,1.6,0.9,2.1
			c-0.5,0-0.9,0-1.4,0.1c-1.3,0.4-1.1,2.4,0.3,2.4c1.3,0,4.1,0.9,3.2,2.8c-0.7,1.3-2,0.9-2.9,0.3c-1.2-0.8-2.3,0.7-1.8,1.8
			c1.4,3.2,6.4,1.4,7.4-1.2C52.1,31.6,50.8,29.3,48.8,28.3z"/>
		<path class="st1" d="M69.7,29.4c-11.5,2.8-11.9-18.4-3-21.2c0.6-0.2,0.7-1.2,0-1.3c-8.1-1.6-9.8,9.7-9.2,15.3
			c0.7,6.2,6.5,13.4,13.3,9.8C72.4,31.2,71.3,29,69.7,29.4z"/>
		<path class="st1" d="M43,79.9c-0.1-1.1-1.6-1.1-1.7,0c-0.6,5.2-1.1,10.9-0.9,16.5c-1.2-0.1-2.4-0.1-3.6-0.1
			c-1.6-0.1-3.3-0.1-4.9-0.1c-0.3-4.9-0.8-9.9-1.4-14.6c-0.2-1.2-1.9-1.3-1.9,0c-0.3,8.3-0.3,17.4,1.1,25.7c0.2,1.3,2.1,0.9,2.2-0.3
			c0.2-2.9,0.2-6,0.1-9c1.6,0.2,3.2,0.3,4.8,0.5c1.2,0.1,2.4,0.3,3.7,0.3c0.1,2.6,0.4,5.1,0.8,7.5c0.2,1.4,2.1,0.9,2.3-0.3
			C44.3,97.6,43.6,88.3,43,79.9z"/>
		<path class="st1" d="M51.8,103.7c0.5-0.7,0.8-1.5,0.7-2.4c-0.2-2.6-3.4-4.1-5.5-2.7c-0.8,0.5-0.3,2,0.7,1.6c0.8-0.3,2.3-0.2,2.5,1
			c0.1,0.8-0.3,1.2-0.9,1.3c-0.6-0.1-1.2-0.2-1.7-0.1c-1.5,0.1-1.7,2-0.3,2.6c0.6,0.2,1.3,0.3,1.9,0.2c0.8,0.2,1.6,0.7,1.8,1.6
			c0.4,1.9-1.5,1.6-2.7,1.8c-0.7,0.1-1,1.1-0.7,1.6c1.7,3,5.6-0.2,6-2.6C53.9,106,53,104.6,51.8,103.7z"/>
		<path class="st1" d="M69.7,101.4c-5.6,2.2-8.1-3.3-8-8.1c0.2-5.4,3-10.3,8.7-11.3c1-0.2,0.7-1.6-0.2-1.7
			c-8.4-0.8-12.2,8.3-11.5,15.4c0.6,5.4,6.2,12.3,12,8.1C71.9,103.1,71.3,100.8,69.7,101.4z"/>
		<path class="st1" d="M108.8,69.2c-5.5-0.7-7.8-3.8-7.8-9.3c0-4.7,1.6-10.9,7.6-10c0.6,0.1,1.4-0.7,0.7-1.2
			c-6.6-5.2-11,4.7-11.4,9.9c-0.2,3.7,0.3,7.9,3,10.7c2.1,2.2,5.5,3.7,8.3,1.9C110.3,70.5,109.8,69.3,108.8,69.2z"/>
		<path class="st1" d="M117.4,69.4c-0.2-7.3-0.3-14.5-0.7-21.8c0-0.9-1.3-0.9-1.4,0c-0.6,7.9-0.6,15.8-0.5,23.7
			c0,1.5,2.3,1.9,2.6,0.4c0.1-0.4,0.2-0.9,0.3-1.3C117.8,70,117.7,69.6,117.4,69.4z"/>
		<path class="st1" d="M124.7,47c-0.1-0.7-1-0.4-1.1,0.1c-0.6,5.1-1,10.7-0.9,16.2c-0.9,0-1.9,0.1-2.8,0.2c-0.9,0.1-1.8,0.2-2.3,1
			c-0.1,0.2-0.1,0.5,0,0.6c0.6,0.8,1.4,0.9,2.3,1c1,0.1,2,0.1,3,0.2c0.1,2.1,0.4,4.2,0.7,6.1c0.2,1.4,2.1,0.9,2.2-0.3
			C126.8,64.2,126,54.8,124.7,47z"/>
		<path class="st1" d="M140.4,60.3c-1.4-0.2-3.3-0.1-4.6,0.3c-1.1,0.3-1.1,1.9,0,2.2c1.4,0.4,3.2,0.5,4.6,0.3
			C141.7,62.9,141.7,60.5,140.4,60.3z"/>
		<path class="st1" d="M159.3,48.6c-0.6-0.8-1.5-0.7-2.1-0.2c-5.4-1-7,8.1-7.5,11.9c-0.5,3.9-1.3,11.7,3.5,13.6
			c4.8,1.8,8.2-3.8,9.3-7.6C164.3,60.2,162.9,53.7,159.3,48.6z M158.9,67.8c-0.8,2.2-2.7,3-5.8,2.3c-0.3-1-0.5-2-0.8-3
			c-0.2-1.5-0.1-3.3,0-4.8c0.2-3,1.1-11.1,4.9-12.1C160.4,54.9,162.2,62.6,158.9,67.8z"/>
		<path class="st1" d="M178.1,63c0-5-0.8-10.2-2-14.6c-0.2-0.6-1.2-0.5-1.2,0.2c0.1,4,0.2,8,0.2,12c0,0.8-0.1,1.6-0.1,2.3
			c-0.5,0.1-0.9,0.2-1.4,0.2c-1.5,0.1-3,0.1-4.4,0.1c-0.2-4.9-0.8-9.9-1.1-14.6c-0.1-1.3-2.1-1.4-2.1,0c0,8-0.9,17,0.8,24.8
			c0.2,0.9,1.8,1,1.9,0c0.4-2.6,0.5-5.4,0.5-8.2c1.5,0.2,2.9,0.3,4.4,0.3c0.4,0,0.8,0,1.2,0.1c-0.2,2.3-0.4,4.7-0.3,7
			c0.1,1.3,1.9,1.6,2.3,0.3c0.7-2.5,1.1-5.1,1.3-7.9l0,0C178.9,64.5,178.8,63.5,178.1,63z"/>
		<path class="st1" d="M98.3,39.3c-3.1-3-6.2-6-9.3-9c-1.4-1.3-2.8-2.6-4.2-3.9c-0.7-0.7-5.3-3.9-5.3-4.8c0-0.3-0.2-0.8-0.6-0.8
			c-0.1,0-0.1,0-0.2,0c-0.9-0.1-1.6,0.5-1.4,1.4c0.3,1.4,1.4,2.3,2.4,3.3c1.8,1.9,3.6,3.8,5.5,5.7c3.5,3.6,7.1,7.2,10.7,10.7
			C97.4,43.5,99.9,41,98.3,39.3z"/>
		<path class="st1" d="M95.2,75.8c-3.6,2-6.8,4.9-9.9,7.4c-3.5,2.8-7.1,5.6-10.6,8.5c-1,0.9,0.3,2.7,1.5,1.9c3.7-2.5,7.4-5.3,11-7.9
			c3.3-2.4,6.9-4.7,9.8-7.6C98.1,76.9,96.6,75,95.2,75.8z"/>
		<path class="st1" d="M250.6,55.3c-0.4-0.9-1.6-0.9-2.3-0.4c-0.2-0.1-0.7-0.1-1.8,0.2c-1.1,0-2.2,0-3.3,0c-2.2,0-4.4,0-6.6,0
			c-2.8,0-5.6-0.4-8,1.1c-0.1-0.1-0.2-0.1-0.2-0.2c-13.4-10.1-26.6-20.8-40.7-29.9c-1-0.6-2.2,0.9-1.3,1.7
			c12.2,10.7,25.5,20.2,38.4,30C214.1,68.5,204.3,80,196,92.7c-1.2,1.9,1.7,3.5,3,1.7c8.9-12.7,18.6-24.7,29.7-35.6
			c0.2-0.2,0.4-0.5,0.5-0.8c1.5,0.7,2.9,0.7,4.9,0.8c3.6,0.2,7.2,0.1,10.7,0.1C247.2,58.9,252.3,59.1,250.6,55.3z"/>
		<path class="st1" d="M267.1,45.4c-0.2,0-0.4,0.1-0.6,0.2c-5.1,0.8-6.4,6.9-7,11.4c-0.7,4.8,1.1,11.6,7.2,11.5
			C276.9,68.3,276.5,44.6,267.1,45.4z M270.6,60.4c-0.6,2.3-1,3-3.4,3.8c-1.3,1.1-2.3,1.1-3-0.2c-1.2-0.9-1.8-2.2-1.7-3.9
			c-0.2-1.5,0.2-3.2,0.4-4.7c0.5-2.9,1-6.3,3.6-8c0.1,0.1,0.2,0.1,0.3,0.1c3.2,1.2,4.1,5.1,4.2,8.1C271.1,57.2,271,58.9,270.6,60.4z
			"/>
		<path class="st1" d="M288.5,43.2c-0.2-0.9-1.5-0.7-1.6,0.2c-0.2,4.4,0,8.8,0.1,13.2c0,0.3,0,0.5,0,0.8c-2.1,0.3-4.2,0.5-6.3,0.8
			c-0.5-4.6-1.2-9.1-1.4-13.6c-0.1-1.4-2.2-1.4-2.2,0c-0.1,7.4-0.3,15.6,1.7,22.8c0.4,1.4,2.6,1.1,2.6-0.3c0-2.3-0.2-4.6-0.4-6.9
			c2,0,4-0.1,6.1-0.1c-0.1,2.8-0.1,5.6,0.4,8.3c0.2,1.1,2,1.1,2.3,0C291.3,60.7,290,50.7,288.5,43.2z"/>
	</g>
</g>
</svg>
