<?xml version="1.0" encoding="utf-8"?>
<!-- Generator: Adobe Illustrator 25.0.0, SVG Export Plug-In . SVG Version: 6.00 Build 0)  -->
<svg version="1.1" id="Layer_1" xmlns="http://www.w3.org/2000/svg" xmlns:xlink="http://www.w3.org/1999/xlink" x="0px" y="0px"
	 viewBox="0 0 360 640" style="enable-background:new 0 0 360 640;" xml:space="preserve">
<style type="text/css">
	.st0{opacity:0.1;}
	.st1{fill:#895003;}
</style>
<g class="st0">
	<polygon class="st1" points="264.7,103.9 260.3,97.1 264.7,89.1 264.7,53.5 246.2,49.1 241.8,145 264.7,140.6 	"/>
	<g>
		<path class="st1" d="M19,259.7h0.4h108.3l0.3,19l-54.2,2.9l-12,15.5l19.9,3.2l-23.2,1.9l-15.8,19.4l31.1,39.9l55.5,3l3.7,243.4
			c-52.2,2.4-97,12.2-123.5,26.1c41.1-9.5,92.5-15.2,148.2-15.2c55.7,0,107.1,5.7,148.2,15.2c-29.1-15.2-80-25.5-138.7-26.5
			l5.5-240.6l49.1,2.7l0,0l0.1,0l0.3,0v-0.1l22.5-4.4v-87l-18.5-4.4l-4.1,87.9v-87.9l-47.4,2.6l0.4-16.4h75.8h22.9h26.6l56.2-53.1
			L327,178.9l-38.3-3.1l33-2l-21.4-20.2H177.4l0.3-14.5l64,6V49.1l-62.2,7.4l0.7-32.6h-11l-3,8.9l-5.3-8.9h-37l0.6,39.1l-62.2,7.4
			L40.2,97.1l22.3,31.1l63.3,6l0.3,19.4H19v97.5l-4.1-97.5l-11.4,8.9v91.1l15.5,6.1V259.7z M129.2,358.1L75.3,355l-23.5-33.4
			l29.3,29l48.1,7.3l3.2,0.5L129.2,358.1z M156.4,369.2l-12.6,4.6l12.8,4.6l-12.6,4.6l12.8,4.6l-12.6,4.6l12.8,4.6l-12.6,4.6
			l12.8,4.6l-12.6,4.6l12.8,4.6l-12.6,4.6l12.8,4.6l-12.6,4.6l12.8,4.6l-12.6,4.6l12.8,4.6l-12.6,4.6l12.8,4.6l-12.6,4.6l12.8,4.6
			l-12.6,4.6L158,470l-12.6,4.6l12.8,4.6l-12.6,4.6l12.8,4.6l-12.6,4.6l12.8,4.6l-12.6,4.6l12.8,4.6l-12.6,4.6l12.8,4.6l-12.6,4.6
			l12.8,4.6l-12.6,4.6l12.8,4.6l-12.6,4.6l12.8,4.6l-12.6,4.6l12.8,4.6l-12.6,4.6l12.8,4.6l-12.6,4.6l12.8,4.6l-12.6,4.6l12.8,4.6
			l-12.6,4.6l12.8,4.6l-12.6,4.6l12.8,4.6l-20.5,7.4v-9.2l-0.1,0.1v-9.2l-0.1,0.1v-9.2l-0.1,0.1V569L139,569v-9.2l-0.1,0.1v-9.2
			l-0.1,0.1v-9.2l-0.1,0.1v-9.2l-0.1,0.1v-9.2l-0.1,0.1V514l-0.1,0.1v-9.2l-0.1,0.1v-9.2l-0.1,0.1v-9.2l-0.1,0.1v-9.2l-0.1,0.1v-9.2
			l-0.1,0.1V459l-0.1,0.1v-9.2l-0.1,0.1v-9.2l-0.1,0.1v-9.2l-0.1,0.1v-9.2l-0.1,0.1v-9.2l-0.1,0.1V404l-0.1,0.1v-9.2l-0.1,0.1v-9.2
			l-0.1,0.1v-9.2l-0.1,0.1v-9.2l-0.1,0.1v-2.6l0.1,0l6.1,0.3l3.8,0.2L156.4,369.2z M216.5,280.4v11.2l-0.2,0v8.7l-0.2,0v8.7l-0.2,0
			v8.7l-0.2,0v8.7l-0.2,0v8.7l-0.2,0v8.7l-0.2,0v8.7l-0.2,0v8.7l-41.8-2.8l-12.8-0.8l12.9-2.9l16.2-3.7l-16.1-1l-20.6-1.3l20.7-3.9
			l13.9-2.6l-13.8-0.8l-22.7-1.3l-5.8-0.3l3.4-0.5l25.2-3.8l12.1-1.8l-12.1-0.7l-20.9-1.2l-15.4-0.9l9.7-1.2l26.8-3.4l10.8-1.4
			l-10.8-0.6l-19.2-1l-19.2-1l-5.8-0.3l5.7-0.6l0.1,0l2.3-0.2l8.3-0.9l27.9-2.9l10.1-1.1l-10.1-0.5l-18.6-1l-20-1l-6.6-0.3l-6.8-0.4
			l6.8-0.6l6.5-0.6l0.1,0l3.2-0.3l7.2-0.6l28.4-2.5l10.1-0.9l-10.1-0.5l-20.4-1l-18.6-0.9l-6.6-0.3l-14.3-0.7l14.3-1l6.5-0.5l0.1,0
			l3.3-0.2l7.3-0.5l28.6-2l10.9-0.8l-10.9-0.5l-22.1-1.1l-17.2-0.8l-6.6-0.3l-21.8-1.1l21.8-1.3l6.5-0.4l0.1,0l2.9-0.2l8.3-0.5
			l28.4-1.7l12.6-0.7l-12.6-0.6l-23.9-1.1l-15.8-0.8l-6.6-0.3l-29.4-1.4l29.3-1.4l6.4-0.3l0.1,0l2.1-0.1l9.9-0.5l27.8-1.3
			L216.5,280.4z M154.8,268.4l-12.6,4.6l12,4.3l-19.7,1.1v-2.6l-0.1,0.1v-9.2l-0.1,0.1v-6.9h19.2l-11.3,4.1L154.8,268.4z
			 M289.1,246.4l50.5-40.8l-15.3-17.4l19.8,18.3l-49.1,45.1l-65.2-2L289.1,246.4z M130.9,55.9v-9.2l-0.1,0.1V31.9l20.5,7.4
			l-12.6,4.6l12.8,4.6L138.8,53l12.8,4.6l-9.1,3.3l-5.3,0.6l-5.9,0.7l-0.1,0v-6.5L130.9,55.9z M125.1,89.3l-0.6,0L125.1,89.3
			l6.4-0.8l0.1,0l3.2-0.4l13.3-1.6l30.9-3.6l18.9-2.2l-18.8,0.2l-37.6,0.5l-4.8,0.1l-5.2,0.1l-0.1,0l-6.4,0.1l-9.9,0.1l9.8-1.1
			l6.4-0.7l0.1,0l4.6-0.5l8.9-1l34.2-3.7l20.1-2.2l-20.1,0.4l-34.5,0.6l-12.1,0.2l-1.4,0l-0.1,0l-6.3,0.1l-19.1,0.3l19.1-2l6.4-0.7
			l0.1,0l6.3-0.6l4-0.4l37.8-3.9l57.8-5.9v11.2l-0.2,0v8.3l-0.2,0v8.3l-0.2,0v8.3h-0.2v8l-0.2,0v8l-0.2,0v8l-0.2,0v7.8l-0.2,0v8.1
			l-54.6-3.6l25.4-5.8l-28.1-1.3l-6.7-0.3l6.8-1.3l23.5-4.6l-23.4-0.7l-16.3-0.5l16.3-2.8l21-3.6l-20.9-0.3l-25.8-0.4l25.9-4
			l18.5-2.9l-18.5-0.1l-28.3-0.2l-7,0l7.9-1.1l27.6-3.8l17-2.4l-17,0l-33.8,0l-11,0h-0.1l0.1,0l17.1-2.2l27.8-3.5l18.7-2.4
			l-18.6,0.1l-38.1,0.3l-2.8,0l-6.3,0l-0.1,0L125.1,89.3z M132.3,147.5v-9.2l-0.1,0.1v-3.6l0.1,0l7.4,0.7l0.4,0l-0.2,0.1l12.8,4.6
			l-12.6,4.6l12.8,4.6l-11.7,4.2h-2h-6.7h-0.1v-6L132.3,147.5z M28.6,171.8v-11.2h4.1v0.1l93.5,1.7l6.4,0.1l0.1,0l6.5,0.1l2.2,0
			l35.7,0.6l67.4,1.2l-67.4,2.3l-24,0.8l-20.3,0.7l-6.5,0.2l-62.7,2.1l62.8,1.5l6.4,0.2l0.1,0l6.9,0.2l1.6,0l35.5,0.9l54.1,1.3
			l-54.2,1.8l-25.1,0.8l-18.9,0.6l-6.5,0.2l-57.3,1.9l57.3,1.8l6.4,0.2l0.1,0l4.9,0.2l6.1,0.2l32.7,1l40.8,1.3l-40.9,1.4l-26.5,0.9
			l-17,0.6l0,0l-0.1,0l-6.5,0.2L73,189.8l53.7,2.2l6.4,0.3l0.1,0l2.7,0.1l11.4,0.5l29.3,1.2l27.6,1.1l-27.6,0.9l-27.9,0.9l-13.7,0.5
			l-1.5,0.1l-0.1,0l-6.5,0.2l-51.5,1.8l51.6,2.6l6.4,0.3l0.1,0l0.1,0l17.6,0.9l25.2,1.3l14.3,0.7l-14.3,0.5l-29.3,1l-10.5,0.4
			l-3,0.1l-0.1,0l-6.5,0.2l-50.8,1.7l50.8,3.2l6.5,0.4l19.1,1.2l23.5,1.5l1,0.1l-1,0l-30.7,1.1l-7.3,0.2l-4.4,0.2l-0.1,0l-6.5,0.2
			l-51.2,1.8l51.3,3.9l6.5,0.5l15.1,1.2l14.8,1.1l-19.9,0.7l-4.1,0.1l-5.9,0.2l-0.1,0l-6.5,0.2l-52.7,1.8l52.8,5l6.5,0.6l0.1,0
			l3,0.3l7.4,0.7l5.7,0.5l-8,0.3l-0.9,0l-7.3,0.3l-0.1,0l-6.5,0.2l-55.1,1.9l55.2,6.4l6.5,0.8l0.1,0l2.5,0.3l-2.5,0.1l-0.1,0
			l-6.5,0.2l-97,3.4v-0.2h-1.9V171.8z"/>
		<polygon class="st1" points="165.6,6.1 142.7,6.1 124.1,19 180.4,19 		"/>
	</g>
</g>
</svg>
