<?xml version="1.0" encoding="utf-8"?>
<!-- Generator: Adobe Illustrator 25.0.0, SVG Export Plug-In . SVG Version: 6.00 Build 0)  -->
<svg version="1.1" id="Layer_1" xmlns="http://www.w3.org/2000/svg" xmlns:xlink="http://www.w3.org/1999/xlink" x="0px" y="0px"
	 viewBox="0 0 400 400" style="enable-background:new 0 0 400 400;" xml:space="preserve">
<style type="text/css">
	.st0{opacity:0.1;}
	.st1{fill:#895003;}
</style>
<g>
	<g class="st0">
		<g>
			<g>
				<g>
					<path class="st1" d="M83.6,120.4c2.9,0,5.2-4.5,5.2-10c0-5.4-2.4-10-5.2-10s-5.2,4.5-5.2,10C78.4,115.8,80.8,120.4,83.6,120.4z
						 M83.3,102.3c0.5,0,0.8,0.1,1.2,0.4c-1.7,1-3,4.2-3,8s1.3,6.9,3,8c-0.4,0.3-0.8,0.4-1.2,0.4c-2.4,0-4.3-3.8-4.3-8.4
						S81,102.3,83.3,102.3z"/>
				</g>
			</g>
			<g>
				<g>
					<path class="st1" d="M226.4,112.5c-4,0-7.8,0.7-11.5,2l0.3-15c18.1-5.4,31.5-24.6,31.5-47.5c0-27.1-18.7-49-41.9-49
						S163,25,163,52c0,12.6,4.1,24.2,10.8,32.9l-6.4-0.3l-3.1-11.9c-1-3.6-4-6.4-7.8-6.9l-20-2.8c-4-0.5-7.8,1.4-9.7,4.9l-1.8,3.3
						L120,71l-23.1,5.7C93.2,80,91.5,82,91.5,82l-5.8,0.8c-10.1,0.9-10,9.7-10,9.7c-2.2,43.2-2.4,79.2-2.4,79.2
						c-0.2,8.3,7.5,8.5,7.5,8.5c28.4,2.3,54.3,2.9,54.3,2.9c0.6,3.3,1.5,5.6,1.5,5.6h-5.7c-4.8,0-6.4,3.8-6.4,3.8
						c-5.6-0.3-5.5,2.3,1.1,3c2.7,0.9,1.6,5.2,1.6,5.2L97.2,323.3c2.3,0.9,3.8,1.6,3.8,1.6l-16.8,69.5c-0.8,3.3,3.3,3.4,4.3,0.8
						c1-2.7,17.2-68.6,17.2-68.6l3.6,1.2c0,0,27.2-107.3,27.1-107c-0.1,0.3-2.9,87.5-2.9,87.5c-0.1,1.9,4.5,1.7,4.5,1.7l-1.7,54.6
						c-0.3,3.5,4,2.7,4.1,0.3c0.1-2.4,2.3-54.6,2.3-54.6c4.8-0.1,5.1-1.7,5.1-3.2s4.5-109.8,4.5-109.8h3.5l31.4,125.8
						c0.6,1.6,2.3,1.5,2.3,1.5l15.6,63.9c0.9,3.6,5.7,2.3,4.7-1s-15.9-64.5-15.9-64.5c1.2-1.3,0.5-3,0.5-3l-1.3-6.6
						c1.8-1.6,0.6-4.9-1.4-4.7c-1.2-6.4-22.9-96.4-22.9-96.4l-3-12.6c-0.8-3.5,3.1-3.6,3.1-3.6c5-0.3,2.6-3.2-0.6-2.9
						c-3-4.7-13.5-4.3-13.5-4.3c2.1-3,2.5-4.1,2.5-4.1l34.2,0.6c6.9,15.1,20.2,25.3,35.4,25.3c22.3,0,40.4-22,40.4-49
						S248.8,112.5,226.4,112.5z M87.8,391.4l-1-0.3l15.4-63l1,0.3L87.8,391.4z M100.5,321.3l-1-0.2l4.3-19.6l1,0.2L100.5,321.3z
						 M192.7,325.8l14.4,60.3l-1,0.3l-14.4-60.3L192.7,325.8z M205.8,4.9c20.7,0,38,20.8,38.6,46.5S228.5,98,207.8,98
						s-38-20.8-38.6-46.5C168.6,25.8,185,4.9,205.8,4.9z M177.5,178.6l-8-0.3c-5.3-0.2-10.6-0.5-15.9-0.6
						c-5.3-0.3-10.6-0.6-15.9-0.9c-5.3-0.3-10.6-0.7-15.9-1.2c5.3,0.1,10.6,0.2,15.9,0.4c5.3,0.2,10.6,0.5,15.9,0.6
						c5.3,0.3,10.6,0.6,15.9,0.9l7.9,0.5c2.7,0.2,5.3,0.4,7.9,0.6C182.8,178.7,180.2,178.7,177.5,178.6z M184.6,180.1
						c-2.6,0-5.2-0.1-7.8-0.1l-7.8-0.3c-5.2-0.2-10.4-0.5-15.5-0.6c-5.2-0.3-10.4-0.6-15.5-0.9c-5.2-0.3-10.3-0.7-15.5-1.2
						c5.2,0.1,10.4,0.2,15.6,0.4c5.2,0.2,10.4,0.5,15.5,0.6c5.2,0.3,10.4,0.6,15.5,0.9l7.8,0.5C179.4,179.6,182,179.8,184.6,180.1z
						 M112.1,166.4c-0.6-2.9-6,8.5-7.1,6.7c-1.2-1.7-2.4-21.3-2.4-21.3s0,0.3-0.1,0.9c-0.1,3.1-0.7,13.7-1,20.1c0,0,0.5,2.3,2.9,4.3
						c0,0-4.1-1.4-4.3-6.1l1.2-33.7c0,0,0.6,2.9,3.3,3.9c0,0,0.2,2.9,2.1,5.5c0,0-0.3-1.7,0.5-4.7c0,0,0.2,4.4,3.8,7.6
						c0,0-1.7-3.6-0.5-7.9c0,0-0.6,5.8,5.3,8l-0.1,28.4c0,0-1.4,0.4-7.1,0.1C112.4,177.4,112.6,169.3,112.1,166.4z M82.2,92.2
						c-0.1,0.6-0.1,1.2-0.3,1.9c-0.1,0.6-0.2,1.3-0.4,1.9c-0.5-1.3-0.5-2.6-0.4-3.9c0.1-0.6,0.2-1.3,0.4-1.9
						c0.2-0.6,0.5-1.2,0.9-1.8C82.4,89.6,82.3,90.9,82.2,92.2z M82.5,92c0.1-0.6,0.2-1.4,0.4-2s0.5-1.3,0.9-1.9
						c-0.1,1.4-0.1,2.7-0.3,4c-0.1,0.7-0.1,1.4-0.3,2.2c-0.1,0.5-0.2,1.1-0.4,1.6C82.5,94.6,82.4,93.3,82.5,92z M83.6,99.4
						c3.5,0,6.2,4.8,6.2,11c0,6.2-2.7,11-6.2,11s-6.2-4.8-6.2-11C77.4,104.3,80.1,99.4,83.6,99.4z M88.3,99.1c1,1,1.7,2.1,2.3,3.4
						c0.1,0.3,0.3,0.6,0.3,0.8c0.6,0,2.2-0.1,3-1c-0.5-1-1-2-1.7-2.9c-0.8-1-1.9-1.7-3.2-1.9c1.4-0.1,2.7,0.5,3.7,1.5
						c1,1,1.7,2.1,2.3,3.4c1.2,2.5,1.6,5.2,1.6,8c-0.1,2.7-0.5,5.4-1.6,8c-0.6,1.2-1.3,2.4-2.3,3.4c-1,1-2.3,1.6-3.7,1.5
						c1.3-0.2,2.5-0.9,3.2-1.9c0.8-1,1.4-2.1,1.9-3.3c0.9-2.4,1.2-5,1.3-7.6c0-0.3,0-0.5,0-0.7c-0.6-0.3-1.7-0.3-3.2,2
						c-0.1,2.3-0.6,4.6-1.6,6.7c-0.6,1.2-1.3,2.4-2.3,3.4c-1,1-2.3,1.6-3.7,1.5c1.3-0.2,2.5-0.9,3.2-1.9c0.8-1,1.4-2.1,1.9-3.3
						c0.9-2.4,1.2-5,1.3-7.6c0-2.6-0.4-5.2-1.3-7.6c-0.5-1.2-1-2.3-1.9-3.3c-0.8-1-1.9-1.7-3.2-1.9C86,97.5,87.3,98.1,88.3,99.1z
						 M85.1,92c0.1-0.7,0.2-1.4,0.4-2.1c0.2-0.7,0.5-1.4,0.8-2c0,1.5-0.1,2.9-0.3,4.3C86,93,85.9,94,85.8,94.9
						c-0.1,0.3-0.2,0.7-0.4,1C85.1,94.6,85,93.3,85.1,92z M86.5,91.9c0.1-0.8,0.2-1.5,0.4-2.2c0.2-0.7,0.5-1.5,0.8-2.1
						c0,1.6-0.1,3-0.2,4.5c-0.1,1-0.2,2.1-0.3,3.1c-0.1,0.3-0.2,0.5-0.4,0.7C86.4,94.6,86.3,93.2,86.5,91.9z M87.8,91.9
						c0.1-0.8,0.2-1.6,0.4-2.3c0.2-0.8,0.5-1.5,0.8-2.2c0,1.6-0.1,3.1-0.2,4.6c-0.1,1.1-0.2,2.3-0.4,3.4c-0.1,0.1-0.2,0.3-0.4,0.5
						C87.7,94.5,87.7,93.2,87.8,91.9z M89.1,91.8c0.1-0.8,0.2-1.6,0.4-2.4c0.2-0.8,0.5-1.6,0.8-2.3c0,1.6-0.1,3.2-0.2,4.7
						c-0.1,1.2-0.2,2.5-0.4,3.7c-0.1,0.1-0.2,0.1-0.3,0.1C89.1,94.5,89,93.1,89.1,91.8z M90.4,91.8c0.1-0.8,0.2-1.6,0.4-2.5
						c0.2-0.8,0.5-1.6,0.8-2.4c0.1,1.7-0.1,3.3-0.1,4.9c-0.1,1.4-0.2,2.7-0.5,4c-0.1-0.1-0.2-0.1-0.3-0.1
						C90.4,94.4,90.4,93.1,90.4,91.8z M91.8,91.8c0.1-0.8,0.2-1.7,0.3-2.5c0.2-0.8,0.4-1.7,0.8-2.5c0.1,1.7,0,3.4-0.1,5.1
						c-0.1,1.4-0.2,2.9-0.5,4.3C92.2,96,92,95.8,92,95.7C91.7,94.4,91.7,93.1,91.8,91.8z M93.1,91.7c0.1-0.8,0.2-1.7,0.3-2.6
						c0.2-0.8,0.4-1.7,0.8-2.5c0.1,1.7,0,3.5-0.1,5.2c-0.1,1.6-0.3,3-0.5,4.6c-0.1-0.3-0.3-0.5-0.3-0.8C93,94.4,93,93.1,93.1,91.7z
						 M118,102.6c0,0-11.6-1-21.2-0.8c0,0-0.4-1.6-1.7-2.7C95,99,106.5,100.2,118,102.6z M95.7,91.6c0.1-0.9,0.2-1.8,0.3-2.7
						c0.2-0.9,0.4-1.8,0.7-2.7c0.1,1.9,0,3.7-0.1,5.5c-0.1,1.7-0.3,3.4-0.6,5.2c-0.1-0.5-0.3-0.9-0.3-1.4
						C95.7,94.3,95.7,92.9,95.7,91.6z M97,91.6c0.1-1,0.2-1.9,0.3-2.8c0.2-1,0.4-1.9,0.7-2.8c0.1,1.9,0.1,3.8-0.1,5.7
						c-0.1,1.8-0.3,3.6-0.6,5.5c-0.1-0.5-0.3-1.1-0.3-1.6C97,94.2,97,92.9,97,91.6z M98.4,91.6c0.1-1.9,0.4-3.9,1-5.8
						c0.1,1.9,0.1,3.9-0.1,5.8s-0.3,3.8-0.6,5.8C98.3,95.5,98.3,93.5,98.4,91.6z M155.7,130.1c1.4-5.7,0.3-9.5,0.3-9.5
						c-2.1,15.7-13,17-13,17s6.4-3.8,7-8.2c-9.7,9.3-21.9,8.1-21.9,8.1c0.6-11.2-4.1-14.1-4.1-14.1v-26c3.4,0,3.9-3.4,3.9-3.4h16.5
						c0,0,10.7,4.1,12.7,17c-4.1-9.5-7.5-11.1-7.5-11.1C161.6,119.5,155.7,130.1,155.7,130.1z M175.4,161.9l-8-0.3
						c-5.3-0.2-10.6-0.5-15.9-0.6c-5.3-0.3-10.6-0.6-15.9-0.9c-5.3-0.3-10.6-0.7-15.9-1.2c5.3,0.1,10.6,0.2,15.9,0.4
						c5.3,0.2,10.6,0.5,15.9,0.6c5.3,0.3,10.6,0.6,15.9,0.9l7.9,0.5c2.7,0.2,5.3,0.4,7.9,0.6C180.6,162.1,178,162,175.4,161.9z
						 M183.8,163.9c-2.7,0-5.3-0.1-8-0.1l-8-0.3c-5.3-0.2-10.6-0.5-15.9-0.6c-5.3-0.3-10.6-0.6-15.9-0.9s-10.6-0.7-15.9-1.2
						c5.3,0.1,10.6,0.2,15.9,0.4c5.3,0.2,10.6,0.5,15.9,0.6c5.3,0.3,10.6,0.6,15.9,0.9l7.9,0.5C178.6,163.4,181.1,163.6,183.8,163.9
						z M134.2,154.2c5.3,0.2,10.6,0.5,15.9,0.6c5.3,0.3,10.6,0.6,15.9,0.9l7.9,0.5c2.7,0.2,5.3,0.4,7.9,0.6c-2.7,0-5.3-0.1-8-0.1
						l-8-0.3c-5.3-0.2-10.6-0.5-15.9-0.6c-5.3-0.3-10.6-0.6-15.9-0.9s-10.6-0.7-15.9-1.2C123.6,153.8,128.9,154,134.2,154.2z
						 M118.4,151.4c0-0.8,0.8-1.5,1.7-1.5s1.7,0.6,1.7,1.5c0,0.8-0.8,1.5-1.7,1.5C119.2,152.9,118.4,152.2,118.4,151.4z M97.7,115
						c10.9,1.2,20.7-0.2,20.7-0.2c-2.6,4.7-4.5,6.3-4.5,6.3c1.2-2.5,1.8-4.1,1.8-4.1C102.4,116.3,97.7,115,97.7,115z M97.4,104.1
						c0.5,0.7,0.9,1.5,1.2,2.3c0.3,0.8,0.5,1.7,0.5,2.5c0.1,0.8,0.1,1.7-0.1,2.6c-0.1,0.8-0.3,1.7-0.8,2.5c0-1.7,0-3.4-0.1-5
						c-0.1-0.8-0.1-1.6-0.3-2.5C97.7,105.8,97.5,105,97.4,104.1z M99.5,104.1c0.5,0.7,0.9,1.5,1.2,2.3c0.3,0.8,0.5,1.7,0.5,2.5
						c0.1,0.8,0.1,1.7-0.1,2.6c-0.1,0.8-0.3,1.7-0.8,2.5c0-1.7,0-3.4-0.1-5c-0.1-0.8-0.1-1.6-0.3-2.5
						C99.8,105.8,99.6,105,99.5,104.1z M101.6,104.1c0.5,0.7,0.9,1.5,1.2,2.3c0.3,0.8,0.5,1.7,0.5,2.5c0.1,0.8,0.1,1.7-0.1,2.6
						c-0.1,0.8-0.3,1.7-0.8,2.5c0-1.7,0-3.4-0.1-5c-0.1-0.8-0.1-1.6-0.3-2.5C102,105.8,101.8,105,101.6,104.1z M103.8,104.1
						c0.5,0.7,0.9,1.5,1.2,2.3c0.3,0.8,0.5,1.7,0.5,2.5c0.1,0.8,0.1,1.7-0.1,2.6c-0.1,0.8-0.3,1.7-0.8,2.5c0-1.7,0-3.4-0.1-5
						c-0.1-0.8-0.1-1.6-0.3-2.5C104.2,105.8,104,105,103.8,104.1z M106,104.1c0.5,0.7,0.9,1.5,1.2,2.3c0.3,0.8,0.5,1.7,0.5,2.5
						c0.1,0.8,0.1,1.7-0.1,2.6c-0.1,0.8-0.3,1.7-0.8,2.5c0-1.7,0-3.4-0.1-5c-0.1-0.8-0.1-1.6-0.3-2.5
						C106.3,105.8,106.1,105,106,104.1z M108.1,104.1c0.5,0.7,0.9,1.5,1.2,2.3c0.3,0.8,0.5,1.7,0.5,2.5c0.1,0.8,0.1,1.7-0.1,2.6
						c-0.1,0.8-0.3,1.7-0.8,2.5c0-1.7,0-3.4-0.1-5c-0.1-0.8-0.1-1.6-0.3-2.5C108.4,105.8,108.2,105,108.1,104.1z M110.3,104.1
						c0.5,0.7,0.9,1.5,1.2,2.3c0.3,0.8,0.5,1.7,0.5,2.5c0.1,0.8,0.1,1.7-0.1,2.6c-0.1,0.8-0.3,1.7-0.8,2.5c0-1.7,0-3.4-0.1-5
						c-0.1-0.8-0.1-1.6-0.3-2.5C110.6,105.8,110.4,105,110.3,104.1z M112.5,104.1c0.5,0.7,0.9,1.5,1.2,2.3c0.3,0.8,0.5,1.7,0.5,2.5
						c0.1,0.8,0.1,1.7-0.1,2.6c-0.1,0.8-0.3,1.7-0.8,2.5c0-1.7,0-3.4-0.1-5c-0.1-0.8-0.1-1.6-0.3-2.5
						C112.8,105.8,112.6,105,112.5,104.1z M114.6,104.1c0.5,0.7,0.9,1.5,1.2,2.3c0.3,0.8,0.5,1.7,0.5,2.5c0.1,0.8,0.1,1.7-0.1,2.6
						c-0.1,0.8-0.3,1.7-0.8,2.5c0-1.7,0-3.4-0.1-5c-0.1-0.8-0.1-1.6-0.3-2.5C114.9,105.8,114.7,105,114.6,104.1z M104.6,86.6
						c0,0-0.3-0.4-1.1-1.2c0,0,1.4-4.7,8.9-4c0,0,7.4,1.4,23.3,3.3l-17.9-3.2c0,0,8.9,1.4,22.6,2.9c0,0-4.3,2.1-1.7,7.8
						c0,0-22.7-1.2-32.6,4.7c0,0,1.2-2.1,2.7-3.5C114.5,90.4,109.5,83.3,104.6,86.6z M124.7,135.1c1,0,1.7,0.6,1.7,1.5
						s-0.8,1.5-1.7,1.5s-1.7-0.6-1.7-1.5S123.7,135.1,124.7,135.1z M135.2,141.5c0,0,11,0.6,17.4-6
						C152.5,138.5,152.6,143.5,135.2,141.5z M141.9,147.6c0,0.8-0.8,1.5-1.7,1.5s-1.7-0.6-1.7-1.5c0-0.8,0.8-1.5,1.7-1.5
						C141.1,146.1,141.9,146.8,141.9,147.6z M144.2,151.8c3.4,0.2,6.7,0.4,10,0.7l5,0.5c1.7,0.2,3.4,0.3,5,0.5
						c-1.7,0-3.4-0.1-5.1-0.1l-5.1-0.1c-3.4-0.1-6.7-0.3-10-0.5c-3.4-0.2-6.7-0.4-10-0.7c-3.4-0.3-6.7-0.6-10-1
						c3.4,0,6.7,0.1,10,0.2C137.5,151.4,140.8,151.6,144.2,151.8z M162.6,144.8c0-1.2,1-2.2,2.3-2.2c1.2,0,2.3,1,2.3,2.2
						c0,1.2-1,2.2-2.3,2.2C163.6,147,162.6,146.1,162.6,144.8z M167.7,153.8c0-0.8,0.8-1.5,1.7-1.5s1.7,0.6,1.7,1.5
						c0,0.8-0.8,1.5-1.7,1.5C168.4,155.3,167.7,154.6,167.7,153.8z M134.7,155.9c5.3,0.2,10.6,0.5,15.9,0.6
						c5.3,0.3,10.6,0.6,15.9,0.9l7.9,0.5c2.7,0.2,5.3,0.4,7.9,0.6c-2.7,0-5.3-0.1-8-0.1l-8-0.3c-5.3-0.2-10.6-0.5-15.9-0.6
						c-5.3-0.3-10.6-0.6-15.9-0.9s-10.6-0.7-15.9-1.2C124.1,155.6,129.4,155.7,134.7,155.9z M135.2,157.7c5.3,0.2,10.6,0.5,15.9,0.6
						c5.3,0.3,10.6,0.6,15.9,0.9l7.9,0.5c2.7,0.2,5.3,0.4,7.9,0.6c-2.7,0-5.3-0.1-8-0.1l-8-0.3c-5.3-0.2-10.6-0.5-15.9-0.6
						c-5.3-0.3-10.6-0.6-15.9-0.9s-10.6-0.7-15.9-1.2C124.6,157.3,129.9,157.5,135.2,157.7z M182.6,146.1c-0.6,2.2-1.2,4.5-1.7,6.7
						c0.1-1.2,0.2-2.3,0.3-3.5c0.2-1.2,0.3-2.3,0.6-3.4c0.5-2.3,1.2-4.5,1.9-6.7c0.8-2.2,1.7-4.3,2.9-6.4c1.2-2,2.5-4,4.1-5.7
						c-0.6,1-1.2,1.9-1.8,3c-0.6,1-1.1,2-1.6,3.1c-1,2.1-1.9,4.2-2.7,6.4C183.9,141.6,183.2,143.8,182.6,146.1z M189.4,119.5
						c-1.4,0.4-2.8,0.8-4.1,1.3c-2.8,0.9-5.5,1.9-8.2,2.9s-5.4,2.1-8,3.4c-2.7,1.2-5.2,2.5-7.9,3.8c1.2-0.8,2.5-1.6,3.7-2.3
						c1.3-0.7,2.5-1.4,3.8-2.1c2.6-1.4,5.3-2.5,8-3.6c2.7-1,5.5-2,8.4-2.7c2.9-0.8,5.7-1.4,8.6-1.7
						C192.2,118.7,190.8,119.1,189.4,119.5z M182.9,128.8c-8.6,6.3-13.5,14.2-13.5,14.2c2.4-5.2,7.1-10.8,7.1-10.8
						c-6.1,5.1-7.5,8.3-7.5,8.3c-8.6,0-16.1,4.9-20.3,3.4c7.5-0.2,6.8-8.7,6.8-8.7C171.2,129.9,182.9,128.8,182.9,128.8z M134.9,83
						c-4-0.4-7.9-0.9-11.9-1.4l-6-0.7l-3-0.4c-1-0.1-1.9-0.3-2.9-0.3c-1.9,0-3.9,0.3-5.5,1.3s-2.7,2.7-3,4.6
						c-0.1,1.8-0.3,3.6-0.4,5.4c-0.1,1.8-0.3,3.6-0.5,5.4c0-1.8,0.1-3.6,0.1-5.4c0-1.8,0.1-3.6,0.1-5.4l0,0l0,0
						c0.2-2.1,1.4-4.1,3.1-5.2c1.8-1.1,3.9-1.5,6-1.6c1-0.1,2.1,0.1,3,0.3l3,0.4l5.9,0.8c4,0.5,7.9,1,11.9,1.7
						c4,0.6,7.9,1.2,11.8,1.9C142.8,83.9,138.8,83.5,134.9,83z M95.4,91.8c-0.1,1.6-0.3,3.2-0.5,4.9c-0.1-0.3-0.3-0.7-0.3-1
						c-0.2-1.3-0.2-2.6-0.1-4c0.1-0.9,0.2-1.8,0.3-2.7c0.2-0.9,0.4-1.7,0.8-2.7C95.6,88.2,95.5,90,95.4,91.8z M84.8,92.1
						c-0.1,0.8-0.1,1.7-0.3,2.5c-0.1,0.5-0.2,0.9-0.4,1.4c-0.4-1.3-0.5-2.6-0.3-3.9c0.1-0.7,0.2-1.4,0.4-2.1
						c0.2-0.7,0.5-1.4,0.8-1.9C85,89.4,84.9,90.7,84.8,92.1z M79.2,126.6l15,0.3c0,0-0.3,30.1-0.5,38.4c0.4-8.5,2.3-39.8,2.3-39.8
						l-13.8-0.8l17.4-0.2l-2,43.5l-0.5-22.2l-0.8,23.9L79,170.9l18.9,0.2l-20.4,1L79.2,126.6z M97.9,172.1c1,3.4,3.5,4.4,3.5,4.4
						c-14.6-0.1-21.2-3.2-21.2-3.2C92.6,172.8,97.9,172.1,97.9,172.1z M111.9,128.1c-0.3-0.7-0.5-1.5-1.4-1.7
						c0.5-0.1,0.9,0.1,1.2,0.4s0.6,0.6,0.8,1.1c0.4,0.8,0.5,1.7,0.6,2.6c0,0.8-0.2,1.7-0.6,2.6c-0.2,0.4-0.5,0.8-0.8,1.1
						s-0.8,0.5-1.2,0.4c0.8-0.3,1.1-1,1.4-1.7c0.2-0.7,0.3-1.5,0.3-2.3C112.1,129.6,112.1,128.8,111.9,128.1z M110.6,127.8
						c0.4,0.8,0.5,1.7,0.6,2.6c0,0.8-0.2,1.7-0.6,2.6c-0.2,0.4-0.5,0.8-0.8,1.1s-0.8,0.5-1.2,0.4c0.8-0.3,1.1-1,1.4-1.7
						c0.2-0.7,0.3-1.5,0.3-2.3c0-0.8-0.1-1.6-0.3-2.3c-0.3-0.7-0.5-1.5-1.4-1.7c0.5-0.1,0.9,0.1,1.2,0.4
						C110.1,127,110.4,127.4,110.6,127.8z M108.6,127.8c0.4,0.8,0.5,1.7,0.6,2.6c0,0.8-0.2,1.7-0.6,2.6c-0.2,0.4-0.5,0.8-0.8,1.1
						s-0.8,0.5-1.2,0.4c0.8-0.3,1.1-1,1.4-1.7c0.2-0.7,0.3-1.5,0.3-2.3c0-0.8-0.1-1.6-0.3-2.3c-0.3-0.7-0.5-1.5-1.4-1.7
						c0.5-0.1,0.9,0.1,1.2,0.4C108.1,127,108.4,127.4,108.6,127.8z M107.7,130.4c0,2.2-1,4-2.1,4c-1.2,0-2.1-1.8-2.1-4s1-4,2.1-4
						C106.7,126.4,107.7,128.2,107.7,130.4z M114.7,146.6c-1,0-1.7-0.6-1.7-1.5c0-0.8,0.8-1.5,1.7-1.5s1.7,0.6,1.7,1.5
						S115.6,146.6,114.7,146.6z M115.5,123.2c-2.1-0.1-4.3,0-6.5-0.1l-6.5-0.1c-2.1-0.1-4.3-0.1-6.5-0.3c2.1-0.1,4.3-0.1,6.5-0.2
						l6.5-0.1c2.1-0.1,4.3,0,6.5-0.1h6v-5.8c0-2.1,0-4.2,0-6.3c0.1-4.2,0.1-8.4,0.3-12.6c0.3,4.2,0.3,8.4,0.5,12.6
						c0.1,2.1,0.1,4.2,0.1,6.3l0.1,6.3v0.5h-0.5L115.5,123.2z M119.3,176.5c1,0,1.7,0.6,1.7,1.5c0,0.8-0.8,1.5-1.7,1.5
						s-1.7-0.6-1.7-1.5C117.5,177.2,118.3,176.5,119.3,176.5z M120.8,162.5c5.3,0.1,10.6,0.2,15.9,0.4c5.3,0.2,10.6,0.5,15.9,0.6
						c5.3,0.3,10.6,0.6,15.9,0.9l7.9,0.5c2.7,0.2,5.3,0.4,7.9,0.6c-2.7,0-5.3-0.1-8-0.1l-8-0.3c-5.3-0.2-10.6-0.5-15.9-0.6
						c-5.3-0.3-10.6-0.6-15.9-0.9C131.3,163.3,126.1,163,120.8,162.5z M137.1,164.7c5.3,0.2,10.6,0.5,15.9,0.6
						c5.3,0.3,10.6,0.6,15.9,0.9l7.9,0.5c2.7,0.2,5.3,0.4,7.9,0.6c-2.7,0-5.3-0.1-8-0.1l-8-0.3c-5.3-0.2-10.6-0.5-15.9-0.6
						c-5.3-0.3-10.6-0.6-15.9-0.9s-10.6-0.7-15.9-1.2C126.6,164.3,131.8,164.5,137.1,164.7z M137.7,166.3c5.3,0.2,10.6,0.5,15.9,0.6
						c5.3,0.3,10.6,0.6,15.9,0.9l7.9,0.5c2.7,0.2,5.3,0.4,7.9,0.6c-2.7,0-5.3-0.1-8-0.1l-8-0.3c-5.3-0.2-10.6-0.5-15.9-0.6
						c-5.3-0.3-10.6-0.6-15.9-0.9s-10.6-0.7-15.9-1.2C127,166,132.4,166.2,137.7,166.3z M177.8,170.7l-8-0.3
						c-5.3-0.2-10.6-0.5-15.9-0.6c-5.3-0.3-10.6-0.6-15.9-0.9s-10.6-0.7-15.9-1.2c5.3,0.1,10.6,0.2,15.9,0.4
						c5.3,0.2,10.6,0.5,15.9,0.6c5.3,0.3,10.6,0.6,15.9,0.9l7.9,0.5c2.7,0.2,5.3,0.4,7.9,0.6C183.2,170.8,180.5,170.8,177.8,170.7z
						 M186.3,172.6c-2.7,0-5.3-0.1-8-0.1l-8-0.3c-5.3-0.2-10.6-0.5-15.9-0.6c-5.3-0.3-10.6-0.6-15.9-0.9s-10.6-0.7-15.9-1.2
						c5.3,0.1,10.6,0.2,15.9,0.4c5.3,0.2,10.6,0.5,15.9,0.6c5.3,0.3,10.6,0.6,15.9,0.9l7.9,0.5C181,172.2,183.7,172.3,186.3,172.6z
						 M178.4,177.2l-8-0.3c-5.3-0.2-10.6-0.5-15.9-0.6c-5.3-0.3-10.6-0.6-15.9-0.9s-10.6-0.7-15.9-1.2c5.3,0.1,10.6,0.2,15.9,0.4
						c5.3,0.2,10.6,0.5,15.9,0.6c5.3,0.3,10.6,0.6,15.9,0.9l7.9,0.5c2.7,0.2,5.3,0.4,7.9,0.6C183.7,177.4,181.1,177.3,178.4,177.2z
						 M179.3,175.9l-8-0.3c-5.3-0.2-10.6-0.5-15.9-0.6c-5.3-0.3-10.6-0.6-15.9-0.9c-5.3-0.3-10.6-0.7-15.9-1.2
						c5.3,0.1,10.6,0.2,15.9,0.4c5.3,0.2,10.6,0.5,15.9,0.6c5.3,0.3,10.6,0.6,15.9,0.9l7.9,0.5c2.7,0.2,5.3,0.4,7.9,0.6
						C184.6,176.1,182,176,179.3,175.9z M178.8,174.2l-8-0.3c-5.3-0.2-10.6-0.5-15.9-0.6c-5.3-0.3-10.6-0.6-15.9-0.9
						s-10.6-0.7-15.9-1.2c5.3,0.1,10.6,0.2,15.9,0.4c5.3,0.2,10.6,0.5,15.9,0.6c5.3,0.3,10.6,0.6,15.9,0.9l7.9,0.5
						c2.7,0.2,5.3,0.4,7.9,0.6C184.1,174.3,181.5,174.3,178.8,174.2z M186.3,144.3c-0.6,2.2-1.2,4.5-1.7,6.7s-0.8,4.5-1.2,6.9
						c0-1.2,0.1-2.3,0.1-3.5c0.1-1.2,0.2-2.3,0.4-3.5c0.3-2.3,0.8-4.6,1.5-6.9c0.7-2.3,1.5-4.5,2.5-6.5c1-2.1,2.2-4.1,3.7-6
						c-0.6,1-1.1,2-1.6,3.1c-0.5,1-1,2.1-1.4,3.2C187.7,139.9,187,142.1,186.3,144.3z M187.9,148.1c0.1-0.8,0.2-1.6,0.4-2.4l0.6-2.3
						c0.2-0.8,0.5-1.6,0.7-2.3c0.5-1.6,1.2-3,1.8-4.5c0.3-0.7,0.8-1.4,1.1-2.1l0.6-1.1l0.6-1c1.7-2.8,3.7-5.4,6-7.6
						c2.3-2.3,4.7-4.5,7.5-6.1c-1.3,1-2.5,2.1-3.6,3.2s-2.3,2.3-3.3,3.4c-2.1,2.4-4,4.9-5.7,7.7c-1.7,2.7-3.1,5.6-4.3,8.6
						c-1.2,3-1.9,6.1-2.7,9.2C187.7,149.8,187.8,148.9,187.9,148.1z M190.4,153l0.5-2.7c0.1-0.9,0.3-1.7,0.5-2.7l0.6-2.6
						c0.2-0.8,0.5-1.7,0.8-2.6c0.5-1.7,1.2-3.4,1.9-5.1c1.5-3.2,3.2-6.4,5.4-9.3c2.1-2.9,4.6-5.6,7.6-7.6c-1.4,1.2-2.6,2.5-3.8,3.8
						c-0.6,0.6-1.2,1.4-1.7,2.1c-0.6,0.7-1,1.4-1.6,2.1c-2,2.9-3.7,6-5.1,9.3c-0.6,1.6-1.4,3.2-1.9,4.9c-0.3,0.8-0.6,1.7-0.8,2.5
						l-0.7,2.5c-0.3,0.8-0.5,1.7-0.6,2.6l-0.6,2.6c-0.4,1.7-0.6,3.5-1,5.2C190.1,156.6,190.2,154.7,190.4,153z M161.1,128.4
						c0,0,5.5-16.8-9.3-32.4c0,0,8.5,5.5,22.8,13.2c0,0-6.7,7.5-1,6.4c5.6-1.1,13.3-5.6,4.1-11.5c-0.4-0.2-0.5-0.3-0.5-0.3
						c0.2,0.1,0.4,0.3,0.5,0.3c0.7,0.4,2.3,1,5.3,1.3c0,0-6.2-2.3-10.6-8.5c0,0,9.7,12.4,36.6,8.4l0.8,6.9l0.8-8v9.5
						C210.8,113.7,179.8,116,161.1,128.4z M185.4,97.9c1.9,1,4,1.9,6.1,2.8c1,0.4,2.1,0.8,3.2,1.1c1,0.3,2.1,0.6,3.2,0.9
						c-1.1-0.1-2.3-0.2-3.4-0.5c-1.1-0.3-2.2-0.5-3.3-0.8c-2.1-0.6-4.3-1.6-6.3-2.6c-2-1.1-4-2.3-5.7-3.7c-0.9-0.6-1.7-1.4-2.6-2.1
						c-0.8-0.8-1.6-1.6-2.4-2.4c1.8,1.4,3.6,2.7,5.4,4C181.5,95.7,183.5,96.8,185.4,97.9z M181.8,92.5c1.7,1,3.5,2.1,5.3,3
						c1.7,1,3.6,1.8,5.4,2.6c1.9,0.8,3.8,1.5,5.6,2.1c1.9,0.6,3.9,1.2,5.9,1.6c-2.1,0-4.1-0.3-6.1-0.8s-4-1.2-5.8-1.9
						c-1.9-0.8-3.8-1.7-5.4-2.9c-0.9-0.5-1.7-1.2-2.5-1.7S182.6,93.1,181.8,92.5z M178.3,97.7c2.1,1.3,4.3,2.4,6.5,3.4
						c1.1,0.5,2.3,1,3.4,1.4c1.2,0.5,2.3,0.8,3.6,1.1c-1.2-0.1-2.5-0.3-3.7-0.6c-1.2-0.3-2.4-0.7-3.6-1.1c-2.3-0.8-4.6-1.9-6.7-3.2
						c-2.1-1.4-4.1-2.8-6-4.5c-1-0.8-1.8-1.7-2.7-2.6c-0.8-0.9-1.6-1.9-2.4-2.9c1.8,1.7,3.6,3.4,5.6,4.9
						C174.2,95,176.2,96.4,178.3,97.7z M173.7,80c-0.5-1-1.2-1.9-1.6-2.9l-1.4-3c-0.5-1-0.8-2-1.2-3c-1.5-4.1-2.6-8.4-3.1-12.8
						c-0.5-4.3-0.7-8.7-0.2-13.1c-0.1,2.2,0,4.3,0.2,6.5c0.1,1.1,0.2,2.1,0.3,3.2c0.1,1.1,0.3,2.1,0.5,3.2c0.7,4.3,1.7,8.5,3.3,12.5
						c0.4,1,0.7,2.1,1.2,3l1.4,2.9c0.5,1,1,1.9,1.6,2.9l0.8,1.4l0.9,1.4c0.6,0.9,1.2,1.8,1.8,2.7l2.1,2.5c0.3,0.4,0.6,0.8,1,1.2
						l1.2,1.2c0.8,0.8,1.6,1.6,2.3,2.3c-3.4-2.8-6.6-5.8-9-9.5l-1-1.3L173.7,80z M167.9,86.2l3.1,0.5c1,0.2,2.1,0.3,3.1,0.6
						c-1,0-2.1-0.1-3.1-0.1l-3.1-0.2c-2.1-0.1-4.1-0.3-6.2-0.5c-2.1-0.3-4.1-0.5-6.2-0.8c-2.1-0.3-4.1-0.6-6.2-1
						c2.1,0,4.1,0.1,6.2,0.3c2.1,0.1,4.1,0.3,6.2,0.5C163.8,85.6,165.9,85.9,167.9,86.2z M153.6,74.4c-1.1-0.1,0.1-2.4-2.7-2.9
						c-2.7-0.5,2.4,0.3,4.8,0.5c0,0,1.4,1.1,1.2,4.3c0,0,0.2,1.1-1.1,1l-6.3-0.8c0,0,0.8-0.1,1.7-0.3c0,0,1.1,0.1,2.5,0
						C155.1,76.1,154.7,74.5,153.6,74.4z M163.7,75.2c0,0,0.3,0.6,0.6,1.7c0,0-0.1-1.4-0.3-2.4c0,0,0.4,1.3,0.9,3.8
						c0,0-2.4,0.6-2.4,3.5c0,0-1.3-5.6-2.3-8.9C160.3,72.8,162.2,74.8,163.7,75.2z M137.7,65.6l14.4,2c0,0,5.9,0.3,8,7.9l2.1,8.4
						l-10.3-1.3l0.3-4.8l4.3,0.5c0.6,0.1,1.2-0.4,1.2-1c0.1-1.7,0.1-5.1-1.9-6.2l-8.6-0.7c-0.9-0.1-1.7,0.6-1.8,1.5l-0.5,4.3
						c-0.1,0.4,0.3,0.8,0.6,0.8l2.1,0.3l-0.4,4.7c0,0-2.3-0.3-15.2-1.9c0-3.6-2.6-6.5-2.6-6.5S131,65.1,137.7,65.6z M133.6,64.9
						c-3.1,3.2-4.5,7.1-4.5,7.1c0.2-2.7,0.9-4.4,0.9-4.4c-1.9,2-3.2,3.9-3.2,3.9C129,65.1,133.6,64.9,133.6,64.9z M131.2,80
						c-7.5-1.2-12.4-1.8-12.4-1.8l10,0.8l-10.1-1.9c0.8-2,1.9-2.6,1.9-2.6c-3.2,0.9-4.5,3.2-4.5,3.2C118.9,71,128.7,69.4,131.2,80z
						 M100.1,78.6c0,0,5.1-1.4,11-2.2c0,0,0.3-1.9-10.1,0.6c0,0,10.5-2.7,17.5-4.6c0,0-2.7,2.3-3.9,4.9c0,0-11.7,1.9-19.1,3.6
						C95.7,80.8,97.6,79.7,100.1,78.6z M77.6,92.9c0.5-7.3,6.4-8.6,6.4-8.6c8.2-1.7,19.7-3.8,19.7-3.8c-2.6,1.4-3.2,4.9-3.2,4.9
						c-0.3-1-0.2-1.9-0.2-1.9C89.8,85.3,82.9,87,82.9,87c5-1.6,13.4-3.5,13.4-3.5C86,85,82.5,86.4,82.5,86.4
						c-3.5,2.1-2.3,8.2-2.3,8.2c-2.4,5.2-3,10.8-3,10.8L77.6,92.9z M75.8,174.6c-0.3-0.6-0.5-1.4-0.6-2.1c-0.1-0.7-0.1-1.4-0.1-2.1
						l0,0c0.1-4.5,0.1-8.9,0.1-13.3c0.1-4.5,0.1-8.9,0.3-13.3c0.1-4.5,0.3-8.9,0.5-13.3c0.2-4.5,0.4-8.9,0.6-13.3
						c0.1,4.5,0.1,8.9,0,13.3c0,4.5-0.1,8.9-0.2,13.3c-0.1,4.5-0.3,8.9-0.4,13.3c-0.1,4.5-0.3,8.9-0.5,13.3l0,0l0,0
						c-0.1,0.6-0.1,1.4-0.1,2.1c0.1,0.7,0.2,1.4,0.5,2c0.5,1.3,1.4,2.5,2.5,3.2C77.4,177,76.4,175.9,75.8,174.6z M78.5,174.8
						c0.6,0.2,1.1,0.5,1.6,0.6c0.6,0.1,1.1,0.3,1.7,0.4c0.6,0.1,1.1,0.3,1.7,0.3l1.7,0.3c2.3,0.3,4.6,0.5,6.9,0.6l6.9,0.5l3.4,0.2
						l3.5,0.3c-1.2,0.1-2.3,0.2-3.5,0.3l-3.5,0.1c-2.3,0-4.7-0.1-6.9-0.2c-2.3-0.2-4.6-0.5-6.9-0.9
						C82.8,176.7,80.4,176.1,78.5,174.8z M115.2,180.8c-3.8-0.1-7.6-0.2-11.5-0.3c-3.8-0.2-7.6-0.5-11.5-0.8
						c-1.9-0.2-3.8-0.4-5.7-0.7c-1-0.1-1.9-0.3-2.9-0.5c-0.9-0.2-1.9-0.5-2.7-0.9c0.9,0.4,1.8,0.5,2.8,0.6c1,0.1,1.9,0.2,2.9,0.3
						c1.9,0.2,3.8,0.3,5.7,0.4c3.8,0.2,7.6,0.5,11.4,0.6l11.4,0.5l5.7,0.3l5.7,0.4C122.8,180.8,119,180.8,115.2,180.8z M132.4,206.5
						c1.6,0.2,3.2,0.5,4.9,1.1c-1.7,0.2-3.3,0.1-5-0.1c-1.6-0.2-3.2-0.5-4.9-1.1C129.1,206.2,130.7,206.3,132.4,206.5z M134,198.6
						c1.6,0.2,3.2,0.5,4.9,1.1c-1.7,0.2-3.3,0.1-5-0.1c-1.6-0.2-3.2-0.5-4.9-1.1C130.7,198.2,132.3,198.4,134,198.6z M129.3,196.8
						c1.7-0.2,3.3-0.1,5,0.1c1.6,0.2,3.2,0.5,4.9,1.1c-1.7,0.2-3.3,0.1-5-0.1C132.5,197.7,130.9,197.5,129.3,196.8z M133.6,200.2
						c1.6,0.2,3.2,0.5,4.9,1.1c-1.7,0.2-3.3,0.1-5-0.1c-1.6-0.2-3.2-0.5-4.9-1.1C130.3,199.8,132,200,133.6,200.2z M133.3,201.7
						c1.6,0.2,3.2,0.5,4.9,1.1c-1.7,0.2-3.3,0.1-5-0.1c-1.6-0.2-3.2-0.5-4.9-1.1C130,201.4,131.7,201.5,133.3,201.7z M133,203.3
						c1.6,0.2,3.2,0.5,4.9,1.1c-1.7,0.2-3.3,0.1-5-0.1c-1.6-0.2-3.2-0.5-4.9-1.1C129.8,203,131.4,203.2,133,203.3z M132.7,204.9
						c1.6,0.2,3.2,0.5,4.9,1.1c-1.7,0.2-3.3,0.1-5-0.1c-1.6-0.2-3.2-0.5-4.9-1.1C129.4,204.6,131.1,204.7,132.7,204.9z M132.1,208.1
						c1.6,0.2,3.2,0.5,4.9,1.1c-1.7,0.2-3.3,0.1-5-0.1c-1.6-0.2-3.2-0.5-4.9-1.1C128.8,207.8,130.5,207.9,132.1,208.1z M131.8,209.7
						c1.6,0.2,3.2,0.5,4.9,1.1c-1.7,0.2-3.3,0.1-5-0.1c-1.6-0.2-3.2-0.5-4.9-1.1C128.5,209.4,130.1,209.5,131.8,209.7z M126,214.5
						l1,0.3l-7,25.7l-1-0.3L126,214.5z M107.8,322.1l-1-0.3l23.2-91.9l1,0.3L107.8,322.1z M109.3,304.6l-2.9-0.8l23.1-90.1l2.9,0.8
						L109.3,304.6z M131.3,212.3c-1.6-0.2-3.2-0.5-4.9-1.1c1.7-0.2,3.3-0.1,5,0.1c1.6,0.2,3.2,0.5,4.9,1.1
						C134.6,212.6,132.9,212.5,131.3,212.3z M135.8,306.7l-1-0.1l1-27.6l1,0.1L135.8,306.7z M137.7,252.7l-1-0.1l1.2-21.4l1,0.1
						L137.7,252.7z M139,362.1l-1-0.1l2-50.1l1,0.1L139,362.1z M138.7,292l3.8-93.4l4,0.1l-3.8,93.4L138.7,292z M144.9,303.8l-1-0.1
						l4.2-102.6l1,0.1L144.9,303.8z M185.4,311.9l-22.9-96.2l1-0.3l22.9,96.2L185.4,311.9z M188.8,307.3l-1.9,0.5l-24.7-103.9
						l1.9-0.5L188.8,307.3z M167.2,195c-3.6,0.3-7.1,0.5-10.7,0.6c-3.6,0.1-7.1,0.1-10.7,0c-3.6-0.1-7.1-0.3-10.7-0.6
						c-3.6-0.3-7.1-0.6-10.6-1.2c1.7,0.1,3.6,0.2,5.3,0.2c1.7,0.1,3.6,0.2,5.3,0.2c3.6,0.1,7.1,0.3,10.6,0.3l10.6,0.3L167.2,195z
						 M161.8,191.9c0,0.3-7.2,0.5-16.1,0.3c-8.9-0.2-16.1-0.5-16.1-0.8s7.2-0.5,16.1-0.3C154.6,191.2,161.8,191.6,161.8,191.9z
						 M140.6,188.4c0,0,5.7-1.9,0.8-4.1c0,0,5.6,0.4,13.2,0.5C152.8,190,145.5,190.5,140.6,188.4z M180.8,182.8l-7.5-0.1
						c-5-0.1-10-0.1-15-0.3c-5-0.1-10-0.3-15-0.5c-5-0.2-10-0.4-15-0.7c5-0.1,10-0.1,15,0c5,0.1,10,0.1,15,0.3c5,0.1,10,0.3,15,0.5
						l7.5,0.3c2.5,0.1,5,0.3,7.5,0.4C185.7,182.8,183.2,182.8,180.8,182.8z M192.4,187c-1.6-3.2-2.9-6.7-3.8-10.1
						c-0.8-3.5-1.4-7.1-1.6-10.6c-0.1-1.8-0.1-3.6-0.1-5.4c0.1-1.8,0.3-3.6,0.5-5.3c0.3,1.7,0.3,3.6,0.5,5.3l0.3,2.7
						c0.1,0.9,0.2,1.7,0.3,2.6c0.3,1.7,0.5,3.5,0.8,5.2c0.2,0.8,0.3,1.7,0.5,2.6l0.6,2.5c0.8,3.4,1.9,6.7,3.2,10
						c1.4,3.2,2.9,6.4,4.9,9.4C196,193.3,194.1,190.2,192.4,187z M262.9,164.7c-1.7,25.5-18.9,44.6-38.4,42.8
						c-19.4-1.9-33.8-24-32.1-49.4s18.9-44.6,38.4-42.8C250.3,117,264.6,139.2,262.9,164.7z"/>
				</g>
			</g>
			<g>
				<path class="st1" d="M119.3,178.7c0.5,0,0.8-0.3,0.8-0.6c0-0.4-0.3-0.6-0.8-0.6s-0.8,0.3-0.8,0.6
					C118.5,178.3,118.8,178.7,119.3,178.7z"/>
			</g>
			<g>
				<path class="st1" d="M120.9,151.4c0-0.4-0.3-0.6-0.8-0.6s-0.8,0.3-0.8,0.6s0.3,0.6,0.8,0.6S120.9,151.8,120.9,151.4z"/>
			</g>
			<g>
				<path class="st1" d="M114.7,144.4c-0.5,0-0.8,0.3-0.8,0.6c0,0.4,0.3,0.6,0.8,0.6c0.5,0,0.8-0.3,0.8-0.6S115.1,144.4,114.7,144.4
					z"/>
			</g>
			<g>
				<path class="st1" d="M124.7,137.3c0.5,0,0.8-0.3,0.8-0.6s-0.3-0.6-0.8-0.6c-0.5,0-0.8,0.3-0.8,0.6S124.3,137.3,124.7,137.3z"/>
			</g>
			<g>
				<path class="st1" d="M139.3,147.6c0,0.4,0.3,0.6,0.8,0.6s0.8-0.3,0.8-0.6s-0.3-0.6-0.8-0.6S139.3,147.2,139.3,147.6z"/>
			</g>
			<g>
				<path class="st1" d="M170.2,153.8c0-0.4-0.3-0.6-0.8-0.6s-0.8,0.3-0.8,0.6s0.3,0.6,0.8,0.6S170.2,154.2,170.2,153.8z"/>
			</g>
			<g>
				<path class="st1" d="M165.9,144.8c0-0.6-0.5-1-1-1s-1,0.5-1,1c0,0.6,0.5,1,1,1S165.9,145.4,165.9,144.8z"/>
			</g>
			<g>
				<path class="st1" d="M79.9,157.5c0.2-3.2,0.3-6.4,0.4-9.5c0.1-3.2,0.1-6.4,0.1-9.5v-4.7c-0.1-1.6-0.1-3.2-0.1-4.7
					c-0.1,1.6-0.3,3.2-0.4,4.7l-0.3,4.7c-0.2,3.2-0.3,6.4-0.4,9.5c-0.1,3.2-0.1,6.4-0.1,9.5s0,6.4,0.1,9.5
					C79.6,163.8,79.8,160.6,79.9,157.5z"/>
			</g>
			<g>
				<path class="st1" d="M81.8,157.5c0.2-3.2,0.3-6.4,0.4-9.5c0.1-3.2,0.1-6.4,0.1-9.5v-4.7c-0.1-1.6-0.1-3.2-0.1-4.7
					c-0.1,1.6-0.3,3.2-0.4,4.7l-0.3,4.7c-0.2,3.2-0.3,6.4-0.4,9.5c-0.1,3.2-0.1,6.4-0.1,9.5s0,6.4,0.1,9.5
					C81.5,163.8,81.7,160.6,81.8,157.5z"/>
			</g>
			<g>
				<path class="st1" d="M83.7,157.5c0.2-3.2,0.3-6.4,0.4-9.5c0.1-3.2,0.1-6.4,0.1-9.5v-4.7c-0.1-1.6-0.1-3.2-0.1-4.7
					c-0.1,1.6-0.3,3.2-0.4,4.7l-0.3,4.7c-0.2,3.2-0.3,6.4-0.4,9.5c-0.1,3.2-0.1,6.4-0.1,9.5s0,6.4,0.1,9.5
					C83.4,163.8,83.5,160.6,83.7,157.5z"/>
			</g>
			<g>
				<path class="st1" d="M85.6,157.5c0.2-3.2,0.3-6.4,0.4-9.5c0.1-3.2,0.1-6.4,0.1-9.5v-4.7c-0.1-1.6-0.1-3.2-0.1-4.7
					c-0.1,1.6-0.3,3.2-0.4,4.7l-0.3,4.7c-0.2,3.2-0.3,6.4-0.4,9.5c-0.1,3.2-0.1,6.4-0.1,9.5s0,6.4,0.1,9.5
					C85.2,163.8,85.4,160.6,85.6,157.5z"/>
			</g>
			<g>
				<path class="st1" d="M87.4,157.5c0.2-3.2,0.3-6.4,0.4-9.5c0.1-3.2,0.1-6.4,0.1-9.5v-4.7c-0.1-1.6-0.1-3.2-0.1-4.7
					c-0.1,1.6-0.3,3.2-0.4,4.7l-0.3,4.7c-0.2,3.2-0.3,6.4-0.4,9.5c-0.1,3.2-0.1,6.4-0.1,9.5s0,6.4,0.1,9.5
					C87.1,163.8,87.3,160.6,87.4,157.5z"/>
			</g>
			<g>
				<path class="st1" d="M89.3,157.5c0.2-3.2,0.3-6.4,0.4-9.5c0.1-3.2,0.1-6.4,0.1-9.5v-4.7c-0.1-1.6-0.1-3.2-0.1-4.7
					c-0.1,1.6-0.3,3.2-0.4,4.7l-0.3,4.7c-0.2,3.2-0.3,6.4-0.4,9.5c-0.1,3.2-0.1,6.4-0.1,9.5s0,6.4,0.1,9.5
					C88.9,163.8,89.1,160.6,89.3,157.5z"/>
			</g>
			<g>
				<path class="st1" d="M91.1,157.5c0.2-3.2,0.3-6.4,0.4-9.5c0.1-3.2,0.1-6.4,0.1-9.5v-4.7c-0.1-1.6-0.1-3.2-0.1-4.7
					c-0.1,1.6-0.3,3.2-0.4,4.7l-0.3,4.7c-0.2,3.2-0.3,6.4-0.4,9.5c-0.1,3.2-0.1,6.4-0.1,9.5s0,6.4,0.1,9.5
					C90.8,163.8,91,160.6,91.1,157.5z"/>
			</g>
			<g>
				<path class="st1" d="M130.2,97.5l5.4-0.4c1.9-0.2,3.9-0.3,5.8-0.5c-1.9,0-3.9,0-5.8,0l-5.8,0.1h-0.4v0.4
					c0.2,2.9,0.4,5.8,0.5,8.7c0.1,2.9,0.2,5.8,0.3,8.7c0,2.9,0.1,5.8,0,8.7c0,2.9-0.1,5.8-0.2,8.7c0.3-2.9,0.6-5.8,0.8-8.7
					c0.1-1.4,0.1-2.9,0.2-4.3c0-1.4,0.1-2.9,0.1-4.3c0-2.9,0-5.8-0.2-8.7C130.7,103.1,130.5,100.3,130.2,97.5z"/>
			</g>
			<g>
				<g>
					<path class="st1" d="M138.9,111.5c-2.4,0-4.4,2.3-4.4,5.1s1.9,5.1,4.4,5.1c2.4,0,4.4-2.3,4.4-5.1S141.3,111.5,138.9,111.5z
						 M138.9,120.5c-1.9,0-3.4-1.8-3.4-4c0-2.2,1.6-4,3.4-4c1.9,0,3.4,1.8,3.4,4C142.3,118.7,140.8,120.5,138.9,120.5z"/>
				</g>
			</g>
			<g>
				<path class="st1" d="M138.8,113.4c-1.3,0-2.4,1.4-2.4,3s1.1,3,2.4,3s2.4-1.4,2.4-3C141.2,114.7,140.2,113.4,138.8,113.4z"/>
			</g>
			<g>
				<ellipse class="st1" cx="145.8" cy="108.4" rx="1.6" ry="1.9"/>
			</g>
			<g>
				<path class="st1" d="M163.1,110.2c-0.5-1.4-1.2-2.7-2.2-3.8c0.6,1.4,1,2.7,1.4,4.1s0.7,2.8,0.9,4.1c0.2,1.4,0.4,2.9,0.5,4.3
					c0.1,1.4,0.1,2.9,0.1,4.3c0.2-0.7,0.3-1.4,0.5-2.1c0.1-0.7,0.2-1.4,0.2-2.2c0.1-1.5-0.1-2.9-0.3-4.4
					C164,113,163.6,111.6,163.1,110.2z"/>
			</g>
			<g>
				<path class="st1" d="M194.9,152c-2.1,22.6,5.6,36,5.6,36c-3-11.3,0.3-19.1,0.3-19.1C195.9,162.1,194.9,152,194.9,152z"/>
			</g>
			<g>
				<path class="st1" d="M212.1,124.6c3.3-2.5,7.1-4.4,11.1-5.5c4-1,8.3-1.5,12.5-0.9c-4.1-1.4-8.6-1.4-12.9-0.6
					c-1.1,0.2-2.1,0.5-3.2,0.8c-1,0.4-2.1,0.8-3.1,1.2c-1,0.5-1.9,1-2.9,1.6c-0.9,0.6-1.8,1.2-2.7,1.9c-3.5,2.7-6.4,6.2-8.5,9.9
					c-2.3,3.7-3.6,7.9-4.7,12c1.9-3.9,3.6-7.8,6-11.2C206,130.3,208.7,127,212.1,124.6z"/>
			</g>
			<g>
				<path class="st1" d="M223.8,204.1c-3.7-0.4-7.3-1.6-10.4-3.5c-3.2-1.9-6-4.5-8.6-7.4c1.9,3.4,4.5,6.4,7.8,8.7s7.1,3.7,11.1,4.1
					c4,0.5,8-0.1,11.7-1.4c3.7-1.4,7.1-3.5,9.8-6.3c-3.2,2.1-6.7,3.8-10.3,4.8C231.2,204.2,227.5,204.5,223.8,204.1z"/>
			</g>
			<g>
				<path class="st1" d="M224.7,162.7c0-4.5,2.7-8.4,6.4-9.2c-0.5-0.1-1-0.2-1.5-0.2c-4.3,0-7.8,4.1-7.8,9.3c0,5.2,3.5,9.3,7.8,9.3
					c0.5,0,1-0.1,1.5-0.2C227.4,171.1,224.7,167.3,224.7,162.7z"/>
			</g>
			<g>
				<g>
					<path class="st1" d="M231.8,154.3c-3.5,0-6.4,3.8-6.4,8.4c0,4.6,2.9,8.4,6.4,8.4s6.4-3.8,6.4-8.4
						C238.1,158,235.3,154.3,231.8,154.3z M231.8,170c-2.9,0-5.3-3.3-5.3-7.3c0-4.1,2.4-7.3,5.3-7.3s5.3,3.3,5.3,7.3
						C237.1,166.7,234.7,170,231.8,170z"/>
				</g>
			</g>
			<g>
				<path class="st1" d="M228.6,166.5c-0.6-1.2-1-2.5-1-3.9c0-1.4,0.3-2.7,1-3.9s1.7-2.1,3.2-2.3c-0.7-0.1-1.4,0.1-2.1,0.5
					c-0.6,0.4-1.2,0.9-1.6,1.5c-0.8,1.2-1.2,2.7-1.2,4.2s0.4,3,1.2,4.2c0.5,0.6,1,1.2,1.6,1.5s1.4,0.5,2.1,0.5
					C230.4,168.6,229.3,167.6,228.6,166.5z"/>
			</g>
			<g>
				<path class="st1" d="M232.1,159c-1.2,0-2.2,1.6-2.2,3.4c0,1.9,1,3.4,2.2,3.4s2.2-1.6,2.2-3.4C234.3,160.5,233.3,159,232.1,159z"
					/>
			</g>
			<g>
				<g>
					<path class="st1" d="M226.8,123.1c-5.1,0-9.2,4.9-9.2,11c0,6.1,4.1,11,9.2,11s9.2-4.9,9.2-11
						C236,128.1,231.8,123.1,226.8,123.1z M224.6,143.9c-3.4-1.2-6-5.1-6-9.7c0-5.4,3.5-9.8,7.8-10
						C228.5,126.6,233,138.6,224.6,143.9z M233.6,129.4c0.6,1.3,0.9,2.7,1,4.2c0.1,1.4-0.1,2.9-0.5,4.3c-0.5,1.4-1.3,2.7-2.4,3.7
						c-1,1-2.5,1.6-3.8,2c1.2-0.8,2.4-1.5,3.3-2.6c0.9-1,1.6-2.2,2-3.5s0.6-2.7,0.6-4C234,132.3,233.9,130.8,233.6,129.4z"/>
				</g>
			</g>
			<g>
				<g>
					<path class="st1" d="M199,150.7c0,6.1,4.1,11,9.2,11s9.2-4.9,9.2-11c0-6.1-4.1-11-9.2-11S199,144.6,199,150.7z M212.7,157.7
						c0.9-1,1.6-2.2,2-3.5c0.4-1.3,0.6-2.7,0.6-4c0-1.4-0.1-2.8-0.3-4.2c0.6,1.3,0.9,2.7,1,4.2c0.1,1.4-0.1,2.9-0.5,4.3
						c-0.5,1.4-1.3,2.7-2.4,3.7c-1,1-2.5,1.6-3.8,2C210.6,159.5,211.9,158.8,212.7,157.7z M207.8,140.7c2.1,2.5,6.6,14.4-1.9,19.7
						c-3.4-1.2-6-5.1-6-9.7C199.9,145.4,203.4,140.9,207.8,140.7z"/>
				</g>
			</g>
			<g>
				<g>
					<path class="st1" d="M211.1,190.2c5.1,0,9.2-4.9,9.2-11s-4.1-11-9.2-11c-5.1,0-9.2,4.9-9.2,11
						C201.8,185.2,206,190.2,211.1,190.2z M215.6,186.1c0.9-1,1.6-2.2,2-3.5s0.6-2.7,0.6-4c0-1.4-0.1-2.8-0.3-4.2
						c0.6,1.3,0.9,2.7,1,4.2c0.1,1.4-0.1,2.9-0.5,4.3c-0.5,1.4-1.3,2.7-2.4,3.7c-1,1-2.5,1.6-3.8,2
						C213.5,187.9,214.7,187.2,215.6,186.1z M210.7,169.1c2.1,2.5,6.6,14.4-1.9,19.7c-3.4-1.2-6-5.1-6-9.7
						C202.9,173.7,206.3,169.3,210.7,169.1z"/>
				</g>
			</g>
			<g>
				<g>
					<path class="st1" d="M221.5,189.9c0,6.1,4.1,11.1,9.2,11.1c5.1,0,9.2-4.9,9.2-11.1c0-6.1-4.1-11-9.2-11
						C225.7,178.8,221.5,183.8,221.5,189.9z M235.2,196.9c0.9-1,1.6-2.2,2-3.5s0.6-2.7,0.6-4c0-1.4-0.1-2.8-0.3-4.2
						c0.6,1.3,0.9,2.7,1,4.2c0.1,1.4,0,2.9-0.5,4.3c-0.5,1.4-1.3,2.7-2.4,3.7c-1,1-2.5,1.6-3.8,2
						C233.2,198.6,234.4,197.9,235.2,196.9z M228.5,199.5c-3.4-1.2-6-5.1-6-9.7c0-5.4,3.5-9.8,7.8-10
						C232.5,182.4,237,194.3,228.5,199.5z"/>
				</g>
			</g>
			<g>
				<g>
					<path class="st1" d="M248.9,161.9c-4.8,0-8.7,4.9-8.7,11s3.9,11,8.7,11c4.8,0,8.7-4.9,8.7-11
						C257.5,166.8,253.7,161.9,248.9,161.9z M246.7,182.6c-3.2-1.2-5.6-5.1-5.6-9.7c0-5.4,3.3-9.8,7.4-10
						C250.5,165.4,254.8,177.4,246.7,182.6z M255.3,168.2c0.6,1.3,0.8,2.7,1,4.1c0.1,1.4,0,2.9-0.4,4.3c-0.4,1.4-1.2,2.7-2.2,3.8
						c-1,1.1-2.4,1.7-3.7,2.1c0.6-0.5,1.2-0.7,1.7-1.2l0.8-0.6l0.6-0.8c0.8-1,1.5-2.2,1.8-3.5c0.4-1.3,0.5-2.7,0.6-4
						C255.6,170.9,255.5,169.6,255.3,168.2z"/>
				</g>
			</g>
			<g>
				<g>
					<path class="st1" d="M238.1,145.5c0,6.1,3.9,11,8.7,11c4.8,0,8.7-4.9,8.7-11c0-6.1-3.9-11-8.7-11S238.1,139.4,238.1,145.5z
						 M250.5,153.2l0.6-0.8c0.8-1,1.5-2.2,1.8-3.5c0.4-1.3,0.5-2.7,0.6-4c0-1.4,0-2.8-0.2-4.1c0.6,1.3,0.8,2.7,1,4.1
						c0.1,1.4,0,2.9-0.4,4.3c-0.4,1.4-1.2,2.7-2.2,3.8c-1,1.1-2.4,1.7-3.7,2.1c0.6-0.5,1.2-0.7,1.7-1.2L250.5,153.2z M244.7,155.2
						c-3.2-1.2-5.6-5.1-5.6-9.7c0-5.4,3.3-9.8,7.4-10C248.5,138,252.8,150,244.7,155.2z"/>
				</g>
			</g>
			<g>
				<g>
					<path class="st1" d="M229.1,147.7c-6.1,0-11,6.5-11,14.6c0,8,4.9,14.6,11,14.6c6.1,0,11-6.5,11-14.6
						C240.1,154.2,235.2,147.7,229.1,147.7z M229.1,175.8c-5.5,0-10-6.1-10-13.6s4.5-13.6,10-13.6c5.5,0,10,6.1,10,13.6
						C239.1,169.7,234.6,175.8,229.1,175.8z"/>
				</g>
			</g>
			<g>
				<path class="st1" d="M211.2,127.7c1-1,1.9-2.1,3-3c-1.3,0.6-2.5,1.5-3.6,2.5c-1.1,1-2.1,2-3,3.1c-0.9,1.1-1.8,2.3-2.5,3.5
					c-0.8,1.2-1.4,2.5-1.9,3.9l2.6-3.4c0.8-1.2,1.7-2.2,2.7-3.3C209.3,129.7,210.2,128.7,211.2,127.7z"/>
			</g>
			<g>
				<path class="st1" d="M180,58.3c-5-6.8-6-17-6-17c-2.1,22.6,5.6,36,5.6,36C176.7,66.1,180,58.3,180,58.3z"/>
			</g>
			<g>
				<path class="st1" d="M191.1,13.9c3.3-2.5,7.1-4.4,11.1-5.5c4-1,8.3-1.5,12.5-0.9c-4.1-1.4-8.6-1.4-12.9-0.6
					c-1.1,0.2-2.1,0.5-3.2,0.8c-1,0.4-2.1,0.8-3.1,1.2c-1,0.5-1.9,1-2.9,1.6c-0.9,0.6-1.8,1.2-2.7,1.9c-3.5,2.7-6.4,6.2-8.5,9.9
					c-2.3,3.7-3.6,7.9-4.7,12c1.9-3.9,3.6-7.8,6-11.2C185.1,19.6,187.8,16.4,191.1,13.9z"/>
			</g>
			<g>
				<path class="st1" d="M202.9,93.4c-3.7-0.4-7.3-1.6-10.4-3.5c-3.2-1.9-6-4.5-8.6-7.4c1.9,3.4,4.5,6.4,7.8,8.7s7.1,3.7,11.1,4.1
					c4,0.5,8-0.1,11.7-1.4c3.7-1.4,7.1-3.5,9.8-6.3c-3.2,2.1-6.7,3.8-10.3,4.8C210.3,93.5,206.5,93.9,202.9,93.4z"/>
			</g>
			<g>
				<path class="st1" d="M200.8,52.1c0,5.2,3.5,9.3,7.8,9.3c0.5,0,1-0.1,1.5-0.2c-3.6-0.8-6.4-4.6-6.4-9.2c0-4.5,2.7-8.4,6.4-9.2
					c-0.5-0.1-1-0.2-1.5-0.2C204.3,42.8,200.8,46.9,200.8,52.1z"/>
			</g>
			<g>
				<g>
					<path class="st1" d="M204.5,52c0,4.6,2.9,8.4,6.4,8.4c3.5,0,6.4-3.8,6.4-8.4s-2.9-8.4-6.4-8.4C207.4,43.6,204.5,47.4,204.5,52z
						 M210.9,44.6c2.9,0,5.3,3.3,5.3,7.3s-2.4,7.3-5.3,7.3c-2.9,0-5.3-3.3-5.3-7.3S208,44.6,210.9,44.6z"/>
				</g>
			</g>
			<g>
				<path class="st1" d="M207.2,56.2c0.5,0.6,1,1.2,1.6,1.5s1.4,0.5,2.1,0.5c-1.4-0.2-2.5-1.2-3.2-2.3c-0.6-1.2-1-2.5-1-3.9
					c0-1.4,0.3-2.7,1-3.9s1.7-2.1,3.2-2.3c-0.7-0.1-1.4,0.1-2.1,0.5c-0.6,0.4-1.2,0.9-1.6,1.5c-0.8,1.2-1.2,2.7-1.2,4.2
					C206,53.5,206.3,55,207.2,56.2z"/>
			</g>
			<g>
				<path class="st1" d="M209,51.8c0,1.9,1,3.4,2.2,3.4s2.2-1.6,2.2-3.4s-1-3.4-2.2-3.4S209,49.9,209,51.8z"/>
			</g>
			<g>
				<g>
					<path class="st1" d="M205.8,12.5c-5.1,0-9.2,4.9-9.2,11s4.1,11,9.2,11c5.1,0,9.2-4.9,9.2-11C215,17.4,210.9,12.5,205.8,12.5z
						 M203.6,33.2c-3.4-1.2-6-5.1-6-9.7c0-5.4,3.5-9.8,7.8-10C207.6,16,212.1,27.9,203.6,33.2z M212.7,18.8c0.6,1.3,0.9,2.7,1,4.2
						c0.1,1.4-0.1,2.9-0.5,4.3c-0.5,1.4-1.3,2.7-2.4,3.7c-1,1-2.5,1.6-3.8,2c1.2-0.8,2.4-1.5,3.3-2.6c0.9-1,1.6-2.2,2-3.5
						c0.4-1.3,0.6-2.7,0.6-4C213,21.6,213,20.2,212.7,18.8z"/>
				</g>
			</g>
			<g>
				<g>
					<path class="st1" d="M178,40.1c0,6.1,4.1,11,9.2,11c5.1,0,9.2-4.9,9.2-11s-4.1-11-9.2-11C182.2,29,178,34,178,40.1z
						 M191.8,47.1c0.9-1,1.6-2.2,2-3.5c0.4-1.3,0.6-2.7,0.6-4c0-1.4-0.1-2.8-0.3-4.2c0.6,1.3,0.9,2.7,1,4.2c0.1,1.4,0,2.9-0.5,4.3
						c-0.5,1.4-1.3,2.7-2.4,3.7c-1,1-2.5,1.6-3.8,2C189.7,48.9,190.9,48.2,191.8,47.1z M186.9,30.1c2.1,2.5,6.6,14.4-1.9,19.7
						c-3.4-1.2-6-5.1-6-9.7C179,34.7,182.5,30.3,186.9,30.1z"/>
				</g>
			</g>
			<g>
				<g>
					<path class="st1" d="M190.2,79.5c5.1,0,9.2-4.9,9.2-11s-4.1-11-9.2-11s-9.2,4.9-9.2,11C180.9,74.6,185,79.5,190.2,79.5z
						 M194.6,75.5c0.9-1,1.6-2.2,2-3.5s0.6-2.7,0.6-4c0-1.4-0.1-2.8-0.3-4.2c0.6,1.3,0.9,2.7,1,4.2c0.1,1.4-0.1,2.9-0.5,4.3
						c-0.5,1.4-1.3,2.7-2.4,3.7c-1,1-2.5,1.6-3.8,2C192.5,77.3,193.8,76.5,194.6,75.5z M189.8,58.5c2.1,2.5,6.6,14.4-1.9,19.7
						c-3.4-1.2-6-5.1-6-9.7C181.9,63.1,185.4,58.7,189.8,58.5z"/>
				</g>
			</g>
			<g>
				<g>
					<path class="st1" d="M209.8,90.3c5.1,0,9.2-4.9,9.2-11s-4.1-11-9.2-11c-5.1,0-9.2,4.9-9.2,11C200.6,85.3,204.7,90.3,209.8,90.3
						z M214.3,86.2c0.9-1,1.6-2.2,2-3.5c0.4-1.3,0.6-2.7,0.6-4c0-1.4-0.1-2.8-0.3-4.2c0.6,1.3,0.9,2.7,1,4.2
						c0.1,1.4-0.1,2.9-0.5,4.3c-0.5,1.4-1.3,2.7-2.4,3.7c-1,1-2.5,1.6-3.8,2C212.2,88,213.5,87.2,214.3,86.2z M209.5,69.2
						c2.1,2.5,6.6,14.4-1.9,19.7c-3.4-1.2-6-5.1-6-9.7C201.6,73.8,205.1,69.4,209.5,69.2z"/>
				</g>
			</g>
			<g>
				<g>
					<path class="st1" d="M236.6,62.3c0-6.1-3.9-11-8.7-11c-4.8,0-8.7,4.9-8.7,11s3.9,11,8.7,11S236.6,68.4,236.6,62.3z M231.6,69.9
						l0.6-0.8c0.8-1,1.5-2.2,1.8-3.5c0.4-1.3,0.5-2.7,0.6-4c0-1.4,0-2.8-0.2-4.1c0.6,1.3,0.8,2.7,1,4.1c0.1,1.4,0,2.9-0.4,4.3
						c-0.4,1.4-1.2,2.7-2.2,3.8c-1,1.1-2.4,1.7-3.7,2.1c0.6-0.5,1.2-0.7,1.7-1.2L231.6,69.9z M225.8,71.9c-3.2-1.2-5.6-5.1-5.6-9.7
						c0-5.4,3.3-9.8,7.4-10C229.5,54.7,233.8,66.7,225.8,71.9z"/>
				</g>
			</g>
			<g>
				<g>
					<path class="st1" d="M225.9,45.9c4.8,0,8.7-4.9,8.7-11s-3.9-11-8.7-11c-4.8,0-8.7,4.9-8.7,11S221.1,45.9,225.9,45.9z
						 M229.5,42.5l0.6-0.8c0.8-1,1.5-2.2,1.8-3.5c0.4-1.3,0.5-2.7,0.6-4c0-1.4,0-2.8-0.2-4.1c0.6,1.3,0.8,2.7,1,4.1
						c0.1,1.4,0,2.9-0.4,4.3c-0.4,1.4-1.2,2.7-2.2,3.8c-1,1.1-2.4,1.7-3.7,2.1c0.6-0.5,1.2-0.7,1.7-1.2L229.5,42.5z M225.5,24.8
						c1.9,2.5,6.3,14.5-1.7,19.7c-3.2-1.2-5.6-5.1-5.6-9.7C218.1,29.4,221.4,25,225.5,24.8z"/>
				</g>
			</g>
			<g>
				<g>
					<path class="st1" d="M197.1,51.6c0,8,4.9,14.6,11,14.6c6.1,0,11-6.5,11-14.6s-4.9-14.6-11-14.6S197.1,43.6,197.1,51.6z
						 M218.2,51.6c0,7.5-4.5,13.6-10,13.6c-5.5,0-10-6.1-10-13.6s4.5-13.6,10-13.6C213.7,38,218.2,44.1,218.2,51.6z"/>
				</g>
			</g>
			<g>
				<path class="st1" d="M190.3,17c1-1,1.9-2.1,3-3c-1.3,0.6-2.5,1.5-3.6,2.5s-2.1,2-3,3.1c-0.9,1.1-1.8,2.3-2.5,3.5
					c-0.8,1.2-1.4,2.5-1.9,3.9l2.6-3.4c0.8-1.2,1.7-2.2,2.7-3.3C188.3,19.1,189.3,18,190.3,17z"/>
			</g>
			<g>
				<path class="st1" d="M230.8,46.9c6.4-2.1,8.9,1.9,8.9,1.9c-1.9-1-3.1-1.1-3.1-1.1c4.9,5.6,4.1,20.7,4.1,20.7
					c5.4-20.3-2.6-37.6-2.6-37.6C238.4,43.4,230.8,46.9,230.8,46.9z"/>
			</g>
			<g>
				<path class="st1" d="M233.6,76.9c-0.9,1.4-1.9,2.7-2.9,4s-2.1,2.5-3.2,3.8c0.6-0.5,1.3-1,1.9-1.6c0.6-0.6,1.2-1.1,1.8-1.7
					c1.2-1.2,2.2-2.5,3.1-3.9c0.9-1.4,1.7-2.9,2.4-4.4s1.2-3.1,1.4-4.8c-0.6,1.6-1.3,3-2.1,4.5C235.3,74.2,234.5,75.6,233.6,76.9z"
					/>
			</g>
			<g>
				<path class="st1" d="M228.4,17.4c1.5,1.5,2.9,3.1,4.2,4.8c1.3,1.7,2.6,3.4,3.7,5.2c-0.4-1-0.8-2-1.4-2.9
					c-0.5-0.9-1.1-1.9-1.7-2.8c-1.2-1.8-2.6-3.5-4.1-5.1c-1.6-1.6-3.1-3-4.9-4.3c-0.8-0.6-1.8-1.2-2.7-1.8c-0.9-0.5-1.9-1-2.9-1.5
					c1.7,1.3,3.5,2.5,5.1,4C225.4,14.4,227,15.8,228.4,17.4z"/>
			</g>
		</g>
	</g>
	<g class="st0">
		<polygon class="st1" points="254.5,291.6 252.2,281.5 250.7,281.9 253.1,291.9 		"/>
		<polygon class="st1" points="248.9,282.3 247.4,282.6 249.8,292.7 251.3,292.4 		"/>
		<polygon class="st1" points="256.1,291.2 253.8,281.1 252.3,281.5 254.7,291.5 		"/>
		<polygon class="st1" points="250.5,281.9 249.1,282.2 251.4,292.3 252.9,292 		"/>
		<polygon class="st1" points="261,290.1 258.6,280 257.2,280.3 259.5,290.4 		"/>
		<path class="st1" d="M248.3,279.6c-0.6-2.9-1.3-5.6-1.9-8.5l-1.6,0.4c0.7,2.8,1.4,5.6,2,8.4l0.4,1.6l1.4-0.3L248.3,279.6z"/>
		<polygon class="st1" points="259.4,290.4 257,280.4 255.6,280.7 257.9,290.8 		"/>
		<polygon class="st1" points="257.7,290.8 255.4,280.8 254,281.1 256.3,291.1 		"/>
		<path class="st1" d="M250.5,280.8l1.4-0.3l-0.4-1.6c-0.6-2.9-1.3-5.6-1.9-8.5l-1.6,0.4c0.7,2.8,1.4,5.6,2,8.4L250.5,280.8z"/>
		<path class="st1" d="M258.6,278.9l1.4-0.3l-0.4-1.6c-0.6-2.9-1.3-5.6-1.9-8.5l-1.6,0.4c0.7,2.8,1.4,5.6,2,8.4L258.6,278.9z"/>
		<path class="st1" d="M257,279.3l1.4-0.3l-0.4-1.6c-0.6-2.9-1.3-5.6-1.9-8.5l-1.6,0.4c0.7,2.8,1.4,5.6,2,8.4L257,279.3z"/>
		<path class="st1" d="M260.2,278.5l1.4-0.3l-0.4-1.6c-0.6-2.9-1.3-5.6-1.9-8.5l-1.6,0.4c0.7,2.8,1.4,5.6,2,8.4L260.2,278.5z"/>
		<path class="st1" d="M248.9,281.2l1.4-0.3l-0.4-1.6c-0.6-2.9-1.3-5.6-1.9-8.5l-1.6,0.4c0.7,2.8,1.4,5.6,2,8.4L248.9,281.2z"/>
		<polygon class="st1" points="262.6,289.7 260.3,279.6 258.8,279.9 261.2,290 		"/>
		<path class="st1" d="M253.7,280.1l1.4-0.3l-0.4-1.6c-0.6-2.9-1.3-5.6-1.9-8.5l-1.6,0.4c0.7,2.8,1.4,5.6,2,8.4L253.7,280.1z"/>
		<path class="st1" d="M252.1,280.5l1.4-0.3l-0.4-1.6c-0.6-2.9-1.3-5.6-1.9-8.5l-1.6,0.4c0.7,2.8,1.4,5.6,2,8.4L252.1,280.5z"/>
		<polygon class="st1" points="260.6,303 259.2,303.3 259.8,306.1 261.4,312.7 262.9,312.4 261.3,305.8 		"/>
		<polygon class="st1" points="257.3,303.7 255.9,304.1 256.6,306.9 258.1,313.5 259.6,313.1 258,306.6 		"/>
		<polygon class="st1" points="262.2,302.6 260.8,302.9 261.4,305.7 263,312.3 264.5,312 262.9,305.4 		"/>
		<polygon class="st1" points="259,303.3 257.5,303.7 258.2,306.5 259.7,313.1 261.2,312.7 259.6,306.2 		"/>
		<polygon class="st1" points="256.4,292.2 254.9,292.6 254.9,292.6 257.3,302.7 258.7,302.4 256.4,292.3 		"/>
		<polygon class="st1" points="259.6,291.5 258.2,291.8 258.2,291.9 260.5,301.9 261.9,301.6 259.6,291.6 		"/>
		<polygon class="st1" points="261.2,291.1 259.8,291.4 259.8,291.5 262.1,301.5 263.6,301.2 261.2,291.2 		"/>
		<polygon class="st1" points="264.7,290.4 267,300.4 268.5,300 266.1,290 266.1,290 264.7,290.3 		"/>
		<polygon class="st1" points="262.9,290.8 261.4,291.1 261.4,291.1 263.8,301.1 265.3,300.8 262.9,290.8 		"/>
		<polygon class="st1" points="267.9,304.2 269.5,310.8 271,310.5 269.4,303.9 268.7,301.1 267.3,301.4 		"/>
		<polygon class="st1" points="263.1,290.8 265.4,300.7 266.9,300.4 264.5,290.4 264.5,290.4 263,290.7 		"/>
		<polygon class="st1" points="265.4,301.8 264,302.2 264.7,305 266.2,311.6 267.7,311.2 266.2,304.6 		"/>
		<polygon class="st1" points="253.1,293 251.7,293.4 251.7,293.4 254,303.5 255.5,303.1 253.1,293.1 		"/>
		<polygon class="st1" points="263.8,302.2 262.4,302.6 263,305.4 264.6,311.9 266.1,311.6 264.5,305 		"/>
		<polygon class="st1" points="267.1,301.5 265.6,301.8 266.3,304.6 267.8,311.2 269.3,310.8 267.8,304.3 		"/>
		<polygon class="st1" points="258,291.9 256.6,292.2 256.6,292.3 258.9,302.3 260.3,302 258,291.9 		"/>
		<polygon class="st1" points="254.8,292.6 253.3,293 253.3,293 255.7,303.1 257.1,302.7 254.8,292.7 		"/>
		<polygon class="st1" points="252.4,303.8 253.8,303.5 251.5,293.5 251.5,293.4 250.1,293.7 250.1,293.8 		"/>
		<polygon class="st1" points="241.1,306.5 242.5,306.1 240.2,296.1 240.1,296.1 238.7,296.4 238.7,296.5 		"/>
		<polygon class="st1" points="255.7,304.1 254.3,304.4 254.9,307.3 256.4,313.9 258,313.5 256.4,307 		"/>
		<polygon class="st1" points="242.7,306.1 244.1,305.8 241.8,295.7 241.7,295.7 240.4,296 240.4,296.1 		"/>
		<polygon class="st1" points="244.3,305.7 245.7,305.4 243.4,295.4 243.3,295.3 242,295.6 242,295.7 		"/>
		<polygon class="st1" points="242.8,307.2 241.3,307.5 242,310.3 243.5,316.9 245,316.5 243.4,310 		"/>
		<polygon class="st1" points="249.2,304.6 250.6,304.2 248.3,294.3 248.2,294.1 246.8,294.5 246.8,294.6 		"/>
		<polygon class="st1" points="247.6,305 249,304.6 246.7,294.6 246.6,294.5 245.2,294.8 245.2,295 		"/>
		<polygon class="st1" points="245.9,305.3 247.4,305 245,295 245,294.9 243.6,295.2 243.6,295.4 		"/>
		<polygon class="st1" points="237.9,308.3 236.5,308.6 237.1,311.5 238.6,318 240.1,317.7 238.6,311.1 		"/>
		<polygon class="st1" points="236.2,307.6 237.6,307.3 235.3,297.3 235.2,297.2 233.9,297.5 233.9,297.6 		"/>
		<polygon class="st1" points="233.6,297.7 233.6,297.6 232.3,297.9 232.3,298 234.6,308 236,307.7 		"/>
		<polygon class="st1" points="237.8,307.2 239.3,306.9 236.9,296.9 236.9,296.9 235.5,297.2 235.5,297.2 		"/>
		<polygon class="st1" points="239.5,307.9 238.1,308.3 238.7,311.1 240.2,317.7 241.7,317.3 240.2,310.7 		"/>
		<polygon class="st1" points="239.5,306.8 240.9,306.5 238.6,296.5 238.5,296.5 237.1,296.8 237.1,296.9 		"/>
		<polygon class="st1" points="241.1,307.5 239.7,307.9 240.4,310.7 241.9,317.3 243.3,316.9 241.8,310.4 		"/>
		<polygon class="st1" points="250.9,305.3 249.4,305.6 250.1,308.4 251.6,315 253.1,314.7 251.5,308.1 		"/>
		<polygon class="st1" points="250.8,304.2 252.2,303.8 249.9,293.9 249.8,293.8 248.5,294.1 248.5,294.2 		"/>
		<polygon class="st1" points="249.2,305.7 247.8,306 248.5,308.8 250,315.4 251.5,315.1 249.9,308.4 		"/>
		<path class="st1" d="M288.9,184.1c-0.6-0.6-1.6-0.7-2.2-0.1l-79.8,69.9c-0.6,0.6-0.7,1.6-0.1,2.2l2.3,2.6
			c-0.1,0.3-0.1,0.6-0.1,0.9l2.1,8.9c0.2,0.8,1,1.4,1.9,1.2l4.2-1l14.5,61.8c0.6,2.9,3.6,4.7,6.5,4l84.4-19.8c2.9-0.6,4.7-3.6,4-6.5
			L312,246.4l4.2-1c0.8-0.2,1.4-1,1.2-1.9l-2.1-8.9c-0.2-0.8-1-1.4-1.9-1.2l-88.3,20.7l69.7-61c0.6-0.6,0.7-1.6,0.1-2.2L288.9,184.1
			z M214.4,249.3l5.7-5l2.6,9.5l-1.6,1.4l-4.7,1.1L214.4,249.3z M211.3,257.3c-0.5-0.6-0.5-1.5,0.1-2c0.6-0.5,1.5-0.5,2,0.1
			c0.4,0.4,0.5,1,0.3,1.5l-0.8,0.2c-0.2,0.1-0.4,0.2-0.6,0.1l-0.8,0.2C211.4,257.4,211.3,257.3,211.3,257.3L211.3,257.3z M213,262.7
			c-0.1-0.5,0.2-1,0.6-1c0.5-0.1,1,0.2,1,0.6c0.1,0.5-0.2,1-0.6,1C213.5,263.5,213.1,263.2,213,262.7z M212.4,262.8
			c0-0.1-0.1-0.2,0-0.3l0.3,0.4c0.6,0.6,1.6,0.7,2.2,0.1l0.2-0.2c-0.1,0.5-0.5,0.8-1,1C213.4,264.1,212.6,263.6,212.4,262.8z
			 M264,257.4c7.3-1.7,14.6-3.4,21.9-5l11-2.4c3.7-0.8,7.3-1.6,11-2.3c-3.6,1-7.3,1.9-10.9,2.9l-10.9,2.7
			c-7.3,1.8-14.6,3.5-21.8,5.2c-7.3,1.7-14.6,3.4-21.9,5l-11,2.4c-3.7,0.8-7.3,1.6-11,2.3c3.6-1,7.3-1.9,10.9-2.9l10.9-2.7
			C249.3,260.9,256.6,259.2,264,257.4z M241.5,260.6c0.1-1.4,0.4-2.8,0.6-4.1c0.3-1.4,0.6-2.7,1.2-4c-0.1,1.4-0.4,2.8-0.6,4.1
			C242.4,257.9,242.1,259.3,241.5,260.6z M257.9,256.7c0.1-1.4,0.4-2.8,0.6-4.1c0.3-1.4,0.6-2.7,1.2-4c-0.1,1.4-0.4,2.8-0.6,4.1
			C258.7,254.1,258.4,255.4,257.9,256.7z M311.8,266.4l0.3,1l-48.4,11.3l2.4,10.1l48.4-11.3l0.3,1l-48.4,11.3v0.1l2.3,10l48.4-11.3
			l0.3,1L268.9,301l0.6,2.9l1.5,6.6l48.5-11.3l0.3,1l-16.8,4l2.1,8.9l-1,0.3l-2.1-8.9l-16.9,4l2.1,8.9l-1,0.3l-2.1-8.9l-12.8,3
			l1.4,6.2l-1.5-6.2l-1.5,0.4l1.4,6.2l-1.5-6.2l-1.5,0.4l1.4,6.2l-1.5-6.2l-1.5,0.4l1.4,6.2l-1.5-6.2l-1.5,0.4l1.4,6.2l-1.5-6.2
			l-1.5,0.4l1.4,6.2l-1.5-6.2l-1.5,0.4l1.4,6.2l-1.5-6.2l-1.5,0.4l1.4,6.2l-1.5-6.2l-1.5,0.4l1.4,6.2l-1.5-6.2l-1.5,0.4l1.4,6.2
			l-1.5-6.2l-1.5,0.4l1.4,6.2l-1.5-6.2l-1.5,0.4l1.4,6.2l-1.5-6.2l-1.5,0.4l1.4,6.2l-1.5-6.2l-1.5,0.4l1.4,6.2l-1.5-6.2l-1.5,0.4
			l1.4,6.2l-1.5-6.2l-1.5,0.4l1.4,6.2l-1.5-6.2l-2.5,0.2l1.4,6.2l-1.5-6.2l-1.5,0.4l1.4,6.2l-1.5-6.2l-1.5,0.4l1.4,6.2l-1.5-6.2
			l-1.5,0.4l1.4,6.2l-1.5-6.2l-1.5,0.4l1.4,6.2l-1.5-6.2l-1.5,0.4l1.4,6.2l-1.5-6.2l-0.7,0.2l-0.3-1l0.7-0.2l-1.6-6.5l-0.6-2.9
			l-0.7,0.2l-0.3-1l0.7-0.2l-2.4-10V298l-0.6,0.1l-0.3-1l0.6-0.1l-3-12.8c-1-4.6-2.1-9.3-3.2-13.9c1.1,4.6,2.2,9.2,3.4,13.8l3,12.7
			l1.4-0.3l-3-12.8c-1-4.6-2.1-9.3-3.2-13.9c1.1,4.6,2.3,9.2,3.4,13.8l3,12.7l1.4-0.3l-3-12.8c-1-4.6-2.1-9.3-3.2-13.9
			c1.1,4.6,2.3,9.2,3.3,13.8l3,12.7l1.4-0.3l-3-12.8c-1-4.6-2.1-9.3-3.2-13.9c1.1,4.6,2.3,9.2,3.4,13.8l3,12.7l1.4-0.3l-3-12.8
			c-1-4.6-2.1-9.3-3.2-13.9c1.1,4.6,2.3,9.2,3.4,13.8l3,12.7l1.4-0.3l-3-12.8c-1-4.6-2.1-9.3-3.2-13.9c1.1,4.6,2.3,9.2,3.4,13.8
			l3,12.7l1.4-0.3l-3-12.8c-1-4.6-2.1-9.3-3.2-13.9c1.1,4.6,2.3,9.2,3.4,13.8l3,12.7l1.4-0.3l-3-12.8c-1-4.6-2.1-9.3-3.2-13.9
			c1.1,4.6,2.3,9.2,3.4,13.8l3,12.7l1.4-0.3l-3-12.8c-1-4.6-2.1-9.3-3.2-13.9c1.1,4.6,2.2,9.2,3.4,13.8l3,12.7l1.4-0.3l-3-12.8
			c-1-4.6-2.1-9.3-3.2-13.9c1.1,4.6,2.3,9.2,3.4,13.8l3,12.7l1.4-0.3l-3-12.8c-1-4.6-2.1-9.3-3.2-13.9c1.1,4.6,2.2,9.2,3.4,13.8
			l3,12.7l1.4-0.3l-2.3-10.1l-0.3,0.1l-0.3-1l0.3-0.1l-1.4-0.8c-0.6-2.9-1.3-5.6-1.9-8.5l-0.4,0.1l-0.3-1l0.4-0.1
			c-0.3-1.4-0.6-2.9-1-4.3c0.3,1.4,0.7,2.9,1,4.3l1.6-0.4c-0.3-1.4-0.6-2.9-1-4.3c0.3,1.4,0.7,2.9,1,4.3l1.6-0.4
			c-0.3-1.4-0.6-2.9-1-4.3c0.3,1.4,0.7,2.9,1,4.3l1.6-0.4c-0.3-1.4-0.6-2.9-1-4.3c0.3,1.4,0.7,2.9,1,4.3l1.6-0.4
			c-0.3-1.4-0.6-2.9-1-4.3c0.3,1.4,0.7,2.9,1,4.3l1.6-0.4c-0.3-1.4-0.6-2.9-1-4.3c0.3,1.4,0.7,2.9,1,4.3l1.6-0.4
			c-0.3-1.4-0.6-2.9-1-4.3c0.3,1.4,0.7,2.9,1,4.3l1.6-0.4c-0.3-1.4-0.6-2.9-1-4.3c0.3,1.4,0.7,2.9,1,4.3l1.6-0.4
			c-0.3-1.4-0.6-2.9-1-4.3c0.3,1.4,0.7,2.9,1,4.3l1.6-0.4c-0.3-1.4-0.6-2.9-1-4.3c0.3,1.4,0.7,2.9,1,4.3l1.6-0.4
			c-0.3-1.4-0.6-2.9-1-4.3c0.3,1.4,0.7,2.9,1,4.3l48.5-11.4l0.3,1L261,267.7c0.7,2.8,1.4,5.6,2,8.4l0.4,1.6L311.8,266.4z M224,270.7
			c1.1,4.6,2.2,9.2,3.4,13.8l3.3,13.9l3.2,13.9l1.6,6.9l1.6,6.9l-1.7-6.9l-1.7-6.9l-3.3-13.9l-3.2-13.9
			C226.1,279.9,225.1,275.3,224,270.7z M225.7,284.9l3.3,13.9l3.2,13.9l1.6,6.9l1.6,6.9l-1.7-6.9l-1.7-6.9l-3.3-13.9l-3.2-13.9
			c-1-4.6-2.1-9.3-3.2-13.9C223.5,275.7,224.6,280.3,225.7,284.9z M323,303.6c1.1,4.7-1.8,9.5-6.6,10.6l-73.5,17.2
			c-4.7,1.1-9.5-1.8-10.6-6.6l-12.5-53.2l0.5-0.1l12.5,53.2c1,4.5,5.6,7.3,10,6.2l73.5-17.2c4.5-1,7.3-5.6,6.2-10L310,250.5l0.5-0.1
			L323,303.6z M308.7,241.1c-0.3,1.4-0.6,2.7-1.2,4c0.1-1.4,0.4-2.8,0.6-4.1c0.3-1.4,0.6-2.7,1.2-4
			C309.2,238.3,309,239.7,308.7,241.1z M301.2,237.9l7.3-1.7l-2,9.2l-7.3,1.7L301.2,237.9z M292.2,244.9c-0.3,1.4-0.6,2.7-1.2,4
			c0.1-1.4,0.4-2.8,0.6-4.1c0.3-1.4,0.6-2.7,1.2-4C292.8,242.2,292.5,243.6,292.2,244.9z M284.8,241.8l7.3-1.7l-2,9.2l-7.3,1.7
			L284.8,241.8z M275.7,248.8c-0.3,1.4-0.6,2.7-1.2,4c0.1-1.4,0.4-2.8,0.6-4.1c0.3-1.4,0.6-2.7,1.2-4
			C276.3,246.1,276,247.5,275.7,248.8z M268.3,245.6l7.3-1.7l-2,9.2l-7.3,1.7L268.3,245.6z M251.8,249.5l7.3-1.7l-2,9.2l-7.4,1.7
			L251.8,249.5z M235.4,253.4l7.3-1.7l-2,9.2l-7.3,1.7L235.4,253.4z M226.3,260.4c-0.3,1.4-0.6,2.7-1.2,4c0.1-1.4,0.4-2.8,0.6-4.1
			c0.3-1.4,0.6-2.7,1.2-4C226.9,257.6,226.6,259,226.3,260.4z M226.2,255.5l-2,9.2l-7.3,1.7l1.4-6.2l4.5-3.9L226.2,255.5z
			 M222.4,248.6c0.4,1.4,0.7,2.7,0.9,4.1c-0.5-1.3-1-2.6-1.4-4s-0.7-2.7-0.9-4.1C221.6,245.9,222,247.3,222.4,248.6z M229.7,247.6
			l-2.7-9.5l5.7-5l2.7,9.5L229.7,247.6z M235.1,237.6c0.4,1.4,0.7,2.7,0.9,4.1c-0.5-1.3-1-2.6-1.4-4c-0.4-1.4-0.7-2.7-0.9-4.1
			C234.3,234.9,234.7,236.2,235.1,237.6z M242.4,236.5l-2.6-9.5l5.7-5l2.6,9.5L242.4,236.5z M247.7,226.5c0.4,1.4,0.7,2.7,0.9,4.1
			c-0.6-1.3-1-2.6-1.4-4s-0.7-2.7-0.9-4.1C246.9,223.8,247.3,225.1,247.7,226.5z M255.2,225.3l-2.6-9.5l5.7-5l2.7,9.5L255.2,225.3z
			 M260.6,215.2c0.4,1.4,0.7,2.7,0.9,4.1c-0.6-1.3-1-2.6-1.4-4s-0.7-2.7-0.9-4.1C259.8,212.5,260.2,213.9,260.6,215.2z M267.9,214.2
			l-2.7-9.5l5.7-5l2.7,9.5L267.9,214.2z M273.4,204c0.4,1.4,0.7,2.7,0.9,4.1c-0.6-1.3-1-2.6-1.4-4c-0.4-1.4-0.7-2.7-0.8-4.1
			C272.6,201.3,273,202.7,273.4,204z M280.6,203l-2.7-9.5l5.7-5l2.7,9.5L280.6,203z M286.1,192.8c0.4,1.4,0.7,2.7,0.9,4.1
			c-0.6-1.3-1-2.6-1.4-4s-0.7-2.7-0.9-4.1C285.3,190.2,285.7,191.6,286.1,192.8z"/>
		<polygon class="st1" points="252.5,304.9 251.1,305.2 251.7,308.1 253.2,314.6 254.8,314.3 253.1,307.7 		"/>
		<polygon class="st1" points="254.1,304.5 252.7,304.8 253.3,307.7 254.8,314.3 256.4,313.9 254.8,307.3 		"/>
		<polygon class="st1" points="236.3,308.7 234.9,309 235.5,311.8 237,318.4 238.5,318.1 236.9,311.5 		"/>
		<polygon class="st1" points="246,306.4 244.6,306.8 245.2,309.6 246.7,316.2 248.3,315.8 246.7,309.2 		"/>
		<polygon class="st1" points="244.4,306.8 243,307.2 243.6,309.9 245.1,316.5 246.7,316.2 245,309.6 		"/>
		<polygon class="st1" points="247.6,306.1 246.2,306.4 246.8,309.2 248.3,315.8 249.9,315.4 248.3,308.8 		"/>
		<polygon class="st1" points="264.4,289.3 265.8,288.9 263.5,278.8 262.1,279.2 		"/>
		<polygon class="st1" points="262.8,289.7 264.2,289.3 261.9,279.2 260.5,279.5 		"/>
		<path class="st1" d="M261.4,276.6l0.4,1.6l1.4-0.3l-0.4-1.6c-0.6-2.9-1.3-5.6-1.9-8.5l-1.6,0.4
			C260.1,270.9,260.8,273.7,261.4,276.6z"/>
		<path class="st1" d="M255.3,279.7l1.4-0.3l-0.4-1.6c-0.6-2.9-1.3-5.6-1.9-8.5l-1.6,0.4c0.7,2.8,1.4,5.6,2,8.4L255.3,279.7z"/>
		<path class="st1" d="M213,255.8c-0.3-0.4-0.9-0.4-1.2-0.1c-0.4,0.3-0.4,0.9-0.1,1.2c0.1,0.2,0.3,0.3,0.5,0.3l0.6-0.1
			c0.1,0,0.1-0.1,0.1-0.1C213.3,256.7,213.3,256.2,213,255.8z"/>
	</g>
</g>
</svg>
