<?xml version="1.0" encoding="utf-8"?>
<!-- Generator: Adobe Illustrator 25.0.0, SVG Export Plug-In . SVG Version: 6.00 Build 0)  -->
<svg version="1.1" id="Layer_1" xmlns="http://www.w3.org/2000/svg" xmlns:xlink="http://www.w3.org/1999/xlink" x="0px" y="0px"
	 viewBox="0 0 400 400" style="enable-background:new 0 0 400 400;" xml:space="preserve">
<style type="text/css">
	.st0{opacity:0.15;}
	.st1{fill:#895003;}
	.st2{enable-background:new    ;}
	.st3{clip-path:url(#SVGID_2_);}
	.st4{clip-path:url(#SVGID_4_);}
</style>
<g>
	<g class="st0">
		<g>
			<path class="st1" d="M119.9,107.4c13.5,0.6,19.1,16.1,22.8,28.4c0.5,1.7,2.9,1,2.4-0.8c-4.4-14-11.2-31-26.7-30.4
				c-14.8,0.5-24.2,16.4-22.1,32.2c0.3,1.7,2.7,1.1,2.4-0.8C96.7,121.4,106.2,106.9,119.9,107.4z"/>
			<path class="st1" d="M145.7,119.8c-3.9-11.7-13.6-20.4-24.7-21.6c-11.4-1.2-22.8,6.2-28.2,17.6c-0.8,1.6,1.4,3,2.1,1.5
				c4.8-10.4,14.9-17.1,25.3-16.3c10.2,0.8,19.5,8.9,23,19.7C143.9,122.3,146.3,121.5,145.7,119.8z"/>
			<path class="st1" d="M159.5,133.2c-6.7-16.1-14.8-33.8-31-39.4c-1.5-0.5-2.2,2.1-0.7,2.7c15.5,5.3,23.1,22.9,29.5,38.2
				C158,136.3,160.2,134.9,159.5,133.2z"/>
			<path class="st1" d="M162.2,139.9c-0.9-1.5-3.1-0.1-2.1,1.5c3.3,5.4,6.7,10.9,10,16.3c0.9,1.5,3.1,0.1,2.1-1.5
				C168.9,150.7,165.6,145.3,162.2,139.9z"/>
			<path class="st1" d="M89.6,109.3c-8.2,14.2-8.2,31.9-4.7,47.8c0.3,1.7,2.7,1,2.4-0.8c-3.2-14.7-3.3-30.8,3.7-44.2
				c6.3-11.9,18.3-19.8,30.7-16.8c1.5,0.4,2.2-2.3,0.7-2.7C109.3,89.5,96.5,97.1,89.6,109.3z"/>
			<path class="st1" d="M93.2,198.5C84.9,185.7,79.4,171,77,155.4c-0.3-1.7-2.7-1.1-2.4,0.8C77.1,172,82.7,186.9,91,200
				C92,201.4,94.1,200,93.2,198.5z"/>
			<path class="st1" d="M104.4,89.4c-17.2,6.5-28.3,25.2-27,45.6c0.1,1.8,2.6,1.8,2.5,0c-1.2-19.1,9-36.8,25.2-42.9
				C106.6,91.5,106,88.8,104.4,89.4z"/>
			<path class="st1" d="M111.6,86.8c-1.5,0.3-0.9,3,0.7,2.7c16.1-3.2,32.1,5.3,40.3,21.1c0.8,1.6,2.9,0.2,2.1-1.5
				C145.9,92.2,128.7,83.4,111.6,86.8z"/>
			<path class="st1" d="M157.5,115c-0.8-1.6-2.9-0.2-2.1,1.5c5.1,10.8,10.1,21.4,15.3,32.2c0.8,1.6,2.9,0.2,2.1-1.5
				C167.7,136.4,162.6,125.7,157.5,115z"/>
			<path class="st1" d="M94.3,86.5c-8,5.4-15,12.9-18.6,22.8c-4.2,11.8-3.6,24.7-2.8,37.2c0.1,1.8,2.6,1.8,2.5,0
				c-0.7-11.5-1.4-23.5,2.1-34.6c3.2-10.1,10.1-17.5,18.1-22.9C97,88,95.7,85.5,94.3,86.5z"/>
			<path class="st1" d="M150,91.6c-13.1-12.1-30.8-14-46.5-8.2c-1.5,0.6-0.9,3.3,0.7,2.7c15.5-5.7,33.6-3.7,45.9,9.2
				c11,11.5,13.7,29.3,22.6,42.5c0.9,1.5,3.1,0,2.1-1.5C165.2,122.3,162.5,103.3,150,91.6z"/>
			<path class="st1" d="M80.1,186.2c-7.7-20.7-10.9-43.2-9.3-65.6c0.2-1.8-2.3-1.7-2.5,0c-1.6,22.6,1.5,45.4,9.4,66.3
				C78.3,188.5,80.7,187.9,80.1,186.2z"/>
			<path class="st1" d="M133.3,79.4c1.5,0.3,2.2-2.4,0.7-2.7c-13.9-2.4-28.4-2.3-41.4,4.5c-11.2,5.9-20.4,17.1-22.7,31.2
				c-0.3,1.7,2.1,2.5,2.4,0.8c2.1-13.4,10.7-23.8,21.5-29.5C106.1,77.1,120.2,77.1,133.3,79.4z"/>
			<path class="st1" d="M140.2,78.8c-1.5-0.8-2.7,1.6-1.3,2.4c15.2,8,27,23,32.3,41c0.5,1.7,2.9,1,2.4-0.8
				C168.2,102.8,156.1,87.2,140.2,78.8z"/>
			<path class="st1" d="M65,146.9c0.2-20.8,0.6-44.1,13.9-60.4c1.1-1.4-0.7-3.3-1.8-2c-13.7,16.9-14.4,40.7-14.7,62.3
				C62.5,148.7,65,148.7,65,146.9z"/>
			<path class="st1" d="M82.6,80.4c-1.4,1-0.1,3.4,1.3,2.4c12.6-8.6,27.4-12,42-9.9c1.5,0.2,1.5-2.6,0-2.8
				C110.9,67.9,95.6,71.6,82.6,80.4z"/>
			<path class="st1" d="M131.8,70.5c-1.6-0.2-1.5,2.6,0,2.8c15.6,1.8,26.9,15.6,36.8,28c1.1,1.4,2.8-0.7,1.8-2
				C159.9,86.2,148.2,72.5,131.8,70.5z"/>
			<path class="st1" d="M139.5,68.8c10.2,5.3,19.3,13,26.7,22.7c1,1.4,2.8-0.6,1.8-2c-7.6-9.8-16.8-17.6-27.2-23.1
				C139.3,65.6,138,68,139.5,68.8z"/>
			<path class="st1" d="M62.1,162.9c-3.5-15.1-3.5-30.9-0.1-46c0.4-1.7-2-2.5-2.4-0.8c-3.5,15.6-3.5,32,0.1,47.6
				C60,165.4,62.4,164.6,62.1,162.9z"/>
			<path class="st1" d="M64,107.7c2.4-18.4,14.4-33.1,30.5-37.2c1.5-0.4,0.9-3.1-0.7-2.7C77,72.1,64.1,87.7,61.6,107
				C61.3,108.8,63.7,109.5,64,107.7z"/>
			<path class="st1" d="M133.6,65.6c-11.1-2-22.3-1.9-33.4,0.4c-1.5,0.3-0.9,3,0.7,2.7c10.6-2.1,21.4-2.2,32-0.4
				C134.6,68.6,135.3,65.9,133.6,65.6z"/>
			<path class="st1" d="M114.6,59.1c-1.6,0-1.6,2.8,0,2.8c15.9-0.4,33.4,1.3,45.2,14.9c1.1,1.3,2.9-0.7,1.8-2
				C149.4,60.6,131.1,58.7,114.6,59.1z"/>
			<path class="st1" d="M74.7,74.7c10-8.4,22.1-12.9,34.5-12.7c1.6,0,1.6-2.8,0-2.8c-12.9-0.3-25.5,4.4-35.8,13.1
				C72.2,73.3,73.4,75.8,74.7,74.7z"/>
			<path class="st1" d="M68.9,79.5c0.9-1.6-1.3-2.9-2.1-1.5c-9.1,15.3-13.8,33.4-13.5,51.8c0,1.8,2.5,1.8,2.5,0
				C55.4,112.1,60,94.5,68.9,79.5z"/>
			<path class="st1" d="M62.8,78.5c7.4-10.7,17.9-17.8,29.7-20.1c1.5-0.3,0.9-3-0.7-2.7C79.7,58,68.6,65.5,61,76.5
				C60,77.9,61.8,79.9,62.8,78.5z"/>
			<path class="st1" d="M99.6,57c12.4-2.5,25-1.9,37.1,1.6c1.5,0.5,2.2-2.2,0.7-2.7c-12.5-3.8-25.6-4.4-38.4-1.6
				C97.4,54.5,98.1,57.2,99.6,57z"/>
			<path class="st1" d="M142.8,60.1c4.8,1.5,9.4,3.6,13.7,6.5c1.4,1,2.7-1.5,1.3-2.4c-4.5-3.1-9.2-5.3-14.3-6.8
				C141.9,56.9,141.3,59.6,142.8,60.1z"/>
			<path class="st1" d="M120.6,47.8c-1.6,0.1-1.6,2.9,0,2.8c11.2-0.8,22.4,1.9,32.3,8c1.4,0.9,2.7-1.6,1.3-2.4
				C143.9,49.9,132.3,47,120.6,47.8z"/>
			<path class="st1" d="M68.1,63.2c13.7-9.3,29.4-14,45.3-13.4c1.6,0.1,1.6-2.7,0-2.8c-16.3-0.6-32.5,4.2-46.5,13.8
				C65.5,61.6,66.7,64,68.1,63.2z"/>
			<path class="st1" d="M76.4,51.5c19.9-7.2,41.1-9,61.7-5.1c1.5,0.3,2.2-2.4,0.7-2.7c-21-4-42.7-2.2-63.1,5.1
				C74.2,49.4,74.9,52.1,76.4,51.5z"/>
			<path class="st1" d="M87.3,42.6c14-3.7,28.4-4.7,42.7-3.2c1.6,0.2,1.5-2.6,0-2.8c-14.5-1.6-29.1-0.4-43.4,3.3
				C85.1,40.4,85.7,43.1,87.3,42.6z"/>
			<path class="st1" d="M95.2,35.5c2.4-0.4,4.9-0.8,7.3-1.1c1.5-0.2,1.5-3,0-2.8c-2.4,0.4-4.9,0.8-7.3,1.1
				C93.6,32.9,93.5,35.7,95.2,35.5z"/>
			<path class="st1" d="M108.1,33.9c5.4-0.4,10.8-0.5,16.3-0.2c1.6,0.1,1.6-2.7,0-2.8c-5.4-0.3-10.8-0.2-16.3,0.2
				C106.5,31.2,106.5,34,108.1,33.9z"/>
		</g>
		<g>
			<path class="st1" d="M397.5,63.6c-0.3-1.1-0.9-1.9-1.8-2.4L283.3,2.8c-1.4-0.7-3-0.3-4,1.1l-97,140.8c-0.3,0.4-0.5,1-0.6,1.5
				c-1.8,8.7-7.7,14.9-13.3,18.9c0.3-0.4,0.4-1,0.1-1.6c-8-12.2-14.9-25.2-20.7-38.9c-0.7-1.6-2.8-0.2-2.1,1.5
				c5.8,13.7,12.7,26.6,20.7,38.9c0.4,0.6,1,0.7,1.5,0.5c-0.9,0.7-1.9,1.3-2.8,1.8c-7.6-7.3-13.7-16.3-17.7-26.5
				c-0.6-1.6-2.7-0.2-2.1,1.5c4,10.2,10,19.3,17.4,26.5c-1.6,0.9-2.9,1.5-3.9,1.8c-4.8-5.3-9-11.1-12.6-17.5
				c-2.6-4.7-4.9-9.6-6.7-14.7c-1.8-4.9-3.2-10.2-5.5-14.9c-3.8-7.8-10.8-14.5-19.2-12.4c-8.2,2.1-13.4,10.9-14.3,19.9
				c-1.5,13.3,4.3,25.5,7.6,37.8c0.4,1.7,2.8,1,2.4-0.8c-2.7-10.2-7.2-20.1-7.7-30.8c-0.4-9.7,3.2-20.8,12.4-23.4
				c9.8-2.7,16.1,8.2,19.2,17c3.1,8.6,5.9,17.1,10.5,24.9c3.3,5.8,7.3,11.3,11.7,16.2l-2.3,1.7c-7.6-8-13.7-17.7-18.1-28.4
				c-1.5-3.6-2.8-7.4-3.9-11.1c-1-3.5-1.6-7.2-3.1-10.6c-2.3-5.7-7.7-10.3-13.3-7.4c-1.5,0.8-0.2,3.2,1.3,2.4c3.5-1.8,7.2,1.1,9,4.4
				c1.7,3.2,2.4,7.1,3.3,10.7c1.8,6.8,4.3,13.3,7.3,19.4c4.1,8.2,9.3,15.8,15.4,22.3l-3.9,2.9c-7.3-7.5-13.2-16.7-17.3-26.8
				c-1.5-3.8-2.7-7.7-3.8-11.7c-0.9-4-1.2-8.2-2.6-12c-2-5.6-8.9-9-11.7-2.1c-1.5,3.8-0.9,8.5-0.5,12.4c0.7,5.2,2.2,10.3,4.5,15
				c0.8,1.6,2.9,0.2,2.1-1.5c-2.4-5.1-4-10.7-4.4-16.4c-0.3-3.4-0.3-14,5.3-9.9c3.6,2.6,3.6,9.8,4.6,14c0.9,4.1,2.2,8.1,3.7,12
				c4.1,10.9,10.3,20.5,17.9,28.6l-1.5,1.2c0-0.1-0.1-0.1-0.2-0.2c-13.9-12.3-23.2-30.6-25.2-50.5c-0.2-1.7-2.7-1.7-2.5,0
				c2.1,20.4,11.4,39.4,25.8,52.2l-2.3,1.7c-8.4-6.8-15.3-16-19.8-26.6c-0.7-1.6-2.8-0.2-2.1,1.5c4.4,10.8,11.2,20.1,19.7,26.9
				l-3.4,2.6c-6-5.1-11.2-11.4-15.3-18.8c-4.2-7.6-7.1-16.1-8.6-24.9c-1.2-7.4-2.9-18.8,2.8-24.2c1.2-1.2-0.5-3.1-1.7-1.9
				c-5.8,5.5-5,15.7-4,23.3c1.2,9.7,4.1,19.2,8.5,27.6c4.2,8,9.7,14.9,16.1,20.5l-3.4,2.5c-6.1-5.7-11.2-12.6-15.2-20.4
				c-0.8-1.6-2.9-0.2-2.1,1.5c4,7.8,9.1,14.8,15.1,20.6l-3.1,2.3c-13.8-13.2-23.2-32.1-25.2-53.1c-0.2-1.7-2.7-1.8-2.5,0
				c2.1,21.6,11.5,41.1,25.6,54.7l-3.3,2.4c-13.6-11.7-23.1-29-25.8-48.7c-1.3-9.4-1-19,0.8-28.3c0.3-1.7-2.1-2.5-2.4-0.8
				c-5.8,29.8,4.4,60.9,25.2,79.4l-1.9,1.5c-0.1-0.2-0.2-0.3-0.3-0.5C102.5,193,94,179.6,89.3,164.4c-0.5-1.7-2.9-1-2.4,0.8
				c4.8,15.7,13.5,29.6,25.1,39.9c0,0,0,0,0.1,0l-3.5,2.6c-15.5-17-25.6-39.8-28.1-64.1c-0.2-1.7-2.7-1.7-2.5,0
				c2.5,24.9,12.7,48.3,28.4,65.7L104,211c-2.6-2.8-5.2-5.5-7.8-8.3c-1.2-1.3-2.9,0.8-1.8,2c2.5,2.6,5,5.3,7.4,7.9l-2.7,2.1
				c-0.1-0.1-0.1-0.2-0.2-0.3c-6.1-7.5-11.6-15.4-16.5-23.8c-0.9-1.6-3-0.1-2.1,1.5c4.6,7.8,9.5,15.2,15.1,22.2
				c-1.6-0.3-3.2-0.5-4.7-0.8c-0.1-0.2-0.2-0.3-0.3-0.5C77,197.6,68.7,177.4,66.9,156c-0.2-1.7-2.7-1.8-2.5,0
				c1.8,21.2,9.7,41.3,22.4,56.9c-1.4-0.2-2.7-0.5-4.1-0.7c0-0.3-0.1-0.7-0.3-1c-8.8-11.5-15.2-25.1-18.8-39.8
				c-0.4-1.7-2.8-1-2.4,0.8c3.5,14.5,9.8,28,18.4,39.5c-5.8-0.9-11.2-1.7-16.5-2.5c-14.8-2.2-27.1-4-35.6-5.2
				c-8.6-1.2-13.6-1.8-13.6-1.8c-0.7-0.1-1.4-0.1-2,0c-4.6,0.3-8.6,4.4-9.2,9.8c-0.6,5.9,2.9,11.2,8.1,12.3c0,0,4.9,1,13.4,2.7
				c8.6,1.6,20.8,4.1,35.5,6.7c3.7,0.7,7.6,1.4,11.6,2.1L8.3,282.8c-0.9,0.7-1.5,1.8-1.5,3.2c0,1.3,0.6,2.4,1.5,3.1l115.2,78.6
				c0.5,0.4,1.1,0.6,1.7,0.6c0.7,0,1.4-0.2,1.9-0.7l124.3-102.2c8.4,1.3,16.4,2.5,23.8,3.6c7.4,1.1,14.1,2.2,20.2,2.8
				c4.6,0.5,8.7,0.6,12.4,0.6c1.2,0,2.5,0,3.6-0.1c8.8-0.2,13.9-1.6,13.9-1.6c2.6-0.7,4.1-3.6,3.5-6.4c-0.3-1.5-1.1-2.6-2.2-3.4
				c0,0-4.6-3-13-6.2c-4.2-1.6-9.3-3.3-15.2-4.7c-3.5-0.9-7.4-1.6-11.5-2.3c1.9-1,3.6-2.2,5.2-3.9c7.6-7.9,8.2-20.6,8.1-24.9
				L397,66.8C397.6,65.9,397.8,64.7,397.5,63.6z M107.7,215.3c0.8-0.6,1.6-1.2,2.4-1.8c0.7-0.6,1.5-1.1,2.1-1.6
				c1-0.8,2.1-1.6,3.1-2.2c0.8-0.6,1.5-1.1,2.2-1.6c0.9-0.7,1.9-1.4,2.8-2c0.8-0.6,1.6-1.2,2.4-1.7c1-0.7,2.1-1.5,3-2.1
				c0.8-0.6,1.5-1.1,2.2-1.6c1.1-0.8,2.1-1.5,3.2-2.2c0.8-0.6,1.5-1.1,2.3-1.6c1.3-0.9,2.6-1.7,3.8-2.5c0.9-0.6,1.6-1.1,2.4-1.6l0,0
				c1.3-0.9,2.6-1.6,3.9-2.4c0.9-0.6,1.7-1.1,2.6-1.6c2-1.3,4-2.3,5.7-3.3l0,0c0.9-0.5,1.7-1,2.6-1.4c1.6-0.8,3.1-1.5,4.5-2
				c1.1-0.5,2.1-0.8,2.9-1c0.2-0.1,0.3-0.1,0.5-0.1l89.3,50.8l-1.5,7.2c-1.1,0.5-2.2,1-3.3,1.6c-3.2-0.6-6.4-1.2-9.8-1.7
				c0.8-0.4,1.6-0.9,2.4-1.3c3-1.6,6.1-3.1,9.2-4.6c-3.1,1.4-6.3,2.6-9.4,4.1c-1.1,0.5-2.2,1.1-3.3,1.6c-2.5-0.5-5.1-1-7.6-1.4
				c-18.4-3.2-38-6.7-57.5-10.2c-17.4-2.9-34.9-5.9-51.4-8.6c-1.7-0.3-3.4-0.6-5.2-0.9c-0.3-0.1-0.8-0.1-1.1-0.2
				c-1.5-0.2-2.9-0.5-4.4-0.7c-0.8-0.1-1.5-0.2-2.2-0.4C107,215.8,107.4,215.5,107.7,215.3z M72.7,242.5l123,19.8
				c-0.3,0.2-0.6,0.4-0.9,0.6c-5.7,4.1-11.3,8.1-16.7,12.6c-11,8.7-21.6,18.1-31.8,27.9c-5.2,4.8-10.1,10-15,15.1
				c-4.6,4.9-9.2,10-13.7,15.2l-20.7-13l-21.6-13.4c-7.2-4.5-14.4-8.9-21.7-13.3c-7.2-4.4-14.5-8.8-21.8-13.1
				c7,4.8,14.2,9.5,21.2,14.2c7,4.7,14.3,9.4,21.3,14l21.4,14l21.5,13.8l0.9,0.6l0.7-0.9c4.6-5.4,9.4-10.7,14.3-15.8
				s9.9-10.2,14.9-15.1c10.1-9.9,20.5-19.3,31.4-28.1c5.4-4.4,10.9-8.8,16.5-12.9c0.9-0.7,1.9-1.4,2.8-2l7.6,1.3
				c-50,35.3-86.2,82.4-86.2,82.4l-89.6-59.9l-2.3-7.5C28.1,279.1,47.9,262.3,72.7,242.5z M230.8,277.6L196,306.3
				c-23.4,19-46.6,38.1-70.2,56.9l-0.5,0.4l-0.5-0.4L96.1,344l-28.6-19.2l-28.6-19.3l-28.4-19.5l28.9,18.5l28.9,18.8l28.8,18.8
				l28.2,18.6c23.1-18.9,46.5-37.4,69.7-56.2l35.3-28.1l9.2-7.3l1.2,0.2L230.8,277.6z M313.5,258.1c4.2,1.3,7.4,2.8,9.4,4.3
				c1,0.7,1.7,1.4,2.2,1.7c0.5,0.5,0.7,0.7,0.7,0.7s-1.3-0.2-3.5-1c-2.2-0.6-5.4-1.6-9.5-3c-1.8-0.6-3.8-1.1-5.8-1.6
				c-0.1,0.1-0.2,0.3-0.3,0.4c-0.4,0.9-0.9,2.1-1.3,3.5c-0.8,2.7-1.3,5.6-1.3,5.6s-0.6-2.8-0.9-5.9c-0.2-1.6-0.2-3.1-0.1-4.3
				c0-0.1,0-0.2,0-0.3c-7.1-1.6-15.6-3.3-25.4-4.8c-14.7-2.4-31.8-5.3-50.1-8.5c-18.3-3.2-37.8-6.5-57.4-9.9
				c-19.5-3.3-39.1-6.6-57.4-9.6c-9.2-1.5-18-2.9-26.4-4.3c-8.4-1.5-16.3-2.7-23.7-4c-14.7-2.4-26.9-4.4-35.4-5.8
				c-1.2-0.2-2.3-0.4-3.4-0.6c-0.1,0.1-0.1,0.2-0.2,0.3c-0.3,1-0.9,2.2-1.3,3.6c-0.9,2.7-1.6,5.5-1.6,5.5s-0.3-2.9-0.5-5.9
				c-0.1-1.5-0.2-3-0.2-4.2c0-0.1,0-0.2,0-0.3c-4-1-6.2-1.8-6.2-1.8s5.1-0.5,13.7,0.4c8.6,1.1,20.9,2.7,35.6,4.7
				c7.4,1.1,15.3,2.2,23.7,3.5c8.4,1.3,17.3,2.6,26.4,4.1c18.4,3,37.9,6.1,57.5,9.5c9.8,1.7,19.5,3.5,29.1,5.2
				c9.6,1.7,19.1,3.4,28.3,5.1c18.2,3.6,35.3,6.9,49.8,9.8C292.9,252.7,305.1,255.4,313.5,258.1z M296.6,226.7
				c-0.3,2.1-0.9,4.7-2.1,7.2c-0.3,0.7-0.6,1.3-0.9,1.8c-0.3,0.6-0.6,1.3-1.1,1.8l-1.3,1.7c-0.4,0.6-1,1-1.5,1.6
				c-0.9,1.1-2.2,1.7-3.3,2.5c-1.2,0.7-2.5,1.1-3.6,1.6c-1.2,0.3-2.4,0.5-3.5,0.7c-1.1,0.2-2.1,0-3.2,0c-0.5,0-0.9,0-1.4-0.1
				c-0.2,0-0.3-0.1-0.5-0.1c-0.3,0-0.5-0.1-0.8-0.2c-0.8-0.2-1.5-0.3-2-0.5c-1.1-0.2-1.7-0.4-1.7-0.4s0.6,0,1.7,0c0.5,0,1.2,0,2,0
				c0.8,0.1,1.6,0,2.6-0.2s2-0.2,3-0.4c1-0.3,2.1-0.6,3.3-0.9c1-0.5,2.1-1,3.2-1.6c0.9-0.7,2.1-1.3,2.9-2.3c0.4-0.5,0.9-0.9,1.4-1.4
				l1.2-1.6c0.8-1,1.4-2.1,2-3.3c0.5-1.2,1.1-2.2,1.5-3.4c0.4-1.1,0.8-2.2,1-3.2c0.5-2,0.9-3.8,1.1-4.9c0.2-1.3,0.3-1.9,0.3-1.9
				S297.3,222.3,296.6,226.7z M390.4,68c-0.1,0.4-0.3,0.8-0.5,1.2l-0.4,0.8l-0.9,1.5l-1.9,3c-2.5,4-5.1,7.9-7.6,11.9
				c-10.2,15.9-20.4,31.9-29.9,46.7c-9.6,14.8-18.5,28.8-26.3,40.6c-7.7,11.8-14.2,21.7-18.7,28.7c-4,6-6.4,9.8-7,10.7
				c0.5-0.9,2.9-4.7,6.7-10.9c4.4-7.1,10.6-17.1,18-29.2c7.6-12,16.3-26.1,25.8-41.1s19.6-30.9,29.7-46.9c2.6-4,5.1-7.9,7.6-11.9
				l1.9-3l0.9-1.5l0.5-0.8c0.1-0.2,0.2-0.3,0.2-0.5c0.2-0.7-0.1-1.6-0.6-1.8l-2.8-1.6c-7.7-4.2-15.4-8.1-22.8-12.1
				c-14.7-7.9-28.4-15.3-40.2-21.7c-11.8-6.4-21.6-11.7-28.3-15.5c-5.6-3.1-9.2-5-10.4-5.7c1.2,0.6,4.8,2.4,10.6,5.3
				c7,3.6,16.8,8.6,28.7,14.7s25.7,13.3,40.4,21c7.4,3.9,15,7.8,22.8,11.9l2.9,1.6C390.1,64.4,390.8,66.3,390.4,68z"/>
		</g>
	</g>
	<g class="st0">
		<g>
			<g class="st2">
				<g>
					<defs>
						<polygon id="SVGID_1_" points="133.9,367.5 195.5,331.7 243.6,359.5 182.1,395.3 						"/>
					</defs>
					<clipPath id="SVGID_2_">
						<use xlink:href="#SVGID_1_"  style="overflow:visible;"/>
					</clipPath>
					<g class="st3">
						<path class="st1" d="M164.6,372.6c0,0-6.6-0.1-14.4-4.2c0,0-6.7,4.7-0.9,8c0.7,0.4,1.6,0.8,2.6,1.2
							C161,380.6,164.6,372.6,164.6,372.6"/>
						<path class="st1" d="M184.3,346.5c-4.2-2.4-12.2-1.8-18.8,2.6c-7.2,4.9-11.2,15.1-11.2,15.1s4.4,0.8,14,4.5
							c0,0,1.6-1.6,3.5-3.2c3.8-3.4,14.1-7.4,15.2-13.6C187.4,349.5,186.3,347.6,184.3,346.5"/>
						<path class="st1" d="M194,370.6c0,0-12.6,3.7-5.7,8.2c0.2,0.2,0.5,0.3,0.7,0.4c7.5,4.3,15-1.3,15-1.3c-1.6-0.7-2.9-1.4-4-1.9
							C195,373.1,194,370.6,194,370.6"/>
						<path class="st1" d="M235.4,354.8c-2.3-1.4-6.1-1.8-10.9-1.1c-10.4,1.8-14.9,8.5-19.9,11.3c-2.4,1.4-4.7,2.6-4.7,2.6
							c8.1,4.7,10.3,7.2,10.3,7.2s16.4-4.4,23.3-9.4C239.1,361.2,239.1,356.9,235.4,354.8"/>
					</g>
				</g>
			</g>
		</g>
	</g>
	<g class="st0">
		<g>
			<g class="st2">
				<g>
					<defs>
						<polygon id="SVGID_3_" points="196.4,323.8 257.9,288 306.1,315.8 244.6,351.6 						"/>
					</defs>
					<clipPath id="SVGID_4_">
						<use xlink:href="#SVGID_3_"  style="overflow:visible;"/>
					</clipPath>
					<g class="st4">
						<path class="st1" d="M227.1,328.9c0,0-6.6-0.1-14.4-4.2c0,0-6.7,4.7-0.9,8c0.7,0.4,1.6,0.8,2.6,1.2
							C223.5,336.9,227.1,328.9,227.1,328.9"/>
						<path class="st1" d="M246.8,302.9c-4.2-2.4-12.2-1.8-18.8,2.6c-7.2,4.9-11.3,15.1-11.3,15.1s4.4,0.7,14,4.5
							c0,0,1.6-1.6,3.5-3.2c3.8-3.4,14.1-7.4,15.2-13.6C249.9,305.8,248.8,303.9,246.8,302.9"/>
						<path class="st1" d="M256.5,327c0,0-12.6,3.7-5.7,8.2c0.2,0.2,0.5,0.3,0.7,0.4c7.5,4.3,15-1.3,15-1.3c-1.6-0.7-2.9-1.4-4-1.9
							C257.5,329.4,256.5,327,256.5,327"/>
						<path class="st1" d="M298,311.1c-2.3-1.4-6.1-1.8-10.9-1.1c-10.4,1.8-14.9,8.5-19.9,11.3c-2.4,1.4-4.7,2.6-4.7,2.6
							c8.1,4.7,10.3,7.2,10.3,7.2s16.4-4.4,23.3-9.4C301.7,317.6,301.6,313.3,298,311.1"/>
					</g>
				</g>
			</g>
		</g>
	</g>
</g>
</svg>
