<?xml version="1.0" encoding="utf-8"?>
<!-- Generator: Adobe Illustrator 25.0.0, SVG Export Plug-In . SVG Version: 6.00 Build 0)  -->
<svg version="1.1" id="Layer_1" xmlns="http://www.w3.org/2000/svg" xmlns:xlink="http://www.w3.org/1999/xlink" x="0px" y="0px"
	 viewBox="0 0 400 400" style="enable-background:new 0 0 400 400;" xml:space="preserve">
<style type="text/css">
	.st0{opacity:0.1;}
	.st1{fill:#895003;}
</style>
<g class="st0">
	<g>
		<path class="st1" d="M271.4,11c-30.3,12.4-33.8,18.3-33.8,18.3c-4.5-4.2-8.8-3.2-8.8-3.2l-43,7.8c-21.2,6.4-32.1,50.3-32.1,50.3
			c-14.7-11.5-28.6,5.4-24,13.3c-7.5,6.2-12.5,9.9-12.5,9.9c-8.7-4.1-19.4,2.8-28.2,16.6c-10.2,15.8-8,17.5-8,17.5
			c-9.5,14.5,0.8,21.7,0.8,21.7s-29.7,25.9-30.4,26.9c-12.5,10.8-8.5,22.3-7.5,26c1,3.6,0.7,22.5-2.8,30.2
			c-18.4,30.2-22.9,73-11.8,98.5c11.2,25.5,26.2,35.5,31.9,37.7c18.6,7.9,30.9,10.2,30.9,10.2c25.1,4.8,45.7-12.5,50.3-11.2
			c4.5,1.3,22.5,1.6,24.2-21.4c27-25.5,50.9-74.6,40.9-112.7c-9.9-38-38-53.6-38-53.6c2.5-8.4-14.9-37-14.9-37
			c10.5,6.1,21.8,6,24.9,11.2c3,5.2,14.5,35.4,55.9,51.5c41.5,16,97.4-17.5,117-58.1c11-23.6,11.9-33.3,17.6-40.8
			c5.7-7.5,8.8-15.3,3.2-24.2c-5.5-8.8-2.5-43-18.6-64.4C338.5,10.6,301.4-0.9,271.4,11z M224.6,44.4c0.9-1.7,1.8-3.4,2.6-5.1
			c0.8-1.7,1.3-3.5,1.1-5.5c0.9,1.8,0.8,4.1,0.2,5.9c-0.5,2-1.4,3.8-2.3,5.5c-1,1.7-2,3.4-3.1,5c-1.1,1.6-2.2,3.2-3.5,4.7
			C220.9,51.3,222.8,47.8,224.6,44.4z M343.3,57.5c1,2.5,1.7,5.1,2.2,7.7c0.4,2.6,0.5,5.3,0.3,7.9c-0.1,1.3-0.3,2.6-0.5,3.9
			c-0.3,1.3-0.5,2.6-0.8,3.8c-0.1-1.3,0-2.6-0.1-3.9s0-2.6-0.2-3.8c-0.2-2.5-0.3-5.2-0.7-7.7c-0.4-2.5-0.9-5-1.6-7.5
			c-0.8-2.5-1.6-4.9-2.8-7.2C340.9,52.7,342.3,55.1,343.3,57.5z M349.3,59.8c0.9,1.4,1.6,2.9,2.1,4.5s0.7,3.2,0.8,4.9
			c0.2,3.3-0.4,6.8-1.9,9.7c0-1.7,0.2-3.2,0.2-4.8c0-1.6,0-3.2-0.1-4.8C350.2,66.2,349.8,63.1,349.3,59.8z M342,87.2
			c13.6-10.5,25.6-2.5,19.5,11.7C363.2,84.8,347.6,84.4,342,87.2z M336.3,53.8c1,2.3,2.1,4.5,2.7,7c0.3,1.2,0.8,2.4,0.9,3.6
			c0.2,1.2,0.4,2.5,0.6,3.7c0.2,1.2,0.3,2.5,0.3,3.7l0.2,3.7c-0.1,2.5-0.3,4.9-0.5,7.4c-0.2-2.5-0.2-4.9-0.4-7.3l-0.5-3.6
			c-0.2-1.2-0.2-2.4-0.6-3.6c-0.3-1.2-0.5-2.4-0.8-3.5c-0.2-1.2-0.7-2.3-1.1-3.5c-0.6-2.3-1.7-4.5-2.7-6.7c-2.2-4.3-5-8.2-8.4-11.6
			c-3.4-3.5-7.3-6.4-11.8-8.5c2.4,0.7,4.6,1.8,6.8,3c2.1,1.3,4.2,2.8,6,4.5C331,45.3,334.1,49.4,336.3,53.8z M284.6,31.5
			c-6.6,1.1-13.1,3.1-19.2,5.9c-12.2,5.6-22.9,14.2-31.2,24.8c-8.5,10.5-14.5,22.7-18.8,35.4c-4.2,12.8-6.5,26.2-7.5,39.7
			c0.2-6.8,0.7-13.5,1.7-20.2c1.1-6.7,2.5-13.4,4.5-19.9c4-13,10.2-25.4,18.6-36.2c8.5-10.6,19.5-19.5,32.1-24.9
			c12.5-5.5,26.5-7.6,39.9-4.9C298.1,30.3,291.2,30.3,284.6,31.5z M222,92.2c-1,3.1-2.1,6.2-2.8,9.3c-0.9,3.2-1.7,6.2-2.4,9.5
			c-1.4,6.3-2.5,12.7-3.2,19.2c-0.8,6.4-0.8,12.9-0.6,19.3l0.4,4.8c0.1,1.6,0.5,3.2,0.7,4.8c0.3,3.2,1.3,6.3,1.9,9.5
			c-2.3-6.1-3.8-12.5-4.4-19.1c-0.6-6.5-0.5-13.2,0.2-19.6c0.8-6.5,1.9-13,3.7-19.3C217,104.2,219.2,98.1,222,92.2z M211.3,78.1
			c-2,6.2-3.7,12.5-5.2,18.9c-2.9,12.8-4.9,25.8-4.4,38.8c0.2,6.5,1.1,13,2.9,19.2c1.8,6.2,4.8,12.1,8.8,17.2
			c4,5.1,9.2,9.2,14.9,12.2c5.8,3.1,12.1,5,18.5,6.2c-6.5-0.8-12.9-2.6-18.9-5.5c-5.9-2.9-11.4-7-15.6-12.2
			c-4.3-5.2-7.3-11.2-9.2-17.6s-2.9-13-3.2-19.6c-0.2-6.6,0.2-13.2,1.1-19.8c0.8-6.5,2.1-13.1,3.8-19.4c3.2-12.8,7.7-25.2,12.9-37.3
			C215.4,65.6,213.2,71.8,211.3,78.1z M137.9,85.2c0,0,4.5-4.5,13.1,0.1c0,0,1,4.1-3.9,7.8C147.2,93.1,145.5,86.5,137.9,85.2z
			 M126.1,109.1c4-3.6,8.1-7.2,12.5-10.3c-3.5,4.2-7.3,8-11.3,11.7c-4,3.6-8.1,7.2-12.5,10.3C118.4,116.5,122.2,112.8,126.1,109.1z
			 M94.2,122.3c0.7-1.1,1.5-2.1,2.3-3.2c0.8-1.1,1.8-1.9,2.6-2.9c0.9-0.9,1.9-1.8,2.9-2.6c2.1-1.6,4.4-3,7-3.8
			c1.3-0.5,2.6-0.5,4-0.5c1.3,0.2,2.7,0.4,3.8,1.2c-2.5-0.8-5-0.2-7.3,0.8c-2.2,1-4.4,2.4-6.3,3.8c-1.9,1.5-3.8,3.3-5.6,5.1
			c-1.8,1.8-3.5,3.7-5.4,5.5C92.8,124.5,93.5,123.4,94.2,122.3z M92.1,134.3c0,0,8.2-11.2,15.1-16c0,0-2,7.5,8.5,8.7
			c0,0-3.1,8.5-11.2,14.1C104.5,141.1,98.6,139.1,92.1,134.3z M109.7,141.8c1.2-1.4,2.3-2.6,3.5-4c2.4-2.6,4.7-5.2,7.1-7.8
			c-0.5,1.8-1.4,3.3-2.4,4.8c-1,1.5-2.1,2.9-3.3,4.2c-2.4,2.6-5.1,5.1-8.2,6.9C107.4,144.6,108.5,143.2,109.7,141.8z M41.5,250.4
			c6.2-10.7,5.6-24.6,5.6-24.6c1.8,4.4,2.9,8.9,2.9,8.9c1.6-16.5-6.3-20.9-3.4-33c-0.5,5.5,1.4,8.3,1.4,8.3
			c1.2-9.2,2.7-13.1,2.7-13.1c50.5-43,71.4-48.9,71.4-48.9C84.7,170.2,60,193.2,60,193.2c37.9-30,55.6-38.2,55.6-38.2
			c-37.8,26.4-59.5,45.2-59.5,45.2c35.2-25.5,49.3-33.7,49.3-33.7c4.4,18.6,10.5,36,10.5,36C68,228.8,58,241.6,58,241.6
			C69.8,231.5,75.4,229,75.4,229C44,259.2,44,279,44,279C38.1,263.8,41.5,250.4,41.5,250.4z M181.2,210.1c0,0,14.6,21.1,15.5,40.5
			c0,0,0.6-5.2,0.3-13.5c0,0,7.8,23.2-1.5,58.3c-2-7.6-13.5,11.5-4.2,8.5c0,0-5.4,18.7-24.3,41.3c0,0,10.9-28.2,2.2-29.2
			c0,0,19.2-25.6,12.5-61.2c0,0,7.9-6.1-2.2-11.4c0,0-6.6-28.5-32.8-35.2c1.3,0.4,5.8,1.9,8.8,5.5c0,0-14-11.3-47.8,6.4
			c-0.6,0.3,31.6-18.1,57.3-23.7c0,0,6.5,3.2,18.8,22.2C183.8,218.7,183.2,214.9,181.2,210.1z M131.1,356.7c0.2-0.5,0.4-1.1,0.7-1.6
			c2.1-4,6.2-5.9,9.2-4.4s3.7,6.1,1.6,10.1c-1.8,3.5-5.4,5.5-8.2,4.7c0.5-0.5,1.1-1.2,1.5-2c1.5-2.8,1.1-6.1-0.9-7.2
			C133.8,355.9,132.5,356,131.1,356.7z M143.1,342.4c6.5,0.6,9.9,3.2,9.9,3.2c7.8,14.5-4.2,26.3-9.1,26.9
			C156.2,357.7,147.9,344.6,143.1,342.4z M119.1,353c-10.6,6.8-22.2,9.9-36.8,8c0,0-15.1-13.8-19.5-32.9
			c-9.9-38.1,13.2-78,44.9-98.3c31.7-20.3,59-8.3,67.9,14.7c8.8,23.1,6.7,64.7-31.9,95.7C143.8,340.2,134.5,337.2,119.1,353z
			 M72.4,256.7c-2.2,3.5-4,7.2-5.7,10.9c-1.7,3.8-3.2,7.5-4.5,11.5c-2.5,7.8-4.5,15.8-4.9,23.9c-0.7,8.2-0.1,16.3,1.8,24.3
			c0.9,4,2.2,7.9,3.8,11.7c1.5,3.8,3.5,7.5,5.4,11.1c-4.8-6.8-8.4-14.3-10.5-22.4c-2.2-8.1-2.8-16.5-2.2-24.8
			c0.7-8.3,2.5-16.5,5.5-24.3C63.7,270.8,67.5,263.4,72.4,256.7z M54,263.6c3.9-7.4,8.2-14.5,13.7-20.9l2-2.5
			c0.7-0.8,1.5-1.5,2.2-2.3l4.3-4.5c3.1-2.8,6.1-5.8,9.4-8.4c6.5-5.2,13.5-10,20.8-14.1c7.3-4,15-7.5,22.9-9.9
			c-3.8,1.5-7.6,3.3-11.3,5.2c-1.8,0.9-3.7,1.9-5.5,2.8l-5.4,3.1c-7.2,4.2-13.9,9-20.3,14.2c-3.3,2.5-6.3,5.4-9.4,8.2l-4.3,4.5
			c-0.7,0.8-1.5,1.5-2.2,2.2l-2,2.3c-1.3,1.5-2.8,3.1-4.1,4.7l-3.7,5c-0.6,0.8-1.3,1.6-1.8,2.5l-1.7,2.6L54,263.6z M46.7,289.5
			l-0.5,2.8l-0.3,2.9c-0.2,1.9-0.5,3.8-0.5,5.8c-0.4,7.7,0.2,15.5,2.2,23c1.8,7.5,5.3,14.5,10.1,20.6c4.7,6.1,10.8,11.2,17.6,14.9
			c-1.8-0.8-3.5-1.7-5.2-2.7l-2.5-1.5c-0.8-0.5-1.7-1.1-2.5-1.7c-1.5-1.2-3.2-2.4-4.5-3.8l-2.2-2.1c-0.7-0.7-1.3-1.5-1.9-2.2
			c-5.1-6.1-8.6-13.4-10.7-21c-1.9-7.7-2.5-15.7-1.8-23.5c0.1-2,0.5-3.9,0.7-5.8l0.5-2.9l0.6-2.8c0.8-3.8,2-7.6,3.2-11.3
			C48.3,281.8,47.3,285.6,46.7,289.5z M39.6,295.5c0.7-4.6,1.7-9.2,3.3-13.5c-0.4,2.3-0.8,4.5-1.1,6.8c-0.3,2.2-0.6,4.5-0.8,6.8
			c-0.4,4.5-0.6,9.2-0.5,13.7c0,4.5,0.5,9.1,1.2,13.6l0.6,3.4c0.2,1.2,0.6,2.2,0.8,3.3c0.5,2.2,1.5,4.3,2.1,6.5
			c-2.2-4.1-3.9-8.4-5-12.9c-1.1-4.5-1.7-9.2-1.8-13.9C38.6,304.7,38.8,300,39.6,295.5z M45.8,365.6c3.4,3.1,6.5,4.5,6.5,4.5
			c-16-14.5-21.7-31.7-21.7-31.7c1,3.7,1.8,7,1.8,7c-6.9-13.9-7.3-36.9-7.3-36.9c10.1,28.7,22.5,30.6,22.9,31.2
			c14,23.4,28.9,24.9,28.9,24.9c-5.2-1.7-7.3-4.1-7.3-4.1c25.5,10,50.1-5.4,50.1-5.4c-13.7,20.6-33.9,23.1-33.9,23.1
			c-13.2,1.7-22.5-2.6-22.5-2.6c8.8,6.2,21.9,6.8,21.9,6.8C58,382.8,45.8,365.6,45.8,365.6z M86.4,389.1c0,0,16.2,2.2,36.4-6.9
			c0,0,4.9,0,13.6-2.6C145.1,377,116.8,394.3,86.4,389.1z M134,375.3c-1.5,0.1-2.8,0-4.2-0.1c-2.8-0.2-5.5,0.6-7.9,1.7
			c-2.5,1.2-5.1,2.5-7.8,3.5s-5.4,1.9-8.1,2.6c-5.5,1.5-11.2,2.4-16.9,2.6c-2.8,0.1-5.7,0.1-8.5-0.2c-2.8-0.3-5.6-0.8-8.4-1.5
			c2.8,0.3,5.6,0.6,8.4,0.5c2.8,0.1,5.6-0.1,8.4-0.3c5.5-0.5,11.1-1.5,16.5-3c5.5-1.4,10.5-3.4,15.8-5.6c2.7-1,5.6-1.6,8.5-1.3
			c1.5,0.2,2.8,0.4,4.2,0.5c1.4,0.1,2.8-0.1,4.2-0.3C136.8,374.9,135.4,375.2,134,375.3z M133.9,372.3c-2.6-0.3-4.9-1.8-6.5-3.8
			c2.1,1.4,4.4,2.2,6.6,2.3c2.3,0,4.5-0.8,6.3-2.1s3.4-3.2,4.5-5.2c1.2-2.1,1.9-4.3,2.5-6.8c0.2,2.5-0.2,5.1-1.2,7.4
			c-1,2.4-2.6,4.5-4.8,6.1C139.3,371.9,136.5,372.7,133.9,372.3z M160.5,368.6c-0.8,1.8-2,3.4-3.3,4.8c-0.7,0.7-1.5,1.3-2.2,1.9
			c-0.8,0.5-1.6,1.1-2.6,1.4c-1.8,0.8-3.8,1.2-5.6,1.2c1.8-0.8,3.5-1.5,5-2.4c1.5-0.9,2.9-2,4.2-3.3c2.5-2.5,4.5-5.6,6.2-9
			C161.9,365,161.3,366.8,160.5,368.6z M203.6,292c-0.8,3.2-1.6,6.3-2.6,9.4c-2,6.2-4.5,12.2-7.4,18.1c-3,5.8-6.2,11.5-10.2,16.7
			c-1.8,2.7-3.9,5.2-5.9,7.7c-1,1.3-2.2,2.5-3.2,3.6c-1.1,1.2-2.2,2.4-3.3,3.5c3.9-5.2,7.9-10.2,11.4-15.7c3.5-5.4,6.7-11,9.6-16.7
			c3-5.7,5.5-11.7,7.7-17.7c2.2-6,4.2-12.2,5.5-18.5C204.9,285.6,204.2,288.8,203.6,292z M200.1,233.1c2.6,7.4,3.8,15.2,4.1,22.9
			c0.3,3.8,0.1,7.8-0.1,11.6c-0.4,3.8-0.6,7.8-1.4,11.5c-1.2,7.7-3.5,15.2-5.9,22.5l-2.2,5.4c-0.8,1.8-1.4,3.6-2.3,5.3l-2.5,5.2
			l-1.3,2.6l-1.5,2.5c-3.8,6.8-8.1,13.2-12.8,19.3l-3.6,4.5c-1.2,1.5-2.4,3.1-3.7,4.5l-7.8,8.5c10.2-11.5,19.5-23.9,26.7-37.5
			l1.4-2.5l1.2-2.6l2.5-5.2c0.9-1.7,1.5-3.5,2.2-5.3l2.1-5.3c2.4-7.3,4.5-14.6,5.7-22.2c0.8-3.8,1-7.5,1.5-11.4
			c0.2-3.8,0.4-7.6,0.2-11.5c-0.3-7.6-1.4-15.2-3.8-22.5l-0.9-2.7l-1.2-2.6c-0.7-1.8-1.7-3.5-2.5-5.2c-1.9-3.3-4-6.5-6.4-9.5
			c-4.8-6-10.4-11.4-16.9-15.5C184.1,206,194.9,218.4,200.1,233.1z M154.8,162c-1.5-0.8-3-1.5-3.8-1.8c-0.5-0.2-0.8-0.3-0.6-0.2
			c0.3,0.2,14.2,19.5,14.2,19.5c-5.5-4.9-11.1-9.4-11.1-9.4s8.5,11.7,2.4,21.1c1-6.7-1.5-10.4-1.5-10.4
			c-4.8-18.2-13.9-32.6-13.9-32.6C148.9,155.9,154.8,162,154.8,162z M137.7,147c1.3,1.2,2.5,2.8,3.2,4.3c3.2,6,6.2,12.1,8.8,18.4
			c1.2,3.2,2.5,6.4,3.3,9.7c0.2,0.8,0.3,1.7,0.5,2.5c0.1,0.8,0.2,1.8,0.2,2.6c-0.1,1.8-0.7,3.5-1.5,5.1c-1.7,3.2-4.8,5.3-7.9,6.5
			c-3.2,1.3-6.5,1.9-9.9,2.2c3.3-0.6,6.6-1.4,9.7-2.8c3-1.5,5.8-3.5,7.2-6.5c0.7-1.5,1.2-3.1,1.2-4.5c0-0.8-0.2-1.6-0.2-2.4
			l-0.5-2.4c-0.8-3.2-2.1-6.4-3.4-9.5c-2.6-6.2-5.7-12.2-8.8-18.2c-0.8-1.5-1.6-2.7-2.8-3.8c-1.2-1.1-2.5-1.8-4.1-2.4
			c-3-1.1-6.4-1-9.5-0.4c-4.2,1.8-8.4,3.8-12.5,5.8l-12.5,6.2c4-2.4,8.1-4.7,12.1-6.9c4.1-2.2,8.2-4.4,12.5-6.4h0.1h0.1
			c3.5-0.8,7.1-0.9,10.5,0.2C134.7,144.9,136.3,145.8,137.7,147z M124.4,141.6l-12.5,5.2c0.8-0.5,18.6-12.3,14.1-25.2
			c0,0,6.8-6.5,12.5-11.8c0,0,3.3,2.1,8.5,1.7l-2.6,31.6C144.5,143,135.7,138.6,124.4,141.6z M211.9,204.3c0,0-18.4-10.5-30.1-36.6
			c0,0-1.5-3.2-5.7-5.6c0,0,3.8,0.7,11.9,6.8c0,0-6-12.6-33.3-19.6c0,0-2-9.2,2.6-41.4c0,0-4.5,15-7.3,36.3c0,0-3.4-28,20.8-86.5
			c0,0-10.2,13.5-18.2,41.1c0,0,5.1-30.7,22.5-53.8c0,0,12.9,14.9,27.6,26.9c0,0-11.7-17.2-20.5-30.8c0,0,20.4,23.1,26.4,32.2
			c-3.7,8.5-13.2,40.1-12.2,67.1c-8.1,1.8-3,20.7,2.3,12.5c0,0,6.6,26.3,31,37.9c0,0-8-0.3-17.9-7.8c0,0,16.5,20,50.1,12.7
			c0,0,11.8,5.2,33.6-3.8c0,0-4,3.7-10,6c0,0,15.1-4.2,34.7-23c0,0-16.9,21.6-44.6,31.2c3.4-9-24.7,2.5-13.9,4.3
			c-10.1,3.6-34.6,4.9-56.7-13C205,197.3,207.7,201,211.9,204.3z M298.4,208.4c0,0,4.6-0.4,8.8-2.9c-6.6,4.4-31.3,18.8-60.8,11.9
			c0,0,18.8,3.3,48.7-13.2c29-15.2,50.2-52.9,50.2-52.9s-1.3,12.5-11.1,23.5c0,0,7.3-6.9,17.2-21.7
			C351.5,152.9,330.7,191.1,298.4,208.4z M339.5,154.4c-1.2,2.2-2.5,4.2-3.7,6.3c-1.3,2.1-2.7,4.1-4,6.2
			c-5.6,8.1-12.2,15.4-19.5,21.9c-7.4,6.5-15.7,11.9-24.5,16.1c-2.2,1.2-4.5,1.9-6.8,2.8l-3.4,1.3l-3.5,1.1
			c-4.7,1.5-9.5,2.4-14.2,3.3c9.5-2.3,18.7-5.5,27.3-9.9c8.6-4.4,16.8-9.8,24-16.2c7.3-6.3,13.8-13.6,19.5-21.4
			c1.4-2,2.8-3.9,4.2-5.9c1.3-2.1,2.7-4.1,3.9-6.2c2.6-4.2,4.8-8.5,7.1-12.8C343.9,145.7,341.8,150.1,339.5,154.4z M322.1,147.9
			c-4.2,8.2-9.7,15.9-16.2,22.4c-6.6,6.5-14.5,11.9-23.1,15.3l-3.2,1.3c-1.1,0.4-2.2,0.6-3.3,1c-2.2,0.6-4.5,1.3-6.8,1.6L266,190
			c-1.2,0.2-2.3,0.4-3.5,0.4l-6.9,0.4c9.2-0.8,18.2-2.8,26.5-6.5c8.3-3.6,15.9-8.8,22.3-15.3c6.5-6.3,11.9-13.9,16.3-21.8
			c1.2-1.9,2.2-4,3.2-6.1c1.1-2,1.9-4.2,2.8-6.2c1-2.1,1.7-4.2,2.6-6.4c0.8-2.2,1.5-4.3,2.3-6.5C329.5,131,326.3,139.7,322.1,147.9z
			 M331.1,106.5c-11.9,63.1-51.6,86.7-91.3,80.2c-15.9-2.4-29.6-27.5-21.6-67.4c9.7-53.8,42.6-84.4,73-84.2
			c30.3,0.2,45.1,12.9,45.8,53.5C337,88.6,332.8,97.2,331.1,106.5z M341.9,110.2c-4.4-2.3-5.8-8.5-3-13.6c2.8-5.2,8.5-7.6,12.9-5.2
			c4.4,2.3,5.8,8.5,3,13.6C352.1,110.2,346.3,112.5,341.9,110.2z M343.3,24.7l3.9,4.1c1.2,1.5,2.4,3,3.5,4.5c1,1.6,2.1,3.2,3.1,4.8
			c3.8,6.6,6.3,13.9,8.1,21.2c0.8,3.7,1.5,7.5,1.9,11.2c0.5,3.8,0.7,7.5,0.8,11.3c-0.1,3.6,1.8,6.9,3.1,10.5s1.2,7.7-0.1,11.2
			c0.4-1.8,0.5-3.7,0.5-5.5c-0.1-1.8-0.6-3.6-1.2-5.4c-0.7-1.7-1.5-3.4-2.2-5.2c-0.8-1.8-1.3-3.7-1.4-5.7c-0.4-7.5-1.2-14.9-3-22.2
			c-1.6-7.2-4.1-14.3-7.5-20.9c-3.4-6.6-7.9-12.7-13.5-17.7C340.4,22.2,341.8,23.4,343.3,24.7z M341.9,28.4c0,0-5.5-3.2-13.9-4.2
			c0,0-15.2-10.1-55.3,2.7c0,0,3.6,0.1,13.3,0.2c0,0-27.9-0.5-58.8,35.8c0,0,4.5-9.2,10-22c0,0,5.9-10.3,19.2-19.1
			c0,0-9.4,2.9-18.5,10.2c0,0,30.2-27.9,66.5-22c0,0-3.8-0.4-9,1.6C295.6,11.7,322,9.8,341.9,28.4z"/>
		<path class="st1" d="M340.5,97.4c-2.2,4.3-1.3,9.3,2.2,11.2c3.5,1.8,8.2-0.2,10.5-4.5c2.2-4.3,1.3-9.3-2.2-11.2
			C347.5,91.1,342.8,93.1,340.5,97.4z M353.8,101.2c-0.3-0.9-1-1.7-1.8-2.2c-2.2-1.2-4.9,0-6.3,2.5c-0.8,1.5-0.8,3.3-0.3,4.6
			c-0.2-0.1-0.4-0.2-0.6-0.3c-2.8-1.5-3.8-5.5-2-8.9s5.6-4.9,8.5-3.5C353.7,94.9,354.7,98.2,353.8,101.2z"/>
		<path class="st1" d="M196.6,86.4c-0.9,2.7-1.9,5.9-2.8,9.3c-0.5,1.8-0.9,3.5-1.3,5.4s-0.8,3.7-1.1,5.6c-0.2,1.9-0.5,3.8-0.8,5.7
			c-0.2,1.8-0.3,3.8-0.4,5.5c-0.1,3.6-0.1,7,0.3,9.9c0.2,1.5,0.3,2.8,0.5,3.9s0.4,2.2,0.6,3c0.4,1.6,0.6,2.5,0.6,2.5s0.1-1,0.1-2.6
			c0-0.8,0-1.8,0.1-3s0.1-2.5,0.2-3.8c0.2-2.8,0.5-6.1,0.8-9.5c0.2-1.8,0.4-3.5,0.7-5.4c0.2-1.8,0.5-3.7,0.8-5.5s0.6-3.7,0.9-5.5
			c0.3-1.8,0.7-3.6,1-5.4c0.7-3.5,1.2-6.7,1.8-9.5c0.5-2.8,0.8-5.2,1.1-6.8c0.2-1.6,0.3-2.6,0.3-2.6s-0.4,0.8-1,2.5
			C198.5,81.5,197.6,83.7,196.6,86.4z"/>
		<path class="st1" d="M187.3,125.2c-0.1-1.4-0.2-2.8-0.2-4.1c-0.1-1.4-0.1-2.8-0.1-4.2c0-1.4,0-2.7,0-4c0.1-2.6,0.1-5,0.2-7.2
			c0.1-2.1,0.1-3.8,0.2-5.1c0.1-1.2,0.1-2,0.1-2s-0.3,0.6-0.8,1.8c-0.4,1.2-1.1,2.8-1.5,4.9c-0.5,2.1-1,4.5-1.3,7.2
			c-0.1,1.3-0.3,2.7-0.3,4.2c-0.1,1.4,0,2.8,0,4.3c0.1,1.5,0.2,2.8,0.3,4.3c0.2,1.4,0.4,2.8,0.6,4.1c0.5,2.6,1.1,5.1,1.8,7.2
			c0.6,2.1,1.4,3.7,1.9,4.8c0.5,1.2,0.8,1.8,0.8,1.8s0-0.7-0.2-1.9c-0.2-1.2-0.3-3-0.5-5.1s-0.4-4.5-0.6-7.1
			C187.5,127.9,187.3,126.6,187.3,125.2z"/>
		<path class="st1" d="M181.9,135.6c-0.3-1-0.5-2.1-0.8-3.2s-0.5-2.1-0.8-3.2c-0.2-1-0.5-2.1-0.7-3.1c-0.5-2-0.8-3.8-1.2-5.5
			c-0.4-1.6-0.8-2.9-1-3.9c-0.2-0.9-0.4-1.5-0.4-1.5s-0.2,0.5-0.3,1.5s-0.4,2.4-0.5,4.1c-0.1,1.7-0.1,3.7,0.2,5.8
			c0.2,1.1,0.2,2.2,0.4,3.2c0.2,1.1,0.5,2.2,0.6,3.3c0.3,1.1,0.6,2.2,0.9,3.2c0.3,1.1,0.7,2.1,1.1,3.1c0.8,2,1.6,3.8,2.5,5.2
			c0.8,1.5,1.7,2.6,2.2,3.5c0.6,0.8,1,1.2,1,1.2s-0.1-0.5-0.3-1.5c-0.2-0.9-0.5-2.3-0.9-3.9c-0.4-1.6-0.8-3.5-1.4-5.5
			C182.4,137.6,182.2,136.6,181.9,135.6z"/>
		<path class="st1" d="M179,147.7c-0.2-1.1-0.3-2.2-0.6-3.5c-0.2-0.6-0.2-1.3-0.4-1.9c-0.2-0.7-0.3-1.3-0.5-2
			c-0.2-0.7-0.3-1.3-0.5-2c-0.2-0.7-0.4-1.3-0.5-1.9c-0.3-1.2-0.7-2.4-1.1-3.4c-0.3-1-0.8-1.8-0.9-2.5c-0.2-0.6-0.5-0.9-0.5-0.9
			s-0.2,0.4-0.3,1c-0.1,0.6-0.4,1.5-0.5,2.6c-0.2,1.1-0.2,2.4,0,3.7c0.1,0.7,0.1,1.4,0.2,2.1c0.2,0.7,0.3,1.4,0.4,2.2
			c0.2,0.7,0.4,1.4,0.6,2.1s0.5,1.3,0.8,1.9c0.5,1.2,1.2,2.4,1.7,3.3c0.5,0.9,1.2,1.6,1.6,2.2c0.4,0.5,0.7,0.8,0.7,0.8s0-0.4-0.1-1
			C179.2,149.7,179.2,148.8,179,147.7z"/>
		<path class="st1" d="M225.5,206.6c1.3,0.5,2.8,0.9,4.1,1.3c1.4,0.4,2.8,0.8,4.2,1c1.4,0.3,2.8,0.5,4.2,0.8
			c2.7,0.4,5.2,0.6,7.4,0.6c2.2,0.1,4-0.1,5.2-0.2c1.2-0.2,2-0.2,2-0.2s-0.7-0.1-2-0.2c-1.2-0.1-3-0.3-5.2-0.5
			c-2.2-0.2-4.6-0.7-7.2-1.2c-1.3-0.3-2.6-0.5-4-0.8c-1.4-0.3-2.7-0.7-4.1-1.1c-1.4-0.4-2.7-0.8-4-1.2s-2.6-0.9-3.8-1.4
			c-2.5-1-4.8-1.9-6.7-2.8c-1.9-0.9-3.5-1.7-4.7-2.2s-1.8-0.9-1.8-0.9s0.6,0.5,1.5,1.2c1,0.8,2.5,1.8,4.4,2.9
			c1.8,1.2,4.1,2.3,6.6,3.4C222.8,205.5,224.1,206.1,225.5,206.6z"/>
		<path class="st1" d="M207,178.6c-0.6-0.8-1.3-1.7-2.1-2.7c-0.4-0.5-0.8-1-1.2-1.5c-0.4-0.5-0.8-1-1.2-1.5
			c-0.4-0.5-0.8-1.1-1.2-1.5c-0.4-0.5-0.8-1-1.2-1.5c-0.8-1-1.5-1.8-2.1-2.7c-0.6-0.8-1.2-1.4-1.5-1.8c-0.4-0.5-0.6-0.7-0.6-0.7
			s0.1,0.3,0.3,0.8c0.2,0.5,0.5,1.4,1,2.2c0.5,0.9,1,1.9,1.7,3c0.3,0.5,0.7,1.1,1.1,1.6c0.4,0.5,0.8,1.1,1.2,1.6
			c0.5,0.5,0.8,1.1,1.3,1.5c0.5,0.5,0.8,1,1.3,1.5c0.8,0.9,1.7,1.7,2.5,2.4c0.8,0.7,1.5,1.2,1.9,1.5c0.5,0.3,0.8,0.5,0.8,0.5
			s-0.2-0.3-0.5-0.8C208.1,180.1,207.6,179.4,207,178.6z"/>
		<path class="st1" d="M65.2,374c1.2,0.5,2.4,0.8,3.5,1.2c1.2,0.3,2.5,0.6,3.6,0.8c1.2,0.2,2.4,0.4,3.6,0.5c2.3,0.2,4.5,0.2,6.4,0.1
			c1.8-0.1,3.4-0.4,4.5-0.6c1.1-0.2,1.7-0.4,1.7-0.4s-0.6,0-1.7,0c-1.1,0-2.6,0-4.5-0.2c-1.8-0.1-3.9-0.3-6.2-0.6
			c-1.2-0.2-2.3-0.4-3.5-0.6s-2.3-0.5-3.5-0.8c-1.2-0.3-2.3-0.6-3.5-1.1c-1.2-0.4-2.2-0.8-3.3-1.2c-2.1-0.8-4.1-1.7-5.7-2.5
			c-1.6-0.8-3-1.5-3.9-2.2c-0.9-0.5-1.5-0.8-1.5-0.8s0.5,0.5,1.2,1.2c0.8,0.7,2,1.7,3.5,2.8c1.5,1.1,3.5,2.2,5.5,3.2
			C63,373.1,64,373.7,65.2,374z"/>
		<path class="st1" d="M46.9,359.5c-0.5-0.7-1.2-1.5-1.8-2.4c-0.3-0.4-0.7-0.8-1.1-1.3c-0.4-0.5-0.7-0.9-1.1-1.3
			c-0.4-0.5-0.8-0.8-1.1-1.3c-0.4-0.5-0.7-0.8-1-1.3c-0.6-0.8-1.2-1.7-1.8-2.4c-0.5-0.7-0.9-1.3-1.2-1.7c-0.3-0.5-0.5-0.7-0.5-0.7
			s0,0.3,0.2,0.8c0.2,0.5,0.3,1.2,0.6,2.1c0.3,0.8,0.8,1.8,1.3,2.8c0.3,0.5,0.6,1,0.9,1.5c0.3,0.5,0.7,0.9,1.1,1.5
			c0.4,0.5,0.8,0.9,1.2,1.3c0.4,0.4,0.8,0.8,1.2,1.2c0.8,0.8,1.6,1.5,2.3,2c0.7,0.5,1.3,0.9,1.8,1.2s0.7,0.5,0.7,0.5
			s-0.2-0.2-0.5-0.7C47.8,360.9,47.4,360.2,46.9,359.5z"/>
		<path class="st1" d="M185.2,265.5c0.1,2.8,0.1,6-0.2,9.5c-0.2,1.7-0.4,3.5-0.7,5.2c-0.3,1.8-0.6,3.6-1,5.4
			c-0.4,1.8-0.8,3.6-1.2,5.4c-0.4,1.8-0.8,3.5-1.3,5.2c-0.9,3.3-1.9,6.4-2.9,9c-1,2.6-2,4.7-2.8,6.2c-0.8,1.5-1.2,2.2-1.2,2.2
			s0.6-0.7,1.5-2.1c0.9-1.4,2.2-3.3,3.4-5.8c1.2-2.5,2.5-5.6,3.5-8.9c0.5-1.7,1-3.5,1.5-5.2c0.5-1.8,0.8-3.6,1.2-5.5
			c0.4-1.8,0.7-3.7,1-5.5c0.3-1.8,0.5-3.7,0.5-5.5c0.2-3.5-0.1-6.8-0.4-9.6c-0.3-2.8-0.8-5.1-1-6.7c-0.3-1.6-0.5-2.5-0.5-2.5
			s0.1,0.9,0.2,2.5C185,260.5,185.1,262.8,185.2,265.5z"/>
		<path class="st1" d="M163.2,213c1.2,1.3,2.6,2.8,4.1,4.5c0.7,0.8,1.4,1.8,2.2,2.7c0.7,0.9,1.4,1.8,2.1,2.8c0.7,1,1.4,1.9,2,2.9
			c0.7,1,1.2,1.9,1.8,2.9c1.1,1.9,2.2,3.8,2.9,5.3c0.8,1.6,1.5,2.9,1.8,3.9c0.5,0.9,0.7,1.5,0.7,1.5s-0.2-0.6-0.4-1.6
			c-0.2-1-0.6-2.5-1.2-4.2c-0.6-1.7-1.5-3.7-2.5-5.7c-0.5-1-1.1-2.1-1.7-3.1c-0.6-1-1.3-2-2-3.1c-0.7-1-1.5-2-2.2-2.8
			c-0.7-0.9-1.5-1.8-2.3-2.6c-1.5-1.6-3.2-3.1-4.5-4.2c-1.4-1.2-2.7-2-3.5-2.6c-0.9-0.5-1.4-0.9-1.4-0.9s0.5,0.5,1.2,1.2
			C160.9,210.7,162,211.7,163.2,213z"/>
		<path class="st1" d="M160.1,122.2c0.5-3.7,0.9-8,1.4-12.6c0.2-2.3,0.6-4.7,1-7.1c0.3-2.4,0.7-4.8,1-7.3c0.3-2.5,0.8-4.8,1.3-7.2
			c0.5-2.4,1-4.7,1.6-6.9c1.1-4.5,2.3-8.7,3.3-12.2c1-3.6,1.8-6.6,2.5-8.7c0.5-2.1,0.9-3.3,0.9-3.3s-0.5,1.2-1.2,3.2
			c-0.8,2.1-1.9,4.9-3.1,8.5c-1.2,3.5-2.6,7.7-3.8,12.2c-0.6,2.2-1.2,4.6-1.8,7c-0.5,2.4-1.1,4.8-1.4,7.3c-0.3,2.5-0.7,4.9-1,7.4
			s-0.7,4.8-0.8,7.2c-0.4,4.6-0.6,9-0.8,12.7c-0.2,3.7-0.3,6.8-0.5,9c-0.1,2.2-0.2,3.4-0.2,3.4s0.2-1.2,0.5-3.4
			C159.2,129,159.6,125.9,160.1,122.2z"/>
		<path class="st1" d="M171.2,72c-0.5,1.5-1,3-1.4,4.6c-0.5,1.6-0.8,3.2-1.3,4.8c-0.4,1.6-0.8,3.2-1.1,4.8c-0.3,1.6-0.6,3.2-0.9,4.8
			c-0.5,3.1-1,6-1.2,8.5c-0.3,2.5-0.5,4.5-0.5,6c-0.1,1.5-0.2,2.3-0.2,2.3s0.2-0.8,0.5-2.2c0.3-1.5,0.7-3.5,1.2-5.9s1.2-5.2,1.8-8.3
			c0.4-1.5,0.7-3.1,1.1-4.7s0.8-3.2,1.2-4.8s0.8-3.2,1.2-4.8c0.4-1.5,0.8-3.2,1.2-4.6c0.8-3,1.6-5.8,2.3-8.2
			c0.7-2.4,1.2-4.4,1.7-5.8c0.4-1.4,0.6-2.2,0.6-2.2s-0.4,0.8-1,2.1c-0.6,1.3-1.5,3.2-2.3,5.5C173.1,66.2,172.2,69,171.2,72z"/>
		<path class="st1" d="M178.9,63.7c-0.5,1.3-1.2,2.8-1.7,4.4c-0.3,0.8-0.6,1.7-0.8,2.5c-0.3,0.8-0.5,1.8-0.8,2.6
			c-0.2,0.9-0.5,1.8-0.8,2.6c-0.2,0.8-0.5,1.8-0.7,2.6c-0.4,1.7-0.8,3.2-1,4.6s-0.4,2.5-0.5,3.3c-0.1,0.8-0.2,1.3-0.2,1.3
			s0.2-0.5,0.5-1.2c0.3-0.8,0.8-1.8,1.2-3.2c0.5-1.3,1-2.8,1.5-4.5c0.2-0.8,0.5-1.7,0.8-2.5c0.2-0.8,0.5-1.8,0.8-2.6
			s0.5-1.8,0.8-2.6c0.2-0.8,0.5-1.7,0.7-2.5c0.5-1.7,0.8-3.2,1.2-4.5c0.3-1.3,0.5-2.5,0.7-3.3c0.2-0.8,0.2-1.2,0.2-1.2
			s-0.2,0.4-0.5,1.2C180,61.4,179.5,62.4,178.9,63.7z"/>
		<path class="st1" d="M85,215.7c2.8-1.7,6.2-3.7,9.8-5.7c1.8-1,3.7-2,5.6-3c1.9-1,3.8-2,5.8-3l2.4-1.2l3.2-1.5l-0.5-1.9
			c-0.6-2.1-1.2-4.1-1.8-6.1c-1.1-4-2-7.7-2.7-10.9c-0.7-3.2-1.3-5.9-1.6-7.8c-0.4-1.9-0.5-3-0.5-3s0.1,1.1,0.2,3
			c0.2,1.9,0.4,4.7,0.9,8c0.5,3.3,1.2,7.1,2.2,11.2c0.5,2,1,4.1,1.6,6.2c0.2,0.5,0.1,0.4,0.2,0.4l0,0l-0.5,0.2l-1.2,0.5l-2.5,1.2
			c-2,1-3.9,2-5.8,3.1c-1.9,1.1-3.8,2.2-5.5,3.2c-3.5,2.2-6.8,4.3-9.5,6.2c-2.7,1.9-4.9,3.6-6.4,4.8s-2.4,1.9-2.4,1.9
			s0.9-0.6,2.5-1.6C79.8,218.8,82.2,217.4,85,215.7z"/>
		<path class="st1" d="M84.6,210.9c1.2-0.6,2.5-1.3,3.9-2c0.7-0.4,1.5-0.8,2.2-1.2c0.8-0.4,1.5-0.8,2.2-1.2c0.8-0.4,1.5-0.8,2.2-1.2
			c0.8-0.4,1.5-0.8,2.2-1.2c1.4-0.8,2.8-1.5,3.8-2.1c1.2-0.6,2.1-1.2,2.8-1.5c0.6-0.4,1-0.6,1-0.6s-0.5,0.1-1.2,0.2
			c-0.7,0.2-1.8,0.5-3,0.8c-1.2,0.4-2.7,0.9-4.2,1.5c-0.8,0.3-1.5,0.7-2.3,1c-0.8,0.4-1.5,0.8-2.3,1.2c-0.8,0.4-1.5,0.8-2.2,1.2
			c-0.8,0.4-1.5,0.8-2.2,1.3c-1.4,0.8-2.6,1.8-3.6,2.5c-1.1,0.8-1.8,1.5-2.5,2c-0.5,0.5-0.8,0.8-0.8,0.8s0.4-0.2,1.1-0.5
			C82.4,212,83.4,211.5,84.6,210.9z"/>
	</g>
</g>
</svg>
