<?xml version="1.0" encoding="utf-8"?>
<!-- Generator: Adobe Illustrator 25.0.0, SVG Export Plug-In . SVG Version: 6.00 Build 0)  -->
<svg version="1.1" id="Layer_1" xmlns="http://www.w3.org/2000/svg" xmlns:xlink="http://www.w3.org/1999/xlink" x="0px" y="0px"
	 viewBox="0 0 400 400" style="enable-background:new 0 0 400 400;" xml:space="preserve">
<style type="text/css">
	.st0{opacity:0.1;}
	.st1{fill:#895003;}
	.st2{enable-background:new    ;}
	.st3{clip-path:url(#SVGID_2_);}
</style>
<g>
	<g class="st0">
		<path class="st1" d="M312.2,317.6c1.3-3.1,2.3-6.3,2.9-9.7c0.3-1.6,0.5-3.3,0.6-5l0.4-4.8c1.1-12.7,0.8-33.2,3-45.8l3.2,1.5
			c0.2-0.9,0.3-1.8,0.5-2.7c1.9-9.6,4-19.1,6.3-28.6c3.2-12.4,6.7-24.7,11.8-36.4l0.2-0.6l-0.4-0.4c-3.4-2.8-7-5.2-10.7-7.6l6-11.8
			l0.6-1.2l0.6-1.2l5.3-10.6l13.3-26.3l0.8-1.6l1-2c0.6-1.3,1.2-2.7,1.8-4.1c1.1-2.7,2.1-5.5,3-8.5c1.7-5.7,2.7-11.7,3.2-17.7
			c0.8-12.1-0.9-24.3-5.2-35.7c-4.3-11.4-11.2-21.9-20-30.6S320.9,11,309.2,6.9c-11.8-4.1-24.5-5.5-36.9-4.1
			c-12.5,1.4-24.5,5.6-35.2,12.3c-10.7,6.6-19.9,15.8-26.6,26.5c-0.8,1.3-1.6,2.7-2.4,4c-0.7,1.3-1.5,2.9-2.1,3.9l-3.5,7l-7.1,14.1
			l-8.9,17.5l-0.5,1l-0.5,1l-4.3,8.5l-1.2,2.3c-4.3-1.4-8.7-3-12.7-5.1l-0.9-0.5l-0.5,0.9c-6.1,11.2-13.6,21.6-21.2,31.9
			c-6,8-12.4,15.9-19,23.5c-0.3,0.4-1.7,2.6-1.7,2.6l3.3,1.5l0.2,0.1c-0.8,0.8-1.6,1.7-2.5,2.6c-9,8.9-23.1,18.6-32.1,25.8
			c-1.2,1-2.5,1.9-3.7,2.8c-1.2,0.9-2.6,1.9-3.9,3c-2.6,2.1-5,4.6-7,7.3c-4.1,5.4-6.8,12-8,18.6c-1.3,6.6-1.2,13.5-0.4,20
			c0.9,6.6,2.5,13.1,4.7,19.2c3.7,10.5,9,20.3,15.2,29.5c0.3,0.4,0.6,0.8,0.9,1.3c0.6,0.9,1.3,1.8,1.9,2.8c0.1,0.2,0.2,0.3,0.3,0.5
			c0.1,0.2,0.2,0.4,0.4,0.5c1.4,1.9,2.8,3.7,4.2,5.5c0.7,0.9,1.4,1.8,2.2,2.7c0.7,0.9,1.4,1.7,2.2,2.5c0.2,0.2,0.3,0.4,0.5,0.6
			c1.5,1.7,3,3.4,4.5,5c0.9,1,1.8,1.9,2.7,2.8c2.5,2.5,5.1,5,7.7,7.4c0.8,0.7,1.6,1.4,2.4,2.1c9.9,8.6,20.7,16,32.4,21.9
			c11.7,5.9,24,10.5,36.7,13.5c1.6,0.4,3.1,0.7,4.7,1c3.5,0.7,7,1.3,10.7,1.8c1.3,0.2,2.6,0.4,3.9,0.5c2.2,0.3,4.5,0.5,6.8,0.6
			c0.2,0,0.5,0,0.7,0.1c1.1,0.1,2.2,0.2,3.3,0.2c1.2,0.1,2.3,0.1,3.5,0.1c1.7,0.1,3.4,0.1,5.1,0.1c0.8,0,1.7,0,2.5-0.1
			c0.2,0,0.3,0,0.5,0c1.2,0,2.4-0.1,3.5-0.1c0.4,0,0.9,0,1.3-0.1c10.5-0.6,20.8-2.2,30.9-5.1c12.6-3.7,24.9-9.7,34.5-19.1
			C305.5,329.4,309.6,323.9,312.2,317.6z M186.7,89.7l0.6-1.1l8.9-17.5l7.1-14.1l3.5-7c0.5-1.1,1.3-2.6,2.1-3.9
			c0.7-1.4,1.5-2.7,2.4-4c6.6-10.6,15.7-19.5,26.3-26.1c10.6-6.5,22.4-10.7,34.7-12.1c12.2-1.3,24.7,0.1,36.3,4.1
			c11.6,4,22.2,10.6,31,19s15.5,18.9,19.7,30.2c4.2,11.3,6,23.3,5.2,35.2c-0.4,5.9-1.5,11.8-3.1,17.5c-0.8,2.8-1.8,5.6-2.9,8.4
			c-0.6,1.4-1.1,2.7-1.8,4l-1,2l-0.8,1.6l-13.3,26.3l-5.3,10.5l-0.7,1.3l-0.7,1.3l-2.7,5.3c0-0.1,0.1-0.2,0.1-0.2s-1.6,2.2-3.8,6
			c-0.4-0.3-0.8-0.6-1.2-0.8c0.8-1.7,1.4-3.2,1.9-4.4l3.4-6.8l0.7-1.4l0.7-1.4l5.3-10.6l13.3-26.3l0.8-1.7l0.9-1.9
			c0.6-1.3,1.2-2.6,1.7-3.9c1.1-2.6,2-5.3,2.8-8c1.6-5.5,2.6-11.2,3-17c0.8-11.6-1-23.2-5.1-34.2C352.6,47.1,346,37,337.5,28.8
			c-8.5-8.2-18.8-14.6-30.1-18.4c-11-3.9-23.1-5.3-35-3.9c-11.9,1.3-23.4,5.4-33.7,11.8c-10.2,6.3-19,15.1-25.5,25.3
			c-0.8,1.3-1.6,2.5-2.3,3.9c-0.7,1.3-1.5,2.7-2,3.8l-3.5,7l-7.1,14l-8.8,17.3l-1.3,2.5l0,0l-0.7,1.4c-0.9,1.5-2.7,4.4-4.9,8.4
			c-0.4-0.1-0.9-0.3-1.3-0.4c0.9-2.1,1.6-3.9,2.1-5.2l2.7-5.4L186.7,89.7z M330.3,163c0,0-1.1,1.8-3,5.1
			c7.7-16.3,12.3-26.4,12.3-26.4s-6.4,11.4-16.8,30.7c-0.1-0.1-0.3-0.2-0.4-0.3l5-10l0.9-1.8l0.9-1.8l18.2-35.9c1-1.9,2.1-4.1,3-6.3
			c0.9-2.2,1.8-4.4,2.5-6.6c1.5-4.5,2.5-9.2,3-13.8c1.1-9.4,0.5-18.8-1.8-27.8c-4.5-17.9-15.9-33.8-31-43.8
			c-7.5-5-15.9-8.7-24.6-10.7s-17.8-2.5-26.8-1.3c-17.8,2.3-34.6,11.2-46.5,24.6c-3,3.4-5.6,7-7.9,10.9c-1.2,1.9-2.2,4-3.2,5.8
			l-2.9,5.6l-11.6,22.8l-4.8,9.6l-0.8,1.6l-0.8,1.6l-4.2,8.7h-0.1c8-16.9,12.8-27.7,12.8-27.7s-5.8,10.1-15,27.1
			c-0.1,0-0.2-0.1-0.3-0.1c3.3-7.1,5.2-11.8,5.2-11.8s-2.6,4.2-6.5,11.4c-0.3-0.1-0.7-0.2-1-0.3c1.1-2.5,2.1-4.7,2.8-6.3l1.3-2.5
			c0,0,0.2-0.3,0.3-0.6l0.3-0.5l1.3-2.5l8.8-17.3l7.1-14l3.5-7c0.6-1.1,1.3-2.5,2-3.8s1.5-2.6,2.3-3.8c6.3-10.2,15.1-18.8,25.3-25.2
			c10.2-6.3,21.6-10.4,33.5-11.7c11.9-1.4,23.9,0,35.1,3.8c11.2,3.8,21.4,10.2,29.9,18.3s15,18.2,19.1,29.1s5.8,22.5,5.1,34
			c-0.4,5.7-1.4,11.4-2.9,16.9c-0.8,2.7-1.7,5.4-2.8,8c-0.5,1.3-1.1,2.6-1.7,3.9l-0.9,1.9l-0.9,1.7l-13.3,26.3l-5.3,10.6l-0.7,1.5
			l-0.7,1.5l-1.1,2.2c-0.5,0.8-2.4,3.8-5,8.5c-0.3-0.2-0.6-0.4-0.9-0.6C328.6,167.2,330.3,163,330.3,163z M342.8,120.3
			c4.2-7.8,7-16.4,8-25.1c1.1-8.7,0.5-17.5-1.7-25.9c-4.2-16.7-14.8-31.4-28.8-40.6c-14-9.4-31.3-13.4-47.8-11.2
			C256,19.7,240.3,28,229.3,40.6c-2.7,3.1-5.2,6.5-7.4,10.2c-2.2,3.6-3.9,7.4-5.9,11.2l-11.6,22.8l-4.7,9.3l-0.9,1.8l-0.9,1.8
			l-3.6,7.1c-0.2,0-0.3-0.1-0.5-0.1c-0.8-0.1-1.6-0.3-2.3-0.5l0.1-0.1l0.2,0.1c1.2-2.4,2.2-4.6,3.1-6.6l0.6-1.2l0.9-1.7l0.9-1.7
			L216.9,54c4.5-8.9,10.9-16.9,18.6-23.1c7.7-6.3,16.7-11.1,26.4-13.8c9.6-2.7,19.7-3.4,29.7-2.1c9.9,1.3,19.5,4.8,28,10
			c8.6,5.2,15.9,12.2,21.6,20.3c5.7,8.1,9.7,17.6,11.7,27.4c1.9,9.8,1.9,19.9-0.3,29.7c-1.1,4.8-2.6,9.7-4.7,14.2
			c-1,2.3-2.2,4.4-3.2,6.5l-3.3,6.4l-14.1,27.9l-0.7,1.4c-1.5,2.5-3.7,6.5-6.4,11.6c-0.5-0.4-1-0.7-1.4-1.1c-0.1,0-0.1-0.1-0.2-0.1
			c-0.1-0.1-0.1-0.1-0.2-0.2l4.5-9l1-2l1-2L342.8,120.3z M336.4,117.1c1.1-2.1,1.9-3.7,2.7-5.6c0.8-1.8,1.5-3.7,2.1-5.5
			c1.2-3.7,2.1-7.6,2.5-11.6c1-7.7,0.4-15.7-1.5-23.2c-3.8-15-13.3-28.2-25.9-36.5c-12.6-8.5-28.1-12.1-43-10.1
			c-14.9,1.9-28.9,9.4-38.8,20.6c-2.5,2.8-4.7,5.8-6.6,9.1c-0.5,0.8-0.9,1.6-1.4,2.4l-1.4,2.7l-2.9,5.6l-11.6,22.8l-4.5,8.9
			l-1.1,2.2l-1.1,2.2l-2.4,4.7c-0.9-0.1-1.8-0.2-2.6-0.3l0.1-0.1h0.1c0.5-0.1,0.7-0.2,0.7-0.2s-0.2-0.1-0.6-0.2l0.2-0.4l0.9,0.2
			c0.3-1.7,0.8-3.3,1.4-4.7l0,0l1-2l1-2.1l0.2-0.5c0.3-0.6,0.7-1.1,1-1.6l2.5-3.9c0,0-0.7,0.8-1.8,2.2l17.6-34.8
			c4-8,9.8-15.2,16.7-20.8c6.9-5.7,15-10,23.6-12.4c8.7-2.4,17.7-3.1,26.7-1.9c8.9,1.2,17.5,4.3,25.2,9s14.3,11,19.4,18.3
			c5.1,7.3,8.7,15.8,10.5,24.5c1.7,8.8,1.7,17.9-0.3,26.7c-1,4.3-2.4,8.7-4.2,12.8c-0.5,1-0.9,2-1.5,3l-1.4,3.2l-3.3,6.4l-13.4,26.5
			c-0.1,0.2-0.2,0.4-0.3,0.6c0.7-2.6,1.1-4.1,1.1-4.1l-1.7,4.3c-0.4,1.1-0.9,2.3-1.5,3.7c-1.2,2.1-2.5,4.5-4.5,6.5l0.9,0.9l-0.2,0.3
			l-0.1-0.1c-0.4-0.3-0.6-0.4-0.6-0.4s0.1,0.3,0.2,0.7c0,0.1,0.1,0.3,0.2,0.4l-0.2,0.3c-0.6-0.6-1.3-1.1-1.9-1.7l3.6-7l1.2-2.3
			l1.2-2.3L336.4,117.1z M331.4,112.4l-1.6,3.2l-3.3,6.4l-13.8,27.3l-1.3,2.5l-1.3,2.5l-2.3,4.6c-1.8-2.2-3.2-4.8-4-7.5
			c-0.3-1.2-0.5-2.5-0.6-3.7l0,0l0,0L217.6,105l-0.2-0.1l-0.2-0.1c-0.5,0.2,0,0-1.5,0.4c-1,0.3-2,0.4-3,0.5c-1.3,0.2-2.7,0.2-4,0.3
			l1-1.9l1.2-2.4l1.2-2.4l19.3-38c3.5-6.9,8.5-13.1,14.4-17.9c5.9-4.9,13-8.6,20.4-10.7c7.4-2.1,15.3-2.6,22.9-1.6s15,3.7,21.6,7.7
			s12.3,9.4,16.7,15.7s7.4,13.6,9,21.1s1.4,15.5-0.2,22.9c-0.8,3.7-2,7.4-3.6,11C332.3,110.6,331.9,111.4,331.4,112.4z M180.9,101.3
			L180.9,101.3C180.9,101.4,180.9,101.4,180.9,101.3L180.9,101.3z M147.1,130.2c3.8-5.2,7.4-10.6,10.9-16c3.2-5.1,6.4-10.5,9.2-15.9
			c3.8,1.7,7.8,3.1,11.9,4.2c0.3,0.1,0.6,0.2,1,0.3c0.1,0,0.1,0,0.2,0c0.8,0.2,1.6,0.4,2.4,0.6c0.1,0,0.3,0.1,0.4,0.1
			c1.8,0.4,3.6,0.9,5.4,1.2c0.8,0.2,1.6,0.3,2.5,0.5c0.8,0.1,1.6,0.3,2.4,0.4c0.2,0,16.6,3.8,22.5,1.7c1.1,0.6,0,0,1.1,0.6
			c14.6,7.9,29.4,15.6,44.3,23c14.1,6.9,26.7,13.1,40.9,19.6c0.7,2.9,2.7,6.2,4.5,8.7c0.1,0.2,1.3,1.7,1.4,1.9
			c2.7,4.4,13.2,11.3,13.9,11.8c0.6,0.5,1.2,0.9,1.8,1.4c-0.1,0.2-0.2,0.4-0.3,0.6l1.3,0.7c0.1-0.1,0.1-0.3,0.2-0.4
			c0.3,0.2,0.5,0.4,0.8,0.6c0,0.1-0.1,0.2-0.1,0.2l1.3,0.7l0,0c0.6,0.4,1.2,0.8,1.7,1.2c0.1,0,0.1,0.1,0.2,0.1
			c0.2,0.2,0.5,0.3,0.7,0.5c3.3,2.4,6.6,4.7,9.8,7.3c-5.3,11.6-9.2,23.6-12.8,35.8c-2.6,9.2-4.9,18.4-6.8,27.7l-15.9-8.6l-4.6-2.4
			l-1-0.5l-2.2-1.1l-0.4-0.2l-4.7-2.5l-2.2-1.1l-2-1.1l-0.4-0.2l-4.1-2.2l-2.2-1.1l-5.8-3.1l-8.5-4.5l0.1-0.2v-0.1l0.3-0.7
			c0.4-1.1,0.8-2.2,1.2-3.3c0.7-2.2,1.3-4.5,1.7-6.9c0.8-4.7,1-9.8,0.2-14.7c-1.5-10-6.8-19.6-15.1-26.3c-5.3-4.4-11.8-7.4-18.4-8.8
			c-6.6-1.4-13.5-1-19.7,1c-5.3,1.7-10.1,4.5-14.1,7.9l0,0l0,0c-0.7,0.6-1.3,1.2-2,1.8c-2.2,2.1-4.1,4.4-5.8,6.8
			c-0.9,1.2-1.7,2.4-2.4,3.7l-0.3,0.6l0,0c0,0.1-0.1,0.2-0.1,0.3l-0.1,0.1l-0.2,0.4v0.1l-0.2,0.4l-16.8-8.1l-5.8-2.8l-2.3-1.1
			l-4.1-2l-0.4-0.2l-2.1-1l-1.8-0.9l-0.4-0.2l-4.8-2.3l-0.4-0.2l-2.2-1l-1-0.5l-18.7-9l-0.7-0.3
			C135.3,145.9,141.2,138.1,147.1,130.2z M278.5,241.8c-0.6-0.9-1.3-1.9-1.9-3c-0.5-0.8-0.9-1.6-1.4-2.4c0.5-0.7,1.4-2.1,2.6-3.8
			l0.1,0.1l1.1,0.6c-1.5,3.6-2.2,5.9-2.2,5.9s1.5-2,3.5-5.3l2.2,1.1l1.5,0.7c-1.8,4.1-3.1,7.1-3.7,8.7c-0.1-0.1-0.2-0.2-0.4-0.4
			C279.5,243.2,279,242.6,278.5,241.8c0.5-0.6,2.1-2.9,4-6.2l-1.3-0.7C279.7,238.4,278.8,241,278.5,241.8z M273.6,233.9
			c-0.2-0.4-0.5-0.7-0.7-1.1c-0.4-0.5-0.7-1-1.1-1.5c0.3-0.3,0.6-0.8,0.9-1.2l-1.3-0.7c-0.1,0.4-0.2,0.7-0.3,1.1
			c-0.7-0.8-1.5-1.7-2.4-2.4l3.3,1.6l0.1,0.1l4.4,2.2c-0.7,1.8-1.2,3.3-1.5,4.1c-0.3-0.5-0.6-1.1-1-1.6c0.5-0.6,1.2-1.5,1.9-2.7
			l-1.3-0.7C274.1,232.2,273.8,233.1,273.6,233.9z M256.5,221.3c0.3-0.7,0.7-1.5,1.1-2.4c1-2.1,2.1-4.7,3.5-7.6c0.5-0.9,1-1.9,1.5-3
			c0,0,0.1,0,0.2,0.1c-1.6,3.3-2.9,6.2-3.9,8.5c0.2,0,0.4,0,0.6,0c1.1-1.9,2.4-4.3,3.9-7.1c-0.1,0.4-0.2,0.8-0.2,1.3
			c-0.3,0.9-0.7,1.7-1,2.4l-0.1-0.1c-1.2,1.6-1.9,3.2-2.5,4.6c-0.6,1.4-1,2.6-1.4,3.6l-0.8,2.2c-0.6,0-1.2,0.1-1.9,0.3
			c0.5-0.7,1-1.5,1.6-2.5L256.5,221.3z M263.4,207.4c-0.2,0.2-0.3,0.4-0.4,0.5c0.3-0.5,0.6-1.1,0.9-1.6
			C263.8,206.7,263.6,207,263.4,207.4z M258.8,222l2-3.3c0.1-0.1,0.2-0.3,0.3-0.4l-0.2,0.5l-0.6,1.4l-1.2,2.9l1.3,0.7
			c-0.3,0-0.7-0.1-1-0.1c-0.6,0-1.1,0-1.7,0C258,223.4,258.4,222.8,258.8,222z M285.3,236.1l0.9,0.4c-2,4.5-3.4,7.8-3.9,9.3
			c-0.6-0.4-1.2-1-1.7-1.5C281.4,243,283.1,240.2,285.3,236.1z M287.5,237.2l1.4,0.7l1.3,0.6c-0.1,0.1-0.1,0.2-0.1,0.3l-1.1-0.6
			c-2,4.5-3.3,7.7-3.9,9.2c-0.3-0.1-0.6-0.3-1-0.4c-0.6-0.3-1.2-0.7-1.7-1.1C283.2,244.7,285.1,241.6,287.5,237.2z M289.1,241
			c-1.4,3.1-2.4,5.4-2.9,6.7c-0.3-0.1-0.7-0.2-1-0.3C285.8,246.5,287.2,244.2,289.1,241z M291.6,239.2l1.3,0.6
			c-1.8,3.9-3,6.8-3.7,8.6c-0.8-0.1-1.7-0.2-2.6-0.4C287.3,246.3,289.2,243.3,291.6,239.2z M294.1,240.4L294.1,240.4l0.9,0.4
			c-1.5,3.5-2.6,6.1-3.2,7.5c-0.7,0-1.5,0-2.4,0C290.3,246.7,292,244,294.1,240.4z M296.2,241.5l0.1,0.1l0.8,0.4
			c-1.3,3.1-2.1,5.3-2.4,6.2c-0.7,0.1-1.3,0.2-2.1,0.2c-0.2,0-0.3,0-0.5,0C293,247,294.4,244.6,296.2,241.5z M298.4,242.5l0.6,0.3
			c-0.9,2.3-1.5,4-1.8,4.9c-0.6,0.1-1.4,0.3-2.3,0.4C295.4,247.3,296.7,245.3,298.4,242.5z M169.9,224.9c-2.3,1.8-4.7,3.2-7.3,4.4
			l-1,0.4l-0.2,0.1l0,0l0,0l0,0l-0.1,0.1v-0.1v-0.1l0,0v-0.1c1.8-1.2,4-3.1,6.3-5.6c0.7-0.7,1.3-1.5,2-2.3s1.3-1.8,1.9-2.7
			c1.2-1.9,2.5-4,3.5-6.4c1-2.4,1.9-5,2.1-7.9c0.2-2.9-0.3-5.9-1.8-8.8s-4.1-4.7-6.5-6c-2.5-1.3-5-2.1-7.4-2.8
			c-4.8-1.4-9.2-2.4-12.4-4c-1.6-0.8-2.9-1.8-3.8-2.8c-0.9-1-1.5-2.1-1.9-3.1c-0.7-1.9-0.8-3.1-1-3.1c-0.1,0-0.4,1.2,0.1,3.4
			c0.3,1.1,0.8,2.3,1.8,3.6c1,1.3,2.4,2.4,4,3.4c3.4,2,7.8,3.2,12.5,4.6c2.3,0.7,4.8,1.6,7,2.7c2.3,1.2,4.4,2.8,5.6,5.1
			c1.2,2.3,1.7,5,1.5,7.5c-0.1,2.6-0.8,5-1.8,7.3c-0.9,2.2-2.1,4.3-3.2,6.2c-1.1,1.9-2.3,3.5-3.5,4.9c-1.3,1.6-2.6,3-3.7,4.1
			c1.3-2.4,2.4-4.8,3.3-7.3c1.9-5.1,3.1-10.5,2.6-15.7c-0.3-2.6-1.1-5.1-2.4-7.2c-1.3-2.1-3.2-3.7-5.2-4.8s-3.9-1.7-5.8-2.3
			l-5.3-1.6c-3.3-1-6.2-2.1-8.5-3.7c-0.9-0.6-1.6-1.3-2.1-2.1c0.3-0.5,0.5-0.9,0.8-1.4l-1.3-0.7c-0.1,0.3-0.2,0.5-0.4,0.8
			c-0.4-0.7-0.6-1.4-0.7-2.1c0-0.2,0-0.3-0.1-0.5c0.6-1,1.2-2.2,1.8-3.3l-1.3-0.7c-0.2,0.5-0.4,0.9-0.7,1.4c0-0.5,0.1-1,0.1-1.3
			c0.2-1,0.3-1.5,0.3-1.5s-0.2,0.5-0.4,1.5c-0.1,0.6-0.3,1.3-0.4,2.2c-3.8,8.2-6,13.4-6,13.4s2.3-3.9,6.1-10.9
			c0.1,0.9,0.4,1.8,0.9,2.7c-2.1,4.7-3.2,7.7-3.2,7.7s1.5-2.3,3.9-6.4c0.5,0.7,1.1,1.5,1.9,2.1c0.1,0.1,0.2,0.2,0.4,0.3
			c-1.3,3.2-1.9,5.3-1.9,5.3s1.2-1.6,3-4.5c0.7,0.5,1.5,1,2.3,1.4c-1.5,3.6-2.3,6-2.3,6s1.4-2,3.5-5.4c0.7,0.3,1.4,0.6,2.1,0.9
			c-1.3,3.3-2,5.4-2,5.4s1.3-1.8,3.2-4.9c0.1,0,0.1,0.1,0.2,0.1l1.2,0.5c-1.6,3.9-2.5,6.3-2.5,6.3s1.5-2.1,3.7-5.9l2.2,0.8
			c-1.6,3.9-2.5,6.3-2.5,6.3s1.5-2.1,3.7-5.8c0.4,0.2,0.9,0.4,1.3,0.6c-1.7,4-2.5,6.6-2.5,6.6s1.6-2.2,3.8-6
			c0.6,0.3,1.1,0.6,1.6,0.9c-1.9,4.4-2.9,7.3-2.9,7.3s1.6-2.4,4-6.5c0.3,0.2,0.6,0.5,0.9,0.7c-2,4.7-3.1,7.6-3.1,7.6
			s1.6-2.4,4.1-6.7c0.2,0.2,0.3,0.4,0.5,0.5c-1,2.7-1.5,4.5-1.5,4.5s0.3-0.3,0.7-0.9c-1.3,3.2-2,5.3-2,5.3s1.7-2.4,4.1-6.6l-0.9-0.4
			c0.1-0.2,0.3-0.4,0.4-0.6c0,0.1,0.1,0.1,0.1,0.2c0.3,0.5,0.5,1,0.7,1.5c-2.4,5.5-3.8,9.1-3.8,9.1s1.7-2.6,4.3-7.2
			c0.2,0.8,0.3,1.7,0.4,2.6l-0.3,0.1c0.1,0.2,0.2,0.3,0.3,0.5c0,0.1,0,0.2,0,0.3c-3.2,7-5,11.5-5,11.5s1.9-3,4.9-8.4
			c-0.2,2-0.7,4.1-1.4,6.2c-2.3,5-3.8,8.6-4.3,9.9c-0.2,0.4-0.4,0.7-0.6,1.1l-1,1.7l-0.8,1.3c-0.4,0.6-0.7,1.1-1.1,1.7
			c-1.1,1.6-2.5,3.4-3.8,5.2l-1-0.5c-1.2,2.9-2,5-2.4,6.1c0,0,0,0-0.1,0c-1.4-0.2-2.9-0.4-4.4-0.6c0.3-0.2,0.6-0.3,0.9-0.5
			c2.9-1.8,5.7-4.4,7.9-7.7c2.2-3.3,3.4-7,3.8-10.5c0.4-3.4,0-6.5-0.7-9c-1.5-4.8-3.7-7-3.6-7c-0.1,0,1.1,2.9,1.4,7.5
			c0.1,2.3,0,5-0.8,7.8c-0.7,2.8-2,5.8-3.8,8.7c-2.9,4.6-6.9,7.9-10.6,9.9c-1.2-0.2-2.4-0.3-3.7-0.5c-2.4-0.2-4.9-0.4-7.6-0.2
			c-1.3,0.1-2.7,0.4-4.1,0.9c-1.4,0.5-2.8,1.3-4,2.4c-1.2,1.1-2,2.6-2.5,4c-0.5,1.4-0.8,2.8-1,4.2v0.3l0,0l0,0l0,0c0,0,0.1,0-0.1,0
			l-0.4,0.3l-0.7,0.6c-1,0.8-1.9,1.7-2.8,2.8c-0.9,1-1.7,2.2-2.3,3.5c-0.6,1.4-0.8,3-0.6,4.5s0.9,2.8,1.6,3.9s1.6,2,2.4,2.8
			c3.5,3.1,7,5.1,10.3,7.2c3.2,2.1,6.1,4,8.7,6.1c2.4,2,4.4,4.2,5.7,6.4c1.3,2.2,1.9,4.3,2.1,6.1c0.2,1.8,0.1,3.2,0,4.2
			c-0.1,1-0.3,1.5-0.2,1.5c0,0,0.2-0.5,0.4-1.4c0.2-1,0.6-2.4,0.5-4.3c0-1.9-0.4-4.3-1.6-6.7c-1.1-2.5-3-5-5.4-7.3
			c-2.4-2.4-5.2-4.6-8.4-6.9c-3.1-2.3-6.5-4.6-9.5-7.5c-1.4-1.4-2.6-3-2.7-4.5c-0.2-1.4,0.6-3.1,2-4.6c0.7-0.8,1.5-1.5,2.4-2.2
			l0.7-0.5l1-0.8c0.4-0.4,1.2-0.6,1-1.3l0.1-1.5c0.3-2.2,0.9-4.2,2.2-5.4c1.3-1.3,3.3-1.9,5.4-2.1c2.2-0.2,4.5-0.1,6.8,0
			c4.6,0.4,9.2,1,13.6,1.4s8.7,0.5,12.7,0c4-0.4,7.6-1.4,10.9-2.8c2.3-1,4.2-2.3,5.8-3.6c-1.4,1.6-2.8,3.4-4.5,5.2
			c-0.6,0.6-1.2,1.2-1.8,1.8s-1.3,1-2.1,1.5c-1.5,1-3.2,1.8-5,2.6c-7.2,3-14.4,3.2-19.5,2.8c-5.1-0.4-8.2-1.1-8.4-0.7
			c-0.1,0.3,2.9,1.5,8.1,2.3c2.6,0.4,5.8,0.6,9.4,0.3c3.5-0.3,7.3-1.1,11.2-2.7c1.9-0.8,3.7-1.7,5.3-2.8c0.8-0.5,1.7-1.1,2.4-1.8
			s1.3-1.3,1.9-2c2.3-2.7,4.1-5.2,5.7-7.3c0.8-1,1.5-2,2.1-2.8c-0.2,0.3-0.3,0.6-0.5,0.9c-3.2,5.5-8.5,12.8-15.8,18.9
			c-3.6,3.1-7.4,5.6-11.2,7.3c-3.7,1.7-7.2,2.6-10.4,2.7c-2.6,0.1-4.8-0.3-6.5-0.7c-0.3-0.1-0.6-0.3-0.8-0.4
			c-1.6-0.7-2.6-0.9-2.6-0.9s0.7,0.7,2.3,1.7c0.2,0.1,0.3,0.2,0.5,0.3c1.3,1,2.8,2.6,4.2,4.7c1.7,2.4,3.2,5.6,4.1,9.5
			c1,3.7,1.5,8,1.3,12.6c-0.2,4.5-0.9,8.8-2.3,12.4c-1.3,3.6-3.3,6.5-5.5,8.5c-2.2,1.9-4.6,2.7-6.2,3c-0.5,0.1-1,0.2-1.4,0.2
			c0.2-0.1,0.4-0.1,0.7-0.2c0.5-0.2,1-0.6,1.5-1.2c-0.2,0.3-0.3,0.5-0.2,0.5l0,0l0,0c-0.2,0.2-0.2,0.3-0.2,0.4l0,0l0,0l0,0
			c0.1,0.1,0.9-0.3,2.2-1.3s3.1-2.6,5-5c1.8-2.4,3.7-5.6,4.7-9.6c1.1-3.9,1.4-8.4,0.6-13c-0.9-4.6-3.3-8.6-5.7-11.6
			c-0.6-0.8-1.2-1.5-1.9-2.1l-0.9-1l-0.5-0.5c-0.1-0.1-0.1-0.1-0.3-0.3l-0.3-0.2c-1.4-1-2.7-1.9-3.9-2.7c-2.4-1.6-4.2-3-5.2-4.2
			c-1.1-1.1-1.3-2-1.5-2c-0.1,0-0.1,1.1,0.8,2.5s2.6,3.1,4.9,4.9l3.7,2.9l0.2,0.2l0.2,0.2l0.4,0.5l0.9,1c0.6,0.7,1.2,1.4,1.7,2.1
			c2.3,2.9,4.4,6.5,5.2,10.8c0.4,2,0.4,4.2,0.4,6.2c-0.1,2-0.4,4-0.8,5.8c-0.9,3.6-2.4,6.7-4,9.1c-1.1,1.6-2.2,2.9-3.1,4
			c0-0.1,0.1-0.3,0.1-0.4c0.5-0.8,0.9-1.7,1.2-2.9c0.7-2.4,0.8-5.5,0.1-9c-0.3-1.7-0.9-3.5-1.7-5.3c-0.8-1.8-2-3.5-3.4-5.2
			c-2.8-3.3-6.4-6.3-10.7-9.3c-2.1-1.4-4.2-2.8-6.5-4.2c-2.3-1.4-4.6-2.8-6.8-4.4c-4.4-3.2-8.7-7.3-12.1-12.3
			c-3.4-4.9-5.9-10.7-7.4-16.9c-0.7-3.1-1.2-6.2-1.4-9.4c-0.1-1.6-0.2-3.1-0.2-4.6c0-1.5,0.1-3,0.3-4.5c0.8-5.9,3.2-11.5,6-16.3
			c2.8-4.8,6.1-9.1,9.5-12.9s6.5-7.1,9.6-10.3c6.1-6,11.2-10.8,14.6-14.2c3.4-3.4,5.2-5.4,5.1-5.5c-0.1-0.1-2.1,1.7-5.6,4.8
			c-3.6,3.2-8.9,7.7-15.1,13.7c-3.1,3-6.4,6.3-9.9,10.2s-6.8,8.1-9.8,13.1c-2.9,4.9-5.5,10.7-6.4,17c-0.2,1.6-0.3,3.2-0.3,4.8
			s0,3.2,0.1,4.8c0.2,3.2,0.7,6.5,1.4,9.8c1.5,6.5,4.2,12.6,7.8,17.7c3.6,5.1,7.9,9.4,12.7,12.7c2.3,1.7,4.7,3,6.9,4.4
			c2.3,1.4,4.4,2.7,6.5,4.1c4.1,2.7,7.7,5.6,10.5,8.8c1.3,1.6,2.5,3.2,3.3,4.8c0.8,1.7,1.4,3.3,1.8,4.9c0.8,3.2,0.8,6.1,0.2,8.5
			c0,0.1,0,0.1-0.1,0.2l0,0v-0.1c0.1-0.5,0.2-1,0.2-1.5H136c-0.1-0.6-0.2-1.1-0.3-1.8c-0.1-0.8-0.3-1.9-0.6-3.2l-0.4,0.1
			c-0.1-0.2-0.1-0.3-0.2-0.5c0-0.1,0-0.2-0.1-0.2c-1.2-3.5-3.5-7.1-7.1-10.2l-5.4-4.4c-1.9-1.5-3.9-3.1-6-4.6
			c-2.2-1.5-4.4-3-6.8-4.5c-2.2-1.4-4.4-3.1-6.5-5c-4.2-3.8-8-8.6-11.3-13.8c-3.2-5.3-5.8-11.3-7.2-17.6c-1.5-6.4-1.6-12.9-0.7-19
			c1-6.1,3.1-11.9,5.8-16.9c5.5-10.3,13.1-17.8,19.7-23.8c6.6-6,12.4-10.5,16.2-13.8c2.2-1.9,3.8-3.3,4.7-4.2
			c-0.1,0.4-0.2,0.6-0.2,0.6s0.3-0.4,0.8-1.2c0.3-0.3,0.4-0.4,0.4-0.4s-0.1,0.1-0.3,0.3c0.6-1,1.6-2.4,2.7-4.3l1.6,0.9
			c-1.7,4-2.6,6.6-2.6,6.6s1.5-2.2,3.7-6l2.4,1.3c-1.8,4.2-2.7,6.9-2.7,6.9s1.6-2.3,3.9-6.2l1.3,0.7c-1.5,3.7-2.3,6.1-2.3,6.1
			s1.4-2,3.5-5.4l1.3,0.7c-0.8,1.9-1.3,3.3-1.5,4.1c-0.1-0.2-0.2-0.5-0.3-0.7c-0.5-1.2-0.7-1.8-0.8-1.8c0,0,0.2,0.7,0.6,1.9
			c0.1,0.3,0.2,0.6,0.3,1c-0.1,0.2-0.1,0.4-0.1,0.4s0.1-0.1,0.2-0.2c0.4,1.1,0.9,2.5,1.7,4.1c0.2,0.3,0.3,0.6,0.5,1
			c-0.1,0.3-0.2,0.4-0.2,0.4s0.1-0.1,0.2-0.3c0.4,0.7,0.9,1.5,1.5,2.2c-0.2,0.4-0.3,0.7-0.3,0.7s0.1-0.2,0.3-0.6
			c0.6,0.7,1.2,1.5,2,2.1v0.1l0,0c0.5,0.5,1.1,1,1.8,1.4c1.5,1,3.4,1.7,5.5,2c2,0.3,4.2,0.3,6.4,0.2c4.4-0.2,9.2-0.5,13.7,1.1
			c1.1,0.4,2.3,0.9,3.2,1.5c0.9,0.6,1.8,1.4,2.5,2.4c1.4,1.9,2.3,4.4,2.6,7c0.7,5.3-0.4,11.3-2.8,16.8
			C179,215.9,175.1,220.9,169.9,224.9z M154,236.8l0.7-0.2c-1,2.3-1.6,4-1.9,4.8c-1.2-0.1-2.4-0.2-3.6-0.4c0.5-0.7,1.3-1.9,2.3-3.6
			C152.2,237.2,153.1,237,154,236.8z M156.1,236.2l1.5-0.4c0.2-0.1,0.4-0.1,0.7-0.2c-1.4,3.4-2.3,5.6-2.5,6c-1-0.1-1.9-0.1-2.9-0.2
			C153.4,240.7,154.5,238.9,156.1,236.2z M159.9,235.1c0.6-0.2,1.1-0.4,1.7-0.6l1-0.4l0,0c-2,4.6-3.2,7.5-3.2,7.6
			c-1.2,0-2.3,0-3.5-0.1C156.1,241.3,157.6,239,159.9,235.1z M186.5,226.3c-0.1,0.3-0.9,2.4-2.4,5.6c-0.1,0.1-0.2,0.2-0.4,0.2
			c-0.3,0.2-0.6,0.4-0.9,0.7c0.4-0.5,0.7-1,1-1.5C185.6,228.4,186.3,226.5,186.5,226.3z M159.3,264.6l-0.3-0.1
			c0.1-0.1,0.2-0.1,0.3-0.1C159.3,264.4,159.3,264.5,159.3,264.6z M143.5,266.9c-0.1,0.3-0.2,0.6-0.3,0.8c-0.4-0.4-0.9-0.8-1.3-1.2
			C142.5,266.6,143,266.8,143.5,266.9z M144.5,267L144.5,267c0.8,0.1,1.6,0.2,2.4,0.2c-0.6,1.4-1,2.5-1.2,3.2
			c-0.6-0.9-1.3-1.6-2-2.3C143.9,267.8,144.2,267.4,144.5,267z M134.1,303.5c0-0.1,0-0.2-0.1-0.4c-0.1-0.7-0.3-1.5-0.6-2.4
			c0,0,0-0.1,0.1-0.1c0.2,0.3,0.3,0.7,0.5,1c0.2,0.4,0.3,0.8,0.5,1.2l0,0C134.3,303.1,134.2,303.3,134.1,303.5z M132,300.8
			c0-0.2-0.1-0.5-0.2-0.8c0.1,0.2,0.2,0.3,0.3,0.5C132.1,300.5,132,300.7,132,300.8z M136.3,311.6c0,0.1,0,0.2-0.1,0.2
			c-0.2,0.3-0.4,0.5-0.6,0.7C135.8,312.3,136.1,312,136.3,311.6z M133,299.9L133,299.9L133,299.9L133,299.9z M87.6,259.8
			c-1.3,2.9-2.1,5.1-2.5,6.2c-0.7-1.4-1.4-2.8-2-4.2c0.7-1.1,1.7-2.7,2.9-4.8C86.5,258,87.1,258.9,87.6,259.8z M88.5,261.1
			c0.3,0.5,0.6,0.9,0.9,1.4c-1.7,4-2.6,6.6-2.6,6.6s1.4-1.9,3.4-5.3c0.5,0.7,1,1.4,1.6,2.1c-1.8,4.2-2.8,6.8-2.9,7
			c-1.3-2.2-2.5-4.4-3.7-6.7C85.8,265.4,87,263.6,88.5,261.1z M163.7,174.1c-1.3,3.2-1.9,5.2-1.9,5.2s1.2-1.7,3-4.6l1.4,0.7
			c-0.6,1.6-1.1,2.9-1.3,3.6c-1,0.1-1.9,0.2-2.8,0.3c-1.2,0.1-2.4,0.2-3.5,0.2c0.5-0.7,1.9-2.8,3.9-6.1L163.7,174.1z M186.9,186.3
			c-0.2,0.5-0.4,0.9-0.5,1.3c-0.4-0.8-0.8-1.5-1.3-2.3l0.8,0.4L186.9,186.3z M172.2,178.6L172.2,178.6l0.5,0.3c-0.2,0-0.5,0-0.7-0.1
			C172.1,178.8,172.2,178.7,172.2,178.6z M171.2,178.1c-0.1,0.3-0.1,0.5-0.2,0.7c-0.7,0-1.3,0-1.9,0c-0.4,0-0.9,0-1.3,0.1
			c0.4-0.5,0.8-1.1,1.3-1.9L171.2,178.1z M168,176.3c-0.4,1-0.6,1.9-0.8,2.5c-0.6,0-1.3,0.1-1.9,0.2c0.5-0.6,1.2-1.7,2-3L168,176.3z
			 M161.2,172.7c-1.5,3.5-2.4,6-2.7,6.8c-0.8,0-1.6,0-2.4-0.1c-0.2,0-0.3,0-0.5-0.1c0.8-1.3,2.4-3.8,4.4-7.4l0.1,0.1L161.2,172.7z
			 M158.8,171.3c-1.7,3.8-2.8,6.6-3.4,8c-0.8-0.1-1.5-0.3-2.3-0.5c0.8-1.2,2.5-4,4.7-8L158.8,171.3z M156.5,170.2
			c-1.9,4.2-3.1,7.2-3.7,8.7c-0.7-0.2-1.3-0.5-1.9-0.8c-0.3-0.2-0.6-0.3-0.9-0.5c0.7-1.2,2.5-4,4.8-8.1l0.5,0.3l0.4,0.2L156.5,170.2
			z M150,177.5c-0.3-0.2-0.6-0.4-0.8-0.6c0.7-1.2,2-3.4,3.7-6.3C151.4,173.9,150.4,176.4,150,177.5z M152.6,168.1
			c-1.8,4-3,7-3.7,8.6c-0.7-0.6-1.3-1.2-1.9-1.9c0.9-1.5,2.4-4,4.3-7.4L152.6,168.1z M150.2,166.8c-1.6,3.4-2.7,6.1-3.4,7.8
			c-0.5-0.6-1-1.3-1.4-1.9c0.8-1.2,2.1-3.4,3.8-6.4L150.2,166.8z M148.1,165.7c-1.3,3-2.3,5.4-2.8,6.8c-0.1-0.1-0.2-0.3-0.3-0.4
			c-0.4-0.7-0.7-1.3-1.1-1.8c0.5-0.7,1.6-2.4,3.2-5h0.1L148.1,165.7z M146,164.5c-1.1,2.7-1.8,4.7-2.1,5.5c-0.4-0.8-0.7-1.5-1-2.1
			c0.5-0.7,1.4-2,2.5-3.8L146,164.5z M186.8,188.6c0.3-0.5,0.7-1.1,1.1-1.7l0.9,0.4c-0.5,1.2-1,2.3-1.4,3.2
			C187.2,189.9,187,189.3,186.8,188.6z M75,217.1c1.1-5.9,3.3-11.7,6.8-16.6c1.7-2.4,3.8-4.6,6.1-6.6c1.1-1,2.3-1.8,3.7-2.9
			c1.3-1,2.6-2,3.8-3c10.1-8.4,15-13.5,24.6-22c2.2-1.9,4.3-3.5,5.9-4.9c-0.1,0.3-0.2,0.6-0.2,0.6s0.3-0.4,0.7-1
			c0.6-0.6,1.2-1.1,1.6-1.6l1.6-1.2c-1.5,3.5-2.2,5.7-2.2,5.7s1.6-2.3,4-6.4l0.9,0.5c-1.1,2.5-1.8,4.4-2.1,5.5
			c-1,0.8-2.8,2.1-5.2,3.9c-4,2.9-10.2,6.9-17.2,12.6c-3.5,2.8-7.3,6-11.1,10c-3.7,3.9-7.3,8.5-10.5,13.8
			c-3.1,5.3-5.6,11.5-6.7,18.1c-0.3,1.5-0.5,3-0.6,4.5c-2.6,5.7-4.1,9.5-4.2,9.8c0-0.1,0-0.1,0-0.2C74,229.3,74,223.2,75,217.1z
			 M74.9,235.6c0.1-0.2,1.6-2.7,4-6.9c0,1.2,0,2.4,0,3.7c-1.8,4.1-2.7,6.7-2.7,6.7s1.1-1.6,2.8-4.5c0.1,0.8,0.1,1.5,0.2,2.3
			c-1.4,3.2-2.4,5.6-2.8,6.8C76,241.1,75.3,238.3,74.9,235.6z M76.7,244c0.5-0.8,1.6-2.5,3.1-5c0.2,1,0.4,2,0.6,3
			c0.1,0.3,0.1,0.6,0.2,0.8c-1.4,3.4-2.3,5.6-2.5,6.1C77.6,247.3,77.1,245.7,76.7,244z M78.1,249c0.2-0.3,1.3-1.9,2.9-4.5
			c0.3,1,0.6,1.9,0.9,2.9c-1.5,3.5-2.2,5.7-2.2,5.7s1.1-1.5,2.7-4.2c0.4,1.1,0.8,2.1,1.2,3.1c-1.2,3-1.9,4.9-1.9,4.9
			s0.9-1.3,2.4-3.7c0.4,0.8,0.7,1.6,1.1,2.3c-1.1,2.4-1.9,4.3-2.4,5.7c-1.2-2.6-2.3-5.2-3.2-7.8C79.1,252,78.6,250.5,78.1,249z
			 M235.2,352.5c-2.4,0.1-4.7,0.2-7.1,0.2c-0.2,0-0.3,0-0.5,0c-0.9,0-1.8,0-2.7-0.1c-1,0-2-0.1-3.1-0.1c-0.2,0-0.5,0-0.7,0
			c-2-0.1-4.1-0.2-6.1-0.4c-1.2-0.1-2.3-0.2-3.5-0.3c-3.1-0.3-6.2-0.7-9.3-1.2c-16.5-2.7-32.5-7.8-47.3-15.5
			c-14.3-7.4-27.5-17-39.1-28.4c-2.2-2.2-4.4-4.4-6.5-6.7c-0.8-0.8-1.6-1.7-2.3-2.6c-1.4-1.5-2.7-3.1-4-4.7
			c-0.1-0.2-0.3-0.3-0.4-0.5c-0.6-0.8-1.3-1.6-1.9-2.4c-0.7-0.8-1.3-1.7-1.9-2.6c-0.2-0.3-0.5-0.6-0.7-0.9c-1.2-1.6-2.3-3.2-3.4-4.8
			c-0.1-0.1-0.2-0.3-0.3-0.4c-0.6-0.9-1.2-1.7-1.7-2.6c-0.3-0.4-0.5-0.8-0.8-1.2c-0.9-1.4-1.7-2.8-2.5-4.2c0.1-0.1,1.5-2.3,3.7-6
			c0.5,0.7,1.1,1.3,1.7,2c-1.8,4.1-2.7,6.8-2.7,6.8s1.4-2.1,3.6-5.8c0.6,0.6,1.1,1.2,1.7,1.8c-2.2,5-3.4,8.1-3.4,8.1
			s1.7-2.6,4.4-7.2c0.3,0.3,0.5,0.5,0.8,0.8c-2,4.5-3,7.5-3,7.5s1.6-2.4,4.1-6.5c0.3,0.3,0.6,0.6,0.9,0.8c0.2,0.1,0.3,0.3,0.5,0.4
			c-1.8,4.3-2.8,7.1-2.8,7.1s1.6-2.3,3.9-6.2c0.4,0.3,0.8,0.6,1.1,0.9c-1.7,4-2.6,6.6-2.6,6.6s1.5-2.1,3.7-5.8
			c0.9,0.7,1.9,1.3,2.9,1.9c-1.6,3.9-2.5,6.4-2.5,6.4s1.5-2.1,3.7-5.7c0.9,0.5,1.8,1,2.7,1.6c-1.5,3.6-2.3,5.8-2.3,5.8
			s1.3-1.9,3.3-5.2c0.3,0.2,0.7,0.4,1,0.6c-1.4,3.4-2.1,5.6-2.1,5.6s1.3-1.8,3.2-5c0.1,0.1,0.2,0.1,0.3,0.2c0.6,0.4,1.1,0.7,1.6,1.1
			c-1.4,3.5-2.2,5.7-2.2,5.7s1.3-1.8,3.2-5c0.5,0.4,1,0.7,1.6,1.1c-1.5,3.7-2.3,6-2.3,6s1.4-1.9,3.4-5.3c0.2,0.2,0.5,0.3,0.7,0.5
			l1.5,1.1c-1.6,3.8-2.4,6.2-2.4,6.2s1.4-2,3.5-5.5l2,1.4l-0.5-0.3c-1.5,3.7-2.3,6.1-2.3,6.1s1.4-1.9,3.5-5.4l0.4,0.3
			c0.6,0.4,1.1,0.9,1.7,1.3c-0.1,0.1-0.3,0.2-0.5,0.4l-0.1-0.1c0,0.1-0.1,0.2-0.1,0.3c0,0,0,0-0.1,0.1l0,0c-1.2,3-1.8,5-1.8,5
			s1.2-1.6,3-4.4l0,0v-0.1c0.1-0.1,0.1-0.2,0.2-0.3l-0.1-0.1c0-0.1,0-0.3,0-0.4c0.1,0.1,0.2,0.2,0.3,0.3c0.4,1,0.8,1.9,1.1,2.7l0,0
			l-0.2,0.1c0,0,0,0.1,0.1,0.1c-1.6,3.8-2.5,6.1-2.5,6.1s1.2-1.8,3.1-5c0.4,0.9,0.7,1.6,0.9,2c-0.8,2.2-1.2,3.5-1.2,3.5
			s0.9-1.1,2.1-3c0.3,0.6,0.5,1.1,0.7,1.6c0.1,0.3,0.2,0.6,0.3,0.9c-1.1,2.8-1.6,4.5-1.6,4.5s1.1-1.4,2.6-3.9
			c0.1,0.3,0.1,0.5,0.1,0.7l-0.2-0.1c-2.3,5.3-3.6,8.8-3.6,8.8s1.6-2.3,4-6.5c0,0.9,0,1.8-0.2,2.7c0,0.1,0,0.2-0.1,0.2l-0.4-0.2
			c-0.7,1.9-1.1,3.3-1.3,3.9c-0.3,0.3-0.6,0.6-0.9,0.8c-0.6,0.3-1,0.4-1.4,0.5c-0.2,0-0.4,0-0.5,0h-0.1l0,0l0,0c0,0,0.9,0.3,2.7,0.4
			c1.7,0.1,4.5-0.2,7.4-1.9c2.9-1.7,5.7-4.8,7.7-8.8c2-3.9,3.1-8.8,3.3-13.8c0.2-5-0.7-9.9-2.2-13.9c-1-2.7-2.3-5-3.7-7
			c0.5-0.7,1.3-1.8,2.3-3.5c0.7,0,1.3-0.1,2-0.1c-1.5,3.4-2.2,5.5-2.2,5.5s1.4-2.1,3.5-5.7c0.7-0.1,1.4-0.3,2.1-0.4
			c-1.6,3.7-2.4,6-2.4,6s1.6-2.3,4-6.4c0.4-0.1,0.9-0.3,1.3-0.4c0.4-0.2,0.9-0.3,1.3-0.5c-1.6,3.8-2.4,6.2-2.4,6.2s1.5-2.2,3.8-5.9
			c-0.1,0.3-0.1,0.5-0.1,0.5s0.7-0.7,1.7-2.1c0.3-0.2,0.6-0.3,0.9-0.5c-1.5,3.4-2.3,5.5-2.3,5.5s1.5-2.3,3.9-6.4
			c0.4-0.2,0.7-0.4,1.1-0.6c-1.4,3.3-2.2,5.2-2.2,5.2s1.4-2.2,3.7-6.2c0.8-0.5,1.5-1.1,2.3-1.7c-0.7,1.7-1.1,2.7-1.1,2.7
			s0.9-1.3,2.3-3.7c7.8-6.7,12.5-15,14.8-21.2c0.7-1.9,1.2-3.5,1.5-5c0.2-0.2,0.4-0.3,0.4-0.3c0-0.1-0.1-0.1-0.3-0.1
			c0.8-3.2,0.8-5,0.9-5c0,0-1,1.8-3.2,4.7c-2.3,2.8-6.1,6.7-12.3,9c-3,1.1-6.4,1.7-10.2,1.8c-0.5,0-0.9,0-1.4,0c0.1-0.1,2-3.2,5-8.5
			h0.1c0.2-0.1,0.5-0.2,0.7-0.3c-1.4,3.2-2.1,5.1-2.1,5.1s1.4-2.1,3.5-5.8c0.8-0.4,1.6-0.9,2.4-1.4c-1,2.5-1.5,3.9-1.5,3.9
			s1.2-1.7,3-4.9c0.7-0.5,1.4-1,2.1-1.5c0.2-0.2,0.4-0.3,0.6-0.5c-1.1,2.5-1.6,4-1.6,4s1.3-2,3.4-5.5c0.6-0.5,1.1-1,1.6-1.5
			c-1.1,2.6-1.7,4.1-1.7,4.1s1.4-2.3,3.8-6.4c0.2-0.3,0.5-0.6,0.7-0.8c-0.2,0.4-0.3,0.7-0.3,0.7s0.3-0.5,0.9-1.4
			c2.1-2.8,3.9-5.8,5.2-9c2.6-6.2,3.7-12.9,2.7-19.1c-0.1-0.6-0.2-1.2-0.4-1.8c0.5-0.9,1.2-2,2-3.3l2,1c-0.8,2.9-1.2,4.5-1.2,4.5
			l1.6-4.3l0.6,0.3l1-1.8c-0.9,2.2-1.4,3.5-1.4,3.5s2.9-4.5,7.4-12.5c1-1.2,2-2.3,3.1-3.4c-2.3,5-3.5,7.9-3.5,7.9s2.1-3.5,5.5-9.8
			c1.2-1.1,2.6-2.1,4-3c-2.5,5.4-3.8,8.8-3.8,8.8s2.1-3.5,5.6-9.8c1-0.6,2.1-1.1,3.2-1.6c-2,4.6-3.1,7.4-3.1,7.4s1.8-2.9,4.7-8
			c0.8-0.3,1.6-0.6,2.4-0.8c0.3-0.1,0.7-0.2,1-0.3c-2.1,4.7-3.3,7.5-3.3,7.5s1.7-2.8,4.5-7.8c0.6-0.1,1.1-0.2,1.7-0.3
			c-2.2,4.8-3.4,7.8-3.4,7.8s1.8-2.9,4.6-7.9c1.5-0.2,3.1-0.3,4.7-0.3c-1.9,4.3-2.9,7-2.9,7s1.7-2.5,4.2-6.9
			c1.2,0.1,2.3,0.2,3.5,0.3c-1.8,4-2.7,6.4-2.7,6.4s1.4-2.2,3.7-6.2c0.3,0.1,0.7,0.1,1,0.2c0.5,0.1,1,0.2,1.6,0.4
			c-2,4.5-3.1,7.3-3.1,7.3s1.6-2.5,4.1-7c0.7,0.2,1.4,0.4,2,0.7c-1.3,3.5-2,5.7-2,5.7s1.4-1.8,3.5-5.1c0.4,0.2,0.8,0.3,1.1,0.5
			c-1.8,4.3-2.7,7-2.7,7s1.6-2.3,4.1-6.3c0.6,0.3,1.3,0.7,1.9,1c-0.5,0.9-0.9,1.9-1.3,2.7c-0.7,1.6-1.1,3-1.5,4.1l-1.2,3.6
			c0,0,0.7-1.1,1.9-3.2c0.6-1,1.3-2.3,2.2-3.8c0.5-0.8,1-1.6,1.6-2.5c0.7,0.4,1.3,0.9,1.9,1.3c-2.4,5.4-3.7,8.8-3.7,8.8s1.9-3,4.7-8
			c0.2,0.2,0.4,0.3,0.6,0.5c0.4,0.4,0.9,0.7,1.3,1.1c-2.2,5-3.4,8-3.4,8s1.7-2.7,4.3-7.2c0.8,0.8,1.6,1.6,2.3,2.4
			c-2.5,5.5-3.7,9.1-3.7,9.1s1.9-2.9,4.7-7.8c0.9,1.1,1.8,2.3,2.6,3.6c-2.9,6.4-4.5,10.3-4.5,10.3s2.1-3.4,5.2-9.1
			c0.2,0.4,0.5,0.8,0.7,1.3c-2.9,6.4-4.5,10.3-4.5,10.3s2-3.3,5.2-9c0.4,0.9,0.8,1.8,1.2,2.8c-3.1,6.8-4.8,11.1-4.8,11.1
			s2.2-3.5,5.4-9.3c0.3,0.9,0.5,1.7,0.7,2.6c-3.9,8.5-6.1,13.6-6.1,13.6s2.6-4.3,6.5-11.5c0,0.1,0,0.2,0.1,0.4
			c0.2,1,0.3,1.9,0.4,2.9c-4.4,9.4-6.8,15.1-6.8,15.1s2.7-4.6,7-12.4c0,0.2,0,0.5,0,0.7c-0.9,1.2-1.5,2.4-2.2,3.6
			c-0.9,1.7-1.5,3.3-2.1,4.8c-1.2,3.1-2.1,5.7-2.8,7.9c-0.3,0.9-0.6,1.8-0.9,2.5l-0.3-0.2c-0.5,1.3-1,2.4-1.3,3.3
			c-1.4,0.4-2.8,0.9-4.2,1.6c-5.6,2.8-10.5,7.6-13.9,13.5c-1.7,2.9-3.1,6.1-4.1,9.6c-0.4,1-0.6,1.6-0.6,1.6s0.1-0.2,0.4-0.6
			c-0.1,0.3-0.2,0.7-0.3,1c-1.9,4.3-2.9,6.8-2.9,6.8s0.9-1.4,2.3-3.8c-0.1,0.7-0.2,1.5-0.3,2.2c-1.6,3.7-2.4,5.9-2.4,5.9
			s0.9-1.3,2.3-3.7c0,0.3,0,0.5,0,0.8c0,0.9,0,1.8,0,2.6c-1.4,3.4-2.1,5.3-2.1,5.3s0.9-1.3,2.2-3.6c0.1,0.9,0.2,1.8,0.3,2.7
			c-1.7,4-2.6,6.3-2.6,6.3s1.1-1.7,2.9-4.7c0,0.3,0.1,0.5,0.1,0.8v0.1c-2.4,5.5-3.8,8.9-3.8,9c-0.3-0.4-0.6-0.8-0.8-1.1
			c-2.1-3.1-3.6-6.2-4.5-9.4c-1.8-6.1-1-11.6,0-15.1c1-3.5,1.9-5.4,1.9-5.4s-1.4,1.2-3.5,3.7c-0.1-0.1-0.2-0.2-0.2-0.2
			c-0.1,0,0,0.2,0,0.5c-0.9,1.1-2,2.5-3.1,4.2c-3.6,5.5-7.6,14.2-8.5,24.4c-1.1,2.6-1.6,4-1.6,4s0.6-0.9,1.5-2.4c0,1-0.1,1.9,0,2.9
			c-1.9,4.2-2.8,6.7-2.8,6.7s1.1-1.8,2.9-4.9c0,0.4,0.1,0.8,0.1,1.2c-1.9,4.3-2.9,6.9-2.9,6.9s1.2-1.9,3.1-5.1c0,0.3,0.1,0.7,0.2,1
			c-0.5,1.6-0.7,2.6-0.7,2.6s0.1-0.1,0.3-0.4c-1.7,4-2.6,6.6-2.6,6.6s1.5-2.1,3.6-5.6c0.1,0.5,0.2,0.9,0.4,1.3
			c0.1,0.4,0.3,0.9,0.4,1.3c-1.9,4.3-2.8,7-2.8,7s1.4-2,3.4-5.5c0.3,0.7,0.6,1.3,0.9,1.9c-1.7,3.9-2.5,6.2-2.5,6.2s1.2-1.9,3.2-5.1
			c0.3,0.6,0.7,1.2,1.1,1.7c-0.7,1.8-1.2,3.1-1.5,3.9c-2.4,0-5.1,0.3-7.8,1.1c-4.2,1.2-8.6,3.3-12.5,6.4s-7.1,6.8-9.2,10.9
			c-2,3.9-2.9,8-2.5,11.4c0.4,3.4,1.8,5.7,2.9,7.1c1.1,1.4,1.9,1.9,1.9,1.9l0,0l0,0l0,0c0-0.1-0.1-0.2-0.3-0.4
			c-0.2-0.3-0.3-0.7-0.4-1.4c0-0.4,0-0.8,0.1-1.2c0.4-0.5,1.3-1.7,2.4-3.4l-0.4-0.2c0.1-0.1,0.1-0.1,0.2-0.2c0.6-0.6,1.3-1.2,2-1.7
			c-1.9,4.4-2.9,7-2.9,7s2-3,4.9-8l-0.2-0.1c0.2-0.1,0.5-0.2,0.7-0.3c-1.1,2.7-1.6,4.4-1.6,4.4s1.1-1.5,2.7-4
			c0.3-0.1,0.6-0.2,0.9-0.3c0.5-0.1,1.1-0.2,1.7-0.4c-0.8,2.2-1.2,3.5-1.2,3.5s0.9-1.1,2.2-3c0.5-0.1,1.2-0.3,2.2-0.5
			c-1.5,3.5-2.2,5.5-2.2,5.5s1.4-2.1,3.5-5.6h0.1v-0.2l0,0c0.8-0.2,1.8-0.4,2.8-0.7c0.1,0,0.2,0,0.4,0.1c-0.1,0.1-0.2,0.2-0.3,0.3
			l-0.1-0.1c0,0.1-0.1,0.2-0.1,0.3c0,0,0,0-0.1,0.1l0,0c-1.2,3.1-1.8,5-1.8,5s1.3-1.6,3-4.4l0,0v-0.1c0.1-0.1,0.1-0.2,0.2-0.3
			l-0.1-0.1c0-0.2,0-0.4,0-0.6c0.7,0.2,1.4,0.3,2.1,0.5l0.4,0.1c-1.5,3.7-2.2,6-2.2,6s1.5-2,3.6-5.5l-0.5-0.3l2.3,0.8
			c-1.6,3.7-2.3,6.1-2.3,6.1s1.5-2.1,3.6-5.6l1.7,0.6c0.3,0.1,0.6,0.2,0.9,0.3c-1.5,3.6-2.2,5.9-2.2,5.9s1.4-2,3.5-5.4
			c0.6,0.2,1.2,0.4,1.8,0.6c-1.4,3.4-2.1,5.6-2.1,5.6s1.4-1.9,3.3-5.1c0.6,0.2,1.2,0.4,1.9,0.7c0.1,0,0.2,0.1,0.3,0.1
			c-1.4,3.4-2.1,5.6-2.1,5.6s1.4-1.9,3.3-5.1c0.4,0.1,0.7,0.3,1.1,0.4c-1.5,3.6-2.2,5.7-2.2,5.7s1.3-1.9,3.3-5.2
			c0.9,0.4,1.9,0.8,2.9,1.3c-1.6,3.9-2.5,6.3-2.5,6.3s1.6-2.2,3.7-5.8c1,0.4,2.1,0.9,3.2,1.2c-1.7,3.9-2.5,6.4-2.5,6.4
			s1.6-2.2,3.8-6c0.5,0.1,0.9,0.3,1.4,0.4c-1.8,4.2-2.7,6.8-2.7,6.8s1.7-2.4,4.1-6.5c0.2,0,0.4,0.1,0.6,0.2c0.4,0.1,0.8,0.2,1.2,0.3
			c-1.9,4.4-2.9,7.1-2.9,7.1s1.8-2.6,4.3-6.8c0.4,0.1,0.7,0.1,1.1,0.2c-1.4,3.2-2.4,5.6-2.8,6.8c-0.2,0-0.4,0-0.6,0
			C235.5,352.5,235.3,352.5,235.2,352.5z M235,279.3c0.3,0.8,0.7,1.7,1,2.5c-0.7,1.8-1.2,3.2-1.5,4c-0.9-0.9-1.7-1.8-2.5-2.7
			c0.5-0.7,1.4-2.2,2.7-4.4L235,279.3z M234.2,277.2c-1.2,2.8-2,4.8-2.3,5.7c-0.7-0.8-1.3-1.5-1.9-2.2c0.3-0.4,1.5-2.4,3.4-5.5
			c0.1,0.2,0.1,0.4,0.2,0.6L234.2,277.2z M232.8,273.6c-1.7,4-2.7,6.5-2.9,7c-0.8-0.9-1.5-1.9-2.1-2.8c0.1-0.1,1.7-2.7,4.2-7.1l0,0
			l0.3,1.1C232.5,272.5,232.7,273,232.8,273.6z M221.7,252c-0.2,0.5-0.4,1.1-0.6,1.7c0-0.4,0.1-0.8,0-1.1c0-0.2,0-0.3,0-0.4
			c1.6-3.1,2.9-5,3.1-5.3C224.1,247.1,223,248.7,221.7,252z M209.6,291.3c0,0.1,0.1,0.2,0.1,0.4l-0.3-0.1
			C209.5,291.4,209.6,291.3,209.6,291.3z M216.9,305.5c0.4,0.4,0.8,0.7,1.2,1c-0.5-0.1-1.1-0.3-1.7-0.4
			C216.6,306,216.7,305.8,216.9,305.5z M216.2,304.7L216.2,304.7c-0.1,0.6-0.2,1-0.3,1.4c-0.9-0.1-2-0.2-3-0.2
			c0.4-0.6,1.1-1.6,1.9-2.9C215.2,303.6,215.7,304.2,216.2,304.7z M196.6,334.5c0.2,0,0.4,0,0.6,0c-0.3,0.1-0.6,0.3-0.8,0.4
			C196.4,334.7,196.5,334.6,196.6,334.5z M193.3,334.1c0.4-0.1,0.8-0.2,1.3-0.3c0.3-0.1,0.7-0.2,1.1-0.2v0.1
			c-0.9,0.3-1.7,0.6-2.3,0.9c-0.1,0.1-0.2,0.1-0.3,0.2C193,334.5,193.1,334.3,193.3,334.1L193.3,334.1z M196.4,333.4L196.4,333.4
			L196.4,333.4L196.4,333.4z M184.7,338.9c0.1-0.3,0.1-0.6,0.2-0.9c0.1-0.1,0.1-0.1,0.2-0.2C184.9,338.2,184.8,338.5,184.7,338.9z
			 M238.9,352.3c-0.8,0.1-1.6,0.1-2.5,0.2c0.8-1.2,2.2-3.5,4-6.6c0.8,0.1,1.6,0.2,2.4,0.3c-1.3,3.1-2.1,5.2-2.4,6
			c-0.1,0-0.2,0-0.3,0C239.8,352.3,239.4,352.3,238.9,352.3z M263,345.3c-0.6,1.6-1.1,2.7-1.3,3.4c-1.2,0.3-2.3,0.6-3.5,0.9
			c0.6-1.1,1.4-2.3,2.3-3.8C261.3,345.6,262.1,345.5,263,345.3z M258.9,346c-0.6,1.5-1.2,2.7-1.6,3.8c-1.4,0.3-2.8,0.6-4.2,0.8
			c0.7-1.1,1.6-2.5,2.6-4.3C256.6,346.3,257.8,346.2,258.9,346z M254,346.5c-0.7,1.8-1.3,3.2-1.7,4.2c-0.9,0.2-1.9,0.3-2.8,0.4
			c0.7-1,1.7-2.6,2.9-4.6C252.9,346.5,253.5,346.5,254,346.5z M250.8,346.6c-0.8,2-1.4,3.6-1.8,4.6c-1.3,0.2-2.6,0.4-3.9,0.5
			c0.7-1.1,1.8-2.9,3.1-5.2C249,346.6,249.9,346.6,250.8,346.6z M246.9,346.5c-1,2.3-1.7,4.1-2.2,5.2c-1.3,0.2-2.7,0.3-4,0.4
			c0.5-0.8,1.9-2.8,3.6-5.8C245.2,346.4,246,346.5,246.9,346.5z M261.9,348.7c0.5-0.7,1.3-2,2.3-3.6c1.1-0.2,2.2-0.5,3.2-0.9
			c-0.6,1.4-1,2.5-1.3,3.3c-0.5,0.1-1,0.3-1.4,0.4C263.9,348.2,262.9,348.4,261.9,348.7z M266.8,347.3c0.6-0.9,1.4-2.1,2.3-3.6
			c0.9-0.3,1.9-0.6,2.8-1c-0.6,1.4-1,2.5-1.4,3.4C269.3,346.5,268,347,266.8,347.3z M271.1,345.9c0.6-0.9,1.4-2.2,2.3-3.8
			c0.3-0.1,0.5-0.2,0.8-0.3c0.9-0.4,1.8-0.8,2.7-1.3c-0.6,1.5-1.1,2.8-1.5,3.7C274,344.8,272.6,345.4,271.1,345.9z M285.8,334.9
			c-1.1,2.4-1.9,4.3-2.4,5.5c-1.3,0.7-2.5,1.3-3.8,1.9c0.6-1,1.8-2.8,3.3-5.3C283.8,336.4,284.8,335.7,285.8,334.9z M280.9,338.3
			c-0.8,2-1.4,3.5-1.7,4.2c-1,0.4-1.9,0.9-2.9,1.3c0.7-1.1,1.6-2.6,2.6-4.4C279.7,339.1,280.3,338.7,280.9,338.3z M297.3,330.6
			c-4,3.8-8.6,6.9-13.5,9.7c0.9-1.6,2.4-4,4.1-7.1c1.2-1,2.3-2.1,3.3-3.2c4.6-4.9,8.1-10.6,10.6-16.2c2.4-5.6,3.9-11.3,4.9-16.6
			c0.9-5.3,1.3-10.3,1.5-14.8c0.4-9.1,0-16.3,0-21.3c0-3,0-5.2,0-6.5c0.6-0.9,1.8-2.7,3.2-5.1l-1.3-0.7c-0.9,2.1-1.5,3.8-1.9,4.9
			c0-0.3,0-0.4,0-0.4s0,0.2-0.1,0.6c-0.3,0.9-0.5,1.4-0.5,1.4s0.1-0.2,0.4-0.5c-0.2,1.3-0.4,3.4-0.6,6.3c-0.4,5-0.6,12.4-1.5,21.2
			c-0.9,8.9-2.6,19.5-7.6,30c-2.5,5.2-5.8,10.3-10.3,14.7c-4.3,4.4-9.7,8.1-15.7,10.7c-6,2.6-12.4,4-18.5,4.5
			c-6.1,0.5-12.3,0.2-17.8-0.9c-2.8-0.5-5.4-1.3-7.9-2.3c-2.6-1-5.1-2-7.6-2.8c-2.5-0.9-5-1.5-7.3-2.1l-6.7-1.8
			c-4.5-1.1-8.9-0.9-12.4,0.2c-0.1,0-0.1,0.1-0.2,0.1c-0.2,0-0.3,0.1-0.5,0.1l-0.1-0.4c-1.2,0.5-2.2,1-2.9,1.4
			c-0.6,0.2-1.1,0.5-1.6,0.8l-0.2-0.3c-0.4,0.3-0.7,0.7-1.1,1c0,0-0.1,0-0.1,0.1l0,0c0.1-0.1,0.1-0.1,0.1-0.2
			c1.5-1.8,3.9-3.5,6.9-4.8c1.5-0.6,3.2-1.2,5-1.5s3.8-0.4,5.8-0.2c4.1,0.4,8.6,1.6,13.2,3.3c2.3,0.8,4.7,1.8,7.1,2.8
			c2.4,1,4.9,2.1,7.7,3c5.4,1.8,11.5,2.8,17.7,2.7c6.2-0.1,12.8-1.5,18.9-4.1c3.1-1.3,5.9-2.8,8.8-4.6c1.4-0.9,2.7-1.8,4-2.7
			c1.3-0.9,2.5-2,3.7-3.1c4.6-4.4,7.7-9.9,10-15.2c2.2-5.3,3.7-10.7,4.7-15.6c1.1-5,1.8-9.7,2.3-14c1.1-8.6,1.6-15.5,2.1-20.3
			c0.4-4.8,0.7-7.4,0.6-7.4s-0.7,2.6-1.4,7.3c-0.7,4.7-1.5,11.7-2.8,20.2c-0.6,4.2-1.4,8.9-2.6,13.8c-1.1,4.9-2.6,10.1-4.8,15.2
			c-2.2,5.1-5.2,10.3-9.6,14.4c-1.1,1-2.2,2-3.4,2.9c-1.2,0.9-2.5,1.8-3.8,2.6c-2.6,1.7-5.4,3.2-8.4,4.4c-5.9,2.5-12.1,3.8-18,4
			c-6,0.2-11.8-0.8-17-2.5c-2.6-0.8-5.1-1.9-7.5-2.9c-2.5-1-4.9-1.9-7.2-2.7c-4.7-1.6-9.4-2.8-13.7-3.1c-2.2-0.1-4.3,0-6.2,0.4
			c-1.9,0.4-3.7,1-5.3,1.7c-3.2,1.5-5.6,3.4-7.1,5.4c-0.7,0.9-1.2,1.8-1.6,2.7c-0.1,0.1-0.2,0.2-0.3,0.4c0.3-1.4,0.7-3,1.4-4.8
			c1-2.7,2.5-5.7,4.9-8.7c1.2-1.4,2.6-2.8,4.2-4.1c1.6-1.2,3.4-2.5,5.2-3.4c3.8-1.8,7.9-2.2,11.7-2.1c0.9,0,1.8,0.1,2.7,0.1l1.3,0.1
			l0.6,0.1h0.2l0.3,0.1l4.5,1.3c2.8,0.8,5.2,1.2,6.9,1.1c1.7-0.1,2.6-0.7,2.5-0.8c-0.1-0.2-0.9,0.1-2.5,0c-1.5-0.1-3.8-0.7-6.4-1.7
			c-1.4-0.5-2.8-1-4.5-1.6l-0.3-0.1c-0.2-0.1-0.3,0-0.4-0.1l-0.7-0.1l-1.3-0.2c-0.9-0.1-1.9-0.2-2.8-0.2c-3.9-0.2-8.5,0.2-12.8,2.2
			c-4.2,2.1-7.5,5-10.2,8.1c-2.5,3.1-4,6.5-4.8,9.5c-0.8,2.9-1,5.3-1.1,7c0,1.7,0.1,2.6,0.3,2.6l0,0l0,0c0.1,0,0.1-0.1,0.2-0.4l0,0
			l0,0c0,0,0.1-0.2,0.2-0.5c-0.2,0.7-0.2,1.4-0.1,2c0.1,0.3,0.1,0.5,0.2,0.7c-0.2-0.3-0.4-0.7-0.6-1.2c-0.7-1.5-1.5-3.9-1.2-6.8
			c0.2-2.9,1.4-6.2,3.5-9.5c2.1-3.2,5.1-6.4,8.7-9.2c3.5-2.8,7.3-4.9,11-6.3s7.1-2.1,10.1-2.2c2.5-0.1,4.7,0.2,6.3,0.6
			c0.2,0.1,0.4,0.2,0.5,0.2c1.7,0.7,2.7,0.8,2.7,0.8s-0.7-0.6-2.2-1.5c-0.2-0.1-0.5-0.3-0.8-0.4c-1.3-1-3-2.6-4.4-4.8
			c-1.7-2.6-3.1-6-3.9-10c-0.8-4-1-8.6-0.7-13.3c0.7-9.6,3.3-18.1,5.9-23.9c0.1-0.3,0.3-0.7,0.4-1c-0.3,1-0.6,2.1-1,3.4
			c-0.8,2.5-1.8,5.5-2.6,9c-0.2,0.9-0.4,1.8-0.5,2.7c-0.1,0.9-0.1,2-0.1,3c0.1,1.9,0.4,3.9,0.9,5.9c1,4,2.6,7.6,4.4,10.7
			c1.8,3,3.9,5.4,5.7,7.3c3.7,3.7,6.5,5.4,6.7,5.2c0.2-0.3-2.2-2.4-5.5-6.3s-7.3-9.9-9.3-17.4c-0.4-1.9-0.8-3.7-0.9-5.5
			c-0.1-0.9-0.1-1.7,0-2.6c0.1-0.8,0.2-1.7,0.4-2.5c0.5-2.4,1.1-4.7,1.6-6.7c-0.1,2.1,0,4.4,0.5,6.8c0.7,3.4,2.1,6.9,4.1,10.4
			c2,3.5,4.6,6.8,7.5,10.2c2.9,3.3,6.1,6.6,9.2,10.2c1.5,1.7,2.9,3.5,4,5.4c1.1,1.9,1.8,3.9,1.5,5.6c-0.2,1.8-1.4,3.5-3,5l-1.2,1
			c-0.7,0.3-0.4,1-0.5,1.6v1.3v0.8c-0.1,1.1-0.2,2.2-0.4,3.2c-0.4,2.1-1.2,3.7-2.5,4.4c-1.3,0.8-3.3,0.8-5.2,0.5
			c-4-0.6-7.9-2-11.6-3.2c-3.7-1.1-7.2-2.1-10.6-2.6c-3.3-0.5-6.4-0.5-9.2,0c-2.7,0.5-4.8,1.6-6.3,2.7c-1.5,1.1-2.5,2.2-3.1,3
			s-0.9,1.2-0.9,1.2s0.3-0.4,1-1.1c0.7-0.7,1.8-1.6,3.4-2.5c1.6-0.9,3.7-1.7,6.2-1.9c2.5-0.2,5.4,0.1,8.6,0.8
			c3.1,0.8,6.4,2,10.1,3.3c3.6,1.3,7.3,3,12,4c1.1,0.2,2.4,0.4,3.7,0.3c1.3,0,2.7-0.3,4.1-1c1.4-0.7,2.5-1.9,3.3-3.1
			c0.8-1.3,1.2-2.6,1.5-3.9c0.3-1.3,0.5-2.6,0.6-3.9l0.1-1v-0.5c0-0.1,0,0,0-0.1l0,0l0,0l0,0l0.2-0.2c1-0.9,2-2,2.8-3.2
			c0.8-1.3,1.5-2.8,1.7-4.4c0.2-1.6,0-3.2-0.4-4.7c-0.4-1.4-1.1-2.7-1.7-3.9c-1.4-2.3-3-4.2-4.6-6c-0.8-0.9-1.7-1.8-2.5-2.7
			c-0.6-4.1-0.2-9.3,1.7-14.4c1.2-3.1,2.8-5.9,4.7-8.2s4-4,5.9-5.2c3.9-2.5,6.9-3.2,6.9-3.3c0,0.1-3-0.4-7.8,1.3
			c-2.4,0.8-5.1,2.3-7.6,4.6s-4.8,5.5-6.2,9.3c-1.4,3.7-1.9,7.5-1.6,11c0,0.3,0.1,0.7,0.1,1c-1.1-1.1-2.1-2.1-3.1-3.1l0,0
			c0.6-0.9,1.9-2.9,3.5-5.5l-1-0.5c0.6-2.2,1.3-4.3,1.9-6.1c0.2-0.7,0.5-1.3,0.7-1.9l0.6-1.4l0.8-1.8c0.2-0.4,0.4-0.7,0.5-1.1
			c0.7-1.1,2.7-4.4,5.4-9.3c1.3-1.8,2.7-3.4,4.2-4.8c-2.5,5.6-3.9,8.9-3.9,8.9s2.5-4.1,6.2-10.9c0.1,0,0.1-0.1,0.2-0.1
			c0.2,0,0.4,0,0.6,0l-0.1-0.3c0.7-0.5,1.5-0.9,2.3-1.2c-2.1,4.8-3.2,7.7-3.2,7.7s2.1-3.2,5-8.5c0.5-0.1,1.1-0.3,1.6-0.3
			c0.1,0,0.1,0,0.2,0c-0.1,0.2-0.2,0.5-0.2,0.7l-0.9-0.4c-1.9,4.4-2.8,7.2-2.8,7.2s1.2-1.8,3.1-4.8c-0.2,0.7-0.3,1.1-0.3,1.1
			s1.2-1.4,2.7-3.9c0.2,0,0.5,0,0.7,0.1c-2,4.5-3,7.2-3,7.2s1.8-2.6,4.3-7c0.4,0.1,0.7,0.2,1.1,0.3c-1.9,4.4-2.9,7.1-2.9,7.1
			s1.7-2.5,4.1-6.7c0.6,0.2,1.1,0.5,1.7,0.8c-1.7,4.1-2.6,6.6-2.6,6.6s1.6-2.2,3.8-5.9c0.4,0.2,0.8,0.5,1.2,0.7
			c-1.7,4-2.5,6.4-2.5,6.4s1.5-2.1,3.6-5.7l2,1.3c-1.7,4-2.6,6.4-2.6,6.4s1.5-2.1,3.6-5.8l1.1,0.7c0.1,0,0.1,0.1,0.2,0.1
			c-1.4,3.4-2,5.5-2,5.5s1.3-1.8,3.2-4.8c0.7,0.4,1.3,0.8,2,1.1c-1.5,3.7-2.3,6-2.3,6s1.4-2,3.5-5.4c0.8,0.4,1.7,0.8,2.5,1
			c-1.2,3.1-1.8,5-1.8,5s1.3-1.7,3.1-4.6c0.2,0,0.3,0.1,0.5,0.1c1,0.2,1.9,0.3,2.9,0.3c-1.9,4.3-2.9,6.9-2.9,6.9s1.7-2.6,4.3-7.1
			c1-0.2,2-0.5,2.7-0.9c-3.3,7.1-5.1,11.4-5.1,11.4s2.8-4.8,7.2-12.9c0.7-0.6,1.2-1.2,1.5-1.6c0.7-0.8,1-1.2,1-1.2s-0.3,0.4-1.1,1.1
			c-0.3,0.3-0.6,0.6-1,0.9c0.2-0.4,0.5-0.9,0.7-1.3l-1.3-0.7c-0.6,1.2-1.1,2.4-1.6,3.4c-0.1,0.1-0.3,0.2-0.4,0.2
			c-0.6,0.3-1.4,0.5-2.2,0.7c0.1-0.3,0.3-0.5,0.4-0.8l-1.3-0.7c-0.2,0.5-0.5,1-0.7,1.5c-0.9,0-1.9-0.2-2.9-0.5
			c-2.5-0.8-5.2-2.5-8-4.6l-4.4-3.3c-1.6-1.1-3.3-2.3-5.3-3.3c-2.1-1-4.5-1.5-7-1.3c-2.5,0.2-5,1-7.2,2.3
			c-4.5,2.6-8.1,6.8-11.2,11.4c-1.4,2.2-2.7,4.5-3.9,7c0.2-1.6,0.6-3.4,1.1-5.4c0.5-1.8,1-3.8,1.9-5.8c0.9-2,1.8-4.2,3.1-6.2
			c1.3-2.1,2.8-4.1,4.8-5.7c2-1.6,4.4-2.8,7-3.2c2.6-0.4,5.1,0.4,7.4,1.5c2.3,1.1,4.4,2.6,6.4,4.1c3.9,2.9,7.5,5.8,11.2,7.3
			c1.8,0.8,3.5,1.2,5.1,1.2c1.6,0,2.9-0.3,3.9-0.7c2-0.9,2.9-1.8,2.8-1.9c-0.1-0.2-1.1,0.5-3.1,1c-1,0.3-2.2,0.4-3.6,0.3
			c-1.4-0.1-2.9-0.6-4.6-1.4c-3.2-1.6-6.6-4.5-10.6-7.5c-2-1.5-4.1-3.1-6.6-4.4c-2.5-1.3-5.5-2.2-8.8-1.8c-3.1,0.5-5.9,1.9-8.1,3.7
			c-2.2,1.9-3.9,4.1-5.2,6.3c-1.3,2.2-2.3,4.5-3.1,6.6c-0.4,1-0.8,2.1-1,3.2c-0.3,1-0.5,2-0.7,3c-0.7,3.4-0.9,6.3-0.8,8.5v0.1l0,0
			l0,0c0,0.1-0.1,0.1-0.1,0.1s0-0.1,0-0.2v-0.1l0,0l0,0l-0.1-0.2l-0.2-1c-0.5-2.8-0.8-5.6-0.7-8.6c0.2-6.3,1.9-12.6,4.9-17.8
			c2.9-5.2,7.1-9.7,11.9-12.2c2.3-1.3,4.8-2,7.2-2c1.2,0,2.3,0.2,3.4,0.6c1,0.4,2.2,1,3.1,1.7c4,2.7,6.4,6.7,9,10.4
			c1.2,1.8,2.5,3.6,4,5c1.4,1.5,3.1,2.6,4.8,3.3c0.7,0.3,1.5,0.5,2.2,0.6v0.1l0,0c1,0.2,2,0.3,2.9,0.3c-0.2,0.4-0.2,0.6-0.2,0.6
			s0.1-0.2,0.4-0.6c0.9,0,1.8,0,2.6-0.1c-0.1,0.3-0.1,0.4-0.1,0.4s0.1-0.1,0.3-0.4c0.4,0,0.7-0.1,1.1-0.1c1.8-0.3,3.2-0.7,4.3-1
			c-0.1,0.2-0.1,0.3-0.1,0.3s0.1-0.1,0.2-0.3c0.4-0.1,0.7-0.2,1-0.3c1.2-0.4,1.9-0.7,1.9-0.7s-0.7,0.2-1.9,0.5
			c-0.2,0-0.5,0.1-0.7,0.2c0.5-0.8,1.5-2.2,2.8-4.2l1.3,0.6c-1.7,4.1-2.6,6.6-2.6,6.6s1.6-2.3,3.8-6l1.2,0.6c-2,4.6-3,7.4-3,7.4
			s1.8-2.6,4.3-6.8l2.4,1.1c-1.9,4.4-2.9,7.1-2.9,7.1s1.7-2.4,4.1-6.5l6.8,3.2c-0.1,0.3-0.1,0.6-0.2,1l-1-0.5
			c-1.6,3.8-2.3,6.1-2.3,6.1s1.3-1.8,3.2-4.8c-0.5,2.6-1,6.1-1.3,8c-2.4,12.7-0.9,24.2-2.2,37.1l-0.4,4.8c-0.1,1.5-0.4,3-0.7,4.5
			c-0.6,3-1.5,5.9-2.7,8.7C305.5,321.3,301.8,326.4,297.3,330.6z"/>
		<path class="st1" d="M166.1,154c0.1,0.9,0.3,1.8,0.5,2.7c0.1,0.3,0.2,0.5,0.3,0.8c0.1,0.2,0.1,0.4,0.2,0.6c0.6,1.5,1.5,3,2.5,4.3
			c0.1,0.1,0.2,0.2,0.3,0.3c0.6,0.7,1.2,1.3,1.9,1.8c0.9,0.7,1.9,1.4,3,1.9c0.9,0.4,1.8,0.8,2.8,1.1c1.1,0.3,2.3,0.5,3.5,0.6
			c2.2,0.1,4.4-0.2,6.4-1c4.1-1.5,7.4-4.7,9.1-8.6c1.7-3.8,1.8-8.2,0.4-12.1c-1-2.8-2.8-5.2-5.1-7c-0.8-0.6-1.7-1.2-2.6-1.7
			c0.9,0.5,1.8,1.1,2.6,1.7c0.7,0.6,1.4,1.2,2,2c1.3,1.5,2.2,3.3,2.8,5.2c1.1,3.8,0.6,7.9-1.3,11.2c-1.9,3.3-5,5.7-8.6,6.7
			c-2.5,0.7-5.2,0.8-7.7,0.1c-1-0.3-1.9-0.6-2.8-1.1c-1.1-0.5-2-1.2-2.9-2c-0.7-0.6-1.3-1.2-1.8-1.9c-0.9-1.2-1.7-2.5-2.2-3.9
			c-0.1-0.3-0.2-0.7-0.3-1c-0.1-0.2-0.1-0.5-0.2-0.7c-0.3-1.4-0.5-2.9-0.3-4.4c0.1-1.6,0.5-3.2,1.1-4.7c0.8-2,2.2-3.8,3.9-5.2
			c1.1-0.9,2.4-1.7,3.7-2.3c0.2-0.1,0.3-0.2,0.5-0.2h0.1c1.8-0.6,3.6-0.9,5.5-0.8h0.1c0.8,0.1,1.7,0.2,2.5,0.4
			c1.1,0.3,2.2,0.6,3.2,1.1c-1-0.5-2.1-0.9-3.2-1.2c-0.8-0.2-1.7-0.4-2.6-0.4c-1.8-0.2-3.6,0-5.3,0.5c-0.2,0-0.4,0.1-0.5,0.1h-0.1
			c-1.1,0.3-2.2,0.8-3.3,1.4c-1.9,1.1-3.6,2.6-4.9,4.4c-0.4,0.5-0.8,1.1-1.1,1.6c-0.6,1-1,2-1.3,3.1
			C166,149.6,165.8,151.8,166.1,154z"/>
		<path class="st1" d="M182.6,137.8c-1.3,0-2.6,0.2-3.8,0.6c-0.7,0.2-1.4,0.5-2,0.8c-0.2,0.1-0.5,0.3-0.7,0.4c-2.1,1.2-3.8,2.9-5,5
			c-1.3,2.3-1.8,5.1-1.5,7.8c0,0.3,0.1,0.6,0.1,0.8c0.1,0.5,0.2,1,0.3,1.5c0.4,1.4,1.1,2.7,2,3.9c0.2,0.2,0.3,0.5,0.5,0.7
			c0.4,0.5,0.8,0.9,1.3,1.3c0.9,0.8,1.8,1.5,2.9,2c0.9,0.4,1.9,0.8,2.8,1c0.8,0.2,1.5,0.3,2.3,0.4c1.8,0.1,3.6-0.2,5.2-0.8
			c3.3-1.2,6.1-3.8,7.5-6.9c1.4-3.1,1.5-6.8,0.4-10c-0.8-2.1-2.1-4.1-3.8-5.5c-0.8-0.7-1.7-1.3-2.6-1.7c0.9,0.5,1.8,1.1,2.6,1.8
			c0.4,0.4,0.9,0.8,1.3,1.3c1.1,1.3,1.8,2.7,2.3,4.3c0.9,3.1,0.5,6.6-1,9.4c-1.5,2.8-4.2,4.9-7.1,5.7c-2,0.6-4.1,0.7-6,0.2
			c-1-0.2-2-0.5-2.9-1c-1.1-0.5-2-1.2-2.9-2c-0.7-0.6-1.2-1.3-1.7-2.1c-0.5-0.8-1-1.7-1.3-2.6c-0.4-1.1-0.7-2.3-0.7-3.5
			c0-0.3,0-0.7,0-1c0-1.6,0.4-3.1,1.1-4.6c0.8-1.8,2-3.3,3.6-4.6c0.3-0.2,0.6-0.4,0.8-0.6c0.8-0.5,1.6-0.9,2.5-1.3
			c1.2-0.4,2.4-0.7,3.6-0.7c0.4,0,0.8,0,1.2,0c0.5,0,1,0.1,1.5,0.2c1.1,0.2,2.2,0.6,3.2,1.1c-1-0.5-2.1-0.9-3.2-1.1
			C184.4,137.9,183.5,137.8,182.6,137.8z"/>
		<path class="st1" d="M181.5,140c-0.5,0.1-0.9,0.2-1.4,0.3c-2.5,0.7-4.6,2.5-5.9,4.8c-1.3,2.3-1.5,5.2-0.7,7.7
			c0.2,0.5,0.4,1,0.6,1.5c0.4,0.8,1,1.6,1.6,2.3c0.8,0.9,1.8,1.6,2.8,2.1c0.9,0.5,1.9,0.8,2.9,0.9c1.7,0.3,3.4,0.1,4.9-0.4
			c2.5-0.9,4.6-2.8,5.7-5.2c1.1-2.4,1.3-5.2,0.4-7.6c-0.5-1.4-1.3-2.7-2.4-3.8c-0.1-0.1-0.3-0.3-0.5-0.4c0.2,0.1,0.3,0.3,0.5,0.4
			c1.1,1.1,1.9,2.4,2.3,3.8c0.8,2.4,0.5,5.1-0.7,7.3c-1.2,2.2-3.2,3.9-5.6,4.6c-1.4,0.4-2.8,0.5-4.2,0.3c-1-0.1-2-0.4-2.9-0.9
			c-1.1-0.5-2-1.3-2.8-2.1c-0.6-0.7-1.2-1.5-1.6-2.4c-0.1-0.3-0.2-0.5-0.3-0.8c-0.8-2.3-0.7-5,0.4-7.2c1.1-2.3,3.1-4.1,5.5-4.9
			c0.4-0.1,0.8-0.3,1.3-0.3c0.9-0.2,1.9-0.2,2.9-0.1c1.2,0.1,2.3,0.4,3.3,1c-1-0.5-2.2-0.8-3.3-1C183.4,139.9,182.4,139.9,181.5,140
			z"/>
		<path class="st1" d="M278.9,216c0.5,1,1.1,1.9,1.8,2.7c0.8,1,1.8,1.8,2.8,2.6c0.7,0.5,1.3,0.9,2.1,1.3c0.1,0,0.1,0.1,0.2,0.1
			c1.3,0.6,2.7,1.1,4.2,1.4c0.2,0,0.3,0.1,0.5,0.1c0.5,0.1,1.1,0.2,1.6,0.2c0.3,0,0.5,0,0.8,0c1,0,1.9-0.1,2.9-0.3
			c0.9-0.2,1.8-0.4,2.7-0.7c2-0.7,3.8-1.9,5.3-3.3c0.3-0.3,0.7-0.6,1-1c1.1-1.3,2.1-2.7,2.7-4.2c0.5-1,0.8-2.1,1-3.2
			c0.1-0.5,0.2-0.9,0.2-1.4c0.3-2.5,0-5.1-0.9-7.4c-0.2-0.5-0.4-1-0.6-1.4c-0.4-0.9-0.9-1.7-1.5-2.5c-0.5-0.7-1-1.3-1.6-1.9
			c-0.1-0.1-0.2-0.2-0.3-0.3c-1.1-1-2.4-1.9-3.7-2.6c1.4,0.7,2.6,1.6,3.7,2.7c0.1,0.1,0.2,0.2,0.3,0.4c0.2,0.2,0.4,0.4,0.6,0.6
			c0.3,0.4,0.7,0.8,1,1.3c0.6,0.8,1,1.8,1.4,2.7c0.2,0.4,0.3,0.8,0.4,1.2c1.1,3.8,0.6,7.9-1.3,11.3c-1.9,3.3-5,5.7-8.6,6.7
			c-0.1,0-0.2,0-0.3,0.1c-1,0.3-2,0.4-3,0.5c-0.8,0-1.7,0-2.5-0.1c-0.2,0-0.3,0-0.5-0.1c-1.5-0.2-2.9-0.7-4.2-1.3
			c-0.1,0-0.1-0.1-0.2-0.1c-0.7-0.4-1.4-0.8-2.1-1.3c-1.9-1.5-3.5-3.5-4.4-5.7c-0.1-0.2-0.2-0.4-0.3-0.7c-1.3-3.4-1.2-7.3,0.3-10.9
			c1.5-3.5,4.5-6.4,8.1-7.7c0.6-0.2,1.2-0.4,1.9-0.5c1.3-0.3,2.6-0.4,3.9-0.3c1.1,0.1,2.2,0.3,3.3,0.6c0.8,0.2,1.6,0.5,2.3,0.9h0.1
			h-0.1c-0.7-0.4-1.5-0.7-2.3-0.9c-2.3-0.7-4.7-0.9-7.1-0.5c-0.7,0.1-1.5,0.3-2.2,0.5c-3.9,1.1-7.3,3.8-9.5,7.4
			c-2.1,3.6-2.6,8.2-1.4,12.4C278,214.1,278.4,215.1,278.9,216z"/>
		<path class="st1" d="M297.1,194.7c-2.4-0.6-4.9-0.6-7.3,0.1c0,0-0.1,0-0.1,0.1c-3.1,1-6,3.2-7.6,6.1c-1.7,3-2.1,6.7-1.1,10.2
			c0,0.1,0.1,0.3,0.2,0.4c0.5,1.5,1.3,3,2.4,4.2c0.6,0.7,1.2,1.3,1.9,1.8c0.6,0.5,1.3,1,2.1,1.3c0.1,0,0.1,0.1,0.2,0.1
			c1.3,0.7,2.8,1.1,4.3,1.3c0.2,0,0.3,0,0.5,0.1c0.1,0,0.3,0,0.4,0c0.7,0,1.5,0,2.2-0.1c1-0.1,2.1-0.3,3-0.7c0,0,0,0,0.1,0
			c3.3-1.2,6-3.8,7.4-6.9c1.3-2.8,1.5-6.1,0.7-9.1c-0.1-0.3-0.2-0.6-0.3-0.9c-0.3-0.7-0.6-1.4-1-2.1c-0.4-0.7-0.9-1.4-1.5-2.1
			c-0.1-0.1-0.2-0.2-0.3-0.4c-1-1.1-2.3-2.1-3.6-2.7c1.4,0.7,2.6,1.7,3.6,2.8c0.1,0.1,0.2,0.2,0.2,0.2l0.1,0.1
			c0.6,0.7,1,1.4,1.4,2.2c0.3,0.6,0.6,1.3,0.8,2c0.1,0.4,0.2,0.8,0.3,1.3c0.5,2.8,0,5.7-1.3,8.1c-1.2,2.2-3.1,3.9-5.3,5
			c-0.6,0.3-1.2,0.5-1.8,0.7c-0.5,0.1-1,0.2-1.5,0.3c-0.9,0.1-1.8,0.2-2.6,0.1c-0.2,0-0.3,0-0.5,0c-1.5-0.1-3-0.5-4.3-1.2
			c-0.1,0-0.1-0.1-0.2-0.1c-0.7-0.4-1.4-0.8-2-1.4c-1.7-1.4-3-3.2-3.7-5.2c-0.2-0.4-0.3-0.8-0.4-1.2c-0.6-2.6-0.4-5.4,0.7-7.9
			c1.2-2.8,3.6-5,6.4-6.2c0.1-0.1,0.3-0.1,0.4-0.2c1.5-0.5,3.2-0.8,4.8-0.7C295.5,194.4,296.3,194.5,297.1,194.7s1.5,0.5,2.3,0.9
			h0.1h-0.1C298.6,195.2,297.9,194.9,297.1,194.7z"/>
		<path class="st1" d="M296.2,196.4c-1.7-0.3-3.4-0.3-5,0.2c-1.2,0.4-2.3,1-3.3,1.8s-1.9,1.9-2.5,3.1c-0.7,1.3-1.1,2.7-1.2,4.2
			c-0.1,1.2,0.1,2.4,0.4,3.5c0.5,1.7,1.5,3.3,2.9,4.5c0.6,0.6,1.3,1,2,1.4c0.1,0,0.1,0.1,0.2,0.1c1.4,0.7,2.9,1,4.4,1.1
			c0.2,0,0.3,0,0.5,0c1,0,1.9-0.2,2.8-0.5h0.1c1.5-0.5,2.9-1.4,4-2.6c0.7-0.8,1.3-1.7,1.8-2.6c0.4-0.8,0.6-1.6,0.8-2.5
			c0.3-1.6,0.2-3.3-0.3-4.8c0-0.1-0.1-0.2-0.1-0.3c-0.3-0.8-0.7-1.6-1.2-2.3c-0.1-0.1-0.2-0.3-0.3-0.4c-0.9-1.2-2.1-2.3-3.5-2.9
			c1.4,0.7,2.6,1.7,3.5,3c0.1,0.1,0.2,0.3,0.3,0.4c0.4,0.7,0.8,1.5,1,2.2c0.1,0.2,0.1,0.3,0.1,0.5c0.6,2.3,0.3,4.8-0.8,6.9
			c-1,2-2.8,3.5-4.9,4.3c-0.2,0.1-0.5,0.2-0.7,0.3c-0.7,0.2-1.4,0.3-2.2,0.4c-0.2,0-0.3,0-0.5,0c-1.5,0-3.1-0.3-4.4-1
			c-0.1,0-0.1-0.1-0.2-0.1c-0.7-0.4-1.4-0.9-2-1.4c-1.1-1-2-2.4-2.5-3.8c-0.6-1.6-0.7-3.3-0.4-5c0.1-0.8,0.4-1.5,0.7-2.2
			c0.4-0.9,1-1.7,1.6-2.4c1-1.1,2.3-2,3.8-2.5C292.8,196.2,294.5,196.1,296.2,196.4c0.8,0.2,1.6,0.4,2.3,0.8h0.1c0,0-0.1,0-0.1-0.1
			C297.8,196.8,297,196.6,296.2,196.4z"/>
		<path class="st1" d="M225.8,196.5c-10.3-5.2-22.8-1.1-28.1,9.2c-4.2,8.4-2.3,18.2,4,24.4l-35.4,54.3l26.9,13.6l20.6-62.3
			c8.5,1,17-3.2,21.1-11.3C240.1,214.2,236,201.7,225.8,196.5z"/>
		<path class="st1" d="M194.9,230.5c0,0-1.1-1.6-2.4-4.9c-1.2-3.2-2.3-8.4-1.2-14.3c0.6-2.9,1.8-6,3.7-9.1c1.9-2.9,4.5-5.6,7.8-7.6
			s7.2-3.4,11.4-3.7c4.1-0.3,8.6,0.4,12.5,2.3c4,1.9,7.3,4.8,9.7,8.2c2.4,3.4,3.8,7.3,4.3,11.2c0.5,3.8,0.1,7.6-1,11
			c-1.1,3.3-2.8,6.2-4.7,8.6c-3.9,4.6-8.6,6.9-11.9,8c-3.3,1.1-5.3,1.2-5.3,1.2s2,0.2,5.5-0.5c3.4-0.7,8.7-2.5,13.4-7.2
			c2.3-2.3,4.4-5.3,5.9-9s2.3-7.8,1.9-12.4c-0.3-4.4-1.8-9.1-4.5-13.2s-6.6-7.6-11.4-9.9s-10-3.1-14.8-2.6
			c-4.9,0.5-9.5,2.3-13.1,4.8c-3.7,2.5-6.5,5.8-8.4,9.3c-1.9,3.4-2.9,7-3.2,10.3c-0.7,6.6,1.1,11.8,2.7,14.9
			C193.5,229.1,194.9,230.5,194.9,230.5z"/>
		<path class="st1" d="M197.7,302.1l1.1-3.4l2-6.6l3.8-12.4c2.3-7.8,4.4-14.8,6.1-20.6c3.3-11.7,5.2-18.6,5.2-18.6
			s-2.7,6.7-6.9,18.1c-2.1,5.6-4.6,12.5-7.4,20.2l-8.2,23.1l-0.1-0.1l-2.2-1.1l-4.6-2.4l-9.5-4.8l-10-5l-4.8-2.4l-2.4-1.2
			c-0.1-0.1-0.1-0.1-0.1-0.1l0,0l0,0h-0.1l12.8-20.7c4.2-6.8,7.9-13,11-18.1c6.1-10.3,9.7-16.4,9.7-16.4s-4.2,5.7-11.1,15.5
			c-3.4,4.8-7.5,10.8-12.2,17.4l-7.2,10.6l-3.8,5.6l-2,2.9l-3.3,4.9l11.6,6l9.9,5l20.8,10.5L197.7,302.1z"/>
		<path class="st1" d="M127.7,184.3c-1.8,1.6-3.7,3.4-5.7,5.7c-1.9,2.2-3.9,5-4.8,8.6c-0.1,0.4-0.2,1-0.2,1.5c0,0.5-0.1,0.9-0.1,1.4
			c0,0.9,0.1,1.9,0.3,2.8c0.4,1.9,1.3,3.7,2.5,5.3c1.2,1.6,2.9,3,4.8,3.9c0.9,0.5,2,0.8,3,1c0.4,0.1,0.7,0.1,1.1,0.2
			c-1.3,0.6-2.7,1.3-4.4,1.6c-1.6,0.3-3.5,0.2-5.3-0.5c-1.8-0.7-3.6-1.9-5-3.6c-2.9-3.3-3.9-8.7-2.8-13.9c0.5-2.6,1.5-5,2.7-7.2
			c1.2-2.2,2.8-4.1,4.3-5.8c3.2-3.5,6.5-6.3,9.1-9c2.6-2.6,4.4-5.1,5.4-6.9c1-1.8,1.4-2.9,1.2-3c-0.3-0.2-2.4,3.9-7.7,8.8
			c-2.6,2.5-6,5.1-9.5,8.8c-1.7,1.8-3.4,3.8-4.7,6.2c-1.4,2.3-2.4,5-3,7.9c-0.6,2.8-0.6,5.8-0.1,8.6c0.5,2.7,1.8,5.2,3.5,7.1
			c1.7,1.9,3.8,3.2,5.9,4c2.1,0.8,4.4,0.8,6.3,0.3c1.1-0.3,2.1-0.7,3-1.2c-2.1,1.8-4.2,3.4-6.4,4.4c-2.5,1.2-5,1.7-7.5,1.7
			c-2.4,0-4.7-0.6-6.7-1.4c-2-0.8-3.6-1.9-4.8-3.1c-1.2-1.2-1.9-2.5-2.2-3.7c-0.3-1.2-0.3-2.2-0.3-2.8c0.1-0.7,0.1-1,0.1-1
			s-0.1,0.3-0.3,1c-0.2,0.6-0.3,1.7-0.2,3c0,0.4,0.1,0.8,0.3,1.2l-0.9,0.3c0,0.1,0.1,0.2,0.1,0.3c-0.1,0.2-0.2,0.4-0.2,0.7
			c0-0.7,0.1-1.4,0.2-1.9c0.2-0.7,0.4-1.2,0.4-1.2s-0.1,0.2-0.3,0.5c0.4-2.4,0.9-3.8,0.9-3.8s-0.5,0.5-1.2,1.7
			c-0.7,1.2-1.6,3-2.2,5.4c-1.3,4.7-1.9,12,0.6,19.3c0.8,2.3,1.9,4.4,3.2,6.2c-1.5,4.3-1.9,8.6-1.4,12.2c0.3,2.3,1,4.2,1.8,5.8
			c0.8,1.6,1.8,2.8,2.7,3.6c1.8,1.7,3.1,2.1,3.1,2.2c0,0-1.1-0.8-2.5-2.6c-1.4-1.8-2.8-5-2.8-9.2c0-4.1,1.3-9.1,4-13.7
			c1.3-2.3,3-4.6,5.1-6.5c0.5-0.5,1.1-0.9,1.6-1.3c0.5-0.4,1.1-0.7,1.8-1c1.3-0.6,2.7-1.2,4.1-1.7c5.9-1.9,12.3-2.9,17.8-4.6
			c2.8-0.8,5.4-1.8,7.8-3c2.4-1.2,4.5-2.7,6-4.4c1.6-1.7,2.6-3.6,3.1-5.3c0.5-1.7,0.7-3.3,0.7-4.5c0-2.5-0.4-3.8-0.3-3.8
			c0,0,0.1,1.4-0.3,3.7c-0.4,2.3-1.5,5.7-4.6,8.4c-3.1,2.6-7.8,4.2-13.3,5.4c-2.7,0.6-5.6,1.1-8.7,1.7c-1.3,0.3-2.6,0.5-3.9,0.8
			c0.2-0.2,0.5-0.6,0.8-1c3-1.2,5.9-3,8.6-5.3c0.7-0.6,1.1-1,2.4-2.2c1.2-1.2,2.2-2.4,3.2-3.6l5.7-6.9l-6.1,2.3
			c-1.8,0.7-3.2,1.2-4.2,1.4c-0.5,0.1-1,0.1-1.5,0.1h-0.7c-0.1,0-0.2,0-0.2,0h-0.1c-0.4,0-0.7-0.1-1.1-0.2c-0.7-0.1-1.4-0.4-2-0.7
			c-1.3-0.6-2.4-1.5-3.3-2.6c-0.9-1.1-1.5-2.3-1.9-3.7c-0.2-0.7-0.3-1.3-0.3-2c0-0.3,0-0.7,0-1c0-0.3,0-0.6,0.1-0.9
			c0.5-2.7,1.9-5.2,3.5-7.4c0.7-0.9,1.4-1.8,2-2.7c-1.1,2.7-1.7,4.3-1.7,4.3s1.8-2.7,4.5-7.3l-0.2-0.1c0.1-0.1,0.1-0.1,0.2-0.2
			c0.2-0.2,0.3-0.4,0.5-0.6c-1.7,3.9-2.6,6.2-2.6,6.2s2.4-3.8,6-10.4c1.3-1.7,2.4-3.2,3.1-4.5c1.3-2.4,1.7-3.9,1.7-3.9
			s-0.6,1.4-2.3,3.5C134.1,178.4,131.3,181,127.7,184.3z M99.4,229.9c-0.3-1.6-0.6-3.2-0.7-4.7c0.6-0.9,1.2-2,2-3.4
			c0.5,1.3,0.9,2.2,1.1,2.5C100.7,226.8,99.9,228.6,99.4,229.9z M101.8,224.3c-0.1-0.4-0.3-1.5-0.7-3.2c0.2-0.3,0.3-0.6,0.5-0.9
			c0.4,0.5,0.9,0.9,1.4,1.4C102.5,222.6,102.1,223.5,101.8,224.3z M100.6,219c0-0.1,0-0.2-0.1-0.2
			C100.6,218.8,100.7,218.9,100.6,219C100.7,219,100.7,219,100.6,219z M100.1,220.4c-0.6,1.3-1.1,2.5-1.5,3.6
			c-0.1-1.6-0.2-3.1-0.2-4.4c0.2-0.3,0.5-0.7,0.9-1.2C99.5,219.1,99.8,219.7,100.1,220.4z M99.5,230.3c0.9-1.5,2.5-4.2,4.6-7.9
			c0.4,0.3,0.8,0.5,1.2,0.8c-2.4,5.3-4.1,9.3-4.8,11C100.1,232.9,99.7,231.6,99.5,230.3z M107,232.3c-2,2-3.6,4.2-4.8,6.4
			c-0.4-0.9-0.8-1.9-1.2-2.9c-0.2-0.5-0.3-1-0.5-1.5c0.9-1.5,3.1-5.1,6-10.5c0.5,0.3,1.1,0.5,1.7,0.7c-3.7,7.9-5.8,13-5.8,13
			s2.7-4.6,7.1-12.5c0.6,0.2,1.2,0.4,1.9,0.5c-0.8,1.9-1.5,3.5-1.9,4.7c-0.1,0.1-0.3,0.2-0.4,0.3C108.2,231.2,107.6,231.7,107,232.3
			z M110.4,229.7c0.6-1,1.4-2.3,2.3-3.8c0.2,0,0.4,0.1,0.6,0.1c0.4,0,0.7,0.1,1.1,0.1c-0.3,0.8-0.6,1.4-0.8,2.1
			c-0.8,0.3-1.5,0.7-2.3,1.1C111,229.3,110.7,229.5,110.4,229.7z M116.1,227.2c-0.5,0.2-0.9,0.3-1.4,0.5c0.3-0.5,0.6-1,1-1.6
			c1,0,1.9-0.1,2.9-0.3c-0.1,0.3-0.2,0.5-0.3,0.7C117.6,226.7,116.9,226.9,116.1,227.2z M119.6,226.2c0.1-0.2,0.3-0.5,0.4-0.7
			c0.5-0.1,1-0.3,1.5-0.5c-0.1,0.3-0.1,0.5-0.2,0.7C120.8,225.9,120.2,226,119.6,226.2z"/>
		<path class="st1" d="M136,163.4c0,0,1-1,2.3-2.9l-1.3-0.7C136.2,162,136,163.4,136,163.4z"/>
		<path class="st1" d="M254.4,267.1c-1.1,1.4-2,3.4-2.5,5.7c-0.5,2.3-0.4,4.8,0,7.5c0.4,2.6,1.2,5.3,2.2,8.1
			c1.9,5.5,4.7,11.2,6.7,17.1c0.5,1.5,0.9,2.9,1.1,4.3c0.1,0.7,0.2,1.4,0.2,2c0,0.7,0,1.4-0.1,2.1c-0.3,2.8-1.1,5.5-2.2,7.9
			c-2.2,4.9-5.4,8.9-8.8,11.3c-3.3,2.4-6.7,3.2-9.1,3.1c-2.3,0-3.6-0.5-3.6-0.5s1.1,0.7,3.6,1.2c1.2,0.2,2.7,0.3,4.5,0.1
			c1.8-0.3,3.8-0.9,5.7-2c3.1-1.7,6.3-4.6,9-8.4c2.3,0,4.6-0.4,6.9-1.1c7.4-2.3,12.9-7,16-10.9c1.5-1.9,2.5-3.7,3-5
			c0.5-1.3,0.6-2,0.7-2c0,0-0.8,1.3-2.5,3c0.2-0.3,0.2-0.5,0.2-0.5s-0.2,0.4-0.7,1c-0.4,0.4-0.9,0.9-1.5,1.3
			c0.1-0.2,0.3-0.4,0.4-0.6c0.1,0,0.2-0.1,0.3-0.1l-0.3-0.9c0.4-0.2,0.8-0.3,1.2-0.5c1.2-0.6,1.9-1.4,2.3-1.9
			c0.4-0.5,0.6-0.8,0.6-0.8s-0.2,0.3-0.7,0.7c-0.5,0.4-1.3,1-2.4,1.4c-1.1,0.4-2.6,0.6-4.3,0.4c-1.7-0.2-3.5-0.9-5.3-2
			c-1.8-1.1-3.6-2.7-5.1-4.6c-1.5-1.9-2.5-4.3-3.1-7c-0.5-2.4-0.5-5.1-0.3-7.8c0.2,1,0.4,2,0.8,3.1c0.7,1.8,2,3.6,3.9,4.9
			c1.9,1.3,4.2,2.2,6.7,2.4c2.5,0.2,5.3-0.3,7.8-1.4c2.5-1.1,4.8-2.9,6.8-5.1c1.9-2.1,3.5-4.6,4.6-7.1s1.7-5,2.2-7.5
			c0.8-4.8,1-9.2,1.4-12.8c0.7-7.2,2.8-11.3,2.5-11.5c-0.1-0.1-0.8,0.9-1.7,2.7c-0.8,1.9-1.8,4.8-2.4,8.5c-0.6,3.6-1,7.9-1.9,12.7
			c-0.5,2.3-1.1,4.7-2.1,6.9c-1,2.3-2.4,4.5-4.2,6.4c-3.5,3.9-8.5,6.3-12.9,5.9c-2.2-0.1-4.2-0.9-5.9-1.9c-1.6-1-2.8-2.4-3.5-4
			c-0.7-1.5-1-3.1-1.2-4.5c0.2,0.3,0.5,0.5,0.8,0.8c0.8,0.7,1.7,1.3,2.6,1.8c1.9,1,3.9,1.5,5.9,1.5c2,0,4-0.4,5.8-1.1
			c0.9-0.4,1.7-0.9,2.5-1.4c0.4-0.3,0.8-0.6,1.1-0.9c0.4-0.3,0.8-0.7,1-1.1c2.4-2.8,3.4-6,4.1-9c0.7-2.9,1-5.5,1.2-7.9
			c0.5-4.8,1-8.7,1.8-11.3c0.7-2.6,1.5-3.9,1.5-3.9s-1,1.2-2.1,3.7c-0.6,1.3-1.2,3.1-1.8,5.1c-3.1,6.8-4.8,11-4.8,11
			s1.3-2.1,3.4-5.7c-0.1,0.2-0.1,0.5-0.2,0.7c0,0.1,0,0.2-0.1,0.3l-0.2-0.1c-2.1,4.9-3.2,7.9-3.2,7.9s1-1.4,2.5-3.8
			c-0.3,1.1-0.6,2.1-0.9,3.2c-0.9,2.6-2,5.2-3.9,7.2c-0.2,0.3-0.4,0.4-0.7,0.6c-0.3,0.2-0.6,0.4-0.8,0.6c-0.6,0.4-1.2,0.7-1.8,0.9
			c-1.3,0.5-2.7,0.7-4.1,0.6s-2.8-0.5-4-1.2c-0.6-0.3-1.2-0.8-1.7-1.3c-0.3-0.2-0.5-0.5-0.8-0.8l-0.1-0.1c0,0-0.1-0.1-0.1-0.2
			l-0.4-0.5c-0.3-0.4-0.5-0.8-0.7-1.3c-0.5-0.9-0.9-2.3-1.4-4.2l-1.7-6.3l-2.2,8.8c-0.4,1.5-0.7,3.1-1,4.7c-0.3,1.8-0.3,2.3-0.4,3.2
			c-0.3,3.4-0.1,6.8,0.8,10.1c-0.1,0.5-0.3,0.9-0.3,1.2c-0.5-1.3-1.1-2.5-1.7-3.7c-1.3-2.8-2.6-5.4-3.7-8c-2.2-5-3.7-9.9-3.4-13.9
			c0.2-4,2.3-7,3.9-8.7c1.7-1.7,2.8-2.5,2.8-2.5s-1.2,0.5-3.2,1.9C256.6,264.6,255.5,265.6,254.4,267.1z M264,322.3
			c1.1-2.3,2-4.9,2.4-7.7c0.1-0.8,0.2-1.7,0.2-2.6c0-0.2,0-0.4,0-0.5c0.7-1.1,1.6-2.5,2.6-4.3c0.5,0.4,1,0.9,1.5,1.2
			c-3.8,8.1-5.9,13.1-5.9,13.1s2.8-4.6,7-12.4c0.5,0.3,1.1,0.6,1.6,0.9c-2.5,5.5-4.2,9.5-4.8,11.1c-0.5,0.2-1,0.4-1.5,0.5
			C266,321.8,265,322.1,264,322.3z M280.9,311.7c0.1,0,0.1,0,0.2,0C281,311.8,280.9,311.8,280.9,311.7
			C280.8,311.8,280.9,311.8,280.9,311.7z M278.9,312.6c-1.6,0.7-2.6,1.2-3,1.4c0.5-0.8,0.9-1.7,1.5-2.6c0.7,0.2,1.3,0.2,1.9,0.3
			C279.2,312,279.1,312.3,278.9,312.6z M275.9,314.1c0.4-0.1,1.3-0.3,2.7-0.6c-0.6,1.4-1.1,2.6-1.5,3.6c-1.3,0.8-2.7,1.5-4.2,2.2
			C273.5,318.1,274.6,316.3,275.9,314.1z M281.8,314c-1.1,0.8-2.3,1.7-3.7,2.5c0.6-1,1.2-2.1,2-3.3c0.7-0.2,1.3-0.3,2.1-0.5
			C282,313.1,281.9,313.6,281.8,314z M276.1,311c-1.7,3.9-3,6.8-3.6,8.5c-1.2,0.5-2.4,1-3.6,1.5c0.9-1.6,3.1-5.2,5.9-10.4
			C275.2,310.7,275.7,310.9,276.1,311z M268.2,306.2c-0.7,1.6-1.3,3-1.7,4.1c0-0.4-0.1-0.7-0.1-1c-0.1-0.8-0.3-1.6-0.5-2.4
			c0.4-0.6,0.7-1.2,1.2-1.9c0.2,0.3,0.5,0.6,0.7,0.8C267.9,305.9,268.1,306,268.2,306.2z M266.3,303.7c-0.3,0.6-0.5,1.2-0.7,1.7
			c-0.1-0.5-0.3-1-0.4-1.4c-0.2-0.7-0.5-1.5-0.8-2.2c0.1-0.2,0.3-0.4,0.4-0.7C265.2,302.1,265.7,303,266.3,303.7z M263.7,298.4
			c0.2,0.5,0.3,1,0.5,1.5c-0.1,0.3-0.2,0.5-0.3,0.8c-0.2-0.6-0.5-1.1-0.7-1.7C263.3,298.9,263.5,298.7,263.7,298.4z"/>
		<path class="st1" d="M309.7,257.1c0,0,1.8-2.6,4.3-6.9l-1.3-0.7C310.7,254.1,309.7,257.1,309.7,257.1z"/>
		<path class="st1" d="M304.8,250.4c0,0,1-1.1,2.3-2.9l-1.3-0.7C305,249,304.8,250.4,304.8,250.4z"/>
	</g>
	<g class="st0">
		<g>
			<g class="st2">
				<g>
					<defs>
						<rect id="SVGID_1_" x="16.5" y="345.6" width="366.6" height="50.4"/>
					</defs>
					<clipPath id="SVGID_2_">
						<use xlink:href="#SVGID_1_"  style="overflow:visible;"/>
					</clipPath>
					<g class="st3">
						<g>
							<g>
								<g>
									<path class="st1" d="M45.8,360.1c0,0-0.4,1.7-0.7,4.3h1.5C46.3,361.8,45.8,360.1,45.8,360.1 M282.1,364.6
										c-4.4,0-9,0.6-12.3,1.7c-1.7,0.6-3.1,1.2-4.1,2c-0.9,0.8-1.4,1.6-1.4,2.4c0,0.8,0.5,1.6,1.5,2.4c0.9,0.8,2.4,1.4,4.1,2
										c3.3,1.1,7.7,1.7,12.3,1.7c0.2,0,0.5,0,0.7,0c4.6-0.1,9.2-0.8,12.2-1.9c3.1-1.1,4.9-2.6,4.8-4.2c0,0.8-0.5,1.5-1.3,2.2
										c-0.9,0.7-2.2,1.3-3.8,1.9c-3.1,1-7.2,1.5-11.3,1.5c-0.2,0-0.4,0-0.7,0c-4.3,0-8.5-0.7-11.3-1.7c-2.9-1-4.5-2.4-4.5-3.8
										s1.6-2.8,4.4-3.8c2.8-1,6.9-1.7,11.3-1.8c0.2,0,0.5,0,0.7,0c4.1,0,8.2,0.5,11.3,1.5c1.6,0.5,2.9,1.1,3.8,1.8
										s1.3,1.5,1.4,2.2c0-1.5-1.8-3-4.9-4.2c-3.1-1.1-7.5-1.8-12.3-1.9C282.5,364.7,282.3,364.6,282.1,364.6 M283.7,366.1
										c-3.4,0-6.9,0.5-9.5,1.3c-2.6,0.9-4.1,2.1-4.1,3.3c0,1.2,1.5,2.5,4.1,3.3c2.5,0.8,5.9,1.3,9.5,1.3c0.1,0,0.3,0,0.4,0
										c3.5,0,7-0.6,9.5-1.4c2.4-0.9,3.8-2,3.8-3.2c0,1.2-1.4,2.4-3.9,3.2c-2.4,0.8-5.6,1.2-9,1.2c-0.1,0-0.2,0-0.4,0
										c-3.4,0-6.6-0.5-9-1.3c-2.3-0.8-3.6-1.9-3.6-3.1c0-1.1,1.3-2.2,3.6-3.1c2.3-0.8,5.5-1.3,9-1.4c0.1,0,0.3,0,0.4,0
										c3.2,0,6.5,0.4,9,1.2c2.5,0.8,4,2,4,3.2c0-1.2-1.4-2.4-3.8-3.2c-2.4-0.9-5.9-1.4-9.5-1.4
										C283.9,366.1,283.8,366.1,283.7,366.1 M335.3,390L335.3,390L335.3,390L335.3,390 M335.9,389.4h-0.1H335.9L335.9,389.4
										L335.9,389.4 M336.7,389.2h-0.3H336.7L336.7,389.2L336.7,389.2 M336.9,389.1c-0.1,0-0.2,0-0.3,0H336.9L336.9,389.1
										 M333.5,390.6c-0.2,0-0.5,0-0.6,0l0,0c-1.7-0.2-3.4-0.6-4.8-1c-2.7-0.8-4.6-1.8-5.7-2.9s-1.3-2.2-1.1-3.3
										c0-0.1,0.1-0.2,0.1-0.3c0.4,0,0.7,0,1.1,0c-0.2,0.4-0.3,0.9-0.2,1.3c0.1,1.3,1.1,2.6,3.1,3.7c1.6,0.8,3.8,1.5,6.4,2
										c0.1,0,0.3,0.1,0.5,0.1c0.3,0.1,0.6,0.2,1.1,0.3c-1.3-0.1-2.3-0.3-3-0.4c-0.8-0.2-1.3-0.3-1.4-0.3c0.1,0,0.5,0.2,1.3,0.3
										C331,390.1,332.1,390.4,333.5,390.6 M330.6,391.2c-2.3-0.4-4.4-0.9-6.1-1.5c-2.8-1-4.6-2.2-5.5-3.4
										c-0.8-1.2-0.9-2.3-0.6-3.4c0.7,0,1.4,0,2.1,0c-0.1,0.4-0.2,0.9-0.2,1.3c0.1,1.4,1.2,2.8,3.4,4c2,1.1,4.9,1.9,8.2,2.4l0,0
										c0.3,0,0.6,0.1,0.8,0.1c-0.2,0-0.3,0.1-0.5,0.1c-4.1-0.5-6.1-1.2-6.2-1.2c0,0,0.6,0.2,1.8,0.5c0.9,0.2,2.2,0.5,3.8,0.7
										h-0.2c-1-0.1-1.7-0.2-2.3-0.4c-0.7-0.1-1.2-0.2-1.3-0.2c0.1,0,0.5,0.1,1.2,0.3c0.5,0.1,1.1,0.2,1.9,0.4
										C330.8,391.2,330.7,391.2,330.6,391.2 M335.5,389.9c-0.2,0-0.5,0-0.8-0.1h-0.2l0,0c-1.7-0.2-3.2-0.5-4.5-0.9
										c-2.3-0.6-4-1.5-4.9-2.5c-1.1-1.1-1.3-2.3-0.9-3.4c0.3,0,0.7,0,1,0c-0.2,0.4-0.3,0.9-0.3,1.3c0.1,1.2,1,2.4,2.7,3.3
										c1.5,0.8,3.8,1.4,6.3,1.8l0,0c0.8,0.2,1.5,0.2,2.1,0.3l-0.2,0.1c-1.3-0.1-2.4-0.4-3.1-0.5c-0.8-0.2-1.3-0.2-1.4-0.3
										c0.1,0,0.6,0.1,1.3,0.3c0.4,0.1,0.9,0.2,1.6,0.4C334.6,389.7,335,389.8,335.5,389.9L335.5,389.9 M337.2,388.9
										c-0.3,0-0.6-0.1-0.9-0.1l0,0c-1.5-0.2-2.9-0.4-4-0.8c-1.8-0.5-3.1-1.2-3.9-2c-1-1-1.1-2.1-0.6-3.2h0.1
										c1.2,0.2,2.4,0.3,3.4,0.5c1.4,0.2,2.8,0.5,3.2,0.7l0,0c2.1,0.7,3.5,1.6,3.8,2.6C338.5,387.3,338.2,388.2,337.2,388.9
										 M337.2,382.9l1.3-0.5L337.2,382.9L337.2,382.9 M325.2,391.6c-1.5,0-3-0.1-4.5-0.3c-1.3-0.2-2.6-0.4-3.7-0.8
										c-0.3-0.1-0.4-0.1-0.6-0.2c-0.2-0.1-0.4-0.2-0.6-0.3c-0.4-0.2-0.9-0.5-1.4-0.8c-1.8-1.1-3.4-2.5-4.9-3.8
										c-1.3-1.2-2.5-2.5-3.7-3.8c0.8,0.1,1.6,0.3,2.4,0.4c2.8,0.4,5.7,0.6,8.7,0.8c-0.3,1.1-0.3,2.3,0.6,3.5
										c0.9,1.2,2.7,2.5,5.8,3.6c1.5,0.6,3.4,1,5.5,1.4C327.6,391.5,326.4,391.6,325.2,391.6 M325.2,393c-2,0-4-0.1-5.9-0.4
										c-1.8-0.2-3.5-0.6-4.9-1c-1.3-0.4-2.4-1-3.4-1.6c-2-1.2-3.6-2.6-5.1-4c-1.5-1.4-2.9-2.8-4.1-4.2l-0.9-1
										c0.2,0,0.4,0.1,0.6,0.1c0.7,0.9,1.6,1.4,1.7,1.4c-0.1-0.1-0.6-0.5-1.1-1.3h0.2l0.6,0.6c1.3,1.4,2.5,2.7,3.9,4
										s2.9,2.5,4.6,3.7c0.9,0.6,1.8,1.1,2.8,1.5c0.3,0.1,0.5,0.2,0.7,0.3c0.3,0.1,0.6,0.2,0.9,0.3c0.7,0.2,1.3,0.3,2.1,0.5
										c2.2,0.4,4.8,0.6,7.4,0.6c0.8,0,1.6,0,2.4-0.1c3.4-0.2,6.8-0.8,9.4-1.7c2.6-0.9,4.2-2.2,4.3-3.6c0.1-1.4-1.5-2.9-4.8-3.9
										l0,0c-0.9-0.3-2.5-0.6-4-0.8c0.5,0,1-0.1,1.5-0.2c1.2,0.2,2.4,0.5,3.3,0.7l0,0c2.8,0.9,4.6,2.1,5,3.5
										c0.4,1.3-0.5,2.7-2.6,3.8c-2.1,1.1-5.3,2-9.1,2.4C328.9,392.9,327,393,325.2,393 M343.1,380.8c-0.2-0.1-0.3-0.1-0.5-0.1
										c0.9-0.2,1.8-0.5,2.7-0.7c0.1,0.4,0.3,0.9,0.5,1.3c0.2,0.3,0.4,0.6,0.6,0.8C345.4,381.6,344.3,381.2,343.1,380.8
										L343.1,380.8 M325.2,394.1c-2.4,0-4.8-0.1-7-0.4s-4.2-0.7-5.9-1.2c-1.8-0.5-3-1.2-4.1-1.9c-2.2-1.3-3.8-2.7-5.3-4.1
										s-2.9-2.8-4.2-4.3l-1-1.1l-1.1-1.2c-0.1-0.1-0.1-0.2-0.2-0.2c0.2,0.1,0.4,0.1,0.6,0.2c0.3,0.5,0.8,0.8,1.1,1.1
										c0.4,0.4,0.5,0.6,0.5,0.6s0-0.2-0.3-0.6c-0.1-0.2-0.4-0.5-0.6-0.9c0.1,0,0.3,0.1,0.4,0.1c0.6,0.7,1.1,1.3,1.8,2
										c1.3,1.4,2.5,2.7,4,4.1c1.4,1.3,2.9,2.6,4.7,3.8c0.9,0.6,1.9,1.2,3.2,1.7c1.3,0.5,2.9,0.9,4.6,1.3c2.7,0.5,5.8,0.8,9,0.8
										c1,0,2,0,2.9-0.1c4.1-0.2,8.1-0.9,11.3-2c3-1.1,5-2.7,5.1-4.3c0.1-1.7-1.8-3.4-5.8-4.7l0,0c-0.7-0.2-1.4-0.4-2.2-0.6
										c0.5-0.1,0.9-0.1,1.3-0.2c0.6,0.1,1.2,0.3,1.8,0.5l0,0c3.4,1.1,5.5,2.6,6,4.1c0.5,1.6-0.6,3.2-3.1,4.5
										c-2.5,1.3-6.3,2.3-10.7,2.9C329.6,393.9,327.4,394.1,325.2,394.1 M350.8,387.8c0,0,0-0.1,0-0.2c0.7-0.6,0.9-1.2,0.9-1.8
										c-0.1-0.9-0.8-1.8-1.7-2.6c-0.2-0.2-0.6-0.5-0.8-0.7c-0.2-0.3-0.5-0.5-0.6-0.8c-0.4-0.5-0.6-1-0.8-1.5
										c-0.1-0.3-0.1-0.6-0.1-0.8c0.3-0.1,0.7-0.2,1-0.3c-0.1,0.7,0.1,1.5,0.5,2.2c0.3,0.6,0.8,1.1,1.4,1.7c0.6,0.5,1.1,1,1.4,1.5
										c0.7,1,0.9,2,0.1,3c-0.3,0.4-0.9,0.8-1.6,1.1c0-0.1,0.1-0.2,0.1-0.3c1.1-0.5,1.3-1,1.4-1.1
										C352,387,351.6,387.3,350.8,387.8 M349.7,389.7c0.1-0.1,0.1-0.1,0.2-0.2c0.9-0.3,1.8-0.6,2.4-0.9c1.7-0.9,2.3-1.9,2.2-2.9
										s-0.9-1.9-1.9-2.9c-1.1-0.9-1.8-1.9-2-2.8c-0.2-0.6-0.1-1.3,0.1-1.9c0.5-0.2,0.9-0.4,1.4-0.6c-0.7,1.1-0.7,2.3,0,3.5
										c0.3,0.5,0.7,1,1.3,1.5c0.6,0.5,1.2,1,1.5,1.6c0.8,1.1,1,2.3,0.1,3.4c-0.8,1-2.8,2-5.6,2.6c0.1-0.1,0.1-0.1,0.2-0.2
										c1-0.2,1.5-0.5,2-0.6c0.5-0.2,0.8-0.2,0.9-0.3c-0.1,0-0.5,0.1-1,0.2C350.9,389.4,350.3,389.6,349.7,389.7 M325.2,395.2
										c-1.4,0-2.9,0-4.3-0.1c-2.8-0.2-5.5-0.5-7.9-1.1c-1.2-0.3-2.4-0.6-3.4-0.9c-1.2-0.4-2.2-0.8-2.9-1.2
										c-1.5-0.8-2.6-1.5-3.7-2.3c-1-0.8-2-1.5-2.8-2.3c-1.7-1.5-3.3-3.1-4.7-4.6l-1.1-1.2l-1.6-2c-0.6-0.8-1.2-1.5-1.7-2.2
										c0.4,0.2,0.7,0.4,1.1,0.5c0,0.4,0.4,0.8,0.6,1.1c0.4,0.3,0.7,0.6,1,0.9c0.5,0.4,1.3,1.1,1.5,1.3c-0.1-0.2-0.5-0.5-0.8-0.9
										c-0.2-0.2-0.4-0.4-0.5-0.5c-0.3-0.2-0.6-0.5-0.8-0.9c-0.2-0.2-0.3-0.4-0.4-0.7c0.6,0.3,1.3,0.5,2,0.8
										c0.2,0.2,0.4,0.5,0.6,0.8l1.2,1.4l1,1.1c1.3,1.4,2.6,2.8,4,4.1c1.4,1.3,2.9,2.6,4.8,3.9c1,0.6,2,1.3,3.4,1.9
										c0.4,0.2,0.8,0.3,1.2,0.4c0.4,0.1,0.8,0.3,1.3,0.4c0.9,0.2,1.8,0.5,2.8,0.6c3,0.6,6.5,0.9,10.1,0.9c1.1,0,2.2,0,3.3-0.1
										c4.6-0.2,9.2-1,12.6-2.3c3.4-1.2,5.6-3,5.7-4.8V387c0-1.8-2.2-3.7-6.5-5.1c-0.5-0.1-0.9-0.3-1.4-0.4
										c0.8-0.1,1.5-0.3,2.2-0.4c0.3,0.1,0.5,0.1,0.8,0.2c3.1,1,5.6,2.4,6.6,4c1.1,1.6,0.7,3.3-1.3,4.9c-2,1.6-5.6,3-10.4,3.9
										C333.4,394.9,329.3,395.2,325.2,395.2 M18.9,375c0-0.2,0-0.5-0.1-0.7c24.6,0,86-0.1,158.1-0.2c30.5-0.1,59.1-0.1,83.7-0.2
										c0.3,0.2,0.5,0.4,0.8,0.5c-8.1,0-16.8,0-25.9,0c-18.1,0-37.8,0-58.5,0.1c-51.9,0.1-98,0.3-127.2,0.5
										C40.3,375,30,375,18.9,375 M367.8,378.4c-1.5,0-2.9-0.2-3.9-0.6c-1-0.3-1.7-0.7-2.5-1.2c-1.1-0.8-1.1-1.4-0.9-1.9
										c1.5-0.5,3.3-0.9,5.2-0.9c0.3,0,0.6,0,0.9,0c1.7,0,3.3,0.2,4.5,0.5c1,0.3,2.3,1,2.4,1.2c0.6,0.9-0.6,1.8-1,2.1
										c-0.7,0.3-1.5,0.5-2.5,0.6C369.1,378.4,368.4,378.4,367.8,378.4 M348.2,391c0.2-0.1,0.4-0.3,0.6-0.4c2.1-0.4,4-0.9,5.2-1.6
										c2-1,2.6-2.2,2.4-3.3c-0.1-1.1-0.9-2.1-2-3c-1.1-0.9-1.7-1.7-1.9-2.7c-0.3-1.1,0.1-2.3,1.1-3.3c1-0.6,1.8-1.2,2.5-1.9
										c1.4-0.7,3.3-1.3,5.7-1.7c1.5-0.2,3.2-0.3,4.8-0.3c1,0,2.1,0,3.1,0.1c2.6,0.2,4.9,0.9,6,1.7s1.3,1.9-0.2,2.6
										c-0.4,0.2-0.9,0.4-1.4,0.5c0.3-0.1,0.6-0.3,0.8-0.4c0.6-0.4,0.9-0.9,0.9-1.3c0.1-0.8-0.7-1.5-1.8-1.9
										c-1.1-0.4-2.3-0.6-3.1-0.7c-0.8-0.1-1.3,0-1.3-0.1c0,0,0.5,0,1.3,0.1s2.1,0.3,3,0.7c1,0.4,1.6,1.1,1.5,1.9
										c-0.1,0.4-0.4,0.8-1,1.2c-0.2,0.1-0.5,0.3-0.7,0.4c1-0.5,1.3-1.2,1.2-1.6c0-0.3-0.5-0.8-0.9-1.1c-0.4-0.3-1-0.7-1.9-0.9
										c-1.4-0.4-3.4-0.7-5.4-0.7c-0.4,0-0.8,0-1.2,0c-2.5,0.1-4.9,0.6-6.6,1.3c-0.4,0.2-0.8,0.4-1.2,0.6
										c-0.4,0.2-0.7,0.5-1.1,0.7c-0.4,0.3-0.7,0.5-0.9,0.8c-0.2,0.2-0.4,0.4-0.5,0.6l-0.1,0.1c-0.7,1-0.8,2.1-0.3,3.1
										c0.2,0.5,0.6,1,1.1,1.5c0.2,0.2,0.7,0.6,1,0.9c0.3,0.3,0.6,0.6,0.8,1c0.9,1.3,1.3,2.7,0,4.1c-0.7,0.7-1.8,1.4-3.3,2
										c-1.5,0.6-3.5,1.1-5.6,1.4c-0.5,0.1-0.9,0.1-1.4,0.2c0.1-0.1,0.3-0.2,0.4-0.3c0.6-0.1,1.2-0.2,1.7-0.3
										c0.7-0.2,1.2-0.3,1.7-0.5l1.3-0.4c-0.1,0-0.7,0.2-1.5,0.4C350.3,390.6,349.3,390.9,348.2,391 M356.9,373.9
										c0.1-0.1,0.2-0.2,0.2-0.3c0.1-0.1,0.2-0.2,0.2-0.4c1.1-0.3,2.3-0.6,3.6-0.8c1.7-0.3,3.7-0.4,5.7-0.4c1.2,0,2.5,0.1,3.7,0.2
										c3.1,0.3,5.9,1.1,7.2,2.1c1.3,1,1.6,2.2-0.4,3.2c-1.7,0.9-5.2,1.5-8.9,1.5c-0.2,0-0.5,0-0.7,0c-1.9,0-3.9-0.3-5.2-0.8
										c-1.4-0.5-3.8-2.3-2.7-3.2c0.1-0.1,0.2-0.1,0.3-0.2c-0.5,1,1.1,2.5,2.8,3c1.1,0.3,2.2,0.6,3.7,0.7c0.2,0,0.4,0,0.6,0
										c0.1,0,0.3,0,0.5,0h0.1l0,0c0.2,0,0.5,0,0.8,0c2.5,0,5-0.3,6.7-0.9c2.2-0.7,2.9-1.8,2.1-2.8c-0.7-1-2.9-1.9-5.8-2.3
										c-1.5-0.2-3.1-0.3-4.8-0.3c-1.6,0-3.2,0.1-4.6,0.3C360.1,372.9,358.4,373.4,356.9,373.9 M38.2,371.7c31,0,81.7,0,139-0.1
										c29.6-0.1,57.3-0.1,81.6-0.2c0,0.1,0.1,0.2,0.1,0.3l-132.1,0.5h132.3l0.1,0.1c-8.8,0.1-13.9,0.3-13.9,0.3s5.4,0.1,14.2,0.2
										c0.1,0.1,0.1,0.1,0.2,0.2c-9.1,0.1-14.4,0.3-14.4,0.3s5.7,0.1,14.9,0.2c0.1,0.1,0.2,0.2,0.3,0.2c-24.6,0-53.1,0.1-83.5,0.1
										c-71.9,0.1-133.4,0.3-158.1,0.4c0-0.4-0.1-0.9-0.1-1.3c22.3-0.2,35.8-0.3,35.8-0.3s-13.9-0.1-35.8-0.2
										c0-0.3-0.1-0.5-0.1-0.8C23.7,371.7,30.3,371.7,38.2,371.7 M358,372.4c0.1-0.1,0.1-0.3,0.2-0.4c0.6-0.1,1.2-0.2,1.8-0.3
										c2.1-0.3,4.4-0.5,6.8-0.5c1.5,0,3,0.1,4.5,0.2c3.8,0.4,7.3,1.3,9,2.5c0.8,0.6,1.2,1.2,1.2,1.9c0,0.7-0.6,1.4-1.8,2.1
										c-2.3,1.2-6.5,2-11.2,2c-0.3,0-0.6,0-0.9,0c-2.5-0.1-5.1-0.4-7-1c-1.9-0.6-2.8-1.5-3.1-2.2l0,0c0.2-0.1,0.3-0.3,0.5-0.4
										c0.1,0.7,1.6,1.7,2.7,2.2c1.3,0.6,3.2,1,5.3,1.1c0.9,0.1,1.8,0.1,2.7,0.1c3.3,0,6.4-0.4,8.8-1.2c1.4-0.5,2.5-1.1,2.9-1.7
										c0.5-0.6,0.3-1.3-0.1-1.9c-0.5-0.6-1.3-1.2-2.6-1.7c-1.3-0.5-2.9-0.9-4.7-1.2c-1.9-0.3-3.9-0.4-6-0.4c-2,0-3.9,0.1-5.7,0.4
										C359.9,372,358.9,372.2,358,372.4 M109.7,370.4c20.8,0,43.8,0,67.9-0.1c29.4-0.1,57-0.2,81.2-0.3l0,0
										c-11.8,0.1-18.7,0.3-18.7,0.3s7.1,0.1,18.7,0.2c0,0.1,0,0.1,0,0.2s0,0.1,0,0.2c-24.2,0-52,0.1-81.5,0.1
										c-72,0.1-133.6,0.4-158.7,0.5c-0.1-0.5-0.1-0.9-0.2-1.3C34.8,370.3,67.8,370.4,109.7,370.4 M17.9,369.1v-0.3l0,0
										C17.9,368.9,17.9,369,17.9,369.1L17.9,369.1 M134.1,369.1c13.9,0,28.5,0,43.5,0c28.3-0.1,54.9-0.2,78.4-0.3
										c-7.2,0.1-11.5,0.2-11.5,0.2s5.6,0.1,14.7,0.2l-0.1,0.1c-4.3,0-8.8,0-13.2,0c-20.9,0-44,0-68.3,0.1
										c-72.6,0.1-134.7,0.5-159.2,0.7c0-0.2,0-0.3-0.1-0.5c28.7-0.2,45.8-0.3,45.8-0.3s-17.7-0.1-45.9-0.2c0-0.1,0-0.2,0-0.3
										C37.6,368.9,80.7,369.1,134.1,369.1 M17.9,368.7l0.1-1.1l28.1,0.2l37.4,0.1c15,0,31.3,0.1,48.6,0.1
										c-52.5,0.2-94.8,0.6-113.8,0.7c0-0.1,0-0.2,0-0.3c23.8-0.2,38.1-0.3,38.1-0.3s-14.8-0.1-38.2-0.2c0-0.1,0-0.2,0-0.2
										S18,368,17.9,368.7L17.9,368.7 M260.5,367.8c-11.9,0-24.5,0-37.9,0c13.4-0.1,26.3-0.1,38.2-0.2
										C260.7,367.6,260.6,367.7,260.5,367.8L260.5,367.8 M41,365.3c-0.2,0-1.2-0.1-3-0.2c-1.7-0.1-4-0.1-6.8-0.1v-0.2h11.3h1.2
										v-0.1c6.4,0,23.1,0.1,46.6,0.1l0.1,1.3c-13.7,0.1-21.9,0.3-21.9,0.3s8.5,0.1,21.9,0.2v0.3c-13,0.1-22.1,0.2-26.5,0.3
										l-32.7,0V367c21.3-0.2,34.1-0.3,34.1-0.3s-13.1-0.1-34.1-0.2v-0.3c5.5-0.1,8.9-0.2,8.9-0.2s-3.4-0.1-8.9-0.2v-0.3
										c2.9-0.1,5.1-0.1,6.8-0.2c0.2,0,0.4,0,0.5,0C40,365.3,40.9,365.3,41,365.3 M321.5,376.5c-4.7,0-9.3-0.6-12.6-1.8
										c-3.4-1.1-5.3-2.7-5.3-4.3s1.8-3.2,5.2-4.4c3.3-1.2,7.9-1.8,12.8-1.8l0,0c0.1,0,0.1,0,0.2,0c4.7,0,9.3,0.6,12.6,1.8
										c3.4,1.1,5.3,2.7,5.3,4.3s-1.8,3.2-5.2,4.3c-3.3,1.2-7.9,1.8-12.8,1.8C321.6,376.5,321.6,376.5,321.5,376.5 M67.7,364.4
										c0-0.1,0-0.2,0-0.3c2.6,0,6,0.1,10.1,0.1v0.1C74.1,364.4,70.8,364.4,67.7,364.4 M282.5,377.5c-0.4,0-0.7,0-1.1,0
										c-5.1-0.1-10-0.9-13.3-2.1s-5.3-2.9-5.2-4.5c-0.1-1.6,1.8-3.3,5.2-4.5c3.3-1.2,8.1-2,13.3-2.1c0.4,0,0.8,0,1.2,0
										c4.7,0,9.6,0.6,13.2,1.8c1.5,0.5,2.8,1.1,3.8,1.7h-0.1h0.2c0.2,0.1,0.4,0.3,0.6,0.4c1,0.8,1.6,1.7,1.6,2.7
										c0,0.9-0.6,1.8-1.6,2.7l0,0l-0.2,0.1h0.1c-0.7,0.6-1.7,1.1-2.9,1.5l0,0c-0.5,0.2-1,0.4-1.5,0.6
										C292.1,376.8,287.2,377.5,282.5,377.5 M64.5,364.4v-0.3V364c0.5,0,1.1,0,1.7,0c0,0.1,0,0.2,0,0.3
										C65.6,364.4,65.1,364.4,64.5,364.4 M67.6,363.9c0-0.1,0-0.3,0-0.4c2.2,0,5.7,0.1,10.1,0.2v0.1
										C73.6,363.8,70.2,363.8,67.6,363.9 M67.6,363.3c0-0.2,0-0.4,0-0.6c2.2,0,5.6,0.1,10.1,0.2v0.2
										C73.2,363.2,69.8,363.3,67.6,363.3 M366.4,366.9c-0.3,0-0.5,0-0.8,0c-1.9-0.1-3.8-0.4-5.3-0.9c-0.2-0.4-0.2-1.1,0.9-1.9
										c0.7-0.5,1.4-0.8,2.5-1.2c1-0.3,2.4-0.5,3.9-0.6c0.6,0,1.3,0.1,2.2,0.1c1,0.1,1.8,0.3,2.5,0.6c0.5,0.3,1.7,1.2,1.1,2.1
										c-0.1,0.2-1.3,0.9-2.4,1.2C369.7,366.6,368.2,366.9,366.4,366.9 M299.6,367.5c-0.1-0.1-0.2-0.1-0.3-0.2
										c0.7-0.6,1.6-1.2,2.7-1.7c0.2-0.1,0.3-0.1,0.5-0.2c0.4-0.2,0.7-0.3,1.1-0.5l0.2-0.1c0.2-0.1,0.4-0.2,0.6-0.2
										c1-0.3,2.1-0.6,3.2-0.9c1-0.3,2.1-0.5,3.3-0.7c2.7-0.4,5.5-0.7,8.6-0.8c0.6,0,1.3,0,1.9,0l0,0h0.1c0.5,0,1,0,1.5,0
										c1.7,0,3.3,0.1,4.9,0.3c0.1,0,0.2,0,0.3,0c0.6,0.1,1.1,0.1,1.7,0.2c0.2,0,0.4,0,0.6,0.1c2.9,0.4,5.6,1,7.8,1.8
										c4.5,1.5,7.1,3.6,7.1,5.8c0.1,2.1-2.5,4.3-6.9,5.8c-2.9,1-6.6,1.7-10.6,2.1c-0.3,0-0.5,0-0.8,0.1c-0.7,0.1-1.5,0.1-2.2,0.2
										c-0.1,0-0.3,0-0.4,0c-1,0-1.9,0.1-2.9,0.1c-0.1,0-0.2,0-0.3,0c-5.2,0-10.4-0.6-14.5-1.7c-0.1,0-0.3-0.1-0.4-0.1
										c-0.6-0.2-1.2-0.3-1.7-0.5l-0.2-0.1c-0.2,0-0.3-0.1-0.4-0.2c-1.8-0.6-3.2-1.4-4.3-2.2c0.1-0.1,0.2-0.2,0.3-0.3
										c1,0.4,1.7,0.7,1.9,0.8c-0.1-0.1-0.7-0.5-1.5-1h-0.1c0.1-0.1,0.2-0.2,0.3-0.3c1.4,1.3,3.8,2.4,6.8,3.2
										c0.3,0.1,0.6,0.2,0.9,0.2c0.3,0.1,0.7,0.2,1,0.2c0.7,0.1,1.4,0.3,2.1,0.4c0.3,0.1,0.5,0.1,0.8,0.1c2.2,0.3,4.6,0.6,6.9,0.6
										c0.3,0,0.7,0,1,0c0.4,0,0.8,0,1.2,0c0.8,0,1.6,0,2.4,0c0.2,0,0.3,0,0.5,0s0.4,0,0.5,0c4.8-0.2,9.5-1,12.8-2.3
										c3.5-1.3,5.8-3,6.1-4.8c0.3-1.9-1.4-3.8-5.4-5.4c-2.6-1-6.1-1.8-10.3-2.3c-0.2,0-0.5,0-0.7-0.1c-0.7-0.1-1.3-0.1-2-0.2
										c-0.1,0-0.3,0-0.4,0c-1.1-0.1-2.2-0.1-3.4-0.1c-0.1,0-0.1,0-0.2,0l0,0c-5.6,0-10.7,0.7-14.5,1.8c-0.1,0-0.2,0.1-0.3,0.1
										c-0.5,0.2-1.1,0.3-1.5,0.5c-0.2,0.1-0.4,0.1-0.6,0.2c-0.6,0.2-1.1,0.5-1.5,0.7c-1.2,0.6-2.1,1.3-2.7,1.9
										c-0.1-0.1-0.3-0.2-0.4-0.3h0.1c0.6-0.4,1.1-0.8,1.4-1.1c0.3-0.2,0.5-0.3,0.6-0.4c-0.1,0-0.4,0.1-0.8,0.3
										C300.8,366.8,300.3,367.1,299.6,367.5 M359.9,365.8c-0.1,0-0.2-0.1-0.3-0.2c-1.1-0.8,1.3-2.7,2.6-3.2
										c1.4-0.5,3.3-0.7,5.2-0.8c0.3,0,0.6,0,0.9,0c3.6,0,6.9,0.6,8.8,1.5c2,1,1.8,2.2,0.5,3.2c-1.3,1-4,1.8-7.1,2.1
										c-1.3,0.1-2.6,0.2-3.9,0.2c-1.9,0-3.8-0.1-5.5-0.4c-1.3-0.2-2.4-0.4-3.4-0.7c-0.1-0.2-0.3-0.4-0.4-0.6
										c1.4,0.5,3,0.8,4.9,1.1c1.4,0.2,2.9,0.3,4.5,0.3c1.7,0,3.4-0.1,4.9-0.3c2.9-0.4,5-1.3,5.7-2.3c0.8-1,0.1-2.1-2.2-2.8
										c-1.7-0.6-4.2-0.9-6.6-0.9c-0.3,0-0.6,0-0.8,0l0,0h-0.1c-0.2,0-0.3,0-0.5,0s-0.4,0-0.6,0c-1.5,0.1-2.5,0.4-3.6,0.7
										C360.9,363.3,359.4,364.8,359.9,365.8 M296.6,361.2L296.6,361.2h0.1H296.6 M357.6,364.5c-0.2-0.1-0.3-0.3-0.5-0.4l0,0
										c0.3-0.8,1.1-1.6,3-2.2c1.8-0.6,4.5-1,7-1.1c0.4,0,0.8,0,1.1,0c4.6,0,8.8,0.7,11.1,1.9c1.2,0.6,1.8,1.4,1.9,2
										c0,0.7-0.4,1.3-1.2,1.9c-1.6,1.2-5,2.2-8.9,2.6c-1.5,0.2-3.1,0.2-4.7,0.2c-2.3,0-4.6-0.2-6.6-0.5c-0.6-0.1-1.2-0.2-1.7-0.3
										c0-0.1,0-0.1-0.1-0.2c0-0.1-0.1-0.1-0.1-0.2c0.9,0.2,1.9,0.4,3,0.5c1.7,0.2,3.6,0.3,5.5,0.3c2.1,0,4.2-0.1,6.1-0.4
										c1.8-0.3,3.4-0.7,4.7-1.2c1.2-0.5,2.1-1.1,2.5-1.7c0.4-0.6,0.5-1.3,0.1-1.9c-0.5-0.6-1.5-1.2-3-1.7
										c-2.2-0.7-5.4-1.1-8.7-1.1c-0.9,0-1.9,0-2.8,0.1c-2.1,0.2-4,0.6-5.3,1.1C359.2,362.8,357.7,363.8,357.6,364.5 M339.8,360.5
										L339.8,360.5L339.8,360.5L339.8,360.5 M296.4,365.8c-0.1,0-0.2-0.1-0.4-0.1c0.2-0.1,0.3-0.2,0.5-0.3l0.1-0.1
										c0.6-0.3,1.2-0.7,1.9-1c0.3-0.2,0.7-0.3,1.1-0.5c0.4-0.2,0.9-0.4,1.4-0.5l0,0c1-0.4,2.2-0.7,3.3-1c0.9-0.2,1.9-0.4,2.8-0.6
										c4.1-0.8,8.8-1.2,13.4-1.3c0.2,0,0.5,0,0.7,0l0,0c0.1,0,0.1,0,0.2,0c0.7,0,1.5,0,2.3,0c1.4,0,2.8,0.1,4.1,0.2
										c0.7,0.1,1.4,0.1,2,0.2c0.5,0.1,1,0.1,1.5,0.2c1,0.1,2,0.3,3,0.4h0.2c0.4,0.1,0.8,0.1,1.2,0.2c0.1,0,0.3,0.1,0.4,0.1
										c2,0.4,3.8,0.9,5.5,1.4c5.4,1.8,8.6,4.4,8.6,6.9c0.1,2.6-3,5.1-8.4,7c-2.1,0.7-4.6,1.4-7.3,1.8c-0.2,0-0.3,0.1-0.5,0.1
										c-0.4,0.1-0.9,0.2-1.4,0.2h-0.2c-1.1,0.2-2.3,0.3-3.5,0.4c-0.6,0.1-1.2,0.1-1.9,0.2c-0.9,0.1-1.7,0.1-2.6,0.1
										c-1,0-1.9,0.1-2.9,0.1c-0.1,0-0.2,0-0.3,0c-1.5,0-3.1-0.1-4.6-0.1c-1.8-0.1-3.6-0.3-5.3-0.5c-2.5-0.3-4.8-0.7-6.9-1.3
										c-0.7-0.2-1.5-0.4-2.2-0.6c-0.4-0.1-0.7-0.2-1.1-0.3c-0.1,0-0.3-0.1-0.4-0.1c-0.9-0.3-1.7-0.6-2.5-1l-0.2-0.1
										c-0.3-0.1-0.6-0.3-0.9-0.4c-0.1-0.1-0.2-0.1-0.3-0.2l0,0c0.2-0.1,0.3-0.2,0.5-0.2c0.5,0.4,1.2,0.6,1.6,0.8
										c0.4,0.1,0.7,0.2,0.8,0.2c-0.1,0-0.4-0.1-0.7-0.3c-0.4-0.2-1.1-0.5-1.4-0.9c0.1,0,0.2-0.1,0.2-0.1c0.4,0.3,0.9,0.5,1.4,0.7
										c0.1,0.1,0.3,0.1,0.4,0.2c0.3,0.2,0.7,0.3,1.1,0.5l0.2,0.1c1,0.4,2.1,0.7,3.2,1.1c0.7,0.2,1.4,0.4,2.2,0.5
										c0.1,0,0.2,0.1,0.3,0.1c1.2,0.3,2.5,0.5,3.8,0.7c2.5,0.4,5.1,0.6,7.7,0.7c1,0,2.1,0.1,3.1,0.1c0.5,0,1,0,1.6,0
										c0.6,0,1.2,0,1.7-0.1c0.3,0,0.5,0,0.8,0c1.4-0.1,2.8-0.2,4.2-0.3h0.3c0.5-0.1,1.1-0.1,1.6-0.2c0.2,0,0.4-0.1,0.6-0.1
										c3.2-0.5,6.2-1.2,8.7-2.1c4.3-1.5,7-3.6,7.4-5.8c0.4-2.2-1.7-4.6-6.5-6.5c-2.1-0.8-4.6-1.5-7.6-2.1c-0.2,0-0.3-0.1-0.5-0.1
										c-0.5-0.1-0.9-0.1-1.3-0.2H332c-1.1-0.2-2.2-0.3-3.3-0.4c-0.6-0.1-1.2-0.1-1.8-0.2c-0.8-0.1-1.7-0.1-2.5-0.1
										c-1.1,0-2.1-0.1-3.2-0.1l0,0c-1.3,0-2.6,0-3.9,0.1c-2.3,0.1-4.4,0.3-6.5,0.6c-0.9,0.1-1.8,0.3-2.6,0.4
										c-1.3,0.2-2.4,0.5-3.5,0.8c-0.7,0.2-1.4,0.4-2,0.6c-0.5,0.2-0.9,0.3-1.4,0.5c-0.8,0.3-1.6,0.6-2.3,1l0,0l-0.1,0.1
										c-0.3,0.1-0.6,0.3-0.8,0.4c-0.1,0.1-0.2,0.1-0.3,0.2c-0.2,0.1-0.3,0.2-0.5,0.4c-0.2-0.1-0.4-0.1-0.6-0.2h0.1
										c0.7-0.4,1.1-0.8,1.6-1c0.3-0.2,0.6-0.3,0.6-0.3c-0.1,0-0.4,0.1-0.8,0.3C297.8,365.1,297.1,365.4,296.4,365.8 M345,360.6
										c-0.2,0-0.3-0.1-0.5-0.1c-0.4-0.1-0.7-0.2-1.1-0.3c0.7-0.3,1.4-0.5,2.1-0.8c0,0,0,0.1-0.1,0.1
										C345.2,359.9,345.1,360.2,345,360.6 M292.8,364.7c-0.3-0.1-0.5-0.1-0.8-0.2c0.5-0.3,0.9-0.5,1.4-0.8
										c0.5-0.3,1.1-0.5,1.7-0.8c0.6-0.2,1.2-0.5,1.8-0.7c0.7-0.2,1.3-0.5,2-0.7c0.2-0.1,0.5-0.1,0.7-0.2c0.5-0.1,1-0.3,1.5-0.4
										c1.2-0.3,2.4-0.6,3.7-0.8c2.6-0.5,5.3-0.9,8.1-1.1c2.8-0.2,5.6-0.4,8.4-0.4c0.1,0,0.2,0,0.3,0c1.4,0,2.9,0,4.4,0.1
										c1.6,0.1,3.3,0.2,4.9,0.4c0.5,0.1,1.1,0.1,1.6,0.2c0.8,0.1,1.7,0.2,2.5,0.3c0.4,0.1,0.9,0.1,1.3,0.2
										c0.4,0.1,0.7,0.1,1.1,0.2c0.8,0.1,1.5,0.3,2.3,0.5h0.1c0.3,0.1,0.7,0.2,1,0.2c0.1,0,0.2,0.1,0.3,0.1c0.5,0.1,1,0.2,1.5,0.4
										c6.4,1.7,11.4,4.4,12.6,7.5c0.6,1.5,0.4,3.1-0.8,4.6s-3.3,3-6.3,4.2c-2.2,1-4.9,1.8-7.9,2.5c-0.1,0-0.3,0.1-0.4,0.1
										c-0.3,0.1-0.7,0.2-1.1,0.2h-0.2c-0.4,0.1-0.9,0.2-1.4,0.3c-0.4,0.1-0.8,0.1-1.2,0.2c-0.4,0.1-0.8,0.1-1.3,0.2
										c-0.5,0.1-1,0.1-1.6,0.2c-1,0.1-1.9,0.2-2.9,0.3c-0.6,0.1-1.3,0.1-1.9,0.2c-1.7,0.1-3.3,0.2-5,0.2c-0.5,0-1.1,0-1.7,0h-0.1
										c-4.2,0-8.5-0.3-12.5-0.8c-1.6-0.2-3.1-0.5-4.5-0.7c-1.3-0.2-2.5-0.5-3.7-0.8c-0.5-0.1-1-0.3-1.5-0.4
										c-0.8-0.2-1.5-0.5-2.2-0.7c-0.2-0.1-0.4-0.2-0.7-0.2c-0.6-0.2-1.3-0.5-1.9-0.7c-0.5-0.2-1.1-0.5-1.6-0.8
										c0.2,0,0.4-0.1,0.5-0.1l0.1,0.1c0.2,0.1,0.3,0.1,0.5,0.2c0.3,0.1,0.6,0.2,0.9,0.3c0.6,0.2,1.1,0.3,1.5,0.5
										c0.7,0.2,1.2,0.3,1.4,0.3c-0.1,0-0.5-0.2-1.2-0.4c-0.4-0.1-0.9-0.3-1.4-0.5c-0.3-0.1-0.5-0.2-0.8-0.3
										c-0.2-0.1-0.3-0.1-0.4-0.2l-0.1-0.1c0.2-0.1,0.4-0.1,0.6-0.2c1.4,0.6,2.7,0.9,3,1c-0.3-0.1-1.4-0.5-2.5-1.1
										c0.2-0.1,0.5-0.1,0.7-0.2l0.2,0.1l0.2,0.1c0.6,0.3,1.3,0.7,2.1,1c0.4,0.2,0.8,0.3,1.2,0.5c0.5,0.2,1,0.4,1.6,0.5
										c1.2,0.4,2.4,0.7,3.7,1c0.1,0,0.2,0.1,0.4,0.1c1,0.2,2,0.4,3,0.6c3.6,0.6,7.5,1,11.5,1c0.7,0,1.3,0,2,0c0.6,0,1.2,0,1.8,0
										c0.7,0,1.4,0,2-0.1c0.8,0,1.6-0.1,2.4-0.1c0.7-0.1,1.4-0.1,2.1-0.2c0.5-0.1,1.1-0.1,1.6-0.2c1-0.1,2.1-0.3,3.1-0.4h0.2
										c0.4-0.1,0.8-0.1,1.2-0.2c0.2,0,0.3-0.1,0.5-0.1c2.6-0.5,5-1.1,7-1.9c4.8-1.7,7.9-4.1,8.4-6.6c0.4-2.5-1.9-5.2-7.3-7.4
										c-1.9-0.7-4.1-1.4-6.6-1.9c-0.1,0-0.3-0.1-0.4-0.1c-0.4-0.1-0.8-0.1-1.2-0.2H336c-0.6-0.1-1.1-0.2-1.7-0.3
										c-0.3,0-0.6-0.1-0.9-0.1c-0.5-0.1-0.9-0.1-1.4-0.2c-0.6-0.1-1.2-0.1-1.7-0.2c-1.1-0.1-2.2-0.2-3.3-0.3
										c-0.7,0-1.5-0.1-2.3-0.1c-1.2,0-2.4-0.1-3.6-0.1l0,0c-5.3,0-10.5,0.5-14.7,1.3c-1.4,0.3-2.7,0.6-3.9,0.9
										c-0.6,0.2-1.3,0.4-1.9,0.5c-0.9,0.3-1.7,0.6-2.5,0.9c-0.4,0.2-0.8,0.3-1.2,0.5c-0.3,0.1-0.5,0.3-0.8,0.4l-0.1,0.1
										c-0.5,0.2-0.9,0.5-1.3,0.8c-0.2-0.1-0.5-0.1-0.7-0.2h0.2l0,0l0,0l0.1-0.1l0.3-0.2l0.6-0.3l1-0.5c0.5-0.2,0.7-0.4,0.8-0.4
										l-1,0.4l-1.1,0.5c-0.2,0.1-0.4,0.2-0.7,0.3c-0.1,0.1-0.2,0.1-0.3,0.2c-0.1,0-0.1,0.1-0.2,0.1l0,0c-0.3-0.1-0.5-0.1-0.8-0.2
										h0.4c0.3-0.2,0.8-0.5,1.3-0.7l1.1-0.5c0.5-0.2,0.8-0.4,0.9-0.4c-0.1,0-0.4,0.2-1,0.4l-1.3,0.4
										C293.8,364.3,293.2,364.4,292.8,364.7 M67.5,362.6c-0.3-3.5-0.6-5.8-0.7-6.5c0.3,0,9.1,0.1,22.9,0.2l0.1,2.9
										c-3.5,0-6.7,0.1-9.5,0.1h-2.1h-0.8l0,0c-6.1,0.1-9.6,0.1-9.6,0.1s1.4,0,3.9,0.1c-2.5,0-3.9,0.1-3.9,0.1s3.5,0.1,9.7,0.1
										l0.1,2.7C73.1,362.5,69.7,362.6,67.5,362.6 M80.8,355.9v-0.1c2.1,0,4.4,0,6.8,0C85.2,355.9,82.9,355.9,80.8,355.9
										 M39.4,356h-1h-7.2v-0.1c3,0,5.8-0.1,8.2-0.1L39.4,356 M39.4,355.4c-2.4,0-5.2,0-8.2-0.1v-2c3.3-0.1,5.2-0.2,5.2-0.2
										s-2-0.1-5.2-0.2v-0.3h8.2L39.4,355.4 M38.6,359.3c-2.2,0-4.7,0-7.4-0.1v-2.8l7.2-0.1H42h1.7h0.3h-0.4h0.2l11.6-0.2h-3.1
										h-5.1v-0.3v-0.1c2.7,0,4.1-0.1,4.1-0.1s-1.5,0-4.1-0.1v-2.3c4.9-0.1,7.9-0.2,7.9-0.2s-3-0.1-7.9-0.2v-0.1h9.5l0.2,9.8
										c-5.3,0.1-8.6,0.3-8.6,0.3s3.3,0.1,8.6,0.2v0.2c-6.2,0.1-10,0.3-10,0.3s3.8,0.1,10,0.2v0.1c-6,0.1-9.6,0.2-9.6,0.2
										s3.6,0.1,9.6,0.2v0.1v0.3c-6,0-10.5,0.1-13.2,0.1v-0.2v-4.6h1.8c3.6,0,5.5-0.1,5.5-0.1l-5.6-0.1c-0.2,0-0.4,0-0.7,0
										c5.1-0.1,7.9-0.1,7.9-0.1s-3.3,0-9.1-0.1l0,0h-1.2L38.6,359.3 M64.5,363.9l-0.3-11.5h9.1v0.4c-4.6,0.1-7.5,0.1-7.9,0.1l0,0
										c0,0,3,0.3,7.9,0.3v2.1c-5.3,0.1-8.4,0.1-8.4,0.1s3,0,8.4,0.1v0.3c-4.1,0.1-6.4,0.1-6.5,0.1c0-0.1,0-0.2,0-0.2
										s-0.3,2.6-0.5,6.8c-0.9,0-1.4,0-1.4,0s0.5,0,1.4,0c0,0.2,0,0.4,0,0.6c-1.1,0-1.7,0-1.7,0s0.6,0,1.7,0c0,0.1,0,0.3,0,0.5
										C65.6,363.9,65,363.9,64.5,363.9 M80.8,355.4l-0.1-3h9v0.4c-4.6,0.1-7.3,0.2-7.3,0.2s2.8,0.1,7.3,0.2l0.1,2.1
										C86.4,355.4,83.5,355.4,80.8,355.4 M348.4,361.7c-0.3-0.1-0.6-0.2-1-0.3c0-0.2,0-0.4,0-0.6c0.1-0.5,0.4-1,0.7-1.5
										c0.2-0.3,0.4-0.5,0.6-0.8c0.2-0.2,0.5-0.5,0.8-0.7c0.9-0.9,1.5-1.7,1.6-2.6c0.1-0.7-0.3-1.4-1.1-2
										c-0.1-0.3-0.3-0.6-0.5-0.8c0.9,0.4,1.6,0.8,2,1.3c0.8,0.9,0.7,2,0,3c-0.3,0.5-0.8,1-1.4,1.5c-0.6,0.6-1.1,1.1-1.4,1.7
										C348.4,360.3,348.3,361,348.4,361.7 M330.4,358.2c-1.1-0.1-2.1-0.2-3.2-0.2c-0.4-1.1-0.3-2.1,0.6-3.1
										c0.7-0.8,2.1-1.5,3.9-2c0.9-0.2,1.8-0.4,2.9-0.6c0.7-0.1,1.1-0.1,1.4-0.2c1.4,0.8,2,1.8,1.7,2.7c-0.3,1-1.6,1.9-3.7,2.6
										l0,0c-0.4,0.1-1.8,0.4-3.2,0.7C330.7,358.1,330.5,358.1,330.4,358.2 M335.7,351.9h0.1l0,0H335.7 M335.4,351.8L335.4,351.8
										c0.1,0,0.2,0,0.3,0h0.1C335.6,351.8,335.5,351.8,335.4,351.8 M335.3,351.7h0.2h0.1H335.3 M334.7,351.4L334.7,351.4
										L334.7,351.4L334.7,351.4 M324.7,357.8c-0.3,0-0.7,0-1,0c-0.4-1.1-0.2-2.2,0.8-3.2c0.9-1,2.6-1.8,4.8-2.5
										c1.3-0.4,2.9-0.7,4.5-0.9h-0.1l0.2,0.1c-0.9,0.1-1.6,0.3-2.1,0.4l-1,0.2c0,0,0.4,0,1.1-0.1c0.6-0.1,1.4-0.2,2.4-0.3h0.1
										h-0.2c-0.3,0-0.7,0.1-1.1,0.2c-2.4,0.4-4.5,1-6,1.8c-1.7,0.9-2.6,2.1-2.6,3.3C324.5,357.1,324.6,357.5,324.7,357.8
										 M350.7,351.4c-0.1,0-0.3-0.2-0.8-0.3c-0.4-0.1-1-0.2-1.7-0.4l0,0c-0.1-0.1-0.3-0.2-0.4-0.3h0.1c3.2,0.6,5.5,1.6,6.4,2.7
										c1,1.1,0.8,2.3,0,3.4c-0.4,0.5-0.9,1.1-1.5,1.6c-0.6,0.5-1,1-1.3,1.5c-0.6,1-0.6,2.1-0.1,3.2c-0.4-0.2-0.8-0.4-1.3-0.6
										c-0.2-0.5-0.2-1.1-0.1-1.6c0.2-1,0.9-1.9,1.9-2.8c1-0.9,1.7-1.9,1.8-2.9c0.1-1-0.5-2-2.3-2.9c-0.8-0.4-1.8-0.8-3.1-1.1
										l-0.1-0.1C349.8,351.2,350.6,351.4,350.7,351.4 M320.8,357.8c0-0.1,0-0.1-0.1-0.2c-0.3-1.1,0-2.3,1-3.3
										c1-1.1,2.9-2.1,5.6-2.9c1.2-0.4,2.6-0.7,4.1-0.9h0.2c-0.7,0.2-1.3,0.3-1.7,0.4l-0.8,0.2c0.1,0,1.2-0.2,3-0.5l0.3,0.1
										c-3.1,0.5-5.9,1.2-7.8,2.2c-2,1.1-3,2.4-3,3.7c0,0.4,0.1,0.7,0.2,1.1c-0.2,0-0.4,0-0.5,0l0,0
										C321.2,357.8,321,357.8,320.8,357.8 M317.8,357.9c-0.3-1-0.2-2.1,0.5-3.2c0.8-1.2,2.5-2.4,5.3-3.4c1.3-0.5,2.9-0.9,4.6-1.2
										c0.1,0,0.2,0,0.3,0c0.1,0,0.2,0,0.4,0c-1.9,0.4-3,0.8-3.2,0.9c0.3-0.1,1.6-0.4,3.9-0.8h0.1c-0.4,0.1-0.7,0.1-1,0.2
										c-0.6,0.2-1.1,0.3-1.5,0.4c-0.6,0.2-1,0.3-1.2,0.3c0.2,0,0.7-0.1,1.4-0.3c0.7-0.2,1.7-0.5,3.1-0.6h0.2
										c-3.1,0.5-5.8,1.3-7.6,2.3c-2.2,1.2-3.2,2.6-3.3,4c0,0.4,0.1,0.7,0.2,1.1C319.2,357.8,318.5,357.8,317.8,357.9 M306,359
										c0.9-1,1.9-2,2.9-3c1.4-1.3,3-2.7,4.7-3.8c0.4-0.3,0.9-0.5,1.4-0.8c0.2-0.1,0.4-0.2,0.6-0.3c0.2-0.1,0.3-0.1,0.6-0.2
										c1.1-0.3,2.3-0.6,3.7-0.8c1.4-0.2,3-0.3,4.6-0.3c0.6,0,1.2,0,1.8,0c-1.4,0.3-2.7,0.7-3.8,1.1c-3,1.1-4.8,2.4-5.6,3.6
										c-0.8,1.2-0.9,2.3-0.5,3.3C312.9,358.1,309.4,358.4,306,359 M350.4,350.2l-1.3-0.3c-0.4-0.1-0.9-0.2-1.5-0.3
										c-0.5-0.1-1-0.2-1.6-0.2c-0.2-0.1-0.4-0.2-0.6-0.3c0.9,0.1,1.7,0.2,2.5,0.3c2.1,0.3,4.1,0.8,5.6,1.4c1.6,0.6,2.7,1.3,3.4,2
										c1.4,1.4,1.1,2.8,0.2,4.1c-0.2,0.3-0.5,0.6-0.8,0.9s-0.7,0.7-0.9,0.9c-0.5,0.5-0.9,1-1.1,1.5c-0.4,1-0.3,2.1,0.4,3.1
										l0.1,0.1c0.2,0.2,0.3,0.4,0.5,0.6c0.3,0.3,0.6,0.5,1,0.8c0.3,0.2,0.7,0.5,1.1,0.7c0.4,0.2,0.8,0.4,1.2,0.6
										c1.7,0.7,4.1,1.1,6.6,1.2c0.4,0,0.7,0,1.1,0c2.1,0,4.1-0.2,5.5-0.7c0.8-0.2,1.4-0.6,1.9-0.9c0.4-0.3,0.9-0.8,0.9-1.1
										c0-0.4-0.3-1-1.2-1.5c0.1,0,0.3,0.1,0.4,0.1c0.9,0.3,1.4,0.7,1.6,1.1c0.4,0.8-0.3,1.5-1.1,1.9c-0.8,0.5-1.9,0.7-2.7,0.9
										c-0.4,0.1-0.7,0.1-0.9,0.1c0.2,0,0.5,0,0.9-0.1c0.8-0.1,1.9-0.4,2.8-0.9c0.9-0.5,1.7-1.2,1.3-2c-0.2-0.4-0.8-0.8-1.7-1.2
										c-0.2-0.1-0.5-0.2-0.7-0.2c0.7,0.2,1.3,0.4,1.8,0.6c1.6,0.8,1.4,1.8,0.3,2.6c-1.1,0.8-3.3,1.5-5.9,1.7
										c-1,0.1-2.1,0.2-3.2,0.2c-1.6,0-3.2-0.1-4.7-0.3c-2.2-0.3-4-0.9-5.4-1.5c-0.9-0.8-2-1.6-3.3-2.4c-0.8-1-1.1-2-0.9-3
										c0.2-0.9,0.8-1.8,1.8-2.7c1-1,1.8-2,1.9-3.1c0.1-1.1-0.6-2.2-2.6-3.2c-1.4-0.7-3.6-1.3-6.2-1.7c-0.2-0.1-0.4-0.2-0.6-0.4
										c0.4,0,0.7,0.1,1,0.1c0.6,0.1,1.2,0.2,1.6,0.2L350.4,350.2 M300.9,360l0.2-0.2c1.2-1.4,2.5-2.8,4-4.2c1.5-1.4,3.1-2.8,5-4
										c1-0.6,2-1.2,3.4-1.6c1.4-0.4,3.1-0.8,4.9-1c1.9-0.3,4-0.4,6.1-0.4c1.8,0,3.6,0.1,5.3,0.3c3.7,0.4,6.9,1.3,9.1,2.4
										c2.2,1.1,3.1,2.5,2.8,3.8c-0.4,1.3-2.1,2.6-4.9,3.5l0,0c-0.4,0.1-0.8,0.2-1.3,0.3c-0.4-0.1-0.9-0.1-1.3-0.2
										c0.7-0.1,1.4-0.3,1.8-0.5l0,0c3.2-1.1,4.8-2.5,4.6-3.9c-0.1-1.4-1.8-2.7-4.4-3.6c-2.6-0.9-6-1.5-9.5-1.7
										c-0.7,0-1.5-0.1-2.2-0.1c-2.7,0-5.3,0.2-7.6,0.7c-0.7,0.1-1.4,0.3-2,0.5c-0.3,0.1-0.6,0.2-0.9,0.3
										c-0.2,0.1-0.5,0.2-0.7,0.3c-1,0.4-1.9,1-2.7,1.5c-1.7,1.2-3.1,2.4-4.5,3.7c-1.3,1.2-2.5,2.5-3.6,3.9
										c-0.2,0-0.3,0.1-0.5,0.1c0.3-0.5,0.9-0.9,1.2-1.2c0.4-0.3,0.4-0.5,0.4-0.5s-0.2,0.2-0.6,0.5l-0.9,0.6
										c-0.3,0.2-0.7,0.5-0.8,0.8L300.9,360 M296.6,361.1l0.4-0.5l1-1.1c1.2-1.4,2.6-2.9,4.1-4.3s3.1-2.8,5.2-4.2
										c1.1-0.7,2.2-1.4,4-1.9c1.7-0.5,3.7-1,5.8-1.2c2.3-0.3,4.8-0.5,7.3-0.5c2.1,0,4.2,0.1,6.2,0.3c4.4,0.5,8.2,1.5,10.9,2.8
										c2.6,1.3,3.7,2.9,3.3,4.5s-2.6,3.1-5.9,4.2l0,0l-0.2,0c-0.4-0.1-0.8-0.1-1.2-0.2c0.2-0.1,0.4-0.1,0.6-0.2l0,0
										c3.9-1.3,5.8-3.1,5.6-4.7c-0.1-1.7-2.2-3.2-5.2-4.3c-3.1-1.1-7.1-1.8-11.3-2c-0.9,0-1.8-0.1-2.7-0.1
										c-3.2,0-6.4,0.3-9.2,0.8c-1.7,0.3-3.3,0.8-4.6,1.3c-1.2,0.5-2.2,1.1-3.1,1.7c-1.8,1.2-3.2,2.5-4.6,3.8
										c-1.4,1.3-2.6,2.7-3.8,4.1c-0.4,0.4-0.7,0.8-1,1.2c-0.2,0.1-0.3,0.1-0.5,0.1c0.2-0.2,0.2-0.3,0.3-0.4
										c0.1-0.3,0.2-0.5,0.3-0.7l0.2-0.6l-0.4,0.5C297.9,360.1,297.6,360.6,296.6,361.1 M291.5,363.2c0.3-0.4,0.6-0.8,0.9-1.2
										l1.6-2l1-1.2c1.4-1.6,2.8-3.1,4.5-4.7c0.8-0.8,1.7-1.5,2.7-2.3c1-0.8,2.1-1.5,3.6-2.3c0.7-0.4,1.6-0.8,2.9-1.2
										c1-0.3,2.2-0.6,3.4-0.9c2.4-0.5,5.1-0.9,7.9-1.1c1.5-0.1,3-0.2,4.6-0.2c4,0,8,0.4,11.5,1c4.7,0.9,8.5,2.3,10.5,3.9
										c2.1,1.6,2.5,3.4,1.5,4.9c-0.9,1.5-3.2,2.9-6,3.8c-0.7-0.2-1.4-0.3-2.1-0.4c4.4-1.4,6.5-3.4,6.3-5.3
										c-0.2-1.9-2.4-3.6-5.9-4.8c-3.4-1.2-7.9-2-12.7-2.2c-1-0.1-2-0.1-3-0.1c-3.6,0-7.2,0.3-10.4,0.9c-1,0.2-1.9,0.4-2.8,0.6
										c-0.4,0.1-0.9,0.2-1.3,0.4c-0.4,0.1-0.9,0.3-1.2,0.4c-1.4,0.6-2.4,1.2-3.4,1.9c-1.8,1.3-3.3,2.6-4.7,3.9
										c-1.4,1.3-2.6,2.7-3.9,4.1l-0.9,1.1l-1,1.3c-0.7,0.3-1.4,0.5-2,0.8c0.6-0.7,1.4-1.3,1.8-1.8c0.3-0.3,0.6-0.6,0.9-0.9
										c0.2-0.2,0.4-0.5,0.6-0.6c-0.4,0.3-1.1,1.1-1.7,1.5c-0.7,0.5-1.8,1.3-2.6,2.2C291.9,363,291.6,363.1,291.5,363.2
										 M324.2,345.6c-1.6,0-3.2,0.1-4.8,0.2c-3,0.2-5.9,0.6-8.6,1.2c-1.3,0.3-2.5,0.6-3.7,1c-0.3,0.1-0.7,0.2-1,0.3
										c-0.3,0.1-0.6,0.2-0.8,0.3c-0.5,0.2-1,0.4-1.3,0.6c-1.6,0.8-2.7,1.6-3.7,2.4c-1,0.8-1.9,1.6-2.8,2.4
										c-1.7,1.6-3.2,3.1-4.5,4.7l-1,1.2c-0.6,0.8-1.3,1.5-1.8,2.3c-0.5,0.6-0.9,1.2-1.4,1.8c-2.4-0.4-5-0.6-7.6-0.6
										c-0.4,0-0.7,0-1.1,0c-5.3,0-10.7,0.7-14.7,2c-1,0.3-2,0.7-2.8,1.1L91,366.9v-2.5v-0.2h-0.7H78.7V360h12.5v-8.2H78.1v3.6
										h-2.7v-3.2v-0.4h-1.2H62.7h-1.2v0.4l0.1,11.7h-2.4l-0.3-11.7v-0.5h-1.4H45.3H44v0.5l0.1,3.1h-2.4l-0.1-3.1v-0.4h-1.3H29.4
										h-1.3v0.4l0.2,7.5v0.4h1.2h11.3l0.1,3.9H29.6h-1.1v0.4l0.1,2.6l-12.1,0.1l0.1,3.7l0.2,2.1l0.1,1.3l0.1,0.9v0.3l69.3-0.1h5
										c8.6,0,17.7,0,27.4,0c18,0,37.5,0,58-0.1c31.4-0.1,60.7-0.2,85.4-0.3c0.9,0.4,1.9,0.8,2.9,1.2c3.9,1.3,9.4,2,14.7,2
										c0.4,0,0.8,0,1.2,0c2.7,0,5.4-0.3,7.8-0.7c0.5,0.6,0.9,1.2,1.4,1.8c0.6,0.8,1.3,1.5,1.9,2.3l1.1,1.2
										c1.4,1.6,2.9,3.1,4.7,4.7c0.9,0.8,1.8,1.6,2.9,2.3c1.1,0.8,2.2,1.6,3.8,2.4c0.4,0.2,0.9,0.4,1.4,0.6
										c0.3,0.1,0.5,0.2,0.9,0.3c0.3,0.1,0.7,0.3,1,0.3c1.1,0.4,2.4,0.7,3.7,1c2.6,0.6,5.6,0.9,8.6,1.1c1.5,0.1,3,0.1,4.6,0.1
										c4.5,0,8.9-0.4,12.7-1.1c3.3-0.7,6.1-1.5,8.4-2.6c1.1-0.1,2.1-0.2,3.1-0.4c2.3-0.4,4.4-0.9,6.1-1.5
										c1.7-0.6,2.9-1.4,3.6-2.1c1.4-1.5,1.1-3,0.1-4.4c-0.2-0.3-0.5-0.7-0.9-1l-0.5-0.5l-0.5-0.4c-0.5-0.5-0.9-0.9-1.1-1.4
										c-0.3-0.7-0.4-1.4-0.1-2.1c0.1-0.3,0.2-0.5,0.4-0.8c0-0.1,0.1-0.1,0.1-0.2c-0.3,0.4,0.9,1.4,1.5,1.7
										c1.7,0.7,3.9,1.4,6.7,1.6c1.2,0.1,2.3,0.1,3.5,0.1c1.6,0,3.1-0.1,4.6-0.2c2.5-0.3,4.8-0.7,6.7-1.3c1.9-0.6,3.2-1.4,3.8-2.2
										s0.4-1.7-0.1-2.4c-0.6-0.7-1.6-1.5-3.2-2.1s-3.7-1.1-6-1.5c-2.3-0.3-4.9-0.5-7.4-0.5c-2.4,0-4.8,0.2-7,0.4
										c-0.4,0.1-0.9,0.1-1.3,0.2c0.1-0.4,0.1-0.9,0-1.3c0.4,0.1,0.8,0.1,1.3,0.2c2.1,0.3,4.4,0.4,6.8,0.4c2.6,0,5.2-0.2,7.6-0.5
										c2.3-0.4,4.3-0.9,5.9-1.5c1.6-0.6,2.6-1.4,3.1-2.1c0.5-0.7,0.7-1.6,0.1-2.4c-0.6-0.8-2-1.6-3.9-2.2c-1.9-0.6-4.2-1-6.7-1.3
										c-1.4-0.1-2.9-0.2-4.4-0.2c-1.2,0-2.4,0-3.7,0.1c-2.7,0.2-4.9,0.9-6.6,1.7c-0.6,0.3-1.8,1.2-1.5,1.7
										c-0.1-0.1-0.1-0.1-0.1-0.2c-0.2-0.3-0.3-0.5-0.5-0.8c-0.3-0.7-0.3-1.4,0-2.1c0.2-0.5,0.6-1,1-1.4l0.4-0.4l0.5-0.5
										c0.3-0.3,0.6-0.7,0.8-1c0.9-1.3,1.3-2.9-0.2-4.4c-0.7-0.8-2-1.5-3.7-2.1c-1.7-0.6-3.8-1.1-6.1-1.5c-1.5-0.2-3-0.4-4.5-0.5
										c-1.9-0.8-4.3-1.4-7-2C332.8,346,328.5,345.6,324.2,345.6"/>
								</g>
							</g>
						</g>
					</g>
				</g>
			</g>
		</g>
	</g>
</g>
</svg>
