<?xml version="1.0" encoding="utf-8"?>
<!-- Generator: Adobe Illustrator 25.0.0, SVG Export Plug-In . SVG Version: 6.00 Build 0)  -->
<svg version="1.1" id="Layer_1" xmlns="http://www.w3.org/2000/svg" xmlns:xlink="http://www.w3.org/1999/xlink" x="0px" y="0px"
	 viewBox="0 0 400 400" style="enable-background:new 0 0 400 400;" xml:space="preserve">
<style type="text/css">
	.st0{opacity:0.1;}
	.st1{fill:#895003;}
</style>
<g class="st0">
	<path class="st1" d="M170.2,297.1c-6.4,0.1-12.8,0.1-19.2,0.3c-6.2,0.2-12.4,0.6-18.5,1c-4.8,0.3-4.9,0.3-8.7-2.5
		c-3-2.2-5.9-4.4-8.9-6.6c-0.6-0.4-1.2-0.9-1.7-1.5c-0.6-0.6-1.2-1.3-0.6-2.3c0.2-0.4,0.1-0.9,0.1-1.3c0.2-2,1.1-3.4,3.2-3.9
		c1.9-0.5,3.8-1,5.7-1c3.8,0,7.6-0.4,11.4-0.8c9.7-1,19.5-1.2,29.2-1.4c0.2,0,0.4,0,0.7,0c4.8,0.1,9.5-0.7,14-2.6
		c0.9-0.4,1.8-0.7,2.8-0.9c1.4-0.3,2.2,0.5,2,2c-0.1,0.6-0.2,0.9,0.6,1c4.2,0.5,8.2,1.5,12.1,3.6c3.1,1.7,6.5,3.1,9.7,4.5
		c1.7,0.7,3.1,1.8,4.1,3.5c0.9,1.6,2,3.1,2.9,4.7c0.6,0.9,1.2,1.5,2.3,1.4c1.7-0.2,3.4-0.2,5.2-0.4c3.3-0.4,6.2,0.3,8.9,2.3
		c1.3,1,2.6,1.9,3.9,2.9c0.9,0.7,1.8,0.6,2.8,0.3c0.6-0.2,0.9-0.6,0.9-1.2c0.4-5.4,2-10.6,3.1-15.9c1.5-7.8,3.2-15.5,4-23.4
		c0.9-8.7,1.2-17.5,0.4-26.3c-0.7-7.4-1.9-14.6-4.1-21.7c-1.3-4.2-2.8-8.4-4.7-12.5c-3.1-6.8-7.6-12.6-12.5-18.2
		c-0.9-1-1.8-1.3-3.1-0.9c-2.9,1-5.8,1.9-8.7,2.5c-3.7,0.7-7.3,1-10.9-0.5c-0.7-0.3-1.2-0.2-1.7,0.4c-1.1,1.5-2.2,3-3.3,4.5
		c-0.7,1-1.2,2.1-2,3c-0.9,0.9-0.7,1.7-0.3,2.6c0.4,1.1,0.8,2.2,1.2,3.4c1,2.6,0.3,4.9-1.5,6.9c-1.4,1.4-2.8,2.6-4.5,3.7
		c-1.2,0.7-2.3,1.2-3.7,0.7c-1-0.4-1.7,0.2-2.1,1c-0.3,0.6-0.6,1.2-0.9,1.7c-2.8,5.5-5.7,11-8.6,16.4c-0.4,0.7-0.8,1.5-1.1,2.3
		c-1.3,3.2-2.8,6.3-4.3,9.5c-0.9,1.8-2.1,3.1-3.8,4.4c-1.6,1.2-2.8,1.3-4.7,0.6c-5.2-2-9.6-5.4-14-8.7c-1.3-1-1.8-2.4-1.8-4
		c0.1-1.4-0.6-2.2-1.7-2.8c-0.6-0.3-1.1-0.7-1.7-1c-1.1-0.7-1.1-0.7-2,0.2c-1.2,1.1-2.4,2.2-3.6,3.3c-1,0.9-2.2,1.3-3.6,1
		c-3-0.5-6-0.9-9-1.2c-1.3-0.1-2.3-0.6-3.1-1.6c-0.6-0.7-1.4-1.4-2-2.2c-0.4-0.5-0.7-1-0.8-1.7c-0.4-2.3-0.9-4.7-1.2-7
		c-0.5-3.3,0.4-6.2,2.8-8.6c8.6-8.3,17.1-16.7,25.5-25.1c0.6-0.6,1.2-1.2,1.8-1.8c1-1,1.3-1.5,0.1-2.7c-1.4-1.4-1.4-3-0.9-4.8
		c0.6-1.8,1.2-3.5,2.1-5.1c1.1-2,2.8-3.2,5.2-3.4c1.5-0.2,3-0.1,4.6,0.1c0.8,0.1,1.5-0.1,2-0.8c2.7-3.8,5.6-7.4,8.1-11.4
		c5.7-8.9,11.9-17.4,17.8-26c2.5-3.6,5-7.1,7.5-10.6c1.7-2.4,3.3-4.8,4.9-7.3c2.8-4.4,5.6-8.7,8.6-13c3.3-4.7,6.8-9.2,10.3-13.8
		c2.1-2.8,4.4-5.4,6.1-8.4c1-1.7,2.3-2.6,4.2-2.2c1.1,0.2,1.9-0.2,2.5-1c0.2-0.4,0.6-0.7,0.9-1c1.4-1.9,3.1-2.2,5.2-1.5
		c1.1,0.4,2.3,0.7,3.4,1.2c0.7,0.3,1.2,0.2,1.6-0.5c2.2-3.1,4.3-6.3,6.5-9.4c10.3-14.2,20.4-28.6,31.3-42.5c0.6-0.7,1.2-1.4,1-2.3
		c-0.2-1.3,0.5-2.3,1.2-3.3c0.6-0.9,1.3-1.7,1.8-2.7c0.6-1.1,1.5-1.4,2.7-1.2c6.6,0.8,11.9,3.7,15.8,9.2c1,1.5,2.3,2.9,2.8,4.7
		c0.2,0.9,0.2,1.4-0.3,2.1c-0.9,1.2-1.8,2.4-2.7,3.6c-0.4,0.6-0.7,1-1.5,1.2c-1.2,0.3-2,1.2-2.6,2.2c-10.5,15.9-22,31.2-33,46.8
		c-1.2,1.7-2.5,3.3-3.8,4.9c-0.9,1.2-0.8,1.2,0,2.2c0.9,1.1,1.7,2.3,2.5,3.4c1,1.3,0.9,2.6,0.1,3.9c-0.3,0.6-0.7,1.1-1,1.7
		c-0.6,0.9-0.9,1.7-0.2,2.6c1.1,1.7,0.5,3.3-0.7,4.7c-4.6,5.5-8.1,11.8-12.3,17.6c-0.2,0.2-0.4,0.6-0.6,0.8
		c-0.4,0.6-0.3,1.1,0.2,1.7c2,2.1,4.1,4.2,6,6.3c5.3,5.9,9.8,12.4,14,19.1c0.9,1.5,1.8,3,2.8,4.4c1.8,2.6,3,5.5,4.6,8.2
		c0.4,0.8,0.6,1.7-0.1,2.5c-0.7,0.8-0.6,1.5-0.1,2.3c2.8,5.3,5.3,10.7,7.7,16.1c8.6,19.6,15,40,19,61.1c1.7,9,3.2,18.2,4.2,27.3
		c0.7,6,1.1,12.1,1.5,18.2c1,13.5,0.7,27.1,0.2,40.7c-0.1,2.3-0.1,4.6-0.2,6.8c-0.1,5.2-0.6,10.4-1.1,15.6c-0.1,1.2,0,2.3,0.7,3.4
		c1,1.5,2,3.1,3,4.7c3.2,5.2,5.6,10.8,8.3,16.2c1.2,2.3,1.7,4.9,1.5,7.6c-0.1,2.3-0.1,4.6-1.2,6.6c-1.1,2.1-2.5,3.8-4.9,4.4
		c-0.9,0.2-1.9,0.5-2.8,0.6c-1.3,0.1-2.6,0.2-3.9,0.2c-6-0.3-11.9-0.2-17.9-0.2c-3.7,0-7.4-0.1-11,0.4c-0.3,0.1-0.7,0.1-1,0.1
		c-6,0-11.9,0.1-17.9-0.1c-3.9-0.1-7.8-0.2-11.7-0.4c-7.8-0.3-15.6-0.1-23.5,0.1c-6.3,0.1-12.6,0.3-18.9,0.3
		c-3.9,0-7.8-0.2-11.7-0.2c-7.5-0.1-15-0.1-22.5-0.1c-6.6,0-13.2,0.1-19.9,0.1c-7.5,0.1-15,0.4-22.5,0.5c-3.9,0.1-7.8-0.1-11.7-0.1
		c-1,0-1.9-0.2-2.8-0.7c-2.3-1-4.6-2-6.8-3.1c-0.4-0.2-0.8-0.4-1.2-0.6c-0.8-0.5-1.2-1.2-1-2.2c0.4-1.3,0.4-2.6,0.4-3.9
		c0-0.9-0.4-1.4-1.1-1.2c-2.2,0.4-4.6-0.2-6.8,0.5c-0.6,0.2-1,0-1.5-0.2c-2.8-1.2-5.5-2.5-8.3-3.7c-1.4-0.7-1.5-1.1-1.4-2.8
		c0.4-3.6,0.6-7.3,0.9-11c0.2-2.3,0.3-4.6,0.4-6.8c0.1-1.9,1.2-3,3-3.4c2-0.4,4-0.8,6-1.5c0.6-0.2,1.3-0.2,1.9-0.2
		c8.2,0.1,16.5,0.4,24.7,0.3c5.7-0.1,11.3-0.5,16.9-0.4c6.7,0.1,13.5,0,20.2,0.4c4.9,0.3,9.7,0.4,14.7,0.6c1,0.1,1.9-0.1,2.8-0.7
		c0.3-0.2,0.7-0.4,1.2-0.6c3.4-1.8,3.4-1.8,5.5-4.3c0.1-0.1,0.1-0.2,0.1-0.3c-0.1-0.1-0.2-0.3-0.4-0.3c-3.1-0.1-6.3-0.1-9.4-0.1
		c-5.7,0-11.5,0.2-17.2-0.1c-1-0.1-1.9-0.1-2.9-0.4c-2.9-0.9-5.8-1.5-8.9-1.4c-3.3,0.2-6.5-0.5-9.7-0.9c-1.9-0.2-3.7-1.3-5.5-2
		c-0.6-0.2-0.8-0.7-0.8-1.3c-0.1-1.7-0.2-3.4-0.2-5.2c0-0.7-0.4-1.2-1.1-1.4c-1-0.4-2-0.7-3-1.1c-0.9-0.3-1.4-0.9-1.5-1.9
		c-0.3-3.4-0.2-6.7-0.1-10.1c0.1-2.1,1.7-3.3,3.4-3.9c1.9-0.7,3.9-1.2,6-1.5c5.6-0.9,11.2-1.3,16.9-1.4c7.3-0.1,14.5,0.2,21.8,0.8
		c3.9,0.4,7.8,0.7,11.5,1.7c2.5,0.7,4.7,1.5,6.4,3.6c0.6,0.7,1,0.5,1.3-0.5c0.4-1.5,0.7-3,1.1-4.4c0.7-3,1.9-5.7,3.2-8.5
		c1.3-2.6,3.1-4.9,5-7.1c0.3-0.4,0.9-0.7,0.6-1.4c-0.4-0.8-0.8-1.6-1.8-1.6c-0.9-0.1-1.7-0.1-2.6,0c-4.2,0.4-8.4,0.1-12.7-0.1
		c-3.4-0.1-7,0-10.4,0C170.2,297,170.2,297.1,170.2,297.1z M259.3,169.8c0.4-0.2,1.2,0.2,1.2-0.7c1.7,0.1,3-0.4,3.9-1.8
		c1.6-0.1,2.7-1,3.7-2.1c0.1-0.1,0-0.2,0-0.2c-0.1-0.1-0.2-0.2-0.2-0.2c-1.4,0.6-2.6,1.2-3.4,2.5c-1.5,0.2-2.6,1.2-3.9,2
		c-0.5,0.1-0.9,0.3-1.2,0.7c-0.5,0.2-1,0.4-1.4,0.6c-4,1.8-8.2,3.1-12.7,4.3c1.2,0.5,2,0.2,2.9,0.2c0.4,0,0.9,0,1.3,0.1
		c0.2,0.1,0.5,0.4,0.6,0.7s-0.1,0.7-0.3,0.9c-0.3,0.2-0.7,0.5-1.1,0.6c-1.2,0.2-2.3,0.4-3.6,0.4c-3.9,0.2-7.8,0.4-11.7,0.7
		c-0.1,0-0.2,0-0.3,0.1c-0.2,0.1-0.5,0.1-0.6,0.2c-0.1,0.1,0.1,0.4,0.2,0.6c0.2,0.4,0.6,0.7,0.9,1c5.8,5.9,9.8,12.9,12.9,20.5
		c2.7,6.7,4,13.7,5,20.8c1.3,9.1,1.8,18.3,1.7,27.6c-0.1,6.5-0.2,13-1,19.5c-0.7,6.2-1.7,12.4-2.9,18.7c-0.5,2.6-1,5.3-1.5,8
		c-0.1,0.6-0.5,0.9-1.1,1c-1.2,0.1-2.3,0.3-3.5,0.5c-0.4,0.1-0.6,0.4-0.5,0.7c0.1,0.2,0.4,0.6,0.6,0.7c1,0.1,2,0.1,2.9,0
		c4.6-0.1,9,0.6,12.9,3.6c4,3,7.7,6.4,11.2,9.8c10.2,10,19.6,20.6,27.8,32.2c0.4,0.6,0.8,1,1.2,1.5c0.2,0.2,0.4,0.2,0.6,0.1
		c0.1-0.1,0.2-0.1,0.2-0.2c0.1-0.6,0.3-1.3,0.3-1.9c0.2-6.6,0.6-13.2,0.8-19.8c0.1-4.8,0.2-9.5,0.2-14.3c0.1-7.4,0.1-14.8-0.4-22.1
		c-0.6-7.9-1.2-15.8-2.3-23.6c-1.2-8.8-2.6-17.6-4.4-26.3c-3.9-18.8-9.7-36.9-17.2-54.5c-1.9-4.4-3.9-8.7-6-13
		c-0.9-2-1.1-2.1-3.1-0.8c-2.6,1.7-5.6,2.9-8.4,4.3c-0.3,0.1-0.6,0.2-0.9,0.3c-0.4,0.1-0.9-0.1-1.2-0.4c-0.4-0.4-0.2-0.7,0-1.2
		c0.2-0.4,0.9-0.7,0.7-1.4C258.5,170.4,259.1,170.6,259.3,169.8z M170.7,214c0.9-0.1,0.7-0.7,0.7-1.3c0.9-0.1,0.7-0.7,0.6-1.3
		c0.9-0.2,1.1-1,1.5-1.8c0.1-0.1-0.1-0.3-0.2-0.5c0,0-0.2,0-0.2,0.1c-0.4,0.7-0.9,1.4-0.9,2.3c-0.6,0.2-0.6,0.8-0.6,1.3
		c-0.6,0.2-0.6,0.7-0.7,1.3c-0.6,0.3-0.7,0.8-0.6,1.4c-0.2,0.1-0.4,0.1-0.6,0.2c-0.2,0.1-0.4,0.2-0.6,0.3c-1,0.3-1.8-0.4-1.5-1.4
		c0.5-1.2,1.2-2.3,1.7-3.5c0.4-1,1.4-1.8,1.1-3c-0.2-0.9-1.5-0.8-2.1-1.4c-0.1-0.1-0.2-0.1-0.2-0.2c-0.2-0.3-0.4-0.6-0.1-0.9
		c0.2-0.2,0.6-0.5,0.7-0.5c0.6,0.1,1.2,0.3,1.8,0.6c0.7,0.4,1.2,0.2,1.6-0.5c0.1-0.3,0.3-0.6,0.5-0.9c1-2.2,1.5-2.2-1-3.4
		c-0.8-0.4-1.5-0.8-2.3-1.2c-2.4-1.4-2.2-1.8-3.8,1.1c-0.1,0.1-0.1,0.2-0.2,0.2c-0.5,0.7-0.6,1.4,0.2,2c0.2,0.2,0.4,0.5,0.5,0.8
		c0.1,0.3-0.4,1-0.7,0.9c-0.3,0-0.7-0.1-0.9-0.2c-0.7-0.4-1.2-0.2-1.7,0.4c-0.4,0.6-0.8,1.3-1.2,1.9c-0.3,0.5-0.8,0.7-1.4,0.6
		c-0.3-0.1-0.6-0.2-0.9-0.2c-0.4,0-1,0.8-0.8,1.2c0.2,0.4,0.6,0.7,0.6,1.1c0.1,1.2,0.7,2,1.7,2.6c1.3,0.9,2.5,1.7,3.7,2.6
		c0.5,0.4,0.6,1,0.2,1.4c-0.4,0.4-0.8,0.4-1.2,0.2c-0.7-0.4-1.5-0.9-2.2-1.4c-0.9-0.6-1.8-1.2-2.6-1.9c-0.4-0.3-0.8-0.2-1.1,0.2
		c-0.9,1.4-1.7,2.7-2.6,4.1c-1.9,3.2-2.3,2.5,1.2,4.6c0.7,0.4,1.4,0.7,2,1.1c0.4,0.2,0.7,0.5,1,0.8c0.1,0.1,0.2,0.5,0.2,0.6
		c-0.2,0.2-0.4,0.6-0.7,0.6c-0.4,0.1-0.9,0-1.2-0.2c-1.4-0.7-2.6-1.4-4-2.2c-1.3-0.7-1.5-0.7-2.3,0.6c-1.3,2-2.5,4.1-3.8,6
		c-0.2,0.4,0,0.6,0.2,0.8c2.5,2,5.2,3.5,8,5c0.4,0.2,0.9,0.1,1.1-0.4c1.4-2.7,2.8-5.4,4.2-8.1c0.7-1.4,1.5-2.9,2.3-4.2
		c0.2-0.4,0.6-0.6,1.1-0.4c0.5,0.1,0.9,0.7,0.8,1.2c-0.1,0.6-0.4,1.2-0.6,1.8c-0.1,0.3-0.2,0.7,0.2,0.9c0.2,0.1,0.7-0.1,0.7-0.4
		c0.9-1.8,1.8-3.7,2.6-5.6c0.2-0.5,0.2-1,0.1-1.5c-0.2-1.1-0.2-1.2,0.9-1.5c1.1-0.2,1.4-0.9,1.2-1.8
		C171,215.2,170.8,214.6,170.7,214z M144.8,222.7c-1.1,0.2-1.4,0.9-1.4,1.9c-0.4,0-0.6,0.2-0.6,0.6c0,0.2,0.2,0.3,0.2,0.5
		c0.1-0.1,0.2-0.1,0.2-0.2c0.1-0.3,0.1-0.6,0.1-0.9c1-0.2,1.2-1,1.4-1.9c0.2-0.2,0.4-0.4,0.5-0.6c0.1-0.1-0.2-0.2-0.3-0.4
		c-0.1,0.1-0.1,0.2-0.1,0.2C144.8,222.1,144.8,222.4,144.8,222.7z M235.3,304c-0.6,0.1-1.3,0.1-1.9,0.1c-0.2,0-0.6-0.2-0.5,0.2
		c0,0.1,0.4,0.1,0.6,0.1c0.6-0.1,1.3,0.1,1.8-0.6c0.4,0,0.9,0.1,1.2,0.1c0.5,0,1,0.1,1.5-0.3c0.2-0.2-0.7-0.4-1.6-0.3
		C235.9,303.5,235.5,303.7,235.3,304z M256.8,77.4c1.3-0.4,1.7-1.4,2-2.6c0.9-0.4,1.4-1,1.3-2c1-0.1,1.3-1,1.8-1.7
		c3-4.1,5.9-8.2,8.8-12.4c5.9-8.4,11.8-16.7,17.7-25.1c0.7-0.9,1.5-1.8,1.7-3.1c1-0.5,1.3-1.6,2-2.5c0.2-0.3,0.4-0.7,0.4-1.1
		c0.1-0.5-0.5-0.2-1,0.6c-0.6,0.9-1.4,1.7-1.5,2.8c-0.8,0.2-1.1,1-1.5,1.6c-3.6,5.1-7.3,10.2-10.9,15.3c-5.5,7.8-11,15.5-16.4,23.3
		c-0.5,0.7-1.2,1.3-1.1,2.3c-0.9,0.3-1.4,1-1.4,1.9C257.5,75.2,257,76.2,256.8,77.4c-0.7,0.2-0.9,0.8-1.2,1.4c0,0.1,0.1,0.2,0.1,0.2
		c0.1,0.1,0.2,0.1,0.2,0C256.4,78.5,256.9,78.1,256.8,77.4z M211.1,158.1c1.2-0.4,1.7-1.4,2-2.6c0.2-0.1,0.6-0.2,0.7-0.4
		c2-2.7,4.1-5.4,6.1-8.1c0.2-0.4,0.4-0.7,0.3-1.2c1.2-0.4,1.7-1.5,1.9-2.6c1-0.2,1.3-1,1.8-1.7c4.1-5.9,8.9-11.3,13.3-17
		c1.7-2.1,3.4-4.1,4.5-6.6c0.6-0.1,0.7-0.7,1-1c0.1-0.1,0.1-0.2,0-0.3c-0.1-0.2-0.2-0.1-0.4,0.1c-0.3,0.4-0.7,0.7-0.6,1.4
		c-0.4-0.1-0.6,0.1-0.9,0.3c-1.7,2-3.3,3.9-4.9,6c-1,1.2-1.5,2.8-3.3,3.4c-0.2,0.1-0.4,0.4-0.6,0.7c-3.1,4.4-6.2,8.9-9.2,13.2
		c-0.4,0.5-0.9,1-0.7,1.7c-1.3,0.4-1.7,1.4-2,2.6c-0.2,0.1-0.4,0.1-0.6,0.2c-2.2,2.9-4.3,5.8-6.5,8.7c-0.2,0.2-0.1,0.6-0.1,0.9
		C211.8,155.9,211.4,157,211.1,158.1c-0.9,0.2-1.2,0.7-1.3,1.5c0,0.1,0.2,0.2,0.2,0.2C210.8,159.4,211.2,158.9,211.1,158.1z
		 M249.6,83.3c-0.9,0.4-1.5,1.1-1.5,2.1c0,0.1,0.2,0.2,0.2,0.1C249.1,84.9,249.7,84.3,249.6,83.3c0.7-0.1,0.9-0.6,1.2-1.2
		c0.1-0.1-0.1-0.4-0.2-0.6c-0.1,0.1-0.2,0.1-0.2,0.1C250,82.2,249.6,82.6,249.6,83.3z M107.7,367.7c1.3,0.1,2.5-0.1,3.8-0.6
		c0.2-0.1,0.3-0.2,0.4-0.4c-0.2-0.1-0.4-0.3-0.5-0.3C110.1,366.6,108.7,366.6,107.7,367.7c-0.2,0-0.6,0.1-0.9,0.1
		c-0.2,0-0.3,0.1-0.5,0.1c0.2,0.1,0.4,0.2,0.6,0.1C107.2,368.1,107.4,367.9,107.7,367.7z M169.5,223.9c1-0.9,1.4-2.2,2.1-3.4
		c0.2-0.4,0.1,0.1-0.1-0.2c-0.1-0.1-0.4-0.1-0.5,0c-0.8,1.1-1.6,2.2-1.4,3.7c-0.2,0.1-0.4,0.1-0.4,0.2c-0.1,0.1,0.1,0.3,0.1,0.4
		c0.1-0.1,0.1-0.2,0.1-0.2C169.4,224.2,169.5,224,169.5,223.9z M241.2,124.3c-1.3,0.3-1.8,1.5-2.5,2.4c-1.2,1.5-2.6,2.9-3.2,4.7
		c-0.2,0.6,1.5-0.9,3.9-4.2c0.5-0.7,1-1.4,1.5-2.2c0.2-0.2,0.1-0.6,0.2-0.9c0.7-0.4,1.4-0.9,2-1.4c0.4-0.2,0.1-0.6-0.1-0.8
		c-0.2-0.2-0.6-0.2-0.8,0C241.6,122.7,241.2,123.4,241.2,124.3z M195,179.6c-0.2,0.1-0.5,0-0.6,0.1c-2,2-3.6,4.4-5,6.8
		c-0.3,0.5-0.6,1.1-0.5,1.8c1.1,0.2,1-0.9,1.4-1.4c1.4-1.8,2.6-3.8,3.9-5.6C194.5,180.8,195,180.4,195,179.6c1-0.4,1.3-1.3,1.7-2.1
		c0-0.1-0.1-0.2-0.1-0.2c-0.1-0.1-0.2-0.1-0.2,0C195.7,178,194.8,178.5,195,179.6z M142.1,334.6c-0.1-1.8-0.1-3.6-0.1-5.4
		c0-0.5-0.1-1-0.2-1.5c-0.1-0.1-0.3-0.2-0.5-0.2s-0.4,0.2-0.4,0.3c-0.2,1.9-0.4,3.8-0.6,5.7C140.2,334.5,140.5,334.7,142.1,334.6
		c0.7,1,1.8,0.9,2.6,0.6c0.9-0.3,0.4-1.3,0.5-2c0.1-0.7,0.1-1.5,0.1-2.3c0-0.9,0.1-1.7,0-2.6c0-0.2-0.3-0.6-0.5-0.7
		c-0.5-0.1-0.8,0.3-0.8,0.8c-0.1,0.7-0.1,1.5-0.1,2.3c0,0.9,0,1.7-0.1,2.6C143.9,334.2,143.6,334.4,142.1,334.6z M147.4,182.9
		c-0.1-0.2-0.1-0.4-0.2-0.6c-0.7-0.7-1.1-0.9-1.6-0.3c-1,1-1.9,2-2.8,3c-0.1,0.1,0.1,0.3,0.2,0.4c0.1,0.1,0.2,0.1,0.3,0.1
		c0.5-0.4,1-0.8,1.4-1.2C145.5,183.6,146.3,182.9,147.4,182.9c0.2,1.3,0,2.5-1.2,3.4c-0.4,0.2-0.6,0.6-0.9,0.9
		c-0.4,0.4-0.5,1-0.1,1.4c1.2,1.2,2.4,2.5,3.7,3.6c0.9,0.8,1.5,1.8,2.8,2.2c0.7-0.6,1.5-1.2,2.3-1.8c1.1-0.9,1.7-0.7,2.5,0.6
		c0.1,0.3,0.2,0.7,0.6,0.6c0.6-0.2,0.9-0.6,1.1-1.1c0.2-0.4-0.2-0.6-0.4-0.7c-3-2.3-5.7-5-8.4-7.6
		C148.6,183.7,148.2,183.1,147.4,182.9z M137.6,214.1c1.2-0.1,2-1.2,2.3-2c0.6-2,2.5-2.4,3.7-3.7c0.1-0.1,0.7-0.1,0.9,0.1
		c0.2,0.2,0.4,0.5,0.4,0.8c0.1,0.9-0.6,1.4-0.9,2c-0.1,0.2-0.4,0.6,0,0.8s0.9,0.3,1.2,0c1.1-1.2,2.2-2.4,3.2-3.6
		c0.5-0.6,0.2-1.4-0.6-1.4c-1.2-0.1-2.2-0.1-2.1-1.7c0-0.1-0.5-0.3-0.8-0.5c-1.4-0.8-1.5-1.2-0.6-2.5c0.4-0.5,0.8-1,1.2-1.5
		c1.3-1.5,2.6-2.9,3.9-4.3c0.3-0.4,0.4-0.8,0-1.2c-1.1-1-2.2-2.2-3.3-3.1c-1-0.9-1.7-2.3-3.1-2.6c-1,0.9-2.2,1.8-3.2,2.8
		c-0.5,0.4-0.9,0.9-1.4,1.4c-0.7,0.8-0.8,1,0,1.9c1.1,1.2,2.2,2.4,3.3,3.6c0.3,0.3,0.6,0.6,0.8,1c0.1,0.2,0,0.6-0.2,0.9
		s-0.5,0.4-0.9,0.2c-1.6-1-2.7-2.5-3.9-3.8c-1.4-1.5-1.4-1.5-3,0c-0.6,0.6-1,1.1-1.6,1.6c-0.3,0.3-0.7,0.6-1,0.8s-0.8,0.2-1.2-0.1
		s-0.4-0.8-0.2-1.2c0.2-0.5,0.6-0.9,1-1.3c0.8-0.9,1.7-1.7,2.5-2.5c0.2-0.2,0.4-0.6,0.2-0.9c-0.2-0.5-0.6-0.2-0.7,0
		c-1.3,1.2-2.5,2.4-3.8,3.6c-0.8,0.8-0.8,1-0.2,2c1.8,2.6,4,4.8,6.4,6.9c0.7,0.6,1.3,1.1,2,1.7c0.5,0.4,0.5,1.2,0.2,1.4
		c-0.4,0.4-0.9,0.2-1.2-0.1c-1.4-1.2-2.8-2.4-4.2-3.6c-1.2-0.9-1.8-2.4-3.3-3c-1.1,1-2.2,2-3.3,3.1c-0.7,0.7-1.4,1.4-2.1,2.1
		c-0.3,0.4-0.4,0.7-0.1,1.2c1.2,1.5,2.4,3.1,3.6,4.7c0.2,0.3,0.4,0.7,0.5,1.2c0.1,0.1-0.1,0.4-0.3,0.6c-0.1,0.1-0.4,0.2-0.6,0.1
		c-1-0.3-1.5-1.2-2.2-1.9c-0.9-1-1.6-2-2.4-3.1c-0.3-0.4-0.7-0.5-1.1-0.1c-1.6,1.5-3.1,3-4.7,4.5c-0.4,0.4-0.5,0.9-0.2,1.5
		c1,2.2,2.6,3.9,4.4,5.6c1,0.9,2,2,3.4,2.4c0.8-0.9,1.6-1.7,2.4-2.6c0.7-0.8,1.5-1.6,2.2-2.3c0.6-0.6,0.7-1.1,0.4-2s0.2-1.3,1.2-1
		c0.6,0.2,1,0.2,1.5-0.2c1.1-1.2,2.2-2.4,3.4-3.5c0.7-0.7,1.5-0.6,2.1,0.5c0.2,0.2,0.2,0.6,0.3,0.9c-0.9,0.3-1.2,1.1-1.7,1.7
		c-0.1,0.1-0.1,0.2-0.1,0.3c0.1,0.2,0.2,0.2,0.4-0.1C136.8,215.5,137.6,215.1,137.6,214.1z M210.9,389.2c4.4,0,9.4-0.1,14.4-0.2
		c5.5-0.2,11.1-0.4,16.6-0.1c6.7,0.4,13.4,0.6,20.2,0.6c7.1,0,14.1-0.2,21.2-0.2c7,0,13.9-0.4,20.8,0.1c0.7,0.1,1.5,0,2.3,0
		c1.2,0,2.3-0.3,3.5-0.6c1.6-0.4,2.6-1.4,3.1-3c1-3.4,1.3-6.8-0.3-10.2c-2.3-4.8-4.6-9.5-7.2-14.2c-5.5-9.9-12.2-19-19.4-27.7
		c-7.6-9.2-15.8-17.9-24.6-25.9c-2.3-2-4.7-3.9-7.3-5.4c-2.7-1.5-5.5-1.6-8.4-0.2c-2.3,1.1-4.4,2.7-6.4,4.4
		c-4.6,3.6-7.8,8.1-9.8,13.5c-2.2,6-3.5,12.3-3.9,18.7c-0.2,3.9-0.6,7.8-1.4,11.6c-0.8,3.6-2,7.1-4,10.2c-2.5,3.7-6,5.5-10.4,5.6
		c-3.3,0-6.5,0-9.8-0.1c-3-0.1-5.8-0.1-8.8-0.2c-10.1-0.6-20.2-0.6-30.3-0.6c-9.8,0-19.5,0.1-29.3,0.2c-4.9,0-9.8-0.1-14.7-0.1
		c-2,0-2.3,0.3-2.8,2c-0.2,0.9-0.5,1.9-0.6,2.8c-0.2,4.9-0.8,9.7-0.7,14.6c0.1,1.2,0,2.3-0.4,3.5c-0.4,1.1,0,1.7,1.2,1.7
		c4,0.1,8,0.1,12.1,0.1c6.5-0.1,13-0.4,19.5-0.6c6.4-0.1,12.8-0.1,19.2-0.1c3-0.1,6.1-0.2,9.1-0.2
		C185.8,389.1,198.1,389.4,210.9,389.2z M198.5,115.4c0.8,0.6,1.2-0.3,1.5-0.9c2.5-3.8,5-7.6,7.6-11.4c0.7-1.1,1.9-2.1,1-3.8
		c-0.1-0.2,0.2-0.8,0.4-1.2c0.6-0.9,1.2-1.8,1.8-2.6c1.7-2.3,3.6-4.7,5.2-7.1c2.3-3.4,4.7-6.8,7.6-9.7c1-1,1.7-2.2,2.5-3.4
		c0.4-0.5,0.1-0.9-0.5-1.2c-0.2-0.1-0.4-0.1-0.6-0.2c-1.8-0.9-2.2-0.4-3.2,1c-1.5,2.3-3.2,4.6-4.9,6.9c-4.9,6.3-9.9,12.6-14.2,19.4
		c-2.8,4.3-5.5,8.6-8.4,12.8c-5.2,7.6-10.6,15-15.9,22.6c-3.4,5-6.8,10-10.3,15.1c-2.7,4.1-5.4,8.1-8.5,11.9c-2.5,3-2.5,2.1,0.2,5.2
		c0.6,0.7,1.2,1.2,1.8,1.8c3.6,3.4,7.6,6.5,11.7,9.3c1.4,0.9,2.7,1.8,4.1,2.7c0.4,0.3,0.8,0.2,1.2-0.2c0.2-0.2,0.4-0.5,0.6-0.8
		c2.3-3.3,4.7-6.5,7-9.8c7.1-10.1,14.3-20.2,21.4-30.3c0.2-0.4,0.5-0.7,0.8-1c0.4-0.3,1-0.4,1.5-0.1c0.4,0.3,0.4,0.7,0.2,1.2
		c-0.7,1.6-1.8,3-2.8,4.4c-8.7,12.2-17.4,24.4-26,36.6c-0.3,0.4-0.6,0.9-0.7,1.4c-0.1,0.1,0.1,0.4,0.3,0.5c0.1,0.1,0.4,0.1,0.6,0.1
		c0.2-0.2,0.5-0.4,0.7-0.7c2.2-3.6,4.7-6.7,7.2-10c3.4-4.6,6.8-9.2,10.3-13.9c0.3-0.4,0.7-0.9,1.1-1.2c0.4-0.3,0.9-0.2,1.2,0.1
		c0.4,0.2,0.6,0.7,0.3,1.1c-0.4,0.7-0.8,1.5-1.4,2.2c-2.1,2.9-4.2,5.8-6.3,8.7c-2.6,3.6-5.4,7.1-8.1,10.6c-0.3,0.4-0.6,0.9-0.8,1.4
		c0,0.1,0.1,0.2,0.2,0.2c0.1,0.1,0.2,0.1,0.2,0.1c0.2-0.2,0.6-0.4,0.7-0.6c1.7-2.1,3.4-4.2,5-6.4c8.5-10.6,16.7-21.4,24.7-32.3
		c1.7-2.3,3.1-4.7,4.8-7c2.3-3.1,4.6-6.3,7-9.4c0.2-0.4,0.6-0.7,0.9-0.9c1.6-0.7,2.3-2.2,3.3-3.5c0.9-1.2,1.7-2.5,2.7-3.7
		c3.6-4.4,7.1-8.7,9.8-13.7c1.8-3.4,4.1-6.6,6.2-10c0.1-0.1,0-0.4,0-0.6c-0.2,0.1-0.4,0.1-0.4,0.2c-2,2.3-3.9,4.7-5.8,7
		c-0.4,0.5-0.9,1-1.4,1.4c-0.4,0.3-0.9,0.2-1.2-0.1c-0.4-0.2-0.6-0.7-0.3-1.1c0.4-0.7,0.9-1.5,1.5-2.2c1.8-2.3,3.7-4.6,5.5-6.8
		c0.6-0.7,1.2-1.6,1.7-2.4c0.2-0.3,0-0.6-0.3-0.9c-0.2-0.2-0.6-0.4-0.9-0.1c-0.5,0.4-0.9,0.9-1.4,1.4c-2.8,3.4-5.6,6.9-8.4,10.3
		c-0.6,0.7-1.2,1.3-1.8,1.8c-0.3,0.2-0.8,0.2-1.2-0.1c-0.4-0.3-0.4-0.8-0.2-1.2c0.3-0.7,0.7-1.3,1.2-1.9c3-3.8,6-7.4,9-11.1
		c1-1.4,1.1-1.4-0.4-2.5c-1.9-1.4-3.9-2.7-5.8-4.2c-2.4-1.9-4.9-3.6-7.4-5.2c-0.8-0.5-1.5-1.2-2.6-1.3c-0.4,0.7-0.7,1.5-1.2,2.3
		c-0.4,0.7-1,1.4-1.5,2.1c-2.2,3-4.6,5.8-6.7,8.8c-2,2.8-4,5.7-6.2,8.4c-5.2,6.6-9.7,13.9-14.3,20.9c-2.4,3.6-4.7,7.3-7.1,10.9
		c-0.4,0.7-1,1.4-1.8,1c-1.2-0.4-1.8,0.1-2.4,1c-1.1,1.7-2.3,3.4-3.5,5.1c-0.6,0.7-1,1.4-0.1,2.2c0.4,0.4,0.3,1,0,1.5
		c-0.5,0.9-1,1.7-1.6,2.5c-2.6,3.8-5.2,7.4-7.8,11.2c-3,4.4-6,8.7-9,13.1c-0.6,0.9-1.2,1.8-2.2,2.5c-0.8,0.5-1.7,0.2-2-0.7
		c-0.2-0.5-0.2-0.9-0.7-1.3c-1.3-1-1.3-1.4-0.3-2.6c0.9-1,1.7-2,2.5-3c5.1-7.3,10.3-14.5,15.3-21.8c5.3-7.6,10.7-15,15.4-23
		c0.3-0.5,0.6-0.9,0.9-1.4C196.6,115.4,197.3,115,198.5,115.4z M206.5,177.5c2-0.1,3.8-0.4,5.6-1c4.7-1.7,9.7-2.5,14.7-2.5
		c4.9-0.1,9.7-0.6,14.5-1.4c7.7-1.2,14.8-4,21.4-8c1.2-0.7,2.3-1.6,3.4-2.4c0.4-0.3,0.5-0.7,0.3-1.2c-0.1-0.3-0.2-0.6-0.4-0.9
		c-5-9.3-10.6-18.1-16.9-26.6c-1.6-2.2-3.5-4.1-5.4-6.1c-0.6-0.7-1-0.6-1.6,0.1c-0.7,0.9-1.4,1.9-2.2,2.8c-1.4,1.8-2.8,3.6-4.4,5.2
		c-1.5,1.6-2.7,3.6-4.9,4.5c-0.6,0.2-1,1.2-1.4,1.8c-1.5,2.2-3,4.2-4.4,6.4c-0.2,0.4-0.6,0.7-0.7,1.1c-0.5,1.8-1.7,3.3-2.8,4.7
		c-4.1,5.5-8.2,10.9-12.3,16.4c-1.2,1.7-2.5,3.3-3.8,4.9c-0.2,0.4-0.4,0.7-0.7,1.1c-0.2,0.4,0.1,0.6,0.4,0.7
		C205.6,177.3,206.1,177.3,206.5,177.5z M270.3,31.1c-0.6-0.1-1-0.8-0.8-1.2c0.7-1.5,1.8-2.6,2.8-3.9c2.3-3.1,4.7-6.2,7-9.4
		c0.1-0.1,0-0.4-0.1-0.6c-0.1-0.1-0.4-0.1-0.5,0.1c-0.9,1-1.7,2-2.5,3c-11.6,14.9-22.4,30.3-33.5,45.6c-1,1.3-1.8,2.6-2.8,4
		c-0.2,0.4-0.5,0.7-0.7,1.1c-0.1,0.2-0.1,0.4,0,0.6c0.3,0.5,0.6,0.1,0.7-0.1c3.1-4.3,6.2-8.6,9.2-12.9c0.5-0.7,0.9-1.5,1.7-1.9
		c0.3-0.2,0.7-0.1,0.9,0.1c0.2,0.2,0.3,0.6,0.3,0.9c-0.1,0.4-0.3,0.8-0.6,1.1c-2.6,3.6-5.2,7.2-7.8,10.8c-0.6,0.9-1.3,1.8-1.8,2.6
		c-0.2,0.3-0.7,0.7-0.1,1.1c0.5,0.3,1,0.2,1.4-0.3c0.6-0.7,1-1.4,1.5-2.1c3.7-5,7.4-10.2,11.1-15.2c0.3-0.4,0.7-0.9,1.1-1.2
		c0.4-0.2,0.8-0.2,1.2,0.1c0.3,0.2,0.3,0.6,0.2,0.9c-0.2,1-0.9,1.7-1.5,2.5c-2.9,3.9-5.8,7.8-8.7,11.8c-1.2,1.7-2.3,3.4-3.4,5.1
		c1.2,1.7,3.2,2.5,4.7,3.9c0.5,0.4,1,0.8,1.5,1.2c0.7,0.6,1,0.5,1.5-0.3c2.6-3.7,5.2-7.4,7.9-11.1c5.7-8.1,11.4-16.1,17.1-24.2
		c4.1-5.8,8.2-11.8,12.3-17.6c1.4-1.9,1.4-1.9-0.4-3.6c-1.8-1.8-3.9-3.1-6.1-4.2c-1-0.5-1.3-0.5-2,0.3c-0.6,0.7-1.1,1.4-1.6,2
		c-2.7,3.5-5.4,7-8.1,10.6C271.3,31,270.9,31.3,270.3,31.1z M174.4,294.6L174.4,294.6c2.5,0.1,5,0.1,7.4,0.1c6.5,0,13,0.1,19.5,0
		c1.6,0,2.7,0.4,3.5,1.8c0.3,0.6,0.7,1,1.1,1.6c3.1,4.6,6,9.3,8.7,14.1c2,3.6,2.2,2.5,0.9,6.6c-0.3,0.9-0.4,1.9-0.4,2.9
		c0,0.2,0.2,0.7,0.6,0.6c0.2,0,0.4-0.1,0.6-0.2c0.1-0.1,0.1-0.2,0.2-0.2c0.9-3,1.6-6.1,3.1-8.9c0.1-0.2,0.1-0.7-0.1-0.9
		c-0.2-0.5-0.5-1-0.7-1.4c-3.3-5.5-6.5-11-9.8-16.5c-0.8-1.3-1.7-2.5-2.5-3.8c-0.4-0.5-1-0.4-1.3,0.2c-0.7,1.7-1.8,2-3.4,1.6
		c-1.5-0.4-3-0.6-4.4-0.9c-2.2-0.4-4.2-0.7-6.5-0.6c-9,0.4-18,0.7-27,1c-7.7,0.2-15.4,0.6-23.1,0.9c-3,0.1-6.1,0.1-9.1,0.2
		c-1,0-1.7,0.4-2,1.4c-0.1,0.2-0.2,0.4-0.2,0.6c-0.4,1.1,0,1.7,1.1,1.7c2-0.1,3.9-0.2,5.8-0.3c5-0.3,10-0.7,14.9-0.9
		C159,294.7,166.7,294.7,174.4,294.6z M249.6,249.9c-0.1-6.1-0.1-10.6-0.5-15.1c-0.4-6-1-12.1-2.2-18c-0.7-3.8-1.4-7.4-2.6-11.1
		c-0.4-1.2-0.7-1.3-1.8-0.6c-0.2,0.1-0.4,0.2-0.6,0.4c-0.7,0.5-1,1.1-0.7,1.9c0.2,0.4,0.3,0.8,0.4,1.2c2.3,7.4,3.8,14.9,4.4,22.6
		c0.5,6,0.7,12.1,0.4,18.2c-0.4,8.6-1.6,17.1-3.3,25.4c-0.6,3.1-1.2,6.2-1.8,9.2c-0.1,0.7,0.1,1.2,1.1,1c0.5-0.1,1-0.4,1.5-0.6
		c1.5-0.4,2.3-1.2,2.5-2.9c0.9-5.4,1.7-10.9,2.2-16.4C249.3,259.7,249.7,254,249.6,249.9z M171.1,344.3c3.9,0,7.8-0.1,11.7,0
		c2.5,0.1,4.9,0.2,7.4,0.6c2.6,0.4,5.4,0.1,8.1,0.1c0.8,0,1.8,0.4,2.5-0.4c0.6-0.7-0.1-1.5,0.1-2.2c0.1-0.5,0.2-1,0.4-1.6
		c0.1-0.2,0-0.5-0.1-0.6c-0.2-0.2-0.5-0.4-0.8-0.4c-0.1-0.1-0.4,0.1-0.5,0.3c-0.5,0.8-0.2,1.7-0.3,2.5c-0.1,0.6-0.6,0.9-1.5,0.9
		c-0.6,0-1-0.2-1.2-0.9c-0.2-0.9,0.1-2-0.3-2.9c-0.1-0.2-0.3-0.3-0.5-0.3c-0.1,0-0.4,0.2-0.4,0.3c-0.1,1-0.1,1.9-0.2,2.9
		c-0.1,0.2-0.3,0.6-0.6,0.7c-1.2,0.4-2.4,0.1-2.4-1.2c0-0.7-0.1-1.3-0.1-2c-0.1-0.8-0.5-1.1-1.2-1.2c-2.3-0.4-4.7-0.5-7.1-0.5
		c-6.3,0.1-12.6,0.2-18.8,0.2c-1.5,0-2.6,0.2-3.9,1.2c-2.3,1.7-4.9,2.1-7.6,0.6c-0.1-0.1-0.2-0.1-0.3-0.1c-0.5-0.1-0.5,0.3-0.5,0.6
		c0.1,0.9,0.3,1.7,0.6,2.5c0.1,0.4,0.5,0.7,0.9,0.7c0.6,0.1,1,0.1,1.6,0.1C160.9,344.5,166,344.2,171.1,344.3z M168.7,288.4
		c0-0.1,0-0.1,0-0.2c0.4,0,0.9,0,1.3,0c1.8-0.1,3.7,0.1,5.5-0.4c0.2-0.1,0.4-0.2,0.6-0.3c-0.1-0.1-0.2-0.2-0.4-0.2
		c-1.5-0.2-3-0.5-4.5-0.7c-0.8-0.1-1.4-0.6-1.8-1.3c-0.4-0.7,0.1-1.9,0.9-2c0.4-0.1,0.9-0.1,1.3,0.1c0.9,0.1,1.7,0.4,2.5,0.5
		c5.6,0.5,11.1,1.7,16.7,2.7c1.2,0.2,2.3,0.5,3.5,0.7c2.3,0.4,4.6,0,6.8-0.1c0.2,0,0.3-0.2,0.5-0.2c-0.1-0.2-0.2-0.4-0.4-0.4
		c-0.5-0.2-1-0.5-1.5-0.7c-3.5-1.7-7.1-3.2-10.6-5c-1.2-0.6-2.3-1-3.6-1c-4.3,0.1-8.7,0.1-13,0.1c-1.1,0-2.2,0.2-3.2,0.6
		c-1.5,0.5-3.1,0.9-4.7,1.3c-0.9,0.2-1.8,0.2-2.3-0.6c-0.6-1-1.5-1.1-2.5-1c-1.1,0.1-2.2,0.1-3.3,0.2c-0.3,0-0.4,0.1-0.3,0.4
		c0.1,0.1,0.1,0.2,0.1,0.2c0.4,0.3,0.9,0.6,1.4,0.8c1.7,0.9,3.5,1.7,5.2,2.6c1.1,0.6,1.2,1,0.7,2.3c-0.1,0.1-0.1,0.2-0.1,0.3
		c-0.3,1-0.1,1.5,0.9,1.5C165.9,288.4,167.3,288.4,168.7,288.4z M223.2,332.1c0.1-0.7,0.2-1.5,0.4-2.2c0.1-0.7,0.2-1.5,0.4-2.2
		c0.2-1.2,0.1-1.4-1-1.1c-0.5,0.1-1,0.3-1.5,0.5c-0.3,0.1-0.6,0.2-0.9,0.3c-0.9,0.2-1.6-0.1-1.8-0.9c-0.2-0.6,0.2-1.3,0.9-1.5
		c1.5-0.6,3.1-1,4.6-1.5c0.7-0.2,1.2-0.8,1-1c-0.4-0.4-0.8-0.3-1.2-0.2c-0.6,0.1-1.3,0.2-1.9,0.3c-0.3,0.1-0.7,0.2-0.9,0.1
		c-0.6-0.1-1-0.4-1.2-0.9c-0.2-0.6,0.1-1,0.6-1.3c0.5-0.2,1-0.4,1.5-0.6c1-0.2,2.2-0.4,3.2-0.7c0.3-0.1,0.8-0.2,0.8-0.4
		c0-0.6-0.6-0.5-0.9-0.5c-1.6,0.1-3.2,0.3-4.8,0.4c-1,1.3-1,3-1.7,4.5c-0.1,0.2-0.1,0.4-0.1,0.6c-1.4,5.7-2.2,11.4-3.2,17.2
		c-0.3,1.7-0.5,3.4-0.7,5.1c-0.1,0.5,0.2,0.9,0.7,0.9c2-0.1,4.1-0.4,6-1.1c0.9-0.3,1.4-1.8,0.9-2.8c-0.3-0.7-1.1-0.6-1.7-0.5
		c-0.7,0.1-1.5,0.3-2.2,0.3c-0.5,0-1-0.2-1.5-0.4c-0.2-0.1-0.4-0.5-0.5-0.8c-0.1-0.4,0.1-0.9,0.5-1c0.7-0.3,1.4-0.5,2.2-0.6
		c0.7-0.1,1.5-0.1,2.3-0.2c0.9-0.1,1.2-0.6,1.4-1.4C222.9,336.2,222.8,334.1,223.2,332.1z M175.9,193c-0.2-0.2-0.4-0.4-0.7-0.6
		c-4.6-2.7-8.9-5.8-13.1-9c-0.2-0.2-0.5-0.4-0.8-0.6c-0.4-0.2-0.9-0.2-1.2,0.2c-0.9,1.4-1.8,2.6-2.7,4.1c-0.7,1.1-0.6,1.4,0.4,2.2
		c3.3,2.8,6.7,5.4,10.5,7.5c3.6,2,2.6,2.3,5.3-1c0.6-0.7,1.3-1.5,1.9-2.2C175.8,193.5,175.9,193.3,175.9,193z M143.7,280.1
		L143.7,280.1c-2.3,0.2-4.7,0.3-7.1,0.5c-0.9,0.1-1.8,0.1-2.3,1c-0.3,0.6,0.4,1.4,1.7,2c3.7,1.8,7.6,3,11,5.4
		c0.4,0.3,1.3,0.1,1.4-0.4c0.1-1.5,1.1-1.7,2.2-1.8c1-0.1,1.9-0.1,2.9-0.1s2,0.1,1.8,1.5c0,0.1,0.2,0.4,0.4,0.4c0.6,0,1.3,0,1.9-0.1
		c0.5-0.1,0.6-0.6,0.7-1c0.2-0.7,0.9-0.9,1.5-1.1c0.4-0.2,0.2-0.5,0-0.7c-1.2-0.7-2.5-1.3-3.7-2c-0.7-0.4-1.7-0.6-2.3-1.2
		c-2.8-2.8-6.2-3.2-9.8-2.5C144,280.1,143.9,280,143.7,280.1z M136.3,289.7c1.6-0.1,3.7-0.2,5.7-0.2c0.2,0,0.4-0.1,0.6-0.1
		c0.2-0.1,0.4-0.2,0.3-0.5c0-0.1-0.1-0.2-0.2-0.2c-1.7-0.7-3.4-1.5-5-2.3c-2.4-1.2-5-2.1-6.8-4.2c-0.4-0.5-1-0.4-1.5-0.4
		c-3.7,0.2-7.3,0.2-11,0.7c-0.3,0.1-0.7,0-0.7,0.4c0,0.2,0.4,0.5,0.6,0.7c2.2,1.4,4.4,2.6,6.6,4.1c2.5,1.7,5.2,2.5,8.2,2.2
		C134.1,289.6,135,289.7,136.3,289.7z M200,320.3c-0.1,0-0.2-0.1-0.4-0.1c-0.2,0.7-0.6,1.4-0.7,2.1c-0.3,1.8-0.6,3.6-0.8,5.4
		c-0.2,1.4-0.4,2.8-0.6,4.2c-0.1,0.6-0.4,1-1,1c-1,0-1.7-0.5-1.6-1.2c0.1-1.6,0.2-3.2,0.4-4.8c0.1-1.2-0.1-1.5-1.4-1.5
		c-1.1,0-2.2,0.1-3.3,0.1c-1.1,0.1-1.4,0.3-1.5,1.2c-0.4,2-0.6,4.1-1,6.1c-0.1,0.7,0.1,1,0.8,1c4.2,0.4,8.4,0.8,12.6,1.2
		c1.5,0.1,3,0.2,4.5,0.2c0.2,0,0.5-0.2,0.5-0.4c-0.1-0.3-0.2-0.7-0.4-0.8c-1.8-0.4-3.6-0.9-5.4-0.9c-1,0-1.2-0.2-1.2-1.1
		c0.1-2.8-0.2-5.6,0.4-8.4C200.2,322.6,200,321.5,200,320.3z M269.3,159.7c0.2-1-0.2-1.5-0.4-2.2c-2-4.1-4.5-7.9-6.8-11.8
		c-2.6-4.5-5.7-8.7-8.9-12.8c-2.5-3.1-5.1-5.9-7.9-8.6c-0.3-0.2-0.7-0.7-1-0.3c-0.4,0.4-0.5,1-0.2,1.5c0.2,0.5,0.7,0.9,1,1.2
		c4.4,4.4,8.3,9.2,11.8,14.3c3.7,5.5,7.1,11.1,10.2,17c0.4,0.7,0.6,1.4,1.3,1.8c0.2,0.1,0.4,0.1,0.6,0.1
		C269,160,269.3,159.7,269.3,159.7z M171.4,362.3c0-0.1,0-0.1,0-0.1c4.7-0.1,9.3-0.2,14-0.3c0.4,0,0.9,0,1.3-0.1
		c0.2-0.1,0.6-0.4,0.6-0.7c0-0.2-0.2-0.6-0.5-0.7c-1-0.5-2.2-0.3-3.2-0.2c-7.3,0.6-14.5,0.5-21.7,0.5c-1.8,0-3.7,0-5.5,0
		c-0.7,0-1.7,0.6-1.5,0.9c0.3,0.5,0.8,0.7,1.4,0.7c0.4,0.1,0.9,0.1,1.3,0.1C162.1,362.3,166.8,362.3,171.4,362.3z M289.6,11.9
		c-0.1-0.2-0.2-0.4-0.4-0.6c-1.4-1-3-1.8-4.6-2.3c-2.2-0.6-4.1,0.2-5.2,2.2c-0.7,1.4-0.7,1.7,0.8,2.3c1.1,0.4,2.1,1,3.1,1.5
		c0.7,0.4,1.3,0.7,2,1.1c0.4,0.2,0.9,0.1,1.2-0.2c1-1.3,2-2.6,2.9-3.9C289.6,12.1,289.6,12,289.6,11.9z M146,324.3
		C146,324.3,146,324.3,146,324.3c1,0.1,2,0.1,2.9,0.2c1.4,0.1,1.5-1.4,2.6-1.8c0.8-0.2,1.5-0.9,2.3-1.3c2-1.2,3.9-2.3,5.8-3.4
		c0.1-0.1,0.2-0.4,0.2-0.6c0,0-0.1-0.1-0.2-0.1c-1.6-0.1-3.1-0.4-4.7,0.3c-3.6,1.8-7.2,3.4-10.8,5.1c-0.5,0.2-0.9,0.6-1.4,0.9
		c-0.1,0.1-0.1,0.2-0.1,0.3c0,0.1,0.1,0.2,0.2,0.2C143.8,324.2,144.8,324.2,146,324.3z M242.2,75c-0.2,0.1-0.4,0.1-0.6,0.2
		c-0.9,1.2-1.8,2.4-2.3,3.8c0.9,0.7,1.8,1.5,2.8,2.2c1,0.7,2,1.4,3,2c0.8,0.6,1,0.5,1.6-0.2c0.6-0.9,1.2-1.8,1.8-2.7
		c0.3-0.4,0.2-0.8-0.2-1.1c-1.8-1.6-3.8-3-5.8-4.1C242.4,75,242.3,75,242.2,75z M101.4,377.6c0.1,0.2,0,0.5,0.1,0.6
		c0.2,0.2,0.4,0.5,0.7,0.6s0.6-0.1,0.7-0.4c0.1-0.3,0.2-0.6,0.2-0.9c0.4-3.9,0.9-7.7,1.4-11.6c0.2-1.5,0.4-1.7,1.9-2.2
		c1.5-0.5,3.2-0.6,4.8-0.7c0.6-0.1,1-0.1,1.6-0.2c0.2-0.1,0.4-0.3,0.4-0.4c-0.1-0.3-0.2-0.7-0.4-0.7c-0.5-0.2-1-0.3-1.5-0.2
		c-2.2,0.1-4.3,0.5-6.4,1.1c-1.7,0.5-1.7,0.5-1.8,2.5c-0.1,0.6-0.2,1.3-0.2,1.9C102.3,370.3,101.8,374,101.4,377.6z M129.3,360.5
		c0,0.1,0,0.1,0,0.2c-2.6,0-5.2,0-7.8,0c-0.5,0-0.8,0.2-1.1,0.6c-0.3,0.3-0.1,1,0.2,1.1c0.2,0.1,0.4,0.2,0.6,0.2
		c4.1-0.1,8.2-0.1,12.3-0.2c1.4,0,2.8-0.4,4.1-1c0.1-0.1,0.2-0.4,0.2-0.6c0-0.1-0.1-0.2-0.2-0.2c-0.5-0.1-1-0.2-1.6-0.2
		C133.9,360.5,131.6,360.5,129.3,360.5z M158.1,324.7c1.5,0.1,2.9-0.1,4.1-1c2.3-1.6,4.7-3.1,7-4.7c0.2-0.2,0.7-0.3,0.4-0.7
		c-0.1-0.2-0.3-0.3-0.5-0.4c-1-0.2-1.9-0.3-2.8,0.2c-3.1,1.7-6.1,3.6-9.1,5.6c-0.1,0.1-0.2,0.4-0.2,0.6c-0.1,0.2,0.1,0.3,0.4,0.4
		C157.6,324.7,158,324.7,158.1,324.7z M144.2,317.1c-2.5,0.2-4.9,0.3-7.1,1.5c-1.9,1-3.8,2.1-5.5,3.3c-0.1,0.1-0.2,0.4-0.2,0.6
		c0,0.1,0.1,0.1,0.2,0.2c1.4,0.4,2.6,0.7,4-0.1c2.5-1.5,5-2.8,7.6-4.2C143.6,318.1,144,317.8,144.2,317.1z M163.1,329.6
		c-0.4,1.9,1,3.4,0.9,5.3c0,0.1,0.2,0.1,0.3,0.1c0.1,0,0.3-0.1,0.3-0.1c0.1-0.5,0.2-1,0.2-1.5c0.1-0.5,0.4-0.8,0.9-0.8
		c0.5,0,0.8,0.2,1,0.7c0.1,0.4,0.1,0.9,0.2,1.2c0.1,0.2,0.2,0.4,0.4,0.4c0.4,0.1,0.7-0.1,0.7-0.4c0.3-1.4,0.9-2.8,0.2-4.3
		c-0.4-0.9,0.1-1.9-0.3-2.8c-0.1-0.1-0.3-0.3-0.5-0.3s-0.4,0.1-0.5,0.2c-0.1,0.4-0.2,0.8-0.3,1.2c-0.1,0.7-0.1,1.5-0.9,1.5
		c-1,0.1-1-0.9-1.1-1.6c-0.1-0.4-0.1-0.9-0.7-0.9c-0.5-0.1-0.9,0.4-1,1C163.1,328.9,163.1,329.2,163.1,329.6z M160.3,240.5
		c-0.1-0.2-0.1-0.5-0.2-0.6c-1.2-0.6-2.3-1.1-3.5-1.7c-4.4-2-8.7-4.3-12.3-7.8c-0.2-0.2-0.5-0.6-0.7,0c-0.1,0.2-0.1,0.5,0.1,0.6
		c0.4,0.5,0.8,1,1.3,1.4c2.9,2.3,5.8,4.4,9.1,6.2c1.4,0.8,3,1.4,4.4,2c0.4,0.2,0.9,0.2,1.3,0.2C159.9,240.9,160.1,240.7,160.3,240.5
		z M221.7,303.2c-0.1,0-0.1,0-0.2,0c0,1.3,0,2.6,0,3.9c0,0.3,0.2,0.7,0.4,0.8c0.2,0.1,0.7,0.1,0.9-0.1c1.8-1.5,3.9-2.8,3.4-5.7
		c-0.1-0.6,0.3-1.2,0.3-1.9c0.1-0.4-0.1-0.9-0.2-1.2c-0.1-0.2-0.3-0.3-0.5-0.4c-0.2,0-0.4,0.1-0.5,0.3c-0.7,0.9-0.3,1.8-0.5,2.8
		c-0.1,0.9-0.1,2-0.9,2.7c-0.5,0.4-0.9,1.3-1.5,1.1c-0.7-0.2-0.4-1.1-0.3-1.7c0.2-1.5-0.2-3,0.5-4.5c0.2-0.6,0.1-1.3,0.1-1.9
		c0-0.3-0.1-0.4-0.3-0.2c-0.1,0.1-0.2,0.1-0.2,0.2c-0.3,0.6-0.6,1.2-0.5,1.8C221.7,300.6,221.7,301.9,221.7,303.2z M124,227.8
		c0.2,0,0.3,0.1,0.4,0c0.1-0.1,0.3-0.2,0.4-0.3c0,0-0.1-0.2-0.1-0.2c-3.3-1.9-6.1-4.4-8.5-7.3c-0.1-0.1-0.2-0.1-0.2-0.2
		c-0.1-0.1-0.2-0.1-0.2-0.1c-0.1,0.1-0.1,0.2-0.1,0.3c0.1,0.9,0.3,1.9,0.4,2.8c0.1,0.7,0.4,1.2,0.9,1.7c0.7,0.7,1.3,1.4,2,2.1
		c0.3,0.2,0.7,0.5,1.1,0.6C121.3,227.4,122.8,227.6,124,227.8z M147.5,330.9c-0.2,1.7-0.3,2.8-0.4,3.8c0,0.2,0.2,0.7,0.4,0.8
		c0.8,0.6,2,0.1,2.3-0.8c0.1-0.3,0.1-0.7,0.2-0.9c0.9-0.7,1.6-1.4,0.1-2.3c-0.2-0.2-0.3-0.8-0.3-1.2c-0.1-0.6,0-1.1-0.1-1.6
		c-0.1-0.7-0.5-1-1.4-1c-0.7,0-1,0.4-1,1C147.5,329.5,147.5,330.5,147.5,330.9z M178.6,202.2c0.3-0.1,0.6-0.1,0.7-0.2
		c1.4-1.5,2.8-3,4.2-4.5c0.4-0.4,0.2-0.7-0.3-1c-0.2-0.1-0.4-0.2-0.6-0.2c-1.2-0.5-1.4-0.5-2.2,0.6c-0.9,1.2-1.8,2.4-2.8,3.6
		c-0.2,0.3-0.6,0.8-0.1,1.2C177.8,201.8,178.3,202,178.6,202.2z M150.6,172.5c-0.3-0.8-0.7-1.7-1.5-1.9c-0.7-0.2-0.9,0.7-1.1,1.3
		c-0.7,1.5-1.4,2.9-2,4.4c-0.1,0.3-0.3,0.6-0.3,0.9c0,0.6,0.4,1,0.9,1.3c0.5,0.3,0.7,0.1,0.9-0.4c1-1.7,2-3.3,3-4.9
		C150.6,173,150.6,172.8,150.6,172.5z M211,350.6c-0.2-0.2-0.3-0.4-0.5-0.5c-0.2-0.1-0.4,0-0.6,0.1c-0.2,0.2-0.4,0.5-0.6,0.7
		c-1.4,2.6-2.9,5-5,7.1c-0.1,0.1-0.2,0.4-0.3,0.6c0,0.2,0,0.4,0.1,0.6c0.1,0.1,0.4,0.2,0.6,0.2c0.4-0.1,0.9-0.2,1.1-0.6
		c2.2-2.3,4.1-4.7,5.2-7.7C211.1,350.9,211,350.7,211,350.6z M167.4,324.2c0.7,0,1.5,0,2.2-0.4c2-1.3,4-2.5,6-3.8
		c0.1-0.1,0.2-0.4,0.2-0.6c-0.1-0.1-0.2-0.3-0.4-0.4c-0.7-0.2-1.5-0.1-2.2,0.4c-1.9,1.2-3.8,2.4-5.7,3.6c-0.2,0.2-0.5,0.4-0.7,0.6
		c-0.1,0.1-0.1,0.2-0.1,0.3c0,0.1,0.1,0.1,0.2,0.2C167,324.2,167.2,324.2,167.4,324.2z M240,73.8c-0.1-0.1-0.1-0.2-0.1-0.3
		c-0.6-0.6-1.4-1.1-2.2-1.2c-0.6-0.1-0.9,0.6-1.1,1c-0.4,0.6-0.7,1-1,1.6c-0.6,0.9-0.5,1.3,0.2,1.9c1.4,1.2,1.7,1.1,2.6-0.4
		c0.4-0.7,0.9-1.4,1.4-2.2C239.8,74.2,239.9,74,240,73.8z M172.1,330.8c-0.1,0-0.1,0-0.1,0c0-1,0-2.2,0-3.2c0-0.5-0.4-0.8-0.9-0.7
		s-0.7,0.4-0.8,0.9c-0.1,1,0.1,2.2-0.2,3.2c-0.4,1.2,0.3,2.1,0.2,3.1c0,0.1,0.5,0.4,0.7,0.4s0.7-0.3,0.7-0.5
		C171.9,333,172,331.9,172.1,330.8z M213.9,329.6c0.1-1,0.1-1.9,0.2-2.9c0-0.1-0.2-0.3-0.4-0.4c-0.3-0.1-0.6,0-0.8,0.3
		c-0.1,0.1-0.1,0.2-0.1,0.3c-0.4,2.5-0.7,5.1-1,7.6c0,0.1,0.1,0.2,0.1,0.3c0.1,0.4,0.4,0.8,0.9,0.8c0.4,0,0.5-0.3,0.6-0.6
		C213.5,333.2,213.8,331.4,213.9,329.6z M143,214.2c-0.1-0.2-0.2-0.4-0.4-0.4c-0.3-0.2-0.6-0.1-0.9,0.2c-1.7,1.8-3.3,3.7-4.9,5.5
		c-0.3,0.4-0.4,0.8,0.1,1c0.2,0.1,0.7,0.1,0.9,0c1.7-1.9,3.4-3.8,5.2-5.8C143,214.6,143,214.3,143,214.2z M135.8,222.3
		c-0.1-0.2-0.9-0.5-1.2-0.2c-1.6,1.6-3.1,3.2-4.7,4.8c-0.1,0.1-0.2,0.5-0.1,0.6c0.2,0.2,0.5,0.4,0.8,0.4c0.3,0.1,0.7-0.1,0.9-0.2
		c1.7-1.4,3.1-3,4.3-4.7C135.9,222.7,135.8,222.5,135.8,222.3z M158.9,180.9c-0.2-0.2-0.4-0.4-0.6-0.6c-0.3-0.2-0.7-0.2-0.9,0
		c-1.5,1.4-2.3,3.3-3.4,5c-0.2,0.4,0.2,0.7,0.6,1c0.3,0.3,0.6,0.2,0.8-0.1c1.2-1.7,2.4-3.3,3.6-5
		C158.9,181.2,158.9,181.1,158.9,180.9z M219.5,298.2c0-0.4,0-0.5,0-0.6c0-0.4-0.1-0.9-0.5-1.1c-0.6-0.2-0.7,0.3-0.9,0.7
		c-0.7,2.3-0.5,4.6-0.2,7c0,0.1,0.3,0.3,0.5,0.4c0.2,0.1,0.3,0,0.4-0.3C219.4,302.2,218.7,300,219.5,298.2z M137.1,330.3
		L137.1,330.3c-0.1,0.9-0.2,1.7-0.2,2.6c0,0.3,0.1,0.6,0.2,0.9c0.1,0.1,0.4,0.2,0.6,0.2s0.5-0.1,0.5-0.2c0.2-2,0.8-4,0.6-6
		c0-0.1,0-0.2-0.1-0.3c-0.1-0.4-0.4-0.7-0.9-0.7c-0.4,0-0.6,0.3-0.6,0.6C137.1,328.3,137.1,329.3,137.1,330.3z M201.6,305.1
		c0-0.5-0.7-1-1.1-0.9c-1.3,0.5-2.6,0.9-3.9,1.4c-0.4,0.1-0.7,0.4-1,0.7c-0.2,0.2-0.4,0.6-0.2,0.9c0.1,0.1,0.4,0.2,0.6,0.2
		c2-0.2,3.7-1,5.5-1.8C201.6,305.6,201.7,305.4,201.6,305.1z M181.1,188.7c0-0.1,0-0.2,0-0.3c0-0.7-0.4-1.4-1-1.5
		c-0.7-0.1-0.8,0.6-0.9,1c-0.1,1-0.4,2.1-0.9,3c-0.2,0.4,0.1,0.7,0.5,1c1.2,0.7,1.8,0.6,1.8-0.9
		C180.6,190.4,180.9,189.5,181.1,188.7z M182,328.5c-0.1,0-0.1,0-0.1,0c0.1-1,0.2-1.9,0.4-2.9c0.1-0.4-0.4-0.7-0.9-0.7
		c-0.8,0.2-1.4,0.7-1.3,1.2c0.5,1.7,0.2,3.4,0.4,5.1c0.1,0.3,0.2,0.6,0.6,0.6c0.4,0.1,0.7-0.3,0.7-0.6
		C182,330.4,182,329.4,182,328.5z M155.2,200.5c-0.1-0.1-0.1-0.2-0.1-0.2c-0.1-0.2-0.3-0.2-0.6-0.1c-1.7,1.7-3.3,3.3-4.9,5
		c-0.1,0.1,0,0.4,0.1,0.6c0.2,0.2,0.4,0.4,0.8,0.3c0.1-0.1,0.2-0.1,0.2-0.2c1.5-1.7,3-3.4,4.4-5
		C155.3,200.7,155.2,200.6,155.2,200.5z M132.3,338.4c0.1,0.7-0.1,1.8,0.5,2.7c0.1,0.2,0.6,0.2,0.8,0.2c0.1,0,0.4-0.2,0.4-0.4
		c0.5-1.5-0.1-2.9-0.5-4.3c-0.1-0.5-0.4-0.8-0.9-0.7c-0.2,0.1-0.4,0.5-0.4,0.7C132.3,337.2,132.3,337.6,132.3,338.4z M174,330
		c0,1,0,2.2,0,3.2c0,0.2,0.3,0.5,0.3,0.4c0.2-0.1,0.7-0.3,0.7-0.5c0.2-2.2,0.3-4.2,0-6.4c0-0.1-0.3-0.3-0.4-0.3
		c-0.2,0-0.4,0.2-0.5,0.3C173.8,327.8,174,328.9,174,330z M178.7,194.8c-0.2-0.2-0.4-0.5-0.7-0.6c-0.1-0.1-0.5,0.1-0.6,0.2
		c-0.4,1.1-1.2,2-1.9,3c-0.5,0.7-1.5,1.2-1.4,2.4c1.5,0.5,1.7-1,2.3-1.7c0.7-0.7,1.2-1.5,1.8-2.3
		C178.5,195.4,178.6,195.1,178.7,194.8z M144.2,340.7c0.1,0.4,0.1,1.2,0.2,1.8c0,0.1,0.3,0.3,0.4,0.4c0.2,0,0.5-0.1,0.5-0.2
		c0.5-1.4,0.7-2.9,0.4-4.4c-0.1-0.4-0.4-0.4-0.7-0.4c-0.2,0-0.4,0.2-0.5,0.3C144,338.8,144.3,339.6,144.2,340.7z M96.4,366.4
		c-0.7,3.6-0.1,7.4-1,11.1c-0.1,0.2,0.1,0.6,0.6,0.6c0.2,0,0.4-0.1,0.4-0.4C96.4,374,96.4,370.1,96.4,366.4z M163.6,229.1
		c-0.1-0.2-0.1-0.2-0.2-0.3c-0.1-0.2-0.4-0.2-0.5,0c-1.6,2.4-2.8,5-4.1,7.7c-0.1,0.1,0.1,0.4,0.3,0.4c0.2,0.1,0.5,0.1,0.6-0.1
		c0.2-0.3,0.5-0.7,0.7-1C161.5,233.5,162.6,231.3,163.6,229.1z M178.5,329.7c0-0.3,0-0.4,0-0.6c-0.2-1,0.5-2.2-0.6-2.9
		c-0.5-0.4-0.7,0.3-0.7,2.7c0,0.2-0.1,0.4,0,0.6c0.2,1.1-0.5,2.3,0.5,3.3C179.3,332,178.2,330.6,178.5,329.7z M191.3,319.2
		c1.7-0.4,3.6-0.3,5.2-1.1c0.1-0.1,0.2-0.4,0.2-0.5c0-0.2-0.2-0.4-0.4-0.4c-1.7,0.2-3.4,0.4-5,0.6c-0.2,0-0.4,0.2-0.4,0.4
		c-0.1,0.2-0.2,0.4-0.1,0.6C190.9,318.9,191.1,319.1,191.3,319.2z M141.3,187.1c-0.2-0.1-0.4-0.2-0.6-0.2c-0.9,0.7-1.8,1.5-2.6,2.3
		c-0.9,0.9-2.2,1.4-2.3,2.8c-0.1,0.6,0.9,0.3,2.9-1.9c0.8-0.9,1.7-1.6,2.5-2.5C141.3,187.6,141.2,187.3,141.3,187.1z M155.7,178.1
		c-0.1-0.1-0.1-0.2-0.2-0.2c-0.2-0.1-0.5-0.1-0.6-0.1c-1.4,1.6-2.6,3.4-3.4,5.4c-0.1,0.1,0.2,0.4,0.4,0.5c0.2,0.2,0.4,0.1,0.6-0.1
		c1-1.6,2.2-3.2,3.2-4.8C155.7,178.6,155.7,178.4,155.7,178.1z M129.8,329.4c-0.1-1.6-0.1-2.6-0.2-3.7c0-0.2-0.2-0.7-0.6-0.6
		c-0.1,0.1-0.4,0.3-0.4,0.4c0,1.2-0.2,2.4,0.1,3.5c0.2,1.1,0,2.3,0.7,3.3C130.3,331.3,129.7,330,129.8,329.4z M230.7,69.5
		c-0.2,0-0.6,0-0.9,0.1c-0.9,0.6-1.6,1.4-2,2.4c-0.1,0.3,0.1,0.6,0.4,0.7c0.5,0.2,1.1,0.3,1.5-0.2c0.6-0.7,1.1-1.5,1.6-2.3
		C231.4,69.7,230.9,69.7,230.7,69.5z M291.4,20.4c0.2-0.1,0.4-0.1,0.5-0.2c0.9-1.4,1.8-2.6,2.8-4c0.1-0.1,0.1-0.2,0.1-0.3
		c-0.1-0.2-0.1-0.4-0.2-0.6c-0.1-0.1-0.5-0.1-0.5-0.1c-1,1.5-2.2,3-3.1,4.5c-0.1,0.1,0.2,0.4,0.3,0.6
		C291.2,20.4,291.4,20.4,291.4,20.4z M120.2,207.8c-0.1-0.1-0.1-0.2-0.2-0.2c-0.1-0.1-0.2-0.1-0.3-0.1c-1.1,1-2.2,2-3.3,3
		c-0.4,0.4-0.8,0.7-0.8,1.3c0,0.5,0.7,0.2,1.5-0.6c1-0.9,2-1.9,3-2.9C120.1,208.2,120.1,208,120.2,207.8z M166.6,230.8
		c0.1-0.2,0.1-0.4,0.1-0.4c0-0.1-0.1-0.2-0.1-0.3c-0.1-0.2-0.3-0.2-0.5,0.1c-1.7,2.3-4,8.6-3.4,7.9
		C164.6,235.9,165.4,233.2,166.6,230.8z M158.5,334.9c-0.1-0.7-0.7-1.3-1.6-1.2c-0.9,0.1-1.6,1.2-1.4,2.1c0.1,0.5,0.8,1,1.5,1
		C157.9,336.9,158.6,336.1,158.5,334.9z M127.7,200.3c-0.1-0.3-0.3-0.4-0.5-0.1c-2,1.7-3.8,3.4-5.4,5.4c-0.2,0.2-0.1,0.4,0.1,0.5
		c0.1,0.1,0.2,0.1,0.3,0.1c2-1.7,4.1-3.4,5.6-5.5C127.7,200.6,127.7,200.4,127.7,200.3z M153,197.5c-0.1-0.1-0.1-0.2-0.2-0.2
		c-0.1,0-0.2,0.1-0.3,0.1c-1.9,1.5-3.4,3.3-4.9,5.1c-0.1,0.1,0,0.4,0.1,0.6c0,0.1,0.2,0.1,0.2,0.1c1.9-1.5,3.6-3.4,5.1-5.4
		C153,197.7,153,197.6,153,197.5z M176.4,210.6c-0.1-0.1-0.1-0.2-0.2-0.1c-0.1,0.1-0.2,0.1-0.2,0.2c-1.4,2-2.5,4.2-3.5,6.5
		c-0.1,0.2-0.2,0.4,0.1,0.5c0.1,0.1,0.4-0.1,0.5-0.2c1.1-2.2,2.2-4.4,3.3-6.6C176.5,210.8,176.4,210.8,176.4,210.6z M190.8,322.8
		c1-0.1,2-0.1,3-0.2c0.7-0.1,1.5,0.2,2-0.6c0.2-0.5-0.6-0.7-2.1-0.5c-1.2,0.1-2.3,0.3-3.4,0.5c-0.1,0-0.2,0.2-0.2,0.2
		c0.1,0.2,0.1,0.4,0.2,0.5C190.5,322.8,190.8,322.8,190.8,322.8z M192.5,314.9c1.7-0.2,3.4-0.5,5.2-0.7c0.1,0,0.3-0.3,0.3-0.5
		s-0.2-0.4-0.3-0.4c-1.9-0.1-3.8,0.2-5.5,1c-0.1,0.1-0.2,0.2-0.1,0.2C192.1,314.6,192.3,314.7,192.5,314.9z M176.4,190.3
		c0.2,0,0.3-0.7,0.1-0.9c-0.9-1-2-1.8-3.3-2.3c-0.1,0-0.2,0.1-0.2,0.1c-0.1,0.2-0.2,0.4-0.2,0.6s0.1,0.4,0.2,0.6
		c0.9,0.9,2,1.5,3.2,2C176.2,190.4,176.3,190.3,176.4,190.3z M215,350.6c0.2,0,0.4,0,0.6-0.1c1.6-0.7,3.7,0.4,5.1-1.2
		c0.1-0.1,0.1-0.2,0-0.2c-1.7-0.7-3.3,0.5-4.9,0.4c-0.5,0-1,0.1-1.5,0.2c-0.1,0-0.2,0.2-0.1,0.2c0.1,0.2,0.2,0.4,0.3,0.4
		C214.6,350.6,214.8,350.6,215,350.6z M216.5,354.1L216.5,354.1c0.7,0.1,1.5,0.1,2.3,0.1c0.3,0,0.6-0.2,0.9-0.3
		c0.2-0.1,0.3-0.4,0.3-0.6c0-0.1-0.2-0.4-0.4-0.4c-1.6,0.1-3.2,0.2-4.8,0.4c-0.7,0.1-1.5-0.2-2,0.6c0.6,1.1,1.5,0.1,2.2,0.2
		C215.4,354.2,215.9,354.1,216.5,354.1z M157,198.7c0.2-0.1,0.4-0.1,0.6-0.3c1-1.1,2.1-2.2,3.1-3.3c0.2-0.2,0.2-0.4-0.1-0.5
		c-0.2-0.1-0.5-0.2-0.6-0.1c-1.4,0.9-2.3,2.2-3.4,3.4c-0.1,0.1-0.1,0.2,0,0.3c0,0.1,0.1,0.2,0.1,0.2
		C156.8,198.6,156.9,198.6,157,198.7z M132.2,220.8c-0.1-0.2-0.1-0.3-0.1-0.4c-0.1-0.1-0.2-0.1-0.2-0.1c-1.6,1.3-3,2.8-4.2,4.4
		c-0.1,0.1,0,0.2,0,0.2c0.1,0.1,0.2,0.1,0.2,0.1C129.6,223.9,130.9,222.2,132.2,220.8z M250.7,87.4c0.2,0,0.5,0.1,0.6-0.1
		c0.7-1,1.5-2,2.2-3.1c0.1-0.1-0.1-0.4-0.2-0.6c-0.1-0.1-0.4-0.1-0.6,0c-1,0.9-1.6,2-2.2,3.1C250.5,87,250.7,87.2,250.7,87.4z
		 M245.5,287.5c-0.2-0.1-0.4-0.4-0.5-0.3c-1.4,0.4-2.8,0.9-4.2,1.5c-0.1,0.1-0.2,0.4-0.2,0.6c0.1,0.1,0.4,0.3,0.5,0.3
		c1.4-0.4,2.8-0.9,4.2-1.4C245.4,288,245.4,287.7,245.5,287.5z M126.6,325c-0.2-0.1-0.4-0.1-0.6-0.1c0,1.5,0,3,0,4.5
		c0,0.8,0.4,1.4,0.7,2.2c0,0.1,0.1,0.1,0.2,0.1c0.1-0.1,0.2-0.2,0.1-0.3c-0.1-0.9-0.4-1.7-0.4-2.5
		C126.5,327.5,126.6,326.3,126.6,325z M106.6,372.9c1.3-0.1,2.5-0.1,3.6-0.2c0.2,0,0.5-0.4,0.7-0.6c0.1-0.1,0.1-0.2,0-0.3
		c-0.1-0.2-0.3-0.5-0.3-0.5C109.3,371.9,107.7,371.6,106.6,372.9z M195.5,349c0,0.4,0.1,0.7,0.1,1c0,0.1,0.1,0.2,0.1,0.2
		c0.2,0,0.4,0.1,0.6-0.1c0.5-0.4,0.9-0.9,1.4-1.4c0.1-0.1,0.1-0.4,0.1-0.6c-0.1-0.5-0.6-0.6-1-0.7c-0.4-0.1-0.9,0.1-1.1,0.5
		C195.5,348.4,195.5,348.7,195.5,349z M177.3,186.2c0-0.1,0.1-0.2,0.1-0.3c-0.4-1.1-1.2-1.6-2.3-1.8c-0.2,0-0.4,0.1-0.6,0.3
		c-0.2,0.2-0.2,0.6,0.1,0.8c0.7,0.5,1.4,1,2.1,1.4C176.9,186.8,177.2,186.5,177.3,186.2z M134.5,326.8c0,2.2,0,4.2,0,6.4
		C135.1,331,135.1,328.8,134.5,326.8z M288.8,18c0.1,0,0.2,0,0.3-0.1c0.9-1.2,1.7-2.5,2.6-3.7c0.1-0.1-0.1-0.4-0.1-0.6
		c-0.1,0.1-0.2,0.1-0.2,0.1c-1.2,1.1-2,2.5-2.9,3.9c-0.2,0.4-0.1-0.2,0.1,0.2C288.6,18,288.8,18,288.8,18z M153.7,170.7
		c0.2-0.9-0.9-1.7-1.8-1.5c-0.1,0.1-0.4,0.2-0.4,0.4c0.1,0.7,1,1.5,1.7,1.4C153.3,171,153.5,170.8,153.7,170.7z M184.9,194.8
		c0.1-0.2,0.3-0.4,0.2-0.6c-0.2-0.8-1.3-1.4-2.2-1.2c-0.1,0-0.2,0.1-0.2,0.2c-0.1,0.2-0.1,0.4,0,0.6
		C183.2,194.5,184,194.7,184.9,194.8z M132,331.6c0.6-1.7,0.4-3.4,0.4-5.1c0-0.2-0.2-0.5-0.2-0.6c-0.4-0.1-0.4,0.3-0.4,0.6
		C131.8,328.2,131.9,329.9,132,331.6z M92.1,357.7c-1.8-0.6-3.2-0.2-4.6,0.2c-0.1,0.1-0.2,0.2-0.3,0.4c0.1,0.1,0.2,0.1,0.3,0.1
		C88.9,358.3,90.3,358,92.1,357.7z M179.3,205.4c-0.2-0.2-0.2-0.4-0.4-0.5c-0.2-0.1-0.6-0.1-0.6,0c-0.3,0.9-0.6,1.8-0.8,2.7
		c0,0.1,0.1,0.2,0.2,0.2c0.1,0,0.2-0.1,0.2-0.1C178.7,207.1,179,206.3,179.3,205.4z M210.8,313.6c0.2,0,0.7,0,1,0
		c0.1,0,0.2-0.1,0.3-0.1c-0.1-0.2-0.2-0.4-0.4-0.5c-0.7-0.4-1.5-0.6-2.4-0.7c-0.3,0-0.6,0.1-0.7,0.4c0,0.4,0.3,0.5,0.6,0.6
		C209.8,313.5,210.2,313.5,210.8,313.6z M204.3,343.9c0.1-0.1,0.2-0.2,0.2-0.2c0.1-0.6,0.2-1.2,0.3-1.9c0.1-0.6,0.7-1.2,0-1.7
		c-0.4-0.3-0.9,0.6-0.9,1.7C203.9,342.5,203.9,343.2,204.3,343.9z M185,190.3c0.1-0.5-0.2-0.9-0.8-1.2c-0.3-0.1-0.6-0.3-0.8,0
		c-0.2,0.2-0.2,0.6-0.2,0.9c0.1,0.6,0.7,0.7,1.1,1C184.7,191.1,185.1,190.9,185,190.3z M237.8,197.4c0.7-0.6,1.6-0.9,2-1.8
		c0.1-0.1,0-0.2-0.1-0.3c-0.1-0.1-0.2-0.2-0.2-0.2c-1,0.4-1.8,1-2.2,2c0,0.1,0.1,0.2,0.1,0.2C237.6,197.3,237.7,197.3,237.8,197.4z
		 M191.1,354.6c0.1-0.2,0.2-0.4,0.1-0.6c0-0.1-0.4-0.2-0.4-0.2c-0.9,0.3-1.2,0.8-1.1,1.6c0,0.2,0.2,0.4,0.4,0.4
		C190.8,355.8,191.1,355.3,191.1,354.6z M196.3,361.1c-0.5,0.1-1,0.2-1.5,0.4c-0.1,0-0.1,0.1-0.1,0.2c0,0.1,0.1,0.2,0.1,0.3
		c0.8,0.3,1.5,0.7,2.3,0.1c0.1-0.1,0.2-0.4,0.2-0.6c0-0.1-0.1-0.2-0.2-0.2C196.9,361.2,196.6,361.2,196.3,361.1z M109.5,380.6
		c-1.2-0.3-2.4-0.4-3.8,0C107.1,380.6,108.3,380.6,109.5,380.6z M189.5,195.3c-0.5,0-0.8,0.1-0.9,0.5c-0.1,0.4,0.2,0.6,0.6,0.7
		c0.3,0.1,0.6,0.1,0.9,0.1c0.2,0,0.4-0.2,0.6-0.2c-0.1-0.2-0.2-0.6-0.4-0.8C190,195.3,189.7,195.3,189.5,195.3z M86.1,372.7
		c1.6,0.5,2.9,0.4,4.7,0.1C89,372.3,87.8,372.2,86.1,372.7z M298.4,22c-0.1-0.1-0.1-0.2-0.2-0.2s-0.2,0.1-0.2,0.1
		c-0.4,0.6-0.7,1.2-1.1,1.8c0,0.1,0.1,0.2,0.1,0.2c0.1,0.1,0.2,0.1,0.2,0C297.9,23.6,298.5,22.6,298.4,22z M161.1,328.8
		c0-0.6-0.3-0.9-0.7-0.9s-0.9,0.1-1,0.6c-0.1,0.5,0.7,1.2,1.2,1C160.9,329.3,161,328.9,161.1,328.8z M202.3,325.9L202.3,325.9
		c0.1-0.7,0.1-1.5,0.1-2.2h-0.1C202.3,324.4,202.3,325.1,202.3,325.9z M123.7,329.3c0.2-1.4,0.4-2.3-0.1-3.7
		C123.4,326.9,123.2,327.9,123.7,329.3z M90,368.1c0-0.1-0.1-0.2-0.1-0.3c-0.8,0.1-1.6,0.1-2.3,0.2c0,0.1,0,0.1,0,0.1
		C88.3,368.1,89.1,368.1,90,368.1z M228.4,183.1c0.6-0.1,1.2-0.6,1.6-1.3c0.1-0.1,0-0.2-0.1-0.3c-0.1-0.2-0.3-0.3-0.5-0.2
		c-0.4,0.4-0.9,0.8-1.4,1.2c-0.1,0.1,0,0.2,0.1,0.3C228.3,182.9,228.4,183,228.4,183.1z M152.7,329.1c-0.1-0.3,0-0.6-0.1-0.7
		c-0.1-0.2-0.2-0.3-0.4-0.4c-0.1,0.2-0.3,0.3-0.3,0.5c-0.1,0.5-0.1,1,0,1.5c0,0.2,0.2,0.3,0.3,0.4c0.1-0.2,0.3-0.3,0.3-0.5
		C152.7,329.6,152.7,329.3,152.7,329.1z M240.1,199.5c-0.1-0.1-0.3-0.2-0.4-0.2c-0.3,0.1-0.6,0.2-0.9,0.3c-0.1,0-0.1,0.2-0.1,0.3
		c0,0.1,0.1,0.2,0.1,0.2C239.2,200.3,240.1,199.8,240.1,199.5z M226.5,315.1c0.4-0.1,0.6,0,0.8-0.1c0.2-0.1,0.4-0.2,0.6-0.3
		c-0.2-0.1-0.3-0.3-0.5-0.3c-0.6,0-1.2,0.1-1.8,0.1c-0.1,0-0.2,0.1-0.2,0.2c0.1,0.1,0.1,0.2,0.2,0.2
		C225.9,315,226.2,315.1,226.5,315.1z M207.9,309.9c0.4-0.1,0.7-0.1,1-0.1c0.1,0,0.2-0.1,0.2-0.1c-0.1-0.1-0.2-0.3-0.2-0.3
		c-0.6-0.1-1.2-0.3-1.8-0.1c-0.1,0.1-0.2,0.1-0.2,0.2c0.1,0.1,0.1,0.2,0.2,0.2C207.4,309.8,207.7,309.8,207.9,309.9z M157.6,169.5
		c-0.2-0.3-0.4-0.6-0.7-0.7c-0.2-0.2-0.6-0.3-0.8,0.1c-0.2,0.3-0.1,0.6,0.2,0.8c0.2,0.1,0.6,0.2,0.9,0.2
		C157.3,169.8,157.4,169.6,157.6,169.5z M227.5,179c-0.1-0.1-0.2-0.2-0.2-0.2c-0.6,0-1.4,0.6-1.4,1.1c0,0.1,0.3,0.3,0.4,0.3
		c0.6,0,0.9-0.4,1.2-0.9C227.5,179.3,227.5,179.1,227.5,179z M158.2,175.7c0.2-0.5-0.2-0.6-0.5-0.7c-0.4-0.1-0.9-0.1-1,0.4
		c-0.1,0.3,0.2,0.6,0.6,0.7C157.7,176.4,158,176.1,158.2,175.7z M161.5,173.5c-0.4,0.1-0.6,0.4-0.8,0.8c-0.1,0.1-0.1,0.2-0.1,0.3
		c0.2,0.1,0.4,0.2,0.6,0.2c0.3-0.1,0.6-0.2,0.8-0.4c0.2-0.1,0.2-0.4,0-0.5C161.9,173.7,161.7,173.7,161.5,173.5z M227.2,308
		c-0.1-0.4-0.7-0.6-1-0.4c-0.2,0.1-0.4,0.4-0.3,0.5c0.2,0.5,0.6,0.4,1,0.3C227.2,308.4,227.2,308.3,227.2,308z M174.6,206.8
		c0.4-0.1,0.6-0.4,0.6-0.7c0.1-0.2-0.1-0.4-0.1-0.6c0,0-0.2-0.1-0.2,0c-0.2,0.4-0.4,0.7-0.6,1.1
		C174.4,206.6,174.6,206.7,174.6,206.8z M241.7,202.3c0.2-0.2,0.5-0.3,0.7-0.5c0.2-0.2,0.1-0.4-0.2-0.3c-0.2,0.1-0.5,0.4-0.7,0.6
		C241.6,202.1,241.6,202.2,241.7,202.3z M213.4,318.4c-0.2,0-0.4-0.1-0.6,0c-0.1,0.1-0.2,0.2-0.4,0.2c0.1,0.1,0.2,0.1,0.2,0.1
		c0.3,0,0.6,0.1,0.9,0c0.1,0,0.2-0.2,0.4-0.2C213.7,318.5,213.5,318.4,213.4,318.4z M155.9,328.7c0.2,0,0.4,0,0.6-0.1
		c0.2-0.1,0.3-0.2,0.5-0.4c-0.2-0.1-0.3-0.4-0.5-0.4c-0.4-0.1-0.9,0-1.2,0.1c-0.1,0-0.2,0.3-0.2,0.4c0,0.1,0.1,0.2,0.2,0.2
		C155.4,328.7,155.6,328.7,155.9,328.7z M185.6,333.1c-0.1-0.1-0.2-0.2-0.3-0.2c-0.4-0.1-1,0.4-0.9,0.7c0.1,0.1,0.4,0.2,0.6,0.1
		C185.2,333.5,185.4,333.3,185.6,333.1z M170.4,185.5c-0.3,0-0.6,0.1-0.6,0.4c0,0.1,0.1,0.4,0.2,0.5c0.3,0.1,0.6-0.1,0.6-0.4
		C170.6,185.8,170.5,185.7,170.4,185.5z M145.1,360.4c-0.2,0.2-0.6,0.3-0.7,0.6c-0.1,0.4,0.2,0.6,0.5,0.6c0.5,0.1,1-0.2,0.9-0.6
		C145.6,360.7,145.3,360.6,145.1,360.4z M152.6,361.3c0.3-0.1,0.5-0.1,0.7-0.1c0.1,0,0.2-0.2,0.2-0.2c-0.1-0.1-0.1-0.4-0.2-0.4
		c-0.5-0.1-1-0.2-1.5,0.1c-0.1,0.1-0.1,0.1-0.2,0.2c0.1,0.1,0.1,0.2,0.2,0.2C152.1,361.2,152.4,361.3,152.6,361.3z M201.6,361
		c-0.3-0.3-0.6-0.3-0.9-0.2c-0.1,0.1-0.3,0.3-0.3,0.4c0,0.2,0.2,0.3,0.5,0.2C201.1,361.2,201.4,361.1,201.6,361z M89.3,362.9
		c-0.1,0.4-0.2-0.1,0.2,0.1c0.1,0.1,0.2,0,0.3,0c0.2,0,0.5-0.1,0.7-0.1c-0.2,0-0.4-0.1-0.6-0.1C89.7,362.8,89.5,362.9,89.3,362.9z
		 M109.4,377.6c0.2,0,0.4,0.1,0.6,0c0.2-0.1,0.4-0.2,0.6-0.2c-0.2-0.1-0.3-0.2-0.5-0.3c-0.2-0.1-0.4-0.1-0.6-0.1
		c-0.2,0.1-0.6,0-0.6,0.4C108.8,377.4,109.1,377.5,109.4,377.6z M197.9,176.1c0.2-0.4,0.5-0.7,0.7-1c0-0.1-0.1-0.2-0.2-0.2
		c-0.2,0.3-0.5,0.7-0.7,1C197.7,175.7,197.9,175.9,197.9,176.1z M200.3,172.5c0.1,0.1,0.2,0.2,0.2,0.3c0.1-0.1,0.1-0.1,0.2-0.2
		c0.1-0.2,0.3-0.3,0.4-0.5c0.1-0.2,0.1-0.4,0.1-0.6c-0.1,0.1-0.3,0.1-0.4,0.2C200.6,172,200.4,172.2,200.3,172.5z M202.2,170
		c0.1,0.2,0.2,0.2,0.2,0.4c0.1-0.1,0.2-0.1,0.2-0.2c0.2-0.2,0.4-0.5,0.6-0.7c0.1-0.1-0.1-0.4-0.1-0.6c-0.1,0.1-0.2,0.1-0.2,0.2
		C202.5,169.3,202.3,169.7,202.2,170z M204.4,167.7c0.2-0.2,0.4-0.5,0.6-0.7c0.1-0.1,0-0.4,0-0.6c-0.1,0.1-0.4,0.2-0.4,0.3
		c-0.2,0.2-0.3,0.6-0.4,0.8C204.2,167.5,204.4,167.6,204.4,167.7z M207.1,164c-0.1-0.1-0.1-0.2-0.2-0.3c-0.1,0.1-0.1,0.1-0.2,0.2
		c-0.1,0.2-0.3,0.3-0.4,0.5c-0.1,0.2-0.1,0.4-0.1,0.6c0.1-0.1,0.3-0.1,0.4-0.2C206.8,164.5,207,164.2,207.1,164z M208.3,162.5
		c0.2-0.3,0.6-0.6,0.7-0.9c0.1-0.1,0-0.4-0.1-0.6c-0.1,0.1-0.4,0.1-0.4,0.2c-0.2,0.2-0.3,0.5-0.4,0.8
		C208.1,162.1,208.2,162.3,208.3,162.5z M214.7,298.7c0.2,0.2,0.4,0.3,0.7,0.5c0.1-0.2,0.2-0.4,0.2-0.6c0-0.3-0.2-0.6-0.6-0.4
		C214.8,298.3,214.8,298.6,214.7,298.7z M243.8,292c0-0.1,0-0.2-0.1-0.2c-0.2,0-0.4-0.1-0.6-0.1c-0.3,0.1-0.2,0.2,0.1,0.3
		C243.5,292.1,243.7,292,243.8,292z M254.7,80.5c-0.1-0.1-0.1-0.2-0.1-0.2c-0.1,0.1-0.3,0.2-0.4,0.4c-0.1,0.2-0.1,0.4,0.2,0.3
		C254.5,80.9,254.6,80.6,254.7,80.5z M97.1,362.4c-0.1-0.2-0.1-0.4-0.2-0.6c-0.1,0.2-0.2,0.4-0.2,0.6c0,0.2,0.1,0.4,0.2,0.6
		C97,362.7,97,362.6,97.1,362.4z M167.9,184.3c0-0.2-0.1-0.3-0.1-0.5c-0.1,0.1-0.2,0.1-0.2,0.2c-0.1,0.1-0.1,0.3-0.2,0.4
		C167.6,184.4,167.7,184.4,167.9,184.3z M217.3,357.6c-0.2-0.1-0.4-0.2-0.6-0.2c-0.2,0-0.4,0.1-0.5,0.2c0.2,0.1,0.4,0.2,0.6,0.1
		C216.9,357.8,217.1,357.7,217.3,357.6z M184.4,329.6c0-0.4-0.2-0.7-0.3-0.6c-0.1,0.1-0.2,0.4-0.2,0.6s-0.1,0.6,0.3,0.5
		C184.4,330.2,184.4,329.8,184.4,329.6z M189.7,199.2c0.1-0.1,0.2-0.2,0.4-0.4c-0.2,0-0.4-0.1-0.5,0c-0.1,0-0.2,0.1-0.2,0.2
		C189.4,199.3,189.4,199.3,189.7,199.2z M222.5,315.3c-0.1,0-0.2,0.1-0.2,0.1c0.1,0,0.2,0.1,0.4,0.1c0.4-0.1,0.1,0.4,0.2-0.1
		C222.8,315.4,222.6,315.4,222.5,315.3z M198.1,310.1c0.1-0.4,0.3,0.1-0.1-0.1c-0.1-0.1-0.5-0.1-0.5,0.1c-0.2,0.4-0.3-0.2,0.1,0.1
		C197.7,310.3,198,310.2,198.1,310.1z M253.2,93.3c-0.1-0.1-0.2-0.2-0.2-0.2c-0.4-0.1-0.7,0.4-0.7,0.7c0,0.1,0.1,0.2,0.2,0.2
		C252.8,94.2,253.3,93.6,253.2,93.3z M240.9,292.6c0.1,0,0.2,0.1,0.2,0.1c0.2-0.1,0.1-0.2-0.2-0.2
		C240.9,292.5,240.9,292.6,240.9,292.6z M208.8,166.6h0.2l-0.1-0.3L208.8,166.6z M202.3,174.9c0,0.1-0.1,0.2-0.1,0.2
		c0.1,0.2,0.2,0.1,0.2-0.2C202.5,174.9,202.4,174.9,202.3,174.9z M160.1,178.3c0.2-0.1,0.4-0.2,0.5-0.2c-0.1-0.1-0.1-0.2-0.2-0.2
		c-0.2,0-0.4,0.1-0.5,0.1C159.9,178,160,178.1,160.1,178.3z M165.5,182.6l0.2-0.1l-0.2-0.1V182.6z M184.4,186.2
		c-0.1-0.2-0.1-0.4-0.2-0.6c-0.1,0.1-0.2,0.2-0.2,0.2c0.1,0.2,0.1,0.4,0.2,0.6C184.2,186.3,184.3,186.3,184.4,186.2z M188.8,192.4
		c0.1-0.1,0.2-0.1,0.2-0.2c-0.1-0.2-0.1-0.3-0.2-0.5c-0.1,0.1-0.2,0.2-0.2,0.2C188.6,192.1,188.7,192.2,188.8,192.4z M235.9,193.6
		c0,0.1,0,0.2,0.1,0.2c0.1,0.1,0.2,0.1,0.2,0.1c0.2-0.1,0.2-0.3-0.1-0.3C236.1,193.5,236,193.5,235.9,193.6z"/>
	<path class="st1" d="M251.8,320c6.5,0,12.9,5,12.6,13c-0.3,7.3-5.7,12.9-13.1,12.6c-8.4-0.4-12.9-6.8-12.6-13.1
		C239.2,323.9,245.7,319.6,251.8,320z M262.1,332.7c0-4.9-3.1-9.4-7.7-10.5c-4.1-1-7.8-0.1-10.8,3c-3,3-3.6,6.6-2.5,10.5
		c1.3,4.4,5.7,8.4,11.4,7.5C258.5,342.4,262.1,338.3,262.1,332.7z"/>
	<path class="st1" d="M207,153c-0.6,0-1.1-0.8-0.9-1.2c0.2-0.5,0.4-1,0.7-1.4c1.5-2.1,3.1-4.2,4.7-6.3c8.9-11.9,17.7-23.8,26.5-35.8
		c0.6-0.8,1.2-1.5,1.9-2.2c0.4-0.4,1-0.3,1.5,0.1c0.4,0.4,0.4,0.8,0.2,1.2c-0.6,1-1.3,2-2,3c-5.8,7.9-11.8,15.8-17.7,23.8
		c-4.2,5.7-8.4,11.3-12.6,16.9c-0.4,0.6-0.9,1.2-1.5,1.7C207.6,153,207.3,153,207,153z"/>
	<path class="st1" d="M167.9,173.7c-0.5-0.1-0.9-0.4-1-0.8c-0.2-0.6-0.1-1.1,0.1-1.6c0.4-0.7,0.9-1.5,1.4-2.2
		c6-7.8,11.8-15.8,17.3-23.9c0.6-0.8,1-1.7,1.7-2.4c0.2-0.3,0.6-0.6,1-0.8c0.4-0.2,0.9-0.1,1.2,0.1c0.4,0.4,0.7,0.9,0.4,1.4
		c-0.2,0.6-0.6,1.2-0.9,1.7c-2.5,3.6-4.8,7.2-7.4,10.7c-3.9,5.4-8,10.8-12,16.2c-0.3,0.4-0.7,0.9-1,1.2
		C168.5,173.6,168.2,173.6,167.9,173.7z"/>
	<path class="st1" d="M217.1,105.3c0.1,0.5-0.1,1-0.5,1.4c-5.4,7.7-10.8,15.4-16.2,23.1c-0.9,1.3-2,2.5-3.1,3.8
		c-0.5,0.6-1.3,0.6-1.8,0.2c-0.5-0.4-0.7-1.2-0.4-1.8c0.2-0.3,0.3-0.6,0.5-0.8c2.6-3.6,5.2-7.1,7.8-10.8c2.8-4.1,5.6-8.2,8.4-12.3
		c0.7-1,1.6-2,2.4-3.1c0.4-0.4,0.8-0.7,1.4-0.8C216.3,104,217.1,104.6,217.1,105.3z"/>
	<path class="st1" d="M215,132.8c-0.4-0.1-0.6-0.5-0.6-0.9c0-0.6,0.3-1,0.6-1.5c5.2-7,10.4-13.9,15.6-20.8c0.2-0.3,0.6-0.6,0.9-0.9
		s0.9-0.2,1.2,0.1c0.4,0.2,0.6,0.7,0.4,1.1c-0.4,0.9-0.9,1.7-1.5,2.5c-4.2,5.7-8.6,11.4-12.9,17.2c-0.8,1-1.6,2-2.5,3
		C216,132.8,215.5,132.9,215,132.8z"/>
	<path class="st1" d="M234,82.6c0,0.1-0.1,0.6-0.2,1c-0.2,0.6-0.6,1.2-1,1.7c-2.8,3.9-5.8,7.8-9,11.5c-0.4,0.5-0.9,0.9-1.5,1.3
		c-0.5,0.3-1,0.2-1.5-0.2c-0.4-0.4-0.6-1-0.2-1.5c0.3-0.6,0.7-1,1.2-1.5c3.4-3.9,6.6-8,9.5-12.3c0.2-0.4,0.6-0.7,0.9-0.9
		C232.8,81.1,233.9,81.6,234,82.6z"/>
	<path class="st1" d="M246.7,141.6c6.3,0,12.9,4.9,12.5,13.1c-0.4,7.6-6,12.6-13.2,12.5c-7.1-0.1-13-6.3-12.5-13.2
		C234.1,145.2,240.8,141.1,246.7,141.6z M256.9,154.5c0.4-5.2-4.4-11.7-11.7-10.9c-5.4,0.6-9.8,5-9.7,10.4
		c0.2,7.5,6.5,12.1,12.7,10.8C253.4,163.6,256.9,159.6,256.9,154.5z"/>
	<path class="st1" d="M267.2,38.3c-0.6-0.1-0.9,0.4-1.3,0.8c-3.4,4.1-6.8,8.2-9.8,12.5c-0.6,0.8-1,1.7-1.9,2.2
		c-0.2,0.1-0.7,0.1-0.9-0.1c-0.2-0.2-0.4-0.6-0.3-0.8c0.2-0.5,0.5-1,0.8-1.4c3.1-4.4,6.3-8.8,9.9-12.9c1-1.2,2-2.5,3-3.8
		c0.2-0.2,0.4-0.5,0.7-0.7c0.4-0.4,0.8-0.2,1.2,0.1c0.2,0.2,0.4,0.6,0.2,0.9c-0.4,0.7-0.9,1.5-1.4,2.2c-0.2,0.4-0.4,0.7-0.3,1.2
		L267.2,38.3z"/>
	<path class="st1" d="M267.1,38.4c0.4-0.2,0.7-0.3,1.2-0.5s0.9-0.2,1.2,0.2c0.3,0.4,0.3,0.8,0.1,1.2c-0.1,0.3-0.3,0.6-0.5,0.9
		c-2.3,3.1-4.6,6.2-7,9.3c-0.4,0.6-0.9,1-1.6,0.8c-0.6-0.2-0.7-1.2-0.2-2c1.9-2.6,3.8-5.2,5.7-7.8c0.5-0.7,1.3-1.2,1.2-2.2
		L267.1,38.4z"/>
	<path class="st1" d="M282.6,22.3c0.2,0.6-0.1,1-0.4,1.5c-1.8,2-3.6,4-5.1,6.3c-0.1,0.1-0.1,0.2-0.2,0.2c-0.4,0.4-1.2,0.5-1.5,0.2
		c-0.4-0.4-0.4-1-0.2-1.5c0.1-0.2,0.2-0.4,0.3-0.6c1.5-2.3,3.4-4.4,5.4-6.5c0.1-0.1,0.4-0.2,0.6-0.4
		C281.7,21.3,282.5,21.8,282.6,22.3z"/>
	<path class="st1" d="M243.7,332.8c0-4.1,3.2-7.4,7.3-7.6c1-0.1,2.2,0,3.2,0.2c2.2,0.5,3.3,2.1,4.4,4c0.9,1.6,0.8,3.1,0.2,4.7
		c-0.4,1-0.7,2-1.3,3c-1.8,2.9-4.5,3.8-7.8,2.8c-0.6-0.2-1.2-0.3-1.8-0.6C244.9,338.1,243.7,336.1,243.7,332.8z M250.4,335.9
		c-0.4,0.1-1.2,0.7-1.2,1c-0.1,0.5,0.9,1,1.8,0.9c0.2-0.1,0.6-0.2,0.5-0.6C251.3,336.4,250.9,335.8,250.4,335.9z M256.3,332.8
		c0.2-0.2,0.1-0.4-0.1-0.6c-0.5-0.2-1.8,0.2-2,0.7c-0.1,0.1,0.1,0.4,0.2,0.5C255.5,334.1,256.1,334,256.3,332.8z M254.2,330.1
		c0.6,0.1,1.2-0.3,1.2-0.7c0-0.6-0.4-1-0.9-1.2c-0.4-0.1-0.9,0.4-1,1C253.4,329.8,253.7,330.1,254.2,330.1z M247.1,332.7
		c0.1,0,0.2,0,0.4-0.1c0.2-0.1,0.3-0.2,0.5-0.3c-0.1-0.2-0.2-0.4-0.4-0.4c-0.2-0.1-0.6-0.2-0.9-0.3c-0.5-0.1-0.9,0.2-0.9,0.6
		c0.1,0.4,0.3,0.5,0.6,0.6C246.8,332.7,247,332.7,247.1,332.7z M249.1,329.5c-0.1-0.3-0.1-0.7-0.5-0.7c-0.4-0.1-0.6,0.1-0.6,0.5
		c0,0.1,0.2,0.4,0.3,0.4C248.5,329.9,248.8,329.9,249.1,329.5z M254.6,336.2c0-0.4-0.3-0.5-0.6-0.6c-0.1,0-0.4,0.2-0.4,0.3
		c0,0.2,0.1,0.4,0.2,0.5C254.2,336.6,254.4,336.5,254.6,336.2z M251.2,328.2c0.1-0.1,0.2-0.1,0.2-0.2c0.1-0.2,0.1-0.5-0.2-0.5
		c-0.2,0-0.4,0.2-0.2,0.5C251.1,328.1,251.2,328.2,251.2,328.2z"/>
	<path class="st1" d="M238.4,154.4c0-4.1,3.2-7.4,7.5-7.6c1.4-0.1,2.8,0.1,4.1,0.6c1.9,0.9,2.8,2.6,3.8,4.3c0.7,1.4,0.3,2.7-0.2,4.1
		c-0.4,1.2-0.9,2.5-1.7,3.5c-1.8,2.3-4.3,3.1-7.2,2.3c-0.7-0.2-1.5-0.4-2.2-0.7C239.8,159.7,238.3,157.7,238.4,154.4z M246.3,158.9
		c-0.1-0.6-0.2-1-0.7-1.3c-0.4-0.2-1.4,0.4-1.5,0.9c-0.1,0.1,0.1,0.4,0.2,0.6c0.5,0.4,1.1,0.6,1.7,0.4
		C246.1,159.2,246.2,159,246.3,158.9z M250.1,155.4c0.6,0,0.9-0.2,0.9-0.6c0.1-0.3,0.2-0.7,0.1-0.9c-0.1-0.4-0.6-0.2-0.9-0.1
		c-0.4,0.2-0.8,0.4-1.1,0.6c-0.1,0.1-0.1,0.5,0,0.6C249.6,155.2,249.9,155.3,250.1,155.4z M250.2,151.1c0.1-0.5-0.4-1.2-0.9-1.2
		c-0.4-0.1-1,0.4-1,1c-0.1,0.5,0.1,0.9,0.7,0.9C249.5,151.7,250.1,151.7,250.2,151.1z M241.7,154.3c0.2,0,0.4,0,0.6-0.1
		c0.2-0.1,0.2-0.2,0.4-0.3c-0.1-0.1-0.2-0.4-0.4-0.4c-0.4-0.1-0.8-0.2-1.2-0.3c-0.1,0-0.4,0.2-0.4,0.4c-0.1,0.3,0.1,0.6,0.4,0.7
		C241.3,154.3,241.5,154.3,241.7,154.3z M243.8,151.1c-0.1-0.3-0.1-0.7-0.5-0.7c-0.3-0.1-0.6,0.1-0.6,0.5c0,0.1,0.2,0.4,0.3,0.4
		C243.3,151.4,243.7,151.5,243.8,151.1z M249.4,157.9c0-0.4-0.2-0.6-0.6-0.6c-0.1,0-0.4,0.1-0.4,0.2c-0.1,0.4,0.1,0.6,0.4,0.6
		C249.1,158.1,249.3,158,249.4,157.9z M246.3,149.3c-0.1-0.1-0.2-0.2-0.2-0.2c-0.3,0.1-0.4,0.2-0.2,0.5c0.1,0.1,0.1,0.2,0.2,0.2
		C246.1,149.7,246.2,149.5,246.3,149.3z"/>
</g>
</svg>
