<?xml version="1.0" encoding="utf-8"?>
<!-- Generator: Adobe Illustrator 25.0.0, SVG Export Plug-In . SVG Version: 6.00 Build 0)  -->
<svg version="1.1" id="Layer_1" xmlns="http://www.w3.org/2000/svg" xmlns:xlink="http://www.w3.org/1999/xlink" x="0px" y="0px"
	 viewBox="0 0 400 400" style="enable-background:new 0 0 400 400;" xml:space="preserve">
<style type="text/css">
	.st0{opacity:0.1;}
	.st1{fill:#895003;}
</style>
<g class="st0">
	<g>
		<path class="st1" d="M327.2,347.6c0.9-3.1-0.6-5.7-3.8-6.4c-10.7-2.6-19.7-8.6-28.1-15.2c-16-12.4-27.4-28.6-36.9-46.2
			c-1.8-3.4-3.5-7.2-7.9-8c-2.3-0.5-4.7-0.7-7-0.7c-3-0.1-4.3-1.3-4.5-4.5c-0.7-8.9-0.8-17.7-1.1-26.5c-0.6-22-1.8-43.9-2.4-65.9
			c-0.5-20.4-0.6-40.9-0.7-61.3c0-3.5-1.4-6.1-4.2-7.6c-8.3-4.5-9.7-12.2-9.7-20.5c0-1.9,0.9-3.3,2.5-4.4c4.9-3.5,8.8-7.9,12.4-12.6
			c3.1-3.9,4.4-8.8,6.4-13.3c3.8-8.9,4.9-18.2,3.1-27.4C242.8,14.5,235,5.6,221.6,5.2c-3.5-0.1-4.9,0.3-8.7,1.3
			c-2.3-2.4-7.2-4.7-11.3-4.1c-5.7,0.9-9.7,2.2-15.3,6.7c-4.5,3.7-8.4,8-11.7,12.8c-5.5,8.2-10.3,23.1-3.9,34.2
			c-0.2,1.3-0.5,3.7-0.1,9.2c0.3,3.5,1.5,8.7,3.3,11.8c6.4,11.1,17.5,14.5,31,11.7c1.7-0.3,2.5,0.1,2.5,1.9c0.1,6.5-1.2,12.5-7.2,16
			c-2.9,1.7-3.7,4.1-3.3,6.8c1.8,10.7,0.1,21.5,1.1,32.2c0.1,1.9-0.3,2.9-2.5,2.8c-4.9-0.1-9.7-0.1-14.5,0.1
			c-1.9,0.1-2.5-0.7-2.5-2.5c0-3.5-0.2-7.1-0.4-10.7c-0.1-2.1,0.3-3.4,2.6-4.3c3.3-1.3,4-4.1,2.1-6.9c-4-5.9-9.1-10.3-16.5-10.9
			c-3-0.2-4.1-1.7-4.5-4.3c-0.5-3.1-2.4-5.1-5-6.9c-7.6-5.2-17.7-0.5-22.5,5.1c-7.5,8.8-11,19.3-12.2,30.7c-0.2,1.9-0.5,2.8-2.7,2.1
			c-5.7-1.8-10.8-0.3-14.8,4.1c-3.3,3.7-5.8,8-4.7,13.1c1.6,7.9,8,12.7,16,11.9c2.7-0.3,2.7,0.8,2.5,2.7c-0.4,5.3-1.1,10.6-1.1,15.9
			c-0.1,15.5-1.2,30.9-2,46.4c-1.1,20.7-4.4,41-10.3,61c-4.2,14.1-10.5,26.7-19.5,38.1c-3.3,4.1-6.3,8.3-8.7,12.9
			c-3.1,5.9-5.2,12.2-3.5,19.1c2.2,8.7,8.6,13.1,16.5,15.5c11,3.3,21.7,0.9,32.3-2.6c3.7-1.2,7.6-2.5,11.3-0.3
			c11.1,6.5,23,11.1,35.5,13.8c15.3,3.3,30.8,4.5,49.3,4.1c11.6,0.3,25.7-1.7,39.7-4.7c15.7-3.4,30.9-8.9,45.3-16
			c7.3-3.7,14.5-7.7,20.4-13.7c2.9-2.9,4.9-6,3.7-10.4C326.8,350.1,326.8,348.9,327.2,347.6z M321.6,346.9c1.1,0.2,1.8,1,2.1,2
			c0.3,0.9-0.4,1.7-1.3,1.7c-1.3,0-1.7-1.1-1.9-2.1C320.2,347.7,320.7,347.1,321.6,346.9z M319.7,353.2c-1.1-0.5-1.7-1.5-2.1-2.7
			c-0.1-0.4,0.3-0.8,0.9-0.9c1.1,0.5,1.7,1.5,1.9,2.7C320.5,352.8,320.1,353.4,319.7,353.2z M248.6,274.8c2.7,0.7,4.7,2.1,6.1,4.4
			c5.8,9.2,11.3,18.6,17.9,27.2c12.2,15.7,26.8,28.3,45.3,35.8c3.1,1.3,3,2.3,0.6,4.1c-8.7,6.9-18.6,11.5-28.9,15.3
			c-18,6.6-36.6,10.3-55.7,11.4c-28.5,1.7-56.5-1.1-83.9-8.9c-8.6-2.5-17.1-5.4-25.1-9.7c-1.9-1-3.5-2.3-5.2-3.5
			c-3.6-2.6-1.1-2.9,0.9-3.7c9.4-3.5,18-8.3,25.3-15.3c1.9-1.8,3.9-3.4,5.9-5c8.2-6.5,12.7-15.7,17.6-24.6
			c3.5-6.3,6.9-12.7,10.5-18.9c2.2-3.7,5.7-5.9,10-6.7c6.6-1.3,13.3-2.2,20-2.9c6.7-0.7,13.4-1,20.1-0.5
			C236.3,273.8,242.5,273.4,248.6,274.8z M193.3,379.5c0.3,0.9,1.1,1.9-0.1,2.4c-1,0.4-2.1-0.1-2.7-1.1c-0.5-0.9-1.1-1.9-1.3-2.9
			c-0.2-1.2-2.1-2.6-0.4-3.6c1.5-0.9,2.8,0.4,3.5,1.9c-0.2-0.7-0.5-1.5,0.4-1.8c0.7-0.3,1.5,0.1,1.9,0.7c1.1,1.9,2.1,3.7,3.1,5.6
			c0.3,0.6,0.7,1.5-0.2,1.9c-0.7,0.3-1.5-0.1-1.9-0.6c-1.2-1.9-2.2-3.9-3.3-5.9C192.6,377.3,193,378.5,193.3,379.5z M169.4,371.7
			c0-0.1,0.5-0.3,0.5-0.2c1.6,1.7,2.3,3.8,3.1,6c-0.1,0.2-0.2,0.7-0.4,0.7c-0.3,0.1-0.7-0.1-0.9-0.4
			C170.4,376.1,169.8,373.9,169.4,371.7z M169.4,377.3c-0.2,0.5-0.7,0.6-1.1,0.5c-1.1-0.2-1.7-0.9-1.9-1.8c-0.3-1.7-1.4-3.2-1.1-5
			c0-0.1,0.5-0.3,0.7-0.3C167.2,370.8,169.8,376.3,169.4,377.3z M172.8,372.9c-0.2-0.5-0.3-1.1,0.3-1.1c0.7-0.1,1.6,0.1,1.9,0.5
			c1.6,1.8,2.1,4.1,3,6.1c0.1,0.7,0,1.1-0.7,1.1c-0.7,0-1.5-0.2-1.8-0.9C174.6,376.7,173.7,374.7,172.8,372.9z M177.9,373.7
			c-0.3-0.9,0.2-1.2,1.6-1.1c1.2,0,4.9,5.4,4.1,6.9c-0.9,1.5-2.5,0.7-3.1-0.1C179.4,377.7,178.6,375.7,177.9,373.7z M183.5,374.8
			c-0.2-0.5,0-1,0.6-1.1c0.4-0.1,1,0.1,1.3,0.3c1.5,1.7,2.5,3.7,3.1,5.5c0.3,0.8,0.3,1.3-0.3,1.5c-0.9,0.2-2,0.1-2.6-0.7
			C184.4,378.7,184.2,376.7,183.5,374.8z M196.8,376.3c-0.5-1.2,0.2-1.4,1.5-1.3c1.8,0.3,2.2,2.1,2.6,3.5c0.4,1.5,2.8,3.4,0.9,4.3
			c-2.5,1.2-2.4-2.1-3.3-3.5C197.8,378.5,197.2,377.4,196.8,376.3z M201.4,376c-0.3-0.7,0.7-0.7,1.2-0.7c1.2-0.1,2.1,0.3,2.6,1.4
			c0.8,1.5,1.5,3.1,2.3,4.7c0.3,0.6,0.7,1.3-0.1,1.9c-0.6,0.4-1.4,0.4-2-0.1C202.8,381.4,202.2,378.6,201.4,376z M207.4,378
			c-0.3-0.7-1.3-1.5-0.3-2.1c0.9-0.5,1.9-0.2,2.4,0.7c0.9,1.7,1.8,3.5,2.4,4.8c0.3,1.3,0,1.7-0.7,1.8c-0.8,0.1-1.4-0.1-1.8-0.8
			C208.7,381,208,379.5,207.4,378z M211.4,377.3c-0.2-0.6,0-1.2,0.7-1.3c0.8-0.1,1.8-0.5,2.3,0.3c1.1,1.8,1.9,3.7,2.7,5.3
			c0.1,1.1-0.3,1.5-0.9,1.7c-1,0.2-2,0.3-2.5-0.7C212.8,380.8,212.1,379.1,211.4,377.3z M216.4,376.9c-0.2-0.6,0.3-1.1,1.1-1
			c1.1,0,4.4,5.6,3.9,6.6c-0.5,1-1.5,0.9-2.1,0.3C217.8,381.2,217.2,379,216.4,376.9z M220.7,378.1c-1.1-2,0-2.4,1.3-2.3
			c1.9,0.1,5.9,5.3,5.1,6.5c-1.1,1.4-2.7,1.2-3.9-0.1C222.2,381,221.5,379.5,220.7,378.1z M226.6,376.9c-0.5-1.9,1.3-0.9,1.9-1.3
			c1.9,0,5.5,4.5,4.9,6c-0.3,1.1-3.5,1.4-4.3,0.3C228,380.4,227.1,378.7,226.6,376.9z M232.8,376.4c-0.4-1.2,0.7-1.1,1.5-1.3
			c1.1,0.1,4.5,5.3,3.9,6.1c-0.8,0.9-2.2,1.3-3,0.2C234.1,379.9,233.4,378.1,232.8,376.4z M237.6,376.3c-0.3-0.6-0.1-1.2,0.5-1.4
			c0.7-0.2,1.6-0.5,2,0.2c1.1,1.8,2.1,3.7,2.8,5c0.3,1.1,0,1.5-0.5,1.5c-0.7,0.1-1.4,0.1-1.9-0.5C239,379.7,238.4,377.9,237.6,376.3
			z M242.6,377.1c-0.3-0.7-1.5-1.5-0.3-2.4c1-0.7,2.1-0.3,2.7,0.7c1,1.5,1.8,3,2.5,4.2c0.1,0.9-0.3,1.2-0.7,1.3
			c-0.8,0.1-1.7,0.3-2.3-0.5C243.8,379.4,243.2,378.3,242.6,377.1z M247.2,375.2c-0.3-0.5-0.2-0.9,0.3-1.2c0.4-0.1,1.1-0.3,1.3-0.1
			c1.2,1.7,2.3,3.5,3.4,5.2c-0.3,0.4-0.5,0.8-0.7,0.9c-0.7,0.2-1.5,0.1-1.9-0.6C248.8,378.1,248,376.7,247.2,375.2z M251.9,376.2
			c-1.9-2.6-0.5-3.2,1.3-3.1c2.4,0,5.5,3.2,5.4,4.9c-0.1,1-0.9,1-1.5,1.2c-1.2,0.5-2.5,1.1-3.5-0.2
			C252.8,378.1,252.5,377.1,251.9,376.2z M258,373.7c-0.8-1.9,1.2-1.1,1.7-1.6c1.3,0,4.3,4.1,3.7,4.9c-0.7,1-2.1,1.5-3,0.5
			C259.4,376.5,258.6,375.1,258,373.7z M262.6,372.4c-0.5-1.7,1.5-1.3,2.2-1.3c2.4,0.1,2.8,2.3,3.5,3.9c0.5,1.2-0.9,1.3-2,1.6
			C264.4,375.9,263.1,374.3,262.6,372.4z M268,371.1c-0.3-1.4,1.3-1.1,2.1-1.1c2.5,0.2,3.1,2.4,3.7,4.2c0.3,1.1-1.4,0.9-2.3,1.3
			C269.3,374.9,268.4,372.9,268,371.1z M273.1,370c-0.6-1.3,1.3-1.5,2.1-1.5c2.7-0.1,2.3,2.9,3.6,3.9c0.1,1.3-1,1.6-1.7,1.5
			C275,373.6,273.9,371.7,273.1,370z M278.3,368.7c-0.3-0.9,0.5-1.3,1.2-1.3c2.3,0.1,2.5,2.3,3.3,3.7c0.6,1.1-0.7,1.2-1.6,1.5
			C279.4,372,278.8,370.3,278.3,368.7z M282.6,367.3c-0.2-1.1,0.9-1.1,1.6-1.5c1.9,0.7,2.9,2.2,3.5,3.7c0.5,1.2-1.2,1.3-1.9,1.3
			C283.6,370.8,282.9,369.1,282.6,367.3z M287.2,365.5c-0.3-0.8,0.7-1.3,1.3-1.2c2.1,0.3,2.4,2.3,3.3,3.5c-0.1,1.1-0.7,1.5-1.4,1.4
			C288.2,368.9,287.8,367.1,287.2,365.5z M291.5,364c-0.3-0.7,0.8-1.1,1.5-1c1.9,0.3,1.9,2.1,2.8,3.2c0.1,1.1-0.7,1.4-1.4,1.3
			C292.4,367.3,292.1,365.4,291.5,364z M295.5,362.4c-0.2-1.1,1.1-1.3,2.1-1.6c1.7,0.6,2.3,2.2,2.6,3.7c0.2,1-1.1,1.3-1.7,1.3
			C296.5,365.7,295.8,364,295.5,362.4z M299.9,360.5c-0.4-0.8,0.5-1.1,1.4-1.3c1.5,0.6,2.3,2,2.7,3.5c0.2,0.8-0.7,1.3-1.4,1.1
			C300.9,363.5,300.5,361.8,299.9,360.5z M303.8,358.9c-0.4-0.8,0.5-1.1,1.2-1.4c1.5,0.5,1.9,1.9,2.3,3.1c0.3,0.7-0.3,1.3-0.9,1.2
			C305,361.5,304.4,360.1,303.8,358.9z M307.1,356.8c-0.3-0.8,0.5-1.2,1.3-1.3c1.2,0.9,2.1,2.1,2.3,3.6c0.1,0.7-0.7,1.3-1.5,1.1
			C307.8,359.6,307.5,358.1,307.1,356.8z M310.3,355.1c-0.3-0.8,0.8-1.2,1.4-1.1c1.7,0.2,2,1.7,2.7,2.9c-0.1,0.9-0.7,1.5-1.5,1.3
			C311.6,357.6,310.8,356.3,310.3,355.1z M314.1,353.1c-0.5-0.8,0.3-1.2,1.1-1.5c1.5,0.3,1.8,1.5,2.3,2.7c0.2,0.6-0.1,1.3-0.8,1.3
			C315.1,355.6,314.7,354.1,314.1,353.1z M163.8,376.5c-2.7-0.9-2.1-3.7-2.9-5c-0.5-1.5-0.3-2.4,0.7-2c2.4,1,2.2,3.6,3,5.5
			C164.8,375.5,164.8,376.8,163.8,376.5z M158.8,375.1c-2.5-1.1-1.7-3.8-2.6-5.7c-0.3-0.5,0.1-1.3,0.9-1.1c2.8,0.9,1.9,3.7,2.7,5.1
			C160.1,374.8,159.6,375.5,158.8,375.1z M154.1,373.7c-3-0.6-2.4-3.3-3.1-5.1c0.1-0.9-0.2-2,1.2-1.7c3,0.6,2.3,3.4,3.1,5.3
			C155.7,373.1,155.3,373.9,154.1,373.7z M149.4,372.1c-1.4,0.6-1.7-1.2-2.1-2.2c-0.5-1.1-0.9-2.1-1.3-3.2c-0.2-0.7-0.2-1.5,1-1.5
			c2.1,0.5,1.8,2.5,2.3,3.9C149.6,370.1,150.9,371.5,149.4,372.1z M137.7,363.1c0.7-0.6,1.6-0.2,2.2,0.4c1.3,1.4,1.7,3.3,2.3,5.1
			c0.4,1.3-0.6,1.5-1.4,1.1c-2.9-1.4-6.7-1.8-6.7-6.3c0-0.7-1-1.7,0.3-2.1c0.8-0.3,1.5,0.4,2,1.1c0.5,0.7,0.7,1.7,1.5,2.1
			c0-0.1,0-0.1,0-0.1C137.5,364,137.3,363.5,137.7,363.1z M141.9,365.3c-0.3-0.7,0.1-1.4,0.7-1.2c2.5,1,2.1,3.7,2.8,5.3
			c0.2,0.9,0.2,1.8-0.5,1.5C142.6,369.9,142.7,367.3,141.9,365.3z M132.5,366.1c-1.6,0.6-2-2.3-2.7-3.9c-0.3-0.9-1.5-1.9-0.2-2.9
			c1.7,0.1,2,1.3,2.1,2.3C132,363.2,134.1,365.5,132.5,366.1z M115.1,360.1c0-0.2,0.2-0.4,0.4-0.4h0.2h0.1h0.1
			c0.1,0,0.3,0.1,0.3,0.2c1,0.6,1.1,1.9,1,2.9c0,0.3-0.3,0.5-0.6,0.3C115.5,362.6,115,361.3,115.1,360.1z M114.3,352.5
			c0-0.1,0-0.3,0.2-0.4c0,0,0,0,0.1,0c0,0,0,0,0-0.1c0.1-0.2,0.3-0.2,0.5-0.2c0.1,0,0.1,0,0.2-0.1c0.2,0,0.4,0.2,0.4,0.4
			c0,1.1,0.1,2.1,0.4,3.2c0.1,0.3-0.2,0.6-0.5,0.5C114.1,355.4,113.7,353.7,114.3,352.5z M117,352.5c2.1,0.5,2.9,2.2,3,4.1
			c0.1,0.9,1.1,2.3-0.2,2.6c-0.9,0.2-1.7-1.1-2.1-2.1C117.2,355.6,116.5,354.1,117,352.5z M120.5,362.5c1,0.2,2.5,4.3,2,5.1
			c-0.3,0.5-0.6,0.3-0.9,0.1c-1.5-1.2-1.4-3.1-1.8-4.7C119.9,362.9,120.4,362.7,120.5,362.5z M213.4,28.5l0.2,0.2
			c0.1,0,0.1,0,0.1,0.1c0.3,0.1,0.5,0.3,0.7,0.4c1,0.3,1.9,0.9,2.6,1.7c0.9,0.7,1.8,1.4,2.5,2.2c0.9,0.9,0.5,1.7,0.3,2.9
			c-1.5,7-7.9,17.3-12.7,21.1c-2.7,2.1-5.4,3.1-9.1,1.2c-2.4-1.2-2.4-1.2-4.5-2.9c-1.4-1.1-2-1.3-0.6-2.3c4.7-3.1,8.5-7.2,12.5-11
			c3.1-4.1,5.5-8.6,7.3-13.5C212.8,28.3,213.2,28.2,213.4,28.5z M185.8,59.2c0.1-1.1,0.5-2.1,1.8-2.3c1-0.1,1.3,0.6,0.9,1.3
			c-0.5,1-1.1,2.5-2,2.7C185.4,61.4,186,59.9,185.8,59.2z M187.6,64.5c0.6-1.2,1.3-2.4,1.9-3.6c0-0.1,0-0.1,0.1-0.1
			c0.1-0.1,0.1-0.2,0.2-0.3c0.1-0.2,0.2-0.3,0.3-0.5c0.1-0.1,0.2-0.1,0.3-0.2c0.2-0.2,0.4-0.4,0.7-0.5c0.3-0.1,0.7,0.3,0.5,0.6
			c-0.3,0.5-0.6,0.9-0.9,1.3c-0.8,1.3-1.5,2.6-2.3,3.9c-0.1,0.2-0.3,0.3-0.5,0.4C187.7,65,187.4,64.7,187.6,64.5z M188.9,67.3
			c1-1.1,1.7-2.5,2.3-3.8c0.5-1.5,1.1-3.3,2.5-3.9c0.3-0.1,0.5,0,0.6,0.3c0.5,1.5-1.1,3.3-2.1,4.5c-0.6,1.3-1.3,2.4-2,3.6
			c-0.3,0.5-0.7,1.5-1.5,0.9C188.2,68.5,188.6,67.7,188.9,67.3z M192.4,68.2c0.7-1.3,1.4-2.7,2.1-4.1c0.4-0.7,0.5-2.4,1.5-1.9
			c0.8,0.3-0.2,1.6-0.5,2.4c-0.9,2.1-1.8,4.1-2.7,6.1c-0.2,0.3-0.4,0.9-1.1,0.7c-0.3-0.1-0.5-0.5-0.7-0.8
			C191.4,69.7,191.9,69,192.4,68.2z M194.2,71.9c1.3-2.8,2.5-5.5,3.8-8.3c0.3-0.6,0.8-0.9,1.4-0.7c0.5,0.2,0.3,0.8,0.1,1.2
			c-1.1,2.7-2.3,5.3-3.5,8.1c-0.3,0.5-0.5,1.1-1.4,1C194,73,194,72.5,194.2,71.9z M198.2,71.7c1.3-3,2.7-6,4.1-9
			c0.3-0.5,0.7-1,1.4-0.8c0.6,0.1,0.6,0.7,0.6,0.5c-1.3,3.8-2.6,7-4.3,10c-0.3,0.6-0.8,0.9-1.5,0.7
			C197.9,72.9,197.9,72.2,198.2,71.7z M203.5,69.6c1-1.3,1.2-3.2,1.9-4.8c0.4-1.5,1.1-4.7,2.4-4.7c0.2,0,0.4,0.2,0.4,0.4
			c0,2.7-1.2,6.3-3.1,8.6c-0.1,0.3-0.3,0.6-0.4,0.9c-0.3,0.5-0.5,1.3-1.1,1.1C202.8,70.8,203.2,70,203.5,69.6z M207.6,67.5
			c1.2-3.5,2.4-6.9,3.6-10.3c0.1-0.4,0.3-1,0.9-0.7c0.2,0.1,0.1,0.6,0.2,0.8c-1,3.8-2.7,7.2-3.1,11c-0.1,0.6-0.9,0.9-1.4,0.7
			C207.1,68.7,207.4,68,207.6,67.5z M212,64.4c1.3-4.7,1.3-10.1,4.1-14.2c4.5-6.5,6.1-14.9,6.1-16.9c-0.1-1.7-4.7-4.2-6.1-5.5
			c-0.9-0.8-1.8-1.7-1.7-3c0.1-1.6,0-3.6,1.6-4.5c1.7-0.9,3.7-0.7,5.4,0.1c4.5,2.1,6.5,4.1,6.3,14.5c-0.2,8.6-4.1,16.7-8.5,22.9
			c-2.4,3.4-4.4,6.5-6.6,7.8C211.9,66.1,211.8,64.9,212,64.4z M192.6,8.1c0.8-1,1.7-0.3,2.5,0.3c4.9,4,9.7,8.2,13.6,13.3
			c0.4,0.5,0.8,1.9,1.7,1.2c0.8-0.7-0.3-1.4-0.8-2c-3.4-4.5-7.3-8.7-11.7-12.3c-0.7-0.6-1.9-1.1-1.8-2c0.2-1.1,1.7-1.1,2.6-1.4
			c1.1-0.3,2.3-0.3,2.8-0.4c8.4,0.3,12.3,4.9,11.3,12.6c-0.3,2.2-0.9,4.4-1.4,6.5c-0.6,2.4-1.8,2.5-3.3,0.6
			c-4.3-5.3-9.5-9.8-14.5-14.4C193.1,9.7,191.7,9.3,192.6,8.1z M188.8,10.9c0.1-0.3,0.6-0.6,1-0.9c0.8,0.5,1.6,0.8,2.3,1.3
			c6.1,4.3,11.3,9.7,16.2,15.1c0.5,0.6,1.5,1.3,0.7,2.1c-0.7,0.8-1.5-0.2-2.1-0.7c-5.7-5.1-11.5-10.1-17.2-15.2
			C189.2,12.3,188.5,11.8,188.8,10.9z M185.2,13.6c0.7-0.8,1.6-1.5,2.7-0.5c1.5,1.2,3.1,2.2,4.5,3.5c4.7,4.3,9.4,8.6,14.1,12.9
			c0.6,0.5,1.3,1.1,1.4,1.9c-0.3,0.9-0.8,1.1-1.6,0.7c-1.1-0.5-1.9-1.2-2.9-2c-5.6-5-11-10.3-17.3-14.5
			C185.5,15.1,184,14.9,185.2,13.6z M181.2,17c0.9-1.5,2.3-1,3.5-0.4c2.7,1.4,5.2,3.3,7.5,5.3c4,3.3,7.9,6.7,11.9,10.1
			c0.5,0.5,1,0.9,1.5,1.4c-0.3,1-0.9,0.8-1.4,0.5c-1.5-0.7-3-1.5-4.3-2.4c-5.7-4-11.4-8-17.1-12.1C182,18.9,180.2,18.7,181.2,17z
			 M174.8,25.7c0.8-1.7,1.9-1.3,3.2-0.5c7,3.9,14.1,7.8,21.1,11.7c0.7,0.4,1.5,0.8,2.2,1.2c0.5,0.3,1.3,0.4,1.5-0.3
			c0.3-0.7-0.4-1-0.9-1.2c-8.1-2.9-14.9-8.3-22.5-12c-2.3-1.2-2.5-2.5-0.7-4.3c1.3-1.4,2.5-0.3,3.5,0.3c5.5,3.7,10.9,7.5,16.4,11.2
			c1.5,1.1,3.2,2,4.7,3.1c0.8,0.5,2.3,1,1.2,2.3c-0.9,1.1-1.3,3.2-3.5,3.7c-2.5-1.3-3.8-2.3-6.3-3.7c-5.6-3.5-12.5-5.8-18.3-9
			C175.4,27.8,174,27.4,174.8,25.7z M170,43.3c0.3-4.2,0.3-4.2,4.3-2.4c3.2,1.5,6.5,2.7,9.8,4.1c0.5,0.2,1.2,0.5,1.4-0.3
			c0.1-0.7-0.6-0.6-0.9-0.8c-3.3-1.5-6.7-2.8-10.1-4.3c-0.9-0.4-1.7-0.9-2.5-1.4c-0.8-0.5-1.3-1.1-0.7-2.1c0.6-1.1,1.4-0.5,2.1-0.1
			c3.9,2.4,7.9,4.8,12.1,6.5c0.9,0.4,2.3,1.9,2.9,0.5c0.5-1-1.5-1.4-2.6-1.8c-4.5-1.6-8.3-4.4-12.5-6.5c-0.6-0.3-1.5-0.8-1.1-1.6
			c0.5-1.1,1.5-0.5,2.1-0.1c4.5,2.3,8.9,4.8,13.5,7.1c2.6,1.3,5.3,2.5,8,3.7c0.6,0.3,1.5,0.7,1.9-0.1c0.3-0.8-0.4-1.4-1.1-1.5
			c-8.1-1.5-14.2-7.2-21.6-10.3c-1-0.4-2.6-0.8-1.8-2.4c0.8-1.6,2.1-0.5,3,0c7.4,3.9,14.7,8,22.1,11.9c1.5,0.8,2.1,1.3,0.7,2.7
			c-5.2,5.1-10.8,9.5-17.9,11.7c-4.4,1.3-8.7-1.3-10.1-6.1C170.6,47.8,170.4,45.5,170,43.3z M176.4,76.9c-2.4-3.9-4.2-10.3-4.1-14.9
			c0-0.9,0.1-1.9,0-2.8c-0.1-2.1,0.7-2.6,2.5-1.6c2.1,1.1,4.4,0.7,6.6,0.9c1.2,0.1,1.8,0.3,1.9,1.2c0.1,0.1,0.1,0.1,0.1,0.2
			c0.8,4.7,1.3,9,5.1,12.4c2.9,2.6,6.7,3.9,10.6,3.9c6.9-1.6,13-4.3,17.4-9.8c7.1-8.9,12.5-18.5,13.7-30.2
			c1.1-9.7-3.1-17.7-12.3-17.9c-2.1-0.1-2.7-1.1-2.5-3.2c0.1-1.8-0.5-3.7-1-5.5c-0.4-1.5,0-2.2,1.5-2.5c11.1-1.5,23.9,7.1,26.7,18.4
			c2.1,8.4,1.7,16.7-1,25.1c-4.4,14-12.9,24.5-25.4,31.9C202.4,90.8,184.4,90,176.4,76.9z M212.7,90.3c1.3-2.2,3.7-3.7,4.7-6
			c0.1-0.1,0.7-0.3,0.9-0.1c0.5,0.5,0.3,1.1-0.1,1.6c-1.9,2.5-3.8,5-6.2,7.1c-0.1,0.1-0.1,0.2-0.3,0.3c-0.3,0.4-0.7,1.1-1.2,1.1
			c-0.2,0-0.4-0.2-0.4-0.4C210.2,92.3,211.5,91.3,212.7,90.3z M210.1,89.7c-0.2-0.1-0.3-0.4-0.1-0.6c0.3-0.5,0.6-0.9,1-1.3
			c0.3-0.7,0.9-0.9,1.6-1c0.3-0.1,0.4,0.1,0.5,0.3c0.2,0.1,0.3,0.3,0.1,0.5c-0.5,0.7-1.1,1.3-1.9,1.9c-0.1,0.1-0.2,0.3-0.3,0.3
			c0,0,0,0-0.1,0c0,0-0.1,0-0.1,0.1c-0.1,0.1-0.3,0.1-0.4,0C210.4,89.8,210.2,89.8,210.1,89.7z M201.6,108.3
			c6.5-4.7,8.7-13.1,15.1-17.9c0.5-0.4,1.1-0.8,1.6-1.2c0.6,1-0.3,1.5-0.7,2.1c-2.1,2.7-4.5,5.1-7.1,7.4c-0.8,0.7-1.5,1.6-1.5,2.7
			c0,0.2,0.5,0.7,0.7,0.6c1.2-0.1,1.7-1.1,2.3-2c1.5-2.8,4.2-4.4,6.2-6.7c0.2-0.3,0.7-0.6,0.8-0.5c0.6,0.4,0.1,0.8-0.1,1.1
			c-1.3,1.6-2.5,3.1-3.7,4.7c-0.4,0.5-1.7,1.1-0.5,1.9c0.7,0.5,1.3-0.1,1.8-0.7c1.3-1.3,1.9-4.1,3.8-3.6c1.3,0.3,2.1,2.9,3.1,4.5
			c1.3,2.2,3.3,3.7,5.4,5c1,0.6,2.3,1.3,1.4,2.7c-0.3,0.5-0.8,1.1-1.3,1.3c-1.4,1.4-4.3,1.8-5.9,2.1c-3,0.7-6,1-9.1,1.1
			c-1.1,0-2.3,0-3.3-0.1c-3.5-0.1-6.9-1-8.6-2.5C200.6,109.7,200.7,108.9,201.6,108.3z M203.5,113.3c7,2.3,13.9,2,21,0.4
			c1.9-0.4,3.7-0.9,5.2-2.1c2.5-2.1,3.1-0.8,3.1,1.7c0.1,15.4,0.1,30.7,0.2,46.1c0,2.3,0,4.7,0,7.1c0.3,0,0.6,0,0.9,0
			c0,12.9-0.3,25.7,0.1,38.7c0.4,15.6,1.3,31.2,1.9,46.7c0.2,5.4,0.4,10.9,0.7,16.3c0.1,1.6-0.5,1.9-2,2.1
			c-9.2,0.7-18.5-0.5-27.6,1.3c-2.1,0.4-2.6-0.7-2.6-2.7c-0.4-28.3-2.3-56.7-3.9-84.9c-0.7-12.4,0.7-24.8-0.1-37.2
			c-0.7-10,0-20.1-1-30.1C199,112.1,199.2,111.9,203.5,113.3z M195.5,151.3c1.4,0,2.6,0.1,2.7,2c0,1.8-1,2.1-2.5,2.1
			c-6.7,0.1-13.5-0.7-20.2-0.2c-1.2,0.1-1.7-0.5-1.7-1.7c0.1-1.4,0.5-2.6,2.2-2.5C179.5,150.9,192.4,151.3,195.5,151.3z M181,205.8
			c1.1,6.9,3.6,13.4,7.1,19.5c2.1,3.7,1.7,5-2.3,6.8c-3.9,1.7-7.9,2.5-12.1,2.5c-11.2,0.3-22.5,0.1-33.5-2.1
			c-5.5-1.1-6.4-3.4-3.1-7.9c2.7-3.7,4.2-7.9,5.1-12.3c2.4-11.9,3.9-24,2.9-36.2c0-5.1,0.1-10.1-0.1-15.2c-0.1-2.6,0.9-3.6,3.5-3.5
			c8.7,0.1,17.4,0.1,26.1,0.1c2,0,1.9,1.2,1.9,2.6C176.7,175.4,178.8,190.6,181,205.8z M179.6,246.8c-10.4,1.7-20.7,0.8-31.1-0.5
			c-6.1-0.8-12.1-1.5-17.5-5.1c-1.3-0.9-2.2-1.6-2.1-3.2c0.1-2.3,0.1-4.5,0.1-6.7c0.1-1.5,1-2.5,2.3-2.8c1.5-0.3,1.1,1.2,1.5,1.9
			c1.6,2.5,4.1,3.4,6.8,4c9.5,2.3,19.2,2.8,28.9,2.7c4.3-0.1,8.6-0.3,10.2-0.5c1.2-0.1,6.3-1.5,7.4-2.3c1.7-1.2,3.9-1.8,4.9-3.9
			c0.5-0.9,1.1-1.7,2.1-1.2c1.1,0.5,1.1,1.7,1.1,2.8c-0.1,5.1-1.1,8.3-3.7,10.1c-1.4,1.8-3.9,2.7-6,3.4c-1.1,0.3-2.1,0.6-3.1,0.8
			C181.4,246.8,180.3,246.7,179.6,246.8z M180.5,249.6c-0.6,1.2-1.5,1.3-2.5,1.2c-0.7-0.1-2.1-0.1-1.9-1c0.3-1,1.9-0.5,2.9-0.7
			C179.6,249.1,180.2,249.1,180.5,249.6z M147.4,250.1c-0.3-0.3-0.6-0.9-0.1-1.1c0.3-0.2,1.1-0.3,1.3-0.1c3,2.5,5.9,4.9,8.8,7.5
			c0.1,0.1,0.1,0.2,0.2,0.3c-0.3,0.7-0.9,0.4-1.4,0.2C152.7,255.4,150,252.8,147.4,250.1z M150.1,255.2c-0.2,0.7-0.9,0.2-1.3,0.1
			c-2.9-1.3-4.5-4-6.4-6.3c-0.4-0.5,0.1-0.7,0.7-0.7C143.7,248.2,150.1,254.4,150.1,255.2z M152.9,250.6c-0.7-0.6,0.4-1.1,0.7-0.9
			c3.3,2.2,6.6,4.5,9.9,6.8c0.1,0.1,0.1,0.2,0.1,0.3c-0.3,0.9-1.2,0.8-1.8,0.6C158.3,256.1,155.8,253.1,152.9,250.6z M158.7,251.6
			c-0.3-0.3-0.3-0.8-0.5-1.1c0.3-0.1,0.8-0.3,1-0.2c2.7,1.8,5.4,3.7,8.1,5.5c0.1,0.1,0.1,0.2,0.1,0.3c-0.3,0.5-0.8,0.3-1.2,0.1
			C163.6,254.8,161,253.4,158.7,251.6z M164,251.5c-0.8-1,0.9-1.1,3.4,0.3c0.7,0.4,1.5,0.8,2.1,1.2c0.4,0.2,0.9,0.4,1.2,0.7
			c0.5,0.4,1.6,0.3,1.2,1.3c-0.3,0.7-1.2,0.6-1.9,0.4c-0.1,0-0.3,0-0.3-0.1C167.4,254.6,165.5,253.3,164,251.5z M170,251.4
			c-0.3-0.1-0.5-0.6-0.5-0.8c0.1-0.5,0.7-0.5,1.3-0.5c1.1,0.4,2.3,0.8,3.4,1.4c0.7,0.4,2.3-0.1,1.8,1.3c-0.4,1-1.7,0.5-2.5,0.2
			C172.3,252.6,171.2,252,170,251.4z M141.1,251.4c-1.3-0.6-2.2-1.9-2.1-3.4c0-0.3,0.3-0.5,0.6-0.3c1.1,0.6,1.9,2.1,2.2,3.3
			c0,0.1,0.1,0.1,0.1,0.1l0,0C142,251.6,141.3,251.8,141.1,251.4z M171.6,151.2c1.1,0.1,1,1.1,1.1,1.9c-0.1,0.7-0.1,1.8-1.2,1.7
			c-1.1-0.1-0.8-1.2-0.9-2C170.6,152,170.6,151.1,171.6,151.2z M161.9,148.4c-4.9-0.6-9.7-0.8-14.5,0c-1.9,0.3-2.8-0.1-2.9-2.2
			c-0.2-3.9-0.6-7.8-1.1-11.7c-0.2-1.7,0.7-2.3,1.9-2.9c9.3-4.9,18.9-5.5,28.8-2.2c1.1,0.4,1.8,1,1.8,2.3c0.2,4.9,0.3,9.9,0.6,14.9
			c0.1,1.7-0.8,1.9-2.2,1.9C170.2,148.4,166,148.4,161.9,148.4z M167.6,151.2c0.9,0.1,0.9,0.9,0.9,1.6c-0.2,0.7,0.1,1.9-1,1.9
			s-1-1.1-1-1.8C166.6,152.1,166.4,151.1,167.6,151.2z M163.9,154.7c-1.2-0.1-1.1-1.3-1.4-2.1c-0.3-0.7,0-1.5,0.9-1.5
			c1.3-0.1,1.5,0.8,1.5,1.8C164.7,153.6,165.2,154.8,163.9,154.7z M158.7,152.5c-0.1-0.7,0.1-1.4,1.1-1.4c1.3,0.5,1.1,1.6,1,2.7
			c-0.1,0.8-0.1,1.9-1.3,1.5C158.3,154.8,158.8,153.5,158.7,152.5z M155.6,155.1c-1-0.3-0.9-1.2-0.9-2s0.2-1.9,1.3-1.7
			c1.3,0.2,0.7,1.5,0.7,2.3C156.8,154.3,156.6,155.1,155.6,155.1z M150.4,150.9c1.2,0,2.9-0.5,2.9,1.6c-0.1,1.6-1.1,2.5-2.8,2.5
			c-3.3,0.1-15.6,0.3-18.5,0.2c-1.7-0.1-3.4-0.4-3.3-2.8c0.1-2.4,2.1-1.5,3.2-1.5C138.1,150.8,144.3,150.9,150.4,150.9z
			 M172.5,117.7c2.1,1.1,5.6,3.1,7,5.5c0.5,0.5,1.1,1.1,1.5,1.7c1.1,1.6,1,3.2-0.9,4.1c-1.7,0.9-3-0.3-4.3-1.2
			c-3.7-1.8-6.3-2.3-9.7-2.7c-6.7-0.3-13.5-0.4-19.9,2.5c-1.2,0.5-2.2,1.3-3.3,2c-0.9,0.5-1.9,1.2-2.8,0.1c-0.9-1-0.4-2,0.3-2.9
			c2.1-2.8,4.5-5.1,7.5-6.9c2.7-1.6,5.4-3,8.3-3.8c0.2-0.1,0.4-0.1,0.6-0.3c0.1,0,0.1-0.1,0.1-0.1s0.1,0,0.1-0.1
			c0.4-0.2,0.8-0.3,1.1-0.3C162.8,114.3,168.3,115.4,172.5,117.7z M156.3,113.9c-6.4,1.4-11.6,4.9-16.4,9.2
			c-4.3,3.8-4.3,6.1-0.1,9.9c0.7,0.7,1.1,1.5,1.2,2.5c0.3,2.5,0.7,4.9,0.8,7.4c0.3,5.7,0.3,5.7-5.7,5.7c-1.5-0.1-3.1-0.4-4.6-0.3
			c-4,0.5-4.8-2-4.7-5.1c0.5-11.1,2.2-21.9,9.8-30.7c3.8-4.3,8.1-8.4,14.9-6.5c3.2,0.9,4.7,3.3,5.9,6.1
			C158.2,113.5,157.4,113.7,156.3,113.9z M135.3,108.5c3.1-3.1,7.1-5.7,11.6-6.1c3.5-0.2,8.2,0.8,9.7,4.3c0.1,0.3-0.2,0.8-0.6,0.6
			c-1.9-1.3-3.3-2.5-5.7-3c-2.7-0.5-5.4,0.2-7.9,1.4c-4.1,1.9-7.2,5-9.8,8.6c-2.6,3.7-4.7,7.7-5.9,12.1c-1.1,3.9-1.3,8.1-2,12.1
			c0,0.2,0,0.4,0,0.6c0,0.1-0.1,0.3-0.1,0.3c0,0.1-0.1,0.3-0.1,0.4c-0.1,0.4-0.8,0.4-0.8,0C123.7,128.2,129,115.1,135.3,108.5z
			 M115.2,167.7c-6.9,0.3-13.3-5.6-13.6-12.3c-0.2-7,5.7-13.7,12.3-14.1c7.4-0.4,11.8,4.1,12.2,12.3
			C126.5,162.2,122.4,167.4,115.2,167.7z M114.7,260.5c0.2-2.9,0.4-5.9,0.9-8.8c0.9-6.4,1.5-12.9,1.9-19.3c0-0.4-0.1-1,0.5-0.9
			c0.1,0,0.3,0.6,0.3,0.9c0,2.1,0,4.3,0,6.3c0.3,7.5-1.1,14.8-2.6,22.1c-0.1,0.7,0.4,1.7-0.7,2.1
			C114.9,262.1,114.7,261.3,114.7,260.5z M121.9,374.3c-4.5,1.1-9.1,2.4-13.7,3.6c-8.8,2.3-17,0.2-24.5-4.3
			c-5.7-3.4-7.3-12.1-4.7-20c2.1-6,5.3-11.3,9.7-16c9.5-10.3,15.6-22.5,20-35.5c6.5-19.5,10.9-39.5,12-59.9
			c1-17.7,1.2-35.4,1.8-53.1c0.3-7.1,0.7-14.1,1.3-21.2c0.3-3.6,3.5-6,4.3-9.5c0.1-0.3,1.2-0.6,1.9-0.7c11.6-1.8,13-0.6,13.1,11
			c0.1,12.1,1.1,24.1-1.3,36.1c-1.1,5.5-2.1,11.1-4.5,16.3c-1,2.1-2.2,3.7-4.5,4.7c-7.7,3-5.7,2.6-6.7,10.2c-0.6,4,0.7,6.9,4.9,8.6
			c3.1,1.3,4.8,4.5,7.1,6.8c12.5,12.7,38,12.1,50.3-3.4c0.7-0.8,1.4-1.7,2.3-2.1c5.9-3.1,5.9-8.7,6-14.1c0.1-1.9-0.6-4.1-2.9-4.8
			c-4.3-1.3-6.1-4.7-7.3-8.5c-6.1-18.7-7.9-38.1-7.7-57.7c0-2.5,0.7-3.4,3.2-3.3c4.4,0.1,8.7,0.1,13.1,0c2.3-0.1,3.1,0.7,3.1,3
			c0.1,8.7-0.5,17.5,0,23.9c0.8,22.5,2.1,42.7,3.5,62.9c0.5,7.3,0.4,14.7,0.5,22c0,2.1-0.7,3.2-3,3.4c-3.4,0.3-6.8,1.1-10.1,1.5
			c-7.2,1.1-10.9,6.4-13.7,12.1c-4.8,9.7-10,19-15.9,28.1c-6,9.3-15,15.3-23.5,21.9c-5.8,4.5-12.5,7.5-19.6,9.8
			c-4.9,1.5-6.5,5.9-3.9,10.3c0.3,0.5,1.1,1,1,1.4c-0.9,7.3,4.9,10.5,9.1,14.5C124.1,373.5,123.5,373.9,121.9,374.3z M123.6,361.9
			c-1.9-1.2-1.1-3.9-2.3-5.6c-0.2-0.3,0-1,0.7-0.8c2.5,0.9,1.7,3.3,2.3,4.9C124.3,361.1,124.5,362.5,123.6,361.9z M126.4,370.3
			c-1.5-0.9-1.7-2.7-2.3-4.3c-0.1-0.4-0.1-1.3,0.4-0.9c1.7,0.8,1.3,2.9,2.2,4.1C126.7,369.7,126.9,370.7,126.4,370.3z M125.7,358.9
			c-0.1-0.4-0.3-1.5,0.5-1.2c2.2,0.9,1.9,3.3,2.5,4.9c0,0.8,0.1,2-0.8,1.5C125.7,363.1,126.3,360.7,125.7,358.9z M131.8,373.7
			c-0.1,0.4-0.3,0.5-0.7,0.4c-1.3-0.3-3.9-5.9-3.3-6.9c0.3-0.5,0.7-0.5,1.2-0.3C130.1,367.5,132.2,372.7,131.8,373.7z M136.2,376.5
			c-1.9-0.9-2.1-2.9-3.1-4.4c-0.5-0.7-0.5-1.5-0.7-2.3c-0.2-0.7-0.1-1.1,0.8-1.1c1.3,0.6,1.8,1.9,2,3.1
			C135.3,373.3,136.9,374.7,136.2,376.5z M145.2,381c-0.4-0.1-0.9-0.3-1.3-0.5c-1.5-0.8-1.4-2.9-2.9-3.7c0,0,0,0,0,0.1
			c-0.1,0.6,0.4,1.4-0.3,1.7c-0.8,0.3-1.5-0.4-1.5-1.1c-0.1-2.1-1.5-3.4-2.3-5.1c-0.3-0.6-0.5-1.1,0-1.7c0.5-0.6,1.1-0.2,1.6-0.1
			c4.4,1.3,7.1,4.7,6.9,9.3C145.4,380.3,145.3,380.7,145.2,381z M149.2,382.6c-0.3,0.1-0.7-0.1-0.9-0.3c-2.3-2.2-2.1-5.3-3.3-8.1
			c-0.1-0.1,0.3-0.7,0.5-0.7c0.8-0.2,1.5,0.2,1.7,0.9c0.9,2.3,1.6,4.7,2.3,6.7C149.7,381.9,149.8,382.4,149.2,382.6z M154.7,384.4
			c-0.4,0.1-1,0.1-1.3-0.2c-2.5-2.3-2.9-5.5-3.6-8.6c-0.2-0.9,0.8-0.8,1.1-0.3c1.7,2.5,3.1,5.2,4,8.2
			C154.8,383.8,154.7,384.4,154.7,384.4z M159.6,386.2c-0.5,0.1-1.5-0.1-1.6-0.5c-1.5-3-2.9-6.1-4.4-9.1c-0.2-0.5,0.2-0.6,0.5-0.7
			c0.9-0.1,1.9,0,2.2,0.8c1.3,2.7,2.5,5.5,3.6,8.1C160.1,385.6,160.1,386.1,159.6,386.2z M163.6,387.5c-1.3-0.4-5.2-8.1-4.7-9.4
			c0.5-1.3,1.7-0.7,1.9-0.2c1.5,2.9,2.9,5.8,4.1,8.4C165,387.9,164.4,387.7,163.6,387.5z M169.6,389.9c-0.4,0-1.1,0-1.3-0.3
			c-2.5-2.9-2.9-6.9-4.7-10.2c-0.1-0.1,0.3-0.7,0.5-0.7c0.4,0,1.1,0.1,1.3,0.3c1.7,3.2,3.4,6.4,4.5,10.1
			C169.8,389.4,169.8,389.9,169.6,389.9z M173.6,390.9c-0.5,0.2-0.9-0.2-1.1-0.6c-1.3-2.9-2.6-5.7-3.9-8.6c-0.2-0.5-0.6-1.1,0.1-1.5
			c0.7-0.3,1.5,0,1.8,0.7c1.2,3,2.3,6.1,3.5,9.1C173.9,390.4,173.8,390.8,173.6,390.9z M178.6,391.5c-0.3,0.1-1,0-1.3-0.3
			c-2.3-2.6-3.3-5.9-4.3-9.2c-0.2-0.6,0.1-1.2,1.2-1c0.3,0.4,0.9,0.9,1.1,1.5c1.1,2.6,2.2,5.2,3.3,7.8
			C178.8,390.7,179,391.3,178.6,391.5z M183.6,392.4c-0.7,0.1-1.5,0.1-1.9-0.7c-1.3-2.7-2.5-5.5-3.7-8.3c-0.2-0.5-0.5-1.2,0.4-1.4
			c0.4-0.1,1.1,0.1,1.3,0.3c2.1,2.7,3.1,6,4.5,8.7C184.3,391.9,184.1,392.3,183.6,392.4z M188.7,392.9c-0.5,0-1.3,0-1.6-0.3
			c-2.2-2.8-3.5-6.1-4.9-9.3c-0.2-0.5,0-1,0.6-1c0.7,0.1,1.7,0.1,1.9,0.5c1.6,3,3.1,6.1,4.3,8.5
			C189.4,392.5,189.3,392.9,188.7,392.9z M194.2,393.3c-0.6,0.5-1.5,0.5-1.9,0c-2.5-2.7-3.7-6.1-5-9.5c-0.3-0.9,0.7-1,0.9-1.1
			c1.7,0,2.3,0.9,2.7,1.9c1,2.3,2.1,4.7,3.1,7.1C194.2,392.3,194.6,392.9,194.2,393.3z M198.1,393.8c-0.7,0.2-1.4,0.1-1.8-0.7
			c-1.3-2.5-2.8-4.9-3.7-7.6c-0.2-0.7-0.5-1.4,0.5-1.7c0.7-0.3,1.5-0.1,1.9,0.6c1.3,2.7,2.5,5.5,3.7,8.3
			C198.8,393.3,198.6,393.7,198.1,393.8z M202.6,394c-0.4,0.1-1.3-0.1-1.5-0.5c-1.4-2.5-2.7-5.2-3.9-7.8c-0.3-0.7,0.2-1.1,0.8-1.1
			c0.9,0.1,1.5,0.5,1.9,1.1c1.1,2.2,2.1,4.5,3.1,6.7C203.2,393,203.2,393.8,202.6,394z M207.3,394.2c-0.9,0.3-1.9,0.2-2.4-0.9
			c-1-2.1-2.1-4.2-3-6.3c-0.5-1-0.5-1.9,0.7-1.9c1.6-0.1,2.2,0.8,2.7,1.8c0.8,1.7,1.6,3.4,2.3,5.1
			C207.8,392.7,208.8,393.7,207.3,394.2z M213.4,394.1c-0.4,0.3-1.1,0.2-1.7,0.1c-1.3-0.4-5.4-6.7-5.3-8.1c0.1-0.7,0.4-1,1-1
			c1.3-0.1,2.1,0.7,2.7,1.6c1.1,1.9,2.2,3.9,3.3,5.9C213.6,393.1,214,393.7,213.4,394.1z M217.6,394.3c-0.9,0.1-1.9-0.1-2.1-0.9
			c-0.8-2.4-2.5-4.1-3.7-6.3c-0.3-0.5-0.6-1.1,0-1.6c0.3-0.2,1.1-0.3,1.3-0.2c1.9,2.6,3.8,5.3,5.5,7.7
			C218.5,394,218.1,394.2,217.6,394.3z M222.3,394.1c-0.7,0.3-1.3,0.1-1.8-0.7c-1.4-2-3.2-3.7-4.1-6.1c-0.3-0.6-1-1.3-0.3-1.9
			c0.7-0.7,1.7-0.5,2.3,0c2.3,2.1,2.9,5.3,4.6,7.9C222.8,393.7,222.6,394,222.3,394.1z M227,393.9c-0.7,0.3-1.5,0.3-1.9-0.3
			c-1.2-2.1-2.3-4.3-3.5-6.5c-0.3-0.5-0.3-1.2,0.4-1.5c0.3-0.1,0.9-0.3,1-0.1c1.7,2.4,3.2,4.9,4.5,6.9
			C227.8,393.5,227.4,393.8,227,393.9z M233.3,392.8c-0.2,0.7-0.9,0.7-1.4,0.8c-1.1,0.2-2.2-0.1-2.8-1.1c-1.2-1.9-2.2-3.9-3.3-5.8
			c-0.9-1.7,0.4-1.7,1.3-1.7C229,384.9,233.8,391.2,233.3,392.8z M238.2,392.8c-1,0.1-2.1,0.5-2.8-0.7c-1-1.6-2.3-3-3.2-4.6
			c-0.4-0.7-1.6-1.7-0.6-2.4c1-0.7,2.7-1.1,3.7-0.2c1.9,1.7,2.6,4.4,3.9,6.4C239.2,392.3,238.9,392.7,238.2,392.8z M244.3,391.9
			c-1.1,0.9-2.6,0.5-3.4-0.7c-1.3-1.8-2.3-3.7-3.4-5.7c-0.9-1.7,0.9-1.1,1.3-1.5c1.4-0.2,1.9,0.7,2.4,1.4c0.9,1.3,1.7,2.5,2.4,3.9
			C244,390.1,245.5,390.9,244.3,391.9z M249.2,390.8c-0.7,1.1-1.9,1.1-2.6,0.1c-1.3-1.8-2.5-3.7-3.6-5.6c-0.7-1.3,0.2-1.6,1.3-1.7
			C245.4,383.7,249.7,389.8,249.2,390.8z M252.9,390.6c-0.9,0.2-1.6,0.3-2.1-0.7c-1-1.7-2.1-3.4-3.1-5.1c-0.3-0.5-0.7-1.1-0.2-1.6
			c0.5-0.5,1.5-0.5,2-0.1c1.9,1.7,2.9,4.3,4.2,6.3C253.8,390.3,253.4,390.5,252.9,390.6z M257.9,388.9c-0.5,0.7-1.6,1.5-2.3,0.5
			c-1.4-1.9-2.5-3.9-3.7-5.9c-0.5-0.8-0.1-1.3,0.7-1.3C254,382.1,258.4,387.9,257.9,388.9z M264.4,387.5c-0.6,1-2.1,0.9-3.2,1
			c-1.5-0.1-5.3-4.6-5.1-6.1c0.1-0.7,0.7-0.9,1.2-0.9c1.3,0.1,2.8-1.1,3.9,0.3c0.7,0.9,1.3,1.9,1.9,2.9
			C263.7,385.7,265,386.5,264.4,387.5z M269.2,386.3c-0.9,0.8-2.3,0.7-3.2-0.3c-1.4-1.5-2.7-2.9-3.5-4.6c-0.2-0.7,0-1.1,0.5-1.2
			c1-0.1,2.2-0.7,3,0.3c0.9,1.1,1.7,2.2,2.5,3.4C269,384.5,270.1,385.4,269.2,386.3z M272.4,384.9c-1.7-1-3.4-2.1-4.4-4
			c-0.3-0.5-0.4-1.2-0.2-1.7c0.3-0.7,1.1-0.7,1.9-0.7c0.7,0,4.7,4.8,4.6,5.6C274.1,385.1,273.2,385.3,272.4,384.9z M277.4,383.5
			c-2.3-0.8-3.9-2.7-4.5-4.9c-0.4-1.4,1.2-1.4,2.1-1.6c1.1-0.1,4.1,3.8,4.1,5.7C279,383.3,278,383.7,277.4,383.5z M281.8,382.1
			c-2.2-1-2.9-3.2-3.4-5.3c-0.3-0.9,1.1-1.3,1.8-1.1c2.3,0.9,2.7,3.3,3.9,5C283.6,382,282.5,382.3,281.8,382.1z M286.4,380.1
			c-2.3-0.5-3.1-2.8-3.9-4.7c-0.5-1.1,0.7-1.5,1.5-1.3c2.5,0.5,2.7,2.9,4.1,4.3C288,379.8,287.2,380.3,286.4,380.1z M292,378.4
			c-0.9,0.4-1.9,0.5-2.6-0.4c-0.8-1-1.5-2.1-2.2-3.1c-1.4-1.9,0-2.2,1.3-2.5c0.9-0.2,4.9,4.1,4.8,5.1
			C293.2,378.2,292.5,378.2,292,378.4z M296.9,375.5c-0.1,0.3-0.4,0.7-0.7,0.7c-1.5,0.1-2.3-1.1-3-2c-0.6-0.7-1.7-1.4-1.3-2.6
			c0.1-0.3,0.7-0.5,0.9-0.7C294,370.9,297.2,374.7,296.9,375.5z M299.4,374.8c-2.1-0.7-2.9-2.7-3.9-4.3c-0.4-0.7,0.9-1.5,1.7-1.3
			c2.1,0.7,2.5,2.9,3.7,4.2C300.8,374.5,300.1,375,299.4,374.8z M303.4,372.7c-1.8-0.7-3.1-2.2-3.7-3.9c-0.5-1.1,1.2-1.5,1.9-1.4
			c2.1,0.3,2.3,2.4,3,3.6C304.7,372.2,304,372.9,303.4,372.7z M307.3,370.6c-1.7-0.5-2.5-1.9-3.1-3.4c-0.3-0.9,0.3-1.3,1.3-1.5
			c1.5,0.6,2.3,2.2,3.1,3.7C308.9,370.1,308,370.7,307.3,370.6z M315.2,365.1c-0.3,1.9-2.3,2.9-3.9,3.1c-1.9,0.2-2.6-2.1-3.7-3.3
			c-0.1-0.1,0.3-0.9,0.7-1.1c1.3-0.7,1.9,0.3,2.5,1.1c0.4,0.6,0.7,1.3,1.6,1.1c0.3-0.1,0.4-0.5,0.6-0.7c-0.1-0.3-0.2-0.5-0.3-0.7
			c-0.4-0.9-2.3-1.4-1-2.9c0.3-0.3,0.9-0.5,1.3,0C313.8,362.8,315.4,363.8,315.2,365.1z M317.6,363.7c-1.6-0.1-2.4-1.5-2.9-2.8
			c-0.4-1,0.7-1.6,1.4-1.6c1.7,0,2.1,1.6,2.9,2.6C319,362.9,318.4,363.7,317.6,363.7z M321,360.6c-1.1-0.3-1.7-1.2-2.2-2.1
			c-0.2-0.5-0.1-1.1,0.5-1.1c1.4,0.1,1.6,1.5,2.5,2.1C321.7,360.2,321.6,360.8,321,360.6z M323.4,357.9c-1-0.2-1.5-1.1-1.7-2
			c-0.1-0.5,0.2-1,0.7-0.9c1.1,0.2,1.5,1.1,1.8,1.9C324.1,357.4,323.9,358,323.4,357.9z M323,345.8c-0.2-0.4-0.3-1,0.2-1.3h0.1
			c0.1-0.1,0.2-0.1,0.3-0.2l0.1-0.1c0.8-0.1,1.1,0.4,1.3,0.9c0.1,0.3,0.1,0.7,0,0.9c0,0.1,0,0.1,0,0.2c0,0.1-0.1,0.3-0.2,0.3
			c-0.1,0.1-0.3,0.3-0.5,0.1C323.8,346.5,323.2,346.3,323,345.8z M325.6,354.7c-0.7,0.1-1.1-0.3-1.2-0.9c0-0.1-0.1-0.1-0.1-0.2v-0.4
			c0-0.3,0.3-0.5,0.5-0.4c0.8,0.1,1.1,0.8,1.1,1.5C326,354.5,325.8,354.7,325.6,354.7z"/>
		<path class="st1" d="M227,214.4c-1.7-0.2-3.5-0.8-5.3-0.5c-0.6,0.1-1.2-0.2-1.1-0.9c0.1-0.7,0.5-1.1,1.2-1c2.3,0.2,4.7,0.5,7,0.7
			c0.5,0.1,0.9,0.3,0.7,0.9C228.9,214.7,227.9,214.4,227,214.4z"/>
		<path class="st1" d="M224.5,167.7c1.6,0.8,4.2-0.9,4.3,1c0.1,1.5-2.8,0.7-4.3,0.9c-1.5,0.1-4.3-0.1-4-0.9
			C221,166.6,223.2,168.8,224.5,167.7z"/>
		<path class="st1" d="M223.2,204.9c1.9,0.2,3.6,0.3,5.2,0.5c0.7,0.1,1.6-0.1,1.5,1c-0.1,0.9-1,0.9-1.7,0.9
			c-1.6-0.1-3.3-0.3-4.9-0.7c-0.8-0.2-2.3,0.6-2.3-0.7C221,204.1,222.8,205.3,223.2,204.9z"/>
		<path class="st1" d="M223.6,165.6c-0.5,0-1.6-0.1-2.7-0.1c-0.5-0.1-0.8-0.4-0.7-1c0.1-0.6,0.5-0.8,1-0.7c2.3,0.6,4.5-0.3,6.7-0.1
			c0.5,0.1,1.3-0.1,1.4,0.7s-0.8,0.7-1.3,0.8C226.6,165.2,225.4,165.4,223.6,165.6z"/>
		<path class="st1" d="M228,269c-1.5-0.9-4.9,0.3-4.8-1.9c0.1-1.8,2.9,0.3,4.5,0c0.2-0.1,0.5-0.1,0.7,0c0.9,0.3,2.6-0.4,2.5,1
			C230.8,269.5,229.2,268.8,228,269z"/>
		<path class="st1" d="M224.4,173.2c-0.7,0-0.9,0.1-1.1,0c-0.9-0.2-2.6,0.6-2.5-0.9c0-1.4,1.7-0.6,2.6-0.9c0.2-0.1,0.5-0.1,0.7,0
			c1.5,0.3,4.6-0.5,4.5,0.5C228.2,174.2,225.4,172.2,224.4,173.2z"/>
		<path class="st1" d="M227.4,257.8c-0.5,0-0.9,0.1-1.4,0c-0.9-0.1-2.5,0.5-2.4-1.1c0.1-1.5,1.7-0.7,2.6-0.8c0.5-0.1,1-0.1,1.4,0.1
			c1.2,0.5,3.5-0.7,3.5,0.9C231,258.4,228.7,257.6,227.4,257.8z"/>
		<path class="st1" d="M225.2,145.8c1.5,0.6,3.7-0.8,3.9,1.1c0.1,1.1-2.4,0.7-3.7,0.7c-1.4,0-3.9,0.8-3.9-0.8
			C221.6,144.7,224,146.5,225.2,145.8z"/>
		<path class="st1" d="M228.2,261.4c-1.3-0.5-4,0.7-3.9-1c0.1-2.2,2.7-0.7,4.1-0.7c1.1,0,3.3-0.3,3.2,1
			C231.6,262,229.6,261.3,228.2,261.4z"/>
		<path class="st1" d="M229.1,265.6c-1.4-0.4-3.1-0.9-4.8-1.3c-0.5-0.1-1.3-0.2-0.9-1.1c0.3-0.6,0.9-0.8,1.5-0.6
			c1.6,0.5,3.2,0.9,4.8,1.4c0.7,0.2,2-0.3,1.7,1.1C231.1,265.8,230.1,265.6,229.1,265.6z"/>
		<path class="st1" d="M225.8,210.3c-1.2-0.7-4,0.7-3.9-1.3c0.1-1.9,2.7-0.4,4.1-0.5c0.3-0.1,0.7,0.1,1,0.1c0.7,0,1.9-0.4,1.9,0.8
			c0,1.1-1.1,0.9-1.9,1C226.6,210.4,226.3,210.3,225.8,210.3z"/>
		<path class="st1" d="M223,144.7c-1.1,0.1-2.3-0.1-1.9-0.8c1.3-2.2,3.9-0.7,5.7-1.5c0.5-0.2,1.9,0.1,1.4,0.9
			C226.8,145.1,224.3,143.7,223,144.7z"/>
		<path class="st1" d="M225.2,158c-1.3-0.7-3.9,0.9-3.9-0.7c0.1-1.9,2.7-0.9,4.1-0.8c1.5,0.1,4.3-0.7,4.1,0.8
			C229.4,159,226.7,157.7,225.2,158z"/>
		<path class="st1" d="M227.2,203.8c-1.7-0.4-5.2-0.3-4.9-1.2c0.6-2.3,3.1-0.1,4.8-0.5c0.1,0,0.3,0,0.3,0c1,0.3,2.9-0.5,2.9,0.9
			C230.2,204,228.3,203.6,227.2,203.8z"/>
		<path class="st1" d="M222.8,120.1c-1.1,0-1.6,0.1-2,0c-0.7-0.1-2,0.3-1.9-0.9c0.1-1.2,1.3-0.5,2.1-0.5c1.7,0.1,3.3-0.1,4.9-0.6
			c0.7-0.2,1.7-0.5,1.9,0.3c0.3,1.1-0.9,1.3-1.6,1.4C224.8,119.9,223.4,120,222.8,120.1z"/>
		<path class="st1" d="M226,248.6c0.9,0.1,2.1,0.2,3.2,0.6c0.7,0.2,2.1-0.2,1.8,1c-0.1,0.8-1.4,0.6-2.2,0.5
			c-1.1-0.1-2.1-0.2-3.1-0.4c-1.1-0.2-2.9,0.3-2.7-1.3C223.1,247.8,224.8,248.8,226,248.6z"/>
		<path class="st1" d="M225.5,181.8c1.3,0.5,3.7-0.7,3.7,0.5c0,1.7-2.4,1.1-3.8,1.2c-1.5,0.1-4.1,1.1-4.1-0.9
			C221.3,181,224,182.4,225.5,181.8z"/>
		<path class="st1" d="M226.5,226.3c-1.3-0.7-4.3,0.5-4.1-1.7c0.2-1.8,2.8-0.1,4.3-0.1c0.9,0.1,2.6-0.5,2.6,0.9
			C229.4,226.6,227.8,226.5,226.5,226.3z"/>
		<path class="st1" d="M226.7,236.4c-1.2-0.6-3.1,1-3.5-1.2c-0.1-1.1,1.3-0.7,2-0.6c1.5,0.3,4-0.6,4.3,1.2
			C229.8,237.2,227.6,235.9,226.7,236.4z"/>
		<path class="st1" d="M226.2,222.4c-1.3-0.6-4,0.4-3.8-1.2c0.3-2,2.7-0.6,4.1-0.5c1.1,0.1,3.2-0.5,3.1,0.9
			C229.6,222.8,227.6,222.4,226.2,222.4z"/>
		<path class="st1" d="M226.2,200.3c-1.3-0.7-4.3,0.1-4.3-1.5c0-1.8,2.5-0.1,3.9-0.5c0.2-0.1,0.5-0.1,0.7,0c0.9,0.2,2.6-0.7,2.7,0.5
			C229.3,200.1,227.6,200,226.2,200.3z"/>
		<path class="st1" d="M224,128.6c1.1,0.3,3.3-0.5,3.3,0.6c-0.1,1.7-2.3,0.7-3.5,1.1c-0.3,0.1-0.7,0.2-1,0.1c-1-0.3-2.9,0.5-2.9-1
			c0.1-1.4,1.9-0.7,2.9-0.8C223.1,128.5,223.4,128.6,224,128.6z"/>
		<path class="st1" d="M223.2,132c0.5-0.1,1.1-0.1,1.9-0.1c0.9,0,2.3-1.1,2.5,0.4c0.1,0.9-1.6,1.1-2.6,1.2c-1.1,0.1-2.1,0.2-3.1,0.2
			c-0.8,0-2.2,0.6-2.2-0.9c0-1.3,1.3-0.9,2.3-0.9C222.2,131.9,222.6,132,223.2,132z"/>
		<path class="st1" d="M227.2,254.2c-1.1-0.3-3,0.5-3-1.3c0-1.3,1.7-0.8,2.7-0.7c1.2,0.1,3.2-0.5,3.3,1
			C230.2,254.8,228.3,254.1,227.2,254.2z"/>
		<path class="st1" d="M225.6,174.8c1.3,0.5,3.4-0.8,3.5,0.7c0.1,1.3-2.1,0.7-3.3,0.8c-1.5,0.1-4.2,1.4-4.5-0.5
			C221.2,174.4,224.2,175.6,225.6,174.8z"/>
		<path class="st1" d="M227.4,243.4c-1.3-0.9-4.8-0.2-4.5-1.3c0.5-2.3,3.1-0.1,4.7-0.4c0.7-0.1,2.2-0.7,2.3,0.7
			C230,243.4,228.6,243.5,227.4,243.4z"/>
		<path class="st1" d="M222.4,127c-0.9,0.1-1.8,0.3-1.9-0.7c-0.1-0.9,0.8-0.9,1.5-1.1c0.2-0.1,0.5-0.1,0.7,0
			c1.7,0.7,4.4-1.7,4.7,0.3C227.5,126.9,223.9,126.3,222.4,127z"/>
		<path class="st1" d="M225,162c-1.1-0.3-2.7,0.6-3-1c-0.3-1.2,1.1-1,1.8-0.9c1.5,0.3,4.1-0.4,4.4,0.9
			C228.5,162.2,226.2,161.6,225,162z"/>
		<path class="st1" d="M225.1,180c-1.1,0-1.7,0-2.3,0c-0.5,0-1-0.1-1-0.7c-0.1-0.6,0.4-0.8,0.9-0.8c2-0.2,3.9-0.3,5.9-0.5
			c0.3,0,0.7,0.2,0.8,0.5c0.2,0.5-0.3,0.9-0.7,1.1C227.4,179.8,226,179.9,225.1,180z"/>
		<path class="st1" d="M225.7,149.7c1-0.1,1.7-0.2,2.4-0.1c0.4,0,1.1,0.3,1.1,0.5c0.2,0.8-0.5,0.9-1.1,1c-0.7,0.1-1.4,0.2-2.1,0.1
			c-1.5-0.3-4.2,1-4.3-0.6C221.8,148.9,224.6,150.3,225.7,149.7z"/>
		<path class="st1" d="M228.8,246.8c-1.3-0.1-2.5-0.3-3.8-0.3c-0.7-0.1-1.5,0.1-1.3-1.1c0.2-0.9,0.9-0.9,1.7-0.7
			c1.3,0.3,2.5,0.5,3.7,0.9c0.5,0.1,1.4,0.1,1.2,0.9C230.1,247.1,229.4,246.9,228.8,246.8z"/>
		<path class="st1" d="M224.2,137.1c-1.1-0.2-2.8,0.2-2.6-0.6c0.4-1.9,2.4-1.1,3.7-1.2c0.7-0.1,2.1-0.5,2.1,0.5
			C227.1,137.7,225,136.4,224.2,137.1z"/>
		<path class="st1" d="M227,240c-1.3-0.6-3.8,0.1-3.7-1.3c0.3-2.1,2.5-0.6,3.8-0.7c0.9,0,2.4,0.1,2.3,0.9
			C229.4,240.6,227.8,239.6,227,240z"/>
		<path class="st1" d="M225.2,185.2c1.1,0.2,3.2-0.6,3.1,0.5c-0.1,1.7-2.3,1-3.5,1c-1.1,0-3.3,0.8-3.1-1.1
			C222,184.2,224,185.6,225.2,185.2z"/>
		<path class="st1" d="M224.1,123.5c-1.5,0-2.1,0-2.7,0c-0.6-0.1-1.3-0.1-1.1-0.9c0.1-0.3,0.7-0.5,1.1-0.6c1.6-0.2,3.3-0.3,4.9-0.4
			c0.5-0.1,1.3-0.4,1.3,0.5c0,0.3-0.5,0.8-0.9,0.9C225.6,123.3,224.4,123.4,224.1,123.5z"/>
		<path class="st1" d="M225.5,218.2c-1-0.3-2.6,0.6-2.8-1.2c-0.1-1,0.9-0.9,1.6-0.7c1.4,0.3,3.7-0.4,4,1
			C228.6,218.6,226.5,217.8,225.5,218.2z"/>
		<path class="st1" d="M225,114.9c0.9,0.3,2.3-0.9,2.5,0.3c0.3,1.5-1.3,1.3-2.3,1.2c-1.4-0.2-3.9,1.2-4-0.1
			C221.1,114.1,223.8,115.7,225,114.9z"/>
		<path class="st1" d="M225.8,153.5c1.1,0.5,3.3-0.9,3.1,0.8c-0.1,1.3-2.4,0.8-3.7,0.8c-0.9,0-2.9,0.3-2.7-0.8
			C222.8,152.5,224.7,153.8,225.8,153.5z"/>
		<path class="st1" d="M224.6,139.2c1.1,0.5,3.3-0.4,3.1,0.6c-0.3,1.9-2.5,0.8-3.9,1c-0.9,0.1-2.8,0.3-2.5-0.9
			C221.6,138.4,223.4,139.5,224.6,139.2z"/>
		<path class="st1" d="M271.2,329.2c-0.3,0-0.4,0-0.5-0.1c-0.2-0.1-0.4-0.2-0.6-0.3c-0.1,0-0.2-0.1-0.3-0.1s-0.2-0.1-0.3-0.2
			c-0.3,0-0.5-0.2-0.5-0.5c0.5-1.7,0.3-3.5,0.3-5.2c-0.1-2.2-0.3-4.4-0.6-6.6c-0.4-2.3-0.8-4.7-1.3-6.9c-0.3-1.5-1.1-3.3-1.7-4.9
			c-1.7-4.4-4.1-8.4-7-12.2c-5.5-7.2-12.3-12.7-20.8-15.1c-12.9-3.5-25.9-2.7-38.7,1.9c-10.3,3.7-19.3,9.3-24.5,19.2
			c-5.7,10.7-10.7,21.7-6.7,34.7c3.8,12.5,11.9,20.9,22.5,27.9c6.2,4.1,19.4,7.3,26.3,7.3c1.3,0,2.6,0,3.9-0.1
			c4.1-0.1,8.5-0.2,12.5-1.3c3.1-0.9,6.2-2.1,9.3-3.3c2.9-1.1,5.9-2.3,8.5-3.8c2.9-1.7,5-3.9,7.3-6.3c3.1-3.3,4.8-5,6.5-7.9
			c0.5-0.9,1.7-3.1,2.1-3.4c0.7-0.4,1.6,0.3,2.3,0.5c1.6,0.4,2.7-0.5,3.5-1.8c0.3-0.4,1.7-5.6,1.7-7.1
			C274.4,331.2,273.2,330,271.2,329.2z M187,355.7c-0.6-0.1-1.1-0.4-1.2-1.1c-0.1-0.5,0-0.9,0.7-0.9c0.6,0.1,1.1,0.3,1.2,1
			C187.8,355.3,187.6,355.8,187,355.7z M191,358.1c-0.7-0.2-1.3-0.6-1.3-1.4c0-0.7,0.3-1.1,1.1-1c0.9,0.1,1.4,0.7,1.4,1.6
			C192,358.1,191.6,358.3,191,358.1z M195,360.3c-0.6-0.1-1-0.5-1.1-1.1c-0.1-0.7,0.3-1,1-1.1c0.7,0.1,1,0.5,1,1.1
			S195.9,360.4,195,360.3z M198.9,361.7c-0.9,0.1-1.2-0.6-1.1-1.4c0.1-0.7,0.4-1.4,1.3-1.3c0.7,0.1,0.9,0.6,1,1.1
			C200,361,199.7,361.7,198.9,361.7z M203.8,360.8c-0.1,0.7-0.1,1.7-1.3,1.9c-0.6,0.1-1-0.6-0.8-1.2c0.2-0.7,0.3-1.7,1.2-1.9
			C203.6,359.4,203.8,359.9,203.8,360.8z M206.7,363.6c-1.1-0.1-1.7-0.4-1.5-1.3c0.3-0.9,0.2-2.3,1.5-2.5c1.1-0.1,1,1,1.1,1.8
			C207.9,362.7,207.6,363.5,206.7,363.6z M210.8,364.3c-0.8,0.1-1.5-0.3-1.4-1.1c0.1-0.9,0.1-1.9,1.2-2.2c1-0.1,1.3,0.5,1.4,1.3
			C212.2,363.2,212.2,364.2,210.8,364.3z M215,364.9c-0.6-0.1-1.1-0.5-1-1.2c0.1-0.6,0.3-1.2,1-1.3c0.7,0,0.9,0.5,0.9,1.4
			C215.9,364.3,215.8,364.9,215,364.9z M219.6,365.6c-0.9-0.1-1.6-0.3-1.7-1.4c-0.1-0.9,0.3-1.5,1.3-1.7c1.1-0.1,1.5,0.4,1.5,1.3
			C220.7,364.6,220.8,365.5,219.6,365.6z M225.7,363.8c-0.1,1-0.3,2.1-1.7,2.2c-1.4,0-1.7-0.9-1.7-2.1c0.1-1.2,0.5-2,1.9-1.9
			C225.4,362,225.9,362.7,225.7,363.8z M230.3,362.7c-0.1,1.7-0.3,3.1-2.2,2.9c-1.3-0.1-1-1.1-0.9-1.9c0.2-1.3,0.8-2.7,2.4-2.5
			C230.9,361.2,230.2,362.4,230.3,362.7z M235,361.1c-0.2,1.5-0.2,3.3-2.1,3.6c-1.3,0.2-0.9-1-0.9-1.7c0.3-1.4-0.2-3.3,2.1-3.3
			C235,359.6,235,360.5,235,361.1z M239.8,359.7c-0.5,1.6-0.1,3.9-2.4,3.8c-1.8-0.1-0.7-1.6-0.7-2.5c0.1-1.5-0.1-3.3,2.1-3.3
			C240.5,357.8,239.6,359.1,239.8,359.7z M242.1,362c-1.4,0.2-0.9-1.3-0.9-2.1c0.2-1.5-0.4-3.7,1.9-3.9c1.5-0.2,0.9,1.3,1.1,2
			C243.9,359.6,244.2,361.7,242.1,362z M248.5,356.2c0,1.7-0.1,3.7-2.3,3.7c-1.4,0-0.1-1.5-0.5-2c-0.1-1.9-0.2-3.7,1.9-3.8
			C249.1,353.9,248.5,355.4,248.5,356.2z M251.9,354.4c-0.1,1.1,0.1,2.6-1.5,2.7c-0.9,0.1-0.5-1.1-0.5-1.8c0.7-0.9-0.1-2.9,1.6-2.9
			C252.5,352.3,252,353.7,251.9,354.4z M255.7,352.6c0,1-0.7,1.7-1.7,1.9c-1.1-0.6-0.3-1.5-0.2-2.1c0.3-0.9-0.3-2.5,1.3-2.3
			C256.1,350.3,255.7,351.7,255.7,352.6z M258.2,350.1c-0.8-0.1-0.9-0.7-0.8-1.3c0.1-1.1,0.4-2.2,1.5-2.5c0.7-0.2,0.7,0.7,0.8,1.3
			C259.8,348.8,259.1,349.5,258.2,350.1z M238,355.8c-5.5,2.1-11,4.4-17.1,4.3c-0.7,0-1.5,0.3-2.1,0.1c-8-0.3-14.3-1.7-20.7-4.1
			c-14-5.1-25.4-13.6-27.9-30c-1.9-13.1,3.1-23.8,11.2-33.4c10.3-12.1,24.6-13.9,39-15.3c7.3,0,14.2,1.7,20.9,3.9
			c7.3,2.3,12.1,8.1,16.7,13.8c7.3,8.9,9.1,19.5,9,30.6c0,2-0.8,2.7-2.9,2.3c-4-1-8.1-1.7-12.1-2.7c-1.9-0.5-3.7-0.6-4.7,1.1
			c-1.3,2.2,1.1,2.8,2.2,3.7c3.3,2.5,6.6,4.9,10.1,7.1c2.5,1.5,2,2.8,0.5,4.7C254.4,349.1,246.2,352.6,238,355.8z M261.8,346.1
			c-0.9-0.3-0.6-0.9-0.6-1.4c0-0.7,0.1-1.6,0.9-1.6c0.7,0,0.7,0.8,0.7,1.3C262.8,345.2,262.4,345.7,261.8,346.1z M271.4,334.4
			c-0.4,6.3-2.1,7.2-7.4,3.5c-3.9-2.7-7.5-5.6-11.3-8.5c-0.5-0.3-1.1-1-1.1-1.3c0.3-0.7,1-0.2,1.5-0.1c5.4,1.1,10.8,2.3,16.2,3.5
			C270.7,331.9,271.9,332.2,271.4,334.4z"/>
		<path class="st1" d="M176.4,230.2c-1.2-0.2-3.5,0.6-3.4-0.6c0.1-1.7,2.2-0.7,3.5-0.9c2.5-0.5,5.1-0.9,7.7-1.2
			c0.9-0.1,2.1-0.9,2.4,0.3c0.1,0.5-1.9,2.1-2.2,1.9C181.5,228.3,179,230.9,176.4,230.2z"/>
		<path class="st1" d="M174.6,215.4c0.5,0,0.5,0,0.7,0c1.9,0.5,3.9-0.8,5.7,0.5c-1.7,1.8-4.1,1.2-6.2,1.3c-1.9,0.1-5.2,0.8-5.1-1.3
			C169.7,214.2,173.1,216.2,174.6,215.4z"/>
		<path class="st1" d="M171.4,189.6c-1.1-0.1-2.7-0.2-4.4-0.5c-0.6-0.1-1.1-0.5-0.9-1.2c0.1-0.7,0.7-0.8,1.3-0.7
			c2.7,0.3,5.3,0.6,8,0.9c0.5,0.1,1.1-0.1,1.1,0.5c0.1,0.8-0.5,0.9-1.1,1C174.3,189.6,173.2,189.6,171.4,189.6z"/>
		<path class="st1" d="M177.4,221.8c0.6,0,1.3-0.2,1.7,0.1c1.1,0.5,3.4-0.7,3.3,0.5c-0.1,1.7-2.4,1.3-3.9,1.3
			c-2.1,0-4.2-0.1-6.3-0.1c-0.5,0-1.3,0.4-1.5-0.5c-0.2-0.9,0.5-1.3,1.3-1.3c1.8-0.1,3.5,0,5.3,0
			C177.4,221.8,177.4,221.8,177.4,221.8z"/>
		<path class="st1" d="M175,219c1.5,0,3.1,0,4.6,0c0.6,0,1.3,0.1,1.3,0.8c0.1,0.7-0.6,1-1.2,1c-3.1-0.1-6.3-0.3-9.5-0.5
			c-0.5,0-0.9-0.3-0.9-0.9c0.1-0.6,0.6-0.7,1-0.7C172,218.7,173.5,218.8,175,219C175,219,175,219,175,219z"/>
		<path class="st1" d="M175.4,208.8c-1.9-1.1-3.9,0.3-5.9-0.3c-0.7-0.2-1.5-0.3-1.5-1.2c0-1,0.9-1,1.5-0.9c2.5,0.2,4.9,0.5,7.4,0.7
			c0.5,0.1,1.1,0.3,0.9,0.8C177.4,209.2,176.2,208.4,175.4,208.8z"/>
		<path class="st1" d="M174.6,186.6c-2.4,0.1-4.3-1.2-6.5-0.6c-0.5,0.1-0.9-0.1-0.9-0.7c0-0.7,0.5-1.1,1.1-1.1
			c2.5,0.3,5.1,0.6,7.6,1c0.4,0.1,0.9,0.5,0.7,1C176,187.2,175,186.2,174.6,186.6z"/>
		<path class="st1" d="M177.4,225.2c2.4-0.1,3.9-0.2,5.3-0.3c0.5,0,1.3-0.3,1.3,0.6c0.1,0.7-0.7,0.9-1.2,1c-3.3,0.1-6.6,0.2-9.9,0.3
			c-0.4,0-1-0.1-1-0.7c0-0.9,0.7-0.8,1.3-0.8C174.8,225.2,176.6,225.2,177.4,225.2z"/>
		<path class="st1" d="M172.8,193.8c-1.3-0.1-3.1-0.3-4.8-0.5c-0.5-0.1-1.3-0.1-1.2-0.9s0.7-0.8,1.3-0.7c2.1,0.1,4.2,0.2,6.3,0.3
			c0.8,0.1,1.9-0.1,1.9,1s-1.3,0.7-2,0.9C174,193.8,173.6,193.8,172.8,193.8z"/>
		<path class="st1" d="M171,195.2c1.9,0.7,5-0.9,4.9,1.4c-0.1,1.8-3.2,0.9-4.8,0.5c-1.4-0.3-4.3,0.7-4.1-1.1
			C167.3,193.8,169.8,196.2,171,195.2z"/>
		<path class="st1" d="M169.8,198.4c1.9,0.7,5.8,0,5.6,1.4c-0.3,2.3-3.3-0.1-5.1,0.5c-0.2,0.1-0.5,0.1-0.7,0
			c-0.9-0.3-2.6,1.6-2.8-0.5C166.6,197.8,168.6,198.8,169.8,198.4z"/>
		<path class="st1" d="M170.2,182c-1.4-0.5-3.9,0.7-3.8-1c0.1-2.1,2.5-1,3.7-0.9c1.3,0.1,3.9-0.7,3.9,0.9
			C173.9,182.8,171.4,181.2,170.2,182z"/>
		<path class="st1" d="M168.5,164.6c-1.1-0.6-3.4,1.2-3.5-0.7c-0.1-1.5,2.5-0.7,3.9-0.9c0.3,0,0.7,0,1.1,0.1c0.9,0.2,2.7-0.1,2.5,1
			c-0.1,1.1-1.7,0.3-2.7,0.5C169.4,164.6,169.1,164.6,168.5,164.6z"/>
		<path class="st1" d="M170.8,171.9c-1.7-0.1-3.1-0.3-4.5-0.3c-0.8,0-1.9,0.5-1.8-0.8c0.1-1.1,1.2-0.9,2-0.9
			c1.4,0.1,2.8,0.2,4.2,0.5c0.9,0.1,2.5-0.3,2.4,0.7C173,172.6,171.4,171.4,170.8,171.9z"/>
		<path class="st1" d="M172.4,204.6c-1.2-0.8-3.8,1-3.7-0.9c0.1-1.9,2.5-0.6,3.9-0.6c1.4,0,4.1-0.3,3.9,0.7
			C176.2,205.2,173.8,204,172.4,204.6z"/>
		<path class="st1" d="M169.2,176.8c0.5,0,0.9,0,1.4,0c0.8,0.1,2.1-0.2,2.1,0.7c0,1.3-1.3,0.3-2,0.5c-1,0.3-2.1,0.3-3.1,0.5
			c-0.9,0.2-2.3,1.1-2.5-0.4c-0.2-1.5,1.5-1.1,2.4-1.2C168,176.8,168.6,176.8,169.2,176.8z"/>
		<path class="st1" d="M169.6,168.4c-1.1-0.8-3.8,0.7-3.5-0.9c0.3-2.1,2.7-0.7,4.1-0.6c0.5,0.1,0.9,0.1,1.4,0.2
			c0.5,0.1,1.5,0,1.4,0.7c-0.1,1.1-1.1,0.5-1.7,0.6C170.8,168.5,170.2,168.4,169.6,168.4z"/>
		<path class="st1" d="M174.5,212.6c-1.5-0.4-3.7,0.7-3.8-0.8c-0.1-1.5,2.3-0.9,3.5-0.8c1.5,0.1,4.4-0.6,4.3,0.7
			C178.4,213.2,175.8,212,174.5,212.6z"/>
		<path class="st1" d="M168.6,174.8c-1.1-0.4-2.8,0.7-3-0.8c-0.2-1.2,1.4-0.9,2.2-0.7c1.4,0.3,3.8-0.7,4,0.8
			C172,175.4,169.7,174.4,168.6,174.8z"/>
		<path class="st1" d="M169.4,161.4c-0.9-0.5-2.6,0.5-3-0.9c-0.3-1,0.9-1.3,1.7-0.9c1.1,0.5,3-0.3,3.3,1.2
			C171.7,161.8,170.2,161.4,169.4,161.4z"/>
		<path class="st1" d="M178,232.4c-0.4-0.1-1.1,0.1-0.9-0.5c0.1-0.4,0.8-0.7,1.3-0.9c0.4-0.1,1-0.1,0.9,0.5
			C179.2,232.2,178.5,232.3,178,232.4z"/>
		<path class="st1" d="M170.8,131.7c-0.9,0-2.3,1-2.7-0.3c-0.3-1.1,1.2-1.1,2.1-1.2c1.3-0.1,3.3,0,3.3,1.1
			C173.5,132.5,171.8,131.3,170.8,131.7z"/>
		<path class="st1" d="M168.4,140.1c1.3,0.4,4,0.3,3.7,1.3c-0.5,1.5-2.6,0.2-4,0.1c-0.7,0-1.7,0.2-1.7-0.7
			C166.4,139.7,167.6,140.2,168.4,140.1z"/>
		<path class="st1" d="M171.2,135.7c-1.3-0.3-2.8,0.3-3.9-0.9c-0.1-0.1,0.1-0.7,0.3-0.8c1.4-0.5,2.7,0.3,4,0.7
			c0.5,0.1,1.4,0.3,1.3,0.9C172.6,136.5,171.8,135.6,171.2,135.7z"/>
		<path class="st1" d="M168.2,137.1c1.3,0.6,3.7-0.1,3.5,1.4c-0.1,1.1-2.4,0.3-3.7,0.1c-0.6-0.1-1.7,0.1-1.7-0.7
			C166.5,136.6,167.6,137.3,168.2,137.1z"/>
		<path class="st1" d="M169.2,144.5c-0.7-0.4-2.1,0.7-2.3-0.7c-0.1-1.3,1.3-1,2.1-1c0.9,0,2.5-0.3,2.5,1
			C171.6,144.9,170.1,144.5,169.2,144.5z"/>
		<path class="st1" d="M180.8,46.5c-0.5,0.9-1.1,0.7-1.8,0.5c-1-0.4-2.5-0.5-2.7-1.7c-0.1-0.6,0.9-0.3,1.3-0.1
			C178.6,45.9,180.2,45,180.8,46.5z"/>
		<path class="st1" d="M121.9,153.8c-0.1,5.1-3.7,8.8-8.6,8.7c-3.7,0-8.1-4.7-8.1-8.5c0-5.3,4.1-9.1,9.7-8.9
			C119.1,145.3,121.9,148.8,121.9,153.8z M119.9,153.9c0-3.3-2.9-6.7-5.9-6.7c-3.9-0.1-6.5,2.5-6.5,6.4c-0.1,3.6,3.1,7.1,6.5,7.2
			C117.5,160.9,119.9,158.1,119.9,153.9z"/>
		<path class="st1" d="M202.8,8.4c1,0,6.4,5.8,6.2,6.5c-0.3,0.9-0.8,0.6-1.3,0.2c-1.8-1.9-3.6-3.7-5.3-5.6
			C202,9.1,202,8.5,202.8,8.4z"/>
		<path class="st1" d="M207.1,8.8c1.1,0.5,1.9,1.3,2.4,2.4c0.3,0.5-0.2,1-0.7,0.8c-1.1-0.5-1.9-1.4-2.4-2.5
			C206.3,9.1,206.6,8.8,207.1,8.8z"/>
		<path class="st1" d="M222.8,301.1c10.3,1,13.1,9.4,12.7,16.9c-0.2,3.9-2.7,6.6-5.4,8.3c-6.5,4.4-14.7,4.5-21.9,1
			c-6.8-3.3-9.3-8.8-7.9-15.7c1.1-5.3,7.3-9.9,13.3-10.9C216.6,300.2,220.8,300.9,222.8,301.1z M213.5,302.6
			c-5,0.8-10.2,4.8-11.2,9.5c-1.1,5,1.3,9.9,6.1,12.9c5.4,3.3,10.9,3.1,16.7,1.3c4.9-1.5,8.7-6.4,8.5-10.8
			c-0.3-6.1-3.9-10.9-9.5-12.1C221.8,302.8,216.8,302,213.5,302.6z"/>
		<path class="st1" d="M207.7,291.2c0.1,3.9-4,7.6-8.1,7.5c-3.4,0-6.3-2.9-6.3-6.3c-0.1-4.3,3.9-8.1,8.5-8.2
			C205,284.2,207.6,287.2,207.7,291.2z M205.4,291.6c-0.1-3.1-2.2-5.1-5.2-4.9c-2.7,0.1-4.9,2.5-4.6,5.2c0.3,2.5,1,5,4.3,4.9
			C202.9,296.8,205.5,294.2,205.4,291.6z"/>
		<path class="st1" d="M188.9,340c0-4.4,3.4-8.1,7.2-8.1c3.1,0.1,7.3,3.9,7.3,6.7c0,4.7-3.3,8.5-7.3,8.4
			C191.1,346.9,188.9,344.8,188.9,340z M191.3,340c0,3.6,1.5,5.2,4.8,5.3c3.3,0.1,4.7-3.1,4.9-5.8c0.2-2.7-2.6-5.6-4.9-5.5
			C193.2,334,191.2,336.6,191.3,340z"/>
		<path class="st1" d="M192.7,305.4c0,3.5-3.8,7.5-7.1,7.7c-4.1,0.1-7.5-2.8-7.6-6.4c-0.1-3.8,4.5-8.5,8.5-8.6
			C189.6,298,192.7,301.6,192.7,305.4z M185.4,311.2c2.5,0,5.3-3.1,5.3-5.7c0-2.6-2.4-5.3-4.7-5.4c-2.5-0.1-5.7,3.5-5.7,6.3
			C180.4,309,182.6,311.2,185.4,311.2z"/>
		<path class="st1" d="M188.7,326.5c0.1,4-2.6,7-6.3,7.1c-3.9,0.1-7.3-3.2-7.3-7.1c0-4.7,2.5-6.9,7.3-7.4
			C185.9,318.7,188.6,322.2,188.7,326.5z M186.6,326.8c-0.1-4.1-1.6-5.9-4.5-5.8c-2.7,0.1-4.9,2.5-5,5c0,3.1,2.5,5.7,5.5,5.6
			C186.1,331.5,186.6,329.2,186.6,326.8z"/>
		<path class="st1" d="M236,333.6c2.8-2.2,6.9-2.4,8.9-0.4c2.5,2.3,2.6,7,0.3,10.1c-2.1,2.8-5.8,3.6-8.8,1.9
			C233,343.2,232.8,337.4,236,333.6c0-0.1-0.1,0.1-0.1,0.1L236,333.6z M235.6,338.6c0.1,3.5,2,5.9,4.7,5.9c2.7-0.1,4.7-2.5,4.7-5.6
			c0-3.3-2.1-5.6-5.1-5.5C237.1,333.6,235.5,335.5,235.6,338.6z"/>
		<path class="st1" d="M218.5,350.9c-3.4-0.1-6.4-3.5-6.3-7.1c0.1-4.3,3.1-7.1,7.2-7.1c3.5,0,6.1,3.4,6,7.8
			C225.4,348,222.2,350.9,218.5,350.9z M223.6,343.9c-0.1-3.2-2.1-5.8-4.5-5.8c-2.6,0-4.7,2.5-4.7,5.6c0,2.9,2,5.3,4.6,5.3
			C221.7,349.1,223.7,346.9,223.6,343.9z"/>
		<path class="st1" d="M243.2,306.6c0.1-4.4,2.7-6.8,6.9-6.6c3.1,0.1,5.9,3.2,5.8,6.5c0,3.4-3.7,6.9-7,6.7
			C245.4,313.1,243.1,310.4,243.2,306.6z M250.2,301.8c-3.5,0-4.9,1.3-4.9,4.3c0,3.3,1.7,5.5,4.1,5.5c2.1-0.1,4.5-2.8,4.4-5.1
			C253.6,303.9,252.5,302,250.2,301.8z"/>
		<path class="st1" d="M227,289.2c0,3.7-1.7,5.9-4.7,5.9c-4.2,0.1-7.7-2.6-7.7-5.8c0-3.5,3.1-6.3,6.9-6.2
			C224.7,283.1,227,285.6,227,289.2z M222.1,284.8c-3.5,0-5.1,1.6-5.2,4.3s1.9,4.3,5.4,4.3c2.7-0.1,2.7-2.3,2.7-4.1
			C225,286.7,223.8,284.8,222.1,284.8z"/>
		<path class="st1" d="M244.2,294.6c0,3.7-1.9,5.9-5.1,5.8c-3.1,0-5.4-3.1-5.3-7.1c0.1-2.7,2.3-4.8,5.1-4.7
			C242.4,288.5,244.2,290.6,244.2,294.6z M242.4,294.2c-0.5-1.2-0.3-3.9-3.2-4c-1.8-0.1-3.6,1.1-3.3,3.3s0.5,5.1,3.7,5.1
			C242,298.6,242.6,297,242.4,294.2z"/>
		<path class="st1" d="M258.4,319.9c0.1,2.5-1.6,3.8-4.3,3.7c-2.7-0.1-4.4-1.3-4.3-4.3c0.1-3.2,1.6-4.5,4.9-4.6
			C258,314.6,258.2,316.8,258.4,319.9z M256.4,319.2c-0.1-1.1,0.1-2.8-2-2.9c-1.6,0-2.7,0.7-2.6,2.6c0.1,1.5,0.5,2.9,2.3,2.9
			C255.7,321.9,256.5,321.2,256.4,319.2z"/>
	</g>
	<path class="st1" d="M138.3,366.3c-0.2-1.3-0.6-3.2-1.4-4.3c-0.1-0.2-0.5-0.1-0.5,0.1c0,0.9,0.5,1.9,0.7,2.7
		c0.1,0.4,1.3,3.6,0.3,3.5c-0.1,0-0.2,0.1-0.1,0.2c0.1,0.1,0.1,0.1,0.3,0.2c0.1,0.1,0.2,0.1,0.3,0
		C138.5,368.2,138.4,367.1,138.3,366.3z"/>
	<path class="st1" d="M138.5,362.5c-0.4-0.3-0.9,0.3-1.1,0.6c-0.3,0.6-0.1,1.3,0.1,1.8c0.1,0.1,0.1,0.1,0.1-0.1c0-0.5-0.1-1,0-1.4
		c0.1-0.2,0.2-0.5,0.4-0.5c0.1-0.1,0.2-0.1,0.3-0.2C138.6,362.6,138.5,362.5,138.5,362.5z"/>
	<path class="st1" d="M141,369.8c-1-0.5-1.7-0.5-2.3-1.8c-0.2-0.5-0.3-0.9-0.3-1.4c-0.3-1.4-0.5-2.7-0.5-4.1c0-0.1-0.1-0.1-0.1-0.1
		c-0.9,1.5-0.1,3.7,0.3,5.3c0.4,1.5,1.3,2.4,2.9,2.5C141.1,370.3,141.3,369.9,141,369.8z"/>
	<path class="st1" d="M138.5,368.5c0-0.2-0.3-0.3-0.5-0.1c-0.1,0.1-0.1,0.1-0.1,0.1c-0.1,0.1-0.1,0.3-0.1,0.4l0.1,0.1
		c0.1,0.1,0.1,0.1,0.2,0.1h0.1c0.2-0.1,0.3-0.2,0.3-0.4C138.5,368.6,138.5,368.5,138.5,368.5z"/>
	<path class="st1" d="M138.1,368c-0.3,0.1-0.9,0.2-1.1,0.5c-0.1,0.1,0,0.2,0.1,0.2c0.3,0.2,0.9-0.1,1.1-0.5
		C138.3,368.1,138.2,368,138.1,368z"/>
	<path class="st1" d="M141.3,375.1c-0.5-1.7-1-3.6-2.4-4.7c0.1,0,0.1,0,0.1-0.1c0.1,0,0.1-0.2,0-0.2c-0.3-0.1-0.7-0.1-0.9-0.3
		c-0.3-0.1-0.5,0.3-0.2,0.5c1.5,0.9,2,2.4,2.4,4c0.5,1.7,1.1,3.5-0.1,5c-0.2,0.3,0.1,0.5,0.3,0.4C142.5,379,141.7,376.7,141.3,375.1
		z"/>
	<path class="st1" d="M145.9,380c-1.9,0.5-3.1,0-3.5-1.5c-0.1-0.4-0.3-0.8-0.3-1.2c-0.2-0.7-0.3-1.3-0.5-2c-0.1-0.7-0.9-2.6,0.8-2.5
		c0.3,0,0.9,0.5,1.3,0.6c0.5,0.1,0.7-0.5,0.3-0.7c-0.8-0.5-1.9-1.2-2.7-1.1c-0.5-0.4-0.8-0.7-1.4-0.5c-0.3,0.1-0.4,0.5-0.2,0.7
		c0.2,0.3,0.4,0.5,0.5,0.9c0.1,0.1,0.1,0.2,0.2,0.2c-0.3,1.3,0.6,3.3,0.9,4.3c0.4,1.5,0.9,3.5,2.6,4c1,0.3,1.9-0.1,2.2-1.1
		C146.1,380,145.9,379.9,145.9,380z"/>
	<path class="st1" d="M192.8,376.7c-0.5-1-1.1-2.1-2-2.8c-0.1-0.1-0.2,0.1-0.1,0.1c0.5,1.1,1.3,2,1.7,3.1c0.4,0.9,0.6,2.1,1.3,2.9
		c0.1,0.1,0.2,0,0.2-0.1C194,378.9,193.3,377.7,192.8,376.7z"/>
	<path class="st1" d="M217.4,367.5c-0.4-0.3-0.8-0.7-1.3-0.9c-0.1,0-0.3,0.1-0.3,0.3c0.2,0.5,0.6,0.9,1.1,1.3
		c0.4,0.3,0.8,0.8,1.3,0.8c0.2,0,0.3-0.2,0.3-0.3C218.4,368.2,217.8,367.8,217.4,367.5z"/>
	<path class="st1" d="M221.2,368.4c-0.3-0.3-0.6-0.7-0.9-1c-0.3-0.3-0.5-0.5-0.9-0.5c-0.1,0-0.2,0.1-0.2,0.2
		c-0.3,0.7,0.7,1.5,1.1,1.9c0.3,0.3,1.1,1.4,1.6,0.9C222.4,369.5,221.4,368.7,221.2,368.4z"/>
	<path class="st1" d="M225.4,369.3c-0.4-0.4-0.8-0.8-1.1-1.2c-0.6-0.7-1.4-1.5-2.4-1.3c-0.2,0.1-0.2,0.3-0.1,0.4
		c0.3,0.4,0.8,0.7,1.1,1.1c0.4,0.4,0.7,0.8,1.1,1.2c0.5,0.6,1.4,1.6,2.3,1.2c0.1-0.1,0.2-0.2,0.1-0.3
		C226.2,369.7,225.8,369.6,225.4,369.3z"/>
	<path class="st1" d="M228.6,368.5c-0.7-0.7-1.5-1.6-2.5-1.9c-0.3-0.1-0.5,0.3-0.4,0.5c0.4,0.9,1.5,1.7,2.3,2.3
		c0.6,0.5,1.4,1.6,2.3,1.5c0.1,0,0.3-0.1,0.3-0.3C230.4,369.8,229.2,369.1,228.6,368.5z"/>
	<path class="st1" d="M234.3,369.8c-0.5-0.7-1.5-1.3-2.1-1.9c-0.7-0.5-1.3-1.3-2.1-1.6c-0.2-0.1-0.5,0.1-0.4,0.4
		c0.3,0.9,1.1,1.5,1.8,2.1c0.7,0.6,1.4,1.4,2.3,1.7C234.2,370.6,234.6,370.2,234.3,369.8z"/>
	<path class="st1" d="M238.6,369.5c-0.4-0.9-1.6-1.4-2.3-1.9c-0.9-0.7-1.7-1.3-2.7-1.9c-0.2-0.1-0.5,0.1-0.3,0.3
		c0.7,1,1.5,1.7,2.4,2.5c0.7,0.6,1.6,1.5,2.6,1.6C238.6,370.1,238.7,369.7,238.6,369.5z"/>
	<path class="st1" d="M242.2,368.6c-0.7-0.9-2-1.5-3-2.1c-1-0.7-2-1.4-3.1-1.8c-0.4-0.1-0.7,0.4-0.4,0.7c0.8,0.9,1.9,1.5,2.9,2.1
		c1,0.7,2,1.5,3.1,1.8C242.2,369.5,242.5,368.9,242.2,368.6z"/>
	<path class="st1" d="M245,367.7c-0.3-1.1-1.7-1.9-2.6-2.5c-0.8-0.7-1.7-1.6-2.8-1.7c-0.1,0-0.2,0.1-0.2,0.2c0.3,1,1.5,1.7,2.3,2.3
		c0.8,0.7,1.7,1.9,2.7,2.1C244.8,368.2,245.1,368,245,367.7z"/>
	<path class="st1" d="M248.2,365.7c-0.3-0.9-1.5-1.3-2.2-1.9c-0.7-0.5-1.7-1.7-2.5-1.6c-0.1,0-0.3,0.1-0.2,0.2c0,0.9,1.3,1.6,2,2.1
		c0.7,0.5,1.8,1.7,2.8,1.5C248.2,366.1,248.2,365.9,248.2,365.7z"/>
	<path class="st1" d="M251.1,364.2c-0.4-0.8-1.5-1.3-2.1-1.7c-0.8-0.5-1.6-1.2-2.5-1.5c-0.4-0.1-0.6,0.3-0.4,0.6
		c0.6,0.7,1.6,1.3,2.3,1.9c0.7,0.5,1.5,1.3,2.4,1.3C251,364.8,251.2,364.5,251.1,364.2z"/>
	<path class="st1" d="M253.7,362.9c-0.5-0.8-1.5-1.2-2.3-1.7c-0.7-0.5-1.5-1.1-2.5-1.2c-0.3,0-0.3,0.3-0.3,0.5
		c0.5,0.8,1.4,1.3,2.1,1.7c0.7,0.5,1.5,1.3,2.5,1.3C253.6,363.5,253.8,363.1,253.7,362.9z"/>
	<path class="st1" d="M256.4,360.7c-0.9-0.5-1.9-0.9-2.7-1.5c-0.8-0.5-1.5-1.1-2.5-1.1c-0.4,0-0.4,0.5-0.2,0.7
		c0.8,0.7,1.7,1.2,2.6,1.8c0.8,0.5,1.6,1.1,2.5,1.2C256.6,361.7,256.8,360.9,256.4,360.7z"/>
	<path class="st1" d="M260,359.7c-0.6-1-2-1.5-3-2.1c-0.9-0.5-1.9-1.3-3-1.1c-0.2,0-0.2,0.2-0.1,0.3c0.4,0.9,1.7,1.3,2.5,1.7
		c1,0.5,2,1.5,3.1,1.7C259.8,360.4,260.2,360,260,359.7z"/>
	<path class="st1" d="M257.3,361.3c-0.4-0.3-1.7-1.1-2-0.4c-0.3,0.7,1.2,1.1,1.7,1.2C257.4,362.3,257.7,361.6,257.3,361.3z"/>
	<path class="st1" d="M254.2,363.3c-0.2-0.4-0.7-0.7-1-0.9c-0.5-0.3-1.1,0.4-0.6,0.8c0.4,0.3,0.8,0.7,1.3,0.7
		C254.2,364,254.4,363.6,254.2,363.3z"/>
	<path class="st1" d="M250.9,363.9c-0.5-0.3-0.9-0.7-1.5-0.5c-0.1,0.1-0.2,0.2-0.2,0.3c0.1,0.6,0.7,0.9,1.2,1.1
		c0.4,0.3,1,0.7,1.5,0.5c0.1-0.1,0.2-0.1,0.2-0.3C252,364.5,251.3,364.2,250.9,363.9z"/>
	<path class="st1" d="M249,366.4c-0.2-0.5-0.6-0.8-1.1-1.1c-0.4-0.3-0.9-0.6-1.4-0.7c-0.6-0.1-0.9,0.5-0.4,0.9
		c0.3,0.3,0.8,0.5,1.2,0.7c0.4,0.3,0.7,0.5,1.1,0.7C248.9,367.1,249.2,366.8,249,366.4z"/>
	<path class="st1" d="M261.9,358.1c-0.6-0.9-1.7-1.7-2.7-2.3c-0.9-0.6-2.2-1.5-3.3-1.3c-0.2,0.1-0.3,0.3-0.2,0.5
		c0.7,0.9,2.1,1.3,3.1,1.9c0.9,0.5,1.8,1.5,2.9,1.5C261.8,358.3,262,358.2,261.9,358.1z"/>
	<path class="st1" d="M263.8,355.5c-0.7-0.8-1.7-1.4-2.7-2s-1.9-1.2-2.9-1.4c-0.3-0.1-0.5,0.3-0.3,0.5c0.7,0.7,1.7,1.2,2.5,1.8
		c0.9,0.6,1.8,1.4,2.7,1.9C263.6,356.7,264.2,356,263.8,355.5z"/>
	<path class="st1" d="M263.2,351.9c-0.9-0.7-1.7-1.8-3-1.8c-0.4,0-0.5,0.5-0.2,0.7c0.9,0.7,1.7,1.4,2.7,2.1c0.4,0.3,0.8,0.5,1.3,0.7
		c0.4,0.2,0.7,0.6,1.2,0.7c0.3,0.1,0.5-0.1,0.5-0.4C265.6,352.9,263.9,352.5,263.2,351.9z"/>
	<path class="st1" d="M267.2,351.5c-0.8-0.8-1.9-1.4-2.9-2c-0.7-0.5-1.6-1.4-2.5-1.2c-0.1,0.1-0.2,0.1-0.1,0.3
		c0.1,0.9,1.3,1.3,1.9,1.8c0.9,0.7,1.9,1.5,2.9,1.9C267.1,352.5,267.7,351.9,267.2,351.5z"/>
	<path class="st1" d="M268.5,349.4c-1-0.5-1.9-1.1-2.7-1.7c-0.7-0.6-1.5-1.3-2.4-1.5c-0.2-0.1-0.4,0.2-0.3,0.3
		c0.5,1,1.7,1.7,2.5,2.4c0.7,0.6,1.5,1.3,2.5,1.4C268.6,350.4,269.1,349.7,268.5,349.4z"/>
	<path class="st1" d="M270,347.9c-0.4-1.1-1.9-1.7-2.8-2.4c-0.6-0.5-1.8-1.7-2.6-1.1c-0.3,0.2-0.3,0.7,0.1,0.8
		c0.5,0.1,0.8,0.5,1.2,0.7c0.5,0.3,0.9,0.7,1.3,1c0.7,0.5,1.5,1.4,2.4,1.4C269.8,348.4,270,348.1,270,347.9z"/>
	<path class="st1" d="M270.6,345c-0.9-0.5-1.8-0.9-2.6-1.5c-0.7-0.4-1.3-1.2-2.1-1.3c-0.1,0-0.2,0.1-0.2,0.2c0.1,0.9,1,1.4,1.7,1.9
		c0.9,0.6,1.9,1.3,2.9,1.5C270.8,346.1,271.1,345.3,270.6,345z"/>
	<path class="st1" d="M273.7,344.2c-0.5-0.7-1.5-1-2.3-1.4c-0.9-0.4-1.8-0.7-2.7-1c-0.3-0.1-0.5,0.3-0.2,0.5c0.9,0.5,1.7,1,2.5,1.5
		c0.7,0.4,1.4,0.9,2.3,1.1C273.6,344.8,273.8,344.4,273.7,344.2z"/>
	<path class="st1" d="M274.5,341.4c-0.5-0.2-1.1-0.5-1.7-0.7c-0.4-0.2-0.7-0.3-1.1-0.3c-0.1,0-0.2,0.2-0.2,0.3
		c0.2,0.7,1.3,1.1,1.9,1.4c0.7,0.3,1.5,0.8,2.3,0.7c0.1,0,0.3-0.1,0.3-0.2C276.2,341.8,275,341.6,274.5,341.4z"/>
	<path class="st1" d="M276.9,340c-0.7-0.3-1.3-0.7-2-1.1c-0.6-0.3-1.3-0.8-2-0.9c-0.3-0.1-0.5,0.3-0.3,0.6c0.5,0.5,1.2,0.9,1.8,1.2
		c0.7,0.4,1.4,0.8,2.1,1.1C277.2,341.3,277.4,340.1,276.9,340z"/>
	<path class="st1" d="M277.8,338c-0.8-0.5-1.5-0.9-2.3-1.3c-0.7-0.4-1.5-0.9-2.3-1c-0.3-0.1-0.7,0.3-0.3,0.6
		c0.6,0.6,1.4,0.9,2.1,1.3c0.8,0.5,1.5,0.9,2.3,1.3C277.8,339.3,278.4,338.4,277.8,338z"/>
	<path class="st1" d="M278.3,335.7c-0.8-0.5-1.6-0.8-2.5-1.1c-0.7-0.3-1.5-0.7-2.3-0.5c-0.3,0.1-0.3,0.4-0.1,0.5
		c0.5,0.5,1.3,0.7,1.9,0.9c0.9,0.3,1.7,0.7,2.5,1.1C278.4,337,278.9,336,278.3,335.7z"/>
	<path class="st1" d="M278.2,333c-0.9-0.3-1.8-0.5-2.7-0.9c-0.7-0.2-1.5-0.5-2.1-0.3c-0.2,0.1-0.3,0.3-0.1,0.4
		c0.5,0.5,1.3,0.7,2,0.9c0.9,0.3,1.8,0.6,2.7,0.9C278.6,334.3,278.8,333.2,278.2,333z"/>
	<path class="st1" d="M277.4,331c-0.9-0.5-1.8-0.7-2.7-0.9c-0.9-0.3-1.8-0.7-2.7-0.7c-0.2,0-0.3,0.3-0.2,0.5
		c0.7,0.5,1.5,0.7,2.3,1.1c0.9,0.3,1.9,0.8,2.9,1C277.5,332,277.9,331.3,277.4,331z"/>
	<path class="st1" d="M274.3,328.1c-0.6-0.6-1.7-0.7-2.5-0.9c-0.9-0.3-1.9-0.7-2.8-0.8c-0.3,0-0.3,0.3-0.2,0.5
		c0.7,0.7,1.7,1,2.5,1.3c0.8,0.3,2,0.8,2.9,0.5C274.4,328.6,274.5,328.3,274.3,328.1z"/>
	<path class="st1" d="M273.5,325c-0.8-0.2-1.6-0.4-2.4-0.6c-0.8-0.3-1.5-0.5-2.4-0.7c-0.2,0-0.5,0.2-0.3,0.4
		c1.2,1.1,3.1,1.7,4.7,1.9C273.8,326.2,274.2,325.2,273.5,325z"/>
	<path class="st1" d="M272.5,322.7c-0.5-0.3-1.1-0.4-1.5-0.5c-0.6-0.1-1.2-0.3-1.7-0.4c-0.7-0.1-0.9,0.8-0.3,1
		c0.5,0.2,1.1,0.3,1.7,0.5c0.5,0.1,1.1,0.4,1.7,0.3C272.8,323.5,272.9,323,272.5,322.7z"/>
	<path class="st1" d="M271.1,320.3c-0.5-0.2-0.9-0.2-1.4-0.3c-0.4-0.1-0.9-0.1-1.3,0c-0.3,0.1-0.3,0.5-0.1,0.7
		c0.4,0.3,0.8,0.3,1.3,0.5c0.5,0.1,0.9,0.2,1.4,0.2C271.6,321.3,271.6,320.5,271.1,320.3z"/>
	<path class="st1" d="M270.8,318.5c-0.4-0.2-1-0.3-1.4-0.5c-0.3-0.1-0.9-0.2-0.9,0.3c0,0.4,0.4,0.7,0.7,0.8c0.4,0.2,0.9,0.4,1.3,0.3
		C271,319.4,271.2,318.8,270.8,318.5z"/>
	<path class="st1" d="M269.8,316.7c-0.3-0.1-0.5-0.2-0.9-0.2c-0.3,0-0.5,0.1-0.8,0.1c-0.2,0-0.3,0.3-0.1,0.4
		c0.3,0.1,0.4,0.3,0.7,0.4c0.3,0.1,0.5,0.1,0.8,0.1C270,317.5,270.2,316.9,269.8,316.7z"/>
	<path class="st1" d="M269.2,315.3c-0.1-0.1-0.2-0.2-0.3-0.2c-0.3,0-0.5,0.1-0.7,0.1c-0.2,0.1-0.2,0.4,0,0.5
		c0.3,0.1,0.5,0.1,0.7,0.1c0.1,0,0.3-0.1,0.3-0.2C269.2,315.5,269.2,315.4,269.2,315.3z"/>
	<path class="st1" d="M228.8,232c-0.7-0.5-1.6-0.3-2.4-0.4c-0.9-0.1-1.9-0.1-2.9-0.1c-0.7,0.1-0.9,1.1-0.2,1.3
		c0.9,0.2,1.9,0.2,2.9,0.3c0.9,0.1,1.8,0.3,2.6-0.1C229.1,232.8,229,232.2,228.8,232z"/>
	<path class="st1" d="M228.5,228.4c-0.7-0.5-1.7-0.3-2.5-0.2c-0.9,0-1.7,0.1-2.5,0.2c-0.3,0-0.5,0.2-0.5,0.5c0,0.9,1.2,0.8,1.8,0.8
		c1.1,0,2.7,0.3,3.6-0.3C228.8,229.1,228.9,228.6,228.5,228.4z"/>
	<path class="st1" d="M228.2,195.9c-0.8-0.5-2,0-2.9-0.1c-0.9-0.1-1.9-0.5-2.5,0.1c-0.1,0.1-0.1,0.3-0.1,0.3
		c0.5,0.9,1.9,0.8,2.8,0.9c0.9,0.1,2.3,0.2,2.9-0.7C228.4,196.3,228.4,196,228.2,195.9z"/>
	<path class="st1" d="M228.2,192.6c-0.8-0.3-1.9,0.1-2.8,0.1c-0.7,0-1.5-0.1-2.1,0.3c-0.1,0.1-0.1,0.3-0.1,0.3
		c0.5,0.7,1.5,0.7,2.4,0.7c0.9,0,2.1,0.1,2.8-0.5C228.8,193.2,228.6,192.8,228.2,192.6z"/>
	<path class="st1" d="M228.3,189.2c-0.7-0.7-1.9-0.4-2.7-0.4c-0.9,0-1.9-0.1-2.8,0.3c-0.6,0.3-0.3,1.3,0.3,1.2
		c0.9-0.1,1.9,0.1,2.9,0.1c0.9,0,1.7,0.2,2.3-0.4C228.4,189.8,228.4,189.4,228.3,189.2z"/>
	<path class="st1" d="M172.4,146.5c-0.5-0.7-1.5-0.6-2.3-0.6c-0.9,0-2.1-0.1-2.9,0.4c-0.3,0.2-0.3,0.7,0.1,0.8
		c0.9,0.3,1.9,0.1,2.8,0.1c0.7,0,1.7,0.3,2.3-0.3C172.5,146.9,172.5,146.7,172.4,146.5z"/>
	<path class="st1" d="M177.6,126.9c-1.9-2.1-7-3.8-9.8-2.8c-0.2,0.1-0.3,0.3-0.1,0.5c1.3,0.8,3,0.7,4.4,1.1c1.7,0.5,3.3,1.7,5,2.1
		C177.6,127.7,177.9,127.2,177.6,126.9z"/>
	<path class="st1" d="M176.8,123.7c-0.8-0.9-2.1-1.1-3.3-1.3c-1.3-0.3-2.7-0.5-4.1-0.5c-0.3,0-0.5,0.5-0.2,0.7
		c1.1,0.7,2.4,0.7,3.6,1s2.3,0.9,3.5,0.9C176.9,124.5,177,124,176.8,123.7z"/>
	<path class="st1" d="M175.2,121.1c-0.3-0.4-0.7-0.3-1.1-0.5c-0.5-0.1-1.1-0.3-1.6-0.4c-0.8-0.2-1.7-0.4-2.3,0.3
		c-0.1,0.1-0.1,0.3,0.1,0.4c0.5,0.2,0.9,0.2,1.3,0.3c0.5,0.1,0.9,0.3,1.5,0.4c0.7,0.2,1.6,0.6,2.2,0
		C175.3,121.4,175.3,121.2,175.2,121.1z"/>
	<path class="st1" d="M172.4,118.5c-0.9-0.5-2.1-0.6-3-0.3c-0.2,0.1-0.2,0.3,0,0.4c0.9,0.2,1.7,0.5,2.6,0.7
		C172.6,119.6,173,118.8,172.4,118.5z"/>
	<path class="st1" d="M168.8,116.8c-0.3,0-0.5,0.1-0.7,0.2c-0.4,0.2-0.1,0.7,0.2,0.7c0.2,0,0.4,0,0.6-0.1
		C169.4,117.6,169.4,116.8,168.8,116.8z"/>
	<path class="st1" d="M219,98.5c-0.1-0.2-0.2-0.2-0.4-0.1c-0.5,0.2-0.9,0.9-1.2,1.3c-0.4,0.5-1,0.8-1.1,1.4
		c-0.1,0.3,0.1,0.6,0.5,0.6c0.7-0.1,1.2-0.7,1.6-1.3C218.7,99.8,219.2,99.1,219,98.5z"/>
	<path class="st1" d="M220.2,99.6c-0.8,0.5-1.3,1.3-2,1.9c-0.4,0.3-0.7,0.7-1.2,0.9c-0.4,0.2-0.7,0.3-1,0.7
		c-0.1,0.1-0.1,0.4,0.1,0.5c0.9,0.4,1.9-0.4,2.6-1c0.8-0.7,1.7-1.7,1.9-2.7C220.6,99.7,220.4,99.5,220.2,99.6z"/>
	<path class="st1" d="M220.9,101.7c-0.7,0.8-1.4,1.5-2.3,2c-0.8,0.5-1.8,0.7-2.3,1.4c-0.1,0.1,0,0.4,0.2,0.5
		c1.1,0.2,2.3-0.6,3.2-1.1c0.8-0.5,1.9-1.4,1.9-2.5C221.6,101.7,221.2,101.5,220.9,101.7z"/>
	<path class="st1" d="M222.7,103.6c-1.1,0.4-1.8,1.3-2.8,1.9c-1.1,0.6-2.4,0.7-3.4,1.3c-0.3,0.2-0.2,0.5,0.1,0.6
		c1.2,0.5,2.7-0.3,3.7-0.8c1-0.5,2.4-1.5,2.7-2.7C223,103.7,222.8,103.5,222.7,103.6z"/>
	<path class="st1" d="M224.6,105.3c-1.3,0.7-2.1,1.7-3.5,2.2c-1.3,0.5-2.5,0.7-3.9,1c-0.1,0-0.1,0.2-0.1,0.3c1,1.2,3.3,0.3,4.5-0.2
		c1.3-0.5,3.1-1.3,3.5-2.9C225.2,105.4,224.9,105.2,224.6,105.3z"/>
	<path class="st1" d="M226.1,107.3c-1.5,0.4-2.5,1.8-4,2.3c-1.3,0.5-2.7,0.5-3.9,1.2c-0.1,0.1-0.1,0.3,0.1,0.4
		c2.6,0.5,7.1-0.9,8.3-3.4C226.6,107.5,226.4,107.3,226.1,107.3z"/>
	<path class="st1" d="M227.4,108.4c-0.3,0.1-0.6,0.3-0.9,0.5c-0.3,0.2-0.7,0.3-0.9,0.5c-0.3,0.3-0.1,0.7,0.3,0.7
		c0.8,0.1,1.8-0.7,1.8-1.5C227.8,108.5,227.6,108.3,227.4,108.4z"/>
	<path class="st1" d="M205.9,43c0-0.2-0.3-0.3-0.4-0.2c-1.5,1.3-2.2,3.3-3.7,4.7c-1.6,1.5-3.7,2.6-5.2,4.2c-0.4,0.4,0,1,0.5,0.8
		C200.6,51.1,205.4,46.9,205.9,43z"/>
	<path class="st1" d="M206.8,45.7c-1.5,1.2-2.7,2.9-3.9,4.3c-0.5,0.7-1.1,1.3-1.8,1.9c-0.7,0.5-1.5,0.8-2.2,1.3
		c-0.2,0.2-0.1,0.5,0.1,0.6c1.5,0.4,2.9-0.9,3.9-2c1.6-1.7,3.4-3.6,4.5-5.7C207.5,45.7,207.1,45.3,206.8,45.7z"/>
	<path class="st1" d="M209.3,47.7c-1.7,1.2-2.9,2.9-4.5,4.3c-1.3,1.3-3.1,2.3-4.2,3.7c-0.2,0.3,0.1,0.6,0.4,0.5
		c1.9-0.6,3.7-2.3,5.1-3.7c1.3-1.3,2.9-2.7,3.7-4.4C210,47.8,209.6,47.5,209.3,47.7z"/>
	<path class="st1" d="M211.4,50.2c0.1-0.2-0.1-0.4-0.3-0.3c-1.5,0.9-2.6,2.5-3.9,3.7c-1.3,1.2-2.9,2.2-4.1,3.5
		c-0.3,0.3,0.1,0.9,0.5,0.7c1.7-0.7,3.1-2.1,4.5-3.3C209.2,53.3,210.8,51.9,211.4,50.2z"/>
	<path class="st1" d="M218.5,45.1C218.5,45.1,218.5,45,218.5,45.1c-0.9,0.8-0.9,1.9-1.2,2.9c-0.3,1.4-0.7,2.8-1.1,4.2
		c-0.7,2.6-1.9,5.5-2,8.2c0,0.4,0.5,0.5,0.7,0.2c1.3-2.3,1.7-5.5,2.3-8.1c0.3-1.4,0.7-2.8,1-4.3C218.5,47.1,218.9,46.2,218.5,45.1z"
		/>
	<path class="st1" d="M221.2,38.6c-0.1-0.1-0.1-0.1-0.2,0c-1.1,1.1-0.9,3.3-1.1,4.7c-0.3,1.9-0.7,3.7-0.9,5.6
		c-0.1,0.3,0.5,0.6,0.7,0.3c1.1-1.5,1.1-3.9,1.3-5.6C221.2,42.1,221.9,39.9,221.2,38.6z"/>
	<path class="st1" d="M186.2,61.9c-1.5,0.9-2.6,2.7-3.5,4.1c-0.5,0.8-2.1,2.5-1.1,3.4c0.3,0.2,0.7,0.3,0.9,0
		c1.4-1.6,3.3-3.7,3.9-5.7c0-0.1,0-0.3-0.1-0.3c0.2-0.3,0.3-0.5,0.5-0.8C186.9,62.1,186.5,61.7,186.2,61.9z"/>
	<path class="st1" d="M184.7,59.4c0.1-0.3,0.1-0.5,0-0.9c0-0.1-0.2-0.1-0.3-0.1c-0.7,0.6-1.3,1.5-1.9,2.3c-0.6,0.7-1.1,1.5-1.3,2.4
		c-0.1,0.6,0.5,1,1,0.6c0.7-0.6,1.2-1.2,1.7-1.9c0.5-0.6,1.1-1.3,1-2.1C185,59.5,184.9,59.4,184.7,59.4z"/>
	<path class="st1" d="M187.2,67c-0.1,0.1-0.1,0.1-0.1,0.2c0-0.2-0.1-0.3-0.3-0.3c-0.9,0.5-1.5,1.5-2,2.4c-0.6,1.1-1,2.1-1.4,3.2
		c-0.1,0.3,0.1,0.7,0.4,0.7c1.2,0.3,1.7-0.9,2.2-1.8c0.7-1.3,1.8-2.7,2-4.2C188,66.9,187.5,66.8,187.2,67z"/>
	<path class="st1" d="M189.3,70.7c0,0.1-0.1,0.1-0.1,0.1C189.2,70.7,189.3,70.7,189.3,70.7c0-0.3-0.3-0.3-0.4-0.2
		c-0.8,0.7-1.3,1.7-1.7,2.7c-0.5,1-0.9,2-1.2,3c-0.1,0.3,0.1,0.6,0.4,0.7c1.1,0.3,1.8-0.8,2.3-1.6c0.8-1.2,1.3-2.6,1.7-4
		C190.5,70.5,189.6,70.1,189.3,70.7z"/>
	<path class="st1" d="M193.2,73.3c0-0.3-0.3-0.5-0.5-0.3c-0.1-0.1-0.2-0.1-0.3,0c-0.2,0.2-0.3,0.4-0.5,0.7c-0.5,0.6-0.7,1.5-1.1,2.1
		c-0.5,0.9-0.8,1.9-0.9,2.9l0,0l0,0c0,0.1,0,0.1,0,0.1c-0.1,0.7,0.9,0.7,1.1,0.1c0.3-1,0.7-2,1.1-3c0.1-0.1,0.1-0.3,0.1-0.5
		C192.7,74.8,193.2,74.1,193.2,73.3z"/>
	<path class="st1" d="M196.2,73.4c-1.5,1.5-1.9,4.6-2.2,6.7c-0.1,0.5,0.9,0.8,1.1,0.3c0.7-1.6,1.8-3.8,1.6-5.7
		c0.1-0.3,0.2-0.6,0.3-0.9C197.1,73.5,196.6,73.1,196.2,73.4z"/>
	<path class="st1" d="M201.8,73.3c-0.1,0.1-0.1,0.1-0.1,0.2c-0.1-0.2-0.4-0.3-0.7-0.1c-1.4,1.6-1.7,4.3-1.8,6.3
		c-0.1,0.7,0.9,0.7,1.1,0.1c0.7-1.9,2-4.3,1.9-6.5C202.3,73.2,202,73.1,201.8,73.3z"/>
	<path class="st1" d="M206.8,71.7c-0.1-0.2-0.3-0.1-0.5,0c-0.1,0.1-0.1,0.1-0.1,0.2c-0.1,0-0.1,0-0.2,0.1c-0.5,0.7-0.6,1.5-0.8,2.3
		c-0.2,1.1-0.5,2.1-0.7,3.2c-0.1,0.6,0.7,1.1,1,0.5C206.5,76.3,207.7,73.5,206.8,71.7z"/>
	<path class="st1" d="M211.5,68.9c-0.1,0.3-0.2,0.5-0.3,0.8c0,0-0.1,0-0.1,0.1c-0.7,0.8-0.6,2.3-0.7,3.4c-0.1,0.6,1,0.8,1.1,0.1
		c0.3-1.3,0.7-2.8,0.7-4.2C212.2,68.7,211.7,68.5,211.5,68.9z"/>
	<path class="st1" d="M190.6,235c-2.4,1.1-4.9,1.9-7.5,2.6c-2.1,0.5-4.8,0.6-6.7,1.7c-0.2,0.1-0.1,0.4,0.1,0.5
		c2.4,0.7,5.5-0.4,7.8-1c2.3-0.6,5.3-1.2,7.1-2.9C191.8,235.4,191.1,234.7,190.6,235z"/>
	<path class="st1" d="M192.4,236.8c-1.3,0.3-2.3,0.9-3.5,1.5c-1.7,0.7-3.3,1.4-5.1,1.9c-2.9,0.9-6.2,1-9,2.1c-0.2,0.1-0.3,0.5,0,0.5
		c2.9,0.5,6.5-0.5,9.3-1.3c2.7-0.8,6.6-1.9,8.6-4C193.1,237.2,192.8,236.8,192.4,236.8z"/>
	<path class="st1" d="M191.4,239.8c-1.3,0.5-2.3,1.3-3.5,1.8c-1.4,0.6-2.9,1-4.4,1.3c-2.6,0.6-5.7,0.7-8.1,1.9
		c-0.3,0.2-0.1,0.7,0.2,0.7c1.4,0.1,2.8-0.3,4.1-0.5c1.7-0.3,3.5-0.6,5.1-1c2.4-0.6,5.6-1.5,7.1-3.7
		C192.1,240.2,191.8,239.7,191.4,239.8z"/>
</g>
</svg>
