<?xml version="1.0" encoding="utf-8"?>
<!-- Generator: Adobe Illustrator 25.0.0, SVG Export Plug-In . SVG Version: 6.00 Build 0)  -->
<svg version="1.1" id="Layer_1" xmlns="http://www.w3.org/2000/svg" xmlns:xlink="http://www.w3.org/1999/xlink" x="0px" y="0px"
	 viewBox="0 0 400 400" style="enable-background:new 0 0 400 400;" xml:space="preserve">
<style type="text/css">
	.st0{opacity:0.1;}
	.st1{fill-rule:evenodd;clip-rule:evenodd;fill:#895003;}
	.st2{fill-rule:evenodd;clip-rule:evenodd;fill:#FEFEFE;}
	.st3{fill:#895003;}
	.st4{fill:#FEFEFE;}
</style>
<g>
	<g class="st0">
		<path class="st1" d="M42.1,109.5l-9-27.9l2.6-0.8l9,27.9L42.1,109.5L42.1,109.5z M49.4,105.5c-1.2-0.7-2.2-1.8-2.8-3.3l0,0
			l-5.6-17.4c-0.5-1.5-0.3-3,0.3-4.3l0,0c0.6-1.2,1.7-2.2,3.1-2.7l0,0c1.4-0.5,2.8-0.3,4.1,0.4l0,0c1.2,0.7,2.2,1.8,2.8,3.3l0,0
			l5.6,17.4c0.5,1.5,0.3,3-0.3,4.3l0,0c-0.6,1.2-1.7,2.2-3.1,2.7l0,0C52.1,106.3,50.7,106.1,49.4,105.5L49.4,105.5L49.4,105.5z
			 M43.8,82c-0.3,0.6-0.4,1.3-0.1,2l0,0l5.6,17.4c0.2,0.7,0.7,1.2,1.3,1.5l0,0c0.6,0.3,1.3,0.4,2.1,0.2l0,0c0.7-0.3,1.2-0.7,1.6-1.4
			l0,0c0.3-0.6,0.4-1.3,0.1-2l0,0l-5.6-17.4c-0.2-0.7-0.7-1.2-1.3-1.5l0,0c-0.6-0.3-1.3-0.4-2-0.2l0,0C44.6,80.9,44.1,81.4,43.8,82
			L43.8,82L43.8,82z"/>
	</g>
	<g>
		<g class="st0">
			<path class="st2" d="M56.5,68.5l53,277l0.3,1.8v0.2l0.3,1.3l0.2,0.9l0,0l0.2,1.1c0,0.1,0.1,0.2,0.1,0.3c0.1,0.3,0.1,0.6,0.2,0.9
				v0.1c0.1,0.1,0.1,0.3,0.1,0.5c0.1,0.1,0.1,0.3,0.1,0.5c0.1,0.1,0.1,0.3,0.1,0.3c0.3,0.8,0.7,1.5,1.2,2.2l0.1,0.1l0.1,0.1
				c0.1,0.2,0.3,0.5,0.5,0.7c0.1,0.1,0.3,0.3,0.4,0.5c0,0,0,0,0.1,0.1c0.1,0.1,0.1,0.1,0.2,0.2c0.1,0.1,0.2,0.2,0.3,0.3
				c0.1,0.1,0.1,0.1,0.2,0.1c0.1,0.1,0.3,0.2,0.5,0.3c0,0,0,0,0.1,0.1c0,0,0,0,0.1,0c0.1,0.1,0.1,0.1,0.2,0.1
				c0.1,0.1,0.1,0.1,0.1,0.1l0,0c0.1,0.1,0.3,0.2,0.5,0.3c0.1,0.1,0.3,0.2,0.5,0.3c0,0,0.1,0,0.1,0.1c0.1,0,0.1,0.1,0.1,0.1
				c0.1,0.1,0.2,0.1,0.3,0.1c0.1,0,0.1,0.1,0.2,0.1c0.1,0,0.1,0.1,0.1,0.1c0.1,0,0.1,0.1,0.1,0.1c0.2,0.1,0.3,0.1,0.5,0.2
				c0,0,0,0,0.1,0s0.1,0,0.1,0c0.1,0,0.1,0,0.1,0c0.1,0.1,0.3,0.1,0.5,0.1c0.2,0.1,0.4,0.1,0.6,0.1l1.5,0.3l0.9,0.2
				c-1.2,0.1-2.3,0.1-3.4-0.1c-3.4-0.7-6.4-3.2-7.6-6.8c0-0.1-0.1-0.1-0.1-0.2c0-0.1,0-0.1-0.1-0.1l-0.3-1l0,0l-0.1-0.3L22.1,79.3
				c-1.8-5.5,1.2-11.4,6.8-13.2L219,5c5.5-1.8,11.4,1.2,13.2,6.8l3.6,11.3l0.1,0.5l0.1,0.5l-0.5,0.1L64.4,56.8
				C59,57.9,55.5,63.1,56.5,68.5z"/>
			<path class="st3" d="M236.6,23.4l-0.1-0.5l-3.7-11.4c-1.8-5.8-8.1-8.9-13.9-7.1L28.7,65.6c-5.8,1.8-8.9,8.1-7.1,13.9l88,273.6
				c1.2,3.7,4.3,6.4,7.8,7.3c0.1,0,0.1,0,0.1,0c0.9,0.2,1.7,0.3,2.6,0.3c0.4,0,0.8,0,1.2-0.1c0.5-0.1,0.9-0.1,1.4-0.3l-1.4-0.3
				l-0.9-0.2l-1.5-0.3c-0.2-0.1-0.4-0.1-0.6-0.1c-0.1-0.1-0.3-0.1-0.5-0.1c0,0-0.1,0-0.1,0c-0.3-0.1-0.6-0.1-0.9-0.3
				c-0.1-0.1-0.3-0.1-0.4-0.1c-0.3-0.1-0.6-0.3-0.9-0.4c-2.3-1.2-4-3.2-4.9-5.7c0-0.1-0.1-0.1-0.1-0.2l-0.3-0.9l-0.1-0.5l-0.5-1.6
				l-0.2-0.7l-0.5-1.5L22.7,79.2c-1.7-5.3,1.2-10.9,6.4-12.6l190-61.2c5.3-1.7,10.9,1.2,12.6,6.4l3.6,11.2l0.1,0.5l0.1,0.5l0.5-0.1
				l0.5-0.1L236.6,23.4z"/>
		</g>
		<g class="st0">
			<path class="st1" d="M59,129.7c-2.1,0.7-1.6,0.5-3.7,1.2c0.7-1.9,0.5-3.6-0.1-5.7c-2.3,1.5-5.9,3.9-8.7,2.7
				c-1.1-0.5-1.7-1.3-2.2-2.4c-1.7-4.1,3.8-13.5,5.7-17.6c0-0.1,0.1-0.1,0.1-0.2c4.4,2.6,15.6,6.9,15.1,12.7
				c-0.3,4.1-6.2,4.4-9.4,4.6C56.5,126.9,57.2,128.4,59,129.7L59,129.7z"/>
		</g>
		<g class="st0">
			<path class="st2" d="M274.8,39.9l-32.2,2.2l-1.1,0.1l-140.3,9.4c-5.5,0.4-9.7,5.1-9.3,10.7l18.1,271.1l0.3,4l0.3,4.1l0.1,0.9
				l0.1,2l0.1,2l-0.3,1.8c0,0.1-0.1,0.2-0.1,0.3c-0.1,0.3-0.1,0.5-0.1,0.8c0,0.1,0,0.2,0,0.3c0,0.7,0,1.4,0.1,2c0,0.1,0,0.1,0.1,0.2
				l0,0c0,0.1,0.1,0.2,0.1,0.3V352c-0.1-0.3-0.1-0.6-0.2-0.9c0-0.1-0.1-0.2-0.1-0.3l-0.2-1.1l0,0l-0.2-0.9l-0.3-1.3v-0.2l-0.3-1.8
				l-53.1-277c-1.1-5.5,2.5-10.7,8-11.7l171.3-32.7l0.5-0.1l0.5-0.1l23.9-4.6c0.7-0.1,1.2-0.2,1.9-0.2c2,0,3.9,0.6,5.6,1.7
				c2.2,1.5,3.7,3.7,4.2,6.4l2.2,11.7l0.1,0.5L274.8,39.9z"/>
			<path class="st2" d="M275.3,39.9h-0.5l-0.1-0.5l-0.1-0.5l-2.2-11.7c-0.5-2.6-2-4.9-4.2-6.4c-1.7-1.1-3.6-1.7-5.6-1.7
				c-0.7,0-1.2,0.1-1.9,0.2L236.8,24l-0.5,0.1l-0.5,0.1L64.4,56.8c-5.5,1.1-9,6.3-8,11.7l53,277l0.3,1.8v0.2l0.3,1.3l0.2,0.9l0,0
				l0.2,1.1c0,0.1,0.1,0.2,0.1,0.3c0.1,0.3,0.1,0.6,0.2,0.9v0.1c0.1,0.1,0.1,0.3,0.1,0.5c0.1,0.1,0.1,0.3,0.1,0.5
				c0.1,0.1,0.1,0.3,0.1,0.3c0.3,0.8,0.7,1.5,1.2,2.2l0.1,0.1l0.1,0.1c0.1,0.2,0.3,0.5,0.5,0.7c0.1,0.1,0.3,0.3,0.4,0.5
				c0,0,0,0,0.1,0.1c0.1,0.1,0.1,0.1,0.2,0.2c-1.3-1.1-2.4-2.5-3-4.1c-0.1-0.3-0.2-0.6-0.3-0.9c-0.1-0.3-0.1-0.5-0.2-0.7
				c0-0.1-0.1-0.3-0.1-0.5l-0.4-2.1l-0.3-1.2L56,68.7c-1.1-5.7,2.6-11.2,8.4-12.3l171.2-32.7l0.5-0.1l0.5-0.1l24-4.6
				c5.7-1.1,11.2,2.6,12.3,8.4L275,39l0.1,0.5L275.3,39.9z"/>
			<path class="st3" d="M275.7,39.4l-0.1-0.5L273.4,27c-0.5-2.9-2.2-5.4-4.6-7c-2.4-1.6-5.4-2.2-8.2-1.7l-24.1,4.6L236,23l-0.5,0.1
				L64.3,55.8c-6,1.1-9.9,6.9-8.7,12.9l53.3,278.7l0.7,3.6c0,0.2,0.1,0.3,0.1,0.5c0.1,0.2,0.1,0.5,0.2,0.7c0.1,0.3,0.2,0.6,0.3,0.9
				c0,0.1,0.1,0.1,0.1,0.2c0.7,1.7,1.8,3.2,3.2,4.3c0.3,0.2,0.5,0.4,0.8,0.6c1.8,1.2,3.9,1.9,6.2,1.9l0,0l-1.5-0.3
				c-0.2-0.1-0.4-0.1-0.6-0.1c-0.1-0.1-0.3-0.1-0.5-0.1c0,0-0.1,0-0.1,0h-0.1c0,0,0,0-0.1,0c-0.2-0.1-0.3-0.1-0.5-0.2
				c-0.1,0-0.1,0-0.1-0.1c-0.1,0-0.1-0.1-0.1-0.1c-0.1,0-0.1-0.1-0.2-0.1c-0.1-0.1-0.2-0.1-0.3-0.1c-0.1,0-0.1-0.1-0.1-0.1
				s-0.1,0-0.1-0.1c-0.1-0.1-0.3-0.2-0.5-0.3c-0.1-0.1-0.3-0.2-0.5-0.3l0,0c-0.1,0-0.1-0.1-0.1-0.1c-0.1-0.1-0.1-0.1-0.2-0.1
				c0,0,0,0-0.1,0c0,0-0.1,0-0.1-0.1c-0.1-0.1-0.3-0.2-0.5-0.3c-0.1-0.1-0.1-0.1-0.2-0.1c-0.1-0.1-0.2-0.2-0.3-0.3
				c-0.1-0.1-0.1-0.1-0.2-0.2c0,0,0,0-0.1-0.1c-0.1-0.1-0.3-0.3-0.4-0.5c-0.2-0.2-0.3-0.4-0.5-0.7l-0.1-0.1l-0.1-0.1
				c-0.5-0.7-0.9-1.4-1.2-2.2c-0.1-0.1-0.1-0.3-0.1-0.3c-0.1-0.1-0.1-0.3-0.1-0.5c-0.1-0.1-0.1-0.3-0.1-0.5v-0.1
				c-0.1-0.3-0.1-0.6-0.2-0.9c0-0.1-0.1-0.2-0.1-0.3l-0.2-1.1l0,0l-0.2-0.9l-0.3-1.3v-0.2l-0.3-1.8L56.5,68.5
				c-1.1-5.5,2.5-10.7,8-11.7l171.3-32.7l0.5-0.1l0.5-0.1l23.9-4.6c0.7-0.1,1.2-0.2,1.9-0.2c2,0,3.9,0.6,5.6,1.7
				c2.2,1.5,3.7,3.7,4.2,6.4l2.2,11.7l0.1,0.5l0.1,0.5h0.5l0.5-0.1L275.7,39.4z"/>
		</g>
		<g class="st0">
			<path class="st1" d="M86.6,123.1c-2.2,0.4-1.6,0.3-3.7,0.7c0.9-1.8,0.9-3.5,0.6-5.7c-2.5,1.2-6.3,3.2-9,1.6
				c-1.1-0.6-1.6-1.5-1.8-2.6c-1.2-4.3,5.5-13,7.8-16.8c0-0.1,0.1-0.1,0.1-0.2c4.1,3.1,14.7,8.7,13.5,14.5c-0.8,4-6.7,3.6-9.9,3.4
				C84.4,120.2,84.9,121.7,86.6,123.1L86.6,123.1z"/>
		</g>
		<g class="st0">
			<path class="st1" d="M83.5,64.2l-11,2.2l0.6,3.2l4.2-0.8l3.9,20.6v0.1c0,0,0,0.1,0.1,0.3c0.1,0.3,0.1,0.8,0.1,1.4
				c0,0.9-0.1,1.8-0.6,2.6c-0.3,0.4-0.6,0.8-1.1,1.1c-0.5,0.3-1.1,0.6-2,0.8c0,0,0,0-0.1,0c-1.2,0.3-2.2,0.1-2.9-0.2
				c-0.5-0.2-0.9-0.5-1.3-0.9c-0.5-0.6-0.9-1.2-1.2-1.9c-0.3-0.7-0.4-1.2-0.4-1.4v-0.1l0,0l0,0l-0.6-3.5l-2.9,0.5l0.6,3.5
				c0,0.1,0,0.1,0,0.2c0.1,0.6,0.5,2.5,1.9,4.3c0.7,0.9,1.6,1.8,2.9,2.3c1.2,0.5,2.8,0.7,4.4,0.4l0,0c0,0,0,0,0.1,0l0,0
				c1.6-0.3,2.8-0.9,3.7-1.8c0.7-0.7,1.2-1.4,1.5-2.2c0.5-1.2,0.7-2.3,0.7-3.3c0-1-0.1-1.8-0.2-2.3c-0.1-0.2-0.1-0.4-0.1-0.5
				l-3.9-20.5l4-0.8L83.5,64.2L83.5,64.2z"/>
		</g>
		<g class="st0">
			<path class="st2" d="M312.2,61.5l-32.7-1.8H279h-0.5L247.6,58h-0.5h-0.5l-109.8-6c-0.2,0-0.4,0-0.6,0c-5.3,0-9.7,4.1-10,9.5
				l-15.5,280.1l-0.3-4.1l-0.3-4L92,62.2c-0.4-5.5,3.8-10.3,9.3-10.7l140.3-9.4l1.1-0.1l32.2-2.2h0.5l0.5-0.1l24.8-1.6
				c5.5-0.4,10.3,3.8,10.7,9.3l0.9,13l0.1,0.5L312.2,61.5z"/>
			<path class="st2" d="M312.7,61.5h-0.5V61l-0.1-0.5l-0.9-13c-0.4-5.5-5.1-9.7-10.7-9.3l-24.9,1.6l-0.5,0.1h-0.5l-32.2,2.2
				l-1.1,0.1l-140.2,9.4c-5.5,0.4-9.7,5.1-9.3,10.7l18.1,271.1l0.3,4l0.3,4.1l0.1,0.9l0.1,2l0.1,2l-0.3,1.8c0,0.1-0.1,0.2-0.1,0.3
				l-0.1-2l-0.1-0.8l-0.1-1.2l-0.2-2.8l-0.2-4.1L91.5,62.2c-0.4-5.8,3.9-10.8,9.8-11.2l140.1-9.4l0.5-0.1l0.5-0.1l32.3-2.2l0.5-0.1
				h0.5l24.9-1.6c5.8-0.4,10.8,3.9,11.2,9.8l0.9,13V61L312.7,61.5z"/>
			<path class="st3" d="M313.2,61l-0.1-0.5l-0.9-13.1c-0.4-6-5.7-10.7-11.7-10.3l-25,1.6l-0.5,0.1h-0.5l-32.4,2.2h-0.5l-0.5,0.1
				l-139.9,9.4c-6,0.4-10.7,5.7-10.3,11.7l18.7,279.1l0.3,4l0.1,0.8l0.1,2.1l0.1,0.7c0,0.2,0.1,0.5,0.1,0.7l0,0
				c0.1,0.4,0.1,0.7,0.2,1.1c0,0.1,0.1,0.2,0.1,0.3c0.1,0.2,0.1,0.4,0.2,0.6c0-0.1,0-0.1-0.1-0.2c-0.1-0.7-0.1-1.3-0.1-2
				c0-0.1,0-0.2,0-0.3c0-0.3,0.1-0.5,0.1-0.8c0-0.1,0-0.2,0.1-0.3l0.3-1.8l-0.1-2l-0.1-2l-0.1-0.9l-0.3-4.1l-0.3-4L92,62.2
				c-0.4-5.5,3.8-10.3,9.3-10.7l140.3-9.4l1.1-0.1l32.2-2.2h0.5l0.5-0.1l24.8-1.6c5.5-0.4,10.3,3.8,10.7,9.3l0.9,13l0.1,0.5v0.5h0.5
				h0.5L313.2,61z"/>
		</g>
		<g class="st0">
			<path class="st1" d="M112.3,120.1c-2.2,0.1-1.6,0.1-3.8,0.3c1.1-1.6,1.3-3.4,1.2-5.5c-2.6,0.9-6.6,2.4-9.1,0.5
				c-1-0.7-1.4-1.7-1.5-2.8c-0.7-4.4,7-12.2,9.7-15.7c0.1-0.1,0.1-0.1,0.1-0.1c3.7,3.6,13.5,10.5,11.6,16c-1.3,3.9-7.1,2.8-10.3,2.2
				C110.6,116.8,110.9,118.4,112.3,120.1L112.3,120.1z"/>
		</g>
		<g class="st0">
			<path class="st1" d="M98.7,83.1l-0.3-3.6l2.7-0.2c0,0,0,0.3-0.3-4.7c-0.5-6.9-0.2-9.1,1.1-10.9c3.4-5,10.3-4,12.6,1.8
				c0.2,0.5,0.5,1.6,0.7,3.1c0.3,3.9,0.8,10.5,0.9,14.6c0.2,1.6-0.3,3.7-0.7,4.1c0.3,1.4,2.6,1.6,4,1.4l0.3,3.8c0,0-1.4,0.3-3.2,0.2
				c-0.7,0-2.5-1.2-2.5-1.2s-2.5,2-4.9,2.1c-7.8,0.3-7.6-9.5-7.6-10.5L98.7,83.1L98.7,83.1z M105,83.7c0,0,0.1,1.4,0.3,2.3
				c0.5,3,2.6,4.4,4.5,3.7c1-0.4,1.5-1,1.5-1C109.5,86.4,107.3,84.4,105,83.7L105,83.7z M111.3,68.1c-1.1-4.5-5.5-4.9-6.8-0.9
				c-0.3,0.7-0.1,6.2-0.1,6.2l0.5,6.5c3.6,0.5,5.6,2.6,8,5C112.7,84.8,112.4,73.1,111.3,68.1L111.3,68.1z"/>
		</g>
		<g class="st0">
			<path class="st2" d="M345.6,73.3l-0.7,13.5v0.5v0.5l-30.2-5.4l-0.5-0.1l-0.5-0.1l-30.8-5.5l-0.2-0.1l-0.3-0.1l-0.5-0.1l-29.9-5.4
				l-0.5-0.1l-0.4-0.1l-0.2-0.1L173,57c-0.6-0.1-1.2-0.1-1.8-0.1c-4.7,0-9,3.4-9.9,8.3L111,346.3l-0.1-2l-0.1-2l-0.1-0.9l15.5-280.1
				c0.3-5.3,4.7-9.5,10-9.5c0.2,0,0.4,0,0.6,0l109.8,6h0.5h0.5l30.9,1.7h0.5h0.5l32.7,1.8h0.5h0.5l23,1.2c2.7,0.1,5.1,1.3,6.9,3.3
				C344.9,68.1,345.8,70.6,345.6,73.3z"/>
			<polygon class="st2" points="250.8,71 251,71 173,57 			"/>
			<polygon class="st2" points="282.9,76.8 313.6,82.3 282.6,76.7 			"/>
			<path class="st2" d="M346.2,73.4L345.5,87v0.5v0.5L345,88v-0.5v-0.5l0.7-13.5c0.1-2.7-0.7-5.3-2.6-7.2c-1.8-2-4.2-3.2-6.9-3.3
				l-23-1.2h-0.5h-0.5l-32.6-2H279h-0.5L247.6,58h-0.5h-0.5l-109.8-6c-0.2,0-0.4,0-0.6,0c-5.3,0-9.7,4.1-10,9.5l-15.5,280.1l0.1,0.9
				l0.1,2l0.1,2l-0.3,1.8c0,0.1-0.1,0.2-0.1,0.3c-0.1,0.3-0.1,0.5-0.1,0.8c0,0.1,0,0.2,0,0.3c0,0.7,0,1.4,0.1,2c0,0.1,0,0.1,0.1,0.2
				l0,0c0,0.1,0,0.2,0.1,0.3c0.1,0.2,0.1,0.4,0.1,0.5c0.1,0.1,0.1,0.3,0.1,0.5c0.1,0.1,0.1,0.3,0.1,0.3c0.3,0.8,0.7,1.5,1.2,2.2
				l0.1,0.1c-1.1-1.2-1.8-2.6-2.2-4.1c-0.3-1.1-0.5-2.2-0.4-3.4v-0.6v-0.5l0.1-1.6l0.2-4.1l0.2-4.1l15.4-276.2
				c0.3-5.8,5.3-10.3,11-9.9l109.6,6h0.5h0.5l31,1.7h0.5h0.5l32.7,1.8h0.5h0.5l23,1.2C342,62.6,346.5,67.6,346.2,73.4z"/>
			<path class="st3" d="M343.9,65.4c-2-2.2-4.7-3.5-7.6-3.6l-23.1-1.2h-0.5h-0.5l-32.8-1.8h-0.5h-0.5l-31-1.7h-0.5h-0.5l-109.4-6
				c-6-0.3-11.2,4.3-11.6,10.4l-15.1,272.2l-0.3,3.9l-0.2,4.1l-0.2,4.1l-0.1,2v0.5c0,0.3,0,0.6,0,0.9c0,0.9,0.1,1.8,0.4,2.6
				c0.5,1.6,1.2,3.2,2.4,4.4l0,0c1.2,1.3,2.6,2.3,4.3,3c0.1,0.1,0.3,0.1,0.4,0.1c0.3,0.1,0.5,0.1,0.8,0.2h-0.1
				c-0.2-0.1-0.3-0.1-0.5-0.2c-0.1,0-0.1,0-0.1-0.1c-0.1,0-0.1-0.1-0.1-0.1c-0.1,0-0.1-0.1-0.2-0.1c-0.1-0.1-0.2-0.1-0.3-0.1
				c-0.1,0-0.1-0.1-0.1-0.1s-0.1,0-0.1-0.1c-0.2-0.1-0.3-0.2-0.5-0.3c-0.1-0.1-0.3-0.2-0.5-0.3l0,0c-0.1,0-0.1-0.1-0.1-0.1
				c-0.1-0.1-0.1-0.1-0.2-0.1c0,0,0,0-0.1,0c0,0-0.1,0-0.1-0.1c-0.1-0.1-0.3-0.2-0.5-0.3c-0.1-0.1-0.1-0.1-0.2-0.1
				c-0.1-0.1-0.2-0.2-0.3-0.3c-0.1-0.1-0.1-0.1-0.2-0.2c0,0,0,0-0.1-0.1c-0.1-0.1-0.3-0.3-0.4-0.5c-0.2-0.2-0.3-0.4-0.5-0.7
				l-0.1-0.1l-0.1-0.1c-0.5-0.7-0.9-1.4-1.2-2.2c-0.1-0.1-0.1-0.3-0.1-0.3c-0.1-0.1-0.1-0.3-0.1-0.5c-0.1-0.2-0.1-0.4-0.1-0.5
				c0-0.1-0.1-0.2-0.1-0.3l0,0c0-0.1,0-0.1-0.1-0.2c-0.3-1.1-0.5-2.2-0.4-3.4l0.1-1.1l0.1-1.6l0.1-2.4l0.1-1.6l15.5-280.1
				c0.3-5.3,4.7-9.5,10-9.5c0.2,0,0.4,0,0.6,0l109.8,6h0.5h0.5l30.9,1.7h0.5h0.5l32.7,1.8h0.5h0.5l23,1.2c2.7,0.1,5.1,1.3,6.9,3.3
				c1.8,2,2.7,4.5,2.6,7.2L345,86.8v0.5v0.5l0.5,0.1l0.5,0.1v-0.5v-0.5l0.7-13.7C346.8,70.4,345.8,67.6,343.9,65.4z"/>
		</g>
		<g class="st0">
			<path class="st1" d="M140,121.5c-2.2-0.1-1.6-0.1-3.8-0.2c1.3-1.5,1.7-3.2,1.9-5.3c-2.7,0.6-6.8,1.6-9.1-0.6
				c-0.9-0.9-1.1-1.8-1.2-3c-0.1-4.5,8.4-11.2,11.6-14.4c0.1-0.1,0.1-0.1,0.1-0.1c3.2,3.9,12.1,12,9.6,17.3
				c-1.8,3.7-7.4,1.9-10.5,0.9C138.6,118,138.8,119.6,140,121.5L140,121.5z"/>
		</g>
		<g class="st0">
			<polygon class="st1" points="130.7,62.2 130.6,65.2 133.5,65.3 132,91.5 128.8,91.3 128.7,94.4 137.4,94.9 137.6,91.8 
				135.3,91.7 135.8,84.1 139.8,79.4 144.2,92.1 141,92 140.8,95.1 150.4,95.6 150.5,92.5 147.9,92.3 142.1,76 149.5,66.2 
				151.7,66.3 151.8,63.4 142.6,62.9 142.5,65.8 145.4,66 136.1,77.9 136.7,65.4 139,65.6 139.2,62.8 			"/>
		</g>
		<g class="st0">
			<path class="st2" d="M369.8,91.8l-23.9-4.3l-0.5-0.1l-0.5-0.1L314.6,82l-0.5-0.1l-0.5-0.1l-30.8-5.5l-0.5-0.1l-0.5-0.1l-30-5.4
				l-0.5-0.1l-0.5-0.3l-77.5-13.9c-5.7-1.1-11.2,2.8-12.2,8.5l-50,279.2l-0.4,2l-0.1,0.8l-0.1,0.9c0,0.1-0.1,0.3-0.1,0.4
				c0,0.2-0.1,0.3-0.1,0.5c-0.1,0.9-0.1,1.8,0.1,2.7c0,0.1,0,0.2,0.1,0.3c0,0.1,0,0.2,0.1,0.3c0.3,1.4,0.9,2.8,1.8,3.9l0,0
				c0.4,0.5,0.8,1,1.2,1.4c1.2,1.2,2.8,2,4.5,2.5c0.3,0.1,0.6,0.1,0.9,0.2l2.6,0.5l194,34.8c5.7,1.1,11.2-2.8,12.2-8.5L378.2,104
				C379.3,98.3,375.5,92.9,369.8,91.8z M377.8,104l-50.7,282.9c-1,5.5-6.2,9.1-11.6,8.1l-192.8-34.6l-1.4-0.3l-0.9-0.2l-1.5-0.3
				c-0.3-0.1-0.7-0.1-0.9-0.2c-0.1,0-0.2-0.1-0.3-0.1c-1.4-0.5-2.7-1.2-3.8-2.2c-0.5-0.5-0.9-0.9-1.2-1.4c-0.1-0.1-0.1-0.1-0.1-0.1
				c-0.7-1.1-1.2-2.2-1.5-3.5c0-0.1-0.1-0.2-0.1-0.3c0-0.1,0-0.1-0.1-0.2c-0.2-1.1-0.2-2.1,0-3.2c0-0.1,0-0.2,0.1-0.3l0.3-1.8
				l50.3-281c0.9-4.9,5.1-8.3,9.9-8.3c0.6,0,1.2,0.1,1.8,0.1L250.8,71l0.5,0.1l0.5,0.1l29.9,5.4l0.5,0.1l0.5,0.1l30.8,5.5l0.5,0.1
				l0.5,0.1l30.2,5.4l0.5,0.1l0.5,0.1l23.9,4.3C375.1,93.3,378.8,98.5,377.8,104z"/>
			<path class="st3" d="M369.8,91.4l-24-4.3l-0.5-0.1l-0.5-0.1l-30.4-5.5l-0.5-0.1l-0.5-0.1l-30.9-5.5l-0.5-0.1l-0.5-0.1l-30.1-5.4
				l-0.5-0.1l-0.5-0.1l-77.1-14.1c-6-1.1-11.7,2.9-12.8,8.9l-49.7,277.2l-0.1,0.8l-0.2,1.2l-0.4,2l-0.1,0.8l-0.1,0.3l-0.1,0.5
				c-0.1,0.3-0.1,0.7-0.1,1c0,0.3-0.1,0.6-0.1,0.9c0,0.7,0.1,1.3,0.1,1.9c0,0.1,0,0.1,0.1,0.3l0,0c0,0.1,0.1,0.2,0.1,0.3
				c0.3,1.4,0.9,2.8,1.7,3.9c1.4,2,3.5,3.6,5.9,4.3c0.1,0,0.1,0,0.1,0c0.4,0.1,0.7,0.2,1.1,0.3l196.6,35.2c0.7,0.1,1.3,0.2,2,0.2
				c2.2,0,4.4-0.7,6.2-2c2.4-1.7,4-4.2,4.5-7.1L378.7,104C379.8,98.1,375.8,92.4,369.8,91.4z M377.8,104l-50.7,282.9
				c-1,5.5-6.2,9.1-11.6,8.1l-192.8-34.6l-1.4-0.3l-0.9-0.2l-1.5-0.3c-0.3-0.1-0.7-0.1-0.9-0.2c-0.1,0-0.2-0.1-0.3-0.1
				c-1.4-0.5-2.7-1.2-3.8-2.2c-0.5-0.5-0.9-0.9-1.2-1.4c-0.1-0.1-0.1-0.1-0.1-0.1c-0.7-1.1-1.2-2.2-1.5-3.5c0-0.1-0.1-0.2-0.1-0.3
				c0-0.1,0-0.1-0.1-0.2c-0.2-1.1-0.2-2.1,0-3.2c0-0.1,0-0.2,0.1-0.3l0.3-1.8l50.3-281c0.9-4.9,5.1-8.3,9.9-8.3
				c0.6,0,1.2,0.1,1.8,0.1L250.8,71l0.5,0.1l0.5,0.1l29.9,5.4l0.5,0.1l0.5,0.1l30.8,5.5l0.5,0.1l0.5,0.1l30.2,5.4l0.5,0.1l0.5,0.1
				l23.9,4.3C375.1,93.3,378.8,98.5,377.8,104z"/>
			<path class="st4" d="M377.8,104l-50.7,282.9c-1,5.5-6.2,9.1-11.6,8.1l-192.8-34.6l-1.4-0.3l-0.9-0.2l-1.5-0.3
				c-0.3-0.1-0.7-0.1-0.9-0.2c-0.1,0-0.2-0.1-0.3-0.1l0,0c-1.4-0.5-2.8-1.2-3.9-2.2c-0.5-0.5-0.9-0.9-1.2-1.4
				c-0.1-0.1-0.1-0.1-0.1-0.1c-0.7-1.1-1.2-2.2-1.5-3.5c0-0.1-0.1-0.2-0.1-0.3c0-0.1,0-0.1-0.1-0.2c-0.2-1.1-0.2-2.1,0-3.2
				c0-0.1,0-0.2,0.1-0.3l0.3-1.8l50.3-281.1c0.9-4.9,5.1-8.3,9.9-8.3c0.6,0,1.2,0.1,1.8,0.1L250.8,71l0.5,0.1l0.5,0.1l29.9,5.4
				l0.5,0.1l0.5,0.1l30.8,5.5l0.5,0.1l0.5,0.1l30.2,5.4l0.5,0.1l0.5,0.1l23.9,4.3C375.1,93.3,378.8,98.5,377.8,104z"/>
		</g>
		<g class="st0">
			<polygon class="st1" points="189.6,86 144,338.5 298.6,366.2 343.7,114 			"/>
		</g>
		<g class="st0">
			<polygon class="st2" points="191.4,88.6 146.6,336.6 296.7,363.6 341.1,115.9 			"/>
		</g>
		<g class="st0">
			<path class="st1" d="M169.9,124.4c-2.2-0.4-1.6-0.3-3.7-0.7c1.5-1.3,2-3,2.6-5.1c-2.8,0.3-7,0.7-9-1.7c-0.8-0.9-0.9-2-0.8-3.1
				c0.4-4.5,9.7-10.1,13.3-12.9c0.1-0.1,0.1-0.1,0.1-0.1c2.7,4.3,10.5,13.4,7.4,18.3c-2.2,3.5-7.6,1-10.5-0.4
				C169,120.8,168.9,122.5,169.9,124.4L169.9,124.4z"/>
		</g>
		<g class="st0">
			<path class="st1" d="M320.3,319.8c2.2,0.4,1.6,0.3,3.7,0.7c-1.5,1.3-2,3-2.6,5.1c2.8-0.3,7-0.7,9,1.7c0.8,0.9,0.9,2,0.8,3.1
				c-0.4,4.5-9.7,10.1-13.3,12.9c-0.1,0.1-0.1,0.1-0.1,0.1c-2.7-4.3-10.5-13.4-7.4-18.3c2.2-3.5,7.6-1,10.5,0.4
				C321.3,323.4,321.4,321.8,320.3,319.8L320.3,319.8z"/>
		</g>
		<g class="st0">
			<polygon class="st1" points="262.3,125.8 250,197.2 269.8,127.7 251.3,197.6 277.2,130.3 252.6,198.1 284.3,133.8 253.9,198.9 
				291,138 255,199.7 297.2,143 256.1,200.6 303,148.7 257.1,201.7 308.1,155.1 257.9,202.9 312.7,161.9 258.7,204.2 316.6,169.3 
				259.3,205.6 319.8,177.2 259.8,207 322.3,185.4 260.2,208.5 324,193.8 260.5,210 324.9,202.5 260.6,211.6 325.1,211.2 
				260.6,213.2 324.5,220 260.4,214.8 323.1,228.7 260,216.3 321,237.2 259.6,217.8 318.1,245.5 259,219.3 314.5,253.4 258.3,220.7 
				310.2,261 257.5,222 305.3,268 256.5,223.2 299.8,274.6 255.5,224.3 293.8,280.5 254.4,225.4 287.3,285.7 253.1,226.2 
				280.4,290.2 251.9,226.9 273.1,293.9 250.6,227.5 265.6,296.9 249.2,228 257.9,299 247.8,228.3 250.1,300.2 246.4,228.5 
				242.2,300.6 245,228.5 234.5,300.1 243.6,228.3 226.8,298.7 242.2,227.9 219.3,296.4 240.9,227.5 212,293.4 239.6,226.9 
				205.1,289.5 238.4,226.1 198.7,284.9 237.3,225.2 192.7,279.5 236.2,224.2 187.2,273.5 235.3,223 182.3,266.9 234.5,221.8 
				178.1,259.8 233.8,220.4 174.6,252.1 233.2,219.1 171.7,244.1 232.7,217.5 169.6,235.8 232.5,216 168.2,227.2 232.3,214.5 
				167.7,218.5 232.3,212.9 167.9,209.7 232.3,211.4 168.9,201 232.6,209.8 170.7,192.4 233,208.3 173.2,183.9 233.5,206.8 
				176.5,175.9 234.2,205.3 180.4,168.1 234.9,204 185,160.7 235.8,202.7 190.2,154 236.8,201.6 196,147.7 237.9,200.4 202.2,142.1 
				239.1,199.5 208.9,137.3 240.3,198.7 216,133.1 241.6,198.1 223.5,129.8 242.9,197.6 231,127.3 244.3,197.2 238.8,125.6 
				245.8,196.9 246.7,124.8 247.1,196.8 254.5,124.9 248.6,197 			"/>
		</g>
		<g class="st0">
			<path class="st1" d="M249.2,247.6c0.3,5.4,2.4,10.4,5.5,15.3l6,9.5l-11.1-2c-8.7-1.6-17.4-3.2-26.2-4.7l-11.2-2l9-6.8
				c4.6-3.5,8.2-7.4,10.3-12.4c-5.5,0.3-10.8,0.1-16.2-1.1c-6.3-1.4-12-3.9-16-9.2c-3.8-5.1-4.7-10.9-4-17.1c1-9.9,5.9-17.8,13-24.4
				c5.3-4.9,11.1-9.3,16.6-13.9c9-7.6,18-15.2,27-22.8c0.3-0.2,0.5-0.5,0.8-0.7l4.5-3.6l2.8,5c0.3,0.5,0.6,1.1,0.9,1.6
				c8.5,14.8,17,29.6,25.4,44.4c3.9,6.8,6.7,14,7,22c0.2,6.2-1.1,12.2-4.3,17.6c-4.2,7-11,10.3-19.1,10.3
				C262.9,252.7,256,250.6,249.2,247.6L249.2,247.6z"/>
		</g>
		<g class="st0">
			<path class="st2" d="M246.8,243.8c-0.7,7.4,1.7,14,5.7,20.5l3,4.7l-5.5-1c-8.7-1.6-17.4-3.2-26.2-4.7l-5.6-1l4.5-3.4
				c6-4.6,10.5-10,12.4-17.1c-6.4,0.7-12.9,0.7-19.3-0.7c-5.7-1.2-10.8-3.5-14.5-8.3c-3.4-4.5-4.1-9.8-3.6-15.3
				c0.9-9.2,5.5-16.7,12.2-22.8c5.3-4.9,11-9.3,16.6-13.9c9-7.6,18-15.2,27.1-22.8c0.3-0.2,0.5-0.4,0.7-0.6l2.2-1.8l1.4,2.5
				c0.3,0.5,0.6,1.1,0.9,1.6c8.5,14.8,17,29.6,25.4,44.4c3.7,6.5,6.4,13.3,6.7,20.8c0.2,5.7-0.9,11.2-3.9,16.2
				c-3.7,6.3-9.7,9.1-16.9,9.1C261.9,250.2,254.3,247.4,246.8,243.8L246.8,243.8z"/>
		</g>
		<g class="st0">
			<path class="st1" d="M250.5,265.5c-8.7-1.6-17.4-3.2-26.2-4.7c7.4-5.6,12.6-12.4,14-22c-1.2,0.1-2.2,0.3-3.3,0.4
				c-6.2,0.7-12.4,0.7-18.5-0.7c-5.1-1.1-9.8-3-13-7.4c-3-4.1-3.6-8.7-3.1-13.6c0.9-8.7,5.3-15.6,11.4-21.2
				c5.3-4.9,11-9.2,16.5-13.8c9-7.6,18-15.2,27.1-22.8c0.2-0.1,0.4-0.3,0.7-0.5c0.3,0.6,0.7,1.1,0.9,1.6c8.5,14.8,17,29.6,25.4,44.4
				c3.5,6.1,6.1,12.6,6.4,19.7c0.2,5.3-0.9,10.3-3.6,14.8c-3.4,5.6-8.5,7.9-14.8,7.9c-8.6,0-16.4-3-23.9-6.9
				c-0.4-0.2-0.9-0.4-1.6-0.8C242.9,249.4,245.5,257.7,250.5,265.5L250.5,265.5z"/>
		</g>
		<g class="st0">
			<path class="st1" d="M162.2,95.4l0.5-2.7l2.6,0.5L176,65.4l3.2,0.6l1,29.9l2.1,0.4l-0.5,2.7l-7.2-1.3L175,95l2,0.3v-4.5l-7.3-1.3
				l-1.4,4.3l2,0.3l-0.5,2.7L162.2,95.4L162.2,95.4z M177,87.5l-0.4-16l-5.7,14.9L177,87.5L177,87.5z"/>
		</g>
		<g class="st0">
			<path class="st1" d="M327,350.6l-0.5,2.7l-2.6-0.5l-10.7,27.8l-3.2-0.6l-1-29.9l-2.1-0.4l0.5-2.7l7.2,1.3l-0.5,2.7l-2-0.3v4.5
				l7.2,1.3l1.4-4.3l-2-0.3l0.5-2.7L327,350.6L327,350.6z M312.2,358.5l0.4,16l5.7-14.9L312.2,358.5L312.2,358.5z"/>
		</g>
		<g class="st0">
			<path class="st3" d="M200,285.9c0.5-0.1,1.1,0.1,1.6,0.2c0.5,0.2,1,0.5,1.4,0.8c0.4,0.4,0.8,0.8,1.1,1.4c0.3,0.5,0.5,1.1,0.7,1.6
				c0.5-0.1,0.9-0.1,1.2,0s0.7,0.2,1.1,0.4l0.1,0.1c-0.6,0-1.1,0.1-1.4,0.2c-0.5,0.1-0.9,0.4-1.2,0.8c-0.6,0.7-1.3,1.6-2.3,2.8
				c-0.3,0.4-0.8,0.9-1.3,1.6c-0.3,0.3-0.4,0.5-0.5,0.7c-0.1,0.3-0.2,0.5-0.2,0.7l0.7,0.1v0.4l-2.5-0.1c-0.1-0.3-0.1-0.7-0.1-1.1
				c0.1-0.4,0.2-0.8,0.4-1.1l-3-0.2l-1-2.5c0-0.1-0.1-0.2-0.1-0.3c-0.1-0.1-0.1-0.3-0.2-0.3c-0.1-0.1-0.2-0.1-0.3-0.1
				s-0.2,0.1-0.3,0.2s-0.2,0.3-0.3,0.3c-0.1,0.1-0.1,0.3-0.1,0.4l-0.6-0.2c-0.1-0.2,0-0.3,0.1-0.4c0.1-0.1,0.2-0.2,0.3-0.3
				c0.1-0.1,0.2-0.2,0.4-0.3c0.2-0.1,0.5-0.2,0.8-0.3l2.6-0.7c-0.1-0.7-0.1-1.2,0-1.6c0.1-0.5,0.3-1.1,0.6-1.6
				c0.1-0.1,0.1-0.1,0.2-0.3c0.1-0.1,0.1-0.2,0.2-0.3c0.3-0.3,0.7-0.6,1.1-0.8C199.1,286.1,199.5,286,200,285.9L200,285.9z
				 M197.2,294.9l1.8,0.1l0.9-1l-3.1-2.8l-1,0.3L197.2,294.9L197.2,294.9z M198.1,290.9l2.4,2.2l2.4-2.8l0.1-0.5l-0.1-0.1
				L198.1,290.9L198.1,290.9z M199.1,288.7c0.1-0.2,0.2-0.4,0.3-0.5c0.3-0.3,0.7-0.5,1.1-0.3c0.3,0.1,0.6,0.3,1.1,0.7
				c0.3,0.2,0.5,0.5,0.6,0.7l0.7-0.1c-0.1-0.3-0.3-0.6-0.5-0.8c-0.2-0.2-0.4-0.5-0.6-0.7c-0.7-0.6-1.4-0.9-2.2-0.8
				c-0.8,0-1.4,0.3-1.9,0.9c-0.3,0.3-0.5,0.7-0.6,1.2c-0.1,0.5-0.1,1.1,0,1.6l3.7-1c0-0.1,0-0.3-0.1-0.4c-0.1-0.1-0.1-0.3-0.3-0.3
				c-0.2-0.2-0.4-0.3-0.7-0.3C199.6,288.5,199.3,288.6,199.1,288.7L199.1,288.7z M204.6,299.6l0.1,0.3c-0.9,0.1-1.7,0.2-2.5,0.3
				c-0.1-0.5-0.3-0.9-0.5-1.1c-0.2-0.3-0.5-0.7-0.7-0.9c0.2-0.1,0.5-0.3,0.9-0.8c0.3-0.3,0.5-0.7,0.8-1.1c0.5-0.7,0.8-1.2,1.1-1.7
				c0.3-0.4,0.5-0.8,0.6-1.1c0.5,0.1,0.9,0.1,1.2,0.1c0.4,0,0.8-0.1,1.2-0.1c0.1,0.3,0.2,0.5,0.3,0.7c0.3,0.5,0.5,0.9,0.7,1.2
				c-0.3,0.1-0.5,0.3-0.9,0.4c-0.1,0.1-0.3,0.1-0.5,0.2c-0.2-0.3-0.5-0.7-0.7-1.2c0-0.1-0.1-0.2-0.1-0.4l-2.6,4l0.7,1.3L204.6,299.6
				L204.6,299.6z M210.6,296l0.7,3.2c-0.5-0.1-1,0-1.7,0.1c-0.6,0.1-1.2,0.2-1.8,0.3c-0.1,0.1-0.2,0.3-0.3,0.6
				c-0.2,0.3-0.3,0.6-0.5,0.9c0.2,0.3,0.3,0.5,0.5,0.9c0.1,0.1,0.1,0.2,0.2,0.4l1.3-0.1l0.1,0.3c-0.5,0.1-1,0.1-1.4,0.1
				c-0.7,0.1-1.1,0.1-1.4,0.2c-0.1-0.4-0.3-0.7-0.6-1.1c-0.2-0.2-0.5-0.5-0.9-0.9c0.3-0.1,0.5-0.3,0.9-0.9c0.4-0.5,0.8-1.1,1.1-1.7
				c0.2-0.4,0.4-0.7,0.7-1.2c0.2-0.4,0.4-0.8,0.6-1.1C208.9,296.1,209.7,296.1,210.6,296L210.6,296z M208,299.1
				c0.4-0.1,0.9-0.1,1.3-0.2c0.1-0.1,0.3-0.1,0.6-0.1l-0.5-2.1c-0.1,0.1-0.1,0.2-0.1,0.3c-0.2,0.5-0.5,0.9-0.7,1.2l-0.1,0.1
				C208.3,298.6,208.1,298.9,208,299.1L208,299.1z M221.3,302l-1.8,5.3c-0.5,0-1,0-1.4,0.1c-0.5,0.1-0.9,0.2-1.2,0.4
				c-0.6-0.9-1.3-1.6-2.3-2.2c0.2-0.1,0.4-0.3,0.6-0.8c0.2-0.5,0.5-1.1,0.7-1.9c0.3-0.7,0.4-1.2,0.5-1.4c0.1-0.3,0.2-0.5,0.3-0.9
				c0.5,0,1,0,1.3-0.1c0.5-0.1,0.9-0.2,1.2-0.4c0.2,0.4,0.5,0.7,0.9,1.1C220.5,301.5,220.9,301.8,221.3,302L221.3,302z M216.6,305.4
				c0.3,0.2,0.6,0.4,0.9,0.6c0.2,0.2,0.4,0.5,0.6,0.9c0.4-1.2,0.7-2.2,1-2.8c0.2-0.6,0.5-1.2,0.7-1.8c-0.5-0.3-0.7-0.4-0.8-0.4
				c-0.3-0.2-0.6-0.5-0.8-0.8c-0.1,0.3-0.1,0.5-0.1,0.7c-0.1,0.5-0.3,1.1-0.5,1.6C217.2,304,217,304.7,216.6,305.4L216.6,305.4z
				 M223.9,308l0.2,0.3c-0.5,0.1-0.8,0.3-1.1,0.4c-0.5,0.2-0.8,0.4-1,0.7c-0.3-0.4-0.5-0.7-0.8-1.1c-0.3-0.3-0.7-0.6-1.1-0.9
				c0.2-0.1,0.4-0.4,0.7-0.9c0.2-0.5,0.5-1.1,0.6-1.7c0.2-0.8,0.4-1.3,0.5-1.6c0.1-0.3,0.2-0.6,0.3-0.9l-0.8-0.2l0.4-0.9l0.7,0.2
				l0.5-1.7c0.7-0.1,1.4-0.4,2-0.7l1.4,0.8l-0.7,1.1l-1.2-0.9l-0.5,1.8l1.1,0.3l-0.3,0.9l-1.1-0.3c0,0.1-0.1,0.2-0.1,0.4
				c-0.1,0.1-0.1,0.3-0.2,0.6c-0.2,0.6-0.4,1.2-0.6,1.8c-0.2,0.6-0.5,1.2-0.7,1.7c0.2,0.1,0.5,0.3,0.7,0.7c0.1,0.1,0.2,0.3,0.3,0.5
				L223.9,308L223.9,308z M237.2,304.2c1.7,0.3,2.6,0.5,2.8,0.6c1.2,0.5,1.7,1.4,1.6,2.8c-0.1,0.9-0.6,1.8-1.6,2.7
				c-0.7,0.7-1.7,1.2-2.8,1.7c-0.3-0.1-0.7-0.4-1.2-0.7c-0.3-0.1-0.5-0.3-0.7-0.5c-0.4,0.1-0.8,0.3-1.2,0.4
				c-0.8,0.3-1.5,0.4-2.1,0.3c-1.1-0.1-1.6-0.6-1.7-1.5c0-0.1,0-0.1,0-0.2c0.1-0.5,0.3-0.9,0.9-1.1c0.5-0.3,1.1-0.3,1.8-0.3
				c0.2,0,0.3,0,0.4,0.1c0.1,0,0.3,0.1,0.6,0.1l0.5-0.8c-1-0.1-1.6-0.2-2-0.3c-0.7-0.2-1.2-0.7-1.4-1.2c-0.1-0.3-0.1-0.5-0.1-0.8
				c0-0.4,0.2-0.7,0.5-1c0.3-0.3,0.6-0.5,1-0.7c0.1-0.5,0.3-1,0.7-1.4c0-0.1,0.3-0.3,0.7-0.8c0.2-0.3,0.6-0.5,1.1-0.9
				c0.1-0.1,0.3-0.3,0.6-0.4c0.5,0.2,1,0.5,1.5,0.7c0.6,0.3,1.1,0.5,1.5,0.7l0.4-0.7l0.3,0.3L237.2,304.2L237.2,304.2z M236.8,304.2
				l0.7-0.9c-0.3-0.3-0.7-0.5-1-0.7c-0.4-0.2-0.7-0.3-1.1-0.3c-0.1,0-0.4,0-0.7,0c-0.3,0-0.5,0.1-0.7,0.1c-0.3,0.1-0.5,0.3-0.6,0.6
				c-0.1,0.1-0.1,0.2-0.1,0.3c0,0.3,0.1,0.5,0.5,0.5c0.3,0.1,0.8,0.2,1.3,0.3c0.4,0,0.7,0.1,1,0.1
				C236.4,304.2,236.6,304.2,236.8,304.2L236.8,304.2z M235.2,306.5l0.6-0.8c-0.1,0-0.3,0-0.5,0c-0.1,0-0.3,0-0.5,0
				c-0.6-0.1-1.1-0.1-1.4-0.3c-0.5-0.2-0.9-0.5-1-1c-0.3,0.2-0.4,0.5-0.5,0.8c0,0.1,0,0.3,0.1,0.4c0.1,0.1,0.1,0.3,0.3,0.4
				c0.2,0.2,0.5,0.3,0.8,0.5s0.7,0.2,1.1,0.2c0.2,0,0.4,0,0.6,0C234.8,306.5,235,306.5,235.2,306.5L235.2,306.5z M238.7,310.7
				c0.5-0.4,0.9-0.8,1.2-1.3c0.3-0.5,0.4-1.1,0.5-1.8c0.1-0.7-0.2-1.1-0.8-1.4c-0.5-0.3-1.1-0.4-1.8-0.5c-0.3,0-0.5,0-0.7,0
				c-0.2,0-0.4,0-0.8,0.1l-0.5,0.9c0.2,0,0.4,0,0.7,0c0.3,0,0.5,0,0.7,0c0.7,0.1,1.3,0.2,1.8,0.4c0.5,0.3,0.8,0.7,0.8,1.2
				c0,0.3-0.2,0.6-0.5,0.9c-0.3,0.3-0.9,0.6-1.6,1c0.2,0.1,0.4,0.2,0.6,0.3C238.5,310.5,238.7,310.7,238.7,310.7L238.7,310.7z
				 M236.9,309.8c0.3-0.2,0.5-0.3,0.7-0.5c0.3-0.3,0.5-0.5,0.5-0.7s-0.1-0.3-0.3-0.5c-0.2-0.1-0.4-0.1-0.7-0.2c-0.3,0-0.7,0-1.3,0
				c-0.6,0-0.9,0.1-1.1,0l-0.5,0.9c0.4,0.1,0.8,0.3,1.3,0.5C236,309.5,236.5,309.7,236.9,309.8L236.9,309.8z M231.9,311.3
				c0.5,0,0.9-0.1,1.5-0.2c0.3-0.1,0.7-0.3,1.1-0.5c-0.5-0.3-0.9-0.5-1.2-0.6c-0.5-0.2-0.9-0.3-1.4-0.3c-0.3,0-0.5,0-0.8,0.1
				c-0.3,0.1-0.4,0.3-0.4,0.5s0.1,0.5,0.3,0.6C231.3,311.2,231.6,311.3,231.9,311.3L231.9,311.3z M247.2,306l0.3,3.8
				c-0.3,0.2-0.7,0.5-1,0.8c-0.2,0.2-0.5,0.5-0.9,0.9c-0.1-0.1-0.3-0.1-0.5-0.3c-0.3-0.1-0.6-0.3-0.9-0.4v0.6
				c0.1,0.5,0.1,0.9,0.3,1.2c0.1,0.3,0.4,0.7,0.8,1.1c-0.4,0-0.7-0.1-1-0.3c-0.1-0.1-0.5-0.3-0.8-0.7c-0.2,0.3-0.4,0.5-0.5,0.5
				c-0.2,0.1-0.5,0.3-0.7,0.3c0.3-0.3,0.4-0.7,0.5-0.9c0-0.1,0.1-0.5,0.1-1c0-0.1,0-0.2,0-0.3c0-0.1,0-0.2,0-0.3c0-0.1,0-0.3,0-0.3
				s0-0.1,0-0.2c-0.1,0-0.1,0-0.2,0c-0.1,0-0.2,0-0.2,0h-0.4l-0.1-0.6c0.3-0.1,0.5-0.3,0.8-0.3l-0.3-3.8c0-0.3-0.1-0.5-0.1-0.7
				c-0.1-0.1-0.1-0.2-0.3-0.3l-0.4,0.3l-0.3-0.1l1.2-1.4c0.4,0.1,0.7,0.3,0.9,0.6c0.2,0.3,0.3,0.6,0.4,1c0.3-0.4,0.6-0.7,0.7-0.9
				c0.3-0.3,0.5-0.7,0.7-0.9c0.6,0.1,1.1,0.5,1.4,0.9C246.9,304.9,247.1,305.4,247.2,306L247.2,306z M244.3,309.7
				c0.3,0.1,0.6,0.1,0.9,0.2c0.2,0.1,0.5,0.1,0.9,0.3l-0.3-4.4c0-0.2-0.1-0.3-0.3-0.5c-0.2-0.1-0.4-0.3-0.6-0.3l-0.9,1L244.3,309.7
				L244.3,309.7z M253.5,308.7l0.3,0.2l-1.2,1.6c-0.7-0.3-1.2-0.9-1.3-1.6l-1.7,2.2h-0.1c-0.4-0.3-0.7-0.6-1-0.9
				c-0.3-0.4-0.5-0.8-0.6-1.2c-0.1-0.6-0.1-1.1,0.1-1.7c0.1-0.5,0.5-1,0.9-1.5l-1.1-2h0.3c0.3-0.1,0.6-0.1,0.8-0.3
				c0.3-0.1,0.5-0.4,0.7-0.7l2.3,0.4l0.4-0.5l0.1,0.1c-0.1,0.3-0.2,0.5-0.3,0.7c-0.1,0.2-0.1,0.5-0.1,0.7l0.8,4.3
				c0.1,0.1,0.1,0.2,0.2,0.3c0.1,0.1,0.2,0.1,0.3,0.1L253.5,308.7L253.5,308.7z M249.1,305.8l1.6,0.6l-0.3-1.8l-2.3-0.5L249.1,305.8
				L249.1,305.8z M250.2,309.7l1-1.2l-0.3-1.8l-1.7-0.6c-0.1,0.3-0.2,0.5-0.3,0.8c-0.1,0.3-0.1,0.5-0.1,0.8c0.1,0.4,0.2,0.7,0.5,1.1
				C249.6,309.1,249.8,309.4,250.2,309.7L250.2,309.7z M257.7,301.4L257.7,301.4c0,0.1,0.1,0.5,0.2,1.1c0.1,0.6,0.3,1.2,0.4,1.6
				c0.3,1,0.5,1.7,0.6,2.1c0.1,0.4,0.2,0.8,0.4,1.3c-0.4,0.3-0.8,0.6-1.1,0.9c-0.3,0.3-0.6,0.7-0.9,1.1c-0.5-0.2-1-0.4-1.5-0.5
				s-1.1-0.1-1.6-0.1c0.1-0.2,0.2-0.5,0.1-0.9c0-0.4-0.1-0.8-0.2-1.2c-0.1-0.3-0.2-0.7-0.3-1.1c-0.1-0.4-0.1-0.7-0.2-0.9
				c-0.1-0.3-0.2-0.5-0.3-0.7c-0.1-0.3-0.2-0.4-0.3-0.5c0.3-0.1,0.5-0.3,0.7-0.4s0.3-0.3,0.5-0.5c-0.4,0-0.9-0.2-1.5-0.5
				c-0.2-0.1-0.5-0.2-0.9-0.4c0-0.1,0-0.3-0.1-0.5c0-0.2-0.1-0.4-0.1-0.7l-0.1-0.2c0-0.1,0-0.1-0.1-0.2c-0.1-0.1-0.1-0.1-0.1-0.2
				c0.9,0.5,1.8,0.9,2.8,1.3c0.7,0.3,1.4,0.5,2,0.6c0.5,0.1,0.7,0.2,0.8,0.1c0.1-0.2,0.1-0.3,0.2-0.5
				C257.5,301.6,257.6,301.5,257.7,301.4L257.7,301.4z M255.8,307.8c0.3-0.1,0.8-0.1,1.2,0c0.3,0.1,0.6,0.1,0.9,0.3
				c0-0.3-0.1-0.7-0.2-1.1c-0.1-0.4-0.2-0.8-0.3-1.2c-0.1-0.5-0.3-1.1-0.5-1.6c-0.1-0.2-0.1-0.4-0.3-0.7l-1.5-0.5l-0.5,0.5
				c0.1,0.1,0.1,0.4,0.3,0.7c0.1,0.3,0.2,0.6,0.2,0.8c0.1,0.5,0.3,1,0.3,1.4C255.6,306.8,255.7,307.3,255.8,307.8L255.8,307.8z
				 M259.8,300.2l2.8,1.4c-0.3,0.3-0.7,0.8-1,1.4c-0.3,0.5-0.5,1.1-0.9,1.6c0.1,0.1,0.1,0.3,0.3,0.7c0.1,0.3,0.3,0.7,0.4,0.9
				c0.3,0,0.7,0.1,1,0.1c0.1,0,0.3,0.1,0.4,0.1l0.7-1.1l0.3,0.2c-0.3,0.5-0.5,0.9-0.8,1.2c-0.3,0.5-0.6,0.9-0.7,1.2
				c-0.4-0.1-0.8-0.2-1.2-0.2c-0.3,0-0.7,0.1-1.2,0.1c0.1-0.2,0.1-0.7-0.1-1.2s-0.3-1.2-0.6-2c-0.1-0.4-0.3-0.8-0.5-1.2
				c-0.2-0.4-0.3-0.8-0.5-1.2C258.8,301.6,259.3,300.9,259.8,300.2L259.8,300.2z M260.6,304.2c0.3-0.3,0.5-0.7,0.7-1.2
				c0.1-0.1,0.1-0.3,0.3-0.5l-2-0.9c0.1,0.1,0.1,0.2,0.1,0.3c0.2,0.5,0.4,0.9,0.5,1.2l0.1,0.1C260.5,303.7,260.6,304,260.6,304.2
				L260.6,304.2z M266.1,296.9l0.1-0.8c0.3-0.1,0.4,0,0.5,0.1c0.1,0.1,0.3,0.3,0.3,0.5c0.1,0.3,0.1,0.7,0,1.2l-0.5,2.7
				c0.4,0,0.7,0,0.9,0.1c0.7,0.1,1.1,0.1,1.3,0.3c0.1,0.3,0.2,0.6,0.3,0.9c0.1,0.3,0.3,0.7,0.4,1c0.1,0.1,0.1,0.3,0.1,0.3
				c0.1,0.1,0.1,0.1,0.1,0.2c-0.3,0.3-0.5,0.6-0.8,0.9c-0.2,0.3-0.4,0.7-0.7,1.1c-0.3-0.1-0.6-0.1-0.9,0s-0.5,0.1-0.7,0.2
				c-0.5,0.2-0.9,0.5-1.3,1.1l-0.3-0.1l0.6-3.4c-0.3-0.2-0.7-0.3-1.1-0.3c-0.1,0-0.3,0-0.6,0.1c-0.1-0.1-0.1-0.2-0.1-0.3
				c-0.1-0.5-0.3-0.9-0.4-1.2c-0.1-0.3-0.2-0.5-0.3-0.6c-0.1-0.1-0.2-0.3-0.3-0.5c0.3-0.3,0.6-0.6,0.8-1c0.2-0.5,0.3-0.9,0.4-1.1
				c0.5,0.1,0.8,0.1,1,0.1c0.4,0,0.7-0.1,1-0.2c0.1-0.1,0.3-0.2,0.4-0.3c0.1-0.1,0.2-0.3,0.2-0.5c0-0.1,0-0.2-0.1-0.3
				C266.5,297.1,266.4,297,266.1,296.9L266.1,296.9z M266.7,304.1c0.3-0.1,0.5-0.2,0.8-0.2c0.3-0.1,0.6-0.1,1,0l-0.7-2l-1.2-0.1
				l-0.6,2.9c0.1-0.1,0.3-0.2,0.4-0.3C266.3,304.3,266.5,304.1,266.7,304.1L266.7,304.1z M266,301.8l0.6-2.6
				c-0.1,0.1-0.3,0.1-0.4,0.3c-0.1,0.1-0.3,0.1-0.3,0.2c-0.5,0.2-1,0.3-1.6,0.3c0.1,0.1,0.2,0.3,0.3,0.4c0.1,0.1,0.1,0.3,0.2,0.4
				c0.1,0.3,0.2,0.5,0.3,0.7c0.1,0.1,0.1,0.2,0.1,0.3L266,301.8L266,301.8z"/>
		</g>
		<g class="st0">
			<path class="st1" d="M190.4,287.8c0,0-0.1,0-0.1,0.1c2.2-2.3,2.5-6.4,0.2-8.7c-2.4-2.6-6.6-2.8-8.7-0.7c-2.4,2.1-1.3,5.7,0.1,6.2
				c1.4,0.9,2.2,0.7,2.4,0.3c0.5-0.6-3.3-2.3-0.8-4.7c1-1.1,3.6-0.9,5.1,0.5c1.4,1.4,1.4,4.5-0.7,5.9c-4.3,3.1-10.1-1.1-11.1-5.2
				c0-0.1-0.1-0.3-0.1-0.3c0-0.1-0.1-0.3-0.1-0.5c0-0.1-0.1-0.2-0.1-0.3c-0.1-0.4-0.1-0.8-0.1-1.2c-0.3-3.7,1.4-7.9,4.4-10.5
				c3.1-2.6,7-4.3,10.7-4.8c0.2,0,0.4-0.1,0.6-0.1c-2.4,1.2-4.7,3.7-4.4,7.5c0.4,2.5,2.1,4.8,4.9,5.4c2.9,0.5,5.3-1.4,5.7-4
				c0.2-2.7-2-4.2-3.7-3.7c-1.4,0.5-1.3,1.7-0.9,1.8c1.3,0.4,1.2,0.9,1.1,1.4c0,1-3,1.6-3.9-1.4c-1-2.6,2-6,4.6-6.6
				c0.5-0.1,1.1-0.3,1.5-0.3c1.8,0.2,3.4,0.7,4.8,1.2c3.3,1.2,5.6,3,7,4.1c-0.1,1.1,0.1,2.2,0.7,3.2c1.1,2.2,3.6,3.2,5.5,3.2
				c2,0.1,3.7-0.7,4.8-1.6c0.1-0.1,0.3-0.2,0.3-0.3c-0.1,0.2-0.2,0.4-0.3,0.6c-6,6.9-19.7,6.4-17.4-0.5c0.5-3,3.2-3.4,3.1-4.1
				c0.4-0.7-4-1.3-5.5,3.6c-3.3,9.6,9.7,13.3,18.1,5.1c2.1-2,3.1-3.7,3.9-6.5c0.7-2.2,0.5-3.2,0.5-3c0,0-0.1,0.1-0.2,0.3
				c0.1-0.3,0.1-0.6,0.1-0.5c-0.9,2.1-1.2,3.9-3.3,5c-1.9,0.9-6.2,0-6.8-2.4c-0.4-1.1,0.1-2.4,0.6-2.6c-0.4,1.1,0.1,1.9,0.9,2.4
				c0.6,0.3,1.7,0.4,2.6-0.3c0.9-0.9,1.2-2,0.9-3.2c-0.3-1.2-1.6-2.3-2.8-2.5c-1.2-0.3-2.6,0-3.7,0.7c-1,0.7-1.7,2-1.8,3
				c-1.3-1.3-3.5-3-6.7-4.3c-3-1.2-6.7-1.8-10.7-1.2c-3.3,0.5-6.7,1.7-9.5,3.8c0.5-0.4,0.6-0.7,0.7-0.7c0-0.1-1.3,1.7-4.2,2
				c-2.6,0.7-7-1.9-6-5.3c0.4-1.5,2.2-2.2,3.4-1.7c1.2,0.5,1.8,2,1.4,2.8c-0.9,2-2.7,0.2-3,0.6c-0.1,0.1-0.1,0.7,0.7,1.3
				c0.7,0.7,3,0.6,3.7-1.3c0.8-1.8-0.2-4.1-2.3-5c-2.2-0.9-4.9,0.6-5.3,2.9c-0.5,2.3,0.9,4.5,2.6,5.4c1.7,1.1,3.6,1.1,5,0.8
				c0.9-0.2,1.6-0.5,2.2-0.9c-0.1,0.1-0.3,0.2-0.3,0.3c-2.9,2.5-4.5,6.2-4.6,9.9c-0.1,0.9-0.1,1.8,0.1,2.9c0.3,2.3,1.4,5.1,3.9,7
				c2.3,1.8,6.2,2.7,9.3,0.9C190,288.3,190.4,287.8,190.4,287.8L190.4,287.8z"/>
		</g>
		<g class="st0">
			<path class="st1" d="M272.4,303.4C272.4,303.4,272.5,303.4,272.4,303.4c-1.2-2.9,0-6.8,2.9-8.2c3.2-1.6,7.1-0.4,8.4,2.4
				c1.5,2.8-0.7,5.7-2.3,5.9c-1.6,0.3-2.3-0.2-2.3-0.5c-0.2-0.7,3.9-1,2.4-4.1c-0.6-1.4-3-2.2-4.9-1.2c-1.8,0.9-2.9,3.7-1.4,5.7
				c2.9,4.3,9.8,2.4,12.2-1c0.1-0.1,0.1-0.2,0.2-0.3c0.1-0.1,0.2-0.3,0.3-0.5c0.1-0.1,0.1-0.1,0.1-0.2c0.2-0.3,0.4-0.7,0.5-1.1
				c1.6-3.4,1.4-7.8-0.5-11.3c-2-3.6-5.1-6.4-8.4-8.2c-0.2-0.1-0.3-0.2-0.5-0.3c1.8,2,3.2,5.1,1.5,8.6c-1.2,2.2-3.6,3.8-6.4,3.4
				c-2.9-0.5-4.5-3.2-3.9-5.7c0.8-2.6,3.4-3.2,4.7-2.2c1.2,0.9,0.7,2,0.2,2c-1.4-0.1-1.4,0.4-1.4,0.9c-0.3,0.9,2.2,2.6,4.2,0
				c1.8-2.1,0.2-6.4-2-7.8c-0.5-0.3-0.9-0.6-1.3-0.8c-1.7-0.4-3.4-0.6-4.9-0.6c-3.6,0-6.2,0.9-8,1.4c-0.3,1.1-0.9,2-1.7,2.8
				c-1.8,1.7-4.5,1.8-6.2,1.1c-1.8-0.7-3.2-2-3.9-3.2c-0.1-0.1-0.1-0.3-0.2-0.4c0,0.2,0.1,0.5,0.1,0.7c3.2,8.5,16.2,12.9,16.5,5.6
				c0.5-3-1.9-4.3-1.4-4.9c-0.1-0.8,4.2,0.1,3.9,5.3c-0.3,10.1-13.7,9.1-18.7-1.5c-1.2-2.6-1.6-4.6-1.4-7.5c0.1-2.2,0.6-3.1,0.6-2.9
				c0,0,0.1,0.1,0.1,0.3c0.1-0.4,0.1-0.6,0.1-0.5c0.1,2.3-0.2,4.1,1.3,5.8c1.4,1.5,5.9,2.2,7.2,0.1c0.7-0.9,0.7-2.3,0.3-2.6
				c0,1.1-0.7,1.8-1.6,1.9c-0.7,0.1-1.8-0.2-2.4-1.2c-0.5-1.1-0.4-2.3,0.3-3.3c0.7-1.1,2.2-1.6,3.5-1.4c1.2,0.1,2.4,0.9,3.2,2
				c0.7,1,0.9,2.4,0.7,3.5c1.7-0.8,4.3-1.6,7.8-1.7c3.2-0.1,7,0.7,10.5,2.5c3,1.6,5.7,3.9,7.6,6.9c-0.3-0.5-0.3-0.9-0.4-0.9
				c0.1-0.1,0.7,2,3.2,3.3c2.2,1.6,7.2,0.7,7.6-2.9c0.2-1.6-1.2-2.8-2.5-2.8c-1.3,0.1-2.4,1.2-2.4,2.2c0.1,2.2,2.4,1.1,2.6,1.6
				c0.1,0.2-0.1,0.7-1.1,1c-0.9,0.5-3-0.5-3-2.5c-0.1-2,1.6-3.8,3.9-3.9c2.3-0.1,4.4,2.2,4,4.6c-0.3,2.3-2.4,3.9-4.3,4.2
				c-2,0.4-3.7-0.2-5-1.1c-0.8-0.5-1.3-1.1-1.8-1.6c0.1,0.1,0.1,0.3,0.3,0.4c1.8,3.4,2.1,7.4,0.9,10.8c-0.2,0.8-0.6,1.7-1.1,2.6
				c-1.1,2-3.2,4.3-6.2,5.2c-2.8,0.9-6.7,0.4-9-2.4C272.7,304,272.5,303.4,272.4,303.4L272.4,303.4z"/>
		</g>
		<g class="st0">
			<path class="st2" d="M273.5,220.9c-2.2-0.9-5.7,4.1-3.1,5.3c1.5,0.7,3.4,0.4,4.2-1.1C275.5,223.6,275.7,221.8,273.5,220.9
				L273.5,220.9z M267.5,231.5c0.1,0.1,0.1,0.1,0.1,0.3c0,0.1,0,0.2-0.1,0.3l-0.5,0.9c0,0.1-0.1,0.1-0.2,0.1c-0.1,0-0.1,0-0.2-0.1
				l0,0l-0.2-0.2c-0.1-0.1-0.1-0.1-0.1-0.3c0-0.1,0-0.2,0.1-0.3l0.5-0.9c0.1-0.1,0.1-0.1,0.2-0.1c0.1,0,0.1,0,0.2,0.1L267.5,231.5
				L267.5,231.5z M268,229.7c0.1,0,0.1,0,0.3,0l0.3,0.1c0.1,0.1,0.1,0.1,0.2,0.2c0,0.1,0,0.2-0.1,0.3l-0.5,0.9
				c-0.1,0.1-0.1,0.1-0.2,0.1c-0.1,0-0.1,0-0.2-0.1c0,0,0,0-0.1,0l-0.2-0.2c-0.1-0.1-0.1-0.1-0.1-0.3c0-0.1,0-0.2,0.1-0.3l0.5-0.9
				C267.8,229.8,267.9,229.7,268,229.7L268,229.7L268,229.7z M268.3,232.3l0.3,0.1c0.1,0.1,0.1,0.1,0.2,0.3c0,0.1,0,0.2-0.1,0.3
				l-0.7,1.1c-0.1,0.1-0.1,0.1-0.3,0.2c-0.1,0-0.2,0-0.3-0.1c0,0,0,0-0.1,0l-0.3-0.3c-0.1-0.1-0.1-0.1-0.1-0.3c0-0.1,0-0.2,0.1-0.3
				l0.6-1c0.1-0.1,0.1-0.1,0.2-0.2C268.2,232.2,268.3,232.3,268.3,232.3L268.3,232.3L268.3,232.3z M269.8,233.8c0,0.1,0,0.3-0.1,0.3
				l-0.7,1.2c-0.1,0.1-0.1,0.2-0.3,0.2c-0.1,0-0.2,0-0.3-0.1l-0.3-0.2c-0.1-0.1-0.1-0.2-0.1-0.3c0-0.1,0-0.1,0-0.2
				c0-0.1,0-0.1,0.1-0.1l0.7-1.1c0.1-0.1,0.1-0.2,0.3-0.2c0.1,0,0.2,0,0.3,0.1l0.3,0.2C269.8,233.5,269.8,233.7,269.8,233.8
				L269.8,233.8L269.8,233.8z M270,234.4c0.1-0.1,0.1-0.2,0.3-0.2c0.1-0.1,0.2-0.1,0.3,0l0.3,0.2c0.1,0.1,0.1,0.1,0.2,0.3
				c0,0.1,0,0.2-0.1,0.3l-0.7,1.2c-0.1,0.1-0.1,0.2-0.3,0.2s-0.2,0-0.3,0l-0.3-0.2c-0.1-0.1-0.1-0.1-0.2-0.3c0-0.1,0-0.2,0.1-0.3
				L270,234.4L270,234.4z M271.3,232.1c0.1-0.1,0.2-0.2,0.3-0.2c0.1-0.1,0.3,0,0.3,0l0.3,0.2c0.1,0.1,0.2,0.1,0.2,0.3
				c0,0.1,0,0.3-0.1,0.3l-0.7,1.2c-0.1,0.1-0.1,0.2-0.3,0.2c-0.1,0.1-0.3,0-0.3-0.1l-0.3-0.2c-0.1-0.1-0.1-0.1-0.2-0.3
				c0-0.1,0-0.3,0.1-0.4L271.3,232.1L271.3,232.1z M270.1,231.3c0.1-0.1,0.1-0.2,0.3-0.2c0.1-0.1,0.2-0.1,0.3,0l0.3,0.1
				c0.1,0.1,0.1,0.1,0.2,0.3c0,0.1,0,0.3-0.1,0.3l-0.7,1.2c-0.1,0.1-0.1,0.2-0.3,0.2s-0.2,0-0.3-0.1l-0.3-0.2
				c-0.1-0.1-0.1-0.1-0.1-0.3c0-0.1,0-0.3,0.1-0.3L270.1,231.3L270.1,231.3z M269.8,230.8c0,0.1,0,0.2-0.1,0.3l-0.7,1.1
				c-0.1,0.1-0.1,0.1-0.3,0.2c-0.1,0-0.2,0-0.3-0.1h-0.1l-0.2-0.2c-0.1-0.1-0.1-0.1-0.1-0.3c0-0.1,0-0.2,0.1-0.3l0.6-1
				c0.1-0.1,0.1-0.1,0.2-0.2c0.1,0,0.2,0,0.3,0.1l0.3,0.1C269.8,230.6,269.8,230.8,269.8,230.8L269.8,230.8L269.8,230.8z
				 M265.3,228.4c-0.1,1.8-0.3,3.8,0,3.9c0.1,0,1.2-2,1.7-3.3c0.1-0.3,0.8-0.4,0.7-0.5C267,227.3,265.4,226.9,265.3,228.4
				L265.3,228.4z M273.6,219c-3-1.8-4.9,2.1-6.4,3c-1.4,0.9-3.6,0.7-5-0.3c-3.6-2.4,0.1-0.7,1.3-0.3
				C266.5,222.4,269.9,215.2,273.6,219L273.6,219z M275.9,225.8c-0.9,0.5-0.1,1.6-0.5,2.2c0-0.1-0.1-0.3-0.1-0.3
				c-0.1,0-0.3,0.1-0.5,0.1c-0.9,0.3-1.6,0.5-1.9,0.7c-0.3,0.1-0.6,0.4-0.8,0.7s-0.3,0.7-0.2,1.1c0.1,0.7,0.7,1.1,1.4,0.9
				c0.1,0.2-0.5,0.6-0.5,1.2c-0.1,0.9-1,2.1-1.6,3.4c-0.9,1.5-1,0.6-1.4,2.3c-0.6,2.5-1,2.4-3.7,0.3c-1.4-1.2-5.9-4.7-5.6-6.6
				c0.1-1,0.5-5.2,0.5-5.2c-0.1-0.6-2.5-1-4.3-2.4c0.8-0.6,1.2-1.4,1.2-2.3c0-1,0.4-1.9,1.1-2.8c1.1-1.3,1.9-3.3,2.4-5.9
				c0.2-1.2,0.3-2.5,0.1-3.7c-0.2-1.1-0.6-2.2-1.2-3.5c0.1-0.1,0.3-0.2,0.5-0.3c7.4-3.6,19.7,3.2,19.3,12.2
				C279.9,221.1,278.8,224.2,275.9,225.8L275.9,225.8z M220.8,211.4c2.4-0.1,3.9,5.8,1.1,6c-1.7,0.1-3.3-0.8-3.6-2.5
				C218,213.3,218.3,211.5,220.8,211.4L220.8,211.4z M222.7,223.5c-0.1,0-0.2,0.1-0.3,0.2c-0.1,0.1-0.1,0.2-0.1,0.3l0.2,1.1
				c0,0.1,0.1,0.1,0.1,0.2c0.1,0.1,0.1,0.1,0.3,0c0,0,0,0,0.1,0l0.3-0.1c0.1-0.1,0.1-0.1,0.2-0.2s0.1-0.2,0.1-0.3l-0.2-1
				c0-0.1-0.1-0.1-0.1-0.2c-0.1-0.1-0.1-0.1-0.2-0.1L222.7,223.5L222.7,223.5z M222.9,221.6c-0.1-0.1-0.1-0.1-0.2-0.1l-0.3,0.1
				c-0.1,0-0.2,0.1-0.3,0.1c-0.1,0.1-0.1,0.2-0.1,0.3l0.2,1.1c0,0.1,0.1,0.1,0.1,0.2c0.1,0.1,0.1,0.1,0.2,0h0.1l0.3-0.1
				c0.1,0,0.1-0.1,0.2-0.2c0.1-0.1,0.1-0.2,0.1-0.3l-0.2-1C223,221.7,222.9,221.7,222.9,221.6L222.9,221.6L222.9,221.6z
				 M221.7,223.9l-0.3,0.1c-0.1,0-0.2,0.1-0.3,0.2c-0.1,0.1-0.1,0.2-0.1,0.3l0.2,1.2c0,0.1,0.1,0.2,0.1,0.3c0.1,0.1,0.2,0.1,0.3,0
				h0.1l0.3-0.1c0.1-0.1,0.2-0.1,0.2-0.2c0.1-0.1,0.1-0.2,0.1-0.3l-0.2-1.1c0-0.1-0.1-0.2-0.1-0.3
				C221.8,223.9,221.8,223.9,221.7,223.9L221.7,223.9L221.7,223.9z M219.7,224.8c-0.1,0.1-0.1,0.3-0.1,0.4l0.3,1.4
				c0,0.1,0.1,0.2,0.2,0.3c0.1,0.1,0.2,0.1,0.3,0l0.3-0.1c0.1-0.1,0.2-0.1,0.3-0.3c0-0.1,0.1-0.1,0.1-0.2s0-0.1,0-0.1l-0.3-1.3
				c0-0.1-0.1-0.2-0.1-0.3s-0.2-0.1-0.3-0.1l-0.3,0.1C219.9,224.6,219.8,224.6,219.7,224.8L219.7,224.8L219.7,224.8z M219.4,225.3
				c0-0.1-0.1-0.2-0.2-0.3c-0.1-0.1-0.2-0.1-0.3-0.1l-0.3,0.1c-0.1,0-0.2,0.1-0.3,0.2c-0.1,0.1-0.1,0.2-0.1,0.3l0.3,1.3
				c0,0.1,0.1,0.2,0.2,0.3c0.1,0.1,0.2,0.1,0.3,0.1l0.3-0.1c0.1,0,0.2-0.1,0.3-0.2c0.1-0.1,0.1-0.2,0.1-0.3L219.4,225.3L219.4,225.3
				z M218.9,222.7c-0.1-0.1-0.1-0.2-0.2-0.3c-0.1-0.1-0.2-0.1-0.3-0.1l-0.4,0.1c-0.1,0-0.2,0.1-0.3,0.2c-0.1,0.1-0.1,0.2-0.1,0.3
				l0.3,1.4c0,0.1,0.1,0.2,0.2,0.3c0.1,0.1,0.2,0.1,0.3,0.1l0.4-0.1c0.1,0,0.2-0.1,0.3-0.2c0.1-0.1,0.1-0.2,0.1-0.3L218.9,222.7
				L218.9,222.7z M220.4,222.4c0-0.1-0.1-0.2-0.1-0.3c-0.1-0.1-0.2-0.1-0.3-0.1l-0.3,0.1c-0.1,0-0.2,0.1-0.3,0.2
				c-0.1,0.1-0.1,0.2-0.1,0.3l0.3,1.4c0,0.1,0.1,0.2,0.2,0.3c0.1,0.1,0.2,0.1,0.3,0.1l0.3-0.1c0.1,0,0.2-0.1,0.2-0.2
				c0.1-0.1,0.1-0.2,0.1-0.3L220.4,222.4L220.4,222.4z M220.8,222c-0.1,0.1-0.1,0.2-0.1,0.3l0.2,1.2c0,0.1,0.1,0.2,0.1,0.3
				c0.1,0.1,0.2,0.1,0.3,0h0.1l0.3-0.1c0.1-0.1,0.2-0.1,0.3-0.2c0.1-0.1,0.1-0.2,0.1-0.3l-0.2-1.1c0-0.1-0.1-0.2-0.1-0.3
				c-0.1-0.1-0.2-0.1-0.3-0.1l-0.3,0.1C220.9,221.9,220.8,221.9,220.8,222L220.8,222L220.8,222z M225.9,221.3
				c-0.5,1.8-1,3.7-1.4,3.6c-0.1,0-0.5-2.3-0.5-3.7c0-0.3-0.6-0.6-0.5-0.7C224.7,219.7,226.4,219.8,225.9,221.3L225.9,221.3z
				 M221.3,209.6c3.5-0.6,3.9,3.7,5,5.1c1.1,1.3,3.1,1.9,4.8,1.4c4.3-1.1,0.2-0.7-1.1-0.7C226.8,215.3,226.1,207.4,221.3,209.6
				L221.3,209.6z M216.8,215.2c0.7,0.8-0.4,1.5-0.3,2.2c0.1-0.1,0.1-0.2,0.2-0.3c0.1,0.1,0.3,0.1,0.4,0.3c0.7,0.6,1.2,1.1,1.5,1.3
				c0.3,0.3,0.5,0.5,0.5,0.9c0.1,0.4,0,0.7-0.1,1.1c-0.3,0.6-1.1,0.8-1.6,0.3c-0.1,0.1,0.3,0.7,0.1,1.4c-0.2,0.9,0.2,2.3,0.4,3.7
				c0.3,1.7,0.7,0.9,0.5,2.6c-0.3,2.6,0.1,2.6,3.3,1.6c1.7-0.7,7.2-2.3,7.6-4.3c0.2-1,1.3-5.1,1.3-5.1c0.3-0.5,2.7-0.1,4.9-0.9
				c-0.5-0.9-0.6-1.7-0.3-2.6c0.3-0.9,0.3-1.9-0.1-3c-0.6-1.6-0.7-3.7-0.2-6.4c0.3-1.2,0.7-2.4,1.2-3.5c0.5-1,1.3-1.9,2.4-2.8
				c-0.1-0.1-0.3-0.3-0.3-0.4c-5.7-5.9-19.6-3.8-22.3,4.7C214.7,209.5,214.7,212.7,216.8,215.2L216.8,215.2z M242.5,211.5
				c-1.7-0.3-3.4,0.9-3.7,2.6c-0.3,1.7,0.9,3.4,2.6,3.7c1.7,0.3,3.4-0.9,3.7-2.6C245.4,213.5,244.3,211.8,242.5,211.5L242.5,211.5z
				 M252.7,213.3c-1.7-0.3-3.4,0.9-3.7,2.6c-0.3,1.7,0.9,3.4,2.6,3.7c1.7,0.3,3.4-0.9,3.7-2.6C255.6,215.3,254.4,213.7,252.7,213.3
				L252.7,213.3z M246.9,226.4c0.1-0.1,0.1-0.3,0.2-0.3c0.1-0.1,0.2-0.1,0.3-0.1l0.3,0.1c0.1,0,0.2,0.1,0.3,0.1
				c0.1,0.1,0.1,0.2,0.1,0.3l-0.3,1.4c0,0.1-0.1,0.2-0.2,0.3c-0.1,0.1-0.2,0.1-0.3,0.1H247c-0.1,0-0.2-0.1-0.3-0.1
				c-0.1-0.1-0.1-0.2-0.1-0.3L246.9,226.4L246.9,226.4z M248.7,225.9c0.1-0.1,0.2-0.1,0.3-0.1l0.3,0.1c0.1,0,0.2,0.1,0.3,0.1
				c0.1,0.1,0.1,0.2,0.1,0.3l-0.2,1.1c0,0.1-0.1,0.2-0.1,0.3c-0.1,0.1-0.2,0.1-0.3,0.1h-0.3h-0.1c-0.1,0-0.1-0.1-0.3-0.1
				c-0.1-0.1-0.1-0.2-0.1-0.3l0.2-1.3C248.5,226,248.6,226,248.7,225.9L248.7,225.9L248.7,225.9z M248.9,224c0-0.1,0.1-0.2,0.2-0.3
				c0.1-0.1,0.2-0.1,0.3-0.1l0.3,0.1c0.1,0,0.2,0.1,0.3,0.1c0.1,0.1,0.1,0.2,0.1,0.3l-0.2,1.1c0,0.1-0.1,0.2-0.1,0.3
				c-0.1,0.1-0.2,0.1-0.3,0.1h-0.3c0,0,0,0-0.1,0c-0.1,0-0.2-0.1-0.3-0.1c-0.1-0.1-0.1-0.2-0.1-0.3L248.9,224L248.9,224z
				 M248.5,223.6c0.1,0.1,0.1,0.2,0.1,0.3l-0.3,1.4c0,0.1-0.1,0.2-0.2,0.3c-0.1,0.1-0.2,0.1-0.3,0.1h-0.3c-0.1,0-0.2-0.1-0.3-0.1
				c-0.1-0.1-0.1-0.2-0.1-0.3l0.3-1.4c0-0.1,0.1-0.3,0.2-0.3c0.1-0.1,0.2-0.1,0.3-0.1l0.3,0.1C248.4,223.5,248.5,223.5,248.5,223.6
				L248.5,223.6L248.5,223.6z M251.4,224.3l-0.2,1c0,0.1-0.1,0.2-0.1,0.3c-0.1,0.1-0.1,0.1-0.3,0.1h-0.3c0,0,0,0-0.1,0
				c-0.1,0-0.1-0.1-0.2-0.1c-0.1-0.1-0.1-0.1-0.1-0.3l0.2-1.1c0-0.1,0.1-0.2,0.1-0.3c0.1-0.1,0.2-0.1,0.3-0.1l0.3,0.1
				c0.1,0,0.1,0.1,0.2,0.1C251.4,224.1,251.4,224.2,251.4,224.3L251.4,224.3L251.4,224.3z M251,226.2l-0.2,1c0,0.1-0.1,0.2-0.1,0.3
				c-0.1,0.1-0.2,0.1-0.3,0.1l-0.3,0.1c0,0,0,0-0.1,0c-0.1,0-0.1-0.1-0.2-0.1c-0.1-0.1-0.1-0.1-0.1-0.2l0.2-1.1
				c0-0.1,0.1-0.2,0.1-0.3c0.1-0.1,0.2-0.1,0.3-0.1h0.3c0.1,0,0.2,0.1,0.2,0.1C251,226,251.1,226.1,251,226.2L251,226.2L251,226.2z
				 M240.5,224c0.1,0,0.2,0.1,0.3,0.2c0.1,0.1,0.1,0.2,0.1,0.3l-0.2,1.1c0,0.1-0.1,0.1-0.1,0.2c-0.1,0.1-0.1,0.1-0.3,0
				c0,0,0,0-0.1,0l-0.3-0.1c-0.1-0.1-0.1-0.1-0.2-0.2c-0.1-0.1-0.1-0.2-0.1-0.3l0.2-1c0-0.1,0.1-0.1,0.1-0.2
				c0.1-0.1,0.1-0.1,0.3-0.1H240.5L240.5,224z M240.3,222.1c0.1-0.1,0.1-0.1,0.3-0.1l0.3,0.1c0.1,0,0.2,0.1,0.3,0.1
				c0.1,0.1,0.1,0.2,0.1,0.3l-0.2,1.1c0,0.1-0.1,0.1-0.1,0.2c-0.1,0.1-0.1,0.1-0.3,0.1h-0.1l-0.3-0.1c-0.1,0-0.1-0.1-0.2-0.2
				c-0.1-0.1-0.1-0.2-0.1-0.3l0.2-1C240.2,222.2,240.2,222.1,240.3,222.1L240.3,222.1L240.3,222.1z M241.6,224.4l0.3,0.1
				c0.1,0,0.2,0.1,0.3,0.2c0.1,0.1,0.1,0.2,0.1,0.3l-0.2,1.3c0,0.1-0.1,0.2-0.2,0.3c-0.1,0.1-0.2,0.1-0.3,0h-0.1l-0.3-0.1
				c-0.1-0.1-0.2-0.1-0.2-0.2c-0.1-0.1-0.1-0.2-0.1-0.3l0.2-1.1c0-0.1,0.1-0.2,0.1-0.3C241.4,224.4,241.5,224.4,241.6,224.4
				L241.6,224.4L241.6,224.4z M245.4,226.2c0.1-0.1,0.1-0.2,0.2-0.3c0.1-0.1,0.2-0.1,0.3-0.1l0.3,0.1c0.1,0,0.2,0.1,0.3,0.2
				c0.1,0.1,0.1,0.2,0.1,0.3l-0.3,1.4c0,0.1-0.1,0.2-0.2,0.3c-0.1,0.1-0.2,0.1-0.3,0.1l-0.3-0.1c-0.1,0-0.2-0.1-0.3-0.2
				c-0.1-0.1-0.1-0.2-0.1-0.3L245.4,226.2L245.4,226.2z M243.5,225.4c0.1,0.1,0.1,0.3,0.1,0.4l-0.3,1.4c0,0.1-0.1,0.2-0.2,0.3
				c-0.1,0.1-0.2,0.1-0.3,0l-0.3-0.1c-0.1-0.1-0.2-0.1-0.3-0.3c0-0.1-0.1-0.1-0.1-0.2s0-0.1,0-0.1l0.3-1.4c0-0.1,0.1-0.2,0.2-0.3
				c0.1-0.1,0.2-0.1,0.3-0.1l0.3,0.1C243.4,225.2,243.5,225.2,243.5,225.4L243.5,225.4L243.5,225.4z M243.9,225.9
				c0.1-0.1,0.1-0.2,0.2-0.3c0.1-0.1,0.2-0.1,0.3-0.1l0.4,0.1c0.1,0,0.2,0.1,0.3,0.2c0.1,0.1,0.1,0.2,0.1,0.3l-0.3,1.4
				c0,0.1-0.1,0.2-0.2,0.3c-0.1,0.1-0.2,0.1-0.3,0.1l-0.4-0.1c-0.1,0-0.2-0.1-0.3-0.2c-0.1-0.1-0.1-0.2-0.1-0.3L243.9,225.9
				L243.9,225.9z M246.1,223.1c0.1-0.1,0.2-0.1,0.3-0.1l0.4,0.1c0.1,0,0.2,0.1,0.3,0.2c0.1,0.1,0.1,0.3,0.1,0.4l-0.3,1.4
				c0,0.1-0.1,0.3-0.2,0.3c-0.1,0.1-0.2,0.1-0.3,0.1l-0.4-0.1c-0.1,0-0.2-0.1-0.3-0.2c-0.1-0.1-0.1-0.3-0.1-0.4l0.3-1.4
				C245.9,223.3,246,223.2,246.1,223.1L246.1,223.1L246.1,223.1z M244.4,223.2c0.1-0.1,0.1-0.3,0.2-0.3c0.1-0.1,0.2-0.1,0.3-0.1
				l0.4,0.1c0.1,0,0.2,0.1,0.3,0.2c0.1,0.1,0.1,0.3,0.1,0.4l-0.3,1.4c0,0.1-0.1,0.3-0.2,0.3c-0.1,0.1-0.2,0.1-0.3,0.1l-0.4-0.1
				c-0.1,0-0.2-0.1-0.3-0.2c-0.1-0.1-0.1-0.3-0.1-0.4L244.4,223.2L244.4,223.2z M242.9,222.9c0-0.1,0.1-0.2,0.2-0.3
				c0.1-0.1,0.2-0.1,0.3-0.1l0.3,0.1c0.1,0,0.2,0.1,0.3,0.2c0.1,0.1,0.1,0.2,0.1,0.4l-0.3,1.4c0,0.1-0.1,0.3-0.2,0.3
				c-0.1,0.1-0.2,0.1-0.3,0.1l-0.3-0.1c-0.1,0-0.2-0.1-0.3-0.3c-0.1-0.1-0.1-0.2-0.1-0.3L242.9,222.9L242.9,222.9z M242.5,222.5
				c0.1,0.1,0.1,0.2,0.1,0.3l-0.3,1.3c0,0.1-0.1,0.2-0.2,0.3c-0.1,0.1-0.2,0.1-0.3,0h-0.1l-0.3-0.1c-0.1-0.1-0.2-0.1-0.3-0.2
				c-0.1-0.1-0.1-0.2-0.1-0.3l0.2-1.1c0-0.1,0.1-0.2,0.1-0.3c0.1-0.1,0.2-0.1,0.3-0.1l0.3,0.1C242.3,222.3,242.5,222.4,242.5,222.5
				L242.5,222.5L242.5,222.5z M245.2,221.6c-0.3-0.1-0.6-0.3-0.8-0.6s-0.2-0.7-0.1-1.1c0.1-0.4,0.3-0.7,0.5-1
				c0.3-0.3,0.8-0.7,1.6-1.3c0.1-0.1,0.3-0.2,0.4-0.3c0.1,0.1,0.2,0.2,0.3,0.4c0.5,0.9,0.9,1.4,1.1,1.8c0.2,0.3,0.3,0.7,0.1,1.1
				c-0.1,0.4-0.3,0.7-0.5,1s-0.6,0.3-0.9,0.3c-0.3-0.1-0.5-0.3-0.7-0.5C245.8,221.6,245.6,221.7,245.2,221.6L245.2,221.6
				L245.2,221.6z M241,201.2c2-1.4,3.9-2.1,6-2.1c1,0,2,0.1,3.1,0.3c1.1,0.2,2,0.5,3,0.9c2,0.8,3.6,2.1,4.9,4.1
				c1.4,2,2.2,3.7,2.4,5.3c0.2,1.2,0.1,2.4-0.1,3.7c-0.5,2.6-1.2,4.6-2.4,5.9c-0.7,0.9-1.1,1.8-1.1,2.8c0,1-0.5,1.8-1.3,2.4
				c-0.9,0.7-1.5,1.1-1.8,1.4c-0.4,1.1-0.9,2.1-1.4,3.2c-0.3,0.5-0.5,0.9-0.7,1.3c-0.9,1.5-2.2,2.3-3.9,2.2c-0.3,0-0.5,0-0.7,0
				c-0.5,0-1-0.1-1.4-0.1c-1.3-0.1-2.6-0.5-3.9-0.9c-0.2-0.1-0.4-0.1-0.7-0.2c-1.5-0.5-2.5-1.7-2.8-3.5c-0.3-1.8-0.5-3.4-0.5-4.9
				c-0.2-0.4-0.6-1.1-1.2-2c-0.6-0.9-0.7-1.8-0.4-2.8c0.3-0.9,0.3-1.9-0.1-3c-0.6-1.6-0.7-3.7-0.2-6.4c0.3-1.2,0.7-2.4,1.2-3.5
				C237.7,203.9,239.1,202.5,241,201.2L241,201.2L241,201.2z"/>
		</g>
		<g class="st0">
			<path class="st2" d="M237.7,183.5c-0.5,0.9,4,5.8,4.7,6.4c4.5,3.8,9.1,4.6,14.7,2.6c0.9-0.3,6.8-3.4,6.6-4.3
				C255.2,178,249.2,177,237.7,183.5L237.7,183.5z M239.6,183.7c0.7-0.5,2.4-0.7,4.7-0.7c0,0.1-0.1,0.3-0.1,0.4
				c-0.2,1.8,0.2,3.7,1.3,5.3c2,2.8,6,3.6,8.9,1.6c1.6-1.1,2.6-2.7,3-4.5c0-0.1,0.1-0.3,0.1-0.4c2.1,0.8,3.7,1.6,4.2,2.3
				C256.2,194.8,242.4,192.4,239.6,183.7L239.6,183.7z M250,190.2L250,190.2L250,190.2L250,190.2h-0.1l0,0c-0.1,0-0.1,0-0.1,0
				l0.7-2.8l-0.3,3C250.1,190.2,250,190.2,250,190.2L250,190.2z M251.6,187.2L251.6,187.2l1.2,2.8c-0.3,0.1-0.6,0.2-0.9,0.3
				L251.6,187.2L251.6,187.2z M252,187L252,187l1.7,2.5c-0.3,0.1-0.5,0.3-0.9,0.4L252,187L252,187z M252.4,186.8L252.4,186.8
				l2.2,2.1c-0.2,0.1-0.4,0.3-0.6,0.5c-0.1,0.1-0.1,0.1-0.2,0.1L252.4,186.8L252.4,186.8z M252.8,186.6L252.8,186.6l2.6,1.6
				c-0.2,0.3-0.5,0.5-0.7,0.7L252.8,186.6L252.8,186.6z M253.1,186.2L253.1,186.2l2.8,1.1c-0.2,0.3-0.3,0.6-0.6,0.9L253.1,186.2
				L253.1,186.2z M253.3,185.8C253.3,185.8,253.3,185.7,253.3,185.8l3.1,0.5c-0.1,0.3-0.3,0.7-0.5,1L253.3,185.8L253.3,185.8z
				 M253.4,185.3C253.4,185.3,253.4,185.3,253.4,185.3l3.2-0.1c0,0.1-0.1,0.3-0.1,0.4c-0.1,0.2-0.1,0.5-0.2,0.7L253.4,185.3
				L253.4,185.3z M253.4,184.9L253.4,184.9l1.5-0.3c0.6,0.2,1.2,0.4,1.7,0.5c0,0.1,0,0.1,0,0.2L253.4,184.9L253.4,184.9z
				 M253.3,184.4L253.3,184.4l0.5-0.2c0.2,0.1,0.3,0.1,0.5,0.1L253.3,184.4L253.3,184.4z M251.9,190.2c-0.3,0.1-0.6,0.1-0.9,0.1
				l0.1-3L251.9,190.2L251.9,190.2z M251,190.3c-0.3,0-0.5,0-0.8-0.1l0.6-2.9L251,190.3L251,190.3z M249.4,186.8L249.4,186.8
				l-2.1,2.2c0.2,0.2,0.5,0.4,0.7,0.5L249.4,186.8L249.4,186.8z M249.1,186.5L249.1,186.5l-2.5,1.7c0.2,0.3,0.4,0.5,0.7,0.7
				L249.1,186.5L249.1,186.5z M248.7,186.2L248.7,186.2l-2.8,1.2c0.1,0.2,0.3,0.4,0.4,0.6c0.1,0.1,0.1,0.1,0.1,0.2L248.7,186.2
				L248.7,186.2z M248.5,185.8L248.5,185.8l-3,0.7c0.1,0.3,0.3,0.6,0.4,0.9L248.5,185.8L248.5,185.8z M248.4,185.4
				C248.4,185.3,248.3,185.3,248.4,185.4l-3,0.1c0.1,0.3,0.1,0.7,0.3,1L248.4,185.4L248.4,185.4z M248.3,184.9L248.3,184.9l-3.1-0.6
				c0,0.3,0,0.7,0.1,1.1L248.3,184.9L248.3,184.9z M248.4,184.4L248.4,184.4l-3-1.2c0,0.1-0.1,0.3-0.1,0.4c0,0.2-0.1,0.5-0.1,0.7
				L248.4,184.4L248.4,184.4z M248.5,183.9L248.5,183.9l-1.3-0.9c-0.6-0.1-1.2-0.1-1.8-0.1c0,0.1,0,0.1-0.1,0.2L248.5,183.9
				L248.5,183.9z M248.7,183.6L248.7,183.6l-0.4-0.4c-0.2,0-0.3,0-0.5-0.1L248.7,183.6L248.7,183.6z M248,189.5
				c0.3,0.1,0.5,0.3,0.8,0.4l0.9-2.9L248,189.5L248,189.5z M248.9,189.9c0.3,0.1,0.5,0.2,0.8,0.2l0.5-3L248.9,189.9L248.9,189.9z"/>
		</g>
	</g>
</g>
</svg>
