<?xml version="1.0" encoding="utf-8"?>
<!-- Generator: Adobe Illustrator 25.0.0, SVG Export Plug-In . SVG Version: 6.00 Build 0)  -->
<svg version="1.1" id="Layer_1" xmlns="http://www.w3.org/2000/svg" xmlns:xlink="http://www.w3.org/1999/xlink" x="0px" y="0px"
	 viewBox="0 0 400 400" style="enable-background:new 0 0 400 400;" xml:space="preserve">
<style type="text/css">
	.st0{opacity:0.1;}
	.st1{fill:#895003;}
</style>
<g class="st0">
	<g>
		<path class="st1" d="M117.3,104.1c0.1-0.1,0.2-0.1,0.2-0.2c0.3-0.9,0.9-1.5,1.9-2c1.9-0.6,3.7-1.3,5.6-1.9
			c-2.8-9.4-5.5-19.1-8.3-28.6c1.2,6,2.3,12,3.5,18c-3.2-10.4-6.4-20.9-9.4-31.4c1.4,7.2,2.8,14.3,4.5,21.4
			c-3.1-10.6-6-21.4-8.5-31.7c1,8,2.4,16,4.2,23.9c-3-10.7-5.8-21.5-8.7-32.5c2.6,21.3,7.7,42.1,14.4,62.5
			C116.8,102.6,117.1,103.3,117.3,104.1"/>
		<path class="st1" d="M145,92.3c0.9-0.3,1.9-0.6,2.8-0.9c-6.1-22.8-11.6-45.8-16.7-68.9c1.6,18,5.1,35.7,9.6,53.1
			C142.1,81.2,143.6,86.7,145,92.3"/>
		<path class="st1" d="M144.5,92.4c-4.3-16-8.5-32.2-12.8-48.3c2.4,14.6,5.2,29,8.9,43.2c-2.3-7.8-4.5-15.8-6.8-23.5
			c1.5,7.5,2.9,14.9,4.5,22.4c-2.5-9.4-4.9-18.7-7.2-28.2c1.7,12.4,4.1,24.8,7,37C140.2,94.1,142.3,93.2,144.5,92.4"/>
		<path class="st1" d="M135.6,96.8c0.3-0.3,0.7-0.4,1-0.7c-3.8-14.2-7.1-28.7-10.2-43.4c1.9,15,4.4,29.8,8,44.4
			C134.8,97,135.2,96.9,135.6,96.8"/>
		<path class="st1" d="M133.3,97.5c-2.6-8.7-4.9-17.5-6.9-26.6c1.3,9.1,2.8,18.2,5,27.2C132.1,97.9,132.7,97.7,133.3,97.5"/>
		<path class="st1" d="M131,98.2c-1.7-5.7-3.3-11.6-5.1-18c1.4,6.1,2.2,12.3,3.4,18.5C129.8,98.6,130.4,98.5,131,98.2"/>
		<path class="st1" d="M129.1,98.9c-1.5-4.6-3.1-9.2-4.3-13.8c0.9,4.8,1.9,9.5,2.9,14.2C128.1,99.2,128.6,99.1,129.1,98.9"/>
		<path class="st1" d="M127.3,99.4c-2.1-5.9-4.1-11.7-5.6-17.7c1,6.1,2.4,12.3,3.9,18.2C126.2,99.8,126.7,99.7,127.3,99.4"/>
		<path class="st1" d="M226.7,86.1c-0.1-1.2-0.1-2.4-0.2-3.5c-1.1-20.9-4.8-41.5-9.5-61.7c1.8,13.5,3.1,27,4,40.5
			c-0.2-1-0.3-2-0.5-3.1c-1.6-9.6-3.1-19.4-5.8-28.8c2.3,12.3,2.5,24.9,3.2,37.4c0.3,6,0.9,12.1,1.4,18.1
			C221.8,85.3,224.3,85.6,226.7,86.1"/>
		<path class="st1" d="M219.2,85c-1.7-12.9-3.7-25.9-5.7-38.8c0.9,12.9,1.1,25.7,2.1,38.6C216.9,84.8,218.1,84.9,219.2,85"/>
		<path class="st1" d="M215.2,84.7c-0.1-0.4-0.2-0.9-0.3-1.4c-2.3-14.1-4.1-28.4-7.2-42.3c1.6,14,2.3,28.1,3.8,42.1
			c-3.5-19.6-7.9-39-12.9-58.2c3.2,19.8,5.4,39.8,8.6,59.6C210,84.4,212.6,84.5,215.2,84.7"/>
		<path class="st1" d="M203.3,84.4c1.3,0,2.6,0,3.8,0c-0.6-3.2-1.3-6.2-1.9-9.4c-2.3-11.5-4.3-23.2-7.7-34.4
			c2.5,12.3,3.3,24.9,4.8,37.4c-2.5-10.2-4.9-20.4-7.2-30.6c1.4,12.4,2.8,24.9,4.8,37.2C201,84.4,202.2,84.4,203.3,84.4"/>
		<path class="st1" d="M199.2,84.5c-2.1-9.6-4.4-19.2-5.8-29c0.3,7.6,0.9,15.2,1.6,22.9c-1.4-6.4-2.6-12.9-3.2-19.3
			c0.1,7.9,0.3,15.9,1.1,23.8c-1.5-7.2-3.1-14.4-5.2-21.5c1.4,7.7,1.9,15.7,2.7,23.6C193.4,84.7,196.3,84.6,199.2,84.5"/>
		<path class="st1" d="M187.8,85.2c0.9-0.1,1.7-0.2,2.5-0.3c-1.6-6.5-3.2-12.9-5.4-19.2C186.3,72.1,186.9,78.7,187.8,85.2"/>
		<path class="st1" d="M187.4,85.3c-1.1-3.3-2-6.6-2.7-10.4c0.1,3,0.3,6,0.8,8.9c-1.3-4.2-3-10-4.2-14.6c0.6,5.5,1.3,11.1,2.3,16.6
			C184.9,85.5,186.1,85.4,187.4,85.3"/>
		<path class="st1" d="M170,55.2c0,0.1,0,0.1,0,0.2C170.1,55.3,170,55.2,170,55.2"/>
		<path class="st1" d="M176.5,87.2c2-0.5,4-0.9,6-1.3c-2-6.4-4.2-13-6.8-20.7c0.3,0.9,1.8,9.6,3.6,18.9c-2.3-7.5-4.3-15-6.2-23.3
			c0.8,6.5,1.3,13.1,2.2,19.6c-2.2-7.7-4.3-15.8-6.1-24.9c1,7.6,1.7,15.2,2.7,22.7c-3.1-11.5-5.9-23.3-9.5-35.8
			c2.8,15.2,4,30.6,8,45.6c-3.1-9.5-5.7-18.9-8.6-30c1.6,9.7,3.2,19.5,5.3,29.2c-0.6-1.6-1-3.1-1.4-4.4c-3.4-10.5-5.8-21.3-8.8-31.9
			c1.2,7.7,2.2,15.3,3.5,23c-3-9.9-5.6-19.9-7.6-30.6c1.6,15.1,3.6,30.2,7.8,44.9c0.1,0.3,0.2,0.5,0.3,0.8c1.9-0.2,3.7-0.3,5.4-0.5
			c1.2-0.1,2.3-0.2,3.5-0.3C172.1,87.8,174.3,87.5,176.5,87.2"/>
		<path class="st1" d="M135.2,33.1c4,19.4,7.3,39,13,57.9c0,0.1,0.1,0.2,0.1,0.3c3.7-0.9,7.6-1.6,11.3-2c-3-7.6-5.8-15.2-8.3-23.1
			c1.5,7.2,3.2,14.5,5.2,21.6c-1.1-2.4-2.1-4.8-3.1-7.2c-4.6-11.3-7.3-22-10.9-33.8c2.7,14.1,5.3,28.4,10.1,42
			c-0.4-1.1-0.9-2.1-1.2-3.2C146.1,69,140.5,51.1,135.2,33.1"/>
		<path class="st1" d="M175.5,60.8c0,0.1,0,0.2,0,0.2l0,0C175.5,60.9,175.5,60.8,175.5,60.8"/>
		<path class="st1" d="M165.8,141c2.7,7.3,5.6,14.6,8.1,21.9c-1.2-5.5-2.3-11.2-3.5-16.7c2.5,7.4,4.8,14.8,6.7,22.7
			c-1.5-9.7-3.1-19.5-5.3-29.1C169.9,140.2,167.9,140.6,165.8,141"/>
		<path class="st1" d="M147,144c-1.2,0.2-2.4,0.3-3.5,0.4c1.6,3.7,3.4,7.3,5.4,10.8c-0.9-2.6-1.8-5.1-2.6-7.7
			c1.9,3.5,3.9,6.9,6,10.3C150.5,153.2,148.7,148.6,147,144"/>
		<path class="st1" d="M147.4,143.9c2,4.3,4.2,8.6,6.2,12.9c-1.3-4.4-2.7-8.8-4.3-13.1C148.8,143.8,148.1,143.9,147.4,143.9"/>
		<path class="st1" d="M155,142.9c-0.1,0-0.1,0-0.2,0c-1.8,0.3-3.5,0.5-5.3,0.8c2.6,6.3,5.4,12.6,7.4,19.2
			c-0.8-4.6-1.7-9.1-2.7-13.6c2.8,6.3,5.7,12.6,7.9,19.1C160.2,159.7,157.5,151.3,155,142.9"/>
		<path class="st1" d="M162.6,141.6c2,5,4.2,10,6.3,15c-1.4-5.1-2.7-10.3-4.2-15.4C164.1,141.4,163.4,141.5,162.6,141.6"/>
		<path class="st1" d="M160.2,142c-1.7,0.3-3.3,0.6-4.9,0.9c2.2,5.8,4.4,11.6,6.9,17.3c-0.5-1.4-2-9-3.7-16.9
			c1.8,3.8,3.6,7.6,5.2,11.5C162.5,150.4,161.4,146.2,160.2,142"/>
		<path class="st1" d="M160.2,142c2.1,4.6,4.1,8.4,4.3,9.1c-0.9-3.1-1.7-6.3-2.6-9.5C161.4,141.8,160.8,141.9,160.2,142"/>
		<path class="st1" d="M140.7,149c3.1,5.2,6.7,10.1,10.5,14.8c-3.1-4.9-5.4-9.7-7.5-14.6c1.5,2.6,3,5.4,4.3,8
			c-1.5-4.3-3.2-8.7-4.9-12.9c-2.5,0.3-4.9,0.4-7.3,0.6c-1.3,0.1-2.6,0.2-4.1,0.3c5.4,8.6,11.9,16.5,18.7,24
			c-2.8-4.3-5.5-8.8-8.2-13.3c3.3,4,6.9,7.7,10.8,11.1C147.9,161.6,144.1,155.5,140.7,149"/>
		<path class="st1" d="M214,131.7c-0.1,7.4-0.3,14.9-1.4,22.2c2.3-7.4,3.7-15.1,4.7-22.7C216.1,131.3,215,131.5,214,131.7"/>
		<path class="st1" d="M217.5,131.1c0,0.7-0.1,1.4-0.1,2c-0.6,9.3-2,18.5-3.4,27.7c2.9-10.1,5.6-20.3,7.4-30.6
			C220.1,130.6,218.7,130.8,217.5,131.1"/>
		<path class="st1" d="M212.5,131.9c-0.8,0.2-1.5,0.3-2.2,0.4c0.3,6.9,0.6,13.4,0.2,20.8c1.2-7.1,2.3-14.2,2.9-21.4
			C213.1,131.8,212.8,131.9,212.5,131.9"/>
		<path class="st1" d="M208.9,132.6c-1.7,0.3-3.4,0.7-5.1,1c0.9,9.5,1.7,19,1,28.4c1.3-7.3,2-14.6,2.3-22.1
			c0.5,4.4,0.9,8.8,0.9,13.2C208.5,146.3,208.9,139.5,208.9,132.6"/>
		<path class="st1" d="M186.4,154.7c0,0.1,0,0.3,0,0.3C186.4,154.9,186.5,154.8,186.4,154.7"/>
		<path class="st1" d="M173.3,139.5c2,8.1,3.9,16.3,6.1,24.3c-1.1-7.8-1.5-15.8-2.4-23.7c1.2,5,2.6,10,3.8,15
			c-0.8-5.7-1.1-11.4-1.6-17.1C177.3,138.6,175.3,139.1,173.3,139.5"/>
		<path class="st1" d="M179.9,137.9c1.1,5.4,2.3,11,3.2,16.4c-0.3-4.6-0.4-9.2-0.6-13.9c1.4,7,2.7,14,3.1,21.1
			c0.6-8.2,0.3-16.5-0.6-24.7c-1.1,0.2-2.1,0.3-3.2,0.5C181.1,137.6,180.5,137.7,179.9,137.9"/>
		<path class="st1" d="M199.7,134.3c0.9,7.8,1.4,15.8,1.2,23.8c0.8-8.1,1.8-16.2,2-24.3C201.9,133.9,200.8,134.1,199.7,134.3"/>
		<path class="st1" d="M195.6,135.1c-3.4,0.6-6.7,1.2-10.1,1.8c1.7,9.5,2.9,19.2,4.7,28.7c-0.6-8.2-0.5-16.5-0.9-24.9
			c0.9,6,1.7,11.9,1.9,17.9c0.5-5.9,0.8-11.8,0.7-17.8c0.8,4.7,1.4,9.4,1.5,14c0.3-4.3,0.5-8.4,0.5-12.7c0.5,4.4,0.9,8.9,0.9,13.4
			C195.5,148.7,195.7,141.9,195.6,135.1"/>
		<path class="st1" d="M196.1,135c1.2,8.7,2.2,17.3,1.6,25.9c1.4-8.7,1.9-17.6,1.6-26.5C198.3,134.6,197.2,134.8,196.1,135"/>
		<path class="st1" d="M143.6,15.9c6.3-1.2,13-2.2,19.2-3.5C156.2,12.9,149.7,13.9,143.6,15.9"/>
		<path class="st1" d="M175.4,11c8.3,0.3,16.7,0.4,24.9,1C192.1,10.4,183.7,10,175.4,11"/>
		<path class="st1" d="M182.7,12.7c4,0.5,8,0.5,12,1C190.8,12.6,186.6,12.6,182.7,12.7"/>
		<path class="st1" d="M185.5,14.7c1.3,0.2,2.6,0.2,3.9,0.2C188.3,14.7,186.6,14.7,185.5,14.7"/>
		<path class="st1" d="M130.6,137c-3.6,0.5-7.1,1.1-10.6,1.8c7.2-2,14.4-4.2,21.5-6.5c-13.3,1.5-26.5,4-39.4,7.4c6.2-2,12.4-4,19-6
			c13.2-4.2,26.5-8.3,40.3-9.9c-18.7,0.2-37.3,4.2-55.2,9.7c14.8-6,29.7-11.4,45-15.1c-9.8,0.9-19.3,2.9-28.6,5.6
			c8.9-4.3,17.8-8.4,26.9-12.2c-7.6,1.8-15.2,3.7-22.5,6.1c9.4-4.9,18.8-9.5,28.9-12.5c-10,1.9-19.8,4.6-29.2,8.1
			c2.6-1.2,5.2-2.4,7.9-3.5c13.3-5.6,26.5-11.8,40.2-15.8c-10.6,1.9-20.7,5.1-30.9,8.4c-4.7,1.5-9.3,3.1-13.9,4.8
			c0.7-0.3,1.3-0.6,1.9-0.9c20.4-8.1,39.4-14.5,61.6-19c-19.9,2-39.9,5.4-58.9,11.8c-15.4,5.8-30.1,14-43.2,24.1
			c-0.3,1.1-0.7,2.2-1,3.2c-0.4,1.1-0.9,2.2-1.4,3.2c0.1,0.6,0.1,1.2,0.2,1.8c0.9,6,3,11.8,4.9,17.6c0.2,0.2,0.3,0.3,0.4,0.4
			c0.6-0.1,1.1-0.2,1.7-0.3c-0.6,0.2-1.3,0.3-1.9,0.6c6.9-0.4,14.2-0.9,20.6-3c0.2-0.1,0.3-0.2,0.4-0.3c5-0.8,10-1.5,15.1-2.4
			c13.9-2.6,27.6-5.8,41.5-8.3c-5.4,0.4-10.8,0.9-16.3,1.4c13.2-2.7,26.3-5.5,39.4-8.3C173.4,132.3,151.9,133.4,130.6,137"/>
		<path class="st1" d="M152.2,130.7c7.2-0.3,14.5-1.3,21.5-2.8C166.5,128.1,159.1,129,152.2,130.7"/>
		<path class="st1" d="M262.9,114.7c0.1-0.8,0.2-1.5,0.2-2.3c-0.2,0-0.3,0-0.5,0c0.2,0,0.3-0.1,0.5-0.1c0.3-3.5,0.1-7-0.5-10.4
			c-0.1-0.2-0.2-0.3-0.3-0.6c-0.2,0-0.3,0-0.4,0c-1.4-0.3-2.7-1.5-2.9-3c-0.1-0.8-0.2-1.5-0.3-2.3l-0.1-0.1
			c-0.3-0.1-0.5-0.1-0.8-0.2c0.3,0.1,0.5,0.1,0.8,0.2l-1-0.3c0.1,0,0.2,0,0.3,0.1c-0.8-0.2-1.4-0.4-2-0.9c-1.1-0.5-2-1.5-2.5-2.6
			c-18-4.8-36.9-6.3-55.4-4.8c10,0.7,19.5,2.2,28.7,4.1c-10.6-0.5-21.2,0-31.7,1.4c15.8-0.3,31.7,2,47.3,4.8
			c-5.4-0.3-10.8-0.3-16.2-0.3c-18.6,0.7-37.5,1.8-55.6,6.8c14.6-2.6,28.4-1.9,43.3-2.3c9.3-0.1,18.5,0.2,27.8,0.6
			c-20.2,0-40.4,1.8-60.4,4.4c11.2-0.1,22.8-0.4,34.1-0.9c-5.9,0.9-11.7,1.9-17.4,3.2c6.1-0.6,12.3-0.6,18.6-0.5
			c-4.2,0.7-8.3,1.6-12.4,2.7c14.6-2,29.3-1.5,44.1-2c-10,1.2-19.8,2.6-29.8,4.1c6.4,0.1,12.9,0.2,19.2,0.1
			c-9.5,1.4-19,3.7-28.3,6.3c7.8-1.1,15.7-1.9,23.5-2.6c-11.7,2.6-23.1,6-34.1,10.6c10-2.5,20.1-4.1,30.2-5.5
			c-11.9,2.8-23.5,7-35.6,9.4c9.6-0.7,19.2-2.6,28.8-3.9c9.8-1.5,19.8-2.5,29.5-4.6c3.6-0.7,7.2-1.6,10.8-2.6
			C262.4,118.9,262.7,116.9,262.9,114.7"/>
		<path class="st1" d="M177.8,121c10.4-1.2,21-3.3,31-6C198.2,115.6,187.8,117.9,177.8,121"/>
		<path class="st1" d="M146.4,360.9c3.4,2.1,7.6,4.7,10.6,6.6c-3.6-2.6-7.1-5.4-10.6-8.1c-16.9-12.9-29.9-26.1-43.4-43.9
			c-10.6-13.7-18.8-27-24.7-43.8c3.7,17,10.5,32.3,19.7,45.7c-7.7-9.8-14.7-19.9-20.5-30c-1.7-2.9-3.7-6.4-5.3-8.9
			c0.9,2,1.7,3.9,2.5,5.9c5.5,15.1,13.4,28.4,23.1,40.1c-3.2-3.4-6.2-6.9-9.3-10.4c2.9,4.7,5.7,9.5,8.8,14
			c-7.7-9.1-15.1-18.4-22.6-27.6c-1.3-1.6-2.7-3.7-3.7-5.1c0.9,1.6,1.7,3.3,2.6,4.9c3.7,7.2,7.8,14.2,12.4,20.9
			c-4.3-5.3-8.5-10.8-12.6-16.4c4.3,9.1,8.8,17,13.9,24.1c-2.4-2.9-4.8-5.8-7.1-8.8c-0.9-1.2-2-2.6-2.8-3.7c0.6,1.1,1.2,2.2,1.8,3.3
			c4.8,8.4,9.7,17,16.7,23.8c7.5,7.2,15.3,14.4,24.7,19c-5.4-3.7-9.5-8.1-14.1-12.8c7,5.9,14.8,11.2,24,16.4
			c1.2,0.8,2.5,1.4,3.7,2.1c-1.7-1.3-3.4-2.7-5.1-4.1c-2.7-2.2-5.4-4.5-8.1-6.9c3.9,3.1,8.1,5.9,12.6,8c-5.6-3.9-10.2-8.5-14.9-13.5
			c4.9,3.7,10.3,6.7,15.6,9.8c1.4,0.9,3.2,1.8,4.4,2.5c-1.4-1-2.7-2-4-3.2c-8.1-6.6-13.6-11.2-19.8-17.9c-2.5-2.8-5-5.6-7.5-8.3
			c9.2,9.3,19.8,17.4,31.4,24.4c-6.6-5.4-13-11.4-19.2-17.7C127.6,348.9,136.6,355.2,146.4,360.9"/>
		<path class="st1" d="M76.5,296.2c-0.3-0.3-0.5-0.7-0.7-1"/>
		<path class="st1" d="M78.6,256.6c0,0.2,0.1,0.3,0,0.4"/>
		<path class="st1" d="M78.2,248.7c0.2-1.7,0.3-3.5,0.1-5.1C78,245.3,78,247,78.2,248.7"/>
		<path class="st1" d="M105.7,162.5c-3.7,5.6-7.2,11.3-10.5,17.2c2.5-5.9,5.1-11.7,7.6-17.4c-4.1,6.2-8.2,12.6-11.8,19.2
			c2.1-5.4,4.4-10.6,7.1-15.8c0.6-1.2,1.9-3.4,2.5-4.5c-1,1.4-2,2.7-2.9,4.2c-5.6,8.2-10.5,16.9-14.4,26.1c2-6.7,4.1-13.4,6.8-19.8
			c-13.2,23.2-21.5,49.9-19.8,76.8c0.1,1.4,0.1,3.4,0.2,4.6c0.2-2,0.3-4.1,0.5-6.1c0.6-5,1.3-9.7,2.2-14.2
			c-0.4,5.9-0.3,11.8,0.3,17.7c0.3-8.5,1.6-16.2,3.4-23.8c-0.3,3.2-0.4,6.6-0.4,9.8c0,1.3-0.1,3-0.1,4c0.3-2,0.6-3.9,0.9-5.9
			c0.9-4.8,2-9.5,3.2-14.3c-1,6-1.6,12.3-1.7,18.4c3.9-26.4,17.5-50.9,27.9-75.6c0.8-1.7,2-4.2,2.5-5.4
			C107.9,159.2,106.8,160.9,105.7,162.5"/>
		<path class="st1" d="M69,216.2c-2.1,8.8-2.6,17.9-3.1,26.8c-0.1,1.2-0.1,2.6-0.2,3.6c0.3-1.4,0.5-2.9,0.8-4.3
			c4-22.4,10.9-44.2,18-66.6C78.3,188.8,72.3,202.1,69,216.2"/>
		<path class="st1" d="M63.9,239c0-0.1,0.1-0.4,0-0.4C63.9,238.7,63.9,238.9,63.9,239"/>
		<path class="st1" d="M81.7,176.5c-3.7,6.7-7,13.6-9.7,20.8c2-6.6,4.3-13,7-19.3c-2,3.1-3.7,6.1-5.4,9.4
			c-8.3,13.1-13.7,28-14.6,43.5c1.1-4.6,2.4-9.2,3.7-13.8c-1.6,8.2-2.3,16.5-1.8,25c0,1.4,0.1,3.2,0.1,4.3c0.2-1.7,0.4-3.4,0.7-5.1
			c1.4-10.4,2.8-17.4,4.9-25.5c-0.8,4.1-1.3,8.2-1.5,12.3c4.4-17.5,11.2-34.4,16.9-51.5c0.3-0.8,0.7-1.8,0.9-2.4
			C82.5,174.9,82.1,175.7,81.7,176.5"/>
		<path class="st1" d="M317.5,246.3C317.5,246.4,317.5,246.4,317.5,246.3"/>
		<path class="st1" d="M324,198.1c3.3,7,6.4,14,8.8,21.4c-3.5-17.5-10.5-34.1-19.5-49.4c-4.8-7.7-11-14.3-17.3-20.8
			c-0.8-0.8-1.6-1.6-2.4-2.4c1.1,1.3,2.1,2.6,3.2,4c5.4,7,10,13.9,14.1,21.2c-4.9-7.3-10.4-14.1-16.9-20.3
			c4.5,5.4,8.1,10.8,11.5,16.7c-3-3.8-6.3-7.7-10.2-11.6c-0.9-1-2-2-2.9-3.1c1.3,1.6,2.5,3.3,3.7,5c4.3,6.1,8.4,12.7,12.2,19.5
			c-5.6-8.9-12.3-17.1-20-24.1c5,5.9,9.2,12.3,13,18.9c-4.7-6.7-10-13-15.8-18.6c-1.4-1.4-3.2-3.1-4.3-4.2c1.5,1.8,3.1,3.7,4.5,5.5
			c7.7,9.6,14,20.3,19.3,31.5c-6-12.3-14-23.4-24-32.9c-1.7-1.7-3.5-3.5-5.2-5.1c1.8,2.2,3.5,4.4,5.2,6.7
			c10.3,13.4,18.1,27.3,24.6,43.6c5.6,13.1,9.3,25.1,11.9,39.2c-0.4-15.8-3.8-31.4-10-45.8c5.4,12.3,9.9,25,14,37.7
			c-2.1-11.2-4.3-22.6-7.8-33.4c4.7,10.6,8.9,21.1,11.5,31.8c0.5,2.3,1,5.2,1.3,7.2c-0.1-2-0.2-4.2-0.3-6.2
			c-0.9-11-3.7-21.8-7.7-32.2c2.8,6.1,5.4,12.3,7.7,18.5c-1.1-5.6-2.4-10.8-3.9-15.8c2.9,6.6,5.5,13.3,7.7,20.1
			c0.6,1.7,1.2,3.7,1.6,5.2c-0.3-1.4-0.6-2.8-0.9-4.3C329.1,213.8,326.9,205.8,324,198.1"/>
		<path class="st1" d="M334.2,209.2c-5.7-17.8-12.5-35.8-25.1-50.1c-5.7-6.4-11.6-13.2-19.3-17.1c5.7,3.7,9.9,9.1,14.1,14.5
			c12,15.1,20.3,32.1,28.5,50.2c1.3,2.7,2.6,5.9,3.7,8.3C335.5,213.2,334.9,211.2,334.2,209.2"/>
		<path class="st1" d="M334.5,244.6c-0.6,1.6-1.2,3.3-1.8,4.9c-3.3,8.5-6.6,17-10.1,25.5c0-0.2,0.1-0.3,0.1-0.5
			c-3.1,7.7-6.1,12.9-10.1,20c-0.5,0.9-1.1,1.9-1.6,2.8c5.1-10.9,8.6-22.6,11.5-34.3c0.3-1,0.5-2,0.7-3c-0.7,1.8-1.4,3.6-2.1,5.4
			c-3.2,7.3-6,13.8-8.9,19.9c2.7-8.4,4.6-17.5,5.7-27.4c-8.2,30.1-19.6,50.2-37.5,75c-1.4,2.1-3.2,4.5-4.5,6.4
			c1.5-1.7,3.1-3.3,4.6-5c6.3-6.2,11.7-12.5,16.3-18.9c-3.3,6-6.9,12.1-11,18.9c3.8-4.8,7.7-9.5,11.3-14.5c-1.6,2.5-3.3,4.9-5,7.4
			c-0.9,1.3-2,2.7-2.8,3.9c0.8-0.9,1.5-1.6,2.2-2.5c5.4-5.6,10.5-11.6,14.8-18c-2.3,4.6-4.8,9.1-7.3,13.5c1.2-1.6,2.4-3.2,3.6-4.9
			c-1.6,2.6-3.2,5.1-4.9,7.7c-1.4,2.1-3.1,4.4-4.5,6.3c1.1-1.2,2.2-2.5,3.3-3.7c17.8-19.8,33.4-43.3,36.2-70.4
			c-2.4,9.2-5.9,17.7-10,26c4.8-12.1,7.5-24.9,10.8-37.4C334,246.7,334.3,245.6,334.5,244.6"/>
		<path class="st1" d="M334.8,265.4c-3.7,10.4-8.7,20.2-13.4,30.1c-4.6,9.9-9.3,19.3-14.1,28.4c13.1-18,24.9-37.8,28.4-60.2
			c0.1-0.6,0.3-1.4,0.3-1.9C335.5,263,335.2,264.2,334.8,265.4"/>
		<path class="st1" d="M321.7,307.1c6.4-9.5,12.1-20.2,12.3-31.9C331.4,286.2,326.1,296.8,321.7,307.1"/>
		<path class="st1" d="M179.4,378.2c1.2-0.1,2.5-0.3,3.7-0.4C181.9,377.7,180.6,377.8,179.4,378.2"/>
		<path class="st1" d="M201.1,375.4c23.1-0.9,46.3-4.5,67.9-12.1C246.3,367.1,223.4,369.7,201.1,375.4"/>
		<path class="st1" d="M245.6,362.4c-8.7,1.7-17.6,1.9-26.4,2.8c16.1-2.4,31.9-6,47.3-11.1c-3.9,0.8-7.9,1.4-11.8,2
			c0.8-0.3,1.5-0.4,2.3-0.7c-10.1,1.9-20.4,3-30.6,4.4c11.7-2.5,23.2-5.6,34.7-8.7c-6.5,0.9-12.9,1.8-19.3,2.8c3.7-0.9,7.3-2,11-3.2
			c-21.1,3.7-42.6,6.6-63.6,9.8c5.6,0,11.3-0.3,16.9-0.7c-11.7,2-23.4,4.2-35.1,6.3c9.8-0.6,19.6-1.2,29.3-2.2
			c-4.6,0.8-9,1.4-13.4,2c4.6,0,9.2-0.2,13.8-0.4c-5.2,1-10.4,2-15.5,3c2.7-0.1,5.5-0.3,8.3-0.4c-4.5,0.5-9,1-13.5,1.5
			c7.9,0.4,15.9,0.6,23.9,0.3c-8.1,1.5-16.3,3.2-24.3,5c27.7-1.4,55.3-5,81.6-14c-6.3,1.1-12.6,2-18.9,2.8
			C243.3,363.3,244.4,362.8,245.6,362.4"/>
		<path class="st1" d="M188.4,256.7c0.1,0.2,0.3,0.4,0.3,0.5l0.1,0.2c5.4,10,10.1,20.3,15,30.6c0.4,0.6,0.9,1.1,1.2,1.3
			c0.4-0.1,0.9-0.4,1.3-0.7c0-0.2,0.1-0.3,0.1-0.5c0,0,0-0.1,0.1-0.1c0-0.1,0-0.2,0-0.3c-5.1-11.1-10-22.2-15.9-32.8
			c-0.4-0.8-1.2-1.4-2-1.4c-7.4-0.3-14.8-0.5-22.2-0.8c-3.7-0.2-7.5-0.1-11.2,0c9.1-3.3,21-8.2,29.6-12.9c1.3-0.9,3.2-1.3,3.7-3
			c0.1-1.9,0.3-8.4,0.5-12.5c0.3-10.4,0.7-20.9,0.3-31.2c-0.1-0.6,0.1-1.4-0.3-1.9c-0.6-0.8-1.8-0.4-1.9,0.6
			c0.1,14.3-0.2,31.2-0.9,44.2c0.4-0.2-5.4,3.2-7.9,4.3c-8.3,3.7-16.9,7-25.4,10.2c-2.2,0.9-5.2,1.8-6.3,2.6c-1.1,1-0.2,2.9,1.2,2.9
			c8.3,0.2,16.6-0.2,24.9,0.3c5.2,0.2,10.4,0.2,15.6,0.4C188.3,256.6,188.4,256.6,188.4,256.7"/>
		<path class="st1" d="M248.2,235c-1.3-0.3-4.3-0.1-6.8-0.3c-9.1-0.1-18.2-0.3-27.3-0.9c-2.7-0.2-9.4-1.3-8.9-1.3
			c-5.2-12-11.1-27.8-15.9-41.2c-0.3-0.9-1.7-0.9-2,0.1c-0.2,0.6,0.2,1.2,0.3,1.9c3.2,10,7.1,19.6,10.9,29.3c1.5,3.8,4,9.9,4.7,11.6
			c1,1.4,3.1,1.1,4.5,1.5c9.6,1.5,22.6,2,32.3,2c-3.6,1.3-7.1,2.5-10.6,3.8c-6.9,2.7-13.8,5.4-20.6,8.3c-0.9,0.3-1.3,1.2-1.4,2
			c-1.9,11.8-2.7,23.8-3.7,35.8c0.4,0.6,0.9,1.2,1.4,1.4c0.3-0.1,0.8-0.3,1.1-0.6c1.1-11.7,2-23.5,3.7-35.1v-0.2
			c0-0.2,0.1-0.4,0.2-0.6c0-0.1,0-0.1,0-0.2c4.8-2,9.7-3.7,14.6-5.7c7.7-3.3,15.6-5.9,23.3-8.9C249.4,237.7,249.6,235.6,248.2,235"
			/>
		<path class="st1" d="M186.3,230.6c-33.4-2.6-70.5-6-94.6,14.3c-3.1,2.5-5.9,5.4-7.7,8.9c-0.9,1.9-2,4.4-1.8,6.2
			c0.4,0.9,2,0.9,2.3-0.1c1.8-7.8,7.5-12.3,14.5-17c24.3-15.3,57-11.4,87.4-9.2C186.2,232.7,186.2,231.6,186.3,230.6"/>
		<path class="st1" d="M300,193c-1.7-2.7-5-3.7-8.1-3.8c-9.9-0.3-18.5,5.5-26.7,10.2c-11.6,7.1-22.9,14.6-34.6,21.5
			c-6.6,3.9-13.1,7.7-19.9,11.1c-2.5-0.1-5-0.2-7.7-0.3c0.4,0.6,0.9,1.2,1.3,1.8c0.1,0,0.1,0,0.2,0c3.5,0.2,6.9,0.8,10.3,1.5
			c17.7-0.1,35.4-3,52.1-9c7.5-2.7,14.8-6,21.5-10.3c4.9-3.2,9.8-7.2,11.9-12.8C301.6,199.8,301.8,196,300,193 M275.9,219
			c-18.4,8.3-39.8,12.9-59.5,13h-0.1c3.7-1.9,7.3-3.9,10.8-6.1c13-7.6,25.5-15.8,38.4-23.7c8-4.9,17.3-10.6,25-10.6
			c3.9,0,6.3,1,7.3,3C301.7,205.2,286.9,213.9,275.9,219"/>
		<path class="st1" d="M169.4,246.3c-1.4-3.1-2.9-6-4.3-9.2c0.9,3.2,1.9,6.5,2.8,9.8C168.3,246.7,168.8,246.5,169.4,246.3"/>
		<path class="st1" d="M176.2,243.3c-1.4-2.5-2.6-4.9-4-7.6c1,2.6,2,5.4,2.9,8.1C175.5,243.6,175.8,243.5,176.2,243.3"/>
		<path class="st1" d="M155.8,250.2c0.8-0.3,1.6-0.5,2.4-0.7c-2.1-4.7-4.2-9.5-6-14.3C153.3,240.2,154.5,245.3,155.8,250.2
			L155.8,250.2"/>
		<path class="st1" d="M197.3,268.7c-0.3-0.1-0.5-0.2-0.7-0.3c1.4,3.3,2.9,6.6,4.4,9.8c-0.1-0.5-0.2-1-0.2-1.6
			c-0.4-0.3-0.7-0.7-0.9-1.1C198.9,273.3,198.1,271,197.3,268.7"/>
		<path class="st1" d="M211,351.7c3.1-0.5,6.2-1,9.3-1.5c-4-4.9-7.7-9.8-11.2-14.7c1.7,2.3,3.5,4.5,5.3,6.7c2.2,2.6,4.5,5.3,6.8,7.8
			c4.9-0.9,9.7-1.6,14.6-2.6c7.5-1.4,15.1-2.8,22.5-4.7c-5.2-6.8-10.6-13.5-15.9-20.1c5.7,6.9,11.8,13.4,18.3,19.6
			c0.2-0.1,0.3-0.1,0.5-0.1c4.2-1.2,7.9-3,11.5-5c-12.4-11.2-23.1-23.9-35.8-38.4c-7-7.8-13.6-15.9-20.7-23.6
			c-3.1-3.4-6.1-6.7-9.1-10.2c0,0.2,0,0.3,0.1,0.4c0.1,1.6-0.3,3.2-0.6,4.8c3.7,6,7.6,12.1,11.3,18.1c4.6,7.5,9.5,14.8,14.7,21.9
			c-0.9-1.2-1.9-2.4-2.8-3.7c-8.3-11.3-16.2-21.9-23.6-32.7c-0.1,1-0.3,2-0.3,3.1c-0.2,1.6,0.6,3.3,0.3,4.9
			c-0.3,1.3-1.4,1.9-2.4,1.8c3.9,7.8,8.2,15.4,12.8,22.9c-2.9-4.3-5.8-8.6-8.8-12.9c-9.4-13.5-17.3-25.5-24.9-38.7
			c-1.3,0-2.6-0.1-3.8-0.2c1.6,4.5,3.2,9.1,5.1,13.5c5.5,13,12.2,25.5,19.1,37.8c0.7,1.2,1.4,2.4,2.1,3.7
			c-11.7-17.5-22.3-36.2-32.2-56c-1,0.1-2.1,0.2-3.2,0.3c3.7,12.7,7.7,25.4,13.2,37.5c2.3,5.4,4.9,10.6,7.6,15.7
			c-11-17.1-21.6-34.7-30.4-53c-1.1,0.3-2.1,0.5-3.2,0.5c8.3,28.7,21,55.9,37.9,80.6c3.2,4.7,6.5,9.3,10,13.9
			c-6-7.2-11.2-14-13.9-18.6c-18.6-30.1-34.6-61.8-47.9-94.5l0,0c0-0.1-0.1-0.1-0.1-0.2c0,0.1,0,0.3,0.1,0.3
			c5.1,20.1,10.6,40.4,18.1,59.9c-11.2-19.7-21.2-40-28-61.6c3,21,8.7,41.6,16.9,61.2c-9.5-17.5-19.1-38.1-26.1-55.8
			c4.2,17.5,9.2,34.7,15.2,51.5c-8.8-15.8-17.5-33.5-25.5-50.6c6.3,21.3,13.1,42.8,22.4,63.2c-11.7-19.5-21.5-40-30.1-61.1
			c6,22.1,12.8,44.6,22.4,65.6c-0.5-0.9-1-1.7-1.5-2.6c-10.7-19.2-20.5-39.4-26.1-60.4c2,16.5,5.8,33,11.3,48.8
			c-7.1-14.7-12.1-29.7-15.6-45.5c1.3,15.2,3.7,30.6,8.3,45.3c-5.7-12.9-10.2-26.7-13.5-40.5c0.9,12.4,2.5,24.6,5.1,36.2
			c-3.6-9.6-6.6-19.4-9.1-29.3c1.8,12.9,4.1,26.1,7.7,38.7c1.9,3.3,3.3,6.9,5.2,10c3.5,5.9,7.4,11.6,12.2,16.4
			c10.2,10.6,23,19.3,35.7,26.6c6.4,3.7,12.8,6.3,20.1,6.6c9.2-0.8,18.4-2,27.6-3.2C200.3,353,206.8,352.4,211,351.7"/>
		<path class="st1" d="M274.5,335.7c3-2.7,5.9-5.5,8.6-8.6c-9.7-6-20.4-15.4-29.7-23.8c-5.7-4.9-13.9-13.3-21.8-20.6
			c-6.9-6.4-14.1-12.3-20.9-18.7c16.7,19.8,30.1,42.3,49.3,59.9C264.5,328.1,269.2,332.2,274.5,335.7"/>
		<path class="st1" d="M276.9,320.7c2.6,1.4,4.9,3.4,7.6,4.9c1.1-1.4,2.2-2.7,3.2-4.2c3.6-5.2,6.7-10.7,9.9-16.3
			c2.6-4.7,6.8-10.4,8.5-15.9c0.1-0.5,0.2-1,0.3-1.6c0.3-0.9,0.5-1.8,0.8-2.6h0.1c0.1-0.1,0.1-0.3,0.2-0.3
			c1.3-6.3,2.6-12.5,3.5-18.9c-20.3-7-41.4-17.1-59.8-27.9c12.8,9.7,26.3,20.4,40.7,29.2c-16.3-7.5-32.1-16.2-47.7-24.7
			c12.9,9.3,25.6,19.7,38.9,28.7c-2.4-1.3-4.6-2.4-6.6-3.4c-12.1-6.5-24.3-12.7-36-19.8c13.4,11.3,27.3,22,41.8,31.8
			c0.5,0.3,0.9,0.7,1.4,0.9c-3.9-2.2-8.2-4.7-12.9-7.5c-13.6-7.9-27.6-15.5-39.5-25.9c10,12.2,22.1,22.5,34.5,32.1
			c6.1,4.7,12.3,9.4,18.6,13.8c-2.9-1.7-6-3.5-9.3-5.5c-17.1-10.5-33.8-22.2-48.2-35.9c8.5,10.6,17.7,21,27.7,30.6
			c-13-9.2-25.6-19.7-37.4-31.4c8.8,12.5,18.6,24.4,29.5,35.1c-12.9-10.1-23.2-19.8-34.4-32.4c10,15.3,20.4,30.6,33.8,43.2
			C255.4,305.7,266.1,313.4,276.9,320.7"/>
		<path class="st1" d="M245.9,242.4c0.2,0.1,0.3,0.3,0.4,0.3C246.2,242.5,246,242.5,245.9,242.4"/>
		<path class="st1" d="M312,254.8c-5.9-1.5-11.9-3.5-19.2-6.1c-13.2-4.5-26.3-9.2-38.6-15.9c17.4,13,36.3,24.9,56.8,32.2
			C311.4,261.6,311.7,258.2,312,254.8"/>
		<path class="st1" d="M312,252c0.1-2.4,0-4.7-0.2-7.1c-3.7-0.6-7.2-1.3-10.7-2c-12.4-2.6-26.8-6-40.3-12.3
			c15.5,10.8,32.9,18.6,51,23.8C312,253.5,312,252.7,312,252"/>
		<path class="st1" d="M311.9,244.3c-0.2-2.8-0.4-5.6-0.9-8.4c-1.5-0.1-3.1-0.3-4.8-0.4c-13.8-1-25.6-2.8-38.1-7.9
			c11.1,7.2,23.4,12.3,36.3,15C306.9,243.2,309.4,243.8,311.9,244.3"/>
		<path class="st1" d="M307.6,218.2c-8.9,2.6-17.8,4.8-26.9,6.1c8.5,0.1,18.5,0.5,28.3-0.3C308.6,222.1,308.1,220.1,307.6,218.2"/>
		<path class="st1" d="M309.4,226.1c-0.4,0.1-0.8,0.2-1.2,0.2c-10.8,1.4-20.3,1.5-31.9-0.9c9.5,4.5,22.1,7.7,34.5,7.8
			C310.3,230.9,309.9,228.5,309.4,226.1"/>
		<path class="st1" d="M305.9,211.5c-7,3.8-15.8,8.1-22.8,10.3c8.1-1.3,16.3-2.7,24.2-5C306.8,214.9,306.3,213.2,305.9,211.5"/>
		<path class="st1" d="M304.1,205.1c-4.4,4.6-9.6,8.6-15.8,12.7c6-2,11.9-4.3,17.2-7.7C305.1,208.4,304.6,206.7,304.1,205.1"/>
		<path class="st1" d="M293.3,202.5c-1.4,1.6-3.8,3.8-6,5.4c-0.9,0.6-1.9,1.2-2.9,1.7c3.6-2.8,6.8-6.1,8.8-10.2
			c-4.2,4.9-9.5,8.2-15.2,11.1c4.9-3.4,9-7.8,12.9-12.3c-6.3,5.8-13.8,9.5-21.5,13c4.8-3,9.4-6.1,14-9.3c-4.9,2.1-9.7,4.2-14.6,6.2
			c5.2-3.3,10-6.6,15.4-9.9c-6.4,2.3-12.6,4.9-18.6,7.8c7.6-4.8,15.2-9.3,23.6-12.4c-23.2,4-42.8,18.7-60.9,32.7
			c4.9-2.7,10-5.1,15.2-7.6c-3.8,2.6-7.7,5.4-11.2,8.4c2-0.9,3.8-1.7,5.8-2.6c-1.6,1.1-3.1,2.1-4.3,3c5.2-2.2,10.5-4.2,15.7-6.4
			c-0.4,0.2-0.8,0.4-1.2,0.6c0.7-0.2,1.4-0.4,2.2-0.6c1.9-0.5,3.7-1,5.5-1.6c-0.3,0.1-0.5,0.3-0.8,0.3c-3.2,1.4-6.6,2.7-9.7,3.8
			c1.1-0.2,2.1-0.3,3.2-0.5h0.1c-0.3,0.1-0.5,0.2-0.7,0.3c-5.2,2-10.8,4.4-15.8,6.5c3-0.7,6-1.4,9-2.2c16.4-4.3,34.9-6,47.8-18.1
			c3.6-3.7,7.2-8.2,7.5-13.5C296.4,198.7,294.9,200.6,293.3,202.5"/>
		<path class="st1" d="M118,170.5c0.1,0.2,0.3,0.4,0.3,0.5C118.3,170.8,118.1,170.7,118,170.5"/>
		<path class="st1" d="M134.6,193.8c9,13.1,19.6,25.1,31,36.2C156,217.4,145.7,205.2,134.6,193.8"/>
		<path class="st1" d="M134.4,178.3c11,13.5,25.6,31.2,36.8,41C160.3,204.5,148.1,190.7,134.4,178.3"/>
		<path class="st1" d="M240.5,147.7c7.7,10,16.3,19.1,25.9,27.2C258.3,165.2,249.7,156.2,240.5,147.7"/>
		<path class="st1" d="M240.6,156.4c6.2,9.1,14.5,16.9,22.3,24.5C256.4,171.9,248.4,164.3,240.6,156.4"/>
		<path class="st1" d="M102.9,113.9c18.8-14,42.5-20.9,66.2-24.3c2.1-0.5,4.6-0.2,6.5-1.4c0.7-0.7,0.3-1.9-0.6-2.1
			c-1-0.3-2.1,0.1-3.2,0.2c-13.7,1.6-27.2,4.8-40,9.6c-6,2.1-11.7,4.7-17.4,7.7c-5.7-21.5-10.8-43.2-14.1-65.3
			c0.1-0.1,0.2-0.2,0.2-0.3c11.8-13.7,33.7-22.6,52.8-26.6c2.6-0.8,5.5-0.9,8.1-1.9c0.9-0.7,0.3-2.2-0.8-2.2
			c-21.7,3.4-43.8,11.7-59.9,27.1c-0.7,0.8-1.5,1.5-2,2.4c-0.5,0.1-0.9,0.5-0.9,1.1c2.8,20.7,8.3,41,13.4,61.1
			c0.6,1.8,0.9,3.7,1.4,5.6c-7.2,4.1-13.7,9-19.2,15.1c-1.4,1.5-2.6,3.2-3.7,5c-2.1,3.2-3.4,7-2.4,10.6c0.8,4.7,2.7,9.4,5.1,13.5
			c0.3,0.4,0.6,0.9,0.9,1.3c-11.3,12.5-21.3,26.5-28.7,41.6c-6.7,14.2-10.7,29.7-11.8,45.5c-1.1,6.7-0.8,13.6-0.4,20.4
			c0.8,18.8,6.7,37.2,15.2,53.9c2.6,5.2,6.1,10,9.7,14.6c0.1,0.1,0.1,0.1,0.2,0.1c7,10.9,15.5,20.9,25.5,29.3
			c8.4,7.2,17.2,13.9,26.6,19.7c0,0,0.1,0,0.1,0.1c4.4,3.2,9.5,5.4,14.5,7.4c2.9,1.1,6,2,9,2.4c0.4,0.1,0.9,0.3,1.4-0.1
			c0,0,0,0,0-0.1c0.1,0,0.1,0,0.2,0c21.8-0.6,43.5-4.3,64.8-9c1.3-0.3,2.7-0.4,3.9-1.1c0.6-0.5,0.5-1.5-0.2-1.9
			c-1.9-0.4-5,1-7.2,1.3c-17.2,3.7-34.5,7.2-52,8.3c-8.9,1.1-18.8-2.5-27.8-7.2c-3.4-1.9-9.1-5.3-13.6-8.3c-0.2-0.1-0.3-0.2-0.5-0.3
			c-0.4-0.3-0.8-0.5-1.2-0.8c-5.6-4-11-8.3-16.3-12.8c-16.1-13.5-29-32.3-37.3-52.7c-6.7-15.5-11.6-33.5-11.6-49.5
			c-0.1-13.3,1.7-26.6,4.4-39.2c3.6-12.4,9.1-24.3,16.4-35.2c4.4-6.6,9.2-13.2,14.3-19.3c2-2.2,3.6-4.1,5-5.6c0.3-0.3,0.5-0.6,0.5-1
			c0.1-0.8-0.5-1.4-1.2-1.5c-1.8-1.9-3.4-6-4.8-9.5c-0.5-1.7-0.9-3.3-1.3-4.9c-0.2-1.7-0.2-3.5,0.3-5.3
			C92.3,122.9,97.2,118.5,102.9,113.9"/>
		<path class="st1" d="M98.7,148.5c-0.5,0-1-0.2-1.4,0.1c-0.5,0.4-0.3,1.3,0.4,1.4c0.4,0,0.9,0.1,1.4-0.2
			C99.6,149.5,99.4,148.5,98.7,148.5"/>
		<path class="st1" d="M205.5,163.9c-2.6,0.8-5.2,1.5-7.8,2.1c-11.6,2.7-23.2,5.5-35,6.8c-4.7,0.3-11.2,0.2-14.9-2.6
			c-5.3-5.2-9.3-13.7-14.3-20.5c-0.6-0.9-1.6-2.4-1.9-2.7c-0.2-0.2-0.3-0.4-0.3-0.6c0.9-0.1,1.7-0.3,2.5-0.3
			c15.4-1.7,30.9-3.4,46.1-6.6c1.1-0.3,2.4-0.4,3.4-1c0.7-0.6,0.5-1.7-0.3-2c-5.7,0.9-13.8,2.9-20.7,3.8c-9.5,1.6-19,2.6-28.5,4
			c-4.9,0.8-9.8,1.6-14.6,2.4v-0.1H119c-0.1,0-0.1,0-0.2,0.1h-0.1c-0.4,0.1-0.9,0.2-1.3,0.3c0,0,0,0,0,0.1c-1.9,0.3-3.7,0.5-5.7,0.7
			c-3.2,0.4-6.6,0.6-9.7,1.1c-0.6,0.3-0.3,1.4,0.5,1.3c5-0.3,10-0.9,14.9-1.5c-4.7,4.6-8.3,10.6-11.7,16.1
			c-0.5,1.1-13.9,23.7-8.3,19.7c5.4-12.3,13.5-25.9,22.3-35.4c0.2-0.2,0.2-0.4,0.2-0.7c3.2-0.4,6.5-0.9,9.7-1.4c0,0.1,0,0.2,0.1,0.3
			c3.8,5.6,7,10.5,10.5,16.3c1.9,2.9,3.6,6,6,8.3c6,4.4,14.1,3.7,21.2,3.2c12.9-1.7,25.5-4.6,38.1-7.7c1.4-0.6,4-0.3,3.8-2.4
			C208.9,162.4,206.8,163.5,205.5,163.9"/>
		<path class="st1" d="M93.8,190.5c-1.8-2.1-2.6,2.1-3.2,3.3c-2,4.9-3.7,9.9-5,14.9c-8.3,33.2-4.5,69.8,12.3,99.8
			c0.7,1.7,16,25.6,15.1,19.2c-25.6-30.6-34.2-71.5-27.1-110.5c1.1-5.5,2.6-11.6,4.9-17.6c0.9-2.7,2.1-5.4,3.2-8.2
			C93.9,191,93.9,190.8,93.8,190.5"/>
		<path class="st1" d="M220.2,351.8c-13,2.5-26.2,4.5-39.4,6.4c-6.7,0.8-13.5,2.1-19.4,1.2c-16.8-5.9-30.9-16.8-44.7-28.4
			c-0.4-0.3-0.8-0.8-1.2-1.1c-0.6-0.3-1.4,0.5-0.9,1.1c14.1,12.2,29.3,24.3,46.9,30.6c0.3,0,0.4-0.1,0.6-0.2
			c6.9,1.3,14.4-0.9,21.3-1.6c12.4-1.8,24.9-3.3,37.1-6.3C221.5,353.2,221.2,351.7,220.2,351.8"/>
		<path class="st1" d="M241.9,89.5c-22.5-6.8-47.1-5.1-70.5-0.3c-2.1,0.3-4.4,1.4-6.6,0.9c-0.9-0.3-0.9-1.6-0.2-2.2
			c0.9-0.6,2-0.6,3.1-0.9c13.5-3.2,27.2-4.8,41-4.6c6.3,0,12.7,0.4,18.9,1.4c-2-22.2-4.6-44.4-8.9-66.2c-0.1-0.1-0.3-0.2-0.3-0.3
			c-15.8-8.8-39.3-9.7-58.6-6.9c-2.7,0.3-5.5,1.1-8.3,1c-1-0.3-1.1-2,0-2.3c21.6-4.2,45.2-4,65.6,5c0.9,0.5,2,0.9,2.6,1.6
			c0.5-0.1,1,0.2,1.2,0.7c4.4,20.4,6.1,41.3,8.3,62.1c0.1,1.9,0.5,3.8,0.5,5.7c8.1,1.4,15.9,3.7,23.2,7.7c1.8,0.9,3.6,2.1,5.2,3.5
			c3.1,2.2,5.6,5.4,5.8,9.2c0.9,4.7,0.6,9.7-0.3,14.4c-0.1,0.5-0.3,1-0.4,1.4c14.9,7.9,29,17.6,41.2,29.4
			c11.2,11.1,20.3,24.3,26.6,38.7c3.3,6,5.4,12.6,7.3,19.2c5.7,18,6.4,37.3,4.1,55.8c-0.7,5.8-2.4,11.4-4.2,16.9
			c0,0.1-0.1,0.1-0.1,0.2c-2.9,12.7-7.4,24.9-14,36.2c-5.4,9.6-11.5,18.9-18.3,27.6l-0.1,0.1c-3.1,4.5-7,8.3-11.1,11.9
			c-2.4,2-4.9,3.9-7.7,5.4c-0.4,0.2-0.9,0.5-1.3,0.3c0,0,0,0-0.1,0l-0.1,0.1c-20.7,6.9-42.4,10.7-64,13.6c-1.4,0.1-2.7,0.6-4.1,0.3
			c-0.8-0.3-1-1.3-0.4-1.8c1.6-1,5.1-0.8,7.2-1.3c17.5-2.3,34.8-5,51.8-9.8c8.8-2,16.9-8.8,23.7-16.2c2.6-2.9,6.7-8.1,10-12.4
			c0.1-0.2,0.3-0.3,0.3-0.4c0.3-0.4,0.6-0.8,0.9-1.2c3.9-5.7,7.5-11.6,11-17.5c10.6-18.2,16.3-40.3,17.1-62.2
			c1-16.9-0.5-35.4-6-50.6c-4.4-12.5-10.6-24.5-17.5-35.4c-7.7-10.5-16.9-19.7-27.4-27.5c-6.5-4.8-13.1-9.3-20-13.3
			c-2.6-1.4-4.8-2.6-6.6-3.6c-0.3-0.2-0.7-0.4-0.9-0.8c-0.3-0.7,0-1.4,0.6-1.9c1-2.4,1.2-6.7,1.3-10.5c-0.1-1.8-0.3-3.5-0.4-5.1
			c-0.4-1.6-1-3.3-2-4.9C255,94.4,248.9,91.9,241.9,89.5"/>
		<path class="st1" d="M257.7,120.6c0.4-0.2,0.9-0.6,1.4-0.4c0.6,0.2,0.7,1.2,0.1,1.4c-0.4,0.2-0.9,0.3-1.4,0.3
			C257.2,121.8,257.1,120.9,257.7,120.6"/>
		<path class="st1" d="M256.4,137.8c-5.2-4.1-10.5-8.4-16.5-11.2c4.9-1.1,9.7-2.2,14.6-3.6c0.8-0.1,0.8-1.3,0-1.4
			c-3.2,0.6-6.4,1.5-9.5,2.2c-1.9,0.5-3.7,0.9-5.5,1.3c0,0,0,0,0-0.1c-0.4,0.1-0.9,0.2-1.2,0.3h-0.1c-0.1,0-0.1,0-0.2,0h-0.2v0.1
			c-4.9,0.9-9.7,1.8-14.6,2.8c-9.4,2-18.7,4.3-28.2,6c-6.8,1.4-15.1,2.3-20.8,3.5c-0.7,0.6-0.4,1.7,0.3,2c1.2,0.3,2.4-0.2,3.5-0.2
			c15.3-2.1,30.5-5.8,45.5-9.5c-0.1,0.4-0.2,0.9-0.3,1.2c-2.6,9.5-4.2,19.2-7.8,28.4c-0.1,0.3-0.6,1.1-1.2,2c0,0-0.3,0.3-0.6,0.3
			c-1,0.2-5.7,1.1-7.8,1.5c-0.9,0.5-0.3,2.1,0.8,2c2.1-0.1,8.4-0.4,9.7-2.6c2.1-3.1,3.1-6.6,4.1-10.2c1.9-7.4,3.9-14.7,5.6-22.2
			c0.1-0.3,0.2-0.6,0.2-0.9c3.7-0.8,7.5-1.5,11.2-2.4c0.1,0.3,0.2,0.4,0.3,0.6c11.6,6,23.8,15.9,33,25.7
			C277.6,155.3,257.4,138.7,256.4,137.8"/>
		<path class="st1" d="M276.6,158.4c0.9-2.6,3.2,1.1,4.2,2c3.5,3.9,6.8,8,9.8,12.3c19.2,28.4,28,64.1,22.4,98
			c0,1.8-6.3,29.5-7.7,23.2c13.7-37.5,7.8-78.9-12.2-113.1c-2.9-4.9-6.5-10-10.6-14.9c-1.9-2.2-3.8-4.4-5.8-6.6
			C276.6,158.9,276.5,158.7,276.6,158.4"/>
		<path class="st1" d="M212.8,353.1c13.1-2.1,26.2-4.7,39.2-7.4c6.6-1.6,13.4-2.6,18.6-5.4c13.7-11.2,23.3-26.3,32.4-41.8
			c0.3-0.5,0.4-1,0.8-1.4c0.4-0.6,1.4,0,1.2,0.7c-9.1,16.2-19.2,32.8-33.7,44.7c-0.2,0.1-0.4,0.1-0.6,0c-6.1,3.6-13.8,4.1-20.5,5.7
			c-12.3,2.6-24.5,5.4-37,6.7C212,354.9,211.7,353.4,212.8,353.1"/>
	</g>
	<path class="st1" d="M312,26.6c-1.7-0.1-3.3-1.1-4.8-2c-1.4-0.9-2.9-2-4.2-3.1c-2.6-2.4-4.3-5.4-5.1-8.7c-0.3-0.9-1.9-0.9-1.7,0.2
		c0,0.2,0.1,0.4,0.1,0.6c-0.1,0.1-0.2,0.3-0.2,0.5c0.9,7.5-3.4,14-9.4,18c-1.1,0.8-0.7,2.3,0.6,2.4c3.7,0.3,7.4,2.3,10.1,4.9
		c2.8,2.6,4.3,5.8,5.8,9.4c0.7,1.7,3.5,0.5,3-1.2c-1-3.3-0.3-7.3,0.9-10.5c1.3-3.4,3.6-5.9,5.6-8.9C313.3,27.5,312.6,26.6,312,26.6z
		 M304.6,36.1c-0.7,1.7-1,3.5-1.2,5.2c-1.2-1.6-2.6-3.2-4.1-4.3c-2.6-2-5.4-3.5-8.5-4.3c4.4-3.4,6.6-9.2,6.7-14.7
		c0.9,2,2,3.9,3.6,5.5c1.4,1.4,2.9,2.6,4.7,3.6c1.2,0.6,2.5,0.9,3.7,1.2C307.3,30.3,305.7,33.3,304.6,36.1z"/>
	<path class="st1" d="M374.5,177c-4.8,0.9-3.4,8.2,1.3,7.3C380.6,183.5,379.3,176.2,374.5,177z"/>
	<path class="st1" d="M63.3,102.2c-4.8,0.9-3.4,8.2,1.3,7.3C69.3,108.8,68,101.5,63.3,102.2z"/>
	<path class="st1" d="M223.3,388.4c-4.8,0.9-3.4,8.2,1.3,7.3C229.4,394.8,228.1,387.5,223.3,388.4z"/>
	<path class="st1" d="M24.2,342.1c-4.8,0.9-3.4,8.2,1.3,7.3C30.2,348.6,28.9,341.2,24.2,342.1z"/>
</g>
</svg>
