<?xml version="1.0" encoding="utf-8"?>
<!-- Generator: Adobe Illustrator 25.0.0, SVG Export Plug-In . SVG Version: 6.00 Build 0)  -->
<svg version="1.1" id="Layer_1" xmlns="http://www.w3.org/2000/svg" xmlns:xlink="http://www.w3.org/1999/xlink" x="0px" y="0px"
	 viewBox="0 0 400 400" style="enable-background:new 0 0 400 400;" xml:space="preserve">
<style type="text/css">
	.st0{opacity:0.1;}
	.st1{fill:#895003;}
</style>
<g class="st0">
	<g>
		<path class="st1" d="M192.7,12.9c0,0,1.2-0.7,2.2-0.4c0,0-1.7,12.4,4.7,25.7c0,0-0.2-0.4-0.4-1.3c-1-3.6-3.3-14,0.1-23.7l1.7-0.6
			c0,0-0.2-2,1.6-3.7c-1.1-0.5-4.7-1.2-7.4,0.8C194.2,10.4,193.4,11.4,192.7,12.9z"/>
		<path class="st1" d="M200,130c1.1,0,3.3,1.1,3.3,2.2l0.1-4l-5.8,0.1C197.6,128.1,201.8,129,200,130z"/>
		<path class="st1" d="M195.5,141.2c0.3-0.3,0.6-0.7,0.9-0.9c1.3-1,2.8-1.3,4.2-1.3c1.6,0.1,3,0.8,3.7,1.4c0.6-2.6-0.2-6-0.2-6
			c0,2.7-6.4,2-8.3,5.7c0,0.1-0.1,0.2-0.1,0.3C195.6,140.6,195.6,140.8,195.5,141.2z"/>
		<path class="st1" d="M196,143.9c-0.8,1.2-1.7,2.6-2.3,4.3c-0.7,1.7-1.2,3.5-1.4,5.3c-0.3,1.8-0.4,3.8-0.3,5.5
			c0.1,1.8,0.3,3.4,0.7,4.8c0.3,1.3,0.8,2.5,1.1,3.3c0.2,0.3,0.3,0.6,0.3,0.8c0,0,0,0.1,0.1,0.1c0.1,0.2,0.2,0.3,0.2,0.3
			s-0.2-0.4-0.3-1.3c-0.3-0.8-0.5-1.9-0.7-3.3c-0.3-1.3-0.3-2.9-0.3-4.7c0-0.8,0.1-1.8,0.2-2.7c0.1-0.9,0.2-1.8,0.3-2.7
			c0.2-0.9,0.3-1.8,0.6-2.7c0.3-0.8,0.4-1.8,0.8-2.5c0.6-1.6,1.2-3.1,1.9-4.3s1.5-2,2.2-2.4c0.3-0.3,0.6-0.3,0.8-0.4
			c0.2-0.1,0.3-0.1,0.3-0.1s-0.1,0-0.3,0s-0.6,0.1-0.9,0.3l0,0C197.7,141.9,196.8,142.8,196,143.9z"/>
		<path class="st1" d="M35,110.6c0,0,9.9,7.7,24.6,8.8c0,0-0.5-0.1-1.3-0.3c-3.6-0.9-13.7-4.2-20.5-11.9l0.3-1.8
			c0,0-1.8-0.8-2.4-3.3c-1,0.7-3.3,3.4-2.9,6.9c0.2,1.2,0.6,2.4,1.5,3.8C34.3,112.8,34.3,111.4,35,110.6z"/>
		<path class="st1" d="M142.9,163.2l-3.4-2.1l-2.8,5.1c0,0,2.8-3.3,2.8-1.3C139.9,164,141.9,162.7,142.9,163.2z"/>
		<path class="st1" d="M146.8,174.4c-0.2-0.4-0.3-0.8-0.3-1.3c-0.3-1.6,0.3-3.1,1.1-4.3c0.9-1.3,2.2-2.3,3.1-2.5
			c-1.9-1.8-5.3-2.9-5.3-2.9c2.3,1.3-1.4,6.5,0.8,10c0.1,0.1,0.1,0.2,0.2,0.2C146.4,174,146.6,174.3,146.8,174.4z"/>
		<path class="st1" d="M151.9,179.5c1.1,1.4,2.4,2.8,3.9,3.9c1.4,1.2,3,2.3,4.6,3.1c1.6,0.8,3.1,1.4,4.4,1.8
			c1.3,0.4,2.5,0.6,3.3,0.7c0.3,0.1,0.7,0.1,0.8,0.1h0.1c0.3,0,0.3,0,0.3,0s-0.4-0.1-1.3-0.3c-0.8-0.2-1.9-0.5-3.2-1
			c-1.3-0.5-2.8-1.2-4.2-2.1c-0.8-0.4-1.5-0.9-2.3-1.4c-0.8-0.5-1.5-1.1-2.2-1.7c-0.8-0.6-1.4-1.2-2-1.8c-0.7-0.7-1.3-1.3-1.8-1.9
			c-1.2-1.3-2.1-2.6-2.8-3.8c-0.7-1.2-1-2.3-1.1-3.1c0-0.4,0-0.8,0.1-0.9c0.1-0.3,0.1-0.3,0.1-0.3s-0.1,0.1-0.2,0.3
			c-0.1,0.2-0.2,0.5-0.2,0.9c0,0,0,0,0,0.1c-0.1,0.8,0.2,2,0.8,3.3C149.9,176.7,150.9,178.1,151.9,179.5z"/>
		<path class="st1" d="M41.6,299.9c0,0-1.2-0.7-1.5-1.7c0,0,11.5-4.8,20-17c0,0-0.3,0.3-0.9,1c-2.6,2.6-10.4,9.8-20.6,11.8l-1.3-1.2
			c0,0-1.7,1.2-4,0.5c0.1,1.3,1.3,4.6,4.5,6C38.7,299.8,40,300,41.6,299.9z"/>
		<path class="st1" d="M139,238c0,0-1.5-4.2,0.3-3c-0.6-0.9-0.8-3.3,0.3-4l-3.5,2L139,238z"/>
		<path class="st1" d="M151.3,233.3c-0.4-0.1-0.8-0.2-1.3-0.3c-1.5-0.6-2.5-1.8-3.2-3c-0.8-1.4-0.9-3-0.6-3.9
			c-2.5,0.8-5.2,3.2-5.2,3.2c2.3-1.3,4.9,4.5,9.1,4.3c0.1,0,0.2,0,0.3,0C150.7,233.4,151,233.4,151.3,233.3z"/>
		<path class="st1" d="M158.2,231.3c1.8-0.3,3.6-0.8,5.3-1.4c1.8-0.7,3.4-1.5,4.9-2.4c1.5-0.9,2.8-2,3.8-2.9c1-1,1.8-1.9,2.3-2.6
			c0.3-0.3,0.3-0.5,0.5-0.7c0,0,0-0.1,0.1-0.1c0.1-0.2,0.2-0.3,0.2-0.3s-0.3,0.3-0.8,0.9c-0.6,0.6-1.4,1.3-2.5,2.3
			c-1.1,0.8-2.4,1.8-3.9,2.6c-0.8,0.4-1.5,0.8-2.3,1.2c-0.8,0.4-1.7,0.8-2.5,1.1s-1.8,0.6-2.6,0.8c-0.8,0.3-1.8,0.5-2.6,0.6
			c-1.7,0.3-3.3,0.5-4.6,0.5c-1.3-0.1-2.5-0.3-3.2-0.6c-0.3-0.2-0.6-0.3-0.8-0.5c-0.2-0.2-0.3-0.3-0.3-0.3s0.1,0.1,0.2,0.3
			c0.2,0.2,0.3,0.4,0.8,0.7l0,0c0.7,0.5,1.8,0.9,3.3,1C154.8,231.7,156.5,231.7,158.2,231.3z"/>
		<path class="st1" d="M207.3,387.1c0,0-1.2,0.7-2.2,0.4c0,0,1.7-12.4-4.7-25.7c0,0,0.2,0.4,0.4,1.3c1,3.6,3.3,14-0.1,23.7l-1.7,0.6
			c0,0,0.2,2-1.6,3.7c1.1,0.5,4.7,1.2,7.4-0.8C205.8,389.6,206.6,388.6,207.3,387.1z"/>
		<path class="st1" d="M200,270c-1.1,0-3.3-1.1-3.3-2.2v4l5.8-0.1C202.4,271.9,198.2,271,200,270z"/>
		<path class="st1" d="M204.5,258.8c-0.3,0.3-0.6,0.7-0.9,0.9c-1.3,1-2.8,1.3-4.2,1.3c-1.6-0.1-3-0.8-3.7-1.4c-0.6,2.6,0.2,6,0.2,6
			c0-2.7,6.4-2,8.3-5.7c0-0.1,0.1-0.2,0.1-0.3C204.3,259.4,204.4,259.2,204.5,258.8z"/>
		<path class="st1" d="M204,256.2c0.8-1.2,1.7-2.6,2.3-4.3c0.7-1.7,1.2-3.5,1.4-5.3c0.3-1.8,0.4-3.8,0.3-5.5
			c-0.1-1.8-0.3-3.4-0.7-4.8c-0.3-1.3-0.8-2.5-1.1-3.3c-0.2-0.3-0.3-0.6-0.3-0.8c0,0,0-0.1-0.1-0.1c-0.1-0.2-0.2-0.3-0.2-0.3
			s0.2,0.4,0.3,1.3c0.3,0.8,0.5,1.9,0.7,3.3c0.3,1.3,0.3,2.9,0.3,4.7c0,0.8-0.1,1.8-0.2,2.7s-0.2,1.8-0.3,2.7
			c-0.2,0.9-0.3,1.8-0.6,2.7c-0.3,0.8-0.4,1.8-0.8,2.5c-0.6,1.6-1.2,3.1-1.9,4.3c-0.8,1.2-1.5,2-2.2,2.4c-0.3,0.3-0.6,0.3-0.8,0.4
			c-0.2,0.1-0.3,0.1-0.3,0.1s0.1,0,0.3,0c0.3,0,0.6-0.1,0.9-0.3l0,0C202.2,258.1,203.2,257.2,204,256.2z"/>
		<path class="st1" d="M360.6,279.6c-3.3-1.9-8.5-3.6-14-5.4c-9.4-3.1-19.9-6.6-21.8-11.6c-0.6-1.4-0.3-2.9,0.6-4.6l-0.3-0.2
			c0.2-0.9-0.2-1.8-1-2.3l-1.8-1.1c-1-0.6-2.3-0.3-2.9,0.8l-1.2,2l-19.6-11.3c6.5-14,10.1-29.4,10.1-45.8s-3.6-31.9-10.1-45.9
			l19.6-11.3l1.2,2c0.6,1,1.9,1.4,2.9,0.8l1.8-1.1c0.8-0.5,1.3-1.4,1-2.3l0.3-0.2c-0.9-1.7-1.2-3.2-0.6-4.6
			c1.9-5,12.5-8.5,21.8-11.6c5.5-1.8,10.7-3.5,14-5.4c9.4-5.4,12-10.8,8.7-17.4l0,0l-0.4-0.7l-0.1-0.1l-0.3-0.5l0,0
			c-4-6.3-10-6.6-19.4-1.2c-3.3,1.9-7.4,5.5-11.7,9.4c-7.4,6.5-15.6,14-21,13.1c-1.5-0.3-2.8-1.2-3.7-2.8l-0.3,0.1
			c-0.7-0.6-1.7-0.8-2.5-0.3l-1.8,1.1c-1,0.6-1.4,1.9-0.8,2.9l1.2,2l-19.6,11.3c-18-25.5-46.5-42.9-79.4-45.8V69.1h2.3
			c1.2,0,2.2-1,2.2-2.2v-2.2c0-1-0.7-1.8-1.5-2.1v-0.3c-1.9,0-3.3-0.6-4.3-1.8c-3.4-4.2-1.1-15,0.9-24.7c1.2-5.7,2.3-10.9,2.3-14.8
			c0-10.8-3.3-15.9-10.7-16.2l0,0h-0.8h-0.1h-0.6l0,0c-7.4,0.4-10.6,5.4-10.6,16.2c0,3.8,1.1,9.2,2.3,14.8c2,9.6,4.3,20.6,0.9,24.7
			c-1,1.2-2.4,1.8-4.3,1.8v0.3c-0.9,0.3-1.5,1.1-1.5,2.1v2.2c0,1.2,1,2.2,2.2,2.2h2.3v22.6c-32.8,2.8-61.4,20.3-79.4,45.8
			l-19.6-11.3l1.2-2c0.6-1,0.3-2.3-0.8-2.9l-1.8-1.1c-0.8-0.5-1.8-0.3-2.5,0.3l-0.3-0.1c-0.9,1.7-2.2,2.6-3.7,2.8
			c-5.3,0.8-13.6-6.6-21-13.1c-4.3-3.8-8.4-7.4-11.7-9.4c-9.4-5.4-15.4-5.1-19.4,1.2l0,0l-0.3,0.7l-0.1,0.1l-0.4,0.4l0,0
			c-3.4,6.6-0.7,11.9,8.7,17.4c3.3,1.9,8.5,3.6,14,5.4c9.4,3.1,19.9,6.6,21.8,11.6c0.6,1.4,0.3,2.9-0.6,4.6l0.3,0.2
			c-0.2,0.9,0.2,1.8,1,2.3l1.8,1.1c1,0.6,2.3,0.3,2.9-0.8l1.2-2l19.6,11.3c-6.5,14-10.1,29.5-10.1,45.9s3.6,31.9,10.1,45.8
			l-19.6,11.3l-1.2-2c-0.6-1-1.9-1.4-2.9-0.8l-1.8,1.1c-0.8,0.5-1.3,1.4-1,2.3l-0.3,0.2c0.9,1.7,1.2,3.2,0.6,4.6
			c-1.9,5-12.5,8.5-21.8,11.6c-5.5,1.8-10.7,3.5-14,5.4c-9.4,5.5-12.1,10.9-8.8,17.5l0,0l0.4,0.7l0.1,0.1l0.3,0.5l0,0
			c4,6.3,10,6.6,19.4,1.2c3.3-1.9,7.4-5.5,11.7-9.4c7.4-6.5,15.6-14,21-13.1c1.5,0.3,2.8,1.2,3.7,2.8l0.3-0.1
			c0.7,0.6,1.7,0.8,2.5,0.3l1.8-1.1c1-0.6,1.4-1.9,0.8-2.9l-1.2-2l19.6-11.3c18,25.5,46.5,42.9,79.4,45.8V331h-2.3
			c-1.2,0-2.2,1-2.2,2.2v2.2c0,1,0.7,1.8,1.5,2.1v0.3c1.9,0,3.3,0.6,4.3,1.8c3.4,4.2,1.1,15-0.9,24.7c-1.2,5.7-2.3,10.9-2.3,14.8
			c0,10.8,3.3,15.9,10.7,16.2l0,0h0.8h0.1h0.6l0,0c7.4-0.3,10.7-5.3,10.7-16.2c0-3.8-1.1-9.2-2.3-14.8c-2-9.6-4.3-20.6-0.9-24.7
			c1-1.2,2.4-1.8,4.3-1.8v-0.3c0.9-0.3,1.5-1.1,1.5-2.1v-2.2c0-1.2-1-2.2-2.2-2.2h-2.3v-22.6c32.8-2.8,61.4-20.3,79.4-45.8
			l19.6,11.3l-1.2,2c-0.6,1-0.3,2.3,0.8,2.9l1.8,1.1c0.8,0.5,1.8,0.3,2.5-0.3l0.3,0.1c0.9-1.7,2.2-2.6,3.7-2.8
			c5.3-0.8,13.6,6.6,21,13.1c4.3,3.8,8.4,7.4,11.7,9.4c9.4,5.4,15.4,5.1,19.4-1.2l0,0l0.3-0.7l0.1-0.1l0.3-0.5l0,0
			C372.6,290.3,370,285,360.6,279.6z M294.3,254l15.1,8.7l-13.2-9.3l18,10.4l-1.8,3.1l-0.9,1.6l-19.7-10.3c0.3-0.5,0.6-0.9,0.9-1.4
			c0.1-0.2,0.2-0.3,0.3-0.5c0.2-0.3,0.3-0.6,0.5-0.8C293.8,254.9,294.1,254.4,294.3,254z M317.5,258.2l-0.3,0.5l-19.4-11.2
			c0.1-0.2,0.2-0.3,0.3-0.6L317.5,258.2z M309.1,127.4l0.3,0.5l-19.4,11.2c-0.1-0.2-0.3-0.3-0.3-0.5L309.1,127.4z M294.3,143.4
			l18-10.4l1.8,3.1l0.9,1.6l-18.8,11.9c-0.3-0.5-0.5-1-0.8-1.5c-0.1-0.2-0.2-0.3-0.3-0.5c-0.2-0.3-0.3-0.6-0.5-0.8
			c-0.3-0.5-0.5-0.9-0.8-1.4l15.1-8.7L294.3,143.4z M367.9,102.9l0.1,0.2c0.9,1.8,1.7,3.6,1.5,5.7c-0.3,3.2-2.6,6.8-9.5,10.8
			c-3.3,1.8-8.4,3.6-13.8,5.3c-3.9,1.3-7.9,2.6-11.4,4c-5.5,2.3-9.9,4.8-11.1,8.2c-0.2,0.5-0.3,1.1-0.3,1.6v0.1l-0.8-1.3
			c0.8-7.3,17.1-12,23.6-14c6.6-2,17.3-4.4,20.7-14.5c0-0.1,0.1-0.3,0.1-0.3c-0.1,0.1-0.2,0.3-0.3,0.5c-1.8,2.5-10.1,10.5-19.8,10.2
			c0,0-8.1,5.6-21.6,10.4l4.2-3c0,0-0.6-1-0.9-1.6c0,0,8.9-5.1,7.9-6.5c-0.7-1.4,10-13.7,20-18.5c-4.1,0.8-11.2,5.8-18.3,12.7
			c-6.9,6.7-13.8,12.9-22.7,12.6l-0.8-1.3l-0.2-0.3c0.5,0.3,1.1,0.4,1.7,0.5c5.8,0.9,14-6.4,21.8-13.4c4.3-3.8,8.3-7.4,11.5-9.3
			c10.7-6.2,15-3.5,17.7,0.4C367.6,102.3,367.8,102.6,367.9,102.9L367.9,102.9z M314.7,129.6c2.3,4.3,4.6,9.1,4.9,9.7v-0.1
			c-0.1-2,1.9-0.6,3.7,1.8c0.3,0.3,0.5,0.7,0.7,1.1c0.1,0.2,0.1,0.3,0.2,0.5c0,0.4-0.2,0.8-0.5,1l-1.8,1.1c-0.5,0.3-1.2,0.1-1.5-0.4
			l-1.2-2l0.1-0.1l-1.7-2.9l-7.9-15.5c0.3,0.6,0.1,1.4,0,1.8l0,0l-0.1,0.1l-1.2-2c-0.3-0.5-0.1-1.2,0.4-1.5l1.8-1.1
			c0.4-0.3,0.8-0.2,1.3,0.1c0.1,0.1,0.3,0.2,0.3,0.3l0.1,0.1c0.3,1.1-1,0.6-1.7,1.3C311.2,123.1,313,126.1,314.7,129.6z M191.6,69.2
			h0.6v22.4c-0.2,0-0.4,0-0.6,0V69.2z M198.1,90V69.2h3.5h1.8l0.9,22.2c-0.6,0-1.2-0.1-1.7-0.1c-0.2,0-0.4,0-0.6,0c-0.3,0-0.7,0-1,0
			c-0.4,0-0.8,0-1.2,0c-0.2,0-0.3,0-0.5,0V73.9L198.1,90z M199.8,6L199.8,6h0.3c2,0,3.9,0.3,5.7,1.5c2.6,1.8,4.5,5.6,4.5,13.6
			c0,3.8-1.1,9-2.3,14.6c-0.8,4-1.7,8.1-2.2,11.9c-0.8,5.8-0.8,10.9,1.5,13.8c0.3,0.4,0.8,0.8,1.2,1.1c0,0,0,0,0.1,0.1h-1.4
			c-5.9-4.3-1.8-20.8-0.3-27.4c1.6-6.7,4.8-17.1-2.2-25.2c-0.1-0.1-0.2-0.2-0.3-0.3c0.1,0.1,0.2,0.3,0.3,0.5
			c1.3,2.8,4.1,14-1.1,22.2c0,0,0.8,9.9-1.8,23.9l-0.5-5.2c0,0-1.2,0-1.8,0c0,0,0-10.2-1.8-10.1c-1.6-0.2-6.9-15.5-6.1-26.6
			c-1.3,4-0.5,12.6,1.8,22.1c2.3,9.4,4.3,18.4-0.4,26h-1.5h-0.3c0.5-0.3,0.9-0.7,1.3-1.2c3.7-4.6,1.5-15.3-0.7-25.6
			c-1.2-5.6-2.3-10.9-2.3-14.6c0-12.4,4.5-14.8,9.2-15.1C199.2,6,199.5,6,199.8,6z M188.5,65.8c0.5-0.5,4-0.5,7.9-0.3
			c4.8,0.2,10.2,0.6,10.9,0.6h-0.1c-1.8-0.9,0.4-2,3.4-2.3c0.4,0,0.8-0.1,1.3-0.1c0.2,0,0.3,0.1,0.5,0.1c0.3,0.2,0.6,0.6,0.6,1V67
			c0,0.6-0.5,1.1-1.1,1.1h-2.3v-0.2h-3.3L189,67c0.7,0.1,1.3,0.7,1.5,0.9h-0.1v0.2h-2.3c-0.6,0-1.1-0.5-1.1-1.1v-2.2
			c0-0.4,0.3-0.8,0.7-1c0.2-0.1,0.3-0.1,0.4-0.1h0.2C189.4,63.9,188.3,64.9,188.5,65.8z M105.7,146l-15.1-8.7l13.2,9.3l-18-10.4
			l1.8-3.1l0.9-1.6l19.7,10.3c-0.3,0.5-0.6,0.9-0.9,1.4c-0.1,0.2-0.2,0.3-0.3,0.5c-0.2,0.3-0.3,0.6-0.5,0.8
			C106.2,145.1,105.9,145.6,105.7,146z M82.5,141.8l0.3-0.5l19.4,11.2c-0.1,0.2-0.2,0.3-0.3,0.6L82.5,141.8z M87.3,122.6
			c0.2-0.3,0.3-0.8,0.6-1.1c0.1-0.2,0.3-0.3,0.3-0.3c0.3-0.3,0.8-0.3,1.2,0l1.8,1.1c0.5,0.3,0.7,1,0.4,1.5l-1.2,2l-0.1-0.1l-1.7,2.9
			l-9.4,14.5c0.4-0.5,1.2-0.8,1.6-0.8l0,0l0.1,0.1l-1.2,2c-0.3,0.5-1,0.8-1.5,0.4l-1.8-1.1c-0.4-0.3-0.6-0.7-0.6-1.1
			c0-0.2,0.1-0.3,0.2-0.4l0.1-0.1c0.8-0.8,1,0.6,2,0.8c-0.2-0.7,1.5-3.7,3.6-6.9c2.6-4.1,5.6-8.5,5.9-9.1h-0.1
			C85.9,127.8,86,125.4,87.3,122.6z M32,103.1l0.1-0.2c1-1.7,2.3-3.3,4.1-4.2c2.8-1.3,7.1-1.1,14,2.9c3.3,1.8,7.3,5.4,11.5,9.3
			c3.1,2.8,6.2,5.5,9.2,7.9c4.7,3.6,9.1,6.1,12.6,5.5c0.6-0.1,1.1-0.3,1.6-0.5h0.1l-0.8,1.3c-6.7,3-19-8.8-23.9-13.5
			c-5-4.7-12.5-12.8-22.9-10.8c-0.1,0-0.3,0-0.3,0.1c0.2,0,0.3,0,0.6,0c3,0.3,14.1,3.5,18.7,12c0,0,8.9,4.3,19.8,13.5l-4.8-2.1
			c0,0-0.6,1-0.9,1.6c0,0-8.9-5.1-9.6-3.5c-0.9,1.3-16.9-1.8-26.1-8c2.8,3.2,10.7,6.8,20.1,9.4c9.3,2.7,18,5.5,22.2,13.4l-0.8,1.3
			l-0.2,0.3c0-0.6-0.2-1.1-0.3-1.7c-2.1-5.5-12.5-8.9-22.5-12.2c-5.4-1.8-10.5-3.5-13.8-5.3c-10.7-6.2-10.5-11.3-8.4-15.5
			c0.2-0.3,0.3-0.6,0.4-0.8L32,103.1z M90.9,272.6l-0.3-0.5l19.4-11.2c0.1,0.2,0.3,0.3,0.3,0.5L90.9,272.6z M105.7,256.7l-18,10.4
			l-1.8-3.1l-0.9-1.6l18.8-11.9c0.3,0.5,0.5,1,0.8,1.5c0.1,0.2,0.2,0.3,0.3,0.5c0.2,0.3,0.3,0.6,0.5,0.8c0.3,0.5,0.5,0.9,0.8,1.4
			l-15,8.8L105.7,256.7z M32,297.1l-0.1-0.2c-0.9-1.8-1.7-3.6-1.5-5.7c0.3-3.2,2.6-6.8,9.5-10.8c3.3-1.8,8.4-3.6,13.8-5.3
			c3.9-1.3,7.9-2.6,11.4-4c5.5-2.3,9.9-4.8,11.1-8.2c0.2-0.5,0.3-1.1,0.3-1.6v-0.1l0.8,1.3c-0.8,7.3-17.1,12-23.6,14
			c-6.6,2-17.3,4.4-20.7,14.5c0,0.1-0.1,0.3-0.1,0.3c0.1-0.1,0.2-0.3,0.3-0.5c1.8-2.5,10.1-10.5,19.8-10.2c0,0,8.1-5.6,21.6-10.4
			l-4.2,3c0,0,0.6,1,0.9,1.6c0,0-8.9,5.1-7.9,6.5c0.7,1.4-10,13.7-20,18.5c4.1-0.8,11.2-5.8,18.3-12.7c6.9-6.7,13.8-12.9,22.7-12.6
			l0.8,1.3l0.2,0.3c-0.5-0.3-1.1-0.4-1.7-0.5c-5.8-0.9-14,6.4-21.8,13.4c-4.3,3.8-8.3,7.4-11.5,9.3c-10.7,6.2-15,3.5-17.7-0.4
			C32.4,297.7,32.2,297.4,32,297.1L32,297.1z M85.3,270.4c-2.3-4.3-4.6-9.1-4.9-9.7v0.1c0.1,2-1.9,0.6-3.7-1.8
			c-0.3-0.3-0.5-0.7-0.7-1.1c-0.1-0.2-0.1-0.3-0.2-0.5c0-0.4,0.2-0.8,0.5-1l1.8-1.1c0.5-0.3,1.2-0.1,1.5,0.4l1.2,2l-0.1,0.1l1.7,2.9
			l7.9,15.5c-0.3-0.6-0.1-1.4,0-1.8l0,0l0.1-0.1l1.2,2c0.3,0.5,0.1,1.2-0.4,1.5l-1.8,1.1c-0.4,0.3-0.8,0.2-1.3-0.1
			c-0.1-0.1-0.3-0.2-0.3-0.3l-0.1-0.1c-0.3-1.1,1-0.6,1.7-1.3C88.8,276.9,87,273.9,85.3,270.4z M208.3,330.9h-0.6v-22.5
			c0.2,0,0.4,0,0.6,0V330.9z M201.9,310.1v20.8h-3.6h-1.8l-0.9-22.2c0.6,0,1.2,0.1,1.7,0.1c0.2,0,0.4,0,0.6,0c0.3,0,0.7,0,1,0
			s0.8,0,1.1,0c0.2,0,0.3,0,0.5,0v17.5L201.9,310.1z M200.2,394L200.2,394h-0.3c-2,0-3.9-0.3-5.7-1.5c-2.6-1.8-4.5-5.6-4.5-13.6
			c0-3.8,1.1-9,2.3-14.6c0.8-4,1.7-8.1,2.2-11.9c0.8-5.8,0.8-10.9-1.5-13.8c-0.3-0.4-0.8-0.8-1.2-1.1c0,0,0,0-0.1-0.1h1.4
			c5.9,4.3,1.8,20.8,0.3,27.4c-1.6,6.7-4.8,17.1,2.2,25.2c0.1,0.1,0.2,0.2,0.3,0.3c-0.1-0.1-0.2-0.3-0.3-0.5
			c-1.3-2.8-4.1-14,1.1-22.2c0,0-0.8-9.9,1.8-23.9l0.5,5.2c0,0,1.2,0,1.8,0c0,0,0,10.2,1.8,10.1c1.6,0.2,6.9,15.5,6.1,26.6
			c1.3-4,0.5-12.6-1.8-22.1c-2.3-9.4-4.3-18.4,0.4-26h1.5h0.3c-0.5,0.3-0.9,0.7-1.3,1.2c-3.7,4.6-1.5,15.3,0.7,25.6
			c1.2,5.6,2.3,10.9,2.3,14.6c0,12.4-4.5,14.8-9.2,15.1C200.7,394,200.5,394,200.2,394z M211.4,334.2c-0.5,0.5-4,0.5-7.9,0.3
			c-4.8-0.2-10.2-0.6-10.9-0.6h0.1c1.8,0.9-0.4,2-3.4,2.3c-0.4,0-0.8,0.1-1.3,0.1c-0.2,0-0.3-0.1-0.5-0.1c-0.3-0.2-0.6-0.6-0.6-1
			V333c0-0.6,0.5-1.1,1.1-1.1h2.3v0.2h3.3L211,333c-0.7-0.1-1.3-0.7-1.5-0.9h0.1v-0.2h2.3c0.6,0,1.1,0.5,1.1,1.1v2.2
			c0,0.4-0.3,0.8-0.7,1c-0.2,0.1-0.3,0.1-0.4,0.1h-0.2C210.6,336.1,211.7,335.1,211.4,334.2z M200,307c-59,0-107-48-107-107
			c0-59.1,48-107,107-107c59.1,0,107,48,107,107C307,259.1,259.1,307,200,307z M312.7,277.4c-0.2,0.3-0.3,0.8-0.6,1.1
			c-0.1,0.2-0.3,0.3-0.3,0.3c-0.3,0.3-0.8,0.3-1.2,0l-1.8-1.1c-0.5-0.3-0.7-1-0.4-1.5l1.2-2l0.1,0.1l1.7-2.9l9.4-14.5
			c-0.4,0.5-1.2,0.8-1.6,0.8l0,0l-0.1-0.1l1.2-2c0.3-0.5,1-0.8,1.5-0.4l1.8,1.1c0.4,0.3,0.6,0.7,0.6,1.1c0,0.2-0.1,0.3-0.2,0.4
			l-0.1,0.1c-0.8,0.8-1-0.6-2-0.8c0.2,0.7-1.5,3.7-3.6,6.9c-2.6,4.1-5.6,8.5-5.9,9.1h0.1C314.1,272.2,314,274.6,312.7,277.4z
			 M368,296.9l-0.1,0.2c-1,1.7-2.3,3.3-4.1,4.2c-2.8,1.3-7.1,1.1-14-2.9c-3.3-1.8-7.3-5.4-11.5-9.3c-3.1-2.8-6.2-5.5-9.2-7.9
			c-4.7-3.6-9.1-6.1-12.6-5.5c-0.6,0.1-1.1,0.3-1.6,0.5h-0.1l0.8-1.3c6.7-3,19,8.8,23.9,13.5c5,4.7,12.5,12.8,22.9,10.8
			c0.1,0,0.3,0,0.3-0.1c-0.2,0-0.3,0-0.6,0c-3-0.3-14.1-3.5-18.7-12c0,0-8.9-4.3-19.8-13.5l4.8,2.1c0,0,0.6-1,0.9-1.6
			c0,0,8.9,5.1,9.6,3.5c0.9-1.3,16.9,1.8,26.1,8c-2.8-3.2-10.7-6.8-20.1-9.4c-9.3-2.7-18-5.5-22.2-13.4l0.8-1.3l0.2-0.3
			c0,0.6,0.2,1.1,0.3,1.7c2.1,5.5,12.5,8.9,22.5,12.2c5.4,1.8,10.5,3.5,13.8,5.3c10.7,6.2,10.5,11.3,8.4,15.5
			c-0.2,0.3-0.3,0.6-0.4,0.8L368,296.9z"/>
		<path class="st1" d="M364.9,289.4c0,0-9.9-7.7-24.6-8.8c0,0,0.5,0.1,1.3,0.3c3.6,0.9,13.7,4.2,20.5,11.9l-0.3,1.8
			c0,0,1.8,0.8,2.4,3.3c1-0.7,3.3-3.4,2.9-6.9c-0.2-1.2-0.6-2.4-1.5-3.8C365.7,287.2,365.7,288.6,364.9,289.4z"/>
		<path class="st1" d="M257.1,236.9l3.4,2.1l2.8-5.1c0,0-2.8,3.3-2.8,1.3C260.1,236,258.1,237.4,257.1,236.9z"/>
		<path class="st1" d="M253.2,225.6c0.2,0.4,0.3,0.8,0.3,1.3c0.3,1.6-0.3,3.1-1.1,4.3c-0.9,1.3-2.2,2.3-3.1,2.5
			c1.9,1.8,5.3,2.9,5.3,2.9c-2.3-1.3,1.4-6.5-0.8-10c-0.1-0.1-0.1-0.2-0.2-0.2C253.6,226,253.4,225.7,253.2,225.6z"/>
		<path class="st1" d="M248,220.5c-1.1-1.4-2.4-2.8-3.9-3.9c-1.4-1.2-3-2.3-4.6-3.1c-1.6-0.8-3.1-1.4-4.4-1.8
			c-1.3-0.4-2.5-0.6-3.3-0.7c-0.3-0.1-0.7-0.1-0.8-0.1h-0.1c-0.3,0-0.3,0-0.3,0s0.4,0.1,1.3,0.3c0.8,0.2,1.9,0.5,3.2,1
			c1.3,0.5,2.8,1.2,4.2,2.1c0.8,0.4,1.5,0.9,2.3,1.4s1.5,1.1,2.2,1.7c0.8,0.6,1.4,1.2,2,1.8c0.7,0.7,1.3,1.3,1.8,1.9
			c1.2,1.3,2.1,2.6,2.8,3.8s1,2.3,1.1,3.1c0,0.4,0,0.8-0.1,0.9c-0.1,0.3-0.1,0.3-0.1,0.3s0.1-0.1,0.2-0.3c0.1-0.2,0.2-0.5,0.2-0.9
			c0,0,0,0,0-0.1c0.1-0.8-0.2-2-0.8-3.3C250,223.3,249.1,221.9,248,220.5z"/>
		<path class="st1" d="M358.4,100.2c0,0,1.2,0.7,1.5,1.7c0,0-11.5,4.8-20,17c0,0,0.3-0.3,0.9-1c2.6-2.6,10.4-9.8,20.6-11.8l1.3,1.2
			c0,0,1.7-1.2,4-0.5c-0.1-1.3-1.3-4.6-4.5-6C361.3,100.2,360,100,358.4,100.2z"/>
		<path class="st1" d="M261,162c0,0,1.5,4.2-0.3,3c0.6,0.9,0.8,3.3-0.3,4l3.5-2L261,162z"/>
		<path class="st1" d="M248.7,166.7c0.4,0.1,0.8,0.2,1.3,0.3c1.5,0.6,2.5,1.8,3.2,3c0.8,1.4,0.9,3,0.6,3.9c2.5-0.8,5.2-3.2,5.2-3.2
			c-2.3,1.3-4.9-4.5-9.1-4.3c-0.1,0-0.2,0-0.3,0C249.3,166.6,249,166.6,248.7,166.7z"/>
		<path class="st1" d="M241.8,168.7c-1.8,0.3-3.6,0.8-5.3,1.4s-3.4,1.5-4.9,2.4c-1.5,0.9-2.8,2-3.8,2.9c-1,1-1.8,1.9-2.3,2.6
			c-0.3,0.3-0.3,0.5-0.5,0.7c0,0,0,0.1-0.1,0.1c-0.1,0.2-0.2,0.3-0.2,0.3s0.3-0.3,0.8-0.9c0.6-0.6,1.4-1.3,2.5-2.3
			c1.1-0.8,2.4-1.8,3.9-2.6c0.8-0.4,1.5-0.8,2.3-1.2c0.8-0.4,1.7-0.8,2.5-1.1c0.8-0.3,1.8-0.6,2.6-0.8c0.8-0.3,1.8-0.5,2.6-0.6
			c1.7-0.3,3.3-0.5,4.6-0.5c1.3,0.1,2.5,0.3,3.2,0.6c0.3,0.2,0.6,0.3,0.8,0.5c0.2,0.2,0.3,0.3,0.3,0.3s-0.1-0.1-0.2-0.3
			c-0.2-0.2-0.3-0.4-0.8-0.7l0,0c-0.7-0.5-1.8-0.9-3.3-1C245.2,168.3,243.5,168.3,241.8,168.7z"/>
		<path class="st1" d="M283.7,200c0-46.2-37.5-83.7-83.7-83.7s-83.7,37.5-83.7,83.7s37.4,83.7,83.7,83.7
			C246.2,283.7,283.7,246.2,283.7,200z M197.7,282.5c0.1-0.6,0.1-1.1,0.2-1.5c0.3-2,0.5-3.3,0.8-3.4c1.3-0.2,2.8,0.3,2.9,4
			c1.3-1.6,2.5,0.2,2.8,0.8c-1.4,0.1-2.8,0.1-4.2,0.1c-0.2,0-0.3,0-0.4,0C199.2,282.5,198.5,282.5,197.7,282.5z M194.3,277.6
			c0,0.8,0.1,2.6,0.2,4.8c-0.1,0-0.2,0-0.3,0c-0.5,0-1-0.1-1.5-0.1c-0.2,0-0.3,0-0.4,0s-0.4,0-0.6-0.1v-8.4h3.3v0.3l0.5,8.4
			c-0.3,0-0.7-0.1-1.1-0.1L194.3,277.6v-0.7C194.2,276.9,194.3,277.1,194.3,277.6z M130,233.8c-0.8,0.5-2.2,1.3-4.1,2.5
			c0-0.1-0.1-0.2-0.1-0.2c-0.3-0.5-0.4-0.9-0.7-1.4c-0.1-0.1-0.1-0.3-0.2-0.3c-0.1-0.2-0.2-0.4-0.3-0.6l7.3-4.2l1.7,2.9l-0.3,0.2
			l-7,4.7c-0.2-0.3-0.3-0.6-0.5-0.9L130,233.8l0.5-0.3C130.6,233.5,130.3,233.6,130,233.8z M135.7,156.3c-0.8-0.4-2.3-1.3-4.2-2.3
			c0-0.1,0.1-0.1,0.1-0.2c0.3-0.4,0.6-0.8,0.9-1.3c0.1-0.1,0.2-0.3,0.3-0.3c0.1-0.2,0.3-0.3,0.3-0.5l7.3,4.2l-1.7,2.9l-0.3-0.2
			L131,155c0.2-0.3,0.4-0.6,0.6-0.8L135.7,156.3l0.6,0.3C136.2,156.6,136.1,156.5,135.7,156.3z M205.7,122.5c0-0.8-0.1-2.6-0.2-4.8
			c0.1,0,0.2,0,0.3,0c0.5,0,1,0.1,1.5,0.1c0.2,0,0.3,0,0.4,0s0.4,0,0.6,0.1v8.4h-3.3V126l-0.5-8.4c0.3,0,0.7,0.1,1.1,0.1
			L205.7,122.5v0.7C205.8,123.1,205.7,122.9,205.7,122.5z M270,166.2c0.8-0.5,2.2-1.3,4.1-2.5c0,0.1,0.1,0.2,0.1,0.2
			c0.3,0.5,0.4,0.9,0.7,1.4c0.1,0.1,0.1,0.3,0.2,0.3c0.1,0.2,0.2,0.4,0.3,0.6l-7.3,4.2l-1.7-2.9l0.3-0.2l7-4.7
			c0.2,0.3,0.3,0.6,0.5,0.9L270,166.2l-0.5,0.3C269.4,166.5,269.7,166.4,270,166.2z M264.2,243.7c0.8,0.4,2.3,1.3,4.2,2.3
			c0,0.1-0.1,0.1-0.1,0.2c-0.3,0.4-0.6,0.8-0.9,1.3c-0.1,0.1-0.2,0.3-0.3,0.3c-0.1,0.2-0.3,0.3-0.3,0.5l-7.3-4.2l1.7-2.9l0.3,0.2
			l7.5,3.8c-0.2,0.3-0.4,0.6-0.6,0.8L264.2,243.7l-0.6-0.3C263.7,243.5,263.9,243.5,264.2,243.7z M194.2,258.1c-1.1-1.7-2-3.7-2.7-6
			c0-2.3,0.8-4.3,2.4-0.9c-0.3-1-0.5-2.1-0.7-3.3c-0.9-6.4-0.3-15.5,2.8-16.7c-0.5,0.6-1.1,2.4-0.7,3.3c0,0,2.5-1.7,4.8-0.8
			c0,0,0.9-2.8,4.8-4.4c-2.6-4.8-5.8-3-5.8-5.8c0,0-1.4,0.2-2.8-0.9c1.1,0.2,2.3,0.3,3.4,0.3c1.3,0,2.6-0.1,3.8-0.3
			c0.3-0.1,0.5-0.1,0.8-0.2c0.3-0.1,0.8-0.2,1.1-0.3v4.6l0.1,0.2c2.5,3.8,3.9,9.5,3.9,15.7c0,6.2-1.4,11.9-3.9,15.7l-0.1,0.2v7.9
			h-5.5h-5.8v-7.9V258.1z M135.2,232.7l4.4-2.6l4.1,7l-4.4,2.6L135.2,232.7z M155.3,218.1c5.2-4,13.3-8,15.9-5.9
			c-0.8-0.2-2.6,0.3-3.3,1.1c0,0,2.7,1.3,3.1,3.8c0,0,2.8-0.6,6.2,1.9c2.9-4.7-0.3-6.5,2.2-7.9c0,0-0.8-1.1-0.6-2.8
			c0.9,2.3,2.2,4.4,3.7,6.3c0.2,0.2,0.3,0.4,0.5,0.6c0.3,0.3,0.5,0.6,0.8,0.8l-4,2.3l-0.1,0.2c-2,4-6.3,8.2-11.6,11.3
			c-5.3,3.1-11,4.7-15.5,4.4h-0.2l-6.9,3.9l-2.8-4.8l-2.9-5.1l6.9-3.9l0.1-0.2c0.9-1.8,2.3-3.6,3.8-5.3c1.9-1.2,4.1-1.5,2,1.7
			C153.4,219.6,154.3,218.9,155.3,218.1z M178.5,207.4l-3.3,1.8l3.1-2.4C178.4,206.9,178.4,207.2,178.5,207.4z M178.7,200
			c0-11.8,9.5-21.3,21.3-21.3c11.8,0,21.3,9.5,21.3,21.3c0,11.8-9.5,21.3-21.3,21.3C188.2,221.3,178.7,211.8,178.7,200z
			 M139.3,160.3l4.4,2.6l-4.1,7l-4.4-2.6L139.3,160.3z M162,170.3c6,2.4,13.6,7.5,13.1,10.8c-0.3-0.8-1.5-2.1-2.6-2.3
			c0,0,0.3,3-1.8,4.6c0,0,1.9,2.2,1.4,6.4c5.5,0.3,5.5-3.5,7.9-2.1c0,0,0.6-1.3,2.2-1.9c-1.5,1.8-2.8,4-3.6,6.3
			c-0.1,0.3-0.2,0.5-0.3,0.8c-0.1,0.3-0.3,0.8-0.3,1.1l-3.9-2.3H174c-4.5,0.3-10.2-1.3-15.5-4.4c-5.3-3.1-9.6-7.2-11.6-11.3
			l-0.1-0.2l-6.9-3.9l2.8-4.8l2.9-5.1l6.9,3.9h0.2c2-0.1,4.2,0.2,6.5,0.8c2,1.1,3.3,2.8-0.4,2.6C159.6,169.5,160.8,169.8,162,170.3z
			 M182.9,185.1l-3.2-2l3.7,1.4C183.2,184.7,183,184.9,182.9,185.1z M195.9,127.6h8.1v5.2h-8.1V127.6z M205.8,141.9
			c1.1,1.7,2,3.7,2.7,6c0,2.3-0.8,4.3-2.4,0.9c0.3,1,0.5,2.1,0.7,3.3c0.9,6.4,0.3,15.5-2.8,16.7c0.5-0.6,1.1-2.4,0.7-3.3
			c0,0-2.5,1.7-4.8,0.8c0,0-0.9,2.8-4.8,4.4c2.6,4.8,5.8,3,5.8,5.8c0,0,1.4-0.2,2.8,0.9c-1.1-0.2-2.3-0.3-3.4-0.3
			c-1.3,0-2.6,0.1-3.8,0.3c-0.3,0.1-0.5,0.1-0.8,0.2c-0.3,0.1-0.8,0.2-1.1,0.3v-4.6l-0.1-0.2c-2.5-3.8-3.9-9.5-3.9-15.7
			s1.4-11.9,3.9-15.7l0.1-0.2v-7.9h5.5h5.8v7.9V141.9z M204.3,177.7l0.2-3.8l0.6,3.8C204.8,177.8,204.6,177.8,204.3,177.7z
			 M264.8,167.3l-4.4,2.6l-4.1-7l4.4-2.6L264.8,167.3z M244.7,181.9c-5.2,4-13.3,8-15.9,5.9c0.8,0.2,2.6-0.3,3.3-1.1
			c0,0-2.7-1.3-3.1-3.8c0,0-2.8,0.6-6.2-1.9c-2.9,4.7,0.3,6.5-2.2,7.9c0,0,0.8,1.1,0.6,2.8c-0.9-2.3-2.2-4.4-3.7-6.3
			c-0.2-0.2-0.3-0.4-0.5-0.6c-0.3-0.3-0.5-0.6-0.8-0.8l4-2.3l0.1-0.2c2-4.1,6.3-8.2,11.6-11.3c5.3-3.1,11-4.7,15.5-4.4h0.2l6.9-3.9
			l2.8,4.8l2.9,5.1l-6.9,3.9l-0.1,0.2c-0.9,1.8-2.3,3.6-3.8,5.3c-1.9,1.2-4.1,1.5-2-1.7C246.6,180.4,245.7,181.1,244.7,181.9z
			 M221.5,192.7l3.3-1.8l-3,2.4C221.6,193.1,221.6,192.8,221.5,192.7z M260.7,239.7l-4.4-2.6l4.1-7l4.4,2.6L260.7,239.7z M238,229.7
			c-6-2.4-13.6-7.5-13.1-10.8c0.3,0.8,1.5,2.1,2.6,2.3c0,0-0.3-3,1.8-4.6c0,0-1.9-2.2-1.4-6.4c-5.5-0.3-5.5,3.5-7.9,2.1
			c0,0-0.6,1.3-2.2,1.9c1.5-1.8,2.8-4,3.6-6.3c0.1-0.3,0.2-0.5,0.3-0.8c0.1-0.3,0.3-0.8,0.3-1.1l3.9,2.3h0.2
			c4.5-0.3,10.2,1.3,15.5,4.4c5.3,3.1,9.6,7.2,11.6,11.3l0.1,0.2l6.9,3.9l-2.8,4.8l-2.9,5.1l-6.9-3.9h-0.2c-2,0.1-4.2-0.2-6.5-0.8
			c-2-1.1-3.3-2.8,0.4-2.6C240.4,230.5,239.2,230.2,238,229.7z M217.1,214.9l3.2,2l-3.7-1.4C216.8,215.3,217,215.1,217.1,214.9z
			 M195.6,222.3l-0.2,3.8l-0.6-3.8C195.1,222.2,195.4,222.2,195.6,222.3z M195.9,267.3h8.1v5.2h-8.1V267.3z M205.3,272.4v-5.2h1.5
			v-8.7c2.6-3.9,4-9.9,4-16.1c0-6.4-1.5-12.2-4-16.1v-4.6c3.2-1,6.1-2.7,8.5-4.9l3.9,2.3c2.2,4.2,6.5,8.4,11.9,11.5
			c5.5,3.2,11.3,4.8,16,4.6l7.5,4.3l0.8-1.3l4.4,2.6l-2.2,3.7l8.3,4.8c-13.2,17.7-33.4,30-56.6,32.7v-9.5L205.3,272.4L205.3,272.4z
			 M269,242.3c-1.6-1.3-2.7-2.2-2.5-2.4c0.5-1.3,1.7-2.3,4.9-0.5c-0.7-2,1.3-2.1,2.2-2.1c-0.7,1.3-1.3,2.5-2,3.7
			c-0.4,0.8-0.9,1.5-1.3,2.3C269.8,242.9,269.4,242.5,269,242.3z M267.6,231.3l-0.5-0.3l0.8-1.4l7.3,4.2c-0.1,0.3-0.3,0.5-0.3,0.8
			c-0.1,0.3-0.3,0.5-0.3,0.8L267.6,231.3z M267.5,227.9l-2.2,3.7l-4.4-2.6l0.8-1.3l-7.5-4.3c-2.2-4.2-6.5-8.4-11.9-11.5
			c-5.5-3.2-11.3-4.8-16-4.6l-3.9-2.3c0.3-1.6,0.5-3.3,0.5-4.9s-0.2-3.3-0.5-4.9l3.9-2.3c4.7,0.3,10.5-1.4,16-4.6
			c5.5-3.2,9.9-7.4,11.9-11.5l7.5-4.3l-0.8-1.3l4.4-2.6l2.2,3.7l8.3-4.8c4.3,10,6.8,21.1,6.8,32.7c0,11.6-2.4,22.6-6.8,32.7
			L267.5,227.9z M271.1,161.3c-1.8,0.8-3.2,1.2-3.3,0.9c-0.8-1.1-1.2-2.6,2-4.5c-2-0.4-1.1-2.3-0.7-2.9c0.8,1.2,1.5,2.3,2.2,3.5
			c0.4,0.8,0.9,1.5,1.3,2.3C272,160.9,271.6,161.2,271.1,161.3z M261,157.1l-0.5,0.3l-0.8-1.4l7.3-4.2c0.2,0.3,0.3,0.4,0.5,0.7
			c0.2,0.3,0.3,0.5,0.5,0.8L261,157.1z M257.9,155.5l2.2,3.7l-4.4,2.6l-0.8-1.3l-7.5,4.3c-4.7-0.3-10.5,1.4-16,4.6
			c-5.5,3.2-9.9,7.4-11.9,11.5l-3.9,2.3c-2.4-2.3-5.3-3.9-8.5-4.9v-4.6c2.6-3.9,4-9.9,4-16.1c0-6.4-1.5-12.2-4-16.1v-8.7h-1.5v-5.2
			h4.3V118c23.1,2.7,43.4,15,56.6,32.7L257.9,155.5z M202.1,119c-0.3,2-0.5,3.3-0.8,3.4c-1.3,0.2-2.8-0.3-2.9-4
			c-1.3,1.6-2.5-0.2-2.8-0.8c1.4-0.1,2.8-0.1,4.2-0.1c0.2,0,0.3,0,0.4,0c0.8,0,1.5,0,2.3,0C202.2,118.1,202.2,118.6,202.1,119z
			 M193.3,125.8v0.6h-1.7V118c0.3,0,0.5-0.1,0.8-0.1c0.3,0,0.6-0.1,0.9-0.1V125.8z M194.6,127.6v5.2h-1.5v8.7c-2.6,3.9-4,9.9-4,16.1
			s1.5,12.2,4,16.1v4.6c-3.2,1-6.1,2.7-8.5,4.9l-3.9-2.3c-2.2-4.2-6.5-8.4-11.9-11.5c-5.5-3.2-11.3-4.8-16-4.6l-7.5-4.3l-0.8,1.3
			l-4.4-2.6l2.2-3.7l-8.3-4.8c13.2-17.7,33.4-30,56.6-32.7v9.5L194.6,127.6L194.6,127.6z M131,157.7c1.6,1.3,2.7,2.2,2.5,2.4
			c-0.5,1.3-1.7,2.3-4.9,0.5c0.7,2-1.3,2.1-2.2,2.1c0.7-1.3,1.3-2.5,2-3.7c0.4-0.8,0.9-1.5,1.3-2.3
			C130.1,157.1,130.6,157.5,131,157.7z M132.4,168.7l0.5,0.3l-0.8,1.4l-7.3-4.2c0.1-0.3,0.3-0.5,0.3-0.8c0.1-0.3,0.3-0.5,0.3-0.8
			L132.4,168.7z M132.5,172.1l2.2-3.7l4.4,2.6l-0.8,1.3l7.5,4.3c2.2,4.2,6.5,8.4,11.9,11.5c5.5,3.2,11.3,4.8,16,4.6l3.9,2.3
			c-0.3,1.6-0.5,3.3-0.5,4.9c0,1.7,0.2,3.3,0.5,4.9l-3.9,2.3c-4.7-0.3-10.5,1.4-16,4.6c-5.5,3.2-9.9,7.4-11.9,11.5l-7.5,4.3l0.8,1.3
			l-4.4,2.6l-2.2-3.7l-8.3,4.8c-4.3-10-6.8-21.1-6.8-32.7c0-11.6,2.4-22.6,6.8-32.7L132.5,172.1z M128.9,238.7
			c1.8-0.8,3.2-1.2,3.3-0.9c0.8,1.1,1.2,2.6-2,4.5c2,0.4,1.1,2.2,0.7,2.9c-0.8-1.2-1.5-2.3-2.2-3.5c-0.4-0.8-0.9-1.5-1.3-2.3
			C128,239.1,128.4,238.9,128.9,238.7z M139,242.9l0.5-0.3l0.8,1.4l-7.3,4.2c-0.2-0.3-0.3-0.4-0.5-0.7c-0.2-0.3-0.3-0.5-0.5-0.8
			L139,242.9z M142.1,244.5l-2.2-3.7l4.4-2.6l0.8,1.3l7.5-4.3c4.7,0.3,10.5-1.4,16-4.6c5.5-3.2,9.9-7.4,11.9-11.5l3.9-2.3
			c2.4,2.3,5.3,3.9,8.5,4.9v4.6c-2.6,3.9-4,9.9-4,16.1c0,6.4,1.5,12.2,4,16.1v8.7h1.5v5.2h-4.3v9.5c-23.1-2.7-43.4-14.9-56.6-32.7
			L142.1,244.5z M206.7,274.2v-0.6h1.7v8.4c-0.3,0-0.5,0.1-0.8,0.1c-0.3,0-0.6,0.1-0.9,0.1V274.2z"/>
		<path class="st1" d="M266.8,136.3c21.4,20.4,25.3,49,25.3,49l0.7-6.5c6.4,13.1,5.1,29.9,5.1,29.9c3.5-29.6-8.5-50.3-8.5-50.3
			l-2.1,1.4C280.2,147.1,266.8,136.3,266.8,136.3z"/>
		<path class="st1" d="M169.7,296.5c-0.4-0.2-0.9-0.3-1.4-0.6c-0.6-0.3-1.3-0.5-1.9-0.8c-0.8-0.3-1.5-0.7-2.3-1.1
			c-0.8-0.4-1.8-0.8-2.8-1.3c-1-0.5-2-1-3.1-1.6c-0.5-0.3-1.1-0.6-1.7-0.9c-0.6-0.3-1.1-0.7-1.7-1c-2.3-1.3-4.8-2.9-7.3-4.6
			c-2.5-1.8-5.1-3.7-7.7-5.8s-5.2-4.3-7.7-6.8s-4.9-5-7.3-7.7c-2.3-2.7-4.5-5.4-6.5-8.3c-2-2.8-3.9-5.7-5.5-8.6
			c-0.8-1.4-1.6-2.8-2.4-4.3c-0.8-1.4-1.4-2.8-2.1-4.2c-0.6-1.4-1.3-2.8-1.8-4.1c-0.6-1.3-1.1-2.6-1.5-3.8c-0.3-0.7-0.5-1.3-0.7-1.8
			s-0.4-1.2-0.6-1.8c-0.4-1.2-0.8-2.3-1.1-3.3c-0.3-1.1-0.6-2-0.8-2.9c-0.3-0.9-0.4-1.8-0.7-2.5c-0.4-1.5-0.6-2.8-0.8-3.6
			c-0.2-0.8-0.3-1.3-0.3-1.3s0,0.4,0.1,1.3c0,0.4,0.1,0.9,0.1,1.6c0,0.4,0.1,0.9,0.1,1.5c0,0.3,0,0.4,0.1,0.7
			c0.1,0.8,0.2,1.7,0.3,2.6c0.1,0.9,0.3,2,0.5,3.1c0.2,1.1,0.4,2.3,0.7,3.5c0.2,0.6,0.3,1.3,0.4,1.8c0.2,0.7,0.3,1.3,0.5,1.9
			c0.7,2.7,1.6,5.5,2.8,8.4c0.6,1.5,1.2,2.9,1.8,4.5c0.7,1.5,1.4,3.1,2.3,4.6c1.6,3.1,3.4,6.1,5.4,9.1c2,3,4.3,5.9,6.7,8.7
			c2.4,2.8,5,5.4,7.6,7.9c2.7,2.4,5.4,4.7,8.2,6.8c2.8,2,5.6,3.8,8.3,5.4c1.3,0.8,2.7,1.5,4,2.3c1.3,0.7,2.6,1.3,3.8,1.8
			c0.6,0.3,1.3,0.6,1.8,0.8c0.6,0.3,1.2,0.5,1.8,0.8c1.2,0.5,2.3,0.8,3.3,1.3c1,0.4,2,0.7,2.9,1c0.9,0.3,1.8,0.5,2.5,0.8
			c1.5,0.4,2.8,0.7,3.6,0.8c0.1,0,0.2,0,0.3,0.1c0.7,0.2,1,0.2,1,0.2S170.6,296.9,169.7,296.5z"/>
		<path class="st1" d="M95.8,194.3c0.1-0.8,0.2-1.5,0.3-2.4c0.1-0.8,0.2-1.8,0.3-2.8c0.2-1,0.3-2,0.4-3.2c0.1-0.6,0.2-1.1,0.3-1.7
			c0.1-0.6,0.3-1.2,0.3-1.8c0.3-1.2,0.5-2.5,0.8-3.8c0.3-1.3,0.7-2.7,1-4.1c0.3-1.4,0.8-2.8,1.3-4.3c1.9-5.9,4.5-12.5,8.2-19.1
			s8.4-13.5,14.3-20c2.9-3.2,6.1-6.4,9.6-9.3c1.7-1.5,3.6-2.9,5.4-4.3c0.9-0.7,1.9-1.3,2.8-2l1.4-1l1.5-0.9
			c7.9-5.2,17-9.3,26.5-12.2c4.8-1.4,9.7-2.4,14.6-3.3c5-0.8,9.9-1,15.1-1.1c4.9,0.1,10.1,0.3,15,1.1c4.9,0.8,9.9,1.8,14.6,3.3
			c9.5,2.8,18.5,7,26.5,12.2l1.5,0.9l1.4,1c0.9,0.7,1.9,1.3,2.8,2c1.8,1.4,3.7,2.8,5.4,4.3c3.5,2.9,6.7,6.1,9.6,9.3
			c5.8,6.5,10.6,13.3,14.3,20c3.7,6.7,6.4,13.2,8.2,19.1c0.4,1.5,0.9,2.9,1.3,4.3s0.7,2.8,1,4.1s0.5,2.6,0.8,3.8
			c0.1,0.6,0.3,1.2,0.3,1.8c0.1,0.6,0.2,1.2,0.3,1.7c0.2,1.1,0.3,2.2,0.4,3.2c0.1,1,0.2,1.9,0.3,2.8c0.1,0.8,0.2,1.7,0.3,2.4
			c0.1,0.8,0.1,1.4,0.1,2c0.1,2.4,0.2,3.7,0.2,3.7s0-1.3,0-3.7c0-0.6,0-1.3,0-2s-0.1-1.6-0.2-2.4c-0.1-0.8-0.1-1.8-0.2-2.8
			c-0.1-1-0.3-2.1-0.3-3.2c-0.1-0.6-0.1-1.2-0.2-1.8c-0.1-0.6-0.2-1.2-0.3-1.8c-0.2-1.3-0.4-2.5-0.7-3.8c-0.3-1.3-0.6-2.7-0.9-4.2
			c-0.3-1.4-0.8-2.9-1.2-4.4c-1.7-6-4.2-12.8-7.8-19.6c-3.5-6.9-8.3-14-14.1-20.6c-2.9-3.3-6.2-6.6-9.7-9.7c-1.8-1.6-3.6-3-5.5-4.5
			c-0.9-0.8-1.9-1.4-2.9-2.1l-1.5-1.1l-1.5-1c-8.1-5.3-17.3-9.8-27.1-12.8c-4.9-1.5-9.9-2.6-15.1-3.4l-3.8-0.5
			c-1.3-0.2-2.6-0.3-3.8-0.3c-1.3-0.1-2.6-0.3-3.9-0.3H200c-5.1,0.1-10.4,0.4-15.5,1.2c-5.1,0.8-10.2,1.8-15.1,3.4
			c-9.8,3-19,7.4-27.1,12.8l-1.5,1l-1.5,1.1c-1,0.8-2,1.4-2.9,2.1c-1.8,1.5-3.8,2.9-5.5,4.5c-3.5,3.1-6.8,6.4-9.7,9.7
			c-5.8,6.7-10.6,13.8-14.1,20.6c-3.6,6.9-6,13.6-7.8,19.6c-0.4,1.5-0.8,3-1.2,4.4c-0.3,1.4-0.6,2.8-0.9,4.2
			c-0.3,1.3-0.4,2.6-0.7,3.8c-0.1,0.6-0.2,1.3-0.3,1.8c-0.1,0.6-0.2,1.2-0.2,1.8c-0.1,1.1-0.3,2.2-0.3,3.2s-0.1,1.9-0.2,2.8
			c-0.1,0.8-0.1,1.7-0.2,2.4c0,0.8,0,1.4,0,2c0,2.4,0,3.7,0,3.7s0.1-1.3,0.2-3.7C95.7,195.7,95.7,195.1,95.8,194.3z"/>
		<path class="st1" d="M200,215.8c1.9,0,3.8-0.3,5.4-0.9c-1,0.3-2.1,0.4-3.2,0.4c-7.4,0-13.3-5.9-13.3-13.3
			c0-7.4,5.9-13.3,13.3-13.3c7.4,0,13.3,5.9,13.3,13.3c0,0.5,0,1-0.1,1.5c0.3-1.1,0.4-2.3,0.4-3.5c0-8.8-7.1-15.8-15.8-15.8
			c-8.8,0-15.8,7.1-15.8,15.8C184.2,208.8,191.2,215.8,200,215.8z"/>
		<ellipse class="st1" cx="200" cy="200" rx="6.9" ry="6.9"/>
		<path class="st1" d="M291.7,200c0-30.7-15.2-58-38.4-74.6c0.3,0.2,0.7,0.4,1,0.6c0,0-5.3-6.4-21.6-14.5c0,0,1.6-2.8,3.5-4.3
			c-24.6-10.6-48.7-8.1-65.8-2.5c9-2.7,26.7-3.7,23.9-0.5c4.8-0.2,7.3,1.8,4.4,4.1c-6.5,0.1-12.8,0.8-18.9,2.3
			c-7.9,1.5-17.5,3.9-23.6,6c-10.4,3.7-5.7-1.8-5.7-1.8c-14.9,7.6-17,13.6-17,13.6c3,3.3,0.7,7.1,0.7,7.1c2.3-2.1,4.6-4,6.9-5.8
			c-7.8,6.5-14.4,14.3-19.6,23c-1.8-1.9-4.8-7.4,2.7-19.5c-8.9,9.9-16.5,21.4-20.7,42.4c1.1-1.4,4.4-1.8,4.6,4.1
			c0,0-1.4,11.9,0.3,21.1c0.5,50.2,41.4,90.7,91.7,90.7C250.6,291.7,291.7,250.6,291.7,200z M200,287.4c-48.3,0-87.4-39.1-87.4-87.4
			s39.1-87.4,87.4-87.4s87.4,39.1,87.4,87.4S248.3,287.4,200,287.4z"/>
	</g>
</g>
</svg>
