<?xml version="1.0" encoding="utf-8"?>
<!-- Generator: Adobe Illustrator 25.0.0, SVG Export Plug-In . SVG Version: 6.00 Build 0)  -->
<svg version="1.1" id="Layer_1" xmlns="http://www.w3.org/2000/svg" xmlns:xlink="http://www.w3.org/1999/xlink" x="0px" y="0px"
	 viewBox="0 0 150 150" style="enable-background:new 0 0 150 150;" xml:space="preserve">
<style type="text/css">
	.st0{fill:#35290A;}
</style>
<g>
	<path class="st0" d="M9.2,142.5H0v5.5h9.1C9,146.2,9,144.4,9.2,142.5z"/>
	<path class="st0" d="M42,116.3l12.5-38.5c1.1-3.4,1.4-6.8,0.9-10.1h-0.6c-1.3,0-2.7-0.1-4-0.3c0.6,2.9,0.4,6-0.6,9l-12.5,38.5
		c-2.5,7.5-9.4,12.6-17.4,12.6H0v4.5h20.4C30.3,132,39,125.7,42,116.3z"/>
	<path class="st0" d="M95.1,145.7l-15.9-11.6c-2.5-1.8-5.8-1.8-8.3,0l-15.9,11.5c-1.5,1.1-2.4,2.6-2.8,4.3h7.3c0.9-1.9,2.2-3.6,4-5
		l4.1-3c4.4-3.2,10.4-3.2,14.9,0l4.1,3c1.8,1.3,3.1,3,4,5h7.3C97.5,148.3,96.5,146.8,95.1,145.7z"/>
	<path class="st0" d="M33.1,41.5c3.1,9.4,11.8,15.7,21.6,15.7h40.5c9.9,0,18.6-6.3,21.6-15.7L129.4,3c0.3-1,0.6-2,0.7-3h-4.6
		c-0.1,0.5-0.3,1.1-0.4,1.6l-12.5,38.5c-2.5,7.5-9.4,12.6-17.4,12.6H54.8c-7.9,0-14.9-5.1-17.4-12.6L24.9,1.6
		c-0.2-0.5-0.3-1.1-0.4-1.6h-4.6c0.2,1,0.4,2,0.7,3L33.1,41.5z"/>
	<path class="st0" d="M112.3,139.7l-32.7-23.8c-1.3-1-2.9-1.5-4.6-1.5c-1.6,0-3.2,0.5-4.6,1.5l-32.7,23.8c-2.7,2-3.9,5.5-2.8,8.7
		l0.5,1.6h6.2c0.4-5,2.9-9.7,7.2-12.8l15.9-11.5c6.2-4.5,14.5-4.5,20.7,0l15.9,11.6c4.3,3.1,6.8,7.8,7.2,12.8h6.1l0.5-1.6
		C116.1,145.1,115,141.7,112.3,139.7z"/>
	<path class="st0" d="M27.8,111.7l12.5-38.5c1-3.2-0.1-6.7-2.8-8.7L4.7,40.8c-1.3-1-2.9-1.5-4.6-1.5c-0.1,0-0.1,0-0.2,0v7.9
		c3.7,0,7.3,1.1,10.5,3.4l15.9,11.5c6.2,4.5,8.7,12.4,6.4,19.7l-6.1,18.7c-2.4,7.3-9.1,12.1-16.7,12.1H0v4.5h20.4
		C23.8,117,26.7,114.9,27.8,111.7z"/>
	<path class="st0" d="M4.7,85.6l1.6-4.8c0.3-0.9,0-1.8-0.8-2.4l-4.1-3C1,75.1,0.5,75,0,75v12h2.7C3.6,87,4.4,86.4,4.7,85.6z"/>
	<path class="st0" d="M10.9,32.3l10.8,7.8l-2.4-7.3l-5.7-4.2c-4-2.9-8.8-4.4-13.5-4.4v4.5c0.1,0,0.1,0,0.2,0
		C4,28.8,7.7,30,10.9,32.3z"/>
	<path class="st0" d="M130.2,142.5h-0.3c-1.5,0-2.9-0.1-4.3-0.3c0.5,2.5,0.5,5.2-0.1,7.8h4.6C130.6,147.5,130.6,145,130.2,142.5z"/>
	<path class="st0" d="M11.4,8.6H0v5.2c4.8,0,9.6,1,14.1,3.1L11.4,8.6z"/>
	<path class="st0" d="M16.7,97.1l6.1-18.7c1-2.9-0.1-6.1-2.6-7.9L4.3,59c-1.2-0.9-2.7-1.4-4.2-1.4c-0.1,0-0.1,0-0.2,0v6.9
		c2.7,0,5.3,0.8,7.6,2.4l4.1,3c4.4,3.2,6.3,8.9,4.6,14.1l-1.6,4.8c-1.7,5.2-6.5,8.7-12,8.7H0v4.5h10C13.1,102,15.8,100.1,16.7,97.1z
		"/>
	<path class="st0" d="M52.4,3.6l6.1,18.7v0c0.9,2.9,3.7,4.9,6.7,4.9h19.6c3.1,0,5.8-2,6.7-4.9l6.1-18.7C98,2.4,98.1,1.2,97.8,0h-7.3
		c1.3,2.8,1.6,6.1,0.6,9.2L89.5,14c-1.7,5.2-6.5,8.7-12,8.7h-5c-5.5,0-10.3-3.5-12-8.7l-1.6-4.8c-1-3.1-0.7-6.4,0.6-9.2h-7.3
		C51.9,1.2,52,2.4,52.4,3.6z"/>
	<path class="st0" d="M54.8,42.2h40.5c3.4,0,6.3-2.2,7.4-5.4l12-36.8h-6.1c0.2,2.3-0.1,4.6-0.8,6.9l-6.1,18.7
		c-2.4,7.3-9.1,12.1-16.7,12.1H65.2c-7.6,0-14.4-4.9-16.7-12.1v0L42.4,6.9c-0.7-2.3-1-4.6-0.8-6.9h-6.2l12,36.8
		C48.4,40,51.4,42.2,54.8,42.2z"/>
	<path class="st0" d="M24.4,142.3c-1.3,0.2-2.7,0.3-4,0.3h-0.6c-0.4,2.4-0.3,5,0.1,7.5h4.6C23.9,147.4,23.9,144.8,24.4,142.3z"/>
	<path class="st0" d="M138.7,8.3l-2.8,8.8c4.5-2.1,9.3-3.2,14.1-3.3V8.6h-11.3V8.3z"/>
	<path class="st0" d="M66,73.7h18.3c-0.2-2-0.2-4,0-6H66C66.2,69.7,66.2,71.7,66,73.7z"/>
	<path class="st0" d="M130.6,33.1l-2.4,7.3l11.2-8.1c3.1-2.3,6.8-3.4,10.6-3.5v-4.5c-4.6,0-9.3,1.5-13.2,4.4L130.6,33.1z"/>
	<path class="st0" d="M112.9,64.5c-2.7,2-3.9,5.5-2.8,8.7l12.5,38.5c1,3.2,4,5.4,7.4,5.4H150v-4.5h-9.7c-7.6,0-14.4-4.9-16.7-12.1
		l-6.1-18.7c-2.4-7.3,0.2-15.2,6.4-19.7l15.9-11.5c3-2.2,6.6-3.3,10.2-3.4v-7.9c-1.6,0-3.1,0.5-4.4,1.5L112.9,64.5z"/>
	<path class="st0" d="M140.9,148.1h9.1v-5.5h-9.2C141,144.4,141,146.2,140.9,148.1z"/>
	<path class="st0" d="M70.5,10.7c0.3,0.9,1.1,1.5,2,1.5h5c0.9,0,1.7-0.6,2-1.5l1.6-4.8c0.3-0.9,0-1.8-0.8-2.4l-4.1-3
		c-0.4-0.3-0.8-0.4-1.3-0.4c-0.4,0-0.9,0.1-1.3,0.4l-4.1,3c-0.7,0.5-1.1,1.5-0.8,2.4L70.5,10.7z"/>
	<path class="st0" d="M88.4,103.8c-4-2.9-8.7-4.4-13.4-4.4s-9.4,1.5-13.4,4.4l-5.9,4.3l-2.4,7.3l10.9-7.9c3.1-2.3,6.9-3.5,10.7-3.5
		c3.9,0,7.6,1.2,10.7,3.5l11.3,8.2l-2.4-7.3L88.4,103.8z"/>
	<path class="st0" d="M89.4,92.2l-2.6-8.1H63.5l-2.6,7.9C70,87.8,80.4,87.9,89.4,92.2z"/>
	<path class="st0" d="M112.6,114.9l-12.5-38.5c-1-3-1.1-6.1-0.6-9.1c-1.4,0.2-2.8,0.3-4.3,0.3h-0.3c-0.5,3.3-0.2,6.8,0.9,10.1
		l12.5,38.5c3.1,9.4,11.8,15.7,21.6,15.7H150v-4.5h-20.1C122,127.5,115,122.5,112.6,114.9z"/>
	<path class="st0" d="M144.8,78.4c-0.8,0.5-1.1,1.5-0.8,2.4l1.6,4.8c0.3,0.9,1.1,1.5,2,1.5h2.4V75c-0.4,0-0.8,0.1-1.1,0.4
		L144.8,78.4z"/>
	<path class="st0" d="M130.1,70.6c-2.5,1.8-3.5,5-2.6,7.9l6.1,18.7c0.9,2.9,3.7,4.9,6.7,4.9h9.7v-4.5h-2.4c-5.5,0-10.3-3.5-12-8.7v0
		l-1.6-4.8c-1.7-5.2,0.1-10.9,4.6-14.1l4.1-3c2.2-1.6,4.7-2.4,7.3-2.4v-6.9c-1.4,0-2.8,0.5-4,1.3L130.1,70.6z"/>
</g>
</svg>
