<?xml version="1.0" encoding="utf-8"?>
<!-- Generator: Adobe Illustrator 25.0.0, SVG Export Plug-In . SVG Version: 6.00 Build 0)  -->
<svg version="1.1" id="Layer_1" xmlns="http://www.w3.org/2000/svg" xmlns:xlink="http://www.w3.org/1999/xlink" x="0px" y="0px"
	 viewBox="0 0 1920 129" style="enable-background:new 0 0 1920 129;" xml:space="preserve">
<style type="text/css">
	.st0{opacity:0.2;}
	.st1{fill:#D1B06F;}
</style>
<g class="st0">
	<path class="st1" d="M388.1,105.6c0-7.5,0-18.7-7.5-22.4c-11.2-7.5,0,29.9,0,33.7c2.7,4.1,5,7.7,6.7,11.2h10.1
		C394.3,121.7,391.2,114.9,388.1,105.6z"/>
	<path class="st1" d="M332,116.8c-3.7-3.7-15-18.7-15-22.4c0-7.5,7.5-11.2,0-18.7c0,7.5-7.5,11.2-7.5,18.7c0,15,7.5,11.2,11.2,22.4
		c1.1,3.2,1.5,7.1,1.7,11.2h16.4C336.9,124.2,334.6,120.4,332,116.8z"/>
	<path class="st1" d="M358.1,105.6c-7.5-3.7-7.5,3.7-7.5,11.2c0,4.6,2.8,7.7,5,11.2h11C362.8,120.9,364.5,111.9,358.1,105.6z"/>
	<path class="st1" d="M436.7,124.3c0,3.7,0,3.7-3.7,3.7c0-3.7,3.7-3.7,0-7.5c-2.5,2.5-3.3,5-3.6,7.5h8.6
		C437.6,126.5,437.2,125.3,436.7,124.3z"/>
	<path class="st1" d="M384.3,128c-3.7-7.5-11.2-15-11.2-22.4c-3.7-15-7.5-33.7-15-48.6c11.2-7.5-3.7-7.5-7.5-3.7
		c3.6,24.9,20.7,49.9,19.1,74.8L384.3,128C384.3,128,384.3,128,384.3,128z"/>
	<path class="st1" d="M1577.7,128c-7.5-11.2-7.5-26.2-11.2-37.4c0,0-3.7,3.7-3.7,7.5c0,0-3.7,0-3.7-3.7c-4.8,0-1.9,18.5,0.8,33.7
		L1577.7,128C1577.8,128,1577.8,128,1577.7,128z M1562.8,101.8l3.7,3.7C1562.8,113.1,1559,105.6,1562.8,101.8z"/>
	<path class="st1" d="M1697.5,124.3c-2.5-0.6-4.1,0.8-4.9,3.7h7.8C1699.4,125.8,1698.4,124.3,1697.5,124.3z"/>
	<path class="st1" d="M1645.1,116.8c-3.7-15-7.5-26.2-18.7-37.4c3.2,16.2,6.5,32.4,9.7,48.6h10.1
		C1645.5,122.8,1645.1,118.6,1645.1,116.8z"/>
	<path class="st1" d="M716.6,111.4c-1.8,0.3-3.6,0.7-5.6,1.4c1.2-2.4,2.5-4.2,3.8-5.6c-0.4-0.6-0.8-1.1-1.3-1.6
		c-3.2,3.2-3.7,14.5-3.7,22.4h7.8C716.9,122.7,717.8,116.5,716.6,111.4z"/>
	<path class="st1" d="M511.5,98.1c-7.5,11.2,3.7,22.4-7.5,29.9c0,0,0,0,0,0h15.9C515.2,120,514.7,107.7,511.5,98.1z"/>
	<path class="st1" d="M534,120.6c-3.7-3.7-7.5-3.7-11.2-7.5c0,5.5-2,11-1.6,15h6.2C528.8,124.7,530.9,122.1,534,120.6z"/>
	<path class="st1" d="M1716.2,94.4c7.5-15,3.7-15-3.7-26.2c-7.5,3.7-3.7,15-15,15c-7.5-11.2,0-22.4-11.2-29.9
		C1693.7,71.9,1686.2,101.8,1716.2,94.4z M1704.9,90.6C1708.7,86.9,1708.7,90.6,1704.9,90.6L1704.9,90.6z"/>
	<path class="st1" d="M1660,83.1c0,11.2,0,37.4,11.2,44.9c0-7.5,0-7.5-3.7-15c9.5,2.4,8.4,9.3,9.3,15h9.8
		C1687.6,114.3,1666.2,92.4,1660,83.1z"/>
	<path class="st1" d="M807.1,71.9c-0.2,1.2-0.4,2.3-0.6,3.4h2.5C808.3,74.2,807.6,73.1,807.1,71.9z"/>
	<path class="st1" d="M806.1,80.2c-0.7,15.1,4.2,28.2,1,44.1c0,0,3.7,0,7.5,3.7c3.7-7.5-3.7-18.7,0-26.2c7.5,3.7,3.7,15,15,15
		c0-5.6,0-13.4-3.2-20c-3.2-2.4-5.1-4.5-3.8-5.6c-0.2-0.2-0.3-0.4-0.5-0.5c-1.9-1.9-4.7-4.7-7.5-8c-2.6,0.2-4.9,0.2-6.2,0.2
		C807.5,82.1,806.8,81.1,806.1,80.2z M812,94c0,0,0,0-3.7,0C812,90.3,812,90.3,812,94z"/>
	<path class="st1" d="M1592.7,42v-3.7C1592.7,38.2,1589,42,1592.7,42z"/>
	<path class="st1" d="M1592.7,38.2c3.7,15,7.5,26.2,7.5,29.9c-3.7,7.5-7.5,11.2,0,18.7c7.5-11.2,3.7-15,3.7-29.9
		c0-10.8,3.4-14.6-2.9-24.8c-1.4-0.6-5.4-2.9-12.1-5.1C1589,30.8,1589,34.5,1592.7,38.2z"/>
	<path class="st1" d="M1600.2,30.8c0.3,0.5,0.6,0.9,0.9,1.4C1602,32.5,1601.7,32.3,1600.2,30.8z"/>
	<path class="st1" d="M406.8,98.1c-3.7,7.5,0,22.4,3.7,29.9c0,0,0,0,0,0h9.8C416.2,115.2,408.8,100.1,406.8,98.1z"/>
	<path class="st1" d="M1753.6,105.6C1753.6,105.6,1753.6,105.6,1753.6,105.6c0,0.2,0,0.4,0,0.6
		C1753.6,106,1753.6,105.8,1753.6,105.6z"/>
	<path class="st1" d="M1753.6,116.8c0-2.5,0-5,0-7.5c-0.9-1.4-1.8-2.9-2.6-4.4c-5.8-2.8-9.1-14.3-12.3-14.3
		c0,11.2,7.5,22.4,11.2,33.7c0.4,1.3,0.8,2.5,1,3.7h7.5C1756.2,122.1,1753.6,116.8,1753.6,116.8z"/>
	<path class="st1" d="M1289.7,68.2c3.7-7.5-29.9-15-37.4-18.7C1256,57,1278.5,86.9,1289.7,68.2z"/>
	<path class="st1" d="M33.5,128h6.9c1.1-5.7,2.4-11.1,2.4-17.9c0-11.2,0-29.9-3.7-37.4C36.5,80.7,32,110.9,33.5,128z"/>
	<path class="st1" d="M88.8,109.3c-1.2,5-2.9,11.6-4.1,18.7h8.9C92.7,121.5,91.1,115,88.8,109.3z"/>
	<path class="st1" d="M249.6,79.4c7.5,0,0-29.9-3.8-33.7C238.4,53.2,230.9,83.1,249.6,79.4z"/>
	<path class="st1" d="M489.1,120.6c-3.2,0-7.7,3.3-11.2,7.5h22.7C496.3,123,495.2,120.6,489.1,120.6z"/>
	<path class="st1" d="M174.8,94.4c3.7-7.5,15,0,0-11.2c-11.2-3.7-11.2,22.4-7.5,33.7C171.1,109.3,171.1,101.8,174.8,94.4z"/>
	<path class="st1" d="M991.9,120.3c-0.3-12.1-2.8-23.6-5.2-33.5c-5.7,2.9-0.5,25.6,2.3,41.1c0.5-3.1,1.1-6.2,1.8-9.3
		C991.2,119.2,991.6,119.8,991.9,120.3z"/>
	<path class="st1" d="M436.7,120.6c0,0,0,0,3.7,3.7c0-3.7,0-11.2,0-15c3.7,3.7,3.7,3.7,7.5,7.5c3.7-3.7-3.7-22.4-7.5-26.2
		C440.5,98.1,433,109.3,436.7,120.6z"/>
	<path class="st1" d="M92.5,105.6c3.4-6.8,6.8-13.7,4.5-23.4c-0.4,0.5-0.8,0.9-0.8,0.9c0-3.7,0-3.7,0-3.7c0,0,0,0,0,0
		c0-3.7-3.7-7.5-3.7-11.2C92.5,79.4,85,101.8,92.5,105.6z"/>
	<path class="st1" d="M1865.8,86.9c-3.7,0-3.7,0-7.5-3.7c0-3.7,0-3.7,0-7.5c0,0-3.7-7.5-7.5,0C1843.4,90.6,1858.3,98.1,1865.8,86.9z
		"/>
	<path class="st1" d="M1858.3,109.3c0,8.2,3.3,13,5.2,18.7h4.1C1865.3,120.3,1861.5,112.5,1858.3,109.3z"/>
	<path class="st1" d="M1749.8,75.7c-6.5,6.5-4.5,18.8,1.1,29.3c0.8,0.4,1.7,0.6,2.6,0.6C1753.5,95.6,1753.2,85.6,1749.8,75.7z"/>
	<path class="st1" d="M1753.6,109.3c0-1,0-2.1,0-3.1C1753.6,107.2,1753.6,108.3,1753.6,109.3
		C1753.6,109.3,1753.6,109.3,1753.6,109.3z"/>
	<path class="st1" d="M1753.6,106.2c0-0.2,0-0.4,0-0.6c-0.9,0-1.8-0.2-2.6-0.6c0.8,1.5,1.7,3,2.6,4.4
		C1753.6,108.3,1753.6,107.2,1753.6,106.2z"/>
	<path class="st1" d="M1581.5,109.3c-7.5,11.2,3.7,22.4,3.7,7.5c-3.7,0-3.7-3.7,0-3.7c0,7.5,3.7,7.5,7.5,11.2
		C1596.4,124.3,1589,98.1,1581.5,109.3z"/>
	<path class="st1" d="M1809.7,98.1c11.2-7.5,11.2-15,0-22.4C1805.9,83.1,1813.4,90.6,1809.7,98.1z"/>
	<path class="st1" d="M189.8,79.4c-3.7,3.7-3.7,26.2-3.7,29.9C193.5,120.6,189.8,83.1,189.8,79.4z"/>
	<path class="st1" d="M223.5,109.3c-12.1,0-8.5,11-3.5,18.7h6.3C225.2,122.7,223.5,116.9,223.5,109.3z"/>
	<path class="st1" d="M1877,113.1c0,5,1.7,10,3.9,15h7.3C1891.3,118.8,1888.8,110.1,1877,113.1z"/>
	<path class="st1" d="M309.5,60.7c3.8,3.7,7.5,11.2,7.5,15C317,68.2,320.7,38.2,309.5,60.7z"/>
	<path class="st1" d="M1345.8,116.8c-1.1,4.3-1.5,8-1.4,11.2h4.4C1348,124.6,1347.2,120.9,1345.8,116.8z"/>
	<path class="st1" d="M54.9,70.6c-3.7-3.7-7.5-7.5-11.2-11.2c0,3.2,0,6.5,0,12.2c0,0,0,0.9,0,2.8C51.1,78,47.4,70.6,54.9,70.6z"/>
	<path class="st1" d="M552.7,105.6c-7.5-3.7-3.7,15-3.7,18.7C552.7,124.3,556.4,109.3,552.7,105.6z"/>
	<path class="st1" d="M126.2,116.8c0,4.3,0,8.1,0.3,11.2h3.9C129,124.7,127.6,121,126.2,116.8z"/>
	<path class="st1" d="M1353.3,83.1c0-3.7,3.7-3.7,3.7-7.5C1353.3,64.4,1342.1,75.7,1353.3,83.1z"/>
	<path class="st1" d="M1300.9,124.3c-2.1,1-3,2.4-3.1,3.7h9.9C1306.9,124.7,1305,122.2,1300.9,124.3z"/>
	<path class="st1" d="M320.7,27c0,11.2,3.7,18.7,7.5,26.2C328.2,42,324.5,34.5,320.7,27z"/>
	<path class="st1" d="M638.7,57c-3.7-3.7-3.7-7.5-7.5-15c0,7.5-7.5,15,0,22.4C631.2,60.7,635,57,638.7,57z"/>
	<path class="st1" d="M238.4,34.5c-3.7,3.7-3.7,7.5-7.5,15c3.7,0,7.5,0,11.2-3.7C242.2,42,238.4,38.2,238.4,34.5z"/>
	<path class="st1" d="M1218.6,83.1c0,7.5,0,18.7,3.7,26.2C1222.3,101.8,1222.3,90.6,1218.6,83.1z"/>
	<path class="st1" d="M698.6,113.1c-3.7-3.7-7.5-7.5-7.5-11.2c0,7.5,0,15,3.7,22.4C694.8,120.6,694.8,116.8,698.6,113.1z"/>
	<path class="st1" d="M122.2,48.1c0,3.7,3.7,7.5,3.7,15C133.4,55.6,125.9,51.8,122.2,48.1z"/>
	<path class="st1" d="M144.9,45.7c-3.7,0-7.5,3.7-11.2,3.7c3.7,0,7.5,0,15,3.7C148.6,49.5,148.6,45.7,144.9,45.7z"/>
	<path class="st1" d="M1256,101.8c0-15,0-15-11.2-11.2C1248.5,94.4,1248.5,94.4,1256,101.8z"/>
	<path class="st1" d="M672.4,113.1c0,7.5-3.7,11.2,0,15C679.9,124.3,676.1,116.8,672.4,113.1z"/>
	<path class="st1" d="M1398.2,83.1c-3.7,7.5,0,11.2,3.7,18.7C1405.7,94.4,1401.9,90.6,1398.2,83.1z"/>
	<path class="st1" d="M496.6,94.4c-3.7,3.7-3.7,11.2-3.7,15C500.3,105.6,500.3,101.8,496.6,94.4z"/>
	<path class="st1" d="M425.5,101.8c7.5,0,0-18.7-3.7-15C421.7,90.6,425.5,94.4,425.5,101.8z"/>
	<path class="st1" d="M1783.5,90.6c0,7.5,3.7,11.2,7.5,15C1794.7,98.1,1791,94.4,1783.5,90.6z"/>
	<path class="st1" d="M335.7,101.8c0-7.5-3.7-11.2-11.2-18.7C328.2,90.6,332,94.4,335.7,101.8z"/>
	<path class="st1" d="M227.2,98.1c-3.7,3.7-3.7,7.5-3.7,11.2C231,105.6,231,105.6,227.2,98.1z"/>
	<path class="st1" d="M1746.1,49.5c-3.7,0,0,11.2,0,15C1753.6,64.4,1749.8,53.2,1746.1,49.5z"/>
	<path class="st1" d="M792.1,83.1c0,3.7,0,11.2-3.7,15C799.6,90.6,799.6,90.6,792.1,83.1z"/>
	<path class="st1" d="M1663.8,68.2c0-3.7,0-7.5-3.7-11.2C1656.3,60.7,1663.8,68.2,1663.8,68.2z"/>
	<path class="st1" d="M421.7,49.5c0,3.7-3.7,7.5-3.7,11.2C421.7,57,421.7,57,421.7,49.5z"/>
	<path class="st1" d="M1862.1,105.6v-3.7c0,0-3.7,0-7.5,0C1854.6,109.3,1854.6,105.6,1862.1,105.6z"/>
	<path class="st1" d="M13.7,70.6c3.7,0,3.7-3.7,3.7-7.5C13.7,63.1,9.9,63.1,13.7,70.6z"/>
	<path class="st1" d="M1394.4,56.9c-3.7,7.5-3.7,7.5,3.7,15C1398.2,64.4,1394.4,60.7,1394.4,56.9z"/>
	<path class="st1" d="M332,34.5c0,3.7,0,11.2,3.7,15C339.4,49.5,332,34.5,332,34.5z"/>
	<path class="st1" d="M1547.8,120.5h-3.7c0,1.9,0,4.7,0,7.5h3.3C1547.8,124.3,1547.8,120.5,1547.8,120.5z"/>
	<path class="st1" d="M159.9,120.5c0,4.2,0,6,1.3,7.5h3.4C163.2,125.5,162.4,123,159.9,120.5z"/>
	<path class="st1" d="M1446.8,56.9c-3.7,0-3.7,0-7.5,0c0,3.7,0,7.5,0,11.2h3.7C1443.1,64.4,1443.1,60.7,1446.8,56.9z"/>
	<path class="st1" d="M1888.3,101.8c0-3.7,0-7.5,0-11.2C1884.5,98.1,1884.5,98.1,1888.3,101.8z"/>
	<path class="st1" d="M395.5,94.4c0,7.5,0,11.2,3.8,15C403,105.6,399.3,101.8,395.5,94.4z"/>
	<path class="st1" d="M189.8,120.5l-3.7,3.7l3.7,3.7C189.8,124.3,189.8,128,189.8,120.5z"/>
	<path class="st1" d="M1791,124.3c0,1.2,0.4,2.5,1,3.7h6.3C1797.2,125.9,1794.5,124.3,1791,124.3z"/>
	<path class="st1" d="M1630.1,45.7c0-3.7,0-3.7-3.7-7.5c-3.7,3.7-3.7,7.5,0,11.2L1630.1,45.7z"/>
	<path class="st1" d="M1383.2,105.6c0-3.7-3.7,7.5,0,11.2C1383.2,113.1,1383.2,113.1,1383.2,105.6z"/>
	<path class="st1" d="M227.2,83.1c7.5,0,7.5-3.7,0-7.5C223.5,79.4,223.5,83.1,227.2,83.1z"/>
	<path class="st1" d="M1581.5,71.9c-3.7,3.7-3.7,3.7,0,11.2C1585.2,79.4,1585.2,79.4,1581.5,71.9z"/>
	<path class="st1" d="M1420.6,120.6c0,2.5,0,5,0,7.5h4C1424,125.4,1422.3,122.2,1420.6,120.6z"/>
	<path class="st1" d="M1226.1,124.3c-1.3,1.3-2.1,2.6-2.4,3.7h4.2C1227,127.1,1226.1,126.2,1226.1,124.3z"/>
	<path class="st1" d="M699.6,68c-0.3,1.5,0.6,3.3,2.7,7.6c3.7-3.7,3.7-7.5,0-11.2c-1.3,1.3-2.2,2.2-2.6,3.1c0,0.1,0,0.2,0,0.4
		C699.7,67.9,699.7,68,699.6,68z"/>
	<path class="st1" d="M447.9,42c0,3.7,0,7.5,3.7,11.2C451.7,49.5,447.9,45.7,447.9,42z"/>
	<path class="st1" d="M242.2,86.9c0,3.7,0,7.5,7.5,7.5C249.6,94.4,245.9,90.6,242.2,86.9z"/>
	<path class="st1" d="M418,34.5c-7.5,0-7.5,3.7-3.7,11.2C418,45.7,421.7,42,418,34.5z"/>
	<path class="st1" d="M380.6,68.2l-3.7-3.7c-3.7,3.7-3.7,3.7,0,7.5L380.6,68.2z"/>
	<path class="st1" d="M541.5,83.1c-3.7,0-3.7,0-3.7,7.5C541.5,90.6,541.5,90.6,541.5,83.1z"/>
	<path class="st1" d="M1817.2,120.5c-4.6,0-3.5,4.2-2.1,7.5h2.1C1817.2,125.5,1817.2,123,1817.2,120.5z"/>
	<path class="st1" d="M1820.9,101.8l-3.7-3.7C1813.4,105.6,1813.4,109.3,1820.9,101.8z"/>
	<path class="st1" d="M661.2,128C661.2,128,661.2,128,661.2,128L661.2,128C661.2,128,661.2,128,661.2,128z"/>
	<path class="st1" d="M575.1,120.6c-3.7,0-3.7,3.7-3.7,7.5c0,0,0,0,0,0h3C575.1,126.3,575.1,122.8,575.1,120.6z"/>
	<path class="st1" d="M245.9,124.3c-1.3,1.3-1.7,2.6-1.5,3.7h4.2C247.5,125.9,245.9,124.3,245.9,124.3z"/>
	<path class="st1" d="M283.3,109.3c0,0-3.7,0-3.7-3.7C279.6,109.3,279.6,109.3,283.3,109.3z"/>
	<path class="st1" d="M1667.5,75.7c-3.7,0-3.7-3.7-3.7-3.7C1660,75.7,1663.8,79.4,1667.5,75.7z"/>
	<path class="st1" d="M623.8,75.7c0,3.7,0,3.7,3.7,7.5C627.5,79.4,627.5,79.4,623.8,75.7z"/>
	<path class="st1" d="M436.7,71.9c0,0,0-3.7-3.7-3.7C433,71.9,433,71.9,436.7,71.9z"/>
	<path class="st1" d="M1585.2,101.8c3.7-3.7,0-7.5,0-7.5C1581.5,98.1,1577.8,98.1,1585.2,101.8z"/>
	<path class="st1" d="M283.3,124.3c0,1.9,0.9,2.8,1.9,3.7h2.5C287.2,126.9,285.9,125.6,283.3,124.3z"/>
	<path class="st1" d="M21.5,38.2c-3.7-3.7-3.7,0-3.7,7.5C21.5,45.7,21.5,45.7,21.5,38.2z"/>
	<path class="st1" d="M152.4,75.7c-3.7,3.7-3.7,3.7,0,7.5C156.1,83.1,156.1,79.4,152.4,75.7z"/>
	<path class="st1" d="M13.7,55.6c3.7-3.7,3.7-3.7,0-7.5C10,51.8,10,51.8,13.7,55.6z"/>
	<path class="st1" d="M687.4,83.1c0-3.7,0-3.7,0-3.7C683.6,79.4,683.6,83.1,687.4,83.1z"/>
	<path class="st1" d="M691.1,90.6c-3.7,0-3.7,3.7,0,7.5C691.1,94.4,691.1,94.4,691.1,90.6z"/>
	<path class="st1" d="M699.8,98.1c-0.7,2.1,0.1,3.7,2.5,3.7c3.7-3.7,3.7-3.7,0-7.5c-0.6,0.6-1.1,1.2-1.5,1.8
		C700.8,96.9,700.4,97.6,699.8,98.1z"/>
	<path class="st1" d="M1297.2,109.3c0-3.7,0-7.5-3.7-7.5C1293.4,105.6,1293.4,109.3,1297.2,109.3z"/>
	<polygon class="st1" points="43.9,128 43.9,128 43.9,128 	"/>
	<path class="st1" d="M1282.2,128c0-3.7,0-3.7,0-7.5C1278.5,120.5,1278.5,128,1282.2,128z"/>
	<path class="st1" d="M111.2,98.1c-3.7-3.7-3.7-3.7-7.5,0C107.5,101.8,107.5,101.8,111.2,98.1z"/>
	<path class="st1" d="M219.7,90.6c0-3.7,0-3.7,0-7.5C216,83.1,216,90.6,219.7,90.6z"/>
	<path class="st1" d="M1903.2,45.7c0,0,0,3.7,0,7.5C1907,53.2,1903.2,45.7,1903.2,45.7z"/>
	<path class="st1" d="M1877,75.7c-3.7,0-3.7,3.7,0,7.5C1880.8,83.1,1880.8,79.4,1877,75.7z"/>
	<path class="st1" d="M1806,71.9c0,0,0-3.7-3.7-3.7C1798.5,68.2,1798.5,71.9,1806,71.9z"/>
	<path class="st1" d="M1734.9,113.1C1727.4,113.1,1727.4,116.8,1734.9,113.1L1734.9,113.1z"/>
	<polygon class="st1" points="635,128 635,128 635,128 	"/>
	<path class="st1" d="M635,128c-3.7-3.7-3.7-3.7-3.7,0c0,0,0,0,0,0L635,128C635,128,635,128,635,128z"/>
	<path class="st1" d="M1544.1,57C1544.1,49.5,1540.3,53.2,1544.1,57L1544.1,57z"/>
	<path class="st1" d="M1401.9,113.1c0,7.5-3.7,7.5,0,11.2C1401.9,120.6,1401.9,116.8,1401.9,113.1z"/>
	<path class="st1" d="M1910.7,109.3c-3.7,0-3.7,0,0,3.7C1910.7,112.1,1910.7,110.7,1910.7,109.3z"/>
	<path class="st1" d="M1918.2,53.2C1921.9,53.2,1921.9,49.5,1918.2,53.2L1918.2,53.2z"/>
	<path class="st1" d="M140.9,74.3c-1.9,0-2.8,0-2.8,0c-0.9,0-0.9,0-0.9,0C133.4,78,137.1,78,140.9,74.3z"/>
	<path class="st1" d="M32.7,120.6c0-3.7,0-3.7,0-3.7C28.9,120.6,28.9,120.6,32.7,120.6z"/>
	<path class="st1" d="M1854.4,58.1c0.1-0.2,0.1-0.5,0.2-0.8C1854.6,57.5,1854.5,57.7,1854.4,58.1z"/>
	<path class="st1" d="M1854.6,57.3c0-0.2,0-0.3,0-0.3C1854.6,57.1,1854.6,57.2,1854.6,57.3z"/>
	<path class="st1" d="M1854.4,58.1c-0.7,1.8-3.6-0.6-3.6,2.6C1853.2,60.7,1854.1,59.2,1854.4,58.1z"/>
	<path class="st1" d="M1869.6,53.2c-3.7,0-3.7,3.7,0,7.5C1869.6,57,1869.6,53.2,1869.6,53.2z"/>
	<path class="st1" d="M1226.1,113.1l-3.7-3.7C1222.3,109.3,1222.3,113.1,1226.1,113.1z"/>
	<path class="st1" d="M287.1,113.1c0.4-0.4,0.8-0.7,1.2-1C287.5,111.9,287.1,112.1,287.1,113.1z"/>
	<path class="st1" d="M294.5,113.1c0-3.3-3-3.7-6.3-1C290.4,112.4,294.5,115.9,294.5,113.1z"/>
	<path class="st1" d="M73.5,74.3C73.5,70.5,69.8,70.5,73.5,74.3L73.5,74.3z"/>
	<path class="st1" d="M268.4,128L268.4,128l1,0C269,128,268.7,128,268.4,128z"/>
	<path class="st1" d="M1708.7,53.2c0,3.7,0,3.7,0,7.5C1712.4,60.7,1712.4,57,1708.7,53.2z"/>
	<path class="st1" d="M1727.4,128h-3.7c0,0,0.1,0,0.1,0L1727.4,128C1727.4,128,1727.4,128,1727.4,128z"/>
	<path class="st1" d="M1551.6,83.1c3.7,0,3.7,0,0-3.7C1547.8,79.4,1547.8,83.1,1551.6,83.1z"/>
	<path class="st1" d="M36.1,70.5c-3.7,0-3.7,0-3.7,3.7C36.1,74.3,36.1,74.3,36.1,70.5z"/>
	<path class="st1" d="M1802.2,109.3c0,0,0,0,0,3.7C1806,113.1,1806,109.3,1802.2,109.3z"/>
	<path class="st1" d="M350.7,86.9c0-3.7-3.7-3.7-3.7,0S346.9,90.6,350.7,86.9z"/>
	<path class="st1" d="M608.8,124.3c0-3.7,0-3.7,0-3.7C605.1,124.3,608.8,124.3,608.8,124.3z"/>
	<path class="st1" d="M1880.8,49.5C1884.5,53.2,1884.5,49.5,1880.8,49.5L1880.8,49.5z"/>
	<path class="st1" d="M1719.9,109.3C1719.9,105.6,1716.2,109.3,1719.9,109.3L1719.9,109.3z"/>
	<path class="st1" d="M1207.4,45.7c0-3.7,0-3.7,0-3.7C1203.6,45.7,1203.6,45.7,1207.4,45.7z"/>
	<path class="st1" d="M418,98.1C414.3,98.1,418,101.8,418,98.1L418,98.1z"/>
	<path class="st1" d="M97.1,82.2c0.8-1.1,1.7-2.8-0.8-2.8c0,0,0,0,0,0C96.6,80.4,96.8,81.3,97.1,82.2z"/>
	<path class="st1" d="M96.3,83.1c0,0,0.4-0.4,0.8-0.9c-0.2-0.9-0.5-1.9-0.8-2.8c0,0,0,0,0,0c0,0,0,0,0,0
		C96.3,79.4,96.3,79.4,96.3,83.1z"/>
	<path class="st1" d="M1660.1,12.1c-11.2,3.7-3.7,22.4,0,26.2C1660.1,30.8,1660.1,19.5,1660.1,12.1z"/>
	<path class="st1" d="M1484.2,12.1c0-7.5-3.7-7.5-7.5-11.2C1473,0.8,1480.5,12.1,1484.2,12.1z"/>
	<path class="st1" d="M1315.9,12.1c-3.7,0-3.7,3.7-3.7,11.2C1319.6,19.5,1319.6,15.8,1315.9,12.1z"/>
	<path class="st1" d="M1484.2,15.8c3.7,0,3.7,3.7,7.5,3.7C1491.7,15.8,1491.7,15.8,1484.2,15.8z"/>
	<path class="st1" d="M208.5,15.8c0,3.7,3.8,7.5,3.8,7.5C216,19.5,216,15.8,208.5,15.8z"/>
	<path class="st1" d="M421.7,15.8c0-3.7,0-3.7,0-7.5C418,4.6,418,15.8,421.7,15.8z"/>
	<path class="st1" d="M1903.2,15.8h-3.7C1903.2,23.3,1907,19.5,1903.2,15.8z"/>
	<path class="st1" d="M1716.2,12.1c-3.7,0-7.5-3.7-7.5,0C1708.7,15.8,1712.4,15.8,1716.2,12.1z"/>
	<path class="st1" d="M1794.7,0.8c-3.7,0-3.7,3.7-3.7,3.7C1794.7,8.3,1798.5-2.9,1794.7,0.8z"/>
	<path class="st1" d="M893.6,103.7c-5.5,2.7-6.4,12.4-5.5,24.4h9.5C896.3,118.5,895.3,107.2,893.6,103.7z"/>
	<path class="st1" d="M989,128C989,128,989,128,989,128L989,128C989,128,989,128,989,128z"/>
	<path class="st1" d="M991.8,128h3.9c-0.8-2.4-2.1-5-3.8-7.7C992,122.9,991.9,125.5,991.8,128z"/>
	<path class="st1" d="M991.8,128c0.1-2.6,0.2-5.2,0.1-7.7c-0.3-0.6-0.7-1.1-1.1-1.7c-0.8,3.1-1.4,6.2-1.8,9.3c0,0,0,0.1,0,0.1H991.8
		z"/>
	<path class="st1" d="M1005.8,114.9c0,3.7,3.7,11.2,3.7,11.2c0-3.7,0-11.2,3.7-15c1.9,7.5,4.7,13.2,8,16.9h10c-1.1-4.3-3-7.8-3-13.2
		c0,3.7-3.7,7.5-7.5,11.2c0-3.7,3.7-22.4,0-26.2c-3.7-3.7-7.5,0-11.2,0c-3.7-7.5-3.7-7.5-7.5-15c-3.3,0-3.7,34.7-1.2,43.1h1.5
		C1003.2,124.8,1005.8,121.2,1005.8,114.9z"/>
	<path class="st1" d="M1192.8,73.7c-5.7-2.9-11.5,36-7.1,54.3h8.7C1194.9,111.8,1192.8,79.3,1192.8,73.7z"/>
	<path class="st1" d="M893.6,28.8c0-3.7-3.7-7.5-3.7-11.2c-3.7,0-3.7,3.7-7.5,3.7c3.7,3.7,3.7,7.5,3.7,11.2c-3.7,3.7-15,0-18.7,7.5
		c7.5,0,15,0,22.5,7.5C893.6,43.8,893.6,36.3,893.6,28.8z"/>
	<path class="st1" d="M1148.3,128h1.1C1150.1,126.7,1149,126.7,1148.3,128z"/>
	<path class="st1" d="M1140.5,118.6c-2,1-3.2,4.8-3.8,9.4h1.1C1137.3,124.6,1138.2,120.9,1140.5,118.6z"/>
	<path class="st1" d="M1118,122.4c0-11.2-18.7-7.5-15,3.7c0.4,0.8,0.9,1.5,1.5,1.9h8.3C1115.7,126.5,1118,124.1,1118,122.4z"/>
	<path class="st1" d="M1076.9,66.2c0,7.5,0,15,3.7,22.4C1088.1,73.7,1088.1,70,1076.9,66.2z"/>
	<path class="st1" d="M987.1,51.3c-7.5,0-3.7,22.4,0,26.2C990.8,77.5,994.6,51.3,987.1,51.3z"/>
	<path class="st1" d="M886.1,55c-3.7,3.7,3.7,15,7.5,22.4C893.6,77.5,893.6,47.5,886.1,55z"/>
	<path class="st1" d="M1088.1,114.9c-1.6,4.9-2.5,9.1-2.8,13.2h5.5C1090.7,123.9,1089.7,119.8,1088.1,114.9z"/>
	<path class="st1" d="M1136.7,111.1c3.7-7.5,3.7-11.2,0-15C1136.7,96.2,1133,111.1,1136.7,111.1z"/>
	<path class="st1" d="M938.5,118.6C938.5,118.6,938.4,118.6,938.5,118.6C938.4,118.6,938.4,118.6,938.5,118.6
		C938.4,118.6,938.5,118.6,938.5,118.6z"/>
	<path class="st1" d="M938.4,118.6C938.4,118.6,938.4,118.6,938.4,118.6c-3.7-3.8,0-11.2-3.7-15C927.2,111.1,931,118.6,938.4,118.6z
		"/>
	<path class="st1" d="M1140.5,77.5c-7.5-26.2-3.7,0-3.7,11.2C1140.5,84.9,1140.5,81.2,1140.5,77.5z"/>
	<path class="st1" d="M957.1,114.9c11.2,0,3.7-22.4,3.7-26.2s0-26.2-7.5-26.2c0,11.2,0,26.2,3.7,37.4
		C960.9,103.7,960.9,107.4,957.1,114.9z"/>
	<path class="st1" d="M953.4,99.9c0,0,0,15,3.7,15C957.1,107.4,957.1,99.9,953.4,99.9z"/>
	<path class="st1" d="M1058.2,99.9c0,3.7-3.7,7.5,0,11.2C1061.9,103.7,1058.2,103.7,1058.2,99.9z"/>
	<path class="st1" d="M908.5,88.7c3.8,0,7.5,3.7,11.2,3.7C916,88.7,916,81.2,908.5,88.7z"/>
	<path class="st1" d="M931,84.9c-3.7,3.7,0,7.5,0,11.2C934.7,88.7,934.7,88.7,931,84.9z"/>
	<path class="st1" d="M1110.5,107.4c0-3.7,0-7.5,0-11.2C1110.5,99.9,1106.8,103.7,1110.5,107.4z"/>
	<path class="st1" d="M1028.2,73.7c-3.7-3.7-7.5,0-3.7,3.7C1024.5,77.5,1028.2,77.5,1028.2,73.7z"/>
	<path class="st1" d="M1204.1,122.4c0,2.4-1.6,3.3-0.6,5.7h3.9C1206.9,126.1,1206,124.3,1204.1,122.4z"/>
	<path class="st1" d="M1080.6,99.9c-3.7,0-3.7,3.7-3.7,7.5C1084.3,107.4,1084.3,103.7,1080.6,99.9z"/>
	<path class="st1" d="M1013.3,77.5c-3.7,3.7-3.7,7.5,0,11.2C1017,88.7,1017,84.9,1013.3,77.5z"/>
	<path class="st1" d="M1170.4,118.6c-3.7,3.7-3.7,3.7,0,7.5C1174.1,126.1,1174.1,122.4,1170.4,118.6z"/>
	<polygon class="st1" points="938.4,118.6 938.4,118.6 938.4,118.6 	"/>
	<path class="st1" d="M938.4,111.1c0,3.7,0,3.7,0,7.4c0,0,0,0,0,0C938.5,114.9,942.2,114.9,938.4,111.1z"/>
	<path class="st1" d="M938.4,118.6C938.4,118.6,938.4,118.6,938.4,118.6C938.4,118.6,938.4,118.6,938.4,118.6
		C938.4,118.6,938.4,118.6,938.4,118.6L938.4,118.6z"/>
	<path class="st1" d="M1125.5,84.9c-3.7-3.7,0-7.5-7.5-7.5C1121.8,81.2,1121.8,81.2,1125.5,84.9z"/>
	<path class="st1" d="M916,62.5c0,3.7-3.7,7.5-3.7,11.2C916,70,919.7,70,916,62.5z"/>
	<path class="st1" d="M1234,122.4C1234,118.6,1230.2,122.4,1234,122.4L1234,122.4z"/>
	<path class="st1" d="M1118,88.7c0,0,0,0,0-3.7C1118,84.9,1114.3,88.7,1118,88.7z"/>
	<path class="st1" d="M931,58.8C934.7,55,931,55,931,58.8L931,58.8z"/>
	<path class="st1" d="M1080.6,126.1c-3.7-3.7-3.7-3.7-3.7,0C1080.6,129.8,1080.6,126.1,1080.6,126.1z"/>
	<path class="st1" d="M1106.8,81.2C1110.5,81.2,1110.5,77.5,1106.8,81.2L1106.8,81.2z"/>
	<path class="st1" d="M1024.5,88.7C1024.5,92.4,1028.2,88.7,1024.5,88.7L1024.5,88.7z"/>
	<path class="st1" d="M938.4,81.2C934.7,81.2,934.7,84.9,938.4,81.2L938.4,81.2z"/>
	<path class="st1" d="M927.2,118.6c-3.7-11.2-7.5-15-15-7.5c2.1,6.4-0.6,11.6-2.6,16.9h11.6C923.4,124,927.2,121.3,927.2,118.6z"/>
	<path class="st1" d="M759.6,116.5c-2.5,4.1-4.2,7.9-5.3,11.5h5.4C760.4,123.7,760.9,120.2,759.6,116.5z"/>
	<path class="st1" d="M847.2,110.3c-5.6-6.3-17-20-20.2-20c-2.4,0-3.8,0.3-4.5,0.9c1.6,1.7,2.9,3.6,3.8,5.6
		C832.2,101.2,842.7,106.9,847.2,110.3z"/>
	<path class="st1" d="M847.2,110.3c0.9,1,1.7,1.9,2.2,2.4C849.4,112.2,848.6,111.4,847.2,110.3z"/>
	<path class="st1" d="M826.3,96.8c-1-2-2.2-3.9-3.8-5.6C821.3,92.3,823.1,94.3,826.3,96.8z"/>
	<path class="st1" d="M806.5,75.3h-2c-3-3-1.2,1.2,1.5,4.8C806.1,78.6,806.3,77,806.5,75.3z"/>
	<path class="st1" d="M827,79.1c-3.7-7.5-7.5-7.5-15-3.7h-3c1.6,2.6,3.6,5,5.5,7.3C819.1,82.3,824.6,81.5,827,79.1z"/>
	<path class="st1" d="M808.3,82.8c1.3,0,3.7,0,6.2-0.2c-1.9-2.3-3.9-4.8-5.5-7.3h-2.5c-0.2,1.6-0.4,3.3-0.4,4.8
		C806.8,81.1,807.5,82.1,808.3,82.8z"/>
	<path class="st1" d="M737.2,105.3c-6.3,0-15.2-5.3-22.3,1.9c0.8,1.3,1.4,2.7,1.8,4.2C724.9,110,731,111.4,737.2,105.3z"/>
	<path class="st1" d="M711,112.7c2-0.7,3.8-1.1,5.6-1.4c-0.4-1.5-0.9-2.9-1.8-4.2C713.5,108.5,712.2,110.4,711,112.7z"/>
	<path class="st1" d="M800.8,82.8c0-3.7-7.5-3.7-11.2-3.7C789.6,79.1,793.3,86.6,800.8,82.8z"/>
	<path class="st1" d="M726,71.6c-3.8,0-7.5-3.7-11.2-7.5C711,71.6,722.2,75.3,726,71.6z"/>
	<path class="st1" d="M699.8,98.1c0.2-0.6,0.6-1.3,1-1.9c0-0.7-0.3-1.4-1-2.1c-3.7,0-3.7,3.7-7.5,3.7
		C694.5,100,698.1,99.6,699.8,98.1z"/>
	<path class="st1" d="M700.8,96.2c-0.5,0.7-0.8,1.3-1,1.9C700.4,97.6,700.8,96.9,700.8,96.2z"/>
	<path class="st1" d="M755.9,60.4c0-3.7,0-7.5,0-11.2C752.2,56.6,748.4,60.4,755.9,60.4z"/>
	<path class="st1" d="M853.2,90.3c0-3.7-3.7-3.7-3.7,0C853.2,94,853.2,94,853.2,90.3z"/>
	<path class="st1" d="M782.1,101.5c0-3.7,3.7-7.5-3.7-3.7C778.4,97.8,782.1,97.8,782.1,101.5z"/>
	<path class="st1" d="M838.2,90.3c0,0,0,0,0,3.7C842,94,842,90.3,838.2,90.3z"/>
	<path class="st1" d="M699.6,68c0-0.2,0.1-0.4,0.2-0.6c-0.2-3.4-3.8-3.2-7.5,0.4C692.3,71.5,695.9,71.6,699.6,68z"/>
	<path class="st1" d="M699.8,67.9c0-0.1,0-0.2,0-0.4c-0.1,0.2-0.1,0.4-0.2,0.6C699.7,68,699.7,67.9,699.8,67.9z"/>
	<path class="st1" d="M812,94c0-3.7,0-3.7-3.7,0C812,94,812,94,812,94z"/>
	<path class="st1" d="M761.2,109c-0.4,0-0.9,0-1.6,0C759.7,110.7,760.4,110.1,761.2,109z"/>
	<path class="st1" d="M763.4,105.3c0,0-1.2,2.3-2.2,3.7C763.4,108.9,763.4,108.4,763.4,105.3z"/>
	<path class="st1" d="M755.9,101.5c0,0-3.7,0-7.5,0C748.4,105.3,752.2,105.3,755.9,101.5z"/>
	<path class="st1" d="M711,94c0-3.7,0-3.7-3.7,0C707.3,97.8,707.3,97.8,711,94z"/>
	<path class="st1" d="M707.3,49.1c0,0,0,0-3.7,0C703.5,52.9,703.5,52.9,707.3,49.1z"/>
	<path class="st1" d="M744.7,90.3c0-3.7,0-3.7-3.7-3.7C744.7,90.3,740.9,90.3,744.7,90.3z"/>
	<path class="st1" d="M748.4,71.6h3.7C752.2,71.6,748.4,67.9,748.4,71.6z"/>
	<path class="st1" d="M864.4,86.6c0-3.7,7.5-3.7-3.7-3.7C864.4,82.8,864.4,86.6,864.4,86.6z"/>
	<path class="st1" d="M737.2,82.8C737.2,86.6,740.9,86.6,737.2,82.8L737.2,82.8z"/>
</g>
</svg>
