<?xml version="1.0" encoding="utf-8"?>
<!-- Generator: Adobe Illustrator 25.0.0, SVG Export Plug-In . SVG Version: 6.00 Build 0)  -->
<svg version="1.1" id="Layer_1" xmlns="http://www.w3.org/2000/svg" xmlns:xlink="http://www.w3.org/1999/xlink" x="0px" y="0px"
	 viewBox="0 0 640 640" style="enable-background:new 0 0 640 640;" xml:space="preserve">
<style type="text/css">
	.st0{fill:#FFF9EB;}
	.st1{opacity:3.000000e-02;}
	.st2{opacity:0.34;}
	.st3{opacity:0.15;}
	.st4{fill:#D1B06F;}
</style>
<g>
	<rect class="st0" width="640" height="640"/>
	<g class="st1">
		<g class="st2">
			<path d="M47.6,0h-1.7v640h1.7V0z"/>
			<path d="M89.5,0h-1.7v640h1.7V0z"/>
			<path d="M132.3,0h-1.7v640h1.7V0z"/>
			<path d="M174.2,0h-1.7v640h1.7V0z"/>
			<path d="M217.1,0h-1.7v640h1.7V0z"/>
			<path d="M259,0h-1.7v640h1.7V0z"/>
			<path d="M301.8,0h-1.7v640h1.7V0z"/>
			<path d="M343.7,0H342v640h1.7V0z"/>
			<path d="M386.5,0h-1.7v640h1.7V0z"/>
			<path d="M428.4,0h-1.7v640h1.7V0z"/>
			<path d="M471.2,0h-1.7v640h1.7V0z"/>
			<path d="M513.1,0h-1.7v640h1.7V0z"/>
			<path d="M556,0h-1.7v640h1.7V0z"/>
			<path d="M597.9,0h-1.7v640h1.7V0z"/>
			<path d="M640,595.6H0v1.7h640V595.6z"/>
			<path d="M640,553.3H0v1.7h640V553.3z"/>
			<path d="M640,510.9H0v1.7h640V510.9z"/>
			<path d="M640,468.5H0v1.7h640V468.5z"/>
			<path d="M640,383.8H0v1.7h640V383.8z"/>
			<path d="M640,341.5H0v1.7h640V341.5z"/>
			<path d="M640,298.6H0v1.7h640V298.6z"/>
			<path d="M640,256.3H0v1.7h640V256.3z"/>
			<path d="M640,171.5H0v1.7h640V171.5z"/>
			<path d="M640,129.2H0v1.7h640V129.2z"/>
			<path d="M640,86.8H0v1.7h640V86.8z"/>
			<path d="M640,44.4H0v1.7h640V44.4z"/>
			<path d="M217.7,0h-5v640h5V0z"/>
			<path d="M429,0h-5v640h5V0z"/>
			<path d="M640,0h-4.7v640h4.7V0z"/>
			<path d="M640,635.3H0v4.7h640V635.3z"/>
			<path d="M640,423.9H0v4.7h640V423.9z"/>
			<path d="M640,211.4H0v5.9h640V211.4z"/>
		</g>
	</g>
	<g class="st3">
		<path class="st4" d="M473.1,39.1c0,3.4,1.7,3.4,3.4,6.8c8.5,3.4,12,10.2,18.8,1.7C488.5,44.2,478.2,47.6,473.1,39.1z"/>
		<path class="st4" d="M442.4,28.9c5.1,1.7,12,3.4,15.4,0c-3.4-3.4-12-5.1-17.1-6.8C442.4,25.5,447.5,25.5,442.4,28.9z"/>
		<path class="st4" d="M312.6,319.9c0-1.7-12-5.1-13.7-3.4C295.5,319.9,310.9,319.9,312.6,319.9z"/>
		<path class="st4" d="M553.3,96.9c0-6.8-6.8-5.1-12-6.8C541.4,93.5,549.9,95.2,553.3,96.9z"/>
		<path class="st4" d="M324.6,73.1c-1.7-1.7-5.1-8.5-8.5-5.1C314.3,71.4,322.8,74.8,324.6,73.1z"/>
		<path class="st4" d="M461.1,30.6c3.4,0,5.1,0,8.5,0c-1.7-1.7-3.4-3.4-5.1-5.1C462.9,25.5,461.1,27.2,461.1,30.6z"/>
		<path class="st4" d="M408.2,27.2c3.4,1.7,10.2,5.1,12,0C415,27.2,411.6,23.8,408.2,27.2z"/>
		<path class="st4" d="M522.6,6.8c3.4,3.4,8.5,5.1,12,8.5c0,0,0-1.7,1.7-1.7C534.6,11.9,524.3,5.1,522.6,6.8z"/>
		<path class="st4" d="M625.1,11.9c-1.7-3.4-5.1-3.4-8.5-3.4c3.4,1.7,5.1,5.1,10.2,5.1L625.1,11.9z"/>
		<path class="st4" d="M377.5,286c-5.1-3.4-8.5-1.7-12,0C370.6,286,374,287.7,377.5,286z"/>
		<path class="st4" d="M526,85c1.7,1.7,6.8,5.1,10.2,5.1C532.9,85,529.4,85,526,85z"/>
		<path class="st4" d="M500.8,142.8c-3.4,0-5.1,0-8.5-1.7C495.7,144.5,499.1,149.6,500.8,142.8z"/>
		<path class="st4" d="M169.2,19.8c-5.1,0-8.5-1.7-13.7,0C160.6,21.5,165.8,21.5,169.2,19.8z"/>
		<path class="st4" d="M567,10.2c-3.4,1.7,1.7,3.4,3.4,5.1C568.7,13.6,570.4,8.5,567,10.2z"/>
		<path class="st4" d="M524.3,25.5c-3.4-1.7-6.8-3.4-10.2-6.8C512.4,22.1,522.6,27.2,524.3,25.5z"/>
		<path class="st4" d="M524.7,146.2c0-1.7-1.7-1.7-1.7-3.4C517.9,139.4,519.6,146.2,524.7,146.2z"/>
		<path class="st4" d="M536.3,83.3c1.7-1.7-5.1-3.4-6.8-5.1C531.2,81.6,532.9,83.3,536.3,83.3z"/>
		<path class="st4" d="M520.9,68c3.4,3.4,3.4,3.4,6.8,0C526,68,522.6,68,520.9,68z"/>
		<path class="st4" d="M310.9,49.3c-5.1-3.4-6.8,0-1.7,1.7C310.9,51,310.9,49.3,310.9,49.3z"/>
		<path class="st4" d="M211.9,128.5c1.7,0,5.1,0,6.8,0C215.3,128.5,213.6,126.8,211.9,128.5z"/>
		<path class="st4" d="M333.1,314.8C326.2,309.7,326.2,311.4,333.1,314.8z"/>
		<path class="st4" d="M502.1,52.7l-1.7,3.4c-1.7-1.7-5.1,0-8.5,1.7c6.8,1.7,12,5.1,18.8,5.1c-3.4-3.4-6.8-5.1-10.2-6.8
			c1.7,0,5.1,0,6.8,0C505.5,52.7,505.5,52.7,502.1,52.7z"/>
		<path class="st4" d="M360.4,331.8c1.7-1.7-3.4-3.4-5.1-3.4C353.6,330.1,357,330.1,360.4,331.8z"/>
		<path class="st4" d="M386,275.8c-1.7-3.4-3.4-3.4-5.1-5.1C382.6,274.1,382.6,275.8,386,275.8z"/>
		<path class="st4" d="M470.1,120.8c0-1.7-3.4,0-5.1,0C465,122.5,468.4,120.8,470.1,120.8z"/>
		<path class="st4" d="M616.5,8.5c-1.7-1.7-3.4-3.4-5.1-1.7C613.1,8.5,614.8,8.5,616.5,8.5z"/>
		<path class="st4" d="M382.6,340.3c3.4,0,5.1,0,8.5,0C386,338.6,386,338.6,382.6,340.3z"/>
		<path class="st4" d="M269.9,22.1c-1.7,0-3.4,1.7-5.1,1.7C266.5,28.9,268.2,25.5,269.9,22.1z"/>
		<path class="st4" d="M466.3,35.7c0,1.7,0,3.4,0,3.4C468,39.1,468,37.4,466.3,35.7z"/>
		<path class="st4" d="M387.7,10.2c0-1.7-1.7-3.4-3.4-3.4C382.6,8.5,386,10.2,387.7,10.2z"/>
		<path class="st4" d="M507.6,137.7l1.7-1.7C505.9,132.6,505.9,134.3,507.6,137.7z"/>
		<path class="st4" d="M450.9,18.7c3.4,1.7,3.4,1.7,5.1,1.7C454.3,18.7,454.3,18.7,450.9,18.7z"/>
		<path class="st4" d="M302.4,107C300.6,107,300.6,108.7,302.4,107c0,1.7,0,1.7,1.7,3.4C304.1,108.7,304.1,108.7,302.4,107z"/>
		<path class="st4" d="M494,134.3l-1.7-1.7c0,0-1.7,0-1.7,1.7C492.3,134.3,492.3,134.3,494,134.3z"/>
		<path class="st4" d="M543.1,35.7c0-1.7-1.7-3.4-3.4-5.1C539.7,34,541.4,35.7,543.1,35.7z"/>
		<path class="st4" d="M599.4,81.6c1.7,1.7,3.4,0,1.7-1.7C601.2,79.9,599.4,79.9,599.4,81.6z"/>
		<path class="st4" d="M473.1,32.3c1.7,1.7,1.7,1.7,3.4,0C474.8,28.9,473.1,30.6,473.1,32.3z"/>
		<path class="st4" d="M459.4,52.7l-1.7-1.7c0,0,0,1.7-1.7,1.7C459.4,54.4,459.4,54.4,459.4,52.7z"/>
		<path class="st4" d="M374,340.3c1.7-1.7,1.7-1.7-1.7-3.4C370.6,338.6,370.6,340.3,374,340.3z"/>
		<path class="st4" d="M512.8,139.4c1.7,1.7,1.7,1.7,3.4,0C514.5,137.7,514.5,137.7,512.8,139.4z"/>
		<path class="st4" d="M573.8,110.4c1.7,0,0-1.7,0-3.4C575.5,105.3,572.1,110.4,573.8,110.4z"/>
		<path class="st4" d="M316,124c0,1.7,0,1.7,1.7,3.4C319.4,125.7,317.7,124,316,124z"/>
		<path class="st4" d="M479.9,23.8c3.4,0,5.1,0,6.8,0C485.1,23.8,483.4,22.1,479.9,23.8z"/>
		<path class="st4" d="M449.2,35.7c1.7,1.7,1.7,1.7,5.1,0C452.6,35.7,450.9,35.7,449.2,35.7z"/>
		<path class="st4" d="M290.4,37.4c-1.7-1.7-1.7-1.7-3.4-1.7C288.7,37.4,288.7,40.8,290.4,37.4z"/>
		<path class="st4" d="M310.9,122.3c1.7-1.7,0-1.7-3.4-3.4C305.8,120.6,307.5,122.3,310.9,122.3z"/>
		<path class="st4" d="M626.8,3.4c1.7,1.7,1.7,1.7,3.4,0C630.2,1.8,628.5,1.8,626.8,3.4z"/>
		<path class="st4" d="M295.5,96.9c-1.7,0-3.4,0-1.7,1.7C293.8,98.6,293.8,96.9,295.5,96.9z"/>
		<path class="st4" d="M350.2,81.6C350.2,79.9,350.2,79.9,350.2,81.6c0-1.7-1.7-1.7-1.7-1.7C346.8,79.9,346.8,79.9,350.2,81.6z"/>
		<path class="st4" d="M203.3,31.7c1.7,1.7,3.4,1.7,3.4,0C205,31.7,205,31.7,203.3,31.7z"/>
		<path class="st4" d="M350.1,325c0-1.7-1.7-3.4-3.4-1.7C346.7,325,348.4,325,350.1,325z"/>
		<path class="st4" d="M380.9,3.4c-1.7,0-3.4-1.7-5.1-1.7C375.8,3.4,379.2,3.4,380.9,3.4z"/>
		<path class="st4" d="M474.8,35.7C473.1,35.7,473.1,35.7,474.8,35.7c-1.7-1.7-1.7-1.7-3.4,0C473.1,37.4,473.1,37.4,474.8,35.7z"/>
		<path class="st4" d="M208.4,9.6l1.7-1.7C208.4,7.9,206.7,7.9,208.4,9.6z"/>
		<path class="st4" d="M427,20.4l-1.7-1.7C423.6,20.4,425.3,22.1,427,20.4z"/>
		<path class="st4" d="M228.9,110.4c1.7,0,1.7,0,3.4,0C232.3,108.7,228.9,110.4,228.9,110.4z"/>
		<path class="st4" d="M363.8,79.9C362.1,78.2,362.1,78.2,363.8,79.9c-1.7-1.7-1.7,0-3.4,0C362.1,79.9,362.1,79.9,363.8,79.9z"/>
		<path class="st4" d="M425.3,37.4c1.7,0,1.7,0,3.4,1.7C428.7,37.4,425.3,37.4,425.3,37.4z"/>
		<path class="st4" d="M452.6,42.5c-1.7-1.7-1.7-1.7-1.7,0C450.9,44.2,452.6,44.2,452.6,42.5z"/>
		<path class="st4" d="M577.3,79.9c0-1.7-1.7-1.7-3.4-1.7v1.7C575.5,79.9,575.5,79.9,577.3,79.9z"/>
		<path class="st4" d="M519.6,132.6c1.7,1.7,1.7,0,3.4,0c0,0,0,0-1.7-1.7C519.6,132.6,519.6,132.6,519.6,132.6z"/>
		<path class="st4" d="M582.4,32.3C584.1,34,582.4,35.7,582.4,32.3z"/>
		<path class="st4" d="M230.6,103.6c1.7-1.7,1.7-1.7,0-1.7S228.9,103.6,230.6,103.6z"/>
		<path class="st4" d="M428.7,299.6C425.3,299.6,425.3,301.2,428.7,299.6C428.7,301.2,428.7,301.2,428.7,299.6z"/>
		<path class="st4" d="M310.9,25.5c0-1.7-1.7-1.7-3.4,0C307.5,27.2,309.2,27.2,310.9,25.5z"/>
		<path class="st4" d="M302.3,297.9c1.7,1.7,1.7,1.7,1.7,0S304,296.2,302.3,297.9z"/>
		<path class="st4" d="M549.9,78.2c0-1.7-1.7-1.7-1.7,0C548.2,79.9,549.9,79.9,549.9,78.2z"/>
		<path class="st4" d="M334.8,62.9c-1.7,0-3.4,0-3.4,1.7C333.1,64.6,333.1,64.6,334.8,62.9z"/>
		<path class="st4" d="M345,69.7C343.3,69.7,343.3,69.7,345,69.7c0,1.7,0,1.7,1.7,0H345z"/>
		<path class="st4" d="M355.3,319.9c1.7-1.7,1.7-1.7,0-1.7C355.3,319.9,355.3,319.9,355.3,319.9z"/>
		<path class="st4" d="M440.6,319.9c0-1.7-1.7-1.7-3.4-1.7C438.9,319.9,438.9,319.9,440.6,319.9z"/>
		<path class="st4" d="M182.8,21.5C182.8,19.8,182.8,19.8,182.8,21.5C181.1,19.8,181.1,19.8,182.8,21.5z"/>
		<path class="st4" d="M625.1,91.8c1.7,0,1.7,1.7,3.4,1.7C628.5,91.8,628.5,90.1,625.1,91.8z"/>
		<path class="st4" d="M365.5,318.2c1.7,0,1.7,0,1.7,0v-1.7C365.5,318.2,365.5,318.2,365.5,318.2z"/>
		<path class="st4" d="M328,124c-1.7-1.7,1.7,1.7,1.7,0H328z"/>
		<path class="st4" d="M438.9,253.7c0-1.7,0-1.7-1.7-1.7C438.9,253.7,438.9,253.7,438.9,253.7z"/>
		<path class="st4" d="M184.5,50.4c0,1.7,0,1.7,3.4,0C188,50.4,186.2,50.4,184.5,50.4z"/>
		<path class="st4" d="M579,107C579,108.7,577.3,108.7,579,107c0,1.7,0,1.7,0,1.7C580.7,108.7,580.7,108.7,579,107z"/>
		<path class="st4" d="M411.6,3.4l1.7,1.7C413.3,5.1,411.6,1.8,411.6,3.4z"/>
		<path class="st4" d="M555.1,34c1.7,0,1.7,0,0-1.7C555.1,32.3,555.1,32.3,555.1,34z"/>
		<path class="st4" d="M160.6,130.2C158.9,128.5,158.9,128.5,160.6,130.2z"/>
		<path class="st4" d="M510.7,78.2l1.7,1.7C512.4,78.2,514.1,78.2,510.7,78.2z"/>
		<path class="st4" d="M493.6,51c0,0,0,1.7,1.7,1.7C495.3,52.7,495.3,51,493.6,51z"/>
		<path class="st4" d="M264.8,357.3C263.1,357.3,264.8,359,264.8,357.3z"/>
		<path class="st4" d="M524.3,85l1.7,1.7C526,85,522.6,83.3,524.3,85z"/>
		<path class="st4" d="M440.6,308h-1.7C438.9,308,438.9,309.7,440.6,308z"/>
		<path class="st4" d="M497,69.7c-1.7,0-1.7,1.7,0,1.7C498.7,71.4,498.7,69.7,497,69.7z"/>
		<path class="st4" d="M606.3,127.4C604.6,127.4,604.6,127.4,606.3,127.4C604.6,127.4,604.6,129.1,606.3,127.4z"/>
		<path class="st4" d="M423.6,11.9c1.7-1.7,0-1.7-1.7-1.7C421.9,10.2,421.9,10.2,423.6,11.9z"/>
		<path class="st4" d="M358.7,23.8C357,25.5,357,25.5,358.7,23.8C358.7,25.5,358.7,25.5,358.7,23.8z"/>
		<path class="st4" d="M602.9,6.8C602.9,8.5,602.9,8.5,602.9,6.8C604.6,6.8,604.6,8.5,602.9,6.8z"/>
		<path class="st4" d="M285.3,35.7c0,1.7,1.7,1.7,1.7,0C285.3,35.7,287,35.7,285.3,35.7z"/>
		<path class="st4" d="M420.2,59.5c1.7,0,0,1.7,3.4,1.7C421.9,59.5,420.2,59.5,420.2,59.5z"/>
		<path class="st4" d="M147,57.2C148.7,57.2,148.7,57.2,147,57.2C147,55.5,147,55.5,147,57.2z"/>
		<path class="st4" d="M148.7,31.7c1.7,0,1.7,0,1.7-1.7C148.7,31.7,148.7,31.7,148.7,31.7z"/>
		<path class="st4" d="M165.8,33.4C167.5,31.7,167.5,31.7,165.8,33.4C165.8,31.7,165.8,31.7,165.8,33.4z"/>
		<path class="st4" d="M329.7,61.2C329.7,59.5,329.7,59.5,329.7,61.2C328,59.5,328,59.5,329.7,61.2z"/>
		<path class="st4" d="M339.9,69.7C338.2,69.7,339.9,71.4,339.9,69.7z"/>
		<path class="st4" d="M602.9,71.4C604.6,73.1,602.9,73.1,602.9,71.4C602.9,69.7,604.6,71.4,602.9,71.4z"/>
		<path class="st4" d="M353.6,73.1c-1.7,0-1.7-1.7-1.7,0H353.6z"/>
		<path class="st4" d="M348.4,331.8v-1.7C346.7,330.1,346.7,331.8,348.4,331.8z"/>
		<path class="st4" d="M514.1,56.1C514.1,54.4,512.4,54.4,514.1,56.1z"/>
		<path class="st4" d="M252.8,78.2C252.8,76.5,251.1,78.2,252.8,78.2z"/>
		<path class="st4" d="M507.2,83.3C509,81.6,509,83.3,507.2,83.3z"/>
		<path class="st4" d="M345,76.5C346.7,74.8,345,74.8,345,76.5C345,74.8,345,74.8,345,76.5C345,74.8,343.3,74.8,345,76.5
			C345,74.8,345,74.8,345,76.5C343.3,76.5,343.3,76.5,345,76.5z"/>
		<path class="st4" d="M328,68c1.7,0,1.7,1.7,1.7,0C329.7,66.3,328,66.3,328,68z"/>
		<path class="st4" d="M587.5,23.8c-1.7,0-1.7-1.7-3.4,0C585.8,23.8,585.8,25.5,587.5,23.8z"/>
		<path class="st4" d="M584.1,23.8C585.8,22.1,585.8,22.1,584.1,23.8z"/>
		<path class="st4" d="M136.7,77.8c-12-6.8-25.6-13.7-37.6-22.2C97.4,57.3,131.6,81.2,136.7,77.8z"/>
		<path class="st4" d="M97.4,106.8c-5.1-1.7-8.5-3.4-13.7-6.8l-1.7-1.7c0,0,0,0,1.7,0c-5.1-1.7-8.5-3.4-10.2-3.4
			C73.5,100,94,111.9,97.4,106.8z"/>
		<path class="st4" d="M36,74.3c3.4,1.7,8.5,5.1,13.7,8.5C54.8,77.8,37.7,70.9,36,74.3z"/>
		<path class="st4" d="M75.3,94.8c1.7,1.7,3.4,1.7,5.1,1.7c1.7-5.1-8.5-10.2-12-6.8C71.8,91.4,75.3,91.4,75.3,94.8z"/>
		<path class="st4" d="M24,65.8c0-1.7-6.8-10.2-10.2-6.8C12.1,60.7,20.6,65.8,24,65.8z"/>
		<path class="st4" d="M99.2,204.2c0-6.8-6.8-5.1-12-6.8C87.2,200.8,95.7,202.5,99.2,204.2z"/>
		<path class="st4" d="M6.9,137.6c3.4,0,5.1,0,8.5,0c-1.7-1.7-3.4-3.4-5.1-5.1C8.7,132.4,6.9,134.1,6.9,137.6z"/>
		<path class="st4" d="M68.4,113.6c3.4,3.4,8.5,5.1,12,8.5c0,0,0-1.7,1.7-1.7C80.4,118.8,70.1,111.9,68.4,113.6z"/>
		<path class="st4" d="M65,279.4c-3.4-5.1-10.2-6.8-15.4-8.5C53,274.2,59.9,277.6,65,279.4z"/>
		<path class="st4" d="M71.8,192.2c1.7,1.7,6.8,5.1,10.2,5.1C78.7,192.2,75.2,192.2,71.8,192.2z"/>
		<path class="st4" d="M112.8,117.1c-3.4,1.7,1.7,3.4,3.4,5.1C114.5,120.5,116.2,115.3,112.8,117.1z"/>
		<path class="st4" d="M24,47c1.7,1.7,3.4,1.7,6.8,0v-1.7C27.4,43.6,25.7,47,24,47z"/>
		<path class="st4" d="M70.1,132.4c-3.4-1.7-6.8-3.4-10.2-6.8C58.2,129,68.4,134.1,70.1,132.4z"/>
		<path class="st4" d="M88.9,60.7c-1.7,3.4-3.4,3.4-5.1,3.4C85.5,69.2,90.6,65.8,88.9,60.7z"/>
		<path class="st4" d="M82.1,190.5c1.7-1.7-5.1-3.4-6.8-5.1C77,188.8,78.7,190.5,82.1,190.5z"/>
		<path class="st4" d="M66.7,175.1c3.4,3.4,3.4,3.4,6.8,0C71.8,175.1,68.4,175.1,66.7,175.1z"/>
		<path class="st4" d="M15.5,38.5l1.7,1.7l3.4,3.4C20.6,40.2,18.9,38.5,15.5,38.5z"/>
		<path class="st4" d="M83.8,64.1l1.7-1.7C83.8,57.3,75.3,67.5,83.8,64.1z"/>
		<path class="st4" d="M88.9,77.8c0-1.7-3.4,0-5.1,0C85.5,79.5,87.2,79.5,88.9,77.8z"/>
		<path class="st4" d="M75.3,43.6c0,1.7,1.7,1.7,3.4,1.7C78.7,45.3,78.7,41.9,75.3,43.6z"/>
		<path class="st4" d="M68.4,55.6c3.4,0,1.7,0,1.7-3.4C66.7,52.1,66.7,52.1,68.4,55.6z"/>
		<path class="st4" d="M12.1,258.9c3.4,3.4,1.7,1.7,5.1,1.7C15.5,258.9,13.8,258.9,12.1,258.9z"/>
		<path class="st4" d="M12.1,142.7c0,1.7,0,3.4,0,3.4C13.8,146.1,13.8,144.4,12.1,142.7z"/>
		<path class="st4" d="M54.8,29.9c-1.7-3.4-1.7-3.4-5.1-3.4C51.3,26.5,53,28.2,54.8,29.9z"/>
		<path class="st4" d="M90.6,86.3c1.7,0,1.7,1.7,5.1,0C92.3,84.6,92.3,84.6,90.6,86.3z"/>
		<path class="st4" d="M56.5,55.6c0,0,0,1.7-1.7,1.7c1.7,0,3.4,0,5.1-1.7C58.2,55.6,58.2,55.6,56.5,55.6z"/>
		<path class="st4" d="M88.9,142.7c0-1.7-1.7-3.4-3.4-5.1C85.5,141,87.2,142.7,88.9,142.7z"/>
		<path class="st4" d="M145.2,188.8c1.7,1.7,3.4,0,1.7-1.7C147,187.1,145.2,187.1,145.2,188.8z"/>
		<path class="st4" d="M18.9,139.3c1.7,1.7,1.7,1.7,3.4,0C20.6,135.9,18.9,137.6,18.9,139.3z"/>
		<path class="st4" d="M95.7,53.8c0,0-3.4-3.4-5.1,0C92.3,53.8,94,53.8,95.7,53.8z"/>
		<path class="st4" d="M8.7,55.6C7,57.3,8.7,59,12.1,59C12.1,57.3,12.1,55.6,8.7,55.6z"/>
		<path class="st4" d="M22.3,4.3l-1.7-1.7l-1.7,1.7C20.6,6,22.3,6,22.3,4.3z"/>
		<path class="st4" d="M5.3,159.8l-1.7-1.7c0,0,0,1.7-1.7,1.7C5.3,161.5,5.3,161.5,5.3,159.8z"/>
		<path class="st4" d="M119.6,217.9c1.7,0,0-1.7,0-3.4C121.3,212.7,117.9,217.9,119.6,217.9z"/>
		<path class="st4" d="M25.7,130.7c3.4,0,5.1,0,6.8,0C30.9,130.7,29.1,129,25.7,130.7z"/>
		<path class="st4" d="M30.9,69.2c-1.7,1.7-1.7,1.7,1.7,1.7C34.3,69.2,32.6,69.2,30.9,69.2z"/>
		<path class="st4" d="M20.6,142.7C18.9,142.7,18.9,142.7,20.6,142.7c-1.7-1.7-1.7-1.7-3.4,0C18.9,144.4,18.9,144.4,20.6,142.7z"/>
		<path class="st4" d="M123.1,187.1c0-1.7-1.7-1.7-3.4-1.7v1.7C121.3,187.1,121.3,187.1,123.1,187.1z"/>
		<path class="st4" d="M68.4,36.8c-1.7,0-1.7,0-3.4,0C66.7,38.5,68.4,38.5,68.4,36.8z"/>
		<path class="st4" d="M10.4,245.2c-1.7,1.7,0,1.7,1.7,3.4C13.8,246.9,13.8,246.9,10.4,245.2z"/>
		<path class="st4" d="M133.3,91.4c1.7,0,3.4,1.7,3.4,1.7S136.7,91.4,133.3,91.4z"/>
		<path class="st4" d="M128.2,139.3C129.9,141,128.2,142.7,128.2,139.3z"/>
		<path class="st4" d="M95.7,185.4c0-1.7-1.7-1.7-1.7,0C94,187.1,95.7,187.1,95.7,185.4z"/>
		<path class="st4" d="M92.3,81.2c0-1.7-1.7-1.7-3.4-1.7C90.6,81.2,90.6,81.2,92.3,81.2z"/>
		<path class="st4" d="M5.2,243.5c-1.7-1.7-1.7,0-1.7,0S6.9,245.2,5.2,243.5z"/>
		<path class="st4" d="M39.4,6c1.7,0,1.7-1.7,1.7-1.7C39.4,2.6,37.7,4.3,39.4,6z"/>
		<path class="st4" d="M170.9,199.1c1.7,0,1.7,1.7,3.4,1.7C174.3,199.1,174.3,197.4,170.9,199.1z"/>
		<path class="st4" d="M99.2,82.9c-1.7,0-1.7,1.7,0,1.7C100.9,82.9,100.9,82.9,99.2,82.9z"/>
		<path class="st4" d="M70.1,62.4c0,0-1.7-1.7-3.4-1.7C66.7,62.4,68.4,62.4,70.1,62.4z"/>
		<path class="st4" d="M66.7,86.3C65,86.3,65,88,65,88C65,86.3,65,88,66.7,86.3z"/>
		<path class="st4" d="M75.3,67.5c1.7,1.7,1.7,1.7,1.7,0S77,65.8,75.3,67.5z"/>
		<path class="st4" d="M124.8,214.4C124.8,216.1,123.1,216.1,124.8,214.4c0,1.7,0,1.7,0,1.7C126.5,216.1,126.5,216.1,124.8,214.4z"
			/>
		<path class="st4" d="M71.8,59C71.8,57.3,70.1,59,71.8,59C70.1,59,70.1,59,71.8,59z"/>
		<path class="st4" d="M100.9,141c1.7,0,1.7,0,0-1.7C100.9,139.3,100.9,139.3,100.9,141z"/>
		<path class="st4" d="M56.5,185.4l1.7,1.7C58.2,185.4,59.9,185.4,56.5,185.4z"/>
		<path class="st4" d="M39.4,158.1c0,0,0,1.7,1.7,1.7C41.1,159.8,41.1,158.1,39.4,158.1z"/>
		<path class="st4" d="M70.1,192.2l1.7,1.7C71.8,192.2,68.4,190.5,70.1,192.2z"/>
		<path class="st4" d="M97.4,77.8C99.2,79.5,99.2,79.5,97.4,77.8z"/>
		<path class="st4" d="M42.8,176.9c-1.7,0-1.7,1.7,0,1.7C44.5,178.6,44.5,176.9,42.8,176.9z"/>
		<path class="st4" d="M152.1,234.9C150.4,234.9,150.4,234.9,152.1,234.9C150.4,234.9,150.4,236.6,152.1,234.9z"/>
		<path class="st4" d="M8.7,31.6c-1.7,0,0,1.7,0,1.7C8.7,31.6,8.7,31.6,8.7,31.6z"/>
		<path class="st4" d="M70.1,62.4c1.7,0,1.7,1.7,3.4,0C71.8,60.7,71.8,62.4,70.1,62.4z"/>
		<path class="st4" d="M148.7,113.6C148.7,115.3,148.7,115.3,148.7,113.6C150.4,113.6,150.4,115.3,148.7,113.6z"/>
		<path class="st4" d="M41.1,264c0,1.7,0,1.7,1.7,1.7C44.5,265.7,42.8,265.7,41.1,264z"/>
		<path class="st4" d="M82.1,57.3C80.4,55.6,80.4,57.3,82.1,57.3z"/>
		<path class="st4" d="M82.1,286.2C80.4,287.9,80.4,287.9,82.1,286.2z"/>
		<path class="st4" d="M148.7,178.6C150.4,180.3,148.7,180.3,148.7,178.6C148.7,176.9,150.4,178.6,148.7,178.6z"/>
		<path class="st4" d="M63.3,89.7C63.3,88,61.6,89.7,63.3,89.7z"/>
		<path class="st4" d="M59.9,163.2C59.9,161.5,58.2,161.5,59.9,163.2z"/>
		<path class="st4" d="M53,190.5C54.8,188.8,54.8,190.5,53,190.5z"/>
		<path class="st4" d="M29.2,255.4C30.9,253.7,29.2,253.7,29.2,255.4z"/>
		<path class="st4" d="M71.8,41.9c-1.7-1.7-1.7-1.7-1.7-1.7C71.8,41.9,71.8,41.9,71.8,41.9z"/>
		<path class="st4" d="M83.8,100c0-1.7,0-3.4,0-1.7C82.1,98.3,82.1,100,83.8,100z"/>
		<path class="st4" d="M133.3,130.7c-1.7,0-1.7-1.7-3.4,0C131.6,130.7,131.6,132.4,133.3,130.7z"/>
		<path class="st4" d="M150.4,76.1c-1.7-1.7-1.7-1.7-1.7-1.7C150.4,76.1,150.4,76.1,150.4,76.1z"/>
		<path class="st4" d="M153.8,77.8c-1.7-1.7-1.7-1.7-1.7-1.7C152.1,77.8,152.1,77.8,153.8,77.8z"/>
		<path class="st4" d="M129.9,130.7C131.6,129,131.6,129,129.9,130.7z"/>
		<path class="st4" d="M281.1,242.3c-3.4,6.8,15.3,1.7,18.7,0c-1.7,0-5.1,0-5.1-1.7c-3.4-1.7-3.4,1.7-6.8,1.7
			C286.2,242.3,282.8,240.6,281.1,242.3z"/>
		<path class="st4" d="M343.9,240.6c-1.7,5.1,15.3,0,17-1.7C359.2,237.2,345.6,237.2,343.9,240.6z"/>
		<path class="st4" d="M461.1,158.3c-6.8-1.7-15.3,0-22.1,1.7C444.1,161.8,456,161.8,461.1,158.3z"/>
		<path class="st4" d="M400,208.1c-3.4-1.7-8.5-3.4-11.9,0C393.2,208.1,396.6,208.1,400,208.1z"/>
		<path class="st4" d="M364.3,240.6c5.1,0,5.1-1.7,3.4-5.1C366,235.4,364.3,237.2,364.3,240.6z"/>
		<path class="st4" d="M393.2,237.2c3.4,1.7,1.7,1.7,5.1,0C398.3,233.7,394.9,235.4,393.2,237.2z"/>
		<path class="st4" d="M344.8,141.2c5.1,1.7,5.1,1.7,8.5,0C351.6,139.5,348.2,141.2,344.8,141.2z"/>
		<path class="st4" d="M289.6,213.2C284.5,218.4,284.5,214.9,289.6,213.2C291.3,213.2,291.3,213.2,289.6,213.2z"/>
		<path class="st4" d="M379.6,206.4c0,3.4,5.1,0,6.8,0C383,206.4,381.3,206.4,379.6,206.4z"/>
		<path class="st4" d="M451,209.8c-1.7,0-3.4-1.7-5.1-1.7c-1.7,0-3.4,1.7-5.1,1.7C444.2,211.5,447.6,211.5,451,209.8z"/>
		<path class="st4" d="M517.1,154.9c-1.7-1.7-5.1-1.7-6.8,0C510.3,156.6,517.1,154.9,517.1,154.9z"/>
		<path class="st4" d="M542.6,134.4c0,3.4,5.1,1.7,5.1-1.7C546,132.7,544.3,134.4,542.6,134.4z"/>
		<path class="st4" d="M300.6,156.6c-3.4,0-5.1,0-6.8,1.7C295.5,158.3,298.9,158.3,300.6,156.6z"/>
		<path class="st4" d="M345.6,209.8c1.7,0,3.4,0,5.1,0c0-1.7-3.4-1.7-5.1-1.7C345.6,209.8,345.6,209.8,345.6,209.8z"/>
		<path class="st4" d="M537.5,154.9c1.7,0,3.4-1.7,6.8-1.7C542.6,149.8,537.5,153.2,537.5,154.9z"/>
		<path class="st4" d="M280.2,146.4c0-1.7-3.4,0-5.1,0C275.1,149.8,276.8,148.1,280.2,146.4z"/>
		<path class="st4" d="M369.4,208.1c0-1.7-1.7-3.4-5.1-1.7C366,209.8,367.7,209.8,369.4,208.1z"/>
		<path class="st4" d="M429.7,144.7c0-1.7-1.7-3.4-3.4-1.7C424.6,146.4,426.3,146.4,429.7,144.7z"/>
		<path class="st4" d="M281.1,214.9c0-1.7-1.7-1.7-5.1,0C277.7,216.7,279.4,216.7,281.1,214.9z"/>
		<path class="st4" d="M427.2,209.8c0,3.4,5.1,1.7,5.1,0C430.6,209.8,428.9,209.8,427.2,209.8z"/>
		<path class="st4" d="M490,156.6c-1.7-1.7-3.4-1.7-3.4,1.7C486.6,158.3,488.3,156.6,490,156.6z"/>
		<path class="st4" d="M330.4,214.9c0-1.7,1.7-3.4,3.4-3.4C330.4,211.5,330.4,211.5,330.4,214.9z"/>
		<path class="st4" d="M319.3,141.2c1.7,0,6.8,1.7,8.5,1.7c0,0-1.7,0-1.7,1.7c5.1,1.7,11.9,0,17-1.7c-5.1,0-10.2,0-15.3,1.7
			C327.8,137.8,319.3,137.8,319.3,141.2z"/>
		<path class="st4" d="M317.6,144.7c1.7,0,3.4,0,3.4,0c0-1.7-1.7-1.7-1.7-3.4C319.3,142.9,319.3,142.9,317.6,144.7z"/>
		<path class="st4" d="M318.5,213.2c0-1.7-1.7-3.4-5.1,0C313.4,214.9,315.1,214.9,318.5,213.2z"/>
		<path class="st4" d="M473,158.3c-1.7-1.7-3.4,0-5.1,0C467.9,160,469.6,158.3,473,158.3z"/>
		<path class="st4" d="M366.9,149.8c0,1.7,1.7,1.7,3.4,0C370.2,148.1,370.2,148.1,366.9,149.8z"/>
		<path class="st4" d="M296.4,213.2c-1.7,1.7,3.4,1.7,3.4,1.7C298.1,213.2,296.4,211.5,296.4,213.2z"/>
		<path class="st4" d="M482.4,134.4C484,134.4,484,134.4,482.4,134.4C480.7,132.7,482.4,132.7,482.4,134.4z"/>
		<path class="st4" d="M290.4,148.1C292.1,146.4,292.1,146.4,290.4,148.1C290.4,144.7,292.1,144.7,290.4,148.1z"/>
		<path class="st4" d="M302.3,144.7l1.7,1.7C304,144.7,304,142.9,302.3,144.7z"/>
		<path class="st4" d="M308.3,213.2c1.7,0,1.7-1.7,0-1.7C306.6,211.5,306.6,213.2,308.3,213.2z"/>
		<path class="st4" d="M323.6,211.5c1.7,0,1.7,0,3.4-1.7C327,209.8,325.3,209.8,323.6,211.5z"/>
		<path class="st4" d="M501.9,156.6c0-1.7-1.7-1.7-3.4,0H501.9z"/>
		<path class="st4" d="M428.9,204.7C428.9,206.4,430.6,204.7,428.9,204.7C428.9,203,430.6,203,428.9,204.7z"/>
		<path class="st4" d="M331.2,151.5c0-1.7-1.7-1.7-1.7,0C329.5,153.2,329.5,153.2,331.2,151.5z"/>
		<path class="st4" d="M532.4,154.9C530.7,153.2,532.4,153.2,532.4,154.9z"/>
		<path class="st4" d="M280.2,177.1c1.7,0,1.7,0,1.7,0C281.9,175.4,281.9,175.4,280.2,177.1z"/>
		<path class="st4" d="M321.9,201.3C321.9,199.6,321.9,199.6,321.9,201.3C320.2,199.6,320.2,199.6,321.9,201.3z"/>
		<path class="st4" d="M338.8,211.5c1.7,0,1.7,0,3.4,0C340.5,208.1,338.8,209.8,338.8,211.5z"/>
		<path class="st4" d="M437.4,211.5C435.7,209.8,435.7,209.8,437.4,211.5z"/>
		<path class="st4" d="M479.8,158.3c1.7,0,1.7,0,1.7,0C479.8,156.6,479.8,156.6,479.8,158.3z"/>
		<path class="st4" d="M333.8,245.7V244C332.1,244,333.8,244,333.8,245.7z"/>
		<path class="st4" d="M493.4,156.6C493.4,154.9,495.1,154.9,493.4,156.6z"/>
		<path class="st4" d="M360.9,209.8l-1.7,1.7C360.9,211.5,360.9,211.5,360.9,209.8z"/>
		<path class="st4" d="M23.8,181c-3.4-4.5-3.4-4.5-5.1,0C20.4,189.9,22.1,189.9,23.8,181z"/>
		<path class="st4" d="M203.8,176.6c-1.7,0-3.4,0-5.1,4.5C200.4,181,200.4,181,203.8,176.6z"/>
		<path class="st4" d="M205.5,243.4c0-8.9-3.4-4.5-5.1,0C202.1,243.4,203.8,243.4,205.5,243.4z"/>
		<path class="st4" d="M144.4,247.9c-1.7,0-1.7,0-3.4,0C141,252.4,142.7,252.4,144.4,247.9z"/>
		<path class="st4" d="M17,145.4c-1.7,0-1.7-4.5-5.1,0C15.3,149.8,15.3,149.8,17,145.4z"/>
		<path class="st4" d="M142.7,189.9c0-4.5-3.4,0-5.1,0C135.9,189.9,141,189.9,142.7,189.9z"/>
		<path class="st4" d="M124,145.4C122.3,140.9,124,140.9,124,145.4z"/>
		<path class="st4" d="M96.8,167.6c0,4.5,1.7,4.5,3.4,0C98.5,163.2,98.5,163.2,96.8,167.6z"/>
		<path class="st4" d="M105.3,256.8C103.6,256.8,103.6,252.4,105.3,256.8z"/>
		<path class="st4" d="M113.8,185.5C113.8,189.9,113.8,189.9,113.8,185.5C115.5,189.9,115.5,185.5,113.8,185.5z"/>
		<path class="st4" d="M124,185.5c-1.7,0-1.7,4.5,0,4.5C125.7,189.9,125.7,189.9,124,185.5z"/>
		<path class="st4" d="M86.6,198.9c1.7,0,1.7-4.5,0-4.5C86.6,194.4,86.6,194.4,86.6,198.9z"/>
		<path class="st4" d="M0,149.8c1.7,0,3.4,0,3.4,0C1.7,149.8,0,145.4,0,149.8z"/>
		<path class="st4" d="M105.3,194.4C107,194.4,107,189.9,105.3,194.4C103.6,194.4,103.6,194.4,105.3,194.4z"/>
		<path class="st4" d="M37.4,203.3C39.1,203.3,39.1,203.3,37.4,203.3C37.4,198.9,37.4,198.9,37.4,203.3z"/>
		<path class="st4" d="M149.5,189.9C149.5,185.5,149.5,181,149.5,189.9C147.8,185.5,147.8,185.5,149.5,189.9z"/>
		<path class="st4" d="M166.5,247.9C164.8,247.9,164.8,243.4,166.5,247.9z"/>
		<path class="st4" d="M234.4,230.1C234.4,225.6,236.1,225.6,234.4,230.1z"/>
		<path class="st4" d="M197.6,611.1c-5.1-1.7-12-3.4-15.4,0c3.4,3.4,12,5.1,17.1,6.8C197.6,614.5,192.5,614.5,197.6,611.1z"/>
		<path class="st4" d="M317.2,376.7c0,1.7,12,5.1,13.7,3.4C334.2,376.7,318.9,376.7,317.2,376.7z"/>
		<path class="st4" d="M47.4,412.4c-5.1-3.4-10.2-10.2-15.4-8.5C35.4,405.6,42.3,414.1,47.4,412.4z"/>
		<path class="st4" d="M59.3,369.9c3.4,0,6.8,0,12,0c0,0,0,0,1.7-1.7C67.9,366.5,64.4,366.5,59.3,369.9z"/>
		<path class="st4" d="M137.9,420.9c1.7,5.1,10.2,0,12-1.7C151.5,417.5,137.9,417.5,137.9,420.9z"/>
		<path class="st4" d="M37.1,437.8c1.7,1.7,5.1,1.7,6.8,0c-1.7-5.1-6.8-1.7-10.2,1.7C35.4,439.5,37.1,439.5,37.1,437.8z"/>
		<path class="st4" d="M178.9,609.4c-3.4,0-5.1,0-8.5,0c1.7,1.7,3.4,3.4,5.1,5.1C177.1,614.5,178.9,612.8,178.9,609.4z"/>
		<path class="st4" d="M49.1,361.4c5.1,0,8.5,0,12,1.7C57.6,358,54.2,356.3,49.1,361.4z"/>
		<path class="st4" d="M231.8,612.8c-3.4-1.7-10.2-5.1-12,0C225,612.8,228.4,616.2,231.8,612.8z"/>
		<path class="st4" d="M117.4,633.2c-3.4-3.4-8.5-5.1-12-8.5c0,0,0,1.7-1.7,1.7C105.4,628.1,115.7,634.8,117.4,633.2z"/>
		<path class="st4" d="M14.9,628.1c1.7,3.4,5.1,3.4,8.5,3.4c-3.4-1.7-5.1-5.1-10.2-5.1L14.9,628.1z"/>
		<path class="st4" d="M252.3,410.7c5.1,3.4,8.5,1.7,12,0C259.1,410.7,255.7,409,252.3,410.7z"/>
		<path class="st4" d="M470.8,620.2c5.1,0,8.5,1.7,13.7,0C479.4,618.5,474.2,618.5,470.8,620.2z"/>
		<path class="st4" d="M73,629.8c3.4-1.7-1.7-3.4-3.4-5.1C71.3,626.4,69.6,631.5,73,629.8z"/>
		<path class="st4" d="M81.5,368.2c0,0,1.7,0,1.7,1.7l1.7,1.7c1.7-1.7,3.4-3.4,5.1-3.4C86.6,368.2,83.2,366.5,81.5,368.2z"/>
		<path class="st4" d="M115.7,614.5c3.4,1.7,6.8,3.4,10.2,6.8C127.6,617.9,117.4,612.8,115.7,614.5z"/>
		<path class="st4" d="M8.1,436.1c1.7,1.7,3.4,1.7,5.1,3.4C14.9,436.1,9.8,436.1,8.1,436.1z"/>
		<path class="st4" d="M119.1,572c-3.4-3.4-3.4-3.4-6.8,0C114,572,117.4,572,119.1,572z"/>
		<path class="st4" d="M49.1,415.8c1.7,1.7,5.1,1.7,6.8,1.7C54.2,415.8,52.5,414.1,49.1,415.8z"/>
		<path class="st4" d="M428.1,511.5c-1.7,0-5.1,0-6.8,0C424.7,511.5,426.4,513.2,428.1,511.5z"/>
		<path class="st4" d="M296.7,381.8C303.5,386.9,303.5,385.2,296.7,381.8z"/>
		<path class="st4" d="M137.9,587.3l1.7-3.4c1.7,1.7,5.1,0,8.5-1.7c-6.8-1.7-12-5.1-18.8-5.1c3.4,3.4,6.8,5.1,10.2,6.8
			c-1.7,0-5.1,0-6.8,0C134.5,587.3,134.5,587.3,137.9,587.3z"/>
		<path class="st4" d="M269.3,364.8c-1.7,1.7,3.4,3.4,5.1,3.4C276.2,366.5,272.8,366.5,269.3,364.8z"/>
		<path class="st4" d="M243.7,420.9c1.7,3.4,3.4,3.4,5.1,5.1C247.2,422.6,247.2,420.9,243.7,420.9z"/>
		<path class="st4" d="M23.5,631.5c1.7,1.7,3.4,3.4,5.1,1.7C26.9,631.5,25.2,631.5,23.5,631.5z"/>
		<path class="st4" d="M370.1,617.9c1.7,0,3.4-1.7,5.1-1.7C373.5,611.1,371.8,614.5,370.1,617.9z"/>
		<path class="st4" d="M3,439.5c-1.7,0-1.7,3.4-1.7,5.1C4.7,442.9,4.7,442.9,3,439.5z"/>
		<path class="st4" d="M173.7,604.3c0-1.7,0-3.4,0-3.4C172,600.9,172,602.6,173.7,604.3z"/>
		<path class="st4" d="M242,347.8c1.7,1.7,3.4,1.7,3.4,0C245.5,347.8,240.3,347.8,242,347.8z"/>
		<path class="st4" d="M252.3,629.8c0,1.7,1.7,3.4,3.4,3.4C257.4,631.5,254,629.8,252.3,629.8z"/>
		<path class="st4" d="M189.1,621.3c-3.4-1.7-3.4-1.7-5.1-1.7C185.7,621.3,185.7,621.3,189.1,621.3z"/>
		<path class="st4" d="M96.9,604.3c0,1.7,1.7,3.4,3.4,5.1C100.3,606,98.6,604.3,96.9,604.3z"/>
		<path class="st4" d="M40.6,558.4c-1.7-1.7-3.4,0-1.7,1.7C38.8,560.1,40.6,560.1,40.6,558.4z"/>
		<path class="st4" d="M166.9,607.7c-1.7-1.7-1.7-1.7-3.4,0C165.2,611.1,166.9,609.4,166.9,607.7z"/>
		<path class="st4" d="M180.6,587.3l1.7,1.7c0,0,0-1.7,1.7-1.7C180.6,585.6,180.6,585.6,180.6,587.3z"/>
		<path class="st4" d="M255.7,356.3c-1.7,1.7-1.7,1.7,1.7,3.4C259.1,358,259.1,356.3,255.7,356.3z"/>
		<path class="st4" d="M20.1,397.1c0-1.7-3.4-5.1-5.1-1.7C18.4,395.4,18.4,397.1,20.1,397.1z"/>
		<path class="st4" d="M76.4,373.3c1.7,1.7,3.4,1.7,5.1,1.7C78.1,373.3,78.1,373.3,76.4,373.3z"/>
		<path class="st4" d="M160.1,616.2c-3.4,0-5.1,0-6.8,0C154.9,616.2,156.6,617.9,160.1,616.2z"/>
		<path class="st4" d="M190.8,604.3c-1.7-1.7-1.7-1.7-5.1,0C187.4,604.3,189.1,604.3,190.8,604.3z"/>
		<path class="st4" d="M349.6,602.6c1.7,1.7,1.7,1.7,3.4,1.7C351.3,602.6,351.3,599.2,349.6,602.6z"/>
		<path class="st4" d="M13.2,636.5c-1.7-1.7-1.7-1.7-3.4,0C9.8,638.2,11.5,638.2,13.2,636.5z"/>
		<path class="st4" d="M289.8,558.4C289.8,560.1,289.8,560.1,289.8,558.4c0,1.7,1.7,1.7,1.7,1.7
			C293.2,560.1,293.2,560.1,289.8,558.4z"/>
		<path class="st4" d="M436.7,608.3c-1.7-1.7-3.4-1.7-3.4,0C435,608.3,435,608.3,436.7,608.3z"/>
		<path class="st4" d="M279.6,371.6c0,1.7,1.7,3.4,3.4,1.7C283,371.6,281.3,371.6,279.6,371.6z"/>
		<path class="st4" d="M259.1,636.5c1.7,0,3.4,1.7,5.1,1.7C264.2,636.5,260.8,636.5,259.1,636.5z"/>
		<path class="st4" d="M165.2,604.3C166.9,604.3,166.9,604.3,165.2,604.3c1.7,1.7,1.7,1.7,3.4,0
			C166.9,602.6,166.9,602.6,165.2,604.3z"/>
		<path class="st4" d="M431.6,630.4l-1.7,1.7C431.6,632,433.3,632,431.6,630.4z"/>
		<path class="st4" d="M213,619.6l1.7,1.7C216.4,619.6,214.7,617.9,213,619.6z"/>
		<path class="st4" d="M411.1,529.6c-1.7,0-1.7,0-3.4,0C407.7,531.3,411.1,529.6,411.1,529.6z"/>
		<path class="st4" d="M276.2,560.1C277.9,561.8,277.9,561.8,276.2,560.1c1.7,1.7,1.7,0,3.4,0C277.9,560.1,277.9,560.1,276.2,560.1z
			"/>
		<path class="st4" d="M214.7,602.6c-1.7,0-1.7,0-3.4-1.7C211.3,602.6,214.7,602.6,214.7,602.6z"/>
		<path class="st4" d="M187.4,597.5c1.7,1.7,1.7,1.7,1.7,0C189.1,595.8,187.4,595.8,187.4,597.5z"/>
		<path class="st4" d="M21.8,419.2c1.7,1.7,1.7,1.7,3.4,0C23.5,417.5,21.8,417.5,21.8,419.2z"/>
		<path class="st4" d="M57.6,607.7C55.9,606,57.6,604.3,57.6,607.7z"/>
		<path class="st4" d="M409.4,536.3c-1.7,1.7-1.7,1.7,0,1.7C411.1,538,411.1,536.3,409.4,536.3z"/>
		<path class="st4" d="M329.1,614.5c0,1.7,1.7,1.7,3.4,0C332.5,612.8,330.8,612.8,329.1,614.5z"/>
		<path class="st4" d="M327.4,398.8c-1.7-1.7-1.7-1.7-1.7,0C325.7,400.5,325.7,400.5,327.4,398.8z"/>
		<path class="st4" d="M91.8,375c-1.7-1.7-3.4-1.7-5.1-3.4C88.4,375,90.1,375,91.8,375z"/>
		<path class="st4" d="M295,570.3C296.7,570.3,296.7,570.3,295,570.3c0-1.7,0-1.7-1.7,0H295z"/>
		<path class="st4" d="M293.3,502.4C291.5,502.4,291.5,502.4,293.3,502.4C291.5,504.1,291.5,504.1,293.3,502.4z"/>
		<path class="st4" d="M274.5,376.7c-1.7,1.7-1.7,1.7,0,1.7C274.5,376.7,274.5,376.7,274.5,376.7z"/>
		<path class="st4" d="M124.2,402.2c0,0,0-1.7-1.7-1.7C122.5,402.2,122.5,402.2,124.2,402.2z"/>
		<path class="st4" d="M457.2,618.5C457.2,620.2,457.2,620.2,457.2,618.5C458.9,620.2,458.9,620.2,457.2,618.5z"/>
		<path class="st4" d="M14.9,548.2c-1.7,0-1.7-1.7-3.4-1.7C11.5,548.2,11.5,549.9,14.9,548.2z"/>
		<path class="st4" d="M23.5,432.7c0,1.7,1.7,3.4,1.7,3.4C25.2,434.4,25.2,434.4,23.5,432.7z"/>
		<path class="st4" d="M264.2,378.4c-1.7,0-1.7,0-1.7,0v1.7C264.2,378.4,264.2,378.4,264.2,378.4z"/>
		<path class="st4" d="M23.5,368.2C21.8,369.9,21.8,369.9,23.5,368.2C25.2,369.9,25.2,369.9,23.5,368.2z"/>
		<path class="st4" d="M64.5,434.4c0,1.7,0,1.7,0,1.7C66.2,436.1,66.2,434.4,64.5,434.4z"/>
		<path class="st4" d="M190.8,442.9c0,1.7,0,1.7,1.7,1.7C190.8,442.9,190.8,442.9,190.8,442.9z"/>
		<path class="st4" d="M153.2,412.4c-1.7,0-1.7,1.7,0,3.4C154.9,414.1,154.9,414.1,153.2,412.4z"/>
		<path class="st4" d="M32,442.9l-1.7,0C30.3,442.9,30.3,444.6,32,442.9z"/>
		<path class="st4" d="M455.5,589.6c0-1.7,0-1.7-3.4,0C452,589.6,453.8,589.6,455.5,589.6z"/>
		<path class="st4" d="M76.4,431.1C78.1,432.7,78.1,432.7,76.4,431.1C78.1,429.4,78.1,429.4,76.4,431.1z"/>
		<path class="st4" d="M301.8,298.6c0-1.7-1.7-1.7-1.7,0H301.8z"/>
		<path class="st4" d="M228.4,636.5l-1.7-1.7C226.7,634.8,228.4,638.2,228.4,636.5z"/>
		<path class="st4" d="M84.9,606c-1.7,0-1.7,0,0,1.7C84.9,607.7,84.9,607.7,84.9,606z"/>
		<path class="st4" d="M479.4,509.8C481.1,511.5,481.1,511.5,479.4,509.8z"/>
		<path class="st4" d="M38.8,347.8c-1.7,0-1.7,1.7,0,1.7C38.8,349.5,38.8,349.5,38.8,347.8z"/>
		<path class="st4" d="M146.4,589c0,0,0-1.7-1.7-1.7C144.7,587.3,144.7,589,146.4,589z"/>
		<path class="st4" d="M365,339.3C366.7,339.3,365,337.6,365,339.3z"/>
		<path class="st4" d="M173.7,400.5C172,402.2,173.7,402.2,173.7,400.5z"/>
		<path class="st4" d="M143,570.3c1.7,0,1.7-1.7,0-1.7C141.3,568.6,141.3,570.3,143,570.3z"/>
		<path class="st4" d="M33.7,512.6C35.4,512.6,35.4,512.6,33.7,512.6C35.4,512.6,35.4,510.9,33.7,512.6z"/>
		<path class="st4" d="M216.4,628.1c-1.7,1.7,0,1.7,1.7,1.7C218.1,629.8,218.1,629.8,216.4,628.1z"/>
		<path class="st4" d="M281.3,616.2C283,614.5,283,614.5,281.3,616.2C281.3,614.5,281.3,614.5,281.3,616.2z"/>
		<path class="st4" d="M131,405.6l1.7,1.7C134.5,407.3,132.8,403.9,131,405.6z"/>
		<path class="st4" d="M37.1,633.2C37.1,631.5,37.1,631.5,37.1,633.2C35.4,633.2,35.4,631.5,37.1,633.2z"/>
		<path class="st4" d="M354.7,604.3c0-1.7-1.7-1.7-1.7,0C354.7,604.3,353,604.3,354.7,604.3z"/>
		<path class="st4" d="M219.8,580.5c-1.7,0,0-1.7-3.4-1.7C218.1,580.5,219.8,580.5,219.8,580.5z"/>
		<path class="st4" d="M493,582.8C491.3,582.8,491.3,582.8,493,582.8C493,584.5,493,584.5,493,582.8z"/>
		<path class="st4" d="M491.3,608.3c-1.7,0-1.7,0-1.7,1.7C491.3,608.3,491.3,608.3,491.3,608.3z"/>
		<path class="st4" d="M474.2,606.6C472.5,608.3,472.5,608.3,474.2,606.6C474.2,608.3,474.2,608.3,474.2,606.6z"/>
		<path class="st4" d="M37.1,568.6C35.4,566.9,37.1,566.9,37.1,568.6C37.1,570.3,35.4,568.6,37.1,568.6z"/>
		<path class="st4" d="M286.4,566.9c1.7,0,1.7,1.7,1.7,0H286.4z"/>
		<path class="st4" d="M281.3,364.8v1.7C283,366.5,283,364.8,281.3,364.8z"/>
		<path class="st4" d="M117.4,431c0-1.7,0-1.7-1.7-1.7C115.7,431,115.7,431,117.4,431z"/>
		<path class="st4" d="M267.6,556.7C269.4,556.7,269.4,555,267.6,556.7C267.6,555,267.6,555,267.6,556.7z"/>
		<path class="st4" d="M125.9,583.9C125.9,585.6,127.6,585.6,125.9,583.9z"/>
		<path class="st4" d="M387.2,561.8C387.2,563.5,388.9,561.8,387.2,561.8z"/>
		<path class="st4" d="M295,563.5C293.3,565.2,295,565.2,295,563.5C295,565.2,295,565.2,295,563.5C295,565.2,296.7,565.2,295,563.5
			C295,565.2,295,565.2,295,563.5C296.7,563.5,296.7,563.5,295,563.5z"/>
		<path class="st4" d="M52.5,616.2c1.7,0,1.7,1.7,3.4,0C54.2,616.2,54.2,614.5,52.5,616.2z"/>
		<path class="st4" d="M30.3,344.4c-1.7-1.7-1.7-1.7-1.7-1.7C28.6,344.4,30.3,344.4,30.3,344.4z"/>
		<path class="st4" d="M55.9,616.2C54.2,617.9,54.2,617.9,55.9,616.2z"/>
		<path class="st4" d="M621.1,613.5c-6.8-5.1-13.7-10.2-22.2-13.7c1.7-1.7,1.7-1.7-1.7-1.7c-3.4,8.5,35.9,27.3,42.7,30.8
			C641.6,623.7,624.5,616.9,621.1,613.5z"/>
		<path class="st4" d="M503.3,562.2c12,6.8,25.6,13.7,37.6,22.2C542.6,582.7,508.4,558.8,503.3,562.2z"/>
		<path class="st4" d="M458.9,533.2c5.1,6.8,15.4,10.3,22.2,13.7c5.1,3.4,13.7,12,20.5,12C487.9,550.3,474.3,540,458.9,533.2z"/>
		<path class="st4" d="M621.1,493.9c0-3.4-1.7-3.4-3.4-6.8c-8.5-3.4-12-10.3-18.8-1.7C605.7,488.8,616,485.4,621.1,493.9z"/>
		<path class="st4" d="M540.8,435.8c0,6.8,6.8,5.1,12,6.8C552.8,439.2,544.3,437.5,540.8,435.8z"/>
		<path class="st4" d="M633.1,502.4c-3.4,0-5.1,0-8.5,0c1.7,1.7,3.4,3.4,5.1,5.1C631.3,507.6,633.1,505.9,633.1,502.4z"/>
		<path class="st4" d="M575,360.6c3.4,5.1,10.2,6.8,15.4,8.5C587,365.8,580.1,362.4,575,360.6z"/>
		<path class="st4" d="M469.1,521.2c1.7,3.4,5.1,3.4,8.5,3.4c-3.4-1.7-5.1-5.1-10.2-5.1L469.1,521.2z"/>
		<path class="st4" d="M568.2,447.8c-1.7-1.7-6.8-5.1-10.2-5.1C561.3,447.8,564.8,447.8,568.2,447.8z"/>
		<path class="st4" d="M527.2,522.9c3.4-1.7-1.7-3.4-3.4-5.1C525.5,519.5,523.8,524.6,527.2,522.9z"/>
		<path class="st4" d="M616,593c-1.7-1.7-3.4-1.7-6.8,0v1.7C612.6,596.4,614.3,593,616,593z"/>
		<path class="st4" d="M551.1,579.3c1.7-3.4,3.4-3.4,5.1-3.4C554.5,570.8,549.4,574.2,551.1,579.3z"/>
		<path class="st4" d="M462.3,328.2c1.7,1.7,3.4,1.7,5.1,3.4C469.1,328.2,464,328.2,462.3,328.2z"/>
		<path class="st4" d="M557.9,449.5c-1.7,1.7,5.1,3.4,6.8,5.1C563,451.2,561.3,449.5,557.9,449.5z"/>
		<path class="st4" d="M573.3,464.9c-3.4-3.4-3.4-3.4-6.8,0C568.2,464.9,571.6,464.9,573.3,464.9z"/>
		<path class="st4" d="M624.5,601.5l-1.7-1.7l-3.4-3.4C619.4,599.8,621.1,601.5,624.5,601.5z"/>
		<path class="st4" d="M556.2,575.9l-1.7,1.7C556.2,582.7,564.7,572.5,556.2,575.9z"/>
		<path class="st4" d="M633.1,249.6c-3.4-1.7-5.1-1.7-6.8,0C629.6,251.3,631.3,251.3,633.1,249.6z"/>
		<path class="st4" d="M477.7,524.6c1.7,1.7,3.4,3.4,5.1,1.7C481.1,524.6,479.4,524.6,477.7,524.6z"/>
		<path class="st4" d="M551.1,562.2c0,1.7,3.4,0,5.1,0C554.5,560.5,552.8,560.5,551.1,562.2z"/>
		<path class="st4" d="M457.2,331.6c-1.7,0-1.7,3.4-1.7,5.1C458.9,335,458.9,335,457.2,331.6z"/>
		<path class="st4" d="M564.7,596.4c0-1.7-1.7-1.7-3.4-1.7C561.3,594.7,561.3,598.1,564.7,596.4z"/>
		<path class="st4" d="M571.6,584.4c-3.4,0-1.7,0-1.7,3.4C573.3,587.9,573.3,587.9,571.6,584.4z"/>
		<path class="st4" d="M627.9,381.1c-3.4-3.4-1.7-1.7-5.1-1.7C624.5,381.1,626.2,381.1,627.9,381.1z"/>
		<path class="st4" d="M627.9,497.3c0-1.7,0-3.4,0-3.4C626.2,493.9,626.2,495.6,627.9,497.3z"/>
		<path class="st4" d="M585.2,610.1c1.7,3.4,1.7,3.4,5.1,3.4C588.7,613.5,587,611.8,585.2,610.1z"/>
		<path class="st4" d="M583.5,584.4c0,0,0-1.7,1.7-1.7c-1.7,0-3.4,0-5.1,1.7C581.8,584.4,581.8,584.4,583.5,584.4z"/>
		<path class="st4" d="M551.1,497.3c0,1.7,1.7,3.4,3.4,5.1C554.5,499,552.8,497.3,551.1,497.3z"/>
		<path class="st4" d="M494.8,451.2c-1.7-1.7-3.4,0-1.7,1.7C493,452.9,494.8,452.9,494.8,451.2z"/>
		<path class="st4" d="M621.1,500.7c-1.7-1.7-1.7-1.7-3.4,0C619.4,504.1,621.1,502.4,621.1,500.7z"/>
		<path class="st4" d="M544.3,586.2c0,0,3.4,3.4,5.1,0C547.7,586.2,546,586.2,544.3,586.2z"/>
		<path class="st4" d="M631.3,584.4c1.7-1.7,0-3.4-3.4-3.4C627.9,582.7,627.9,584.4,631.3,584.4z"/>
		<path class="st4" d="M617.7,635.7l1.7,1.7l1.7-1.7C619.4,634,617.7,634,617.7,635.7z"/>
		<path class="st4" d="M631.3,268.4c1.7,0,3.4,0,5.1-1.7C634.8,266.7,633.1,265,631.3,268.4z"/>
		<path class="st4" d="M634.7,480.2l1.7,1.7c0,0,0-1.7,1.7-1.7C634.7,478.5,634.7,478.5,634.7,480.2z"/>
		<path class="st4" d="M474.3,288.9c0-1.7-3.4-5.1-5.1-1.7C472.5,287.2,472.5,288.9,474.3,288.9z"/>
		<path class="st4" d="M520.4,422.1c-1.7,0,0,1.7,0,3.4C518.7,427.3,522.1,422.1,520.4,422.1z"/>
		<path class="st4" d="M614.3,509.3c-3.4,0-5.1,0-6.8,0C609.1,509.3,610.9,511,614.3,509.3z"/>
		<path class="st4" d="M467.4,529.8c-1.7-1.7-1.7-1.7-3.4,0C464,531.5,465.7,531.5,467.4,529.8z"/>
		<path class="st4" d="M619.4,497.3C621.1,497.3,621.1,497.3,619.4,497.3c1.7,1.7,1.7,1.7,3.4,0
			C621.1,495.6,621.1,495.6,619.4,497.3z"/>
		<path class="st4" d="M610.8,266.7c1.7,0,3.4,0,5.1,0C614.3,266.7,610.8,265,610.8,266.7z"/>
		<path class="st4" d="M476,311.1c1.7,1.7,1.7,1.7,3.4,0C477.7,309.4,476,309.4,476,311.1z"/>
		<path class="st4" d="M516.9,452.9c0,1.7,1.7,1.7,3.4,1.7v-1.7C518.7,452.9,518.7,452.9,516.9,452.9z"/>
		<path class="st4" d="M571.6,603.2c1.7,0,1.7,0,3.4,0C573.3,601.5,571.6,601.5,571.6,603.2z"/>
		<path class="st4" d="M629.6,394.8c1.7-1.7,0-1.7-1.7-3.4C626.2,393.1,626.2,393.1,629.6,394.8z"/>
		<path class="st4" d="M506.7,548.6c-1.7,0-3.4-1.7-3.4-1.7S503.3,548.6,506.7,548.6z"/>
		<path class="st4" d="M511.8,500.7C510.1,499,511.8,497.3,511.8,500.7z"/>
		<path class="st4" d="M544.3,454.6c0,1.7,1.7,1.7,1.7,0C546,452.9,544.3,452.9,544.3,454.6z"/>
		<path class="st4" d="M547.7,558.8c0,1.7,1.7,1.7,3.4,1.7C549.4,558.8,549.4,558.8,547.7,558.8z"/>
		<path class="st4" d="M634.8,396.5c1.7,1.7,1.7,0,1.7,0S633.1,394.8,634.8,396.5z"/>
		<path class="st4" d="M600.6,634c-1.7,0-1.7,1.7-1.7,1.7C600.6,637.4,602.3,635.7,600.6,634z"/>
		<path class="st4" d="M609.1,278.6c0,1.7,0,1.7,0,1.7C610.8,278.6,610.8,278.6,609.1,278.6z"/>
		<path class="st4" d="M469.1,440.9c-1.7,0-1.7-1.7-3.4-1.7C465.7,440.9,465.7,442.6,469.1,440.9z"/>
		<path class="st4" d="M477.7,324.8c0,1.7,1.7,3.4,1.7,3.4C479.4,326.5,479.4,326.5,477.7,324.8z"/>
		<path class="st4" d="M540.8,557.1c1.7,0,1.7-1.7,0-1.7C539.1,557.1,539.1,557.1,540.8,557.1z"/>
		<path class="st4" d="M477.7,259.8C476,261.6,476,261.6,477.7,259.8C479.4,261.6,479.4,261.6,477.7,259.8z"/>
		<path class="st4" d="M569.9,577.6c0,0,1.7,1.7,3.4,1.7C573.3,577.6,571.6,577.6,569.9,577.6z"/>
		<path class="st4" d="M564.7,572.5c-1.7-1.7-1.7-1.7-1.7,0C563,574.2,563,574.2,564.7,572.5z"/>
		<path class="st4" d="M607.4,304.3c-1.7,0-1.7,1.7,0,3.4C609.1,306,609.1,306,607.4,304.3z"/>
		<path class="st4" d="M515.2,425.6C515.2,423.9,516.9,423.9,515.2,425.6c0-1.7,0-1.7,0-1.7C513.5,423.9,513.5,423.9,515.2,425.6z"
			/>
		<path class="st4" d="M568.2,581C568.2,582.7,569.9,581,568.2,581C569.9,581,569.9,581,568.2,581z"/>
		<path class="st4" d="M622.8,265c-1.7,0-1.7,0-1.7,0C621.1,266.7,621.1,266.7,622.8,265z"/>
		<path class="st4" d="M539.1,499c-1.7,0-1.7,0,0,1.7C539.1,500.7,539.1,500.7,539.1,499z"/>
		<path class="st4" d="M583.5,454.6l-1.7-1.7C581.8,454.6,580.1,454.6,583.5,454.6z"/>
		<path class="st4" d="M600.6,481.9c0,0,0-1.7-1.7-1.7C598.9,480.2,598.9,481.9,600.6,481.9z"/>
		<path class="st4" d="M627.9,292.3C626.2,294,627.9,294,627.9,292.3z"/>
		<path class="st4" d="M569.9,447.8l-1.7-1.7C568.2,447.8,571.6,449.5,569.9,447.8z"/>
		<path class="st4" d="M542.6,562.2C540.8,560.5,540.8,560.5,542.6,562.2z"/>
		<path class="st4" d="M597.2,463.1c1.7,0,1.7-1.7,0-1.7C595.5,461.4,595.5,463.1,597.2,463.1z"/>
		<path class="st4" d="M487.9,405.1C489.6,405.1,489.6,405.1,487.9,405.1C489.6,405.1,489.6,403.4,487.9,405.1z"/>
		<path class="st4" d="M631.3,608.4c1.7,0,0-1.7,0-1.7C631.3,608.4,631.3,608.4,631.3,608.4z"/>
		<path class="st4" d="M569.9,577.6c-1.7,0-1.7-1.7-3.4,0C568.2,579.3,568.2,577.6,569.9,577.6z"/>
		<path class="st4" d="M614.3,259.8C612.6,261.6,614.3,261.6,614.3,259.8z"/>
		<path class="st4" d="M491.3,526.4C491.3,524.6,491.3,524.6,491.3,526.4C489.6,526.4,489.6,524.6,491.3,526.4z"/>
		<path class="st4" d="M598.9,376c0-1.7,0-1.7-1.7-1.7C595.5,374.3,597.2,374.3,598.9,376z"/>
		<path class="st4" d="M597.2,251.3C598.9,251.3,598.9,251.3,597.2,251.3C598.9,251.3,598.9,249.6,597.2,251.3z"/>
		<path class="st4" d="M557.9,582.7C559.6,584.4,559.6,582.7,557.9,582.7z"/>
		<path class="st4" d="M557.9,353.8C559.6,352.1,559.6,352.1,557.9,353.8z"/>
		<path class="st4" d="M491.3,461.4C489.6,459.7,491.3,459.7,491.3,461.4C491.3,463.1,489.6,461.4,491.3,461.4z"/>
		<path class="st4" d="M580.1,476.8C580.1,478.5,581.8,478.5,580.1,476.8z"/>
		<path class="st4" d="M587,449.5C585.2,451.2,585.2,449.5,587,449.5z"/>
		<path class="st4" d="M610.8,384.6C609.1,386.3,610.8,386.3,610.8,384.6z"/>
		<path class="st4" d="M568.2,598.1c1.7,1.7,1.7,1.7,1.7,1.7C568.2,598.1,568.2,598.1,568.2,598.1z"/>
		<path class="st4" d="M506.7,509.3c1.7,0,1.7,1.7,3.4,0C508.4,509.3,508.4,507.6,506.7,509.3z"/>
		<path class="st4" d="M489.6,563.9c1.7,1.7,1.7,1.7,1.7,1.7C489.6,563.9,489.6,563.9,489.6,563.9z"/>
		<path class="st4" d="M486.2,562.2c1.7,1.7,1.7,1.7,1.7,1.7C487.9,562.2,487.9,562.2,486.2,562.2z"/>
		<path class="st4" d="M510.1,509.3C508.4,511,508.4,511,510.1,509.3z"/>
	</g>
</g>
</svg>
