<?xml version="1.0" encoding="utf-8"?>
<!-- Generator: Adobe Illustrator 25.0.0, SVG Export Plug-In . SVG Version: 6.00 Build 0)  -->
<svg version="1.1" id="Layer_1" xmlns="http://www.w3.org/2000/svg" xmlns:xlink="http://www.w3.org/1999/xlink" x="0px" y="0px"
	 viewBox="0 0 1920 129" style="enable-background:new 0 0 1920 129;" xml:space="preserve">
<style type="text/css">
	.st0{opacity:0.2;}
	.st1{fill:#D1B06F;}
</style>
<g class="st0">
	<path class="st1" d="M1543.8,22.5c0,7.5,0,18.7,7.5,22.4c11.2,7.5,0-29.9,0-33.7c-2.7-4.1-5-7.7-6.7-11.2h-10.1
		C1537.6,6.4,1540.7,13.1,1543.8,22.5z"/>
	<path class="st1" d="M1599.9,11.3c3.7,3.7,15,18.7,15,22.4c0,7.5-7.5,11.2,0,18.7c0-7.5,7.5-11.2,7.5-18.7c0-15-7.5-11.2-11.2-22.4
		c-1.1-3.2-1.5-7.1-1.7-11.2H1593C1595,3.9,1597.3,7.7,1599.9,11.3z"/>
	<path class="st1" d="M1573.7,22.5c7.5,3.7,7.5-3.7,7.5-11.2c0-4.6-2.8-7.7-5-11.2h-11C1569.1,7.2,1567.4,16.2,1573.7,22.5z"/>
	<path class="st1" d="M1495.2,3.8c0-3.7,0-3.7,3.7-3.7c0,3.7-3.7,3.7,0,7.5c2.5-2.5,3.3-5,3.6-7.5h-8.6
		C1494.3,1.6,1494.7,2.8,1495.2,3.8z"/>
	<path class="st1" d="M1547.6,0.1c3.7,7.5,11.2,15,11.2,22.4c3.7,15,7.5,33.7,15,48.6c-11.2,7.5,3.7,7.5,7.5,3.7
		c-3.6-24.9-20.7-49.9-19.1-74.8L1547.6,0.1C1547.5,0.1,1547.5,0.1,1547.6,0.1z"/>
	<path class="st1" d="M354.1,0.1c7.5,11.2,7.5,26.2,11.2,37.4c0,0,3.7-3.7,3.7-7.5c0,0,3.7,0,3.7,3.7c4.8,0,1.9-18.5-0.8-33.7
		L354.1,0.1C354.1,0.1,354.1,0.1,354.1,0.1z M369.1,26.3l-3.7-3.7C369.1,15,372.8,22.5,369.1,26.3z"/>
	<path class="st1" d="M234.4,3.8c2.5,0.6,4.1-0.8,4.9-3.7h-7.8C232.5,2.3,233.5,3.8,234.4,3.8z"/>
	<path class="st1" d="M286.8,11.3c3.7,15,7.5,26.2,18.7,37.4c-3.2-16.2-6.5-32.4-9.7-48.6h-10.1C286.4,5.3,286.8,9.5,286.8,11.3z"/>
	<path class="st1" d="M1215.3,16.7c1.8-0.3,3.6-0.7,5.6-1.4c-1.2,2.4-2.5,4.2-3.8,5.6c0.4,0.6,0.8,1.1,1.3,1.6
		c3.2-3.2,3.7-14.5,3.7-22.4h-7.8C1215,5.4,1214,11.6,1215.3,16.7z"/>
	<path class="st1" d="M1420.3,30c7.5-11.2-3.7-22.4,7.5-29.9c0,0,0,0,0,0h-15.9C1416.7,8.1,1417.2,20.4,1420.3,30z"/>
	<path class="st1" d="M1397.9,7.5c3.7,3.7,7.5,3.7,11.2,7.5c0-5.5,2-11,1.6-15h-6.2C1403.1,3.4,1401,6,1397.9,7.5z"/>
	<path class="st1" d="M215.7,33.7c-7.5,15-3.7,15,3.7,26.2c7.5-3.7,3.7-15,15-15c7.5,11.2,0,22.4,11.2,29.9
		C238.2,56.2,245.7,26.3,215.7,33.7z M227,37.5C223.2,41.2,223.2,37.5,227,37.5L227,37.5z"/>
	<path class="st1" d="M271.8,45c0-11.2,0-37.4-11.2-44.9c0,7.5,0,7.5,3.7,15c-9.5-2.4-8.4-9.3-9.3-15h-9.8
		C244.3,13.8,265.7,35.7,271.8,45z"/>
	<path class="st1" d="M1124.8,56.2c0.2-1.2,0.4-2.3,0.6-3.4h-2.5C1123.6,53.9,1124.2,55,1124.8,56.2z"/>
	<path class="st1" d="M1125.8,47.9c0.7-15.1-4.2-28.2-1-44.1c0,0-3.7,0-7.5-3.7c-3.7,7.5,3.7,18.7,0,26.2c-7.5-3.7-3.7-15-15-15
		c0,5.6,0,13.4,3.2,20c3.2,2.4,5.1,4.5,3.8,5.6c0.2,0.2,0.3,0.4,0.5,0.5c1.9,1.9,4.7,4.7,7.5,8c2.6-0.2,4.9-0.2,6.2-0.2
		C1124.3,46,1125.1,47,1125.8,47.9z M1119.9,34.1c0,0,0,0,3.7,0C1119.9,37.8,1119.9,37.8,1119.9,34.1z"/>
	<path class="st1" d="M339.2,86.1v3.7C339.2,89.9,342.9,86.1,339.2,86.1z"/>
	<path class="st1" d="M339.2,89.9c-3.7-15-7.5-26.2-7.5-29.9c3.7-7.5,7.5-11.2,0-18.7c-7.5,11.2-3.7,15-3.7,29.9
		c0,10.8-3.4,14.6,2.9,24.8c1.4,0.6,5.4,2.9,12.1,5.1C342.9,97.3,342.9,93.6,339.2,89.9z"/>
	<path class="st1" d="M331.7,97.3c-0.3-0.5-0.6-0.9-0.9-1.4C329.9,95.6,330.2,95.8,331.7,97.3z"/>
	<path class="st1" d="M1525.1,30c3.7-7.5,0-22.4-3.7-29.9c0,0,0,0,0,0h-9.8C1515.6,12.9,1523.1,28,1525.1,30z"/>
	<path class="st1" d="M178.3,22.5C178.3,22.5,178.3,22.5,178.3,22.5c0-0.2,0-0.4,0-0.6C178.3,22.1,178.3,22.3,178.3,22.5z"/>
	<path class="st1" d="M178.3,11.3c0,2.5,0,5,0,7.5c0.9,1.4,1.8,2.9,2.6,4.4c5.8,2.8,9.1,14.3,12.3,14.3c0-11.2-7.5-22.4-11.2-33.7
		c-0.4-1.3-0.8-2.5-1-3.7h-7.5C175.6,6,178.3,11.3,178.3,11.3z"/>
	<path class="st1" d="M642.2,59.9c-3.7,7.5,29.9,15,37.4,18.7C675.9,71.1,653.4,41.2,642.2,59.9z"/>
	<path class="st1" d="M1898.4,0.1h-6.9c-1.1,5.7-2.4,11.1-2.4,17.9c0,11.2,0,29.9,3.7,37.4C1895.4,47.4,1899.9,17.2,1898.4,0.1z"/>
	<path class="st1" d="M1843.1,18.8c1.2-5,2.9-11.6,4.1-18.7h-8.9C1839.2,6.6,1840.8,13.1,1843.1,18.8z"/>
	<path class="st1" d="M1682.2,48.7c-7.5,0,0,29.9,3.8,33.7C1693.5,74.9,1700.9,45,1682.2,48.7z"/>
	<path class="st1" d="M1442.8,7.5c3.2,0,7.7-3.3,11.2-7.5h-22.7C1435.6,5.1,1436.7,7.5,1442.8,7.5z"/>
	<path class="st1" d="M1757.1,33.7c-3.7,7.5-15,0,0,11.2c11.2,3.7,11.2-22.4,7.5-33.7C1760.8,18.8,1760.8,26.3,1757.1,33.7z"/>
	<path class="st1" d="M940,7.8c0.3,12.1,2.8,23.6,5.2,33.5c5.7-2.9,0.5-25.6-2.3-41.1c-0.5,3.1-1.1,6.2-1.8,9.3
		C940.7,8.9,940.3,8.3,940,7.8z"/>
	<path class="st1" d="M1495.2,7.5c0,0,0,0-3.7-3.7c0,3.7,0,11.2,0,15c-3.7-3.7-3.7-3.7-7.5-7.5c-3.7,3.7,3.7,22.4,7.5,26.2
		C1491.4,30,1498.9,18.8,1495.2,7.5z"/>
	<path class="st1" d="M1839.4,22.5c-3.4,6.8-6.8,13.7-4.5,23.4c0.4-0.5,0.8-0.9,0.8-0.9c0,3.7,0,3.7,0,3.7c0,0,0,0,0,0
		c0,3.7,3.7,7.5,3.7,11.2C1839.4,48.7,1846.8,26.3,1839.4,22.5z"/>
	<path class="st1" d="M66.1,41.2c3.7,0,3.7,0,7.5,3.7c0,3.7,0,3.7,0,7.5c0,0,3.7,7.5,7.5,0C88.5,37.5,73.5,30,66.1,41.2z"/>
	<path class="st1" d="M73.5,18.8c0-8.2-3.3-13-5.2-18.7h-4.1C66.6,7.8,70.4,15.6,73.5,18.8z"/>
	<path class="st1" d="M182,52.4c6.5-6.5,4.5-18.8-1.1-29.3c-0.8-0.4-1.7-0.6-2.6-0.6C178.4,32.5,178.7,42.5,182,52.4z"/>
	<path class="st1" d="M178.3,18.8c0,1,0,2.1,0,3.1C178.3,20.9,178.3,19.8,178.3,18.8C178.3,18.8,178.3,18.8,178.3,18.8z"/>
	<path class="st1" d="M178.3,21.9c0,0.2,0,0.4,0,0.6c0.9,0,1.8,0.2,2.6,0.6c-0.8-1.5-1.7-3-2.6-4.4
		C178.3,19.8,178.3,20.9,178.3,21.9z"/>
	<path class="st1" d="M350.4,18.8c7.5-11.2-3.7-22.4-3.7-7.5c3.7,0,3.7,3.7,0,3.7c0-7.5-3.7-7.5-7.5-11.2
		C335.4,3.8,342.9,30,350.4,18.8z"/>
	<path class="st1" d="M122.2,30c-11.2,7.5-11.2,15,0,22.4C125.9,45,118.5,37.5,122.2,30z"/>
	<path class="st1" d="M1742.1,48.7c3.7-3.7,3.7-26.2,3.7-29.9C1738.3,7.5,1742.1,45,1742.1,48.7z"/>
	<path class="st1" d="M1708.4,18.8c12.1,0,8.5-11,3.5-18.7h-6.3C1706.7,5.4,1708.4,11.2,1708.4,18.8z"/>
	<path class="st1" d="M54.8,15c0-5-1.7-10-3.9-15h-7.3C40.6,9.3,43.1,18,54.8,15z"/>
	<path class="st1" d="M1622.4,67.4c-3.8-3.7-7.5-11.2-7.5-15C1614.9,59.9,1611.2,89.9,1622.4,67.4z"/>
	<path class="st1" d="M586.1,11.3c1.1-4.3,1.5-8,1.4-11.2h-4.4C583.8,3.5,584.7,7.2,586.1,11.3z"/>
	<path class="st1" d="M1877,57.5c3.7,3.7,7.5,7.5,11.2,11.2c0-3.2,0-6.5,0-12.2c0,0,0-0.9,0-2.8C1880.8,50.1,1884.5,57.5,1877,57.5z
		"/>
	<path class="st1" d="M1379.2,22.5c7.5,3.7,3.7-15,3.7-18.7C1379.2,3.8,1375.4,18.8,1379.2,22.5z"/>
	<path class="st1" d="M1805.7,11.3c0-4.3,0-8.1-0.3-11.2h-3.9C1802.9,3.4,1804.3,7.1,1805.7,11.3z"/>
	<path class="st1" d="M578.6,45c0,3.7-3.7,3.7-3.7,7.5C578.6,63.7,589.8,52.4,578.6,45z"/>
	<path class="st1" d="M631,3.8c2.1-1,3-2.4,3.1-3.7h-9.9C625,3.4,626.8,5.9,631,3.8z"/>
	<path class="st1" d="M1611.2,101.1c0-11.2-3.7-18.7-7.5-26.2C1603.7,86.1,1607.4,93.6,1611.2,101.1z"/>
	<path class="st1" d="M1293.2,71.1c3.7,3.7,3.7,7.5,7.5,15c0-7.5,7.5-15,0-22.4C1300.6,67.4,1296.9,71.1,1293.2,71.1z"/>
	<path class="st1" d="M1693.5,93.6c3.7-3.7,3.7-7.5,7.5-15c-3.7,0-7.5,0-11.2,3.7C1689.7,86.1,1693.5,89.9,1693.5,93.6z"/>
	<path class="st1" d="M713.3,45c0-7.5,0-18.7-3.7-26.2C709.5,26.3,709.5,37.5,713.3,45z"/>
	<path class="st1" d="M1233.3,15c3.7,3.7,7.5,7.5,7.5,11.2c0-7.5,0-15-3.7-22.4C1237,7.5,1237,11.3,1233.3,15z"/>
	<path class="st1" d="M1809.7,80c0-3.7-3.7-7.5-3.7-15C1798.5,72.5,1806,76.3,1809.7,80z"/>
	<path class="st1" d="M1787,82.4c3.7,0,7.5-3.7,11.2-3.7c-3.7,0-7.5,0-15-3.7C1783.2,78.6,1783.2,82.4,1787,82.4z"/>
	<path class="st1" d="M675.9,26.3c0,15,0,15,11.2,11.2C683.4,33.7,683.4,33.7,675.9,26.3z"/>
	<path class="st1" d="M1259.5,15c0-7.5,3.7-11.2,0-15C1252,3.8,1255.8,11.3,1259.5,15z"/>
	<path class="st1" d="M533.7,45c3.7-7.5,0-11.2-3.7-18.7C526.2,33.7,530,37.5,533.7,45z"/>
	<path class="st1" d="M1435.3,33.7c3.7-3.7,3.7-11.2,3.7-15C1431.6,22.5,1431.6,26.3,1435.3,33.7z"/>
	<path class="st1" d="M1506.4,26.3c-7.5,0,0,18.7,3.7,15C1510.1,37.5,1506.4,33.7,1506.4,26.3z"/>
	<path class="st1" d="M148.4,37.5c0-7.5-3.7-11.2-7.5-15C137.2,30,140.9,33.7,148.4,37.5z"/>
	<path class="st1" d="M1596.2,26.3c0,7.5,3.7,11.2,11.2,18.7C1603.7,37.5,1599.9,33.7,1596.2,26.3z"/>
	<path class="st1" d="M1704.7,30c3.7-3.7,3.7-7.5,3.7-11.2C1700.9,22.5,1700.9,22.5,1704.7,30z"/>
	<path class="st1" d="M185.8,78.6c3.7,0,0-11.2,0-15C178.3,63.7,182,74.9,185.8,78.6z"/>
	<path class="st1" d="M1139.8,45c0-3.7,0-11.2,3.7-15C1132.3,37.5,1132.3,37.5,1139.8,45z"/>
	<path class="st1" d="M268.1,59.9c0,3.7,0,7.5,3.7,11.2C275.6,67.4,268.1,59.9,268.1,59.9z"/>
	<path class="st1" d="M1510.1,78.6c0-3.7,3.7-7.5,3.7-11.2C1510.1,71.1,1510.1,71.1,1510.1,78.6z"/>
	<path class="st1" d="M69.8,22.5v3.7c0,0,3.7,0,7.5,0C77.3,18.8,77.3,22.5,69.8,22.5z"/>
	<path class="st1" d="M1918.2,57.5c-3.7,0-3.7,3.7-3.7,7.5C1918.2,65,1921.9,65,1918.2,57.5z"/>
	<path class="st1" d="M537.4,71.1c3.7-7.5,3.7-7.5-3.7-15C533.7,63.7,537.4,67.4,537.4,71.1z"/>
	<path class="st1" d="M1599.9,93.6c0-3.7,0-11.2-3.7-15C1592.4,78.6,1599.9,93.6,1599.9,93.6z"/>
	<path class="st1" d="M384.1,7.5h3.7c0-1.9,0-4.7,0-7.5h-3.3C384.1,3.8,384.1,7.5,384.1,7.5z"/>
	<path class="st1" d="M1772,7.5c0-4.2,0-6-1.3-7.5h-3.4C1768.7,2.6,1769.5,5.1,1772,7.5z"/>
	<path class="st1" d="M485.1,71.1c3.7,0,3.7,0,7.5,0c0-3.7,0-7.5,0-11.2h-3.7C488.8,63.7,488.8,67.4,485.1,71.1z"/>
	<path class="st1" d="M43.6,26.3c0,3.7,0,7.5,0,11.2C47.4,30,47.4,30,43.6,26.3z"/>
	<path class="st1" d="M1536.3,33.7c0-7.5,0-11.2-3.8-15C1528.8,22.5,1532.6,26.3,1536.3,33.7z"/>
	<path class="st1" d="M1742.1,7.5l3.7-3.7l-3.7-3.7C1742.1,3.8,1742.1,0.1,1742.1,7.5z"/>
	<path class="st1" d="M140.9,3.8c0-1.2-0.4-2.5-1-3.7h-6.3C134.7,2.2,137.4,3.8,140.9,3.8z"/>
	<path class="st1" d="M301.8,82.4c0,3.7,0,3.7,3.7,7.5c3.7-3.7,3.7-7.5,0-11.2L301.8,82.4z"/>
	<path class="st1" d="M548.7,22.5c0,3.7,3.7-7.5,0-11.2C548.7,15,548.7,15,548.7,22.5z"/>
	<path class="st1" d="M1704.7,45c-7.5,0-7.5,3.7,0,7.5C1708.4,48.7,1708.4,45,1704.7,45z"/>
	<path class="st1" d="M350.4,56.2c3.7-3.7,3.7-3.7,0-11.2C346.6,48.7,346.6,48.7,350.4,56.2z"/>
	<path class="st1" d="M511.3,7.5c0-2.5,0-5,0-7.5h-4C507.9,2.7,509.6,5.9,511.3,7.5z"/>
	<path class="st1" d="M705.8,3.8c1.3-1.3,2.1-2.6,2.4-3.7h-4.2C704.9,1,705.8,1.9,705.8,3.8z"/>
	<path class="st1" d="M1232.3,60c0.3-1.5-0.6-3.3-2.7-7.6c-3.7,3.7-3.7,7.5,0,11.2c1.3-1.3,2.2-2.2,2.6-3.1c0-0.1,0-0.2,0-0.4
		C1232.1,60.2,1232.2,60.1,1232.3,60z"/>
	<path class="st1" d="M1484,86.1c0-3.7,0-7.5-3.7-11.2C1480.2,78.6,1484,82.4,1484,86.1z"/>
	<path class="st1" d="M1689.7,41.2c0-3.7,0-7.5-7.5-7.5C1682.2,33.7,1686,37.5,1689.7,41.2z"/>
	<path class="st1" d="M1513.9,93.6c7.5,0,7.5-3.7,3.7-11.2C1513.9,82.4,1510.2,86.1,1513.9,93.6z"/>
	<path class="st1" d="M1551.3,59.9l3.7,3.7c3.7-3.7,3.7-3.7,0-7.5L1551.3,59.9z"/>
	<path class="st1" d="M1390.4,45c3.7,0,3.7,0,3.7-7.5C1390.4,37.5,1390.4,37.5,1390.4,45z"/>
	<path class="st1" d="M114.7,7.5c4.6,0,3.5-4.2,2.1-7.5h-2.1C114.7,2.6,114.7,5.1,114.7,7.5z"/>
	<path class="st1" d="M111,26.3l3.7,3.7C118.4,22.5,118.4,18.8,111,26.3z"/>
	<path class="st1" d="M1270.7,0.1C1270.7,0.1,1270.7,0.1,1270.7,0.1L1270.7,0.1C1270.7,0.1,1270.7,0.1,1270.7,0.1z"/>
	<path class="st1" d="M1356.8,7.5c3.7,0,3.7-3.7,3.7-7.5c0,0,0,0,0,0h-3C1356.8,1.8,1356.8,5.3,1356.8,7.5z"/>
	<path class="st1" d="M1686,3.8c1.3-1.3,1.7-2.6,1.5-3.7h-4.2C1684.4,2.2,1686,3.8,1686,3.8z"/>
	<path class="st1" d="M1648.6,18.8c0,0,3.7,0,3.7,3.7C1652.3,18.8,1652.3,18.8,1648.6,18.8z"/>
	<path class="st1" d="M264.4,52.4c3.7,0,3.7,3.7,3.7,3.7C271.8,52.4,268.1,48.7,264.4,52.4z"/>
	<path class="st1" d="M1308.1,52.4c0-3.7,0-3.7-3.7-7.5C1304.4,48.7,1304.4,48.7,1308.1,52.4z"/>
	<path class="st1" d="M1495.2,56.2c0,0,0,3.7,3.7,3.7C1498.9,56.2,1498.9,56.2,1495.2,56.2z"/>
	<path class="st1" d="M346.6,26.3c-3.7,3.7,0,7.5,0,7.5C350.4,30,354.1,30,346.6,26.3z"/>
	<path class="st1" d="M1648.6,3.8c0-1.9-0.9-2.8-1.9-3.7h-2.5C1644.7,1.2,1646,2.5,1648.6,3.8z"/>
	<path class="st1" d="M1910.4,89.9c3.7,3.7,3.7,0,3.7-7.5C1910.4,82.4,1910.4,82.4,1910.4,89.9z"/>
	<path class="st1" d="M1779.5,52.4c3.7-3.7,3.7-3.7,0-7.5C1775.8,45,1775.8,48.7,1779.5,52.4z"/>
	<path class="st1" d="M1918.2,72.5c-3.7,3.7-3.7,3.7,0,7.5C1921.9,76.3,1921.9,76.3,1918.2,72.5z"/>
	<path class="st1" d="M1244.5,45c0,3.7,0,3.7,0,3.7C1248.3,48.7,1248.3,45,1244.5,45z"/>
	<path class="st1" d="M1240.8,37.5c3.7,0,3.7-3.7,0-7.5C1240.8,33.7,1240.8,33.7,1240.8,37.5z"/>
	<path class="st1" d="M1232.1,30c0.7-2.1-0.1-3.7-2.5-3.7c-3.7,3.7-3.7,3.7,0,7.5c0.6-0.6,1.1-1.2,1.5-1.8
		C1231.1,31.2,1231.5,30.5,1232.1,30z"/>
	<path class="st1" d="M634.7,18.8c0,3.7,0,7.5,3.7,7.5C638.5,22.5,638.5,18.8,634.7,18.8z"/>
	<polygon class="st1" points="1888,0.1 1888,0.1 1888,0.1 	"/>
	<path class="st1" d="M649.7,0.1c0,3.7,0,3.7,0,7.5C653.4,7.5,653.4,0.1,649.7,0.1z"/>
	<path class="st1" d="M1820.7,30c3.7,3.7,3.7,3.7,7.5,0C1824.4,26.3,1824.4,26.3,1820.7,30z"/>
	<path class="st1" d="M1712.2,37.5c0,3.7,0,3.7,0,7.5C1715.9,45,1715.9,37.5,1712.2,37.5z"/>
	<path class="st1" d="M28.7,82.4c0,0,0-3.7,0-7.5C24.9,74.9,28.7,82.4,28.7,82.4z"/>
	<path class="st1" d="M54.9,52.4c3.7,0,3.7-3.7,0-7.5C51.1,45,51.1,48.7,54.9,52.4z"/>
	<path class="st1" d="M125.9,56.2c0,0,0,3.7,3.7,3.7C133.4,59.9,133.4,56.2,125.9,56.2z"/>
	<path class="st1" d="M197,15C204.5,15,204.5,11.3,197,15L197,15z"/>
	<polygon class="st1" points="1296.9,0.1 1296.9,0.1 1296.9,0.1 	"/>
	<path class="st1" d="M1296.9,0.1c3.7,3.7,3.7,3.7,3.7,0c0,0,0,0,0,0L1296.9,0.1C1296.9,0.1,1296.9,0.1,1296.9,0.1z"/>
	<path class="st1" d="M387.8,71.1C387.8,78.6,391.5,74.9,387.8,71.1L387.8,71.1z"/>
	<path class="st1" d="M530,15c0-7.5,3.7-7.5,0-11.2C530,7.5,530,11.3,530,15z"/>
	<path class="st1" d="M21.2,18.8c3.7,0,3.7,0,0-3.7C21.2,16,21.2,17.4,21.2,18.8z"/>
	<path class="st1" d="M13.7,74.9C10,74.9,10,78.6,13.7,74.9L13.7,74.9z"/>
	<path class="st1" d="M1791,53.8c1.9,0,2.8,0,2.8,0c0.9,0,0.9,0,0.9,0C1798.5,50.1,1794.7,50.1,1791,53.8z"/>
	<path class="st1" d="M1899.2,7.5c0,3.7,0,3.7,0,3.7C1903,7.5,1903,7.5,1899.2,7.5z"/>
	<path class="st1" d="M77.5,70c-0.1,0.2-0.1,0.5-0.2,0.8C77.3,70.6,77.4,70.4,77.5,70z"/>
	<path class="st1" d="M77.3,70.8c0,0.2,0,0.3,0,0.3C77.3,71,77.3,70.9,77.3,70.8z"/>
	<path class="st1" d="M77.5,70c0.7-1.8,3.6,0.6,3.6-2.6C78.6,67.4,77.8,68.9,77.5,70z"/>
	<path class="st1" d="M62.3,74.9c3.7,0,3.7-3.7,0-7.5C62.3,71.1,62.3,74.9,62.3,74.9z"/>
	<path class="st1" d="M705.8,15l3.7,3.7C709.6,18.8,709.6,15,705.8,15z"/>
	<path class="st1" d="M1644.8,15c-0.4,0.4-0.8,0.7-1.2,1C1644.3,16.2,1644.8,16,1644.8,15z"/>
	<path class="st1" d="M1637.3,15c0,3.3,3,3.7,6.3,1C1641.5,15.7,1637.3,12.2,1637.3,15z"/>
	<path class="st1" d="M1858.3,53.8C1858.3,57.5,1862.1,57.5,1858.3,53.8L1858.3,53.8z"/>
	<path class="st1" d="M1663.5,0.1L1663.5,0.1l-1,0C1662.9,0.1,1663.2,0.1,1663.5,0.1z"/>
	<path class="st1" d="M223.2,74.9c0-3.7,0-3.7,0-7.5C219.5,67.4,219.5,71.1,223.2,74.9z"/>
	<path class="st1" d="M204.5,0.1h3.7c0,0-0.1,0-0.1,0L204.5,0.1C204.5,0.1,204.5,0.1,204.5,0.1z"/>
	<path class="st1" d="M380.3,45c-3.7,0-3.7,0,0,3.7C384.1,48.7,384.1,45,380.3,45z"/>
	<path class="st1" d="M1895.7,57.5c3.7,0,3.7,0,3.7-3.7C1895.7,53.8,1895.7,53.8,1895.7,57.5z"/>
	<path class="st1" d="M129.7,18.8c0,0,0,0,0-3.7C125.9,15,125.9,18.8,129.7,18.8z"/>
	<path class="st1" d="M1581.2,41.2c0,3.7,3.7,3.7,3.7,0S1584.9,37.5,1581.2,41.2z"/>
	<path class="st1" d="M1323.1,3.8c0,3.7,0,3.7,0,3.7C1326.8,3.8,1323.1,3.8,1323.1,3.8z"/>
	<path class="st1" d="M51.1,78.6C47.4,74.9,47.4,78.6,51.1,78.6L51.1,78.6z"/>
	<path class="st1" d="M212,18.8C212,22.5,215.7,18.8,212,18.8L212,18.8z"/>
	<path class="st1" d="M724.5,82.4c0,3.7,0,3.7,0,3.7C728.2,82.4,728.2,82.4,724.5,82.4z"/>
	<path class="st1" d="M1513.9,30C1517.6,30,1513.9,26.3,1513.9,30L1513.9,30z"/>
	<path class="st1" d="M1834.8,45.9c-0.8,1.1-1.7,2.8,0.8,2.8c0,0,0,0,0,0C1835.3,47.7,1835,46.8,1834.8,45.9z"/>
	<path class="st1" d="M1835.6,45c0,0-0.4,0.4-0.8,0.9c0.2,0.9,0.5,1.9,0.8,2.8c0,0,0,0,0,0c0,0,0,0,0,0
		C1835.6,48.7,1835.6,48.7,1835.6,45z"/>
	<path class="st1" d="M271.8,116c11.2-3.7,3.7-22.4,0-26.2C271.8,97.3,271.8,108.6,271.8,116z"/>
	<path class="st1" d="M447.7,116c0,7.5,3.7,7.5,7.5,11.2C458.9,127.3,451.4,116,447.7,116z"/>
	<path class="st1" d="M616,116c3.7,0,3.7-3.7,3.7-11.2C612.3,108.6,612.3,112.3,616,116z"/>
	<path class="st1" d="M447.7,112.3c-3.7,0-3.7-3.7-7.5-3.7C440.2,112.3,440.2,112.3,447.7,112.3z"/>
	<path class="st1" d="M1723.4,112.3c0-3.7-3.8-7.5-3.8-7.5C1715.9,108.6,1715.9,112.3,1723.4,112.3z"/>
	<path class="st1" d="M1510.2,112.3c0,3.7,0,3.7,0,7.5C1513.9,123.5,1513.9,112.3,1510.2,112.3z"/>
	<path class="st1" d="M28.7,112.3h3.7C28.7,104.8,24.9,108.6,28.7,112.3z"/>
	<path class="st1" d="M215.7,116c3.7,0,7.5,3.7,7.5,0C223.2,112.3,219.5,112.3,215.7,116z"/>
	<path class="st1" d="M137.2,127.3c3.7,0,3.7-3.7,3.7-3.7C137.2,119.8,133.4,131,137.2,127.3z"/>
	<path class="st1" d="M1038.3,24.4c5.5-2.7,6.4-12.4,5.5-24.4h-9.5C1035.6,9.6,1036.5,20.9,1038.3,24.4z"/>
	<path class="st1" d="M942.9,0.1C942.9,0.1,942.9,0.1,942.9,0.1L942.9,0.1C942.9,0.1,942.9,0.1,942.9,0.1z"/>
	<path class="st1" d="M940.1,0.1h-3.9c0.8,2.4,2.1,5,3.8,7.7C939.9,5.2,939.9,2.6,940.1,0.1z"/>
	<path class="st1" d="M940.1,0.1c-0.1,2.6-0.2,5.2-0.1,7.7c0.3,0.6,0.7,1.1,1.1,1.7c0.8-3.1,1.4-6.2,1.8-9.3c0,0,0-0.1,0-0.1H940.1z
		"/>
	<path class="st1" d="M926.1,13.2c0-3.7-3.7-11.2-3.7-11.2c0,3.7,0,11.2-3.7,15c-1.9-7.5-4.7-13.2-8-16.9h-10c1.1,4.3,3,7.8,3,13.2
		c0-3.7,3.7-7.5,7.5-11.2c0,3.7-3.7,22.4,0,26.2c3.7,3.7,7.5,0,11.2,0c3.7,7.5,3.7,7.5,7.5,15c3.3,0,3.7-34.7,1.2-43.1h-1.5
		C928.7,3.3,926.1,6.9,926.1,13.2z"/>
	<path class="st1" d="M739.1,54.4c5.7,2.9,11.5-36,7.1-54.3h-8.7C737,16.3,739.1,48.8,739.1,54.4z"/>
	<path class="st1" d="M1038.3,99.3c0,3.7,3.7,7.5,3.7,11.2c3.7,0,3.7-3.7,7.5-3.7c-3.7-3.7-3.7-7.5-3.7-11.2c3.7-3.7,15,0,18.7-7.5
		c-7.5,0-15,0-22.5-7.5C1038.3,84.3,1038.3,91.8,1038.3,99.3z"/>
	<path class="st1" d="M783.6,0.1h-1.1C781.8,1.4,782.9,1.4,783.6,0.1z"/>
	<path class="st1" d="M791.4,9.5c2-1,3.2-4.8,3.8-9.4H794C794.6,3.5,793.7,7.2,791.4,9.5z"/>
	<path class="st1" d="M813.9,5.7c0,11.2,18.7,7.5,15-3.7c-0.4-0.8-0.9-1.5-1.5-1.9h-8.3C816.2,1.5,813.9,4,813.9,5.7z"/>
	<path class="st1" d="M855,61.9c0-7.5,0-15-3.7-22.4C843.8,54.4,843.8,58.1,855,61.9z"/>
	<path class="st1" d="M944.8,76.8c7.5,0,3.7-22.4,0-26.2C941.1,50.6,937.3,76.8,944.8,76.8z"/>
	<path class="st1" d="M1045.8,73.1c3.7-3.7-3.7-15-7.5-22.4C1038.3,50.6,1038.3,80.6,1045.8,73.1z"/>
	<path class="st1" d="M843.8,13.2c1.6-4.9,2.5-9.1,2.8-13.2H841C841.2,4.2,842.1,8.3,843.8,13.2z"/>
	<path class="st1" d="M795.2,17c-3.7,7.5-3.7,11.2,0,15C795.2,31.9,798.9,17,795.2,17z"/>
	<path class="st1" d="M993.4,9.5C993.4,9.5,993.4,9.5,993.4,9.5C993.5,9.5,993.5,9.5,993.4,9.5C993.4,9.5,993.4,9.5,993.4,9.5z"/>
	<path class="st1" d="M993.5,9.5C993.5,9.5,993.5,9.5,993.5,9.5c3.7,3.8,0,11.2,3.7,15C1004.6,17,1000.9,9.5,993.5,9.5z"/>
	<path class="st1" d="M791.4,50.6c7.5,26.2,3.7,0,3.7-11.2C791.4,43.2,791.4,46.9,791.4,50.6z"/>
	<path class="st1" d="M974.7,13.2c-11.2,0-3.7,22.4-3.7,26.2s0,26.2,7.5,26.2c0-11.2,0-26.2-3.7-37.4C971,24.4,971,20.7,974.7,13.2z
		"/>
	<path class="st1" d="M978.5,28.2c0,0,0-15-3.7-15C974.7,20.7,974.7,28.2,978.5,28.2z"/>
	<path class="st1" d="M873.7,28.2c0-3.7,3.7-7.5,0-11.2C870,24.4,873.7,24.4,873.7,28.2z"/>
	<path class="st1" d="M1023.4,39.4c-3.8,0-7.5-3.7-11.2-3.7C1015.9,39.4,1015.9,46.9,1023.4,39.4z"/>
	<path class="st1" d="M1000.9,43.2c3.7-3.7,0-7.5,0-11.2C997.2,39.4,997.2,39.4,1000.9,43.2z"/>
	<path class="st1" d="M821.4,20.7c0,3.7,0,7.5,0,11.2C821.4,28.2,825.1,24.4,821.4,20.7z"/>
	<path class="st1" d="M903.7,54.4c3.7,3.7,7.5,0,3.7-3.7C907.4,50.6,903.7,50.6,903.7,54.4z"/>
	<path class="st1" d="M727.8,5.7c0-2.4,1.6-3.3,0.6-5.7h-3.9C725,2,725.9,3.8,727.8,5.7z"/>
	<path class="st1" d="M851.3,28.2c3.7,0,3.7-3.7,3.7-7.5C847.5,20.7,847.5,24.4,851.3,28.2z"/>
	<path class="st1" d="M918.6,50.6c3.7-3.7,3.7-7.5,0-11.2C914.9,39.4,914.9,43.2,918.6,50.6z"/>
	<path class="st1" d="M761.5,9.5c3.7-3.7,3.7-3.7,0-7.5C757.7,2,757.7,5.7,761.5,9.5z"/>
	<polygon class="st1" points="993.5,9.5 993.5,9.5 993.5,9.5 	"/>
	<path class="st1" d="M993.5,17c0-3.7,0-3.7,0-7.4c0,0,0,0,0,0C993.4,13.2,989.7,13.2,993.5,17z"/>
	<path class="st1" d="M993.5,9.5C993.5,9.5,993.5,9.5,993.5,9.5C993.5,9.5,993.5,9.5,993.5,9.5C993.5,9.5,993.5,9.5,993.5,9.5
		L993.5,9.5z"/>
	<path class="st1" d="M806.4,43.2c3.7,3.7,0,7.5,7.5,7.5C810.1,46.9,810.1,46.9,806.4,43.2z"/>
	<path class="st1" d="M1015.9,65.6c0-3.7,3.7-7.5,3.7-11.2C1015.9,58.1,1012.2,58.1,1015.9,65.6z"/>
	<path class="st1" d="M697.9,5.7C697.9,9.5,701.6,5.7,697.9,5.7L697.9,5.7z"/>
	<path class="st1" d="M813.9,39.4c0,0,0,0,0,3.7C813.9,43.2,817.6,39.4,813.9,39.4z"/>
	<path class="st1" d="M1000.9,69.3C997.2,73.1,1000.9,73.1,1000.9,69.3L1000.9,69.3z"/>
	<path class="st1" d="M851.3,2c3.7,3.7,3.7,3.7,3.7,0C851.3-1.7,851.3,2,851.3,2z"/>
	<path class="st1" d="M825.1,46.9C821.4,46.9,821.4,50.6,825.1,46.9L825.1,46.9z"/>
	<path class="st1" d="M907.4,39.4C907.4,35.7,903.6,39.4,907.4,39.4L907.4,39.4z"/>
	<path class="st1" d="M993.5,46.9C997.2,46.9,997.2,43.2,993.5,46.9L993.5,46.9z"/>
	<path class="st1" d="M1004.7,9.5c3.7,11.2,7.5,15,15,7.5c-2.1-6.4,0.6-11.6,2.6-16.9h-11.6C1008.5,4.1,1004.7,6.8,1004.7,9.5z"/>
	<path class="st1" d="M1172.2,11.6c2.5-4.1,4.2-7.9,5.3-11.5h-5.4C1171.5,4.4,1171,7.9,1172.2,11.6z"/>
	<path class="st1" d="M1084.7,17.8c5.6,6.3,17,20,20.2,20c2.4,0,3.8-0.3,4.5-0.9c-1.6-1.7-2.9-3.6-3.8-5.6
		C1099.7,26.9,1089.2,21.2,1084.7,17.8z"/>
	<path class="st1" d="M1084.7,17.8c-0.9-1-1.7-1.9-2.2-2.4C1082.4,15.9,1083.3,16.7,1084.7,17.8z"/>
	<path class="st1" d="M1105.5,31.3c1,2,2.2,3.9,3.8,5.6C1110.6,35.8,1108.8,33.8,1105.5,31.3z"/>
	<path class="st1" d="M1125.4,52.8h2c3,3,1.2-1.2-1.5-4.8C1125.7,49.5,1125.6,51.1,1125.4,52.8z"/>
	<path class="st1" d="M1104.9,49c3.7,7.5,7.5,7.5,15,3.7h3c-1.6-2.6-3.6-5-5.5-7.3C1112.7,45.8,1107.3,46.6,1104.9,49z"/>
	<path class="st1" d="M1123.6,45.3c-1.3,0-3.7,0-6.2,0.2c1.9,2.3,3.9,4.8,5.5,7.3h2.5c0.2-1.6,0.4-3.3,0.4-4.8
		C1125.1,47,1124.3,46,1123.6,45.3z"/>
	<path class="st1" d="M1194.7,22.8c6.3,0,15.2,5.3,22.3-1.9c-0.8-1.3-1.4-2.7-1.8-4.2C1207,18.1,1200.8,16.7,1194.7,22.8z"/>
	<path class="st1" d="M1220.9,15.4c-2,0.7-3.8,1.1-5.6,1.4c0.4,1.5,0.9,2.9,1.8,4.2C1218.4,19.6,1219.7,17.7,1220.9,15.4z"/>
	<path class="st1" d="M1131.1,45.3c0,3.7,7.5,3.7,11.2,3.7C1142.3,49,1138.6,41.5,1131.1,45.3z"/>
	<path class="st1" d="M1205.9,56.5c3.8,0,7.5,3.7,11.2,7.5C1220.9,56.5,1209.7,52.8,1205.9,56.5z"/>
	<path class="st1" d="M1232.1,30c-0.2,0.6-0.6,1.3-1,1.9c0,0.7,0.3,1.4,1,2.1c3.7,0,3.7-3.7,7.5-3.7
		C1237.3,28.1,1233.8,28.5,1232.1,30z"/>
	<path class="st1" d="M1231.1,31.9c0.5-0.7,0.8-1.3,1-1.9C1231.5,30.5,1231.1,31.2,1231.1,31.9z"/>
	<path class="st1" d="M1176,67.7c0,3.7,0,7.5,0,11.2C1179.7,71.5,1183.5,67.7,1176,67.7z"/>
	<path class="st1" d="M1078.7,37.8c0,3.7,3.7,3.7,3.7,0C1078.7,34.1,1078.7,34.1,1078.7,37.8z"/>
	<path class="st1" d="M1149.8,26.6c0,3.7-3.7,7.5,3.7,3.7C1153.5,30.3,1149.8,30.3,1149.8,26.6z"/>
	<path class="st1" d="M1093.7,37.8c0,0,0,0,0-3.7C1089.9,34.1,1089.9,37.8,1093.7,37.8z"/>
	<path class="st1" d="M1232.3,60c0,0.2-0.1,0.4-0.2,0.6c0.2,3.4,3.8,3.2,7.5-0.4C1239.6,56.6,1236,56.5,1232.3,60z"/>
	<path class="st1" d="M1232.1,60.2c0,0.1,0,0.2,0,0.4c0.1-0.2,0.1-0.4,0.2-0.6C1232.2,60.1,1232.1,60.2,1232.1,60.2z"/>
	<path class="st1" d="M1119.9,34.1c0,3.7,0,3.7,3.7,0C1119.9,34.1,1119.9,34.1,1119.9,34.1z"/>
	<path class="st1" d="M1170.7,19.1c0.4,0,0.9,0,1.6,0C1172.2,17.4,1171.5,18,1170.7,19.1z"/>
	<path class="st1" d="M1168.5,22.8c0,0,1.2-2.3,2.2-3.7C1168.5,19.2,1168.5,19.7,1168.5,22.8z"/>
	<path class="st1" d="M1176,26.6c0,0,3.7,0,7.5,0C1183.5,22.8,1179.7,22.8,1176,26.6z"/>
	<path class="st1" d="M1220.8,34.1c0,3.7,0,3.7,3.7,0C1224.6,30.3,1224.6,30.3,1220.8,34.1z"/>
	<path class="st1" d="M1224.6,79c0,0,0,0,3.7,0C1228.4,75.2,1228.4,75.2,1224.6,79z"/>
	<path class="st1" d="M1187.2,37.8c0,3.7,0,3.7,3.7,3.7C1187.2,37.8,1190.9,37.8,1187.2,37.8z"/>
	<path class="st1" d="M1183.5,56.5h-3.7C1179.7,56.5,1183.5,60.2,1183.5,56.5z"/>
	<path class="st1" d="M1067.5,41.5c0,3.7-7.5,3.7,3.7,3.7C1067.5,45.3,1067.5,41.5,1067.5,41.5z"/>
	<path class="st1" d="M1194.7,45.3C1194.7,41.5,1190.9,41.5,1194.7,45.3L1194.7,45.3z"/>
</g>
</svg>
