<svg width="375" height="70" viewBox="0 0 375 70" fill="none" xmlns="http://www.w3.org/2000/svg">
<g opacity="0.2">
<path d="M36.3784 59.4203C35.2628 59.6104 34.1473 59.8637 32.9078 60.3072C33.6515 58.7868 34.4572 57.6465 35.2628 56.7597C35.0149 56.3796 34.767 56.0628 34.4572 55.7461C32.4739 57.7732 32.1641 64.9316 32.1641 69.9362H36.9981C36.5643 66.5787 37.1221 62.6511 36.3784 59.4203Z" fill="#D1B06F"/>
<path d="M92.4658 34.3975C92.3418 35.1576 92.2178 35.8545 92.0938 36.5513H93.6441C93.21 35.8545 92.7759 35.1576 92.4658 34.3975Z" fill="#D1B06F"/>
<path d="M91.8477 39.6558C91.4139 49.2214 94.4507 57.52 92.4675 67.5924C92.4675 67.5924 94.7606 67.5924 97.1156 69.9363C99.4087 65.1852 94.8225 58.0902 97.1156 53.339C101.764 55.6829 99.4087 62.8413 106.412 62.8413C106.412 59.2938 106.412 54.3526 104.429 50.1716C102.446 48.6512 101.268 47.3209 102.074 46.6241C101.95 46.4974 101.888 46.3707 101.764 46.3074C100.586 45.1037 98.8509 43.33 97.1156 41.2395C95.5043 41.3662 94.0789 41.3662 93.2732 41.3662C92.7154 40.8594 92.2815 40.2259 91.8477 39.6558ZM95.5043 48.3979C95.5043 48.3979 95.5043 48.3979 93.2112 48.3979C95.5043 46.054 95.5043 46.054 95.5043 48.3979Z" fill="#D1B06F"/>
<path d="M206.997 65.0582C206.811 57.393 205.262 50.1079 203.774 43.8364C200.242 45.6735 203.464 60.0536 205.2 69.8726C205.509 67.9088 205.881 65.945 206.315 63.9812C206.563 64.3613 206.811 64.7414 206.997 65.0582Z" fill="#D1B06F"/>
<path d="M9.23745 24.9593C6.94436 22.6154 6.94436 20.2082 4.58929 15.457C4.58929 20.2082 -0.0588767 24.9593 4.58929 29.6471C4.58929 27.3032 6.94436 24.9593 9.23745 24.9593Z" fill="#D1B06F"/>
<path d="M375.003 24.9593C372.71 22.6154 372.71 20.2082 370.355 15.457C370.355 20.2082 365.707 24.9593 370.355 29.6471C370.355 27.3032 372.71 24.9593 375.003 24.9593Z" fill="#D1B06F"/>
<path d="M347.492 41.4932C347.492 46.2443 347.492 53.3393 349.785 58.0905C349.785 53.3393 349.785 46.2443 347.492 41.4932Z" fill="#D1B06F"/>
<path d="M25.2185 60.4974C22.9254 58.1535 20.5703 55.7462 20.5703 53.4023C20.5703 58.1535 20.5703 62.9046 22.8634 67.5924C22.8634 65.2485 22.8634 62.8413 25.2185 60.4974Z" fill="#D1B06F"/>
<path d="M370.676 53.339C370.676 43.8367 370.676 43.8367 363.734 46.2439C366.027 48.6512 366.027 48.6512 370.676 53.339Z" fill="#D1B06F"/>
<path d="M3.66759 60.4976C3.66759 65.2487 1.3745 67.5926 3.66759 69.9998C8.31576 67.5926 5.96069 62.8415 3.66759 60.4976Z" fill="#D1B06F"/>
<path d="M369.433 60.4976C369.433 65.2487 367.14 67.5926 369.433 69.9998C374.081 67.5926 371.726 62.8415 369.433 60.4976Z" fill="#D1B06F"/>
<path d="M83.1681 41.4932C83.1681 43.8371 83.1681 48.5882 80.875 50.9954C87.8163 46.2443 87.8162 46.2443 83.1681 41.4932Z" fill="#D1B06F"/>
<path d="M352.144 67.5923C351.338 68.4158 350.842 69.2393 350.656 69.9362H353.259C352.701 69.366 352.144 68.7959 352.144 67.5923Z" fill="#D1B06F"/>
<path d="M25.8474 31.9275C25.6614 32.8777 26.2192 34.018 27.5207 36.742C29.8138 34.3981 29.8138 31.9909 27.5207 29.647C26.715 30.4705 26.1573 31.0406 25.9094 31.6108C25.9094 31.6741 25.9094 31.7375 25.9094 31.8642C25.9094 31.8642 25.9093 31.9275 25.8474 31.9275Z" fill="#D1B06F"/>
<path d="M0 36.8052C0 39.1491 7.53582e-06 39.1491 2.2931 41.5563C2.2931 39.1491 2.2931 39.1491 0 36.8052Z" fill="#D1B06F"/>
<path d="M365.766 36.8052C365.766 39.1491 365.766 39.1491 368.059 41.5563C368.059 39.1491 368.059 39.1491 365.766 36.8052Z" fill="#D1B06F"/>
<path d="M347.773 27.667C347.773 30.0109 347.773 30.0109 350.067 32.4181C350.067 30.0109 350.067 30.0109 347.773 27.667Z" fill="#D1B06F"/>
<path d="M18.2819 41.4928C18.2819 39.1489 18.2819 39.1489 18.2819 39.1489C15.9269 39.1489 15.9269 41.4928 18.2819 41.4928Z" fill="#D1B06F"/>
<path d="M20.5714 46.2441C18.2783 46.2441 18.2783 48.588 20.5714 50.9953C20.5714 48.6514 20.5714 48.6514 20.5714 46.2441Z" fill="#D1B06F"/>
<path d="M25.9714 50.9951C25.5375 52.3254 26.0333 53.339 27.5208 53.339C29.8139 50.9951 29.8139 50.9951 27.5208 48.5879C27.1489 48.968 26.839 49.3481 26.5911 49.7282C26.5911 50.2349 26.3432 50.6784 25.9714 50.9951Z" fill="#D1B06F"/>
<path d="M6.94154 69.9366C4.64845 67.5927 4.64844 67.5927 4.64844 69.9366H6.94154Z" fill="#D1B06F"/>
<path d="M372.699 69.9366C370.406 67.5927 370.406 67.5927 370.406 69.9366H372.699Z" fill="#D1B06F"/>
<path d="M352.145 60.4975L349.852 58.1536C349.79 58.0902 349.79 60.4975 352.145 60.4975Z" fill="#D1B06F"/>
<path d="M76.9729 26.9464C76.9729 24.6025 76.9729 24.6025 76.9729 24.6025C74.6784 26.9464 76.9729 26.9464 76.9729 26.9464Z" fill="#D1B06F"/>
<path d="M340.555 17.8004C340.555 15.4565 340.555 15.4565 340.555 15.4565C338.2 17.8004 338.2 17.8004 340.555 17.8004Z" fill="#D1B06F"/>
<path d="M146.073 54.5425C142.664 56.2529 142.107 62.3977 142.664 69.9995H148.552C147.746 63.9181 147.127 56.7597 146.073 54.5425Z" fill="#D1B06F"/>
<path d="M206.938 69.9364H209.355C208.859 68.4161 208.053 66.769 206.999 65.0586C207.061 66.7057 206.999 68.3527 206.938 69.9364Z" fill="#D1B06F"/>
<path d="M206.938 69.9362C207 68.2891 207.062 66.6421 207 65.0584C206.815 64.6783 206.567 64.3615 206.319 63.9814C205.823 65.9452 205.451 67.9091 205.203 69.8729V69.9362H206.938Z" fill="#D1B06F"/>
<path d="M215.616 61.6372C215.616 63.9811 217.909 68.7322 217.909 68.7322C217.909 66.3884 217.909 61.6372 220.202 59.23C221.38 63.9811 223.115 67.592 225.16 69.9359H231.358C230.676 67.2119 229.499 64.9947 229.499 61.5739C229.499 63.9178 227.206 66.325 224.851 68.6689C224.851 66.325 227.144 54.4788 224.851 52.0716C222.557 49.7277 220.202 52.0716 217.909 52.0716C215.616 47.3205 215.616 47.3205 213.261 42.5693C211.216 42.5693 210.968 64.5513 212.517 69.8725H213.447C214.005 67.9087 215.616 65.6282 215.616 61.6372Z" fill="#D1B06F"/>
<path d="M331.509 35.5382C327.976 33.7011 324.381 58.3437 327.108 69.9364H332.5C332.81 59.674 331.509 39.0857 331.509 35.5382Z" fill="#D1B06F"/>
<path d="M146.073 7.09503C146.073 4.75113 143.78 2.34389 143.78 0C141.487 0 141.487 2.34389 139.132 2.34389C141.425 4.68779 141.425 7.09503 141.425 9.43892C139.132 11.7828 132.129 9.43892 129.836 14.1901C134.484 14.1901 139.132 14.1901 143.78 18.9412C146.074 16.5973 146.073 11.8462 146.073 7.09503Z" fill="#D1B06F"/>
<path d="M303.93 69.9365H304.612C305.046 69.113 304.364 69.113 303.93 69.9365Z" fill="#D1B06F"/>
<path d="M299.097 63.9814C297.858 64.6149 297.114 67.0222 296.742 69.9362H297.424C297.114 67.7824 297.672 65.4385 299.097 63.9814Z" fill="#D1B06F"/>
<path d="M285.151 66.3887C285.151 59.2936 273.562 61.6375 275.855 68.7325C276.103 69.2393 276.413 69.6828 276.785 69.9362H281.929C283.726 68.9859 285.151 67.4656 285.151 66.3887Z" fill="#D1B06F"/>
<path d="M259.68 30.7871C259.68 35.5382 259.68 40.2894 261.973 44.9772C266.621 35.5382 266.621 33.1944 259.68 30.7871Z" fill="#D1B06F"/>
<path d="M204.018 21.3481C199.37 21.3481 201.725 35.5382 204.018 37.9454C206.311 37.9454 208.666 21.3481 204.018 21.3481Z" fill="#D1B06F"/>
<path d="M141.421 23.6923C139.128 26.0362 143.715 33.1946 146.07 37.8824C146.07 37.9457 146.07 18.9412 141.421 23.6923Z" fill="#D1B06F"/>
<path d="M266.618 61.6377C265.626 64.7418 265.069 67.4024 264.883 69.9997H268.291C268.229 67.3391 267.61 64.7418 266.618 61.6377Z" fill="#D1B06F"/>
<path d="M296.746 59.2303C299.039 54.4792 299.039 52.1353 296.746 49.728C296.746 49.7914 294.453 59.2303 296.746 59.2303Z" fill="#D1B06F"/>
<path d="M173.844 63.9818C171.55 61.5745 173.844 56.8867 171.55 54.4795C166.902 59.2306 169.257 63.9818 173.844 63.9818Z" fill="#D1B06F"/>
<path d="M299.101 37.9456C294.452 21.3483 296.808 37.9456 296.808 45.0407C299.101 42.6334 299.101 40.2895 299.101 37.9456Z" fill="#D1B06F"/>
<path d="M185.433 61.638C192.374 61.638 187.726 47.4479 187.726 45.0407C187.726 42.6334 187.726 28.4434 183.078 28.4434C183.078 35.5384 183.078 45.0407 185.371 52.1357C187.788 54.5429 187.788 56.8868 185.433 61.638Z" fill="#D1B06F"/>
<path d="M183.141 52.1357C183.141 52.1357 183.141 61.638 185.434 61.638C185.434 56.8869 185.434 52.1357 183.141 52.1357Z" fill="#D1B06F"/>
<path d="M248.089 52.1357C248.089 54.4796 245.796 56.8869 248.089 59.2308C250.383 54.543 248.089 54.543 248.089 52.1357Z" fill="#D1B06F"/>
<path d="M237.863 36.8604C237.863 39.2042 235.57 41.6115 237.863 43.9554C240.156 39.2676 237.863 39.2676 237.863 36.8604Z" fill="#D1B06F"/>
<path d="M245.863 13.3662C245.863 15.7101 243.57 18.1173 245.863 20.4612C248.156 15.7735 245.863 15.7735 245.863 13.3662Z" fill="#D1B06F"/>
<path d="M155.312 45.0402C157.668 45.0402 159.961 47.3841 162.254 47.3841C159.961 45.0402 159.961 40.2891 155.312 45.0402Z" fill="#D1B06F"/>
<path d="M124.922 54.217C127.277 54.217 129.57 56.5609 131.863 56.5609C129.57 54.217 129.57 49.4658 124.922 54.217Z" fill="#D1B06F"/>
<path d="M169.254 42.6333C166.96 44.9772 169.254 47.3844 169.254 49.7283C171.547 45.0405 171.547 45.0405 169.254 42.6333Z" fill="#D1B06F"/>
<path d="M280.504 56.887C280.504 54.5431 280.504 52.1359 280.504 49.792C280.504 52.1359 278.21 54.5431 280.504 56.887Z" fill="#D1B06F"/>
<path d="M229.497 35.5383C227.204 33.1944 224.849 35.5383 227.204 37.8822C227.204 37.9455 229.497 37.9455 229.497 35.5383Z" fill="#D1B06F"/>
<path d="M338.513 66.3892C338.513 67.9095 337.522 68.4797 338.141 70H340.558C340.248 68.7331 339.691 67.5928 338.513 66.3892Z" fill="#D1B06F"/>
<path d="M261.973 52.1357C259.68 52.1357 259.68 54.4796 259.68 56.8869C264.266 56.8869 264.266 54.543 261.973 52.1357Z" fill="#D1B06F"/>
<path d="M281.113 20.5166C278.82 20.5166 278.82 22.8605 278.82 25.2677C283.407 25.2677 283.406 22.9238 281.113 20.5166Z" fill="#D1B06F"/>
<path d="M220.259 37.9453C217.966 40.2892 217.966 42.6964 220.259 45.0403C222.552 45.0403 222.552 42.6331 220.259 37.9453Z" fill="#D1B06F"/>
<path d="M317.626 63.9814C315.333 66.3253 315.333 66.3253 317.626 68.7326C319.919 68.7326 319.919 66.3887 317.626 63.9814Z" fill="#D1B06F"/>
<path d="M312.517 44.0112C310.224 46.3551 310.224 46.3551 312.517 48.7624C314.81 48.7624 314.81 46.4185 312.517 44.0112Z" fill="#D1B06F"/>
<path d="M314.517 23.5811C312.224 25.9249 312.224 25.9249 314.517 28.3322C316.81 28.3322 316.81 25.9883 314.517 23.5811Z" fill="#D1B06F"/>
<path d="M173.844 59.2305C173.844 61.5744 173.844 61.5744 173.844 63.9183C173.906 61.6377 176.2 61.6377 173.844 59.2305Z" fill="#D1B06F"/>
<path d="M289.797 42.633C287.504 40.2891 289.797 37.8818 285.148 37.8818C287.504 40.2891 287.504 40.2891 289.797 42.633Z" fill="#D1B06F"/>
<path d="M159.957 28.4434C159.957 30.7873 157.664 33.1945 157.664 35.5384C159.957 33.1945 162.25 33.1945 159.957 28.4434Z" fill="#D1B06F"/>
<path d="M188.176 11.3232C188.176 13.6671 185.883 16.0744 185.883 18.4183C188.176 16.0744 190.469 16.0744 188.176 11.3232Z" fill="#D1B06F"/>
<path d="M357.047 66.3887C357.047 63.9815 354.691 66.3887 357.047 66.3887Z" fill="#D1B06F"/>
<path d="M285.153 45.0404C285.153 45.0404 285.153 45.0404 285.153 42.6965C285.153 42.6332 282.858 45.0404 285.153 45.0404Z" fill="#D1B06F"/>
<path d="M169.258 26.0994C171.552 23.6921 169.258 23.6921 169.258 26.0994Z" fill="#D1B06F"/>
<path d="M261.973 68.7325C259.68 66.3886 259.68 66.3886 259.68 68.7325C261.973 71.0764 261.973 68.7325 261.973 68.7325Z" fill="#D1B06F"/>
<path d="M278.211 40.2893C280.504 40.2893 280.504 37.9454 278.211 40.2893Z" fill="#D1B06F"/>
<path d="M227.203 45.0405C229.498 45.0405 227.203 47.3844 227.203 45.0405Z" fill="#D1B06F"/>
<path d="M173.845 40.2891C171.552 42.633 171.552 40.2891 173.845 40.2891Z" fill="#D1B06F"/>
<path d="M166.9 63.9814C164.607 56.8864 162.252 54.4791 157.604 59.2302C158.905 63.2845 157.232 66.5787 155.992 69.9361H163.181C164.545 67.4022 166.9 65.6918 166.9 63.9814Z" fill="#D1B06F"/>
<path d="M63.0269 62.6514C61.4775 65.2487 60.4239 67.6559 59.7422 69.9364H63.0889C63.5227 67.2125 63.8326 64.9953 63.0269 62.6514Z" fill="#D1B06F"/>
<path d="M117.324 58.7239C113.853 54.7329 106.788 46.0542 104.805 46.0542C103.317 46.0542 102.449 46.2442 102.016 46.6243C103.007 47.7013 103.813 48.9049 104.371 50.1718C108.027 52.9592 114.535 56.57 117.324 58.7239Z" fill="#D1B06F"/>
<path d="M117.32 58.7241C117.878 59.3576 118.375 59.9277 118.685 60.2445C118.685 59.9277 118.189 59.421 117.32 58.7241Z" fill="#D1B06F"/>
<path d="M104.368 50.1715C103.748 48.9046 103.005 47.7009 102.013 46.624C101.269 47.3209 102.385 48.5878 104.368 50.1715Z" fill="#D1B06F"/>
<path d="M92.1024 36.5513H90.8629C89.0037 34.6509 90.1192 37.3115 91.7926 39.592C91.8545 38.6418 91.9785 37.6282 92.1024 36.5513Z" fill="#D1B06F"/>
<path d="M104.796 38.9589C102.503 34.2078 100.148 34.2078 95.4999 36.615H93.6406C94.6322 38.2621 95.8717 39.7825 97.0493 41.2395C99.9002 40.9861 103.309 40.4793 104.796 38.9589Z" fill="#D1B06F"/>
<path d="M93.2072 41.3029C94.0129 41.3029 95.5003 41.3029 97.0497 41.1762C95.8722 39.7192 94.6327 38.1355 93.6411 36.5518H92.0917C91.9677 37.5653 91.8438 38.6423 91.8438 39.5925C92.2776 40.226 92.7114 40.8595 93.2072 41.3029Z" fill="#D1B06F"/>
<path d="M49.1487 55.5564C45.2442 55.5564 39.7284 52.1989 35.3281 56.76C35.8239 57.5835 36.1958 58.4704 36.4437 59.4206C41.5257 58.5338 45.3062 59.4206 49.1487 55.5564Z" fill="#D1B06F"/>
<path d="M32.9062 60.2443C34.1458 59.8009 35.2613 59.5475 36.3769 59.3574C36.129 58.4072 35.8191 57.5203 35.2613 56.6968C34.4556 57.5837 33.65 58.7873 32.9062 60.2443Z" fill="#D1B06F"/>
<path d="M88.5585 41.3029C88.5585 38.959 83.9103 38.959 81.6172 38.959C81.6172 38.959 83.9103 43.7101 88.5585 41.3029Z" fill="#D1B06F"/>
<path d="M42.2032 34.2077C39.8481 34.2077 37.555 31.8638 35.2619 29.4565C32.9068 34.2077 39.8481 36.5516 42.2032 34.2077Z" fill="#D1B06F"/>
<path d="M25.9685 50.9949C26.0924 50.6148 26.3403 50.1713 26.5882 49.7913C26.5882 49.3478 26.4023 48.9044 25.9685 48.4609C23.6754 48.4609 23.6754 50.8048 21.3203 50.8048C22.6838 52.1985 24.9149 51.9451 25.9685 50.9949Z" fill="#D1B06F"/>
<path d="M26.5889 49.7915C26.2788 50.2349 26.0928 50.615 25.9688 50.9951C26.3408 50.6784 26.5889 50.2349 26.5889 49.7915Z" fill="#D1B06F"/>
<path d="M60.7365 27.1131C60.7365 24.7692 60.7365 22.362 60.7365 20.0181C58.4435 24.7059 56.0884 27.1131 60.7365 27.1131Z" fill="#D1B06F"/>
<path d="M121.035 46.0543C121.035 43.7104 118.742 43.7104 118.742 46.0543C121.035 48.3982 121.035 48.3982 121.035 46.0543Z" fill="#D1B06F"/>
<path d="M114.223 26.3605C114.223 24.0166 111.93 24.0166 111.93 26.3605C114.223 28.7044 114.223 28.7044 114.223 26.3605Z" fill="#D1B06F"/>
<path d="M76.9728 53.1492C76.9728 50.8053 79.2659 48.3981 74.6797 50.8054C74.6797 50.8054 76.9728 50.8053 76.9728 53.1492Z" fill="#D1B06F"/>
<path d="M111.742 46.0542C111.742 46.0542 111.742 46.0542 111.742 48.3981C114.097 48.3981 114.097 46.0542 111.742 46.0542Z" fill="#D1B06F"/>
<path d="M25.8445 31.9272C25.8445 31.8005 25.9065 31.6738 25.9685 31.5471C25.8445 29.3932 23.6134 29.5199 21.3203 31.8005C21.3203 34.1444 23.5514 34.2077 25.8445 31.9272Z" fill="#D1B06F"/>
<path d="M25.9678 31.8637C25.9678 31.8004 25.9678 31.737 25.9678 31.6104C25.9058 31.737 25.9058 31.8637 25.8438 31.9904C25.9058 31.9271 25.9058 31.8637 25.9678 31.8637Z" fill="#D1B06F"/>
<path d="M95.504 48.3981C95.504 46.0542 95.504 46.0542 93.2109 48.3981C95.504 48.3981 95.504 48.3981 95.504 48.3981Z" fill="#D1B06F"/>
<path d="M64.0235 57.8999C63.7755 57.8999 63.4654 57.8999 63.0312 57.8999C63.0933 58.9768 63.5274 58.5967 64.0235 57.8999Z" fill="#D1B06F"/>
<path d="M65.3878 55.5562C65.3878 55.5562 64.6436 57.0132 64.0234 57.9C65.3878 57.8367 65.3878 57.52 65.3878 55.5562Z" fill="#D1B06F"/>
<path d="M60.7341 53.1489C60.7341 53.1489 58.441 53.1489 56.0859 53.1489C56.0859 55.5562 58.441 55.5562 60.7341 53.1489Z" fill="#D1B06F"/>
<path d="M32.9025 48.3981C32.9025 46.0542 32.9025 46.0542 30.6094 48.3981C30.6094 50.8053 30.6094 50.8053 32.9025 48.3981Z" fill="#D1B06F"/>
<path d="M30.6217 19.9546C30.6217 19.9546 30.6217 19.9546 28.3286 19.9546C28.2666 22.3618 28.2666 22.3618 30.6217 19.9546Z" fill="#D1B06F"/>
<path d="M53.7931 46.0539C53.7931 43.71 53.7931 43.71 51.5 43.71C53.7931 46.0539 51.438 46.0539 53.7931 46.0539Z" fill="#D1B06F"/>
<path d="M56.0859 34.2077H58.379C58.441 34.2077 56.0859 31.8639 56.0859 34.2077Z" fill="#D1B06F"/>
<path d="M127.981 43.7104C127.981 41.3665 132.629 41.3665 125.688 41.3665C127.981 41.3031 127.981 43.7104 127.981 43.7104Z" fill="#D1B06F"/>
<path d="M99.2306 15.7113C99.2306 13.3674 103.879 13.3674 96.9375 13.3674C99.2306 13.3041 99.2306 15.7113 99.2306 15.7113Z" fill="#D1B06F"/>
<path d="M49.1484 41.3027C51.443 43.71 49.1484 43.71 49.1484 41.3027Z" fill="#D1B06F"/>
</g>
</svg>
