<?xml version="1.0" encoding="utf-8"?>
<!-- Generator: Adobe Illustrator 25.0.0, SVG Export Plug-In . SVG Version: 6.00 Build 0)  -->
<svg version="1.1" id="Layer_1" xmlns="http://www.w3.org/2000/svg" xmlns:xlink="http://www.w3.org/1999/xlink" x="0px" y="0px"
	 viewBox="0 0 518.9 600" style="enable-background:new 0 0 518.9 600;" xml:space="preserve">
<g>
	<g id="XMLID_15_">
		<polygon id="XMLID_112_" style="fill:#15130F;" points="435.3,198.8 442,205.5 518.9,184.8 518.9,176.5 		"/>
		<polygon id="XMLID_113_" style="fill:#15130F;" points="501.5,265 508.2,271.7 518.9,268.8 518.9,260.4 		"/>
		<polygon id="XMLID_114_" style="fill:#15130F;" points="452.8,216.4 455.2,218.7 461.8,225.3 467.2,230.7 468.4,231.9 
			518.9,218.4 518.9,210 470.9,222.9 464.2,216.3 518.9,201.6 518.9,193.2 448.6,212.1 		"/>
		<polygon id="XMLID_115_" style="fill:#15130F;" points="497.4,249.4 490.7,242.8 518.9,235.2 518.9,226.8 475.1,238.6 
			479.7,243.2 481.7,245.2 488.3,251.8 494,257.5 494.9,258.4 518.9,252 518.9,243.6 		"/>
		<polygon id="XMLID_116_" style="fill:#15130F;" points="514.8,278.3 518.9,282.4 518.9,277.2 		"/>
		<polygon id="XMLID_118_" style="fill:#15130F;" points="478.4,180 478.3,180 478.3,180 458.3,159.9 455.9,169 462.7,175.8 
			444.4,180.7 454.1,144.3 471.8,162 471.8,162 487.4,177.6 496.4,175.2 489.8,168.5 456.5,135.3 449.9,128.6 447.5,137.7 
			435.3,183.2 432.9,192.2 441.9,189.8 		"/>
		<polygon id="XMLID_126_" style="fill:#15130F;" points="51.6,221.4 82.9,252.7 82.9,252.7 88.6,258.4 105.8,241.2 105.4,240.8 
			100.1,235.5 58.8,194.3 0,210 0,218.4 56.4,203.3 94.3,241.2 88.6,247 54,212.4 0,226.8 0,235.2 		"/>
		<polygon id="XMLID_127_" style="fill:#15130F;" points="48.5,264.2 48.5,264.2 54.2,269.9 54.2,269.9 59.9,264.2 65.7,258.4 
			71.4,252.7 65.7,247 49.2,230.4 0,243.6 0,252 46.7,239.5 59.9,252.7 54.2,258.4 44.3,248.5 0,260.4 0,268.8 41.9,257.6 		"/>
		<polygon id="XMLID_129_" style="fill:#15130F;" points="503.5,171.4 518.9,167.2 518.9,158.8 505.9,162.3 397.9,54.3 412.4,0 
			404,0 388.9,56.7 		"/>
		<polygon id="XMLID_130_" style="fill:#15130F;" points="489.2,76.8 489.2,76.8 483.5,71 466.3,88.2 466.6,88.6 472,94 
			513.2,135.2 518.9,133.7 518.9,125.3 515.6,126.1 477.7,88.2 483.5,82.5 518.1,117.1 518.9,116.9 518.9,106.5 		"/>
		<polygon id="XMLID_131_" style="fill:#15130F;" points="517.9,59.6 512.1,65.3 506.4,71 500.7,76.8 506.4,82.5 518.9,95 
			518.9,83.6 512.1,76.8 517.9,71 518.9,72.1 518.9,60.6 517.9,59.6 		"/>
		<polygon id="XMLID_132_" style="fill:#15130F;" points="497.4,27.6 518.9,49.2 518.9,37.7 506.4,25.2 513.2,0 504.8,0 		"/>
		<polygon id="XMLID_133_" style="fill:#15130F;" points="518.9,26.2 518.9,9.9 515.5,22.8 		"/>
		<polygon id="XMLID_134_" style="fill:#15130F;" points="425,47 455.2,77.1 460.9,82.9 466.6,77.1 472.4,71.4 478.1,65.7 
			478.1,65.7 472.4,59.9 472.4,59.9 452.2,39.7 462.8,0 454.4,0 443.1,42.2 466.6,65.7 460.9,71.4 434.1,44.6 446,0 437.6,0 		"/>
		<polygon id="XMLID_135_" style="fill:#15130F;" points="461.2,37.3 489.2,65.3 494.9,71 500.7,65.3 506.4,59.6 512.1,53.8 
			512.1,53.8 506.4,48.1 506.4,48.1 488.3,30 496.4,0 488,0 479.3,32.5 500.7,53.8 494.9,59.6 470.2,34.9 479.6,0 471.2,0 		"/>
		<polygon id="XMLID_137_" style="fill:#15130F;" points="508.4,153.3 518.9,150.4 518.9,142.1 510.8,144.2 416,49.4 429.2,0 
			420.8,0 406.9,51.8 		"/>
		<polygon id="XMLID_138_" style="fill:#15130F;" points="382.9,16.3 376.1,9.5 367,11.9 387.1,32 387.1,32 387.1,32 395.7,0 
			387.3,0 		"/>
		<polygon id="XMLID_139_" style="fill:#15130F;" points="335.7,3.5 342.3,10.2 375.6,43.4 382.2,50.1 384.7,41 369.1,25.4 
			369.1,25.4 351.4,7.7 380.3,0 349,0 344.8,1.1 		"/>
		<polygon id="XMLID_143_" style="fill:#15130F;" points="328,8.1 175.9,48.8 182.5,55.5 325.6,17.1 433.6,125.2 395.3,268.2 
			401.9,274.9 442.7,122.8 		"/>
		<polygon id="XMLID_144_" style="fill:#15130F;" points="323.2,26.2 189.1,62.1 193.4,66.4 195.7,68.7 202.4,75.3 207.7,80.7 
			209,81.9 315.9,53.3 353.8,91.2 348.1,97 313.5,62.3 215.6,88.6 220.2,93.2 222.2,95.2 228.8,101.8 234.5,107.5 235.5,108.4 
			306.2,89.5 319.4,102.7 313.7,108.4 303.8,98.5 242.1,115 248.7,121.7 301.3,107.6 307.9,114.2 307.9,114.2 313.7,119.9 
			313.7,119.9 319.4,114.2 325.1,108.4 330.9,102.7 325.1,97 308.6,80.4 237.9,99.4 231.3,92.8 311,71.4 342.3,102.7 342.3,102.7 
			348.1,108.4 365.3,91.2 364.9,90.8 359.5,85.5 318.3,44.3 211.4,72.9 204.8,66.3 320.7,35.2 415.5,130 384.5,246 377.8,239.3 
			406.5,132.4 376.3,102.3 370.6,96.6 364.9,102.3 359.1,108 353.4,113.8 353.4,113.8 359.1,119.5 359.1,119.5 379.4,139.7 
			358,219.5 351.4,212.9 370.3,142.1 342.3,114.2 336.6,108.4 330.9,114.2 325.1,119.9 319.4,125.6 319.4,125.6 325.1,131.4 
			325.1,131.4 343.2,149.4 331.5,193 324.9,186.4 334.1,151.8 298.9,116.6 255.3,128.3 259.5,132.4 261.9,134.9 268.6,141.5 
			273.8,146.8 275.2,148.2 291.6,143.7 307,159.1 305,166.5 290.9,152.4 281.8,154.8 302.6,175.6 303.9,176.9 309.2,182.2 
			316.1,156.7 294.1,134.7 277.6,139.1 271,132.5 296.5,125.7 325.1,154.3 315.8,188.8 318.4,191.4 322.5,195.4 329.1,202 
			332.8,205.7 335.7,208.7 337.9,200.6 338.5,200 338.1,199.6 352.2,147 330.9,125.6 336.6,119.9 361.3,144.6 342.3,215.3 
			344.2,217.2 348.9,221.9 355.6,228.5 358.6,231.5 362.2,235.1 388.4,137.3 364.9,113.8 370.6,108 397.4,134.9 368.8,241.8 
			371,243.9 375.4,248.4 382,255 385.3,258.3 388.7,261.6 424.6,127.6 		"/>
		<polygon id="XMLID_145_" style="fill:#15130F;" points="85.3,151.1 76.3,153.5 82.9,160.2 116.2,193.4 122.8,200.1 125.2,191 
			109.6,175.4 109.6,175.4 91.9,157.7 128.3,148 123.4,166.3 116.6,159.5 107.6,161.9 127.6,182 127.6,182 127.6,182 137.4,145.6 
			139.8,136.5 130.8,138.9 		"/>
		<polygon id="XMLID_146_" style="fill:#15130F;" points="173.4,42.2 182.5,39.8 218.9,30 218.9,30 218.9,30 198.8,9.9 196.4,19 
			203.2,25.8 184.9,30.7 193.1,0 184.7,0 175.9,33.2 		"/>
		<polygon id="XMLID_147_" style="fill:#15130F;" points="212.3,12 212.3,12 227.9,27.6 237,25.2 230.4,18.5 211.8,0 200.4,0 		"/>
		<polygon id="XMLID_148_" style="fill:#15130F;" points="130.1,124 0,158.8 0,167.2 136.7,130.6 		"/>
		<polygon id="XMLID_149_" style="fill:#15130F;" points="4,99 74.7,80.1 81.3,86.7 1.6,108.1 0,106.5 0,116.9 97,90.9 92.4,86.3 
			90.4,84.3 83.8,77.6 78.1,72 77.1,71 6.4,90 0,83.6 0,95 		"/>
		<polygon id="XMLID_150_" style="fill:#15130F;" points="8.8,80.9 70.5,64.4 63.9,57.8 11.3,71.9 4.7,65.3 4.7,65.3 0,60.6 0,72.1 
					"/>
		<polygon id="XMLID_151_" style="fill:#15130F;" points="13.7,62.8 57.3,51.2 53.1,47 50.7,44.5 44,37.9 38.8,32.7 37.4,31.3 
			20.9,35.7 5.6,20.3 7.6,12.9 21.7,27.1 30.8,24.6 10,3.9 8.7,2.6 6.1,0 2.6,0 0,9.9 0,26.2 18.5,44.8 35,40.3 41.6,47 16.1,53.8 
			0,37.7 0,49.2 		"/>
		<polygon id="XMLID_152_" style="fill:#15130F;" points="119.2,113.1 116.9,110.7 110.2,104.1 104.9,98.8 103.6,97.5 0,125.3 
			0,133.7 101.2,106.5 107.8,113.2 0,142.1 0,150.4 123.5,117.4 		"/>
		<polygon id="XMLID_153_" style="fill:#15130F;" points="142.4,124.9 175.9,0 167.5,0 135.8,118.2 		"/>
		<polygon id="XMLID_169_" style="fill:#15130F;" points="109.3,91.8 111.5,93.9 116,98.4 122.6,105 125.9,108.3 129.2,111.6 
			159.1,0 150.7,0 125,96 118.4,89.3 142.3,0 133.9,0 		"/>
		<polygon id="XMLID_170_" style="fill:#15130F;" points="65.6,4.3 56.4,38.8 59,41.4 63,45.4 69.6,52 73.3,55.7 76.2,58.7 
			78.4,50.6 79,50 78.7,49.6 92,0 83.6,0 72,43 65.4,36.4 74.7,1.8 72.8,0 61.4,0 		"/>
		<polygon id="XMLID_174_" style="fill:#15130F;" points="45.6,16.5 31.4,2.4 22.4,4.8 43.1,25.6 44.4,26.9 49.8,32.2 56.6,6.7 
			49.9,0 38.4,0 47.6,9.1 		"/>
		<polygon id="XMLID_175_" style="fill:#15130F;" points="82.9,65.3 84.8,67.2 89.5,71.9 96.1,78.5 99.1,81.5 102.7,85.1 125.5,0 
			117.1,0 98.5,69.5 91.9,62.9 108.8,0 100.4,0 		"/>
		<polygon id="XMLID_177_" style="fill:#15130F;" points="323.8,0 292.4,0 246.5,12.3 234.2,0 222.7,0 244.1,21.4 		"/>
		<polygon id="XMLID_178_" style="fill:#15130F;" points="261.1,0 245.6,0 248.9,3.3 		"/>
	</g>
	<g id="XMLID_16_">
		<polygon id="XMLID_91_" style="fill:#15130F;" points="429.6,504.6 404,600 412.4,600 436.2,511.2 		"/>
		<polygon id="XMLID_90_" style="fill:#15130F;" points="489.2,564.2 487.3,562.3 482.6,557.5 476,550.9 473,547.9 469.3,544.3 
			454.4,600 462.8,600 473.5,560 480.2,566.6 471.2,600 479.6,600 		"/>
		<polygon id="XMLID_89_" style="fill:#15130F;" points="513.1,588.1 509.1,584 502.4,577.4 498.8,573.7 495.8,570.8 493.7,578.8 
			493,579.5 493.4,579.8 488,600 496.4,600 500,586.4 506.6,593.1 504.8,600 513.2,600 515.7,590.6 		"/>
		<polygon id="XMLID_88_" style="fill:#15130F;" points="462.7,537.7 460.5,535.5 456.1,531.1 449.5,524.4 446.2,521.2 442.9,517.8 
			420.8,600 429.2,600 447,533.5 453.7,540.1 437.6,600 446,600 		"/>
		<polygon id="XMLID_87_" style="fill:#15130F;" points="435.3,498.8 442,505.5 518.9,484.8 518.9,476.5 		"/>
		<polygon id="XMLID_86_" style="fill:#15130F;" points="501.5,565 508.2,571.7 518.9,568.8 518.9,560.4 		"/>
		<polygon id="XMLID_85_" style="fill:#15130F;" points="452.8,516.4 455.2,518.7 461.8,525.3 467.2,530.7 468.4,531.9 518.9,518.4 
			518.9,510 470.9,522.9 464.2,516.3 518.9,501.6 518.9,493.2 448.6,512.1 		"/>
		<polygon id="XMLID_84_" style="fill:#15130F;" points="497.4,549.4 490.7,542.8 518.9,535.2 518.9,526.8 475.1,538.6 479.7,543.2 
			481.7,545.2 488.3,551.8 494,557.5 494.9,558.4 518.9,552 518.9,543.6 		"/>
		<polygon id="XMLID_83_" style="fill:#15130F;" points="514.8,578.3 518.9,582.4 518.9,577.2 		"/>
		<polygon id="XMLID_82_" style="fill:#15130F;" points="399.3,586.5 390.2,588.9 349,600 380.3,600 387.8,598 387.3,600 395.7,600 
			396.9,595.6 		"/>
		<polygon id="XMLID_81_" style="fill:#15130F;" points="478.4,480 478.3,480 478.3,480 458.3,459.9 455.9,469 462.7,475.8 
			444.4,480.7 454.1,444.3 471.8,462 471.8,462 487.4,477.6 496.4,475.2 489.8,468.5 456.5,435.3 449.9,428.6 447.5,437.7 
			435.3,483.2 432.9,492.2 441.9,489.8 		"/>
		<polygon id="XMLID_80_" style="fill:#15130F;" points="190.5,578.6 188,587.7 184.7,600 193.1,600 194.7,594.3 200.4,600 
			211.8,600 197.1,585.3 		"/>
		<polygon id="XMLID_79_" style="fill:#15130F;" points="2.6,600 6.1,600 3.4,597.3 		"/>
		<polygon id="XMLID_78_" style="fill:#15130F;" points="68.5,458.1 0,476.5 0,484.8 66.1,467.1 174.2,575.2 167.5,600 175.9,600 
			183.2,572.8 		"/>
		<polygon id="XMLID_75_" style="fill:#15130F;" points="39.5,566.6 0,577.2 0,582.4 0,582.4 2.5,584.9 9.1,591.5 14.3,596.8 
			15.7,598.2 32.2,593.7 38.4,600 49.9,600 34.6,584.7 18.2,589.1 11.5,582.5 37,575.7 61.4,600 72.8,600 		"/>
		<polygon id="XMLID_69_" style="fill:#15130F;" points="63.7,476.2 0,493.2 0,501.6 61.3,485.2 156.1,580 150.7,600 159.1,600 
			165.1,577.6 		"/>
		<polygon id="XMLID_68_" style="fill:#15130F;" points="110.9,592.1 82.9,564.2 77.1,558.4 71.4,564.2 65.7,569.9 59.9,575.6 
			59.9,575.6 65.7,581.4 65.7,581.4 83.7,599.4 83.6,600 92,600 92.8,597 71.4,575.6 77.1,569.9 101.8,594.6 100.4,600 108.8,600 		
			"/>
		<polygon id="XMLID_67_" style="fill:#15130F;" points="51.6,521.4 82.9,552.7 82.9,552.7 88.6,558.4 105.8,541.2 105.4,540.8 
			100.1,535.5 58.8,494.3 0,510 0,518.4 56.4,503.3 94.3,541.2 88.6,547 54,512.3 0,526.8 0,535.2 		"/>
		<polygon id="XMLID_66_" style="fill:#15130F;" points="48.5,564.2 48.5,564.2 54.2,569.9 54.2,569.9 59.9,564.2 65.7,558.4 
			71.4,552.7 65.7,547 49.2,530.4 0,543.6 0,552 46.7,539.5 59.9,552.7 54.2,558.4 44.3,548.5 0,560.4 0,568.8 41.9,557.6 		"/>
		<polygon id="XMLID_65_" style="fill:#15130F;" points="147,582.4 116.9,552.3 111.2,546.6 105.4,552.3 99.7,558 94,563.8 
			94,563.8 99.7,569.5 99.7,569.5 119.9,589.7 117.1,600 125.5,600 128.9,587.3 105.4,563.8 111.2,558 138,584.9 133.9,600 
			142.3,600 		"/>
		<polygon style="fill:#15130F;" points="518.9,458.8 518.9,467.2 503.5,471.4 388.9,356.7 404,300 429.6,204.6 436.2,211.2 
			412.4,300 397.9,354.3 505.9,462.3 		"/>
		<polygon id="XMLID_57_" style="fill:#15130F;" points="489.2,376.8 489.2,376.8 483.5,371 466.3,388.2 466.6,388.6 472,394 
			513.2,435.2 518.9,433.7 518.9,425.3 515.6,426.1 477.7,388.2 483.5,382.5 518.1,417.1 518.9,416.9 518.9,406.5 		"/>
		<polygon id="XMLID_55_" style="fill:#15130F;" points="517.9,359.6 512.1,365.3 506.4,371 500.7,376.8 506.4,382.5 518.9,395 
			518.9,383.6 512.1,376.8 517.9,371 518.9,372.1 518.9,360.6 517.9,359.6 		"/>
		<polygon style="fill:#15130F;" points="504.8,300 506.6,293.1 500,286.4 496.4,300 488.3,330 506.4,348.1 512.1,353.8 494.9,371 
			489.2,365.3 461.2,337.3 471.2,300 480.1,266.6 473.5,260 462.8,300 452.2,339.7 472.4,359.9 478.1,365.7 472.4,371.4 
			466.6,377.1 460.9,382.9 455.2,377.1 425,347 437.6,300 453.7,240.1 447,233.5 429.2,300 416,349.4 510.8,444.2 518.9,442.1 
			518.9,450.4 508.4,453.3 406.9,351.8 420.8,300 442.9,217.8 446.2,221.2 449.5,224.4 456.1,231.1 460.5,235.5 462.7,237.7 
			446,300 434.1,344.6 460.9,371.4 466.6,365.7 443.1,342.2 454.4,300 469.3,244.3 473,247.9 476,250.9 482.6,257.5 487.3,262.3 
			489.2,264.2 479.6,300 470.2,334.9 494.9,359.6 500.7,353.8 479.3,332.5 488,300 493.4,279.8 493,279.5 493.7,278.8 495.8,270.8 
			498.8,273.7 502.4,277.4 509.1,284 513.1,288.1 515.7,290.6 513.2,300 506.4,325.2 518.9,337.7 518.9,349.2 497.4,327.6 		"/>
		<polygon style="fill:#15130F;" points="518.9,309.9 518.9,326.2 515.5,322.8 		"/>
		<polygon style="fill:#15130F;" points="399.3,286.5 396.8,295.6 395.7,300 387.1,332 387.1,332 387.1,332 367,311.9 376.1,309.5 
			382.9,316.3 387.3,300 387.8,298 380.3,300 351.4,307.7 369.1,325.4 384.7,341 382.2,350.1 375.6,343.4 335.7,303.5 344.8,301.1 
			349,300 390.2,288.9 		"/>
		<polygon id="XMLID_36_" style="fill:#15130F;" points="138.4,504.3 176.8,361.2 170.2,354.6 129.4,506.7 222.7,600 234.2,600 		
			"/>
		<polygon id="XMLID_35_" style="fill:#15130F;" points="389.6,574 292.4,600 323.8,600 396.2,580.6 		"/>
		<polygon id="XMLID_34_" style="fill:#15130F;" points="382.9,567.4 378.7,563.1 376.3,560.7 369.7,554.1 364.3,548.8 363.1,547.5 
			256.2,576.1 218.3,538.2 224,532.5 258.6,567.1 356.5,540.9 351.9,536.3 349.8,534.3 343.2,527.6 337.5,522 336.6,521 265.9,540 
			252.7,526.8 258.4,521 268.3,530.9 330,514.4 323.4,507.8 270.7,521.9 264.1,515.3 264.1,515.3 258.4,509.6 258.4,509.6 
			252.7,515.3 246.9,521 241.2,526.8 246.9,532.5 263.4,549 334.2,530.1 340.8,536.7 261,558.1 229.7,526.8 229.7,526.8 224,521 
			206.8,538.2 207.2,538.6 212.5,544 253.8,585.2 360.6,556.5 367.3,563.2 251.3,594.2 156.5,499.4 187.6,383.5 194.2,390.1 
			165.6,497 195.7,527.1 201.4,532.9 207.2,527.1 212.9,521.4 218.6,515.7 218.6,515.7 212.9,509.9 212.9,509.9 192.7,489.7 
			214.1,410 220.7,416.6 201.7,487.3 229.7,515.3 235.5,521 241.2,515.3 246.9,509.6 252.7,503.8 252.7,503.8 246.9,498.1 
			246.9,498.1 228.9,480 240.6,436.4 247.2,443.1 237.9,477.6 273.1,512.8 316.7,501.2 312.6,497 310.1,494.5 303.5,487.9 
			298.3,482.7 296.9,481.3 280.4,485.7 265,470.3 267,462.9 281.2,477.1 290.2,474.6 269.5,453.9 268.2,452.6 262.8,447.3 
			256,472.8 278,494.8 294.4,490.3 301.1,497 275.6,503.8 247,475.2 256.2,440.6 253.6,438.1 249.6,434 243,427.4 239.3,423.7 
			236.4,420.8 234.2,428.8 233.6,429.5 233.9,429.8 219.8,482.5 241.2,503.8 235.5,509.6 210.8,484.9 229.7,414.2 227.8,412.3 
			223.1,407.5 216.5,400.9 213.5,397.9 209.9,394.3 183.7,492.2 207.2,515.7 201.4,521.4 174.6,494.6 203.3,387.7 201.1,385.5 
			196.6,381.1 190,374.4 186.7,371.2 183.4,367.8 147.5,501.8 245.6,600 261.1,600 		"/>
		<polygon id="XMLID_33_" style="fill:#15130F;" points="328,308.1 175.9,348.8 182.5,355.5 325.6,317.1 433.6,425.2 395.3,568.2 
			401.9,574.9 442.7,422.8 		"/>
		<polygon id="XMLID_32_" style="fill:#15130F;" points="323.2,326.2 189.1,362.1 193.4,366.4 195.7,368.7 202.4,375.3 207.7,380.7 
			209,381.9 315.9,353.3 353.8,391.2 348.1,397 313.5,362.4 215.6,388.6 220.2,393.2 222.2,395.2 228.8,401.8 234.5,407.5 
			235.5,408.4 306.2,389.5 319.4,402.7 313.7,408.4 303.8,398.5 242.1,415 248.7,421.7 301.3,407.6 307.9,414.2 307.9,414.2 
			313.7,419.9 313.7,419.9 319.4,414.2 325.1,408.4 330.9,402.7 325.1,397 308.6,380.4 237.9,399.4 231.3,392.8 311,371.4 
			342.3,402.7 342.3,402.7 348.1,408.4 365.3,391.2 364.9,390.8 359.5,385.5 318.3,344.3 211.4,372.9 204.8,366.3 320.7,335.2 
			415.5,430 384.5,546 377.8,539.3 406.5,432.4 376.3,402.3 370.6,396.6 364.9,402.3 359.1,408 353.4,413.8 353.4,413.8 
			359.1,419.5 359.1,419.5 379.4,439.7 358,519.5 351.4,512.9 370.3,442.1 342.3,414.2 336.6,408.4 330.9,414.2 325.1,419.9 
			319.4,425.6 319.4,425.6 325.1,431.4 325.1,431.4 343.2,449.4 331.5,493 324.9,486.4 334.1,451.8 298.9,416.6 255.3,428.3 
			259.5,432.4 261.9,434.9 268.6,441.5 273.8,446.8 275.2,448.2 291.6,443.7 307,459.1 305,466.5 290.9,452.4 281.8,454.8 
			302.6,475.6 303.9,476.9 309.2,482.2 316.1,456.7 294.1,434.7 277.6,439.1 271,432.5 296.5,425.7 325.1,454.3 315.8,488.8 
			318.4,491.4 322.5,495.4 329.1,502 332.8,505.7 335.7,508.7 337.9,500.6 338.5,500 338.1,499.6 352.2,447 330.9,425.6 
			336.6,419.9 361.3,444.6 342.3,515.3 344.2,517.2 348.9,521.9 355.6,528.5 358.6,531.5 362.2,535.1 388.4,437.3 364.9,413.8 
			370.6,408 397.4,434.9 368.8,541.8 371,543.9 375.4,548.4 382,555 385.3,558.3 388.7,561.6 424.6,427.6 		"/>
		<polygon id="XMLID_31_" style="fill:#15130F;" points="85.3,451.1 76.3,453.5 82.9,460.2 116.2,493.4 122.8,500.1 125.2,491 
			109.6,475.4 109.6,475.4 91.9,457.7 128.3,448 123.4,466.3 116.6,459.5 107.6,461.9 127.6,482 127.6,482 127.6,482 137.4,445.6 
			139.8,436.5 130.8,438.9 		"/>
		<polygon style="fill:#15130F;" points="193.1,300 184.9,330.7 203.2,325.8 196.4,319 198.8,309.9 218.9,330 218.9,330 218.9,330 
			182.5,339.8 173.4,342.2 175.9,333.2 184.7,300 188,287.7 190.5,278.6 197.1,285.3 211.8,300 230.4,318.5 237,325.2 227.9,327.6 
			212.3,312 194.7,294.3 		"/>
		<polygon id="XMLID_28_" style="fill:#15130F;" points="130.1,424 0,458.8 0,467.2 136.7,430.6 		"/>
		<polygon id="XMLID_27_" style="fill:#15130F;" points="4,399 74.7,380.1 81.3,386.7 1.6,408.1 0,406.5 0,416.9 97,390.9 
			92.4,386.3 90.4,384.3 83.8,377.6 78.1,372 77.1,371 6.4,390 0,383.6 0,395 		"/>
		<polygon id="XMLID_26_" style="fill:#15130F;" points="8.8,380.9 70.5,364.4 63.9,357.8 11.3,371.9 4.7,365.3 4.7,365.3 0,360.6 
			0,372.1 		"/>
		<polygon style="fill:#15130F;" points="57.3,351.2 13.7,362.8 0,349.2 0,337.7 16.1,353.8 41.6,347 35,340.3 18.5,344.7 0,326.2 
			0,309.9 2.6,300 3.4,297.3 6.1,300 8.7,302.6 10,303.9 30.8,324.6 21.7,327.1 7.6,312.9 5.6,320.3 21,335.7 37.4,331.3 
			38.8,332.7 44,337.9 50.7,344.5 53.1,347 		"/>
		<polygon id="XMLID_24_" style="fill:#15130F;" points="119.2,413.1 116.9,410.7 110.2,404.1 104.9,398.8 103.6,397.5 0,425.3 
			0,433.7 101.2,406.5 107.8,413.2 0,442.1 0,450.4 123.5,417.4 		"/>
		<polygon style="fill:#15130F;" points="183.2,272.8 175.9,300 142.4,424.9 135.8,418.2 167.5,300 174.2,275.2 66.1,167.1 0,184.9 
			0,176.5 68.5,158.1 		"/>
		<polygon style="fill:#15130F;" points="165.1,277.6 159.1,300 129.2,411.6 125.9,408.3 122.6,405 116,398.4 111.5,393.9 
			109.3,391.8 133.9,300 138,284.9 111.2,258 105.4,263.8 128.9,287.3 125.5,300 102.7,385.1 99.1,381.5 96.1,378.5 89.5,371.9 
			84.8,367.2 82.9,365.3 100.4,300 101.8,294.6 77.1,269.9 71.4,275.6 92.8,297 92,300 78.7,349.6 79,350 78.4,350.6 76.2,358.7 
			73.3,355.7 56.4,338.8 65.6,304.3 61.4,300 37,275.7 11.5,282.5 18.1,289.1 34.6,284.7 56.6,306.7 49.8,332.2 44.4,326.9 
			22.4,304.8 31.4,302.4 45.6,316.5 47.6,309.1 38.5,300 32.2,293.7 15.7,298.2 14.3,296.8 9.1,291.5 2.5,284.9 0,282.4 0,277.2 
			39.5,266.6 72.8,300 74.7,301.8 65.4,336.4 72,343 83.6,300 83.7,299.4 65.7,281.4 59.9,275.6 59.9,275.6 65.7,269.9 71.4,264.2 
			77.1,258.4 82.9,264.2 110.9,292.1 108.8,300 91.9,362.9 98.5,369.5 117.1,300 119.9,289.7 94,263.8 99.7,258 111.2,246.6 
			116.9,252.3 147,282.4 142.3,300 118.4,389.3 125,396 150.7,300 156.1,280 61.3,185.2 0,201.6 0,193.2 63.7,176.2 		"/>
		<polygon style="fill:#15130F;" points="396.2,280.6 323.8,300 244.1,321.4 129.4,206.7 170.2,54.6 176.8,61.2 138.4,204.3 
			234.2,300 246.5,312.3 292.4,300 389.6,274 		"/>
		<polygon style="fill:#15130F;" points="382.9,267.4 261.1,300 248.9,303.3 245.6,300 147.5,201.8 183.4,67.8 186.7,71.2 190,74.4 
			196.6,81.1 201.1,85.5 203.3,87.7 174.6,194.6 201.4,221.4 207.2,215.7 183.7,192.2 209.9,94.3 213.5,97.9 216.5,100.9 
			223.1,107.5 227.8,112.3 229.7,114.2 210.8,184.9 235.5,209.6 241.2,203.8 219.8,182.5 233.9,129.8 233.6,129.5 234.2,128.8 
			236.4,120.8 239.3,123.7 243,127.4 249.6,134 253.6,138.1 256.2,140.6 247,175.2 275.6,203.8 301.1,197 294.4,190.3 278,194.8 
			256,172.8 262.8,147.3 268.2,152.6 269.5,153.9 290.2,174.6 281.2,177.1 267,162.9 265,170.3 280.4,185.7 296.9,181.3 
			298.3,182.7 303.5,187.9 310.1,194.5 312.6,197 316.7,201.2 273.1,212.8 237.9,177.6 247.2,143.1 240.6,136.4 228.9,180 
			246.9,198.1 252.7,203.8 235.5,221 229.7,215.3 201.7,187.3 220.7,116.6 214.1,110 192.7,189.7 212.9,209.9 218.6,215.7 
			212.9,221.4 207.2,227.1 201.4,232.9 195.7,227.1 165.6,197 194.2,90.1 187.6,83.5 156.5,199.4 251.3,294.2 367.3,263.2 
			360.6,256.5 253.8,285.2 212.5,244 207.2,238.6 206.8,238.2 224,221 229.7,226.8 261,258.1 340.8,236.7 334.2,230.1 263.4,249 
			246.9,232.5 241.2,226.8 258.4,209.6 264.1,215.3 270.7,221.9 323.4,207.8 330,214.4 268.3,230.9 258.4,221 252.7,226.8 
			265.9,240 336.6,221 337.5,222 343.2,227.6 349.8,234.3 356.5,240.9 258.6,267.1 224,232.5 218.3,238.2 256.2,276.1 363.1,247.5 
			364.3,248.8 369.7,254.1 378.7,263.1 		"/>
	</g>
</g>
</svg>
