<svg width="640" height="69" viewBox="0 0 640 69" fill="none" xmlns="http://www.w3.org/2000/svg">
<path d="M447.986 0.0854935C449.268 0.598455 450.551 1.02592 451.833 1.53888C476.626 10.9432 514.329 23.5107 553.827 30.0082C583.151 34.9668 614.784 36.2493 639.833 36.1638V37.9591C629.745 38.0446 619.742 37.7881 609.996 37.3607C589.991 36.5057 571.011 34.5394 553.57 31.6326C536.13 28.7258 517.492 24.4511 498.256 18.8086C482.867 14.3629 467.051 8.97682 451.235 2.99227C448.67 2.05184 446.276 0.940429 443.882 0H447.986V0.0854935Z" fill="#0D123A"/>
<path d="M540.746 27.016L564.086 31.2906L558.272 63.2652L548.355 51.2961L534.933 58.9905L540.746 27.016Z" fill="#64D2D0"/>
<path d="M539.52 26.7825L565.007 31.4169L564.456 34.4451L538.969 29.8108L539.52 26.7825Z" fill="#64A3B5"/>
<path d="M458.416 3.07777L480.815 10.9432L470.043 41.5498L462.178 28.2129L447.644 33.7699L458.416 3.07777Z" fill="#CA4546"/>
<path d="M457.256 2.6515L481.708 11.2078L480.691 14.1129L456.24 5.55661L457.256 2.6515Z" fill="#A5201C"/>
<path d="M498.854 16.5003L521.766 22.6558L513.303 54.0319L504.411 41.2934L490.39 47.8764L498.854 16.5003Z" fill="#FFCB00"/>
<path d="M497.639 16.1825L522.653 22.9203L521.852 25.8922L496.839 19.1544L497.639 16.1825Z" fill="#FF9001"/>
<path d="M584.006 33.0005L607.602 34.5394L605.55 67.0269L594.351 56.2547L581.869 65.488L584.006 33.0005Z" fill="#CA4546"/>
<path d="M582.762 32.9555L608.614 34.5946L608.42 37.6662L582.567 36.0271L582.762 32.9555Z" fill="#A5201C"/>
<path d="M639.833 35.4798V58.0501V57.9646L627.95 68.0528L627.864 35.5653L639.833 35.4798Z" fill="#FFCB00"/>
<path d="M639.833 35.4798V38.5576L626.582 38.6431V35.5653L639.833 35.4798Z" fill="#FF9001"/>
<path d="M204.415 0.0854935C205.783 0.341974 208.519 1.02592 209.886 1.2824C235.877 6.41201 275.289 12.3111 315.214 12.0546C353.772 11.7981 393.099 5.38609 418.918 0.0854935H425.672C425.245 0.170987 420.457 1.45339 420.03 1.53888C403.529 4.95862 387.713 7.77991 371.811 9.74626C351.977 12.2256 332.912 13.5935 315.214 13.679C297.517 13.7645 278.452 12.7385 258.532 10.4302C242.63 8.63485 226.13 6.07004 209.545 2.82129C206.894 2.30832 204.757 1.88086 202.278 1.3679L196.806 0H204.415V0.0854935Z" fill="#0D123A"/>
<path d="M301.792 11.2851L325.559 11.4561L325.217 44.0291L313.504 33.8554L301.535 43.7727L301.792 11.2851Z" fill="#CA4546"/>
<path d="M300.595 11.2553L326.5 11.4878L326.472 14.5656L300.568 14.3331L300.595 11.2553Z" fill="#A5201C"/>
<path d="M216.64 1.70986L239.98 5.55707L234.68 37.7026L224.591 25.819L211.254 33.7699L216.64 1.70986Z" fill="#FFCB00"/>
<path d="M215.366 1.48009L240.915 5.75175L240.408 8.78735L214.858 4.51569L215.366 1.48009Z" fill="#FF9001"/>
<path d="M258.703 8.03638L282.385 10.1737L279.307 42.5758L268.45 31.5471L255.711 40.4384L258.703 8.03638Z" fill="#64D2D0"/>
<path d="M257.432 7.87309L283.228 10.2577L282.945 13.3226L257.149 10.9379L257.432 7.87309Z" fill="#64A3B5"/>
<path d="M345.479 9.83158L368.99 7.35227L372.495 39.6688L359.671 30.9485L348.899 42.1481L345.479 9.83158Z" fill="#FFCB00"/>
<path d="M369.976 7.23813L370.307 10.298L344.552 13.0802L344.222 10.0203L369.976 7.23813Z" fill="#FF9001"/>
<path d="M389.081 4.87319L412.506 0.769501L418.149 32.7441L404.726 24.9642L394.809 36.8478L389.081 4.87319Z" fill="#64D2D0"/>
<path d="M413.435 0.533255L413.971 3.56391L388.463 8.07907L387.927 5.04842L413.435 0.533255Z" fill="#64A3B5"/>
<path d="M85.3227 29.4953C123.88 22.5703 160.728 9.74626 185.35 0.085495H189.881C189.112 0.427469 188.257 0.769443 187.487 1.02592C171.757 7.26695 156.026 12.824 140.722 17.5262C121.572 23.4252 103.02 27.9564 85.5791 31.1196C68.1385 34.2829 49.1589 36.5057 29.2389 37.7026C19.6636 38.3011 9.91734 38.6431 9.15527e-05 38.7286V37.0187C24.4512 36.6767 55.058 34.9669 85.3227 29.4953Z" fill="#0D123A"/>
<path d="M98.3174 26.2465L75.0632 30.8632L81.3897 62.7523L91.0504 50.6122L104.644 58.1356L98.3174 26.2465Z" fill="#FFCB00"/>
<path d="M99.5442 25.9978L100.139 29.0173L74.7242 34.0247L74.1293 31.0051L99.5442 25.9978Z" fill="#FF9001"/>
<path d="M180.306 1.11141L157.992 9.2333L169.192 39.7545L176.886 26.332L191.506 31.6326L180.306 1.11141Z" fill="#CA4546"/>
<path d="M181.482 0.643348L182.541 3.53304L158.219 12.4468L157.16 9.5571L181.482 0.643348Z" fill="#A5201C"/>
<path d="M140.124 15.1323L117.297 21.6299L126.188 52.835L134.823 40.011L149.015 46.3375L140.124 15.1323Z" fill="#64D2D0"/>
<path d="M141.313 14.7569L142.156 17.7168L117.244 24.8198L116.4 21.8599L141.313 14.7569Z" fill="#64A3B5"/>
<path d="M55.229 32.9148L31.5473 34.7957L34.1121 67.1977L45.1407 56.2546L57.7083 65.3169L55.229 32.9148Z" fill="#CA4546"/>
<path d="M56.4334 32.7507L56.6731 35.8193L30.8463 37.8369L30.6066 34.7683L56.4334 32.7507Z" fill="#A5201C"/>
<path d="M0.000146866 36.1638L11.3708 36.0783L11.7128 68.5658L0.000146866 58.905V36.1638Z" fill="#64D2D0"/>
<path d="M-5.72205e-06 36.1638L12.5676 36.0783L12.6531 39.156L-5.72205e-06 39.2415V36.1638Z" fill="#64A3B5"/>
</svg>
