<svg width="14" height="15" viewBox="0 0 14 15" fill="none" xmlns="http://www.w3.org/2000/svg">
<path d="M3.42444 5.50366C3.18524 5.50366 2.99127 5.69763 2.99127 5.93683C2.99127 6.17604 3.18524 6.37 3.42444 6.37H8.06899C8.3082 6.37 8.50216 6.17604 8.50216 5.93683C8.50216 5.69763 8.3082 5.50366 8.06899 5.50366H3.42444Z" fill="white"/>
<path d="M5.51281 7.96265H3.42444C3.18524 7.96265 2.99127 8.15661 2.99127 8.39582C2.99127 8.63502 3.18524 8.82899 3.42444 8.82899H5.51281C5.75201 8.82899 5.94598 8.63502 5.94598 8.39582C5.94598 8.15661 5.75201 7.96265 5.51281 7.96265Z" fill="white"/>
<path d="M5.4488 13.4764H2.15189C1.44294 13.4764 0.866822 12.8979 0.866822 12.1865V3.41242C0.866822 2.70106 1.44294 2.12254 2.15189 2.12254H3.04663V2.23131C3.04663 2.86326 3.56066 3.3768 4.19261 3.3768H8.33179C8.96374 3.3768 9.47777 2.86326 9.47777 2.23131V2.12254H10.3682C11.0887 2.12254 11.6528 2.68903 11.6528 3.41242V5.88149C11.6528 6.1207 11.8467 6.31466 12.0859 6.31466C12.3251 6.31466 12.5191 6.1207 12.5191 5.88149V3.41242C12.5191 2.22361 11.5541 1.25619 10.3677 1.25619H9.47729V1.1455C9.47729 0.513548 8.96326 0 8.33131 0H4.19213C3.56018 0 3.04615 0.513548 3.04615 1.1455V1.25619H2.15189C0.965489 1.25619 0 2.22361 0 3.41242V12.1865C0 13.3753 0.965489 14.3428 2.15189 14.3428H5.4488C5.68801 14.3428 5.88197 14.1488 5.88197 13.9096C5.88197 13.6704 5.68801 13.4764 5.4488 13.4764ZM3.91345 1.1455C3.91345 0.991479 4.03859 0.866341 4.19261 0.866341H8.33179C8.48581 0.866341 8.61095 0.991479 8.61095 1.1455V2.23083C8.61095 2.38484 8.48581 2.50998 8.33179 2.50998H4.19261C4.03859 2.50998 3.91345 2.38484 3.91345 2.23083V1.1455Z" fill="white"/>
<path d="M13.4264 7.82515C12.8334 7.2317 11.7981 7.23122 11.2047 7.82515L7.36438 11.6654C7.24069 11.7891 7.15983 11.946 7.13047 12.1188L6.91966 13.3649C6.8749 13.632 6.96298 13.9064 7.15453 14.0975C7.31288 14.2558 7.52706 14.3424 7.74702 14.3424C7.7937 14.3424 7.83991 14.3386 7.88611 14.3309L9.13172 14.1206C9.3045 14.0912 9.46141 14.0103 9.5851 13.8866L13.4254 10.0463C14.0381 9.43413 14.0381 8.43784 13.4264 7.82515ZM8.98781 13.2667L7.77445 13.5088L7.97756 12.2781L10.7301 9.52558L11.7269 10.5224L8.98781 13.2667ZM12.8132 9.43365L12.3386 9.90918L11.3423 8.91289L11.8174 8.43784C11.9502 8.305 12.1273 8.23136 12.315 8.23136C12.5037 8.23136 12.6803 8.30452 12.8132 8.43784C13.088 8.71266 13.088 9.15883 12.8132 9.43365Z" fill="white"/>
</svg>
