<svg width="595" height="405" viewBox="0 0 595 405" fill="none" xmlns="http://www.w3.org/2000/svg">
<path d="M34.1 2.5L2.5 34.1" stroke="#CB9442" stroke-width="5" stroke-miterlimit="10" stroke-linecap="round"/>
<path d="M60.8 2.5L2.5 60.8" stroke="#CB9442" stroke-width="5" stroke-miterlimit="10" stroke-linecap="round"/>
<path d="M87.6 2.5L2.5 87.6" stroke="#CB9442" stroke-width="5" stroke-miterlimit="10" stroke-linecap="round"/>
<path d="M114.4 2.5L2.5 114.4" stroke="#CB9442" stroke-width="5" stroke-miterlimit="10" stroke-linecap="round"/>
<path d="M141.2 2.5L2.5 141.2" stroke="#CB9442" stroke-width="5" stroke-miterlimit="10" stroke-linecap="round"/>
<path d="M168 2.5L2.5 168" stroke="#CB9442" stroke-width="5" stroke-miterlimit="10" stroke-linecap="round"/>
<path d="M194.7 2.5L2.5 194.7" stroke="#CB9442" stroke-width="5" stroke-miterlimit="10" stroke-linecap="round"/>
<path d="M221.5 2.5L2.5 221.5" stroke="#CB9442" stroke-width="5" stroke-miterlimit="10" stroke-linecap="round"/>
<path d="M248.3 2.5L2.5 248.3" stroke="#CB9442" stroke-width="5" stroke-miterlimit="10" stroke-linecap="round"/>
<path d="M275.1 2.5L2.5 275.1" stroke="#CB9442" stroke-width="5" stroke-miterlimit="10" stroke-linecap="round"/>
<path d="M301.8 2.5L2.5 301.8" stroke="#CB9442" stroke-width="5" stroke-miterlimit="10" stroke-linecap="round"/>
<path d="M328.6 2.5L2.5 328.6" stroke="#CB9442" stroke-width="5" stroke-miterlimit="10" stroke-linecap="round"/>
<path d="M355.4 2.5L2.5 355.4" stroke="#CB9442" stroke-width="5" stroke-miterlimit="10" stroke-linecap="round"/>
<path d="M382.2 2.5L2.5 382.2" stroke="#CB9442" stroke-width="5" stroke-miterlimit="10" stroke-linecap="round"/>
<path d="M409 2.5L9.40002 402" stroke="#CB9442" stroke-width="5" stroke-miterlimit="10" stroke-linecap="round"/>
<path d="M435.7 2.5L35.7 402.5" stroke="#CB9442" stroke-width="5" stroke-miterlimit="10" stroke-linecap="round"/>
<path d="M462.5 2.5L62.5 402.5" stroke="#CB9442" stroke-width="5" stroke-miterlimit="10" stroke-linecap="round"/>
<path d="M489.3 2.5L89.3 402.5" stroke="#CB9442" stroke-width="5" stroke-miterlimit="10" stroke-linecap="round"/>
<path d="M516.1 2.5L116.1 402.5" stroke="#CB9442" stroke-width="5" stroke-miterlimit="10" stroke-linecap="round"/>
<path d="M542.8 2.5L142.8 402.5" stroke="#CB9442" stroke-width="5" stroke-miterlimit="10" stroke-linecap="round"/>
<path d="M569.6 2.5L169.6 402.5" stroke="#CB9442" stroke-width="5" stroke-miterlimit="10" stroke-linecap="round"/>
<path d="M591.2 7.60001L196.4 402.5" stroke="#CB9442" stroke-width="5" stroke-miterlimit="10" stroke-linecap="round"/>
<path d="M592.5 33.2L223.2 402.5" stroke="#CB9442" stroke-width="5" stroke-miterlimit="10" stroke-linecap="round"/>
<path d="M592.5 60L250 402.5" stroke="#CB9442" stroke-width="5" stroke-miterlimit="10" stroke-linecap="round"/>
<path d="M592.5 86.7L276.7 402.5" stroke="#CB9442" stroke-width="5" stroke-miterlimit="10" stroke-linecap="round"/>
<path d="M592.5 113.5L303.5 402.5" stroke="#CB9442" stroke-width="5" stroke-miterlimit="10" stroke-linecap="round"/>
<path d="M592.5 140.3L330.3 402.5" stroke="#CB9442" stroke-width="5" stroke-miterlimit="10" stroke-linecap="round"/>
<path d="M592.5 167.1L357.1 402.5" stroke="#CB9442" stroke-width="5" stroke-miterlimit="10" stroke-linecap="round"/>
<path d="M592.5 193.9L383.9 402.5" stroke="#CB9442" stroke-width="5" stroke-miterlimit="10" stroke-linecap="round"/>
<path d="M592.5 220.6L410.6 402.5" stroke="#CB9442" stroke-width="5" stroke-miterlimit="10" stroke-linecap="round"/>
<path d="M592.5 247.4L437.4 402.5" stroke="#CB9442" stroke-width="5" stroke-miterlimit="10" stroke-linecap="round"/>
<path d="M592.5 274.2L464.2 402.5" stroke="#CB9442" stroke-width="5" stroke-miterlimit="10" stroke-linecap="round"/>
<path d="M592.5 301L491 402.5" stroke="#CB9442" stroke-width="5" stroke-miterlimit="10" stroke-linecap="round"/>
<path d="M592.5 327.7L517.7 402.5" stroke="#CB9442" stroke-width="5" stroke-miterlimit="10" stroke-linecap="round"/>
<path d="M592.5 354.5L544.5 402.5" stroke="#CB9442" stroke-width="5" stroke-miterlimit="10" stroke-linecap="round"/>
<path d="M592.5 381.3L571.3 402.5" stroke="#CB9442" stroke-width="5" stroke-miterlimit="10" stroke-linecap="round"/>
</svg>
