<svg width="119" height="19" viewBox="0 0 119 19" fill="none" xmlns="http://www.w3.org/2000/svg">
<path d="M33.9606 0.0782976C35.998 0.048152 36.6127 3.97581 37.9076 5.47304C39.358 5.55521 41.2161 5.77242 42.6156 6.13803C43.0415 6.24926 43.6361 6.48045 43.8341 6.91246C44.3066 7.94313 40.5308 10.6091 39.9947 11.6363C39.5005 12.584 41.0853 16.6042 40.4996 17.6175C40.3716 17.8394 40.192 17.9731 39.946 18.0342C38.9331 18.2854 35.6596 16.2803 34.657 15.7253C33.3731 15.5058 29.9164 18.7561 28.6176 17.977C27.3633 17.2249 29.1466 12.9488 28.8608 11.903C28.4415 10.3687 25.5368 9.02451 25.0034 7.4407C24.8824 7.05808 25.1038 6.69757 25.277 6.38715C26.5295 5.82753 28.9332 5.86378 30.1136 5.55444C32.0334 5.05132 32.1407 1.99138 33.8846 0.157061L33.9606 0.0782976Z" fill="#CA9342"/>
<path d="M59.1942 0C59.6735 0.106669 59.7848 0.196026 60.1944 0.461075C60.9558 2.02571 61.82 3.66176 62.6517 5.21565C63.0057 5.87615 70.2862 5.54872 68.6445 7.76984C67.7331 9.00349 65.8471 10.486 64.7627 11.8194C64.9118 13.5516 65.6392 15.4848 65.5634 17.2533C65.5418 17.7658 64.9628 18.0217 64.5524 18.2536C63.4587 17.7991 60.6234 16.332 59.6162 15.7028C58.6941 15.7082 55.5267 17.7357 54.0779 18.2265C53.1766 17.8292 53.0586 17.5107 53.1574 16.5113C53.3155 14.9128 53.7215 13.3298 53.9089 11.7351C52.9871 10.5765 51.14 8.93624 50.0137 7.79689C49.2051 5.31552 54.4583 6.10549 56.0782 5.22068C56.1851 4.95316 56.6803 3.99012 56.8416 3.69315C57.3999 2.66542 58.1237 0.533345 59.1942 0Z" fill="#CA9342"/>
<path d="M83.8955 0.106514C85.3394 -0.00541146 85.8936 1.80618 86.4246 2.91322C86.8297 3.77129 87.261 4.6166 87.7186 5.44808L88.2194 5.5066C89.3812 5.64295 93.1108 5.91039 93.6333 6.74604C94.4441 8.04022 90.3412 10.5539 89.9161 11.6631C89.4144 12.9733 90.8151 15.6825 90.5105 17.1705C90.3853 17.7796 90.0073 17.9635 89.5412 18.258C87.8098 17.4943 86.2028 16.566 84.5146 15.7018C83.4116 15.6122 80.1636 18.3206 78.8496 18.0988C78.4422 18.03 78.266 17.6737 78.0658 17.3513C78.0588 15.9229 78.5937 13.3234 78.9215 11.9035C78.0526 10.3862 76.0012 9.12623 75.0597 7.85316C73.3484 5.53983 80.0569 5.93698 80.7209 5.36398C82.0442 4.22231 82.5041 1.12343 83.8955 0.106514Z" fill="#CA9342"/>
<path d="M108.866 0.0722658C110.989 0.0713382 111.441 3.96584 112.555 5.19687C113.75 5.93968 117.048 5.68669 118.159 6.3761C120.102 7.58208 115.596 10.3114 114.717 11.8125C114.88 13.4651 115.545 15.7345 115.458 17.3856C115.438 17.7612 114.844 18.0333 114.51 18.2111C113.354 17.8123 110.799 16.4155 109.615 15.7608C108.494 15.4655 105.282 18.2126 103.87 18.1191C103.22 18.0758 102.957 17.2789 103.029 16.7317C103.245 15.0992 103.571 13.4643 103.85 11.8372C103.179 10.6252 99.1322 7.92063 99.9793 6.61649C100.387 5.99023 104.734 5.58891 105.657 5.46006C107.052 3.89117 107.551 1.26201 108.866 0.0722658Z" fill="#CA9342"/>
<path d="M9.01126 0.0546875C9.27005 0.0600982 9.55064 0.0491201 9.7826 0.182997C10.827 0.609055 12.137 4.93279 12.8115 5.28688C14.0409 5.93215 17.0464 5.57373 18.6245 6.5472C18.716 6.75915 18.8821 7.10165 18.8376 7.33508C18.5926 8.61511 15.5015 10.5406 15.0585 11.5586C14.5391 12.7512 15.9917 16.0634 15.5559 17.4362C15.4197 17.8652 15.0177 18.0275 14.6526 18.2138C13.2885 17.7206 11.0687 16.4483 9.65939 15.731C8.11068 15.3499 1.83189 21.7532 3.45009 14.9782C3.59 14.3922 3.95422 12.5178 3.93552 12.0556C3.8947 11.0438 1.70559 9.59137 1.03898 8.79212C0.215005 7.84988 -0.534846 7.38532 0.514762 6.31732C1.32328 6.00496 4.68946 5.62892 5.80531 5.44008C7.22981 3.81006 7.70472 1.27551 9.01126 0.0546875Z" fill="#CA9342"/>
</svg>
