<svg width="63" height="49" viewBox="0 0 63 49" fill="none" xmlns="http://www.w3.org/2000/svg">
<path d="M31.7812 1.5L31.5303 3.2168L30.0127 13.584L29.8252 14.8662H28.5293C24.8272 14.8662 22.6933 15.7598 21.5986 17.0977L21.5762 17.125L21.5527 17.1514C20.5112 18.3086 19.5701 20.6626 18.9014 24.5088H28.2578L27.9883 26.2402L24.9541 45.709L24.7559 46.9785H1.74902L2.01465 45.25L4.54297 28.8154C5.90911 19.7675 8.41291 12.8767 12.21 8.35645L12.2207 8.34277L12.2324 8.33008C16.3099 3.69679 22.3447 1.50001 30.0459 1.5H31.7812ZM60.8584 1.5L60.6074 3.2168L59.0908 13.584L58.9023 14.8662H57.6064C53.9043 14.8662 51.7705 15.7597 50.6758 17.0977L50.6533 17.125L50.6299 17.1514C49.5884 18.3086 48.6472 20.6626 47.9785 24.5088H57.335L57.0654 26.2402L54.0312 45.709L53.834 46.9785H30.8262L31.0918 45.25L33.6201 28.8154C34.9863 19.7675 37.4901 12.8767 41.2871 8.35645L41.2979 8.34277L41.3096 8.33008C45.387 3.69676 51.4219 1.50005 59.123 1.5H60.8584Z" fill="#CB9442" stroke="#FEF2D1" stroke-width="3"/>
</svg>
