<svg width="32" height="41" viewBox="0 0 32 41" fill="none" xmlns="http://www.w3.org/2000/svg">
<circle cx="16.0016" cy="37.8668" r="2.4" fill="#E1AA4C"/>
<circle cx="16.0004" cy="11.9999" r="5.6" fill="white"/>
<path d="M16.0625 0C9.40059 0 4 5.40056 4 12.0625C4 14.2904 4.43608 16.5915 5.68749 18.25L16.0625 32L26.4375 18.25C27.5742 16.7436 28.125 14.0805 28.125 12.0625C28.125 5.40056 22.7244 0 16.0625 0ZM16.0625 6.98632C18.8656 6.98632 21.1387 9.25941 21.1387 12.0625C21.1387 14.8656 18.8656 17.1387 16.0625 17.1387C13.2594 17.1387 10.9863 14.8656 10.9863 12.0625C10.9863 9.25941 13.2594 6.98632 16.0625 6.98632Z" fill="#BE8F3F"/>
</svg>
