
<svg width="285" height="205"  id="Layer_1" xmlns="http://www.w3.org/2000/svg"  x="0px" y="0px"
	 viewBox="0 0 285 205" style="enable-background:new 0 0 285 205;" xml:space="preserve">
<style type="text/css">
	.st0{fill:#1A171B;}
	.st1{fill:#1A171B;stroke:#1A171B;stroke-width:6.6134;stroke-miterlimit:10;}
	.st2{fill:url(#SVGID_1_);}
	.st3{fill:#EFE285;}
	.st4{fill:#B78612;}
	.st5{fill:url(#SVGID_2_);}
	.st6{fill:url(#SVGID_3_);}
	.st7{fill:#E4C96E;}
</style>
<g>
	<g>
		<g>
			<path class="st0" d="M262.8,130.8L145.4,192c-0.9,0.5-2,0.8-3,0.8c-1,0-2.1-0.2-3-0.7L22.2,132.3c-3.1-1.6-4.4-5.4-3-8.6
				l45.5-98.1c1.1-2.3,3.4-3.8,6-3.8h144.7c2.5,0,4.9,1.5,6,3.8l44.4,96.6C267.2,125.4,266,129.2,262.8,130.8z"/>
			<path class="st1" d="M87.7,7.8c-0.2-0.9-0.9-1.6-1.8-1.9c-0.8-0.3-1.8-0.2-2.5,0.4c-0.4,0.3-9.5,7.3-16.8,16.4
				C60,31,56,37.9,55.8,38.2c-0.2,0.3-0.3,0.7-0.3,1c0,0.3-3.5,26.6-7.6,47.7C43.8,108,35.1,126.3,35,126.5c-0.5,0.9-0.3,2,0.3,2.8
				c0.2,0.3,4.8,6.4,9.4,11.4c4.5,5.1,14.5,13.7,15,14.1c0.8,0.6,1.8,0.8,2.7,0.5c0.9-0.3,1.6-1.1,1.8-2.1l3.4-20
				c1.3,0.4,2.8,0.9,4.6,1.4c2.6,0.8,5.1,1.4,6.7,1.8l3.6,32c0.1,0.9,0.7,1.8,1.5,2.1c0.2,0.1,4,1.9,11,4.4
				c7.2,2.6,15.7,3.5,16.1,3.5c0.1,0,0.2,0,0.3,0c0.7,0,1.4-0.3,1.8-0.7c0.6-0.5,0.9-1.3,0.9-2.1c0-0.4-1.5-39.9-8.3-82.4
				C98.9,50.7,87.8,8.2,87.7,7.8z M76.6,109.9l-5.6-0.3c0.6-3.9,1.8-11.1,2.7-17.1c0.2-1.2,0.4-2.8,0.5-4.5
				C75.3,96.7,76.2,105.4,76.6,109.9z"/>
			<path class="st1" d="M251.3,126.5c-0.1-0.2-8.8-18.4-12.9-39.6c-4.1-21.1-7.6-47.4-7.6-47.7c-0.1-0.4-0.2-0.7-0.3-1
				c-0.2-0.3-4.2-7.2-10.8-15.5c-7.3-9.2-16.4-16.1-16.8-16.4c-0.7-0.5-1.7-0.7-2.5-0.4c-0.8,0.3-1.5,1-1.8,1.9
				c-0.1,0.4-11.2,42.9-18,85.4c-6.8,42.5-8.3,82-8.3,82.4c0,0.8,0.3,1.5,0.9,2.1c0.5,0.5,1.2,0.7,1.8,0.7c0.1,0,0.2,0,0.3,0
				c0.4,0,8.8-1,16.1-3.5c7.1-2.5,10.9-4.3,11-4.4c0.8-0.4,1.4-1.2,1.5-2.1l3.5-32c1.6-0.4,4.1-1,6.7-1.8c1.8-0.5,3.4-1,4.6-1.4
				l3.4,20c0.2,1,0.8,1.8,1.8,2.1c0.9,0.3,2,0.2,2.7-0.5c0.4-0.4,10.4-8.9,15-14.1c4.5-5,9.1-11.2,9.4-11.4
				C251.6,128.5,251.7,127.4,251.3,126.5z M215.2,109.6l-5.6,0.3c0.4-4.5,1.2-13.2,2.4-21.9c0.2,1.7,0.3,3.2,0.5,4.5
				C213.4,98.5,214.6,105.6,215.2,109.6z"/>
			<path class="st1" d="M142.6,6.9c-12,0-20,8.8-20.4,9.1c-0.5,0.5-0.7,1.3-0.7,2c0,0.5,3.5,47.8,3.5,81.3c0,20.8-1.7,90.3-1.8,91
				c0,0.7,0.2,1.4,0.8,1.9c0.3,0.3,6.8,7,18.2,7c11.4,0,17.9-6.8,18.2-7.1c0.5-0.5,0.8-1.2,0.7-1.9c0-0.6-1.6-58.4-1.6-90.9
				c0-32.4,3.3-80.5,3.4-81c0.1-0.7-0.2-1.3-0.6-1.8C162.2,16.2,154.8,6.9,142.6,6.9z"/>
			
				<linearGradient id="SVGID_1_" gradientUnits="userSpaceOnUse" x1="143.1178" y1="10.7285" x2="143.1178" y2="198.0332" gradientTransform="matrix(1 0 0 -1 0 207)">
				<stop  offset="8.582770e-02" style="stop-color:#905E36"/>
				<stop  offset="0.2669" style="stop-color:#CF9A41"/>
				<stop  offset="0.331" style="stop-color:#D2A248"/>
				<stop  offset="0.4294" style="stop-color:#DCB75D"/>
				<stop  offset="0.5491" style="stop-color:#EBDA7D"/>
				<stop  offset="0.5737" style="stop-color:#EFE285"/>
				<stop  offset="0.6506" style="stop-color:#E4C96E"/>
				<stop  offset="0.7733" style="stop-color:#CF9A41"/>
				<stop  offset="0.9729" style="stop-color:#7C4D25"/>
			</linearGradient>
			<path class="st2" d="M142.3,196.3c-9.4,0-15.1-5.2-15.9-5.9c0.1-3.4,1.8-70.6,1.8-90.9c0-32.7-3.3-78.6-3.5-81.4
				c0.8-0.9,8-8,18-8c10.1,0,16.6,7.5,17.3,8.4c-0.2,2.7-3.4,49.4-3.4,81.1c0,31.7,1.5,87.7,1.6,90.8
				C157.5,191,151.8,196.3,142.3,196.3z M110.9,175.3c-1.7-0.2-8.9-1.2-15-3.4c-6.1-2.2-9.8-3.9-10.6-4.2l-3.8-33.9l-0.2-0.1
				c0,0-4.2-0.9-8.4-2.1c-4.2-1.2-7.5-2.3-7.5-2.3l-0.3-0.1l-3.9,22.9c-1.9-1.7-10.4-9-14.3-13.4c-4.1-4.5-8.3-10.1-9.1-11.1
				c0.9-1.9,9.1-19.7,13-40.2c4-20.7,7.4-46.4,7.6-47.8c0.4-0.7,4.4-7.3,10.5-15C75.2,16.7,83,10.3,84.8,9
				c1.2,4.6,11.4,44.7,17.8,84.6C109.1,133.8,110.7,171.3,110.9,175.3z M72.7,59.4c0,0.2-0.7,23.9-2,32.7c-1.3,8.7-3.1,19.9-3.2,20
				l-0.1,0.3l12.4,0.7l0-0.3c0-0.2-1.2-14.5-3-28c-1.8-13.4-3.5-25.3-3.6-25.4L72.7,59.4z M175.3,175.3c0.2-4,1.8-41.5,8.2-81.7
				c6.4-40,16.6-80,17.8-84.6c1.8,1.4,9.6,7.7,15.9,15.6c6.2,7.7,10.1,14.4,10.5,15c0.2,1.4,3.6,27.1,7.6,47.8
				c4,20.5,12.1,38.3,13,40.2c-0.7,1-5,6.6-9.1,11.1c-3.9,4.4-12.3,11.7-14.3,13.4l-3.9-22.9l-0.3,0.1c0,0-3.3,1.1-7.5,2.3
				c-4.2,1.2-8.4,2.1-8.4,2.1l-0.2,0.1l-3.8,33.9c-0.8,0.4-4.4,2-10.6,4.2C184.3,174.2,177,175.1,175.3,175.3z M213,59.3
				c0,0.1-1.7,12-3.6,25.4c-1.8,13.4-3,27.8-3,28l0,0.3l12.4-0.7l-0.1-0.3c0-0.1-1.9-11.3-3.2-20c-1.3-8.7-2-32.4-2-32.7L213,59.3z"
				/>
			<path class="st3" d="M201.6,9.5c2.3,1.8,9.6,7.9,15.5,15.3c6,7.5,9.9,14.1,10.4,14.9c0.3,2,3.7,27.3,7.6,47.8
				c3.9,20,11.7,37.5,13,40.1c-1,1.3-5.1,6.6-9,10.9c-3.7,4.1-11.4,10.9-13.8,13l-3.8-22l-0.1-0.7l-0.7,0.2c0,0-3.3,1.1-7.5,2.3
				c-4.2,1.2-8.4,2.1-8.4,2.1l-0.4,0.1l-0.1,0.4l-3.7,33.5c-1,0.5-4.6,2.1-10.4,4.1c-5.7,2.1-12.4,3-14.6,3.3
				c0.2-5.5,2-42.1,8.2-81.3C190.1,54.8,199.9,15.9,201.6,9.5z M206,113.4l0.7,0l11.7-0.7l0.7,0L219,112c0-0.1-1.9-11.3-3.2-20
				c-1.3-8.7-2-32.4-2-32.6l-1.2-0.1c0,0.1-1.7,12-3.6,25.5c-1.8,13.4-3,27.8-3,28L206,113.4z M84.7,9.5
				c1.6,6.3,11.5,45.3,17.7,84.1c6.2,39.2,8,75.8,8.2,81.3c-2.1-0.3-8.9-1.2-14.6-3.3c-5.8-2.1-9.4-3.7-10.4-4.1L81.9,134l-0.1-0.4
				l-0.4-0.1c0,0-4.1-0.9-8.4-2.1c-4.2-1.2-7.5-2.3-7.5-2.3l-0.7-0.2l-0.1,0.7l-3.8,22c-2.5-2.2-10.2-8.9-13.8-13
				c-3.9-4.3-8-9.6-9-10.9c1.2-2.6,9.1-20,13-40.1c4-20.5,7.4-45.8,7.6-47.8c0.5-0.9,4.4-7.4,10.4-14.9
				C75.1,17.4,82.4,11.4,84.7,9.5z M80.2,113.4l-0.1-0.7c0-0.2-1.2-14.6-3-28c-1.8-13.4-3.5-25.3-3.6-25.5l-1.2,0.1
				c0,0.2-0.7,23.9-2,32.6c-1.3,8.7-3.1,19.9-3.2,20l-0.1,0.7l0.7,0l11.7,0.7L80.2,113.4z M142.6,10.2c9.7,0,16,7,17,8.2
				c-0.2,3.7-3.4,49.7-3.4,81c0,31.4,1.5,86.4,1.6,90.7c-1,1-6.6,5.9-15.6,5.9c-9,0-14.6-4.8-15.6-5.7c0.1-4.7,1.7-70.7,1.7-90.8
				c0-32.3-3.2-77.4-3.5-81.3C126.1,16.9,133,10.2,142.6,10.2z M201.2,8.5c0,0-11.1,42.3-17.9,85.1c-6.8,42.8-8.3,82.1-8.3,82.1
				s8.4-0.9,15.4-3.4c7-2.5,10.8-4.3,10.8-4.3l3.8-33.9c0,0,4.1-0.9,8.4-2.1c4.3-1.2,7.5-2.3,7.5-2.3l3.9,23.1
				c0,0,10.2-8.8,14.7-13.8c4.5-5,9.2-11.2,9.2-11.2s-8.9-18.5-13.1-40.3c-4.1-21.4-7.6-47.8-7.6-47.8s-4-6.9-10.6-15.1
				C210.4,15.4,201.2,8.5,201.2,8.5z M206.7,112.8c0,0,1.2-14.4,3-28c1.8-13.6,3.6-25.4,3.6-25.4s0.7,23.9,2,32.7
				c1.3,8.8,3.2,20,3.2,20L206.7,112.8z M85,8.5c0,0-9.1,7-16.3,15.9c-6.5,8.2-10.6,15.1-10.6,15.1S54.7,66,50.5,87.4
				c-4.2,21.8-13.1,40.3-13.1,40.3s4.7,6.2,9.2,11.2s14.7,13.8,14.7,13.8l3.9-23.1c0,0,3.2,1.1,7.5,2.3c4.3,1.2,8.4,2.1,8.4,2.1
				l3.8,33.9c0,0,3.8,1.8,10.8,4.3c7,2.5,15.4,3.4,15.4,3.4s-1.4-39.2-8.3-82.1S85,8.5,85,8.5z M79.6,112.8l-11.7-0.7
				c0,0,1.8-11.2,3.2-20c1.3-8.8,2-32.7,2-32.7s1.7,11.9,3.6,25.4C78.4,98.4,79.6,112.8,79.6,112.8z M142.6,9.6
				c-11,0-18.3,8.2-18.3,8.2s3.5,47.6,3.5,81.5c0,21.1-1.8,91.1-1.8,91.1s5.8,6.1,16.2,6.1c10.4,0,16.2-6.3,16.2-6.3
				s-1.6-58.1-1.6-90.9c0-32.8,3.4-81.2,3.4-81.2S153.6,9.6,142.6,9.6z"/>
			<path class="st4" d="M25.5,126.4l45.3-97.7h144.4l44.3,96.2l-117.1,61L25.5,126.4z"/>
			<path class="st3" d="M215,28.9l44.1,95.8l-116.8,60.9L25.9,126.2L71,28.9H215z M215.4,28.4H70.7l-45.5,98.1l117.2,59.7
				l117.5-61.2L215.4,28.4z"/>
			
				<linearGradient id="SVGID_2_" gradientUnits="userSpaceOnUse" x1="142.4977" y1="26.1481" x2="142.4977" y2="173.7242" gradientTransform="matrix(1 0 0 -1 0 207)">
				<stop  offset="0" style="stop-color:#8A0E13"/>
				<stop  offset="0.9729" style="stop-color:#E1001A"/>
			</linearGradient>
			<path class="st5" d="M31.9,124.6l110.4,56.2l110.8-57.7l-41.3-89.8H74.3L31.9,124.6z"/>
			<path class="st0" d="M108.3,92.7C101.5,50,90.3,7.5,90.2,7c-0.5-1.9-1.9-3.5-3.8-4.1c-1.9-0.7-4-0.3-5.6,0.9
				c-0.4,0.3-9.8,7.5-17.4,17c-6.8,8.4-10.9,15.6-11,15.8c-0.4,0.7-0.6,1.4-0.8,2.2c0,0.3-3.5,26.6-7.6,47.5
				c-4,20.6-12.5,38.6-12.6,38.8c-1,2-0.7,4.4,0.6,6.2c0.1,0.1,4.8,6.4,9.5,11.6c4.7,5.2,14.8,14,15.3,14.4c1.6,1.4,3.9,1.8,5.9,1.1
				c2-0.7,3.5-2.5,3.9-4.6l2.8-16.4c0.4,0.1,0.8,0.2,1.1,0.3c1.6,0.5,3.2,0.9,4.6,1.2l3.3,29.7c0.2,2.1,1.5,3.8,3.4,4.7
				c0.2,0.1,4.1,2,11.3,4.5c7.6,2.7,16.4,3.7,16.8,3.7c0.2,0,0.4,0,0.6,0c1.5,0,3-0.6,4.1-1.6c1.3-1.2,2-2.8,1.9-4.6
				C116.6,175,115.1,135.5,108.3,92.7z"/>
			<path class="st0" d="M253.6,125.1c-0.1-0.3-8.6-18.2-12.6-38.8c-4-20.7-7.4-46.4-7.6-47.5c-0.1-0.8-0.4-1.5-0.8-2.2
				c-0.2-0.3-4.3-7.4-11-15.8c-7.6-9.5-17-16.7-17.4-17c-1.6-1.2-3.7-1.5-5.6-0.9c-1.9,0.7-3.3,2.2-3.8,4.1
				c-0.5,1.8-11.3,43.4-18.1,85.7c-6.8,42.6-8.3,82.4-8.3,82.8c-0.1,1.7,0.6,3.4,1.9,4.6c1.1,1,2.6,1.6,4.1,1.6c0.2,0,0.4,0,0.6,0
				c0.4,0,9.2-1,16.8-3.7c7.2-2.6,11.1-4.4,11.3-4.5c1.9-0.9,3.1-2.7,3.4-4.7l3.3-29.7c1.4-0.4,3-0.8,4.6-1.2
				c0.4-0.1,0.7-0.2,1.1-0.3l2.8,16.4c0.4,2.1,1.8,3.9,3.9,4.6c2,0.7,4.3,0.3,5.9-1.1c0.4-0.4,10.6-9.1,15.3-14.4
				c4.6-5.2,9.3-11.4,9.5-11.6C254.3,129.5,254.6,127.1,253.6,125.1z"/>
			<path class="st0" d="M142,3.6c-13.5,0-22.4,9.8-22.8,10.2c-1.1,1.2-1.6,2.8-1.5,4.4c0,0.5,3.5,47.7,3.5,81.1
				c0,20.8-1.7,90.2-1.8,90.9c0,1.6,0.5,3.1,1.6,4.3c0.8,0.8,7.9,8,20.5,8c12.8,0,20.3-7.8,20.6-8.1c1.1-1.1,1.7-2.7,1.6-4.3
				c0-0.6-1.6-58.4-1.6-90.8c0-32.4,3.3-80.3,3.4-80.8c0.1-1.5-0.3-2.9-1.2-4.1C164.1,14.1,155.8,3.6,142,3.6z"/>
			
				<linearGradient id="SVGID_3_" gradientUnits="userSpaceOnUse" x1="142.5125" y1="10.7285" x2="142.5125" y2="197.9727" gradientTransform="matrix(1 0 0 -1 0 207)">
				<stop  offset="8.582770e-02" style="stop-color:#905E36"/>
				<stop  offset="0.2669" style="stop-color:#CF9A41"/>
				<stop  offset="0.331" style="stop-color:#D2A248"/>
				<stop  offset="0.4294" style="stop-color:#DCB75D"/>
				<stop  offset="0.5491" style="stop-color:#EBDA7D"/>
				<stop  offset="0.5737" style="stop-color:#EFE285"/>
				<stop  offset="0.6506" style="stop-color:#E4C96E"/>
				<stop  offset="0.7733" style="stop-color:#CF9A41"/>
				<stop  offset="0.9729" style="stop-color:#7C4D25"/>
			</linearGradient>
			<path class="st6" d="M141.7,196.3c-9.4,0-15.1-5.2-15.9-5.9c0.1-3.4,1.8-70.5,1.8-90.9c0-32.7-3.3-78.6-3.5-81.4
				c0.8-0.9,8-8,18-8c10.1,0,16.6,7.5,17.3,8.4c-0.2,2.7-3.4,49.4-3.4,81.1c0,31.7,1.5,87.7,1.6,90.8
				C156.9,191,151.2,196.3,141.7,196.3z M110.3,175.3c-1.7-0.2-8.9-1.2-15-3.4c-6.1-2.2-9.8-3.9-10.6-4.2l-3.8-33.9l-0.2-0.1
				c0,0-4.2-0.9-8.4-2.1c-4.2-1.2-7.5-2.3-7.5-2.3l-0.3-0.1l-3.9,23c-1.9-1.7-10.4-9-14.3-13.4c-4.1-4.5-8.4-10.1-9.1-11.1
				c0.9-1.9,9.1-19.7,13-40.2c4-20.7,7.4-46.4,7.6-47.8c0.4-0.6,4.4-7.3,10.5-15C74.6,16.8,82.5,10.4,84.2,9
				c1.2,4.6,11.4,44.6,17.8,84.6C108.5,133.8,110.1,171.3,110.3,175.3z M72.1,59.4c0,0.2-0.7,23.9-2,32.7c-1.3,8.7-3.1,19.9-3.2,20
				l-0.1,0.3l12.4,0.7l0-0.3c0-0.2-1.2-14.5-3-28c-1.8-13.4-3.5-25.3-3.6-25.4L72.1,59.4z M174.7,175.3c0.2-4,1.8-41.5,8.2-81.7
				c6.4-40,16.6-80,17.8-84.6c1.8,1.4,9.6,7.7,15.9,15.6c6.2,7.7,10.1,14.4,10.5,15c0.2,1.4,3.6,27.1,7.6,47.8
				c4,20.5,12.1,38.3,13,40.2c-0.7,1-5,6.6-9.1,11.1c-3.9,4.4-12.4,11.7-14.3,13.4l-3.9-22.9l-0.3,0.1c0,0-3.3,1.1-7.5,2.3
				c-4.2,1.2-8.4,2.1-8.4,2.1l-0.2,0.1l-3.8,33.9c-0.8,0.4-4.4,2-10.6,4.2C183.6,174.2,176.4,175.1,174.7,175.3z M212.4,59.3
				c0,0.1-1.7,12-3.6,25.4c-1.8,13.4-3,27.8-3,28l0,0.3l12.4-0.7l-0.1-0.3c0-0.1-1.9-11.3-3.2-20c-1.3-8.7-2-32.4-2-32.7L212.4,59.3
				z"/>
			<path class="st3" d="M84.1,9.5c1.6,6.3,11.5,45.3,17.7,84.2c6.2,39.2,8,75.8,8.2,81.3c-2.1-0.3-8.9-1.2-14.6-3.3
				c-5.8-2.1-9.4-3.7-10.4-4.1L81.3,134l-0.1-0.4l-0.4-0.1c0,0-4.1-0.9-8.4-2.1c-4.2-1.2-7.5-2.3-7.5-2.3l-0.7-0.2l-0.1,0.7
				l-3.8,22.1c-2.5-2.2-10.2-8.9-13.8-13c-3.9-4.3-8-9.6-9-10.9c1.2-2.6,9.1-20,13-40.1c4-20.5,7.4-45.8,7.6-47.8
				c0.5-0.9,4.4-7.4,10.4-14.9C74.5,17.4,81.8,11.4,84.1,9.5z M79.6,113.4l-0.1-0.7c0-0.2-1.2-14.6-3-28
				c-1.8-13.4-3.5-25.3-3.6-25.5l-1.2,0.1c0,0.2-0.7,23.9-2,32.6c-1.3,8.7-3.1,19.9-3.2,20l-0.1,0.7l0.7,0l11.7,0.7L79.6,113.4z
				 M200.9,9.5c2.3,1.8,9.6,7.9,15.5,15.3c6,7.5,9.9,14.1,10.4,14.9c0.3,2,3.7,27.3,7.6,47.8c3.9,20,11.7,37.5,13,40.1
				c-1,1.3-5.1,6.6-9,10.9c-3.7,4.1-11.4,10.9-13.8,13l-3.8-22.1l-0.1-0.7l-0.7,0.2c0,0-3.3,1.1-7.5,2.3c-4.2,1.2-8.4,2.1-8.4,2.1
				l-0.4,0.1l-0.1,0.4l-3.7,33.5c-1,0.5-4.6,2.1-10.4,4.1c-5.7,2.1-12.4,3-14.6,3.3c0.2-5.5,2-42.1,8.2-81.3
				C189.4,54.8,199.3,15.9,200.9,9.5z M205.4,113.4l0.7,0l11.7-0.7l0.7,0l-0.1-0.7c0-0.1-1.9-11.3-3.2-20c-1.3-8.7-2-32.4-2-32.6
				l-1.2-0.1c0,0.1-1.7,12-3.6,25.5c-1.8,13.4-3,27.8-3,28L205.4,113.4z M142,10.2c9.7,0,16,7,17,8.2c-0.2,3.7-3.4,49.7-3.4,81
				c0,31.4,1.5,86.4,1.6,90.7c-1,1-6.6,5.9-15.6,5.9c-9,0-14.6-4.8-15.6-5.7c0.1-4.7,1.7-70.7,1.7-90.8c0-32.3-3.2-77.4-3.5-81.3
				C125.5,16.9,132.4,10.2,142,10.2z M200.6,8.5c0,0-11.1,42.3-17.9,85.1c-6.8,42.8-8.3,82.1-8.3,82.1s8.4-0.9,15.4-3.4
				c7-2.5,10.8-4.3,10.8-4.3l3.8-33.9c0,0,4.1-0.9,8.4-2.1c4.3-1.2,7.5-2.3,7.5-2.3l3.9,23.1c0,0,10.2-8.8,14.7-13.8
				c4.5-5,9.2-11.2,9.2-11.2s-8.9-18.5-13.1-40.3c-4.1-21.4-7.6-47.8-7.6-47.8s-4-6.9-10.6-15.1C209.7,15.4,200.6,8.5,200.6,8.5z
				 M206.1,112.8c0,0,1.2-14.4,3-28s3.6-25.4,3.6-25.4s0.7,23.9,2,32.7c1.3,8.8,3.2,20,3.2,20L206.1,112.8z M84.4,8.5
				c0,0-9.1,7-16.3,15.9c-6.5,8.2-10.6,15.1-10.6,15.1S54,66,49.9,87.4c-4.2,21.8-13.1,40.3-13.1,40.3s4.7,6.2,9.2,11.2
				s14.7,13.8,14.7,13.8l3.9-23.1c0,0,3.2,1.1,7.5,2.3c4.3,1.2,8.4,2.1,8.4,2.1l3.8,33.9c0,0,3.8,1.8,10.8,4.3
				c7,2.5,15.4,3.4,15.4,3.4s-1.4-39.2-8.3-82.1C95.5,50.8,84.4,8.5,84.4,8.5z M78.9,112.8l-11.7-0.7c0,0,1.8-11.2,3.2-20
				c1.3-8.8,2-32.7,2-32.7s1.7,11.9,3.6,25.4C77.8,98.4,78.9,112.8,78.9,112.8z M142,9.6c-11,0-18.3,8.2-18.3,8.2s3.5,47.6,3.5,81.5
				c0,21.1-1.8,91.1-1.8,91.1s5.8,6.1,16.2,6.1c10.4,0,16.2-6.3,16.2-6.3s-1.6-58.1-1.6-90.9c0-32.8,3.4-81.2,3.4-81.2
				S153,9.6,142,9.6z"/>
			<path class="st0" d="M282,76.5c-0.8-2.5-2.5-4.7-5.1-6.4c-2-1.3-4.5-2.2-7.3-2.6c-2.6-0.4-5.1-0.2-7.3,0.4
				c-0.9-0.7-2-1.1-3.2-1.3l-11.9-1.5c-1.4-0.2-2.8,0.1-4.1,0.8c-0.7-0.4-1.4-0.7-2.1-1c-1.2-0.4-3.1-0.9-8.2-1.5l-5.1-0.6
				c-0.6-0.1-1.2-0.1-1.8,0c-0.6-0.2-1.2-0.4-1.8-0.4l-7.2-0.7c-0.3,0-0.7,0-1,0c-0.3-0.1-0.7-0.2-1-0.2l-7.2-0.7
				c-0.4,0-0.8,0-1.2,0c-0.4-0.1-0.8-0.2-1.2-0.2l-15.7-1.2c-0.4,0-0.8,0-1.3,0c-0.5-0.1-0.9-0.2-1.3-0.2l-6-0.3c-0.7,0-1.4,0-2,0.2
				c-0.6-0.2-1.3-0.4-2-0.4l-6-0.3c-0.6,0-1.2,0-1.8,0.2c-0.6-0.2-1.2-0.3-1.8-0.3l-12-0.4c-0.4,0-0.7,0-1.1,0.1
				c-0.4-0.1-0.8-0.1-1.2-0.1l-7.6,0c-0.6,0-1.2,0.1-1.8,0.2c-0.6-0.2-1.2-0.2-1.8-0.2l-7.6,0c-1.3,0-2.6,0.4-3.8,1.1
				c-0.3-0.1-0.7-0.2-1-0.3c-1.3-0.3-3.4-0.6-8.8-0.5l-5.4,0.2c-1.1,0-2.2,0.3-3.2,0.9c-1-0.5-2.1-0.7-3.1-0.6L98.6,59
				c-2.7,0.2-5.1,1.9-6,4.4c-0.4-0.7-0.9-1.4-1.6-1.9c-1.4-1.2-3.1-1.8-5-1.6l-6,0.5c-0.7,0.1-1.4,0.2-2,0.5c-0.7-0.2-1.3-0.2-2-0.2
				l-6,0.5c-0.6,0.1-1.2,0.2-1.8,0.4c-0.6-0.1-1.2-0.1-1.8-0.1l-7.2,0.7c-1.8,0.2-3.5,1-4.6,2.4c-0.9,1.1-1.4,2.3-1.5,3.6
				c-0.4-1.3-1.2-2.4-2.2-3.3c-1.4-1.1-3.2-1.7-5-1.5l-7.2,0.8c-1.2,0.1-2.3,0.6-3.3,1.3c-1.1-0.5-2.3-0.6-3.5-0.5l-7.2,0.8
				c-1.1,0.1-2,0.5-2.9,1.1c-1-0.3-2-0.5-3.1-0.3L8.5,67.8c-3.4,0.5-5.9,3.3-5.9,6.7l-0.1,27.9c0,2,0.8,3.8,2.3,5.1
				c1.5,1.3,3.4,1.9,5.4,1.6l7.4-1c0.6-0.1,1.1-0.2,1.7-0.4c0.6,0.1,1.2,0.1,1.7,0l7.3-0.9c0.2,0,0.4-0.1,0.6-0.1
				c0.3,0,0.5,0,0.8-0.1l11.5-1.4c0.3,0,0.6-0.1,0.9-0.2c0.3,0,0.7,0,1,0l11.5-1.2c1.5-0.2,2.9-0.8,4-1.9c1.3,0.8,2.8,1.2,4.4,1.1
				l7.2-0.7c0.5-0.1,1.1-0.2,1.6-0.3c0.5,0.1,1,0.1,1.5,0.1l6-0.5c0.6-0.1,1.3-0.2,1.8-0.4c0.6,0.1,1.2,0.2,1.9,0.1l6.3-0.5
				c1.4-0.1,2.8-0.7,3.8-1.5c1.1,0.7,2.3,1,3.6,1c0.1,0,0.2,0,0.4,0l7.4-0.4c0.6,0,1.2-0.1,1.7-0.3c0.6,0.1,1.1,0.2,1.7,0.1l7.4-0.4
				c0.2,0,0.4,0,0.6-0.1c0.2,0,0.3,0,0.5,0l9.3-0.2c2.3-0.1,4-0.2,5.3-0.6c1.1-0.3,2.1-0.7,3.1-1.2c1.2,1,2.7,1.5,4.3,1.6l11,0.1
				c0.8,0,1.7-0.2,2.4-0.5c0.8,0.3,1.6,0.5,2.4,0.5l12.5,0.4c0.4,0,0.7,0,1.1-0.1c0.3,0.1,0.7,0.1,1,0.1l6,0.3c0.6,0,1.3,0,1.9-0.2
				c0.6,0.2,1.2,0.3,1.8,0.4l6.3,0.4c1,0.1,2-0.1,3-0.5c0.9,0.5,1.9,0.9,3,1l7.2,0.6c1.9,0.2,3.7-0.5,5.1-1.7
				c0.7,0.6,1.5,1.1,2.3,1.5c2,1.1,4.3,1.8,6.9,2.1c2.4,0.2,4.6,0,6.6-0.6c0.3-0.1,0.6-0.2,0.9-0.3c1,0.8,2.1,1.2,3.4,1.4l7.1,0.8
				c0.4,0,0.7,0.1,1.1,0c0.4,0.1,0.7,0.2,1.1,0.2l6.6,0.8c0.5,0.1,0.9,0.1,1.5,0c0.5,0.2,1,0.3,1.5,0.4l12.4,1.6
				c1.1,0.2,2.2,0,3.2-0.4c1.9,1.2,4.2,2,6.7,2.4c0.9,0.2,1.9,0.2,2.8,0.2c1.7,0,3.4-0.2,4.9-0.7c2.9-0.9,5.1-2.4,6.6-4.6
				c1.2-1.8,2-4,2.4-7.1c0.5-3.4,0.3-6.3-0.5-8.6c0.9-1,1.4-2.2,1.6-3.5l0.2-1.1C282.7,80.9,282.6,78.5,282,76.5z"/>
		</g>
		<polygon class="st7" points="26.6,73.2 32,72.6 34.6,94.6 38.9,94.1 39.4,97.8 29.6,98.9 		"/>
		<polygon class="st7" points="40.4,71.6 45.8,71 48.1,93 52.5,92.6 52.9,96.3 43.1,97.3 		"/>
		<polygon class="st7" points="60.8,69.6 66.2,69.1 68.6,94.8 63.2,95.3 		"/>
		<path class="st7" d="M116.4,65.8l4.5-0.1c0.9,0,1.7,0,2.4,0c0,0,0,0,0,0c2.7,0,3.9,0.2,4.5,0.3c1,0.2,1.8,0.6,2.4,1.2
			c0.6,0.6,0.9,1.3,1.1,2c0.2,0.8,0.3,2.4,0.4,5.1l0.3,9.7c0.1,2.4,0,4-0.2,4.8c-0.2,0.7-0.5,1.2-0.9,1.6c-0.4,0.4-1,0.7-1.8,0.9
			c-0.7,0.2-1.9,0.3-3.7,0.4l-8.2,0.2L116.4,65.8z M121.9,69.3l0.5,19.2h0.7c1,0,2.3-0.2,2.8-1.1c0.2-0.4,0.5-1.2,0.4-3.9l-0.3-10.7
			c0-1.8-0.1-2.3-0.2-2.6c-0.1-0.6-0.5-1-1-1.3c-0.4-0.2-1-0.3-1.8-0.3h-1L121.9,69.3z"/>
		<polygon class="st7" points="155.2,91.3 156,65.5 166.2,65.8 166.1,69.5 161.3,69.4 161.1,76.4 165.6,76.5 165.5,80 161,79.9 
			160.7,87.8 166,87.9 165.9,91.7 		"/>
		<polygon class="st7" points="192.1,93.2 193.8,71.1 189.6,70.8 189.9,67.1 203.8,68.2 203.5,71.9 199.2,71.6 197.5,93.6 		"/>
		<path class="st7" d="M214,95.7c-0.4,0-0.8,0-1.2-0.1c-1.5-0.1-2.8-0.5-3.9-1.1c-1-0.6-1.8-1.3-2.3-2.1c-0.4-0.8-0.7-1.6-0.7-2.5
			c0-0.9,0.1-2.9,0.4-6l1.5-15.4l5.4,0.5l-1.9,19.8c-0.1,1.3-0.1,2.1,0,2.6c0.2,0.7,0.8,1.2,1.5,1.3l0.3,0c0.7,0,1.3-0.4,1.6-1.1
			c0.1-0.2,0.3-0.9,0.5-2.8l1.9-19.4l5.4,0.5l-1.7,17.5c-0.2,2.1-0.4,3.5-0.6,4.2c-0.2,0.7-0.6,1.4-1.3,2.1
			c-0.7,0.7-1.5,1.2-2.5,1.5C215.7,95.6,214.9,95.7,214,95.7z"/>
		<polygon class="st7" points="243.8,98.5 247.1,72.8 257.2,74.1 256.8,77.9 252,77.2 251.1,84.2 255.5,84.8 255.1,88.2 250.6,87.7 
			249.6,95.4 254.8,96.1 254.4,99.9 		"/>
		<path class="st7" d="M267,102.1c-0.6,0-1.2,0-1.7-0.1c-1.8-0.3-3.2-0.8-4.3-1.6c-1.1-0.8-1.7-1.6-1.9-2.6
			c-0.2-1.1-0.2-2.7,0.1-4.5l0.1-0.9l4.9,0.7l-0.3,2.4c-0.2,1.2-0.2,2,0.1,2.5c0.2,0.6,0.8,1,1.6,1.1c0.2,0,0.3,0,0.3,0
			c0.7,0,1.2-0.3,1.6-0.8c0.4-0.5,0.7-1.2,0.8-2.1c0.3-1.8,0.2-3.1-0.4-3.8c-0.4-0.6-1.4-1.6-3.1-3.1c-1.9-1.7-2.7-2.6-3.1-3
			c-0.4-0.5-0.7-1.2-0.9-2.1c-0.2-0.8-0.2-1.9,0-3.3c0.4-2.4,0.9-3.5,1.3-4.1c0.6-0.7,1.4-1.3,2.5-1.6c0.7-0.2,1.5-0.3,2.3-0.3
			c0.5,0,1,0,1.8,0.1c1.7,0.3,3.2,0.7,4.2,1.4c1,0.6,1.6,1.4,1.9,2.1c0.2,0.6,0.3,1.8-0.1,4.3l0,0.2l-4.8-0.7l0.2-1.1
			c0.2-1.2,0.2-1.9-0.1-2.3c-0.3-0.6-0.8-0.9-1.5-1c-0.1,0-0.2,0-0.3,0c-0.6,0-1.1,0.2-1.5,0.7c-0.4,0.4-0.6,1.1-0.8,2
			c-0.2,1.2-0.1,2,0.1,2.6c0.2,0.6,0.8,1.3,2,2.3c3.5,2.8,4.7,4.4,5.1,5.2c0.6,1.1,0.7,3,0.3,5.5c-0.3,2.3-0.8,3.3-1.1,3.8
			c-0.5,0.7-1.3,1.2-2.5,1.6C268.8,102,268,102.1,267,102.1z"/>
		<polygon class="st7" points="179.4,92.3 175.2,74.8 174.2,92 169.9,91.8 171.4,66 175.9,66.3 180.4,83.3 181.3,66.6 185.7,66.8 
			184.2,92.6 		"/>
		<polygon class="st7" points="71.4,68.5 76,68.2 82.8,84.5 81.4,67.7 85.8,67.4 87.8,93.3 83,93.7 76.5,76.8 77.8,94.1 73.4,94.4 
					"/>
		<path class="st7" d="M99.7,66.6l8.9-0.4l5.2,25.7l-5.5,0.3l-0.6-5l-4.2,0.2l-0.2,5l-5.6,0.3L99.7,66.6z M103.8,80l-0.4,4.2
			l1.4-0.1l2.7-0.1l-0.2-0.8c-0.8-3.8-0.8-3.8-1.7-8.5l-0.9-4.5v0v0"/>
		<path class="st7" d="M10.2,75.3l8.8-1.2l7.2,25.2l-5.4,0.7l-1-4.9l-4.2,0.6l0.2,5l-5.6,0.7L10.2,75.3z M15.2,90.4l0,2.1l0.5-0.1
			l3.6-0.5l-0.2-0.8c-1.1-3.8-1.3-4.6-2.6-9.2l-1-3.5l0,0l0,0"/>
		<path class="st7" d="M234.1,97.3l0.9-8.2c0.3-2.2,0.1-2.9-0.1-3.3c-0.3-0.7-1.1-1.1-2.5-1.2l-0.7-0.1l-0.1,0.7l-1.5,11.7l-5.4-0.6
			l3-25.7l4.2,0.5c3.3,0.4,5.5,0.8,6.6,1.1c0.9,0.3,1.7,1,2.2,1.9c0.5,1,0.7,2.6,0.4,4.7c-0.3,2.5-0.8,3.4-1.1,3.7
			c-0.3,0.3-0.7,0.5-1.3,0.7c-0.8,0.2-0.6,0.1-2,0.4l-0.9,0.2l0,0l0,0l1.1,0.6c0.5,0.3,1,0.6,1.4,0.9c0.6,0.4,0.8,0.7,1.1,1
			c0.5,0.6,0.5,1,0.6,1.4c0,0.2,0.1,0.9-0.3,3.9l-0.7,6.4L234.1,97.3z M232.7,74.8l-0.8,7.1l0.9,0.2c0.3,0,0.6,0.1,0.8,0.1
			c0.6,0,1.1-0.1,1.5-0.3c0.6-0.3,1-1.2,1.2-2.7l0.2-1.5c0.1-1.1,0-1.9-0.5-2.5c-0.4-0.5-1.1-0.8-2.2-0.9l-0.9-0.1L232.7,74.8z"/>
	</g>
	<path class="st7" d="M143.6,84.8c0.8-5.1,1.4-10.4,2-15.2l0.6-4.3l5.8,0l-3.6,25.9l-9.4,0l-3.8-25.9l5.8,0
		C142,72.9,142.8,79.3,143.6,84.8"/>
</g>
</svg>
