<svg width="120" height="120" viewBox="0 0 120 120" fill="none" xmlns="http://www.w3.org/2000/svg">
<path d="M64.5051 56.9434C64.2473 56.9434 64.0432 56.7393 64.0432 56.4815C64.0432 56.3418 64.1076 56.2022 64.2258 56.1162L68.9201 52.6143L62.9475 56.0625C62.7326 56.1914 62.4533 56.1162 62.3244 55.9014C62.2062 55.6973 62.26 55.4287 62.4641 55.2891L65.2248 53.4092L62.9475 54.7197C62.7326 54.8487 62.4426 54.7735 62.3244 54.5479C62.2062 54.3438 62.2707 54.0752 62.4641 53.9463L64.7521 52.3994L62.9475 53.4414C62.7326 53.5703 62.4426 53.4844 62.3244 53.2696C62.2062 53.0654 62.26 52.8076 62.4533 52.6787L68.1037 48.5752L62.9475 51.5508C62.7219 51.669 62.4426 51.5938 62.3244 51.3682C62.217 51.1641 62.2707 50.917 62.4533 50.7774L67.2873 47.3184L62.9475 49.8213C62.7219 49.9502 62.4426 49.8643 62.3244 49.6494C62.2062 49.4453 62.2707 49.1768 62.4641 49.0479L63.1838 48.5645L62.9475 48.7041C62.7326 48.833 62.4533 48.7578 62.3244 48.543C62.1955 48.3281 62.26 48.0596 62.4641 47.9307L63.8391 46.9961L62.9475 47.5117C62.7219 47.6406 62.4426 47.5547 62.3244 47.3399C62.2062 47.1358 62.2707 46.8887 62.4533 46.749L66.0734 44.1387L62.9582 45.9434C62.7326 46.0723 62.4533 45.9863 62.3352 45.7715C62.2277 45.5674 62.2707 45.3203 62.4533 45.1807L65.6008 42.8604L62.9475 44.3965C62.7326 44.5254 62.4426 44.4502 62.3244 44.2246C62.2062 44.0205 62.26 43.7627 62.4533 43.6231L63.9035 42.5596L63.0764 43.0322C62.8508 43.1612 62.5715 43.0752 62.4533 42.8604C62.3459 42.6563 62.3889 42.4092 62.5715 42.2696L63.4201 41.6358C63.1838 41.7324 62.9152 41.6143 62.8293 41.3779C62.7541 41.1953 62.8078 40.9912 62.9475 40.8623L64.3869 39.584C64.2902 39.541 64.2043 39.4766 64.1613 39.3906C64.0324 39.1758 64.1076 38.8858 64.3332 38.7676L67.2336 37.0918C67.4484 36.9629 67.7385 37.0381 67.8566 37.2637C67.9641 37.4463 67.9211 37.6934 67.76 37.833L66.965 38.542L69.6613 36.9844C69.8869 36.8555 70.1662 36.9414 70.2844 37.1563C70.3918 37.3604 70.3488 37.6074 70.1662 37.7471L69.3498 38.3594L71.1223 37.3496C71.3371 37.2207 71.6271 37.2959 71.7453 37.5215C71.8635 37.7256 71.8098 37.9834 71.6164 38.1231L70.1662 39.1436L72.3146 37.9082C72.5402 37.7793 72.8195 37.8653 72.9377 38.0801C73.0451 38.2842 73.0021 38.5313 72.8195 38.6709L69.6613 40.9912L73.4426 38.8106C73.6682 38.6817 73.9475 38.7676 74.0656 38.9824C74.1838 39.1865 74.1193 39.4336 73.9367 39.5733L70.3166 42.1836L74.2805 39.8955C74.4953 39.7666 74.7746 39.8418 74.9035 40.0567C75.0324 40.2715 74.968 40.5401 74.7639 40.669L73.3889 41.6035L74.7209 40.8408C74.9465 40.7119 75.2258 40.7979 75.3439 41.0127C75.4621 41.2168 75.3976 41.4854 75.2043 41.6143L74.4738 42.0977L75.0432 41.7647C75.258 41.6358 75.548 41.711 75.6662 41.9365C75.7844 42.1406 75.7307 42.3985 75.5373 42.5381L70.7033 45.9863L75.2365 43.3653C75.4514 43.2363 75.7414 43.3223 75.8596 43.5371C75.9777 43.7412 75.924 43.999 75.7307 44.1279L70.0803 48.2315L75.2365 45.2559C75.4514 45.127 75.7414 45.2022 75.8596 45.4278C75.9777 45.6319 75.9133 45.9004 75.7199 46.0293L73.4318 47.5762L75.2365 46.5342C75.4514 46.4053 75.7307 46.4805 75.8596 46.6953C75.9777 46.8994 75.924 47.168 75.7199 47.3076L72.9484 49.1983L75.2258 47.877C75.4406 47.7481 75.7199 47.8233 75.8488 48.0381C75.967 48.2422 75.9133 48.5 75.7307 48.6397L71.0471 52.1309L75.2365 49.7139C75.4514 49.585 75.7414 49.6602 75.8596 49.8858C75.967 50.0791 75.924 50.3262 75.7521 50.4658L72.2609 53.377L75.2365 51.6582C75.4514 51.5293 75.7307 51.6045 75.8596 51.8194C75.967 52.002 75.9348 52.2383 75.7844 52.3887L73.9045 54.2149L75.2473 53.4414C75.4621 53.3125 75.7414 53.3877 75.8703 53.6133C75.9562 53.7637 75.9562 53.9463 75.8596 54.086L75.1935 55.1279L75.2473 55.0957C75.4621 54.9561 75.7414 55.0205 75.8811 55.2354C76.0207 55.4502 75.9562 55.7295 75.7414 55.8692C75.7307 55.8799 75.7199 55.8799 75.7092 55.8906L74.0549 56.8467C73.84 56.9756 73.55 56.9004 73.4318 56.6748C73.3459 56.5244 73.3459 56.3418 73.4426 56.2022L74.1086 55.1494L71.176 56.8467C70.9611 56.9756 70.6818 56.9004 70.5529 56.6856C70.4455 56.5029 70.4777 56.2666 70.6281 56.1162L72.508 54.2901L68.0715 56.8467C67.8459 56.9756 67.5666 56.8897 67.4484 56.6748C67.341 56.4815 67.384 56.2451 67.5559 56.0947L71.0471 53.1836L64.6984 56.8467C64.6662 56.9219 64.5803 56.9434 64.5051 56.9434Z" fill="#A9725E"/>
<path d="M46.4698 47.7588C46.212 47.7588 46.0079 47.5547 46.0079 47.2969C46.0079 47.1572 46.0724 47.0176 46.1905 46.9317L51.0245 43.2578L45.0519 46.7061C44.837 46.835 44.5685 46.7598 44.4288 46.5557C44.2999 46.3516 44.3536 46.0723 44.5577 45.9326L45.256 45.46L44.8155 45.7178C44.6007 45.8467 44.3214 45.7715 44.1925 45.5567C44.0743 45.3526 44.128 45.084 44.3214 44.9444L46.4054 43.4727L44.6651 44.4717C44.4396 44.5899 44.1603 44.5147 44.0421 44.2891C43.9347 44.0957 43.9776 43.8487 44.1495 43.709L47.5763 41.0342L44.5899 42.7529C44.3751 42.8819 44.0958 42.8067 43.9669 42.5918C43.8595 42.4092 43.8917 42.1621 44.0528 42.0225L46.2765 39.9492L45.1915 40.5723C44.9767 40.7119 44.6974 40.6475 44.5577 40.4326C44.4181 40.2178 44.4825 39.9385 44.6974 39.7988C44.7081 39.7881 44.7188 39.7881 44.7296 39.7774L49.3272 37.1455C49.5421 37.0166 49.8214 37.0918 49.9503 37.3067C50.0577 37.4893 50.0255 37.7256 49.8644 37.876L47.6515 39.9492L52.797 36.9737C53.0226 36.8447 53.3019 36.9307 53.42 37.1455C53.5274 37.3389 53.4845 37.586 53.3019 37.7256L49.8751 40.4004L54.7521 37.586C54.9669 37.4571 55.2569 37.5322 55.3751 37.7578C55.4933 37.9619 55.4396 38.2197 55.2462 38.3594L53.173 39.8418L55.7511 38.3487C55.9659 38.2197 56.2452 38.2949 56.3741 38.5098C56.503 38.7246 56.4386 38.9932 56.2345 39.1221L55.5362 39.5947L56.8146 38.8535C57.0401 38.7246 57.3194 38.8106 57.4376 39.0254C57.545 39.2188 57.5021 39.4766 57.3194 39.6162L52.4854 43.2901L58.2647 39.9492C58.4796 39.8203 58.7696 39.8955 58.8878 40.1211C59.006 40.3252 58.9522 40.583 58.7696 40.7119L55.6651 43.0322L58.7159 41.2705C58.9308 41.1416 59.2101 41.2168 59.339 41.4424C59.4571 41.6358 59.4034 41.8828 59.2315 42.0332L56.9435 43.8594L58.7267 42.8281C58.9415 42.6992 59.2315 42.7744 59.3497 43C59.4571 43.1934 59.4142 43.4297 59.253 43.5801L58.2862 44.4072L58.6407 44.2031C58.8556 44.0742 59.1349 44.1494 59.2638 44.375C59.339 44.5147 59.3497 44.6865 59.2745 44.8262L58.4796 46.2979C58.7267 46.3516 58.8878 46.5987 58.8341 46.8457C58.8019 46.9746 58.7267 47.0821 58.6192 47.1465L57.6417 47.7051C57.4269 47.834 57.1476 47.7588 57.0187 47.5332C56.9435 47.3936 56.9327 47.2217 57.0079 47.0821L57.6954 45.8145L54.4405 47.6836C54.2257 47.8125 53.9356 47.7266 53.8175 47.5117C53.7101 47.3184 53.753 47.0821 53.9142 46.9424L54.881 46.1153L52.1524 47.6944C51.9376 47.8233 51.6583 47.7481 51.5294 47.5225C51.4112 47.3291 51.4649 47.0821 51.6368 46.9317L53.9249 45.1055L49.4454 47.6944C49.2198 47.8233 48.9405 47.7373 48.8224 47.5225C48.7149 47.3184 48.7579 47.0713 48.9405 46.9317L52.0343 44.6113L46.6847 47.6944C46.631 47.7373 46.5558 47.7588 46.4698 47.7588Z" fill="#7A4E43"/>
<path d="M49.7235 63.335C49.4657 63.335 49.2615 63.1309 49.2615 62.873C49.2615 62.7227 49.3367 62.583 49.4549 62.4971L49.9168 62.1748L48.0262 63.2598C47.8114 63.3887 47.5213 63.3135 47.4032 63.0879C47.285 62.8838 47.3387 62.626 47.5213 62.4971L51.1629 59.7686L45.1151 63.2598C44.9002 63.3887 44.6102 63.3135 44.492 63.0879C44.3739 62.8838 44.4276 62.626 44.6209 62.4863L48.4237 59.7363L42.9774 62.8838C42.7518 63.0127 42.4725 62.9268 42.3543 62.7119C42.2469 62.5186 42.2899 62.2715 42.4725 62.1318L47.1453 58.5439L42.8485 61.0147C42.6336 61.1436 42.3543 61.0684 42.2254 60.8535C42.1073 60.6602 42.161 60.4131 42.3328 60.2734L45.3944 57.7168L43.3963 58.877C43.1815 59.0059 42.8914 58.9307 42.7733 58.7051C42.6658 58.5117 42.7088 58.2754 42.8699 58.1357L44.2127 56.9756C44.1375 56.9326 44.0731 56.8682 44.0301 56.793C43.9012 56.5781 43.9764 56.2881 44.202 56.1699L47.1024 54.4941C47.328 54.3652 47.6073 54.4512 47.7254 54.666C47.8328 54.8594 47.7899 55.0957 47.6287 55.2354L47.1239 55.6758L49.5516 54.2793C49.7772 54.1504 50.0565 54.2363 50.1746 54.4512C50.2821 54.6445 50.2391 54.8809 50.078 55.0205L47.0164 57.5772L52.7313 54.2793C52.9461 54.1504 53.2362 54.2256 53.3543 54.4512C53.4725 54.6445 53.4188 54.9023 53.2362 55.042L48.5633 58.6299L55.7713 54.4727C55.9862 54.3438 56.2762 54.4189 56.3944 54.6445C56.5125 54.8486 56.4588 55.1064 56.2655 55.2461L52.4412 57.9854L57.3719 55.1387C57.5867 55.0098 57.8768 55.085 57.9949 55.3105C58.1131 55.5147 58.0594 55.7725 57.8768 55.9014L54.2352 58.6299L58.6395 56.0947C58.8543 55.9658 59.1444 56.041 59.2625 56.2666C59.3807 56.4707 59.327 56.7285 59.1229 56.8682L58.661 57.1904L59.284 56.8359C59.4989 56.707 59.7889 56.793 59.9071 57.0078C60.0145 57.2012 59.9715 57.4482 59.7889 57.5986L57.7908 59.1563L59.9178 57.9209C60.1326 57.792 60.4227 57.8672 60.5408 58.0928C60.6483 58.2861 60.6053 58.5332 60.4334 58.6729L59.0692 59.8115L60.2186 59.1455C60.4442 59.0273 60.7235 59.1025 60.8416 59.3281C60.9383 59.5 60.9061 59.7256 60.7664 59.8652L59.8748 60.7568L60.3582 60.4775C60.5731 60.3486 60.8631 60.4238 60.9813 60.6494C61.0672 60.7891 61.0672 60.9717 60.9813 61.1113L60.6483 61.6592C60.8416 61.627 61.0242 61.7129 61.1209 61.8848C61.2498 62.0996 61.1746 62.3789 60.9491 62.5078L59.5848 63.3027C59.3699 63.4316 59.0799 63.3564 58.9617 63.1309C58.8758 62.9912 58.8865 62.8086 58.9617 62.6689L59.2625 62.1748L57.3074 63.292C57.0819 63.4102 56.8026 63.335 56.6844 63.1094C56.5877 62.9375 56.6199 62.7119 56.7596 62.5723L57.6512 61.6807L54.869 63.292C54.6434 63.4209 54.3641 63.335 54.2459 63.1201C54.1385 62.9268 54.1815 62.6904 54.3533 62.54L55.7176 61.4014L52.4412 63.292C52.2264 63.4209 51.9364 63.335 51.8182 63.1201C51.7108 62.9268 51.7537 62.6797 51.9364 62.5293L53.9344 60.9717L49.9276 63.292C49.8739 63.3027 49.7987 63.335 49.7235 63.335Z" fill="#4B95FF"/>
<path d="M51.8939 57.792C51.6361 57.792 51.432 57.5879 51.432 57.3301C51.432 57.2334 51.4642 57.126 51.5287 57.0508L52.6029 55.6651L50.1537 57.083C49.9388 57.2119 49.6488 57.1367 49.5306 56.9112C49.434 56.7285 49.4554 56.5137 49.5951 56.3633L51.722 54.2041L49.3051 55.6006C49.0795 55.7295 48.8002 55.6436 48.682 55.4287C48.5746 55.2461 48.6176 55.0098 48.7679 54.8701L49.2836 54.3975L49.1976 54.4404C48.9828 54.5694 48.6928 54.4942 48.5746 54.2686C48.5209 54.1719 48.4994 54.0537 48.5209 53.9463L48.8109 52.6143C48.7142 52.582 48.6283 52.5069 48.5746 52.4102C48.4457 52.1953 48.5209 51.916 48.7465 51.7871L49.2084 51.5186C49.4232 51.3897 49.7133 51.4649 49.8314 51.6904C49.8851 51.7871 49.9066 51.9053 49.8851 52.0127L49.6488 53.1299L52.4633 51.5078C52.6888 51.3789 52.9681 51.4649 53.0863 51.6797C53.1937 51.8623 53.1508 52.0987 53.0004 52.2383L52.4847 52.711L54.1928 51.7227C54.4076 51.5938 54.6976 51.669 54.8158 51.8945C54.9232 52.0772 54.891 52.3028 54.7406 52.4424L52.6244 54.6016L54.1928 53.6992C54.4076 53.5703 54.6976 53.6455 54.8158 53.8711C54.9017 54.0322 54.891 54.2256 54.7836 54.376L53.6986 55.7617C53.9349 55.6651 54.2035 55.7725 54.3002 55.9981C54.3969 56.2129 54.3109 56.46 54.1068 56.5781L52.1195 57.7276C52.0551 57.7705 51.9691 57.792 51.8939 57.792Z" fill="#925C4C"/>
<path d="M63.0437 63.335C62.7859 63.335 62.5818 63.1309 62.5818 62.8731C62.5818 62.7227 62.657 62.5723 62.7859 62.4971L63.6667 61.9063L61.2927 63.2705C61.0779 63.3994 60.7878 63.3242 60.6697 63.0987C60.5515 62.8946 60.6052 62.6367 60.7986 62.4971L64.7732 59.6289L60.2077 62.2715C59.9822 62.4004 59.7029 62.3145 59.5847 62.0996C59.4665 61.8955 59.531 61.6377 59.7243 61.4981L60.1433 61.2188C59.8962 61.2832 59.6492 61.1436 59.5847 60.8965C59.5417 60.7139 59.6062 60.5205 59.7566 60.4131L61.8083 58.8662L60.5193 59.6074C60.3044 59.7363 60.0251 59.6612 59.8962 59.4463C59.7888 59.2637 59.821 59.0274 59.9714 58.877L61.8835 57.0293C61.7116 57.0401 61.5398 56.9541 61.4431 56.8037C61.3142 56.5889 61.3894 56.3096 61.615 56.1807L64.5154 54.5049C64.7302 54.376 65.0095 54.4512 65.1384 54.666C65.2458 54.8487 65.2136 55.085 65.0632 55.2354L63.28 56.9649L67.9099 54.2901C68.1247 54.1719 68.3826 54.2363 68.5222 54.4297C68.6511 54.6338 68.6081 54.9024 68.4148 55.0528L66.363 56.5996L70.3591 54.2901C70.5847 54.1612 70.864 54.2471 70.9822 54.4619C71.1003 54.666 71.0359 54.9238 70.8425 55.0635L70.6062 55.2246L72.1101 54.3545C72.3249 54.2256 72.615 54.3008 72.7331 54.5264C72.8513 54.7305 72.7976 54.9883 72.6042 55.1279L68.6296 57.9961L74.0974 54.8379C74.3122 54.709 74.5915 54.7842 74.7204 54.999C74.8493 55.2139 74.7849 55.4824 74.5808 55.6113L73.7107 56.2022L75.1394 55.375C75.3542 55.2461 75.6443 55.3213 75.7624 55.5469C75.8806 55.7403 75.8269 55.9981 75.6443 56.1377L71.9167 59.0059L76.364 56.4385C76.5896 56.3096 76.8689 56.3955 76.987 56.6104C77.0945 56.793 77.0515 57.0293 76.8904 57.169L73.4636 60.209L77.363 57.9531C77.5779 57.8242 77.8679 57.9102 77.9861 58.125C78.0935 58.3184 78.0505 58.5654 77.8786 58.7051L76.9548 59.4463L77.7927 58.9629C78.0075 58.834 78.2976 58.9092 78.4158 59.1348C78.5017 59.2852 78.4909 59.4785 78.3943 59.6289L77.1052 61.4336L78.0075 60.918C78.2331 60.7998 78.5124 60.8858 78.6306 61.1113C78.738 61.3262 78.6736 61.584 78.4695 61.7129L75.7517 63.2705C75.5368 63.3994 75.2468 63.3242 75.1286 63.0987C75.0427 62.9483 75.0534 62.7549 75.1501 62.6045L76.4284 60.7998L72.1531 63.2598C71.9382 63.3887 71.6589 63.3135 71.53 63.0879C71.4118 62.8945 71.4656 62.6475 71.6374 62.4971L72.5613 61.7559L69.9724 63.249C69.7468 63.3779 69.4675 63.292 69.3493 63.0772C69.2419 62.8945 69.2849 62.6582 69.446 62.5186L72.8728 59.4785L66.3308 63.2598C66.1159 63.3887 65.8259 63.3135 65.7077 63.0879C65.5896 62.8945 65.6433 62.6367 65.8259 62.4971L69.5534 59.6289L63.2693 63.249C63.2048 63.3028 63.1189 63.335 63.0437 63.335Z" fill="#AEA8FB"/>
<path d="M51.3677 54.1181C51.1099 54.1181 50.9058 53.914 50.9058 53.6562C50.9058 53.5166 50.9702 53.3877 51.0777 53.3017L51.5611 52.9043L50.1753 53.7099C49.9605 53.8388 49.6812 53.7636 49.5523 53.5488C49.4341 53.3554 49.4878 53.0976 49.6597 52.958L52.7857 50.4873L48.7788 52.7968C48.564 52.9258 48.274 52.8506 48.1558 52.625C48.0484 52.4316 48.0913 52.1845 48.2632 52.0449L52.0874 48.9404L47.7798 51.4218C47.565 51.5508 47.2857 51.4756 47.1568 51.2607C47.0386 51.0566 47.0923 50.8095 47.2749 50.6699L50.0249 48.5859L47.4038 50.1006C47.189 50.2295 46.9097 50.1543 46.7808 49.9394C46.6626 49.7353 46.7163 49.4883 46.899 49.3486L49.4448 47.415L46.3189 49.1875C46.104 49.3271 45.8247 49.2627 45.6851 49.0478C45.5454 48.833 45.6099 48.5537 45.8247 48.414L47.232 47.4043L45.6743 48.2959C45.4595 48.4248 45.1695 48.3388 45.0513 48.124C44.9439 47.9306 44.9868 47.6943 45.148 47.5547L47.3931 45.6533L46.2007 46.3408C45.9751 46.459 45.6958 46.3838 45.5777 46.1582C45.481 45.9863 45.5132 45.7607 45.6529 45.6211L47.812 43.4619C47.7476 43.4189 47.6939 43.3652 47.6509 43.3008C47.522 43.0859 47.5972 42.7959 47.8228 42.6777L49.7241 41.582C49.9497 41.4638 50.229 41.539 50.3472 41.7646C50.4439 41.9365 50.4116 42.1621 50.272 42.3017L48.7681 43.8056L51.3032 42.334C51.5181 42.205 51.8081 42.2802 51.9263 42.5058C52.0337 42.6992 51.9907 42.9355 51.8296 43.0859L49.5952 44.9873L54.5366 42.1406C54.7515 42.0117 55.0415 42.0869 55.1597 42.3125C55.2779 42.5166 55.2241 42.7744 55.0308 42.914L53.6343 43.9238L55.2993 42.9677C55.5142 42.8388 55.8042 42.914 55.9224 43.1396C56.0406 43.3437 55.9868 43.5908 55.8042 43.7304L53.2583 45.664L55.8687 44.1601C56.0835 44.0312 56.3628 44.1064 56.4917 44.3213C56.6099 44.5254 56.5562 44.7724 56.3736 44.9121L53.6236 46.9961L56.6314 45.2666C56.857 45.1377 57.1363 45.2236 57.2544 45.4384C57.3618 45.6318 57.3189 45.8681 57.147 46.0185L53.3228 49.123L57.7593 46.5556C57.9741 46.4267 58.2642 46.5019 58.3823 46.7275C58.4898 46.9209 58.4468 47.1679 58.2749 47.3076L55.149 49.7783L55.9654 49.3056C56.1802 49.1767 56.4595 49.2519 56.5884 49.4775C56.6958 49.6709 56.6529 49.9179 56.481 50.0576L55.7505 50.6591C55.9224 50.6591 56.0728 50.7451 56.1587 50.8847C56.2876 51.0996 56.2124 51.3896 55.9868 51.5078L51.5933 54.0429C51.5288 54.0966 51.4429 54.1181 51.3677 54.1181Z" fill="#A9725E"/>
<path d="M68.8878 57.792C68.63 57.792 68.4259 57.5879 68.4259 57.3301C68.4259 57.2227 68.4689 57.1045 68.5441 57.0293L69.5646 55.8907L67.5236 57.0616C67.3087 57.1905 67.0294 57.1153 66.9005 56.9004C66.7931 56.7178 66.8253 56.4815 66.9865 56.3311L68.1466 55.2676L66.8039 56.041C66.5783 56.1592 66.299 56.084 66.1808 55.8584C66.0841 55.6866 66.1164 55.461 66.256 55.3213L66.5998 54.9776C66.4386 55.0635 66.2453 55.042 66.1056 54.9346C65.9552 54.8272 65.8908 54.6338 65.9445 54.4512L66.1916 53.5274C65.966 53.4199 65.8693 53.1514 65.9767 52.9151C66.0197 52.8291 66.0841 52.7647 66.1593 52.711L66.6212 52.4424C66.8361 52.3135 67.1154 52.3887 67.2443 52.6143C67.3087 52.7217 67.3195 52.8399 67.2873 52.958L67.1154 53.6133L69.1671 52.4317C69.3927 52.3135 69.672 52.3887 69.7902 52.6143C69.8869 52.7862 69.8546 53.0117 69.715 53.1514L69.3712 53.4844L71.2296 52.4102C71.4445 52.2813 71.7238 52.3565 71.8527 52.5713C71.9601 52.7539 71.9279 52.9903 71.7668 53.1407L70.6066 54.2149L71.5949 53.6455C71.8097 53.5166 72.0998 53.5918 72.2179 53.8174C72.3146 53.9893 72.2931 54.2041 72.1642 54.3545L71.1437 55.4932L71.3263 55.3858C71.5412 55.2569 71.8312 55.3428 71.9494 55.5576C72.0783 55.7725 72.0031 56.0518 71.7775 56.1807L69.1242 57.7168C69.049 57.7705 68.9738 57.792 68.8878 57.792Z" fill="#EABEA3"/>
<path d="M70.1013 54.0107C69.8435 54.0107 69.6394 53.8066 69.6394 53.5488C69.6394 53.4199 69.6931 53.3017 69.7791 53.2158L70.3699 52.6465L68.1677 53.914C67.9422 54.0429 67.6629 53.957 67.5447 53.7422C67.4373 53.5488 67.4802 53.3125 67.6521 53.1621L71.0467 50.3476L66.449 53.001C66.2234 53.1299 65.9441 53.0439 65.826 52.8291C65.7078 52.625 65.7615 52.3672 65.9549 52.2383L67.2654 51.2929L65.6756 52.206C65.4607 52.3349 65.1814 52.2597 65.0525 52.0449C64.9343 51.8408 64.9881 51.5722 65.1814 51.4326L65.6004 51.1426L65.1922 51.3789C64.9773 51.5078 64.6873 51.4326 64.5691 51.207C64.4509 51.0029 64.5047 50.7451 64.698 50.6162L65.7937 49.8105L64.9021 50.3262C64.6873 50.4551 64.3972 50.3799 64.2791 50.1543C64.1717 49.9717 64.2039 49.7353 64.365 49.5957L67.072 47.1035L63.6345 49.0908C63.4197 49.2197 63.1297 49.1445 63.0115 48.9189C62.9041 48.7256 62.947 48.4785 63.1189 48.3388L64.698 47.0605L63.0437 48.0166C62.8289 48.1455 62.5388 48.0703 62.4207 47.8447C62.3133 47.6621 62.3455 47.4365 62.4959 47.2861L65.1707 44.7295C64.9343 44.6328 64.8162 44.375 64.9129 44.1386C64.9558 44.042 65.0203 43.956 65.117 43.9023L67.491 42.5381C67.7058 42.4092 67.9851 42.4736 68.1248 42.6885C68.2429 42.8711 68.2107 43.1181 68.0496 43.2685L65.9011 45.3203L69.2312 43.3974C69.4568 43.2685 69.7361 43.3545 69.8543 43.5693C69.9617 43.7627 69.9187 43.999 69.7468 44.1494L68.1355 45.4277L70.1765 44.2461C70.3914 44.1172 70.6814 44.1924 70.7996 44.4179C70.907 44.6006 70.8748 44.8369 70.7136 44.9765L68.0174 47.4687L72.3357 44.9765C72.5506 44.8476 72.8406 44.9228 72.9588 45.1484C73.0769 45.3525 73.0232 45.6103 72.8299 45.7392L71.7342 46.5556L73.99 45.2558C74.2049 45.1269 74.4842 45.2021 74.6131 45.417C74.7312 45.6211 74.6775 45.8896 74.4842 46.0293L74.0652 46.3193L74.8709 45.8574C75.0965 45.7285 75.3758 45.8144 75.4939 46.0293C75.6121 46.2334 75.5584 46.4912 75.365 46.6201L74.0545 47.5654L75.2576 46.8672C75.4832 46.7383 75.7625 46.8242 75.8806 47.039C75.9881 47.2324 75.9451 47.4687 75.7732 47.6191L72.3894 50.4336L73.2166 49.9609C73.4314 49.832 73.7107 49.8965 73.8504 50.1113C73.9685 50.2939 73.9363 50.541 73.7752 50.6914L72.6258 51.7871C72.8621 51.8838 72.9695 52.1523 72.8728 52.3886C72.8299 52.4853 72.7654 52.5605 72.6795 52.6035L70.3484 53.9463C70.2625 53.9892 70.1873 54.0107 70.1013 54.0107Z" fill="#F9D2B6"/>
<path d="M56.8887 49.5528C56.8994 49.542 56.9209 49.542 56.9424 49.5313C56.9316 49.5205 56.9209 49.5205 56.8887 49.5528Z" fill="#262626"/>
<path d="M78.7923 62.4219C78.9856 61.8096 79.0393 61.1543 78.9319 60.5098C78.889 59.8545 78.7386 59.1992 78.5022 58.5869L77.9436 57.459L77.9329 57.3838C77.9329 57.3838 77.9329 57.3945 77.9222 57.3945C77.9114 57.373 77.9007 57.3623 77.8899 57.3408C77.4388 56.6426 76.8694 56.041 76.1927 55.5576V48.167C76.1927 45.5244 76.6653 42.2695 75.1507 39.9492C73.9368 38.1553 71.9388 37.0596 69.7796 37.0059V36.9844L68.3616 37.0703C66.6751 37.2744 65.096 38.0371 63.8929 39.251C61.7122 41.5068 62.0345 44.4395 62.0345 47.3076V47.3936C62.0345 47.4258 62.0345 47.458 62.0345 47.4902V55.7295C61.68 55.998 61.347 56.2988 61.0354 56.6318C60.8313 56.8682 60.638 57.1152 60.4661 57.373C59.972 56.5889 59.3274 55.9014 58.5647 55.375C57.5335 54.6875 56.3411 54.29 55.1058 54.2148C55.1165 53.7852 55.1058 53.3555 55.1058 52.9258C55.1917 52.8613 55.2776 52.7969 55.3528 52.7217C55.7718 52.3242 56.1263 51.8623 56.3948 51.3467C56.6204 50.8096 56.7923 50.251 56.9104 49.6709C56.9319 49.6172 56.9534 49.542 56.9427 49.5312C56.9212 49.542 56.9104 49.542 56.889 49.5527C56.9212 49.5312 56.9319 49.5205 56.9427 49.5312C57.0823 49.4668 57.2327 49.4131 57.3831 49.3701C57.6302 49.2412 57.8558 49.0801 58.0599 48.8867C58.4895 48.4678 58.7474 47.8984 58.7796 47.2969C59.639 46.2227 59.6604 44.3213 59.6927 43.0752C59.8108 42.1406 59.6927 41.1846 59.3489 40.3145C58.8225 39.3691 57.8665 38.7568 56.7923 38.6816C55.9114 37.3281 53.9349 36.9092 52.3558 36.8447C52.3558 36.834 52.3558 36.834 52.3558 36.8232H51.0237C51.0237 36.834 51.0237 36.8447 51.0237 36.8555C49.4983 36.9736 47.6077 37.457 46.7054 38.7246C45.7493 38.8535 44.8792 39.3584 44.2991 40.1318C43.7835 40.9805 43.5794 41.9688 43.7083 42.9463C43.6653 44.1709 43.8265 45.3955 44.1702 46.5771C44.2669 46.9209 44.4173 47.2432 44.6321 47.5225C44.6858 48.2852 45.1263 48.9727 45.803 49.3379C45.9642 49.4346 46.3509 49.499 46.4475 49.6387C46.5335 49.8857 46.5872 50.1436 46.5979 50.4014C46.7268 50.9385 46.9524 51.4541 47.2532 51.916C47.5433 52.3564 47.887 52.7432 48.3059 53.0762C48.3059 53.5166 48.3059 53.957 48.3059 54.3975C45.5022 54.6875 43.1175 56.5674 42.1829 59.2207C41.9251 60.0479 41.4739 62.1318 42.1936 62.873C42.6233 63.1953 43.1712 63.3242 43.6975 63.2275H60.2835C60.5198 63.292 60.7669 63.3242 61.0032 63.3242H76.3323H77.0198C77.1165 63.3564 77.2132 63.3672 77.3099 63.3672H78.4378L78.7923 62.4219ZM45.5667 45.5352C45.47 45.6104 45.3733 45.6855 45.2874 45.7822C45.18 45.2559 45.1155 44.7188 45.0833 44.1709C44.9544 42.7422 44.6214 39.4873 46.8558 39.4873C47.1888 39.5195 47.5218 39.3691 47.7259 39.1113C48.3811 37.8437 50.4436 37.6289 51.6897 37.6611C52.7962 37.6396 53.8811 37.9297 54.8265 38.5098C55.0628 38.6602 55.2669 38.8535 55.4495 39.0684C55.5032 39.1328 55.6751 39.4014 55.5999 39.2617C55.6751 39.4121 55.847 39.5088 56.0188 39.498C57.1253 39.541 58.0599 40.3252 58.2854 41.4102C58.4036 42.2588 58.4143 43.1289 58.3177 43.9883C58.2854 44.5576 58.221 45.127 58.1028 45.6963C57.9847 45.5781 57.8665 45.4707 57.7268 45.3848C57.4475 45.2129 57.0286 45.1914 56.889 44.9014C56.8245 44.6865 56.7815 44.4717 56.7386 44.2568C56.3089 42.8926 55.2561 41.8291 53.8919 41.3779C53.5052 41.249 53.0862 41.4102 52.8714 41.7539C53.011 41.5498 52.7425 41.8828 52.6673 41.9473C52.3772 42.1836 51.9905 42.291 51.6145 42.248C51.1419 42.1943 50.7122 41.9365 50.4436 41.5391C50.2503 41.3457 49.971 41.2812 49.7132 41.3672C48.6927 41.6895 47.8118 42.334 47.1888 43.2041C46.9847 43.5049 46.8128 43.8379 46.6946 44.1816C46.6409 44.3428 46.3831 44.9121 46.4583 45.0947C46.3509 45.127 46.2542 45.1592 46.1468 45.2021C45.9534 45.2881 45.7493 45.3955 45.5667 45.5352ZM48.0159 50.4551C47.8655 50.0361 47.887 49.542 47.7151 49.1553C47.554 48.7793 47.2532 48.7256 46.9095 48.5967C46.4798 48.4463 46.136 48.0918 46.0071 47.6514C45.9642 47.501 45.9534 47.3506 45.9534 47.2002V47.1895C45.9534 46.8779 46.0608 46.5664 46.2649 46.3301C46.5657 45.9863 46.9954 46.0186 47.3606 45.7715C47.8977 45.4062 47.8548 44.6113 48.0911 44.0527C48.3811 43.3652 48.9075 42.8066 49.5735 42.4736C50.7337 43.4619 52.4309 43.4619 53.6018 42.4951C54.5364 42.9463 55.2239 43.7949 55.4817 44.7939C55.5999 45.2451 55.5999 45.6855 56.0833 45.9111C56.3841 45.9863 56.6741 46.1152 56.9319 46.2871C57.2434 46.5557 57.4153 46.9424 57.4368 47.3506C57.4475 47.7803 57.2649 48.1885 56.9319 48.457C56.5774 48.7148 56.1048 48.6826 55.804 49.0479C55.6214 49.3701 55.5247 49.7246 55.514 50.0898C55.4173 50.5518 55.2454 50.9814 55.0091 51.3789C54.1067 52.8828 52.2913 53.5596 50.6263 53.0225C49.8099 52.7432 49.0901 52.2168 48.596 51.5186C48.3382 51.207 48.1448 50.8418 48.0159 50.4551ZM53.7737 54.7305C53.7845 55.4932 53.4622 56.2129 52.9036 56.7285C52.7747 56.8359 52.6243 56.9326 52.4632 57.0078C52.4309 57.0186 52.4309 57.0186 52.4202 57.0293C52.4095 57.0293 52.4095 57.0293 52.3987 57.0293C52.3772 57.04 52.302 57.0508 52.2913 57.0615C52.1946 57.083 52.0979 57.0938 52.0013 57.0938C51.5501 57.083 51.1204 56.9434 50.7444 56.6855C50.014 56.1699 49.5735 55.3213 49.595 54.4297V53.8604C50.9485 54.3867 52.4524 54.3438 53.7845 53.7529C53.7952 54.0645 53.7952 54.376 53.7737 54.6875C53.7737 54.6982 53.763 54.6982 53.763 54.709C53.763 54.709 53.7737 54.7197 53.7737 54.7305ZM59.4456 62.5615H52.1302H46.1145C45.2122 62.5615 43.3323 63.002 43.1712 61.7666C42.7308 58.4902 45.0188 55.4717 48.2952 55.0205C48.3597 55.9443 48.8645 56.7715 49.6487 57.2549C51.4749 58.2432 53.7522 57.5772 54.7513 55.751C54.8479 55.5684 54.9339 55.3857 54.9983 55.1924C57.1145 55.4824 58.9085 56.8789 59.7141 58.8555C59.4026 59.7686 59.2522 60.7246 59.263 61.6807C59.2522 61.9814 59.3167 62.2822 59.4456 62.5615ZM63.5491 41.9043C64.1399 39.6592 66.0628 37.5967 68.4798 37.5C68.4905 37.5 68.4905 37.5 68.5013 37.5C68.6624 37.6934 69.0813 37.6719 69.3929 37.543C71.4446 37.8223 73.2278 39.1006 74.1731 40.9482C74.764 42.3232 75.011 43.8164 74.9251 45.3096C74.5706 45.1699 74.1839 45.0947 73.8079 45.084C73.2493 45.0518 72.6907 44.9551 72.1429 44.8047C71.0042 44.4932 69.8225 43.8701 69.7688 42.5596C69.7581 42.3555 69.4895 42.3125 69.1888 42.3555C67.1907 42.4307 64.9241 43.29 64.0325 45.2021C63.7962 45.2559 63.5706 45.3418 63.3558 45.4492V44.8369C63.2913 43.8486 63.3558 42.8604 63.5491 41.9043ZM69.7151 57.0723C69.7259 57.0723 69.7366 57.0723 69.7474 57.0723C69.7366 57.0723 69.7259 57.0723 69.7151 57.0723C69.6292 57.0938 69.5432 57.1045 69.4466 57.0938C68.9847 57.083 68.5335 56.9434 68.1575 56.6748C67.427 56.1592 66.9974 55.3105 67.0081 54.4189V53.7637C67.427 53.9248 67.8675 54.0322 68.3079 54.0859C69.2962 54.1826 70.2845 54.0215 71.1868 53.6133C71.219 54.752 71.2298 55.9658 70.2952 56.75C70.1663 56.8467 70.0266 56.9434 69.8763 57.0078L69.7581 57.0508C69.8011 57.0508 69.6722 57.083 69.7151 57.0723ZM70.6927 53.0547C68.7054 53.7852 66.4925 52.8613 65.6224 50.9385C65.4183 50.4336 65.2786 49.9072 65.1927 49.3701C65.053 48.79 64.5911 48.8438 64.1507 48.5967C63.1302 48.0166 62.9905 45.9434 64.43 45.8789C64.7415 45.8682 65.0315 45.6963 65.1819 45.417C65.762 44.1064 67.0403 43.2363 68.4798 43.1611C68.7161 44.7295 70.4886 45.3955 71.8743 45.6855C72.6263 45.8467 73.7005 45.707 74.302 46.2334C74.9358 46.7598 75.0325 47.7051 74.5061 48.3389C74.345 48.5322 74.1516 48.6719 73.9261 48.7686C73.5071 48.8545 73.1741 49.1445 73.0237 49.542C72.9378 50.0146 72.8304 50.4873 72.6907 50.9492C72.304 51.8838 71.595 52.625 70.6927 53.0547ZM65.6868 54.2686C64.8811 54.3652 64.0862 54.5908 63.345 54.9346V49.3057C63.5169 49.3486 63.678 49.4238 63.8069 49.5312C63.9358 49.6816 63.9251 50.208 63.9788 50.4014C64.0433 50.6807 64.1399 50.9492 64.2581 51.207C64.5052 51.7441 64.8382 52.2383 65.2571 52.6572C65.3968 52.7861 65.5364 52.9043 65.6868 53.0117C65.6868 53.4414 65.6868 53.8496 65.6868 54.2686ZM72.5188 52.8184C73.1311 52.3242 73.6253 51.6797 73.9475 50.96C74.0657 50.7021 74.1516 50.4336 74.2268 50.1543C74.2483 50.0576 74.2913 49.4238 74.2806 49.4346C74.4524 49.3164 74.6565 49.2305 74.8606 49.1875V54.8271C74.1194 54.5049 73.3245 54.3223 72.5188 54.2578C72.5188 53.7637 72.5188 53.291 72.5188 52.8184ZM77.6106 62.4219H77.4173C77.3206 62.4219 77.2347 62.4434 77.138 62.4756C76.9339 62.4863 76.7083 62.4648 76.5257 62.4648H62.6897C62.1741 62.5186 61.6585 62.5186 61.1429 62.4648C60.0794 62.207 60.595 59.9619 61.0032 58.8232C61.0462 58.7695 61.0784 58.6943 61.0784 58.6191C61.1321 58.4795 61.1751 58.3721 61.2181 58.2969C62.0667 56.5244 63.7854 55.332 65.7405 55.1387C65.8372 56.0088 66.3313 56.793 67.0725 57.2549C68.8987 58.2432 71.1868 57.5664 72.1751 55.7402C72.2718 55.5576 72.3577 55.3643 72.4222 55.1709C74.0013 55.3965 75.43 56.2451 76.386 57.5342C77.2884 58.8555 77.7073 60.4346 77.5999 62.0244C77.5999 62.2607 77.6106 62.3789 77.6106 62.4219Z" fill="#262626"/>
<path d="M55.9348 75.9463C55.6769 75.9463 55.4728 75.7422 55.4728 75.4844C55.4728 75.3447 55.5373 75.2051 55.6555 75.1192L60.3498 71.6172L54.3771 75.0762C54.1623 75.2051 53.883 75.1299 53.7541 74.9151C53.6359 74.711 53.6896 74.4424 53.8937 74.3028L56.6545 72.4229L54.3771 73.7227C54.1623 73.8516 53.8723 73.7764 53.7541 73.5508C53.6359 73.3467 53.7004 73.0781 53.8937 72.9492L56.1818 71.4024L54.3771 72.4444C54.1623 72.5733 53.8723 72.4873 53.7541 72.2725C53.6359 72.0684 53.6896 71.8106 53.883 71.6817L59.5334 67.5781L54.3771 70.5537C54.1516 70.6719 53.8723 70.5967 53.7541 70.3711C53.6467 70.167 53.7004 69.9199 53.883 69.7803L58.717 66.3213L54.3771 68.8242C54.1516 68.9531 53.8723 68.8672 53.7541 68.6524C53.6359 68.4483 53.7004 68.1797 53.8937 68.0508L54.6135 67.5674L54.3771 67.707C54.1623 67.836 53.883 67.7608 53.7541 67.5459C53.6252 67.3311 53.6896 67.0625 53.8937 66.9336L55.2687 65.999L54.3771 66.5147C54.1516 66.6436 53.8723 66.5576 53.7541 66.3428C53.6359 66.1387 53.7004 65.8916 53.883 65.752L57.5031 63.1416L54.3879 64.9463C54.1623 65.0752 53.883 64.9893 53.7648 64.7744C53.6574 64.5703 53.7004 64.3233 53.883 64.1836L57.0305 61.8633L54.3771 63.3779C54.1623 63.5069 53.8723 63.4317 53.7541 63.2061C53.6359 63.002 53.6896 62.7442 53.883 62.6045L55.3332 61.541L54.506 62.0137C54.2805 62.1426 54.0012 62.0567 53.883 61.8418C53.7756 61.6377 53.8185 61.3906 54.0012 61.251L54.8498 60.6172C54.6135 60.7139 54.3449 60.5957 54.259 60.3594C54.1838 60.1768 54.2375 59.9727 54.3771 59.8438L55.8166 58.5654C55.7199 58.5225 55.634 58.458 55.591 58.3721C55.4621 58.1572 55.5373 57.8779 55.7629 57.749L58.6633 56.0733C58.8781 55.9444 59.1682 56.0195 59.2863 56.2451C59.3937 56.4278 59.3508 56.6748 59.1896 56.8145L58.3947 57.5235L61.091 55.9658C61.3166 55.8369 61.5959 55.9229 61.7141 56.1377C61.8215 56.3418 61.7785 56.5889 61.5959 56.7285L60.7795 57.3408L62.5519 56.3311C62.7668 56.2022 63.0568 56.2774 63.175 56.5029C63.2932 56.7071 63.2394 56.9649 63.0461 57.1045L61.5852 58.1572L63.7336 56.9112C63.9592 56.7822 64.2385 56.8682 64.3566 57.083C64.4641 57.2871 64.4211 57.5342 64.2385 57.6738L61.0803 59.9942L64.8615 57.8135C65.0871 57.6846 65.3664 57.7705 65.4846 57.9854C65.6027 58.1895 65.5383 58.4365 65.3557 58.5762L61.7355 61.1865L65.6994 58.8985C65.9143 58.7695 66.1935 58.8447 66.3225 59.0596C66.4514 59.2744 66.3869 59.543 66.1828 59.6719L64.8078 60.6065L66.1398 59.8438C66.3654 59.7149 66.6447 59.8008 66.7629 60.0156C66.881 60.2197 66.8166 60.4883 66.6232 60.6172L65.8928 61.1006L66.4621 60.7676C66.6769 60.6387 66.967 60.7139 67.0851 60.9395C67.2033 61.1436 67.1496 61.4014 66.9562 61.541L62.1223 64.9893L66.6555 62.3682C66.8703 62.2393 67.1603 62.3252 67.2785 62.5401C67.3967 62.7442 67.343 63.002 67.1496 63.1309L61.4992 67.2344L66.6555 64.2588C66.8703 64.1299 67.1603 64.2051 67.2785 64.4307C67.3967 64.6348 67.3322 64.9033 67.1389 65.0322L64.9045 66.5899L66.7092 65.5479C66.924 65.419 67.2033 65.4942 67.3322 65.709C67.4504 65.9131 67.3967 66.1817 67.1926 66.3213L64.4211 68.2119L66.6984 66.8906C66.9133 66.7617 67.1926 66.8369 67.3215 67.0518C67.4396 67.2559 67.3859 67.5137 67.2033 67.6533L62.5197 71.1445L66.7092 68.7276C66.924 68.5987 67.2141 68.6738 67.3322 68.8994C67.4396 69.0928 67.3967 69.3399 67.2248 69.4795L63.7336 72.3906L66.7092 70.6719C66.924 70.543 67.2033 70.6182 67.3322 70.833C67.4396 71.0156 67.4074 71.252 67.257 71.4024L65.3771 73.2285L66.7199 72.4551C66.9348 72.3262 67.2141 72.4014 67.343 72.627C67.4289 72.7774 67.4289 72.96 67.3322 73.0996L66.6662 74.1416L66.7199 74.1094C66.9348 73.9697 67.2141 74.0342 67.3537 74.249C67.4934 74.4639 67.4289 74.7432 67.2141 74.8828C67.2033 74.8936 67.1926 74.8936 67.1818 74.9043L65.5275 75.8604C65.3127 75.9893 65.0226 75.9141 64.9045 75.6885C64.8185 75.5381 64.8185 75.3555 64.9152 75.2158L65.5812 74.1631L62.6486 75.8604C62.4338 75.9893 62.1545 75.9141 62.0256 75.6992C61.9182 75.5166 61.9504 75.2803 62.1008 75.1299L63.9807 73.3037L59.5334 75.8711C59.3078 76 59.0285 75.9141 58.9103 75.6992C58.8029 75.5059 58.8459 75.2695 59.0178 75.1192L62.509 72.208L56.1603 75.8711C56.0959 75.9248 56.01 75.9463 55.9348 75.9463Z" fill="#A9725E"/>
<path d="M72.3259 66.7617C72.0681 66.7617 71.864 66.5576 71.864 66.2998C71.864 66.1494 71.9392 65.999 72.0681 65.9131L72.1111 65.8809L71.5095 66.2246C71.2947 66.3535 71.0154 66.2783 70.8865 66.0635C70.7576 65.8486 70.822 65.5801 71.0261 65.4512L71.6599 65.0322L71.198 65.3008C70.9832 65.4297 70.7039 65.3545 70.575 65.1289C70.4568 64.9248 70.5105 64.6563 70.7146 64.5166L70.9509 64.3662C70.7468 64.4307 70.532 64.3555 70.4246 64.1729C70.2957 63.9688 70.3494 63.6895 70.5535 63.5498L71.6277 62.8086L70.9509 63.1953C70.7254 63.3135 70.4461 63.2383 70.3279 63.0127C70.2205 62.8086 70.2742 62.5615 70.4568 62.4219L71.574 61.627L70.8972 62.0137C70.6824 62.1426 70.3924 62.0674 70.2742 61.8418C70.1668 61.6592 70.199 61.4336 70.3494 61.2939L72.9597 58.7266L71.4881 59.5752C71.2732 59.7148 70.9939 59.6504 70.8543 59.4355C70.7146 59.2207 70.7791 58.9414 70.9939 58.8018C71.0047 58.791 71.0154 58.791 71.0261 58.7803L75.6131 56.127C75.8279 55.998 76.1179 56.0732 76.2361 56.2988C76.3435 56.4814 76.3113 56.707 76.1609 56.8467L73.5506 59.4141L79.448 56.0088C79.6629 55.8799 79.9529 55.9551 80.0711 56.1807C80.1892 56.3848 80.1355 56.6426 79.9422 56.7822L78.8357 57.5772L80.7908 56.4492C81.0056 56.3203 81.2849 56.3955 81.4138 56.6104C81.532 56.8145 81.4783 57.083 81.2742 57.2227L80.2 57.9639L81.7576 57.0615C81.9832 56.9434 82.2625 57.0186 82.3806 57.2441C82.4988 57.4482 82.4343 57.7061 82.241 57.8457L82.1336 57.9209L82.4881 57.7168C82.7136 57.5986 82.9929 57.6738 83.1111 57.8994C83.2185 58.1035 83.1648 58.3613 82.9715 58.4902L82.3377 58.9199L83.7127 58.125C83.9275 57.9961 84.2068 58.0605 84.3465 58.2754C84.4861 58.4902 84.4109 58.7695 84.1961 58.9092L84.1531 58.9307L84.4324 58.7695C84.6472 58.6406 84.9373 58.7158 85.0554 58.9414C85.1736 59.1348 85.1199 59.3926 84.9373 59.5322L80.9519 62.6582L85.0125 60.3164C85.2273 60.1875 85.5066 60.2627 85.6355 60.4775C85.7429 60.6602 85.7107 60.8965 85.5496 61.0469L82.531 63.8291L84.9802 62.4219C85.1951 62.293 85.4851 62.3682 85.6033 62.5937C85.6892 62.7441 85.6892 62.9375 85.5818 63.0771L84.3465 64.8711L84.6365 64.71C84.8621 64.5918 85.1414 64.6777 85.2595 64.9033C85.367 65.1182 85.3025 65.376 85.0984 65.5049L83.0574 66.6865C82.8426 66.8154 82.5525 66.7402 82.4344 66.5146C82.3484 66.3643 82.3484 66.1709 82.4558 66.0312L83.6912 64.2373L79.448 66.6865C79.2332 66.8154 78.9539 66.7402 78.825 66.5254C78.7176 66.3428 78.7498 66.1064 78.9109 65.9561L81.9187 63.1738L75.8172 66.6973C75.6023 66.8262 75.3123 66.751 75.1941 66.5254C75.0759 66.332 75.1297 66.0742 75.3123 65.9346L79.2976 62.8086L72.5515 66.6973C72.4871 66.7402 72.4011 66.7617 72.3259 66.7617Z" fill="#A9725E"/>
<path d="M70.3167 82.3594C70.0589 82.3594 69.8548 82.1553 69.8548 81.8975C69.8548 81.7578 69.9192 81.6182 70.0374 81.5322L74.8069 77.9551L69.1565 81.2207C68.9417 81.3496 68.6517 81.2744 68.5335 81.0488C68.4153 80.8447 68.469 80.5977 68.6517 80.458L72.2073 77.7617L69.3499 79.416C69.1351 79.5449 68.845 79.4697 68.7269 79.2441C68.6087 79.04 68.6624 78.7822 68.8558 78.6426L69.4466 78.2129C69.221 78.3203 68.9417 78.2129 68.845 77.9873C68.7591 77.8047 68.8128 77.5898 68.9524 77.4609L70.6605 75.9248C70.4241 75.8281 70.3167 75.5596 70.4134 75.3232C70.4564 75.2266 70.5208 75.1514 70.6067 75.0977L73.3245 73.5293C73.5501 73.4111 73.8294 73.4863 73.9476 73.7119C74.0442 73.8945 74.012 74.1201 73.8616 74.2598L72.7981 75.2266L76.1819 73.2822C76.3968 73.1533 76.6868 73.2285 76.805 73.4541C76.9231 73.6582 76.8694 73.916 76.6761 74.0557L76.1067 74.4746L78.1585 73.293C78.3733 73.1641 78.6634 73.2393 78.7815 73.4648C78.8997 73.6689 78.846 73.916 78.6634 74.0557L75.1077 76.752L80.973 73.3682C81.1878 73.2393 81.4778 73.3145 81.596 73.54C81.7142 73.7441 81.6605 74.002 81.4778 74.1309L76.719 77.708L83.2073 73.959C83.4222 73.8301 83.7015 73.9053 83.8304 74.1201C83.9593 74.335 83.8948 74.6035 83.6907 74.7324L82.9603 75.2266L84.1741 74.5283C84.389 74.3994 84.6683 74.4746 84.7972 74.6895C84.9153 74.8828 84.8616 75.1299 84.6898 75.2803L80.554 78.6426L85.4847 75.7959C85.6995 75.667 85.9896 75.7422 86.1077 75.9678C86.2259 76.1719 86.1722 76.4189 85.9896 76.5586L84.1741 77.9443L86.1399 76.8057C86.3548 76.6768 86.6448 76.7627 86.763 76.9775C86.8704 77.1602 86.8274 77.3965 86.6663 77.5469L84.7649 79.2334L86.6556 78.1484C86.8704 78.0195 87.1605 78.0947 87.2786 78.3203C87.3646 78.4707 87.3538 78.6641 87.2571 78.8145L86.097 80.4258L86.8704 79.9854C87.096 79.8672 87.3753 79.9531 87.4935 80.1787C87.6009 80.3936 87.5364 80.6514 87.3323 80.7803L84.7005 82.2949C84.4856 82.4238 84.2064 82.3486 84.0774 82.123C83.9915 81.9619 84.0023 81.7686 84.0989 81.6289L85.2698 80.0176L81.3167 82.3057C81.1019 82.4346 80.8226 82.3594 80.6937 82.1338C80.5862 81.9404 80.6185 81.7041 80.7903 81.5645L82.6917 79.8779L78.4808 82.3057C78.2659 82.4346 77.9759 82.3594 77.8577 82.1338C77.7396 81.9297 77.7933 81.6826 77.9759 81.543L79.7913 80.1572L76.0638 82.3164C75.8382 82.4453 75.5589 82.3594 75.4407 82.1445C75.3333 81.9512 75.3763 81.7148 75.5482 81.5645L79.6839 78.2022L72.5403 82.3272C72.3255 82.4561 72.0462 82.3809 71.9173 82.166C71.7884 81.9512 71.8528 81.6826 72.0569 81.5537L72.7874 81.0596L70.5745 82.3379C70.4671 82.3486 70.3919 82.3594 70.3167 82.3594Z" fill="#4B95FF"/>
<path d="M78.3106 76.7627C78.0528 76.7627 77.8487 76.5586 77.8487 76.3008C77.8487 76.1826 77.8916 76.0752 77.9668 75.9893L78.3858 75.5274L76.8819 76.3975C76.6563 76.5264 76.377 76.4405 76.2588 76.2256C76.1514 76.0323 76.1944 75.7959 76.3555 75.6563L76.4307 75.5918L76.1084 75.7744C75.8936 75.9033 75.6143 75.8282 75.4854 75.6133C75.3672 75.4199 75.4209 75.1729 75.5928 75.0225L76.0654 74.6358L75.6143 74.8936C75.3994 75.0225 75.1201 74.9473 74.9912 74.7324C74.8946 74.5713 74.916 74.3672 75.0342 74.2168L76.377 72.5303L75.4531 73.0674C75.2383 73.1963 74.9483 73.1211 74.8301 72.8955C74.7656 72.7881 74.7549 72.6699 74.7871 72.5518L75.0342 71.628C74.8086 71.5205 74.7119 71.252 74.8194 71.0157C74.8623 70.9297 74.9268 70.8653 75.002 70.8115L75.4639 70.543C75.6787 70.4141 75.958 70.4893 76.0869 70.7149C76.1514 70.8223 76.1621 70.9405 76.1299 71.0586L75.958 71.7139L78.0098 70.5323C78.2246 70.4033 78.5039 70.4785 78.6328 70.6934C78.7295 70.8545 78.708 71.0586 78.5899 71.209L77.2578 72.8848L80.4483 71.0479C80.6631 70.919 80.9424 70.9942 81.0713 71.209C81.1895 71.4024 81.1358 71.6494 80.9639 71.7998L80.4805 72.1973C80.7061 72.0899 80.9854 72.1866 81.0928 72.4121C81.1787 72.5948 81.1358 72.8203 80.9746 72.96L80.6524 73.2285C80.792 73.2285 80.9317 73.293 81.0176 73.4004C81.1572 73.5723 81.1572 73.8301 80.9961 73.9912L80.2227 74.8506C80.459 74.9365 80.5772 75.2051 80.4912 75.4414C80.459 75.5381 80.3838 75.6241 80.2979 75.6778L78.5362 76.6983C78.461 76.7412 78.3858 76.7627 78.3106 76.7627Z" fill="#EABEA3"/>
<path d="M78.9542 73.0137C78.6964 73.0137 78.4923 72.8096 78.4923 72.5518C78.4923 72.4336 78.5353 72.3154 78.6212 72.2295L79.6524 71.1768L76.7413 72.8633C76.5265 72.9922 76.2364 72.917 76.1183 72.6914C76.0001 72.4873 76.0538 72.2402 76.2364 72.1006L78.1378 70.6611L75.4845 72.1973C75.2696 72.3262 74.9796 72.251 74.8614 72.0254C74.754 71.832 74.797 71.585 74.9688 71.4453L78.9972 68.1582L74.3136 70.8652C74.0987 70.9941 73.8087 70.9082 73.6905 70.6934C73.5831 70.5 73.6261 70.2529 73.7979 70.1133L77.4073 67.2236L73.7335 69.3398C73.5187 69.4688 73.2286 69.3936 73.1104 69.168C72.9923 68.9639 73.046 68.7061 73.2394 68.5664L74.4747 67.6748L73.1427 68.4482C72.9278 68.5771 72.6485 68.502 72.5196 68.2871C72.4015 68.0937 72.4552 67.8359 72.6271 67.6963L75.9786 65.0215L71.9396 67.3418C71.7247 67.4707 71.4454 67.3955 71.3165 67.1807C71.2091 66.998 71.2413 66.7617 71.4024 66.6113L74.1202 64.0654L73.7013 64.3125C73.4864 64.4414 73.1964 64.3662 73.0782 64.1406C72.9815 63.9688 73.003 63.7432 73.1427 63.6035L74.1417 62.5078C73.9054 62.4219 73.7765 62.1641 73.8624 61.9277C73.8946 61.8203 73.9698 61.7344 74.0665 61.6807L75.9679 60.585C76.1827 60.4561 76.4728 60.5313 76.5909 60.7568C76.6876 60.9287 76.6661 61.1543 76.5265 61.2939L75.8819 61.9814L77.1173 61.2725C77.3321 61.1436 77.6114 61.2188 77.7403 61.4336C77.8478 61.6162 77.8155 61.8633 77.6544 62.0029L74.9366 64.5488L80.7911 61.165C81.006 61.0361 81.296 61.1221 81.4142 61.3369C81.5216 61.5303 81.4786 61.7773 81.3067 61.917L77.9552 64.5918L81.8009 62.3789C82.0157 62.25 82.3058 62.3252 82.4239 62.5508C82.5421 62.7549 82.4884 63.0127 82.295 63.1523L81.0489 64.0439L82.1554 63.3994C82.3702 63.2705 82.6495 63.3457 82.7784 63.5713C82.8966 63.7646 82.8429 64.0117 82.671 64.1621L79.0616 67.0625L83.4122 64.5488C83.6378 64.4199 83.9171 64.5059 84.0353 64.7207C84.1427 64.9141 84.0997 65.1504 83.9278 65.29L79.8995 68.5771L84.0245 66.2031C84.2394 66.0742 84.5294 66.1494 84.6476 66.375C84.7657 66.5791 84.712 66.8262 84.5294 66.9658L82.3165 68.6416C82.4669 68.6309 82.6173 68.6953 82.7032 68.8242C82.8429 69.0068 82.8321 69.2646 82.671 69.4258L81.3497 70.7686C81.4786 70.79 81.5968 70.876 81.6612 70.9941C81.7901 71.209 81.7149 71.4883 81.4894 71.6172L79.1905 72.9492C79.1153 72.9922 79.0294 73.0137 78.9542 73.0137Z" fill="#F9D2B6"/>
<path d="M37.9093 66.7617C37.6515 66.7617 37.4474 66.5576 37.4474 66.2998C37.4474 66.1602 37.5118 66.0205 37.63 65.9346L42.464 62.2608L36.4913 65.709C36.2765 65.8379 36.0079 65.7627 35.8683 65.5586C35.7394 65.3545 35.7931 65.0752 35.9972 64.9356L36.6954 64.4629L36.255 64.7207C36.0401 64.8496 35.7608 64.7744 35.6319 64.5596C35.5138 64.3555 35.5675 64.0869 35.7608 63.9473L37.8448 62.4756L36.1046 63.4746C35.879 63.5928 35.5997 63.5176 35.4815 63.292C35.3741 63.0986 35.4171 62.8516 35.589 62.7119L39.0157 60.0371L36.0294 61.7559C35.8146 61.8848 35.5353 61.8096 35.4063 61.5947C35.2989 61.4121 35.3312 61.1651 35.4923 61.0254L37.7267 58.9629L36.6417 59.586C36.4269 59.7256 36.1476 59.6612 36.0079 59.4463C35.8683 59.2315 35.9327 58.9522 36.1476 58.8125C36.1583 58.8018 36.169 58.8018 36.1798 58.791L40.7667 56.1377C40.9815 56.0088 41.2608 56.084 41.3897 56.2988C41.4972 56.4815 41.4649 56.7178 41.3038 56.8682L39.0802 58.9414L44.2257 55.9658C44.4513 55.8369 44.7306 55.9229 44.8487 56.1377C44.9562 56.3311 44.9132 56.5781 44.7306 56.7178L41.3038 59.3926L46.1808 56.5781C46.3956 56.4492 46.6856 56.5244 46.8038 56.75C46.922 56.9541 46.8683 57.2119 46.6749 57.3516L44.6017 58.8447L47.1798 57.3516C47.3946 57.2227 47.6739 57.2979 47.8028 57.5127C47.9317 57.7276 47.8673 57.9961 47.6632 58.125L46.9649 58.5977L48.2433 57.8565C48.4688 57.7276 48.7481 57.8135 48.8663 58.0283C48.9737 58.2217 48.9308 58.4795 48.7481 58.6192L43.9142 62.293L49.6935 58.9522C49.9083 58.8233 50.1983 58.8985 50.3165 59.124C50.4347 59.3281 50.381 59.586 50.1983 59.7149L47.0938 62.0352L50.1446 60.2735C50.3595 60.1446 50.6388 60.2197 50.7677 60.4453C50.8858 60.6387 50.8321 60.8858 50.6603 61.0361L48.3722 62.8623L50.1554 61.8311C50.3702 61.7022 50.6603 61.7774 50.7784 62.0029C50.8858 62.1963 50.8429 62.4326 50.6817 62.583L49.7149 63.4102L50.0694 63.2061C50.2843 63.0772 50.5636 63.1524 50.6925 63.3779C50.7677 63.5176 50.7784 63.6895 50.7032 63.8291L49.9083 65.3008C50.1554 65.3545 50.3165 65.6016 50.2628 65.8487C50.2306 65.9776 50.1554 66.085 50.0479 66.1494L49.0704 66.708C48.8556 66.8369 48.5763 66.7617 48.4474 66.5362C48.3722 66.3965 48.3614 66.2246 48.4366 66.085L49.1241 64.8174L45.88 66.6973C45.6651 66.8262 45.3751 66.7403 45.2569 66.5254C45.1495 66.332 45.1925 66.0957 45.3536 65.9561L46.3204 65.1289L43.5919 66.6973C43.3771 66.8262 43.0978 66.751 42.9688 66.5254C42.8507 66.332 42.9044 66.085 43.0763 65.9346L45.3644 64.1084L40.8849 66.6973C40.6593 66.8262 40.38 66.7403 40.2618 66.5254C40.1544 66.3213 40.1974 66.0742 40.38 65.9346L43.4737 63.6143L38.1349 66.6973C38.0704 66.7403 37.9845 66.7617 37.9093 66.7617Z" fill="#7A4E43"/>
<path d="M41.1522 82.3379C40.8944 82.3379 40.6903 82.1338 40.6903 81.876C40.6903 81.7256 40.7655 81.5859 40.8836 81.5L41.3455 81.1777L39.4549 82.2734C39.2401 82.4023 38.95 82.3271 38.8319 82.1016C38.7137 81.8975 38.7674 81.6396 38.95 81.5107L42.5916 78.7822L36.5438 82.2734C36.3289 82.4023 36.0389 82.3271 35.9207 82.1016C35.8026 81.8975 35.8563 81.6396 36.0496 81.5L39.8524 78.75L34.3953 81.9082C34.1698 82.0371 33.8905 81.9512 33.7723 81.7363C33.6649 81.543 33.7078 81.2959 33.8905 81.1563L38.5633 77.5684L34.2664 80.0391C34.0516 80.168 33.7723 80.0928 33.6434 79.8779C33.5252 79.6846 33.5789 79.4375 33.7508 79.2979L36.8123 76.7412L34.8143 77.9014C34.5994 78.0303 34.3094 77.9551 34.1912 77.7295C34.0838 77.5361 34.1268 77.2998 34.2879 77.1602L35.6307 76C35.5555 75.957 35.491 75.8926 35.4481 75.8174C35.3192 75.6025 35.3944 75.3125 35.6199 75.1943L38.5203 73.5186C38.7459 73.3896 39.0252 73.4756 39.1434 73.6904C39.2508 73.8838 39.2078 74.1201 39.0467 74.2598L38.5418 74.7002L40.9696 73.3037C41.1951 73.1748 41.4744 73.2607 41.5926 73.4756C41.7 73.6689 41.6571 73.9053 41.4959 74.0449L38.4344 76.6016L44.1492 73.3037C44.3641 73.1748 44.6541 73.25 44.7723 73.4756C44.8905 73.6689 44.8367 73.9268 44.6541 74.0664L39.9813 77.6543L47.1893 73.4971C47.4041 73.3682 47.6942 73.4434 47.8123 73.6689C47.9305 73.873 47.8768 74.1309 47.6834 74.2705L43.8807 77.0205L48.8114 74.1738C49.0262 74.0449 49.3162 74.1201 49.4344 74.3457C49.5526 74.5498 49.4989 74.8076 49.3162 74.9365L45.6746 77.665L50.0789 75.1299C50.2938 75.001 50.5838 75.0762 50.702 75.3018C50.8201 75.5059 50.7664 75.7637 50.5623 75.9033L50.1004 76.2256L50.7235 75.8711C50.9383 75.7422 51.2283 75.8281 51.3465 76.043C51.4539 76.2363 51.411 76.4834 51.2283 76.6338L49.2196 78.1484L51.3465 76.9131C51.5614 76.7842 51.8514 76.8594 51.9696 77.085C52.077 77.2783 52.034 77.5254 51.8621 77.665L50.5086 78.8037L51.658 78.1377C51.8836 78.0195 52.1629 78.0947 52.2811 78.3203C52.3778 78.4922 52.3455 78.7178 52.2059 78.8574L51.3143 79.749L51.7977 79.4697C52.0125 79.3408 52.3026 79.416 52.4207 79.6416C52.5067 79.7813 52.5067 79.9639 52.4207 80.1035L52.0877 80.6514C52.2811 80.6191 52.4637 80.7051 52.5604 80.877C52.6893 81.0918 52.6141 81.3711 52.3885 81.5L51.0242 82.2949C50.8094 82.4238 50.5194 82.3486 50.4012 82.123C50.3153 81.9834 50.326 81.8008 50.4012 81.6611L50.702 81.167L48.7684 82.2734C48.5428 82.3916 48.2635 82.3164 48.1453 82.0908C48.0487 81.9189 48.0809 81.6934 48.2205 81.5537L49.1121 80.6621L46.3299 82.2734C46.1043 82.4023 45.825 82.3164 45.7069 82.1016C45.5994 81.9082 45.6424 81.6719 45.8143 81.5215L47.1785 80.3828L43.9022 82.2734C43.6873 82.4023 43.3973 82.3164 43.2791 82.1016C43.1717 81.9082 43.2147 81.6611 43.3973 81.5107L45.3953 79.9531L41.3778 82.2734C41.3133 82.3164 41.2274 82.3379 41.1522 82.3379Z" fill="#4B95FF"/>
<path d="M43.3217 76.7949C43.0638 76.7949 42.8597 76.5908 42.8597 76.333C42.8597 76.2363 42.892 76.1289 42.9564 76.0537L44.0306 74.668L41.5814 76.0859C41.3666 76.2148 41.0765 76.1396 40.9584 75.9141C40.8617 75.7314 40.8832 75.5166 41.0228 75.3662L43.1498 73.207L40.7328 74.6035C40.5072 74.7324 40.2279 74.6465 40.1097 74.4316C40.0023 74.249 40.0453 74.0127 40.1957 73.873L40.7113 73.4004L40.6254 73.4434C40.4105 73.5723 40.1205 73.4971 40.0023 73.2715C39.9486 73.1748 39.9271 73.0566 39.9486 72.9492L40.2386 71.6172C40.142 71.585 40.056 71.5098 40.0023 71.4131C39.8734 71.1982 39.9486 70.9189 40.1742 70.79L40.6361 70.5215C40.851 70.3926 41.141 70.4678 41.2592 70.6934C41.3129 70.79 41.3344 70.9082 41.3129 71.0156L41.0551 72.1436L43.8695 70.5215C44.0951 70.3926 44.3744 70.4785 44.4926 70.6934C44.6 70.876 44.557 71.1123 44.4066 71.252L43.891 71.7246L45.599 70.7363C45.8138 70.6074 46.1039 70.6826 46.222 70.9082C46.3295 71.0908 46.2972 71.3164 46.1469 71.4561L44.0306 73.6152L45.599 72.7129C45.8138 72.584 46.1039 72.6592 46.222 72.8848C46.308 73.0459 46.2972 73.2393 46.1898 73.3896L45.1049 74.7754C45.3412 74.6787 45.6097 74.7861 45.7064 75.0117C45.8031 75.2266 45.7172 75.4736 45.5131 75.5918L43.5365 76.7305C43.4828 76.7734 43.4076 76.7949 43.3217 76.7949Z" fill="#925C4C"/>
<path d="M54.4734 82.3379C54.2156 82.3379 54.0115 82.1338 54.0115 81.876C54.0115 81.7256 54.0867 81.5752 54.2156 81.5L55.0964 80.9092L52.7224 82.2735C52.5076 82.4024 52.2175 82.3272 52.0993 82.1016C51.9812 81.8975 52.0349 81.6397 52.2283 81.5L56.2029 78.6319L51.6374 81.2744C51.4118 81.4033 51.1325 81.3174 51.0144 81.1026C50.8962 80.8985 50.9607 80.6406 51.154 80.501L51.573 80.2217C51.3259 80.2862 51.0788 80.1465 51.0144 79.8994C50.9714 79.7168 51.0359 79.5235 51.1863 79.416L53.238 77.8692L51.949 78.6104C51.7341 78.7393 51.4548 78.6641 51.3259 78.4492C51.2185 78.2666 51.2507 78.0303 51.4011 77.8799L53.3132 76.0322C53.1413 76.043 52.9695 75.957 52.8728 75.8067C52.7439 75.5918 52.8191 75.3125 53.0447 75.1836L55.9451 73.5078C56.1599 73.3789 56.4392 73.4541 56.5681 73.669C56.6755 73.8516 56.6433 74.0879 56.4929 74.2383L54.7097 75.9678L59.3396 73.293C59.5544 73.1748 59.8122 73.2393 59.9519 73.4326C60.0808 73.6367 60.0378 73.9053 59.8445 74.0557L57.7927 75.6026L61.7888 73.293C62.0144 73.1641 62.2937 73.25 62.4118 73.4649C62.53 73.669 62.4656 73.9268 62.2722 74.0664L62.0359 74.2276L63.5398 73.3574C63.7546 73.2285 64.0447 73.3037 64.1628 73.5293C64.281 73.7334 64.2273 73.9912 64.0339 74.1309L60.0593 76.999L65.5271 73.8408C65.7419 73.7119 66.0212 73.7871 66.1501 74.002C66.279 74.2168 66.2146 74.4854 66.0105 74.6143L65.1404 75.2051L66.5691 74.3779C66.7839 74.249 67.074 74.3242 67.1921 74.5498C67.3103 74.7432 67.2566 75.001 67.074 75.1406L63.3464 78.0088L67.7937 75.4414C68.0193 75.3125 68.2986 75.3985 68.4167 75.6133C68.5242 75.7959 68.4812 76.0322 68.32 76.1719L64.8933 79.2119L68.7927 76.9561C69.0076 76.8272 69.2976 76.9131 69.4158 77.128C69.5232 77.3213 69.4802 77.5684 69.3083 77.708L68.3845 78.4492L69.2224 77.9658C69.4372 77.8369 69.7273 77.9121 69.8454 78.1377C69.9314 78.2881 69.9206 78.4815 69.824 78.6319L68.5456 80.4473L69.448 79.9317C69.6736 79.8135 69.9529 79.8994 70.071 80.125C70.1784 80.3399 70.114 80.5977 69.9099 80.7266L67.1921 82.2735C66.9773 82.4024 66.6872 82.3272 66.5691 82.1016C66.4831 81.9512 66.4939 81.7578 66.5906 81.6074L67.8689 79.8028L63.5935 82.2735C63.3786 82.4024 63.0993 82.3272 62.9704 82.1016C62.8523 81.9082 62.906 81.6612 63.0779 81.5108L64.0017 80.7696L61.4128 82.2735C61.1872 82.4024 60.9079 82.3164 60.7898 82.1016C60.6824 81.919 60.7253 81.6826 60.8865 81.543L64.3132 78.5029L57.7605 82.2735C57.5456 82.4024 57.2556 82.3272 57.1374 82.1016C57.0193 81.9082 57.073 81.6504 57.2556 81.5108L60.9831 78.6426L54.7097 82.2735C54.6345 82.3164 54.5593 82.3379 54.4734 82.3379Z" fill="#AEA8FB"/>
<path d="M42.7964 73.1211C42.5386 73.1211 42.3345 72.917 42.3345 72.6591C42.3345 72.5195 42.399 72.3906 42.5064 72.3047L42.9898 71.9072L41.604 72.7129C41.3892 72.8418 41.1099 72.7666 40.981 72.5517C40.8628 72.3584 40.9165 72.1006 41.0884 71.9609L44.2144 69.4902L40.2075 71.7998C39.9927 71.9287 39.7027 71.8535 39.5845 71.6279C39.4771 71.4345 39.52 71.1875 39.6919 71.0478L43.5161 67.9433L39.2085 70.4248C38.9937 70.5537 38.7144 70.4785 38.5855 70.2636C38.4673 70.0595 38.521 69.8125 38.7036 69.6728L41.4536 67.5888L38.8325 69.1035C38.6177 69.2324 38.3384 69.1572 38.2095 68.9424C38.0913 68.7382 38.145 68.4912 38.3277 68.3515L40.8736 66.4179L37.7368 68.2226C37.522 68.3623 37.2427 68.2978 37.1031 68.083C36.9634 67.8681 37.0279 67.5888 37.2427 67.4492L38.6499 66.4394L37.0923 67.331C36.8775 67.4599 36.5874 67.374 36.4693 67.1591C36.3618 66.9658 36.4048 66.7295 36.5659 66.5898L38.8111 64.6884L37.6187 65.3437C37.3931 65.4619 37.1138 65.3867 36.9956 65.1611C36.899 64.9892 36.9312 64.7636 37.0708 64.624L39.23 62.4756C39.1656 62.4326 39.1118 62.3789 39.0689 62.3144C38.94 62.0996 39.0152 61.8203 39.2407 61.6914L41.1421 60.5957C41.3677 60.4775 41.647 60.5527 41.7652 60.7783C41.8618 60.9502 41.8296 61.1758 41.69 61.3154L40.1861 62.8193L42.7212 61.3476C42.9361 61.2187 43.2261 61.2939 43.3443 61.5195C43.4517 61.7129 43.4087 61.9492 43.2476 62.0996L41.0132 64.0009L45.9546 61.1543C46.1695 61.0254 46.4595 61.1006 46.5777 61.3261C46.6958 61.5302 46.6421 61.7881 46.4488 61.9277L45.0523 62.9375L46.7173 61.9814C46.9322 61.8525 47.2222 61.9277 47.3404 62.1533C47.4585 62.3574 47.4048 62.6045 47.2222 62.7441L44.6763 64.6777L47.2866 63.1738C47.5015 63.0449 47.7808 63.1201 47.9097 63.3349C48.0279 63.539 47.9741 63.7861 47.7915 63.9258L45.0415 66.0097L48.0493 64.2802C48.2749 64.1513 48.5542 64.2373 48.6724 64.4521C48.7798 64.6455 48.7368 64.8818 48.565 65.0322L44.7407 68.1367L49.1773 65.5693C49.3921 65.4404 49.6822 65.5156 49.8003 65.7412C49.9077 65.9345 49.8648 66.1816 49.6929 66.3213L46.5669 68.792L47.3833 68.3193C47.5982 68.1904 47.8775 68.2656 48.0064 68.4912C48.1138 68.6845 48.0708 68.9316 47.8989 69.0713L47.1685 69.6728C47.3404 69.6728 47.4907 69.7588 47.5767 69.8984C47.7056 70.1132 47.6304 70.3925 47.4048 70.5215L43.0113 73.0566C42.9575 73.0996 42.8823 73.1211 42.7964 73.1211Z" fill="#A9725E"/>
<path d="M60.3273 76.7949C60.0695 76.7949 59.8654 76.5908 59.8654 76.333C59.8654 76.2256 59.9084 76.1074 59.9836 76.0323L61.0041 74.8936L58.963 76.0645C58.7482 76.1934 58.4689 76.1182 58.34 75.9033C58.2326 75.7207 58.2648 75.4844 58.4259 75.334L59.5861 74.2705L58.2433 75.044C58.0177 75.1621 57.7384 75.0869 57.6203 74.8614C57.5236 74.6895 57.5558 74.4639 57.6955 74.3242L58.0392 73.9805C57.8781 74.0664 57.6847 74.0449 57.5451 73.9375C57.3947 73.8301 57.3302 73.6367 57.3839 73.4541L57.631 72.5303C57.4054 72.4229 57.3087 72.1543 57.4162 71.918C57.4591 71.8321 57.5236 71.7676 57.5988 71.7139L58.0607 71.4453C58.2755 71.3164 58.5548 71.3916 58.6837 71.6172C58.7482 71.7246 58.7589 71.8428 58.7267 71.961L58.5548 72.6162L60.6066 71.4346C60.8322 71.3164 61.1115 71.3916 61.2296 71.6172C61.3263 71.7891 61.2941 72.0147 61.1545 72.1543L60.8107 72.4873L62.6691 71.4131C62.8839 71.2842 63.1632 71.3594 63.2921 71.5742C63.3996 71.7569 63.3673 71.9932 63.2062 72.1436L62.0461 73.2178L63.0343 72.6485C63.2492 72.5196 63.5392 72.5948 63.6574 72.8203C63.7541 72.9922 63.7326 73.2071 63.6037 73.3574L62.5832 74.4961L62.7658 74.3887C62.9806 74.2598 63.2707 74.3457 63.3888 74.5606C63.5177 74.7754 63.4425 75.0547 63.2169 75.1836L60.5636 76.7198C60.4884 76.7735 60.4025 76.7949 60.3273 76.7949Z" fill="#EABEA3"/>
<path d="M61.5301 73.0136C61.2722 73.0136 61.0681 72.8095 61.0681 72.5517C61.0681 72.4228 61.1218 72.3047 61.2078 72.2187L61.7986 71.6494L59.6072 72.9277C59.3816 73.0566 59.1023 72.9707 58.9842 72.7558C58.8767 72.5625 58.9197 72.3261 59.0916 72.1758L62.4861 69.3613L57.8884 72.0146C57.6629 72.1435 57.3836 72.0576 57.2654 71.8428C57.1472 71.6386 57.201 71.3808 57.3943 71.2519L58.7049 70.3066L57.115 71.2197C56.9002 71.3486 56.6209 71.2734 56.492 71.0586C56.3738 70.8545 56.4275 70.5859 56.6209 70.4463L57.0398 70.1562L56.6316 70.3926C56.4168 70.5215 56.1267 70.4463 56.0086 70.2207C55.8904 70.0166 55.9441 69.7588 56.1375 69.6299L57.2332 68.8242L56.3416 69.3398C56.1267 69.4687 55.8367 69.3935 55.7185 69.1679C55.6111 68.9853 55.6433 68.749 55.8045 68.6094L58.5115 66.1172L55.074 68.1045C54.8592 68.2334 54.5691 68.1582 54.4509 67.9326C54.3435 67.7392 54.3865 67.4922 54.5584 67.3525L56.1375 66.0742L54.4832 67.0303C54.2683 67.1592 53.9783 67.084 53.8601 66.8584C53.7527 66.6758 53.7849 66.4502 53.9353 66.2998L56.6101 63.7431C56.3738 63.6465 56.2556 63.3887 56.3523 63.1523C56.3953 63.0556 56.4597 62.9697 56.5564 62.916L58.8875 61.541C59.1023 61.4121 59.3816 61.4765 59.5213 61.6914C59.6394 61.874 59.6072 62.1211 59.4461 62.2715L57.2976 64.3232L60.6277 62.4004C60.8533 62.2715 61.1326 62.3574 61.2508 62.5722C61.3582 62.7656 61.3152 63.0019 61.1433 63.1523L59.5642 64.4414L61.6052 63.2597C61.8201 63.1308 62.1101 63.206 62.2283 63.4316C62.3357 63.6142 62.3035 63.8506 62.1424 63.9902L59.4461 66.4824L63.7644 63.9902C63.9793 63.8613 64.2693 63.9365 64.3875 64.1621C64.5056 64.3662 64.4519 64.624 64.2586 64.7529L63.1629 65.5693L65.4187 64.2695C65.6336 64.1406 65.9129 64.2158 66.0418 64.4306C66.1599 64.6347 66.1062 64.9033 65.9129 65.0429L65.4939 65.333L66.2996 64.8711C66.5252 64.7422 66.8045 64.8281 66.9226 65.0429C67.0408 65.247 66.9871 65.5049 66.7937 65.6338L65.4832 66.5791L66.6863 65.8808C66.9119 65.7519 67.1912 65.8379 67.3093 66.0527C67.4168 66.2461 67.3738 66.4824 67.2019 66.6328L63.8181 69.4472L64.6453 68.9746C64.8601 68.8457 65.1394 68.9101 65.2791 69.125C65.3972 69.3076 65.365 69.5547 65.2039 69.7051L64.0437 70.79C64.2801 70.8867 64.3875 71.1553 64.2908 71.3916C64.2478 71.4883 64.1834 71.5635 64.0974 71.6064L61.7664 72.9492C61.6912 72.9922 61.616 73.0136 61.5301 73.0136Z" fill="#F9D2B6"/>
<path d="M83.166 68.6953C83.166 68.6846 83.166 68.6738 83.1768 68.6523C83.166 68.6846 83.166 68.6953 83.166 68.6953Z" fill="#262626"/>
<path d="M48.3281 68.5557C48.3389 68.5449 48.3604 68.5449 48.3818 68.5342C48.3711 68.5234 48.3496 68.5342 48.3281 68.5557Z" fill="#262626"/>
<path d="M61.1543 76.0859C61.165 76.0859 61.165 76.0859 61.1865 76.0859C61.165 76.0752 61.1543 76.0752 61.1543 76.0859Z" fill="#262626"/>
<path d="M83.1328 68.4805C83.1436 68.4805 83.1543 68.4697 83.165 68.4697C83.165 68.4697 83.1543 68.4697 83.1328 68.4805Z" fill="#262626"/>
<path d="M87.7845 79.7705C87.6233 76.2686 84.8518 73.4434 81.3606 73.207C81.3606 72.7559 81.3606 72.3154 81.3606 71.8643C81.4358 71.7998 81.5218 71.7461 81.597 71.6709C82.4241 70.8652 82.972 69.8232 83.1546 68.6846C83.1546 68.6846 83.1546 68.6738 83.1653 68.6416C83.1653 68.6523 83.1653 68.6631 83.1546 68.6846C83.1546 68.6738 83.1975 68.4805 83.1653 68.459C83.1546 68.459 83.1438 68.4697 83.1331 68.4697C83.1438 68.459 83.1546 68.4482 83.1653 68.459C83.3157 68.3945 83.4661 68.3301 83.6272 68.2871C83.8743 68.1689 84.1106 68.0078 84.304 67.8252C84.7444 67.417 85.0022 66.8584 85.0345 66.2568C85.8938 65.1826 85.9261 63.292 85.9475 62.0566C86.0765 61.1221 85.9583 60.1768 85.6038 59.2959C85.0774 58.3613 84.1214 57.7598 83.0579 57.6846C82.1878 56.3203 80.2005 55.9014 78.6106 55.8369V55.8262H77.2893C77.2893 55.8369 77.2893 55.8477 77.2893 55.8691C75.764 55.9873 73.8411 56.4707 72.9495 57.7383C72.0042 57.8779 71.1341 58.3721 70.5433 59.124C70.0276 59.9619 69.8235 60.9609 69.9417 61.9385C69.8987 63.1631 70.0599 64.3877 70.4036 65.5693C70.5003 65.9023 70.6507 66.2246 70.8655 66.5039C70.9192 67.374 71.4886 68.126 72.3157 68.4268C72.5628 68.5234 72.6165 68.4805 72.7239 68.7061C72.7884 68.9639 72.8313 69.2217 72.8528 69.4795C72.9817 69.9844 73.1966 70.457 73.4759 70.8867C73.7659 71.3271 74.1204 71.7139 74.5286 72.0361C74.5286 72.4658 74.5286 72.8955 74.5286 73.3252C72.4446 73.5723 70.554 74.6787 69.3401 76.3867C69.3294 76.3652 69.3186 76.3545 69.3079 76.333C68.8567 75.6348 68.2874 75.0332 67.6106 74.5498V67.1592C67.6106 64.5166 68.0833 61.2617 66.5686 58.9414C65.3548 57.1475 63.3567 56.0518 61.1975 55.998V55.9766L59.7796 56.0625C58.0931 56.2666 56.514 57.0293 55.3108 58.2432C53.1302 60.499 53.4524 63.4316 53.4524 66.2998V66.3857C53.4524 66.418 53.4524 66.4502 53.4524 66.4824V74.7217C53.0979 74.9902 52.7649 75.291 52.4534 75.624C52.2493 75.8604 52.0559 76.1074 51.8841 76.3652C51.3899 75.5811 50.7454 74.8936 49.9827 74.3672C48.9515 73.6797 47.7591 73.2822 46.5237 73.207C46.5345 72.7773 46.5237 72.3477 46.5237 71.918C46.6097 71.8535 46.6956 71.7891 46.7708 71.7139C47.1897 71.3164 47.5442 70.8545 47.8128 70.3389C48.0384 69.8018 48.2102 69.2432 48.3284 68.6631C48.3499 68.6094 48.3714 68.5342 48.3606 68.5234C48.3392 68.5342 48.3284 68.5342 48.3069 68.5449C48.3392 68.5234 48.3499 68.5127 48.3606 68.5234C48.5003 68.459 48.6507 68.4053 48.8011 68.3623C49.0481 68.2334 49.2737 68.0723 49.4778 67.8789C49.9075 67.46 50.1653 66.8906 50.1975 66.2891C51.0569 65.2148 51.0784 63.3135 51.1106 62.0674C51.2288 61.1328 51.1106 60.1768 50.7669 59.3066C50.2405 58.3613 49.2845 57.749 48.2102 57.6738C47.3294 56.3203 45.3528 55.9014 43.7737 55.8369C43.7737 55.8262 43.7737 55.8262 43.7737 55.8154H42.4417C42.4417 55.8262 42.4417 55.8369 42.4417 55.8477C40.9163 55.9658 39.0257 56.4492 38.1233 57.7168C37.1673 57.8457 36.2972 58.3506 35.7171 59.124C35.2015 59.9727 34.9974 60.9609 35.1263 61.9385C35.0833 63.1631 35.2444 64.3877 35.5882 65.5693C35.6849 65.9131 35.8352 66.2354 36.0501 66.5146C36.1038 67.2773 36.5442 67.9648 37.221 68.3301C37.3821 68.4268 37.7688 68.4912 37.8655 68.6309C37.9515 68.8779 38.0052 69.1357 38.0159 69.3936C38.1448 69.9307 38.3704 70.4463 38.6712 70.9082C38.9612 71.3486 39.305 71.7354 39.7239 72.0684C39.7239 72.5088 39.7239 72.9492 39.7239 73.3896C36.9202 73.6797 34.5354 75.5596 33.6009 78.2129C33.3431 79.04 32.8919 81.124 33.6116 81.8652C34.0413 82.1875 34.5892 82.3164 35.1155 82.2197H51.6907C51.927 82.2842 52.1741 82.3164 52.4104 82.3164H67.7395H68.427C68.5237 82.3486 68.6204 82.3594 68.7171 82.3594H85.2063C85.5071 82.3594 85.8294 82.3809 86.1302 82.3594C87.6878 82.2734 87.8274 81.0166 87.7845 79.7705ZM37.0061 64.5381C36.9095 64.6133 36.8128 64.6885 36.7268 64.7852C36.6194 64.2588 36.555 63.7217 36.5227 63.1738C36.3938 61.7451 36.0608 58.4902 38.2952 58.4902C38.6282 58.5225 38.9612 58.3721 39.1653 58.1143C39.8206 56.8467 41.8831 56.6318 43.1292 56.6641C44.2356 56.6426 45.3206 56.9326 46.2659 57.5127C46.5022 57.6631 46.7063 57.8564 46.889 58.0713C46.9427 58.1357 47.1145 58.4043 47.0393 58.2646C47.1145 58.415 47.2864 58.5117 47.4583 58.501C48.5647 58.5439 49.4993 59.3281 49.7249 60.4131C49.8431 61.2617 49.8538 62.1318 49.7571 62.9912C49.7249 63.5605 49.6604 64.1299 49.5423 64.6992C49.4241 64.5811 49.3059 64.4736 49.1663 64.3877C48.887 64.2158 48.4681 64.1943 48.3284 63.9043C48.264 63.6895 48.221 63.4746 48.178 63.2598C47.7483 61.8955 46.6956 60.832 45.3313 60.3809C44.9446 60.252 44.5257 60.4131 44.3108 60.7568C44.4505 60.5527 44.1819 60.8857 44.1067 60.9502C43.8167 61.1865 43.43 61.2939 43.054 61.251C42.5813 61.1973 42.1517 60.9395 41.8831 60.542C41.6897 60.3486 41.4104 60.2842 41.1526 60.3701C40.1321 60.6924 39.2513 61.3369 38.6282 62.207C38.4241 62.5078 38.2522 62.8408 38.1341 63.1846C38.0804 63.3457 37.8225 63.915 37.8977 64.0977C37.7903 64.1299 37.6936 64.1621 37.5862 64.2051C37.3821 64.291 37.1888 64.3984 37.0061 64.5381ZM39.4554 69.4688C39.305 69.0498 39.3265 68.5557 39.1546 68.1689C38.9934 67.793 38.6927 67.7393 38.3489 67.6104C37.9192 67.46 37.5755 67.1055 37.4466 66.665C37.4036 66.5147 37.3929 66.3643 37.3929 66.2139V66.2031C37.3929 65.8916 37.5003 65.5801 37.7044 65.3438C38.0052 65 38.4349 65.0322 38.8001 64.7852C39.3372 64.4199 39.2942 63.625 39.5306 63.0664C39.8206 62.3789 40.347 61.8203 41.013 61.4873C42.1731 62.4756 43.8704 62.4756 45.0413 61.5088C45.9759 61.96 46.6634 62.8086 46.9212 63.8076C47.0393 64.2588 47.0393 64.6992 47.5227 64.9248C47.8235 65 48.1136 65.1289 48.3714 65.3008C48.6829 65.5693 48.8548 65.9561 48.8763 66.3643C48.887 66.7939 48.7044 67.2022 48.3714 67.4707C48.0169 67.7285 47.5442 67.6963 47.2434 68.0615C47.0608 68.3838 46.9642 68.7383 46.9534 69.1035C46.8567 69.5654 46.6849 69.9951 46.4485 70.3926C45.5462 71.8965 43.7308 72.5732 42.0657 72.0361C41.2493 71.7568 40.5296 71.2305 40.0354 70.5322C39.7669 70.21 39.5843 69.8447 39.4554 69.4688ZM45.2024 73.7334C45.2132 74.4961 44.8909 75.2158 44.3323 75.7314C44.2034 75.8389 44.053 75.9356 43.8919 76.0107C43.8597 76.0215 43.8597 76.0215 43.8489 76.0322C43.8382 76.0322 43.8382 76.0322 43.8274 76.0322C43.8059 76.043 43.7308 76.0537 43.72 76.0645C43.6233 76.0859 43.5267 76.0967 43.43 76.0967C42.9788 76.0859 42.5491 75.9463 42.1731 75.6885C41.4427 75.1729 41.0022 74.3242 41.0237 73.4326V72.8633C42.3772 73.3896 43.8811 73.3467 45.2132 72.7559C45.2239 73.0674 45.2239 73.3789 45.2024 73.6904C45.2024 73.7012 45.1917 73.7012 45.1917 73.7119C45.1917 73.7119 45.2024 73.7227 45.2024 73.7334ZM50.885 81.5645H43.5696H37.554C36.6517 81.5645 34.7718 82.0049 34.6106 80.7695C34.1702 77.4932 36.4583 74.4746 39.7347 74.0234C39.7991 74.9473 40.304 75.7744 41.0882 76.2578C42.9143 77.2461 45.1917 76.5801 46.1907 74.7539C46.2874 74.5713 46.3733 74.3887 46.4378 74.1953C48.554 74.4854 50.3479 75.8818 51.1536 77.8584C50.8421 78.7715 50.6917 79.7275 50.7024 80.6836C50.6917 80.9844 50.7561 81.2852 50.885 81.5645ZM54.9778 60.9072C55.5686 58.6621 57.4915 56.5996 59.9085 56.5029C59.9192 56.5029 59.9192 56.5029 59.93 56.5029C60.0911 56.6963 60.51 56.6748 60.8216 56.5459C62.8733 56.8252 64.6565 58.1035 65.6018 59.9512C66.1927 61.3262 66.4397 62.8193 66.3538 64.3125C65.9993 64.1729 65.6126 64.0977 65.2366 64.0869C64.678 64.0547 64.1194 63.958 63.5716 63.8076C62.4329 63.4961 61.2513 62.873 61.1975 61.5625C61.1868 61.3584 60.9183 61.3154 60.6175 61.3584C58.6194 61.4336 56.3528 62.293 55.4612 64.2051C55.2249 64.2588 54.9993 64.3447 54.7845 64.4522V63.8398C54.72 62.8516 54.7845 61.874 54.9778 60.9072ZM61.1546 76.0859C61.1653 76.0859 61.1761 76.0859 61.1868 76.0859C61.1653 76.0752 61.1546 76.0752 61.1546 76.0859C61.0686 76.1074 60.9827 76.1182 60.886 76.1074C60.4241 76.0967 59.9729 75.957 59.597 75.6885C58.8665 75.1729 58.4368 74.3242 58.4475 73.4326V72.7773C58.8665 72.9385 59.3069 73.0459 59.7474 73.0996C60.7356 73.1963 61.7239 73.0352 62.6263 72.627C62.6585 73.7656 62.6692 74.9795 61.7347 75.7637C61.6058 75.8604 61.4661 75.957 61.3157 76.0215L61.1975 76.0645C61.2298 76.0537 61.1009 76.0859 61.1546 76.0859ZM62.1214 72.0576C60.1341 72.7881 57.9212 71.8643 57.0511 69.9414C56.847 69.4365 56.7073 68.9102 56.6214 68.373C56.4817 67.793 56.0198 67.8467 55.5794 67.5996C54.5589 67.0195 54.4192 64.9463 55.8587 64.8818C56.1702 64.8711 56.4602 64.6992 56.6106 64.4199C57.1907 63.1094 58.469 62.2393 59.9085 62.1641C60.1448 63.7324 61.9173 64.3984 63.303 64.6885C64.055 64.8496 65.1292 64.71 65.7308 65.2363C66.3645 65.7627 66.4612 66.708 65.9349 67.3418C65.7737 67.5352 65.5804 67.6748 65.3548 67.7715C64.9358 67.8574 64.6028 68.1475 64.4524 68.5449C64.3665 69.0176 64.2591 69.4902 64.1194 69.9521C63.7434 70.8867 63.0237 71.6279 62.1214 72.0576ZM57.1155 73.2715C56.3099 73.3682 55.5149 73.5938 54.7737 73.9375V68.3086C54.9456 68.3516 55.1067 68.4268 55.2356 68.5342C55.3645 68.6846 55.3538 69.2109 55.4075 69.4043C55.472 69.6836 55.5686 69.9522 55.6868 70.21C55.9339 70.7471 56.2669 71.2412 56.6858 71.6602C56.8255 71.7891 56.9651 71.9072 57.1155 72.0147C57.1155 72.4443 57.1155 72.8633 57.1155 73.2715ZM63.9475 71.8213C64.5599 71.3272 65.054 70.6826 65.3763 69.9629C65.4944 69.7051 65.5804 69.4365 65.6556 69.1572C65.677 69.0605 65.72 68.4268 65.7093 68.4375C65.8811 68.3193 66.0852 68.2334 66.2893 68.1904V73.8301C65.5481 73.5078 64.7532 73.3252 63.9475 73.2607C63.9583 72.7773 63.9475 72.2939 63.9475 71.8213ZM69.0393 81.4248H68.846C68.7493 81.4248 68.6634 81.4463 68.5667 81.4785C68.3626 81.4893 68.137 81.4678 67.9544 81.4678H54.1292C53.6136 81.5215 53.0979 81.5215 52.5823 81.4678C51.5188 81.21 52.0345 78.9648 52.4427 77.8262C52.4856 77.7725 52.5179 77.6973 52.5179 77.6221C52.5716 77.4824 52.6145 77.375 52.6575 77.2998C53.5061 75.5273 55.2249 74.335 57.18 74.1416C57.2767 75.0117 57.7708 75.7959 58.512 76.2578C60.3382 77.2461 62.6263 76.5693 63.6145 74.7432C63.7112 74.5605 63.7972 74.3672 63.8616 74.1738C65.4407 74.3994 66.8694 75.248 67.8255 76.5371C68.7278 77.8584 69.1468 79.4375 69.0393 81.0273C69.0286 81.2637 69.0393 81.3818 69.0393 81.4248ZM71.596 64.7959C71.5852 64.8066 71.5745 64.8174 71.5638 64.8281C71.4456 64.2803 71.3704 63.7324 71.3382 63.1738C71.2093 61.7559 70.8655 58.458 73.0999 58.458C73.3792 58.458 73.8304 58.3613 73.97 58.0928C74.5931 56.8896 76.3655 56.6426 77.6224 56.6211C77.7298 56.6318 77.8372 56.6318 77.9446 56.6211C79.0511 56.5996 80.136 56.9004 81.0813 57.4697C81.3177 57.6309 81.5218 57.8135 81.7044 58.0391C81.7581 58.1035 81.9192 58.3613 81.8548 58.2432C81.9407 58.3936 82.1018 58.4688 82.263 58.458C83.3694 58.5117 84.304 59.3066 84.5296 60.3916C84.6585 61.251 84.6692 62.1104 84.5618 62.9697C84.5296 63.5498 84.4651 64.1191 84.347 64.6777C84.1966 64.5273 84.0247 64.3984 83.8313 64.3018C83.4983 64.1299 83.219 64.1836 83.1224 63.7861C83.0686 63.582 83.0364 63.3672 82.972 63.1631C82.5315 61.8418 81.4895 60.8105 80.1575 60.3916C79.7708 60.2949 79.3733 60.4346 79.137 60.7568C78.5677 61.3799 77.5901 61.4229 76.9778 60.8428C76.8811 60.7461 76.7845 60.6387 76.72 60.5205C76.5481 60.252 76.054 60.3809 75.8284 60.4561C74.8509 60.7891 74.013 61.4229 73.4329 62.2715C73.2181 62.5937 73.0569 62.9375 72.928 63.3027C72.8743 63.582 72.8099 63.8613 72.7347 64.1299C72.7239 64.1084 72.6487 64.1621 72.595 64.1836C72.4661 64.248 72.3157 64.291 72.1868 64.3555C71.9934 64.4844 71.7786 64.6348 71.596 64.7959ZM74.2493 69.3828C74.1849 68.9531 74.0882 68.5342 73.9593 68.1152C73.7659 67.75 73.4114 67.7607 73.0677 67.5996C72.6272 67.3848 72.3157 66.9658 72.2298 66.4824C72.219 66.3857 72.2083 66.2998 72.2083 66.2031C72.2083 66.1924 72.2083 66.1924 72.2083 66.1816C72.2083 65.8272 72.3372 65.4834 72.5735 65.2148C72.885 64.8711 73.3684 64.9141 73.7122 64.624C74.1849 64.2266 74.1419 63.4424 74.3997 62.8945C74.6897 62.2607 75.1839 61.7344 75.8069 61.4121C76.9778 62.3896 78.6751 62.4004 79.8567 61.4443C80.8128 61.9277 81.511 62.7979 81.7581 63.8398C81.8763 64.3232 81.887 64.667 82.4026 64.8926C82.7786 65.0537 83.0472 65.0752 83.3265 65.4082C83.5628 65.6982 83.6917 66.0527 83.7024 66.418C83.7024 66.8477 83.5198 67.2559 83.1975 67.5352C82.8538 67.8145 82.3811 67.7607 82.0696 68.1152C81.8763 68.416 81.7796 68.7705 81.7688 69.125C81.6722 69.5869 81.5003 70.0273 81.264 70.4355C80.3724 71.9932 78.4817 72.6807 76.7952 72.0576C75.9788 71.7461 75.2806 71.1982 74.7864 70.4785C74.5608 70.1455 74.3782 69.7695 74.2493 69.3828ZM79.1477 75.6885C79.0188 75.7959 78.8684 75.8818 78.7073 75.9463C78.5569 76 78.4065 76.0322 78.2454 76.043C77.7942 76.043 77.3645 75.9141 76.9886 75.667C76.2581 75.1621 75.8391 74.3242 75.8606 73.4434V72.8203C77.2141 73.3252 78.7181 73.2715 80.0501 72.6807C80.0823 73.7871 80.0823 74.9365 79.1477 75.6885ZM86.2591 81.4248C86.2161 81.457 86.0872 81.4141 86.0335 81.4248C85.5286 81.4785 85.0237 81.4785 84.5081 81.4248H70.221C70.4143 80.8125 70.4681 80.1572 70.3606 79.5127C70.3177 78.8467 70.1673 78.2021 69.9309 77.5791C70.3499 76.5479 71.0481 75.6562 71.9505 75.001C72.7239 74.4424 73.637 74.1201 74.5931 74.0557C74.679 74.9795 75.1839 75.8066 75.9681 76.29C77.7405 77.2891 79.9964 76.666 80.9954 74.8828C81.1243 74.668 81.221 74.4316 81.2962 74.1953C84.2395 74.6357 86.4202 77.1494 86.4632 80.1143C86.4524 80.4043 86.5706 81.2422 86.2591 81.4248Z" fill="#262626"/>
<circle cx="60" cy="60" r="59.25" stroke="url(#paint0_linear_4507_36532)" stroke-width="1.5"/>
<defs>
<linearGradient id="paint0_linear_4507_36532" x1="-2.40281e-06" y1="120" x2="120.548" y2="119.447" gradientUnits="userSpaceOnUse">
<stop stop-color="#CA9342"/>
<stop offset="0.331885" stop-color="#D3A347"/>
<stop offset="0.711985" stop-color="#D8AF53"/>
<stop offset="1" stop-color="#E0BF62"/>
</linearGradient>
</defs>
</svg>
