<svg width="15" height="15" viewBox="0 0 15 15" fill="none" xmlns="http://www.w3.org/2000/svg">
<path d="M9.05185 3.35508C9.74541 3.78994 10.2317 4.5258 10.3203 5.37998C10.6031 5.51214 10.9171 5.58814 11.2499 5.58814C12.465 5.58814 13.4498 4.6033 13.4498 3.3884C13.4498 2.17331 12.465 1.18848 11.2499 1.18848C10.0464 1.18885 9.0702 2.15609 9.05185 3.35508ZM7.61063 7.85939C8.82572 7.85939 9.81056 6.87436 9.81056 5.65946C9.81056 4.44456 8.82553 3.45972 7.61063 3.45972C6.39573 3.45972 5.41033 4.44475 5.41033 5.65965C5.41033 6.87455 6.39573 7.85939 7.61063 7.85939ZM8.5438 8.00933H6.67709C5.12392 8.00933 3.86035 9.27309 3.86035 10.8263V13.1091L3.86615 13.1449L4.0234 13.1941C5.50562 13.6572 6.79334 13.8117 7.85324 13.8117C9.92344 13.8117 11.1234 13.2214 11.1973 13.1838L11.3443 13.1095H11.36V10.8263C11.3605 9.27309 10.097 8.00933 8.5438 8.00933ZM12.1835 5.73827H10.3311C10.3111 6.47938 9.99476 7.14673 9.49438 7.6267C10.875 8.03722 11.8851 9.31746 11.8851 10.8296V11.5331C13.714 11.4661 14.7679 10.9477 14.8373 10.9129L14.9843 10.8384H15V8.55482C15 7.00184 13.7364 5.73827 12.1835 5.73827ZM3.75047 5.58851C4.18083 5.58851 4.58124 5.46291 4.92044 5.24894C5.02827 4.54565 5.40528 3.93108 5.94384 3.51251C5.94609 3.47133 5.95002 3.43052 5.95002 3.38896C5.95002 2.17388 4.96499 1.18904 3.75047 1.18904C2.53519 1.18904 1.55054 2.17388 1.55054 3.38896C1.55054 4.60349 2.53519 5.58851 3.75047 5.58851ZM5.72613 7.6267C5.22819 7.14917 4.91295 6.48537 4.88993 5.74875C4.82123 5.7437 4.75328 5.73827 4.68326 5.73827H2.81674C1.26357 5.73827 0 7.00184 0 8.55482V10.838L0.00580307 10.8732L0.163048 10.9228C1.35212 11.2941 2.41333 11.4652 3.33508 11.5191V10.8296C3.33545 9.31746 4.34519 8.0376 5.72613 7.6267Z" fill="#D4B56A"/>
</svg>
