<svg width="15" height="15" viewBox="0 0 15 15" fill="none" xmlns="http://www.w3.org/2000/svg">
<path d="M12.2067 2.78809C10.7674 2.78809 9.57898 3.88253 9.42969 5.28289C10.4743 5.93097 11.1716 7.08813 11.1716 8.40529V10.2881C11.1716 10.9749 10.862 11.6063 10.3551 12.027V14.5557C10.3551 14.7984 10.5519 14.9951 10.7946 14.9951H13.6188C13.8615 14.9951 14.0583 14.7984 14.0583 14.5557V10.1852C14.6049 10.0012 14.9997 9.48383 14.9997 8.87598V5.58104C14.9997 4.04103 13.7467 2.78809 12.2067 2.78809Z" fill="#D4B56A"/>
<path d="M12.207 2.78826C12.9771 2.78826 13.6035 2.16181 13.6035 1.39177C13.5333 -0.458332 10.8805 -0.457804 10.8105 1.3918C10.8105 2.16181 11.437 2.78826 12.207 2.78826Z" fill="#D4B56A"/>
<path d="M8.89715 4.21583C8.89715 3.44579 8.2707 2.81934 7.50066 2.81934C5.65057 2.88953 5.65107 5.54239 7.50069 5.61232C8.27067 5.61232 8.89715 4.98587 8.89715 4.21583Z" fill="#D4B56A"/>
<path d="M7.49968 5.6123C6.06035 5.6123 4.87195 6.70675 4.72266 8.10711C5.7673 8.75519 6.46453 9.91235 6.46453 11.2295V11.7002C6.46453 12.387 6.15501 13.0184 5.64812 13.4391V14.5557C5.64812 14.7984 5.84487 14.9951 6.08757 14.9951H8.91179C9.15448 14.9951 9.35124 14.7984 9.35124 14.5557V11.5973C9.89789 11.4133 10.2926 10.896 10.2926 10.2881V8.40526C10.2926 6.86522 9.03973 5.6123 7.49968 5.6123Z" fill="#D4B56A"/>
<path d="M2.79296 8.43652C1.24767 8.43652 0 9.6873 0 11.2295V11.7002C0 12.308 0.394746 12.8254 0.941396 13.0094V14.5556C0.941396 14.7983 1.13815 14.9951 1.38085 14.9951H4.20507C4.44776 14.9951 4.64452 14.7983 4.64452 14.5556V13.0094C5.19117 12.8254 5.58592 12.308 5.58592 11.7002V11.2295C5.58595 9.68442 4.3355 8.43652 2.79296 8.43652Z" fill="#D4B56A"/>
<path d="M2.79298 8.43669C3.56299 8.43669 4.18947 7.81024 4.18947 7.0402C4.11928 5.19011 1.46642 5.19063 1.39648 7.04023C1.39651 7.81024 2.02297 8.43669 2.79298 8.43669Z" fill="#D4B56A"/>
</svg>
