<svg width="34" height="35" viewBox="0 0 34 35" fill="none" xmlns="http://www.w3.org/2000/svg">
<g clip-path="url(#clip0_4121_238)">
<path d="M33.7857 4.67352C34.1332 4.22229 34.0491 3.57476 33.598 3.22726C33.147 2.87975 32.4994 2.96369 32.1518 3.41486L26.4172 10.8597C25.3958 10.8597 24.8056 10.8597 23.1563 10.8597L19.6014 9.69052L17.355 6.05816C16.926 5.36461 15.8184 5.33274 15.2936 6.18752L13.1872 9.61741L10.0421 10.7034C9.9331 10.6861 8.47813 10.6848 7.70476 10.6854C7.38874 10.6856 7.07118 10.7145 6.7602 10.7705L4.13184 11.2438L1.5904 9.85973C1.06864 9.57564 0.415269 9.76815 0.131183 10.29C-0.152904 10.8119 0.0396747 11.4652 0.561496 11.7493L3.42686 13.3097C3.6314 13.421 3.87318 13.4661 4.11477 13.4266L5.94832 13.1271L4.17965 22.0615C4.14671 22.228 4.18981 22.4006 4.29745 22.5318C4.40516 22.663 4.56593 22.7391 4.73573 22.7391C4.90368 22.7391 5.09811 22.7391 5.31274 22.7391L3.11761 30.3041C2.92908 30.9536 3.30282 31.6329 3.95234 31.8214C4.6012 32.0098 5.281 31.6366 5.46959 30.9866L7.86281 22.7391C8.23821 22.7391 8.62064 22.7391 9.00049 22.7391V30.6457C9.00049 31.322 9.54867 31.8703 10.225 31.8703C10.9014 31.8703 11.4496 31.3221 11.4496 30.6457V22.739C11.9082 22.739 12.3106 22.739 12.623 22.739C12.7926 22.739 12.9533 22.6624 13.061 22.5313C13.1686 22.4002 13.2119 22.2278 13.179 22.0614L11.2957 12.5466L14.2534 11.5254C14.4888 11.4442 14.6887 11.2837 14.819 11.0715L16.4191 8.46592L18.0451 11.0951C18.1728 11.3015 18.3692 11.4564 18.6 11.5323L22.2423 12.7301L22.2428 30.6327C22.2428 31.3161 22.7968 31.8701 23.4803 31.8701C24.1637 31.8701 24.7176 31.3161 24.7176 30.6327V20.7419H25.2519V30.6328C25.2519 31.3162 25.8059 31.8702 26.4893 31.8702C27.1727 31.8702 27.7266 31.3162 27.7266 30.6328C27.7266 13.2386 27.7042 24.4177 27.7042 12.5631C27.7641 12.4938 27.293 13.1024 33.7857 4.67352Z" fill="black"/>
<path d="M24.9809 10.1781C26.1612 10.1781 27.1181 9.22128 27.1181 8.04097C27.1181 6.86065 26.1612 5.90381 24.9809 5.90381C23.8006 5.90381 22.8438 6.86065 22.8438 8.04097C22.8438 9.22128 23.8006 10.1781 24.9809 10.1781Z" fill="black"/>
<path d="M8.67734 9.90022C9.84534 9.90022 10.7922 8.95337 10.7922 7.78538C10.7922 6.61738 9.84534 5.67053 8.67734 5.67053C7.50935 5.67053 6.5625 6.61738 6.5625 7.78538C6.5625 8.95337 7.50935 9.90022 8.67734 9.90022Z" fill="black"/>
</g>
<defs>
<clipPath id="clip0_4121_238">
<rect width="34" height="34" fill="white" transform="translate(0 0.441528)"/>
</clipPath>
</defs>
</svg>
