<svg width="128" height="128" viewBox="0 0 128 128" fill="none" xmlns="http://www.w3.org/2000/svg">
<g filter="url(#filter0_d_4507_36609)">
<path d="M86.0806 75.7812C86.0498 75.8073 86.0117 75.8234 85.9714 75.8274C85.9312 75.8314 85.8907 75.8231 85.8552 75.8036C85.8198 75.7841 85.7911 75.7543 85.773 75.7181C85.7549 75.6819 85.7481 75.6411 85.7537 75.6011L85.8432 74.9417C85.8177 74.9767 85.7815 75.0025 85.7401 75.0152C85.6987 75.0279 85.6543 75.0268 85.6135 75.0121C85.5728 74.9974 85.538 74.9698 85.5143 74.9335C85.4905 74.8973 85.4793 74.8543 85.4821 74.8111L85.5234 74.1968L85.452 74.3928C85.4363 74.4361 85.4061 74.4726 85.3665 74.4961C85.327 74.5197 85.2805 74.5289 85.2349 74.5221C85.1894 74.5154 85.1476 74.4931 85.1166 74.4591C85.0855 74.425 85.0672 74.3814 85.0647 74.3354L85.0171 73.4884L84.8224 74.0243C84.807 74.0665 84.7778 74.1022 84.7396 74.1258C84.7014 74.1494 84.6563 74.1594 84.6116 74.1542C84.567 74.149 84.5254 74.129 84.4936 74.0973C84.4618 74.0655 84.4416 74.024 84.4363 73.9794L84.344 73.1855L84.0815 73.9067C84.0661 73.949 84.0369 73.9849 83.9985 74.0085C83.9602 74.0321 83.9149 74.0421 83.8702 74.0368C83.8255 74.0315 83.7838 74.0113 83.7521 73.9793C83.7203 73.9474 83.7002 73.9057 83.6951 73.8609L83.6175 73.169L83.2756 74.104C83.2591 74.1492 83.2269 74.187 83.1848 74.2103C83.1428 74.2337 83.0937 74.2411 83.0466 74.2312C82.9995 74.2213 82.9576 74.1947 82.9285 74.1563C82.8994 74.118 82.8852 74.0704 82.8884 74.0224L82.9056 73.7675L82.5874 74.6412C82.5678 74.6889 82.5305 74.7271 82.4834 74.7479C82.4362 74.7687 82.3828 74.7705 82.3344 74.7529C82.286 74.7353 82.2462 74.6997 82.2234 74.6534C82.2006 74.6072 82.1966 74.554 82.2121 74.5048L83.012 72.3075C83.0287 72.2625 83.0609 72.225 83.1029 72.2019C83.1449 72.1787 83.1939 72.1714 83.2408 72.1813C83.2877 72.1912 83.3295 72.2177 83.3586 72.2559C83.3876 72.2941 83.4019 72.3415 83.3989 72.3893L83.3818 72.6437L83.5311 72.2341C83.5465 72.1918 83.5757 72.1559 83.6141 72.1322C83.6524 72.1086 83.6976 72.0986 83.7424 72.1039C83.7871 72.1092 83.8287 72.1295 83.8605 72.1614C83.8923 72.1933 83.9124 72.2351 83.9174 72.2798L83.9951 72.9717L84.255 72.258C84.2704 72.2158 84.2995 72.18 84.3378 72.1564C84.376 72.1328 84.4211 72.1228 84.4657 72.128C84.5104 72.1332 84.5519 72.1533 84.5838 72.185C84.6156 72.2167 84.6358 72.2582 84.6411 72.3028L84.7331 73.0964L84.9729 72.4377C84.9885 72.3942 85.0186 72.3575 85.0582 72.3338C85.0978 72.3101 85.1444 72.3008 85.1901 72.3076C85.2357 72.3143 85.2777 72.3366 85.3087 72.3708C85.3398 72.4049 85.3581 72.4488 85.3605 72.4949L85.4075 73.3424L85.6234 72.7491C85.6398 72.7039 85.672 72.6661 85.714 72.6427C85.756 72.6193 85.805 72.6119 85.8521 72.6217C85.8991 72.6316 85.9411 72.658 85.9702 72.6963C85.9993 72.7346 86.0137 72.782 86.0106 72.83L85.9706 73.4433L86.0971 73.0966C86.1144 73.0511 86.1478 73.0135 86.1909 72.9909C86.234 72.9682 86.2839 72.9621 86.3312 72.9737C86.3785 72.9852 86.42 73.0137 86.4478 73.0536C86.4756 73.0936 86.4879 73.1424 86.4823 73.1907L86.3976 73.8148L86.5058 73.5154C86.514 73.4897 86.5272 73.4659 86.5448 73.4454C86.5623 73.425 86.5838 73.4083 86.608 73.3964C86.6322 73.3845 86.6585 73.3776 86.6854 73.3761C86.7123 73.3746 86.7393 73.3786 86.7646 73.3878C86.7899 73.397 86.8131 73.4112 86.8328 73.4297C86.8525 73.4481 86.8683 73.4703 86.8792 73.4949C86.8901 73.5196 86.8958 73.5462 86.8962 73.5731C86.8965 73.6001 86.8914 73.6268 86.8811 73.6517L86.1379 75.6945C86.1268 75.7279 86.107 75.7578 86.0806 75.7812Z" fill="#E2AC4D"/>
<path d="M82.5276 79.3285C82.4983 79.3532 82.4625 79.3689 82.4244 79.3738C82.3864 79.3787 82.3477 79.3725 82.3131 79.356C82.2785 79.3395 82.2493 79.3134 82.2291 79.2808C82.2089 79.2482 82.1985 79.2104 82.1992 79.1721L82.2116 78.353L82.1314 78.5727C82.1151 78.6173 82.0835 78.6547 82.0422 78.6782C82.0008 78.7016 81.9525 78.7096 81.9058 78.7006C81.8592 78.6916 81.8173 78.6663 81.7876 78.6292C81.7579 78.5922 81.7424 78.5457 81.7438 78.4982L81.7709 77.6308L81.5113 78.3442C81.4938 78.3916 81.459 78.4306 81.414 78.4533C81.3689 78.4761 81.3169 78.481 81.2684 78.4669C81.2199 78.4529 81.1785 78.4211 81.1525 78.3778C81.1266 78.3345 81.1179 78.283 81.1284 78.2336L81.737 75.4465L80.558 78.6898C80.5498 78.7155 80.5366 78.7393 80.519 78.7597C80.5015 78.7802 80.48 78.7968 80.4558 78.8088C80.4316 78.8207 80.4053 78.8276 80.3784 78.829C80.3514 78.8305 80.3245 78.8265 80.2992 78.8173C80.2739 78.8081 80.2506 78.7939 80.231 78.7755C80.2113 78.7571 80.1955 78.7349 80.1846 78.7102C80.1737 78.6856 80.168 78.659 80.1676 78.632C80.1673 78.6051 80.1724 78.5783 80.1827 78.5534L82.3843 72.5034C82.4018 72.456 82.4366 72.4171 82.4817 72.3943C82.5267 72.3715 82.5788 72.3667 82.6273 72.3807C82.6758 72.3947 82.7172 72.4266 82.7431 72.4699C82.7691 72.5132 82.7777 72.5647 82.7673 72.6141L81.985 76.1922C82.0055 76.189 82.0264 76.1891 82.0468 76.1925C82.0935 76.2014 82.1355 76.2267 82.1652 76.2639C82.195 76.301 82.2105 76.3475 82.209 76.395L82.1826 77.264L82.2411 77.1037C82.2573 77.0594 82.2887 77.0222 82.3297 76.9988C82.3707 76.9753 82.4186 76.9672 82.465 76.9757C82.5115 76.9843 82.5534 77.009 82.5833 77.0455C82.6133 77.0819 82.6293 77.1278 82.6287 77.175L82.6171 77.995L82.7816 77.5439C82.7898 77.5182 82.803 77.4944 82.8206 77.474C82.8381 77.4535 82.8597 77.4368 82.8838 77.4249C82.908 77.413 82.9343 77.4061 82.9613 77.4046C82.9882 77.4032 83.0151 77.4071 83.0404 77.4163C83.0658 77.4256 83.089 77.4398 83.1087 77.4582C83.1283 77.4766 83.1441 77.4988 83.155 77.5234C83.1659 77.5481 83.1717 77.5747 83.172 77.6017C83.1723 77.6286 83.1672 77.6553 83.157 77.6803L82.5877 79.2447C82.5756 79.2775 82.5548 79.3064 82.5276 79.3285Z" fill="#E2AC4D"/>
<path d="M82.7907 82.0037C82.7583 82.0309 82.7182 82.0471 82.6761 82.0501C82.6339 82.0531 82.5919 82.0426 82.5561 82.0202C82.5202 81.9978 82.4924 81.9647 82.4766 81.9255C82.4608 81.8863 82.4579 81.8431 82.4681 81.8021L82.5363 81.5326L82.3024 82.1723C82.2859 82.2172 82.2538 82.2546 82.212 82.2779C82.1703 82.3011 82.1215 82.3086 82.0747 82.299C82.0278 82.2894 81.986 82.2633 81.9568 82.2254C81.9275 82.1876 81.9128 82.1405 81.9153 82.0927L81.9483 81.522L81.662 82.3095C81.647 82.351 81.6187 82.3864 81.5814 82.4101C81.5442 82.4339 81.5001 82.4446 81.4561 82.4406C81.4121 82.4366 81.3707 82.4182 81.3383 82.3882C81.3059 82.3581 81.2843 82.3182 81.277 82.2746L81.1438 81.4854L80.8594 82.2656C80.8439 82.308 80.8144 82.344 80.7759 82.3676C80.7374 82.3911 80.692 82.4009 80.6471 82.3954C80.6023 82.3899 80.5607 82.3693 80.529 82.3371C80.4974 82.3048 80.4776 82.2628 80.4729 82.2179L80.3834 81.3539L80.1433 82.0129C80.1261 82.0562 80.0943 82.092 80.0534 82.1144C80.0125 82.1367 79.9651 82.144 79.9194 82.1351C79.8737 82.1262 79.8325 82.1016 79.803 82.0656C79.7735 82.0295 79.7575 81.9843 79.7578 81.9377L79.7911 81.0155L79.5726 81.6163C79.5538 81.664 79.5173 81.7027 79.4707 81.7242C79.4241 81.7458 79.371 81.7486 79.3225 81.7321C79.2739 81.7156 79.2335 81.681 79.2097 81.6356C79.1859 81.5901 79.1805 81.5372 79.1946 81.4879L79.3203 81.0887L79.2513 81.2781C79.234 81.3252 79.1996 81.364 79.155 81.387C79.1103 81.4099 79.0587 81.4152 79.0104 81.4018C78.9621 81.3884 78.9205 81.3573 78.894 81.3148C78.8675 81.2722 78.858 81.2212 78.8674 81.1719L79.1301 79.8255L78.8481 80.5974C78.8307 80.6443 78.7964 80.6829 78.752 80.7057C78.7076 80.7285 78.6562 80.7339 78.608 80.7207C78.5598 80.7075 78.5183 80.6767 78.4917 80.6345C78.4651 80.5922 78.4552 80.5415 78.4641 80.4923L78.5727 79.9129C78.5407 79.9333 78.5037 79.9442 78.4658 79.9444C78.4279 79.9445 78.3907 79.9339 78.3587 79.9137C78.3266 79.8935 78.3009 79.8646 78.2846 79.8304C78.2683 79.7962 78.2621 79.7581 78.2667 79.7205L78.2787 79.6217C78.2536 79.6545 78.2189 79.6788 78.1794 79.6912C78.1399 79.7035 78.0975 79.7032 78.0582 79.6904C78.0188 79.6777 77.9844 79.653 77.9596 79.6198C77.9349 79.5866 77.9211 79.5465 77.9201 79.5052L77.9149 79.04L77.7521 79.4896C77.7358 79.5347 77.7037 79.5724 77.6619 79.5959C77.62 79.6193 77.5712 79.6269 77.5242 79.6173C77.4772 79.6077 77.4352 79.5815 77.4059 79.5435C77.3767 79.5055 77.362 79.4582 77.3647 79.4103L77.3745 79.1596L77.305 79.3498C77.2886 79.3958 77.2558 79.4342 77.213 79.4577C77.1702 79.4812 77.1202 79.4882 77.0726 79.4773C77.0249 79.4665 76.9829 79.4386 76.9544 79.3988C76.926 79.3591 76.9131 79.3104 76.9181 79.2618L76.9227 79.2156C76.9023 79.2529 76.8705 79.2826 76.832 79.3006C76.7935 79.3186 76.7503 79.3238 76.7086 79.3155C76.6621 79.3057 76.6207 79.2796 76.5917 79.242C76.5627 79.2043 76.5481 79.1576 76.5504 79.1102L76.5765 78.5618L76.4564 78.8906C76.4394 78.9357 76.4067 78.9732 76.3642 78.996C76.3218 79.0189 76.2725 79.0257 76.2254 79.0151C76.1784 79.0044 76.1368 78.9772 76.1083 78.9383C76.0798 78.8994 76.0663 78.8515 76.0703 78.8035L76.1314 78.1376L76.0021 78.4928C75.9844 78.5408 75.9489 78.5802 75.903 78.6028C75.8571 78.6254 75.8043 78.6295 75.7554 78.6143C75.7065 78.5991 75.6654 78.5658 75.6404 78.5211C75.6154 78.4765 75.6084 78.424 75.621 78.3744L76.0958 76.5433L75.5761 77.9665C75.5585 78.0139 75.5236 78.0529 75.4783 78.0756C75.4331 78.0983 75.3809 78.103 75.3323 78.0887C75.2838 78.0744 75.2424 78.0422 75.2167 77.9986C75.191 77.955 75.1827 77.9033 75.1936 77.8539L75.6179 76.0036L75.1903 77.1784C75.1734 77.2244 75.1401 77.2626 75.0968 77.2857C75.0536 77.3088 75.0033 77.3151 74.9557 77.3036C74.908 77.292 74.8663 77.2633 74.8384 77.223C74.8105 77.1826 74.7984 77.1334 74.8045 77.0848L74.9839 75.682C74.9533 75.7171 74.9114 75.7404 74.8654 75.7479C74.8194 75.7553 74.7723 75.7465 74.7321 75.7229C74.692 75.6993 74.6613 75.6624 74.6455 75.6186C74.6296 75.5748 74.6295 75.5269 74.6453 75.483L75.2166 73.9143C75.2335 73.8682 75.2668 73.83 75.3101 73.807C75.3533 73.7839 75.4036 73.7775 75.4513 73.7891C75.4989 73.8006 75.5407 73.8293 75.5685 73.8697C75.5964 73.91 75.6085 73.9592 75.6025 74.0079L75.4313 75.3515L76.349 72.8295C76.3666 72.782 76.4015 72.743 76.4468 72.7203C76.492 72.6976 76.5442 72.693 76.5928 72.7073C76.6413 72.7216 76.6826 72.7538 76.7084 72.7974C76.7341 72.8409 76.7424 72.8927 76.7315 72.9421L76.3051 74.7967L77.1512 72.473C77.169 72.425 77.2045 72.3857 77.2504 72.363C77.2963 72.3404 77.3491 72.3363 77.398 72.3515C77.4468 72.3667 77.488 72.4 77.513 72.4447C77.538 72.4893 77.5449 72.5419 77.5324 72.5914L76.5367 76.4301C76.5786 76.4449 76.6145 76.4734 76.6384 76.511C76.6624 76.5485 76.6731 76.593 76.6689 76.6374L76.6078 77.3032L76.6499 77.1886C76.6664 77.1441 76.6984 77.1069 76.7399 77.0837C76.7814 77.0606 76.8298 77.053 76.8764 77.0624C76.923 77.0717 76.9648 77.0973 76.9942 77.1347C77.0236 77.1721 77.0387 77.2187 77.0368 77.2662L77.0106 77.8157L77.0975 77.5779C77.114 77.5319 77.1467 77.4935 77.1896 77.47C77.2324 77.4465 77.2824 77.4395 77.33 77.4503C77.3776 77.4612 77.4197 77.4891 77.4481 77.5288C77.4766 77.5685 77.4895 77.6173 77.4844 77.6659L77.4795 77.7222C77.5015 77.6884 77.5332 77.662 77.5703 77.6464C77.6075 77.6307 77.6485 77.6265 77.688 77.6343C77.735 77.6439 77.777 77.67 77.8064 77.7079C77.8357 77.7459 77.8504 77.7931 77.8478 77.841L77.8342 78.0877L77.91 77.879C77.926 77.8351 77.9569 77.7981 77.9973 77.7746C78.0377 77.7511 78.0851 77.7425 78.1312 77.7503C78.1774 77.758 78.2194 77.7817 78.2499 77.8173C78.2804 77.8528 78.2974 77.8979 78.2981 77.9447L78.3043 78.4117L78.5 77.8745C78.5164 77.8279 78.5496 77.789 78.593 77.7655C78.6365 77.7419 78.6871 77.7353 78.7351 77.7468C78.7832 77.7584 78.8252 77.7874 78.8532 77.8282C78.8811 77.8689 78.893 77.9186 78.8864 77.9676L78.8781 78.0267L78.986 77.7306C79.0031 77.6834 79.0373 77.6444 79.0819 77.6213C79.1265 77.5982 79.1781 77.5927 79.2265 77.6059C79.2749 77.6191 79.3166 77.6501 79.3432 77.6926C79.3699 77.7351 79.3796 77.7861 79.3703 77.8354L79.307 78.1703L79.628 77.2895C79.6453 77.2422 79.6797 77.2033 79.7244 77.1803C79.7691 77.1573 79.8209 77.152 79.8693 77.1655C79.9177 77.179 79.9593 77.2102 79.9857 77.253C80.0121 77.2957 80.0215 77.3469 80.0119 77.3962L79.748 78.7425L82.0858 72.32C82.1046 72.2723 82.1411 72.2336 82.1877 72.2121C82.2343 72.1905 82.2873 72.1877 82.3359 72.2042C82.3845 72.2207 82.4249 72.2553 82.4487 72.3007C82.4725 72.3462 82.4779 72.3991 82.4638 72.4484L80.1958 79.6387C80.2232 79.6751 80.2371 79.7198 80.2353 79.7653L80.2021 80.6889L80.3074 80.4003C80.3229 80.3578 80.3523 80.3219 80.3908 80.2983C80.4293 80.2748 80.4747 80.2649 80.5196 80.2705C80.5644 80.276 80.606 80.2966 80.6377 80.3288C80.6693 80.361 80.6891 80.4031 80.6938 80.448L80.7816 81.3093L81.0262 80.6371C81.0413 80.5956 81.0696 80.5603 81.1068 80.5366C81.1441 80.5129 81.1881 80.5022 81.232 80.5061C81.276 80.5101 81.3175 80.5285 81.3499 80.5585C81.3823 80.5884 81.4039 80.6283 81.4113 80.6719L81.545 81.4618L82.0397 80.1076C82.056 80.0625 82.088 80.0248 82.1299 80.0013C82.1717 79.9779 82.2206 79.9703 82.2676 79.9799C82.3146 79.9895 82.3565 80.0157 82.3858 80.0537C82.4151 80.0917 82.4297 80.139 82.4271 80.1869L82.3938 80.7584L83.4775 77.7814C83.4947 77.7328 83.5299 77.6928 83.5759 77.6696C83.6219 77.6464 83.6751 77.6418 83.7244 77.6569C83.7737 77.672 83.8152 77.7055 83.8404 77.7505C83.8655 77.7954 83.8723 77.8484 83.8594 77.8982L83.7916 78.1638L83.926 77.7948C83.941 77.7525 83.9698 77.7165 84.0078 77.6926C84.0458 77.6686 84.0907 77.6582 84.1354 77.6629C84.18 77.6676 84.2218 77.6873 84.2539 77.7186C84.286 77.75 84.3067 77.7912 84.3125 77.8358L84.4202 78.5859L84.812 77.5095C84.8283 77.4644 84.8603 77.4268 84.9022 77.4033C84.944 77.3799 84.9929 77.3723 85.0399 77.3819C85.0868 77.3915 85.1288 77.4176 85.1582 77.4555C85.1875 77.4935 85.2022 77.5407 85.1996 77.5885L85.1793 77.9604L86.7019 73.7772C86.7198 73.7295 86.7552 73.6904 86.801 73.6679C86.8468 73.6455 86.8994 73.6413 86.9481 73.6564C86.9968 73.6715 87.0379 73.7046 87.063 73.7489C87.0881 73.7933 87.0953 73.8456 87.0831 73.8951L86.7644 75.1382L87.0387 74.3863C87.0558 74.34 87.0895 74.3017 87.1332 74.2788C87.1768 74.2558 87.2275 74.2498 87.2753 74.262C87.3231 74.2741 87.3647 74.3035 87.3922 74.3445C87.4196 74.3855 87.4309 74.4353 87.4239 74.4841L87.1648 76.2234L87.3239 75.7832C87.3422 75.7337 87.3794 75.6935 87.4273 75.6714C87.4752 75.6492 87.5299 75.6469 87.5795 75.665C87.6291 75.683 87.6696 75.7199 87.692 75.7677C87.7145 75.8154 87.7171 75.8701 87.6994 75.9198L86.8626 78.218C86.8453 78.2639 86.8116 78.3018 86.7681 78.3245C86.7246 78.3472 86.6742 78.3531 86.6266 78.3411C86.579 78.329 86.5376 78.2999 86.5101 78.2592C86.4826 78.2185 86.4711 78.1691 86.4777 78.1205L86.7386 76.3796L85.7476 79.1009C85.7298 79.1486 85.6943 79.1878 85.6485 79.2102C85.6028 79.2327 85.5501 79.2368 85.5014 79.2217C85.4527 79.2067 85.4116 79.1736 85.3865 79.1292C85.3614 79.0848 85.3542 79.0325 85.3664 78.983L85.682 77.7436L85.0943 79.3569C85.0778 79.4018 85.0458 79.4392 85.004 79.4625C84.9623 79.4858 84.9136 79.4933 84.8668 79.4837C84.82 79.4742 84.7781 79.4482 84.7489 79.4104C84.7196 79.3727 84.7048 79.3257 84.7072 79.278L84.7269 78.9061L84.5227 79.4666C84.5073 79.5082 84.4785 79.5434 84.4409 79.5668C84.4033 79.5901 84.359 79.6004 84.3149 79.5958C84.2709 79.5913 84.2296 79.5723 84.1975 79.5417C84.1654 79.5111 84.1444 79.4708 84.1378 79.427L84.0301 78.6769L82.8513 81.9204C82.8388 81.9531 82.8179 81.9818 82.7907 82.0037Z" fill="#E2AC4D"/>
<path d="M80.51 76.1845C80.4775 76.2118 80.4372 76.228 80.3949 76.2308C80.3526 76.2336 80.3105 76.2229 80.2747 76.2002C80.2388 76.1775 80.2112 76.1441 80.1956 76.1046C80.1801 76.0651 80.1775 76.0218 80.1883 75.9807L80.9275 73.164L80.2733 74.9604C80.2548 75.0074 80.2192 75.0458 80.1736 75.0676C80.128 75.0895 80.0758 75.0933 80.0276 75.0782C79.9793 75.0631 79.9386 75.0303 79.9136 74.9863C79.8885 74.9424 79.8811 74.8906 79.8928 74.8414L80.8721 71.1282L79.6974 74.3573C79.6816 74.4006 79.6514 74.4371 79.6119 74.4607C79.5723 74.4842 79.5258 74.4934 79.4803 74.4867C79.4347 74.4799 79.3929 74.4576 79.3619 74.4236C79.3309 74.3896 79.3126 74.3459 79.3101 74.2999L79.2678 73.5314L79.072 74.0697C79.0559 74.1143 79.0243 74.1517 78.9831 74.1752C78.9419 74.1987 78.8936 74.2068 78.847 74.1979C78.8004 74.1891 78.7584 74.164 78.7286 74.1271C78.6989 74.0901 78.6832 74.0438 78.6844 73.9964L78.6932 73.6499L78.5647 74.0029C78.549 74.0464 78.5188 74.083 78.4792 74.1067C78.4395 74.1304 78.3929 74.1396 78.3472 74.1328C78.3016 74.126 78.2597 74.1036 78.2287 74.0694C78.1976 74.0352 78.1794 73.9913 78.1771 73.9452L78.1479 73.3806L77.8778 74.1233C77.862 74.1667 77.8317 74.2033 77.7919 74.2269C77.7521 74.2504 77.7054 74.2595 77.6597 74.2525C77.6141 74.2455 77.5722 74.2228 77.5413 74.1884C77.5105 74.154 77.4925 74.11 77.4904 74.0638L77.4648 73.4812L77.0052 74.7397C76.997 74.7654 76.9838 74.7892 76.9662 74.8096C76.9487 74.8301 76.9272 74.8467 76.903 74.8587C76.8788 74.8706 76.8525 74.8775 76.8256 74.879C76.7987 74.8804 76.7717 74.8764 76.7464 74.8672C76.7211 74.858 76.6979 74.8438 76.6782 74.8254C76.6585 74.807 76.6427 74.7848 76.6318 74.7601C76.6209 74.7355 76.6152 74.7089 76.6148 74.6819C76.6145 74.655 76.6196 74.6282 76.6299 74.6033L77.4313 72.4011C77.4474 72.358 77.4778 72.3217 77.5174 72.2984C77.557 72.2752 77.6035 72.2662 77.6489 72.2732C77.6944 72.2802 77.736 72.3026 77.7669 72.3367C77.7977 72.3708 77.8158 72.4145 77.8182 72.4604L77.8444 73.0426L78.108 72.319C78.1239 72.2759 78.1542 72.2396 78.1937 72.2162C78.2332 72.1928 78.2796 72.1837 78.325 72.1905C78.3704 72.1972 78.4121 72.2194 78.4431 72.2534C78.4741 72.2873 78.4924 72.3308 78.495 72.3767L78.5242 72.9418L78.7347 72.3639C78.7509 72.3193 78.7824 72.2819 78.8237 72.2584C78.8649 72.2349 78.9131 72.2269 78.9598 72.2357C79.0064 72.2445 79.0483 72.2696 79.0781 72.3065C79.1079 72.3435 79.1236 72.3898 79.1224 72.4372L79.1134 72.7834L79.225 72.4769C79.2406 72.4334 79.2708 72.3967 79.3104 72.373C79.35 72.3493 79.3966 72.34 79.4422 72.3467C79.4879 72.3535 79.5298 72.3758 79.5609 72.41C79.5919 72.4441 79.6102 72.4879 79.6126 72.534L79.6549 73.3026L81.9922 66.8795C82.0102 66.8317 82.0458 66.7927 82.0917 66.7703C82.1375 66.748 82.1902 66.7441 82.2389 66.7593C82.2876 66.7746 82.3286 66.8078 82.3535 66.8524C82.3785 66.8969 82.3854 66.9492 82.373 66.9987L81.3947 70.7126L82.0292 68.9692C82.0468 68.921 82.0823 68.8813 82.1284 68.8586C82.1744 68.8358 82.2275 68.8316 82.2765 68.8469C82.3256 68.8623 82.3668 68.8959 82.3918 68.9408C82.4167 68.9857 82.4233 69.0385 82.4103 69.0883L81.6707 71.9027L82.0599 70.8332C82.0783 70.7838 82.1155 70.7436 82.1634 70.7214C82.2113 70.6993 82.266 70.697 82.3156 70.715C82.3652 70.7331 82.4056 70.77 82.4281 70.8178C82.4505 70.8655 82.4532 70.9202 82.4355 70.9699L80.5693 76.0998C80.5575 76.1328 80.537 76.1621 80.51 76.1845Z" fill="#E2AC4D"/>
<path d="M87.1074 61.0027C87.0786 61.027 87.0435 61.0425 87.0061 61.0477C86.9688 61.0528 86.9308 61.0473 86.8965 61.0317C86.8622 61.0162 86.8329 60.9912 86.8122 60.9598C86.7914 60.9283 86.78 60.8917 86.7792 60.854L86.7675 60.329L86.4841 61.1105C86.468 61.1543 86.437 61.1911 86.3965 61.2145C86.356 61.2379 86.3087 61.2463 86.2626 61.2384C86.2166 61.2304 86.1748 61.2066 86.1445 61.171C86.1142 61.1355 86.0973 61.0904 86.0967 61.0437L86.0904 60.2116L85.7559 61.1293C85.7399 61.1734 85.7089 61.2104 85.6683 61.2339C85.6278 61.2574 85.5802 61.2659 85.534 61.2579C85.4879 61.2499 85.446 61.2259 85.4157 61.1901C85.3854 61.1544 85.3686 61.1091 85.3683 61.0622L85.3642 60.2309L85.0311 61.1459C85.0144 61.1909 84.9822 61.2284 84.9402 61.2516C84.8982 61.2748 84.8492 61.2821 84.8023 61.2722C84.7553 61.2622 84.7135 61.2358 84.6845 61.1976C84.6555 61.1594 84.6412 61.112 84.6442 61.0641L84.6815 60.5173L84.4475 61.1592C84.4296 61.204 84.3961 61.2408 84.3532 61.2629C84.3102 61.2849 84.2608 61.2907 84.214 61.2791C84.1672 61.2675 84.1261 61.2394 84.0984 61.2C84.0706 61.1605 84.0581 61.1123 84.0631 61.0643L84.0727 60.9974L84.0093 61.1706C83.9918 61.2158 83.9584 61.2531 83.9153 61.2756C83.8723 61.298 83.8225 61.304 83.7754 61.2924C83.7282 61.2809 83.6869 61.2526 83.6591 61.2128C83.6313 61.173 83.619 61.1244 83.6244 61.0762L83.6413 60.9576L83.5594 61.1828C83.5431 61.2279 83.5111 61.2656 83.4693 61.289C83.4276 61.3125 83.3787 61.3202 83.3318 61.3106C83.2848 61.3011 83.2428 61.275 83.2135 61.2371C83.1842 61.1992 83.1694 61.152 83.172 61.1041L83.2049 60.4712L82.9406 61.1971C82.923 61.2412 82.8903 61.2776 82.8483 61.2998C82.8063 61.3219 82.7578 61.3284 82.7115 61.3181C82.6651 61.3078 82.624 61.2813 82.5954 61.2433C82.5668 61.2054 82.5527 61.1586 82.5555 61.1112L82.5954 60.6222L82.3816 61.2086C82.3619 61.2562 82.3247 61.2945 82.2775 61.3153C82.2304 61.3361 82.177 61.3379 82.1285 61.3203C82.0801 61.3027 82.0403 61.267 82.0175 61.2208C81.9948 61.1746 81.9907 61.1213 82.0063 61.0722L82.7278 59.0893C82.7454 59.0452 82.7781 59.0088 82.8201 58.9866C82.8621 58.9645 82.9106 58.958 82.957 58.9683C83.0033 58.9786 83.0445 59.0051 83.073 59.0431C83.1016 59.081 83.1158 59.1278 83.1129 59.1752L83.0729 59.6654L83.2857 59.0814C83.302 59.0364 83.3339 58.9987 83.3757 58.9752C83.4174 58.9517 83.4662 58.944 83.5131 58.9535C83.5601 58.963 83.602 58.989 83.6314 59.0268C83.6608 59.0646 83.6756 59.1117 83.6732 59.1596L83.6405 59.7922L83.9031 59.071C83.9206 59.0258 83.954 58.9884 83.9971 58.966C84.0401 58.9436 84.0898 58.9376 84.137 58.9491C84.1841 58.9607 84.2255 58.989 84.2532 59.0288C84.281 59.0686 84.2934 59.1172 84.288 59.1654L84.2708 59.2842L84.3524 59.0618C84.3703 59.017 84.4038 58.9802 84.4467 58.9582C84.4896 58.9362 84.539 58.9304 84.5859 58.942C84.6327 58.9535 84.6738 58.9816 84.7015 59.0211C84.7292 59.0606 84.7417 59.1088 84.7367 59.1567L84.7276 59.2223L84.7889 59.0535C84.8053 59.0083 84.8375 58.9705 84.8796 58.9471C84.9217 58.9237 84.9707 58.9163 85.0178 58.9262C85.0649 58.9362 85.1069 58.9627 85.1359 59.0011C85.165 59.0394 85.1792 59.087 85.1761 59.135L85.1389 59.6827L85.3703 59.0419C85.3863 58.9979 85.4173 58.9609 85.4579 58.9374C85.4985 58.9139 85.546 58.9054 85.5922 58.9134C85.6384 58.9214 85.6803 58.9454 85.7106 58.9811C85.7409 59.0169 85.7576 59.0622 85.7579 59.109L85.7618 59.9406L86.0933 59.03C86.1095 58.9862 86.1405 58.9494 86.181 58.926C86.2214 58.9026 86.2688 58.8942 86.3148 58.9021C86.3609 58.9101 86.4027 58.9339 86.433 58.9695C86.4633 59.005 86.4802 59.0501 86.4807 59.0968L86.4869 59.9311L86.7548 59.1934C86.7708 59.1498 86.8016 59.1131 86.8417 59.0897C86.8819 59.0663 86.9289 59.0576 86.9748 59.0652C87.0207 59.0727 87.0625 59.096 87.093 59.131C87.1235 59.1661 87.1409 59.2106 87.1421 59.2571L87.1585 59.9357C87.1943 59.9183 87.2345 59.9119 87.2739 59.9175C87.3133 59.923 87.3502 59.9402 87.3798 59.9669C87.4093 59.9935 87.4303 60.0284 87.4399 60.067C87.4496 60.1056 87.4474 60.1462 87.4338 60.1836L87.1665 60.9177C87.1548 60.9508 87.1344 60.9802 87.1074 61.0027Z" fill="#E2AC4D"/>
<path d="M86.7714 57.5691C86.7419 57.5939 86.7058 57.6096 86.6676 57.6144C86.6294 57.6192 86.5906 57.6128 86.5559 57.596C86.5212 57.5793 86.4921 57.5528 86.4721 57.5199C86.4521 57.487 86.442 57.449 86.4431 57.4105L86.4599 56.7907L86.1903 57.5314C86.174 57.576 86.1424 57.6134 86.1011 57.6368C86.0597 57.6603 86.0114 57.6682 85.9648 57.6593C85.9181 57.6503 85.8762 57.625 85.8465 57.5879C85.8168 57.5508 85.8013 57.5044 85.8027 57.4569L85.8244 56.7484L85.5356 57.547C85.5199 57.5908 85.4895 57.6277 85.4495 57.6515C85.4095 57.6752 85.3625 57.6843 85.3165 57.6771C85.2706 57.67 85.2286 57.647 85.1978 57.6122C85.1669 57.5773 85.1492 57.5329 85.1477 57.4864L85.112 56.5516L84.7427 57.5653C84.726 57.6104 84.6936 57.648 84.6515 57.6711C84.6093 57.6942 84.5602 57.7014 84.5132 57.6912C84.4662 57.6811 84.4244 57.6543 84.3955 57.6158C84.3666 57.5774 84.3526 57.5298 84.356 57.4818L84.3937 56.9671L84.1713 57.5788C84.1557 57.6226 84.1252 57.6596 84.0853 57.6833C84.0453 57.7071 83.9983 57.7162 83.9523 57.709C83.9064 57.7018 83.8644 57.6788 83.8335 57.644C83.8027 57.6092 83.785 57.5647 83.7834 57.5182L83.7476 56.5758L83.3747 57.5957C83.3582 57.6409 83.3259 57.6787 83.2838 57.7021C83.2417 57.7254 83.1926 57.7328 83.1454 57.7228C83.0983 57.7128 83.0564 57.6861 83.0274 57.6477C82.9984 57.6092 82.9842 57.5616 82.9875 57.5136L83.0255 56.9532L82.7865 57.6092C82.7696 57.6552 82.7363 57.6934 82.6931 57.7165C82.6498 57.7396 82.5995 57.7459 82.5519 57.7344C82.5042 57.7228 82.4625 57.6941 82.4346 57.6538C82.4067 57.6134 82.3946 57.5642 82.4007 57.5156L82.4254 57.3211L82.3172 57.6206C82.309 57.6463 82.2958 57.6701 82.2782 57.6905C82.2607 57.711 82.2392 57.7276 82.215 57.7396C82.1908 57.7515 82.1645 57.7584 82.1376 57.7599C82.1106 57.7613 82.0837 57.7573 82.0584 57.7481C82.0331 57.7389 82.0098 57.7247 81.9902 57.7063C81.9705 57.6879 81.9547 57.6657 81.9438 57.641C81.9329 57.6164 81.9272 57.5898 81.9268 57.5628C81.9265 57.5359 81.9316 57.5091 81.9419 57.4842L82.6637 55.5011C82.6807 55.4551 82.7139 55.4169 82.7572 55.3938C82.8005 55.3707 82.8507 55.3644 82.8984 55.3759C82.946 55.3875 82.9878 55.4162 83.0157 55.4565C83.0436 55.4969 83.0556 55.546 83.0496 55.5947L83.0247 55.7889L83.1337 55.4929C83.1503 55.4479 83.1826 55.4103 83.2246 55.3872C83.2666 55.364 83.3155 55.3567 83.3625 55.3666C83.4094 55.3765 83.4512 55.403 83.4802 55.4412C83.5093 55.4794 83.5236 55.5268 83.5206 55.5746L83.4831 56.1356L83.721 55.4827C83.7369 55.4392 83.7673 55.4027 83.8072 55.3792C83.847 55.3557 83.8938 55.3468 83.9395 55.3539C83.9852 55.3611 84.027 55.3838 84.0578 55.4184C84.0886 55.4529 84.1064 55.497 84.1083 55.5432L84.1429 56.4841L84.5132 55.468C84.5299 55.4229 84.5623 55.3853 84.6045 55.3622C84.6466 55.3391 84.6957 55.3319 84.7427 55.3421C84.7898 55.3522 84.8315 55.379 84.8604 55.4174C84.8893 55.4559 84.9033 55.5035 84.8999 55.5515L84.862 56.0659L85.0825 55.4583C85.0983 55.4146 85.1287 55.3779 85.1686 55.3542C85.2085 55.3306 85.2554 55.3216 85.3012 55.3287C85.347 55.3358 85.3889 55.3587 85.4198 55.3933C85.4506 55.4279 85.4684 55.4722 85.4702 55.5185L85.5055 56.4541L85.8729 55.4451C85.8892 55.4005 85.9208 55.3631 85.9621 55.3396C86.0034 55.3162 86.0518 55.3083 86.0984 55.3172C86.1451 55.3262 86.187 55.3515 86.2167 55.3886C86.2464 55.4257 86.2619 55.4721 86.2605 55.5196L86.2392 56.2261L86.5051 55.4959C86.5213 55.4513 86.5529 55.4139 86.5941 55.3904C86.6354 55.3669 86.6837 55.3589 86.7303 55.3678C86.777 55.3767 86.8189 55.4019 86.8487 55.4389C86.8784 55.476 86.894 55.5223 86.8927 55.5698L86.8758 56.1902L86.9539 55.976C86.962 55.9503 86.9752 55.9265 86.9928 55.9061C87.0104 55.8856 87.0319 55.869 87.056 55.857C87.0802 55.8451 87.1066 55.8382 87.1335 55.8368C87.1604 55.8353 87.1873 55.8393 87.2126 55.8485C87.238 55.8577 87.2612 55.8719 87.2809 55.8903C87.3006 55.9087 87.3163 55.9309 87.3272 55.9556C87.3381 55.9802 87.3439 56.0068 87.3442 56.0338C87.3445 56.0607 87.3394 56.0875 87.3292 56.1124L86.8299 57.4835C86.8185 57.5168 86.7982 57.5464 86.7714 57.5691Z" fill="#E2AC4D"/>
<path d="M80.0579 72.6225C80.0251 72.65 79.9844 72.6663 79.9417 72.669C79.899 72.6717 79.8566 72.6606 79.8207 72.6373C79.7847 72.6141 79.7572 72.5799 79.7422 72.5399C79.7271 72.4998 79.7253 72.456 79.737 72.4148L80.3916 70.1277L80.09 70.9546C80.0724 71.0034 80.0364 71.0434 79.9898 71.0662C79.9432 71.0889 79.8896 71.0927 79.8402 71.0766C79.7909 71.0605 79.7498 71.0259 79.7255 70.9801C79.7013 70.9342 79.6958 70.8807 79.7102 70.8309L80.251 68.9684L80.0647 69.4801C80.0462 69.528 80.0099 69.5669 79.9635 69.5887C79.917 69.6106 79.8639 69.6138 79.8152 69.5975C79.7665 69.5813 79.7259 69.5469 79.7018 69.5016C79.6777 69.4562 79.6721 69.4033 79.686 69.3539L79.9845 68.3641C79.9516 68.3915 79.9107 68.4077 79.868 68.4102C79.8252 68.4126 79.7828 68.4013 79.7469 68.3778C79.7111 68.3543 79.6838 68.32 79.6689 68.2798C79.6541 68.2396 79.6526 68.1957 79.6647 68.1546L80.5764 65.036L80.016 66.5773C79.9983 66.6262 79.9622 66.6663 79.9154 66.6891C79.8687 66.7118 79.8149 66.7154 79.7655 66.6991C79.7161 66.6828 79.675 66.6479 79.6509 66.6018C79.6269 66.5557 79.6217 66.5021 79.6366 66.4522L80.0598 65.0129L79.9911 65.201C79.9726 65.2488 79.9364 65.2878 79.8899 65.3096C79.8434 65.3315 79.7903 65.3347 79.7416 65.3184C79.6929 65.3022 79.6523 65.2678 79.6282 65.2225C79.6042 65.1771 79.5985 65.1242 79.6124 65.0748L80.4016 62.4712L79.9658 63.6685C79.9478 63.717 79.9118 63.7565 79.8652 63.779C79.8187 63.8014 79.7652 63.8049 79.7161 63.7888C79.667 63.7727 79.6261 63.7382 79.6019 63.6926C79.5777 63.6469 79.5721 63.5936 79.5863 63.544L80.1779 61.5256L79.9417 62.1767C79.9232 62.224 79.8874 62.2625 79.8416 62.2843C79.7958 62.3062 79.7434 62.3098 79.695 62.2944C79.6466 62.279 79.6059 62.2458 79.5812 62.2015C79.5564 62.1572 79.5494 62.1051 79.5616 62.0558L80.3937 59.0208L79.9107 60.3485C79.8928 60.3962 79.8574 60.4353 79.8116 60.4578C79.7659 60.4803 79.7132 60.4844 79.6645 60.4693C79.6158 60.4543 79.5747 60.4211 79.5496 60.3768C79.5245 60.3324 79.5173 60.2801 79.5295 60.2306L80.191 57.6376L79.8779 58.4988C79.8602 58.5465 79.8249 58.5857 79.7792 58.6083C79.7335 58.6309 79.681 58.6352 79.6322 58.6204C79.5835 58.6055 79.5423 58.5725 79.517 58.5283C79.4918 58.484 79.4844 58.4318 79.4963 58.3823L79.8122 57.1129C79.7884 57.1388 79.7582 57.158 79.7246 57.1685C79.691 57.179 79.6552 57.1805 79.6209 57.1727C79.5734 57.1619 79.5315 57.1342 79.503 57.0946C79.4746 57.0551 79.4615 57.0065 79.4663 56.9581L79.6512 55.0749C79.6176 55.0784 79.5837 55.0732 79.5526 55.0599C79.5215 55.0467 79.4943 55.0257 79.4735 54.9991C79.4527 54.9724 79.439 54.9409 79.4337 54.9076C79.4283 54.8742 79.4316 54.84 79.4431 54.8082L79.7731 53.9052C79.7896 53.8592 79.8224 53.8208 79.8652 53.7973C79.908 53.7738 79.958 53.7668 80.0056 53.7776C80.0533 53.7885 80.0953 53.8164 80.1237 53.8561C80.1522 53.8958 80.1651 53.9446 80.1601 53.9932L80.0175 55.425L80.7018 53.5464C80.7196 53.4986 80.7549 53.4594 80.8006 53.4369C80.8462 53.4143 80.8988 53.41 80.9475 53.4248C80.9963 53.4397 81.0375 53.4726 81.0627 53.5169C81.088 53.5612 81.0954 53.6134 81.0834 53.6629L80.8023 54.791L81.2003 53.699C81.2182 53.6512 81.2536 53.6121 81.2994 53.5896C81.3451 53.5672 81.3978 53.563 81.4465 53.5781C81.4952 53.5932 81.5363 53.6263 81.5614 53.6707C81.5865 53.715 81.5937 53.7673 81.5815 53.8168L80.9184 56.4116L81.6978 54.2707C81.7158 54.2227 81.7515 54.1835 81.7977 54.1611C81.8438 54.1387 81.8967 54.1349 81.9456 54.1505C81.9944 54.166 82.0354 54.1998 82.0601 54.2447C82.0848 54.2897 82.0912 54.3424 82.0781 54.3919L81.245 57.4257L81.9414 55.513C81.96 55.4655 81.9961 55.4269 82.0423 55.4051C82.0885 55.3833 82.1412 55.38 82.1898 55.3959C82.2383 55.4118 82.2789 55.4457 82.3032 55.4906C82.3275 55.5355 82.3338 55.5879 82.3206 55.6373L81.7278 57.6598L82.514 55.5021C82.5317 55.4531 82.5679 55.4128 82.6149 55.3901C82.6618 55.3673 82.7158 55.3638 82.7653 55.3803C82.8148 55.3969 82.8559 55.4321 82.8797 55.4785C82.9036 55.5249 82.9084 55.5788 82.893 55.6286L81.9418 58.7679C81.9753 58.7421 82.0161 58.7276 82.0583 58.7265C82.1006 58.7254 82.1421 58.7376 82.1769 58.7616C82.2117 58.7855 82.238 58.8199 82.2521 58.8597C82.2661 58.8996 82.2672 58.9429 82.2551 58.9834L81.8287 60.4306L82.3159 59.0925C82.3345 59.045 82.3706 59.0063 82.4168 58.9846C82.463 58.9628 82.5157 58.9595 82.5643 58.9754C82.6128 58.9913 82.6534 59.0252 82.6777 59.07C82.702 59.1149 82.7083 59.1674 82.6951 59.2167L81.7839 62.3334L81.9106 61.987C81.9292 61.9391 81.9654 61.9002 82.0119 61.8783C82.0584 61.8565 82.1115 61.8533 82.1602 61.8695C82.2089 61.8858 82.2495 61.9201 82.2736 61.9655C82.2976 62.0109 82.3033 62.0638 82.2894 62.1132L81.9894 63.1043C82.0222 63.0769 82.063 63.0608 82.1057 63.0583C82.1484 63.0559 82.1907 63.0671 82.2265 63.0905C82.2623 63.1139 82.2897 63.1482 82.3046 63.1883C82.3195 63.2284 82.3211 63.2722 82.3092 63.3132L81.7684 65.1757L81.9547 64.6641C81.9726 64.6157 82.0086 64.5762 82.055 64.5537C82.1014 64.5312 82.1547 64.5275 82.2038 64.5434C82.2528 64.5593 82.2938 64.5936 82.3182 64.639C82.3426 64.6845 82.3485 64.7376 82.3346 64.7873L81.6803 67.0742L81.9819 66.2472C82.0003 66.1977 82.0375 66.1575 82.0854 66.1354C82.1333 66.1133 82.188 66.111 82.2376 66.129C82.2872 66.147 82.3276 66.184 82.3501 66.2317C82.3725 66.2795 82.3752 66.3342 82.3575 66.3839L80.1172 72.5377C80.1053 72.5708 80.0848 72.6 80.0579 72.6225Z" fill="#E2AC4D"/>
<path d="M82.4714 68.8395C82.4377 68.8675 82.3957 68.8838 82.3519 68.8856C82.3081 68.8874 82.2648 68.8748 82.2289 68.8497C82.193 68.8245 82.1663 68.7882 82.153 68.7464C82.1397 68.7046 82.1406 68.6596 82.1554 68.6183L82.6239 67.33C82.632 67.3043 82.6453 67.2805 82.6628 67.26C82.6804 67.2396 82.7019 67.2229 82.7261 67.211C82.7503 67.1991 82.7766 67.1922 82.8035 67.1907C82.8304 67.1892 82.8573 67.1932 82.8827 67.2024C82.908 67.2116 82.9312 67.2259 82.9509 67.2443C82.9706 67.2627 82.9863 67.2849 82.9972 67.3095C83.0081 67.3342 83.0139 67.3608 83.0142 67.3877C83.0146 67.4147 83.0095 67.4414 82.9992 67.4663L82.5307 68.7547C82.5188 68.7877 82.4984 68.817 82.4714 68.8395Z" fill="#C99541"/>
<path d="M82.7601 70.3441C82.7312 70.3683 82.696 70.3839 82.6587 70.389C82.6213 70.3941 82.5832 70.3885 82.5489 70.3729C82.5146 70.3573 82.4854 70.3323 82.4647 70.3008C82.444 70.2692 82.4326 70.2325 82.4319 70.1948L82.4259 69.8768L82.2496 70.3618C82.2323 70.4093 82.1976 70.4484 82.1526 70.4713C82.1076 70.4943 82.0556 70.4993 82.0071 70.4855C81.9585 70.4716 81.917 70.4399 81.8909 70.3967C81.8647 70.3535 81.8559 70.302 81.8662 70.2526L81.9187 69.9998L81.784 70.369C81.7666 70.4163 81.732 70.4553 81.6871 70.4782C81.6422 70.501 81.5904 70.5061 81.5419 70.4923C81.4934 70.4786 81.452 70.4471 81.4258 70.404C81.3996 70.361 81.3906 70.3097 81.4006 70.2603L81.5023 69.7685L81.2803 70.3775C81.2634 70.4229 81.2307 70.4606 81.1881 70.4837C81.1455 70.5068 81.096 70.5136 81.0488 70.5029C81.0016 70.4922 80.9598 70.4647 80.9313 70.4256C80.9028 70.3864 80.8895 70.3383 80.8939 70.29L81.0482 68.682L80.4236 70.3924C80.4063 70.438 80.3729 70.4756 80.3298 70.4982C80.2867 70.5208 80.2368 70.527 80.1895 70.5154C80.1422 70.5038 80.1007 70.4754 80.0729 70.4354C80.0451 70.3955 80.0328 70.3467 80.0384 70.2983L80.2172 68.9483L79.7156 70.3265C79.7005 70.3687 79.6716 70.4046 79.6337 70.4284C79.5957 70.4521 79.5509 70.4625 79.5063 70.4578C79.4618 70.453 79.4201 70.4334 79.3881 70.4022C79.356 70.3709 79.3353 70.3298 79.3294 70.2854L79.2554 69.7668C79.23 69.8092 79.1899 69.8407 79.1428 69.8553C79.0956 69.8698 79.0447 69.8664 78.9999 69.8457C78.9551 69.825 78.9196 69.7884 78.9001 69.743C78.8807 69.6976 78.8787 69.6467 78.8946 69.5999L79.1549 68.8848C79.1701 68.8427 79.1989 68.8068 79.2369 68.783C79.2748 68.7592 79.3197 68.7489 79.3642 68.7536C79.4088 68.7584 79.4504 68.7779 79.4825 68.8092C79.5146 68.8405 79.5352 68.8816 79.5411 68.926L79.6137 69.439L80.4707 67.0853C80.488 67.0398 80.5214 67.0022 80.5645 66.9796C80.6076 66.9569 80.6575 66.9508 80.7048 66.9624C80.7522 66.9739 80.7936 67.0024 80.8214 67.0423C80.8493 67.0823 80.8615 67.1311 80.8559 67.1795L80.6768 68.5298L81.2071 67.0726C81.224 67.0272 81.2567 66.9894 81.2993 66.9664C81.3419 66.9433 81.3914 66.9365 81.4386 66.9472C81.4858 66.9578 81.5276 66.9853 81.5561 67.0245C81.5846 67.0636 81.5979 67.1118 81.5935 67.16L81.4391 68.7698L82.0607 67.0633C82.0777 67.0158 82.112 66.9765 82.1568 66.9533C82.2015 66.9301 82.2534 66.9246 82.302 66.938C82.3507 66.9515 82.3925 66.983 82.4189 67.026C82.4454 67.0691 82.4545 67.1205 82.4446 67.1701L82.3424 67.6638L82.5051 67.2174C82.522 67.1693 82.5566 67.1295 82.6019 67.1061C82.6471 67.0828 82.6996 67.0775 82.7485 67.0915C82.7975 67.1055 82.8393 67.1377 82.8653 67.1814C82.8914 67.2252 82.8998 67.2772 82.8887 67.3269L82.6191 68.6055C82.6243 68.606 82.6295 68.6067 82.6345 68.6077C82.6805 68.6153 82.7223 68.6388 82.7528 68.674C82.7833 68.7092 82.8005 68.7539 82.8015 68.8005L82.8082 69.1262C82.8337 69.084 82.8738 69.0528 82.9208 69.0384C82.9679 69.024 83.0186 69.0275 83.0633 69.0482C83.1079 69.0689 83.1434 69.1054 83.1628 69.1506C83.1823 69.1958 83.1843 69.2467 83.1686 69.2933L82.819 70.2607C82.8071 70.2932 82.7867 70.322 82.7601 70.3441Z" fill="#C99541"/>
<path d="M79.5548 68.7772C79.5268 68.8007 79.4929 68.816 79.4568 68.8215C79.4206 68.8271 79.3837 68.8226 79.3499 68.8086C79.3161 68.7946 79.2869 68.7716 79.2653 68.7421C79.2437 68.7126 79.2306 68.6777 79.2274 68.6413L79.1902 68.2239C79.1623 68.2466 79.1293 68.2621 79.094 68.2689C79.0587 68.2758 79.0222 68.2738 78.9879 68.2632C78.9382 68.2451 78.8977 68.208 78.8753 68.1601C78.8529 68.1122 78.8504 68.0574 78.8684 68.0076L79.128 67.2936C79.1436 67.2509 79.1733 67.2148 79.2122 67.1913C79.2511 67.1678 79.2968 67.1582 79.3419 67.1642C79.3869 67.1701 79.4286 67.1913 79.4601 67.2241C79.4915 67.2569 79.5108 67.2995 79.5148 67.3447L79.5462 67.7086L79.7686 67.0989C79.7882 67.0512 79.8255 67.013 79.8727 66.9922C79.9198 66.9713 79.9732 66.9696 80.0216 66.9872C80.0701 67.0048 80.1099 67.0404 80.1326 67.0866C80.1554 67.1329 80.1595 67.1861 80.1439 67.2353L79.613 68.6929C79.6014 68.7257 79.5813 68.7548 79.5548 68.7772Z" fill="#C99541"/>
<path d="M74.6065 76.0201C74.5369 78.0512 76.2019 79.1725 77.8681 79.7398C78.7752 80.8209 79.2375 82.5079 81.0038 82.495C83.4408 82.6853 83.4825 80.3473 85.0609 79.5118C89.4028 77.9518 87.9266 71.3707 83.3147 72.0835C83.4908 72.0328 82.4828 72.2598 82.4267 72.4764C82.3671 71.8089 82.3702 71.1373 82.4359 70.4704C82.6278 70.4318 82.804 70.3375 82.9426 70.1993C83.0812 70.0611 83.176 69.8851 83.2151 69.6934C83.2542 69.5016 83.2359 69.3026 83.1626 69.1211C83.0892 68.9397 82.964 68.7839 82.8025 68.6733C82.9558 68.5629 83.073 68.4098 83.1397 68.2332C83.2063 68.0565 83.2192 67.8641 83.177 67.6801C83.1347 67.496 83.039 67.3286 82.902 67.1987C82.765 67.0688 82.5927 66.9822 82.4067 66.9498C82.4476 65.0935 82.2009 63.1573 82.3359 61.3223C83.3696 61.3063 88.9126 62.0233 87.2924 59.3451C86.0002 58.1713 83.8426 59.2561 82.2565 58.8923C82.28 58.5534 82.1664 57.9766 82.2823 57.8095C83.6349 57.3074 87.3176 58.665 87.4092 56.5258C87.269 54.2956 83.6491 55.6113 82.193 55.3582C82.328 54.4665 81.8915 53.5185 80.9445 53.3797C80.7514 53.3555 80.5553 53.3726 80.3693 53.4299C80.1833 53.4873 80.0116 53.5835 79.8657 53.7122C79.7197 53.8409 79.6027 53.9992 79.5225 54.1765C79.4424 54.3539 79.4009 54.5462 79.4007 54.7409L79.6126 67.0112C78.7801 67.1426 78.5266 68.428 79.2927 68.7999C79.1274 68.905 78.9989 69.059 78.9252 69.2405C78.8514 69.422 78.8361 69.622 78.8812 69.8126C78.9264 70.0032 79.0299 70.175 79.1772 70.3041C79.3246 70.4332 79.5085 70.5132 79.7034 70.5329C79.7937 71.1973 79.8201 71.8687 79.7821 72.5381C77.4885 71.0818 74.4479 73.4908 74.6065 76.0201ZM79.8073 54.8598C79.7855 53.6401 81.7204 53.3986 81.7923 54.7016C81.862 55.0334 81.6159 55.676 82.0613 55.7802C88.8959 54.8275 88.4748 58.0681 81.9931 57.3348C81.7262 57.3954 81.7329 59.4074 82.1221 59.3657C82.9224 59.3526 86.984 58.7394 87.0655 59.9968C87.1556 61.3862 82.8275 60.9071 82.0539 60.9203C81.6471 62.6739 82.1125 64.9553 82.0008 66.8777C81.3389 66.8613 80.6767 66.8859 80.0178 66.9513L79.8073 54.8598ZM79.7965 68.9558C79.9561 68.9309 80.2201 68.5764 79.9394 68.5448C79.2049 68.4615 79.3957 67.4541 79.9801 67.3602C80.8298 67.4663 82.44 66.8509 82.7918 67.9299C82.6866 68.2118 81.7195 68.7081 82.1353 68.9128C82.8696 69 82.6836 70.0064 82.0973 70.1004C81.2048 69.9763 78.5472 70.7779 79.7965 68.9558ZM75.4676 74.2092C76.4336 72.6369 78.2737 72.3242 79.8781 72.946C80.3927 72.6185 79.9256 71.1995 80.0537 70.565C80.7802 70.5241 81.3517 70.5574 82.0852 70.53C82.247 71.1711 81.7932 72.5969 82.3641 72.9005C87.5391 70.7546 89.4545 78.5768 83.9994 79.2019C83.5521 82.2272 79.2378 83.3743 78.6116 79.5255C78.6135 79.4702 78.5949 79.4162 78.5594 79.3739C78.5239 79.3315 78.4739 79.3038 78.4192 79.2961C75.9464 79.1584 74.0214 76.5627 75.4676 74.2092Z" fill="#262626"/>
<path d="M80.5482 75.932C80.4952 73.074 76.1257 73.069 76.1939 75.9701C76.233 78.8302 80.5991 78.8324 80.5482 75.932ZM76.5621 75.9992C76.5457 73.7412 80.0464 73.6123 80.1799 75.9029C80.1259 78.1479 76.5799 78.2986 76.5621 75.9992Z" fill="#262626"/>
<path d="M81.1246 78.0646C79.4268 78.2131 79.4646 80.946 81.2198 80.9195C83.0485 80.8939 82.9989 77.8969 81.1246 78.0646ZM80.217 79.47C80.2238 78.1985 82.2046 78.2822 82.2302 79.5103C82.1626 80.754 80.2451 80.7085 80.217 79.47Z" fill="#262626"/>
<path d="M84.0946 78.0397C86.9047 77.8444 86.6822 73.399 83.805 73.671C80.9838 73.8784 81.2079 78.3014 84.0946 78.0397ZM82.1776 75.8396C82.1424 73.489 85.6979 73.589 85.7211 75.8693C85.7489 78.2241 82.1922 78.1172 82.1789 75.8411L82.1776 75.8396Z" fill="#262626"/>
<path d="M46.123 83.8936C46.0476 83.8936 45.9737 83.8726 45.9096 83.833C45.8454 83.7933 45.7936 83.7366 45.7599 83.6692C45.7261 83.6017 45.7119 83.5262 45.7186 83.4511C45.7254 83.376 45.753 83.3043 45.7982 83.2439L46.6176 82.1638L45.1623 83.0027C45.0801 83.05 44.9839 83.0669 44.8904 83.0507C44.797 83.0344 44.7122 82.986 44.6507 82.9137C44.5893 82.8414 44.555 82.75 44.554 82.6551C44.5529 82.5603 44.5851 82.468 44.645 82.3945L45.8526 80.9131L45.1623 81.3111C45.0926 81.3513 45.0125 81.3698 44.9322 81.3644C44.852 81.359 44.7751 81.3299 44.7114 81.2807C44.6477 81.2316 44.6001 81.1646 44.5745 81.0883C44.5489 81.012 44.5466 80.9298 44.5678 80.8522L44.783 80.0726C44.7164 80.0406 44.6598 79.991 44.6192 79.9291C44.5787 79.8673 44.5558 79.7956 44.5531 79.7217C44.5503 79.6478 44.5678 79.5746 44.6036 79.5099C44.6394 79.4452 44.6922 79.3916 44.7562 79.3547L45.168 79.1175C45.2378 79.077 45.3181 79.0581 45.3986 79.0634C45.4791 79.0687 45.5563 79.0979 45.6202 79.1472C45.6841 79.1966 45.7318 79.2638 45.7573 79.3404C45.7828 79.417 45.7849 79.4994 45.7633 79.5772L45.6147 80.1124L47.3664 79.1013C47.4487 79.0536 47.5451 79.0362 47.6388 79.0523C47.7325 79.0683 47.8177 79.1168 47.8793 79.1892C47.941 79.2616 47.9753 79.3533 47.9763 79.4484C47.9772 79.5435 47.9448 79.636 47.8845 79.7096L46.6769 81.1884L47.956 80.4494C48.0372 80.4028 48.132 80.3856 48.2243 80.4008C48.3167 80.4161 48.401 80.4627 48.4629 80.533C48.5248 80.6032 48.5606 80.6926 48.5641 80.7862C48.5676 80.8797 48.5387 80.9716 48.4823 81.0463L47.6628 82.1313L47.956 81.9624C48.0488 81.9139 48.1568 81.903 48.2574 81.9322C48.358 81.9614 48.4434 82.0283 48.4958 82.119C48.5482 82.2097 48.5636 82.3171 48.5386 82.4188C48.5137 82.5205 48.4505 82.6087 48.3621 82.6649L46.3261 83.8368C46.2647 83.8736 46.1946 83.8933 46.123 83.8936Z" fill="#D1D7DB"/>
<path d="M67.2913 83.8937C67.2167 83.8936 67.1436 83.873 67.0799 83.8341C67.0163 83.7952 66.9646 83.7395 66.9305 83.6731C66.8965 83.6067 66.8813 83.5322 66.8868 83.4578C66.8923 83.3834 66.9182 83.312 66.9616 83.2513L67.8484 82.012L66.2762 82.92C66.1897 82.9675 66.089 82.982 65.9927 82.9607C65.8964 82.9394 65.8111 82.8837 65.7528 82.8042C65.6945 82.7246 65.6672 82.6265 65.6759 82.5283C65.6847 82.43 65.7289 82.3383 65.8002 82.2703L66.2063 81.9008C66.1386 81.9244 66.0659 81.9297 65.9955 81.9161C65.9251 81.9026 65.8596 81.8706 65.8056 81.8235C65.7515 81.7764 65.7109 81.7158 65.6879 81.648C65.6648 81.5801 65.6602 81.5073 65.6744 81.437L65.9448 80.0979C65.8704 80.0733 65.8047 80.0277 65.7556 79.9666C65.7065 79.9056 65.6761 79.8316 65.6681 79.7536C65.6601 79.6757 65.6749 79.5971 65.7106 79.5273C65.7463 79.4575 65.8014 79.3996 65.8693 79.3604L66.281 79.1233C66.3487 79.0843 66.4262 79.0656 66.5043 79.0695C66.5823 79.0734 66.6575 79.0997 66.721 79.1453C66.7844 79.1909 66.8334 79.2539 66.8619 79.3266C66.8905 79.3993 66.8975 79.4788 66.882 79.5554L66.6481 80.7159L69.069 79.3182C69.1555 79.2707 69.2562 79.2562 69.3525 79.2775C69.4488 79.2988 69.5341 79.3545 69.5924 79.434C69.6507 79.5136 69.678 79.6117 69.6693 79.7099C69.6605 79.8082 69.6163 79.8999 69.545 79.9679L69.1389 80.3382C69.2144 80.3116 69.296 80.3079 69.3736 80.3275C69.4512 80.3472 69.5213 80.3894 69.575 80.4487C69.6371 80.5174 69.6739 80.6053 69.6792 80.6977C69.6845 80.7902 69.6581 80.8817 69.6042 80.9571L68.715 82.1964L69.0699 81.9925C69.1627 81.944 69.2706 81.9332 69.3712 81.9624C69.4718 81.9915 69.5572 82.0585 69.6096 82.1491C69.6621 82.2398 69.6774 82.3472 69.6525 82.449C69.6276 82.5507 69.5643 82.6388 69.4759 82.695L67.4943 83.8369C67.433 83.8737 67.3629 83.8934 67.2913 83.8937Z" fill="#D1D7DB"/>
<path d="M67.3063 55.484C67.2272 55.4837 67.1499 55.4603 67.0839 55.4168C67.018 55.3732 66.9661 55.3113 66.9348 55.2387C66.9035 55.1661 66.8941 55.0859 66.9077 55.008C66.9213 54.9301 66.9574 54.8579 67.0115 54.8002L67.0927 54.7141L66.2806 55.1843C66.1941 55.2331 66.0928 55.2486 65.9957 55.2278C65.8986 55.2069 65.8125 55.1512 65.7537 55.0712C65.6949 54.9912 65.6674 54.8924 65.6765 54.7935C65.6856 54.6947 65.7306 54.6025 65.803 54.5346L66.2903 54.0847L66.2765 54.0912C66.1902 54.1375 66.0899 54.1511 65.9944 54.1293C65.8988 54.1076 65.8143 54.052 65.7565 53.9728C65.6988 53.8936 65.6715 53.7962 65.6799 53.6986C65.6883 53.6009 65.7318 53.5096 65.8022 53.4415L66.1782 53.1036C66.0928 53.1265 66.0023 53.1208 65.9203 53.0875C65.8384 53.0541 65.7696 52.995 65.7244 52.919C65.6792 52.843 65.66 52.7543 65.6698 52.6664C65.6796 52.5785 65.7178 52.4962 65.7787 52.432L67.0618 51.0774L66.2765 51.5297C66.19 51.5798 66.0881 51.5963 65.9902 51.5759C65.8924 51.5555 65.8055 51.4997 65.7462 51.4193C65.6867 51.3387 65.6592 51.239 65.6687 51.1393C65.6783 51.0396 65.7244 50.947 65.7982 50.8792L66.2798 50.4374C66.194 50.4883 66.0924 50.5058 65.9945 50.4866C65.8966 50.4674 65.8092 50.4129 65.749 50.3334C65.6887 50.2539 65.6599 50.1549 65.6679 50.0555C65.6759 49.9561 65.7203 49.8631 65.7925 49.7942L66.5348 49.0747L66.2773 49.2225C66.1949 49.2696 66.0985 49.2863 66.0049 49.2697C65.9114 49.2531 65.8267 49.2043 65.7654 49.1317C65.7042 49.059 65.6704 48.9673 65.6698 48.8723C65.6693 48.7773 65.7021 48.6851 65.7624 48.6118L67.1098 46.9875L66.1661 47.5325C66.0839 47.5798 65.9878 47.5968 65.8943 47.5807C65.8009 47.5645 65.7161 47.5162 65.6546 47.4441C65.593 47.3719 65.5587 47.2805 65.5575 47.1857C65.5563 47.0909 65.5883 46.9987 65.6479 46.925L66.7256 45.598L65.8233 46.1194C65.7409 46.167 65.6443 46.1841 65.5504 46.1677C65.4566 46.1513 65.3716 46.1024 65.3101 46.0297C65.2487 45.9569 65.2148 45.8649 65.2143 45.7696C65.2139 45.6744 65.2469 45.582 65.3077 45.5087L66.1523 44.4919L65.3401 44.9597C65.2548 45.0071 65.1553 45.0222 65.0598 45.0022C64.9643 44.9822 64.8791 44.9285 64.82 44.8509C64.7608 44.7733 64.7316 44.677 64.7376 44.5796C64.7436 44.4822 64.7846 44.3902 64.8529 44.3205L65.0096 44.1646L64.9284 44.2109C64.848 44.257 64.7543 44.2743 64.6628 44.2598C64.5713 44.2454 64.4875 44.2001 64.4253 44.1314C64.3631 44.0627 64.3262 43.9749 64.3208 43.8824C64.3154 43.7899 64.3418 43.6983 64.3956 43.6229L65.2654 42.4104L64.0943 43.0861C64.0158 43.1304 63.9247 43.1473 63.8354 43.1341C63.7461 43.1209 63.6638 43.0784 63.6014 43.0132C63.5391 42.948 63.5002 42.8639 63.4909 42.7742C63.4816 42.6844 63.5025 42.5942 63.5502 42.5176L64.4281 41.1516L62.9622 41.9954C62.8841 42.0404 62.7931 42.058 62.7038 42.0456C62.6145 42.0332 62.5319 41.9913 62.4689 41.9267C62.406 41.8621 62.3664 41.7784 62.3563 41.6888C62.3462 41.5992 62.3662 41.5088 62.4132 41.4318L63.2619 40.0512L61.5418 41.0452C61.4581 41.0935 61.36 41.1103 61.265 41.0927C61.17 41.0752 61.0844 41.0243 61.0236 40.9492C60.9627 40.8742 60.9306 40.7799 60.933 40.6834C60.9354 40.5868 60.9722 40.4942 61.0367 40.4223L61.5126 39.8928L60.3992 40.5352C60.3147 40.5835 60.2156 40.5998 60.1201 40.5812C60.0246 40.5627 59.9389 40.5104 59.8787 40.4339C59.8185 40.3575 59.7877 40.2619 59.792 40.1647C59.7963 40.0675 59.8354 39.975 59.9022 39.9042L60.3082 39.4762L59.1055 40.1706C59.0205 40.219 58.921 40.2351 58.8252 40.2161C58.7293 40.197 58.6435 40.144 58.5836 40.0668C58.5237 39.9896 58.4936 39.8933 58.4989 39.7957C58.5042 39.6981 58.5445 39.6057 58.6125 39.5355L59.0827 39.0539L57.4585 39.9903C57.3735 40.0393 57.2738 40.0559 57.1775 40.037C57.0813 40.0182 56.9952 39.9652 56.935 39.8878C56.8748 39.8104 56.8447 39.7138 56.8501 39.6159C56.8556 39.518 56.8963 39.4254 56.9647 39.3552L57.6753 38.6292L54.5892 40.411C54.496 40.464 54.3856 40.4779 54.2821 40.4498C54.1787 40.4217 54.0905 40.3539 54.0369 40.261C53.9833 40.1681 53.9686 40.0578 53.996 39.9542C54.0234 39.8505 54.0907 39.7619 54.1832 39.7077L59.8364 36.4437C59.9213 36.3947 60.0211 36.3781 60.1173 36.397C60.2135 36.4158 60.2997 36.4688 60.3599 36.5462C60.42 36.6236 60.4502 36.7202 60.4447 36.8181C60.4393 36.916 60.3986 37.0086 60.3301 37.0788L59.6195 37.8048L61.2251 36.8774C61.31 36.8284 61.4098 36.8118 61.506 36.8306C61.6023 36.8495 61.6884 36.9025 61.7486 36.9799C61.8088 37.0573 61.8389 37.1539 61.8335 37.2518C61.828 37.3496 61.7873 37.4423 61.7189 37.5125L61.2487 37.9941L62.3442 37.3622C62.4287 37.3134 62.528 37.2966 62.6239 37.315C62.7198 37.3333 62.8058 37.3856 62.8663 37.4623C62.9267 37.5389 62.9576 37.6348 62.9531 37.7323C62.9487 37.8298 62.9092 37.9224 62.842 37.9933L62.436 38.4213L63.3171 37.9129C63.4007 37.8651 63.4986 37.8486 63.5932 37.8663C63.6878 37.884 63.7731 37.9348 63.8338 38.0095C63.8944 38.0842 63.9266 38.1781 63.9245 38.2743C63.9224 38.3706 63.8862 38.4629 63.8223 38.5349L63.3447 39.0661L64.2454 38.5471C64.3236 38.5022 64.4145 38.4845 64.5038 38.497C64.5931 38.5094 64.6758 38.5512 64.7387 38.6158C64.8016 38.6804 64.8413 38.7641 64.8513 38.8537C64.8614 38.9434 64.8414 39.0338 64.7944 39.1107L63.9465 40.4914L65.4725 39.6102C65.5511 39.5659 65.6422 39.549 65.7314 39.5622C65.8207 39.5753 65.903 39.6179 65.9654 39.6831C66.0278 39.7483 66.0667 39.8324 66.076 39.9221C66.0853 40.0118 66.0644 40.1021 66.0166 40.1787L65.1404 41.5447L66.4966 40.7618C66.577 40.7153 66.671 40.6978 66.7627 40.7122C66.8545 40.7266 66.9386 40.772 67.0009 40.8409C67.0632 40.9098 67.1 40.998 67.1052 41.0907C67.1104 41.1835 67.0836 41.2752 67.0294 41.3506L66.1563 42.5639L67.2876 41.9101C67.373 41.8621 67.4729 41.8466 67.5689 41.8664C67.6648 41.8863 67.7504 41.9401 67.8097 42.0181C67.8691 42.096 67.8982 42.1928 67.8918 42.2906C67.8854 42.3884 67.8439 42.4805 67.7749 42.5501L67.6198 42.7044L67.7067 42.654C67.7892 42.6064 67.8857 42.5893 67.9796 42.6057C68.0734 42.6221 68.1585 42.671 68.2199 42.7438C68.2813 42.8165 68.3153 42.9086 68.3157 43.0038C68.3162 43.099 68.2831 43.1914 68.2224 43.2648L67.3778 44.2815L68.2224 43.7943C68.3045 43.7474 68.4005 43.7308 68.4936 43.7471C68.5867 43.7635 68.6713 43.8118 68.7326 43.8838C68.7939 43.9558 68.8281 44.0469 68.8294 44.1415C68.8307 44.236 68.799 44.3281 68.7397 44.4017L67.6628 45.7271L68.6666 45.1481C68.7491 45.101 68.8455 45.0842 68.939 45.1008C69.0325 45.1174 69.1173 45.1663 69.1785 45.2389C69.2397 45.3115 69.2735 45.4033 69.2741 45.4983C69.2746 45.5933 69.2419 45.6855 69.1815 45.7588L67.8334 47.383L68.9703 46.7268C69.0561 46.676 69.1577 46.6584 69.2556 46.6776C69.3535 46.6968 69.4409 46.7514 69.5011 46.8309C69.5613 46.9104 69.5902 47.0093 69.5822 47.1088C69.5742 47.2082 69.5298 47.3012 69.4576 47.37L68.7161 48.0888L69.0572 47.8922C69.1437 47.8427 69.2454 47.8267 69.3429 47.8473C69.4404 47.8679 69.5269 47.9236 69.586 48.0039C69.6451 48.0841 69.6726 48.1833 69.6633 48.2825C69.654 48.3817 69.6085 48.4741 69.5356 48.5419L69.054 48.9846L69.0727 48.9748C69.1571 48.9265 69.256 48.9101 69.3515 48.9286C69.4469 48.9471 69.5326 48.9993 69.5929 49.0756C69.6532 49.1519 69.6841 49.2473 69.68 49.3445C69.6758 49.4416 69.637 49.5341 69.5705 49.605L68.2873 50.9596L69.0775 50.5032C69.1639 50.4569 69.2641 50.4433 69.3597 50.4651C69.4552 50.4869 69.5397 50.5424 69.5975 50.6216C69.6553 50.7008 69.6825 50.7982 69.6741 50.8958C69.6657 50.9935 69.6223 51.0848 69.5518 51.1529L69.1774 51.49C69.2653 51.4658 69.3588 51.4719 69.4428 51.5073C69.5267 51.5428 69.5964 51.6054 69.6404 51.6852C69.6845 51.765 69.7004 51.8573 69.6857 51.9472C69.6709 52.0372 69.6264 52.1195 69.5591 52.1811L69.0718 52.631L69.0881 52.6221C69.1724 52.5738 69.2713 52.5574 69.3667 52.5758C69.4621 52.5942 69.5477 52.6462 69.6081 52.7223C69.6684 52.7985 69.6994 52.8937 69.6955 52.9908C69.6916 53.0879 69.653 53.1804 69.5867 53.2514L69.3301 53.5235C69.4161 53.531 69.4976 53.5657 69.5625 53.6226C69.6275 53.6795 69.6726 53.7556 69.6914 53.8399C69.7101 53.9242 69.7015 54.0123 69.6668 54.0914C69.632 54.1704 69.573 54.2364 69.4982 54.2796L67.5101 55.4296C67.4483 55.4657 67.3779 55.4846 67.3063 55.484Z" fill="#D1D7DB"/>
<path d="M46.3157 55.4831C46.2599 55.4834 46.2046 55.472 46.1534 55.4496C46.1022 55.4272 46.0562 55.3944 46.0185 55.3532C45.956 55.2858 45.9182 55.1993 45.9113 55.1077C45.9044 55.0161 45.9287 54.9248 45.9803 54.8488L46.8371 53.59L45.1625 54.5573C45.0753 54.6079 44.9724 54.6242 44.8738 54.6031C44.7752 54.5819 44.688 54.5249 44.6292 54.4431C44.5703 54.3612 44.544 54.2604 44.5554 54.1602C44.5668 54.06 44.615 53.9677 44.6907 53.9011L45.0001 53.6274C44.9332 53.6355 44.8653 53.6262 44.803 53.6004C44.7407 53.5747 44.6861 53.5334 44.6444 53.4804C44.5833 53.4053 44.551 53.3109 44.5534 53.2141C44.5558 53.1173 44.5926 53.0245 44.6574 52.9525L46.1606 51.2763L45.1625 51.8521C45.0774 51.8983 44.9786 51.9127 44.8839 51.8924C44.7892 51.8722 44.7048 51.8189 44.646 51.7419C44.5872 51.665 44.5578 51.5695 44.5632 51.4728C44.5686 51.3762 44.6083 51.2846 44.6753 51.2146L45.7578 50.1215L45.1666 50.4626C45.0818 50.5115 44.9822 50.5282 44.8862 50.5095C44.7901 50.4909 44.704 50.4381 44.6437 50.361C44.5834 50.284 44.553 50.1877 44.558 50.0899C44.5631 49.9922 44.6033 49.8996 44.6712 49.8291L46.1265 48.3145L45.169 48.8675C45.0826 48.9145 44.9821 48.9285 44.8862 48.9069C44.7903 48.8854 44.7054 48.8298 44.6474 48.7504C44.5894 48.6711 44.5621 48.5733 44.5707 48.4754C44.5792 48.3775 44.623 48.2859 44.6939 48.2179L45.8147 47.2084L45.2535 47.5332C45.1657 47.5841 45.0621 47.6002 44.963 47.5785C44.8639 47.5568 44.7766 47.4988 44.7181 47.4159C44.6596 47.333 44.6343 47.2312 44.6471 47.1306C44.66 47.03 44.71 46.9378 44.7873 46.8722L46.7584 45.2057L45.5564 45.9C45.4664 45.9512 45.3603 45.9661 45.2597 45.9416C45.159 45.9172 45.0716 45.8552 45.0152 45.7684C44.9587 45.6816 44.9376 45.5765 44.9561 45.4746C44.9746 45.3727 45.0313 45.2818 45.1146 45.2203L51.3436 40.6951L46.4359 43.5221C46.345 43.576 46.2367 43.5923 46.1339 43.5676C46.0312 43.5429 45.9421 43.4791 45.8857 43.3897C45.8292 43.3004 45.8098 43.1926 45.8316 43.0892C45.8533 42.9857 45.9146 42.8949 46.0023 42.8359L47.3277 41.9255C47.2366 41.9498 47.1399 41.9416 47.0541 41.9024C46.9684 41.8632 46.899 41.7954 46.8578 41.7106C46.8166 41.6258 46.8062 41.5293 46.8283 41.4377C46.8505 41.3461 46.9039 41.265 46.9792 41.2084L49.0274 39.6654C48.9702 39.627 48.9236 39.5746 48.8922 39.5133C48.8608 39.452 48.8455 39.3836 48.8477 39.3147C48.85 39.2458 48.8698 39.1787 48.9052 39.1195C48.9406 39.0604 48.9905 39.0112 49.0502 38.9767L52.8493 36.784C52.9388 36.7315 53.0451 36.7152 53.1462 36.7386C53.2473 36.762 53.3357 36.8233 53.393 36.9098C53.4504 36.9962 53.4725 37.1014 53.4548 37.2037C53.437 37.306 53.3808 37.3976 53.2976 37.4596L52.7218 37.8941L55.7461 36.144C55.837 36.0901 55.9454 36.0738 56.0481 36.0985C56.1509 36.1233 56.2399 36.1871 56.2964 36.2764C56.3529 36.3657 56.3723 36.4736 56.3505 36.577C56.3287 36.6804 56.2675 36.7713 56.1798 36.8302L55.0055 37.6359L57.6554 36.1066C57.7454 36.0555 57.8516 36.0406 57.9522 36.065C58.0528 36.0895 58.1402 36.1515 58.1967 36.2383C58.2531 36.3251 58.2742 36.4302 58.2557 36.5321C58.2373 36.634 58.1806 36.7249 58.0972 36.7864L50.6387 42.2033C50.7106 42.2325 50.7725 42.2822 50.8165 42.3462C50.8746 42.4291 50.8996 42.5306 50.8867 42.631C50.8737 42.7313 50.8238 42.8232 50.7467 42.8887L48.7724 44.5584C48.8604 44.5168 48.9604 44.5082 49.0542 44.5342C49.1479 44.5601 49.2293 44.6189 49.2834 44.6997C49.3375 44.7806 49.3608 44.8782 49.349 44.9748C49.3372 45.0714 49.2911 45.1605 49.2191 45.226L48.1024 46.2355L48.2007 46.1786C48.2854 46.1297 48.385 46.113 48.4811 46.1316C48.5772 46.1503 48.6633 46.203 48.7236 46.2801C48.7839 46.3572 48.8143 46.4535 48.8092 46.5512C48.8042 46.649 48.764 46.7416 48.6961 46.8121L47.2408 48.3267L47.9717 47.9036C48.0568 47.8545 48.1568 47.8379 48.2531 47.8569C48.3495 47.876 48.4357 47.9293 48.4958 48.007C48.5559 48.0847 48.5857 48.1816 48.5798 48.2796C48.574 48.3777 48.5327 48.4703 48.4638 48.5403L47.3796 49.6334L47.9603 49.2988C48.044 49.2505 48.1421 49.2337 48.2371 49.2513C48.3321 49.2689 48.4177 49.3197 48.4786 49.3948C48.5394 49.4698 48.5715 49.5641 48.5691 49.6606C48.5667 49.7572 48.5299 49.8498 48.4654 49.9217L46.9654 51.5955L47.97 51.0156C48.0573 50.9651 48.1602 50.9487 48.2587 50.9699C48.3573 50.991 48.4445 51.048 48.5034 51.1299C48.5622 51.2117 48.5885 51.3125 48.5772 51.4127C48.5658 51.5129 48.5176 51.6052 48.4419 51.6718L48.1349 51.9439C48.2118 51.936 48.2894 51.9502 48.3585 51.9848C48.4276 52.0195 48.4854 52.0731 48.525 52.1395C48.5647 52.2058 48.5846 52.2821 48.5824 52.3594C48.5802 52.4367 48.5559 52.5117 48.5125 52.5757L47.6566 53.8345L47.9814 53.6469C48.0276 53.6198 48.0787 53.6021 48.1318 53.5949C48.1848 53.5876 48.2388 53.5909 48.2906 53.6046C48.3423 53.6183 48.3909 53.6421 48.4334 53.6746C48.476 53.7072 48.5117 53.7478 48.5384 53.7942C48.5652 53.8405 48.5825 53.8918 48.5894 53.9449C48.5964 53.998 48.5927 54.0519 48.5786 54.1036C48.5646 54.1553 48.5405 54.2037 48.5077 54.246C48.4749 54.2883 48.434 54.3237 48.3875 54.3502L46.5196 55.4287C46.4578 55.4649 46.3874 55.4837 46.3157 55.4831Z" fill="#D1D7DB"/>
<path d="M47.9913 80.645C47.9037 80.6452 47.8184 80.6171 47.7481 80.5648C47.6778 80.5126 47.6263 80.439 47.6012 80.355C47.5762 80.271 47.579 80.1812 47.6092 80.099C47.6394 80.0168 47.6954 79.9465 47.7688 79.8987L59.9003 71.9797L44.997 80.5825C44.9052 80.6338 44.7971 80.6475 44.6955 80.6207C44.5938 80.594 44.5065 80.5288 44.4519 80.4389C44.3973 80.3491 44.3796 80.2416 44.4027 80.139C44.4258 80.0364 44.4877 79.9468 44.5755 79.889L57.1448 71.8546L43.1762 79.9198C43.0844 79.9711 42.9764 79.9848 42.8747 79.958C42.773 79.9313 42.6857 79.8661 42.6311 79.7763C42.5765 79.6864 42.5589 79.5789 42.5819 79.4763C42.605 79.3737 42.6669 79.2841 42.7547 79.2263L56.5738 70.4236L42.2139 78.7138C42.1217 78.7638 42.0138 78.7762 41.9128 78.7484C41.8117 78.7207 41.7253 78.6549 41.6716 78.5649C41.6179 78.4749 41.6011 78.3677 41.6246 78.2655C41.6482 78.1634 41.7103 78.0744 41.798 78.017L49.7902 73.0704L41.9304 77.6069C41.8385 77.6567 41.731 77.6691 41.6301 77.6416C41.5293 77.6141 41.4429 77.5487 41.3891 77.4592C41.3352 77.3696 41.3179 77.2627 41.3408 77.1608C41.3638 77.0588 41.4251 76.9696 41.5122 76.9117L52.5944 69.9867L41.9142 76.1524C41.8222 76.2039 41.7137 76.2177 41.6118 76.1907C41.5098 76.1637 41.4224 76.0981 41.3679 76.0078C41.3135 75.9174 41.2963 75.8095 41.3201 75.7067C41.3438 75.604 41.4066 75.5145 41.4951 75.4572L53.9499 67.6251L41.9142 74.5728C41.8224 74.6218 41.7154 74.6338 41.6151 74.6062C41.5148 74.5786 41.4289 74.5135 41.3751 74.4245C41.3214 74.3354 41.3039 74.2291 41.3262 74.1275C41.3485 74.0259 41.409 73.9367 41.4951 73.8784L53.3919 66.3923L41.9142 73.0184C41.8226 73.0688 41.715 73.0819 41.614 73.055C41.513 73.0281 41.4262 72.9632 41.3718 72.8739C41.3174 72.7847 41.2995 72.6778 41.3218 72.5757C41.3442 72.4736 41.4051 72.384 41.4919 72.3256L55.5993 63.2558L41.9142 71.1562C41.8228 71.2046 41.7164 71.2163 41.6166 71.1889C41.5169 71.1616 41.4314 71.0972 41.3775 71.0089C41.3236 70.9206 41.3054 70.8151 41.3267 70.7139C41.348 70.6127 41.407 70.5234 41.4919 70.4643L53.0776 63.0008L41.9142 69.4459C41.8221 69.4966 41.714 69.5096 41.6125 69.4822C41.511 69.4548 41.4241 69.3892 41.37 69.299C41.316 69.2089 41.299 69.1013 41.3226 68.9989C41.3462 68.8965 41.4087 68.8072 41.4967 68.7499L45.1862 66.4467L41.9142 68.3349C41.8222 68.384 41.7149 68.3958 41.6144 68.368C41.5139 68.3401 41.428 68.2747 41.3745 68.1852C41.3209 68.0958 41.3038 67.9892 41.3267 67.8874C41.3497 67.7857 41.4108 67.6967 41.4976 67.6389L42.5915 66.9583L41.9142 67.3489C41.8229 67.4009 41.7151 67.4154 41.6133 67.3895C41.5116 67.3636 41.4238 67.2993 41.3684 67.2101C41.313 67.1209 41.2944 67.0137 41.3163 66.9111C41.3383 66.8084 41.3992 66.7182 41.4862 66.6595L49.9615 61.016L41.9142 65.6614C41.8226 65.7104 41.7158 65.7224 41.6157 65.6951C41.5155 65.6678 41.4296 65.6031 41.3756 65.5144C41.3217 65.4257 41.3037 65.3197 41.3255 65.2182C41.3473 65.1167 41.4071 65.0274 41.4927 64.9686L43.5043 63.683L41.9142 64.6007C41.8225 64.6529 41.714 64.6674 41.6119 64.641C41.5097 64.6146 41.4218 64.5495 41.3668 64.4595C41.3118 64.3694 41.294 64.2615 41.3172 64.1585C41.3404 64.0556 41.4027 63.9657 41.4911 63.908L43.2599 62.7653L41.9142 63.5417C41.8235 63.5929 41.7165 63.6073 41.6155 63.5819C41.5145 63.5565 41.4271 63.4933 41.3714 63.4052C41.3157 63.3172 41.2959 63.2111 41.3163 63.1089C41.3366 63.0068 41.3954 62.9163 41.4805 62.8563L46.0463 59.706L41.9142 62.0929C41.8229 62.1448 41.7151 62.1593 41.6133 62.1335C41.5116 62.1076 41.4238 62.0433 41.3684 61.9541C41.313 61.8649 41.2944 61.7577 41.3163 61.655C41.3383 61.5523 41.3992 61.4621 41.4862 61.4034L42.2894 60.8666L41.9142 61.0834C41.8233 61.1353 41.7159 61.1502 41.6144 61.1249C41.5129 61.0996 41.425 61.036 41.3692 60.9475C41.3134 60.859 41.2939 60.7524 41.3148 60.6498C41.3357 60.5473 41.3953 60.4568 41.4813 60.3972L42.3917 59.771L41.9142 60.0455C41.8249 60.0951 41.7203 60.1092 41.6211 60.0851C41.5219 60.0609 41.4355 60.0004 41.379 59.9154C41.3224 59.8304 41.3 59.7272 41.3161 59.6264C41.3322 59.5256 41.3857 59.4346 41.4659 59.3715L43.4808 57.8365L41.9142 58.7421C41.8251 58.7919 41.7205 58.8064 41.6213 58.7827C41.522 58.7589 41.4353 58.6986 41.3785 58.6138C41.3216 58.5291 41.2988 58.426 41.3146 58.3251C41.3303 58.2243 41.3835 58.133 41.4634 58.0696L41.9743 57.6741L41.9239 57.7033C41.8404 57.7516 41.7424 57.7686 41.6475 57.7512C41.5526 57.7338 41.467 57.6832 41.406 57.6085C41.345 57.5337 41.3127 57.4397 41.3147 57.3432C41.3168 57.2468 41.3531 57.1542 41.4172 57.0821L42.4932 55.872C42.4165 55.8763 42.3401 55.8599 42.2719 55.8244C42.2038 55.789 42.1464 55.7358 42.1058 55.6706C42.0519 55.5774 42.0372 55.4667 42.0649 55.3627C42.0926 55.2587 42.1605 55.1699 42.2536 55.1159L44.1833 54.0017C44.2668 53.9534 44.3648 53.9364 44.4597 53.9538C44.5546 53.9712 44.6402 54.0218 44.7011 54.0966C44.7621 54.1713 44.7945 54.2654 44.7925 54.3618C44.7904 54.4583 44.7541 54.5508 44.69 54.623L43.6935 55.7445L46.8032 53.9505C46.8923 53.8997 46.9973 53.8844 47.0972 53.9079C47.1971 53.9313 47.2844 53.9917 47.3415 54.0768C47.3987 54.162 47.4216 54.2656 47.4055 54.367C47.3894 54.4683 47.3355 54.5597 47.2547 54.623L46.7447 55.0168L48.5898 53.9505C48.6791 53.9 48.7842 53.8852 48.884 53.9089C48.9838 53.9327 49.0709 53.9934 49.1277 54.0788C49.1846 54.1642 49.2071 54.2679 49.1906 54.3691C49.1741 54.4704 49.1199 54.5616 49.0389 54.6246L47.0224 56.1587L50.8524 53.9505C50.9431 53.9006 51.0494 53.8872 51.1496 53.913C51.2498 53.9388 51.3364 54.0019 51.3916 54.0894C51.4469 54.1769 51.4667 54.2822 51.4469 54.3838C51.4271 54.4854 51.3693 54.5756 51.2853 54.636L50.3773 55.2613L52.6505 53.9505C52.7415 53.9008 52.8481 53.8878 52.9485 53.9143C53.0488 53.9407 53.1352 54.0045 53.1899 54.0926C53.2447 54.1807 53.2636 54.2864 53.2429 54.3881C53.2222 54.4897 53.1633 54.5796 53.0784 54.6392L52.2704 55.1793L54.3981 53.9505C54.4887 53.8999 54.5953 53.8859 54.6958 53.9113C54.7964 53.9368 54.8835 53.9998 54.9391 54.0874C54.9947 54.175 55.0146 54.2806 54.9948 54.3825C54.975 54.4843 54.917 54.5747 54.8326 54.6351L50.2693 57.7829L56.9084 53.9505C57 53.8994 57.1078 53.8856 57.2092 53.9122C57.3107 53.9387 57.3979 54.0034 57.4527 54.0929C57.5075 54.1823 57.5256 54.2894 57.5031 54.3919C57.4807 54.4943 57.4195 54.5841 57.3324 54.6425L55.5595 55.7875L58.7414 53.9505C58.8329 53.9015 58.9397 53.8894 59.0399 53.9168C59.1401 53.9441 59.226 54.0087 59.2799 54.0974C59.3339 54.1861 59.3518 54.2921 59.3301 54.3937C59.3083 54.4952 59.2485 54.5845 59.1629 54.6433L57.1545 55.9264L60.5808 53.9505C60.6719 53.9008 60.7785 53.8878 60.8788 53.9143C60.9792 53.9407 61.0656 54.0045 61.1203 54.0926C61.1751 54.1807 61.194 54.2864 61.1733 54.3881C61.1526 54.4897 61.0937 54.5796 61.0088 54.6392L52.5319 60.2851L63.5012 53.9505C63.5933 53.8998 63.7015 53.8868 63.8029 53.9142C63.9044 53.9415 63.9913 54.0072 64.0454 54.0973C64.0994 54.1875 64.1164 54.2951 64.0928 54.3975C64.0692 54.4999 64.0068 54.5892 63.9187 54.6465L62.8312 55.323L65.21 53.9505C65.3018 53.9021 65.4086 53.8907 65.5086 53.9186C65.6086 53.9465 65.6941 54.0117 65.7475 54.1007C65.8009 54.1896 65.8183 54.2957 65.7959 54.3971C65.7736 54.4985 65.7133 54.5874 65.6274 54.6457L61.9379 56.9497L67.1355 53.9505C67.227 53.9009 67.334 53.8882 67.4345 53.9152C67.535 53.9422 67.6213 54.0068 67.6756 54.0956C67.7299 54.1844 67.7481 54.2906 67.7263 54.3924C67.7045 54.4941 67.6445 54.5837 67.5586 54.6425L55.9704 62.1034L69.9105 54.0553C70.0024 54.0014 70.1118 53.9858 70.2151 54.0119C70.3184 54.0379 70.4073 54.1035 70.4627 54.1944C70.5181 54.2854 70.5355 54.3945 70.5112 54.4982C70.4869 54.6019 70.4229 54.6919 70.3328 54.7488L56.2279 63.817L71.4804 55.0112C71.5724 54.9596 71.6808 54.9459 71.7828 54.9729C71.8847 54.9999 71.9722 55.0654 72.0266 55.1558C72.0811 55.2461 72.0982 55.354 72.0745 55.4568C72.0508 55.5596 71.988 55.649 71.8994 55.7063L59.9977 63.1949L72.1569 56.1757C72.2486 56.1267 72.3557 56.1148 72.456 56.1424C72.5563 56.1699 72.6422 56.235 72.6959 56.3241C72.7497 56.4131 72.7672 56.5194 72.7449 56.621C72.7225 56.7226 72.6621 56.8118 72.5759 56.8701L60.122 64.7022L72.3201 57.6603C72.4119 57.6119 72.5188 57.6005 72.6188 57.6284C72.7187 57.6563 72.8042 57.7214 72.8577 57.8104C72.9111 57.8994 72.9284 58.0055 72.9061 58.1069C72.8837 58.2082 72.8234 58.2972 72.7375 58.3555L61.6512 65.2845L72.3201 59.1254C72.412 59.0775 72.5187 59.0666 72.6183 59.0948C72.718 59.1231 72.8031 59.1883 72.8562 59.2773C72.9094 59.3662 72.9265 59.4721 72.9041 59.5732C72.8818 59.6744 72.8216 59.7631 72.7359 59.8214L64.7511 64.7623L72.3177 60.3947C72.4096 60.3422 72.5184 60.3276 72.621 60.3542C72.7235 60.3807 72.8116 60.4463 72.8664 60.5369C72.9213 60.6274 72.9386 60.7359 72.9147 60.839C72.8908 60.9422 72.8275 61.0319 72.7383 61.0891L58.9144 69.895L72.3201 62.153C72.4119 62.1017 72.52 62.088 72.6216 62.1147C72.7233 62.1415 72.8106 62.2067 72.8652 62.2965C72.9198 62.3864 72.9375 62.4939 72.9144 62.5965C72.8913 62.6991 72.8294 62.7887 72.7416 62.8465L60.1772 70.8801L72.3201 63.8698C72.4118 63.8165 72.5206 63.8012 72.6234 63.8271C72.7262 63.853 72.8148 63.918 72.8703 64.0084C72.9258 64.0988 72.9437 64.2072 72.9202 64.3106C72.8968 64.414 72.8339 64.5041 72.7448 64.5617L60.6158 72.4808L72.3201 65.7263C72.4113 65.676 72.5183 65.6626 72.6191 65.689C72.7199 65.7153 72.8067 65.7794 72.8615 65.868C72.9164 65.9565 72.9351 66.0627 72.9139 66.1647C72.8926 66.2667 72.833 66.3566 72.7473 66.4158L62.335 73.3189L72.3242 67.5528C72.4154 67.5031 72.5222 67.4903 72.6226 67.517C72.723 67.5438 72.8094 67.6079 72.8639 67.6964C72.9184 67.7848 72.937 67.8908 72.9157 67.9925C72.8945 68.0942 72.8351 68.1839 72.7497 68.2431L65.828 72.7861L72.325 69.0357C72.4161 68.9846 72.5234 68.9706 72.6246 68.9966C72.7258 69.0226 72.813 69.0866 72.8682 69.1753C72.9235 69.264 72.9424 69.3705 72.9211 69.4728C72.8997 69.5751 72.8398 69.6652 72.7538 69.7244L66.619 73.8329L72.3209 70.5414C72.4123 70.4884 72.5208 70.4731 72.6233 70.4988C72.7258 70.5245 72.8143 70.5892 72.8699 70.679C72.9255 70.7689 72.9439 70.8769 72.9211 70.9801C72.8984 71.0833 72.8363 71.1735 72.7481 71.2317L69.4695 73.409L72.3201 71.7628C72.4108 71.7116 72.5177 71.6972 72.6188 71.7226C72.7198 71.748 72.8072 71.8113 72.8629 71.8993C72.9186 71.9874 72.9383 72.0934 72.918 72.1956C72.8977 72.2978 72.8389 72.3882 72.7538 72.4483L69.1804 74.9179L72.3169 73.1077C72.4071 73.0554 72.514 73.0398 72.6154 73.0642C72.7169 73.0886 72.805 73.151 72.8616 73.2387C72.9182 73.3263 72.9389 73.4323 72.9195 73.5348C72.9 73.6373 72.8418 73.7283 72.757 73.7891L69.9146 75.834L72.3169 74.4477C72.4046 74.3985 72.5074 74.3836 72.6055 74.4059C72.7036 74.4282 72.7899 74.4861 72.8478 74.5684C72.9056 74.6507 72.9308 74.7515 72.9186 74.8514C72.9063 74.9512 72.8574 75.0429 72.7814 75.1088L69.8204 77.6109L72.3201 76.1702C72.405 76.1218 72.5045 76.1057 72.6004 76.1248C72.6963 76.1438 72.782 76.1968 72.842 76.274C72.9019 76.3512 72.932 76.4475 72.9267 76.5451C72.9213 76.6427 72.881 76.7351 72.8131 76.8053L71.2481 78.402L72.0537 77.9374C72.1465 77.8889 72.2545 77.8781 72.3551 77.9072C72.4557 77.9364 72.5411 78.0033 72.5935 78.094C72.6459 78.1847 72.6613 78.2921 72.6363 78.3938C72.6114 78.4956 72.5482 78.5837 72.4598 78.6399L69.0814 80.589C68.9964 80.6381 68.8966 80.6548 68.8003 80.636C68.704 80.6172 68.6178 80.5641 68.5575 80.4867C68.4975 80.4091 68.4675 80.3124 68.4732 80.2145C68.4788 80.1166 68.5198 80.024 68.5884 79.9539L70.1542 78.3573L66.2868 80.5882C66.1991 80.6374 66.0962 80.6523 65.9982 80.63C65.9001 80.6077 65.8137 80.5498 65.7559 80.4675C65.6981 80.3852 65.6729 80.2844 65.6851 80.1845C65.6974 80.0847 65.7463 79.993 65.8223 79.9271L68.7817 77.4258L63.3039 80.5882C63.2137 80.6405 63.1067 80.6561 63.0053 80.6317C62.9039 80.6073 62.8157 80.5449 62.7591 80.4572C62.7025 80.3696 62.6818 80.2636 62.7013 80.1611C62.7208 80.0586 62.7789 79.9676 62.8637 79.9068L65.7062 77.8603L60.9829 80.5882C60.8923 80.6376 60.7864 80.6508 60.6865 80.6249C60.5867 80.5991 60.5004 80.5362 60.4452 80.4491C60.39 80.362 60.37 80.2571 60.3893 80.1558C60.4087 80.0545 60.4658 79.9643 60.5492 79.9036L64.116 77.4355L58.6537 80.5882C58.5624 80.6401 58.4546 80.6546 58.3528 80.6288C58.2511 80.6029 58.1633 80.5386 58.1079 80.4494C58.0525 80.3602 58.0339 80.253 58.0558 80.1503C58.0778 80.0476 58.1387 79.9575 58.2257 79.8987L61.5026 77.7246L56.5381 80.5882C56.4472 80.6374 56.3409 80.65 56.241 80.6235C56.1411 80.5971 56.055 80.5335 56.0004 80.4458C55.9457 80.3581 55.9265 80.2528 55.9468 80.1515C55.967 80.0501 56.0251 79.9603 56.1093 79.9003L62.2376 75.791L53.9271 80.5882C53.8359 80.6378 53.729 80.6506 53.6286 80.6239C53.5282 80.5972 53.4419 80.533 53.3874 80.4446C53.3329 80.3562 53.3143 80.2502 53.3355 80.1485C53.3568 80.0468 53.4162 79.9571 53.5016 79.8979L60.4265 75.35L51.3576 80.5882C51.2664 80.6385 51.1593 80.6519 51.0585 80.6255C50.9578 80.5992 50.871 80.5351 50.8161 80.4466C50.7613 80.358 50.7425 80.2518 50.7638 80.1498C50.7851 80.0478 50.8447 79.9579 50.9304 79.8987L61.3402 73.0013L48.1943 80.5882C48.1328 80.6247 48.0628 80.6443 47.9913 80.645Z" fill="#FCBE5D"/>
<path d="M58.0371 74.148C57.9632 74.148 57.8907 74.1278 57.8274 74.0896C57.7641 74.0513 57.7124 73.9965 57.678 73.9311C57.6435 73.8656 57.6276 73.792 57.6319 73.7182C57.6363 73.6444 57.6607 73.5731 57.7026 73.5122L58.7185 72.0373L55.2662 74.0303C55.1785 74.0809 55.0751 74.097 54.9762 74.0753C54.8773 74.0536 54.79 73.9958 54.7316 73.9131C54.6731 73.8305 54.6476 73.7289 54.6601 73.6285C54.6727 73.528 54.7223 73.4358 54.7992 73.37L56.1546 72.2168L54.3038 73.2848C54.2153 73.3348 54.1113 73.3498 54.0122 73.3269C53.9132 73.3039 53.8264 73.2446 53.7689 73.1608C53.7114 73.0769 53.6876 72.9745 53.7019 72.8739C53.7163 72.7732 53.7679 72.6816 53.8466 72.6172L56.2017 70.7209L54.1934 71.8798C54.1041 71.9303 53.999 71.9452 53.8992 71.9214C53.7994 71.8976 53.7123 71.8369 53.6555 71.7515C53.5986 71.6662 53.5761 71.5624 53.5926 71.4612C53.6091 71.3599 53.6633 71.2687 53.7443 71.2057L55.8493 69.5985L54.5247 70.3636C54.4351 70.4135 54.3298 70.4276 54.2302 70.4031C54.1306 70.3786 54.0439 70.3173 53.9876 70.2315C53.9313 70.1457 53.9096 70.0418 53.9269 69.9406C53.9441 69.8395 53.999 69.7486 54.0805 69.6862L55.2036 68.8506L54.7529 69.1113C54.663 69.162 54.5572 69.1766 54.457 69.1521C54.3567 69.1276 54.2695 69.0658 54.2132 68.9794C54.1568 68.8929 54.1355 68.7883 54.1535 68.6866C54.1716 68.585 54.2276 68.4941 54.3103 68.4323L54.5198 68.2788L54.1479 68.4932C54.0588 68.5452 53.9532 68.5612 53.8527 68.5382C53.7521 68.5151 53.6641 68.4546 53.6065 68.369C53.549 68.2834 53.5261 68.1791 53.5426 68.0773C53.5592 67.9755 53.6138 67.8838 53.6955 67.8208L55.3515 66.5384L53.6005 67.5512C53.5113 67.6035 53.4054 67.6198 53.3046 67.5968C53.2037 67.5737 53.1154 67.513 53.0578 67.4271C53.0002 67.3412 52.9775 67.2365 52.9945 67.1344C53.0114 67.0324 53.0667 66.9406 53.149 66.8779L54.4922 65.8433L53.3195 66.5198C53.2301 66.5706 53.1248 66.5857 53.0247 66.5619C52.9246 66.5381 52.8373 66.4772 52.7804 66.3915C52.7235 66.3059 52.7012 66.2018 52.7181 66.1003C52.7349 65.9989 52.7897 65.9076 52.8712 65.8449L53.2887 65.5282C53.2037 65.5696 53.1069 65.5801 53.015 65.5578C52.9232 65.5356 52.8419 65.482 52.7854 65.4062C52.7288 65.3305 52.7004 65.2374 52.7051 65.143C52.7098 65.0486 52.7473 64.9588 52.8111 64.889L54.2291 63.346C54.1418 63.3712 54.0487 63.3664 53.9645 63.3324C53.8802 63.2984 53.8099 63.2371 53.7646 63.1584C53.711 63.0652 53.6965 62.9546 53.7244 62.8507C53.7522 62.7469 53.8201 62.6584 53.9132 62.6045L56.0921 61.3457C56.1761 61.2975 56.2746 61.2809 56.3698 61.2989C56.465 61.3169 56.5506 61.3683 56.6112 61.4439C56.6718 61.5195 56.7033 61.6142 56.7002 61.7111C56.697 61.8079 56.6594 61.9004 56.594 61.9719L55.2028 63.4865L58.4976 61.5845C58.587 61.5336 58.6924 61.5185 58.7924 61.5423C58.8925 61.5661 58.9798 61.627 59.0367 61.7127C59.0936 61.7984 59.1159 61.9025 59.0991 62.0039C59.0822 62.1054 59.0275 62.1967 58.9459 62.2594L58.5293 62.5761L59.369 62.0888C59.4582 62.0376 59.5636 62.0222 59.6637 62.0456C59.7639 62.069 59.8514 62.1296 59.9086 62.2151C59.9658 62.3006 59.9885 62.4046 59.972 62.5061C59.9555 62.6076 59.9011 62.6991 59.8198 62.7621L58.4798 63.7943L60.1219 62.8498C60.211 62.7978 60.3166 62.7818 60.4171 62.8048C60.5176 62.8279 60.6056 62.8884 60.6632 62.974C60.7208 63.0596 60.7436 63.1639 60.7271 63.2657C60.7106 63.3675 60.6559 63.4592 60.5742 63.5222L58.9191 64.8037L60.6595 63.8C60.7492 63.7507 60.8542 63.7371 60.9535 63.7619C61.0528 63.7868 61.1391 63.8482 61.1951 63.9339C61.251 64.0196 61.2725 64.1233 61.2553 64.2242C61.238 64.3251 61.1833 64.4158 61.1021 64.4781L60.8966 64.6283C60.9868 64.5774 61.0931 64.5628 61.1937 64.5876C61.2943 64.6124 61.3815 64.6747 61.4377 64.7618C61.4938 64.8489 61.5146 64.9541 61.4957 65.0559C61.4768 65.1578 61.4196 65.2486 61.336 65.3097L60.2136 66.1438L60.9267 65.732C61.0161 65.6787 61.1227 65.6617 61.2243 65.6847C61.3259 65.7077 61.4148 65.7688 61.4725 65.8555C61.5303 65.9422 61.5526 66.0477 61.5347 66.1504C61.5169 66.253 61.4603 66.3448 61.3766 66.4069L59.2651 68.0165L60.3655 67.3822C60.454 67.3322 60.5581 67.3172 60.6571 67.3401C60.7561 67.3631 60.843 67.4224 60.9004 67.5062C60.9579 67.5901 60.9818 67.6925 60.9674 67.7931C60.953 67.8938 60.9014 67.9854 60.8227 68.0498L58.4676 69.9445L59.6151 69.2826C59.7028 69.2328 59.8058 69.2174 59.9042 69.2393C60.0026 69.2613 60.0893 69.3191 60.1475 69.4014C60.2056 69.4838 60.2311 69.5848 60.2188 69.6849C60.2066 69.785 60.1575 69.8769 60.0813 69.9429L58.725 71.0953L59.8709 70.4342C59.9507 70.3882 60.0437 70.3707 60.1347 70.3846C60.2257 70.3984 60.3093 70.4428 60.3718 70.5104C60.4343 70.578 60.472 70.6648 60.4787 70.7566C60.4853 70.8484 60.4606 70.9398 60.4086 71.0157L59.391 72.4913L60.1081 72.0771C60.2009 72.0286 60.3088 72.0178 60.4094 72.047C60.51 72.0761 60.5954 72.1431 60.6478 72.2337C60.7003 72.3244 60.7156 72.4318 60.6907 72.5335C60.6658 72.6353 60.6025 72.7234 60.5141 72.7796L58.2402 74.0928C58.1787 74.1291 58.1086 74.1482 58.0371 74.148Z" fill="#A87E48"/>
<path d="M73.1344 59.7563C73.4731 57.3037 72.877 54.1754 69.8973 53.9854C73.1709 29.8036 41.1326 30.1901 44.334 54.0365C43.3958 54.1971 42.5488 54.6953 41.9526 55.4374C41.3564 56.1794 41.0524 57.1139 41.0977 58.0647C41.0945 62.0554 41.0945 66.0465 41.0977 70.0378C41.5655 73.504 39.3541 79.8466 44.3373 80.5499C44.3373 82.2205 43.9182 84.3353 46.3676 83.9552C48.9664 84.28 48.8787 82.5924 48.7829 80.5897H65.4615C65.5946 81.6934 64.8986 83.7505 66.5789 83.8098C69.6057 84.0153 70.132 83.4915 69.8859 80.4801C70.7695 80.3475 71.5786 79.9091 72.1722 79.2413C72.7658 78.5735 73.1063 77.7186 73.1344 76.8255C73.2416 71.1439 73.0873 65.4469 73.1344 59.7563ZM45.5311 48.5531C47.0392 30.8 71.7603 33.6774 68.7051 53.9504H66.6382C66.7941 49.1191 67.0711 43.3206 62.165 40.6519C56.1553 37.0924 47.831 41.3438 47.6004 48.4256C47.5403 50.2634 47.5842 52.1102 47.5915 53.948C46.9158 53.9521 46.2239 53.9147 45.5303 53.9261C45.5287 52.1362 45.5116 50.3438 45.5311 48.5531ZM65.4623 53.9504H48.7707C48.7812 49.6462 48.1275 44.5664 52.046 41.6508C53.3991 40.6137 55.045 40.0298 56.7493 39.9825C58.4536 39.9351 60.1294 40.4265 61.5381 41.3869C65.9179 44.0969 65.5743 49.444 65.4623 53.9504ZM45.8275 83.0692C45.7942 83.0692 45.8966 83.0903 45.8275 83.0692V83.0692ZM47.5858 81.8875C47.5785 82.2245 47.6037 82.5673 47.5712 82.9027C47.5614 82.9287 47.4648 83.0781 47.5314 82.9936C46.9618 83.089 46.3822 83.1098 45.8072 83.0553C45.6383 83.0204 45.5246 82.7256 45.5311 82.6493C45.5311 81.9622 45.5311 81.2752 45.5311 80.5881C46.2174 80.58 46.9004 80.5841 47.5858 80.5832V81.8875ZM67.1296 83.2129C67.1099 83.2116 67.0904 83.2092 67.0711 83.2056C66.2354 82.7118 66.7885 81.41 66.6374 80.5946C67.3285 80.5946 68.018 80.5995 68.7099 80.5905C68.7714 81.4582 68.734 82.3301 68.5987 83.1893L68.5784 83.2137C68.096 83.2072 67.6103 83.191 67.1296 83.2129ZM71.9584 58.6096V75.9468C72.0908 79.5851 70.5161 80.2413 67.1231 79.9368C60.9696 79.9368 54.8202 79.9238 48.6659 79.966C48.544 79.8702 48.3934 79.8181 48.2383 79.8181C48.0833 79.8181 47.9327 79.8702 47.8107 79.966C47.0035 79.966 46.1962 79.9547 45.3898 79.936C45.3018 79.8709 45.198 79.8303 45.0892 79.8183C44.9803 79.8063 44.8703 79.8234 44.7702 79.8678C41.3503 79.1637 42.4402 74.9138 42.2737 72.3353V59.6873C42.0869 57.8194 42.2055 54.791 44.5793 54.6635C44.6891 54.7027 44.806 54.7183 44.9223 54.7093C45.0385 54.7004 45.1516 54.6671 45.2542 54.6115C53.1155 54.5839 60.9801 54.6115 68.8423 54.6018C68.9409 54.6654 69.0532 54.7043 69.17 54.7154C69.2868 54.7264 69.4044 54.7091 69.5131 54.6651C71.3453 54.9835 72.1525 56.8741 71.9584 58.6096Z" fill="#262626"/>
<path d="M59.604 61.8735C55.0561 59.5069 49.8001 65.2032 53.9728 69.0063C53.7178 70.7256 52.2429 73.8182 55.126 74.0098C59.9614 74.1503 61.999 74.126 60.2513 68.6766C60.768 68.2454 61.1718 67.6947 61.4279 67.0723C61.6839 66.4499 61.7844 65.7745 61.7206 65.1045C61.6569 64.4345 61.4308 63.7901 61.062 63.2271C60.6932 62.6642 60.1928 62.1995 59.604 61.8735ZM59.1241 68.8529C58.9462 70.24 60.7199 72.5886 59.0429 73.5218C57.4998 73.4292 54.3861 74.2787 54.4738 71.8374C54.6208 70.7646 55.0529 69.656 55.1292 68.61C52.4882 66.6894 53.6398 61.5624 57.1815 61.8556C60.5266 62.204 61.7724 66.8144 59.1241 68.8529Z" fill="#262626"/>
<path d="M44.3422 57.5839V77.0749C44.3422 77.6247 45.5262 77.4054 45.5262 76.9547V57.4637C45.5262 56.9139 44.3422 57.1332 44.3422 57.5839Z" fill="#262626"/>
<path d="M47.5884 57.5774V77.0684C47.5884 77.6475 48.7757 77.4469 48.7757 76.9612V57.4702C48.7757 56.8912 47.5884 57.0918 47.5884 57.5774Z" fill="#262626"/>
<path d="M65.4598 57.5928V77.0838C65.4598 77.593 66.639 77.3534 66.639 76.9457V57.4548C66.639 56.9456 65.4598 57.1843 65.4598 57.5928Z" fill="#262626"/>
<path d="M68.7109 57.6815V77.1725C68.7109 77.3852 69.8869 77.2122 69.8869 76.8573V57.3664C69.8869 57.1536 68.7109 57.3266 68.7109 57.6815Z" fill="#262626"/>
<circle cx="64" cy="60" r="59.25" stroke="url(#paint0_linear_4507_36609)" stroke-width="1.5"/>
</g>
<defs>
<filter id="filter0_d_4507_36609" x="0" y="0" width="128" height="128" filterUnits="userSpaceOnUse" color-interpolation-filters="sRGB">
<feFlood flood-opacity="0" result="BackgroundImageFix"/>
<feColorMatrix in="SourceAlpha" type="matrix" values="0 0 0 0 0 0 0 0 0 0 0 0 0 0 0 0 0 0 127 0" result="hardAlpha"/>
<feOffset dy="4"/>
<feGaussianBlur stdDeviation="2"/>
<feComposite in2="hardAlpha" operator="out"/>
<feColorMatrix type="matrix" values="0 0 0 0 0 0 0 0 0 0 0 0 0 0 0 0 0 0 0.25 0"/>
<feBlend mode="normal" in2="BackgroundImageFix" result="effect1_dropShadow_4507_36609"/>
<feBlend mode="normal" in="SourceGraphic" in2="effect1_dropShadow_4507_36609" result="shape"/>
</filter>
<linearGradient id="paint0_linear_4507_36609" x1="4" y1="120" x2="124.548" y2="119.447" gradientUnits="userSpaceOnUse">
<stop stop-color="#CA9342"/>
<stop offset="0.331885" stop-color="#D3A347"/>
<stop offset="0.711985" stop-color="#D8AF53"/>
<stop offset="1" stop-color="#E0BF62"/>
</linearGradient>
</defs>
</svg>
