<svg width="120" height="120" viewBox="0 0 120 120" fill="none" xmlns="http://www.w3.org/2000/svg">
<path d="M53.5148 72.5418C53.5148 74.2191 54.9011 75.5798 56.2082 75.5798C56.6141 75.5798 56.9944 75.4496 57.3263 75.2224C57.8548 74.8573 58.4394 74.5765 59.0624 74.4182C59.5398 74.2957 59.9993 74.6761 59.9993 75.1688V81.3163H43.2341C42.3865 81.3163 41.6973 80.6295 41.6973 79.7794L41.7152 63.0142H48.2379C48.7281 63.0142 49.1085 63.4738 48.9885 63.9512C48.8277 64.5741 48.5494 65.1612 48.1843 65.6897C47.9545 66.0216 47.8243 66.402 47.8243 66.8053C47.8243 68.115 49.185 69.5012 50.8649 69.5012C52.5447 69.5012 53.9054 68.115 53.9054 66.8053C53.9054 66.402 53.7752 66.0216 53.5455 65.6897C53.1804 65.1612 52.9021 64.5741 52.7413 63.9512C52.6213 63.4738 53.0017 63.0142 53.4918 63.0142H59.9993V69.9123C59.9993 70.405 59.5398 70.7854 59.0624 70.6628C58.4395 70.5046 57.8548 70.2237 57.3264 69.8587C56.9945 69.6314 56.6141 69.5012 56.2082 69.5012C54.9011 69.5012 53.5148 70.862 53.5148 72.5418Z" fill="white"/>
<path d="M53.5299 53.8645C53.5299 55.5443 54.9161 56.905 56.2258 56.905C56.6291 56.905 57.0095 56.7748 57.3414 56.5451C57.8699 56.18 58.457 55.9017 59.08 55.7409C59.5548 55.6209 60.0169 55.9987 60.0169 56.4914V63.0142H53.4916C53.0014 63.0142 52.621 63.4737 52.741 63.9511C52.9019 64.5741 53.1801 65.1612 53.5452 65.6897C53.775 66.0216 53.9052 66.402 53.9052 66.8053C53.9052 68.115 52.5444 69.5012 50.8646 69.5012C49.1848 69.5012 47.824 68.115 47.824 66.8053C47.824 66.402 47.9542 66.0216 48.184 65.6897C48.5491 65.1612 48.8274 64.5741 48.9882 63.9511C49.1082 63.4737 48.7278 63.0142 48.2376 63.0142H41.7148V46.2516C41.7148 45.4015 42.4016 44.7122 43.2517 44.7122H58.4774C59.3276 44.7122 60.0168 45.4014 60.0168 46.2516V51.2349C60.0168 51.7276 59.5547 52.108 59.0799 51.9855C58.457 51.8272 57.8698 51.5464 57.3413 51.1839C57.0095 50.9541 56.6291 50.8239 56.2257 50.8239C54.9161 50.8239 53.5299 52.1846 53.5299 53.8645V53.8645Z" fill="white"/>
<path d="M78.3022 64.5536V79.7794C78.3022 80.6295 77.6129 81.3162 76.7653 81.3162H60.0001V75.1688C60.0001 74.676 59.5406 74.2957 59.0632 74.4182C58.4403 74.5765 57.8556 74.8573 57.3271 75.2224C56.9953 75.4496 56.6149 75.5798 56.209 75.5798C54.9019 75.5798 53.5156 74.2191 53.5156 72.5418C53.5156 70.8619 54.9019 69.5012 56.209 69.5012C56.6149 69.5012 56.9952 69.6314 57.3271 69.8586C57.8556 70.2237 58.4402 70.5046 59.0632 70.6628C59.5406 70.7854 60.0001 70.405 60.0001 69.9122V63.0142H67.35C67.8428 63.0142 68.2206 63.4738 68.1005 63.9512C67.9397 64.5741 67.6615 65.1612 67.2964 65.6897C67.0667 66.0216 66.9365 66.402 66.9365 66.8053C66.9365 68.115 68.2971 69.5012 69.977 69.5012C71.6568 69.5012 73.0176 68.115 73.0176 66.8053C73.0176 66.402 72.8873 66.0216 72.6576 65.6897C72.2925 65.1612 72.0142 64.5741 71.8534 63.9512C71.7334 63.4738 72.1138 63.0142 72.604 63.0142H76.7653C77.6129 63.0142 78.3022 63.7035 78.3022 64.5536V64.5536Z" fill="white"/>
<path d="M53.5154 72.5418C53.5154 74.2191 54.9017 75.5798 56.2088 75.5798C56.6147 75.5798 56.9951 75.4496 57.327 75.2224C57.3857 75.1816 57.4419 75.1432 57.5031 75.1075C57.9831 74.7986 58.509 74.5586 59.0629 74.4182C59.5404 74.2957 59.9999 74.6761 59.9999 75.1688V81.3163H45.8924C45.0448 81.3163 44.3555 80.6295 44.3555 79.7794L44.3733 63.0142H48.2385C48.7286 63.0142 49.109 63.4738 48.989 63.9512C48.8282 64.5741 48.5499 65.1612 48.1849 65.6897C47.9551 66.0216 47.8249 66.402 47.8249 66.8053C47.8249 68.115 49.1856 69.5012 50.8655 69.5012C51.3428 69.5012 51.7921 69.3889 52.1955 69.2C53.2091 68.72 53.906 67.7423 53.906 66.8053C53.906 66.402 53.7758 66.0216 53.5461 65.6897C53.1809 65.1612 52.9027 64.5741 52.7419 63.9512C52.6219 63.4738 53.0022 63.0142 53.4924 63.0142H59.9999V69.9123C59.9999 70.405 59.5403 70.7854 59.0629 70.6628C58.509 70.5224 57.983 70.2824 57.5031 69.9736C57.4419 69.9378 57.3857 69.8995 57.327 69.8587C56.9951 69.6314 56.6147 69.5012 56.2088 69.5012C54.9017 69.5012 53.5154 70.862 53.5154 72.5418V72.5418Z" fill="#FFE494"/>
<path d="M53.5305 53.8644C53.5305 55.5443 54.9167 56.905 56.2264 56.905C56.6298 56.905 57.0101 56.7748 57.342 56.545C57.3981 56.5067 57.4569 56.4684 57.5156 56.4302C57.9981 56.1212 58.524 55.8838 59.0806 55.7409C59.5554 55.6209 60.0175 55.9987 60.0175 56.4914V63.0142H53.4922C53.002 63.0142 52.6216 63.4737 52.7416 63.9511C52.9024 64.574 53.1807 65.1612 53.5458 65.6897C53.7755 66.0216 53.9057 66.402 53.9057 66.8053C53.9057 67.7423 53.2088 68.72 52.1953 69.2C51.7919 69.3889 51.3426 69.5012 50.8652 69.5012C49.1854 69.5012 47.8246 68.115 47.8246 66.8053C47.8246 66.402 47.9549 66.0216 48.1846 65.6897C48.5497 65.1612 48.828 64.5741 48.9888 63.9511C49.1088 63.4737 48.7284 63.0142 48.2382 63.0142H44.373V46.2516C44.373 45.4015 45.0598 44.7122 45.9099 44.7122H58.478C59.3282 44.7122 60.0175 45.4014 60.0175 46.2516V51.2349C60.0175 51.7276 59.5554 52.108 59.0806 51.9855C58.524 51.8451 57.9981 51.6051 57.5156 51.2988C57.4569 51.2605 57.3981 51.2222 57.342 51.1839C57.0101 50.9541 56.6298 50.8239 56.2264 50.8239C54.9167 50.8239 53.5305 52.1846 53.5305 53.8644V53.8644Z" fill="#F3C165"/>
<path d="M60.0002 63.0142V69.9123C60.0002 70.405 59.5406 70.7854 59.0632 70.6628C58.6241 70.5505 58.2003 70.3769 57.8046 70.1522C57.9578 69.4017 58.0395 68.6205 58.0395 67.824C58.0395 66.1058 57.6642 64.4771 56.9902 63.0142H60.0002Z" fill="#FFCD70"/>
<path d="M59.9999 75.1687V81.3162H45.8923C45.0447 81.3162 44.3555 80.6295 44.3555 79.7793V79.1488C45.055 79.2815 45.7749 79.3505 46.5127 79.3505C50.0051 79.3505 53.1325 77.7983 55.2463 75.3475C55.5578 75.4955 55.8845 75.5797 56.2088 75.5797C56.6147 75.5797 56.9951 75.4496 57.3269 75.2224C57.3856 75.1815 57.4419 75.1432 57.5031 75.1075C57.983 74.7986 58.509 74.5586 59.0629 74.4182C59.5404 74.2956 59.9999 74.676 59.9999 75.1687V75.1687Z" fill="#FFCD70"/>
<path d="M60.0177 46.2516V51.235C60.0177 51.7277 59.5556 52.108 59.0808 51.9855C58.5242 51.8451 57.9983 51.6052 57.5158 51.2988C57.4852 51.2784 57.4545 51.258 57.4239 51.2375C57.429 51.0588 57.4316 50.8776 57.4316 50.6963C57.4316 48.5876 57.1303 46.5682 56.584 44.7122H58.4783C59.3284 44.7122 60.0177 45.4015 60.0177 46.2516V46.2516Z" fill="#C99541"/>
<path d="M60.0192 56.4914V63.0142H53.4938C53.3968 63.0142 53.305 63.0321 53.2207 63.0653C54.6554 61.3803 55.7966 59.269 56.5242 56.882H56.5268C56.8178 56.8335 57.096 56.7161 57.3437 56.545C57.3998 56.5067 57.4586 56.4684 57.5173 56.4302C57.9998 56.1212 58.5257 55.8838 59.0823 55.7409C59.5571 55.6209 60.0192 55.9987 60.0192 56.4914Z" fill="#C99541"/>
<path d="M78.3002 64.5536V79.7794C78.3002 80.6295 77.6109 81.3162 76.7633 81.3162H59.9981V75.1688C59.9981 74.676 59.5386 74.2957 59.0612 74.4182C58.4383 74.5765 57.8537 74.8573 57.3252 75.2224C56.9933 75.4496 56.613 75.5798 56.207 75.5798C54.8999 75.5798 53.5137 74.2191 53.5137 72.5418C53.5137 70.8619 54.8999 69.5012 56.207 69.5012C56.613 69.5012 56.9933 69.6314 57.3252 69.8586C57.8537 70.2237 58.4383 70.5046 59.0612 70.6628C59.5386 70.7854 59.9981 70.405 59.9981 69.9122V63.0142H67.3481C67.8408 63.0142 68.2186 63.4738 68.0986 63.9512C67.9378 64.5741 67.6595 65.1612 67.2944 65.6897C67.0647 66.0216 66.9345 66.402 66.9345 66.8053C66.9345 68.115 68.2952 69.5012 69.975 69.5012C71.6549 69.5012 73.0156 68.115 73.0156 66.8053C73.0156 66.402 72.8854 66.0216 72.6556 65.6897C72.2906 65.1612 72.0123 64.5741 71.8515 63.9512C71.7314 63.4738 72.1119 63.0142 72.602 63.0142H76.7633C77.6109 63.0142 78.3002 63.7035 78.3002 64.5536V64.5536Z" fill="#C99541"/>
<path d="M78.302 64.5536V79.7794C78.302 80.6295 77.6127 81.3162 76.7651 81.3162H60V79.2356C69.3463 77.4894 76.155 72.1002 76.155 65.7229C76.155 64.7962 76.012 63.8899 75.7337 63.0142H76.7651C77.6127 63.0142 78.302 63.7035 78.302 64.5536V64.5536Z" fill="#F3C165"/>
<path d="M59.9993 81.7H43.2348C42.1759 81.7 41.3145 80.8386 41.3145 79.7796V63.0151C41.3145 62.8037 41.4859 62.6322 41.6974 62.6322C41.9089 62.6322 42.0803 62.8037 42.0803 63.0151V79.7796C42.0803 80.4162 42.5982 80.9341 43.2348 80.9341H59.9993C60.2108 80.9341 60.3823 81.1056 60.3823 81.3171C60.3823 81.5285 60.2108 81.7 59.9993 81.7Z" fill="#661751"/>
<path d="M50.8639 69.8831C48.9046 69.8831 47.4405 68.2585 47.4405 66.8059C47.4405 66.3382 47.5883 65.8766 47.8679 65.4711C48.2213 64.9587 48.4728 64.4156 48.6155 63.8571C48.6522 63.7134 48.5895 63.6042 48.5489 63.5519C48.473 63.4541 48.3589 63.3981 48.2359 63.3981H41.713C41.5015 63.3981 41.3301 63.2266 41.3301 63.0151V46.2506C41.3301 45.1917 42.1916 44.3302 43.2505 44.3302H58.4775C59.5364 44.3302 60.3978 45.1917 60.3978 46.2506V51.2361C60.3978 51.5974 60.2339 51.9319 59.9479 52.154C59.6707 52.3693 59.3193 52.4436 58.9834 52.3578C58.3368 52.1925 57.7113 51.9035 57.1242 51.4987C56.8432 51.3049 56.5404 51.2066 56.2242 51.2066C55.1553 51.2066 53.9129 52.3675 53.9129 53.8642C53.9129 55.3608 55.1553 56.5217 56.2242 56.5217C56.5404 56.5217 56.8433 56.4234 57.1242 56.2296C57.7113 55.8248 58.3369 55.5358 58.9834 55.3706C59.3188 55.2848 59.6707 55.359 59.9479 55.5743C60.2339 55.7963 60.3978 56.1309 60.3978 56.4921V63.0151C60.3978 63.2266 60.2264 63.3981 60.0149 63.3981H53.4919C53.369 63.3981 53.2549 63.4542 53.179 63.5519C53.1384 63.6042 53.0757 63.7134 53.1124 63.8571C53.2551 64.4157 53.5066 64.9588 53.8599 65.4711C54.1395 65.8765 54.2873 66.3381 54.2873 66.8059C54.2873 68.2585 52.8233 69.8831 50.8639 69.8831V69.8831ZM42.0959 62.6322H48.2359C48.5972 62.6322 48.9317 62.7962 49.1537 63.0821C49.3691 63.3593 49.4433 63.7109 49.3575 64.0467C49.1923 64.6932 48.9033 65.3187 48.4984 65.9059C48.3046 66.1869 48.2064 66.4897 48.2064 66.8059C48.2064 67.8748 49.3673 69.1172 50.8639 69.1172C52.3605 69.1172 53.5215 67.8748 53.5215 66.8059C53.5215 66.4897 53.4232 66.1869 53.2294 65.9059C52.8246 65.3188 52.5356 64.6933 52.3703 64.0467C52.2845 63.711 52.3588 63.3594 52.574 63.0822C52.7961 62.7962 53.1307 62.6322 53.4919 62.6322H59.6319V56.4921C59.6319 56.3692 59.5758 56.2551 59.4781 56.1792C59.4258 56.1385 59.3167 56.0759 59.1729 56.1126C58.6144 56.2553 58.0713 56.5068 57.559 56.8601C57.1535 57.1397 56.6919 57.2875 56.2242 57.2875C54.7716 57.2875 53.147 55.8235 53.147 53.8642C53.147 51.9048 54.7716 50.4407 56.2242 50.4407C56.6919 50.4407 57.1535 50.5885 57.559 50.8682C58.0713 51.2214 58.6143 51.473 59.1729 51.6157C59.3167 51.6525 59.4258 51.5898 59.4781 51.5491C59.5758 51.4732 59.6319 51.3591 59.6319 51.2362V46.2506C59.6319 45.614 59.114 45.0961 58.4775 45.0961H43.2504C42.6138 45.0961 42.0959 45.614 42.0959 46.2506V62.6322H42.0959Z" fill="#661751"/>
<path d="M76.7633 81.7H59.9988C59.7873 81.7 59.6158 81.5286 59.6158 81.3171V75.1686C59.6158 75.0456 59.5597 74.9316 59.462 74.8556C59.4096 74.815 59.3005 74.7523 59.1568 74.789C58.5982 74.9317 58.0553 75.1832 57.5429 75.5366C57.1374 75.8162 56.6758 75.964 56.2079 75.964C54.7554 75.964 53.1309 74.4999 53.1309 72.5406C53.1309 70.5812 54.7554 69.1172 56.2079 69.1172C56.6757 69.1172 57.1373 69.265 57.5428 69.5445C58.0552 69.8979 58.5982 70.1494 59.1568 70.2921C59.3005 70.3289 59.4097 70.2662 59.462 70.2255C59.5597 70.1496 59.6158 70.0355 59.6158 69.9126V63.0151C59.6158 62.8037 59.7873 62.6322 59.9988 62.6322H67.3475C67.7087 62.6322 68.0433 62.7962 68.2654 63.0822C68.4806 63.3594 68.5549 63.711 68.4691 64.0467C68.3039 64.6931 68.0149 65.3186 67.61 65.9058C67.4162 66.1869 67.3179 66.4897 67.3179 66.8059C67.3179 67.8748 68.4788 69.1172 69.9755 69.1172C71.4721 69.1172 72.633 67.8748 72.633 66.8059C72.633 66.4897 72.5347 66.1869 72.341 65.9058C71.9361 65.3187 71.6471 64.6932 71.4818 64.0467C71.396 63.711 71.4703 63.3594 71.6855 63.0822C71.9076 62.7962 72.2422 62.6322 72.6034 62.6322H76.7632C77.8221 62.6322 78.6836 63.4937 78.6836 64.5526V79.7797C78.6836 80.8386 77.8221 81.7 76.7633 81.7V81.7ZM60.3817 80.9341H76.7633C77.3999 80.9341 77.9177 80.4162 77.9177 79.7796V64.5526C77.9177 63.916 77.3999 63.3981 76.7633 63.3981H72.6035C72.4805 63.3981 72.3664 63.4542 72.2905 63.5519C72.2499 63.6042 72.1872 63.7134 72.2239 63.8571C72.3667 64.4156 72.6182 64.9587 72.9715 65.4711C73.2511 65.8766 73.3989 66.3382 73.3989 66.8059C73.3989 68.2585 71.9349 69.8831 69.9755 69.8831C68.0161 69.8831 66.552 68.2585 66.552 66.8059C66.552 66.3381 66.6999 65.8765 66.9795 65.4711C67.3328 64.9586 67.5843 64.4156 67.727 63.8571C67.7637 63.7134 67.701 63.6042 67.6604 63.5519C67.5845 63.4542 67.4704 63.3981 67.3475 63.3981H60.3817V69.9126C60.3817 70.2738 60.2177 70.6084 59.9317 70.8304C59.6545 71.0457 59.3031 71.12 58.9672 71.0342C58.3206 70.869 57.6952 70.5799 57.108 70.1751C56.827 69.9813 56.5241 69.8831 56.2079 69.8831C55.1391 69.8831 53.8967 71.0439 53.8967 72.5406C53.8967 74.0372 55.1391 75.1981 56.2079 75.1981C56.5242 75.1981 56.8271 75.0998 57.108 74.9061C57.6952 74.5012 58.3207 74.2122 58.9672 74.047C59.3027 73.9612 59.6545 74.0354 59.9317 74.2507C60.2177 74.4728 60.3817 74.8074 60.3817 75.1686V80.9341H60.3817Z" fill="#661751"/>
<path d="M69.8882 54.4269C69.2228 54.4269 68.6832 53.8874 68.6832 53.222V51.1713C68.6832 49.3983 69.6902 47.7622 71.2487 47.0023C72.3674 46.4572 73.0531 45.3006 72.9955 44.0553C72.9228 42.4689 71.6229 41.169 70.0367 41.096C69.1786 41.0569 68.3603 41.3611 67.7398 41.9535C67.1189 42.5463 66.777 43.3455 66.777 44.2036C66.777 44.869 66.2375 45.4085 65.5721 45.4085C64.9067 45.4085 64.3672 44.869 64.3672 44.2036C64.3672 42.6807 64.9738 41.2628 66.0754 40.2108C67.1765 39.1592 68.6229 38.6214 70.1473 38.6885C72.9652 38.8182 75.2735 41.1269 75.403 43.9445C75.5047 46.151 74.2884 48.202 72.3045 49.1686C71.5688 49.5272 71.0931 50.3135 71.0931 51.1713V53.222C71.0931 53.8874 70.5536 54.4269 69.8882 54.4269V54.4269Z" fill="white"/>
<path d="M70.9982 59.6641C71.6156 59.0468 71.6156 58.0458 70.9982 57.4284C70.3808 56.811 69.3798 56.811 68.7624 57.4284C68.145 58.0458 68.145 59.0468 68.7624 59.6641C69.3798 60.2815 70.3808 60.2815 70.9982 59.6641Z" fill="white"/>
<path d="M69.8882 54.4269C69.2228 54.4269 68.6832 53.8874 68.6832 53.222V51.1713C68.6832 49.3983 69.6902 47.7622 71.2487 47.0023C72.3674 46.4572 73.0531 45.3006 72.9955 44.0553C72.9228 42.4689 71.6229 41.169 70.0367 41.096C69.1786 41.0569 68.3603 41.3611 67.7398 41.9535C67.1189 42.5463 66.777 43.3455 66.777 44.2036C66.777 44.869 66.2375 45.4085 65.5721 45.4085C64.9067 45.4085 64.3672 44.869 64.3672 44.2036C64.3672 42.6807 64.9738 41.2628 66.0754 40.2108C67.1765 39.1592 68.6229 38.6214 70.1473 38.6885C72.9652 38.8182 75.2735 41.1269 75.403 43.9445C75.5047 46.151 74.2884 48.202 72.3045 49.1686C71.5688 49.5272 71.0931 50.3135 71.0931 51.1713V53.222C71.0931 53.8874 70.5536 54.4269 69.8882 54.4269V54.4269Z" fill="#FF8A8A"/>
<path d="M70.9982 59.6641C71.6156 59.0468 71.6156 58.0458 70.9982 57.4284C70.3808 56.811 69.3798 56.811 68.7624 57.4284C68.145 58.0458 68.145 59.0468 68.7624 59.6641C69.3798 60.2815 70.3808 60.2815 70.9982 59.6641Z" fill="#FF8A8A"/>
<path d="M69.8883 54.8099C69.0128 54.8099 68.3005 54.0976 68.3005 53.222V51.1713C68.3005 49.2532 69.3919 47.4817 71.0809 46.6582C72.0623 46.18 72.6636 45.1653 72.6131 44.0731C72.5493 42.6821 71.41 41.5425 70.0192 41.4786C69.263 41.444 68.5482 41.7112 68.0044 42.2305C67.4599 42.7502 67.1601 43.4509 67.1601 44.2036C67.1601 45.0792 66.4478 45.7915 65.5722 45.7915C64.6967 45.7915 63.9844 45.0792 63.9844 44.2036C63.9844 42.5751 64.6331 41.0587 65.8111 39.9339C66.9854 38.8123 68.5303 38.234 70.1643 38.306C73.1784 38.4448 75.6472 40.9137 75.7856 43.9269C75.8945 46.2865 74.5939 48.4791 72.4723 49.5129C71.8672 49.8078 71.4762 50.4588 71.4762 51.1713V53.222C71.4762 54.0976 70.7638 54.8099 69.8883 54.8099V54.8099ZM69.8886 40.7097C69.9436 40.7097 69.9988 40.711 70.0543 40.7135C71.8365 40.7954 73.2965 42.2557 73.3781 44.0378C73.4428 45.4356 72.6728 46.7345 71.4165 47.3466C69.9888 48.0427 69.0663 49.544 69.0663 51.1713V53.222C69.0663 53.6753 69.435 54.044 69.8883 54.044C70.3415 54.044 70.7103 53.6753 70.7103 53.222V51.1713C70.7103 50.168 71.2702 49.2468 72.1368 48.8244C73.9833 47.9247 75.1153 46.0161 75.0205 43.9621C74.9001 41.3402 72.7519 39.1918 70.1298 39.0711C68.7087 39.0083 67.362 39.5117 66.3401 40.4878C65.3148 41.4667 64.7503 42.7864 64.7503 44.2036C64.7503 44.6569 65.119 45.0256 65.5722 45.0256C66.0255 45.0256 66.3942 44.6569 66.3942 44.2036C66.3942 43.2396 66.7782 42.3421 67.4755 41.6765C68.1321 41.0496 68.9836 40.7097 69.8886 40.7097V40.7097Z" fill="#661751"/>
<path d="M69.888 60.5092C68.805 60.5092 67.9238 59.6281 67.9238 58.5451C67.9238 57.4621 68.805 56.581 69.888 56.581C70.971 56.581 71.852 57.4621 71.852 58.5451C71.852 59.6281 70.971 60.5092 69.888 60.5092ZM69.888 57.3469C69.2272 57.3469 68.6897 57.8844 68.6897 58.5451C68.6897 59.2058 69.2272 59.7433 69.888 59.7433C70.5486 59.7433 71.0861 59.2058 71.0861 58.5451C71.0861 57.8844 70.5486 57.3469 69.888 57.3469Z" fill="#661751"/>
<circle cx="60" cy="60" r="59.25" stroke="url(#paint0_linear_4536_84)" stroke-width="1.5"/>
<defs>
<linearGradient id="paint0_linear_4536_84" x1="-2.40281e-06" y1="120" x2="120.548" y2="119.447" gradientUnits="userSpaceOnUse">
<stop stop-color="#CA9342"/>
<stop offset="0.331885" stop-color="#D3A347"/>
<stop offset="0.711985" stop-color="#D8AF53"/>
<stop offset="1" stop-color="#E0BF62"/>
</linearGradient>
</defs>
</svg>
