<svg width="120" height="120" viewBox="0 0 120 120" fill="none" xmlns="http://www.w3.org/2000/svg">
<path d="M82.0806 75.7812C82.0498 75.8073 82.0117 75.8234 81.9714 75.8274C81.9312 75.8314 81.8907 75.8231 81.8552 75.8036C81.8198 75.7841 81.7911 75.7543 81.773 75.7181C81.7549 75.6819 81.7481 75.6411 81.7537 75.6011L81.8432 74.9416C81.8177 74.9767 81.7815 75.0025 81.7401 75.0152C81.6987 75.0279 81.6543 75.0268 81.6135 75.0121C81.5728 74.9974 81.538 74.9698 81.5143 74.9335C81.4905 74.8973 81.4793 74.8543 81.4821 74.8111L81.5234 74.1968L81.452 74.3928C81.4363 74.4361 81.4061 74.4726 81.3665 74.4961C81.327 74.5197 81.2805 74.5289 81.2349 74.5221C81.1894 74.5154 81.1476 74.4931 81.1166 74.4591C81.0855 74.4251 81.0672 74.3814 81.0647 74.3354L81.0171 73.4884L80.8224 74.0243C80.807 74.0665 80.7778 74.1022 80.7396 74.1258C80.7014 74.1494 80.6563 74.1594 80.6116 74.1542C80.567 74.149 80.5254 74.129 80.4936 74.0973C80.4618 74.0655 80.4416 74.024 80.4363 73.9794L80.344 73.1855L80.0815 73.9067C80.0661 73.949 80.0369 73.9849 79.9985 74.0085C79.9602 74.0321 79.9149 74.0421 79.8702 74.0368C79.8255 74.0315 79.7838 74.0113 79.7521 73.9793C79.7203 73.9474 79.7002 73.9057 79.6951 73.8609L79.6175 73.169L79.2756 74.104C79.2591 74.1492 79.2269 74.187 79.1848 74.2103C79.1428 74.2337 79.0937 74.2411 79.0466 74.2312C78.9995 74.2213 78.9576 74.1947 78.9285 74.1563C78.8994 74.118 78.8852 74.0704 78.8884 74.0224L78.9056 73.7675L78.5874 74.6412C78.5678 74.6889 78.5305 74.7271 78.4834 74.7479C78.4362 74.7687 78.3828 74.7705 78.3344 74.7529C78.286 74.7353 78.2462 74.6997 78.2234 74.6534C78.2006 74.6072 78.1966 74.554 78.2121 74.5048L79.012 72.3075C79.0287 72.2625 79.0609 72.225 79.1029 72.2018C79.1449 72.1787 79.1939 72.1714 79.2408 72.1813C79.2877 72.1912 79.3295 72.2177 79.3586 72.2559C79.3876 72.2941 79.4019 72.3415 79.3989 72.3893L79.3818 72.6437L79.5311 72.2341C79.5465 72.1918 79.5757 72.1559 79.6141 72.1322C79.6524 72.1086 79.6976 72.0986 79.7424 72.1039C79.7871 72.1092 79.8287 72.1295 79.8605 72.1614C79.8923 72.1933 79.9124 72.2351 79.9174 72.2798L79.9951 72.9717L80.255 72.258C80.2704 72.2158 80.2995 72.18 80.3378 72.1564C80.376 72.1328 80.4211 72.1228 80.4657 72.128C80.5104 72.1332 80.5519 72.1533 80.5838 72.185C80.6156 72.2167 80.6358 72.2582 80.6411 72.3028L80.7331 73.0964L80.9729 72.4377C80.9885 72.3942 81.0186 72.3575 81.0582 72.3338C81.0978 72.3101 81.1444 72.3008 81.1901 72.3076C81.2357 72.3143 81.2777 72.3366 81.3087 72.3708C81.3398 72.4049 81.3581 72.4488 81.3605 72.4949L81.4075 73.3424L81.6234 72.7491C81.6398 72.7039 81.672 72.6661 81.714 72.6427C81.756 72.6193 81.805 72.6119 81.8521 72.6217C81.8991 72.6316 81.9411 72.658 81.9702 72.6963C81.9993 72.7346 82.0137 72.782 82.0106 72.83L81.9706 73.4433L82.0971 73.0966C82.1144 73.0511 82.1478 73.0135 82.1909 72.9909C82.234 72.9682 82.2839 72.9621 82.3312 72.9737C82.3785 72.9852 82.42 73.0137 82.4478 73.0536C82.4756 73.0936 82.4879 73.1424 82.4823 73.1907L82.3976 73.8148L82.5058 73.5154C82.514 73.4897 82.5272 73.4659 82.5448 73.4454C82.5623 73.425 82.5838 73.4083 82.608 73.3964C82.6322 73.3845 82.6585 73.3776 82.6854 73.3761C82.7123 73.3746 82.7393 73.3786 82.7646 73.3878C82.7899 73.397 82.8131 73.4112 82.8328 73.4297C82.8525 73.4481 82.8683 73.4703 82.8792 73.4949C82.8901 73.5196 82.8958 73.5462 82.8962 73.5731C82.8965 73.6001 82.8914 73.6268 82.8811 73.6517L82.1379 75.6945C82.1268 75.7279 82.107 75.7578 82.0806 75.7812Z" fill="#E2AC4D"/>
<path d="M78.5276 79.3285C78.4983 79.3532 78.4625 79.3689 78.4244 79.3738C78.3864 79.3787 78.3477 79.3725 78.3131 79.356C78.2785 79.3395 78.2493 79.3134 78.2291 79.2808C78.2089 79.2482 78.1985 79.2104 78.1992 79.1721L78.2116 78.353L78.1314 78.5727C78.1151 78.6173 78.0835 78.6547 78.0422 78.6782C78.0008 78.7016 77.9525 78.7096 77.9058 78.7006C77.8592 78.6916 77.8173 78.6663 77.7876 78.6292C77.7579 78.5922 77.7424 78.5457 77.7438 78.4982L77.7709 77.6308L77.5113 78.3442C77.4938 78.3916 77.459 78.4306 77.414 78.4533C77.3689 78.4761 77.3169 78.481 77.2684 78.4669C77.2199 78.4529 77.1785 78.4211 77.1525 78.3778C77.1266 78.3345 77.1179 78.283 77.1284 78.2336L77.737 75.4465L76.558 78.6898C76.5498 78.7155 76.5366 78.7393 76.519 78.7597C76.5015 78.7802 76.48 78.7968 76.4558 78.8087C76.4316 78.8207 76.4053 78.8276 76.3784 78.829C76.3514 78.8305 76.3245 78.8265 76.2992 78.8173C76.2739 78.8081 76.2506 78.7939 76.231 78.7755C76.2113 78.7571 76.1955 78.7349 76.1846 78.7102C76.1737 78.6856 76.168 78.659 76.1676 78.632C76.1673 78.6051 76.1724 78.5783 76.1827 78.5534L78.3843 72.5034C78.4018 72.456 78.4366 72.4171 78.4817 72.3943C78.5267 72.3715 78.5788 72.3667 78.6273 72.3807C78.6758 72.3947 78.7172 72.4266 78.7431 72.4699C78.7691 72.5132 78.7777 72.5647 78.7673 72.6141L77.985 76.1922C78.0055 76.189 78.0264 76.1891 78.0468 76.1925C78.0935 76.2014 78.1355 76.2267 78.1652 76.2639C78.195 76.301 78.2105 76.3475 78.209 76.395L78.1826 77.264L78.2411 77.1037C78.2573 77.0594 78.2887 77.0222 78.3297 76.9988C78.3707 76.9753 78.4186 76.9672 78.465 76.9757C78.5115 76.9843 78.5534 77.009 78.5833 77.0455C78.6133 77.0819 78.6293 77.1278 78.6287 77.175L78.6171 77.995L78.7816 77.5439C78.7898 77.5182 78.803 77.4944 78.8206 77.474C78.8381 77.4535 78.8597 77.4368 78.8838 77.4249C78.908 77.413 78.9343 77.4061 78.9613 77.4046C78.9882 77.4032 79.0151 77.4071 79.0404 77.4163C79.0658 77.4256 79.089 77.4398 79.1087 77.4582C79.1283 77.4766 79.1441 77.4988 79.155 77.5234C79.1659 77.5481 79.1717 77.5747 79.172 77.6017C79.1723 77.6286 79.1672 77.6553 79.157 77.6803L78.5877 79.2447C78.5756 79.2775 78.5548 79.3064 78.5276 79.3285Z" fill="#E2AC4D"/>
<path d="M78.7907 82.0037C78.7583 82.0309 78.7182 82.0471 78.6761 82.0501C78.6339 82.0531 78.5919 82.0426 78.5561 82.0202C78.5202 81.9978 78.4924 81.9647 78.4766 81.9255C78.4608 81.8863 78.4579 81.8431 78.4681 81.8021L78.5363 81.5326L78.3024 82.1723C78.2859 82.2172 78.2538 82.2546 78.212 82.2779C78.1703 82.3011 78.1215 82.3086 78.0747 82.299C78.0278 82.2894 77.986 82.2633 77.9568 82.2254C77.9275 82.1876 77.9128 82.1405 77.9153 82.0927L77.9483 81.522L77.662 82.3095C77.647 82.351 77.6187 82.3864 77.5814 82.4101C77.5442 82.4339 77.5001 82.4446 77.4561 82.4406C77.4121 82.4366 77.3707 82.4182 77.3383 82.3882C77.3059 82.3581 77.2843 82.3182 77.277 82.2746L77.1438 81.4854L76.8594 82.2656C76.8439 82.308 76.8144 82.344 76.7759 82.3676C76.7374 82.3911 76.692 82.4009 76.6471 82.3954C76.6023 82.3899 76.5607 82.3693 76.529 82.3371C76.4974 82.3048 76.4776 82.2628 76.4729 82.2179L76.3834 81.3539L76.1433 82.0129C76.1261 82.0562 76.0943 82.092 76.0534 82.1144C76.0125 82.1367 75.9651 82.144 75.9194 82.1351C75.8737 82.1262 75.8325 82.1016 75.803 82.0656C75.7735 82.0295 75.7575 81.9843 75.7578 81.9377L75.7911 81.0155L75.5726 81.6163C75.5538 81.664 75.5173 81.7027 75.4707 81.7242C75.4241 81.7458 75.371 81.7486 75.3225 81.7321C75.2739 81.7156 75.2335 81.681 75.2097 81.6356C75.1859 81.5901 75.1805 81.5372 75.1946 81.4879L75.3203 81.0887L75.2513 81.2781C75.234 81.3252 75.1996 81.364 75.155 81.387C75.1103 81.4099 75.0587 81.4152 75.0104 81.4018C74.9621 81.3884 74.9205 81.3573 74.894 81.3148C74.8675 81.2722 74.858 81.2212 74.8674 81.1719L75.1301 79.8255L74.8481 80.5974C74.8307 80.6443 74.7964 80.6829 74.752 80.7057C74.7076 80.7285 74.6562 80.7339 74.608 80.7207C74.5598 80.7075 74.5183 80.6767 74.4917 80.6345C74.4651 80.5922 74.4552 80.5415 74.4641 80.4923L74.5727 79.9129C74.5407 79.9333 74.5037 79.9442 74.4658 79.9444C74.4279 79.9445 74.3907 79.9339 74.3587 79.9137C74.3266 79.8935 74.3009 79.8646 74.2846 79.8304C74.2683 79.7962 74.2621 79.7581 74.2667 79.7205L74.2787 79.6217C74.2536 79.6545 74.2189 79.6788 74.1794 79.6911C74.1399 79.7035 74.0975 79.7032 74.0582 79.6904C74.0188 79.6777 73.9844 79.653 73.9596 79.6198C73.9349 79.5866 73.9211 79.5465 73.9201 79.5052L73.9149 79.04L73.7521 79.4896C73.7358 79.5347 73.7037 79.5724 73.6619 79.5959C73.62 79.6193 73.5712 79.6269 73.5242 79.6173C73.4772 79.6077 73.4352 79.5815 73.4059 79.5435C73.3767 79.5055 73.362 79.4582 73.3647 79.4103L73.3745 79.1596L73.305 79.3498C73.2886 79.3958 73.2558 79.4342 73.213 79.4577C73.1702 79.4812 73.1202 79.4882 73.0726 79.4773C73.0249 79.4665 72.9829 79.4386 72.9544 79.3988C72.926 79.3591 72.9131 79.3104 72.9181 79.2618L72.9227 79.2156C72.9023 79.2529 72.8705 79.2826 72.832 79.3006C72.7935 79.3186 72.7503 79.3238 72.7086 79.3155C72.6621 79.3057 72.6207 79.2796 72.5917 79.242C72.5627 79.2043 72.5481 79.1576 72.5504 79.1102L72.5765 78.5618L72.4564 78.8906C72.4394 78.9357 72.4067 78.9732 72.3642 78.996C72.3218 79.0189 72.2725 79.0257 72.2254 79.0151C72.1784 79.0044 72.1368 78.9772 72.1083 78.9383C72.0798 78.8994 72.0663 78.8515 72.0703 78.8035L72.1314 78.1376L72.0021 78.4928C71.9844 78.5408 71.9489 78.5802 71.903 78.6028C71.8571 78.6254 71.8043 78.6295 71.7554 78.6143C71.7065 78.5991 71.6654 78.5658 71.6404 78.5211C71.6154 78.4765 71.6084 78.424 71.621 78.3744L72.0958 76.5433L71.5761 77.9665C71.5585 78.0139 71.5236 78.0529 71.4783 78.0756C71.4331 78.0983 71.3809 78.103 71.3323 78.0887C71.2838 78.0744 71.2424 78.0422 71.2167 77.9986C71.191 77.955 71.1827 77.9033 71.1936 77.8539L71.6179 76.0036L71.1903 77.1784C71.1734 77.2244 71.1401 77.2626 71.0968 77.2857C71.0536 77.3088 71.0033 77.3151 70.9557 77.3036C70.908 77.292 70.8663 77.2633 70.8384 77.223C70.8105 77.1826 70.7984 77.1334 70.8045 77.0848L70.9839 75.682C70.9533 75.7171 70.9114 75.7404 70.8654 75.7479C70.8194 75.7553 70.7723 75.7465 70.7321 75.7229C70.692 75.6993 70.6613 75.6624 70.6454 75.6186C70.6296 75.5748 70.6295 75.5269 70.6453 75.483L71.2166 73.9143C71.2335 73.8682 71.2668 73.83 71.3101 73.807C71.3533 73.7839 71.4036 73.7775 71.4513 73.7891C71.4989 73.8006 71.5407 73.8293 71.5685 73.8697C71.5964 73.91 71.6085 73.9592 71.6025 74.0079L71.4313 75.3515L72.349 72.8295C72.3666 72.782 72.4015 72.743 72.4468 72.7203C72.492 72.6976 72.5442 72.693 72.5928 72.7073C72.6413 72.7216 72.6826 72.7538 72.7084 72.7974C72.7341 72.8409 72.7424 72.8927 72.7315 72.9421L72.3051 74.7967L73.1512 72.473C73.169 72.425 73.2045 72.3857 73.2504 72.363C73.2963 72.3404 73.3491 72.3363 73.398 72.3515C73.4468 72.3667 73.488 72.4 73.513 72.4447C73.538 72.4893 73.5449 72.5419 73.5324 72.5915L72.5367 76.4301C72.5786 76.4449 72.6145 76.4734 72.6384 76.511C72.6624 76.5485 72.6731 76.593 72.6689 76.6374L72.6078 77.3032L72.6499 77.1886C72.6664 77.1441 72.6984 77.1069 72.7399 77.0837C72.7814 77.0606 72.8298 77.053 72.8764 77.0624C72.923 77.0717 72.9648 77.0973 72.9942 77.1347C73.0236 77.1721 73.0387 77.2187 73.0368 77.2662L73.0106 77.8157L73.0975 77.5779C73.114 77.5319 73.1467 77.4935 73.1896 77.47C73.2324 77.4465 73.2824 77.4395 73.33 77.4503C73.3776 77.4612 73.4197 77.4891 73.4481 77.5288C73.4766 77.5685 73.4895 77.6173 73.4844 77.6659L73.4795 77.7222C73.5015 77.6884 73.5332 77.662 73.5703 77.6464C73.6075 77.6307 73.6485 77.6265 73.688 77.6344C73.735 77.6439 73.777 77.67 73.8064 77.7079C73.8357 77.7459 73.8504 77.7931 73.8478 77.841L73.8342 78.0877L73.91 77.879C73.926 77.8351 73.9569 77.7981 73.9973 77.7746C74.0377 77.7511 74.0851 77.7425 74.1312 77.7503C74.1774 77.758 74.2194 77.7817 74.2499 77.8173C74.2804 77.8528 74.2974 77.8979 74.2981 77.9447L74.3043 78.4117L74.5 77.8745C74.5164 77.8279 74.5496 77.789 74.593 77.7655C74.6365 77.7419 74.6871 77.7353 74.7351 77.7468C74.7832 77.7584 74.8252 77.7874 74.8532 77.8282C74.8811 77.8689 74.893 77.9186 74.8864 77.9676L74.8781 78.0267L74.986 77.7306C75.0031 77.6834 75.0373 77.6444 75.0819 77.6213C75.1265 77.5982 75.1781 77.5927 75.2265 77.6059C75.2749 77.6191 75.3166 77.6501 75.3432 77.6926C75.3699 77.7351 75.3796 77.7861 75.3703 77.8354L75.307 78.1703L75.628 77.2895C75.6453 77.2422 75.6797 77.2033 75.7244 77.1803C75.7691 77.1573 75.8209 77.152 75.8693 77.1655C75.9177 77.179 75.9593 77.2102 75.9857 77.253C76.0121 77.2957 76.0215 77.3469 76.0119 77.3962L75.748 78.7425L78.0858 72.32C78.1046 72.2723 78.1411 72.2336 78.1877 72.2121C78.2343 72.1905 78.2873 72.1877 78.3359 72.2042C78.3845 72.2207 78.4249 72.2553 78.4487 72.3007C78.4725 72.3462 78.4779 72.3991 78.4638 72.4484L76.1958 79.6387C76.2232 79.6751 76.2371 79.7198 76.2353 79.7653L76.2021 80.6889L76.3074 80.4003C76.3229 80.3578 76.3523 80.3219 76.3908 80.2983C76.4293 80.2748 76.4747 80.2649 76.5196 80.2705C76.5644 80.276 76.606 80.2966 76.6377 80.3288C76.6693 80.3611 76.6891 80.4031 76.6938 80.448L76.7816 81.3093L77.0262 80.6371C77.0413 80.5956 77.0696 80.5603 77.1068 80.5366C77.1441 80.5129 77.1881 80.5022 77.232 80.5061C77.276 80.5101 77.3175 80.5285 77.3499 80.5585C77.3823 80.5884 77.4039 80.6283 77.4113 80.6719L77.545 81.4618L78.0397 80.1076C78.056 80.0625 78.088 80.0248 78.1299 80.0013C78.1717 79.9779 78.2206 79.9703 78.2676 79.9799C78.3146 79.9895 78.3565 80.0157 78.3858 80.0537C78.4151 80.0917 78.4297 80.139 78.4271 80.1869L78.3938 80.7584L79.4775 77.7814C79.4947 77.7328 79.5299 77.6928 79.5759 77.6696C79.6219 77.6464 79.6751 77.6418 79.7244 77.6569C79.7737 77.672 79.8152 77.7055 79.8404 77.7505C79.8655 77.7954 79.8723 77.8484 79.8594 77.8982L79.7916 78.1638L79.926 77.7948C79.941 77.7525 79.9698 77.7165 80.0078 77.6926C80.0458 77.6686 80.0907 77.6582 80.1354 77.6629C80.18 77.6676 80.2218 77.6873 80.2539 77.7186C80.286 77.75 80.3067 77.7912 80.3125 77.8358L80.4202 78.5859L80.812 77.5095C80.8283 77.4644 80.8603 77.4268 80.9022 77.4033C80.944 77.3799 80.9929 77.3723 81.0399 77.3819C81.0868 77.3915 81.1288 77.4176 81.1582 77.4555C81.1875 77.4935 81.2022 77.5407 81.1996 77.5885L81.1793 77.9604L82.7019 73.7772C82.7198 73.7295 82.7552 73.6904 82.801 73.6679C82.8468 73.6455 82.8994 73.6413 82.9481 73.6564C82.9968 73.6715 83.0379 73.7046 83.063 73.7489C83.0881 73.7933 83.0953 73.8456 83.0831 73.8951L82.7644 75.1382L83.0387 74.3863C83.0558 74.34 83.0895 74.3017 83.1332 74.2788C83.1768 74.2558 83.2275 74.2498 83.2753 74.262C83.3231 74.2741 83.3647 74.3035 83.3922 74.3445C83.4196 74.3855 83.4309 74.4353 83.4239 74.4841L83.1648 76.2234L83.3239 75.7832C83.3422 75.7337 83.3794 75.6935 83.4273 75.6714C83.4752 75.6492 83.53 75.6469 83.5795 75.665C83.6291 75.683 83.6696 75.7199 83.692 75.7677C83.7145 75.8154 83.7171 75.8701 83.6994 75.9198L82.8626 78.218C82.8453 78.2639 82.8116 78.3018 82.7681 78.3245C82.7246 78.3472 82.6742 78.3531 82.6266 78.3411C82.579 78.329 82.5376 78.2999 82.5101 78.2592C82.4826 78.2185 82.4711 78.1691 82.4777 78.1205L82.7386 76.3796L81.7476 79.1009C81.7298 79.1486 81.6943 79.1878 81.6485 79.2102C81.6028 79.2327 81.5501 79.2368 81.5014 79.2217C81.4527 79.2067 81.4116 79.1736 81.3865 79.1292C81.3614 79.0848 81.3542 79.0325 81.3664 78.983L81.682 77.7436L81.0943 79.3569C81.0778 79.4018 81.0458 79.4392 81.004 79.4625C80.9623 79.4858 80.9136 79.4933 80.8668 79.4837C80.82 79.4742 80.7781 79.4482 80.7489 79.4104C80.7196 79.3727 80.7048 79.3257 80.7072 79.278L80.7269 78.9061L80.5227 79.4666C80.5073 79.5082 80.4785 79.5434 80.4409 79.5668C80.4033 79.5901 80.359 79.6004 80.3149 79.5958C80.2709 79.5913 80.2296 79.5723 80.1975 79.5417C80.1654 79.5111 80.1444 79.4708 80.1378 79.427L80.0301 78.6769L78.8513 81.9204C78.8388 81.9531 78.8179 81.9818 78.7907 82.0037Z" fill="#E2AC4D"/>
<path d="M76.51 76.1845C76.4775 76.2118 76.4372 76.228 76.3949 76.2308C76.3526 76.2336 76.3105 76.2229 76.2747 76.2002C76.2388 76.1775 76.2112 76.1441 76.1956 76.1046C76.1801 76.0651 76.1775 76.0218 76.1883 75.9807L76.9275 73.164L76.2733 74.9604C76.2548 75.0074 76.2192 75.0458 76.1736 75.0676C76.128 75.0895 76.0758 75.0933 76.0276 75.0782C75.9793 75.0631 75.9386 75.0303 75.9136 74.9863C75.8885 74.9424 75.8811 74.8906 75.8928 74.8414L76.8721 71.1282L75.6974 74.3574C75.6816 74.4006 75.6514 74.4371 75.6119 74.4607C75.5723 74.4842 75.5258 74.4934 75.4803 74.4867C75.4347 74.4799 75.3929 74.4576 75.3619 74.4236C75.3309 74.3896 75.3126 74.3459 75.3101 74.2999L75.2678 73.5314L75.072 74.0697C75.0559 74.1143 75.0243 74.1517 74.9831 74.1752C74.9419 74.1987 74.8936 74.2068 74.847 74.1979C74.8004 74.1891 74.7584 74.164 74.7286 74.1271C74.6989 74.0901 74.6832 74.0438 74.6844 73.9964L74.6932 73.6499L74.5647 74.0029C74.549 74.0464 74.5188 74.083 74.4792 74.1067C74.4395 74.1304 74.3929 74.1396 74.3472 74.1328C74.3016 74.126 74.2597 74.1036 74.2287 74.0694C74.1976 74.0352 74.1794 73.9913 74.1771 73.9452L74.1479 73.3806L73.8778 74.1233C73.862 74.1667 73.8317 74.2033 73.7919 74.2269C73.7521 74.2504 73.7054 74.2595 73.6597 74.2525C73.6141 74.2455 73.5722 74.2228 73.5413 74.1884C73.5105 74.154 73.4925 74.11 73.4904 74.0638L73.4648 73.4812L73.0052 74.7397C72.997 74.7654 72.9838 74.7892 72.9662 74.8096C72.9487 74.8301 72.9272 74.8467 72.903 74.8587C72.8788 74.8706 72.8525 74.8775 72.8256 74.879C72.7987 74.8804 72.7717 74.8764 72.7464 74.8672C72.7211 74.858 72.6979 74.8438 72.6782 74.8254C72.6585 74.807 72.6427 74.7848 72.6318 74.7601C72.6209 74.7355 72.6152 74.7089 72.6148 74.6819C72.6145 74.655 72.6196 74.6282 72.6299 74.6033L73.4313 72.4011C73.4474 72.358 73.4778 72.3217 73.5174 72.2984C73.5571 72.2752 73.6035 72.2662 73.649 72.2732C73.6944 72.2802 73.736 72.3026 73.7669 72.3367C73.7977 72.3708 73.8158 72.4145 73.8182 72.4604L73.8444 73.0426L74.108 72.319C74.1239 72.2759 74.1542 72.2396 74.1937 72.2162C74.2332 72.1928 74.2796 72.1837 74.325 72.1905C74.3704 72.1972 74.4121 72.2194 74.4431 72.2534C74.4741 72.2873 74.4924 72.3308 74.495 72.3767L74.5242 72.9418L74.7347 72.3639C74.7509 72.3193 74.7824 72.2819 74.8237 72.2584C74.8649 72.2349 74.9131 72.2269 74.9598 72.2357C75.0064 72.2445 75.0483 72.2696 75.0781 72.3065C75.1079 72.3435 75.1236 72.3898 75.1224 72.4372L75.1134 72.7834L75.225 72.4769C75.2406 72.4334 75.2708 72.3967 75.3104 72.373C75.35 72.3493 75.3966 72.34 75.4422 72.3467C75.4879 72.3535 75.5298 72.3758 75.5609 72.41C75.5919 72.4441 75.6102 72.4879 75.6126 72.534L75.6549 73.3026L77.9922 66.8795C78.0102 66.8317 78.0458 66.7927 78.0917 66.7703C78.1375 66.748 78.1902 66.7441 78.2389 66.7593C78.2876 66.7746 78.3286 66.8078 78.3535 66.8524C78.3785 66.8969 78.3854 66.9492 78.373 66.9987L77.3947 70.7126L78.0292 68.9692C78.0468 68.921 78.0823 68.8813 78.1284 68.8586C78.1744 68.8358 78.2275 68.8316 78.2765 68.8469C78.3256 68.8623 78.3668 68.8959 78.3917 68.9408C78.4167 68.9857 78.4233 69.0385 78.4103 69.0883L77.6707 71.9027L78.0599 70.8332C78.0783 70.7838 78.1155 70.7436 78.1634 70.7214C78.2113 70.6993 78.266 70.697 78.3156 70.715C78.3652 70.7331 78.4056 70.77 78.4281 70.8178C78.4505 70.8655 78.4532 70.9202 78.4355 70.9699L76.5693 76.0998C76.5575 76.1328 76.537 76.1621 76.51 76.1845Z" fill="#E2AC4D"/>
<path d="M83.1074 61.0027C83.0786 61.027 83.0435 61.0425 83.0061 61.0477C82.9688 61.0528 82.9308 61.0473 82.8965 61.0317C82.8622 61.0162 82.8329 60.9912 82.8122 60.9598C82.7914 60.9283 82.78 60.8917 82.7792 60.854L82.7675 60.329L82.4841 61.1105C82.468 61.1543 82.437 61.1911 82.3965 61.2145C82.356 61.2379 82.3087 61.2463 82.2626 61.2384C82.2166 61.2304 82.1748 61.2066 82.1445 61.171C82.1142 61.1355 82.0973 61.0904 82.0967 61.0437L82.0904 60.2116L81.7559 61.1293C81.7399 61.1734 81.7089 61.2104 81.6683 61.2339C81.6278 61.2574 81.5802 61.2659 81.534 61.2579C81.4879 61.2499 81.446 61.2259 81.4157 61.1901C81.3854 61.1544 81.3686 61.1091 81.3683 61.0622L81.3642 60.2309L81.0311 61.1459C81.0144 61.1909 80.9822 61.2284 80.9402 61.2516C80.8982 61.2748 80.8492 61.2821 80.8023 61.2722C80.7553 61.2622 80.7135 61.2357 80.6845 61.1976C80.6555 61.1594 80.6412 61.112 80.6442 61.0641L80.6815 60.5173L80.4475 61.1592C80.4296 61.204 80.3961 61.2408 80.3532 61.2629C80.3102 61.2849 80.2608 61.2907 80.214 61.2791C80.1672 61.2675 80.1261 61.2394 80.0984 61.2C80.0706 61.1605 80.0581 61.1123 80.0631 61.0643L80.0727 60.9974L80.0093 61.1706C79.9918 61.2158 79.9584 61.2531 79.9153 61.2756C79.8723 61.298 79.8225 61.304 79.7754 61.2924C79.7282 61.2809 79.6869 61.2526 79.6591 61.2128C79.6313 61.173 79.619 61.1244 79.6244 61.0762L79.6413 60.9576L79.5594 61.1828C79.5431 61.2279 79.5111 61.2656 79.4693 61.289C79.4276 61.3125 79.3787 61.3202 79.3318 61.3106C79.2848 61.3011 79.2428 61.275 79.2135 61.2371C79.1842 61.1992 79.1694 61.152 79.172 61.1041L79.2049 60.4712L78.9406 61.1971C78.923 61.2412 78.8903 61.2776 78.8483 61.2998C78.8063 61.3219 78.7578 61.3284 78.7115 61.3181C78.6651 61.3078 78.624 61.2813 78.5954 61.2433C78.5668 61.2054 78.5527 61.1586 78.5555 61.1112L78.5954 60.6222L78.3816 61.2086C78.3619 61.2562 78.3247 61.2945 78.2775 61.3153C78.2303 61.3361 78.177 61.3379 78.1285 61.3203C78.0801 61.3027 78.0403 61.267 78.0175 61.2208C77.9948 61.1746 77.9907 61.1213 78.0063 61.0722L78.7278 59.0893C78.7454 59.0452 78.7781 59.0088 78.8201 58.9866C78.8621 58.9645 78.9106 58.958 78.957 58.9683C79.0033 58.9786 79.0445 59.0051 79.073 59.0431C79.1016 59.081 79.1158 59.1278 79.1129 59.1752L79.0729 59.6654L79.2857 59.0814C79.302 59.0364 79.3339 58.9987 79.3757 58.9752C79.4174 58.9517 79.4662 58.944 79.5131 58.9535C79.5601 58.963 79.602 58.989 79.6314 59.0268C79.6608 59.0646 79.6756 59.1117 79.6732 59.1596L79.6405 59.7922L79.9031 59.071C79.9206 59.0258 79.954 58.9884 79.9971 58.966C80.0401 58.9436 80.0898 58.9376 80.137 58.9491C80.1841 58.9607 80.2255 58.989 80.2532 59.0288C80.281 59.0686 80.2934 59.1172 80.288 59.1654L80.2708 59.2842L80.3524 59.0618C80.3703 59.017 80.4038 58.9802 80.4467 58.9582C80.4896 58.9362 80.539 58.9304 80.5859 58.942C80.6327 58.9535 80.6738 58.9816 80.7015 59.0211C80.7292 59.0606 80.7417 59.1088 80.7367 59.1567L80.7276 59.2223L80.7889 59.0535C80.8053 59.0083 80.8375 58.9705 80.8796 58.9471C80.9217 58.9237 80.9707 58.9163 81.0178 58.9262C81.0649 58.9362 81.1069 58.9627 81.1359 59.0011C81.165 59.0394 81.1792 59.087 81.1761 59.135L81.1389 59.6827L81.3703 59.0419C81.3863 58.9979 81.4173 58.9609 81.4579 58.9374C81.4985 58.9139 81.546 58.9054 81.5922 58.9134C81.6384 58.9214 81.6803 58.9454 81.7106 58.9811C81.7409 59.0169 81.7576 59.0622 81.7579 59.109L81.7618 59.9406L82.0933 59.03C82.1095 58.9862 82.1405 58.9494 82.181 58.926C82.2214 58.9026 82.2688 58.8942 82.3148 58.9021C82.3609 58.9101 82.4027 58.9339 82.433 58.9695C82.4633 59.005 82.4802 59.0501 82.4807 59.0968L82.4869 59.9311L82.7548 59.1934C82.7708 59.1498 82.8016 59.1131 82.8417 59.0897C82.8819 59.0663 82.9289 59.0576 82.9748 59.0652C83.0207 59.0727 83.0625 59.096 83.093 59.131C83.1235 59.1661 83.1409 59.2106 83.1421 59.2571L83.1585 59.9357C83.1943 59.9183 83.2345 59.9119 83.2739 59.9175C83.3133 59.923 83.3502 59.9402 83.3798 59.9669C83.4093 59.9935 83.4303 60.0284 83.4399 60.067C83.4496 60.1056 83.4474 60.1462 83.4339 60.1836L83.1665 60.9177C83.1548 60.9508 83.1344 60.9802 83.1074 61.0027Z" fill="#E2AC4D"/>
<path d="M82.7714 57.5691C82.7419 57.5939 82.7058 57.6096 82.6676 57.6144C82.6294 57.6192 82.5906 57.6128 82.5559 57.596C82.5212 57.5793 82.4921 57.5528 82.4721 57.5199C82.4521 57.487 82.442 57.449 82.4431 57.4105L82.4599 56.7907L82.1903 57.5314C82.174 57.576 82.1424 57.6134 82.1011 57.6368C82.0597 57.6603 82.0114 57.6682 81.9648 57.6593C81.9181 57.6503 81.8762 57.625 81.8465 57.5879C81.8168 57.5508 81.8013 57.5044 81.8027 57.4569L81.8244 56.7484L81.5356 57.547C81.5199 57.5908 81.4895 57.6277 81.4495 57.6515C81.4095 57.6752 81.3625 57.6843 81.3165 57.6771C81.2706 57.67 81.2286 57.647 81.1978 57.6122C81.1669 57.5773 81.1492 57.5329 81.1477 57.4864L81.112 56.5516L80.7427 57.5653C80.726 57.6104 80.6936 57.648 80.6515 57.6711C80.6093 57.6942 80.5602 57.7014 80.5132 57.6912C80.4662 57.6811 80.4244 57.6543 80.3955 57.6158C80.3666 57.5774 80.3526 57.5298 80.356 57.4818L80.3937 56.9671L80.1713 57.5788C80.1557 57.6226 80.1252 57.6596 80.0853 57.6833C80.0453 57.7071 79.9983 57.7162 79.9523 57.709C79.9064 57.7018 79.8644 57.6788 79.8335 57.644C79.8027 57.6092 79.785 57.5647 79.7834 57.5182L79.7476 56.5758L79.3747 57.5957C79.3582 57.6409 79.3259 57.6787 79.2838 57.7021C79.2417 57.7254 79.1926 57.7328 79.1454 57.7228C79.0983 57.7128 79.0564 57.6861 79.0274 57.6477C78.9984 57.6092 78.9842 57.5616 78.9875 57.5136L79.0255 56.9532L78.7865 57.6092C78.7696 57.6552 78.7363 57.6934 78.6931 57.7165C78.6498 57.7396 78.5995 57.7459 78.5519 57.7344C78.5042 57.7228 78.4625 57.6941 78.4346 57.6538C78.4067 57.6134 78.3946 57.5642 78.4007 57.5156L78.4254 57.3211L78.3172 57.6206C78.309 57.6463 78.2958 57.6701 78.2782 57.6905C78.2607 57.711 78.2392 57.7276 78.215 57.7396C78.1908 57.7515 78.1645 57.7584 78.1376 57.7599C78.1106 57.7613 78.0837 57.7573 78.0584 57.7481C78.033 57.7389 78.0098 57.7247 77.9902 57.7063C77.9705 57.6879 77.9547 57.6657 77.9438 57.641C77.9329 57.6164 77.9272 57.5898 77.9268 57.5628C77.9265 57.5359 77.9316 57.5091 77.9419 57.4842L78.6637 55.5011C78.6807 55.4551 78.7139 55.4169 78.7572 55.3938C78.8005 55.3707 78.8507 55.3644 78.8984 55.3759C78.946 55.3875 78.9878 55.4162 79.0157 55.4565C79.0436 55.4969 79.0556 55.546 79.0496 55.5947L79.0247 55.7889L79.1337 55.4929C79.1503 55.4479 79.1826 55.4103 79.2246 55.3872C79.2666 55.364 79.3155 55.3567 79.3625 55.3666C79.4094 55.3765 79.4512 55.403 79.4802 55.4412C79.5093 55.4794 79.5236 55.5268 79.5206 55.5746L79.4831 56.1356L79.721 55.4827C79.7369 55.4392 79.7673 55.4027 79.8072 55.3792C79.847 55.3557 79.8938 55.3468 79.9395 55.3539C79.9852 55.3611 80.027 55.3838 80.0578 55.4184C80.0886 55.4529 80.1064 55.497 80.1083 55.5432L80.1429 56.4841L80.5132 55.468C80.5299 55.4229 80.5623 55.3853 80.6045 55.3622C80.6466 55.3391 80.6957 55.3319 80.7427 55.3421C80.7898 55.3522 80.8315 55.379 80.8604 55.4174C80.8893 55.4559 80.9033 55.5035 80.8999 55.5515L80.862 56.0659L81.0825 55.4582C81.0983 55.4146 81.1287 55.3779 81.1686 55.3542C81.2085 55.3306 81.2554 55.3216 81.3012 55.3287C81.347 55.3358 81.3889 55.3587 81.4198 55.3933C81.4506 55.4279 81.4684 55.4722 81.4702 55.5185L81.5055 56.4541L81.8729 55.4451C81.8892 55.4005 81.9208 55.3631 81.9621 55.3396C82.0034 55.3162 82.0518 55.3083 82.0984 55.3172C82.1451 55.3262 82.187 55.3515 82.2167 55.3886C82.2464 55.4257 82.2619 55.4721 82.2605 55.5196L82.2392 56.2261L82.5051 55.4959C82.5213 55.4513 82.5529 55.4139 82.5941 55.3904C82.6354 55.3669 82.6837 55.3589 82.7303 55.3678C82.777 55.3767 82.8189 55.4019 82.8487 55.4389C82.8784 55.476 82.894 55.5223 82.8927 55.5698L82.8758 56.1902L82.9539 55.976C82.962 55.9503 82.9752 55.9265 82.9928 55.9061C83.0104 55.8856 83.0319 55.869 83.056 55.857C83.0802 55.8451 83.1066 55.8382 83.1335 55.8368C83.1604 55.8353 83.1873 55.8393 83.2126 55.8485C83.238 55.8577 83.2612 55.8719 83.2809 55.8903C83.3006 55.9087 83.3163 55.9309 83.3272 55.9556C83.3381 55.9802 83.3439 56.0068 83.3442 56.0338C83.3445 56.0607 83.3394 56.0875 83.3292 56.1124L82.8299 57.4835C82.8185 57.5168 82.7982 57.5464 82.7714 57.5691Z" fill="#E2AC4D"/>
<path d="M76.0579 72.6225C76.0251 72.65 75.9844 72.6663 75.9417 72.669C75.899 72.6717 75.8566 72.6606 75.8207 72.6373C75.7847 72.6141 75.7572 72.5799 75.7422 72.5399C75.7271 72.4998 75.7253 72.456 75.737 72.4148L76.3916 70.1277L76.09 70.9546C76.0724 71.0034 76.0364 71.0434 75.9898 71.0662C75.9432 71.0889 75.8896 71.0927 75.8402 71.0766C75.7909 71.0605 75.7498 71.0259 75.7255 70.9801C75.7013 70.9342 75.6958 70.8807 75.7102 70.8309L76.251 68.9684L76.0647 69.4801C76.0462 69.528 76.0099 69.5669 75.9635 69.5887C75.917 69.6106 75.8639 69.6138 75.8152 69.5975C75.7665 69.5813 75.7259 69.5469 75.7018 69.5016C75.6777 69.4562 75.6721 69.4033 75.686 69.3539L75.9845 68.3641C75.9516 68.3915 75.9107 68.4077 75.868 68.4102C75.8252 68.4126 75.7828 68.4013 75.7469 68.3778C75.7111 68.3543 75.6838 68.32 75.6689 68.2798C75.6541 68.2396 75.6526 68.1957 75.6647 68.1546L76.5764 65.036L76.016 66.5773C75.9983 66.6262 75.9622 66.6663 75.9154 66.6891C75.8687 66.7118 75.8149 66.7154 75.7655 66.6991C75.7161 66.6828 75.675 66.6479 75.6509 66.6018C75.6269 66.5557 75.6217 66.5021 75.6366 66.4522L76.0598 65.0129L75.9911 65.201C75.9726 65.2489 75.9364 65.2878 75.8899 65.3096C75.8434 65.3315 75.7903 65.3347 75.7416 65.3184C75.6929 65.3022 75.6523 65.2678 75.6282 65.2225C75.6042 65.1771 75.5985 65.1242 75.6124 65.0748L76.4016 62.4712L75.9658 63.6685C75.9478 63.717 75.9118 63.7565 75.8652 63.779C75.8187 63.8014 75.7652 63.8049 75.7161 63.7888C75.667 63.7727 75.6261 63.7382 75.6019 63.6926C75.5777 63.6469 75.5721 63.5936 75.5863 63.544L76.1779 61.5256L75.9417 62.1767C75.9232 62.224 75.8874 62.2625 75.8416 62.2843C75.7958 62.3062 75.7434 62.3098 75.695 62.2944C75.6466 62.279 75.6059 62.2458 75.5812 62.2015C75.5564 62.1572 75.5494 62.1051 75.5616 62.0558L76.3937 59.0208L75.9107 60.3485C75.8928 60.3962 75.8574 60.4353 75.8116 60.4578C75.7659 60.4803 75.7132 60.4844 75.6645 60.4693C75.6158 60.4543 75.5747 60.4211 75.5496 60.3768C75.5245 60.3324 75.5173 60.2801 75.5295 60.2306L76.191 57.6376L75.8779 58.4988C75.8602 58.5465 75.8249 58.5857 75.7792 58.6083C75.7335 58.6309 75.681 58.6352 75.6322 58.6204C75.5835 58.6055 75.5423 58.5725 75.517 58.5283C75.4918 58.484 75.4844 58.4318 75.4963 58.3823L75.8122 57.1129C75.7884 57.1388 75.7582 57.158 75.7246 57.1685C75.691 57.179 75.6552 57.1805 75.6209 57.1727C75.5734 57.1619 75.5315 57.1342 75.503 57.0946C75.4746 57.0551 75.4615 57.0065 75.4663 56.9581L75.6512 55.0749C75.6176 55.0784 75.5837 55.0732 75.5526 55.0599C75.5215 55.0467 75.4943 55.0257 75.4735 54.9991C75.4527 54.9724 75.439 54.9409 75.4337 54.9076C75.4283 54.8742 75.4316 54.84 75.4431 54.8082L75.7731 53.9052C75.7896 53.8592 75.8224 53.8208 75.8652 53.7973C75.908 53.7738 75.958 53.7668 76.0056 53.7776C76.0533 53.7885 76.0953 53.8164 76.1237 53.8561C76.1522 53.8958 76.1651 53.9446 76.1601 53.9932L76.0175 55.425L76.7018 53.5464C76.7196 53.4986 76.7549 53.4595 76.8006 53.4369C76.8462 53.4143 76.8988 53.41 76.9475 53.4248C76.9963 53.4397 77.0375 53.4726 77.0627 53.5169C77.088 53.5612 77.0954 53.6134 77.0834 53.6629L76.8023 54.791L77.2003 53.699C77.2182 53.6512 77.2536 53.6121 77.2994 53.5896C77.3451 53.5672 77.3978 53.563 77.4465 53.5781C77.4952 53.5932 77.5363 53.6263 77.5614 53.6707C77.5865 53.715 77.5937 53.7673 77.5815 53.8168L76.9184 56.4116L77.6978 54.2707C77.7158 54.2227 77.7515 54.1835 77.7977 54.1611C77.8438 54.1387 77.8967 54.1349 77.9456 54.1505C77.9944 54.166 78.0354 54.1998 78.0601 54.2447C78.0848 54.2897 78.0912 54.3424 78.0781 54.3919L77.245 57.4257L77.9414 55.513C77.96 55.4655 77.9961 55.4269 78.0423 55.4051C78.0885 55.3833 78.1412 55.38 78.1898 55.3959C78.2383 55.4118 78.2789 55.4457 78.3032 55.4906C78.3275 55.5355 78.3338 55.5879 78.3206 55.6373L77.7278 57.6598L78.514 55.5021C78.5317 55.4531 78.5679 55.4128 78.6149 55.3901C78.6618 55.3673 78.7158 55.3638 78.7653 55.3803C78.8148 55.3969 78.8559 55.4321 78.8797 55.4785C78.9036 55.5249 78.9084 55.5788 78.893 55.6286L77.9418 58.7679C77.9753 58.7421 78.0161 58.7276 78.0583 58.7265C78.1006 58.7254 78.1421 58.7376 78.1769 58.7616C78.2117 58.7855 78.238 58.8199 78.2521 58.8597C78.2661 58.8996 78.2672 58.9429 78.2551 58.9834L77.8287 60.4306L78.3159 59.0925C78.3345 59.045 78.3706 59.0063 78.4168 58.9846C78.463 58.9628 78.5157 58.9595 78.5643 58.9754C78.6128 58.9913 78.6534 59.0252 78.6777 59.07C78.702 59.1149 78.7083 59.1674 78.6951 59.2167L77.7839 62.3334L77.9106 61.987C77.9292 61.9391 77.9654 61.9002 78.0119 61.8783C78.0584 61.8565 78.1115 61.8533 78.1602 61.8695C78.2089 61.8858 78.2495 61.9201 78.2736 61.9655C78.2976 62.0109 78.3033 62.0638 78.2894 62.1132L77.9894 63.1043C78.0222 63.0769 78.063 63.0608 78.1057 63.0583C78.1484 63.0559 78.1907 63.0671 78.2265 63.0905C78.2623 63.1139 78.2897 63.1482 78.3046 63.1883C78.3195 63.2284 78.3211 63.2722 78.3092 63.3132L77.7684 65.1757L77.9547 64.6641C77.9726 64.6157 78.0086 64.5762 78.055 64.5537C78.1014 64.5312 78.1547 64.5275 78.2038 64.5434C78.2528 64.5593 78.2938 64.5936 78.3182 64.639C78.3426 64.6845 78.3485 64.7376 78.3346 64.7873L77.6803 67.0742L77.9819 66.2472C78.0003 66.1977 78.0375 66.1575 78.0854 66.1354C78.1333 66.1133 78.188 66.111 78.2376 66.129C78.2872 66.147 78.3276 66.184 78.3501 66.2317C78.3725 66.2795 78.3752 66.3342 78.3575 66.3839L76.1172 72.5377C76.1053 72.5708 76.0848 72.6 76.0579 72.6225Z" fill="#E2AC4D"/>
<path d="M78.4714 68.8395C78.4377 68.8675 78.3957 68.8838 78.3519 68.8856C78.3081 68.8874 78.2648 68.8748 78.2289 68.8497C78.193 68.8245 78.1663 68.7882 78.153 68.7464C78.1397 68.7046 78.1406 68.6596 78.1554 68.6183L78.6239 67.33C78.632 67.3043 78.6453 67.2805 78.6628 67.26C78.6804 67.2396 78.7019 67.2229 78.7261 67.211C78.7503 67.1991 78.7766 67.1922 78.8035 67.1907C78.8304 67.1892 78.8573 67.1932 78.8827 67.2024C78.908 67.2116 78.9312 67.2259 78.9509 67.2443C78.9706 67.2627 78.9863 67.2849 78.9972 67.3095C79.0081 67.3342 79.0139 67.3608 79.0142 67.3877C79.0146 67.4147 79.0095 67.4414 78.9992 67.4663L78.5307 68.7547C78.5188 68.7877 78.4984 68.817 78.4714 68.8395Z" fill="#C99541"/>
<path d="M78.7601 70.3441C78.7312 70.3683 78.696 70.3839 78.6587 70.389C78.6213 70.3941 78.5832 70.3885 78.5489 70.3729C78.5146 70.3573 78.4854 70.3323 78.4647 70.3008C78.444 70.2692 78.4326 70.2325 78.4319 70.1948L78.4259 69.8768L78.2496 70.3618C78.2323 70.4093 78.1976 70.4484 78.1526 70.4713C78.1076 70.4943 78.0556 70.4993 78.0071 70.4855C77.9585 70.4716 77.917 70.4399 77.8909 70.3967C77.8647 70.3535 77.8559 70.302 77.8662 70.2526L77.9187 69.9998L77.784 70.3691C77.7666 70.4163 77.732 70.4553 77.6871 70.4782C77.6422 70.501 77.5904 70.5061 77.5419 70.4923C77.4934 70.4786 77.452 70.4471 77.4258 70.404C77.3996 70.361 77.3906 70.3097 77.4006 70.2603L77.5023 69.7685L77.2803 70.3775C77.2634 70.4229 77.2307 70.4606 77.1881 70.4837C77.1455 70.5068 77.096 70.5136 77.0488 70.5029C77.0016 70.4922 76.9598 70.4647 76.9313 70.4256C76.9028 70.3864 76.8895 70.3383 76.8939 70.29L77.0482 68.682L76.4236 70.3924C76.4063 70.438 76.3729 70.4756 76.3298 70.4982C76.2867 70.5208 76.2368 70.527 76.1895 70.5154C76.1421 70.5038 76.1007 70.4754 76.0729 70.4354C76.0451 70.3955 76.0328 70.3467 76.0384 70.2983L76.2172 68.9483L75.7156 70.3265C75.7005 70.3687 75.6716 70.4046 75.6337 70.4284C75.5957 70.4521 75.5509 70.4625 75.5063 70.4578C75.4618 70.453 75.4201 70.4334 75.3881 70.4022C75.356 70.3709 75.3353 70.3298 75.3294 70.2854L75.2554 69.7668C75.23 69.8092 75.1899 69.8407 75.1428 69.8553C75.0956 69.8698 75.0447 69.8664 74.9999 69.8457C74.9551 69.8249 74.9196 69.7884 74.9001 69.743C74.8807 69.6976 74.8787 69.6467 74.8946 69.5999L75.1549 68.8848C75.1701 68.8427 75.1989 68.8068 75.2369 68.783C75.2748 68.7592 75.3197 68.7489 75.3642 68.7536C75.4088 68.7584 75.4504 68.7779 75.4825 68.8092C75.5146 68.8405 75.5352 68.8816 75.5411 68.926L75.6137 69.439L76.4707 67.0853C76.488 67.0398 76.5214 67.0022 76.5645 66.9796C76.6076 66.9569 76.6575 66.9508 76.7048 66.9624C76.7522 66.9739 76.7936 67.0024 76.8214 67.0423C76.8493 67.0823 76.8615 67.1311 76.8559 67.1795L76.6768 68.5298L77.2071 67.0726C77.224 67.0272 77.2567 66.9894 77.2993 66.9664C77.3419 66.9433 77.3914 66.9365 77.4386 66.9472C77.4858 66.9578 77.5276 66.9853 77.5561 67.0245C77.5846 67.0636 77.5979 67.1118 77.5935 67.16L77.4391 68.7698L78.0607 67.0633C78.0777 67.0158 78.112 66.9765 78.1568 66.9533C78.2015 66.9301 78.2534 66.9246 78.302 66.938C78.3507 66.9515 78.3925 66.983 78.4189 67.026C78.4454 67.0691 78.4545 67.1205 78.4446 67.1701L78.3424 67.6638L78.5051 67.2174C78.522 67.1693 78.5566 67.1295 78.6019 67.1061C78.6471 67.0828 78.6996 67.0775 78.7485 67.0915C78.7975 67.1055 78.8393 67.1377 78.8653 67.1814C78.8914 67.2252 78.8998 67.2772 78.8887 67.3269L78.6191 68.6055C78.6243 68.606 78.6294 68.6067 78.6345 68.6077C78.6805 68.6153 78.7223 68.6388 78.7528 68.674C78.7833 68.7092 78.8005 68.7539 78.8015 68.8005L78.8082 69.1262C78.8337 69.084 78.8738 69.0528 78.9208 69.0384C78.9679 69.024 79.0186 69.0275 79.0633 69.0482C79.1079 69.0689 79.1434 69.1054 79.1628 69.1506C79.1823 69.1958 79.1843 69.2466 79.1686 69.2933L78.819 70.2607C78.8071 70.2932 78.7867 70.322 78.7601 70.3441Z" fill="#C99541"/>
<path d="M75.5548 68.7772C75.5268 68.8007 75.4929 68.816 75.4568 68.8215C75.4206 68.8271 75.3837 68.8226 75.3499 68.8086C75.3161 68.7946 75.2869 68.7716 75.2653 68.7421C75.2437 68.7126 75.2306 68.6777 75.2274 68.6413L75.1902 68.2239C75.1623 68.2466 75.1293 68.2621 75.094 68.2689C75.0587 68.2758 75.0222 68.2738 74.9879 68.2632C74.9382 68.2451 74.8977 68.208 74.8753 68.1601C74.8529 68.1122 74.8504 68.0574 74.8684 68.0076L75.128 67.2936C75.1436 67.2509 75.1733 67.2148 75.2122 67.1913C75.2511 67.1678 75.2968 67.1582 75.3419 67.1642C75.3869 67.1701 75.4286 67.1913 75.4601 67.2241C75.4915 67.2569 75.5108 67.2995 75.5148 67.3448L75.5462 67.7086L75.7686 67.0989C75.7882 67.0512 75.8255 67.013 75.8727 66.9922C75.9198 66.9713 75.9732 66.9696 76.0216 66.9872C76.0701 67.0048 76.1099 67.0404 76.1326 67.0866C76.1554 67.1329 76.1595 67.1861 76.1439 67.2353L75.613 68.6929C75.6014 68.7257 75.5813 68.7548 75.5548 68.7772Z" fill="#C99541"/>
<path d="M70.6065 76.0201C70.5369 78.0512 72.2019 79.1725 73.8681 79.7398C74.7752 80.8209 75.2375 82.5079 77.0038 82.495C79.4408 82.6853 79.4825 80.3473 81.0609 79.5118C85.4028 77.9518 83.9266 71.3707 79.3147 72.0835C79.4908 72.0328 78.4828 72.2598 78.4267 72.4764C78.3671 71.8089 78.3702 71.1373 78.4359 70.4704C78.6278 70.4318 78.804 70.3375 78.9426 70.1993C79.0812 70.0611 79.176 69.8851 79.2151 69.6934C79.2542 69.5016 79.2359 69.3026 79.1626 69.1211C79.0892 68.9397 78.964 68.7839 78.8025 68.6733C78.9558 68.5629 79.073 68.4098 79.1397 68.2332C79.2063 68.0565 79.2192 67.8641 79.177 67.6801C79.1347 67.496 79.039 67.3286 78.902 67.1987C78.765 67.0688 78.5927 66.9822 78.4067 66.9498C78.4476 65.0935 78.2009 63.1573 78.3359 61.3223C79.3696 61.3063 84.9126 62.0233 83.2924 59.3451C82.0002 58.1713 79.8426 59.2561 78.2565 58.8923C78.28 58.5534 78.1664 57.9766 78.2823 57.8095C79.6349 57.3074 83.3176 58.665 83.4092 56.5258C83.269 54.2956 79.6491 55.6113 78.193 55.3582C78.328 54.4665 77.8915 53.5185 76.9445 53.3797C76.7514 53.3555 76.5553 53.3726 76.3693 53.4299C76.1833 53.4873 76.0116 53.5835 75.8656 53.7122C75.7197 53.8409 75.6027 53.9992 75.5225 54.1765C75.4424 54.3539 75.4009 54.5462 75.4007 54.7409L75.6126 67.0112C74.7801 67.1426 74.5266 68.428 75.2927 68.8C75.1274 68.905 74.9989 69.059 74.9252 69.2405C74.8514 69.422 74.8361 69.622 74.8812 69.8126C74.9264 70.0032 75.0299 70.175 75.1772 70.3041C75.3245 70.4332 75.5085 70.5132 75.7034 70.5329C75.7937 71.1973 75.8201 71.8687 75.7821 72.5381C73.4885 71.0818 70.4479 73.4908 70.6065 76.0201ZM75.8073 54.8599C75.7855 53.6401 77.7204 53.3986 77.7923 54.7016C77.862 55.0334 77.6159 55.676 78.0613 55.7802C84.8959 54.8275 84.4748 58.0681 77.9931 57.3348C77.7262 57.3954 77.7329 59.4074 78.1221 59.3657C78.9224 59.3526 82.984 58.7394 83.0655 59.9968C83.1556 61.3862 78.8275 60.9071 78.0539 60.9203C77.6471 62.6739 78.1125 64.9553 78.0008 66.8777C77.3389 66.8613 76.6767 66.8859 76.0178 66.9513L75.8073 54.8599ZM75.7965 68.9558C75.9561 68.9309 76.2201 68.5764 75.9394 68.5448C75.2049 68.4615 75.3957 67.4541 75.9801 67.3602C76.8298 67.4663 78.44 66.8509 78.7918 67.9299C78.6866 68.2118 77.7195 68.7081 78.1353 68.9128C78.8696 69 78.6836 70.0064 78.0973 70.1004C77.2048 69.9763 74.5472 70.7779 75.7965 68.9558ZM71.4676 74.2092C72.4336 72.6369 74.2737 72.3242 75.8781 72.946C76.3927 72.6185 75.9256 71.1995 76.0537 70.565C76.7802 70.5241 77.3517 70.5574 78.0852 70.53C78.247 71.1711 77.7932 72.5969 78.3641 72.9005C83.5391 70.7546 85.4545 78.5768 79.9994 79.2019C79.5521 82.2272 75.2378 83.3743 74.6116 79.5255C74.6135 79.4702 74.5949 79.4162 74.5594 79.3739C74.5239 79.3315 74.4739 79.3039 74.4192 79.2961C71.9464 79.1584 70.0214 76.5627 71.4676 74.2092Z" fill="#262626"/>
<path d="M76.5482 75.932C76.4952 73.074 72.1257 73.069 72.1939 75.9701C72.233 78.8303 76.5991 78.8324 76.5482 75.932ZM72.5621 75.9992C72.5458 73.7412 76.0464 73.6123 76.1799 75.9029C76.1259 78.1478 72.5799 78.2986 72.5621 75.9992Z" fill="#262626"/>
<path d="M77.1246 78.0646C75.4268 78.2131 75.4646 80.946 77.2198 80.9195C79.0485 80.8939 78.9989 77.8969 77.1246 78.0646ZM76.217 79.47C76.2238 78.1985 78.2046 78.2822 78.2302 79.5103C78.1626 80.754 76.2451 80.7085 76.217 79.47Z" fill="#262626"/>
<path d="M80.0946 78.0397C82.9047 77.8444 82.6822 73.399 79.8051 73.671C76.9838 73.8784 77.2079 78.3014 80.0946 78.0397ZM78.1776 75.8396C78.1424 73.489 81.6979 73.589 81.7211 75.8693C81.7489 78.2241 78.1922 78.1172 78.1789 75.8411L78.1776 75.8396Z" fill="#262626"/>
<path d="M42.123 83.8936C42.0476 83.8936 41.9737 83.8726 41.9096 83.833C41.8454 83.7933 41.7936 83.7366 41.7599 83.6692C41.7261 83.6017 41.7119 83.5262 41.7186 83.4511C41.7254 83.376 41.753 83.3043 41.7982 83.2439L42.6176 82.1638L41.1623 83.0027C41.0801 83.05 40.9839 83.0669 40.8904 83.0507C40.797 83.0344 40.7122 82.986 40.6507 82.9137C40.5893 82.8415 40.555 82.75 40.554 82.6551C40.5529 82.5603 40.5851 82.468 40.645 82.3945L41.8526 80.9131L41.1623 81.3111C41.0926 81.3513 41.0125 81.3698 40.9322 81.3644C40.852 81.359 40.7751 81.3299 40.7114 81.2807C40.6477 81.2316 40.6001 81.1646 40.5745 81.0883C40.5489 81.012 40.5466 80.9298 40.5678 80.8522L40.783 80.0726C40.7164 80.0406 40.6598 79.991 40.6192 79.9291C40.5787 79.8673 40.5558 79.7956 40.5531 79.7217C40.5503 79.6478 40.5678 79.5746 40.6036 79.5099C40.6394 79.4452 40.6922 79.3916 40.7562 79.3547L41.168 79.1175C41.2378 79.077 41.3181 79.0581 41.3986 79.0634C41.4791 79.0687 41.5563 79.0979 41.6202 79.1472C41.6841 79.1966 41.7318 79.2638 41.7573 79.3404C41.7828 79.417 41.7849 79.4994 41.7633 79.5772L41.6147 80.1124L43.3664 79.1013C43.4487 79.0536 43.5451 79.0362 43.6388 79.0523C43.7325 79.0683 43.8177 79.1168 43.8793 79.1892C43.941 79.2616 43.9753 79.3533 43.9763 79.4484C43.9772 79.5435 43.9448 79.636 43.8845 79.7096L42.6769 81.1884L43.956 80.4494C44.0372 80.4028 44.132 80.3856 44.2244 80.4008C44.3167 80.4161 44.401 80.4627 44.4629 80.533C44.5248 80.6032 44.5606 80.6926 44.5641 80.7862C44.5676 80.8797 44.5387 80.9716 44.4823 81.0463L43.6628 82.1313L43.956 81.9624C44.0488 81.9139 44.1568 81.903 44.2574 81.9322C44.358 81.9614 44.4434 82.0283 44.4958 82.119C44.5482 82.2097 44.5636 82.3171 44.5386 82.4188C44.5137 82.5205 44.4505 82.6087 44.3621 82.6649L42.3261 83.8368C42.2647 83.8736 42.1946 83.8933 42.123 83.8936Z" fill="#D1D7DB"/>
<path d="M63.2913 83.8937C63.2167 83.8936 63.1436 83.873 63.0799 83.8341C63.0163 83.7952 62.9646 83.7395 62.9305 83.6731C62.8965 83.6067 62.8813 83.5322 62.8868 83.4578C62.8923 83.3834 62.9182 83.312 62.9616 83.2513L63.8484 82.012L62.2762 82.92C62.1897 82.9675 62.089 82.982 61.9927 82.9607C61.8964 82.9394 61.8111 82.8837 61.7528 82.8042C61.6945 82.7246 61.6672 82.6265 61.6759 82.5283C61.6847 82.4301 61.7289 82.3383 61.8002 82.2703L62.2063 81.9008C62.1386 81.9244 62.0659 81.9297 61.9955 81.9161C61.9251 81.9026 61.8596 81.8706 61.8056 81.8235C61.7515 81.7764 61.7109 81.7158 61.6879 81.648C61.6648 81.5801 61.6602 81.5073 61.6744 81.437L61.9448 80.0979C61.8704 80.0733 61.8047 80.0277 61.7556 79.9666C61.7065 79.9056 61.6761 79.8316 61.6681 79.7536C61.6601 79.6757 61.6749 79.5971 61.7106 79.5273C61.7463 79.4575 61.8014 79.3996 61.8693 79.3604L62.281 79.1233C62.3487 79.0843 62.4262 79.0656 62.5043 79.0695C62.5823 79.0734 62.6575 79.0997 62.721 79.1453C62.7844 79.1909 62.8334 79.2539 62.8619 79.3266C62.8905 79.3993 62.8975 79.4788 62.882 79.5554L62.6481 80.7159L65.0691 79.3182C65.1555 79.2707 65.2562 79.2562 65.3525 79.2775C65.4488 79.2988 65.5341 79.3545 65.5924 79.434C65.6507 79.5136 65.678 79.6117 65.6693 79.7099C65.6605 79.8082 65.6163 79.8999 65.545 79.9679L65.1389 80.3382C65.2144 80.3116 65.296 80.3079 65.3736 80.3276C65.4512 80.3472 65.5213 80.3894 65.575 80.4487C65.6371 80.5174 65.6739 80.6053 65.6792 80.6977C65.6845 80.7902 65.6581 80.8817 65.6042 80.9571L64.715 82.1964L65.0699 81.9925C65.1627 81.944 65.2706 81.9332 65.3712 81.9624C65.4718 81.9915 65.5572 82.0585 65.6096 82.1491C65.6621 82.2398 65.6774 82.3472 65.6525 82.449C65.6276 82.5507 65.5643 82.6388 65.4759 82.695L63.4943 83.8369C63.433 83.8737 63.3629 83.8934 63.2913 83.8937Z" fill="#D1D7DB"/>
<path d="M63.3063 55.484C63.2272 55.4837 63.1499 55.4603 63.0839 55.4168C63.018 55.3732 62.9661 55.3113 62.9348 55.2387C62.9035 55.1661 62.8941 55.0859 62.9077 55.008C62.9213 54.9301 62.9574 54.8579 63.0115 54.8002L63.0927 54.7141L62.2806 55.1843C62.1941 55.2331 62.0928 55.2486 61.9957 55.2278C61.8986 55.2069 61.8125 55.1512 61.7537 55.0712C61.6949 54.9912 61.6674 54.8924 61.6765 54.7935C61.6856 54.6947 61.7306 54.6025 61.803 54.5346L62.2903 54.0847L62.2765 54.0912C62.1902 54.1375 62.0899 54.1511 61.9944 54.1293C61.8988 54.1076 61.8143 54.052 61.7565 53.9728C61.6988 53.8936 61.6715 53.7962 61.6799 53.6986C61.6883 53.6009 61.7318 53.5096 61.8022 53.4415L62.1782 53.1036C62.0928 53.1265 62.0023 53.1208 61.9203 53.0875C61.8384 53.0541 61.7696 52.995 61.7244 52.919C61.6792 52.843 61.66 52.7543 61.6698 52.6664C61.6796 52.5785 61.7178 52.4962 61.7787 52.432L63.0618 51.0774L62.2765 51.5297C62.19 51.5798 62.0881 51.5963 61.9903 51.5759C61.8924 51.5555 61.8055 51.4997 61.7462 51.4193C61.6867 51.3387 61.6592 51.239 61.6687 51.1393C61.6783 51.0396 61.7244 50.947 61.7982 50.8792L62.2798 50.4374C62.194 50.4883 62.0924 50.5058 61.9945 50.4866C61.8966 50.4674 61.8092 50.4129 61.749 50.3334C61.6887 50.2539 61.6599 50.1549 61.6679 50.0555C61.6759 49.9561 61.7203 49.8631 61.7925 49.7942L62.5348 49.0747L62.2773 49.2225C62.1949 49.2696 62.0985 49.2863 62.0049 49.2697C61.9114 49.2531 61.8267 49.2043 61.7654 49.1317C61.7042 49.059 61.6704 48.9673 61.6698 48.8723C61.6693 48.7773 61.7021 48.6851 61.7624 48.6118L63.1098 46.9875L62.1661 47.5325C62.0839 47.5798 61.9878 47.5968 61.8943 47.5807C61.8009 47.5645 61.7161 47.5162 61.6546 47.4441C61.593 47.3719 61.5587 47.2805 61.5575 47.1857C61.5563 47.0909 61.5883 46.9987 61.6479 46.925L62.7256 45.598L61.8233 46.1194C61.7409 46.167 61.6443 46.1841 61.5504 46.1677C61.4566 46.1513 61.3716 46.1024 61.3101 46.0297C61.2487 45.9569 61.2148 45.8648 61.2143 45.7696C61.2139 45.6744 61.2469 45.582 61.3077 45.5087L62.1523 44.4919L61.3401 44.9597C61.2548 45.0071 61.1553 45.0222 61.0598 45.0022C60.9643 44.9822 60.8791 44.9285 60.82 44.8509C60.7608 44.7733 60.7316 44.677 60.7376 44.5796C60.7436 44.4822 60.7846 44.3902 60.8529 44.3205L61.0096 44.1646L60.9284 44.2109C60.848 44.257 60.7543 44.2743 60.6628 44.2598C60.5713 44.2454 60.4875 44.2001 60.4253 44.1314C60.3631 44.0627 60.3262 43.9749 60.3208 43.8824C60.3154 43.7899 60.3418 43.6983 60.3956 43.6229L61.2654 42.4104L60.0943 43.0861C60.0158 43.1304 59.9247 43.1473 59.8354 43.1341C59.7461 43.1209 59.6638 43.0784 59.6014 43.0132C59.5391 42.948 59.5002 42.8639 59.4909 42.7742C59.4816 42.6844 59.5025 42.5942 59.5502 42.5176L60.4281 41.1516L58.9622 41.9954C58.8841 42.0404 58.7931 42.058 58.7038 42.0456C58.6145 42.0332 58.5319 41.9913 58.4689 41.9267C58.406 41.8621 58.3664 41.7784 58.3563 41.6888C58.3462 41.5992 58.3662 41.5088 58.4132 41.4318L59.2619 40.0512L57.5418 41.0452C57.4581 41.0935 57.36 41.1103 57.265 41.0927C57.17 41.0752 57.0844 41.0243 57.0236 40.9492C56.9627 40.8742 56.9306 40.7799 56.933 40.6834C56.9354 40.5868 56.9722 40.4942 57.0367 40.4223L57.5126 39.8928L56.3992 40.5352C56.3147 40.5835 56.2156 40.5998 56.1201 40.5812C56.0246 40.5627 55.9389 40.5104 55.8787 40.4339C55.8185 40.3575 55.7877 40.2619 55.792 40.1647C55.7963 40.0675 55.8354 39.975 55.9022 39.9042L56.3082 39.4762L55.1055 40.1706C55.0205 40.219 54.921 40.2351 54.8252 40.2161C54.7293 40.197 54.6435 40.144 54.5836 40.0668C54.5237 39.9896 54.4936 39.8933 54.4989 39.7957C54.5042 39.6981 54.5446 39.6057 54.6125 39.5355L55.0827 39.0539L53.4585 39.9903C53.3735 40.0393 53.2738 40.0559 53.1775 40.037C53.0813 40.0182 52.9952 39.9652 52.935 39.8878C52.8748 39.8104 52.8447 39.7138 52.8501 39.6159C52.8556 39.518 52.8963 39.4254 52.9647 39.3552L53.6753 38.6292L50.5892 40.411C50.496 40.464 50.3856 40.4779 50.2821 40.4498C50.1787 40.4217 50.0905 40.3539 50.0369 40.261C49.9833 40.1681 49.9686 40.0578 49.996 39.9542C50.0234 39.8505 50.0907 39.7619 50.1832 39.7077L55.8364 36.4437C55.9213 36.3947 56.0211 36.3781 56.1173 36.397C56.2135 36.4158 56.2997 36.4688 56.3599 36.5462C56.42 36.6236 56.4502 36.7202 56.4447 36.8181C56.4393 36.916 56.3986 37.0086 56.3301 37.0788L55.6195 37.8048L57.2251 36.8774C57.31 36.8284 57.4098 36.8118 57.506 36.8306C57.6023 36.8495 57.6884 36.9025 57.7486 36.9799C57.8088 37.0573 57.8389 37.1539 57.8335 37.2518C57.828 37.3496 57.7873 37.4423 57.7189 37.5125L57.2487 37.9941L58.3442 37.3622C58.4287 37.3134 58.528 37.2966 58.6239 37.315C58.7198 37.3333 58.8058 37.3856 58.8663 37.4623C58.9267 37.5389 58.9576 37.6348 58.9531 37.7323C58.9487 37.8298 58.9092 37.9224 58.842 37.9933L58.436 38.4213L59.3171 37.9129C59.4007 37.8651 59.4986 37.8486 59.5932 37.8663C59.6878 37.884 59.7731 37.9348 59.8338 38.0095C59.8944 38.0842 59.9266 38.1781 59.9245 38.2743C59.9224 38.3706 59.8862 38.4629 59.8223 38.5349L59.3447 39.0661L60.2454 38.5471C60.3236 38.5022 60.4145 38.4845 60.5038 38.497C60.5931 38.5094 60.6758 38.5512 60.7387 38.6158C60.8016 38.6804 60.8413 38.7641 60.8513 38.8537C60.8614 38.9434 60.8414 39.0338 60.7944 39.1107L59.9465 40.4914L61.4725 39.6102C61.5511 39.5659 61.6422 39.549 61.7315 39.5622C61.8207 39.5753 61.903 39.6179 61.9654 39.6831C62.0278 39.7483 62.0667 39.8324 62.076 39.9221C62.0852 40.0118 62.0644 40.1021 62.0166 40.1787L61.1404 41.5447L62.4966 40.7618C62.577 40.7153 62.671 40.6978 62.7627 40.7122C62.8545 40.7266 62.9386 40.772 63.0009 40.8409C63.0632 40.9098 63.1 40.998 63.1052 41.0907C63.1104 41.1835 63.0836 41.2752 63.0294 41.3506L62.1563 42.5639L63.2876 41.9101C63.373 41.8621 63.4729 41.8466 63.5689 41.8664C63.6648 41.8863 63.7504 41.9401 63.8097 42.0181C63.8691 42.096 63.8982 42.1928 63.8918 42.2906C63.8854 42.3884 63.8439 42.4805 63.7749 42.5501L63.6198 42.7044L63.7067 42.654C63.7892 42.6064 63.8857 42.5893 63.9796 42.6057C64.0734 42.6221 64.1585 42.671 64.2199 42.7437C64.2813 42.8165 64.3153 42.9086 64.3157 43.0038C64.3162 43.099 64.2831 43.1914 64.2224 43.2648L63.3778 44.2815L64.2224 43.7943C64.3045 43.7474 64.4005 43.7308 64.4936 43.7471C64.5867 43.7635 64.6713 43.8118 64.7326 43.8838C64.7939 43.9558 64.8281 44.0469 64.8294 44.1415C64.8307 44.236 64.799 44.3281 64.7397 44.4017L63.6628 45.7271L64.6666 45.1481C64.7491 45.101 64.8455 45.0842 64.939 45.1008C65.0325 45.1174 65.1173 45.1663 65.1785 45.2389C65.2397 45.3115 65.2735 45.4033 65.2741 45.4983C65.2746 45.5933 65.2419 45.6855 65.1815 45.7588L63.8334 47.383L64.9703 46.7268C65.0561 46.676 65.1577 46.6584 65.2556 46.6776C65.3535 46.6968 65.4409 46.7514 65.5011 46.8309C65.5613 46.9104 65.5902 47.0093 65.5822 47.1088C65.5742 47.2082 65.5298 47.3012 65.4576 47.37L64.7161 48.0888L65.0572 47.8922C65.1437 47.8427 65.2454 47.8267 65.3429 47.8473C65.4404 47.8679 65.5269 47.9236 65.586 48.0039C65.6451 48.0841 65.6726 48.1833 65.6633 48.2825C65.654 48.3817 65.6085 48.4741 65.5356 48.5419L65.054 48.9846L65.0727 48.9748C65.1571 48.9265 65.256 48.9101 65.3515 48.9286C65.4469 48.9471 65.5326 48.9993 65.5929 49.0756C65.6532 49.1519 65.6841 49.2473 65.68 49.3445C65.6758 49.4416 65.637 49.5341 65.5705 49.605L64.2873 50.9596L65.0775 50.5032C65.1639 50.4569 65.2641 50.4433 65.3597 50.4651C65.4552 50.4869 65.5397 50.5424 65.5975 50.6216C65.6553 50.7008 65.6825 50.7982 65.6741 50.8958C65.6657 50.9935 65.6223 51.0848 65.5518 51.1529L65.1774 51.49C65.2653 51.4658 65.3588 51.4719 65.4428 51.5073C65.5267 51.5428 65.5964 51.6054 65.6404 51.6852C65.6845 51.765 65.7004 51.8573 65.6857 51.9472C65.6709 52.0372 65.6264 52.1195 65.5591 52.1811L65.0718 52.631L65.0881 52.6221C65.1724 52.5738 65.2713 52.5574 65.3667 52.5758C65.4621 52.5942 65.5477 52.6462 65.6081 52.7223C65.6684 52.7985 65.6994 52.8937 65.6955 52.9908C65.6916 53.0879 65.653 53.1804 65.5867 53.2514L65.3301 53.5235C65.4161 53.531 65.4976 53.5657 65.5625 53.6226C65.6275 53.6795 65.6726 53.7556 65.6914 53.8399C65.7101 53.9242 65.7015 54.0123 65.6668 54.0914C65.632 54.1704 65.573 54.2364 65.4982 54.2796L63.5101 55.4296C63.4483 55.4658 63.3779 55.4846 63.3063 55.484Z" fill="#D1D7DB"/>
<path d="M42.3157 55.4831C42.2599 55.4834 42.2046 55.472 42.1534 55.4496C42.1022 55.4272 42.0562 55.3944 42.0185 55.3532C41.956 55.2858 41.9182 55.1993 41.9113 55.1077C41.9044 55.0161 41.9287 54.9248 41.9803 54.8488L42.8371 53.5901L41.1625 54.5573C41.0753 54.6079 40.9724 54.6242 40.8738 54.6031C40.7752 54.5819 40.688 54.5249 40.6292 54.4431C40.5703 54.3612 40.544 54.2604 40.5554 54.1602C40.5668 54.06 40.615 53.9677 40.6907 53.9011L41.0001 53.6274C40.9332 53.6355 40.8653 53.6262 40.803 53.6004C40.7407 53.5747 40.6861 53.5334 40.6444 53.4804C40.5833 53.4053 40.551 53.3109 40.5534 53.2141C40.5558 53.1173 40.5926 53.0245 40.6574 52.9525L42.1606 51.2763L41.1625 51.8521C41.0774 51.8983 40.9786 51.9127 40.8839 51.8924C40.7892 51.8722 40.7048 51.8189 40.646 51.7419C40.5872 51.665 40.5578 51.5695 40.5632 51.4728C40.5686 51.3762 40.6083 51.2846 40.6753 51.2146L41.7578 50.1215L41.1666 50.4626C41.0818 50.5115 40.9822 50.5282 40.8862 50.5095C40.7901 50.4909 40.704 50.4381 40.6437 50.3611C40.5834 50.284 40.553 50.1877 40.558 50.0899C40.5631 49.9922 40.6033 49.8996 40.6712 49.8291L42.1265 48.3145L41.169 48.8675C41.0826 48.9145 40.9821 48.9285 40.8862 48.9069C40.7903 48.8854 40.7054 48.8298 40.6474 48.7504C40.5894 48.6711 40.5621 48.5733 40.5707 48.4754C40.5792 48.3775 40.623 48.2859 40.6939 48.2179L41.8147 47.2084L41.2535 47.5332C41.1657 47.5841 41.0621 47.6002 40.963 47.5785C40.8639 47.5568 40.7766 47.4988 40.7181 47.4159C40.6596 47.333 40.6343 47.2312 40.6471 47.1306C40.66 47.03 40.71 46.9378 40.7873 46.8722L42.7584 45.2057L41.5564 45.9C41.4664 45.9512 41.3603 45.9661 41.2597 45.9416C41.159 45.9172 41.0716 45.8552 41.0152 45.7684C40.9587 45.6816 40.9376 45.5765 40.9561 45.4746C40.9746 45.3727 41.0313 45.2818 41.1146 45.2203L47.3436 40.6951L42.4359 43.5221C42.345 43.576 42.2367 43.5923 42.1339 43.5676C42.0312 43.5429 41.9421 43.4791 41.8857 43.3897C41.8292 43.3004 41.8098 43.1926 41.8316 43.0892C41.8533 42.9857 41.9146 42.8949 42.0023 42.8359L43.3276 41.9255C43.2366 41.9498 43.1399 41.9417 43.0541 41.9024C42.9684 41.8632 42.899 41.7954 42.8578 41.7106C42.8166 41.6258 42.8062 41.5293 42.8283 41.4377C42.8505 41.3461 42.9039 41.265 42.9792 41.2084L45.0274 39.6654C44.9702 39.627 44.9236 39.5746 44.8922 39.5133C44.8608 39.452 44.8455 39.3836 44.8477 39.3147C44.85 39.2458 44.8698 39.1787 44.9052 39.1195C44.9406 39.0604 44.9905 39.0112 45.0502 38.9767L48.8493 36.784C48.9388 36.7315 49.0451 36.7152 49.1462 36.7386C49.2473 36.762 49.3357 36.8233 49.393 36.9098C49.4504 36.9962 49.4725 37.1014 49.4548 37.2037C49.437 37.306 49.3808 37.3976 49.2976 37.4596L48.7218 37.8941L51.7461 36.144C51.837 36.0901 51.9454 36.0738 52.0481 36.0985C52.1509 36.1233 52.2399 36.1871 52.2964 36.2764C52.3529 36.3657 52.3723 36.4736 52.3505 36.577C52.3287 36.6804 52.2675 36.7713 52.1798 36.8302L51.0055 37.6359L53.6554 36.1066C53.7454 36.0555 53.8516 36.0406 53.9522 36.065C54.0528 36.0895 54.1402 36.1515 54.1967 36.2383C54.2531 36.3251 54.2742 36.4302 54.2557 36.5321C54.2373 36.634 54.1806 36.7249 54.0972 36.7864L46.6387 42.2033C46.7106 42.2325 46.7725 42.2822 46.8165 42.3462C46.8746 42.4291 46.8996 42.5306 46.8867 42.631C46.8737 42.7313 46.8238 42.8232 46.7467 42.8887L44.7724 44.5584C44.8604 44.5168 44.9604 44.5082 45.0542 44.5342C45.1479 44.5601 45.2293 44.6189 45.2834 44.6997C45.3375 44.7806 45.3608 44.8782 45.349 44.9748C45.3372 45.0714 45.2911 45.1605 45.2191 45.226L44.1024 46.2355L44.2007 46.1786C44.2854 46.1297 44.385 46.113 44.4811 46.1316C44.5772 46.1503 44.6633 46.203 44.7236 46.2801C44.7839 46.3572 44.8143 46.4535 44.8092 46.5512C44.8042 46.649 44.764 46.7416 44.6961 46.8121L43.2408 48.3267L43.9717 47.9036C44.0568 47.8545 44.1568 47.8379 44.2531 47.8569C44.3495 47.876 44.4357 47.9293 44.4958 48.007C44.5559 48.0847 44.5857 48.1816 44.5798 48.2796C44.574 48.3777 44.5327 48.4703 44.4638 48.5403L43.3796 49.6334L43.9603 49.2988C44.044 49.2505 44.1421 49.2337 44.2371 49.2513C44.3321 49.2689 44.4177 49.3197 44.4786 49.3948C44.5394 49.4698 44.5715 49.5641 44.5691 49.6606C44.5667 49.7572 44.5299 49.8498 44.4654 49.9217L42.9654 51.5955L43.97 51.0156C44.0573 50.9651 44.1602 50.9487 44.2587 50.9699C44.3573 50.991 44.4445 51.048 44.5034 51.1299C44.5622 51.2117 44.5885 51.3125 44.5772 51.4127C44.5658 51.5129 44.5176 51.6052 44.4419 51.6718L44.1349 51.9439C44.2118 51.936 44.2894 51.9502 44.3585 51.9848C44.4276 52.0195 44.4854 52.0731 44.525 52.1395C44.5647 52.2058 44.5846 52.2821 44.5824 52.3594C44.5802 52.4367 44.5559 52.5117 44.5125 52.5757L43.6566 53.8345L43.9814 53.6469C44.0276 53.6198 44.0787 53.6021 44.1318 53.5949C44.1848 53.5876 44.2388 53.5909 44.2906 53.6046C44.3423 53.6183 44.3909 53.6421 44.4334 53.6746C44.476 53.7072 44.5117 53.7478 44.5384 53.7942C44.5652 53.8405 44.5825 53.8918 44.5894 53.9449C44.5964 53.998 44.5927 54.0519 44.5787 54.1036C44.5646 54.1553 44.5405 54.2037 44.5077 54.246C44.4749 54.2883 44.434 54.3237 44.3875 54.3502L42.5196 55.4287C42.4578 55.4649 42.3874 55.4837 42.3157 55.4831Z" fill="#D1D7DB"/>
<path d="M43.9913 80.645C43.9037 80.6452 43.8184 80.6171 43.7481 80.5648C43.6778 80.5126 43.6263 80.439 43.6012 80.355C43.5762 80.271 43.579 80.1812 43.6092 80.099C43.6394 80.0168 43.6954 79.9465 43.7688 79.8987L55.9003 71.9797L40.997 80.5825C40.9052 80.6338 40.7971 80.6475 40.6955 80.6207C40.5938 80.594 40.5065 80.5288 40.4519 80.4389C40.3973 80.3491 40.3796 80.2416 40.4027 80.139C40.4258 80.0364 40.4877 79.9468 40.5755 79.889L53.1448 71.8546L39.1762 79.9198C39.0844 79.9711 38.9764 79.9848 38.8747 79.958C38.773 79.9313 38.6857 79.8661 38.6311 79.7763C38.5765 79.6864 38.5589 79.5789 38.5819 79.4763C38.605 79.3737 38.6669 79.2841 38.7547 79.2263L52.5738 70.4236L38.2139 78.7138C38.1217 78.7638 38.0138 78.7762 37.9128 78.7484C37.8117 78.7207 37.7253 78.6549 37.6716 78.5649C37.6179 78.4749 37.6011 78.3677 37.6246 78.2655C37.6482 78.1634 37.7103 78.0744 37.798 78.017L45.7902 73.0704L37.9304 77.6069C37.8385 77.6567 37.731 77.6691 37.6301 77.6416C37.5293 77.6141 37.4429 77.5487 37.3891 77.4592C37.3352 77.3696 37.3179 77.2627 37.3408 77.1608C37.3638 77.0588 37.4251 76.9696 37.5122 76.9117L48.5944 69.9867L37.9142 76.1524C37.8222 76.2039 37.7137 76.2177 37.6118 76.1907C37.5098 76.1637 37.4224 76.0981 37.3679 76.0078C37.3135 75.9174 37.2963 75.8095 37.3201 75.7067C37.3438 75.604 37.4066 75.5145 37.4951 75.4572L49.9499 67.6251L37.9142 74.5728C37.8224 74.6218 37.7154 74.6338 37.6151 74.6062C37.5148 74.5786 37.4289 74.5135 37.3751 74.4245C37.3214 74.3354 37.3039 74.2291 37.3262 74.1275C37.3485 74.0259 37.409 73.9367 37.4951 73.8784L49.3919 66.3923L37.9142 73.0184C37.8226 73.0688 37.715 73.0819 37.614 73.055C37.513 73.0281 37.4262 72.9632 37.3718 72.8739C37.3174 72.7847 37.2995 72.6778 37.3218 72.5757C37.3442 72.4736 37.4051 72.384 37.4919 72.3256L51.5993 63.2558L37.9142 71.1562C37.8228 71.2046 37.7164 71.2163 37.6166 71.1889C37.5169 71.1616 37.4314 71.0972 37.3775 71.0089C37.3236 70.9206 37.3054 70.8151 37.3267 70.7139C37.348 70.6127 37.407 70.5234 37.4919 70.4643L49.0776 63.0008L37.9142 69.4459C37.8221 69.4966 37.714 69.5096 37.6125 69.4822C37.511 69.4548 37.4241 69.3892 37.37 69.299C37.316 69.2089 37.299 69.1013 37.3226 68.9989C37.3462 68.8965 37.4087 68.8072 37.4967 68.7499L41.1862 66.4467L37.9142 68.3349C37.8222 68.384 37.7149 68.3958 37.6144 68.368C37.5139 68.3401 37.428 68.2747 37.3745 68.1852C37.3209 68.0958 37.3038 67.9892 37.3267 67.8874C37.3497 67.7857 37.4108 67.6967 37.4976 67.6389L38.5915 66.9583L37.9142 67.3489C37.8229 67.4009 37.7151 67.4154 37.6133 67.3895C37.5116 67.3636 37.4238 67.2993 37.3684 67.2101C37.313 67.1209 37.2944 67.0137 37.3163 66.9111C37.3383 66.8084 37.3992 66.7182 37.4862 66.6595L45.9615 61.016L37.9142 65.6614C37.8226 65.7104 37.7158 65.7224 37.6157 65.6951C37.5155 65.6678 37.4296 65.6031 37.3756 65.5144C37.3217 65.4257 37.3037 65.3197 37.3255 65.2182C37.3473 65.1167 37.4071 65.0274 37.4927 64.9686L39.5043 63.683L37.9142 64.6007C37.8225 64.6529 37.714 64.6674 37.6119 64.641C37.5097 64.6146 37.4218 64.5495 37.3668 64.4595C37.3118 64.3694 37.294 64.2615 37.3172 64.1585C37.3404 64.0556 37.4027 63.9657 37.4911 63.908L39.2599 62.7653L37.9142 63.5417C37.8235 63.5929 37.7165 63.6073 37.6155 63.5819C37.5145 63.5565 37.4271 63.4933 37.3714 63.4052C37.3157 63.3172 37.2959 63.2111 37.3163 63.1089C37.3366 63.0068 37.3954 62.9163 37.4805 62.8563L42.0463 59.706L37.9142 62.0929C37.8229 62.1448 37.7151 62.1593 37.6133 62.1335C37.5116 62.1076 37.4238 62.0433 37.3684 61.9541C37.313 61.8649 37.2944 61.7577 37.3163 61.655C37.3383 61.5523 37.3992 61.4621 37.4862 61.4034L38.2894 60.8666L37.9142 61.0834C37.8233 61.1353 37.7159 61.1502 37.6144 61.1249C37.5129 61.0996 37.425 61.036 37.3692 60.9475C37.3134 60.859 37.2939 60.7524 37.3148 60.6498C37.3357 60.5473 37.3953 60.4568 37.4813 60.3972L38.3917 59.771L37.9142 60.0455C37.8249 60.0951 37.7203 60.1092 37.6211 60.0851C37.5219 60.0609 37.4355 60.0004 37.379 59.9154C37.3224 59.8304 37.3 59.7272 37.3161 59.6264C37.3322 59.5256 37.3857 59.4346 37.4659 59.3714L39.4808 57.8365L37.9142 58.7421C37.8251 58.7919 37.7205 58.8064 37.6213 58.7827C37.522 58.7589 37.4353 58.6986 37.3785 58.6138C37.3216 58.5291 37.2988 58.426 37.3146 58.3251C37.3303 58.2243 37.3835 58.133 37.4634 58.0696L37.9743 57.6741L37.9239 57.7033C37.8404 57.7516 37.7424 57.7686 37.6475 57.7512C37.5526 57.7338 37.467 57.6832 37.406 57.6085C37.345 57.5337 37.3127 57.4397 37.3147 57.3432C37.3168 57.2468 37.3531 57.1542 37.4172 57.0821L38.4932 55.872C38.4165 55.8763 38.3401 55.8599 38.2719 55.8244C38.2038 55.789 38.1464 55.7358 38.1058 55.6706C38.0519 55.5774 38.0372 55.4667 38.0649 55.3627C38.0926 55.2587 38.1605 55.1699 38.2536 55.1159L40.1833 54.0017C40.2668 53.9534 40.3648 53.9364 40.4597 53.9538C40.5546 53.9712 40.6402 54.0218 40.7011 54.0966C40.7621 54.1713 40.7945 54.2654 40.7925 54.3618C40.7904 54.4583 40.7541 54.5508 40.69 54.623L39.6935 55.7445L42.8032 53.9505C42.8923 53.8997 42.9973 53.8844 43.0972 53.9079C43.1971 53.9313 43.2844 53.9917 43.3415 54.0768C43.3987 54.162 43.4216 54.2656 43.4055 54.367C43.3894 54.4683 43.3355 54.5597 43.2547 54.623L42.7447 55.0168L44.5898 53.9505C44.6791 53.9 44.7842 53.8852 44.884 53.9089C44.9838 53.9327 45.0709 53.9934 45.1277 54.0788C45.1846 54.1642 45.2071 54.2679 45.1906 54.3691C45.1741 54.4704 45.1199 54.5616 45.0389 54.6246L43.0224 56.1587L46.8524 53.9505C46.9431 53.9006 47.0494 53.8872 47.1496 53.913C47.2498 53.9388 47.3364 54.0019 47.3916 54.0894C47.4469 54.1769 47.4667 54.2822 47.4469 54.3838C47.4271 54.4854 47.3693 54.5756 47.2853 54.636L46.3773 55.2613L48.6505 53.9505C48.7415 53.9008 48.8481 53.8878 48.9485 53.9143C49.0488 53.9407 49.1352 54.0045 49.1899 54.0926C49.2447 54.1807 49.2636 54.2864 49.2429 54.3881C49.2222 54.4897 49.1633 54.5796 49.0784 54.6392L48.2704 55.1793L50.3981 53.9505C50.4887 53.8999 50.5953 53.8859 50.6958 53.9113C50.7964 53.9368 50.8835 53.9998 50.9391 54.0874C50.9947 54.175 51.0146 54.2806 50.9948 54.3825C50.975 54.4843 50.917 54.5747 50.8326 54.6351L46.2693 57.7829L52.9084 53.9505C53 53.8994 53.1078 53.8856 53.2092 53.9122C53.3107 53.9387 53.3979 54.0034 53.4527 54.0929C53.5075 54.1823 53.5256 54.2894 53.5031 54.3919C53.4807 54.4943 53.4195 54.5841 53.3324 54.6425L51.5595 55.7875L54.7414 53.9505C54.8329 53.9015 54.9397 53.8894 55.0399 53.9168C55.1401 53.9441 55.226 54.0087 55.2799 54.0974C55.3339 54.1861 55.3518 54.2921 55.3301 54.3937C55.3083 54.4952 55.2485 54.5845 55.1629 54.6433L53.1545 55.9264L56.5808 53.9505C56.6719 53.9008 56.7785 53.8878 56.8788 53.9143C56.9792 53.9407 57.0656 54.0045 57.1203 54.0926C57.1751 54.1807 57.194 54.2864 57.1733 54.3881C57.1526 54.4897 57.0937 54.5796 57.0088 54.6392L48.5319 60.2851L59.5012 53.9505C59.5933 53.8998 59.7015 53.8868 59.8029 53.9142C59.9044 53.9415 59.9913 54.0072 60.0454 54.0973C60.0994 54.1875 60.1164 54.2951 60.0928 54.3975C60.0692 54.4999 60.0068 54.5892 59.9187 54.6465L58.8312 55.323L61.21 53.9505C61.3018 53.9021 61.4086 53.8907 61.5086 53.9186C61.6086 53.9465 61.6941 54.0117 61.7475 54.1007C61.8009 54.1896 61.8183 54.2957 61.7959 54.3971C61.7736 54.4985 61.7133 54.5874 61.6274 54.6457L57.9379 56.9497L63.1355 53.9505C63.227 53.9009 63.334 53.8882 63.4345 53.9152C63.535 53.9422 63.6213 54.0068 63.6756 54.0956C63.7299 54.1844 63.7481 54.2906 63.7263 54.3924C63.7045 54.4941 63.6445 54.5837 63.5586 54.6425L51.9704 62.1034L65.9105 54.0553C66.0024 54.0014 66.1118 53.9858 66.2151 54.0119C66.3184 54.0379 66.4073 54.1035 66.4627 54.1944C66.5181 54.2854 66.5355 54.3945 66.5112 54.4982C66.4869 54.6019 66.4229 54.6919 66.3328 54.7488L52.2279 63.817L67.4804 55.0112C67.5724 54.9596 67.6808 54.9459 67.7828 54.9729C67.8847 54.9999 67.9722 55.0654 68.0266 55.1558C68.0811 55.2461 68.0982 55.354 68.0745 55.4568C68.0508 55.5596 67.988 55.649 67.8994 55.7063L55.9977 63.1949L68.1569 56.1757C68.2486 56.1267 68.3557 56.1148 68.456 56.1424C68.5563 56.1699 68.6422 56.235 68.6959 56.3241C68.7497 56.4131 68.7672 56.5194 68.7449 56.621C68.7225 56.7226 68.6621 56.8118 68.5759 56.8701L56.122 64.7022L68.3201 57.6603C68.4119 57.6119 68.5188 57.6005 68.6188 57.6284C68.7187 57.6563 68.8042 57.7214 68.8577 57.8104C68.9111 57.8994 68.9284 58.0055 68.9061 58.1069C68.8837 58.2082 68.8234 58.2972 68.7375 58.3555L57.6512 65.2845L68.3201 59.1254C68.412 59.0775 68.5187 59.0666 68.6183 59.0948C68.718 59.1231 68.8031 59.1883 68.8562 59.2773C68.9094 59.3662 68.9265 59.4721 68.9041 59.5732C68.8818 59.6744 68.8216 59.7631 68.7359 59.8214L60.7511 64.7623L68.3177 60.3947C68.4096 60.3422 68.5184 60.3276 68.621 60.3542C68.7235 60.3807 68.8116 60.4463 68.8664 60.5369C68.9213 60.6274 68.9386 60.7359 68.9147 60.839C68.8908 60.9422 68.8275 61.0319 68.7383 61.0891L54.9144 69.895L68.3201 62.153C68.4119 62.1017 68.52 62.088 68.6216 62.1147C68.7233 62.1415 68.8106 62.2067 68.8652 62.2965C68.9198 62.3864 68.9375 62.4939 68.9144 62.5965C68.8913 62.6991 68.8294 62.7887 68.7416 62.8465L56.1772 70.8801L68.3201 63.8698C68.4118 63.8165 68.5206 63.8012 68.6234 63.8271C68.7262 63.853 68.8148 63.918 68.8703 64.0084C68.9258 64.0988 68.9437 64.2072 68.9202 64.3106C68.8968 64.414 68.8339 64.5041 68.7448 64.5617L56.6158 72.4808L68.3201 65.7263C68.4113 65.676 68.5183 65.6626 68.6191 65.689C68.7199 65.7153 68.8067 65.7794 68.8615 65.868C68.9164 65.9565 68.9351 66.0627 68.9139 66.1647C68.8926 66.2667 68.833 66.3566 68.7473 66.4158L58.335 73.3189L68.3242 67.5528C68.4154 67.5031 68.5222 67.4903 68.6226 67.517C68.723 67.5438 68.8094 67.6079 68.8639 67.6964C68.9184 67.7848 68.937 67.8908 68.9157 67.9925C68.8945 68.0942 68.8351 68.1839 68.7497 68.2431L61.828 72.7861L68.325 69.0357C68.4161 68.9846 68.5234 68.9706 68.6246 68.9966C68.7258 69.0226 68.813 69.0866 68.8682 69.1753C68.9235 69.264 68.9424 69.3705 68.9211 69.4728C68.8997 69.5751 68.8398 69.6652 68.7538 69.7244L62.619 73.8329L68.3209 70.5414C68.4123 70.4884 68.5208 70.4731 68.6233 70.4988C68.7258 70.5245 68.8143 70.5892 68.8699 70.679C68.9255 70.7689 68.9439 70.8769 68.9211 70.9801C68.8984 71.0833 68.8363 71.1735 68.7481 71.2317L65.4695 73.409L68.3201 71.7628C68.4108 71.7116 68.5177 71.6972 68.6188 71.7226C68.7198 71.748 68.8072 71.8113 68.8629 71.8993C68.9186 71.9874 68.9383 72.0934 68.918 72.1956C68.8977 72.2978 68.8389 72.3882 68.7538 72.4483L65.1804 74.9179L68.3169 73.1077C68.4071 73.0554 68.514 73.0398 68.6154 73.0642C68.7169 73.0886 68.805 73.151 68.8616 73.2387C68.9182 73.3263 68.9389 73.4323 68.9195 73.5348C68.9 73.6373 68.8418 73.7283 68.757 73.7891L65.9146 75.834L68.3169 74.4477C68.4046 74.3985 68.5074 74.3836 68.6055 74.4059C68.7036 74.4282 68.7899 74.4861 68.8478 74.5684C68.9056 74.6507 68.9308 74.7515 68.9186 74.8514C68.9063 74.9512 68.8574 75.0429 68.7814 75.1088L65.8204 77.6109L68.3201 76.1702C68.405 76.1218 68.5045 76.1057 68.6004 76.1248C68.6963 76.1438 68.782 76.1968 68.842 76.274C68.9019 76.3512 68.932 76.4475 68.9267 76.5451C68.9213 76.6427 68.881 76.7351 68.8131 76.8053L67.2481 78.402L68.0537 77.9374C68.1465 77.8889 68.2545 77.8781 68.3551 77.9072C68.4557 77.9364 68.5411 78.0033 68.5935 78.094C68.6459 78.1847 68.6613 78.2921 68.6363 78.3938C68.6114 78.4956 68.5482 78.5837 68.4598 78.6399L65.0814 80.589C64.9964 80.6381 64.8966 80.6548 64.8003 80.636C64.704 80.6172 64.6178 80.5641 64.5575 80.4867C64.4975 80.4091 64.4675 80.3124 64.4732 80.2145C64.4788 80.1166 64.5198 80.024 64.5884 79.9539L66.1542 78.3573L62.2868 80.5882C62.1991 80.6374 62.0962 80.6523 61.9982 80.63C61.9001 80.6077 61.8137 80.5498 61.7559 80.4675C61.6981 80.3852 61.6729 80.2844 61.6851 80.1845C61.6974 80.0847 61.7463 79.993 61.8223 79.9271L64.7817 77.4258L59.3039 80.5882C59.2137 80.6405 59.1067 80.6561 59.0053 80.6317C58.9039 80.6073 58.8157 80.5449 58.7591 80.4572C58.7025 80.3696 58.6818 80.2636 58.7013 80.1611C58.7208 80.0586 58.7789 79.9676 58.8637 79.9068L61.7062 77.8603L56.9829 80.5882C56.8923 80.6376 56.7864 80.6508 56.6865 80.6249C56.5867 80.5991 56.5004 80.5362 56.4452 80.4491C56.39 80.362 56.37 80.2571 56.3893 80.1558C56.4087 80.0545 56.4658 79.9643 56.5492 79.9036L60.116 77.4355L54.6537 80.5882C54.5624 80.6401 54.4546 80.6546 54.3528 80.6288C54.2511 80.6029 54.1633 80.5386 54.1079 80.4494C54.0525 80.3602 54.0339 80.253 54.0558 80.1503C54.0778 80.0476 54.1387 79.9574 54.2257 79.8987L57.5026 77.7246L52.5381 80.5882C52.4472 80.6374 52.3409 80.65 52.241 80.6235C52.1411 80.5971 52.055 80.5335 52.0004 80.4458C51.9457 80.3581 51.9265 80.2528 51.9468 80.1515C51.967 80.0501 52.0251 79.9603 52.1093 79.9003L58.2376 75.791L49.9271 80.5882C49.8359 80.6378 49.729 80.6506 49.6286 80.6239C49.5282 80.5972 49.4419 80.533 49.3874 80.4446C49.3329 80.3562 49.3143 80.2502 49.3355 80.1485C49.3568 80.0468 49.4162 79.9571 49.5016 79.8979L56.4265 75.35L47.3576 80.5882C47.2664 80.6385 47.1593 80.6519 47.0585 80.6255C46.9578 80.5992 46.871 80.5351 46.8161 80.4466C46.7613 80.358 46.7425 80.2518 46.7638 80.1498C46.7851 80.0478 46.8447 79.9579 46.9304 79.8987L57.3402 73.0013L44.1943 80.5882C44.1328 80.6247 44.0628 80.6443 43.9913 80.645Z" fill="#FCBE5D"/>
<path d="M54.0371 74.148C53.9632 74.148 53.8907 74.1278 53.8274 74.0896C53.7641 74.0513 53.7124 73.9965 53.678 73.9311C53.6435 73.8656 53.6276 73.792 53.6319 73.7182C53.6363 73.6444 53.6607 73.5731 53.7026 73.5122L54.7185 72.0373L51.2662 74.0303C51.1785 74.0809 51.0751 74.097 50.9762 74.0753C50.8773 74.0536 50.79 73.9958 50.7316 73.9131C50.6731 73.8305 50.6476 73.7289 50.6601 73.6285C50.6727 73.528 50.7223 73.4358 50.7992 73.37L52.1546 72.2168L50.3038 73.2848C50.2153 73.3348 50.1113 73.3498 50.0122 73.3269C49.9132 73.3039 49.8264 73.2446 49.7689 73.1608C49.7114 73.0769 49.6876 72.9745 49.7019 72.8739C49.7163 72.7732 49.7679 72.6816 49.8466 72.6172L52.2017 70.7209L50.1934 71.8798C50.1041 71.9303 49.999 71.9452 49.8992 71.9214C49.7994 71.8976 49.7123 71.8369 49.6555 71.7515C49.5986 71.6662 49.5761 71.5624 49.5926 71.4612C49.6091 71.3599 49.6633 71.2687 49.7443 71.2057L51.8493 69.5985L50.5247 70.3636C50.4351 70.4135 50.3298 70.4276 50.2302 70.4031C50.1306 70.3786 50.0439 70.3173 49.9876 70.2315C49.9313 70.1457 49.9096 70.0418 49.9269 69.9406C49.9441 69.8395 49.999 69.7486 50.0805 69.6862L51.2036 68.8506L50.7529 69.1113C50.663 69.162 50.5572 69.1766 50.457 69.1521C50.3567 69.1276 50.2695 69.0658 50.2132 68.9794C50.1568 68.8929 50.1355 68.7883 50.1535 68.6866C50.1716 68.585 50.2276 68.4941 50.3103 68.4323L50.5198 68.2788L50.1479 68.4932C50.0588 68.5452 49.9532 68.5612 49.8527 68.5382C49.7521 68.5151 49.6641 68.4546 49.6065 68.369C49.549 68.2834 49.5261 68.1791 49.5426 68.0773C49.5592 67.9755 49.6138 67.8838 49.6955 67.8208L51.3515 66.5384L49.6005 67.5512C49.5113 67.6035 49.4054 67.6198 49.3046 67.5968C49.2037 67.5737 49.1154 67.513 49.0578 67.4271C49.0002 67.3412 48.9775 67.2365 48.9945 67.1344C49.0114 67.0324 49.0667 66.9406 49.149 66.8779L50.4922 65.8433L49.3195 66.5198C49.2301 66.5706 49.1248 66.5857 49.0247 66.5619C48.9246 66.5381 48.8373 66.4772 48.7804 66.3915C48.7235 66.3059 48.7012 66.2018 48.7181 66.1003C48.7349 65.9989 48.7897 65.9076 48.8712 65.8449L49.2887 65.5282C49.2037 65.5696 49.1069 65.5801 49.015 65.5578C48.9232 65.5356 48.8419 65.482 48.7854 65.4062C48.7288 65.3305 48.7004 65.2374 48.7051 65.143C48.7098 65.0486 48.7473 64.9588 48.8111 64.889L50.2291 63.346C50.1418 63.3712 50.0487 63.3664 49.9645 63.3324C49.8802 63.2984 49.8099 63.2371 49.7646 63.1584C49.711 63.0652 49.6965 62.9546 49.7244 62.8507C49.7522 62.7469 49.8201 62.6584 49.9132 62.6045L52.0921 61.3457C52.1761 61.2975 52.2746 61.2809 52.3698 61.2989C52.465 61.3169 52.5506 61.3683 52.6112 61.4439C52.6718 61.5195 52.7033 61.6142 52.7002 61.7111C52.697 61.8079 52.6594 61.9004 52.594 61.9719L51.2028 63.4865L54.4976 61.5845C54.587 61.5336 54.6924 61.5185 54.7924 61.5423C54.8925 61.5661 54.9798 61.627 55.0367 61.7127C55.0936 61.7984 55.1159 61.9025 55.0991 62.0039C55.0822 62.1054 55.0275 62.1967 54.9459 62.2594L54.5293 62.5761L55.369 62.0888C55.4582 62.0376 55.5636 62.0222 55.6637 62.0456C55.7639 62.069 55.8514 62.1296 55.9086 62.2151C55.9658 62.3006 55.9885 62.4046 55.972 62.5061C55.9555 62.6076 55.9011 62.6991 55.8198 62.7621L54.4798 63.7943L56.1219 62.8498C56.211 62.7978 56.3166 62.7818 56.4171 62.8048C56.5176 62.8279 56.6056 62.8884 56.6632 62.974C56.7208 63.0596 56.7436 63.1639 56.7271 63.2657C56.7106 63.3675 56.6559 63.4592 56.5742 63.5222L54.9191 64.8037L56.6595 63.8C56.7492 63.7507 56.8542 63.7371 56.9535 63.7619C57.0528 63.7868 57.1391 63.8482 57.1951 63.9339C57.251 64.0196 57.2725 64.1233 57.2553 64.2242C57.238 64.3251 57.1833 64.4158 57.1021 64.4781L56.8966 64.6283C56.9868 64.5774 57.0931 64.5628 57.1937 64.5876C57.2943 64.6124 57.3815 64.6747 57.4377 64.7618C57.4938 64.8489 57.5146 64.9541 57.4957 65.0559C57.4768 65.1578 57.4196 65.2486 57.336 65.3097L56.2136 66.1438L56.9267 65.732C57.0161 65.6787 57.1227 65.6617 57.2243 65.6847C57.3259 65.7077 57.4148 65.7688 57.4725 65.8555C57.5303 65.9422 57.5526 66.0477 57.5347 66.1504C57.5169 66.253 57.4603 66.3448 57.3766 66.4069L55.2651 68.0165L56.3655 67.3822C56.454 67.3322 56.5581 67.3172 56.6571 67.3401C56.7561 67.3631 56.843 67.4224 56.9004 67.5062C56.9579 67.5901 56.9818 67.6925 56.9674 67.7931C56.953 67.8938 56.9014 67.9854 56.8227 68.0498L54.4676 69.9445L55.6151 69.2826C55.7028 69.2328 55.8058 69.2174 55.9042 69.2393C56.0026 69.2613 56.0893 69.3191 56.1475 69.4014C56.2056 69.4838 56.2311 69.5848 56.2188 69.6849C56.2066 69.785 56.1575 69.8769 56.0813 69.9429L54.725 71.0953L55.8709 70.4342C55.9507 70.3882 56.0437 70.3707 56.1347 70.3846C56.2257 70.3984 56.3093 70.4428 56.3718 70.5104C56.4343 70.578 56.472 70.6648 56.4787 70.7566C56.4853 70.8484 56.4606 70.9398 56.4086 71.0157L55.391 72.4913L56.1081 72.0771C56.2009 72.0286 56.3088 72.0178 56.4094 72.047C56.51 72.0761 56.5954 72.143 56.6478 72.2337C56.7003 72.3244 56.7156 72.4318 56.6907 72.5335C56.6658 72.6353 56.6025 72.7234 56.5141 72.7796L54.2402 74.0928C54.1787 74.1291 54.1086 74.1482 54.0371 74.148Z" fill="#A87E48"/>
<path d="M69.1344 59.7563C69.4731 57.3037 68.877 54.1754 65.8973 53.9854C69.1709 29.8036 37.1326 30.1901 40.334 54.0365C39.3958 54.1971 38.5488 54.6953 37.9526 55.4374C37.3564 56.1794 37.0524 57.1139 37.0977 58.0647C37.0945 62.0554 37.0945 66.0465 37.0977 70.0378C37.5655 73.504 35.3541 79.8466 40.3373 80.5499C40.3373 82.2205 39.9182 84.3353 42.3676 83.9552C44.9664 84.28 44.8787 82.5924 44.7829 80.5897H61.4615C61.5946 81.6934 60.8986 83.7505 62.5789 83.8098C65.6057 84.0153 66.132 83.4915 65.8859 80.4801C66.7695 80.3475 67.5786 79.9091 68.1722 79.2413C68.7658 78.5735 69.1063 77.7186 69.1344 76.8255C69.2416 71.1439 69.0873 65.4469 69.1344 59.7563ZM41.5311 48.5531C43.0392 30.8 67.7603 33.6774 64.7051 53.9504H62.6382C62.7941 49.1191 63.0711 43.3206 58.165 40.6519C52.1553 37.0924 43.831 41.3438 43.6004 48.4256C43.5403 50.2634 43.5842 52.1102 43.5915 53.948C42.9158 53.9521 42.2239 53.9147 41.5303 53.9261C41.5287 52.1362 41.5116 50.3438 41.5311 48.5531ZM61.4623 53.9504H44.7707C44.7812 49.6462 44.1275 44.5664 48.046 41.6508C49.3991 40.6137 51.045 40.0298 52.7493 39.9825C54.4536 39.9351 56.1294 40.4265 57.5381 41.3869C61.9179 44.0969 61.5743 49.444 61.4623 53.9504ZM41.8275 83.0692C41.7942 83.0692 41.8966 83.0903 41.8275 83.0692ZM43.5858 81.8875C43.5785 82.2245 43.6037 82.5673 43.5712 82.9027C43.5614 82.9287 43.4648 83.0781 43.5314 82.9936C42.9618 83.089 42.3822 83.1098 41.8072 83.0553C41.6383 83.0204 41.5246 82.7256 41.5311 82.6493C41.5311 81.9622 41.5311 81.2752 41.5311 80.5881C42.2174 80.58 42.9004 80.5841 43.5858 80.5832V81.8875ZM63.1296 83.2129C63.1099 83.2116 63.0904 83.2092 63.0711 83.2056C62.2354 82.7118 62.7885 81.41 62.6374 80.5946C63.3285 80.5946 64.018 80.5995 64.7099 80.5905C64.7714 81.4582 64.734 82.3301 64.5987 83.1893L64.5784 83.2137C64.096 83.2072 63.6103 83.191 63.1296 83.2129ZM67.9584 58.6096V75.9468C68.0908 79.5851 66.5161 80.2413 63.1231 79.9368C56.9696 79.9368 50.8202 79.9238 44.6659 79.966C44.544 79.8702 44.3934 79.8181 44.2383 79.8181C44.0833 79.8181 43.9327 79.8702 43.8107 79.966C43.0035 79.966 42.1962 79.9547 41.3898 79.936C41.3018 79.8709 41.198 79.8303 41.0892 79.8183C40.9803 79.8063 40.8703 79.8234 40.7702 79.8678C37.3503 79.1637 38.4402 74.9138 38.2737 72.3353V59.6873C38.0869 57.8194 38.2055 54.791 40.5793 54.6635C40.6891 54.7027 40.806 54.7183 40.9223 54.7093C41.0385 54.7004 41.1516 54.6671 41.2542 54.6115C49.1155 54.5839 56.9801 54.6115 64.8423 54.6018C64.9409 54.6654 65.0532 54.7043 65.17 54.7154C65.2868 54.7264 65.4044 54.7091 65.5131 54.6651C67.3453 54.9835 68.1525 56.8741 67.9584 58.6096Z" fill="#262626"/>
<path d="M55.604 61.8735C51.0561 59.5069 45.8001 65.2032 49.9728 69.0063C49.7178 70.7256 48.2429 73.8182 51.126 74.0098C55.9614 74.1503 57.999 74.126 56.2513 68.6766C56.768 68.2454 57.1718 67.6947 57.4279 67.0723C57.6839 66.4499 57.7844 65.7745 57.7206 65.1045C57.6569 64.4345 57.4308 63.7901 57.062 63.2271C56.6932 62.6642 56.1928 62.1995 55.604 61.8735ZM55.1241 68.8529C54.9462 70.24 56.7199 72.5886 55.0429 73.5218C53.4998 73.4292 50.3861 74.2787 50.4738 71.8374C50.6208 70.7646 51.0529 69.656 51.1292 68.61C48.4882 66.6894 49.6398 61.5624 53.1815 61.8556C56.5266 62.204 57.7724 66.8144 55.1241 68.8529Z" fill="#262626"/>
<path d="M40.3422 57.5839V77.0749C40.3422 77.6247 41.5262 77.4054 41.5262 76.9547V57.4637C41.5262 56.9139 40.3422 57.1332 40.3422 57.5839Z" fill="#262626"/>
<path d="M43.5884 57.5774V77.0684C43.5884 77.6475 44.7757 77.4469 44.7757 76.9612V57.4702C44.7757 56.8912 43.5884 57.0918 43.5884 57.5774Z" fill="#262626"/>
<path d="M61.4598 57.5928V77.0838C61.4598 77.593 62.639 77.3534 62.639 76.9457V57.4548C62.639 56.9456 61.4598 57.1843 61.4598 57.5928Z" fill="#262626"/>
<path d="M64.7109 57.6815V77.1725C64.7109 77.3852 65.8869 77.2122 65.8869 76.8573V57.3664C65.8869 57.1536 64.7109 57.3266 64.7109 57.6815Z" fill="#262626"/>
<circle cx="60" cy="60" r="59.25" stroke="url(#paint0_linear_4507_36609)" stroke-width="1.5"/>
<defs>
<linearGradient id="paint0_linear_4507_36609" x1="-2.40281e-06" y1="120" x2="120.548" y2="119.447" gradientUnits="userSpaceOnUse">
<stop stop-color="#CA9342"/>
<stop offset="0.331885" stop-color="#D3A347"/>
<stop offset="0.711985" stop-color="#D8AF53"/>
<stop offset="1" stop-color="#E0BF62"/>
</linearGradient>
</defs>
</svg>
