<svg width="34" height="35" viewBox="0 0 34 35" fill="none" xmlns="http://www.w3.org/2000/svg">
<g clip-path="url(#clip0_4121_270)">
<path d="M24.7024 10.276L17.9997 7.70239V5.4224H21.7395C22.2698 5.4224 22.5862 4.83125 22.292 4.38998L21.8978 3.79876C21.749 3.57571 21.749 3.28511 21.8978 3.06199L22.292 2.47077C22.5862 2.0295 22.2698 1.43835 21.7395 1.43835H17.9997C17.9997 0.888245 17.5537 0.442261 17.0036 0.442261C16.4535 0.442261 16.0075 0.888245 16.0075 1.43835V7.70239L9.30469 10.276H24.7024Z" fill="black"/>
<path d="M0.996094 14.2604C1.818 14.2604 1.85964 15.0901 1.85964 15.2564C1.85964 15.4228 1.818 16.2524 0.996094 16.2524H33.0039C32.294 16.2524 32.2734 15.3583 32.2734 15.2564C32.2734 15.1545 32.294 14.2604 33.0039 14.2604C33.554 14.2604 34 13.8144 34 13.2643C34 12.7142 33.554 12.2682 33.0039 12.2682H0.996094C0.445984 12.2682 0 12.7142 0 13.2643C0 13.8144 0.445984 14.2604 0.996094 14.2604Z" fill="black"/>
<path d="M16.9648 28.9303C16.4156 28.9303 15.9688 29.3771 15.9688 29.9263V34.4409H17.9609V29.9263C17.9609 29.3771 17.5141 28.9303 16.9648 28.9303V28.9303Z" fill="black"/>
<path d="M24.6016 34.4408H33.0063C33.5564 34.4408 34.0024 33.9949 34.0024 33.4448V18.2446H24.6016V34.4408ZM28.014 22.6221C28.014 22.072 28.46 21.626 29.0101 21.626C29.5603 21.626 30.0062 22.072 30.0062 22.6221V23.9501C30.0062 24.5002 29.5603 24.9462 29.0101 24.9462C28.46 24.9462 28.014 24.5002 28.014 23.9501V22.6221ZM28.014 27.9342C28.014 27.3841 28.46 26.9381 29.0101 26.9381C29.5603 26.9381 30.0062 27.3841 30.0062 27.9342V29.2622C30.0062 29.8123 29.5603 30.2583 29.0101 30.2583C28.46 30.2583 28.014 29.8123 28.014 29.2622V27.9342Z" fill="black"/>
<path d="M11.3203 34.4408H13.9765V29.9263C13.9765 28.2785 15.317 26.9381 16.9648 26.9381C18.6126 26.9381 19.9531 28.2786 19.9531 29.9263V34.4408H22.6092V18.2446H11.3203V34.4408ZM18.0483 22.6221C18.0483 22.072 18.4942 21.626 19.0444 21.626C19.5945 21.626 20.0405 22.072 20.0405 22.6221V23.9501C20.0405 24.5002 19.5945 24.9462 19.0444 24.9462C18.4942 24.9462 18.0483 24.5002 18.0483 23.9501V22.6221ZM13.9643 22.6221C13.9643 22.072 14.4103 21.626 14.9604 21.626C15.5105 21.626 15.9565 22.072 15.9565 22.6221V23.9501C15.9565 24.5002 15.5105 24.9462 14.9604 24.9462C14.4103 24.9462 13.9643 24.5002 13.9643 23.9501V22.6221Z" fill="black"/>
<path d="M0 33.4448C0 33.9949 0.445984 34.4408 0.996094 34.4408H9.32563V18.2446H0V33.4448ZM3.7471 22.6221C3.7471 22.072 4.19309 21.626 4.7432 21.626C5.29331 21.626 5.73929 22.072 5.73929 22.6221V23.9501C5.73929 24.5002 5.29331 24.9462 4.7432 24.9462C4.19309 24.9462 3.7471 24.5002 3.7471 23.9501V22.6221ZM3.7471 27.9342C3.7471 27.3841 4.19309 26.9381 4.7432 26.9381C5.29331 26.9381 5.73929 27.3841 5.73929 27.9342V29.2622C5.73929 29.8123 5.29331 30.2583 4.7432 30.2583C4.19309 30.2583 3.7471 29.8123 3.7471 29.2622V27.9342Z" fill="black"/>
</g>
<defs>
<clipPath id="clip0_4121_270">
<rect width="34" height="34" fill="white" transform="translate(0 0.441528)"/>
</clipPath>
</defs>
</svg>
