<?xml version="1.0" encoding="utf-8"?>
<!-- Generator: Adobe Illustrator 25.0.0, SVG Export Plug-In . SVG Version: 6.00 Build 0)  -->
<svg version="1.1" id="Layer_1" xmlns="http://www.w3.org/2000/svg" xmlns:xlink="http://www.w3.org/1999/xlink" x="0px" y="0px"
	 viewBox="0 0 560 85" style="enable-background:new 0 0 560 85;" xml:space="preserve">
<g>
	<g>
		<g>
			<linearGradient id="SVGID_1_" gradientUnits="userSpaceOnUse" x1="0" y1="42.5" x2="560" y2="42.5">
				<stop  offset="0" style="stop-color:#F8DD7B"/>
				<stop  offset="0.2038" style="stop-color:#B37E10"/>
				<stop  offset="0.2643" style="stop-color:#B58114"/>
				<stop  offset="0.3227" style="stop-color:#BD8C1F"/>
				<stop  offset="0.3803" style="stop-color:#CA9D33"/>
				<stop  offset="0.4373" style="stop-color:#DBB54E"/>
				<stop  offset="0.4935" style="stop-color:#F2D471"/>
				<stop  offset="0.5077" style="stop-color:#F8DD7B"/>
				<stop  offset="0.5189" style="stop-color:#FDF1A4"/>
				<stop  offset="0.5934" style="stop-color:#F8DD7B"/>
				<stop  offset="0.8428" style="stop-color:#B37E10"/>
				<stop  offset="0.9493" style="stop-color:#E4C15C"/>
				<stop  offset="1" style="stop-color:#F8DD7B"/>
			</linearGradient>
			<path style="fill:url(#SVGID_1_);" d="M560,85H451.8V68.6H108.2V85H0l16.5-34.3L0,16.4h61V0h438v16.4h61l-16.5,34.3L560,85z
				 M455.8,81h97.7l-14.5-30.2l14.5-30.2H495V4H65v16.4H6.4l14.5,30.2L6.4,81h97.7V64.5h351.7V81z"/>
		</g>
	</g>
	<g>
		<g>
			
				<linearGradient id="XMLID_2_" gradientUnits="userSpaceOnUse" x1="201.4673" y1="50.7036" x2="-60.7111" y2="50.7036" gradientTransform="matrix(-1 0 0 1 585.5 0)">
				<stop  offset="0" style="stop-color:#E22634"/>
				<stop  offset="6.811810e-02" style="stop-color:#AE0D1A"/>
				<stop  offset="0.1389" style="stop-color:#E22634"/>
				<stop  offset="0.3226" style="stop-color:#7F0603"/>
				<stop  offset="0.939" style="stop-color:#E22634"/>
			</linearGradient>
			<polygon id="XMLID_138_" style="fill:url(#XMLID_2_);" points="556.8,18.4 541.3,50.7 556.8,83 453.8,83 453.8,18.4 			"/>
			
				<linearGradient id="XMLID_3_" gradientUnits="userSpaceOnUse" x1="149.8188" y1="74.7726" x2="-140.6412" y2="74.7726" gradientTransform="matrix(-1 0 0 1 585.5 0)">
				<stop  offset="0" style="stop-color:#341200"/>
				<stop  offset="0.6022" style="stop-color:#C41804"/>
				<stop  offset="0.6218" style="stop-color:#C81F0C"/>
				<stop  offset="0.6517" style="stop-color:#D13321"/>
				<stop  offset="0.6882" style="stop-color:#E15344"/>
				<stop  offset="0.7295" style="stop-color:#F87F73"/>
				<stop  offset="0.7419" style="stop-color:#FF8E83"/>
				<stop  offset="0.7714" style="stop-color:#F56B5D"/>
				<stop  offset="0.8058" style="stop-color:#EA4837"/>
				<stop  offset="0.8377" style="stop-color:#E32F1B"/>
				<stop  offset="0.8658" style="stop-color:#DF1F0B"/>
				<stop  offset="0.8871" style="stop-color:#DD1A05"/>
				<stop  offset="1" style="stop-color:#FF1C06"/>
			</linearGradient>
			<polygon id="XMLID_137_" style="fill:url(#XMLID_3_);" points="497,66.6 453.8,83 453.8,66.6 			"/>
			<linearGradient id="XMLID_4_" gradientUnits="userSpaceOnUse" x1="175.9678" y1="50.7036" x2="-86.2106" y2="50.7036">
				<stop  offset="0" style="stop-color:#5B1200"/>
				<stop  offset="0.6022" style="stop-color:#C41804"/>
				<stop  offset="0.6218" style="stop-color:#C81F0C"/>
				<stop  offset="0.6517" style="stop-color:#D13321"/>
				<stop  offset="0.6882" style="stop-color:#E15344"/>
				<stop  offset="0.7295" style="stop-color:#F87F73"/>
				<stop  offset="0.7419" style="stop-color:#FF8E83"/>
				<stop  offset="0.7714" style="stop-color:#F56B5D"/>
				<stop  offset="0.8058" style="stop-color:#EA4837"/>
				<stop  offset="0.8377" style="stop-color:#E32F1B"/>
				<stop  offset="0.8658" style="stop-color:#DF1F0B"/>
				<stop  offset="0.8871" style="stop-color:#DD1A05"/>
				<stop  offset="1" style="stop-color:#FF1C06"/>
			</linearGradient>
			<polygon id="XMLID_139_" style="fill:url(#XMLID_4_);" points="3.2,18.4 18.7,50.7 3.2,83 106.2,83 106.2,18.4 			"/>
			<linearGradient id="XMLID_5_" gradientUnits="userSpaceOnUse" x1="63.0275" y1="34.2965" x2="581.1237" y2="34.2965">
				<stop  offset="0" style="stop-color:#E22634"/>
				<stop  offset="6.811810e-02" style="stop-color:#AE0D1A"/>
				<stop  offset="0.1389" style="stop-color:#E22634"/>
				<stop  offset="0.3226" style="stop-color:#7F0603"/>
				<stop  offset="0.939" style="stop-color:#E22634"/>
			</linearGradient>
			<rect id="XMLID_134_" x="63" y="2" style="fill:url(#XMLID_5_);" width="433.9" height="64.5"/>
			<linearGradient id="XMLID_6_" gradientUnits="userSpaceOnUse" x1="124.3193" y1="74.7726" x2="-166.1407" y2="74.7726">
				<stop  offset="0" style="stop-color:#5B1200"/>
				<stop  offset="0.6022" style="stop-color:#C41804"/>
				<stop  offset="0.6218" style="stop-color:#C81F0C"/>
				<stop  offset="0.6517" style="stop-color:#D13321"/>
				<stop  offset="0.6882" style="stop-color:#E15344"/>
				<stop  offset="0.7295" style="stop-color:#F87F73"/>
				<stop  offset="0.7419" style="stop-color:#FF8E83"/>
				<stop  offset="0.7714" style="stop-color:#F56B5D"/>
				<stop  offset="0.8058" style="stop-color:#EA4837"/>
				<stop  offset="0.8377" style="stop-color:#E32F1B"/>
				<stop  offset="0.8658" style="stop-color:#DF1F0B"/>
				<stop  offset="0.8871" style="stop-color:#DD1A05"/>
				<stop  offset="1" style="stop-color:#FF1C06"/>
			</linearGradient>
			<polygon id="XMLID_136_" style="fill:url(#XMLID_6_);" points="63,66.6 106.2,83 106.2,66.6 			"/>
		</g>
		<g>
			<g style="opacity:0.4;">
				<path d="M120.1,52.7c-1.4,0-2.6-0.2-3.7-0.5c-1.1-0.4-2-0.8-2.7-1.5c-0.7-0.6-1.3-1.4-1.7-2.4c-0.4-0.9-0.7-1.9-0.9-3
					c-0.2-1.1-0.3-2.3-0.3-3.6V30.3c0-1.4,0.1-2.7,0.3-3.8c0.2-1.1,0.5-2.1,0.9-3.1c0.4-0.9,1-1.7,1.7-2.3c0.7-0.6,1.6-1.1,2.7-1.4
					c1.1-0.3,2.3-0.5,3.7-0.5c1.6,0,3,0.2,4.2,0.7c1.2,0.4,2.1,1.1,2.7,1.9c0.7,0.8,1.2,1.8,1.5,3c0.3,1.1,0.5,2.4,0.5,3.9v2.8h-5.7
					v-2.8c0-1.6-0.1-2.7-0.3-3.3c-0.3-1.1-1.2-1.7-2.5-1.8c-0.1,0-0.2,0-0.3,0c-0.5,0-0.9,0.1-1.3,0.2c-0.4,0.1-0.7,0.3-0.9,0.6
					c-0.2,0.3-0.4,0.5-0.6,0.8c-0.1,0.3-0.3,0.7-0.3,1.1c-0.1,0.5-0.1,0.9-0.1,1.3c0,0.4,0,0.9,0,1.5V43c0,1.9,0.2,3.3,0.7,4.1
					c0.5,0.8,1.3,1.2,2.6,1.2c0.4,0,0.8,0,1.1-0.1c0.3-0.1,0.6-0.2,0.8-0.4c0.2-0.2,0.4-0.4,0.6-0.7c0.2-0.3,0.3-0.5,0.3-0.8
					s0.1-0.6,0.2-1c0-0.4,0.1-0.8,0.1-1.1c0-0.3,0-0.7,0-1.2V40h5.7v2.7c0,1.2-0.1,2.3-0.3,3.3c-0.2,1-0.5,1.9-0.9,2.7
					c-0.4,0.9-0.9,1.6-1.6,2.1c-0.7,0.6-1.5,1-2.5,1.3C122.7,52.6,121.5,52.7,120.1,52.7z"/>
				<path d="M154,52.7c-3.4,0-5.8-0.9-7.2-2.7s-2.2-4.5-2.2-8V29.8c0-1.7,0.2-3.2,0.5-4.5c0.3-1.3,0.9-2.4,1.6-3.3
					c0.7-0.9,1.7-1.6,2.9-2.1c1.2-0.5,2.7-0.7,4.4-0.7c3.3,0,5.7,0.9,7.2,2.7c1.5,1.8,2.2,4.5,2.2,7.9v12.1c0,1.7-0.2,3.2-0.5,4.5
					c-0.3,1.3-0.9,2.4-1.6,3.4s-1.7,1.7-2.9,2.2C157.2,52.5,155.7,52.7,154,52.7z M152.5,48c0.4,0.2,0.9,0.3,1.5,0.3
					c0.6,0,1.1-0.1,1.5-0.3c0.4-0.2,0.7-0.4,1-0.7c0.2-0.3,0.4-0.6,0.6-1.1c0.1-0.4,0.2-0.9,0.3-1.3c0-0.4,0.1-1,0.1-1.6V28.5
					c0-0.8,0-1.4-0.1-2c-0.1-0.5-0.2-1-0.5-1.5c-0.2-0.5-0.6-0.8-1-1c-0.5-0.2-1-0.3-1.7-0.3c-0.7,0-1.3,0.1-1.8,0.3
					c-0.5,0.2-0.8,0.6-1,1c-0.2,0.5-0.4,1-0.5,1.5c-0.1,0.5-0.1,1.2-0.1,2v14.9c0,0.6,0,1.2,0.1,1.6c0,0.4,0.1,0.9,0.3,1.3
					c0.1,0.4,0.3,0.8,0.6,1.1S152.1,47.9,152.5,48z"/>
				<path d="M179.8,52.3l0.5-32.8h6.1l4.7,23l4.9-23h6l0.6,32.8H198l-0.4-22.6l-4.7,22.6h-3.5l-4.8-22.6l-0.4,22.6H179.8z"/>
				<path d="M219.5,52.3V19.6h5.9v32.8H219.5z"/>
				<path d="M242.5,52.3V19.6h4.1l8,18.6V19.6h4.9v32.8h-3.9l-8.1-19.5v19.5H242.5z"/>
				<path d="M284.6,52.8c-3.1,0-5.3-1-6.7-2.9s-2-4.8-2-8.5V30.7c0-1.9,0.1-3.5,0.4-4.9c0.3-1.4,0.8-2.6,1.5-3.6
					c0.7-1,1.7-1.8,2.9-2.3c1.2-0.5,2.7-0.8,4.5-0.8c3.2,0,5.5,0.8,6.9,2.4s2.1,4,2.1,7.2v1.6h-5.7v-1.7c0-0.7,0-1.3,0-1.8
					c0-0.5-0.1-0.9-0.2-1.4c-0.1-0.5-0.3-0.8-0.5-1.1c-0.2-0.3-0.6-0.5-1-0.6c-0.4-0.2-0.9-0.2-1.5-0.2c-0.4,0-0.8,0.1-1.2,0.2
					s-0.6,0.3-0.9,0.4s-0.4,0.4-0.6,0.7c-0.2,0.3-0.3,0.6-0.4,0.9c-0.1,0.3-0.2,0.6-0.2,1.1s-0.1,0.8-0.1,1.2c0,0.3,0,0.8,0,1.3
					v13.2c0,2,0.2,3.4,0.7,4.3c0.5,0.9,1.4,1.4,2.8,1.4c0.7,0,1.3-0.1,1.8-0.4c0.5-0.3,0.9-0.7,1.1-1.2c0.3-0.5,0.5-1.2,0.6-1.9
					c0.1-0.7,0.2-1.6,0.2-2.6v-2.7h-3.5v-3.9h8.9v16.6h-3.9l-0.4-3.3C289.1,51.5,287.3,52.8,284.6,52.8z"/>
				<path d="M341.1,52.7c-5.7,0-8.8-3.3-9-10l5.2-1.1c0.1,4.3,1.4,6.5,3.7,6.5c0.9,0,1.6-0.3,2-0.8c0.4-0.6,0.7-1.3,0.7-2.2
					c0-0.9-0.2-1.7-0.5-2.5c-0.3-0.8-0.7-1.4-1.1-1.9c-0.4-0.5-1-1.1-1.8-1.8l-4.3-3.7c-1.3-1.1-2.2-2.3-2.8-3.4
					c-0.6-1.2-0.9-2.7-0.9-4.5c0-2.5,0.7-4.5,2.2-5.9c1.5-1.4,3.5-2.1,6.1-2.2c1.2,0,2.2,0.1,3.2,0.4c0.9,0.3,1.7,0.7,2.3,1.2
					c0.6,0.5,1.1,1.2,1.5,1.9s0.7,1.6,0.9,2.4c0.2,0.8,0.3,1.8,0.4,2.8l-5.1,1c0-0.7-0.1-1.2-0.1-1.7c-0.1-0.5-0.2-1-0.3-1.5
					c-0.1-0.5-0.3-0.9-0.6-1.2c-0.2-0.3-0.5-0.6-0.9-0.7s-0.8-0.3-1.3-0.2c-0.9,0.1-1.6,0.3-2,0.9s-0.7,1.2-0.7,2.1
					c0,1.1,0.2,1.9,0.6,2.6c0.4,0.7,1.1,1.4,1.9,2.2l4.2,3.7c0.7,0.6,1.3,1.3,1.8,1.9s1,1.3,1.5,2.1c0.5,0.8,0.8,1.6,1.1,2.6
					s0.4,1.9,0.4,3c0,2.4-0.8,4.3-2.3,5.8C345.5,52,343.5,52.7,341.1,52.7z"/>
				<path d="M373.7,52.7c-3.4,0-5.8-0.9-7.2-2.7s-2.2-4.5-2.2-8V29.8c0-1.7,0.2-3.2,0.5-4.5c0.3-1.3,0.9-2.4,1.6-3.3
					c0.7-0.9,1.7-1.6,2.9-2.1c1.2-0.5,2.7-0.7,4.4-0.7c3.3,0,5.7,0.9,7.2,2.7c1.5,1.8,2.2,4.5,2.2,7.9v12.1c0,1.7-0.2,3.2-0.5,4.5
					c-0.3,1.3-0.9,2.4-1.6,3.4c-0.7,1-1.7,1.7-2.9,2.2C376.8,52.5,375.4,52.7,373.7,52.7z M372.2,48c0.4,0.2,0.9,0.3,1.5,0.3
					c0.6,0,1.1-0.1,1.5-0.3c0.4-0.2,0.7-0.4,1-0.7c0.2-0.3,0.4-0.6,0.6-1.1c0.1-0.4,0.2-0.9,0.3-1.3c0-0.4,0.1-1,0.1-1.6V28.5
					c0-0.8,0-1.4-0.1-2c-0.1-0.5-0.2-1-0.5-1.5c-0.2-0.5-0.6-0.8-1-1c-0.5-0.2-1-0.3-1.7-0.3s-1.3,0.1-1.8,0.3c-0.5,0.2-0.8,0.6-1,1
					c-0.2,0.5-0.4,1-0.5,1.5c-0.1,0.5-0.1,1.2-0.1,2v14.9c0,0.6,0,1.2,0.1,1.6c0,0.4,0.1,0.9,0.3,1.3c0.1,0.4,0.3,0.8,0.6,1.1
					S371.8,47.9,372.2,48z"/>
				<path d="M408.3,52.7c-3.4,0-5.8-0.9-7.2-2.7c-1.5-1.8-2.2-4.5-2.2-8V29.8c0-1.7,0.2-3.2,0.5-4.5c0.3-1.3,0.9-2.4,1.6-3.3
					c0.7-0.9,1.7-1.6,2.9-2.1c1.2-0.5,2.7-0.7,4.4-0.7c3.3,0,5.7,0.9,7.2,2.7s2.2,4.5,2.2,7.9v12.1c0,1.7-0.2,3.2-0.5,4.5
					c-0.3,1.3-0.9,2.4-1.6,3.4c-0.7,1-1.7,1.7-2.9,2.2C411.5,52.5,410,52.7,408.3,52.7z M406.9,48c0.4,0.2,0.9,0.3,1.5,0.3
					c0.6,0,1.1-0.1,1.5-0.3c0.4-0.2,0.7-0.4,1-0.7c0.2-0.3,0.4-0.6,0.6-1.1c0.1-0.4,0.2-0.9,0.3-1.3c0-0.4,0.1-1,0.1-1.6V28.5
					c0-0.8,0-1.4-0.1-2s-0.2-1-0.5-1.5s-0.6-0.8-1-1c-0.5-0.2-1-0.3-1.7-0.3c-0.7,0-1.3,0.1-1.8,0.3c-0.5,0.2-0.8,0.6-1,1
					c-0.2,0.5-0.4,1-0.5,1.5c-0.1,0.5-0.1,1.2-0.1,2v14.9c0,0.6,0,1.2,0.1,1.6c0,0.4,0.1,0.9,0.3,1.3c0.1,0.4,0.3,0.8,0.6,1.1
					C406.1,47.6,406.4,47.9,406.9,48z"/>
				<path d="M434.2,52.3V19.6h4.1l8,18.6V19.6h4.9v32.8h-3.9l-8.1-19.5v19.5H434.2z"/>
			</g>
			<g>
				<g>
					<path style="fill:#FFFFFF;" d="M119.1,51.7c-1.4,0-2.6-0.2-3.7-0.5c-1.1-0.4-2-0.8-2.7-1.5c-0.7-0.6-1.3-1.4-1.7-2.4
						c-0.4-0.9-0.7-1.9-0.9-3c-0.2-1.1-0.3-2.3-0.3-3.6V29.3c0-1.4,0.1-2.7,0.3-3.8c0.2-1.1,0.5-2.1,0.9-3.1c0.4-0.9,1-1.7,1.7-2.3
						c0.7-0.6,1.6-1.1,2.7-1.4c1.1-0.3,2.3-0.5,3.7-0.5c1.6,0,3,0.2,4.2,0.7c1.2,0.4,2.1,1.1,2.7,1.9c0.7,0.8,1.2,1.8,1.5,3
						c0.3,1.1,0.5,2.4,0.5,3.9v2.8h-5.7v-2.8c0-1.6-0.1-2.7-0.3-3.3c-0.3-1.1-1.2-1.7-2.5-1.8c-0.1,0-0.2,0-0.3,0
						c-0.5,0-0.9,0.1-1.3,0.2c-0.4,0.1-0.7,0.3-0.9,0.6c-0.2,0.3-0.4,0.5-0.6,0.8c-0.1,0.3-0.3,0.7-0.3,1.1
						c-0.1,0.5-0.1,0.9-0.1,1.3c0,0.4,0,0.9,0,1.5V42c0,1.9,0.2,3.3,0.7,4.1c0.5,0.8,1.3,1.2,2.6,1.2c0.4,0,0.8,0,1.1-0.1
						c0.3-0.1,0.6-0.2,0.8-0.4c0.2-0.2,0.4-0.4,0.6-0.7c0.2-0.3,0.3-0.5,0.3-0.8s0.1-0.6,0.2-1c0-0.4,0.1-0.8,0.1-1.1
						c0-0.3,0-0.7,0-1.2V39h5.7v2.7c0,1.2-0.1,2.3-0.3,3.3c-0.2,1-0.5,1.9-0.9,2.7c-0.4,0.9-0.9,1.6-1.6,2.1c-0.7,0.6-1.5,1-2.5,1.3
						C121.7,51.6,120.5,51.7,119.1,51.7z"/>
					<path style="fill:#FFFFFF;" d="M153,51.7c-3.4,0-5.8-0.9-7.2-2.7s-2.2-4.5-2.2-8V28.8c0-1.7,0.2-3.2,0.5-4.5
						c0.3-1.3,0.9-2.4,1.6-3.3c0.7-0.9,1.7-1.6,2.9-2.1c1.2-0.5,2.7-0.7,4.4-0.7c3.3,0,5.7,0.9,7.2,2.7c1.5,1.8,2.2,4.5,2.2,7.9
						v12.1c0,1.7-0.2,3.2-0.5,4.5c-0.3,1.3-0.9,2.4-1.6,3.4s-1.7,1.7-2.9,2.2C156.2,51.5,154.7,51.7,153,51.7z M151.5,47
						c0.4,0.2,0.9,0.3,1.5,0.3c0.6,0,1.1-0.1,1.5-0.3c0.4-0.2,0.7-0.4,1-0.7c0.2-0.3,0.4-0.6,0.6-1.1c0.1-0.4,0.2-0.9,0.3-1.3
						c0-0.4,0.1-1,0.1-1.6V27.5c0-0.8,0-1.4-0.1-2c-0.1-0.5-0.2-1-0.5-1.5c-0.2-0.5-0.6-0.8-1-1c-0.5-0.2-1-0.3-1.7-0.3
						c-0.7,0-1.3,0.1-1.8,0.3c-0.5,0.2-0.8,0.6-1,1c-0.2,0.5-0.4,1-0.5,1.5c-0.1,0.5-0.1,1.2-0.1,2v14.9c0,0.6,0,1.2,0.1,1.6
						c0,0.4,0.1,0.9,0.3,1.3c0.1,0.4,0.3,0.8,0.6,1.1S151.1,46.9,151.5,47z"/>
					<path style="fill:#FFFFFF;" d="M178.8,51.3l0.5-32.8h6.1l4.7,23l4.9-23h6l0.6,32.8H197l-0.4-22.6l-4.7,22.6h-3.5l-4.8-22.6
						l-0.4,22.6H178.8z"/>
					<path style="fill:#FFFFFF;" d="M218.5,51.3V18.6h5.9v32.8H218.5z"/>
					<path style="fill:#FFFFFF;" d="M241.5,51.3V18.6h4.1l8,18.6V18.6h4.9v32.8h-3.9l-8.1-19.5v19.5H241.5z"/>
					<path style="fill:#FFFFFF;" d="M283.6,51.8c-3.1,0-5.3-1-6.7-2.9s-2-4.8-2-8.5V29.7c0-1.9,0.1-3.5,0.4-4.9
						c0.3-1.4,0.8-2.6,1.5-3.6c0.7-1,1.7-1.8,2.9-2.3c1.2-0.5,2.7-0.8,4.5-0.8c3.2,0,5.5,0.8,6.9,2.4s2.1,4,2.1,7.2v1.6h-5.7v-1.7
						c0-0.7,0-1.3,0-1.8c0-0.5-0.1-0.9-0.2-1.4c-0.1-0.5-0.3-0.8-0.5-1.1c-0.2-0.3-0.6-0.5-1-0.6c-0.4-0.2-0.9-0.2-1.5-0.2
						c-0.4,0-0.8,0.1-1.2,0.2s-0.6,0.3-0.9,0.4s-0.4,0.4-0.6,0.7c-0.2,0.3-0.3,0.6-0.4,0.9c-0.1,0.3-0.2,0.6-0.2,1.1
						s-0.1,0.8-0.1,1.2c0,0.3,0,0.8,0,1.3v13.2c0,2,0.2,3.4,0.7,4.3c0.5,0.9,1.4,1.4,2.8,1.4c0.7,0,1.3-0.1,1.8-0.4
						c0.5-0.3,0.9-0.7,1.1-1.2c0.3-0.5,0.5-1.2,0.6-1.9c0.1-0.7,0.2-1.6,0.2-2.6v-2.7h-3.5v-3.9h8.9v16.6h-3.9l-0.4-3.3
						C288.1,50.5,286.3,51.8,283.6,51.8z"/>
					<path style="fill:#FFFFFF;" d="M340.1,51.7c-5.7,0-8.8-3.3-9-10l5.2-1.1c0.1,4.3,1.4,6.5,3.7,6.5c0.9,0,1.6-0.3,2-0.8
						c0.4-0.6,0.7-1.3,0.7-2.2c0-0.9-0.2-1.7-0.5-2.5c-0.3-0.8-0.7-1.4-1.1-1.9c-0.4-0.5-1-1.1-1.8-1.8l-4.3-3.7
						c-1.3-1.1-2.2-2.3-2.8-3.4s-0.9-2.7-0.9-4.5c0-2.5,0.7-4.5,2.2-5.9c1.5-1.4,3.5-2.1,6.1-2.2c1.2,0,2.2,0.1,3.2,0.4
						c0.9,0.3,1.7,0.7,2.3,1.2c0.6,0.5,1.1,1.2,1.5,1.9s0.7,1.6,0.9,2.4c0.2,0.8,0.3,1.8,0.4,2.8l-5.1,1c0-0.7-0.1-1.2-0.1-1.7
						c-0.1-0.5-0.2-1-0.3-1.5c-0.1-0.5-0.3-0.9-0.6-1.2c-0.2-0.3-0.5-0.6-0.9-0.7s-0.8-0.3-1.3-0.2c-0.9,0.1-1.6,0.3-2,0.9
						s-0.7,1.2-0.7,2.1c0,1.1,0.2,1.9,0.6,2.6c0.4,0.7,1.1,1.4,1.9,2.2l4.2,3.7c0.7,0.6,1.3,1.3,1.8,1.9s1,1.3,1.5,2.1
						c0.5,0.8,0.8,1.6,1.1,2.6s0.4,1.9,0.4,3c0,2.4-0.8,4.3-2.3,5.8C344.5,51,342.5,51.7,340.1,51.7z"/>
					<path style="fill:#FFFFFF;" d="M372.7,51.7c-3.4,0-5.8-0.9-7.2-2.7s-2.2-4.5-2.2-8V28.8c0-1.7,0.2-3.2,0.5-4.5
						c0.3-1.3,0.9-2.4,1.6-3.3c0.7-0.9,1.7-1.6,2.9-2.1c1.2-0.5,2.7-0.7,4.4-0.7c3.3,0,5.7,0.9,7.2,2.7c1.5,1.8,2.2,4.5,2.2,7.9
						v12.1c0,1.7-0.2,3.2-0.5,4.5c-0.3,1.3-0.9,2.4-1.6,3.4c-0.7,1-1.7,1.7-2.9,2.2C375.8,51.5,374.4,51.7,372.7,51.7z M371.2,47
						c0.4,0.2,0.9,0.3,1.5,0.3c0.6,0,1.1-0.1,1.5-0.3c0.4-0.2,0.7-0.4,1-0.7c0.2-0.3,0.4-0.6,0.6-1.1c0.1-0.4,0.2-0.9,0.3-1.3
						c0-0.4,0.1-1,0.1-1.6V27.5c0-0.8,0-1.4-0.1-2c-0.1-0.5-0.2-1-0.5-1.5c-0.2-0.5-0.6-0.8-1-1c-0.5-0.2-1-0.3-1.7-0.3
						s-1.3,0.1-1.8,0.3c-0.5,0.2-0.8,0.6-1,1c-0.2,0.5-0.4,1-0.5,1.5c-0.1,0.5-0.1,1.2-0.1,2v14.9c0,0.6,0,1.2,0.1,1.6
						c0,0.4,0.1,0.9,0.3,1.3c0.1,0.4,0.3,0.8,0.6,1.1S370.8,46.9,371.2,47z"/>
					<path style="fill:#FFFFFF;" d="M407.3,51.7c-3.4,0-5.8-0.9-7.2-2.7c-1.5-1.8-2.2-4.5-2.2-8V28.8c0-1.7,0.2-3.2,0.5-4.5
						c0.3-1.3,0.9-2.4,1.6-3.3c0.7-0.9,1.7-1.6,2.9-2.1c1.2-0.5,2.7-0.7,4.4-0.7c3.3,0,5.7,0.9,7.2,2.7s2.2,4.5,2.2,7.9v12.1
						c0,1.7-0.2,3.2-0.5,4.5c-0.3,1.3-0.9,2.4-1.6,3.4c-0.7,1-1.7,1.7-2.9,2.2C410.5,51.5,409,51.7,407.3,51.7z M405.9,47
						c0.4,0.2,0.9,0.3,1.5,0.3c0.6,0,1.1-0.1,1.5-0.3c0.4-0.2,0.7-0.4,1-0.7c0.2-0.3,0.4-0.6,0.6-1.1c0.1-0.4,0.2-0.9,0.3-1.3
						c0-0.4,0.1-1,0.1-1.6V27.5c0-0.8,0-1.4-0.1-2s-0.2-1-0.5-1.5s-0.6-0.8-1-1c-0.5-0.2-1-0.3-1.7-0.3c-0.7,0-1.3,0.1-1.8,0.3
						c-0.5,0.2-0.8,0.6-1,1c-0.2,0.5-0.4,1-0.5,1.5c-0.1,0.5-0.1,1.2-0.1,2v14.9c0,0.6,0,1.2,0.1,1.6c0,0.4,0.1,0.9,0.3,1.3
						c0.1,0.4,0.3,0.8,0.6,1.1C405.1,46.6,405.4,46.9,405.9,47z"/>
					<path style="fill:#FFFFFF;" d="M433.2,51.3V18.6h4.1l8,18.6V18.6h4.9v32.8h-3.9l-8.1-19.5v19.5H433.2z"/>
				</g>
			</g>
		</g>
	</g>
</g>
</svg>
