<svg width="40" height="40" viewBox="0 0 40 40" fill="none" xmlns="http://www.w3.org/2000/svg">
<path d="M8.06064 31.7576V29.0909L7.27276 27.0303C5.93942 26.7273 4.96973 26.3636 4.54548 26.2424L5.03033 24.606L3.63639 24.4848L3.51518 22.0606H5.75761L5.93942 21.5151H5.21215C4.7273 21.8788 4.12124 22 3.51518 21.8182C3.39397 21.7576 3.21215 21.697 3.09094 21.6363C3.09094 21.5757 3.03033 21.697 3.03033 21.8182L3.15154 24.4848H2.60609C1.51518 24.4242 1.03033 25.697 1.21215 26.7879C1.33336 27.5151 0.787907 24.0606 2.30306 34.1212H2.6667V34.4848C2.6667 34.606 2.7273 34.7273 2.84851 34.7273C2.96973 34.7273 3.03033 34.606 3.03033 34.4848V34.1212H7.09094L8.06064 31.7576Z" fill="black"/>
<path d="M9.75763 27.4544C9.15157 27.3938 8.54551 27.2726 7.93945 27.1514L8.84854 29.6968L9.75763 27.4544Z" fill="black"/>
<path d="M13.2724 31.394L11.333 36.3031L12.0603 38.2425C12.4239 39.2122 13.4542 39.6365 14.3027 39.2728C15.2118 38.9092 15.6966 37.9395 15.333 37.0304L13.2724 31.394Z" fill="black"/>
<path d="M37.6362 25.0909H36.4241L36.5453 22.4242C36.5453 22.2424 36.4241 22.1212 36.2422 22.1212H36.121C35.9998 22.3636 35.818 22.5455 35.5756 22.6667H35.9392L35.818 25.0909L33.0301 25.1515L32.9695 22.6061H33.5756C33.3938 22.4242 33.2119 22.2424 33.0907 22H32.6665C32.5453 22 32.3635 22.1212 32.3635 22.303L32.4241 25.1515H32.1816L32.3029 34.6667H36.4847V35.0303C36.4847 35.1515 36.6059 35.2727 36.7271 35.2727C36.8483 35.2727 36.9695 35.1515 36.9695 35.0303V34.6667H37.3938C39.2726 23.9394 38.6059 27.6364 38.7271 26.8485C38.6665 25.3939 37.6362 25.0909 37.6362 25.0909Z" fill="black"/>
<path d="M14.1822 27.4543C12.9701 27.5755 11.6973 27.6361 10.364 27.5149C10.364 27.5755 6.36401 37.5149 6.60643 36.9088C6.2428 37.8179 6.66704 38.8482 7.57613 39.2119C8.48522 39.5755 9.51552 39.1513 9.87916 38.2422C9.93977 38.121 14.4852 26.727 14.1822 27.4543Z" fill="black"/>
<path d="M11.879 7.69663C13.7578 7.69663 15.3336 6.18148 15.3336 4.24208C15.3336 2.3633 13.8184 0.848145 11.879 0.848145C10.0002 0.848145 8.48509 2.3633 8.48509 4.24208C8.42448 6.18148 10.0002 7.69663 11.879 7.69663Z" fill="black"/>
<path d="M28.1215 7.51505C30.0294 7.51505 31.5761 5.9684 31.5761 4.0605C31.5761 2.15261 30.0294 0.605957 28.1215 0.605957C26.2136 0.605957 24.667 2.15261 24.667 4.0605C24.667 5.9684 26.2136 7.51505 28.1215 7.51505Z" fill="black"/>
<path d="M33.4544 21.5757C33.5756 22.1817 34.2422 22.606 34.8483 22.4242C35.4544 22.3029 35.8786 21.6363 35.6968 21.0302C31.9998 5.51507 33.7574 12.9696 33.2725 10.8484C33.2119 10.4848 32.9089 10.1817 32.5453 10.0605C32.5453 10.0605 32.5453 10.0605 32.4847 10.0605C29.3937 7.99992 26.3634 7.8787 23.5756 9.93931C23.2119 10.0605 22.9089 10.4242 22.8483 10.7878L20.4241 23.0908C20.3028 23.7575 20.7271 24.3636 21.3331 24.4848C21.9998 24.606 22.6059 24.1817 22.7271 23.5757L23.7574 18.2423C24.3028 24.3029 24.121 24.1211 24.3634 24.4242L23.2725 37.3333C23.2119 38.3029 23.9392 39.1514 24.9089 39.212C25.7574 39.3333 26.7271 38.606 26.7877 37.5757C26.9089 36.2423 26.3634 42.3636 27.8786 24.606H27.9392L28.121 37.5151C28.121 38.4848 28.9089 39.2726 29.8786 39.2726C30.8483 39.2726 31.6362 38.4848 31.6362 37.4545C31.3937 21.0302 31.4544 26.3636 31.4544 25.212V24.4242C31.5756 24.3029 31.6968 24.1211 31.6968 23.9393L31.818 22.5454L32.2422 17.0302C32.4241 17.1514 33.515 21.8787 33.4544 21.5757Z" fill="black"/>
<path d="M19.4545 18.2425C19.4545 18.2425 19.3333 18.1819 19.0303 18.1819L18.909 16.9092L19.5151 16.485C20.0606 16.1213 20.1818 15.394 19.8181 14.8486C19.4545 14.3031 18.7272 14.1819 18.1818 14.5456L17.7575 14.8486C16.5454 9.63647 16.6666 9.81829 16.4242 9.45465C16.2424 9.15162 15.8787 8.9698 15.5151 8.9698C12.8484 8.18192 10.2424 8.12132 7.75752 8.9698C7.69692 8.9698 7.27267 8.9698 6.84843 9.39405C6.66661 9.63647 6.96964 8.84859 2.96964 19.7577C2.72722 20.3637 3.03025 21.0304 3.69691 21.2728C4.30298 21.5153 4.96964 21.2122 5.21207 20.5456C5.87873 18.7274 7.93934 13.0304 7.81813 13.394L8.06055 16.1819C7.81813 16.9092 8.84843 13.5153 5.87873 23.394C5.87873 23.4547 5.09085 26.0001 5.15146 25.8183C9.33328 27.2122 14.0606 27.5153 18.0606 25.8183L15.1515 16.1819L15.2727 14.788L15.8181 17.0304C15.9999 17.6971 16.7272 18.1213 17.2727 17.8789L17.3939 18.9092C17.3939 18.9092 17.3333 18.9092 17.3333 18.9698C17.3333 18.9698 17.2121 19.8183 17.1515 20.6668C17.0909 21.6365 17.2121 22.6668 17.7575 22.6062C17.8787 22.6062 19.1515 22.6668 19.5151 22.1213C19.5151 22.1213 20.5454 21.8789 20.5454 21.394L19.4545 18.2425ZM17.7575 18.7274L17.6363 17.8183C17.7575 17.7577 18.6666 17.091 18.606 17.1516L18.7272 18.2425C18.2424 18.3637 17.8181 18.6668 17.7575 18.7274Z" fill="black"/>
</svg>
