<svg width="40" height="40" viewBox="0 0 40 40" fill="none" xmlns="http://www.w3.org/2000/svg">
<g clip-path="url(#clip0_4129_358)">
<path d="M29.1834 10.2062C31.4739 10.2062 33.3307 8.34938 33.3307 6.0589C33.3307 3.76842 31.4739 1.91162 29.1834 1.91162C26.8929 1.91162 25.0361 3.76842 25.0361 6.0589C25.0361 8.34938 26.8929 10.2062 29.1834 10.2062Z" fill="black"/>
<path d="M39.7515 22.774L33.3688 11.8184C33.0631 11.2936 32.4422 10.9227 31.9744 10.9227C31.8622 10.9227 26.6536 10.9227 26.5414 10.9227C26.0736 10.9227 25.4528 11.2936 25.147 11.8184L20.3381 20.0727L14.9997 10.9097C14.6599 10.3264 14.0464 10.0031 13.4165 10.0042C13.4049 10.0035 13.3935 10.0024 13.3817 10.0024H8.24928C8.23756 10.0024 8.2261 10.0035 8.21456 10.0042C7.58462 10.003 6.97122 10.3263 6.63137 10.9097L0.248568 21.8652C-0.259159 22.7365 0.035732 23.8545 0.907108 24.3622C1.19631 24.5307 1.51255 24.6108 1.82467 24.6108C2.45321 24.6108 3.06495 24.2859 3.40419 23.7037L6.21943 18.8715V20.9403L4.95947 30.0193C4.85336 30.7841 5.44743 31.4663 6.21952 31.4663V37.0236C6.21952 38.0684 7.03202 38.9583 8.07616 38.9955C9.17245 39.0345 10.0736 38.1574 10.0736 37.0698V31.4662H11.596V37.0235C11.596 38.0684 12.4085 38.9583 13.4529 38.9954C14.5492 39.0344 15.45 38.1573 15.45 37.0697V31.4661C16.2221 31.4661 16.8162 30.7839 16.7101 30.0191L15.45 20.94V18.9376L18.2266 23.7035C18.3211 23.8655 18.9766 25.011 19.4227 25.2709C19.7119 25.4393 20.0281 25.5194 20.3402 25.5194C20.9688 25.5194 21.5805 25.1946 21.9198 24.6123L24.6557 19.9162L24.6293 36.0796C24.6293 37.1439 25.492 38.0066 26.5562 38.0066C26.5607 38.0066 26.565 38.006 26.5694 38.0059C26.5739 38.0059 26.5782 38.0066 26.5827 38.0066C27.647 38.0066 28.5098 37.1439 28.5098 36.0796L28.4834 26.3268C28.4834 25.9214 28.7893 25.5674 29.194 25.5412C29.6373 25.5125 30.0059 25.8636 30.0059 26.3008V36.0333C30.0059 37.0782 30.8184 37.9681 31.8625 38.0053C32.9588 38.0444 33.8599 37.1672 33.8599 36.0796V19.9163L36.5958 24.6124C36.935 25.1947 37.5468 25.5195 38.1753 25.5195C38.4874 25.5195 38.8038 25.4394 39.0929 25.271C39.9643 24.7633 40.2591 23.6453 39.7515 22.774Z" fill="black"/>
<path d="M4.33351 9.21526L5.36007 9.12376C5.95038 9.07118 6.36643 8.51936 6.25087 7.93798C6.07469 7.04955 6.0138 5.81653 6.75142 5.05407C6.75064 5.08617 6.74897 5.11802 6.74897 5.15021C6.74897 7.44058 8.6058 9.2974 10.8962 9.2974C13.1864 9.2974 15.0433 7.44058 15.0433 5.15021C15.0433 5.11802 15.0416 5.08617 15.0407 5.05407C15.7784 5.81662 15.7175 7.04955 15.5412 7.93798C15.4259 8.51936 15.8418 9.07118 16.4321 9.12376L17.4586 9.21526C18.0012 9.26364 18.4821 8.86876 18.5402 8.32709C18.6815 7.01185 18.6569 5.03859 17.9131 4.25504C16.8152 3.09848 15.4572 3.08676 14.58 3.24623C13.8901 1.91402 12.5 1.00293 10.8963 1.00293C9.29251 1.00293 7.90229 1.91393 7.21235 3.24623C6.3352 3.08685 4.97701 3.09848 3.87923 4.25504C3.13558 5.03859 3.111 7.01193 3.25192 8.32709C3.3101 8.86876 3.79097 9.26364 4.33351 9.21526Z" fill="black"/>
</g>
<defs>
<clipPath id="clip0_4129_358">
<rect width="40" height="40" fill="white"/>
</clipPath>
</defs>
</svg>
