<svg width="40" height="40" viewBox="0 0 40 40" fill="none" xmlns="http://www.w3.org/2000/svg">
<g clip-path="url(#clip0_4129_327)">
<path d="M19.9998 5.80527C20.4404 5.80527 20.7975 5.44819 20.7975 5.00757V1.18588C20.7975 0.745356 20.4405 0.388184 19.9998 0.388184C19.5592 0.388184 19.2021 0.745266 19.2021 1.18588V5.00757C19.2022 5.4481 19.5593 5.80527 19.9998 5.80527Z" fill="black"/>
<path d="M16.6038 6.36251C16.7533 6.51211 16.9561 6.59627 17.1675 6.59645V6.59555C17.3787 6.59537 17.5811 6.51148 17.7304 6.36224C18.0422 6.05097 18.0424 5.54591 17.7312 5.23419L15.0289 2.53199C14.7173 2.22046 14.2122 2.22046 13.9006 2.53199C13.5891 2.84353 13.5891 3.34868 13.9006 3.66022L16.6038 6.36251Z" fill="black"/>
<path d="M22.8312 6.59662C23.0428 6.59689 23.2459 6.51308 23.3957 6.36348L26.098 3.66119C26.4095 3.34966 26.4095 2.8445 26.098 2.53297C25.7865 2.22143 25.2813 2.22143 24.9698 2.53297L22.2675 5.23526C22.1183 5.38468 22.0344 5.58712 22.0342 5.7982C22.0338 6.23881 22.3906 6.59626 22.8312 6.59662Z" fill="black"/>
<path d="M39.951 35.7918C39.8694 35.5691 39.6929 35.3942 39.4694 35.3148L39.4676 35.3157L34.9299 33.7026L32.0849 25.9246C33.2812 25.3434 34.303 24.4568 35.0469 23.3543C36.5908 21.0686 36.7424 18.0898 35.4413 15.5807L31.0223 7.05554C30.8376 6.69936 30.4172 6.53581 30.0403 6.67353L19.9996 10.3383L9.95878 6.66921C9.58198 6.53149 9.16144 6.69504 8.97674 7.05122L4.55682 15.5764C3.25666 18.0855 3.40465 21.0642 4.95125 23.35C5.69521 24.4525 6.71695 25.3391 7.91323 25.9202L5.06827 33.6983L0.530523 35.3112C0.115472 35.4589 -0.10128 35.9151 0.0463414 36.3301C0.125823 36.5536 0.300719 36.7301 0.523412 36.8117L8.02935 39.5591C8.44278 39.7112 8.90121 39.4993 9.05334 39.0859C9.1357 38.8619 9.11347 38.6128 8.99276 38.407L6.56789 34.2503L9.41195 26.4732C10.7023 26.8004 12.0561 26.7809 13.3364 26.4165C15.9952 25.6658 18.0285 23.4918 18.6542 20.7319L20.0004 14.7938L21.3466 20.7319C21.9715 23.4883 24.0054 25.6659 26.6643 26.4165C27.9447 26.7808 29.2985 26.8003 30.5888 26.4732L33.4329 34.2503L31.0071 38.4106C30.7842 38.7906 30.9116 39.2793 31.2917 39.5022C31.4975 39.6229 31.7466 39.6451 31.9705 39.5627L39.4765 36.8153C39.8902 36.6637 40.1026 36.2055 39.951 35.7918ZM17.9017 16.8349L7.64652 13.0859L10.0732 8.40898L19.0698 11.6998L17.9017 16.8349ZM22.0973 16.8349L20.9327 11.6989L29.9259 8.40898L32.3525 13.0859L22.0973 16.8349Z" fill="black"/>
</g>
<defs>
<clipPath id="clip0_4129_327">
<rect width="40" height="40" fill="white"/>
</clipPath>
</defs>
</svg>
