<svg width="40" height="40" viewBox="0 0 40 40" fill="none" xmlns="http://www.w3.org/2000/svg">
<g clip-path="url(#clip0_4129_370)">
<path d="M20.3408 10.2493C21.732 9.67268 22.3924 8.07736 21.8157 6.68612C21.239 5.29488 19.6437 4.63454 18.2525 5.21121C16.8612 5.78788 16.2009 7.3832 16.7776 8.77444C17.3542 10.1657 18.9495 10.826 20.3408 10.2493Z" fill="black"/>
<path d="M28.0279 16.7454L25.6069 16.8309C25.184 15.647 24.8504 14.6998 24.6124 14.0075C24.002 12.2315 22.9789 11.3311 21.5709 11.3311H17.0132C15.6053 11.3311 14.5821 12.2315 13.9717 14.0075C13.7066 14.7787 13.5179 15.3204 13.2591 16.047L11.5578 15.1809L11.4395 15.413V18.0728L13.3962 19.069C14.0986 19.4265 14.9612 19.0898 15.2306 18.3425C15.5398 17.484 15.9401 16.3581 15.9401 16.3581L14.0732 26.1419C13.9856 26.5943 14.3342 27.0124 14.7906 27.0124H15.7944V36.52C15.7944 37.3918 16.5011 38.0985 17.3729 38.0985C18.2447 38.0985 18.9514 37.3918 18.9514 36.52V27.0123H19.6329V36.5199C19.6329 37.3917 20.3396 38.0984 21.2114 38.0984C22.0832 38.0984 22.7899 37.3917 22.7899 36.5199V27.0123H23.7937C24.2516 27.0123 24.5988 26.5946 24.5111 26.1418L22.6427 16.3464C22.6427 16.3464 23.145 17.7615 23.4546 18.6239C23.6426 19.1477 24.139 19.4949 24.6923 19.4949C24.7078 19.4949 24.7234 19.4947 24.7392 19.4941L27.5796 19.3937L28.0279 16.7454Z" fill="black"/>
<path d="M10.5551 23.1942C10.5531 23.1905 10.5507 23.1872 10.5487 23.1835L10.4647 15.3873L13.2448 10.4263C13.3586 10.2341 13.4195 10.0154 13.4216 9.79215L13.4774 3.80321C13.4839 3.10299 12.9216 2.52992 12.2214 2.52344C12.2173 2.52344 12.2133 2.52344 12.2093 2.52344C11.5146 2.52344 10.9481 3.08345 10.9416 3.77961L10.8961 8.66205C10.9922 8.98914 11.0447 9.33109 11.0486 9.68101C11.0594 10.679 10.6808 11.6215 9.98272 12.3348C9.59974 12.7261 9.14548 13.0221 8.64894 13.2119L8.46761 13.5182H5.26856L2.57684 10.1887L2.98194 5.71366C3.04509 5.01624 2.53088 4.39965 1.83339 4.33649C1.137 4.27357 0.519226 4.78763 0.45623 5.48504L0.00517434 10.4681C-0.0243698 10.7941 0.0734072 11.119 0.277871 11.3746L3.32951 15.1886C3.29395 15.4516 3.31443 14.9857 3.41009 24.5358L1.74015 28.954C1.69317 29.0782 1.66113 29.2075 1.64464 29.3393L0.783951 36.2084C0.66851 37.1294 1.32161 37.9695 2.24255 38.0849C2.31345 38.0938 2.38394 38.0981 2.45358 38.0981C3.28856 38.0981 4.01247 37.4763 4.119 36.6263L4.95483 29.9555L6.77945 25.1278L7.77239 25.1171L10.4355 30.0754L9.89378 36.2711C9.81296 37.1957 10.497 38.0108 11.4216 38.0917C11.4715 38.096 11.5209 38.0981 11.5699 38.0981C12.4318 38.0981 13.1657 37.4386 13.2422 36.5638L13.8275 29.8685C13.856 29.5425 13.7887 29.2152 13.6338 28.9269L10.5551 23.1942Z" fill="black"/>
<path d="M7.3117 12.5203C7.32186 12.5203 7.33233 12.5202 7.34249 12.5201C8.88809 12.5035 10.1275 11.237 10.1109 9.6914C10.0943 8.15597 8.84471 6.9227 7.31303 6.92285C7.30286 6.92285 7.29239 6.92293 7.28223 6.92301C5.73664 6.93966 4.49719 8.20614 4.51384 9.75174C4.53033 11.2872 5.78001 12.5203 7.3117 12.5203Z" fill="black"/>
<path d="M39.8099 35.6416L36.0951 28.5042L34.8632 24.236C36.2565 15.0173 36.2279 15.0267 36.2279 15.0267L38.7466 10.1377C38.8548 9.92757 38.9021 9.69153 38.8834 9.45604L38.3732 3.06896C38.3174 2.371 37.7085 1.85015 37.0082 1.90595C36.3102 1.96168 35.7895 2.57281 35.8452 3.27084L36.3266 9.29753L34.2045 13.4168L31.4116 12.9901L30.9983 12.4094C30.4435 12.1503 29.9591 11.7554 29.5863 11.2483C29.1909 10.7102 28.9536 10.0898 28.8866 9.44252L28.5191 8.9262L28.9874 3.90948C29.0524 3.21222 28.5399 2.59422 27.8427 2.52911C27.1449 2.46416 26.5274 2.9765 26.4623 3.67375L25.9501 9.15966C25.9219 9.46237 26.0034 9.76516 26.1797 10.0128L29.2316 14.3008L28.0997 21.7044C28.0997 21.7044 28.1285 21.5941 25.72 28.2091C25.6533 28.393 25.6191 28.5871 25.6191 28.7827V36.4179C25.6191 37.346 26.3716 38.0984 27.2997 38.0984C28.2279 38.0984 28.9803 37.346 28.9803 36.4179V29.0785L30.7912 24.0913L31.3643 24.2347L32.9122 29.5975C32.9432 29.7047 32.9847 29.8084 33.0362 29.9074L36.8285 37.1935C37.2563 38.0155 38.2704 38.3376 39.0951 37.9084C39.9183 37.4797 40.2384 36.4649 39.8099 35.6416Z" fill="black"/>
<path d="M32.153 11.789C32.2945 11.8106 32.4353 11.8212 32.5742 11.8212C33.9172 11.8212 35.0956 10.8413 35.3046 9.47279C35.5353 7.96292 34.4983 6.55183 32.9884 6.32119C32.8469 6.29961 32.7061 6.28906 32.5673 6.28906C31.2243 6.28906 30.0459 7.26894 29.8368 8.63743C29.6061 10.1473 30.6432 11.5584 32.153 11.789Z" fill="black"/>
</g>
<defs>
<clipPath id="clip0_4129_370">
<rect width="40" height="40" fill="white"/>
</clipPath>
</defs>
</svg>
