<svg width="40" height="40" viewBox="0 0 40 40" fill="none" xmlns="http://www.w3.org/2000/svg">
<g clip-path="url(#clip0_2222_29128)">
<path d="M20 7.44071C20.6472 7.44071 21.1719 6.91602 21.1719 6.26883V2.39844C21.1719 1.75125 20.6472 1.22656 20 1.22656C19.3528 1.22656 18.8281 1.75125 18.8281 2.39844V6.26883C18.8281 6.91602 19.3528 7.44071 20 7.44071Z" fill="black"/>
<path d="M25.4688 9.42967C25.7687 9.42967 26.0686 9.31522 26.2974 9.08639L29.4224 5.96139C29.88 5.50381 29.88 4.76178 29.4224 4.30412C28.9648 3.84654 28.2228 3.84654 27.7651 4.30412L24.6401 7.42912C24.1825 7.8867 24.1825 8.62873 24.6401 9.08639C24.8689 9.31522 25.1689 9.42967 25.4688 9.42967Z" fill="black"/>
<path d="M13.7027 9.08638C13.9315 9.31521 14.2314 9.42966 14.5313 9.42966C14.8311 9.42966 15.1311 9.31521 15.3599 9.08638C15.8175 8.6288 15.8175 7.88677 15.3599 7.42912L12.2349 4.30412C11.7773 3.84654 11.0353 3.84654 10.5776 4.30412C10.12 4.7617 10.12 5.50373 10.5776 5.96138L13.7027 9.08638Z" fill="black"/>
<path d="M30.5258 17.7893L25.9767 13.2402C25.0976 12.361 23.9053 11.8672 22.662 11.8672H15.5465C13.7727 11.8672 12.1051 12.558 10.8509 13.8122L10.4763 14.1866L10.4521 14.2109H1.17188C0.524687 14.2109 0 14.7355 0 15.3827V27.8827C0 28.5299 0.524687 29.0546 1.17188 29.0546H7.01461L9.79641 31.8363C10.0162 32.0561 10.3142 32.1796 10.625 32.1796H11.6861C11.2934 31.5717 11.0405 30.8926 10.9416 30.1818C10.0655 29.8968 9.27711 29.3706 8.66992 28.6469C6.90477 26.5431 7.18016 23.3955 9.28383 21.6303L13.7379 17.893H22.6312C22.942 17.893 23.2401 18.0164 23.4598 18.2362L26.7318 21.5082C27.7827 22.5591 29.5251 22.5816 30.558 21.5129C31.5613 20.4748 31.5505 18.8141 30.5258 17.7893Z" fill="black"/>
<path d="M40 17.8047C40 17.1573 39.4753 16.6327 38.8281 16.6328H32.6198C34.1182 18.5915 33.9735 21.4125 32.1831 23.2031C31.2395 24.1466 29.9838 24.6663 28.6476 24.6663C27.3113 24.6663 26.0556 24.1466 25.1121 23.2031L22.1459 20.2368H14.3717L13.4511 21.0092L10.4781 23.5039C9.36252 24.4399 9.21705 26.1031 10.1531 27.2186C11.0891 28.3342 12.7522 28.4796 13.8677 27.5436C12.7522 28.4796 12.6067 30.1427 13.5427 31.2583C14.4788 32.3738 16.1419 32.5193 17.2574 31.5833C16.1419 32.5193 15.9964 34.1824 16.9324 35.298C17.8684 36.4135 19.5316 36.559 20.6471 35.623L22.7225 33.8815L22.4426 34.1164C21.327 35.0524 21.1816 36.7156 22.1176 37.8311C23.0536 38.9467 24.7167 39.0921 25.8323 38.1561L33.7927 31.4764H38.8283C39.4755 31.4764 40.0002 30.9517 40.0001 30.3045L40 17.8047Z" fill="black"/>
</g>
<defs>
<clipPath id="clip0_2222_29128">
<rect width="40" height="40" fill="white"/>
</clipPath>
</defs>
</svg>
