<svg width="40" height="40" viewBox="0 0 40 40" fill="none" xmlns="http://www.w3.org/2000/svg">
<path d="M33.9498 32.1188H32.4998V19.5625C32.1542 19.7107 31.7821 19.7872 31.4061 19.7875H31.2498V32.1188H26.9561L25.5373 30.175C25.4782 30.0942 25.4394 30.0003 25.4242 29.9013C25.409 29.8023 25.4178 29.7011 25.4498 29.6063L26.8748 25.4063C26.9071 25.3226 26.921 25.233 26.9157 25.1435C26.9103 25.054 26.8857 24.9667 26.8436 24.8875C26.8054 24.8071 26.7514 24.7353 26.6848 24.6762C26.6182 24.6171 26.5404 24.5721 26.4561 24.5438L21.9936 23.0063H18.8686C18.5022 23.5838 17.9952 24.0589 17.3951 24.3869C16.7949 24.7148 16.1212 24.8849 15.4373 24.8813H12.8936L9.0373 37.1625H6.0498C5.88404 37.1625 5.72507 37.2284 5.60786 37.3456C5.49065 37.4628 5.4248 37.6218 5.4248 37.7875C5.4248 37.9533 5.49065 38.1123 5.60786 38.2295C5.72507 38.3467 5.88404 38.4125 6.0498 38.4125H17.0123C17.1294 38.4128 17.2443 38.3801 17.3437 38.3182C17.4432 38.2563 17.5233 38.1677 17.5748 38.0625L19.8686 33.3688H33.9498C34.1156 33.3688 34.2745 33.3029 34.3917 33.1857C34.509 33.0685 34.5748 32.9095 34.5748 32.7438C34.5748 32.578 34.509 32.419 34.3917 32.3018C34.2745 32.1846 34.1156 32.1188 33.9498 32.1188ZM22.1248 32.1188H19.4811C19.3639 32.1185 19.2491 32.1512 19.1496 32.2131C19.0502 32.275 18.9701 32.3636 18.9186 32.4688L16.6248 37.1625H14.4061L13.2248 35.4875C13.1622 35.397 13.1245 35.2915 13.1158 35.1817C13.107 35.072 13.1273 34.9619 13.1748 34.8625L16.4811 28.0438C16.6681 27.6684 16.9561 27.3525 17.3127 27.1317C17.6693 26.9109 18.0804 26.7939 18.4998 26.7938L22.4623 26.85C22.5567 26.8479 22.6503 26.8672 22.7362 26.9065C22.822 26.9457 22.8979 27.0039 22.958 27.0767C23.0182 27.1495 23.0611 27.2349 23.0834 27.3267C23.1058 27.4184 23.1072 27.514 23.0873 27.6063L22.1248 32.1188ZM9.58105 22.7C9.3572 22.4091 9.20212 22.0713 9.12743 21.712C9.05275 21.3526 9.06039 20.981 9.1498 20.625L10.3498 15.7688C10.5347 15.0089 10.9714 14.334 11.5887 13.8539C12.2061 13.3739 12.9678 13.117 13.7498 13.125H16.8748C17.257 13.115 17.6363 13.1927 17.9837 13.3522C18.3311 13.5117 18.6373 13.7488 18.8788 14.0451C19.1202 14.3415 19.2905 14.6893 19.3765 15.0618C19.4625 15.4343 19.4619 15.8215 19.3748 16.1938L18.1873 21.4563C18.0526 22.0797 17.7077 22.6378 17.2105 23.0372C16.7132 23.4366 16.0938 23.6529 15.4561 23.65H11.5186C11.1452 23.6464 10.7773 23.5592 10.442 23.3948C10.1067 23.2304 9.81255 22.993 9.58105 22.7ZM10.1186 10.9438C10.1202 10.4094 10.3336 9.89758 10.712 9.52034C11.0904 9.1431 11.603 8.93127 12.1373 8.93127H19.9561C20.4898 8.93127 21.0017 9.1433 21.3791 9.52072C21.7565 9.89813 21.9686 10.41 21.9686 10.9438C21.9686 11.4775 21.7565 11.9894 21.3791 12.3668C21.0017 12.7442 20.4898 12.9563 19.9561 12.9563H19.5498C19.1974 12.6083 18.7796 12.3337 18.3205 12.1481C17.8613 11.9625 17.37 11.8697 16.8748 11.875H13.7498C12.8243 11.8803 11.9205 12.1562 11.1498 12.6688C10.8401 12.4988 10.5813 12.2494 10.4001 11.9462C10.2188 11.643 10.1216 11.297 10.1186 10.9438ZM31.4061 14.3063H31.2498V11.9438C31.2498 11.778 31.3157 11.619 31.4329 11.5018C31.5501 11.3846 31.709 11.3188 31.8748 11.3188C32.0406 11.3188 32.1995 11.3846 32.3167 11.5018C32.434 11.619 32.4998 11.778 32.4998 11.9438V14.5375C32.1555 14.3844 31.7828 14.3056 31.4061 14.3063ZM22.5436 12.9063L25.5248 15.1875C25.842 15.426 26.2279 15.5554 26.6248 15.5563H31.4061C31.6099 15.5431 31.8143 15.5718 32.0066 15.6407C32.199 15.7097 32.3751 15.8173 32.5242 15.957C32.6732 16.0968 32.792 16.2656 32.8732 16.453C32.9545 16.6405 32.9964 16.8426 32.9964 17.0469C32.9964 17.2512 32.9545 17.4533 32.8732 17.6408C32.792 17.8282 32.6732 17.997 32.5242 18.1367C32.3751 18.2765 32.199 18.3841 32.0066 18.453C31.8143 18.522 31.6099 18.5507 31.4061 18.5375H26.3623C25.8564 18.5343 25.3611 18.3916 24.9311 18.125L23.3873 17.1875C23.3007 17.1346 23.2026 17.1035 23.1013 17.0969C23 17.0904 22.8987 17.1086 22.8061 17.15C22.7139 17.1903 22.6328 17.2523 22.5697 17.3306C22.5066 17.409 22.4633 17.5014 22.4436 17.6L21.5998 21.7563H19.3748L20.5561 16.4938C20.7275 15.7263 20.6554 14.9246 20.3498 14.2C20.7839 14.1439 21.2022 14.0003 21.5792 13.7779C21.9563 13.5556 22.2844 13.259 22.5436 12.9063ZM26.7186 6.40627C26.7186 6.57203 26.6527 6.731 26.5355 6.84821C26.4183 6.96542 26.2593 7.03127 26.0936 7.03127H23.3061V7.57502C23.3091 8.19459 23.119 8.79971 22.7623 9.30627C22.4768 8.81427 22.0676 8.40547 21.5754 8.12042C21.0831 7.83537 20.5249 7.68398 19.9561 7.68127H17.1748C17.1718 7.64592 17.1718 7.61037 17.1748 7.57502V5.91252C17.1574 5.10029 17.4634 4.31442 18.0254 3.72778C18.5874 3.14115 19.3595 2.8018 20.1717 2.7844C20.9839 2.76699 21.7698 3.07295 22.3564 3.63498C22.9431 4.197 23.2824 4.96904 23.2998 5.78127H26.0998C26.2645 5.78292 26.4219 5.84949 26.5377 5.96652C26.6536 6.08356 26.7186 6.24159 26.7186 6.40627Z" fill="black"/>
</svg>
