<svg width="21" height="26" viewBox="0 0 21 26" fill="none" xmlns="http://www.w3.org/2000/svg">
<path d="M19.9222 22.8045L18.2879 16.3092C18.0545 15.2137 17.0428 14.4311 15.9533 14.4311H11.9066V9.81396C11.9066 8.01406 9.96109 6.84021 8.40467 7.62277L5.13619 9.26616C4.28016 9.65744 3.81323 10.5183 3.81323 11.4573V12.9442C2.80156 13.4138 1.8677 14.1963 1.24514 15.1354C0.466926 16.3092 0 17.6396 0 19.0482C0 22.8045 3.03502 25.8565 6.77043 25.8565C10.428 25.8565 13.3852 22.9611 13.5409 19.3613H14.0856L15.2529 24.0566C15.5642 25.387 16.8872 26.1696 18.2101 25.8565C19.4553 25.4653 20.3113 24.1349 19.9222 22.8045ZM5.83658 10.6748L9.10506 9.03139C9.33852 8.95313 9.57198 8.95313 9.80545 9.03139C10.1167 9.1879 10.2724 9.42267 10.2724 9.81396V13.2572C9.80545 12.9442 9.2607 12.7094 8.63813 12.5529V12.4747C8.63813 12.0051 8.24903 11.6921 7.85992 11.6921C7.47082 11.6921 7.08171 12.0834 7.08171 12.4747V16.3875C7.08171 16.857 6.69261 17.1701 6.22568 17.1701C5.75875 17.1701 5.44747 16.7788 5.44747 16.3875V11.4573C5.44747 11.1443 5.60311 10.8313 5.83658 10.6748ZM6.77043 24.2132C3.96887 24.2132 1.63424 21.8655 1.63424 19.0482C1.63424 17.3266 2.49027 15.7615 3.81323 14.8224V16.3092C3.81323 17.7179 4.90272 18.8135 6.22568 18.8135C7.54864 18.8135 8.63813 17.7179 8.63813 16.3875V14.2746C9.33852 14.5876 9.96109 14.9789 10.5058 15.5267C10.5837 15.6049 10.6615 15.6832 10.6615 15.7615C10.6615 15.7615 10.6615 15.7615 10.6615 15.8397C11.3619 16.7005 11.8288 17.8744 11.8288 19.1265C11.9066 21.8655 9.57198 24.2132 6.77043 24.2132ZM17.821 24.2132C17.4319 24.2914 16.965 24.0566 16.8093 23.5871L15.4864 18.2657C15.4086 17.8744 15.0973 17.6396 14.7082 17.6396H13.3852C13.3074 17.0918 13.0739 16.544 12.8405 15.9962H15.9533C16.3424 15.9962 16.6537 16.231 16.7315 16.6223L18.3658 23.1176C18.5214 23.6654 18.2101 24.0566 17.821 24.2132Z" fill="#A78849"/>
<path d="M10.2724 0.814453C8.48251 0.814453 7.00391 2.30133 7.00391 4.10123C7.00391 5.90113 8.48251 7.38801 10.2724 7.38801C12.0623 7.38801 13.5409 5.90113 13.5409 4.10123C13.5409 2.30133 12.0623 0.814453 10.2724 0.814453ZM10.2724 5.74462C9.33854 5.74462 8.63815 5.04031 8.63815 4.10123C8.63815 3.16215 9.33854 2.45784 10.2724 2.45784C11.2062 2.45784 11.9066 3.16215 11.9066 4.10123C11.9066 5.04031 11.2062 5.74462 10.2724 5.74462Z" fill="#A78849"/>
</svg>
