<svg width="21" height="22" viewBox="0 0 21 22" fill="none" xmlns="http://www.w3.org/2000/svg">
<path d="M10.9688 0.961914C5.45161 0.961914 0.9375 5.47602 0.9375 10.9933C0.9375 16.5105 5.45161 21.0246 10.9688 21.0246C16.4861 21.0246 21.0002 16.5105 21.0002 10.9933C21.0002 5.47602 16.5488 0.961914 10.9688 0.961914ZM10.9688 19.3318C6.32935 19.3318 2.63029 15.5701 2.63029 10.9933C2.63029 6.41646 6.39205 2.6547 10.9688 2.6547C15.5457 2.6547 19.3074 6.41646 19.3074 10.9933C19.3074 15.5701 15.6083 19.3318 10.9688 19.3318Z" fill="#A78849"/>
<path d="M10.968 4.28516C10.5291 4.28516 10.153 4.66133 10.153 5.1002V10.1159H7.64513C7.20625 10.1159 6.83008 10.4921 6.83008 10.9309C6.83008 11.3698 7.20625 11.746 7.64513 11.746H10.968C11.4069 11.746 11.7831 11.3698 11.7831 10.9309V5.1629C11.8458 4.66133 11.4696 4.28516 10.968 4.28516Z" fill="#A78849"/>
</svg>
