<svg width="20" height="21" viewBox="0 0 20 21" fill="none" xmlns="http://www.w3.org/2000/svg">
<g clip-path="url(#clip0_2997_28083)">
<path d="M19.4994 15.3941L16.6781 12.557C15.675 11.5482 13.9822 11.9265 13.606 13.2505C13.2925 14.1331 12.2894 14.6375 11.4117 14.4484C9.4054 13.944 6.70947 11.3591 6.20791 9.21549C5.89443 8.33284 6.52139 7.32409 7.39913 7.00886C8.71574 6.63057 9.09192 4.92831 8.08878 3.91956L5.26747 1.08245C4.45242 0.388938 3.2612 0.388938 2.57154 1.08245L0.690664 2.97386C-1.19021 4.99136 0.878751 10.2873 5.58095 15.0158C10.2831 19.7443 15.6123 22.014 17.5559 19.9965L19.4367 18.1051C20.1891 17.2855 20.1891 16.0876 19.4994 15.3941Z" fill="#A78849"/>
</g>
<defs>
<clipPath id="clip0_2997_28083">
<rect width="20" height="20.175" fill="white" transform="translate(0 0.578125)"/>
</clipPath>
</defs>
</svg>
