<svg width="20" height="21" viewBox="0 0 20 21" fill="none" xmlns="http://www.w3.org/2000/svg">
<g clip-path="url(#clip0_2997_28055)">
<path d="M9.96885 0.685547C4.45161 0.685547 -0.0625 5.22492 -0.0625 10.773C-0.0625 16.3212 4.45161 20.8605 9.96885 20.8605C15.4861 20.8605 20.0002 16.3212 20.0002 10.773C20.0002 5.22492 15.5488 0.685547 9.96885 0.685547ZM9.96885 19.1583C5.32935 19.1583 1.63029 15.3755 1.63029 10.773C1.63029 6.17062 5.39205 2.38781 9.96885 2.38781C14.5457 2.38781 18.3074 6.17062 18.3074 10.773C18.3074 15.3755 14.6083 19.1583 9.96885 19.1583Z" fill="#A78849"/>
<path d="M10.8463 4.90973H8.33848C7.89961 4.90973 7.52344 5.28801 7.52344 5.72934V10.7731V16.6364C7.52344 17.0778 7.89961 17.456 8.33848 17.456C8.77736 17.456 9.15353 17.0778 9.15353 16.6364V11.5927H10.8463C12.6645 11.5927 14.1692 10.0796 14.1692 8.25121C14.1692 6.42285 12.6645 4.90973 10.8463 4.90973ZM10.8463 9.95348H9.15353V6.54895H10.8463C11.7868 6.54895 12.5391 7.30551 12.5391 8.25121C12.5391 9.19691 11.7241 9.95348 10.8463 9.95348Z" fill="#A78849"/>
</g>
<defs>
<clipPath id="clip0_2997_28055">
<rect width="20" height="20.175" fill="white" transform="translate(0 0.685547)"/>
</clipPath>
</defs>
</svg>
