<svg width="20" height="21" viewBox="0 0 20 21" fill="none" xmlns="http://www.w3.org/2000/svg">
<path d="M15.3609 2.41196C13.9189 0.961882 12.038 0.142273 10.0317 0.142273C8.02545 0.142273 6.08187 0.961882 4.63987 2.41196C3.19786 3.86204 2.38281 5.75344 2.38281 7.83399C2.38281 10.1037 3.57403 12.8147 5.89378 15.967C7.64927 18.2998 9.40476 20.002 9.59284 20.1912C9.71824 20.3173 9.90632 20.3803 10.0317 20.3803C10.2198 20.3803 10.3452 20.3173 10.4706 20.1912C10.6587 20.002 12.4142 18.2998 14.1696 15.967C16.4894 12.8147 17.6806 10.1037 17.6806 7.83399C17.6179 5.75344 16.8029 3.79899 15.3609 2.41196ZM9.96902 18.7411C8.52701 17.228 3.69943 11.869 3.69943 7.77094C3.69943 4.24032 6.52074 1.40321 10.0317 1.40321C13.5427 1.40321 16.3013 4.30336 16.3013 7.77094C16.3013 11.869 11.4737 17.228 9.96902 18.7411Z" fill="#A78849"/>
<path d="M10.0311 4.11426C8.02482 4.11426 6.33203 5.75348 6.33203 7.83402C6.33203 9.91457 7.96213 11.5538 10.0311 11.5538C12.1001 11.5538 13.7302 9.91457 13.7302 7.83402C13.6675 5.75348 12.0374 4.11426 10.0311 4.11426ZM9.96839 5.37519C11.285 5.37519 12.3508 6.44699 12.3508 7.77098C12.3508 9.09496 11.285 10.1668 9.96839 10.1668C8.65178 10.1668 7.58595 9.09496 7.58595 7.77098C7.58595 6.44699 8.71448 5.37519 9.96839 5.37519Z" fill="#A78849"/>
</svg>


 
                                                