<svg width="20" height="23" viewBox="0 0 20 23" fill="none" xmlns="http://www.w3.org/2000/svg">
<g clip-path="url(#clip0_2997_28073)">
<path d="M18.2422 3.88042H1.75781C0.7592 3.88042 -0.05 4.76128 -0.05 5.83902V17.2906C-0.05 18.3688 0.759723 19.2492 1.75781 19.2492H18.2422C19.2408 19.2492 20.05 18.3684 20.05 17.2906V5.83902C20.05 4.76101 19.2404 3.88042 18.2422 3.88042ZM2.14151 5.25282H17.8585L10.4172 13.3588C10.3138 13.4715 10.1583 13.5297 10 13.5298C9.84176 13.5298 9.6863 13.4715 9.58277 13.3588L2.14151 5.25282ZM6.1456 11.5648L1.22187 16.9283V6.20133L6.1456 11.5648ZM2.14151 17.8768L7.04078 12.54L8.67914 14.3247C9.38545 15.094 10.6148 15.0937 11.3209 14.3247L12.9593 12.54L17.8585 17.8768H2.14151ZM13.8544 11.5648L18.7781 6.20133V16.9283L13.8544 11.5648Z" fill="#A78849" stroke="#A78849" stroke-width="0.1"/>
</g>
<defs>
<clipPath id="clip0_2997_28073">
<rect width="20" height="21.7156" fill="white" transform="translate(0 0.707031)"/>
</clipPath>
</defs>
</svg>
