<?xml version="1.0" encoding="utf-8"?>
<!-- Generator: Adobe Illustrator 25.0.0, SVG Export Plug-In . SVG Version: 6.00 Build 0)  -->
<svg version="1.1" id="katman_1" xmlns="http://www.w3.org/2000/svg" xmlns:xlink="http://www.w3.org/1999/xlink" x="0px" y="0px"
	 viewBox="0 0 395.3 214.9" style="enable-background:new 0 0 395.3 214.9;" xml:space="preserve">
<style type="text/css">
	.st0{fill:#2B6BB3;}
	.st1{fill:#FFFFFF;}
</style>
<g>
	<path class="st0" d="M395,163c-6.4,0-11.5-5.2-11.5-11.5c0-6.4,5.2-11.5,11.5-11.5h0.3v-20.8H395c-6.4,0-11.5-5.2-11.5-11.5
		c0-6.4,5.2-11.5,11.5-11.5h0.3V75.4H395c-6.4,0-11.5-5.2-11.5-11.5c0-6.4,5.2-11.5,11.5-11.5h0.3V26.2H395
		c-14,0-25.4-11.4-25.4-25.4c0-0.2,0-0.5,0-0.7H26.5c0,0.2,0,0.5,0,0.7c0,14-11.4,25.4-25.4,25.4H0v26.5c0.4,0,0.7,0,1.1,0
		c6.4,0,11.5,5.2,11.5,11.5c0,6.4-5.2,11.5-11.5,11.5l0,0c-0.4,0-0.7,0-1.1,0v21c0.4,0,0.7,0,1.1,0c6.4,0,11.5,5.2,11.5,11.5
		c0,6.4-5.2,11.5-11.5,11.5l0,0c-0.4,0-0.7,0-1.1,0v21c0.4,0,0.7,0,1.1,0c6.4,0,11.5,5.2,11.5,11.5c0,6.4-5.2,11.5-11.5,11.5l0,0
		c-0.4,0-0.7,0-1.1,0v25.1h1.1c14,0,25.4,11.4,25.4,25.4l0,0v0.2h343.1v-0.2c0-14,11.4-25.4,25.4-25.4h0.3V163H395z"/>
	<path class="st0" d="M395,52.5h0.3V26.1H395c-14,0-25.4-11.4-25.4-25.4c0-0.2,0-0.5,0-0.7H26.5c0,0.2,0,0.5,0,0.7
		c0,14-11.4,25.4-25.4,25.4H0v26.5c0.4,0,0.7,0,1.1,0c6.4,0,11.5,5.2,11.5,11.5c0,6.4-5.2,11.5-11.5,11.5l0,0c-0.4,0-0.7,0-1.1,0v21
		c0.4,0,0.7,0,1.1,0c6.4,0,11.5,5.2,11.5,11.5c0,6.4-5.2,11.5-11.5,11.5l0,0c-0.4,0-0.7,0-1.1,0v21c0.4,0,0.7,0,1.1,0
		c6.4,0,11.5,5.2,11.5,11.5c0,6.4-5.2,11.5-11.5,11.5l0,0c-0.4,0-0.7,0-1.1,0v25.7h1.1c14,0,25.4,11.4,25.4,25.4l0,0v0.2h343.1v-0.2
		c0-14,11.4-25.4,25.4-25.4h0.3v-26.4H395c-6.4,0-11.5-5.2-11.5-11.5s5.2-11.5,11.5-11.5h0.3v-20.8H395c-6.4,0-11.5-5.2-11.5-11.5
		s5.2-11.5,11.5-11.5h0.3V75.3H395c-6.4,0-11.5-5.2-11.5-11.5c0-6.4,5.2-11.5,11.5-11.5L395,52.5z M388.1,81.4v9
		c-9.6,3.8-14.3,14.7-10.5,24.3c1.9,4.8,5.7,8.6,10.5,10.5v9c-9.6,3.8-14.3,14.7-10.5,24.3c1.9,4.8,5.7,8.6,10.5,10.5v13.2
		c-12.5,2.7-22.3,12.5-25,25H33c-2.8-12.7-12.9-22.5-25.7-25v-12.9c9.8-3.4,14.9-14,11.6-23.8c-1.9-5.4-6.1-9.7-11.6-11.6v-8.3
		c9.8-3.3,15-14,11.7-23.7c-1.9-5.5-6.2-9.8-11.7-11.7v-8.3c9.8-3.3,15-13.9,11.7-23.7c-1.9-5.5-6.2-9.9-11.7-11.7V33
		c13-2.5,23.1-12.6,25.8-25.5h330c2.6,12.7,12.4,22.6,25,25.4v13.9c-9.6,3.8-14.3,14.7-10.5,24.3C379.4,75.6,383.2,79.4,388.1,81.4
		L388.1,81.4z"/>
	<g>
		<path class="st1" d="M347.5,23.6h-86.1v7.2h86.1c3.6,0.3,6.3,3.4,6.1,7v140.6c0.2,3.6-2.5,6.7-6.1,7H251v-32.3l11.5-10.8v-19
			h-18.3v-65H259c2,0,3.6-1.7,3.6-3.6c0-1.4-0.9-2.7-2.2-3.3l-61.1-36.1c-1.1-0.7-2.5-0.7-3.7,0l-61.2,36.4c-1.7,1.1-2.1,3.3-1,5
			c0.6,1,1.7,1.5,2.8,1.6h14.7v65h-18.3v19l11.4,10.6v32.5H48.2c-3.6-0.3-6.3-3.4-6.1-7V37.8c-0.2-3.6,2.5-6.7,6.1-7H133v-7.2H48.2
			C40.7,24,34.8,30.3,35,37.8v140.6c-0.2,7.6,5.7,13.9,13.3,14.2h299.2c7.6-0.3,13.5-6.6,13.3-14.2V37.8
			C361,30.2,355.1,23.9,347.5,23.6z M243.7,185.4h-28.9l28.9-12.1V185.4z M237,123.3h-35.7v-11.1c11.9-2.1,19.9-13.4,17.9-25.3
			c-1.6-9.1-8.7-16.3-17.9-17.9V58.3H237V123.3z M197.6,76.1c8.1,0,14.7,6.6,14.7,14.7c0,8.1-6.6,14.7-14.7,14.7
			s-14.7-6.6-14.7-14.7c-0.1-8.1,6.5-14.8,14.6-14.8h0.1V76.1z M149.5,51.2l48.1-28.4l48.1,28.4h-1.5l0,0H151l0,0H149.5z
			 M158.2,58.3h35.9V69c-11.9,2-20,13.2-18,25.2c1.5,9.3,8.8,16.5,18,18v11.1h-35.9V58.3z M255.3,130.5v8.7l-9.4,8.7H149l-9.2-8.7
			v-8.7 M151.2,155h54l-54,20.8V155z M196.8,185.4h-45.6v-1.9c0.2,0,0.3,0,0.5,0l73.6-28.3h18.4v10.4"/>
		<path class="st1" d="M271.2,91c0,2,1.6,3.6,3.6,3.6l0,0h61.7c2,0,3.6-1.6,3.6-3.6s-1.6-3.6-3.6-3.6h-61.7
			C272.9,87.4,271.2,89,271.2,91L271.2,91z"/>
		<path class="st1" d="M324.6,52.8l-58,15.8c-1.9,0.5-3.1,2.5-2.5,4.4c0.5,1.9,2.5,3.1,4.4,2.5l0,0l58.1-15.8
			c1.9-0.5,3.1-2.5,2.5-4.4C328.5,53.3,326.5,52.2,324.6,52.8L324.6,52.8L324.6,52.8z"/>
		<path class="st1" d="M266.4,110.6l55.3,16.7c1.9,0.6,3.9-0.5,4.5-2.4s-0.5-3.9-2.4-4.5l-55.3-16.7c-1.9-0.6-3.9,0.5-4.5,2.4
			C263.4,108.1,264.5,110.1,266.4,110.6L266.4,110.6z"/>
		<path class="st1" d="M52.9,91c0,2,1.6,3.6,3.6,3.6h61.7c2,0,3.6-1.6,3.6-3.6s-1.6-3.6-3.6-3.6H56.5C54.5,87.4,52.9,89,52.9,91
			L52.9,91z"/>
		<path class="st1" d="M124.6,75.5c0.3,0,0.6,0,1,0c2-0.1,3.5-1.8,3.4-3.8c-0.1-1.4-1-2.6-2.3-3.1L73.9,53.7
			c-1.9-0.5-3.9,0.7-4.4,2.6c-0.5,1.9,0.6,3.7,2.4,4.3L124.6,75.5z"/>
		<path class="st1" d="M76.7,125.5c0.4,0,0.7-0.1,1.1-0.2l48.9-14.7c1.9-0.6,3-2.6,2.4-4.5s-2.6-3-4.5-2.4l0,0l-49,14.7
			c-1.9,0.5-3,2.5-2.5,4.5C73.5,124.5,75,125.6,76.7,125.5z"/>
	</g>
</g>
</svg>
