<svg width="40" height="40" viewBox="0 0 40 40" fill="none" xmlns="http://www.w3.org/2000/svg">
<path d="M13.4 7.22119C11.2468 7.22119 9.5 8.96683 9.5 11.1212C9.5 13.2744 11.2468 15.0212 13.4 15.0212C15.5532 15.0212 17.3 13.2744 17.3 11.1212C17.3 8.96683 15.5532 7.22119 13.4 7.22119Z" fill="black"/>
<path d="M9.50065 17.6211L4.30078 22.821L6.13924 24.659L9.50065 21.2976V33.2207H12.1008V28.0208H14.7009V33.2207H17.3007V17.6211H9.50065Z" fill="black"/>
<path d="M35.5004 22.821L30.3005 17.6211H22.5005L19.9004 29.3207H22.5005V33.2207H25.1003V29.3207H27.7004V33.2207H30.3005V29.3207H32.9003L31.35 22.3487L33.6619 24.659L35.5004 22.821Z" fill="black"/>
<path d="M26.4 7.22119C24.2468 7.22119 22.5 8.96683 22.5 11.1212C22.5 13.2744 24.2468 15.0212 26.4 15.0212C28.5532 15.0212 30.3 13.2744 30.3 11.1212C30.3 8.96683 28.5532 7.22119 26.4 7.22119Z" fill="black"/>
</svg>
