<svg width="40" height="40" viewBox="0 0 40 40" fill="none" xmlns="http://www.w3.org/2000/svg">
<g clip-path="url(#clip0_2314_29294)">
<path d="M24.4259 5.8999C24.9604 5.42131 25.6751 5.13978 26.4559 5.17071C27.9421 5.22951 29.1519 6.44133 29.208 7.92767C29.2699 9.56377 27.9618 10.9096 26.3395 10.9096C25.6042 10.9096 24.9337 10.6328 24.4258 10.1781V15.6939H29.9415C29.463 16.2284 29.1814 16.9431 29.2123 17.7239C29.2712 19.2101 30.483 20.4199 31.9693 20.476C33.6054 20.5379 34.9511 19.2298 34.9511 17.6075C34.9511 16.8722 34.6743 16.2017 34.2196 15.6938H39.7992V2.23405C39.7993 1.17709 38.9425 0.320312 37.8856 0.320312H24.4259V5.8999Z" fill="black"/>
<path d="M20.9595 25.9768C20.9286 25.196 21.2102 24.4814 21.6887 23.9468H16.1729V29.4625C15.6384 28.9839 14.9237 28.7024 14.1429 28.7333C12.6567 28.7921 11.4469 30.004 11.3908 31.4903C11.3289 33.1264 12.637 34.4721 14.2593 34.4721C14.9946 34.4721 15.6651 34.1953 16.173 33.7407V39.3202H29.6327C30.6896 39.3202 31.5465 38.4635 31.5465 37.4065V23.9468H25.9669C26.4215 24.4547 26.6984 25.1252 26.6984 25.8605C26.6984 27.4828 25.3525 28.7908 23.7165 28.729C22.2301 28.6728 21.0182 27.4631 20.9595 25.9768Z" fill="black"/>
<path d="M18.086 13.4213C17.3506 13.4213 16.6801 13.6981 16.1722 14.1528V8.57324H2.71257C1.65561 8.57324 0.798828 9.43002 0.798828 10.4869V21.6615H3.37496C3.56143 19.0654 5.7027 16.9799 8.31981 16.881C8.386 16.8785 8.45174 16.8773 8.51748 16.8773C11.2354 16.8773 13.4689 18.9913 13.6599 21.6615H16.1723V18.4309C16.7069 18.9095 17.4215 19.191 18.2024 19.1601C19.6885 19.1013 20.8983 17.8894 20.9544 16.4031C21.0163 14.7671 19.7083 13.4213 18.086 13.4213Z" fill="black"/>
<path d="M10.5444 35.1776C9.5637 34.1591 9.05304 32.8189 9.10659 31.4041C9.20546 28.787 11.291 26.6458 13.8871 26.4593V23.9469H10.6565C11.1111 23.439 11.388 22.7685 11.388 22.0332C11.388 20.4109 10.0422 19.1029 8.40619 19.1647C6.91985 19.2209 5.70803 20.4306 5.64922 21.9168C5.61837 22.6976 5.89991 23.4123 6.37842 23.9468H0.798828V37.4066C0.798828 38.4636 1.65561 39.3204 2.71257 39.3204H13.8872V36.7439C12.6266 36.6515 11.425 36.0921 10.5444 35.1776Z" fill="black"/>
</g>
<defs>
<clipPath id="clip0_2314_29294">
<rect width="39" height="39" fill="white" transform="translate(0.798828 0.320312)"/>
</clipPath>
</defs>
</svg>
