<svg width="35" height="29" viewBox="0 0 35 29" fill="none" xmlns="http://www.w3.org/2000/svg">
<path d="M26.8449 0.28125C26.2389 0.281901 25.6579 0.512579 25.2294 0.922673C24.8009 1.33277 24.5598 1.88879 24.5592 2.46875V2.8329C22.1189 5.30484 18.8171 6.99749 16.4433 7.99171C13.5279 9.21268 10.8452 9.85156 9.70201 9.85156H2.84487C2.16311 9.85229 1.5095 10.1118 1.02743 10.5732C0.545354 11.0345 0.274194 11.66 0.273438 12.3125V16.6875C0.274194 17.34 0.545354 17.9655 1.02743 18.4268C1.5095 18.8882 2.16311 19.1477 2.84487 19.1484H4.27344V24.8906C4.27344 25.1082 4.36374 25.3168 4.52449 25.4707C4.68523 25.6245 4.90325 25.7109 5.13058 25.7109H7.98772C8.17888 25.7109 8.36455 25.6498 8.51522 25.5372C8.6659 25.4246 8.77292 25.2671 8.81929 25.0896L10.3587 19.197C11.7039 19.3666 13.9912 19.9816 16.4433 21.0086C18.8171 22.0028 22.1189 23.6954 24.5592 26.1674V26.5312C24.5592 27.1114 24.8 27.6678 25.2286 28.078C25.6573 28.4883 26.2387 28.7188 26.8449 28.7188C27.4511 28.7188 28.0325 28.4883 28.4611 28.078C28.8898 27.6678 29.1306 27.1114 29.1306 26.5312V2.46875C29.1299 1.88879 28.8889 1.33277 28.4604 0.922673C28.0319 0.512579 27.4509 0.281901 26.8449 0.28125ZM8.84487 17.5078H5.98772V11.4922H8.84487V17.5078ZM1.98772 16.6875V12.3125C1.98797 12.095 2.07835 11.8865 2.23905 11.7327C2.39974 11.5789 2.61761 11.4924 2.84487 11.4922H4.27344V17.5078H2.84487C2.61761 17.5076 2.39974 17.4211 2.23905 17.2673C2.07835 17.1135 1.98797 16.905 1.98772 16.6875V16.6875ZM7.31851 24.0703H5.98772V19.1484H8.60422L7.31851 24.0703ZM10.5592 17.5713V11.4288C13.5719 11.0448 20.0545 8.90902 24.5592 5.10831V23.8917C20.0545 20.091 13.5719 17.9552 10.5592 17.5713ZM27.4163 26.5312C27.4163 26.6763 27.3561 26.8154 27.2489 26.9179C27.1418 27.0205 26.9964 27.0781 26.8449 27.0781C26.6933 27.0781 26.548 27.0205 26.4408 26.9179C26.3336 26.8154 26.2734 26.6763 26.2734 26.5312V2.46875C26.2734 2.32371 26.3336 2.18461 26.4408 2.08205C26.548 1.97949 26.6933 1.92188 26.8449 1.92188C26.9964 1.92188 27.1418 1.97949 27.2489 2.08205C27.3561 2.18461 27.4163 2.32371 27.4163 2.46875V26.5312Z" fill="url(#paint0_linear_3881_8952)"/>
<path d="M35.4164 13.6797H32.5593C32.332 13.6797 32.1139 13.7661 31.9532 13.92C31.7925 14.0738 31.7021 14.2824 31.7021 14.5C31.7021 14.7176 31.7925 14.9262 31.9532 15.08C32.1139 15.2339 32.332 15.3203 32.5593 15.3203H35.4164C35.6438 15.3203 35.8618 15.2339 36.0225 15.08C36.1833 14.9262 36.2736 14.7176 36.2736 14.5C36.2736 14.2824 36.1833 14.0738 36.0225 13.92C35.8618 13.7661 35.6438 13.6797 35.4164 13.6797V13.6797Z" fill="url(#paint1_linear_3881_8952)"/>
<path d="M31.1488 9.39603C31.2773 9.39602 31.404 9.36826 31.5196 9.31482L34.0948 8.12994C34.2997 8.03567 34.4571 7.86736 34.5323 7.66205C34.6075 7.45674 34.5944 7.23125 34.4959 7.03517C34.3974 6.83909 34.2215 6.6885 34.007 6.61651C33.7925 6.54453 33.5569 6.55705 33.352 6.65133L30.7771 7.83627C30.6019 7.9168 30.4605 8.0519 30.3761 8.21943C30.2917 8.38696 30.2693 8.57697 30.3125 8.75829C30.3558 8.93962 30.4621 9.10149 30.6141 9.21736C30.7661 9.33324 30.9548 9.39624 31.1491 9.39603H31.1488Z" fill="url(#paint2_linear_3881_8952)"/>
<path d="M34.0952 20.8701L31.5202 19.6852C31.3156 19.5927 31.081 19.5813 30.8677 19.6537C30.6544 19.726 30.4796 19.8762 30.3815 20.0714C30.2835 20.2666 30.27 20.491 30.3442 20.6957C30.4183 20.9003 30.5741 21.0686 30.7774 21.1637L33.3523 22.3487C33.5572 22.443 33.7928 22.4555 34.0073 22.3835C34.2219 22.3115 34.3977 22.1609 34.4962 21.9649C34.5947 21.7688 34.6078 21.5433 34.5326 21.338C34.4574 21.1327 34.3 20.9644 34.0952 20.8701Z" fill="url(#paint3_linear_3881_8952)"/>
<defs>
<linearGradient id="paint0_linear_3881_8952" x1="0.273437" y1="28.7186" x2="29.2622" y2="28.5838" gradientUnits="userSpaceOnUse">
<stop stop-color="#CA9342"/>
<stop offset="0.331885" stop-color="#D3A347"/>
<stop offset="0.711985" stop-color="#D8AF53"/>
<stop offset="1" stop-color="#E0BF62"/>
</linearGradient>
<linearGradient id="paint1_linear_3881_8952" x1="31.7021" y1="15.3203" x2="36.2938" y2="15.2617" gradientUnits="userSpaceOnUse">
<stop stop-color="#CA9342"/>
<stop offset="0.331885" stop-color="#D3A347"/>
<stop offset="0.711985" stop-color="#D8AF53"/>
<stop offset="1" stop-color="#E0BF62"/>
</linearGradient>
<linearGradient id="paint2_linear_3881_8952" x1="30.291" y1="9.39602" x2="34.6" y2="9.36603" gradientUnits="userSpaceOnUse">
<stop stop-color="#CA9342"/>
<stop offset="0.331885" stop-color="#D3A347"/>
<stop offset="0.711985" stop-color="#D8AF53"/>
<stop offset="1" stop-color="#E0BF62"/>
</linearGradient>
<linearGradient id="paint3_linear_3881_8952" x1="30.2969" y1="22.4297" x2="34.6003" y2="22.3998" gradientUnits="userSpaceOnUse">
<stop stop-color="#CA9342"/>
<stop offset="0.331885" stop-color="#D3A347"/>
<stop offset="0.711985" stop-color="#D8AF53"/>
<stop offset="1" stop-color="#E0BF62"/>
</linearGradient>
</defs>
</svg>
