<svg width="34" height="35" viewBox="0 0 34 35" fill="none" xmlns="http://www.w3.org/2000/svg">
<g clip-path="url(#clip0_4121_266)">
<path d="M11.0273 12.4279H14.0156V15.4161C14.0156 15.9662 14.4616 16.4122 15.0117 16.4122H18.9961C19.5462 16.4122 19.9922 15.9662 19.9922 15.4161V12.4279H22.9805C23.5306 12.4279 23.9766 11.9819 23.9766 11.4318V7.44739C23.9766 6.89728 23.5306 6.45129 22.9805 6.45129H19.9922V3.46301C19.9922 2.9129 19.5462 2.46692 18.9961 2.46692H15.0117C14.4616 2.46692 14.0156 2.9129 14.0156 3.46301V6.45129H11.0273C10.4772 6.45129 10.0312 6.89728 10.0312 7.44739V11.4318C10.0312 11.9819 10.4772 12.4279 11.0273 12.4279Z" fill="black"/>
<path d="M32.0286 6.50788C30.884 6.47614 29.9458 7.39407 29.9464 8.53221C29.9482 11.9023 29.9514 18.2749 29.9514 18.275C29.9507 19.0846 29.6319 19.8608 29.0529 20.4392L26.0549 23.4373C25.6759 23.8163 25.0585 23.8519 24.6614 23.4917C24.2374 23.107 24.2255 22.4498 24.6256 22.049L27.3802 19.2947C28.1885 18.4865 28.1905 17.1768 27.3848 16.3661C26.5781 15.5544 25.2653 15.5491 24.4523 16.3569L18.287 22.4774C18.0984 22.6647 17.9922 22.9197 17.9922 23.1853V32.4161H28.9492V27.6526L33.6999 22.9641C33.8892 22.7768 33.9961 22.5218 33.9961 22.2555V8.57431C33.9962 7.47104 33.1314 6.53843 32.0286 6.50788V6.50788Z" fill="black"/>
<path d="M9.54384 16.357C8.73143 15.5498 7.41857 15.5539 6.61127 16.3662C5.80616 17.1763 5.80703 18.486 6.61586 19.2948L9.37059 22.0491C9.77068 22.4499 9.75873 23.1071 9.33473 23.4918C8.93768 23.852 8.3203 23.8165 7.94126 23.4374L4.94328 20.4394C4.36422 19.861 4.04547 19.0846 4.0448 18.2751C4.0448 18.275 4.04799 11.9593 4.04972 8.57781C4.05032 7.44127 3.1207 6.48502 1.98442 6.50759C0.884133 6.52951 0 7.42759 0 8.53212V22.2556C0 22.5219 0.106914 22.7769 0.296172 22.9642L5.04688 27.6527V32.4162H16.0039V23.1854C16.0039 22.9198 15.8977 22.6648 15.7091 22.4775L9.54384 16.357Z" fill="black"/>
</g>
<defs>
<clipPath id="clip0_4121_266">
<rect width="34" height="34" fill="white" transform="translate(0 0.441528)"/>
</clipPath>
</defs>
</svg>
