<svg width="16" height="15" viewBox="0 0 16 15" fill="none" xmlns="http://www.w3.org/2000/svg">
<g clip-path="url(#clip0_2261_22379)">
<path d="M14.4385 0.728516H9.58373C9.27212 0.728516 9.01953 0.981134 9.01953 1.29274V2.78063C9.1243 2.80784 9.22572 2.85505 9.31796 2.92358C9.70164 3.20869 9.78155 3.75087 9.49645 4.13458L9.01956 4.77634V6.49716H10.4255V6.46147C10.4255 5.96208 11.0026 5.67996 11.3967 5.9869L12.9458 7.1935C13.2548 7.43421 13.2553 7.90156 12.9458 8.14264L11.3967 9.34924C11.0027 9.6561 10.4255 9.37422 10.4255 8.87467V8.83899H9.01956V13.7076C9.01956 14.0192 9.27218 14.2718 9.58376 14.2718H14.4386C14.7502 14.2718 15.0028 14.0192 15.0028 13.7076V1.29274C15.0027 0.981134 14.7501 0.728516 14.4385 0.728516Z" fill="#D4B56A"/>
<path d="M6.8406 3.12297C7.31896 2.64462 7.31896 1.86905 6.8406 1.3907C6.36225 0.912341 5.58668 0.912341 5.10833 1.3907C4.62997 1.86905 4.62997 2.64462 5.10833 3.12298C5.58668 3.60133 6.36225 3.60133 6.8406 3.12297Z" fill="#D4B56A"/>
<path d="M9.13234 3.17218C8.88609 2.98917 8.53804 3.04044 8.35503 3.28675L7.25954 4.76091L6.20061 4.39882L6.74147 4.46893C6.66247 4.20202 6.43436 3.99199 6.14074 3.95064L4.62183 3.74051C4.31272 3.69775 3.99823 3.7602 3.72889 3.9178L1.9364 4.96677C1.75454 5.07339 1.64871 5.27374 1.66312 5.48404L1.83645 8.01105C1.85746 8.31755 2.12317 8.54845 2.42873 8.52732C2.73485 8.50634 2.96601 8.24116 2.945 7.93504L2.79521 5.75131L3.52569 5.32302L3.12745 8.01545C3.10787 8.14778 3.09355 8.28084 3.08451 8.41431L2.95835 10.277L0.55542 10.6915C0.192573 10.7541 -0.0508305 11.099 0.0117666 11.4619C0.0743638 11.8247 0.41922 12.0681 0.782125 12.0055L3.70148 11.5019C4.00454 11.4496 4.23254 11.1967 4.25332 10.8899L4.39104 8.85615L5.17971 8.98563L5.94376 10.6065L6.26811 13.6748C6.30676 14.0404 6.63421 14.3064 7.00122 14.2678C7.36739 14.2291 7.63286 13.9008 7.59415 13.5347L7.25792 10.3541C7.25006 10.2799 7.22981 10.2075 7.19797 10.1399L6.28924 8.21216L6.60909 5.90024L5.84105 5.45021L7.28372 5.94353C7.5133 6.022 7.76589 5.94236 7.90942 5.74919L9.24683 3.94946C9.42992 3.70321 9.37862 3.35519 9.13234 3.17218Z" fill="#D4B56A"/>
<path d="M10.7797 8.48483V8.87476C10.7797 9.08083 11.0167 9.19623 11.1789 9.06983L12.728 7.86323C12.8551 7.76424 12.8551 7.57208 12.728 7.47309L11.1789 6.26649C11.0169 6.14024 10.7797 6.25531 10.7797 6.46156V6.85152H8.68532C8.53982 6.85152 8.42188 6.96946 8.42188 7.11497V8.22135C8.42188 8.36685 8.53982 8.4848 8.68532 8.4848H10.7797V8.48483Z" fill="#D4B56A"/>
</g>
<defs>
<clipPath id="clip0_2261_22379">
<rect width="15" height="15" fill="white" transform="translate(0.00195312)"/>
</clipPath>
</defs>
</svg>
