<svg width="50" height="50" viewBox="0 0 50 50" fill="none" xmlns="http://www.w3.org/2000/svg">
<g clip-path="url(#clip0_4598_4677)">
<path d="M49.1439 8.94317C48.6889 4.6791 45.3212 1.31073 41.0568 0.856017C30.3627 -0.285339 19.6373 -0.285339 8.94355 0.856017C4.6791 1.31111 1.31111 4.6791 0.856017 8.94317C-0.285339 19.6369 -0.285339 30.3627 0.856017 41.0564C1.31111 45.3209 4.6791 48.6889 8.94317 49.1439C19.6369 50.2853 30.3627 50.2853 41.0568 49.1439C45.3212 48.6889 48.6889 45.3209 49.1439 41.0564C50.2853 30.3627 50.2853 19.6373 49.1439 8.94317Z" fill="url(#paint0_radial_4598_4677)"/>
<path d="M46.4211 10.7517C46.0175 6.9679 43.0291 3.97909 39.2449 3.57511C29.7555 2.56269 20.2378 2.56269 10.7484 3.57511C6.9646 3.97909 3.97579 6.9679 3.57181 10.7517C2.5594 20.2411 2.5594 29.7588 3.57181 39.2478C3.97579 43.032 6.9646 46.0208 10.7484 46.4244C20.2378 47.4372 29.7555 47.4372 39.2445 46.4244C43.0287 46.0208 46.0175 43.032 46.4211 39.2478C47.4339 29.7588 47.4339 20.2411 46.4211 10.7517Z" fill="url(#paint1_linear_4598_4677)"/>
<path d="M0.75 40.02C0.784332 40.3656 0.819809 40.7112 0.856811 41.0568C1.3119 45.3209 4.6799 48.6889 8.94434 49.1439C19.6381 50.2853 30.3639 50.2853 41.0576 49.1439C45.322 48.6889 48.6896 45.3209 49.1447 41.0568C49.1817 40.7112 49.2172 40.3656 49.2519 40.02H0.75Z" fill="url(#paint2_linear_4598_4677)"/>
<path d="M49.1469 41.0564C49.7603 35.3103 50.0434 29.5551 49.9976 23.8006L38.5687 12.3718C37.1409 10.7418 35.0554 9.7244 32.6049 9.63628C27.5653 9.4547 22.5096 9.46386 17.4693 9.63705C13.283 9.78124 10.3557 12.595 9.60492 16.7305C9.47255 17.4606 9.3932 18.2003 9.28906 18.9357V31.0596C9.34666 31.4525 9.43135 31.8435 9.45767 32.2387C9.62552 34.7541 10.6593 36.9087 12.3145 38.3663L23.9447 49.9961C29.6523 50.0362 35.3602 49.7524 41.0597 49.1439C45.3242 48.6888 48.6918 45.3208 49.1469 41.0564Z" fill="url(#paint3_linear_4598_4677)"/>
<path d="M49.1426 41.0568C48.6879 45.3205 45.3191 48.6892 41.0554 49.1439C35.3567 49.752 29.6476 50.0362 23.9408 49.9962L12.3281 38.3835C13.6743 39.5618 15.4291 40.2794 17.4654 40.356C22.5046 40.5452 27.5613 40.5403 32.6006 40.3587C37.1583 40.1939 40.4565 36.8206 40.5988 32.2628C40.7506 27.4235 40.7506 22.5716 40.5988 17.7322C40.534 15.6296 39.7958 13.7794 38.5721 12.3795L49.9937 23.801C50.0387 29.5547 49.7556 35.3107 49.1426 41.0568Z" fill="url(#paint4_linear_4598_4677)"/>
<path d="M30.9006 19.5858C29.4365 17.9916 27.3357 16.9914 25.0008 16.9914C20.578 16.9914 16.9922 20.5772 16.9922 25C16.9922 27.3349 17.9924 29.4357 19.5866 30.8998L38.1157 49.4289C39.0964 49.3434 40.0772 49.2484 41.0572 49.1439C45.3216 48.6888 48.6896 45.3208 49.1447 41.0564C49.2492 40.0764 49.3442 39.0956 49.4297 38.1149L30.9006 19.5858Z" fill="url(#paint5_linear_4598_4677)"/>
<path d="M49.9026 30.3859L34.9902 15.4739C34.6423 15.0173 34.0941 14.7209 33.4758 14.7209C32.4237 14.7209 31.5703 15.5739 31.5703 16.6263C31.5703 17.2447 31.8667 17.7929 32.3233 18.1408L49.6359 35.4537C49.7534 33.765 49.8423 32.0755 49.9026 30.3859Z" fill="url(#paint6_linear_4598_4677)"/>
<path d="M9.28906 18.9357C9.3932 18.2003 9.47255 17.4606 9.60492 16.7305C10.3553 12.595 13.283 9.78124 17.4693 9.63705C22.5096 9.46386 27.5653 9.4547 32.6049 9.63628C37.1611 9.80031 40.4608 13.174 40.6031 17.7318C40.7546 22.5715 40.7546 27.4231 40.6031 32.2628C40.4608 36.8206 37.1623 40.1939 32.6052 40.3583C27.5656 40.5403 22.5089 40.5448 17.4697 40.3556C12.9126 40.1844 9.76247 36.803 9.45767 32.2383C9.43135 31.8435 9.34666 31.4521 9.28906 31.0592C9.28906 27.0179 9.28906 22.9766 9.28906 18.9357ZM25.0071 37.6571C27.3135 37.6571 29.6221 37.7262 31.9255 37.6411C35.5368 37.5072 37.7581 35.3519 37.8424 31.744C37.947 27.2483 37.947 22.7466 37.8424 18.2506C37.7581 14.6435 35.5353 12.4378 31.9255 12.3611C27.3436 12.2642 22.7568 12.265 18.175 12.3611C14.5926 12.4363 12.3649 14.5973 12.2676 18.1648C12.144 22.7173 12.144 27.2777 12.2676 31.8302C12.3649 35.3973 14.5926 37.5083 18.1754 37.6411C20.4497 37.7258 22.7298 37.6571 25.0071 37.6571Z" fill="url(#paint7_linear_4598_4677)"/>
<path d="M9.28906 18.9357C9.3932 18.2003 9.47255 17.4606 9.60492 16.7305C10.3553 12.595 13.283 9.78124 17.4693 9.63705C22.5096 9.46386 27.5653 9.4547 32.6049 9.63628C37.1611 9.80031 40.4608 13.174 40.6031 17.7318C40.7546 22.5715 40.7546 27.4231 40.6031 32.2628C40.4608 36.8206 37.1623 40.1939 32.6052 40.3583C27.5656 40.5403 22.5089 40.5448 17.4697 40.3556C12.9126 40.1844 9.76247 36.803 9.45767 32.2383C9.43135 31.8435 9.34666 31.4521 9.28906 31.0592C9.28906 27.0179 9.28906 22.9766 9.28906 18.9357ZM25.0071 37.6571C27.3135 37.6571 29.6221 37.7262 31.9255 37.6411C35.5368 37.5072 37.7581 35.3519 37.8424 31.744C37.947 27.2483 37.947 22.7466 37.8424 18.2506C37.7581 14.6435 35.5353 12.4378 31.9255 12.3611C27.3436 12.2642 22.7568 12.265 18.175 12.3611C14.5926 12.4363 12.3649 14.5973 12.2676 18.1648C12.144 22.7173 12.144 27.2777 12.2676 31.8302C12.3649 35.3973 14.5926 37.5083 18.1754 37.6411C20.4497 37.7258 22.7298 37.6571 25.0071 37.6571Z" fill="white"/>
<path d="M25.0008 16.9918C20.578 16.9918 16.9922 20.5772 16.9922 24.9999C16.9922 29.4231 20.578 33.0085 25.0008 33.0085C29.4239 33.0085 33.0093 29.4231 33.0093 24.9999C33.0093 20.5772 29.4239 16.9918 25.0008 16.9918ZM25.0008 30.2513C22.1004 30.2513 19.7494 27.9003 19.7494 24.9999C19.7494 22.0996 22.1004 19.7486 25.0008 19.7486C27.9011 19.7486 30.2521 22.0996 30.2521 24.9999C30.2521 27.9003 27.9011 30.2513 25.0008 30.2513Z" fill="white"/>
<path d="M35.3808 16.6263C35.3808 17.6784 34.5278 18.5314 33.4758 18.5314C32.4237 18.5314 31.5703 17.6784 31.5703 16.6263C31.5703 15.5739 32.4237 14.7209 33.4758 14.7209C34.5278 14.7209 35.3808 15.5739 35.3808 16.6263Z" fill="white"/>
</g>
<defs>
<radialGradient id="paint0_radial_4598_4677" cx="0" cy="0" r="1" gradientUnits="userSpaceOnUse" gradientTransform="translate(10.2497 43.696) scale(55.1412)">
<stop stop-color="#FAE100"/>
<stop offset="0.0544" stop-color="#FADC04"/>
<stop offset="0.1167" stop-color="#FBCE0E"/>
<stop offset="0.1829" stop-color="#FCB720"/>
<stop offset="0.2514" stop-color="#FE9838"/>
<stop offset="0.3054" stop-color="#FF7950"/>
<stop offset="0.4922" stop-color="#FF1C74"/>
<stop offset="1" stop-color="#6C1CD1"/>
</radialGradient>
<linearGradient id="paint1_linear_4598_4677" x1="19.1737" y1="21.7245" x2="-65.5322" y2="-25.9225" gradientUnits="userSpaceOnUse">
<stop stop-color="#A1B5D8" stop-opacity="0"/>
<stop offset="0.3094" stop-color="#90A2BD" stop-opacity="0.309804"/>
<stop offset="0.7554" stop-color="#7C8B9C" stop-opacity="0.756863"/>
<stop offset="1" stop-color="#748290"/>
</linearGradient>
<linearGradient id="paint2_linear_4598_4677" x1="25.0008" y1="44.1373" x2="25.0008" y2="51.931" gradientUnits="userSpaceOnUse">
<stop stop-color="#FAE100" stop-opacity="0"/>
<stop offset="0.3068" stop-color="#FCA800" stop-opacity="0.305882"/>
<stop offset="0.6275" stop-color="#FE7300" stop-opacity="0.627451"/>
<stop offset="0.8685" stop-color="#FF5200" stop-opacity="0.866667"/>
<stop offset="1" stop-color="#FF4500"/>
</linearGradient>
<linearGradient id="paint3_linear_4598_4677" x1="22.1584" y1="22.0847" x2="9.78426" y2="9.71054" gradientUnits="userSpaceOnUse">
<stop stop-color="#833AB4" stop-opacity="0"/>
<stop offset="1" stop-color="#833AB4"/>
</linearGradient>
<linearGradient id="paint4_linear_4598_4677" x1="34.2662" y1="45.7312" x2="28.09" y2="16.615" gradientUnits="userSpaceOnUse">
<stop stop-color="#833AB4" stop-opacity="0"/>
<stop offset="1" stop-color="#833AB4"/>
</linearGradient>
<linearGradient id="paint5_linear_4598_4677" x1="36.6184" y1="36.6176" x2="11.8114" y2="11.8106" gradientUnits="userSpaceOnUse">
<stop stop-color="#833AB4" stop-opacity="0"/>
<stop offset="1" stop-color="#833AB4"/>
</linearGradient>
<linearGradient id="paint6_linear_4598_4677" x1="38.4572" y1="21.6077" x2="30.254" y2="13.4045" gradientUnits="userSpaceOnUse">
<stop stop-color="#833AB4" stop-opacity="0"/>
<stop offset="1" stop-color="#833AB4"/>
</linearGradient>
<linearGradient id="paint7_linear_4598_4677" x1="34.9305" y1="15.1415" x2="14.7044" y2="35.3676" gradientUnits="userSpaceOnUse">
<stop stop-color="#833AB4"/>
<stop offset="0.0922" stop-color="#9C3495"/>
<stop offset="0.2927" stop-color="#DC2546"/>
<stop offset="0.392" stop-color="#FD1D1D"/>
<stop offset="0.5589" stop-color="#FC6831"/>
<stop offset="0.6887" stop-color="#FC9B40"/>
<stop offset="0.7521" stop-color="#FCAF45"/>
<stop offset="0.7806" stop-color="#FDB750"/>
<stop offset="0.8656" stop-color="#FECB6A"/>
<stop offset="0.9415" stop-color="#FFD87A"/>
<stop offset="1" stop-color="#FFDC80"/>
</linearGradient>
<clipPath id="clip0_4598_4677">
<rect width="50" height="50" fill="white"/>
</clipPath>
</defs>
</svg>
