<svg width="924" height="661" viewBox="0 0 924 661" fill="none" xmlns="http://www.w3.org/2000/svg">
<path d="M856.264 422.976L471.371 623.802C468.297 625.389 464.826 626.281 461.454 626.281C458.082 626.281 454.71 625.488 451.735 623.901L67.8339 428.133C57.5198 422.876 53.2553 410.48 58.1148 399.967L207.074 78.1492C210.545 70.612 218.28 65.6533 226.611 65.6533H700.66C708.991 65.6533 716.726 70.612 720.198 78.1492L865.784 394.91C870.644 405.323 866.479 417.719 856.264 422.976Z" fill="#1A171B"/>
<path d="M282.349 19.7352C281.555 16.8592 279.473 14.5782 276.597 13.5865C273.82 12.5947 270.646 13.0906 268.266 14.8757C266.977 15.8675 237.225 38.6774 213.225 68.727C191.605 95.8014 178.415 118.512 177.919 119.405C177.324 120.396 176.927 121.586 176.828 122.677C176.729 123.57 165.225 209.851 151.936 279.074C138.547 348.496 110.084 408.396 109.787 408.991C108.299 411.967 108.696 415.537 110.679 418.215C111.274 419.107 126.547 439.14 141.324 455.702C156.2 472.363 188.927 500.628 190.316 501.818C192.795 503.901 196.167 504.496 199.142 503.405C202.217 502.314 204.398 499.636 204.894 496.463L216.101 430.81C220.266 432.099 225.423 433.686 231.175 435.372C239.605 437.851 247.737 439.834 253.093 441.124L264.795 546.049C265.093 549.124 267.076 551.801 269.853 553.091C270.349 553.289 282.845 559.239 305.952 567.57C329.655 576.099 357.423 579.074 358.613 579.173C358.911 579.173 359.208 579.272 359.605 579.272C361.886 579.272 364.068 578.38 365.655 576.892C367.539 575.107 368.531 572.628 368.531 570.049C368.531 568.76 363.572 439.14 341.357 299.801C319.142 160.463 282.745 21.1237 282.349 19.7352ZM245.952 354.545L227.704 353.454C229.787 340.562 233.555 317.058 236.531 297.421C237.126 293.355 237.721 288.297 238.216 282.744C241.886 311.306 244.663 339.868 245.952 354.545Z" fill="#1A171B" stroke="#1A171B" stroke-width="21.6802" stroke-miterlimit="10"/>
<path d="M818.282 409.091C817.984 408.496 789.521 348.595 776.133 279.173C762.745 209.95 751.34 123.57 751.24 122.777C751.042 121.586 750.745 120.496 750.15 119.504C749.555 118.512 736.364 95.9005 714.844 68.8262C690.844 38.6774 660.993 15.8675 659.703 14.8757C657.323 13.0906 654.249 12.5947 651.373 13.5865C648.596 14.5782 646.414 16.8592 645.621 19.7352C645.224 21.1237 608.827 160.463 586.712 299.801C564.596 439.14 559.637 568.76 559.538 570.049C559.439 572.628 560.431 575.107 562.414 576.892C564.1 578.479 566.282 579.272 568.464 579.272C568.761 579.272 569.059 579.272 569.455 579.173C570.645 579.074 598.414 576 622.117 567.57C645.224 559.239 657.72 553.388 658.216 553.091C660.993 551.801 662.877 549.124 663.274 546.049L674.877 441.223C680.232 439.934 688.364 437.95 696.794 435.471C702.645 433.785 707.802 432.198 711.869 430.909L723.075 496.562C723.571 499.735 725.852 502.413 728.827 503.504C731.902 504.595 735.274 504 737.654 501.917C739.042 500.727 771.769 472.562 786.645 455.801C801.422 439.239 816.596 419.206 817.29 418.314C819.373 415.636 819.769 412.066 818.282 409.091ZM700.265 353.454L682.017 354.545C683.307 339.868 686.083 311.306 689.753 282.744C690.249 288.396 690.844 293.355 691.439 297.421C694.414 317.157 698.183 340.562 700.265 353.454Z" fill="#1A171B" stroke="#1A171B" stroke-width="21.6802" stroke-miterlimit="10"/>
<path d="M462.447 16.7598C422.976 16.7598 396.794 45.5201 395.703 46.7102C394.117 48.4953 393.323 50.8755 393.422 53.3548C393.522 54.9416 405.026 210.247 405.026 320.132C405.026 388.264 399.373 616.363 399.274 618.644C399.174 621.024 400.067 623.305 401.753 624.991C402.645 625.884 423.869 647.801 461.257 647.801C498.745 647.801 520.067 625.487 520.959 624.495C522.546 622.809 523.439 620.528 523.34 618.148C523.241 616.264 518.084 426.446 518.084 320.132C518.084 214.016 528.993 56.1317 529.092 54.5449C529.29 52.3631 528.596 50.1813 527.207 48.4953C526.414 47.1069 502.315 16.7598 462.447 16.7598Z" fill="#1A171B" stroke="#1A171B" stroke-width="21.6802" stroke-miterlimit="10"/>
<path d="M461.356 637.884C430.414 637.884 411.769 620.925 409.29 618.446C409.587 607.239 415.042 386.975 415.042 320.132C415.042 212.727 404.133 62.2808 403.439 53.0576C406.215 50.0824 429.521 26.6775 462.546 26.6775C495.67 26.6775 516.992 51.2725 519.373 54.2477C518.777 63.0742 508.364 216.297 508.364 320.132C508.364 424.165 513.323 607.834 513.62 617.95C511.042 620.43 492.298 637.884 461.356 637.884ZM358.513 569.157C353.058 568.463 329.257 565.289 309.323 558.149C289.29 550.909 277.191 545.454 274.612 544.264L262.215 432.992L261.521 432.793C261.422 432.793 247.835 429.818 233.951 425.752C220.067 421.686 209.455 418.115 209.257 418.115L208.166 417.719L195.373 492.892C189.025 487.339 161.455 463.239 148.563 448.859C135.273 433.983 121.29 415.636 118.811 412.562C121.786 406.314 148.463 348 161.455 280.76C174.546 212.826 185.852 128.628 186.447 123.967C187.736 121.785 200.728 99.9667 220.86 74.6775C241.389 48.8923 267.174 27.9667 273.025 23.5039C276.992 38.6775 310.513 169.983 331.439 301.091C352.463 433.091 357.918 555.967 358.513 569.157ZM233.158 188.826C233.158 189.62 230.976 267.372 226.711 295.934C222.447 324.595 216.397 361.289 216.298 361.587L216.1 362.677L256.761 365.058L256.662 363.967C256.662 363.471 252.695 316.264 246.744 272.132C240.794 228.099 235.141 189.025 235.042 188.727L233.158 188.826ZM569.554 569.157C570.05 555.967 575.604 433.091 596.53 301.289C617.356 170.082 650.976 38.8758 654.943 23.7023C660.695 28.2642 686.48 49.0907 707.108 74.8758C727.339 100.165 740.232 122.082 741.521 124.165C742.116 128.826 753.422 213.025 766.513 280.958C779.505 348.198 806.282 406.512 809.158 412.76C806.777 415.934 792.695 434.281 779.406 449.058C766.612 463.438 739.042 487.537 732.596 493.091L719.802 417.917L718.711 418.314C718.612 418.314 708.001 421.884 694.017 425.95C680.133 430.016 666.645 432.992 666.447 432.992L665.753 433.19L653.356 544.463C650.877 545.653 638.777 551.107 618.645 558.347C598.811 565.388 575.009 568.562 569.554 569.157ZM692.827 188.727C692.728 189.124 687.174 228.198 681.125 272.132C675.174 316.165 671.207 363.471 671.207 363.967L671.108 365.058L711.769 362.677L711.571 361.587C711.472 361.19 705.422 324.496 701.158 295.934C696.893 267.372 694.711 189.62 694.711 188.826L692.827 188.727Z" fill="url(#paint0_linear_2199_2)"/>
<path d="M655.438 25.3885C662.975 31.3389 686.876 51.2728 706.215 75.4712C725.951 100.165 738.744 121.587 740.43 124.463C741.322 130.909 752.43 214.017 765.422 281.157C778.116 346.81 803.901 404.033 807.868 412.661C804.694 416.827 791.207 434.281 778.513 448.463C766.513 461.951 741.322 484.066 733.19 491.207L720.893 418.909L720.496 416.628L718.314 417.322C718.215 417.322 707.603 420.893 693.719 424.959C679.835 429.025 666.347 431.901 666.248 432L664.86 432.298L664.661 433.686L652.463 543.67C649.091 545.157 637.289 550.413 618.347 557.256C599.703 564 577.587 567.174 570.546 568.066C571.339 550.017 576.992 429.917 597.422 301.488C617.752 173.851 650.083 46.215 655.438 25.3885ZM670.116 366.149L672.397 366.05L710.876 363.769L713.058 363.67L712.661 361.488C712.562 361.091 706.513 324.397 702.248 295.835C697.984 267.372 695.802 189.62 695.802 188.827L691.835 188.628C691.736 189.025 686.182 228.099 680.132 272.132C674.182 316.165 670.215 363.471 670.215 363.967L670.116 366.149ZM272.529 25.3885C277.884 46.215 310.215 173.851 330.546 301.389C350.975 429.917 356.727 549.917 357.422 567.967C350.38 567.075 328.265 563.901 309.62 557.157C290.678 550.314 278.876 545.157 275.504 543.57L263.306 433.587L263.108 432.198L261.719 431.901C261.62 431.901 248.132 428.926 234.248 424.86C220.364 420.793 209.752 417.322 209.653 417.223L207.471 416.529L207.075 418.81L194.777 491.108C186.546 483.967 161.455 461.851 149.455 448.364C136.761 434.182 123.372 416.727 120.099 412.562C124.066 404.033 149.851 346.81 162.546 281.058C175.537 213.917 186.645 130.909 187.537 124.364C189.223 121.488 202.116 100.066 221.752 75.372C241.091 51.2728 264.992 31.4381 272.529 25.3885ZM257.951 366.149L257.752 363.868C257.752 363.372 253.785 316.066 247.835 272.033C241.884 228 236.232 188.926 236.132 188.529L232.165 188.727C232.165 189.521 229.984 267.273 225.719 295.736C221.455 324.298 215.405 361.091 215.306 361.389L214.909 363.57L217.091 363.67L255.57 365.951L257.951 366.149ZM462.446 27.6695C494.182 27.6695 515.008 50.6778 518.281 54.5455C517.488 66.8431 507.273 217.488 507.273 320.132C507.273 422.975 512.132 603.57 512.529 617.554C509.157 620.727 490.909 636.893 461.356 636.893C431.802 636.893 413.653 621.223 410.281 618.05C410.678 602.479 415.934 386.281 415.934 320.132C415.934 214.116 405.323 66.1488 404.331 53.3554C408.199 49.4877 430.711 27.6695 462.446 27.6695ZM654.347 22.0166C654.347 22.0166 617.951 160.76 595.537 301.19C573.124 441.62 568.463 570.347 568.463 570.347C568.463 570.347 596.132 567.372 619.042 559.141C641.951 550.909 654.347 545.058 654.347 545.058L666.645 433.984C666.645 433.984 680.132 431.008 694.314 426.942C708.397 422.876 719.008 419.306 719.008 419.306L731.901 495.075C731.901 495.075 765.422 466.314 780.099 449.851C794.777 433.389 810.248 412.959 810.248 412.959C810.248 412.959 781.19 352.364 767.405 280.86C753.818 210.546 742.413 123.967 742.413 123.967C742.413 123.967 729.223 101.256 707.802 74.3802C684.298 44.7273 654.347 22.0166 654.347 22.0166ZM672.298 364.066C672.298 364.066 676.165 316.86 682.215 272.331C688.265 227.802 693.918 188.926 693.918 188.926C693.918 188.926 696.099 267.174 700.364 296.132C704.727 325.091 710.777 361.884 710.777 361.884L672.298 364.066ZM273.719 22.0166C273.719 22.0166 243.769 44.8265 220.265 74.2811C198.843 101.157 185.653 123.868 185.653 123.868C185.653 123.868 174.248 210.546 160.661 280.76C146.876 352.265 117.818 412.86 117.818 412.86C117.818 412.86 133.289 433.289 147.967 449.752C162.645 466.215 196.165 494.975 196.165 494.975L209.058 419.207C209.058 419.207 219.67 422.777 233.752 426.843C247.835 430.909 261.422 433.884 261.422 433.884L273.719 544.959C273.719 544.959 286.017 550.81 309.025 559.041C331.934 567.273 359.603 570.248 359.603 570.248C359.603 570.248 354.942 441.521 332.529 301.091C310.116 160.661 273.719 22.0166 273.719 22.0166ZM255.769 364.066L217.289 361.785C217.289 361.785 223.339 324.992 227.703 296.033C232.066 267.074 234.149 188.827 234.149 188.827C234.149 188.827 239.802 227.703 245.851 272.232C251.901 316.86 255.769 364.066 255.769 364.066ZM462.446 25.686C426.446 25.686 402.347 52.6612 402.347 52.6612C402.347 52.6612 413.951 208.661 413.951 320.132C413.951 389.256 408.199 618.843 408.199 618.843C408.199 618.843 427.24 638.876 461.256 638.876C495.273 638.876 514.413 618.347 514.413 618.347C514.413 618.347 509.157 427.736 509.157 320.132C509.157 212.529 520.165 53.9505 520.165 53.9505C520.165 53.9505 498.446 25.686 462.446 25.686Z" fill="#EFE285"/>
<path d="M78.7441 408.595L227.207 88.0664H700.166L845.157 403.537L461.455 603.769L78.7441 408.595Z" fill="#B78612"/>
<path d="M699.571 88.9589L843.968 403.141L461.455 602.777L79.9349 408.199L227.803 88.9589H699.571ZM700.662 87.1738H226.613L77.5547 408.992L461.455 604.761L846.348 403.934L700.662 87.1738Z" fill="#EFE285"/>
<path d="M99.6719 402.844L461.358 587.306L824.234 397.885L688.862 103.24H238.416L99.6719 402.844Z" fill="url(#paint1_linear_2199_2)"/>
<path d="M349.786 298.017C327.472 157.983 290.976 18.5454 290.58 16.9587C288.894 10.6116 284.233 5.5537 277.985 3.37188C271.737 1.19006 264.993 2.38015 259.737 6.34709C258.447 7.33882 227.604 30.9421 202.811 61.9835C180.695 89.6529 167.109 113.058 166.613 113.95C165.323 116.231 164.53 118.612 164.133 121.19C164.034 122.083 152.53 208.562 139.34 276.992C126.249 344.628 98.3813 403.736 98.0838 404.331C94.9102 410.975 95.7036 418.711 100.166 424.562C100.365 424.76 116.034 445.587 131.307 462.645C146.679 479.802 179.902 508.463 181.39 509.752C186.745 514.314 194.183 515.703 200.828 513.322C207.472 510.942 212.332 505.091 213.522 498.149L222.646 444.397C223.836 444.793 225.125 445.091 226.315 445.488C231.671 447.074 236.927 448.463 241.489 449.554L252.299 546.942C253.092 553.686 257.158 559.537 263.307 562.512C263.803 562.81 276.894 568.959 300.398 577.388C325.29 586.314 354.249 589.488 355.439 589.587C356.133 589.686 356.828 589.686 357.522 589.686C362.48 589.686 367.241 587.802 370.91 584.43C375.076 580.562 377.356 575.107 377.158 569.355C377.059 568.264 372.1 438.545 349.786 298.017Z" fill="#1A171B"/>
<path d="M825.919 404.529C825.522 403.636 797.654 344.727 784.663 277.19C771.572 209.454 760.365 124.958 759.869 121.388C759.572 118.81 758.679 116.33 757.39 114.148C756.795 113.157 743.307 89.851 721.192 62.1816C696.398 31.1402 665.555 7.53693 664.266 6.5452C659.01 2.57826 652.167 1.48735 646.018 3.56999C639.77 5.75181 635.109 10.8097 633.423 17.1568C631.935 22.9088 596.332 159.471 574.216 298.215C552.001 437.95 547.043 568.463 546.944 569.752C546.745 575.405 549.026 580.958 553.192 584.826C556.861 588.198 561.621 590.082 566.58 590.082C567.274 590.082 567.968 590.082 568.663 589.983C569.853 589.884 598.911 586.71 623.803 577.785C647.307 569.355 660.299 563.206 660.894 562.909C667.043 559.934 671.208 554.182 671.902 547.339L682.712 449.95C687.274 448.76 692.431 447.372 697.886 445.884C699.076 445.487 700.266 445.19 701.555 444.793L710.679 498.545C711.869 505.487 716.729 511.339 723.373 513.719C730.018 516.099 737.456 514.711 742.811 510.149C744.2 508.958 777.423 480.297 792.894 463.041C807.968 446.082 823.439 425.752 824.034 424.958C828.299 418.909 829.092 411.074 825.919 404.529Z" fill="#1A171B"/>
<path d="M460.464 6.0498C416.233 6.0498 386.977 38.2812 385.787 39.5705C382.216 43.5374 380.431 48.7936 380.828 54.0498C380.927 55.6366 392.431 210.447 392.431 320.033C392.431 388.265 386.778 615.967 386.679 618.248C386.58 623.504 388.464 628.463 392.034 632.232C394.613 634.909 418.018 658.314 459.274 658.314C501.324 658.314 525.72 632.728 526.712 631.637C530.282 627.868 532.167 622.909 531.968 617.653C531.869 615.769 526.712 426.248 526.712 319.934C526.712 213.818 537.621 56.6283 537.72 55.0415C538.018 50.182 536.629 45.5209 533.654 41.6531C532.663 40.463 505.489 6.0498 460.464 6.0498Z" fill="#1A171B"/>
<path d="M459.274 637.884C428.332 637.884 409.688 620.826 407.208 618.446C407.506 607.239 412.96 387.074 412.96 320.132C412.96 212.727 402.051 62.1815 401.357 53.0575C404.134 50.0823 427.44 26.6774 460.464 26.6774C493.588 26.6774 514.911 51.2724 517.291 54.2476C516.696 63.0741 506.283 216.297 506.283 320.132C506.283 424.165 511.241 607.934 511.539 617.95C509.059 620.429 490.316 637.884 459.274 637.884ZM356.431 569.157C350.977 568.463 327.175 565.289 307.241 558.148C287.109 550.909 275.109 545.454 272.531 544.264L260.134 432.991L259.44 432.793C259.341 432.793 245.754 429.818 231.869 425.752C217.985 421.686 207.374 418.115 207.175 418.115L206.084 417.719L193.39 493.19C187.043 487.636 159.473 463.537 146.58 449.157C133.291 434.281 119.208 415.934 116.828 412.76C119.704 406.512 146.481 348.198 159.473 280.958C172.564 213.024 183.869 128.826 184.464 124.165C185.754 122.082 198.745 100.165 218.878 74.8757C239.506 49.0906 265.291 28.165 271.043 23.7021C275.01 38.8757 308.531 170.082 329.456 301.289C350.481 433.091 355.936 556.066 356.431 569.157ZM231.175 188.826C231.175 189.62 228.993 267.372 224.729 295.934C220.464 324.595 214.415 361.289 214.316 361.586L214.117 362.677L254.779 365.058L254.679 363.967C254.679 363.471 250.712 316.264 244.762 272.132C238.812 228.099 233.159 189.024 233.06 188.727L231.175 188.826ZM567.572 569.157C568.068 556.066 573.621 433.091 594.547 301.289C615.374 170.082 648.993 38.8757 652.96 23.7021C658.712 28.2641 684.498 49.0906 705.126 74.8757C725.357 100.165 738.25 122.082 739.539 124.165C740.134 128.826 751.44 213.024 764.531 280.958C777.522 348.198 804.299 406.512 807.175 412.76C804.795 415.934 790.712 434.281 777.423 449.157C764.63 463.537 736.96 487.636 730.613 493.19L717.82 418.016L716.729 418.413C716.63 418.413 706.018 421.983 692.035 426.049C678.15 430.115 664.663 433.091 664.464 433.091L663.77 433.289L651.374 544.562C648.894 545.752 636.795 551.206 616.663 558.446C596.729 565.388 572.927 568.562 567.572 569.157ZM690.845 188.727C690.745 189.124 685.192 228.198 679.142 272.132C673.192 316.165 669.225 363.471 669.225 363.967L669.126 365.058L709.787 362.677L709.588 361.586C709.489 361.19 703.44 324.496 699.175 295.934C694.911 267.372 692.729 189.62 692.729 188.826L690.845 188.727Z" fill="url(#paint2_linear_2199_2)"/>
<path d="M270.546 25.3885C275.902 46.1158 308.232 173.851 328.563 301.488C348.993 430.017 354.745 550.116 355.439 568.066C348.397 567.174 326.282 564 307.637 557.256C288.695 550.413 276.893 545.256 273.521 543.67L261.323 433.686L261.125 432.298L259.736 432C259.637 432 246.15 429.025 232.265 424.959C218.381 420.893 207.769 417.422 207.67 417.322L205.488 416.628L205.092 418.909L192.794 491.306C184.563 484.165 159.472 462.05 147.472 448.562C134.778 434.38 121.389 416.926 118.116 412.76C122.083 404.232 147.869 347.008 160.563 281.256C173.555 214.116 184.662 131.008 185.555 124.562C187.24 121.686 200.133 100.265 219.769 75.5703C239.108 51.2728 263.009 31.3389 270.546 25.3885ZM255.869 366.149L255.67 363.868C255.67 363.372 251.703 316.066 245.753 272.033C239.802 228 234.15 188.926 234.05 188.529L230.083 188.727C230.083 189.521 227.902 267.273 223.637 295.736C219.373 324.298 213.323 361.091 213.224 361.389L212.827 363.57L215.009 363.67L253.488 365.951L255.869 366.149ZM653.455 25.3885C660.893 31.3389 684.893 51.2728 704.232 75.4712C723.968 100.165 736.761 121.587 738.447 124.463C739.34 130.909 750.447 214.017 763.439 281.157C776.133 346.909 801.918 404.132 805.885 412.661C802.711 416.827 789.224 434.281 776.53 448.463C764.53 461.951 739.34 484.066 731.207 491.207L718.91 418.81L718.513 416.529L716.331 417.223C716.232 417.223 705.621 420.793 691.736 424.86C677.852 428.926 664.364 431.802 664.265 431.901L662.877 432.198L662.678 433.587L650.48 543.57C647.108 545.058 635.307 550.314 616.364 557.157C597.72 563.901 575.604 567.075 568.563 567.967C569.356 550.017 575.009 429.917 595.439 301.389C615.769 173.851 648.1 46.1158 653.455 25.3885ZM668.133 366.149L670.414 366.05L708.893 363.769L711.075 363.67L710.678 361.488C710.579 361.091 704.53 324.397 700.265 295.835C696.001 267.372 693.819 189.62 693.819 188.827L689.852 188.628C689.753 189.025 684.199 228.099 678.15 272.132C672.199 316.165 668.232 363.471 668.232 363.967L668.133 366.149ZM460.464 27.6695C492.199 27.6695 513.026 50.6778 516.298 54.6447C515.505 66.8431 505.29 217.587 505.29 320.231C505.29 423.074 510.15 603.67 510.546 617.653C507.174 620.827 488.926 636.992 459.373 636.992C429.819 636.992 411.67 621.322 408.298 618.149C408.695 602.678 413.951 386.38 413.951 320.231C413.951 214.215 403.34 66.248 402.348 53.4546C406.116 49.4877 428.728 27.6695 460.464 27.6695ZM652.265 22.0166C652.265 22.0166 615.869 160.76 593.455 301.19C571.141 441.62 566.381 570.347 566.381 570.347C566.381 570.347 594.05 567.372 616.959 559.141C639.869 550.909 652.265 545.058 652.265 545.058L664.563 433.984C664.563 433.984 678.05 431.008 692.232 426.942C706.315 422.876 716.926 419.306 716.926 419.306L729.819 495.075C729.819 495.075 763.34 466.314 778.017 449.851C792.695 433.389 808.166 412.959 808.166 412.959C808.166 412.959 779.108 352.364 765.323 280.86C751.736 210.546 740.331 123.967 740.331 123.967C740.331 123.967 727.141 101.256 705.72 74.3802C682.216 44.7273 652.265 22.0166 652.265 22.0166ZM670.216 364.066C670.216 364.066 674.083 316.86 680.133 272.331C686.183 227.802 691.835 188.926 691.835 188.926C691.835 188.926 694.017 267.174 698.282 296.132C702.645 325.091 708.695 361.884 708.695 361.884L670.216 364.066ZM271.637 22.0166C271.637 22.0166 241.687 44.8265 218.183 74.2811C196.761 101.157 183.571 123.868 183.571 123.868C183.571 123.868 172.166 210.546 158.579 280.76C144.794 352.265 115.736 412.86 115.736 412.86C115.736 412.86 131.207 433.289 145.885 449.752C160.563 466.215 194.083 494.975 194.083 494.975L206.976 419.207C206.976 419.207 217.588 422.777 231.67 426.843C245.753 430.909 259.34 433.884 259.34 433.884L271.637 544.959C271.637 544.959 283.935 550.81 306.943 559.041C329.852 567.273 357.521 570.248 357.521 570.248C357.521 570.248 352.86 441.521 330.447 301.091C308.034 160.661 271.637 22.0166 271.637 22.0166ZM253.687 364.066L215.207 361.785C215.207 361.785 221.257 324.992 225.621 296.033C229.984 267.074 232.067 188.827 232.067 188.827C232.067 188.827 237.72 227.703 243.769 272.232C249.918 316.86 253.687 364.066 253.687 364.066ZM460.464 25.686C424.464 25.686 400.364 52.6612 400.364 52.6612C400.364 52.6612 411.968 208.661 411.968 320.132C411.968 389.256 406.216 618.843 406.216 618.843C406.216 618.843 425.257 638.876 459.274 638.876C493.29 638.876 512.431 618.347 512.431 618.347C512.431 618.347 507.174 427.736 507.174 320.132C507.174 212.529 518.183 53.9505 518.183 53.9505C518.183 53.9505 496.364 25.686 460.464 25.686Z" fill="#EFE285"/>
<path d="M919.042 244.959C916.563 236.628 910.91 229.587 902.381 224.033C895.736 219.669 887.604 216.892 878.381 215.504C869.753 214.215 861.72 214.711 854.48 216.793C851.406 214.512 847.935 213.124 844.067 212.628L805.092 207.57C800.43 206.975 795.769 207.868 791.703 210.049C789.521 208.76 787.24 207.768 784.86 206.876C781.092 205.587 774.745 203.901 757.885 201.917L741.323 200.033C739.34 199.835 737.356 199.835 735.373 200.132C733.488 199.339 731.505 198.942 729.521 198.744L706.017 196.463C704.926 196.363 703.736 196.363 702.645 196.363C701.554 196.066 700.463 195.868 699.273 195.768L675.769 193.487C674.48 193.388 673.191 193.388 671.802 193.487C670.513 193.091 669.125 192.892 667.835 192.793L616.463 188.727C615.075 188.628 613.687 188.628 612.199 188.826C610.711 188.43 609.323 188.231 607.835 188.132L588.1 187.041C585.819 186.942 583.637 187.14 581.455 187.636C579.373 186.843 577.191 186.347 574.91 186.248L555.174 185.157C553.191 185.058 551.108 185.256 549.125 185.653C547.24 185.058 545.356 184.76 543.373 184.661L504.1 183.471C502.91 183.471 501.72 183.471 500.629 183.669C499.24 183.372 497.951 183.273 496.563 183.273L471.67 183.173C469.687 183.173 467.703 183.471 465.819 183.967C463.935 183.471 461.951 183.173 459.968 183.173L434.976 183.074C430.612 183.074 426.348 184.363 422.678 186.744C421.588 186.347 420.397 186.049 419.306 185.851C415.141 184.859 408.199 183.868 390.546 184.363L372.893 184.859C369.224 184.959 365.654 185.95 362.48 187.835C359.207 186.347 355.736 185.653 352.166 185.851L318.149 187.636C309.224 188.132 301.587 193.884 298.513 201.917C297.224 199.537 295.439 197.355 293.356 195.57C288.794 191.702 283.042 189.818 277.092 190.314L257.455 191.801C255.174 192 252.992 192.496 250.91 193.289C248.728 192.793 246.546 192.595 244.265 192.793L224.629 194.281C222.546 194.479 220.563 194.876 218.579 195.669C216.695 195.372 214.711 195.273 212.827 195.471L189.323 197.653C183.373 198.149 178.017 201.025 174.249 205.587C171.373 209.058 169.687 213.124 169.191 217.487C167.902 213.322 165.422 209.653 161.951 206.777C157.29 203.008 151.538 201.322 145.587 201.917L122.083 204.397C118.116 204.793 114.447 206.281 111.273 208.562C107.703 207.074 103.835 206.479 99.9677 206.975L76.3643 209.554C72.8933 209.95 69.7197 211.14 66.8437 213.025C63.571 211.934 60.1991 211.537 56.728 212.033L22.9098 216.397C11.9015 217.884 3.47178 227.306 3.47178 238.413L3.27344 329.95C3.27344 336.397 6.0503 342.446 10.8106 346.711C15.571 350.975 22.0172 352.859 28.4635 352.066L52.6619 348.892C54.5462 348.694 56.3313 348.198 58.1164 347.504C60.0007 347.702 61.885 347.702 63.7693 347.504L87.6701 344.43C88.2652 344.33 88.9594 344.231 89.5544 344.132C90.447 344.132 91.3395 344.033 92.2321 343.934L129.918 339.471C130.91 339.372 131.902 339.173 132.992 338.876C134.083 338.975 135.174 338.876 136.265 338.777L173.951 334.711C179.009 334.215 183.571 331.934 187.141 328.463C191.306 331.24 196.265 332.529 201.422 332.033L224.926 329.851C226.711 329.653 228.397 329.355 230.083 328.76C231.67 328.959 233.257 329.058 234.844 328.959L254.48 327.471C256.563 327.273 258.645 326.876 260.53 326.182C262.513 326.578 264.596 326.678 266.678 326.578L287.307 324.992C291.968 324.595 296.331 322.81 299.802 319.934C303.373 322.116 307.439 323.306 311.604 323.306C312.001 323.306 312.397 323.306 312.794 323.306L337.191 322.016C339.075 321.917 340.959 321.62 342.745 321.025C344.629 321.421 346.414 321.521 348.298 321.421L372.397 320.231C373.092 320.231 373.687 320.132 374.381 320.033C374.877 320.033 375.373 320.132 375.968 320.132L406.315 319.339C413.753 319.14 419.306 318.545 423.769 317.454C427.439 316.562 430.811 315.173 433.984 313.388C437.951 316.661 442.91 318.446 448.067 318.545L483.968 318.744C486.645 318.744 489.422 318.248 491.902 317.256C494.381 318.347 497.059 318.843 499.736 318.942L540.596 320.231C541.786 320.231 542.877 320.231 544.166 320.033C545.257 320.231 546.348 320.43 547.439 320.43L567.174 321.521C569.257 321.62 571.34 321.421 573.323 321.025C575.306 321.719 577.29 322.116 579.373 322.215L600.001 323.405C603.373 323.603 606.645 323.008 609.72 321.719C612.695 323.504 616.067 324.595 619.538 324.892L643.042 326.777C649.191 327.273 655.24 325.19 659.703 321.124C661.984 323.008 664.464 324.694 667.24 326.182C673.885 329.851 681.422 332.132 689.852 332.925C697.687 333.719 705.026 333.025 711.472 331.041C712.464 330.744 713.356 330.446 714.348 330.049C717.521 332.529 721.389 334.116 725.455 334.611L748.86 337.289C750.05 337.388 751.24 337.487 752.43 337.388C753.621 337.686 754.811 337.983 756.001 338.082L777.72 340.562C779.307 340.76 780.794 340.76 782.48 340.562C784.067 341.157 785.654 341.554 787.34 341.752L827.902 347.008C831.373 347.504 835.042 347.107 838.315 345.818C844.662 349.686 852.1 352.264 860.43 353.554C863.505 354.049 866.579 354.248 869.554 354.248C875.207 354.248 880.563 353.454 885.621 351.868C895.042 348.892 902.282 343.835 907.141 336.793C911.108 330.942 913.687 323.603 915.075 313.487C916.662 302.182 916.166 292.859 913.488 285.124C916.364 281.851 918.149 277.884 918.844 273.62L919.34 270.049C921.224 259.438 921.026 251.504 919.042 244.959Z" fill="#1A171B"/>
<path d="M26.2799 239.008L59.2056 234.743L83.9989 322.016L61.0899 324.991L57.718 309.024L48.4948 310.214L49.189 326.578L25.9824 329.553L26.2799 239.008ZM45.8171 256.264C45.718 273.718 45.8171 286.611 46.2138 294.644V295.14L55.3378 293.95L55.2386 293.454C52.7593 283.437 49.8832 270.942 46.7097 256.165L45.8171 251.702V256.264Z" fill="url(#paint3_linear_2199_2)"/>
<path d="M58.9102 235.239L83.5052 321.52L61.5879 324.396L58.4143 309.322L58.216 308.429L57.3234 308.529L48.9929 309.62L48.1003 309.719V310.611L48.7945 326.082L26.5796 328.958L26.778 239.405L58.9102 235.239ZM45.8193 295.735L46.9102 295.636L54.9433 294.545L56.0342 294.446L55.7367 293.355C53.2573 283.339 50.3813 270.843 47.2077 256.066L45.3234 247.239L45.2243 256.264C45.1251 273.719 45.2243 286.71 45.621 294.644L45.8193 295.735ZM59.6044 234.148L25.7862 238.512L25.5879 330.049L49.7862 326.876L49.092 310.512L57.4226 309.421L60.7945 325.388L84.6953 322.314L59.6044 234.148ZM46.7119 294.644C46.3152 286.611 46.1168 273.818 46.3152 256.264C49.4887 271.14 52.2656 283.537 54.8441 293.553L46.7119 294.644Z" fill="#EFE285"/>
<path d="M79.5371 232.166L101.95 229.488L110.479 301.587L124.661 299.902L126.744 316.959L90.0495 321.224L79.5371 232.166Z" fill="url(#paint4_linear_2199_2)"/>
<path d="M101.553 230.083L109.983 301.191L110.082 302.182L111.074 302.083L124.363 300.496L126.247 316.562L90.5447 320.728L80.1315 232.562L101.553 230.083ZM102.346 228.992L78.9414 231.769L89.553 321.819L127.239 317.356L125.156 299.306L110.875 300.992L102.346 228.992Z" fill="#EFE285"/>
<path d="M124.762 226.909L147.274 224.43L154.91 296.628L169.191 295.14L171.076 312.198L134.282 316.066L124.762 226.909Z" fill="url(#paint5_linear_2199_2)"/>
<path d="M146.778 225.024L154.414 296.231L154.513 297.223L155.505 297.124L168.794 295.735L170.48 311.801L134.678 315.669L125.257 227.405L146.778 225.024ZM147.67 223.934L124.166 226.413L133.786 316.661L171.472 312.595L169.588 294.545L155.307 296.033L147.67 223.934Z" fill="#EFE285"/>
<path d="M191.705 220.066L214.217 217.983L222.35 307.339L199.837 309.421L191.705 220.066Z" fill="url(#paint6_linear_2199_2)"/>
<path d="M213.721 218.48L221.754 306.843L200.233 308.827L192.2 220.463L213.721 218.48ZM214.614 217.389L191.109 219.57L199.341 309.918L222.845 307.736L214.614 217.389Z" fill="#EFE285"/>
<path d="M226.713 216.793L245.457 215.306L262.911 257.553L259.539 214.215L278.184 212.826L285.126 302.281L265.391 303.768L248.928 260.826L252.3 304.859L233.655 306.248L226.713 216.793Z" fill="url(#paint7_linear_2199_2)"/>
<path d="M277.787 213.322L284.63 301.785L265.688 303.273L250.514 263.802L248.134 257.455L248.63 264.198L251.704 304.364L234.052 305.752L227.209 217.289L245.159 215.901L261.225 254.975L263.605 260.727L263.109 254.479L260.035 214.711L277.787 213.322ZM278.68 212.231L259.043 213.719L262.217 254.479L245.853 214.81L226.217 216.298L233.258 306.744L252.894 305.256L249.721 264.099L265.192 304.264L285.82 302.678L278.68 212.231Z" fill="#EFE285"/>
<path d="M319.539 210.247L352.762 208.562L370.712 297.52L347.704 298.71L345.622 282.446L336.299 282.942L335.704 299.305L312.398 300.495L319.539 210.247ZM337.589 228.991C336.101 246.347 335.208 259.239 335.01 267.272V267.768L344.233 267.272L344.134 266.776C342.448 256.661 340.564 243.867 338.58 228.892L337.985 224.429L337.589 228.991Z" fill="url(#paint8_linear_2199_2)"/>
<path d="M352.365 209.058L370.117 297.025L348.1 298.116L346.117 282.843L346.018 281.95H345.125L336.695 282.347H335.803V283.24L335.208 298.711L312.894 299.901L320.133 210.644L352.365 209.058ZM334.513 268.364L335.604 268.264L343.737 267.868L344.828 267.768L344.629 266.678C342.943 256.562 341.059 243.768 339.075 228.892L337.885 219.967L337.092 228.992C335.604 246.446 334.712 259.339 334.513 267.372V268.364ZM353.158 207.967L319.142 209.752L311.803 300.992L336.199 299.702L336.794 283.339L345.224 282.942L347.307 299.206L371.406 298.016L353.158 207.967ZM335.505 267.273C335.704 259.24 336.596 246.446 338.084 228.992C340.067 244.066 341.952 256.661 343.637 266.876L335.505 267.273Z" fill="#EFE285"/>
<path d="M373.984 207.571L391.141 207.075C394.017 206.976 396.695 206.976 399.075 206.976C406.117 206.976 411.274 207.372 414.249 207.967C418.216 208.86 421.191 210.447 423.274 212.728C425.356 215.009 426.745 217.587 427.34 220.364C427.935 223.24 428.331 228.992 428.629 237.521L429.522 269.257C429.72 277.29 429.522 282.744 428.827 285.521C428.133 288.199 426.943 290.281 425.158 291.868C423.373 293.455 421.092 294.546 418.414 295.24C415.637 295.934 411.472 296.331 405.918 296.529L376.662 297.323L373.984 207.571ZM398.381 221.455C398.084 221.455 397.786 221.455 397.488 221.455H396.993L398.679 282.05H399.174C402.844 281.951 404.927 281.157 405.819 279.571C406.612 278.083 406.91 274.414 406.712 268.166L405.72 232.959C405.621 228.794 405.422 226.116 405.125 224.926C404.827 223.637 404.133 222.744 403.042 222.149C402.05 221.653 400.563 221.455 398.381 221.455Z" fill="url(#paint9_linear_2199_2)"/>
<path d="M398.975 206.479V207.471C406.017 207.471 411.075 207.769 413.951 208.463C417.818 209.356 420.694 210.942 422.777 213.025C424.761 215.207 426.149 217.686 426.645 220.463C427.24 223.339 427.637 229.091 427.934 237.521L428.827 269.256C429.025 277.289 428.827 282.645 428.132 285.322C427.537 287.901 426.347 289.884 424.661 291.372C422.975 292.86 420.694 293.951 418.116 294.645C415.438 295.339 411.273 295.736 405.719 295.934L376.959 296.727L374.48 207.967L391.141 207.471C394.017 207.372 396.595 207.372 398.975 207.372V206.479ZM398.182 282.546H399.174C402.942 282.446 405.323 281.554 406.215 279.769C406.711 278.777 407.405 276.496 407.207 268.165L406.215 232.959C406.116 228.694 405.918 226.116 405.62 224.827C405.223 223.438 404.43 222.347 403.24 221.752C402.248 221.256 400.661 220.959 398.38 220.959C398.083 220.959 397.785 220.959 397.488 220.959H396.496V221.951L398.182 281.554V282.546ZM398.975 206.479C396.595 206.479 393.918 206.479 391.042 206.579L373.389 207.075L375.868 297.719L405.62 296.926C411.273 296.727 415.438 296.331 418.215 295.637C420.992 294.942 423.273 293.752 425.157 292.165C427.042 290.579 428.331 288.397 429.025 285.62C429.719 282.843 429.918 277.389 429.719 269.256L428.827 237.521C428.628 228.893 428.132 223.141 427.537 220.265C426.942 217.389 425.554 214.711 423.372 212.43C421.19 210.05 418.116 208.463 414.05 207.57C411.174 206.777 406.116 206.479 398.975 206.479ZM399.075 281.554L397.389 221.951C397.686 221.951 397.984 221.951 398.281 221.951C400.364 221.951 401.851 222.149 402.645 222.645C403.637 223.141 404.232 224.033 404.529 225.124C404.827 226.314 405.025 228.893 405.124 233.058L406.116 268.265C406.314 274.314 406.017 277.984 405.223 279.372C404.529 280.76 402.447 281.455 399.075 281.554Z" fill="#EFE285"/>
<path d="M448.564 295.537L435.473 205.785L459.373 205.884C462.15 230.579 464.134 251.802 465.225 268.86H466.216C467.506 251.405 468.894 235.835 470.283 222.347L471.969 205.884L495.869 205.984L483.572 295.636L448.564 295.537Z" fill="url(#paint10_linear_2199_2)"/>
<path d="M436.067 206.281L458.877 206.38C461.555 230.876 463.538 251.901 464.728 268.958H466.712C468.001 251.603 469.389 235.934 470.778 222.446L472.365 206.479L495.274 206.578L483.174 295.239L449.059 295.041L436.067 206.281ZM434.877 205.289L448.067 296.033L483.869 296.231L496.265 205.587L471.373 205.487L469.687 222.347C468.298 235.934 466.91 251.405 465.621 268.859C464.431 251.603 462.447 230.38 459.67 205.388L434.877 205.289Z" fill="#EFE285"/>
<path d="M501.025 295.934L503.802 206.281L542.182 207.471L541.587 224.628L525.918 224.132L525.323 242.38L540.001 242.777L539.505 259.042L524.827 258.645L524.133 279.57L541.488 280.066L540.893 297.223L501.025 295.934Z" fill="url(#paint11_linear_2199_2)"/>
<path d="M504.297 206.777L541.686 207.967L541.19 224.132L526.413 223.636H525.421V224.628L524.926 241.785V242.777H525.917L539.702 243.174L539.207 258.446L525.421 258.05H524.43V259.041L523.835 278.975V279.967H524.826L541.19 280.463L540.694 296.628L501.818 295.438L504.297 206.777ZM503.306 205.785L500.43 296.43L541.289 297.719L541.884 279.57L524.529 279.074L525.124 259.141L539.901 259.636L540.397 242.38L525.62 241.884L526.116 224.727L541.884 225.223L542.479 207.074L503.306 205.785Z" fill="#EFE285"/>
<path d="M581.058 299.406L570.446 254.579L567.967 298.612L549.322 297.521L554.281 207.968L573.124 209.059L584.727 253.191L587.207 209.852L605.95 210.844L600.893 300.497L581.058 299.406Z" fill="url(#paint12_linear_2199_2)"/>
<path d="M554.777 208.463L572.727 209.455L583.438 250.315L585.025 256.364L585.421 250.116L587.702 210.348L605.454 211.339L600.496 299.901L581.553 298.811L571.834 257.653L570.248 251.108L569.851 257.852L567.57 298.017L549.818 297.025L554.777 208.463ZM553.884 207.472L548.826 298.017L568.562 299.108L570.843 257.951L580.76 299.802L601.388 300.992L606.446 210.447L586.71 209.356L584.429 250.116L573.52 208.563L553.884 207.472Z" fill="#EFE285"/>
<path d="M621.917 302.083L627.57 229.686L613.686 228.595L615.074 211.537L665.454 215.504L664.066 232.562L650.082 231.471L644.429 303.868L621.917 302.083Z" fill="url(#paint13_linear_2199_2)"/>
<path d="M615.47 212.033L664.859 215.901L663.57 232.066L650.578 231.075L649.586 230.975L649.487 231.967L643.933 303.372L622.413 301.686L627.966 230.281L628.065 229.289L627.074 229.19L614.181 228.199L615.47 212.033ZM614.578 210.942L613.189 228.992L627.074 230.083L621.421 302.38L644.925 304.265L650.578 232.066L664.561 233.157L665.95 215.009L614.578 210.942Z" fill="#EFE285"/>
<path d="M696.299 310.314C695.01 310.314 693.622 310.215 692.233 310.116C686.977 309.62 682.316 308.231 678.448 306.149C674.58 303.967 671.803 301.388 670.018 298.413C668.332 295.438 667.44 292.364 667.341 289.19C667.241 286.016 667.737 279.273 668.729 269.157L673.886 216.198L696.398 218.38L689.853 285.62C689.456 289.686 689.456 292.165 689.754 293.454C690.15 294.744 691.142 295.537 692.63 295.735C692.828 295.735 693.027 295.735 693.126 295.735C694.514 295.735 695.605 295.14 696.101 293.851C696.696 292.661 697.192 289.785 697.589 285.223L704.134 219.173L726.646 221.355L720.795 281.157C720.101 287.901 719.407 292.76 718.712 295.438C718.018 298.116 716.431 300.793 714.051 303.372C711.671 305.95 708.597 307.934 704.927 309.025C702.349 309.917 699.473 310.314 696.299 310.314Z" fill="url(#paint14_linear_2199_2)"/>
<path d="M674.382 216.793L695.902 218.876L689.357 285.62C688.96 289.785 688.96 292.363 689.258 293.553C689.555 294.644 690.349 295.934 692.53 296.132C692.729 296.132 692.927 296.132 693.125 296.132C694.712 296.132 695.902 295.438 696.597 294.049C697.192 292.76 697.687 289.884 698.183 285.223L704.63 219.669L726.15 221.752L720.398 281.157C719.704 287.9 719.01 292.661 718.316 295.339C717.621 297.917 716.134 300.496 713.754 303.074C711.373 305.653 708.398 307.537 704.828 308.628C702.249 309.421 699.473 309.818 696.299 309.818C695.01 309.818 693.621 309.719 692.233 309.62C686.977 309.124 682.415 307.735 678.646 305.653C674.878 303.57 672.101 300.991 670.415 298.115C668.729 295.239 667.836 292.165 667.836 289.19C667.737 286.016 668.233 279.272 669.225 269.157L674.382 216.793ZM673.489 215.702L668.233 269.157C667.241 279.372 666.745 286.016 666.844 289.289C666.944 292.562 667.836 295.636 669.621 298.71C671.406 301.785 674.282 304.363 678.15 306.545C682.117 308.727 686.778 310.115 692.134 310.611C693.522 310.71 694.911 310.81 696.2 310.81C699.373 310.81 702.349 310.413 705.026 309.62C708.795 308.429 711.869 306.545 714.349 303.867C716.828 301.19 718.415 298.413 719.109 295.735C719.803 293.058 720.497 288.198 721.192 281.355L727.043 221.058L703.539 218.777L697.092 285.322C696.696 289.785 696.2 292.661 695.605 293.851C695.109 294.843 694.216 295.438 693.026 295.438C692.828 295.438 692.729 295.438 692.53 295.438C691.241 295.339 690.448 294.644 690.051 293.553C689.754 292.462 689.754 289.884 690.15 285.917L696.795 218.181L673.489 215.702Z" fill="#EFE285"/>
<path d="M759.274 315.372L762.646 285.917C763.241 280.959 763.142 277.884 762.448 276.496C761.753 275.107 759.671 274.215 756.299 273.818L755.803 273.719L751.142 314.38L728.729 311.802L739.043 222.645L755.109 224.529C766.117 225.818 773.555 227.107 777.324 228.397C780.993 229.686 783.869 232.165 785.853 235.835C787.836 239.504 788.431 245.256 787.538 252.793C786.745 259.636 785.357 264.198 783.373 266.38C781.588 268.364 778.315 269.355 773.654 269.355C773.456 269.355 773.158 269.355 772.96 269.355L770.084 269.256L772.762 270.248C777.125 271.934 780.001 273.719 781.291 275.802C782.58 277.884 783.373 279.669 783.571 281.256C783.77 282.843 783.472 287.306 782.58 294.545L779.902 317.851L759.274 315.372ZM757.39 260.727L757.886 260.826C758.778 260.926 759.572 261.025 760.365 261.025C761.853 261.025 763.043 260.826 763.836 260.33C765.125 259.636 766.018 257.355 766.514 253.091L767.109 248.132C767.505 245.058 767.109 243.074 766.117 241.983C765.125 240.892 763.241 240.198 760.365 239.802L759.869 239.702L757.39 260.727Z" fill="url(#paint15_linear_2199_2)"/>
<path d="M739.538 223.239L755.108 225.024C766.018 226.314 773.456 227.603 777.224 228.892C780.794 230.082 783.571 232.562 785.456 236.033C787.439 239.603 787.935 245.256 787.142 252.694C786.348 259.438 785.059 263.901 783.175 265.983C781.489 267.867 778.315 268.859 773.852 268.859C773.654 268.859 773.356 268.859 773.158 268.859L767.406 268.76L772.861 270.743C777.125 272.33 779.902 274.115 781.191 276.099C782.48 278.082 783.175 279.867 783.373 281.355C783.472 282.446 783.472 285.62 782.381 294.545L779.704 317.355L759.869 315.074L763.241 286.115C764.034 279.372 763.538 277.388 763.042 276.496C762.249 274.909 760.067 273.917 756.497 273.52L755.505 273.421L755.406 274.413L750.844 314.082L729.323 311.603L739.538 223.239ZM760.365 261.52C761.951 261.52 763.142 261.322 764.034 260.826C765.522 260.033 766.414 257.653 766.91 253.19L767.505 248.231C767.902 245.058 767.505 242.876 766.414 241.686C765.323 240.496 763.34 239.702 760.365 239.405L759.373 239.305L759.274 240.297L756.993 260.33L756.894 261.322L757.885 261.421C758.778 261.421 759.67 261.52 760.365 261.52ZM738.646 222.148L728.232 312.297L751.637 314.975L756.299 274.314C759.571 274.71 761.456 275.504 762.051 276.694C762.646 277.884 762.745 280.958 762.15 285.818L758.679 315.768L780.497 318.347L783.274 294.545C784.067 287.305 784.464 282.843 784.265 281.157C784.067 279.471 783.274 277.586 781.885 275.504C780.497 273.421 777.621 271.537 773.059 269.752C773.356 269.752 773.555 269.752 773.753 269.752C778.513 269.752 781.885 268.661 783.77 266.578C785.753 264.396 787.241 259.735 788.034 252.694C788.927 245.058 788.332 239.305 786.249 235.438C784.166 231.669 781.29 229.091 777.423 227.801C773.654 226.512 766.216 225.223 755.108 223.934L738.646 222.148ZM760.365 260.529C759.67 260.529 758.877 260.429 757.984 260.33L760.265 240.297C762.943 240.595 764.827 241.289 765.72 242.281C766.613 243.272 766.91 245.256 766.613 248.033L766.018 252.991C765.522 256.958 764.728 259.239 763.637 259.834C762.844 260.33 761.753 260.529 760.365 260.529Z" fill="#EFE285"/>
<path d="M791.01 319.239L802.613 230.182L840.597 235.14L838.415 252.198L822.745 250.116L820.464 268.165L835.043 270.149L832.96 286.215L818.282 284.33L815.605 305.058L832.762 307.339L830.58 324.397L791.01 319.239Z" fill="url(#paint16_linear_2199_2)"/>
<path d="M803.009 230.776L840.1 235.636L838.017 251.702L823.34 249.818L822.348 249.719L822.249 250.71L820.067 267.768L819.968 268.76L820.96 268.859L834.546 270.644L832.563 285.818L818.976 284.033L817.984 283.933L817.885 284.925L815.307 304.661L815.207 305.652L816.199 305.752L832.364 307.834L830.282 323.9L791.703 318.843L803.009 230.776ZM802.216 229.686L790.414 319.636L830.976 324.892L833.356 306.843L816.199 304.562L818.778 284.826L833.356 286.71L835.637 269.553L821.059 267.669L823.24 250.611L838.811 252.694L841.191 234.644L802.216 229.686Z" fill="#EFE285"/>
<path d="M869.852 331.438C867.968 331.438 865.984 331.339 863.902 331.042C857.753 330.149 852.596 328.265 848.629 325.29C844.662 322.414 842.282 319.042 841.488 315.273C840.695 311.504 840.695 306.248 841.687 299.604L842.48 294.248L863.207 297.223L861.72 307.637C861.224 311.108 861.224 313.389 861.72 314.48C862.216 315.67 863.406 316.463 865.092 316.661C865.389 316.661 865.687 316.761 865.885 316.761C867.273 316.761 868.364 316.265 869.257 315.174C870.249 313.984 870.943 312.199 871.24 309.62C872.034 304.166 871.736 300.595 870.447 298.612C869.158 296.728 865.984 293.554 860.629 288.794C855.472 284.133 852.001 280.761 850.315 278.777C848.728 276.794 847.538 274.215 846.745 271.042C845.951 267.868 845.951 263.901 846.546 259.24C847.538 252.496 849.125 247.637 851.207 244.761C853.389 241.984 856.464 239.901 860.53 238.711C863.009 238.017 865.786 237.62 868.761 237.62C870.745 237.62 872.728 237.818 874.91 238.116C880.86 239.009 885.918 240.694 889.786 243.174C893.654 245.653 896.034 248.529 897.026 251.504C897.918 254.579 897.918 259.736 896.926 266.777L896.53 269.852L875.802 266.876L876.695 260.728C877.191 257.455 877.191 255.471 876.695 254.38C876.199 253.29 875.207 252.595 873.72 252.397C873.422 252.397 873.224 252.298 873.026 252.298C871.736 252.298 870.745 252.794 869.852 253.785C868.86 254.876 868.265 256.661 867.868 259.141C867.472 262.215 867.472 264.595 868.166 266.281C868.761 267.967 870.745 270.149 874.116 272.926C883.538 280.463 889.389 286.513 891.472 290.777C893.554 295.042 893.951 301.587 892.761 310.215C891.869 316.463 890.48 321.124 888.596 323.802C886.711 326.48 883.538 328.562 879.075 329.951C876.199 331.042 873.125 331.438 869.852 331.438Z" fill="url(#paint17_linear_2199_2)"/>
<path d="M868.959 237.124V238.116C870.843 238.116 872.926 238.314 875.008 238.612C880.86 239.504 885.818 241.19 889.686 243.669C893.455 246.149 895.835 248.826 896.727 251.802C897.62 254.777 897.62 259.934 896.628 266.876L896.231 269.455L876.496 266.579L877.289 260.926C877.884 256.463 877.587 255.074 877.19 254.281C876.793 253.388 875.901 252.298 873.818 252C873.521 252 873.322 251.901 873.025 251.901C871.636 251.901 870.446 252.496 869.455 253.587C868.463 254.777 867.769 256.562 867.372 259.141C866.876 262.314 866.975 264.793 867.67 266.579C868.265 268.364 870.248 270.645 873.818 273.422C883.141 280.959 888.992 286.909 890.975 291.074C892.959 295.24 893.455 301.686 892.165 310.215C891.273 316.463 889.884 320.926 888 323.603C886.215 326.182 883.041 328.265 878.777 329.554C876 330.446 872.926 330.843 869.653 330.843C867.769 330.843 865.785 330.744 863.802 330.446C857.752 329.554 852.694 327.669 848.727 324.793C844.86 321.917 842.479 318.645 841.686 315.074C840.893 311.306 840.992 306.149 841.884 299.504L842.579 294.645L862.314 297.521L860.926 307.438C860.43 311.107 860.43 313.388 861.025 314.579C861.62 315.967 862.909 316.76 864.793 317.058C865.091 317.058 865.389 317.157 865.686 317.157C867.174 317.157 868.463 316.562 869.455 315.372C870.546 314.083 871.24 312.198 871.636 309.62C872.43 304.066 872.132 300.298 870.843 298.215C869.554 296.331 866.281 293.058 860.926 288.298C855.769 283.636 852.298 280.364 850.711 278.38C849.223 276.496 848.033 274.017 847.24 270.843C846.446 267.769 846.446 263.802 847.141 259.24C848.132 252.595 849.62 247.736 851.802 244.959C853.884 242.182 856.959 240.198 860.926 239.107C863.306 238.413 866.083 238.017 868.959 238.017V237.124V237.124ZM868.959 237.124C865.884 237.124 863.107 237.521 860.628 238.215C856.463 239.405 853.289 241.488 851.008 244.463C848.826 247.438 847.24 252.298 846.248 259.141C845.554 263.901 845.653 267.967 846.446 271.141C847.24 274.413 848.43 276.992 850.116 279.074C851.703 281.058 855.174 284.43 860.43 289.091C865.686 293.752 868.959 297.025 870.149 298.81C871.339 300.694 871.537 304.165 870.843 309.521C870.545 311.901 869.851 313.686 868.959 314.777C868.165 315.669 867.174 316.165 865.984 316.165C865.785 316.165 865.488 316.165 865.19 316.066C863.603 315.868 862.612 315.174 862.116 314.182C861.62 313.091 861.62 310.909 862.116 307.537L863.703 296.628L841.984 293.554L841.091 299.405C840.099 306.149 840.099 311.405 840.893 315.273C841.686 319.141 844.165 322.512 848.231 325.587C852.298 328.562 857.455 330.546 863.703 331.438C865.785 331.736 867.769 331.934 869.653 331.934C873.025 331.934 876.198 331.438 879.074 330.545C883.636 329.157 886.909 326.975 888.893 324.198C890.876 321.422 892.265 316.76 893.157 310.413C894.446 301.587 893.95 295.041 891.868 290.678C889.785 286.314 883.934 280.364 874.413 272.628C871.141 269.95 869.157 267.769 868.562 266.182C867.967 264.595 867.868 262.215 868.364 259.24C868.661 256.86 869.355 255.174 870.149 254.182C870.843 253.289 871.835 252.893 872.926 252.893C873.124 252.893 873.322 252.893 873.62 252.893C874.909 253.091 875.802 253.686 876.198 254.579C876.595 255.471 876.595 257.554 876.198 260.628L875.207 267.273L896.926 270.347L897.422 266.777C898.413 259.636 898.512 254.479 897.521 251.306C896.529 248.132 894.05 245.256 890.083 242.678C886.116 240.099 881.058 238.413 875.008 237.521C873.025 237.322 870.942 237.124 868.959 237.124Z" fill="#EFE285"/>
<defs>
<linearGradient id="paint0_linear_2199_2" x1="464.007" y1="637.876" x2="464.007" y2="23.6813" gradientUnits="userSpaceOnUse">
<stop offset="0.0858277" stop-color="#905E36"/>
<stop offset="0.2669" stop-color="#CF9A41"/>
<stop offset="0.331" stop-color="#D2A248"/>
<stop offset="0.4294" stop-color="#DCB75D"/>
<stop offset="0.5491" stop-color="#EBDA7D"/>
<stop offset="0.5737" stop-color="#EFE285"/>
<stop offset="0.6506" stop-color="#E4C96E"/>
<stop offset="0.7733" stop-color="#CF9A41"/>
<stop offset="0.9729" stop-color="#7C4D25"/>
</linearGradient>
<linearGradient id="paint1_linear_2199_2" x1="461.992" y1="587.273" x2="461.992" y2="103.282" gradientUnits="userSpaceOnUse">
<stop stop-color="#8A0E13"/>
<stop offset="0.9729" stop-color="#E1001A"/>
</linearGradient>
<linearGradient id="paint2_linear_2199_2" x1="461.991" y1="637.883" x2="461.991" y2="23.6686" gradientUnits="userSpaceOnUse">
<stop offset="0.0858277" stop-color="#905E36"/>
<stop offset="0.2669" stop-color="#CF9A41"/>
<stop offset="0.331" stop-color="#D2A248"/>
<stop offset="0.4294" stop-color="#DCB75D"/>
<stop offset="0.5491" stop-color="#EBDA7D"/>
<stop offset="0.5737" stop-color="#EFE285"/>
<stop offset="0.6506" stop-color="#E4C96E"/>
<stop offset="0.7733" stop-color="#CF9A41"/>
<stop offset="0.9729" stop-color="#7C4D25"/>
</linearGradient>
<linearGradient id="paint3_linear_2199_2" x1="55.0998" y1="329.488" x2="55.0998" y2="234.671" gradientUnits="userSpaceOnUse">
<stop stop-color="#905E36"/>
<stop offset="0.3028" stop-color="#CF9A41"/>
<stop offset="0.3594" stop-color="#D2A248"/>
<stop offset="0.4463" stop-color="#DCB75D"/>
<stop offset="0.552" stop-color="#EBDA7D"/>
<stop offset="0.5737" stop-color="#EFE285"/>
<stop offset="0.6637" stop-color="#E4C96E"/>
<stop offset="0.8075" stop-color="#CF9A41"/>
<stop offset="1" stop-color="#7C4D25"/>
</linearGradient>
<linearGradient id="paint4_linear_2199_2" x1="103.115" y1="321.268" x2="103.115" y2="229.506" gradientUnits="userSpaceOnUse">
<stop stop-color="#905E36"/>
<stop offset="0.3028" stop-color="#CF9A41"/>
<stop offset="0.3594" stop-color="#D2A248"/>
<stop offset="0.4463" stop-color="#DCB75D"/>
<stop offset="0.552" stop-color="#EBDA7D"/>
<stop offset="0.5737" stop-color="#EFE285"/>
<stop offset="0.6637" stop-color="#E4C96E"/>
<stop offset="0.8075" stop-color="#CF9A41"/>
<stop offset="1" stop-color="#7C4D25"/>
</linearGradient>
<linearGradient id="paint5_linear_2199_2" x1="147.903" y1="316.105" x2="147.903" y2="224.476" gradientUnits="userSpaceOnUse">
<stop stop-color="#905E36"/>
<stop offset="0.3028" stop-color="#CF9A41"/>
<stop offset="0.3594" stop-color="#D2A248"/>
<stop offset="0.4463" stop-color="#DCB75D"/>
<stop offset="0.552" stop-color="#EBDA7D"/>
<stop offset="0.5737" stop-color="#EFE285"/>
<stop offset="0.6637" stop-color="#E4C96E"/>
<stop offset="0.8075" stop-color="#CF9A41"/>
<stop offset="1" stop-color="#7C4D25"/>
</linearGradient>
<linearGradient id="paint6_linear_2199_2" x1="207.008" y1="309.382" x2="207.008" y2="217.966" gradientUnits="userSpaceOnUse">
<stop stop-color="#905E36"/>
<stop offset="0.3028" stop-color="#CF9A41"/>
<stop offset="0.3594" stop-color="#D2A248"/>
<stop offset="0.4463" stop-color="#DCB75D"/>
<stop offset="0.552" stop-color="#EBDA7D"/>
<stop offset="0.5737" stop-color="#EFE285"/>
<stop offset="0.6637" stop-color="#E4C96E"/>
<stop offset="0.8075" stop-color="#CF9A41"/>
<stop offset="1" stop-color="#7C4D25"/>
</linearGradient>
<linearGradient id="paint7_linear_2199_2" x1="255.905" y1="306.27" x2="255.905" y2="212.803" gradientUnits="userSpaceOnUse">
<stop stop-color="#905E36"/>
<stop offset="0.3028" stop-color="#CF9A41"/>
<stop offset="0.3594" stop-color="#D2A248"/>
<stop offset="0.4463" stop-color="#DCB75D"/>
<stop offset="0.552" stop-color="#EBDA7D"/>
<stop offset="0.5737" stop-color="#EFE285"/>
<stop offset="0.6637" stop-color="#E4C96E"/>
<stop offset="0.8075" stop-color="#CF9A41"/>
<stop offset="1" stop-color="#7C4D25"/>
</linearGradient>
<linearGradient id="paint8_linear_2199_2" x1="341.478" y1="300.44" x2="341.478" y2="208.514" gradientUnits="userSpaceOnUse">
<stop stop-color="#905E36"/>
<stop offset="0.3028" stop-color="#CF9A41"/>
<stop offset="0.3594" stop-color="#D2A248"/>
<stop offset="0.4463" stop-color="#DCB75D"/>
<stop offset="0.552" stop-color="#EBDA7D"/>
<stop offset="0.5737" stop-color="#EFE285"/>
<stop offset="0.6637" stop-color="#E4C96E"/>
<stop offset="0.8075" stop-color="#CF9A41"/>
<stop offset="1" stop-color="#7C4D25"/>
</linearGradient>
<linearGradient id="paint9_linear_2199_2" x1="401.666" y1="297.232" x2="401.666" y2="206.941" gradientUnits="userSpaceOnUse">
<stop stop-color="#905E36"/>
<stop offset="0.3028" stop-color="#CF9A41"/>
<stop offset="0.3594" stop-color="#D2A248"/>
<stop offset="0.4463" stop-color="#DCB75D"/>
<stop offset="0.552" stop-color="#EBDA7D"/>
<stop offset="0.5737" stop-color="#EFE285"/>
<stop offset="0.6637" stop-color="#E4C96E"/>
<stop offset="0.8075" stop-color="#CF9A41"/>
<stop offset="1" stop-color="#7C4D25"/>
</linearGradient>
<linearGradient id="paint10_linear_2199_2" x1="465.648" y1="295.728" x2="465.648" y2="205.777" gradientUnits="userSpaceOnUse">
<stop stop-color="#905E36"/>
<stop offset="0.3028" stop-color="#CF9A41"/>
<stop offset="0.3594" stop-color="#D2A248"/>
<stop offset="0.4463" stop-color="#DCB75D"/>
<stop offset="0.552" stop-color="#EBDA7D"/>
<stop offset="0.5737" stop-color="#EFE285"/>
<stop offset="0.6637" stop-color="#E4C96E"/>
<stop offset="0.8075" stop-color="#CF9A41"/>
<stop offset="1" stop-color="#7C4D25"/>
</linearGradient>
<linearGradient id="paint11_linear_2199_2" x1="521.577" y1="297.232" x2="521.577" y2="206.293" gradientUnits="userSpaceOnUse">
<stop stop-color="#905E36"/>
<stop offset="0.3028" stop-color="#CF9A41"/>
<stop offset="0.3594" stop-color="#D2A248"/>
<stop offset="0.4463" stop-color="#DCB75D"/>
<stop offset="0.552" stop-color="#EBDA7D"/>
<stop offset="0.5737" stop-color="#EFE285"/>
<stop offset="0.6637" stop-color="#E4C96E"/>
<stop offset="0.8075" stop-color="#CF9A41"/>
<stop offset="1" stop-color="#7C4D25"/>
</linearGradient>
<linearGradient id="paint12_linear_2199_2" x1="577.603" y1="300.472" x2="577.603" y2="207.973" gradientUnits="userSpaceOnUse">
<stop stop-color="#905E36"/>
<stop offset="0.3028" stop-color="#CF9A41"/>
<stop offset="0.3594" stop-color="#D2A248"/>
<stop offset="0.4463" stop-color="#DCB75D"/>
<stop offset="0.552" stop-color="#EBDA7D"/>
<stop offset="0.5737" stop-color="#EFE285"/>
<stop offset="0.6637" stop-color="#E4C96E"/>
<stop offset="0.8075" stop-color="#CF9A41"/>
<stop offset="1" stop-color="#7C4D25"/>
</linearGradient>
<linearGradient id="paint13_linear_2199_2" x1="639.561" y1="303.833" x2="639.561" y2="211.516" gradientUnits="userSpaceOnUse">
<stop stop-color="#905E36"/>
<stop offset="0.3028" stop-color="#CF9A41"/>
<stop offset="0.3594" stop-color="#D2A248"/>
<stop offset="0.4463" stop-color="#DCB75D"/>
<stop offset="0.552" stop-color="#EBDA7D"/>
<stop offset="0.5737" stop-color="#EFE285"/>
<stop offset="0.6637" stop-color="#E4C96E"/>
<stop offset="0.8075" stop-color="#CF9A41"/>
<stop offset="1" stop-color="#7C4D25"/>
</linearGradient>
<linearGradient id="paint14_linear_2199_2" x1="696.979" y1="310.284" x2="696.979" y2="216.216" gradientUnits="userSpaceOnUse">
<stop stop-color="#905E36"/>
<stop offset="0.3028" stop-color="#CF9A41"/>
<stop offset="0.3594" stop-color="#D2A248"/>
<stop offset="0.4463" stop-color="#DCB75D"/>
<stop offset="0.552" stop-color="#EBDA7D"/>
<stop offset="0.5737" stop-color="#EFE285"/>
<stop offset="0.6637" stop-color="#E4C96E"/>
<stop offset="0.8075" stop-color="#CF9A41"/>
<stop offset="1" stop-color="#7C4D25"/>
</linearGradient>
<linearGradient id="paint15_linear_2199_2" x1="758.385" y1="317.794" x2="758.385" y2="222.711" gradientUnits="userSpaceOnUse">
<stop stop-color="#905E36"/>
<stop offset="0.3028" stop-color="#CF9A41"/>
<stop offset="0.3594" stop-color="#D2A248"/>
<stop offset="0.4463" stop-color="#DCB75D"/>
<stop offset="0.552" stop-color="#EBDA7D"/>
<stop offset="0.5737" stop-color="#EFE285"/>
<stop offset="0.6637" stop-color="#E4C96E"/>
<stop offset="0.8075" stop-color="#CF9A41"/>
<stop offset="1" stop-color="#7C4D25"/>
</linearGradient>
<linearGradient id="paint16_linear_2199_2" x1="815.803" y1="324.358" x2="815.803" y2="230.215" gradientUnits="userSpaceOnUse">
<stop stop-color="#905E36"/>
<stop offset="0.3028" stop-color="#CF9A41"/>
<stop offset="0.3594" stop-color="#D2A248"/>
<stop offset="0.4463" stop-color="#DCB75D"/>
<stop offset="0.552" stop-color="#EBDA7D"/>
<stop offset="0.5737" stop-color="#EFE285"/>
<stop offset="0.6637" stop-color="#E4C96E"/>
<stop offset="0.8075" stop-color="#CF9A41"/>
<stop offset="1" stop-color="#7C4D25"/>
</linearGradient>
<linearGradient id="paint17_linear_2199_2" x1="869.373" y1="331.448" x2="869.373" y2="237.648" gradientUnits="userSpaceOnUse">
<stop stop-color="#905E36"/>
<stop offset="0.3028" stop-color="#CF9A41"/>
<stop offset="0.3594" stop-color="#D2A248"/>
<stop offset="0.4463" stop-color="#DCB75D"/>
<stop offset="0.552" stop-color="#EBDA7D"/>
<stop offset="0.5737" stop-color="#EFE285"/>
<stop offset="0.6637" stop-color="#E4C96E"/>
<stop offset="0.8075" stop-color="#CF9A41"/>
<stop offset="1" stop-color="#7C4D25"/>
</linearGradient>
</defs>
</svg>
