<svg width="120" height="120" viewBox="0 0 120 120" fill="none" xmlns="http://www.w3.org/2000/svg">
<path d="M34.7188 81.125H48.4688V82.8438H34.7188V81.125Z" fill="#D9B97C"/>
<path d="M51.9062 45.0312L57.0625 41.5938L51.9062 38.1562V39.875H34.7188V43.3125H51.9062V45.0312Z" fill="#F5D290"/>
<path d="M34.7188 52.207H38.1562V53.9258H34.7188V52.207Z" fill="#B58C42"/>
<path d="M34.7188 48.7695H43.3125V50.4883H34.7188V48.7695Z" fill="#D9B97C"/>
<path d="M85.5186 38.1563L71.7686 36.4375C71.5215 36.4053 71.2852 36.4805 71.1025 36.6416C70.9199 36.8027 70.8125 37.0498 70.8232 37.2969V38.1563H59.6406C59.168 38.1563 58.7812 38.543 58.7812 39.0156V57.0947V57.6318V58.4375V64.1738V65.3877V73.3906V77.7949V81.9844C58.7812 82.457 59.168 82.8438 59.6406 82.8438H70.8125V83.7031C70.8125 83.9502 70.9199 84.1865 71.1025 84.3477C71.2637 84.4873 71.457 84.5625 71.6719 84.5625H71.7793L85.5293 82.8438C85.959 82.79 86.292 82.4248 86.2812 81.9844V39.0156C86.2812 38.5752 85.959 38.21 85.5186 38.1563ZM70.8125 81.125H60.5V65.71V64.335V59.834V58.3086V39.875H70.8125V81.125Z" fill="#8E6519"/>
<path d="M55.1172 55.8594L57.2012 53.2383L59.3281 54.667L57.5234 57.6748L55.1172 55.8594Z" fill="#E7D1C4"/>
<path d="M57.5229 58.2656C57.394 58.2656 57.2651 58.2226 57.1577 58.1474L54.7515 56.3427C54.6226 56.2461 54.5366 56.0957 54.5151 55.9345C54.4937 55.7734 54.5366 55.6123 54.644 55.4834L56.728 52.8623C56.9214 52.6152 57.2759 52.5615 57.5337 52.7334L59.6606 54.1621C59.9292 54.3447 60.0044 54.6992 59.8433 54.9677L58.0386 57.9756C57.9526 58.126 57.8022 58.2226 57.6411 58.2549C57.5981 58.2549 57.5552 58.2656 57.5229 58.2656ZM55.9761 55.7519L57.3511 56.7832L58.522 54.8388L57.3296 54.0439L55.9761 55.7519Z" fill="#4C241D"/>
<path d="M64.4316 79.8896C63.2715 79.8896 62.3262 78.9443 62.3262 77.7842C62.3262 76.624 63.2715 75.6787 64.4316 75.6787C65.5918 75.6787 66.5371 76.624 66.5371 77.7842C66.5371 78.9443 65.5918 79.8896 64.4316 79.8896ZM64.4316 76.8818C63.9375 76.8818 63.5293 77.29 63.5293 77.7842C63.5293 78.2783 63.9375 78.6865 64.4316 78.6865C64.9258 78.6865 65.334 78.2783 65.334 77.7842C65.334 77.29 64.9258 76.8818 64.4316 76.8818Z" fill="#DDB05E"/>
<path d="M64.2598 72.3379C64.6157 72.3379 64.9043 72.0493 64.9043 71.6934C64.9043 71.3374 64.6157 71.0488 64.2598 71.0488C63.9038 71.0488 63.6152 71.3374 63.6152 71.6934C63.6152 72.0493 63.9038 72.3379 64.2598 72.3379Z" fill="#F5D290"/>
<path d="M61.5517 62.4443C61.5517 62.4443 59.4033 58.6523 58.3183 57.7822L57.3085 56.9658C55.9121 55.8486 54.1933 55.2363 52.4101 55.2041L47.1035 55.1289L43.8808 60.167C43.58 60.6396 43.8056 61.2627 44.332 61.4238C44.6543 61.5313 45.0087 61.4238 45.2343 61.166L48.6396 57.1699L53.2265 58.1367L47.6621 67.0098L54.247 67.8369L54.1933 67.7832L58.0498 62.0039C58.0498 62.0039 59.4462 64.8936 59.6289 65.1406C60.2949 66.0215 61.6054 66.0967 62.4111 65.3447L68.1582 60.6074C68.5986 60.1992 68.5449 59.4902 68.0507 59.1572C67.7285 58.9424 67.2988 58.9424 66.9873 59.168L61.5517 62.4443Z" fill="#DDB05E"/>
<path d="M54.2463 68.4385C54.2248 68.4385 54.1926 68.4385 54.1711 68.4385L47.5861 67.6113C47.382 67.5898 47.2102 67.4609 47.1135 67.2676C47.0168 67.0742 47.0383 66.8594 47.1457 66.6875L52.2482 58.5449L48.8537 57.8359L45.674 61.5527C45.298 61.9932 44.6965 62.165 44.1379 61.9932C43.7082 61.8535 43.3752 61.5313 43.2141 61.1123C43.0637 60.6826 43.1066 60.2207 43.3537 59.8447L46.5764 54.8066C46.6838 54.6348 46.8664 54.5273 47.092 54.5273L52.3986 54.6025C54.3 54.6348 56.1691 55.3115 57.6623 56.4932L58.6721 57.3096C59.5959 58.0508 61.0891 60.4893 61.7443 61.6064L66.6535 58.6416C67.1369 58.2979 67.8352 58.2871 68.3615 58.6416C68.7482 58.9102 68.9953 59.3291 69.0275 59.791C69.0598 60.2637 68.8879 60.7148 68.5441 61.0264L62.7756 65.7852C62.2814 66.2471 61.5617 66.4941 60.8527 66.4297C60.1545 66.3652 59.5422 66.0322 59.134 65.4844C58.9943 65.291 58.4465 64.1953 57.9523 63.1855L54.8264 67.8691C54.8156 67.9443 54.8049 68.0088 54.7727 68.084C54.676 68.3096 54.4719 68.4385 54.2463 68.4385ZM48.6711 66.5371L53.8703 67.1816L57.5441 61.6602C57.6623 61.4775 57.8664 61.3809 58.0812 61.3916C58.2961 61.4023 58.4895 61.5313 58.5754 61.7354C59.2199 63.0781 59.9719 64.5928 60.1008 64.7861C60.3049 65.0547 60.6057 65.2158 60.9602 65.248C61.3361 65.2803 61.7121 65.1514 61.9914 64.8936L67.76 60.1348C67.8352 60.0596 67.8459 59.9521 67.8352 59.8877C67.8352 59.8232 67.8029 59.7158 67.6955 59.6406C67.5773 59.5654 67.427 59.5654 67.3195 59.6406L61.8518 62.9492C61.7121 63.0352 61.551 63.0566 61.3898 63.0137C61.2287 62.9707 61.0998 62.874 61.0139 62.7236C60.4338 61.6924 58.7473 58.8887 57.9309 58.2334L56.9211 57.417C55.6428 56.3965 54.0314 55.8164 52.3879 55.7842L47.425 55.709L44.385 60.5C44.3312 60.5859 44.342 60.6719 44.3635 60.7148C44.3742 60.7578 44.4172 60.833 44.5139 60.8652C44.6105 60.8975 44.7072 60.8652 44.7717 60.79L48.177 56.7939C48.3166 56.6221 48.5422 56.5469 48.757 56.6006L53.3439 57.5674C53.5373 57.6104 53.6984 57.7393 53.7736 57.9219C53.8488 58.1045 53.8381 58.3086 53.7307 58.4805L48.6711 66.5371Z" fill="#4C241D"/>
<path d="M45.5146 70.4365L39.0801 70.9092C38.2422 70.9736 37.4258 71.2422 36.7168 71.6826L35.3633 72.5312L46.3096 73.251C47.0293 73.2939 47.7383 73.0469 48.2646 72.5527L51.2939 69.7061L56.3857 73.7344L53.915 78.6865C53.582 79.3633 53.5176 80.1475 53.7432 80.8672L54.1836 82.2422L58.9854 75.0342C59.5547 74.1748 59.4473 73.0361 58.7168 72.3164L54.2373 67.8369L47.6523 67.0098L45.5146 70.4365Z" fill="#F5D290"/>
<path d="M54.1934 82.8438C54.1612 82.8438 54.1397 82.8438 54.1074 82.833C53.8819 82.8008 53.6885 82.6397 53.6133 82.4248L53.1729 81.0498C52.8936 80.1797 52.9688 79.2451 53.377 78.418L55.6328 73.9063L51.3252 70.501L48.6826 72.9932C48.0381 73.5948 47.1572 73.9063 46.2764 73.8526L35.3301 73.1328C35.0723 73.1114 34.8467 72.9287 34.7822 72.6817C34.7178 72.4346 34.8252 72.166 35.0401 72.0264L36.3936 71.1778C37.1885 70.6836 38.1016 70.3828 39.0362 70.3076L45.1699 69.8565L47.1572 66.6875C47.2862 66.4942 47.5117 66.376 47.7373 66.4082L54.3223 67.2354C54.4512 67.2569 54.5801 67.3106 54.6768 67.4073L59.1563 71.8867C60.0801 72.8106 60.2305 74.2715 59.5 75.3672L54.6983 82.5752C54.5801 82.7471 54.3867 82.8438 54.1934 82.8438ZM51.293 69.1153C51.4219 69.1153 51.5508 69.1582 51.669 69.2442L56.7608 73.2725C56.9863 73.4444 57.0508 73.7559 56.9219 74.0137L54.4512 78.9658C54.1826 79.503 54.1289 80.1153 54.3223 80.6953L54.376 80.878L58.4903 74.7119C58.8985 74.0996 58.8233 73.2725 58.2969 72.7461L53.9571 68.4063L47.9629 67.6543L46.0186 70.7588C45.9219 70.9199 45.7393 71.0274 45.5567 71.0381L39.1221 71.5108C38.4776 71.5537 37.833 71.7471 37.2637 72.0586L46.3408 72.6602C46.8994 72.6924 47.4473 72.4991 47.8447 72.1231L50.874 69.2764C51.003 69.169 51.1533 69.1153 51.293 69.1153Z" fill="#4C241D"/>
<path d="M54.0313 67.9873L51.3027 69.7168L54.0313 67.9873Z" fill="#BD53B5"/>
<path d="M51.3035 70.3184C51.0994 70.3184 50.906 70.2217 50.7986 70.0391C50.6267 69.7598 50.7019 69.3838 50.9812 69.2119L53.7097 67.4824C53.989 67.2998 54.365 67.3858 54.5369 67.6651C54.7088 67.9443 54.6336 68.3203 54.3543 68.4922L51.6257 70.2217C51.5183 70.2861 51.4109 70.3184 51.3035 70.3184Z" fill="#4C241D"/>
<path d="M58.0491 62.6055C57.8665 62.6055 57.6839 62.5196 57.5657 62.3584L56.6096 61.0694C56.4163 60.8008 56.47 60.4248 56.7385 60.2315C57.0071 60.0381 57.3831 60.0918 57.5764 60.3604L58.5325 61.6494C58.7259 61.918 58.6721 62.294 58.4036 62.4873C58.2962 62.5625 58.1673 62.6055 58.0491 62.6055Z" fill="#4C241D"/>
<path d="M61.7236 54.6562H58.9092C57.4805 54.6562 56.3203 53.4961 56.3203 52.0674V50.4561C56.3203 49.124 57.3945 48.0498 58.7266 48.0498H59.3281C60.6602 48.0498 61.7344 49.124 61.7344 50.4561V54.6562H61.7236Z" fill="#E7D1C4"/>
<path d="M61.7236 55.2578H58.9092C57.1475 55.2578 55.7188 53.8291 55.7188 52.0674V50.4561C55.7188 48.8018 57.0615 47.4482 58.7266 47.4482H59.3281C60.9824 47.4482 62.3359 48.791 62.3359 50.4561V54.6563C62.3252 54.9893 62.0566 55.2578 61.7236 55.2578ZM58.7266 48.6514C57.7275 48.6514 56.9219 49.457 56.9219 50.4561V52.0674C56.9219 53.1631 57.8135 54.0654 58.9199 54.0654H61.1328V50.4561C61.1328 49.457 60.3271 48.6514 59.3281 48.6514H58.7266Z" fill="#4C241D"/>
<circle cx="60" cy="60" r="59.25" stroke="url(#paint0_linear_4507_36616)" stroke-width="1.5"/>
<defs>
<linearGradient id="paint0_linear_4507_36616" x1="-2.40281e-06" y1="120" x2="120.548" y2="119.447" gradientUnits="userSpaceOnUse">
<stop stop-color="#CA9342"/>
<stop offset="0.331885" stop-color="#D3A347"/>
<stop offset="0.711985" stop-color="#D8AF53"/>
<stop offset="1" stop-color="#E0BF62"/>
</linearGradient>
</defs>
</svg>
