<?xml version="1.0" encoding="utf-8"?>
<!-- Generator: Adobe Illustrator 25.0.0, SVG Export Plug-In . SVG Version: 6.00 Build 0)  -->
<svg version="1.1" id="Layer_1" xmlns="http://www.w3.org/2000/svg" xmlns:xlink="http://www.w3.org/1999/xlink" x="0px" y="0px"
	 viewBox="0 0 400 60.7" style="enable-background:new 0 0 400 60.7;" xml:space="preserve">
<style type="text/css">
	.st0{fill:url(#SVGID_1_);}
	.st1{fill:url(#XMLID_2_);}
	.st2{fill:url(#XMLID_3_);}
	.st3{fill:url(#XMLID_4_);}
	.st4{fill:url(#XMLID_5_);}
	.st5{fill:url(#XMLID_6_);}
	.st6{opacity:0.5;}
	.st7{fill:#FFFFFF;}
	.st8{enable-background:new    ;}
</style>
<g>
	<g>
		<g>
			
				<linearGradient id="SVGID_1_" gradientUnits="userSpaceOnUse" x1="6.366463e-12" y1="1218.3572" x2="400" y2="1218.3572" gradientTransform="matrix(1 0 0 1 0 -1188)">
				<stop  offset="0" style="stop-color:#F8DD7B"/>
				<stop  offset="0.2038" style="stop-color:#B37E10"/>
				<stop  offset="0.2643" style="stop-color:#B58114"/>
				<stop  offset="0.3227" style="stop-color:#BD8C1F"/>
				<stop  offset="0.3803" style="stop-color:#CA9D33"/>
				<stop  offset="0.4373" style="stop-color:#DBB54E"/>
				<stop  offset="0.4935" style="stop-color:#F2D471"/>
				<stop  offset="0.5077" style="stop-color:#F8DD7B"/>
				<stop  offset="0.5189" style="stop-color:#FDF1A4"/>
				<stop  offset="0.5934" style="stop-color:#F8DD7B"/>
				<stop  offset="0.8428" style="stop-color:#B37E10"/>
				<stop  offset="0.9493" style="stop-color:#E4C15C"/>
				<stop  offset="1" style="stop-color:#F8DD7B"/>
			</linearGradient>
			<path class="st0" d="M400,60.7h-77.3V49H77.3v11.7H0l11.8-24.5L0,11.7h43.6V0h312.9v11.7H400l-11.8,24.5L400,60.7z M325.6,57.9
				h69.8L385,36.3l10.4-21.6h-41.8V2.9H46.4v11.7H4.6l10.4,21.6L4.6,57.9h69.8V46.1h251.2L325.6,57.9L325.6,57.9z"/>
		</g>
	</g>
	<g>
		
			<linearGradient id="XMLID_2_" gradientUnits="userSpaceOnUse" x1="-3360.8091" y1="1224.2142" x2="-3548.0793" y2="1224.2142" gradientTransform="matrix(-1 0 0 1 -3086.5 -1188)">
			<stop  offset="0" style="stop-color:#E22634"/>
			<stop  offset="6.811810e-02" style="stop-color:#AE0D1A"/>
			<stop  offset="0.1389" style="stop-color:#E22634"/>
			<stop  offset="0.3226" style="stop-color:#7F0603"/>
			<stop  offset="0.939" style="stop-color:#E22634"/>
		</linearGradient>
		<polygon id="XMLID_138_" class="st1" points="397.7,13.1 386.6,36.2 397.7,59.3 324.1,59.3 324.1,13.1 		"/>
		
			<linearGradient id="XMLID_3_" gradientUnits="userSpaceOnUse" x1="-3397.7009" y1="1241.4286" x2="-3605.1721" y2="1241.4286" gradientTransform="matrix(-1 0 0 1 -3086.5 -1188)">
			<stop  offset="0" style="stop-color:#341200"/>
			<stop  offset="0.6022" style="stop-color:#C41804"/>
			<stop  offset="0.6218" style="stop-color:#C81F0C"/>
			<stop  offset="0.6517" style="stop-color:#D13321"/>
			<stop  offset="0.6882" style="stop-color:#E15344"/>
			<stop  offset="0.7295" style="stop-color:#F87F73"/>
			<stop  offset="0.7419" style="stop-color:#FF8E83"/>
			<stop  offset="0.7714" style="stop-color:#F56B5D"/>
			<stop  offset="0.8058" style="stop-color:#EA4837"/>
			<stop  offset="0.8377" style="stop-color:#E32F1B"/>
			<stop  offset="0.8658" style="stop-color:#DF1F0B"/>
			<stop  offset="0.8871" style="stop-color:#DD1A05"/>
			<stop  offset="1" style="stop-color:#FF1C06"/>
		</linearGradient>
		<polygon id="XMLID_137_" class="st2" points="355,47.6 324.1,59.3 324.1,47.6 		"/>
		
			<linearGradient id="XMLID_4_" gradientUnits="userSpaceOnUse" x1="125.6913" y1="1224.2142" x2="-61.579" y2="1224.2142" gradientTransform="matrix(1 0 0 1 0 -1188)">
			<stop  offset="0" style="stop-color:#5B1200"/>
			<stop  offset="0.6022" style="stop-color:#C41804"/>
			<stop  offset="0.6218" style="stop-color:#C81F0C"/>
			<stop  offset="0.6517" style="stop-color:#D13321"/>
			<stop  offset="0.6882" style="stop-color:#E15344"/>
			<stop  offset="0.7295" style="stop-color:#F87F73"/>
			<stop  offset="0.7419" style="stop-color:#FF8E83"/>
			<stop  offset="0.7714" style="stop-color:#F56B5D"/>
			<stop  offset="0.8058" style="stop-color:#EA4837"/>
			<stop  offset="0.8377" style="stop-color:#E32F1B"/>
			<stop  offset="0.8658" style="stop-color:#DF1F0B"/>
			<stop  offset="0.8871" style="stop-color:#DD1A05"/>
			<stop  offset="1" style="stop-color:#FF1C06"/>
		</linearGradient>
		<polygon id="XMLID_139_" class="st3" points="2.3,13.1 13.4,36.2 2.3,59.3 75.9,59.3 75.9,13.1 		"/>
		
			<linearGradient id="XMLID_5_" gradientUnits="userSpaceOnUse" x1="45" y1="1212.4642" x2="415.0687" y2="1212.4642" gradientTransform="matrix(1 0 0 1 0 -1188)">
			<stop  offset="0" style="stop-color:#E22634"/>
			<stop  offset="6.811810e-02" style="stop-color:#AE0D1A"/>
			<stop  offset="0.1389" style="stop-color:#E22634"/>
			<stop  offset="0.3226" style="stop-color:#7F0603"/>
			<stop  offset="0.939" style="stop-color:#E22634"/>
		</linearGradient>
		<rect id="XMLID_134_" x="45" y="1.4" class="st4" width="309.9" height="46.1"/>
		
			<linearGradient id="XMLID_6_" gradientUnits="userSpaceOnUse" x1="88.7995" y1="1241.4286" x2="-118.6719" y2="1241.4286" gradientTransform="matrix(1 0 0 1 0 -1188)">
			<stop  offset="0" style="stop-color:#5B1200"/>
			<stop  offset="0.6022" style="stop-color:#C41804"/>
			<stop  offset="0.6218" style="stop-color:#C81F0C"/>
			<stop  offset="0.6517" style="stop-color:#D13321"/>
			<stop  offset="0.6882" style="stop-color:#E15344"/>
			<stop  offset="0.7295" style="stop-color:#F87F73"/>
			<stop  offset="0.7419" style="stop-color:#FF8E83"/>
			<stop  offset="0.7714" style="stop-color:#F56B5D"/>
			<stop  offset="0.8058" style="stop-color:#EA4837"/>
			<stop  offset="0.8377" style="stop-color:#E32F1B"/>
			<stop  offset="0.8658" style="stop-color:#DF1F0B"/>
			<stop  offset="0.8871" style="stop-color:#DD1A05"/>
			<stop  offset="1" style="stop-color:#FF1C06"/>
		</linearGradient>
		<polygon id="XMLID_136_" class="st5" points="45,47.6 75.9,59.3 75.9,47.6 		"/>
	</g>
	<g>
		<g class="st6">
			<path d="M114.6,23.1V10h2l2.7,6.4V10h2.4v13.1h-1.9l-2.7-6.8v6.8H114.6L114.6,23.1z"/>
			<path d="M127,23.1V10h5.9v2h-3v3.3h2.3v2h-2.3v3.9h3.1v1.9L127,23.1L127,23.1z"/>
			<path d="M138.6,23.1L137,10h2.4l0.8,7.7l0.9-7.6h1.9l1,7.6l0.8-7.6h2.4l-1.6,13.1h-2.6l-1-8l-1,8H138.6z"/>
			<path d="M162.9,23.4c-0.9,0-1.6-0.1-2.1-0.5c-0.5-0.4-0.9-0.9-1.1-1.6c-0.2-0.7-0.3-1.5-0.3-2.4v-4.4c0-0.9,0.1-1.7,0.4-2.4
				c0.2-0.6,0.6-1.2,1.2-1.6c0.6-0.4,1.4-0.5,2.4-0.5c0.9,0,1.7,0.1,2.4,0.5c0.5,0.3,0.9,0.8,1.2,1.4c0.3,0.5,0.4,1.3,0.4,2v0.9
				h-2.9v-1.1c0-0.3,0-0.5-0.1-0.8c-0.1-0.2-0.1-0.4-0.3-0.5c-0.1-0.1-0.4-0.2-0.6-0.2c-0.3,0-0.5,0.1-0.7,0.2
				c-0.1,0.1-0.2,0.4-0.3,0.6c-0.1,0.2-0.1,0.5-0.1,0.8v6.1c0,0.3,0.1,0.5,0.1,0.9c0.1,0.2,0.1,0.5,0.3,0.6c0.1,0.1,0.4,0.2,0.7,0.2
				c0.3,0,0.5-0.1,0.7-0.2c0.1-0.1,0.3-0.4,0.3-0.6c0.1-0.3,0.1-0.5,0.1-0.9v-1.6h-1.2v-1.7h3.8v6.8h-1.9l-0.1-1.1
				c-0.1,0.4-0.4,0.7-0.7,0.9C164,23.2,163.6,23.4,162.9,23.4z"/>
			<path d="M171.6,23.1l2.5-13.1h3.4l2.4,13.1h-2.7l-0.4-2.8h-1.9l-0.5,2.8H171.6z M175.1,18.6h1.4l-0.7-5.1L175.1,18.6z"/>
			<path d="M184.4,23.1l0.2-13.1h3.1l1.4,7.6l1.6-7.6h3l0.2,13.1h-2.1l-0.2-8.7l-1.6,8.7h-1.9l-1.6-8.9l-0.1,8.9H184.4z"/>
			<path d="M199.1,23.1V10h5.9v2h-3v3.3h2.3v2h-2.3v3.9h3.1v1.9L199.1,23.1L199.1,23.1z"/>
			<path d="M217.1,23.1V10h2.9v13.1H217.1L217.1,23.1z"/>
			<path d="M225.2,23.1V10h2l2.7,6.4V10h2.4v13.1h-1.9l-2.7-6.8v6.8H225.2L225.2,23.1z"/>
			<path d="M245,23.1V10h3.4c0.5,0,1.1,0.1,1.6,0.1c0.5,0.1,0.9,0.2,1.4,0.5c0.4,0.2,0.7,0.6,0.9,1c0.2,0.5,0.3,1.1,0.3,1.7
				c0,0.5-0.1,0.9-0.2,1.4c-0.1,0.4-0.4,0.6-0.6,0.9c-0.3,0.2-0.6,0.4-1,0.4c0.5,0.1,0.9,0.2,1.3,0.5c0.4,0.3,0.6,0.6,0.8,1.1
				c0.1,0.5,0.3,0.9,0.3,1.6c0,0.7-0.1,1.3-0.3,1.7c-0.1,0.5-0.4,0.9-0.8,1.2c-0.3,0.3-0.7,0.5-1.3,0.7c-0.6,0.2-1.1,0.2-1.7,0.2
				L245,23.1L245,23.1z M247.9,15.3h0.5c0.5,0,0.8-0.1,1-0.1c0.2-0.1,0.4-0.3,0.5-0.6s0.1-0.5,0.1-0.9c0-0.3-0.1-0.6-0.1-0.9
				c-0.1-0.2-0.3-0.4-0.5-0.5c-0.2-0.1-0.5-0.1-0.9-0.1H248L247.9,15.3L247.9,15.3z M247.9,21.1h0.6c0.6,0,1.1-0.1,1.4-0.5
				c0.2-0.3,0.4-0.8,0.4-1.4c0-0.5-0.1-0.9-0.1-1.2s-0.3-0.5-0.5-0.6c-0.2-0.1-0.6-0.1-1-0.1H248L247.9,21.1L247.9,21.1z"/>
			<path d="M257.8,23.1V10h5.9v2h-3v3.3h2.3v2h-2.3v3.9h3.1v1.9L257.8,23.1L257.8,23.1z"/>
			<path d="M269.5,23.1v-11h-2V10h6.9v2.1h-1.9v11H269.5z"/>
			<path d="M277.4,23.1l2.5-13.1h3.4l2.4,13.1H283l-0.4-2.8h-1.9l-0.5,2.8H277.4z M280.9,18.6h1.4l-0.7-5.1L280.9,18.6z"/>
		</g>
		<g>
			<path class="st7" d="M114.3,22.6V9.4h2l2.7,6.4V9.4h2.4v13.1h-1.9l-2.7-6.8v6.8C116.7,22.6,114.3,22.6,114.3,22.6z"/>
			<path class="st7" d="M126.6,22.6V9.4h5.9v2h-3v3.3h2.3v2h-2.3v4h3.1v1.9L126.6,22.6L126.6,22.6z"/>
			<path class="st7" d="M138.2,22.6l-1.6-13.1h2.4l0.8,7.7l0.9-7.6h1.9l1,7.6l0.8-7.6h2.4l-1.6,13.1h-2.6l-1.1-7.9l-0.9,7.9H138.2z"
				/>
			<path class="st7" d="M162.6,22.8c-0.9,0-1.6-0.1-2.1-0.5s-0.9-0.9-1.1-1.6c-0.2-0.7-0.3-1.5-0.3-2.4v-4.4c0-0.9,0.1-1.7,0.4-2.4
				c0.2-0.6,0.6-1.2,1.2-1.6c0.6-0.4,1.4-0.5,2.4-0.5c0.9,0,1.7,0.1,2.4,0.5c0.5,0.3,0.9,0.8,1.2,1.4c0.3,0.5,0.4,1.3,0.4,2v0.9
				h-2.8v-1.3c0-0.3,0-0.5-0.1-0.8c-0.1-0.2-0.1-0.4-0.3-0.5c-0.1-0.1-0.4-0.2-0.6-0.2s-0.5,0.1-0.7,0.2c-0.1,0.1-0.2,0.4-0.3,0.6
				c-0.1,0.2-0.1,0.5-0.1,0.8v6.1c0,0.3,0.1,0.5,0.1,0.9c0.1,0.2,0.1,0.5,0.3,0.6c0.1,0.1,0.4,0.2,0.7,0.2c0.3,0,0.5-0.1,0.7-0.2
				c0.1-0.1,0.3-0.4,0.3-0.6c0.1-0.3,0.1-0.5,0.1-0.9v-1.6h-1.2v-1.7h3.8v6.8H165l-0.1-1.1c-0.1,0.4-0.4,0.7-0.7,0.9
				C163.6,22.6,163.1,22.8,162.6,22.8z"/>
			<path class="st7" d="M171.2,22.6l2.5-13.1h3.4l2.4,13.1h-2.7l-0.4-2.8h-1.9l-0.5,2.8H171.2z M174.7,18h1.4l-0.7-5.1L174.7,18z"/>
			<path class="st7" d="M184,22.6l0.2-13.1h3.1l1.4,7.6l1.6-7.6h3l0.2,13.1h-2.1l-0.2-8.7l-1.5,8.7h-1.9l-1.6-8.9l-0.1,8.9
				C186.1,22.6,184,22.6,184,22.6z"/>
			<path class="st7" d="M198.8,22.6V9.4h5.9v2h-3v3.3h2.3v2h-2.3v4h3.1v1.9L198.8,22.6L198.8,22.6z"/>
			<path class="st7" d="M216.6,22.6V9.4h2.9v13.1C219.6,22.6,216.6,22.6,216.6,22.6z"/>
			<path class="st7" d="M224.9,22.6V9.4h2l2.7,6.4V9.4h2.4v13.1H230l-2.8-6.9v6.9C227.2,22.6,224.9,22.6,224.9,22.6z"/>
			<path class="st7" d="M244.6,22.6V9.4h3.4c0.5,0,1.1,0.1,1.6,0.1s0.9,0.2,1.4,0.5c0.4,0.2,0.7,0.6,0.9,1c0.2,0.5,0.3,1.1,0.3,1.7
				c0,0.5-0.1,0.9-0.2,1.4c-0.1,0.4-0.4,0.6-0.6,0.9c-0.3,0.2-0.6,0.4-1,0.4c0.5,0.1,0.9,0.2,1.3,0.5c0.4,0.3,0.6,0.6,0.8,1.1
				c0.1,0.5,0.3,0.9,0.3,1.6s-0.1,1.3-0.3,1.7c-0.1,0.5-0.4,0.9-0.8,1.2c-0.3,0.3-0.7,0.5-1.3,0.7c-0.5,0.1-1.1,0.2-1.7,0.2
				C248.7,22.6,244.6,22.6,244.6,22.6z M247.6,14.6h0.5c0.5,0,0.8-0.1,1-0.1c0.2-0.1,0.4-0.3,0.5-0.6c0.1-0.3,0.1-0.5,0.1-0.9
				c0-0.3-0.1-0.6-0.1-0.9c-0.1-0.2-0.3-0.4-0.5-0.5c-0.2-0.1-0.5-0.1-0.9-0.1h-0.5L247.6,14.6L247.6,14.6z M247.6,20.5h0.6
				c0.6,0,1.1-0.1,1.4-0.5c0.2-0.3,0.4-0.8,0.4-1.4c0-0.5-0.1-0.9-0.1-1.2c-0.1-0.3-0.3-0.5-0.5-0.6c-0.2-0.1-0.6-0.1-1-0.1h-0.6
				L247.6,20.5L247.6,20.5z"/>
			<path class="st7" d="M257.4,22.6V9.4h5.9v2h-3v3.3h2.3v2h-2.3v4h3.1v1.9L257.4,22.6L257.4,22.6z"/>
			<path class="st7" d="M269.1,22.6v-11h-2V9.4h6.9v2.1h-1.9v11C272,22.6,269.1,22.6,269.1,22.6z"/>
			<path class="st7" d="M277.1,22.6l2.5-13.1h3.4l2.4,13.1h-2.7l-0.4-2.8h-1.9l-0.5,2.8H277.1z M280.5,18h1.4l-0.7-5.1L280.5,18z"/>
		</g>
	</g>
	<g class="st8">
		<path class="st7" d="M72.5,36.8c-0.2,0.3-0.5,0.5-0.9,0.7s-0.8,0.2-1.3,0.2c-0.5,0-1-0.1-1.4-0.3c-0.4-0.2-0.7-0.6-0.9-1
			c-0.2-0.4-0.3-0.9-0.3-1.5v-0.5c0-0.9,0.2-1.6,0.7-2.2s1.1-0.8,1.8-0.8c0.7,0,1.2,0.2,1.6,0.5c0.4,0.3,0.6,0.8,0.7,1.5h-1
			c-0.1-0.7-0.5-1.1-1.3-1.1c-0.5,0-0.8,0.2-1.1,0.5c-0.2,0.3-0.4,0.8-0.4,1.5v0.5c0,0.7,0.1,1.2,0.4,1.5c0.3,0.4,0.7,0.5,1.2,0.5
			c0.5,0,0.9-0.1,1.2-0.4v-1.2h-1.3v-0.8h2.3V36.8z"/>
		<path class="st7" d="M77.9,34.8h-2.5v1.9h2.9v0.8h-4v-6.1h4v0.9h-2.9V34h2.5V34.8z"/>
		<path class="st7" d="M84.4,32.3h-1.9v5.2h-1.1v-5.2h-1.9v-0.9h4.8V32.3z"/>
		<path class="st7" d="M91.8,36.1h-2.4L89,37.6h-1.1l2.3-6.1h1l2.3,6.1h-1.1L91.8,36.1z M89.8,35.3h1.8l-0.9-2.5L89.8,35.3z"/>
		<path class="st7" d="M100.8,36c0-0.3-0.1-0.5-0.3-0.6s-0.5-0.3-1-0.4s-0.9-0.3-1.2-0.5c-0.6-0.3-0.8-0.8-0.8-1.4
			c0-0.5,0.2-0.9,0.6-1.2c0.4-0.3,0.9-0.5,1.6-0.5c0.4,0,0.8,0.1,1.1,0.2s0.6,0.4,0.8,0.7c0.2,0.3,0.3,0.6,0.3,1h-1.1
			c0-0.3-0.1-0.6-0.3-0.7c-0.2-0.2-0.5-0.3-0.9-0.3c-0.3,0-0.6,0.1-0.8,0.2c-0.2,0.1-0.3,0.4-0.3,0.6c0,0.2,0.1,0.4,0.3,0.6
			c0.2,0.1,0.5,0.3,1,0.4c0.5,0.1,0.9,0.3,1.1,0.5c0.3,0.2,0.5,0.4,0.6,0.6c0.1,0.2,0.2,0.5,0.2,0.8c0,0.5-0.2,0.9-0.6,1.2
			c-0.4,0.3-0.9,0.4-1.6,0.4c-0.4,0-0.8-0.1-1.2-0.2c-0.4-0.2-0.7-0.4-0.9-0.7s-0.3-0.6-0.3-1h1.1c0,0.3,0.1,0.6,0.3,0.8
			c0.2,0.2,0.6,0.3,1,0.3c0.4,0,0.6-0.1,0.8-0.2S100.8,36.2,100.8,36z"/>
		<path class="st7" d="M108.3,37.6h-1.1l-2.7-4.3v4.3h-1.1v-6.1h1.1l2.7,4.3v-4.3h1.1V37.6z"/>
		<path class="st7" d="M113.8,34.8h-2.5v1.9h2.9v0.8h-4v-6.1h4v0.9h-2.9V34h2.5V34.8z"/>
		<path class="st7" d="M119.2,36.1h-2.4l-0.5,1.4h-1.1l2.3-6.1h1l2.3,6.1h-1.1L119.2,36.1z M117.2,35.3h1.8l-0.9-2.5L117.2,35.3z"/>
		<path class="st7" d="M123.9,34.9l-0.7,0.7v1.9h-1.1v-6.1h1.1v2.9l0.6-0.7l1.8-2.1h1.3l-2.3,2.7l2.4,3.4h-1.3L123.9,34.9z"/>
		<path class="st7" d="M132.2,35.3v2.3h-1.1v-6.1h2.3c0.7,0,1.2,0.2,1.6,0.5c0.4,0.4,0.6,0.8,0.6,1.4c0,0.6-0.2,1.1-0.6,1.4
			c-0.4,0.3-0.9,0.5-1.6,0.5H132.2z M132.2,34.4h1.3c0.4,0,0.7-0.1,0.9-0.3c0.2-0.2,0.3-0.4,0.3-0.8c0-0.3-0.1-0.6-0.3-0.8
			c-0.2-0.2-0.5-0.3-0.8-0.3h-1.3V34.4z"/>
		<path class="st7" d="M140.8,34.8h-2.5v1.9h2.9v0.8h-4v-6.1h4v0.9h-2.9V34h2.5V34.8z"/>
		<path class="st7" d="M146.4,34.8h-2.5v1.9h2.9v0.8h-4v-6.1h4v0.9h-2.9V34h2.5V34.8z"/>
		<path class="st7" d="M150.1,34.9l-0.7,0.7v1.9h-1.1v-6.1h1.1v2.9l0.6-0.7l1.8-2.1h1.3l-2.3,2.7l2.4,3.4h-1.3L150.1,34.9z"/>
		<path class="st7" d="M157.2,37.6v-6.1h2.1c0.7,0,1.2,0.1,1.6,0.4c0.4,0.3,0.5,0.7,0.5,1.2c0,0.3-0.1,0.5-0.2,0.8s-0.4,0.4-0.7,0.5
			c0.3,0.1,0.6,0.3,0.8,0.5c0.2,0.2,0.3,0.5,0.3,0.9c0,0.6-0.2,1-0.6,1.3s-0.9,0.5-1.6,0.5H157.2z M158.3,34h1
			c0.3,0,0.6-0.1,0.8-0.2c0.2-0.1,0.3-0.4,0.3-0.6c0-0.3-0.1-0.5-0.3-0.7c-0.2-0.1-0.4-0.2-0.8-0.2h-1V34z M158.3,34.8v1.9h1.2
			c0.3,0,0.6-0.1,0.8-0.2c0.2-0.2,0.3-0.4,0.3-0.7c0-0.6-0.3-1-1-1H158.3z"/>
		<path class="st7" d="M166.9,34.8h-2.5v1.9h2.9v0.8h-4v-6.1h4v0.9h-2.9V34h2.5V34.8z"/>
		<path class="st7" d="M172.4,35h-2.5v2.6h-1.1v-6.1h3.9v0.9h-2.8v1.8h2.5V35z"/>
		<path class="st7" d="M179.1,34.7c0,0.6-0.1,1.1-0.3,1.6c-0.2,0.5-0.5,0.8-0.9,1c-0.4,0.2-0.8,0.4-1.3,0.4c-0.5,0-0.9-0.1-1.3-0.4
			c-0.4-0.2-0.7-0.6-0.9-1c-0.2-0.4-0.3-1-0.3-1.5v-0.3c0-0.6,0.1-1.1,0.3-1.6c0.2-0.5,0.5-0.8,0.9-1c0.4-0.2,0.8-0.4,1.3-0.4
			c0.5,0,0.9,0.1,1.3,0.4c0.4,0.2,0.7,0.6,0.9,1c0.2,0.4,0.3,1,0.3,1.6V34.7z M178.1,34.3c0-0.7-0.1-1.2-0.4-1.6
			c-0.3-0.4-0.6-0.5-1.1-0.5c-0.5,0-0.8,0.2-1.1,0.5c-0.3,0.4-0.4,0.9-0.4,1.5v0.4c0,0.7,0.1,1.2,0.4,1.6s0.6,0.5,1.1,0.5
			c0.5,0,0.8-0.2,1.1-0.5c0.3-0.4,0.4-0.9,0.4-1.6V34.3z"/>
		<path class="st7" d="M183.1,35.2h-1.2v2.3h-1.1v-6.1h2.1c0.7,0,1.2,0.2,1.6,0.5c0.4,0.3,0.6,0.8,0.6,1.4c0,0.4-0.1,0.7-0.3,1
			c-0.2,0.3-0.5,0.5-0.8,0.6l1.4,2.5v0.1h-1.1L183.1,35.2z M181.9,34.4h1.1c0.4,0,0.6-0.1,0.8-0.3s0.3-0.4,0.3-0.7
			c0-0.3-0.1-0.6-0.3-0.8c-0.2-0.2-0.5-0.3-0.8-0.3h-1.1V34.4z"/>
		<path class="st7" d="M190.5,34.8H188v1.9h2.9v0.8h-4v-6.1h4v0.9H188V34h2.5V34.8z"/>
		<path class="st7" d="M199.4,32.3h-1.9v5.2h-1.1v-5.2h-1.9v-0.9h4.8V32.3z"/>
		<path class="st7" d="M205.7,37.6h-1.1v-2.7h-2.7v2.7h-1.1v-6.1h1.1V34h2.7v-2.5h1.1V37.6z"/>
		<path class="st7" d="M211.2,34.8h-2.5v1.9h2.9v0.8h-4v-6.1h4v0.9h-2.9V34h2.5V34.8z"/>
		<path class="st7" d="M219.5,35h-2.5v2.6H216v-6.1h3.9v0.9h-2.8v1.8h2.5V35z"/>
		<path class="st7" d="M225.9,31.5v4.1c0,0.6-0.2,1.2-0.6,1.5c-0.4,0.4-1,0.6-1.7,0.6c-0.7,0-1.3-0.2-1.7-0.6s-0.6-0.9-0.6-1.6v-4.1
			h1.1v4.1c0,0.4,0.1,0.7,0.3,0.9c0.2,0.2,0.5,0.3,0.9,0.3c0.8,0,1.2-0.4,1.2-1.3v-4H225.9z"/>
		<path class="st7" d="M228.7,36.7h2.8v0.8h-3.8v-6.1h1.1V36.7z"/>
		<path class="st7" d="M234.1,36.7h2.8v0.8H233v-6.1h1.1V36.7z"/>
		<path class="st7" d="M245.8,35.6c-0.1,0.7-0.3,1.2-0.7,1.5c-0.4,0.4-1,0.5-1.7,0.5c-0.5,0-0.9-0.1-1.3-0.3c-0.4-0.2-0.7-0.6-0.9-1
			c-0.2-0.4-0.3-0.9-0.3-1.5v-0.6c0-0.6,0.1-1.1,0.3-1.5c0.2-0.4,0.5-0.8,0.9-1c0.4-0.2,0.8-0.4,1.3-0.4c0.7,0,1.2,0.2,1.6,0.5
			c0.4,0.4,0.6,0.9,0.7,1.5h-1.1c-0.1-0.4-0.2-0.8-0.4-0.9c-0.2-0.2-0.5-0.3-0.9-0.3c-0.5,0-0.8,0.2-1.1,0.5
			c-0.2,0.3-0.4,0.8-0.4,1.5v0.5c0,0.7,0.1,1.2,0.4,1.5c0.2,0.3,0.6,0.5,1,0.5c0.4,0,0.7-0.1,0.9-0.3s0.3-0.5,0.4-0.9H245.8z"/>
		<path class="st7" d="M252.3,34.7c0,0.6-0.1,1.1-0.3,1.6c-0.2,0.5-0.5,0.8-0.9,1c-0.4,0.2-0.8,0.4-1.3,0.4c-0.5,0-0.9-0.1-1.3-0.4
			c-0.4-0.2-0.7-0.6-0.9-1c-0.2-0.4-0.3-1-0.3-1.5v-0.3c0-0.6,0.1-1.1,0.3-1.6c0.2-0.5,0.5-0.8,0.9-1s0.8-0.4,1.3-0.4
			c0.5,0,0.9,0.1,1.3,0.4c0.4,0.2,0.7,0.6,0.9,1s0.3,1,0.3,1.6V34.7z M251.2,34.3c0-0.7-0.1-1.2-0.4-1.6c-0.3-0.4-0.6-0.5-1.1-0.5
			c-0.5,0-0.8,0.2-1.1,0.5c-0.3,0.4-0.4,0.9-0.4,1.5v0.4c0,0.7,0.1,1.2,0.4,1.6s0.6,0.5,1.1,0.5c0.5,0,0.8-0.2,1.1-0.5
			c0.3-0.4,0.4-0.9,0.4-1.6V34.3z"/>
		<path class="st7" d="M255.4,31.5l1.8,4.7l1.8-4.7h1.4v6.1h-1.1v-2l0.1-2.7l-1.8,4.7h-0.8l-1.8-4.7l0.1,2.7v2H254v-6.1H255.4z"/>
		<path class="st7" d="M263.3,35.3v2.3h-1.1v-6.1h2.3c0.7,0,1.2,0.2,1.6,0.5c0.4,0.4,0.6,0.8,0.6,1.4c0,0.6-0.2,1.1-0.6,1.4
			c-0.4,0.3-0.9,0.5-1.6,0.5H263.3z M263.3,34.4h1.3c0.4,0,0.7-0.1,0.9-0.3c0.2-0.2,0.3-0.4,0.3-0.8c0-0.3-0.1-0.6-0.3-0.8
			c-0.2-0.2-0.5-0.3-0.8-0.3h-1.3V34.4z"/>
		<path class="st7" d="M271.1,36.1h-2.4l-0.5,1.4h-1.1l2.3-6.1h1l2.3,6.1h-1.1L271.1,36.1z M269,35.3h1.8l-0.9-2.5L269,35.3z"/>
		<path class="st7" d="M278.9,37.6h-1.1l-2.7-4.3v4.3H274v-6.1h1.1l2.7,4.3v-4.3h1.1V37.6z"/>
		<path class="st7" d="M282.7,34.3l1.4-2.9h1.2l-2,3.9v2.2h-1.1v-2.2l-2-3.9h1.2L282.7,34.3z"/>
		<path class="st7" d="M291.7,35.2h-1.2v2.3h-1.1v-6.1h2.1c0.7,0,1.2,0.2,1.6,0.5c0.4,0.3,0.6,0.8,0.6,1.4c0,0.4-0.1,0.7-0.3,1
			c-0.2,0.3-0.5,0.5-0.8,0.6l1.4,2.5v0.1h-1.1L291.7,35.2z M290.5,34.4h1.1c0.4,0,0.6-0.1,0.8-0.3c0.2-0.2,0.3-0.4,0.3-0.7
			c0-0.3-0.1-0.6-0.3-0.8c-0.2-0.2-0.5-0.3-0.8-0.3h-1.1V34.4z"/>
		<path class="st7" d="M300.3,34.7c0,0.6-0.1,1.1-0.3,1.6c-0.2,0.5-0.5,0.8-0.9,1c-0.4,0.2-0.8,0.4-1.3,0.4c-0.5,0-0.9-0.1-1.3-0.4
			c-0.4-0.2-0.7-0.6-0.9-1c-0.2-0.4-0.3-1-0.3-1.5v-0.3c0-0.6,0.1-1.1,0.3-1.6c0.2-0.5,0.5-0.8,0.9-1s0.8-0.4,1.3-0.4
			c0.5,0,0.9,0.1,1.3,0.4c0.4,0.2,0.7,0.6,0.9,1s0.3,1,0.3,1.6V34.7z M299.3,34.3c0-0.7-0.1-1.2-0.4-1.6c-0.3-0.4-0.6-0.5-1.1-0.5
			c-0.5,0-0.8,0.2-1.1,0.5c-0.3,0.4-0.4,0.9-0.4,1.5v0.4c0,0.7,0.1,1.2,0.4,1.6c0.3,0.4,0.6,0.5,1.1,0.5c0.5,0,0.8-0.2,1.1-0.5
			c0.3-0.4,0.4-0.9,0.4-1.6V34.3z"/>
		<path class="st7" d="M303.1,36.7h2.8v0.8h-3.8v-6.1h1.1V36.7z"/>
		<path class="st7" d="M308.4,36.7h2.8v0.8h-3.8v-6.1h1.1V36.7z"/>
		<path class="st7" d="M317.3,34.7c0,0.6-0.1,1.1-0.3,1.6c-0.2,0.5-0.5,0.8-0.9,1c-0.4,0.2-0.8,0.4-1.3,0.4c-0.5,0-0.9-0.1-1.3-0.4
			c-0.4-0.2-0.7-0.6-0.9-1c-0.2-0.4-0.3-1-0.3-1.5v-0.3c0-0.6,0.1-1.1,0.3-1.6c0.2-0.5,0.5-0.8,0.9-1s0.8-0.4,1.3-0.4
			c0.5,0,0.9,0.1,1.3,0.4c0.4,0.2,0.7,0.6,0.9,1s0.3,1,0.3,1.6V34.7z M316.2,34.3c0-0.7-0.1-1.2-0.4-1.6c-0.3-0.4-0.6-0.5-1.1-0.5
			c-0.5,0-0.8,0.2-1.1,0.5c-0.3,0.4-0.4,0.9-0.4,1.5v0.4c0,0.7,0.1,1.2,0.4,1.6c0.3,0.4,0.6,0.5,1.1,0.5c0.5,0,0.8-0.2,1.1-0.5
			c0.3-0.4,0.4-0.9,0.4-1.6V34.3z"/>
		<path class="st7" d="M323.5,31.5v4.1c0,0.6-0.2,1.2-0.6,1.5c-0.4,0.4-1,0.6-1.7,0.6c-0.7,0-1.3-0.2-1.7-0.6s-0.6-0.9-0.6-1.6v-4.1
			h1.1v4.1c0,0.4,0.1,0.7,0.3,0.9c0.2,0.2,0.5,0.3,0.9,0.3c0.8,0,1.2-0.4,1.2-1.3v-4H323.5z"/>
		<path class="st7" d="M329.7,32.3h-1.9v5.2h-1.1v-5.2h-1.9v-0.9h4.8V32.3z"/>
		<path class="st7" d="M331.2,37.1c0-0.2,0.1-0.3,0.2-0.4c0.1-0.1,0.2-0.2,0.4-0.2c0.2,0,0.3,0.1,0.4,0.2c0.1,0.1,0.2,0.2,0.2,0.4
			c0,0.2-0.1,0.3-0.2,0.4c-0.1,0.1-0.2,0.2-0.4,0.2s-0.3-0.1-0.4-0.2C331.2,37.4,331.2,37.2,331.2,37.1z M332.2,35.8h-0.9l-0.1-4.3
			h1.1L332.2,35.8z"/>
	</g>
</g>
</svg>
