<svg width="39" height="40" viewBox="0 0 39 40" fill="none" xmlns="http://www.w3.org/2000/svg">
<g clip-path="url(#clip0_2314_29260)">
<path d="M22.6325 15.5914C21.9636 14.4931 20.7981 13.8374 19.5143 13.8374C18.4859 13.8374 17.5348 14.2534 16.8361 15.0089C16.2113 15.6843 15.8672 16.5636 15.8672 17.4845C15.8672 19.4956 17.5034 21.1317 19.5144 21.1317C21.5254 21.1317 23.1616 19.4955 23.1616 17.4845C23.1616 17.1101 23.1053 16.7413 22.9942 16.3884C22.9065 16.1098 22.7848 15.8417 22.6325 15.5914Z" fill="black"/>
<path d="M20.4414 23.4966H18.5882C16.5728 23.4966 14.721 24.51 13.6347 26.2075C13.0278 27.1557 12.707 28.2519 12.707 29.3778V33.4402H26.3227V29.3778C26.3227 28.252 26.0019 27.1558 25.395 26.2075C24.3086 24.51 22.4568 23.4966 20.4414 23.4966Z" fill="black"/>
<path d="M12.4644 16.8553C15.291 15.6837 16.6326 12.4425 15.461 9.61588C14.2894 6.78927 11.0482 5.44765 8.22155 6.61929C5.39494 7.79092 4.05331 11.0321 5.22495 13.8588C6.39659 16.6854 9.63781 18.027 12.4644 16.8553Z" fill="black"/>
<path d="M10.4122 29.3781C10.4122 27.813 10.8581 26.2891 11.7018 24.9712C12.6221 23.5331 13.9379 22.4492 15.4591 21.8211C14.4961 20.92 13.8333 19.7032 13.6357 18.3375C12.766 19.0908 11.7262 19.5726 10.3377 19.5726C8.57388 19.5726 6.9446 18.9865 5.63382 17.999C3.94642 18.716 2.48728 19.9301 1.46174 21.5325C0.505471 23.0267 0 24.7541 0 26.528V31.0433H10.4122V29.3781Z" fill="black"/>
<path d="M32.5744 15.6573C34.7372 13.4945 34.7372 9.98793 32.5744 7.82514C30.4116 5.66236 26.905 5.66236 24.7422 7.82514C22.5795 9.98793 22.5795 13.4945 24.7422 15.6573C26.905 17.8201 30.4116 17.8201 32.5744 15.6573Z" fill="black"/>
<path d="M37.5374 21.5326C36.5119 19.9301 35.0528 18.7161 33.3653 17.999C32.0545 18.9866 30.4253 19.5727 28.6615 19.5727C27.28 19.5727 26.255 19.0535 25.4017 18.2631C25.2178 19.659 24.5488 20.9038 23.5684 21.8212C25.0896 22.4492 26.4055 23.5332 27.3257 24.9712C28.1694 26.2894 28.6153 27.8133 28.6153 29.3782V31.0433H38.9991V26.528C38.9991 24.7541 38.4937 23.0267 37.5374 21.5326Z" fill="black"/>
</g>
<defs>
<clipPath id="clip0_2314_29260">
<rect width="39" height="39" fill="white" transform="translate(0 0.320312)"/>
</clipPath>
</defs>
</svg>
