<svg width="34" height="35" viewBox="0 0 34 35" fill="none" xmlns="http://www.w3.org/2000/svg">
<path fill-rule="evenodd" clip-rule="evenodd" d="M24.1749 23.6739C24.0383 23.8001 23.8589 23.8699 23.6729 23.8691C23.4907 23.8675 23.315 23.8008 23.1778 23.681C23.0412 23.8046 22.8635 23.8731 22.6792 23.8731C22.495 23.8731 22.3173 23.8046 22.1807 23.681L21.6891 24.1726C21.7942 24.3008 21.8628 24.4549 21.8878 24.6188C21.8878 25.0163 21.7414 25.0163 21.7414 25.5113C21.7414 26.749 23.1778 27.1498 23.1778 27.1498C23.1778 27.1498 24.6176 26.749 24.6176 25.5113H24.6211C24.6211 25.0163 24.4712 25.0163 24.4712 24.6188C24.498 24.4555 24.5664 24.3017 24.6699 24.1726L24.1749 23.6739ZM17 21.5716L15.6055 22.9662L15.9541 24.3607H18.0459L18.3945 22.9662L17 21.5716ZM13.2522 20.0553L14.1238 23.022C14.1325 23.0509 14.1487 23.077 14.1707 23.0975C14.1927 23.1181 14.2198 23.1325 14.2492 23.1392C14.2786 23.146 14.3093 23.1448 14.338 23.1359C14.3668 23.1269 14.3928 23.1105 14.4132 23.0883L17 20.5258L19.5938 23.0951C19.6133 23.1176 19.6384 23.1345 19.6666 23.1441C19.6948 23.1536 19.725 23.1554 19.7541 23.1494C19.7833 23.1434 19.8103 23.1297 19.8323 23.1097C19.8544 23.0898 19.8707 23.0643 19.8797 23.0359L20.8698 20.0587C21.1179 20.0669 21.3639 20.1067 21.602 20.1771C23.5543 20.735 25.5066 21.5717 27.0406 22.8268C27.3803 23.0928 27.6566 23.431 27.8496 23.8169C28.0425 24.2027 28.1473 24.6267 28.1562 25.058V30.6361H18.3945L18.0215 25.058H15.9925L15.6055 30.6361H5.84375V25.058C5.85274 24.6267 5.9575 24.2027 6.15044 23.8169C6.34339 23.431 6.6197 23.0928 6.95938 22.8268C8.60919 21.6421 10.4482 20.7461 12.398 20.1771C12.6769 20.1025 12.9636 20.0616 13.2522 20.0553V20.0553ZM11.5334 11.7264C13.1809 12.8596 15.1329 13.4674 17.1325 13.4696C19.0319 13.4698 20.8916 12.9253 22.491 11.9007C22.5467 12.2161 22.5759 12.5356 22.5781 12.8558C22.5754 13.6346 22.4096 14.4041 22.0915 15.1149C21.7734 15.8257 21.31 16.462 20.7311 16.9829C20.1522 17.5038 19.4706 17.8977 18.7303 18.1392C17.99 18.3808 17.2073 18.4647 16.4326 18.3854C15.6579 18.3062 14.9083 18.0657 14.2322 17.6793C13.5561 17.2929 12.9684 16.7692 12.5069 16.1419C12.0454 15.5146 11.7204 14.7977 11.5527 14.0372C11.3851 13.2767 11.3785 12.4896 11.5334 11.7264ZM16.3027 5.90064L15.846 6.33643C15.938 6.45001 15.9982 6.58599 16.0204 6.73046C16.0204 7.0791 15.8914 7.0791 15.8914 7.51829C15.8914 8.61299 17.1604 8.96162 17.1604 8.96162C17.1604 8.96162 18.4294 8.60958 18.4294 7.51829H18.4434C18.4434 7.0791 18.3143 7.0791 18.3074 6.73046C18.3304 6.58624 18.3905 6.45046 18.4817 6.33643L18.0459 5.90064C17.9303 6.00852 17.7787 6.06946 17.6206 6.07155C17.4593 6.0709 17.3036 6.0128 17.1813 5.90768C17.0598 6.01417 16.9036 6.07247 16.742 6.07155C16.5791 6.07298 16.4219 6.0118 16.3028 5.90064H16.3027ZM16.7699 3.49494C16.8942 3.42822 17.0332 3.39331 17.1743 3.39331C17.3154 3.39331 17.4543 3.42822 17.5787 3.49494C18.3701 3.91348 20.312 4.83727 21.0964 5.1371C22.1624 5.50521 23.2513 5.80334 24.3561 6.0296L24.3422 6.04004C24.4896 6.07281 24.6256 6.14456 24.7358 6.24779C24.8461 6.35103 24.9266 6.48196 24.969 6.62693C25.0114 6.77191 25.0141 6.9256 24.9768 7.07196C24.9395 7.21833 24.8636 7.35201 24.7571 7.45905L23.3625 8.85358V9.26849C23.362 9.5215 23.2978 9.77031 23.176 9.99205C23.0541 10.2138 22.8785 10.4014 22.6653 10.5375L21.9436 11.0046C20.4671 11.9563 18.7419 12.4495 16.9855 12.4222C15.2291 12.3949 13.5201 11.8483 12.0738 10.8512L11.6241 10.5409C11.4232 10.4022 11.2589 10.2168 11.1453 10.0006C11.0317 9.78448 10.9723 9.544 10.9721 9.29982V8.84314L9.57761 7.44861C9.47104 7.34158 9.39514 7.2079 9.35786 7.06153C9.32057 6.91516 9.32326 6.76146 9.36564 6.61649C9.40803 6.47151 9.48855 6.34057 9.59881 6.23733C9.70907 6.1341 9.84503 6.06235 9.99247 6.02959C11.0973 5.80334 12.1862 5.5052 13.2522 5.13709C14.0366 4.83726 15.9785 3.91348 16.7699 3.49493L16.7699 3.49494Z" fill="black"/>
</svg>
