<svg width="34" height="35" viewBox="0 0 34 35" fill="none" xmlns="http://www.w3.org/2000/svg">
<path d="M24.0496 1.84155C21.4735 1.84155 18.9294 2.83652 17.0005 4.55451C15.0708 2.83672 12.5265 1.84155 9.95144 1.84155C4.37112 1.84155 0 6.21261 0 11.7926C0 18.5877 4.77155 22.7764 11.9942 29.1168C12.6158 29.6625 13.2573 30.2256 13.9176 30.8095C13.9214 30.8128 13.9253 30.8163 13.9293 30.8196L16.1235 32.7151C16.3754 32.9329 16.6882 33.0417 17.0008 33.0417C17.3136 33.0417 17.6262 32.9329 17.8783 32.7151L20.0725 30.8196C20.0765 30.8163 20.0804 30.8128 20.0842 30.8093C24.4206 26.9742 27.6714 24.0388 30.0169 21.1835C32.7342 17.8755 34 14.8914 34 11.7926C34 6.21261 29.6292 1.84155 24.0496 1.84155ZM10.7608 17.5636C9.90715 17.5636 9.2148 16.8714 9.2148 16.0177C9.21473 15.1636 9.90715 14.4717 10.7608 14.4717C11.6149 14.4717 12.3065 15.1636 12.3065 16.0177C12.3065 16.8714 11.6149 17.5636 10.7608 17.5636ZM14.4434 10.7311C15.3917 10.7311 16.1612 11.5003 16.1612 12.4489C16.1612 13.3977 15.3917 14.1668 14.4434 14.1668C13.4945 14.1668 12.7258 13.3977 12.7258 12.4489C12.7258 11.5002 13.4945 10.7311 14.4434 10.7311ZM16.9998 24.1523C14.6766 24.1523 12.7931 22.269 12.7931 19.9457C12.7931 17.6227 14.6766 15.7392 16.9998 15.7392C19.323 15.7392 21.2063 17.6227 21.2063 19.9457C21.2063 22.269 19.323 24.1523 16.9998 24.1523ZM19.5562 14.1668C18.6078 14.1668 17.8388 13.3977 17.8388 12.4489C17.8388 11.5002 18.6079 10.7311 19.5562 10.7311C20.5051 10.7311 21.2742 11.5003 21.2742 12.4489C21.2742 13.3978 20.5052 14.1668 19.5562 14.1668ZM23.239 17.5636C22.3853 17.5636 21.6931 16.8714 21.6931 16.0177C21.6931 15.1636 22.3853 14.4717 23.239 14.4717C24.0929 14.4717 24.7852 15.1636 24.7852 16.0177C24.7852 16.8714 24.0929 17.5636 23.239 17.5636Z" fill="black"/>
</svg>
