<svg width="34" height="35" viewBox="0 0 34 35" fill="none" xmlns="http://www.w3.org/2000/svg">
<path d="M8.97963 4.8344C10.1297 5.78995 11.9664 6.19618 14.3409 6.07031C14.9787 5.92594 15.6276 5.83597 16.2806 5.80137C16.0965 5.02574 15.6597 4.33333 15.039 3.83309C13.5914 2.63153 11.0681 2.27679 7.72656 2.80318C7.90263 3.60244 8.34433 4.31844 8.97963 4.8344V4.8344Z" fill="black"/>
<path d="M24.8478 4.8344C25.4823 4.31676 25.9254 3.60175 26.1066 2.80318C22.7594 2.27679 20.2361 2.63153 18.7885 3.83309C18.1697 4.33505 17.7334 5.02674 17.5469 5.80137C18.2305 5.83504 18.9101 5.92693 19.5781 6.07603C21.9068 6.19045 23.7149 5.7785 24.8478 4.8344Z" fill="black"/>
<path d="M17.0234 10.356C17.1139 10.6829 17.3125 10.9695 17.5868 11.1691C17.8612 11.3686 18.1951 11.4692 18.534 11.4545L20.1876 11.3744C20.7553 11.3544 21.3146 11.5154 21.7847 11.8343C22.2547 12.1532 22.6112 12.6133 22.8024 13.1482C22.8979 13.4443 23.0829 13.7036 23.3319 13.8901C23.581 14.0766 23.8818 14.1813 24.1928 14.1895L27.1166 14.2525C26.5928 12.6739 25.7071 11.2396 24.5304 10.0641C22.6968 8.20649 20.2214 7.12141 17.6128 7.03174L16.9205 8.93124C16.813 9.22298 16.799 9.54094 16.8804 9.84099L17.0234 10.356Z" fill="black"/>
<path d="M10.736 20.0885C10.799 20.0714 10.8562 20.0599 10.9191 20.0428C10.9175 19.344 11.1933 18.6731 11.6859 18.1775C12.0456 17.7514 12.4751 17.3896 12.9561 17.1075C13.2976 16.9325 13.559 16.6333 13.6867 16.2715C13.8144 15.9097 13.7987 15.5127 13.6427 15.1621L12.4068 12.3985C12.2672 12.0782 12.0175 11.8184 11.703 11.6661L9.05385 10.3616C7.71284 11.8018 6.79419 13.5834 6.39855 15.511C6.00292 17.4387 6.14559 19.4381 6.81091 21.2901L10.736 20.0885Z" fill="black"/>
<path d="M16.401 7.00293C14.0161 7.06099 11.7267 7.95168 9.92969 9.52061L12.2012 10.6362C12.7599 10.9066 13.2041 11.367 13.4542 11.9351C13.742 12.7183 15.0009 14.9799 14.919 15.7686C14.9184 16.2582 14.7823 16.7382 14.5258 17.1552C14.2693 17.5723 13.9024 17.9103 13.4657 18.1317C13.1052 18.3695 12.7798 18.6565 12.4987 18.9843C12.2664 19.2195 12.1194 19.5256 12.081 19.8539C13.1881 19.7906 14.2886 20.0617 15.2394 20.6321L17.4938 22.2743C17.6854 21.9057 17.962 21.588 18.3006 21.3473L21.2187 19.3104C21.7462 18.9441 22.3885 18.7815 23.0267 18.8526L27.5241 19.3619C27.7332 18.0489 27.6983 16.7085 27.4211 15.4082L24.1597 15.3338C23.6223 15.3196 23.1019 15.1424 22.6676 14.8256C22.2333 14.5088 21.9056 14.0674 21.7279 13.5601C21.6234 13.2494 21.4219 12.9805 21.153 12.793C20.8841 12.6056 20.5622 12.5094 20.2345 12.5187L18.5809 12.5988C17.9824 12.6259 17.3924 12.4486 16.9079 12.0961C16.4234 11.7437 16.0731 11.2369 15.9146 10.6591L15.7773 10.1442C15.4216 9.17645 16.0998 7.90256 16.401 7.00293V7.00293Z" fill="black"/>
<path d="M21.8799 20.2487L18.9561 22.2857C18.7187 22.4524 18.5357 22.6852 18.4297 22.9552L20.4266 24.4199C20.7748 24.6784 21.0537 25.0189 21.2384 25.4113C21.423 25.8036 21.5078 26.2355 21.4851 26.6686L22.9041 26.5885C25.0599 25.1578 26.6186 22.9886 27.2869 20.489L22.8984 19.9913C22.5388 19.949 22.1762 20.0407 21.8799 20.2487V20.2487Z" fill="black"/>
<path d="M29.8859 28.3165C29.8466 28.0412 29.7042 27.7911 29.4875 27.6169C29.2708 27.4427 28.9959 27.3573 28.7186 27.3781L21.1202 27.8416C20.8188 28.3511 20.3504 28.7406 19.7945 28.944C19.2386 29.1474 18.6294 29.1521 18.0704 28.9573L14.214 27.6528C14.1427 27.6289 14.0769 27.5913 14.0202 27.5419C13.9635 27.4926 13.9172 27.4325 13.8838 27.3652C13.8503 27.2979 13.8306 27.2246 13.8255 27.1497C13.8205 27.0747 13.8303 26.9995 13.8544 26.9283C13.8785 26.8571 13.9164 26.7914 13.966 26.7349C14.0155 26.6784 14.0757 26.6323 14.1432 26.5991C14.2106 26.5659 14.2839 26.5464 14.3589 26.5416C14.4339 26.5369 14.5091 26.547 14.5802 26.5713L18.4367 27.8759C18.7625 27.9812 19.1151 27.9675 19.4319 27.8374C19.7487 27.7073 20.0091 27.4691 20.1668 27.1652C20.3246 26.8613 20.3696 26.5113 20.2938 26.1773C20.2179 25.8434 20.0262 25.5472 19.7526 25.3412C19.7361 25.3375 14.5974 21.5705 14.5974 21.5705C13.9273 21.1955 13.1738 20.9948 12.406 20.9869C11.5243 20.8445 5.0729 23.0976 4.10938 23.3156L5.55698 28.0418L15.2954 31.904C16.446 32.363 17.7133 32.4412 18.9116 32.1272L29.0848 29.4952C29.3389 29.4298 29.5604 29.274 29.7078 29.057C29.8553 28.8401 29.9186 28.5768 29.8859 28.3165V28.3165Z" fill="black"/>
</svg>
