<svg width="39" height="40" viewBox="0 0 39 40" fill="none" xmlns="http://www.w3.org/2000/svg">
<g clip-path="url(#clip0_2314_29283)">
<path d="M19.5 7.5749C20.131 7.5749 20.6426 7.06333 20.6426 6.43233V2.65869C20.6426 2.02768 20.131 1.51611 19.5 1.51611C18.869 1.51611 18.3574 2.02768 18.3574 2.65869V6.43233C18.3574 7.06333 18.869 7.5749 19.5 7.5749Z" fill="black"/>
<path d="M24.8321 9.51414C25.1245 9.51414 25.4169 9.40255 25.6399 9.17944L28.6868 6.13257C29.133 5.68643 29.133 4.96295 28.6868 4.51673C28.2407 4.07059 27.5172 4.07059 27.071 4.51673L24.0241 7.56361C23.5779 8.00975 23.5779 8.73323 24.0241 9.17944C24.2472 9.40255 24.5396 9.51414 24.8321 9.51414Z" fill="black"/>
<path d="M13.3601 9.17944C13.5832 9.40254 13.8757 9.51414 14.168 9.51414C14.4604 9.51414 14.7529 9.40254 14.9759 9.17944C15.4221 8.7333 15.4221 8.00982 14.9759 7.5636L11.929 4.51673C11.4829 4.07059 10.7594 4.07059 10.3132 4.51673C9.86696 4.96287 9.86696 5.68635 10.3132 6.13256L13.3601 9.17944Z" fill="black"/>
<path d="M29.7626 17.6652L25.3273 13.2298C24.4701 12.3726 23.3077 11.8911 22.0955 11.8911H15.1578C13.4283 11.8911 11.8025 12.5646 10.5796 13.7875L10.2144 14.1526L10.1908 14.1762H1.14258C0.51157 14.1762 0 14.6878 0 15.3188V27.5063C0 28.1373 0.51157 28.6488 1.14258 28.6488H6.83924L9.5515 31.361C9.76577 31.5753 10.0564 31.6957 10.3594 31.6957H11.3939C11.011 31.103 10.7645 30.4409 10.668 29.7478C9.81383 29.47 9.04518 28.9569 8.45317 28.2514C6.73215 26.2001 7.00065 23.1313 9.05173 21.4102L13.3944 17.7662H22.0654C22.3684 17.7662 22.6591 17.8866 22.8733 18.1009L26.0635 21.2911C27.0882 22.3158 28.787 22.3376 29.794 21.2957C30.7723 20.2836 30.7618 18.6643 29.7626 17.6652Z" fill="black"/>
<path d="M38.9991 17.6802C38.9991 17.049 38.4876 16.5375 37.8566 16.5376H31.8035C33.2644 18.4473 33.1233 21.1978 31.3777 22.9436C30.4576 23.8636 29.2334 24.3702 27.9305 24.3702C26.6276 24.3702 25.4034 23.8636 24.4835 22.9436L21.5914 20.0515H14.0115L13.114 20.8046L10.2153 23.2369C9.1276 24.1495 8.98577 25.7711 9.89838 26.8587C10.811 27.9464 12.4325 28.0882 13.5202 27.1756C12.4325 28.0882 12.2907 29.7098 13.2033 30.7974C14.1159 31.8851 15.7375 32.0269 16.8251 31.1143C15.7375 32.0269 15.5957 33.6485 16.5083 34.7361C17.4209 35.8238 19.0424 35.9656 20.1301 35.053L22.1536 33.3551L21.8807 33.5841C20.793 34.4967 20.6512 36.1183 21.5638 37.2059C22.4764 38.2936 24.098 38.4354 25.1856 37.5228L32.9471 31.0101H37.8567C38.4877 31.0101 38.9993 30.4985 38.9992 29.8675L38.9991 17.6802Z" fill="black"/>
</g>
<defs>
<clipPath id="clip0_2314_29283">
<rect width="39" height="39" fill="white" transform="translate(0 0.320312)"/>
</clipPath>
</defs>
</svg>
