<svg width="40" height="40" viewBox="0 0 40 40" fill="none" xmlns="http://www.w3.org/2000/svg">
<g clip-path="url(#clip0_2314_29303)">
<path d="M0.798828 24.0751H1.56001V35.3728H25.0272V24.0751H25.8685V20.9297H0.798828V24.0751ZM8.98228 26.2165C8.88472 26.1579 8.87849 26.0556 8.96795 25.9865L9.71946 25.4039C9.80955 25.3337 9.96696 25.3119 10.0729 25.3521L14.0796 26.9075L16.3132 24.797C16.7259 24.408 17.292 24.148 17.5766 24.2144C17.6854 24.2387 17.7879 24.2989 17.8758 24.3787L17.878 24.3806C17.9578 24.4688 18.0176 24.571 18.0429 24.6795C18.1099 24.965 17.8487 25.5301 17.4603 25.9437L15.3491 28.1777L16.9042 32.1837C16.9451 32.2903 16.9223 32.4481 16.8531 32.5381L16.2702 33.2893C16.2007 33.3788 16.0978 33.3723 16.0399 33.2753L13.8901 29.6511L11.6392 31.7648C11.5978 31.7947 11.4725 31.9244 11.4725 31.9244C11.4725 31.9244 11.4756 32.0017 11.4834 32.0628L11.5866 32.8651L10.9856 33.6428C10.9778 33.6322 10.9691 33.621 10.9619 33.6079L10.4934 32.7355C10.4386 32.6226 10.4844 32.5472 10.5268 32.5076C10.4763 32.5319 10.3821 32.5721 10.2141 32.6282C10.2141 32.6282 9.68954 32.8424 9.55364 32.7062L9.55145 32.7037C9.41742 32.5693 9.63 32.0432 9.63 32.0432C9.68549 31.8751 9.72539 31.7807 9.7497 31.7315C9.71042 31.7735 9.63468 31.819 9.52122 31.7639L8.6497 31.2951C8.63598 31.2885 8.62507 31.2801 8.61416 31.2723L9.39155 30.6704L10.1939 30.7736C10.2556 30.7814 10.3338 30.7851 10.3338 30.7851C10.3338 30.7851 10.4632 30.6592 10.4922 30.618L12.6061 28.3676L8.98228 26.2165Z" fill="black"/>
<path d="M3.04883 20.2537H5.56116C5.49944 18.3299 5.88657 17.6775 5.88657 17.6775V19.8544L10.7569 11.3957C10.5521 11.2982 10.3389 11.2227 10.1236 11.1651C11.3579 10.7437 12.2247 9.48344 12.442 8.18489C12.6692 7.94831 12.6512 7.68866 12.572 7.48449C13.0782 7.38755 13.273 7.25632 13.273 7.04405C13.273 6.80997 13.0374 6.67469 12.4096 6.57588L12.3544 6.39384C13.167 6.16817 13.6707 5.85646 13.6707 5.51047C13.6707 4.82348 11.6839 4.26709 9.2324 4.26709C6.78147 4.26709 4.79437 4.82348 4.79437 5.51047C4.79437 5.85646 5.29808 6.16817 6.111 6.39384L6.05147 6.59146C5.49227 6.68871 5.27844 6.82181 5.27844 7.04405C5.27844 7.24573 5.45331 7.37352 5.90029 7.46859C5.81582 7.67494 5.79088 7.94145 6.02372 8.18489C6.24098 9.485 7.11001 10.7468 8.34654 11.166C7.95535 11.2708 7.57258 11.44 7.23002 11.6675C6.01188 12.3904 3.14359 14.9283 3.04883 20.2537ZM6.62438 8.65805C7.25277 8.88435 8.11151 8.99282 9.2324 8.99282C10.3533 8.99282 11.212 8.88404 11.8401 8.65868C11.4564 9.83193 10.4914 10.8365 9.2324 10.8365C7.97312 10.8369 7.00839 9.83193 6.62438 8.65805Z" fill="black"/>
<path d="M25.7786 10.8977C25.3316 10.8273 24.9105 11.1359 24.8416 11.5844L23.9211 17.5382H18.6044C18.7578 17.2487 18.8014 16.9052 18.7023 16.5766C18.7023 16.5766 18.6667 16.4579 18.6066 16.3441C18.5464 16.2303 18.4813 16.1518 18.4813 16.1518C18.1406 15.7244 17.5552 15.5592 17.0309 15.7653L16.5687 15.9274C15.7258 16.1197 14.988 15.5443 13.662 13.9216C13.019 13.1345 11.9979 12.1816 11.5599 11.9132L6.75781 20.2541H12.5776V16.5146C13.5361 17.5211 14.7542 18.5061 16.2825 18.5061C16.3689 18.5061 16.4568 18.5017 16.5453 18.4949V20.2999C16.5453 20.4508 16.6678 20.5739 16.819 20.5739H25.115C25.2661 20.5739 25.3889 20.4508 25.3889 20.2999V18.6732C25.4083 18.6202 25.4245 18.5662 25.4341 18.5086L26.4656 11.8353C26.5338 11.3862 26.2268 10.9675 25.7786 10.8977Z" fill="black"/>
<path d="M33.1437 10.536C34.9544 10.536 36.4222 9.06816 36.4222 7.2575C36.4222 5.44684 34.9544 3.979 33.1437 3.979C31.3331 3.979 29.8652 5.44684 29.8652 7.2575C29.8652 9.06816 31.3331 10.536 33.1437 10.536Z" fill="black"/>
<path d="M39.785 20.6952C38.6972 13.4565 35.2656 11.3294 35.2603 11.327C34.8701 11.0455 34.4209 10.8395 33.9618 10.7266C33.9618 10.7266 33.6068 10.6396 33.2034 10.6396C32.8004 10.6396 32.3528 10.7173 32.3528 10.7173C32.3503 10.7182 32.3472 10.7182 32.345 10.7194C31.8924 10.827 31.4501 11.0268 31.063 11.2995C31.0386 11.312 27.1558 13.8231 26.4819 20.6952C26.413 21.3943 26.8409 22.0427 27.5351 22.1555C27.604 22.1661 27.6726 22.1714 27.7396 22.1714C28.3533 22.1714 28.8938 21.7269 28.9945 21.1023C29.2463 19.5463 29.4994 18.3116 29.7893 17.3145V20.6762C29.7893 21.0184 29.8832 21.4748 30 21.7678L29.9854 34.1567C29.9854 34.9877 30.659 35.6616 31.49 35.6616C32.3204 35.6616 32.994 34.9877 32.994 34.1567L32.9933 23.6972C33.0529 23.7006 33.1121 23.7047 33.1722 23.7047C33.1838 23.7047 33.1953 23.7034 33.2075 23.7028L33.2068 34.1564C33.2068 34.9868 33.8801 35.661 34.7111 35.661C34.7117 35.661 34.7117 35.661 34.7117 35.661C35.5415 35.661 36.2151 34.9868 36.2151 34.1564L36.2157 21.7974C36.3878 21.6344 36.5003 21.096 36.5003 20.6428V17.3927C36.7802 18.3761 37.0268 19.5865 37.2724 21.1017C37.3569 21.6225 37.7474 22.014 38.2303 22.1315C38.2303 22.1315 38.4095 22.1901 38.7019 22.153C39.5516 22.0461 39.8698 21.2591 39.785 20.6952Z" fill="black"/>
</g>
<defs>
<clipPath id="clip0_2314_29303">
<rect width="38.9997" height="39" fill="white" transform="translate(0.798828 0.320312)"/>
</clipPath>
</defs>
</svg>
