<svg width="52" height="72" viewBox="0 0 52 72" fill="none" xmlns="http://www.w3.org/2000/svg">
<path d="M5.98617 62.6584C5.98617 62.6584 -3.86151 22.9687 7.17467 9.98264C20.9275 6.3246 46.5654 9.61684 46.5654 9.98264C46.5654 10.3484 49.282 55.1594 44.1883 63.9387C26.87 67.9626 5.98617 62.6584 5.98617 62.6584Z" fill="#6B2303"/>
<path d="M4.2832 11.0819C4.2832 11.0819 5.8113 7.97253 8.18832 6.50932C10.9049 4.8632 16.3381 3.39998 27.7139 3.58289C41.4667 3.94869 47.0697 7.05802 47.9186 10.5332C45.0322 14.1912 16.3381 24.9824 4.2832 11.0819Z" fill="#6B2303"/>
<path d="M7.00209 3.21582C7.00209 3.21582 3.26674 3.76452 2.4178 10.1661C1.56887 16.5676 -0.298785 24.6152 0.0407901 33.7603C0.380365 42.9053 4.62505 63.0244 4.62505 63.0244C4.62505 63.0244 -1.65708 29.1878 5.13441 8.88575C4.62505 7.97124 3.77612 5.22773 7.00209 3.21582Z" fill="#D1721E"/>
<path d="M10.903 12.1789C10.903 12.1789 6.14899 11.2644 5.46983 8.88672C4.45111 12.1789 -0.812319 26.0795 4.96047 63.0256C6.31877 64.8546 11.0728 67.9639 11.0728 67.9639C11.0728 67.9639 6.31877 37.2364 10.903 12.1789Z" fill="#93571B"/>
<path d="M12.0934 11.0811C12.0934 11.0811 10.2258 11.8127 9.54663 20.9577C8.86748 30.1028 7.50918 46.9297 10.7351 67.7804C12.0934 69.2436 19.3943 70.524 19.7339 70.524C20.0735 70.524 18.3756 26.079 20.9224 13.8246C16.5079 12.9101 13.282 13.2759 12.0934 11.0811Z" fill="#905314"/>
<path d="M31.4539 13.8242C31.4539 13.8242 24.1531 14.9216 20.9271 14.0071C20.2479 18.5797 17.8709 23.1522 19.7386 70.7066C22.2854 71.804 29.9258 70.7066 29.9258 70.7066C29.9258 70.7066 33.4914 21.689 31.4539 13.8242Z" fill="#794015"/>
<path d="M39.0925 12.7275C39.0925 12.7275 32.6406 14.5566 31.4521 13.8249C31.7916 15.654 32.1312 34.4928 30.0938 70.7073C34.8478 72.1705 37.0551 70.7073 37.0551 70.7073C37.0551 70.7073 44.0163 41.9918 39.0925 12.7275Z" fill="#8A4E0F"/>
<path d="M45.5439 11.8125C45.5439 11.8125 51.1469 36.5041 44.5252 64.488C42.4877 68.3289 36.8848 70.5237 36.8848 70.5237C36.8848 70.5237 43.3367 41.9911 39.092 12.5441C41.6388 12.727 45.5439 11.8125 45.5439 11.8125Z" fill="#8B4511"/>
<path d="M47.917 9.98438C47.917 9.98438 53.8595 27.7258 47.917 61.7455C45.7097 65.4036 44.1816 65.4036 44.1816 65.4036C44.1816 65.4036 50.9731 46.7476 45.7097 11.9963C46.8982 11.4476 47.917 9.98438 47.917 9.98438Z" fill="#9D5A16"/>
<path d="M49.28 6.14258C49.28 6.14258 55.2226 33.5777 47.752 61.7445C48.9405 54.0627 51.6571 34.4923 47.752 9.98351C48.7707 7.97159 49.28 6.14258 49.28 6.14258Z" fill="#89490B"/>
<path d="M39.7713 12.7275C39.7713 12.7275 46.0534 36.5047 37.0547 71.4387C37.2245 69.7926 42.6577 41.2601 39.2619 12.9104L39.7713 12.7275Z" fill="#72360D"/>
<path d="M7.17084 3.21582C7.17084 3.21582 6.83127 6.32509 7.68021 6.87379C7.00106 7.42248 5.98232 8.15407 5.47296 9.43436C5.13338 8.51987 2.92614 5.0448 7.17084 3.21582Z" fill="#762C05"/>
<path d="M12.4383 2.66719C12.4383 2.66719 11.929 4.31326 12.2685 4.86196C11.5894 5.04485 10.5707 5.41065 7.85409 6.69093C7.6843 6.50803 7.17493 5.95934 7.34472 3.94747C7.85408 4.31326 11.5894 2.4843 12.4383 2.66719Z" fill="#762C05"/>
<path d="M16.8494 1.9356C16.8494 1.9356 16.5099 3.58166 16.6797 4.13035C15.8307 4.31325 12.2652 5.04483 12.2652 5.04483C12.2652 5.04483 11.9256 4.67904 12.435 2.85008C13.1141 2.48429 15.6609 1.02112 16.8494 1.9356Z" fill="#7D2B03"/>
<path d="M23.131 1.75247C23.131 1.75247 22.6217 3.03276 22.9612 3.58146C21.6029 3.58146 17.6978 3.76436 16.5093 4.13016C16.1697 3.58146 16.6791 1.93537 16.6791 1.93537C16.6791 1.93537 20.2446 -0.442323 23.131 1.75247Z" fill="#923300"/>
<path d="M28.5648 0.473239C28.5648 0.473239 27.2065 1.7536 28.2252 3.58268C27.0367 3.58268 23.8108 3.58268 22.9618 3.58268C22.6223 3.03395 23.1316 0.656146 23.9806 0.107422C25.6784 0.107422 28.5648 0.473239 28.5648 0.473239Z" fill="#AE4003"/>
<path d="M34.5058 2.3018C34.5058 2.3018 34.8454 3.76503 34.6756 4.13084C33.9964 4.13084 30.7705 3.76503 28.3934 3.76503C28.2236 3.21632 27.5445 2.4847 28.2237 1.20437C30.2611 1.02147 33.4871 1.20437 34.5058 2.3018Z" fill="#C45408"/>
<path d="M41.3005 1.93565C41.3005 1.93565 41.4702 4.86221 41.1307 5.41094C40.4515 5.04512 35.8673 4.31348 34.509 4.13057C34.6788 3.76475 34.8485 3.03311 33.4902 0.655273C34.8485 1.02109 40.7911 0.472365 41.3005 1.93565Z" fill="#BF4400"/>
<path d="M44.187 4.31398C44.187 4.31398 44.5266 6.14312 44.0172 6.50895C43.3381 6.14312 41.3006 5.41147 41.1309 5.41147C41.3006 5.04564 41.4704 4.67981 41.4704 3.39941C42.4891 3.58233 44.187 4.31398 44.187 4.31398Z" fill="#A3650E"/>
<path d="M49.2807 6.14207C49.2807 6.14207 45.5454 2.84989 43.6777 2.66699C44.0173 4.13018 44.3569 5.41047 44.0173 6.50787C45.036 7.05656 46.7339 7.97106 47.9224 9.98295C48.262 9.06846 49.2807 6.14207 49.2807 6.14207Z" fill="#A3650E"/>
<path d="M2.24698 12.3613C2.24698 12.3613 -2.50708 22.6041 26.3568 23.5186C31.2806 23.5186 51.3155 23.3357 50.8062 15.2878C51.8249 19.4947 51.1458 21.8724 45.373 24.7989C39.6002 27.5425 7.51037 23.7015 7.51037 23.7015L0.888672 17.8485L2.24698 12.3613Z" fill="#665D5A"/>
<path d="M2.24542 12.3613C2.24542 12.3613 -2.67842 18.0313 2.58499 23.1527C4.96202 25.1646 23.2991 31.7491 43.1642 26.9936C48.2578 26.0791 52.3327 23.5185 50.8046 15.8365C50.1255 18.2143 49.9557 24.433 26.3552 24.2501C9.2067 23.3356 -0.471176 20.4091 2.24542 12.3613Z" fill="#413632"/>
<path d="M2.07898 48.7588C2.07898 48.7588 2.24879 61.1961 24.8305 61.7448C36.0365 62.1106 46.9029 60.2816 50.1288 51.1365C49.2799 55.3432 47.2425 65.7686 23.8118 64.3054C10.059 62.4764 0.550896 58.4526 2.07898 48.7588Z" fill="#665D5A"/>
<path d="M2.07868 48.7588C2.07868 48.7588 -4.03366 64.4884 23.8115 66.1345C39.4319 66.5003 49.789 63.3909 50.1286 50.9536C49.1098 54.0629 48.94 62.6593 25 62.8422C8.36082 62.6593 1.73911 55.892 2.07868 48.7588Z" fill="#413632"/>
<path d="M4.79722 21.5059C4.79722 22.2375 4.28784 22.7861 3.77848 22.7861C3.26911 22.7861 2.75977 22.2375 2.75977 21.5059C2.75977 20.7743 3.26911 20.2256 3.77848 20.2256C4.28784 20.2256 4.79722 20.7743 4.79722 21.5059Z" fill="#665D5A"/>
<path d="M13.4554 24.6169C13.4554 25.3489 12.9461 25.8978 12.4367 25.8978C11.7576 25.8978 11.418 25.3489 11.418 24.6169C11.418 23.885 11.9273 23.3361 12.4367 23.3361C12.9461 23.1531 13.4554 23.885 13.4554 24.6169Z" fill="#665D5A"/>
<path d="M23.6429 26.0796C23.6429 26.8115 23.1336 27.3605 22.6242 27.3605C21.9451 27.3605 21.6055 26.8115 21.6055 26.0796C21.6055 25.3478 22.1148 24.7988 22.6242 24.7988C23.1336 24.7988 23.6429 25.3478 23.6429 26.0796Z" fill="#665D5A"/>
<path d="M26.8678 64.6712C26.8678 65.2202 26.5282 65.7692 26.0189 65.7692C25.5095 65.7692 25.1699 65.2202 25.1699 64.6712C25.1699 64.1222 25.5095 63.5732 26.0189 63.5732C26.5282 63.5732 26.8678 63.9392 26.8678 64.6712Z" fill="#665D5A"/>
<path d="M17.6979 63.756C17.6979 64.3049 17.3583 64.8539 16.8489 64.8539C16.3396 64.8539 16 64.3049 16 63.756C16 63.2071 16.3396 62.6582 16.8489 62.6582C17.3583 62.6582 17.6979 63.2071 17.6979 63.756Z" fill="#665D5A"/>
<path d="M10.3986 61.5619C10.3986 62.1106 10.0592 62.4764 9.71979 62.4764C9.3804 62.4764 9.04102 62.1106 9.04102 61.5619C9.04102 61.0132 9.3804 60.6475 9.71979 60.6475C10.0592 60.6475 10.3986 61.0132 10.3986 61.5619Z" fill="#665D5A"/>
<path d="M5.4728 58.0859C5.4728 58.4517 5.13342 58.8174 4.79403 58.8174C4.45464 58.8174 4.11523 58.4517 4.11523 58.0859C4.11523 57.7202 4.45464 57.3545 4.79403 57.3545C5.13342 57.3545 5.4728 57.7202 5.4728 58.0859Z" fill="#665D5A"/>
<path d="M33.8287 64.1232C33.8287 64.6721 33.4892 65.221 32.9798 65.221C32.4704 65.221 32.1309 64.6721 32.1309 64.1232C32.1309 63.5743 32.4704 63.0254 32.9798 63.0254C33.4892 63.2084 33.8287 63.5743 33.8287 64.1232Z" fill="#665D5A"/>
<path d="M40.9615 62.8421C40.9615 63.3911 40.622 63.9401 40.1126 63.9401C39.6032 63.9401 39.2637 63.3911 39.2637 62.8421C39.2637 62.2931 39.6032 61.7441 40.1126 61.7441C40.622 61.7441 40.9615 62.2931 40.9615 62.8421Z" fill="#665D5A"/>
<path d="M46.2228 60.0974C46.2228 60.4632 45.8834 60.8289 45.544 60.8289C45.2046 60.8289 44.8652 60.4632 44.8652 60.0974C44.8652 59.7317 45.2046 59.3659 45.544 59.3659C45.8834 59.1831 46.2228 59.5488 46.2228 60.0974Z" fill="#665D5A"/>
<path d="M33.6605 26.0796C33.6605 26.8115 33.1511 27.3605 32.6418 27.3605C31.9626 27.3605 31.623 26.8115 31.623 26.0796C31.623 25.3478 32.1324 24.7988 32.6418 24.7988C33.1511 24.7988 33.6605 25.3478 33.6605 26.0796Z" fill="#665D5A"/>
<path d="M42.6555 26.2628C43.2181 26.2628 43.6742 25.6894 43.6742 24.982C43.6742 24.2746 43.2181 23.7012 42.6555 23.7012C42.0928 23.7012 41.6367 24.2746 41.6367 24.982C41.6367 25.6894 42.0928 26.2628 42.6555 26.2628Z" fill="#665D5A"/>
<path d="M48.6009 23.1539C49.0697 23.1539 49.4498 22.6624 49.4498 22.056C49.4498 21.4496 49.0697 20.958 48.6009 20.958C48.132 20.958 47.752 21.4496 47.752 22.056C47.752 22.6624 48.132 23.1539 48.6009 23.1539Z" fill="#665D5A"/>
<path d="M14.4707 12.7268L30.0912 3.76465L35.1848 4.13045L20.9226 13.8242L14.4707 12.7268Z" fill="#AE4003"/>
<path d="M5.3046 8.887C5.3046 8.887 2.7578 5.41189 7.00247 3.03418C7.17226 3.03418 7.34204 3.03418 7.34204 3.03418C7.34204 3.03418 3.43695 4.68029 5.3046 8.887Z" fill="#FAAE56"/>
<path d="M10.9059 12.179C10.9059 12.179 6.49138 11.8132 5.47266 8.88672C5.64244 8.88672 5.64245 8.88672 5.64245 8.88672C5.64245 8.88672 6.66117 11.4474 10.9059 12.179Z" fill="#FAAE56"/>
<path d="M12.0957 11.0811C12.0957 11.0811 12.0957 12.1789 14.6425 12.7278C17.1893 13.2768 20.9247 13.8257 20.9247 13.8257V13.6427C20.9247 13.6427 13.7936 12.5449 13.2842 11.9959C12.6051 11.63 12.4353 11.0811 12.4353 11.0811H12.0957Z" fill="#FAAE56"/>
<path d="M31.4527 13.8245C31.4527 13.8245 26.8685 14.7389 23.6425 14.3731C21.4353 14.1902 21.0957 14.0073 21.0957 14.0073L21.2655 13.8245C21.0957 13.8245 25.68 14.9218 31.4527 13.8245C31.4527 13.6416 31.4527 13.8245 31.4527 13.8245Z" fill="#FAAE56"/>
<path d="M39.0937 12.7275C39.0937 12.7275 32.9813 14.5574 31.623 13.8254C31.7928 13.6425 31.7928 13.6425 31.7928 13.6425C31.7928 13.6425 32.8116 14.3744 39.0937 12.7275Z" fill="#FAAE56"/>
<path d="M39.0938 12.7276C39.0938 12.7276 43.8478 12.3617 45.5457 11.8128C45.3759 11.6299 45.3759 11.6299 45.3759 11.6299C45.3759 11.6299 39.2635 12.7276 39.0938 12.7276Z" fill="#FAAE56"/>
<path d="M47.92 9.98438C47.92 9.98438 46.5617 11.6313 45.7127 11.8143C45.543 11.6313 45.543 11.6313 45.543 11.6313C45.543 11.6313 46.3919 11.8143 47.92 9.98438C47.7502 9.98438 47.92 9.98438 47.92 9.98438Z" fill="#FAAE56"/>
<path d="M47.9199 9.98268C47.9199 9.98268 49.6178 6.14188 49.6178 5.95898C49.448 5.95898 49.448 5.95898 49.448 5.95898L47.9199 9.98268Z" fill="#FAAE56"/>
<path d="M43.6777 2.66699H44.0173C44.0173 2.66699 47.4131 3.76439 49.4505 6.32497C49.2807 6.32497 49.2807 6.32497 49.2807 6.32497C49.2807 6.32497 46.2245 3.39859 43.6777 2.66699Z" fill="#FAAE56"/>
<path d="M41.2988 3.39941C41.2988 3.39941 42.4873 3.58241 44.0154 4.13139C44.0154 3.94839 44.0154 3.94839 44.0154 3.94839C44.0154 3.94839 41.6384 3.39941 41.2988 3.39941Z" fill="#FAAE56"/>
<path d="M33.6602 0.655172C33.6602 0.655172 35.5278 0.838138 36.7163 0.838138C37.9049 0.838138 40.2819 1.0211 41.3006 1.93593C41.1308 1.57 39.9423 0.472207 33.6602 0.655172Z" fill="#FAAE56"/>
<path d="M28.0547 1.20442C28.0547 1.20442 32.1296 0.838452 34.167 2.11933C33.9973 1.75336 33.9972 1.75336 33.9972 1.75336C33.9972 1.75336 30.2619 0.472491 28.0547 1.20442Z" fill="#FAAE56"/>
<path d="M23.9805 0.107489C23.9805 0.107489 25.8481 0.10749 28.5647 0.473462C28.5647 0.290476 24.6596 -0.0754975 23.9805 0.107489Z" fill="#FAAE56"/>
<path d="M16.8477 1.93616C16.8477 1.93616 20.2434 -0.259514 23.1298 1.75319C22.96 1.38724 20.0736 -0.442486 16.8477 1.93616Z" fill="#FAAE56"/>
<path d="M12.4355 2.66866C12.4355 2.66866 15.6615 1.20449 16.85 1.75355C16.1709 1.38751 13.6241 1.75355 12.4355 2.66866Z" fill="#FAAE56"/>
<path d="M7.17188 3.94917C7.17188 3.94917 7.34166 4.13212 9.71869 3.21737C10.7374 2.85146 12.0957 2.30261 12.2655 2.48556C12.0957 2.30261 7.17188 3.94917 7.17188 3.94917Z" fill="#FAAE56"/>
<path d="M31.2593 50.1218C31.2593 50.1218 30.0767 47.2098 25.6841 44.6619C24.7549 41.386 24.1636 37.1091 15.125 34.0152C16.8145 33.1962 24.3326 31.1033 29.6544 43.5699C31.5972 45.5719 33.5401 47.4828 33.5401 47.4828L31.4283 47.3918L31.2593 50.1218Z" fill="#F8FFF7"/>
<path d="M31.2569 49.029C31.2569 49.029 29.0606 45.3891 26.1885 44.1151C25.6817 42.2042 24.0767 35.8343 16.5586 34.1964C19.1773 34.0144 25.0904 34.7423 28.4693 43.6601C29.9054 45.1161 32.3551 47.482 32.3551 47.482L31.3414 47.391L31.2569 49.029Z" fill="#ACA7AE"/>
<path d="M26.8633 49.0289C26.8633 49.0289 28.4683 50.9398 31.2559 50.1209C31.3404 49.0289 31.3404 47.3909 31.3404 47.3909H34.128C34.128 47.3909 34.6348 44.752 33.4522 43.387C34.8038 43.1141 36.6622 45.207 36.0709 48.9379C34.2969 48.9379 34.2969 48.9379 34.2969 48.9379L34.5503 50.8488L32.354 50.7578V52.6688C32.354 52.7598 27.7925 53.7607 26.8633 49.0289Z" fill="#9F5500"/>
<path d="M32.3574 50.8493L36.1587 54.7624C36.1587 54.7624 38.0171 54.8534 37.8482 52.8513C35.7363 50.4853 34.3003 49.0293 34.3003 49.0293L34.5537 50.9403L32.3574 50.8493Z" fill="#BA7412"/>
<path d="M36.1582 54.6701C36.1582 54.6701 37.1713 54.0331 37.7623 53.0322C37.7623 53.4872 37.7623 54.5791 36.1582 54.6701Z" fill="#9F5500"/>
<path d="M31.6802 47.9365L31.5957 50.3025L34.1299 50.5755L33.792 47.9365H31.6802Z" fill="#BA7412"/>
<path d="M34.2148 43.9326C34.2148 43.9326 36.4956 45.2976 35.6509 48.6644C34.8062 48.6644 34.3838 48.5734 34.3838 48.5734C34.3838 48.5734 35.9888 47.0265 34.2148 43.9326Z" fill="#BA7412"/>
<path d="M27.625 50.0293C27.625 50.0293 28.7231 52.5773 31.8487 51.9403C31.8487 51.0303 31.8487 50.5753 31.8487 50.5753C31.8487 50.5753 30.3281 52.2133 27.625 50.0293Z" fill="#BA7412"/>
<path d="M21.2066 49.9391C21.2066 49.9391 22.3892 47.0272 26.7818 44.4793C27.711 41.2034 28.3023 36.9265 37.3409 33.8326C35.6514 33.0136 28.1333 30.9207 22.8115 43.3873C20.8687 45.3893 18.9258 47.3002 18.9258 47.3002L21.0376 47.2092L21.2066 49.9391Z" fill="#F8FFF7"/>
<path d="M21.2075 48.8464C21.2075 48.8464 23.4038 45.2065 26.2759 43.9325C26.7828 42.0216 28.3877 35.6517 35.9059 34.0137C33.2872 33.8317 27.3741 34.5597 23.9951 43.4775C22.5591 44.9335 20.1094 47.2994 20.1094 47.2994L21.1231 47.2084L21.2075 48.8464Z" fill="#ACA7AE"/>
<path d="M25.6838 48.8482C25.6838 48.8482 24.0788 50.7592 21.2912 49.9402C21.2067 48.8482 21.2067 47.2103 21.2067 47.2103H18.4191C18.4191 47.2103 17.9122 44.5714 19.0949 43.2064C17.7433 42.9334 15.8849 45.0263 16.4762 48.7572C18.2501 48.7572 18.2501 48.7572 18.2501 48.7572L17.9967 50.6682L20.193 50.5772V52.4882C20.1085 52.6702 24.6701 53.5801 25.6838 48.8482Z" fill="#9F5500"/>
<path d="M20.1071 50.6667L16.3058 54.5797C16.3058 54.5797 14.4474 54.6707 14.6163 52.6687C16.7282 50.3027 18.1642 48.8467 18.1642 48.8467L17.9108 50.7577L20.1071 50.6667Z" fill="#BA7412"/>
<path d="M16.3033 54.4884C16.3033 54.4884 15.2902 53.8515 14.6992 52.8506C14.7836 53.3055 14.7836 54.3974 16.3033 54.4884Z" fill="#9F5500"/>
<path d="M20.7837 47.7549L20.8682 50.2118L18.334 50.3938L18.7563 47.7549H20.7837Z" fill="#BA7412"/>
<path d="M18.2487 43.751C18.2487 43.751 15.9679 45.1159 16.8127 48.4828C17.6574 48.4828 18.0798 48.3918 18.0798 48.3918C18.0798 48.3918 16.4748 46.8449 18.2487 43.751Z" fill="#BA7412"/>
<path d="M24.8389 49.8477C24.8389 49.8477 23.7407 52.3965 20.6152 51.7593C20.6152 50.849 20.6152 50.3938 20.6152 50.3938C20.6152 50.3938 22.1357 52.0323 24.8389 49.8477Z" fill="#BA7412"/>
</svg>
