<svg width="83" height="83" viewBox="0 0 83 83" fill="none" xmlns="http://www.w3.org/2000/svg">
<path d="M16.4092 14.02L14.9277 15.5117L17.9685 18.5737L19.45 17.082L16.4092 14.02Z" fill="#8E5749"/>
<path d="M19.9287 19.301C20.7038 18.5208 20.9132 17.4666 20.3965 16.9465C19.8798 16.4264 18.8327 16.6372 18.0576 17.4174C17.2826 18.1976 17.0732 19.2517 17.5899 19.7719C18.1065 20.292 19.1537 20.0812 19.9287 19.301Z" fill="#9F6551"/>
<path d="M21.6678 20.7683C22.7011 19.7279 22.9454 18.2871 22.2135 17.5501C21.4816 16.8131 20.0507 17.0591 19.0174 18.0995C17.9841 19.14 17.7398 20.5808 18.4717 21.3178C19.2036 22.0548 20.6346 21.8088 21.6678 20.7683Z" fill="#8E5749"/>
<path d="M22.6588 21.7383C23.9075 20.4813 24.2217 18.7595 23.3605 17.8926C22.4993 17.0257 20.7889 17.342 19.5403 18.599C18.2916 19.856 17.9774 21.5778 18.8386 22.4447C19.6997 23.3116 21.4101 22.9953 22.6588 21.7383Z" fill="#9F6551"/>
<path d="M16.1825 15.396C17.216 14.3559 17.216 12.6695 16.1825 11.6294C15.1489 10.5893 13.4733 10.5893 12.4397 11.6294C11.4062 12.6695 11.4062 14.3559 12.4397 15.396C13.4733 16.4361 15.1489 16.4361 16.1825 15.396Z" fill="#9F6551"/>
<path d="M14.9241 11.3825C15.2547 11.7155 15.2547 12.2704 14.9241 12.4924C14.5935 12.7143 14.0425 12.8253 13.8222 12.4924C13.4916 12.1594 13.4916 11.6045 13.8222 11.3825C14.0425 11.0496 14.5935 11.0496 14.9241 11.3825Z" fill="#AF7566"/>
<path d="M4.66185 39.3821L4.60938 41.4912L8.90797 41.5992L8.96044 39.49L4.66185 39.3821Z" fill="#8E5749"/>
<path d="M10.8902 40.8034C10.9176 39.7002 10.3477 38.791 9.61722 38.7726C8.88674 38.7543 8.27236 39.6337 8.24494 40.7369C8.21753 41.8401 8.78748 42.7493 9.51795 42.7677C10.2484 42.786 10.8628 41.9066 10.8902 40.8034Z" fill="#9F6551"/>
<path d="M13.1241 40.7027C13.1606 39.232 12.3513 38.0186 11.3165 37.9925C10.2816 37.9665 9.41314 39.1377 9.37664 40.6084C9.34014 42.0792 10.1494 43.2926 11.1843 43.3186C12.2191 43.3447 13.0876 42.1735 13.1241 40.7027Z" fill="#8E5749"/>
<path d="M12.3856 37.3555C13.5984 37.3555 14.5907 38.7985 14.5907 40.5745C14.5907 42.3505 13.4882 43.7935 12.2754 43.6825C11.0626 43.6825 10.0703 42.2395 10.0703 40.4635C10.0703 38.6875 11.1728 37.3555 12.3856 37.3555Z" fill="#9F6551"/>
<path d="M5.45433 40.4591C5.49084 38.9882 4.33611 37.766 2.87516 37.7293C1.4142 37.6925 0.200277 38.8551 0.163766 40.326C0.127255 41.7969 1.28198 43.0191 2.74294 43.0558C4.20389 43.0926 5.41781 41.93 5.45433 40.4591Z" fill="#9F6551"/>
<path d="M1.8002 38.4639C2.24098 38.4639 2.57156 38.9078 2.57156 39.3517C2.57156 39.7957 2.24098 40.1286 1.8002 40.1286C1.35943 40.1286 1.02884 39.6847 1.02884 39.2407C0.918651 38.7968 1.35943 38.4639 1.8002 38.4639Z" fill="#AF7566"/>
<path d="M14.393 65.3056L15.668 66.9795L19.0819 64.3468L17.8069 62.6728L14.393 65.3056Z" fill="#8E5749"/>
<path d="M17.7912 61.6637C18.3425 61.2197 19.445 61.5527 20.1066 62.3297C20.7681 63.2178 20.7681 64.2168 20.2168 64.7718C19.6655 65.2158 18.563 64.8828 17.9015 64.1058C17.24 63.2177 17.24 62.1077 17.7912 61.6637Z" fill="#9F6551"/>
<path d="M21.8305 64.1978C22.6521 63.5639 22.5975 62.1036 21.7084 60.936C20.8193 59.7684 19.4325 59.3357 18.6108 59.9696C17.7891 60.6034 17.8438 62.0637 18.7329 63.2313C19.622 64.3989 21.0088 64.8316 21.8305 64.1978Z" fill="#8E5749"/>
<path d="M19.1157 58.7776C20.108 58.0006 21.7618 58.5556 22.8644 59.9986C23.9669 61.4415 23.9669 63.1064 23.0849 63.8834C22.0926 64.6603 20.4388 64.1053 19.3362 62.6624C18.2337 61.2195 18.1235 59.5546 19.1157 58.7776Z" fill="#9F6551"/>
<path d="M15.0628 69.3539C16.223 68.4593 16.4429 66.7876 15.5538 65.62C14.6647 64.4523 13.0033 64.2309 11.843 65.1254C10.6828 66.02 10.4629 67.6917 11.352 68.8593C12.2412 70.027 13.9025 70.2484 15.0628 69.3539Z" fill="#9F6551"/>
<path d="M11.5071 66.4369C11.8376 66.215 12.3886 66.215 12.609 66.5479C12.9396 66.8809 12.8294 67.4358 12.4988 67.6578C12.1682 67.8797 11.6173 67.8797 11.3969 67.5468C11.0663 67.2138 11.1765 66.6589 11.5071 66.4369Z" fill="#AF7566"/>
<path d="M63.6824 17.97L65.1641 19.4614L68.2054 16.4001L66.7237 14.9087L63.6824 17.97Z" fill="#8E5749"/>
<path d="M65.5732 20.6491C66.0901 20.1289 65.8806 19.0745 65.1053 18.2941C64.3301 17.5138 63.2827 17.3029 62.7659 17.8231C62.249 18.3434 62.4585 19.3977 63.2338 20.1781C64.009 20.9585 65.0564 21.1694 65.5732 20.6491Z" fill="#9F6551"/>
<path d="M64.762 22.2365C65.4938 21.4996 65.2495 20.0587 64.2163 19.0183C63.1831 17.9779 61.7523 17.7319 61.0204 18.4688C60.2886 19.2058 60.5329 20.6466 61.5661 21.6871C62.5993 22.7275 64.0301 22.9735 64.762 22.2365Z" fill="#8E5749"/>
<path d="M64.2398 23.334C65.101 22.4673 64.7869 20.7457 63.5381 19.4888C62.2893 18.232 60.5788 17.9158 59.7176 18.7826C58.8564 19.6494 59.1705 21.3709 60.4193 22.6278C61.6681 23.8846 63.3786 24.2008 64.2398 23.334Z" fill="#9F6551"/>
<path d="M70.721 16.2463C71.7544 15.2061 71.7544 13.5195 70.721 12.4792C69.6875 11.439 68.012 11.439 66.9786 12.4792C65.9452 13.5195 65.9452 15.2061 66.9786 16.2463C68.012 17.2866 69.6875 17.2866 70.721 16.2463Z" fill="#9F6551"/>
<path d="M68.2792 12.2727C67.9486 12.6057 67.9486 13.1606 68.2792 13.3826C68.6098 13.7156 69.1607 13.7156 69.3811 13.3826C69.7117 13.0496 69.7117 12.4947 69.3811 12.2727C69.0505 11.9397 68.4996 11.9397 68.2792 12.2727Z" fill="#AF7566"/>
<path d="M40.7982 9.34688L42.8926 9.39062L42.9816 5.06269L40.8872 5.01894L40.7982 9.34688Z" fill="#8E5749"/>
<path d="M40.0645 9.93892C40.0645 10.716 40.9465 11.382 41.9388 11.382C43.0413 11.382 43.9233 10.827 43.9233 10.0499C43.9233 9.2729 43.0413 8.60687 42.049 8.60687C40.9465 8.49587 40.0645 9.16189 40.0645 9.93892Z" fill="#9F6551"/>
<path d="M44.4529 11.6205C44.4744 10.5786 43.3073 9.70926 41.8462 9.67874C40.3851 9.64821 39.1833 10.4681 39.1619 11.51C39.1404 12.5519 40.3075 13.4212 41.7686 13.4518C43.2297 13.4823 44.4315 12.6624 44.4529 11.6205Z" fill="#8E5749"/>
<path d="M44.8883 12.7295C44.9135 11.5038 43.5028 10.4802 41.7373 10.4433C39.9718 10.4065 38.5201 11.3703 38.4949 12.596C38.4697 13.8218 39.8804 14.8453 41.6459 14.8822C43.4114 14.919 44.8631 13.9553 44.8883 12.7295Z" fill="#9F6551"/>
<path d="M44.5706 3.19522C44.601 1.72425 43.4411 0.507046 41.98 0.476507C40.5189 0.445968 39.3099 1.61366 39.2795 3.08463C39.2492 4.55559 40.4091 5.7728 41.8702 5.80334C43.3313 5.83388 44.5403 4.66618 44.5706 3.19522Z" fill="#9F6551"/>
<path d="M41.7498 2.02911C41.7587 1.60018 41.4205 1.24523 40.9946 1.23631C40.5687 1.22738 40.2163 1.56786 40.2074 1.99679C40.1986 2.42572 40.5367 2.78067 40.9626 2.7896C41.3885 2.79852 41.741 2.45804 41.7498 2.02911Z" fill="#AF7566"/>
<path d="M38.4383 77.5529L40.5312 77.6445L40.7186 73.32L38.6257 73.2283L38.4383 77.5529Z" fill="#8E5749"/>
<path d="M37.9668 72.6543C37.9668 71.8773 38.8488 71.3223 39.9514 71.3223C41.0539 71.3223 41.8257 71.9883 41.8257 72.7653C41.8257 73.5423 40.9436 74.0973 39.8411 74.0973C38.7386 73.9863 37.9668 73.4313 37.9668 72.6543Z" fill="#9F6551"/>
<path d="M42.4316 71.1276C42.4767 70.0864 41.3297 69.1905 39.8696 69.1265C38.4095 69.0626 37.1893 69.8548 37.1442 70.896C37.0991 71.9372 38.2461 72.8331 39.7062 72.897C41.1663 72.961 42.3865 72.1688 42.4316 71.1276Z" fill="#8E5749"/>
<path d="M42.936 70.1004C42.989 68.8754 41.6018 67.8195 39.8375 67.7421C38.0733 67.6647 36.6001 68.595 36.5471 69.82C36.4941 71.045 37.8814 72.1008 39.6456 72.1783C41.4099 72.2557 42.8831 71.3254 42.936 70.1004Z" fill="#9F6551"/>
<path d="M42.1272 79.6834C42.1909 78.2135 41.0588 76.97 39.5987 76.906C38.1387 76.842 36.9034 77.9818 36.8398 79.4517C36.7762 80.9217 37.9083 82.1652 39.3683 82.2291C40.8284 82.2931 42.0636 81.1534 42.1272 79.6834Z" fill="#9F6551"/>
<path d="M37.5234 80.5337C37.5234 80.0898 37.9642 79.7568 38.405 79.7568C38.8458 79.7568 39.1763 80.2008 39.1763 80.6447C39.1763 81.0886 38.7356 81.4216 38.2948 81.4216C37.854 81.3106 37.5234 80.9777 37.5234 80.5337Z" fill="#AF7566"/>
<path d="M73.0394 39.9244L73.0918 42.0322L77.3904 41.9241L77.338 39.8163L73.0394 39.9244Z" fill="#8E5749"/>
<path d="M72.6367 43.1301C73.3672 43.1117 73.9371 42.2026 73.9097 41.0996C73.8823 39.9966 73.268 39.1173 72.5375 39.1357C71.807 39.1541 71.2371 40.0631 71.2645 41.1661C71.2919 42.2692 71.9062 43.1484 72.6367 43.1301Z" fill="#9F6551"/>
<path d="M70.8925 43.6881C71.9274 43.662 72.7367 42.4486 72.7002 40.9778C72.6638 39.507 71.7953 38.3359 70.7605 38.362C69.7256 38.388 68.9163 39.6015 68.9528 41.0722C68.9892 42.543 69.8577 43.7141 70.8925 43.6881Z" fill="#8E5749"/>
<path d="M69.8036 44.2448C71.0211 44.2142 71.9722 42.7485 71.9281 40.9713C71.884 39.194 70.8613 37.7781 69.6439 37.8087C68.4264 37.8394 67.4752 39.305 67.5193 41.0823C67.5634 42.8596 68.5861 44.2755 69.8036 44.2448Z" fill="#9F6551"/>
<path d="M79.3789 43.4649C80.8399 43.4282 81.9946 42.2062 81.9582 40.7353C81.9217 39.2645 80.7078 38.1019 79.2469 38.1386C77.7859 38.1753 76.6311 39.3974 76.6676 40.8682C76.7041 42.3391 77.9179 43.5016 79.3789 43.4649Z" fill="#9F6551"/>
<path d="M80.3046 38.9121C79.8638 38.9121 79.5332 39.3561 79.5332 39.8001C79.5332 40.2441 79.8638 40.5771 80.3046 40.5771C80.7453 40.5771 81.0759 40.1331 81.0759 39.6891C81.0759 39.2451 80.7453 38.9121 80.3046 38.9121Z" fill="#AF7566"/>
<path d="M64.267 63.0416L62.9922 64.7158L66.4059 67.3492L67.6807 65.675L64.267 63.0416Z" fill="#8E5749"/>
<path d="M64.3184 62.1071C63.7671 61.6631 62.6646 61.9961 62.003 62.773C61.3415 63.661 61.3415 64.6599 61.8928 65.2148C62.4441 65.7698 63.5466 65.3259 64.2081 64.5489C64.8696 63.661 64.8696 62.551 64.3184 62.1071Z" fill="#9F6551"/>
<path d="M63.5466 60.3308C62.6645 59.6648 61.3415 60.1088 60.4595 61.3298C59.5774 62.5508 59.4672 63.9938 60.3492 64.6598C61.2312 65.3258 62.5543 64.8818 63.4363 63.6608C64.3183 62.4398 64.3183 60.9968 63.5466 60.3308Z" fill="#8E5749"/>
<path d="M62.8637 63.0794C63.938 61.6685 64.0253 59.9203 63.0586 59.1746C62.092 58.4289 60.4374 58.9681 59.3631 60.379C58.2889 61.7899 58.2016 63.5381 59.1683 64.2838C60.1349 65.0295 61.7894 64.4902 62.8637 63.0794Z" fill="#9F6551"/>
<path d="M70.6901 69.2519C71.5789 68.0841 71.3592 66.4117 70.1994 65.5166C69.0396 64.6215 67.379 64.8426 66.4902 66.0104C65.6014 67.1783 65.821 68.8506 66.9808 69.7458C68.1406 70.6409 69.8013 70.4198 70.6901 69.2519Z" fill="#9F6551"/>
<path d="M70.6279 67.9339C70.8873 67.5935 70.8234 67.106 70.4851 66.8451C70.1469 66.5841 69.6625 66.6486 69.4032 66.989C69.1438 67.3295 69.2078 67.817 69.546 68.0779C69.8842 68.3388 70.3686 68.2744 70.6279 67.9339Z" fill="#AF7566"/>
<path d="M55.1937 28.8858L53.4785 27.1592L46.8516 33.8301L48.5668 35.5566L55.1937 28.8858Z" fill="#8E5749"/>
<path d="M48.517 37.3C49.3351 36.4764 49.2304 35.0358 48.2831 34.0822C47.3359 33.1286 45.9048 33.0232 45.0867 33.8467C44.2686 34.6703 44.3734 36.1109 45.3206 37.0645C46.2679 38.0181 47.6989 38.1235 48.517 37.3Z" fill="#9F6551"/>
<path d="M55.9742 30.215C56.7923 29.3914 56.6876 27.9508 55.7403 26.9972C54.793 26.0436 53.3619 25.9382 52.5438 26.7618C51.7257 27.5853 51.8304 29.026 52.7777 29.9795C53.725 30.9331 55.1561 31.0385 55.9742 30.215Z" fill="#9F6551"/>
<path d="M57.1695 28.9777C57.9876 28.1541 57.8829 26.7135 56.9356 25.7599C55.9884 24.8063 54.5572 24.7009 53.7391 25.5245C52.921 26.348 53.0257 27.7887 53.973 28.7422C54.9203 29.6958 56.3514 29.8012 57.1695 28.9777Z" fill="#8E5749"/>
<path d="M47.6096 38.1081C48.3416 37.3713 48.1671 36.001 47.2197 35.0475C46.2724 34.094 44.911 33.9184 44.179 34.6552C43.4469 35.392 43.6215 36.7622 44.5688 37.7157C45.5161 38.6692 46.8775 38.8449 47.6096 38.1081Z" fill="#8E5749"/>
<path d="M35.4513 47.2629L33.7363 45.5361L27.1102 52.2078L28.8252 53.9346L35.4513 47.2629Z" fill="#8E5749"/>
<path d="M28.7553 55.673C29.5733 54.8494 29.4686 53.4088 28.5214 52.4552C27.5742 51.5016 26.1431 51.3962 25.325 52.2198C24.5069 53.0433 24.6117 54.484 25.5589 55.4376C26.5061 56.3911 27.9372 56.4965 28.7553 55.673Z" fill="#9F6551"/>
<path d="M36.2865 48.6613C37.1046 47.8377 36.9999 46.3971 36.0526 45.4435C35.1054 44.4899 33.6743 44.3845 32.8563 45.2081C32.0382 46.0316 32.1429 47.4722 33.0901 48.4258C34.0374 49.3794 35.4684 49.4848 36.2865 48.6613Z" fill="#9F6551"/>
<path d="M37.4808 47.4276C38.299 46.6042 38.1943 45.1637 37.2469 44.2103C36.2995 43.2569 34.8681 43.1515 34.0499 43.9749C33.2317 44.7983 33.3364 46.2387 34.2838 47.1922C35.2312 48.1456 36.6626 48.251 37.4808 47.4276Z" fill="#8E5749"/>
<path d="M27.9994 56.4805C28.7313 55.7436 28.5568 54.3731 27.6096 53.4195C26.6624 52.4658 25.3013 52.2901 24.5694 53.027C23.8375 53.7639 24.012 55.1344 24.9591 56.0881C25.9063 57.0417 27.2675 57.2174 27.9994 56.4805Z" fill="#8E5749"/>
<path d="M59.4139 42.0934L59.4023 39.6504L50.0308 39.6955L50.0424 42.1386L59.4139 42.0934Z" fill="#8E5749"/>
<path d="M48.8992 43.3558C50.0562 43.3503 50.9889 42.2526 50.9825 40.904C50.9761 39.5555 50.033 38.4668 48.8761 38.4724C47.7191 38.4779 46.7864 39.5756 46.7928 40.9242C46.7992 42.2727 47.7423 43.3614 48.8992 43.3558Z" fill="#9F6551"/>
<path d="M59.1512 43.6891C60.3081 43.6835 61.2408 42.5857 61.2344 41.2371C61.228 39.8885 60.2849 38.7998 59.128 38.8053C57.9711 38.8109 57.0384 39.9087 57.0448 41.2573C57.0512 42.6059 57.9942 43.6946 59.1512 43.6891Z" fill="#9F6551"/>
<path d="M60.8035 43.6891C61.9604 43.6835 62.8931 42.5857 62.8867 41.2371C62.8803 39.8885 61.9373 38.7998 60.7804 38.8053C59.6234 38.8109 58.6907 39.9087 58.6971 41.2573C58.7035 42.6059 59.6466 43.6946 60.8035 43.6891Z" fill="#8E5749"/>
<path d="M47.6846 43.354C48.7198 43.349 49.5537 42.2518 49.5473 40.9032C49.5409 39.5547 48.6966 38.4655 47.6614 38.4705C46.6263 38.4755 45.7923 39.5727 45.7987 40.9213C45.8051 42.2698 46.6495 43.359 47.6846 43.354Z" fill="#8E5749"/>
<path d="M32.5604 41.7934L32.5488 39.3506L23.1773 39.3957L23.1889 41.8385L32.5604 41.7934Z" fill="#8E5749"/>
<path d="M22.0008 43.0238C23.1577 43.0182 24.0904 41.9205 24.084 40.572C24.0776 39.2235 23.1346 38.1348 21.9776 38.1403C20.8207 38.1459 19.888 39.2436 19.8944 40.5921C19.9008 41.9407 20.8439 43.0294 22.0008 43.0238Z" fill="#9F6551"/>
<path d="M32.2527 43.2467C33.4097 43.2411 34.3424 42.1433 34.336 40.7947C34.3296 39.4461 33.3865 38.3574 32.2296 38.363C31.0726 38.3685 30.1399 39.4663 30.1463 40.8149C30.1527 42.1635 31.0958 43.2522 32.2527 43.2467Z" fill="#9F6551"/>
<path d="M33.9051 43.2467C35.062 43.2411 35.9947 42.1433 35.9883 40.7947C35.9819 39.4461 35.0389 38.3574 33.8819 38.363C32.725 38.3685 31.7923 39.4663 31.7987 40.8149C31.8051 42.1635 32.7481 43.2522 33.9051 43.2467Z" fill="#8E5749"/>
<path d="M20.7861 43.024C21.8213 43.019 22.6553 41.9218 22.6489 40.5732C22.6425 39.2246 21.7981 38.1354 20.763 38.1404C19.7278 38.1454 18.8939 39.2427 18.9002 40.5912C18.9066 41.9398 19.751 43.029 20.7861 43.024Z" fill="#8E5749"/>
<path d="M52.5832 55.1702L54.3652 53.5137L48.0076 46.5823L46.2256 48.2388L52.5832 55.1702Z" fill="#8E5749"/>
<path d="M47.6817 48.0322C48.6659 47.1173 48.8274 45.6822 48.0423 44.8267C47.2572 43.9712 45.8229 44.0194 44.8387 44.9343C43.8545 45.8491 43.6931 47.2843 44.4782 48.1398C45.2633 48.9953 46.6976 48.9471 47.6817 48.0322Z" fill="#9F6551"/>
<path d="M54.3429 55.8031C55.327 54.8882 55.4885 53.453 54.7037 52.5975C53.9188 51.7419 52.4847 51.79 51.5006 52.7049C50.5165 53.6197 50.355 55.0549 51.1399 55.9104C51.9248 56.766 53.3588 56.7179 54.3429 55.8031Z" fill="#9F6551"/>
<path d="M55.5931 57.0638C56.5772 56.149 56.7387 54.7138 55.9538 53.8582C55.1689 53.0027 53.7348 53.0508 52.7507 53.9656C51.7665 54.8804 51.605 56.3156 52.39 57.1712C53.1749 58.0267 54.609 57.9787 55.5931 57.0638Z" fill="#8E5749"/>
<path d="M46.7448 47.0018C47.729 46.0869 47.9576 44.7245 47.2554 43.9588C46.5531 43.1932 45.1861 43.3142 44.2019 44.2291C43.2177 45.144 42.9892 46.5064 43.6914 47.2721C44.3936 48.0378 45.7607 47.9167 46.7448 47.0018Z" fill="#8E5749"/>
<path d="M34.302 35.977L36.084 34.3203L29.7268 27.3882L27.9449 29.0449L34.302 35.977Z" fill="#8E5749"/>
<path d="M29.4566 28.7678C30.4407 27.8527 30.6021 26.4173 29.8171 25.5617C29.0321 24.7061 27.598 24.7543 26.6139 25.6693C25.6298 26.5844 25.4684 28.0198 26.2534 28.8754C27.0384 29.731 28.4725 29.6828 29.4566 28.7678Z" fill="#9F6551"/>
<path d="M36.14 36.6857C37.1241 35.7707 37.2855 34.3353 36.5005 33.4797C35.7155 32.6241 34.2815 32.6723 33.2974 33.5873C32.3134 34.5024 32.152 35.9377 32.9369 36.7933C33.7219 37.649 35.156 37.6008 36.14 36.6857Z" fill="#9F6551"/>
<path d="M37.3152 37.8675C38.2992 36.9523 38.4606 35.5167 37.6757 34.661C36.8909 33.8053 35.457 33.8535 34.473 34.7687C33.4891 35.6839 33.3277 37.1195 34.1125 37.9752C34.8974 38.831 36.3313 38.7827 37.3152 37.8675Z" fill="#8E5749"/>
<path d="M28.4337 27.7817C29.4177 26.8667 29.6461 25.5044 28.944 24.7388C28.2418 23.9732 26.875 24.0943 25.891 25.0093C24.907 25.9243 24.6786 27.2867 25.3807 28.0522C26.0829 28.8178 27.4497 28.6967 28.4337 27.7817Z" fill="#8E5749"/>
<path d="M39.4555 58.8629L41.8809 58.8945L42.0023 49.4609L39.577 49.4293L39.4555 58.8629Z" fill="#8E5749"/>
<path d="M43.2509 48.2084C43.2659 47.0437 42.1922 46.0854 40.8527 46.0679C39.5132 46.0504 38.4152 46.9803 38.4002 48.145C38.3852 49.3097 39.4589 50.2681 40.7984 50.2856C42.1378 50.3031 43.2359 49.3731 43.2509 48.2084Z" fill="#9F6551"/>
<path d="M42.7841 58.5913C42.799 57.4267 41.7253 56.4684 40.3859 56.451C39.0464 56.4335 37.9484 57.3634 37.9334 58.528C37.9184 59.6926 38.9921 60.6509 40.3316 60.6683C41.671 60.6858 42.7691 59.7559 42.7841 58.5913Z" fill="#9F6551"/>
<path d="M42.7294 60.269C42.7444 59.1044 41.6707 58.1462 40.3312 58.1287C38.9917 58.1113 37.8937 59.0412 37.8787 60.2058C37.8637 61.3704 38.9374 62.3286 40.2769 62.3461C41.6163 62.3635 42.7144 61.4336 42.7294 60.269Z" fill="#8E5749"/>
<path d="M43.2734 47.0582C43.2868 46.0162 42.2118 45.1572 40.8723 45.1398C39.5328 45.1223 38.4361 45.9529 38.4227 46.995C38.4093 48.0371 39.4843 48.896 40.8238 48.9135C42.1632 48.9309 43.26 48.1003 43.2734 47.0582Z" fill="#8E5749"/>
<path d="M39.8969 32.7037L42.3223 32.7354L42.4437 23.3018L40.0184 23.2701L39.8969 32.7037Z" fill="#8E5749"/>
<path d="M41.1678 24.15C39.8447 24.15 38.7422 23.151 38.7422 22.041C38.7422 20.931 39.8447 20.043 41.1678 20.043C42.4908 20.043 43.5933 21.042 43.5933 22.152C43.7036 23.262 42.6011 24.15 41.1678 24.15Z" fill="#9F6551"/>
<path d="M43.1552 32.4673C43.1702 31.3027 42.0965 30.3444 40.757 30.327C39.4175 30.3095 38.3195 31.2394 38.3045 32.404C38.2895 33.5686 39.3632 34.5269 40.7027 34.5443C42.0421 34.5618 43.1402 33.6319 43.1552 32.4673Z" fill="#9F6551"/>
<path d="M43.2098 34.1459C43.2248 32.9813 42.1511 32.0231 40.8116 32.0056C39.4722 31.9882 38.3742 32.9181 38.3592 34.0827C38.3442 35.2473 39.4179 36.2056 40.7574 36.223C42.0968 36.2405 43.1948 35.3105 43.2098 34.1459Z" fill="#8E5749"/>
<path d="M43.7519 20.9344C43.7653 19.8924 42.6903 19.0335 41.3508 19.016C40.0113 18.9985 38.9146 19.8291 38.9012 20.8711C38.8878 21.9131 39.9628 22.772 41.3023 22.7895C42.6418 22.807 43.7385 21.9764 43.7519 20.9344Z" fill="#8E5749"/>
<path d="M40.504 12.4932C24.848 12.4932 12.0586 25.1467 12.0586 40.6862C12.0586 56.2256 24.7377 68.8792 40.504 68.8792C56.2702 68.8792 68.9493 56.2256 68.9493 40.6862C68.9493 25.1467 56.1599 12.4932 40.504 12.4932ZM40.945 61.2205C29.4786 61.2205 20.2173 52.0078 20.2173 40.6862C20.2173 29.3646 29.4786 20.1519 40.945 20.1519C52.4113 20.1519 61.6726 29.3646 61.6726 40.6862C61.6726 52.0078 52.4113 61.2205 40.945 61.2205Z" fill="#BA8460"/>
<path d="M40.832 34.4697C37.1936 34.4697 34.2168 37.3557 34.2168 41.0186C34.2168 44.6815 37.1936 47.5674 40.832 47.5674C44.4704 47.5674 47.4472 44.6815 47.4472 41.0186C47.4472 37.4666 44.4704 34.4697 40.832 34.4697ZM40.9423 45.7915C38.2962 45.7915 36.0911 43.6825 36.0911 41.0186C36.0911 38.3546 38.2962 36.2457 40.9423 36.2457C43.5883 36.2457 45.7934 38.3546 45.7934 41.0186C45.7934 43.6825 43.5883 45.7915 40.9423 45.7915Z" fill="#BA8460"/>
</svg>
