<svg width="45" height="102" viewBox="0 0 45 102" fill="none" xmlns="http://www.w3.org/2000/svg">
<path d="M4.60156 86.6107L5.42785 75.4208L9.20519 25.3201C9.20519 25.3201 15.9336 23.1584 22.4259 25.3201C22.5439 32.6954 25.495 86.6107 25.495 86.6107C25.495 86.6107 15.4614 93.223 4.60156 86.6107Z" fill="#FFEBE6"/>
<path d="M5.43262 74.9121C5.43262 74.9121 12.6332 78.8541 24.7915 75.1664C25.3817 86.4836 25.3817 86.4837 25.3817 86.4837C25.3817 86.4837 16.0564 93.4774 4.48828 86.4837C4.84241 83.6861 5.43262 74.9121 5.43262 74.9121Z" fill="#AD160A"/>
<path d="M6.60938 60.5441C6.60938 60.5441 17.3512 64.9946 24.1976 60.5441C23.9615 56.6022 23.4894 47.7012 23.4894 47.7012C23.4894 47.7012 16.2888 51.3887 7.55371 47.7012C7.08155 53.6776 6.60938 60.5441 6.60938 60.5441Z" fill="#AD160A"/>
<path d="M8.49805 34.4769C8.49805 34.4769 16.9971 37.6558 22.7811 34.4769C22.545 29.7721 22.427 25.3216 22.427 25.3216C22.427 25.3216 16.0527 22.6513 9.20629 25.3216C8.73412 31.298 8.49805 34.4769 8.49805 34.4769Z" fill="#AD160A"/>
<path d="M10.1488 17.5655L9.55859 25.0679C9.55859 25.0679 15.2246 23.6692 21.5989 24.9408C21.4808 19.8544 21.2448 17.6927 21.2448 17.6927C21.2448 17.6927 17.2313 14.6409 10.1488 17.5655Z" fill="#FFEBE6"/>
<path d="M8.50312 19.0896C8.50312 19.0896 15.2315 14.258 23.7305 19.2167C24.5568 19.0895 24.7929 17.6909 22.7862 16.8009C20.6614 15.7838 14.2872 13.6223 8.03095 17.6909C7.32269 18.1995 7.55879 19.2167 8.50312 19.0896Z" fill="#FFEBE6"/>
<path d="M17.468 9.93555C17.468 9.8084 17.468 9.80838 17.468 9.68123C17.468 8.79114 16.7598 8.15538 15.9335 8.02823V7.90107V6.62952C15.9335 6.37521 15.8155 6.24805 15.5794 6.24805C15.3433 6.24805 15.2253 6.37521 15.2253 6.62952V7.90107V8.02823C14.399 8.15538 13.8088 8.9183 13.8088 9.68123C13.8088 9.80838 13.8088 9.93555 13.8088 9.93555C7.90665 11.2071 8.49686 17.1834 8.49686 17.1834C14.8711 13.8774 20.8913 15.9118 22.898 16.6748C22.7799 13.3687 21.1273 10.5713 17.468 9.93555Z" fill="#AD160A"/>
<path d="M15.6981 0.780273H15.5801V6.50258H15.6981V0.780273Z" fill="#2D2B2B"/>
<path d="M16.4075 0.906268C16.4075 1.41465 16.0536 1.79593 15.5817 1.79593C15.1098 1.79593 14.7559 1.41465 14.7559 0.906268C14.7559 0.397885 15.1098 0.0166016 15.5817 0.0166016C16.0536 0.0166016 16.4075 0.397885 16.4075 0.906268Z" fill="#2D2B2B"/>
<path d="M28.0911 96.2763C28.4452 94.7504 29.1534 87.7566 29.1534 87.7566C29.1534 87.7566 24.7859 87.1208 24.1957 86.7394C23.7235 86.2307 22.8972 85.4678 22.8972 85.4678H18.6477L17.9395 86.1036C17.9395 86.1036 20.1822 90.2998 20.4183 90.427C20.5364 90.5541 28.0911 96.2763 28.0911 96.2763Z" fill="#707982"/>
<path d="M39.894 94.2422C39.894 94.115 37.061 88.6472 34.228 88.6472C31.7492 88.6472 29.1522 87.6299 29.1522 87.6299L28.0898 96.1496L39.894 94.2422Z" fill="#5C646F"/>
<path d="M44.2645 75.8037C44.2645 75.8037 39.5428 77.7111 39.6609 79.1099C39.7789 80.5087 35.7655 87.1211 29.0371 87.6297C30.6897 88.1384 32.2242 89.0285 34.467 88.647C36.4738 89.5371 36.9459 89.2828 39.7789 94.2421C41.3135 95.1322 44.6187 91.3174 44.8547 88.9013C45.0908 86.4853 44.2645 75.8037 44.2645 75.8037Z" fill="#87919B"/>
<path d="M22.6599 76.0572C22.3058 76.0572 22.896 79.3634 22.6599 79.7449C22.4238 80.1263 18.6465 85.2127 18.6465 85.2127H22.896C22.896 85.2127 23.7223 86.23 24.1945 86.4843C24.6666 86.7386 29.1522 87.5016 29.1522 87.5016C29.1522 87.5016 36.943 86.9929 39.894 79.3634C40.0121 78.8547 41.4286 76.9473 44.2616 75.6758C39.5399 75.5486 37.6512 74.9128 37.6512 74.9128C37.6512 74.9128 32.4574 71.7338 32.3394 71.9881C32.2213 72.2424 26.2012 75.8029 22.6599 76.0572Z" fill="#9BA3AE"/>
<path d="M18.0586 85.9785L22.4262 75.1699L22.6622 76.0601V79.7477L18.0586 85.9785Z" fill="#464E59"/>
<path d="M44.2624 75.8034C44.2624 75.8034 35.6454 71.0986 33.0485 71.0986C31.1598 71.3529 22.3066 75.1676 22.3066 75.1676L22.6608 76.0577C22.6608 76.0577 27.1464 75.6763 32.2222 71.9887C34.9371 73.3874 37.534 75.0405 37.534 75.5491C37.7701 75.9306 44.2624 75.8034 44.2624 75.8034Z" fill="#7E8790"/>
<path d="M18.4141 101.49C18.6501 101.362 22.6636 100.6 22.8997 100.6C23.1357 100.6 25.0244 96.2761 24.7883 91.0625C23.726 92.2069 21.6012 94.623 21.6012 94.623L18.4141 101.49Z" fill="#7D8791"/>
<path d="M19.7109 95.1316C19.7109 95.0045 24.7867 91.0625 24.7867 91.0625L21.5996 94.623L19.7109 95.1316Z" fill="#3E4651"/>
<path d="M14.8723 101.87C14.7543 101.87 14.1641 100.98 14.1641 100.98C14.1641 100.98 16.5249 100.217 16.5249 100.09C16.5249 99.9629 19.8301 95.1307 19.8301 95.1307L21.7187 94.6221L18.5316 101.489L14.8723 101.87Z" fill="#67717B"/>
<path d="M23.4901 87.376C23.136 87.6303 17.47 88.6476 17.3519 88.9019C17.2339 89.1562 14.873 96.0229 14.873 96.0229C14.873 96.15 16.4076 100.092 16.4076 100.092L19.8308 95.0056C19.8308 95.0056 24.6705 91.1908 24.7886 91.0636C24.7886 90.8093 24.7886 88.7747 24.7886 88.7747L23.4901 87.376Z" fill="#878F9A"/>
<path d="M10.7422 97.8025C11.0963 97.8025 14.9917 96.1494 14.9917 96.1494L16.5263 100.218L14.1654 101.109L10.7422 97.8025Z" fill="#5C646F"/>
<path d="M7.43663 101.871H14.7552L14.047 100.981L10.6238 97.802C10.6238 97.802 5.666 95.5131 5.42992 95.5131C5.19384 95.5131 0 95.2588 0 95.2588V97.6748L7.43663 101.871Z" fill="#77838F"/>
<path d="M9.32531 92.8428C9.56139 92.8428 14.8733 96.0217 14.8733 96.0217L10.6238 97.6748L5.42992 95.3859L0 95.1316L9.32531 92.8428Z" fill="#969EA9"/>
<path d="M6.13733 88.6475C6.13733 88.6475 4.48475 90.682 4.72083 90.682C4.95692 90.682 9.44251 92.8437 9.44251 92.8437L0.117188 95.1326L6.13733 88.6475Z" fill="#626A75"/>
<path d="M12.1582 84.8311C12.1582 84.8311 12.3943 87.3742 12.5123 87.3742C12.6304 87.3742 17.352 88.9001 17.352 88.9001L14.8732 96.021C14.8732 96.021 9.56128 92.9692 9.32519 92.8421C9.08911 92.7149 4.60352 90.6804 4.60352 90.6804L6.02002 88.6458L12.1582 84.8311Z" fill="#9AA1AB"/>
<path d="M17.3525 84.5781L23.4907 87.3754L17.3525 88.9012L14.5195 85.341L17.3525 84.5781Z" fill="#9BA3AE"/>
<path d="M12.1602 84.8324L17.354 84.5781L14.521 85.341C14.521 85.341 17.4721 88.9012 17.354 88.9012C17.236 88.774 12.5143 87.3754 12.5143 87.3754L12.1602 84.8324Z" fill="#606D76"/>
</svg>
