<svg width="90" height="60" viewBox="0 0 90 60" fill="none" xmlns="http://www.w3.org/2000/svg">
<path d="M75.0315 22.3301C75.0315 22.3301 76.8458 26.7277 76.8458 27.5421C76.8458 28.3564 76.6946 36.3373 76.8458 37.6403C76.997 38.9433 79.5673 43.8295 79.5673 43.8295C79.5673 43.8295 84.7079 46.5983 84.8591 46.4355C84.8591 46.2726 89.6974 44.6439 89.6974 44.6439L84.5567 47.087L76.997 47.4127C76.997 47.4127 77.4506 41.5492 77.2994 41.2235C77.1482 41.0606 73.5195 36.9888 73.5195 33.4055C73.5195 29.6594 75.0315 22.3301 75.0315 22.3301Z" fill="#4B535E"/>
<path d="M69.1366 47.0863C68.8342 46.7606 64.9031 43.5032 63.8447 42.3631C62.7864 41.223 61.5768 38.1284 61.8792 36.3368C62.1816 34.5452 65.0543 31.4507 64.9031 29.4962C64.7519 27.5417 63.6935 25.4244 64.6007 23.47C65.5079 21.5155 68.0782 11.5803 68.0782 11.7432C68.0782 11.9061 69.2877 16.1407 69.2877 16.1407C69.2877 16.1407 71.858 16.4665 71.858 16.6293C71.858 16.7922 72.9164 21.0269 72.9164 21.0269L75.1843 22.3299C75.1843 22.3299 72.1605 36.0111 77.6035 41.223C77.4523 44.969 77.3011 47.4121 77.3011 47.4121L69.1366 47.0863Z" fill="#5A6066"/>
<path d="M73.3725 14.0244L73.6749 18.422C73.6749 18.422 77.3035 25.7513 77.9083 26.24C78.5131 26.7286 81.3858 29.4974 81.3858 29.4974C81.3858 29.4974 78.5131 31.1262 77.1523 37.9669C77.0011 35.6866 77.0011 27.2172 77.0011 27.0543L75.338 22.331C75.338 22.331 73.2213 21.5166 73.0701 21.028C72.9189 20.5394 72.0117 16.6304 72.0117 16.6304L73.3725 14.0244Z" fill="#78808B"/>
<path d="M70.8004 9.79004C71.1028 10.6044 73.3707 14.0247 73.3707 14.0247L71.7076 16.6307L69.1373 16.1421L67.9277 11.7445L70.8004 9.79004Z" fill="#89919C"/>
<path d="M85.1647 30.3122C85.4671 31.1265 89.7006 44.6448 89.7006 44.6448L84.8623 46.4364L79.5705 43.8305C79.5705 43.8305 76.849 37.9671 77.0002 38.13C77.0002 38.2929 77.1514 32.4295 81.0825 29.335C83.048 29.6607 85.1647 30.3122 85.1647 30.3122Z" fill="#86909C"/>
<path d="M74.7268 15.8172L85.1592 30.3129L81.2282 29.4985C81.2282 29.4985 78.3554 27.0554 77.7507 26.2411C77.2971 25.5896 73.5172 18.4232 73.5172 18.4232L73.2148 14.1885L74.7268 15.8172Z" fill="#4B535E"/>
<path d="M67.1751 54.5819C67.4775 53.2789 68.0822 47.4154 68.0822 47.4154C68.0822 47.4154 64.4536 46.9268 64 46.6011C63.5464 46.2753 62.9416 45.4609 62.9416 45.4609H59.4641L58.8594 45.9496C58.8594 45.9496 60.8249 49.3699 60.8249 49.5328C60.8249 49.6957 67.1751 54.5819 67.1751 54.5819Z" fill="#707982"/>
<path d="M77.0034 52.9528C77.0034 52.79 74.7355 48.2294 72.3164 48.2294C70.1997 48.2294 68.0829 47.415 68.0829 47.415L67.1758 54.5816L77.0034 52.9528Z" fill="#5C646F"/>
<path d="M80.6312 37.6436C80.6312 37.6436 76.7001 39.2723 76.8513 40.4124C77.0025 41.5525 73.6762 47.0901 68.082 47.5787C69.4428 48.0673 70.6523 48.7188 72.6179 48.393C74.281 49.2074 74.7346 48.8816 77.1537 52.9534C78.5145 53.7678 81.236 50.5104 81.3872 48.5559C81.3872 46.6015 80.6312 37.6436 80.6312 37.6436Z" fill="#87919B"/>
<path d="M62.6407 37.8056C62.3383 37.8056 62.7919 40.5744 62.6407 40.9002C62.4895 41.2259 59.3145 45.4606 59.3145 45.4606H62.7919C62.7919 45.4606 63.5479 46.4378 63.8503 46.6007C64.1527 46.7636 67.9325 47.415 67.9325 47.415C67.9325 47.415 74.4339 46.9264 76.853 40.5744C77.0042 40.0858 78.0626 38.4571 80.4817 37.4798C76.5506 37.317 74.8875 36.8283 74.8875 36.8283C74.8875 36.8283 70.5028 34.2224 70.3516 34.3853C70.5028 34.711 65.6646 37.6427 62.6407 37.8056Z" fill="#9BA3AE"/>
<path d="M58.8594 46.1115L62.488 37.1533L62.6392 37.8048V40.8995L58.8594 46.1115Z" fill="#464E59"/>
<path d="M80.6325 37.6446C80.6325 37.6446 73.3751 33.7344 71.2584 33.7344C69.7464 33.8973 62.3379 37.1558 62.3379 37.1558L62.6403 37.8075C62.6403 37.8075 66.4201 37.4817 70.6536 34.3861C72.9215 35.5266 75.0382 36.9929 75.1894 37.3187C75.1894 37.8075 80.6325 37.6446 80.6325 37.6446Z" fill="#7E8790"/>
<path d="M47.6689 18.2598C47.6689 18.2598 45.0986 24.6119 44.9474 25.9149C44.7962 27.2179 45.0986 38.6191 44.9474 40.5736C44.7962 42.3652 41.0163 49.6946 41.0163 49.6946C41.0163 49.6946 33.4566 53.7665 33.3054 53.4407C33.1542 53.115 26.1992 50.8347 26.1992 50.8347L33.6078 54.2551L44.4938 54.7437C44.4938 54.7437 43.889 46.1114 44.0402 45.7856C44.1914 45.4599 49.4832 39.5964 49.6344 34.2215C49.9368 28.6838 47.6689 18.2598 47.6689 18.2598Z" fill="#4B535E"/>
<path d="M56.2878 54.0911C56.7414 53.7654 62.4868 48.8792 63.9987 47.2505C65.5107 45.6218 67.325 41.0613 66.8714 38.4554C66.569 35.8494 62.1844 31.289 62.4868 28.5202C62.7892 25.5885 64.1499 22.6568 63.0916 19.7251C61.882 16.7933 58.1021 2.46058 58.1021 2.62345C58.1021 2.94919 56.2878 9.13834 56.2878 9.13834C56.2878 9.13834 52.6591 9.62696 52.6591 9.95271C52.6591 10.2785 50.996 16.3047 50.996 16.3047L47.6697 18.2592C47.6697 18.2592 52.0543 38.1296 44.041 45.6218C44.1922 50.9966 44.4946 54.5798 44.4946 54.5798L56.2878 54.0911Z" fill="#666E79"/>
<path d="M50.2408 6.04395L49.9384 12.5588C49.9384 12.5588 44.4954 23.3084 43.7394 23.9599C42.9835 24.6114 38.75 28.6832 38.75 28.6832C38.75 28.6832 42.9835 30.9634 44.949 41.0614C45.1002 37.804 45.2514 25.2628 45.2514 25.2628C45.2514 25.1 47.8217 18.4222 47.8217 18.4222C47.8217 18.4222 50.9968 17.2821 51.148 16.4678C51.2992 15.6534 52.8111 10.1157 52.8111 10.1157L50.2408 6.04395Z" fill="#78808B"/>
<path d="M54.0213 0.0175781C53.5677 1.15769 50.3926 6.04387 50.3926 6.04387L52.8117 9.95281L56.4404 9.13845L58.2547 2.62354L54.0213 0.0175781Z" fill="#89919C"/>
<path d="M33.0041 29.8225C32.3993 30.9626 26.3516 50.6703 26.3516 50.6703L33.4577 53.2762L41.1686 49.5302C41.1686 49.5302 45.0997 41.0608 44.9485 41.2236C44.9485 41.3865 44.7973 32.9171 38.9007 28.5195C36.1792 28.8453 33.0041 29.8225 33.0041 29.8225Z" fill="#86909C"/>
<path d="M48.1203 8.64936L32.8496 29.8229L38.7462 28.5199C38.7462 28.5199 42.9796 24.9367 43.7356 23.7966C44.4916 22.8193 49.9346 12.3955 49.9346 12.3955L50.237 6.36914L48.1203 8.64936Z" fill="#4B535E"/>
<path d="M10.779 54.7429C10.4767 54.58 3.6729 53.277 3.21931 53.277C2.76573 53.1141 -0.409367 45.9476 0.0442169 37.1523C1.85855 39.1068 5.33603 43.1787 5.33603 43.1787L10.779 54.7429Z" fill="#7D8791"/>
<path d="M8.66108 43.9934C8.50989 43.8305 0.0429688 37.1523 0.0429688 37.1523L5.33478 43.179L8.66108 43.9934Z" fill="#3E4651"/>
<path d="M16.9771 55.2321C17.1283 55.0692 18.1867 53.7663 18.1867 53.7663C18.1867 53.7663 14.2556 52.4633 14.2556 52.3004C14.2556 52.1376 8.66142 43.994 8.66142 43.994L5.48633 43.1797L10.9293 54.7435L16.9771 55.2321Z" fill="#67717B"/>
<path d="M2.30891 30.7988C2.91369 31.1246 12.5902 32.9162 12.7414 33.4048C12.8926 33.8934 16.8236 45.2946 16.8236 45.4575C16.8236 45.6204 14.2533 52.2982 14.2533 52.2982L8.5079 43.6659C8.5079 43.6659 0.192198 37.3138 0.192198 36.988C0.041003 36.6623 0.192198 33.0791 0.192198 33.0791L2.30891 30.7988Z" fill="#878F9A"/>
<path d="M23.9323 48.3908C23.4787 48.3908 16.8262 45.459 16.8262 45.459L14.2559 52.2998L18.1869 53.7657L23.9323 48.3908Z" fill="#5C646F"/>
<path d="M29.3765 55.2313H16.9785L18.1881 53.7655L23.9335 48.3907C23.9335 48.3907 32.4004 44.4818 32.854 44.4818C33.3075 44.4818 42.0768 43.9932 42.0768 43.9932V48.065L29.3765 55.2313Z" fill="#77838F"/>
<path d="M26.2002 40.084C25.8978 40.084 16.8262 45.4587 16.8262 45.4587L23.9323 48.3904L32.8528 44.4815L42.0757 43.9929L26.2002 40.084Z" fill="#969EA9"/>
<path d="M31.6461 32.917C31.6461 32.917 34.5188 36.3374 34.0652 36.3374C33.7629 36.3374 26.2031 39.9206 26.2031 39.9206L42.0786 43.8296L31.6461 32.917Z" fill="#626A75"/>
<path d="M21.5134 26.4033C21.5134 26.4033 21.0598 30.8009 20.9086 30.6381C20.7574 30.6381 12.7441 33.2441 12.7441 33.2441L16.8264 45.2968C16.8264 45.2968 25.8981 40.0848 26.2005 39.9219C26.5028 39.759 34.0626 36.3387 34.0626 36.3387L31.6435 32.9183L21.5134 26.4033Z" fill="#9AA1AB"/>
<path d="M12.7469 26.0771L2.31445 30.8003L12.7469 33.4061L17.4339 27.3801L12.7469 26.0771Z" fill="#9BA3AE"/>
<path d="M21.515 26.4029L12.7457 26.0771L17.4327 27.3801C17.4327 27.3801 12.5945 33.4061 12.7457 33.4061C12.8969 33.2432 20.9102 30.8003 20.9102 30.8003L21.515 26.4029Z" fill="#606D76"/>
<path d="M59.1562 59.1394C59.3074 58.9765 62.6337 58.4879 62.9361 58.3251C63.2385 58.1622 64.7505 54.7421 64.4481 50.3447C63.5409 51.3219 61.7266 53.2763 61.7266 53.2763L59.1562 59.1394Z" fill="#7D8791"/>
<path d="M60.2207 53.7664L64.4542 50.3447L61.7326 53.2776L60.2207 53.7664Z" fill="#3E4651"/>
<path d="M56.136 59.3047L55.5312 58.6532L57.4968 58.0017L60.2183 53.93L61.7302 53.4414L59.0087 59.1418L56.136 59.3047Z" fill="#67717B"/>
<path d="M63.3933 47.251C63.0909 47.4139 58.2526 48.3911 58.2526 48.554C58.2526 48.7169 56.2871 54.4176 56.2871 54.5804L57.6479 58.0008L60.5205 53.766C60.5205 53.766 64.6028 50.6714 64.6028 50.5085C64.6028 50.3456 64.6028 48.554 64.6028 48.554L63.3933 47.251Z" fill="#878F9A"/>
<path d="M52.6562 55.8829C52.9586 55.8829 56.1337 54.417 56.1337 54.417L57.4945 57.8375L55.529 58.489L52.6562 55.8829Z" fill="#5C646F"/>
<path d="M49.9353 59.3027H56.1343L55.5295 58.6512L52.6568 56.0451C52.6568 56.0451 48.4234 54.0906 48.2722 54.0906C48.121 54.0906 43.7363 53.9277 43.7363 53.9277V56.0451L49.9353 59.3027Z" fill="#77838F"/>
<path d="M51.5996 51.8115C51.7508 51.8115 56.2867 54.4176 56.2867 54.4176L52.8092 55.8835L48.4245 53.929L43.8887 53.7661L51.5996 51.8115Z" fill="#969EA9"/>
<path d="M48.8769 48.3906C48.8769 48.3906 47.5162 50.0194 47.6674 50.0194C47.8186 50.0194 51.5984 51.811 51.5984 51.811L43.7363 53.7656L48.8769 48.3906Z" fill="#626A75"/>
<path d="M53.8677 45.1338L54.1701 47.2511L58.2524 48.5541L56.1357 54.5803C56.1357 54.5803 51.751 51.9744 51.4486 51.9744C51.2974 51.8115 47.5176 50.1828 47.5176 50.1828L48.7271 48.5541L53.8677 45.1338Z" fill="#9AA1AB"/>
<path d="M58.2472 44.9707L63.3879 47.2522L58.2472 48.5559L55.8281 45.6226L58.2472 44.9707Z" fill="#9BA3AE"/>
<path d="M53.8672 45.1337L58.2518 44.9707L55.9839 45.6226C55.9839 45.6226 58.403 48.5559 58.2518 48.5559C58.1006 48.5559 54.1696 47.2522 54.1696 47.2522L53.8672 45.1337Z" fill="#606D76"/>
</svg>
