<svg width="164" height="139" viewBox="0 0 164 139" fill="none" xmlns="http://www.w3.org/2000/svg">
<path d="M13.834 29.3222C13.834 29.3222 20.518 6.25889 40.7788 3.44629C54.3557 4.12131 120.465 18.0718 120.465 18.0718C120.465 18.0718 132.997 21.6719 134.981 38.21C131.639 43.9477 131.639 41.8101 124.433 44.6227C117.227 47.4353 126.835 68.8111 126.835 79.9489C126.835 91.0868 116.287 108.3 100.517 113.813C84.747 119.325 59.1598 113.813 51.1181 107.625C43.1809 101.437 15.9227 89.3992 15.0872 82.9865C14.2517 76.5738 20.6224 58.1232 24.7999 54.7481C28.9774 51.373 26.5753 35.3974 19.0559 30.7847L13.834 29.3222Z" fill="#6C2F0D"/>
<path d="M7.98531 60.8242C7.98531 60.8242 6.41875 70.2744 7.98531 71.2869C9.55187 72.412 12.9983 73.6495 13.3116 73.6495C13.5205 73.6495 16.027 72.187 16.027 72.187C16.027 72.187 15.2959 74.0995 16.027 74.5495C16.758 74.9995 49.1336 89.2873 59.4729 92.5499C69.8122 95.8125 82.0314 100.65 82.0314 99.8625C82.0314 99.075 81.6136 84.8997 81.6136 84.8997L7.98531 60.8242Z" fill="#AE8022"/>
<path d="M11.2229 64.3111C11.2229 64.3111 8.4031 64.9861 8.19422 60.1484C7.98535 55.3107 7.67203 53.0606 9.13415 51.9355C12.3717 54.4106 81.5093 83.4368 84.0158 83.2118C86.4178 82.9868 85.0601 85.7994 85.0601 85.7994L85.4779 96.3749C85.4779 96.3749 70.6478 91.5372 61.2484 88.2745C51.7446 84.8994 14.2516 70.0488 11.2229 64.3111Z" fill="#4C4C4C"/>
<path d="M24.2805 48.1104C24.0716 48.1104 12.1658 50.0229 9.97258 51.1479C7.7794 52.273 9.97259 53.9605 13.0013 55.8731C16.03 57.7856 68.1442 81.6363 76.9169 83.7739C85.6897 85.9115 87.674 86.1365 94.8802 81.6363C102.086 77.1362 131.12 60.3732 131.12 60.3732L24.2805 48.1104Z" fill="#575757"/>
<path d="M31.4825 50.0225C31.4825 50.0225 21.3521 53.0601 22.2921 54.2976C23.3364 55.5352 49.9679 67.1232 60.725 71.0609C71.482 74.9985 80.6725 80.2862 92.5784 75.111C104.484 69.9358 110.646 67.0107 110.646 67.0107C110.646 67.0107 96.3382 72.1859 95.9204 72.1859C95.5027 72.0734 31.4825 50.0225 31.4825 50.0225Z" fill="#632A02"/>
<path d="M118.27 73.9859L81.9253 95.249C81.9253 95.249 77.8523 85.0112 80.2543 83.5487C82.8653 83.3237 88.8182 80.1736 99.993 73.5359C111.168 66.8982 129.862 56.5479 129.862 56.5479C129.862 56.5479 130.071 65.9982 129.444 67.0107C128.818 68.0232 118.27 73.9859 118.27 73.9859Z" fill="#3A3A3A"/>
<path d="M84.5387 92.7725L85.2697 105.485L82.241 107.398L81.9277 95.135L84.5387 92.7725Z" fill="#BC882E"/>
<path d="M84.8524 98.0609C84.8524 98.0609 87.15 94.9108 92.2674 92.3231C97.4893 89.7355 104.8 84.6728 104.904 81.4102C100.309 83.2102 84.5391 92.7732 84.5391 92.7732L84.8524 98.0609Z" fill="#863D06"/>
<path d="M84.957 99.0738C84.957 99.0738 86.2103 95.9237 88.1946 95.9237C90.1789 95.9237 97.6984 91.6485 101.876 88.6109C106.053 85.5732 113.26 80.8481 115.035 80.623C115.244 85.3482 115.662 92.886 115.453 93.2236C115.244 93.6736 102.92 100.536 102.503 100.536C102.085 100.536 100.309 100.086 100.309 100.086V101.999L86.0014 110.549L85.3748 105.149L84.957 99.0738Z" fill="#863D06"/>
<path d="M106.677 80.3985C106.677 80.3985 106.155 82.4236 107.826 82.4236C109.392 82.4236 109.392 81.5236 111.794 80.736C114.196 79.9485 115.136 80.736 115.554 79.2735C115.972 77.8109 115.554 75.4482 115.554 75.4482L106.677 80.3985Z" fill="#863D06"/>
<path d="M0.257466 31.9095C0.257466 31.9095 -1.30908 40.6848 3.28616 42.1473C7.8814 43.6099 90.2825 70.8358 90.2825 70.8358V56.8853L1.30184 28.4219C1.30184 28.5344 0.466341 30.8969 0.257466 31.9095Z" fill="#4C4C4C"/>
<path d="M131.222 46.3096L90.1777 56.9975V70.9481C90.1777 70.9481 130.386 61.2727 131.222 58.6851C132.057 56.0975 131.848 47.3221 131.222 46.3096Z" fill="#444343"/>
<path d="M8.61231 25.0463L1.19727 28.4215L90.1779 56.8852L131.222 46.1972C131.222 46.1972 131.848 44.5097 129.864 44.5097C127.88 44.5097 92.2666 51.5975 92.2666 51.5975L10.7011 23.6963L8.61231 25.0463Z" fill="#575757"/>
<path d="M19.3659 19.5342C19.3659 19.5342 65.1094 28.3094 94.7696 40.3472C93.6208 43.7223 91.6365 49.1225 92.1587 51.7101C86.6235 49.7975 19.2614 29.2094 19.2614 29.2094C19.2614 29.2094 17.1727 21.7842 19.3659 19.5342Z" fill="#AE8022"/>
<path d="M30.7516 7.94531C30.7516 7.94531 74.7197 14.808 103.022 26.1709C99.6802 30.2211 99.2625 30.6711 99.2625 30.6711L97.4871 31.1211L98.8447 33.0336L96.025 37.9838C96.025 37.9838 47.8793 21.2207 22.6055 19.5332C25.7386 13.683 28.3495 9.85788 30.7516 7.94531Z" fill="#AE8022"/>
<path d="M43.392 2.43395C43.392 2.43395 104.906 1.98393 114.618 17.622C109.396 20.4346 105.637 23.3598 105.115 23.8098C93.2087 19.0846 48.1962 7.72165 33.0527 7.72165C36.6036 6.03409 43.392 2.43395 43.392 2.43395Z" fill="#AE8022"/>
<path d="M97.5941 46.3095L118.899 43.0469L129.865 44.5094L94.4609 51.1472L97.5941 46.3095Z" fill="#A15612"/>
<path d="M107.722 27.8594C107.722 27.8594 117.435 29.2094 119.21 43.1599C109.706 44.2849 97.1738 46.31 97.1738 46.31C97.1738 46.31 101.769 32.8096 107.722 27.8594Z" fill="#863D06"/>
<path d="M126.625 44.1716C126.625 44.1716 126.416 42.0342 125.894 40.7967C123.492 40.1217 118.479 39.2217 118.479 39.2217C118.479 39.2217 119.105 41.4717 119.314 43.1591C120.881 43.2716 126.625 44.1716 126.625 44.1716Z" fill="#A15612"/>
<path d="M113.154 30.4461L121.3 29.9961C121.3 29.9961 124.329 33.2588 125.06 39.4466C121.718 38.9966 118.376 38.7716 118.376 38.7716C118.376 38.7716 117.436 34.8339 113.154 30.4461Z" fill="#A15612"/>
<path d="M107.725 27.8597C107.725 27.8597 110.753 24.822 115.662 25.272C117.437 26.5096 120.884 29.5472 120.884 29.5472L112.946 30.3347C112.946 30.3347 110.753 28.5347 107.725 27.8597Z" fill="#A15612"/>
<path d="M130.804 44.735C130.804 44.735 132.475 40.2347 129.133 37.3096C126.94 39.2222 126 40.6848 126 40.6848C126 40.6848 126.627 43.0474 126.836 44.06C129.655 44.51 130.804 44.735 130.804 44.735Z" fill="#BC882E"/>
<path d="M121.299 29.9975L125.059 25.9473C125.059 25.9473 128.609 28.0849 128.818 36.6353C126.207 38.7729 125.059 39.448 125.059 39.448C125.059 39.448 124.641 34.4977 121.299 29.9975Z" fill="#BC882E"/>
<path d="M115.66 25.2727L116.078 17.5098C116.078 17.5098 120.464 18.4098 124.433 25.2727C122.449 27.6354 120.882 29.548 120.882 29.548C120.882 29.548 116.496 25.9478 115.66 25.2727Z" fill="#BC882E"/>
<path d="M107.309 28.1974L104.803 23.6972C104.803 23.6972 108.98 15.4843 114.307 17.1719V25.1597C114.307 25.2722 111.278 25.1597 107.309 28.1974Z" fill="#BC882E"/>
<path d="M99.0541 41.5843L96.0254 37.8717L98.8452 32.9216L97.2786 30.7841L99.0541 30.5591L103.023 25.834L105.425 30.2216C105.32 30.3341 102.396 33.8216 99.0541 41.5843Z" fill="#BC882E"/>
<path d="M94.7713 40.2363L98.1133 43.724C98.1133 43.724 97.0689 45.7491 98.6355 45.9741C96.5467 48.7867 94.7713 51.1493 94.7713 51.1493L92.1604 51.5993C92.2648 51.5993 90.3849 49.2367 94.7713 40.2363Z" fill="#BC882E"/>
<path d="M76.6005 49.5719L63.4414 45.2967C63.4414 45.2967 66.9923 18.071 93.7282 5.80814C100.517 5.13312 105.634 6.25815 109.603 11.2083C104.694 10.5333 90.2818 7.38319 76.6005 49.5719Z" fill="#757475"/>
<path d="M81.3003 48.223L76.7051 49.5731C76.7051 49.5731 88.0888 4.79683 109.498 11.2095C110.856 12.8971 111.169 14.2471 111.169 14.2471C111.169 14.2471 103.65 10.422 95.0861 22.1223C86.6266 33.8226 82.658 42.5979 81.3003 48.223Z" fill="#444343"/>
<path d="M43.808 56.7721C43.808 56.7721 35.0353 7.72049 79.8389 2.32031C82.0321 2.32031 84.1208 5.35791 84.1208 5.35791C84.1208 5.35791 54.7739 4.23287 51.0142 40.2341C47.6722 41.6966 47.2544 41.4716 47.2544 41.4716L47.7766 56.7721H43.808Z" fill="#444343"/>
<path d="M20.1014 29.3228C20.1014 29.3228 23.0256 9.97228 44.122 2.43457C37.6468 3.6721 24.1744 3.4471 14.1484 31.4604C17.8037 29.7728 20.1014 29.3228 20.1014 29.3228Z" fill="#444343"/>
<path d="M6.00391 28.535C6.00391 28.535 18.9541 -3.19111 43.288 2.43409C37.3351 3.89664 24.6982 3.44663 14.15 31.4601L6.00391 28.535Z" fill="#757475"/>
<path d="M43.9096 56.886C43.9096 56.886 35.9723 8.17186 79.9405 2.65917C73.3609 0.296592 65.8414 -0.603439 61.6639 0.971615C56.3376 2.43416 28.8706 8.05937 30.0194 51.8234L43.9096 56.886Z" fill="#757475"/>
<path d="M18.4298 80.8486C18.4298 80.8486 57.5938 103.124 81.3011 108.975C81.7188 112.8 81.3011 114.937 81.3011 114.937L79.3168 115.837L81.51 118.65C81.51 118.65 81.9277 128.325 81.51 128.888C72.7372 124.838 21.0407 96.9367 18.4298 93.6741C18.0121 81.8612 18.4298 80.8486 18.4298 80.8486Z" fill="#AE8022"/>
<path d="M85.9994 125.399C85.9994 125.399 86.9393 111.674 85.4772 106.724C82.1352 108.636 81.1952 108.861 81.1952 108.861V114.486L79.2109 115.949L81.613 118.537V128.774L85.9994 125.399Z" fill="#BC882E"/>
<path d="M117.857 95.5862L86.3173 115.949L86.2129 125.4C86.2129 125.4 119.215 103.349 119.424 102.674C120.051 99.1863 119.32 94.6862 117.857 95.5862Z" fill="#BC882E"/>
<path d="M115.557 93.4492L118.377 95.4742L86.2099 115.95L86.1055 110.437L100.205 102.224V100.312L102.607 100.762L115.557 93.4492Z" fill="#A15612"/>
<path d="M121.408 72.1855C121.408 72.1855 121.303 99.0743 119.632 102.674C119.632 101.774 119.841 96.2617 118.275 95.5866C116.499 94.1241 115.455 93.449 115.455 93.449C115.455 93.449 114.828 81.411 114.828 80.8484C114.828 80.1734 115.873 79.3859 115.455 75.4482C117.126 74.5482 121.408 72.1855 121.408 72.1855Z" fill="#A15612"/>
<path d="M126.627 69.1484C126.627 69.1484 126.627 95.2495 125.896 96.9371C125.165 98.6247 120.57 102.9 119.734 102.675C120.152 100.987 122.136 79.7239 121.092 72.1861C124.016 70.7235 126.627 69.1484 126.627 69.1484Z" fill="#BC882E"/>
<path d="M25.7385 77.3618C25.7385 77.3618 24.903 64.7614 25.7385 63.8613C28.7672 65.3239 36.9133 69.0365 38.4799 69.599C38.4799 73.1992 38.8976 83.5495 38.8976 83.5495C38.8976 83.5495 26.574 79.4994 25.7385 77.3618Z" fill="#757475"/>
<path d="M42.4491 71.6243L43.1801 82.0872L38.8982 83.6623L38.4805 69.7117C38.4805 69.7117 42.3447 65.8865 46.5222 65.4365L48.402 66.224C48.402 66.224 42.2402 69.2617 42.4491 71.6243Z" fill="#444343"/>
<path d="M7.88038 59.4746C7.88038 59.4746 5.47833 81.3001 9.34252 88.7253C11.5357 93.0004 15.7132 95.813 19.0552 96.713C16.0265 94.5755 14.9821 84.5627 16.131 68.4748C12.9978 66.7873 10.8046 63.9747 10.0736 62.5122L7.88038 59.4746Z" fill="#757475"/>
<path d="M18.5334 69.8223C18.5334 69.8223 17.6979 94.9109 22.2931 96.4859C20.5177 97.7235 13.5204 99.2986 15.9224 68.1348C18.1156 69.0348 18.2201 69.3723 18.2201 69.3723L18.5334 69.8223Z" fill="#444343"/>
<path d="M30.0233 80.1738C30.0233 80.1738 28.5612 102.899 31.1721 105.487C33.7831 108.075 37.9606 111.112 42.5558 111.225C41.407 106.95 41.7203 82.5364 41.7203 82.5364L39.0049 83.5489L30.0233 80.1738Z" fill="#686868"/>
<path d="M46.2075 82.424C46.2075 82.424 44.4321 107.737 48.1918 111.225C45.6853 112.35 42.6567 112.125 42.4478 111.225C42.2389 110.325 40.6723 94.4619 41.6123 82.5365L43.0744 81.1865L46.2075 82.424Z" fill="#444343"/>
<path d="M61.3547 88.2744C61.3547 88.2744 60.728 114.15 61.3547 118.65C61.9813 123.15 67.0987 132.601 76.707 129.563C73.8872 128.438 70.4407 122.813 72.2162 91.8745C66.7854 90.187 61.3547 88.2744 61.3547 88.2744Z" fill="#757475"/>
<path d="M76.2894 93.3356C76.2894 93.3356 73.7829 127.649 79.2137 127.649C77.5427 129.674 69.501 137.1 72.0075 91.873C73.9918 92.6606 76.2894 93.3356 76.2894 93.3356Z" fill="#444343"/>
<path d="M74.198 30.334C74.198 30.334 74.0936 30.334 74.198 30.334C74.0936 30.2215 73.9891 30.2215 73.8847 30.109C73.2581 29.7715 71.9004 28.984 70.856 28.6465C70.7516 28.984 70.6471 29.434 70.4383 29.9965C68.7673 30.784 67.0963 32.6966 66.3652 35.2842C65.5297 37.9842 65.7386 40.5718 66.6785 42.3719C66.5741 42.8219 66.4696 43.1594 66.4696 43.1594C66.4696 43.1594 68.4539 44.2844 69.0806 44.3969C71.587 45.0719 74.6158 42.7094 75.7646 38.8843C76.8089 35.2842 76.0779 31.6841 74.198 30.334Z" fill="#575757"/>
<path d="M73.572 37.7592C72.3187 41.6968 69.1856 44.1718 66.5746 43.2718C66.4702 43.2718 66.4702 43.2718 66.3658 43.1593C63.8593 42.1467 62.8149 38.2092 64.0682 34.2716C65.3214 30.3341 68.4545 27.859 71.0655 28.759C73.6764 29.7716 74.8252 33.7091 73.572 37.7592Z" fill="#757475"/>
<path d="M66.6769 95.5869C66.5725 95.5869 66.4681 95.4744 66.3636 95.4744C65.737 95.3619 64.4838 95.0244 63.5438 95.0244C63.5438 95.2494 63.5438 95.6994 63.5438 96.262C62.2906 97.387 61.3506 99.4121 61.2462 101.775C61.1418 104.25 61.8728 106.387 63.1261 107.625C63.1261 108.075 63.1261 108.3 63.1261 108.3C63.1261 108.3 65.0059 108.75 65.5281 108.637C67.8257 108.525 69.7056 105.825 69.9145 102.225C70.0189 99.0745 68.6612 96.262 66.6769 95.5869Z" fill="#575757"/>
<path d="M67.726 101.888C67.5171 105.488 65.4284 108.414 63.0263 108.301H62.9219C60.6243 108.076 58.8489 105.038 59.0577 101.438C59.2666 97.8382 61.3553 94.9131 63.7574 95.0256C66.1595 95.2506 67.9349 98.2882 67.726 101.888Z" fill="#757475"/>
<path d="M34.9299 84.3359C34.8255 84.3359 34.7211 84.3359 34.6166 84.2234C33.99 84.1109 32.7368 83.8859 31.7968 83.9984C31.7968 84.2234 31.7968 84.6734 31.7968 85.2359C30.5436 86.361 29.8125 88.4985 29.8125 90.861C29.8125 93.3361 30.648 95.4736 31.9012 96.5986C31.9012 97.0487 31.9012 97.2737 31.9012 97.2737C31.9012 97.2737 33.7811 97.6112 34.3033 97.4987C36.6009 97.2737 38.3764 94.4611 38.3764 90.861C38.3764 87.5985 36.9143 84.8984 34.9299 84.3359Z" fill="#575757"/>
<path d="M36.2874 90.6358C36.2874 94.3484 34.3031 97.2735 31.9011 97.2735H31.7966C29.499 97.161 27.6191 94.2359 27.6191 90.6358C27.6191 86.9232 29.6034 83.998 32.0055 83.998C34.4076 83.998 36.3919 86.9232 36.2874 90.6358Z" fill="#757475"/>
<path d="M11.2221 70.499C11.1176 70.499 11.0132 70.499 10.9088 70.3865C10.3866 70.274 9.13335 70.049 8.29785 70.1615C8.29785 70.3865 8.29785 70.8365 8.29785 71.2866C7.14903 72.4116 6.41797 74.3241 6.41797 76.4617C6.41797 78.7118 7.14902 80.7368 8.40227 81.7494C8.40227 82.1994 8.40227 82.4243 8.40227 82.4243C8.40227 82.4243 10.1777 82.6494 10.5955 82.6494C12.6842 82.4244 14.3552 79.8368 14.3552 76.5742C14.5641 73.5366 13.102 71.0616 11.2221 70.499Z" fill="#575757"/>
<path d="M12.5827 76.3498C12.5827 79.7248 10.8073 82.4249 8.50964 82.4249H8.40519C6.21201 82.3124 4.54102 79.6123 4.54102 76.2372C4.54102 72.8622 6.31644 70.1621 8.61406 70.1621C10.8072 70.1621 12.5827 72.9747 12.5827 76.3498Z" fill="#757475"/>
<path d="M41.7175 22.3468C41.6131 22.2343 41.5087 22.2343 41.4042 22.1218C40.7776 21.7842 39.4199 20.9967 38.3755 20.6592C38.2711 20.9967 38.1667 21.4467 37.9578 22.0093C36.2868 22.7968 34.6158 24.7094 33.8847 27.297C33.0492 29.9971 33.2581 32.5848 34.198 34.3849C34.0936 34.8349 33.9892 35.1724 33.9892 35.1724C33.9892 35.1724 35.9735 36.2974 36.6001 36.4099C39.1066 37.085 42.1353 34.7224 43.2841 30.8972C44.4329 27.297 43.7019 23.8093 41.7175 22.3468Z" fill="#575757"/>
<path d="M41.0934 29.7719C39.8402 33.7094 36.7071 36.1845 34.0961 35.2845C33.9917 35.2845 33.9917 35.2845 33.8873 35.172C31.3808 34.1595 30.3364 30.2219 31.5896 26.2843C32.8429 22.3467 35.976 19.8717 38.5869 20.7717C41.3023 21.7842 42.3467 25.8343 41.0934 29.7719Z" fill="#757475"/>
<path d="M16.028 16.8334C15.9236 16.7209 15.8191 16.7209 15.8191 16.6084C15.4014 16.1584 14.357 15.3709 13.4171 14.9209C13.3126 15.1459 13.1038 15.4834 12.8949 16.0459C11.3283 16.4959 9.76176 17.846 8.71739 19.871C7.67301 22.0086 7.46413 24.2586 8.09076 25.9461C7.88188 26.2837 7.77746 26.5087 7.77746 26.5087C7.77746 26.5087 9.34401 27.7462 9.76176 27.8587C11.8505 28.8712 14.5659 27.2962 16.1325 24.1461C17.699 21.446 17.4901 18.296 16.028 16.8334Z" fill="#575757"/>
<path d="M14.5622 22.9101C12.9956 26.0601 10.0714 27.6352 7.98261 26.3977C7.98261 26.3977 7.87816 26.3976 7.87816 26.2851C5.89385 25.0476 5.58054 21.5601 7.14711 18.5225C8.71367 15.3724 11.6379 13.7974 13.7267 15.0349C15.711 16.2724 16.1287 19.76 14.5622 22.9101Z" fill="#757475"/>
<path d="M33.7807 71.285C33.7807 73.1975 32.7363 74.6601 31.3786 74.6601C30.0209 74.6601 28.9766 73.085 28.9766 71.285C28.9766 69.485 30.0209 67.91 31.3786 67.91C32.7363 67.7975 33.7807 69.3725 33.7807 71.285Z" fill="#4C4C4C"/>
<path d="M32.6354 75.786C32.6354 77.6985 32.0088 79.161 31.3822 79.161C30.6511 79.161 30.1289 77.586 30.1289 75.786C30.1289 73.986 30.7555 72.4109 31.3822 72.4109C32.0088 72.2984 32.6354 73.8735 32.6354 75.786Z" fill="#4C4C4C"/>
<path d="M112.949 132.488V127.312H97.0742V133.388H97.1787C97.7008 135.413 101.043 137.1 105.011 137.1C109.189 137.1 112.531 135.413 112.949 133.163C112.949 133.05 112.949 132.938 112.949 132.825C113.053 132.713 113.053 132.6 112.949 132.488Z" fill="#C99700"/>
<path d="M113.048 127.877C113.048 130.239 109.497 132.152 105.111 132.152C100.725 132.152 97.1738 130.239 97.1738 127.877C97.1738 125.514 100.725 123.602 105.111 123.602C109.497 123.602 113.048 125.514 113.048 127.877Z" fill="#FABA12"/>
<path d="M93.2104 133.163V127.987H77.3359V134.063H77.4403C77.9625 136.088 81.3045 137.775 85.2732 137.775C89.4507 137.775 92.7927 136.088 93.2104 133.838C93.2104 133.725 93.2104 133.613 93.2104 133.5C93.2104 133.388 93.2104 133.275 93.2104 133.163Z" fill="#C99700"/>
<path d="M93.2104 128.549C93.2104 130.912 89.6595 132.824 85.2732 132.824C80.8868 132.824 77.3359 130.912 77.3359 128.549C77.3359 126.187 80.8868 124.274 85.2732 124.274C89.6595 124.274 93.2104 126.187 93.2104 128.549Z" fill="#FABA12"/>
<path d="M82.2422 126.076L78.9002 122.251L67.4121 134.064L71.2763 138.451L71.3807 138.339C73.0517 139.464 76.4982 138.114 79.4224 135.189C82.4511 132.039 83.8088 128.326 82.66 126.526C82.5555 126.414 82.5555 126.414 82.4511 126.301C82.4511 126.189 82.3466 126.076 82.2422 126.076Z" fill="#C99700"/>
<path d="M79.3144 122.701C80.7765 124.388 79.5233 128.438 76.2857 131.701C73.1526 134.963 69.2884 136.201 67.8263 134.513C66.3642 132.826 67.6174 128.776 70.855 125.513C73.9881 122.251 77.8523 121.013 79.3144 122.701Z" fill="#FABA12"/>
<path d="M123.494 53.3965L124.539 59.5843L131.849 62.3969L129.238 53.959L123.494 53.3965Z" fill="#726568"/>
<path d="M149.289 71.625C149.289 71.625 148.767 83.438 139.367 87.8257C139.889 95.701 155.451 91.2008 157.017 71.0625C152.317 71.625 149.289 71.625 149.289 71.625Z" fill="#726568"/>
<path d="M116.285 63.7478L124.327 59.3604L130.071 61.4978L121.716 67.6852L116.285 63.7478Z" fill="#726568"/>
<path d="M153.882 72.749C153.882 72.749 149.705 75.5616 147.094 72.1865C146.572 71.0614 150.749 58.236 152.316 54.8609C153.047 53.5109 155.658 53.6234 157.746 57.786C159.939 61.8361 153.882 72.749 153.882 72.749Z" fill="#807476"/>
<path d="M110.019 108.299C110.019 108.299 103.753 108.299 103.231 105.486C102.709 102.674 103.753 87.5985 104.797 86.4734C105.842 85.3484 110.541 89.286 111.064 90.411C111.586 91.5361 111.586 107.736 110.019 108.299Z" fill="#807476"/>
<path d="M122.865 76.1242C122.865 76.1242 118.896 79.7243 113.674 76.3492C108.452 72.974 111.585 65.6611 113.674 64.5361C115.763 63.411 118.896 62.8485 122.029 66.2237C124.013 69.7113 122.865 76.1242 122.865 76.1242Z" fill="#807476"/>
<path d="M139.68 53.9611L137.069 52.2734L133.414 54.5236L134.458 59.0239L140.725 54.5236L139.68 53.9611Z" fill="#726568"/>
<path d="M127.671 55.6482C127.671 55.6482 114.721 59.5858 111.588 42.8227C110.544 36.635 115.243 19.8718 133.938 22.6844C138.637 23.8095 143.337 31.1223 141.248 39.4476C139.159 47.8854 126.209 51.2605 126.209 51.2605L127.358 47.6604C127.358 47.6604 138.742 43.4977 133.729 31.4598C128.716 19.4218 122.554 28.3097 121.509 33.3723C120.465 38.435 118.899 45.1853 121.509 46.7603C124.12 48.4479 126.731 54.6356 126.731 54.6356L127.671 55.6482Z" fill="#807476"/>
<path d="M124.854 68.8117C124.854 68.8117 134.358 98.6251 119.945 103.013C122.87 108.525 127.883 111.901 133.104 105.713C138.326 99.5251 131.016 63.749 131.016 63.749L124.854 68.8117Z" fill="#726568"/>
<path d="M148.87 49.7975C148.975 49.5725 146.886 45.0723 139.575 45.0723C136.442 48.4475 136.964 52.3852 136.964 52.3852L141.664 55.7604L148.87 49.7975Z" fill="#807476"/>
<path d="M156.811 56.2093C155.767 55.0843 152.111 69.0347 151.589 71.2848C151.067 73.5349 151.067 74.0974 154.2 72.4098C154.2 75.2224 152.634 84.2227 149.501 88.0478C146.367 91.9855 142.712 89.7354 140.101 86.3603C137.49 82.9852 135.715 62.5095 135.715 62.5095C135.715 62.5095 138.848 60.822 141.981 58.5719C150.336 61.3845 150.336 50.1341 148.247 48.4465C140.937 43.3839 139.892 54.0717 139.892 54.0717C139.892 54.0717 137.281 56.3218 134.67 56.8843C133.626 55.7593 134.67 52.3842 134.67 52.3842C134.67 52.3842 139.892 50.1341 141.459 40.5713C143.025 31.0085 139.892 22.6832 130.075 23.2457C113.47 26.0583 115.558 43.9464 115.558 43.9464C117.334 57.1093 127.255 55.4218 127.778 55.4218C128.3 55.4218 128.822 60.4844 128.822 61.0469C128.822 61.6095 123.078 66.6721 122.034 66.1096C114.201 62.172 113.679 71.7348 114.723 73.9849C116.289 77.9225 119.945 77.9225 122.034 76.7975C124.122 75.6724 124.122 71.7348 124.644 71.1723C125.167 70.6098 129.344 66.6721 130.388 67.2346C131.433 67.7972 132.477 83.4352 132.999 91.3105C133.522 99.1857 129.344 104.698 124.122 104.136C118.9 103.573 117.334 100.198 117.856 99.0732C118.378 97.9482 120.467 98.5107 120.989 96.2606C119.423 93.448 113.679 89.5104 110.545 88.9479C108.457 95.6981 108.979 107.961 110.023 107.961C111.068 107.961 111.59 105.711 113.156 104.586C116.812 114.711 132.895 111.899 135.506 112.461C138.117 113.024 137.072 114.149 138.639 114.149C140.206 114.149 142.817 110.774 143.861 110.211C144.905 109.649 145.427 108.524 144.905 106.273C144.383 104.023 147.516 98.9607 153.782 90.6354C160.049 82.1977 160.049 71.6223 160.049 70.4973C160.049 69.3722 163.182 70.4973 163.704 69.3722C164.017 68.5847 157.856 57.3343 156.811 56.2093ZM129.24 47.5465C125.062 47.5465 121.72 43.6089 121.72 38.8837C121.72 34.0461 125.062 30.2209 129.24 30.2209C133.417 30.2209 136.759 34.1586 136.759 38.8837C136.759 43.7214 133.313 47.5465 129.24 47.5465Z" fill="#A5A4A9"/>
<path d="M120.986 96.5992C120.986 96.5992 111.064 83.3232 105.111 86.361C108.14 87.5986 110.333 89.7362 110.333 89.7362C110.333 89.7362 116.077 90.4113 120.986 96.5992Z" fill="#807476"/>
<path d="M66.4692 72.9739V67.7988H50.6992V73.8739H50.8036C51.3258 75.8989 54.6678 77.4739 58.6364 77.4739C62.8139 77.4739 66.1559 75.7864 66.4692 73.5364C66.4692 73.4239 66.4692 73.3114 66.4692 73.1989C66.4692 73.1989 66.4692 73.0864 66.4692 72.9739Z" fill="#C99700"/>
<path d="M66.4702 68.361C66.4702 70.7235 62.9193 72.636 58.533 72.636C54.1466 72.636 50.5957 70.7235 50.5957 68.361C50.5957 65.9984 54.1466 64.0859 58.533 64.0859C62.9193 64.1984 66.4702 66.1109 66.4702 68.361Z" fill="#FABA12"/>
<path d="M75.5552 70.4975V65.3223H59.7852V71.3975H59.8896C60.4118 73.4226 63.7538 74.9976 67.7224 74.9976C71.8999 74.9976 75.2419 73.3101 75.5552 71.06C75.5552 70.9475 75.5552 70.835 75.5552 70.7225C75.5552 70.61 75.5552 70.4975 75.5552 70.4975Z" fill="#C99700"/>
<path d="M75.5561 65.8854C75.5561 68.2479 72.0052 70.1604 67.6189 70.1604C63.2325 70.1604 59.6816 68.2479 59.6816 65.8854C59.6816 63.5229 63.2325 61.6104 67.6189 61.6104C72.0052 61.6104 75.5561 63.5229 75.5561 65.8854Z" fill="#FABA12"/>
<path d="M83.7036 77.9234V72.748H67.9336V78.8235H68.038C68.5602 80.8487 71.9022 82.4238 75.8708 82.4238C80.0483 82.4238 83.3903 80.7361 83.7036 78.486C83.7036 78.3734 83.7036 78.261 83.7036 78.1484C83.7036 78.1484 83.7036 78.0359 83.7036 77.9234Z" fill="#C99700"/>
<path d="M83.7026 73.3112C83.7026 75.6737 80.1518 77.5862 75.7654 77.5862C71.379 77.5862 67.8281 75.6737 67.8281 73.3112C67.8281 70.9487 71.379 69.0361 75.7654 69.0361C80.1518 69.0361 83.7026 70.9487 83.7026 73.3112Z" fill="#FABA12"/>
<path d="M90.8052 68.1353V62.96H75.0352V69.0354H75.1396C75.6618 71.0605 79.0038 72.6357 82.9724 72.6357C87.1499 72.6357 90.4919 70.948 90.8052 68.6979C90.8052 68.5854 90.8052 68.4728 90.8052 68.3603C90.9096 68.2478 90.9096 68.1353 90.8052 68.1353Z" fill="#C99700"/>
<path d="M90.9096 63.5231C90.9096 65.8856 87.3588 67.7981 82.9724 67.7981C78.586 67.7981 75.0352 65.8856 75.0352 63.5231C75.0352 61.1606 78.586 59.248 82.9724 59.248C87.3588 59.248 90.9096 61.1606 90.9096 63.5231Z" fill="#FABA12"/>
<path d="M96.2309 79.6117V74.4365H80.4609V80.5118H80.5653C81.0875 82.5369 84.4295 84.1119 88.3981 84.1119C92.5756 84.1119 95.9176 82.4243 96.2309 80.1742C96.2309 80.0617 96.2309 79.9492 96.2309 79.8367C96.2309 79.8367 96.2309 79.7242 96.2309 79.6117Z" fill="#C99700"/>
<path d="M96.2339 74.9989C96.2339 77.3615 92.683 79.274 88.2966 79.274C83.9103 79.274 80.3594 77.3615 80.3594 74.9989C80.3594 72.6362 83.9103 70.7236 88.2966 70.7236C92.683 70.7236 96.2339 72.6362 96.2339 74.9989Z" fill="#FABA12"/>
<path d="M103.127 73.4234V68.248H87.3574V74.3235H87.4619C87.9841 76.3487 91.326 77.9238 95.2947 77.9238C99.4722 77.9238 102.814 76.2361 103.127 73.986C103.127 73.8734 103.127 73.761 103.127 73.6484C103.232 73.6484 103.127 73.5359 103.127 73.4234Z" fill="#C99700"/>
<path d="M103.232 68.8112C103.232 71.1737 99.681 73.0862 95.2947 73.0862C90.9083 73.0862 87.3574 71.1737 87.3574 68.8112C87.3574 66.4487 90.9083 64.5361 95.2947 64.5361C99.681 64.5361 103.232 66.4487 103.232 68.8112Z" fill="#FABA12"/>
<path d="M51.1177 68.474V63.2988H35.3477V69.3741H35.4521C35.9743 71.3992 39.3163 72.9742 43.2849 72.9742C47.4624 72.9742 50.8044 71.2866 51.1177 69.0366C51.1177 68.9241 51.1177 68.8116 51.1177 68.6991C51.2221 68.6991 51.1177 68.5865 51.1177 68.474Z" fill="#C99700"/>
<path d="M51.2221 63.8592C51.2221 66.2218 47.6713 68.1344 43.2849 68.1344C38.8985 68.1344 35.3477 66.2218 35.3477 63.8592C35.3477 61.4966 38.8985 59.584 43.2849 59.584C47.6713 59.6965 51.2221 61.6091 51.2221 63.8592Z" fill="#FABA12"/>
<path d="M59.2658 65.7729V61.6104H46.6289V66.4479H46.7334C47.1511 68.1354 49.762 69.3729 52.9996 69.3729C56.3416 69.3729 59.057 68.0229 59.2658 66.2229C59.2658 66.1104 59.2658 66.1104 59.2658 65.9979C59.2658 65.8854 59.2658 65.8854 59.2658 65.7729Z" fill="#C99700"/>
<path d="M59.261 62.0608C59.261 63.9734 56.4412 65.4361 52.9948 65.4361C49.5483 65.4361 46.7285 63.8609 46.7285 62.0608C46.7285 60.1482 49.5483 58.6855 52.9948 58.6855C56.4412 58.6855 59.261 60.2607 59.261 62.0608Z" fill="#FABA12"/>
<path d="M25.7383 63.8613C25.7383 63.8613 29.0803 60.0362 31.9001 58.9111C36.2864 59.5862 45.4769 64.5363 46.5213 65.4364C43.4926 66.1114 39.1063 68.8115 38.4796 69.7115C35.6598 68.5864 26.156 64.5363 25.7383 63.8613Z" fill="#757475"/>
<path d="M35.6545 100.922C35.6545 100.922 33.4951 104.259 33.6828 111.036C33.8706 117.812 16.0318 124.791 13.0273 119.633C13.7785 119.228 30.9601 99.6067 31.0539 99.6067C31.1478 99.5056 35.6545 100.922 35.6545 100.922Z" fill="#996859"/>
<path d="M8.61523 87.6734C8.61523 87.6734 8.99081 67.8499 27.6746 70.4795C43.8235 72.4012 45.6074 87.7746 41.5701 95.0567C41.5701 96.3715 40.3496 99.7092 38.0963 98.6978C36.9696 99.6081 35.2796 101.833 34.0591 100.721C32.9324 98.7989 31.8996 91.8202 27.2052 87.8757C23.3558 86.2575 11.8074 83.5267 8.61523 87.6734Z" fill="#C19581"/>
<path d="M8.05188 93.4381C8.05188 93.4381 7.30078 91.4152 7.30078 90.2015C7.30078 89.089 8.61522 87.673 8.61522 87.673C8.61522 87.673 12.183 82.5148 27.2991 87.9764C30.4913 90.1004 29.7402 95.3597 28.9891 96.978C28.238 98.5963 27.393 99.81 23.3558 99.6077C20.0696 99.81 19.0369 102.541 17.8163 102.945C16.5958 103.451 15.6569 101.833 15.6569 101.833C15.6569 101.833 13.7791 103.451 13.4974 101.732C13.2158 100.012 12.8402 97.7871 11.338 97.2814C9.83576 96.7757 9.17857 98.5963 7.95801 98.0906C6.83135 97.7871 7.58244 93.8426 8.05188 93.4381Z" fill="#B58978"/>
<path d="M7.76945 102.035C7.76945 102.035 4.95278 99.4049 7.3939 95.5615C7.30001 96.5729 7.11224 97.5844 7.95724 98.1912C7.48779 98.5958 6.83056 100.72 7.76945 102.035Z" fill="#996859"/>
<path d="M21.6641 100.114C21.6641 100.114 25.4196 105.677 27.5791 105.677C29.7385 105.677 30.4896 103.452 31.6163 102.036C32.7429 100.62 33.494 99.7095 34.339 101.024C33.494 99.4061 32.4613 96.1695 31.9918 95.057C31.5224 93.9444 30.3957 90.5055 27.2974 88.0781C28.6118 89.2918 30.0202 90.5055 29.4568 95.4615C29.0813 97.9901 27.6729 99.6084 25.5135 99.7095C23.3541 99.7095 21.8518 99.6084 21.6641 100.114Z" fill="#A57462"/>
<path d="M14.9028 93.7411C14.9028 93.7411 13.1189 99.4048 13.6823 101.731C13.9639 102.237 14.5273 102.439 15.3723 101.731C16.1234 101.731 16.2173 102.641 16.8745 102.742C17.5317 102.843 18.6584 102.945 18.5645 101.225C18.4706 99.5059 16.4989 94.0445 16.3111 93.7411C16.1234 93.4376 15.0906 93.0331 14.9028 93.7411Z" fill="#A57462"/>
<path d="M9.26901 89.0896C8.98735 90.1009 7.29735 90.6066 8.23623 91.9214C9.17512 93.2362 7.76678 93.7419 8.61178 94.8544C9.45678 95.9669 12.0857 96.8771 13.1185 96.068C14.2451 95.2589 14.9023 93.3373 15.2779 92.4271C15.6534 91.5169 15.6534 89.8987 14.6206 88.5839C13.5879 87.2691 9.64457 88.0782 9.26901 89.0896Z" fill="#A57462"/>
<path d="M20.4428 90.4044C20.4428 90.4044 18.7528 93.1352 19.3161 95.0569C19.8795 96.9787 21.7573 98.2935 23.635 98.4958C25.5128 98.6981 27.5784 98.4958 28.1417 96.2707C28.6112 94.0455 28.8928 92.5284 28.1417 91.5169C27.3906 90.4044 21.945 88.2804 20.4428 90.4044Z" fill="#A57462"/>
<path d="M29.6422 104.766C29.6422 104.766 31.2383 119.633 16.7795 120.746C15.1833 119.33 14.4322 119.33 13.3995 119.735C12.3667 120.139 10.0195 116.498 12.1789 112.25C13.8689 112.756 27.5767 105.777 27.5767 105.777L29.6422 104.766Z" fill="#B58978"/>
<path d="M11.2424 103.957C11.2424 103.957 10.5851 101.429 7.76847 102.036C7.29903 100.721 6.92349 99.8106 7.95626 98.1923C8.33182 98.2935 8.51958 98.3946 10.0218 97.4843C10.7729 96.9786 11.8996 97.1809 12.6507 98.4957C12.6507 100.721 12.369 103.755 11.2424 103.957Z" fill="#A57462"/>
<path d="M12.1792 112.15C12.2731 111.947 8.98699 109.115 11.2403 103.957C11.6159 103.755 12.6487 103.35 12.6487 98.5967C13.0242 99.6081 13.4936 101.833 13.4936 101.833C13.4936 101.833 13.6814 103.654 15.6531 101.934C16.3103 102.642 17.437 103.957 19.0331 102.035C20.0658 101.125 21.3803 100.114 21.8497 100.013C22.2253 100.721 25.793 105.677 27.8586 105.677C27.7647 108.407 28.4219 116.6 17.8125 119.128C16.3103 117.611 13.8692 117.004 13.3997 117.712C11.8036 117.813 11.6159 113.869 12.1792 112.15Z" fill="#C19581"/>
<path d="M40.349 98.2939C40.349 98.2939 37.1568 108.408 34.1523 104.969C34.5279 103.351 34.9035 101.328 35.6546 100.924C36.124 100.62 38.0957 98.7996 38.0957 98.7996C38.0957 98.7996 39.5979 99.4065 40.349 98.2939Z" fill="#996859"/>
<path d="M48.701 112.453C45.0394 113.262 44.5699 111.745 41.3777 113.667C38.1855 115.588 24.5716 125.803 23.8205 127.927C23.0694 130.051 22.4122 136.625 19.5955 136.423C16.7789 136.221 15.5583 135.108 16.5911 131.872C14.9011 131.771 12.7417 131.872 11.9906 130.456C11.7089 129.95 11.615 129.343 11.8028 128.332C12.3661 124.792 16.1217 125.904 17.9994 125.904C19.8772 126.006 22.0367 123.679 22.0367 123.679C22.0367 123.679 40.8144 111.037 41.3777 109.318C41.941 107.598 40.251 102.744 45.321 101.732C46.7294 101.631 47.4805 102.339 47.9499 103.249C48.4194 104.261 48.3255 105.576 48.0438 106.486C50.391 106.789 51.8932 111.34 48.701 112.453Z" fill="#9B695A"/>
<path d="M47.9496 103.351C44.8513 103.755 44.1002 109.621 41.9407 110.633C38.9363 111.846 21.473 128.433 18.7503 128.737C15.558 127.422 13.3986 129.04 12.1781 130.456C11.8964 129.95 11.8025 129.343 11.9903 128.332C12.5536 124.792 16.3092 125.905 18.1869 125.905C20.0647 126.006 22.2241 123.68 22.2241 123.68C22.2241 123.68 41.0019 111.037 41.5652 109.318C42.1285 107.598 40.4385 102.744 45.5085 101.732C46.7291 101.732 47.5741 102.339 47.9496 103.351Z" fill="#AF7E6E"/>
<path d="M46.1663 124.59C42.5986 123.174 42.9741 121.556 39.4064 121.353C35.7447 121.151 19.1264 122.061 17.5303 123.376C15.8403 124.792 12.0848 129.95 9.73756 128.231C7.39035 126.512 7.01478 124.792 9.45588 122.567C8.04755 121.556 6.26367 120.342 6.26367 118.825C6.26367 118.218 6.54533 117.611 7.10866 116.903C9.36199 114.274 11.897 117.308 13.4931 118.42C15.0892 119.533 17.9998 118.825 17.9998 118.825C17.9998 118.825 40.1575 118.926 41.4719 117.712C42.7864 116.499 43.7252 111.442 48.5136 113.566C49.7341 114.274 50.0158 115.285 49.9219 116.398C49.828 117.51 49.0769 118.623 48.4197 119.229C50.2974 120.747 49.2647 125.5 46.1663 124.59Z" fill="#A57462"/>
<path d="M49.9221 116.398C47.1055 114.982 43.5377 119.533 41.1905 119.129C37.9983 118.421 15.0895 122.466 12.5545 121.252C10.4889 118.319 7.86006 118.421 6.07617 118.926C6.07617 118.319 6.35783 117.713 6.92116 117.005C9.17449 114.375 11.7095 117.409 13.3056 118.522C14.9017 119.634 17.8123 118.926 17.8123 118.926C17.8123 118.926 39.97 119.027 41.2844 117.814C42.5989 116.6 43.5377 111.543 48.3261 113.667C49.7344 114.274 50.016 115.386 49.9221 116.398Z" fill="#AF7E6E"/>
<path d="M61.471 129.851C57.9033 128.435 58.2788 126.817 54.711 126.615C51.0494 126.413 34.4311 127.323 32.835 128.638C31.145 130.054 27.3894 135.212 25.0422 133.492C22.695 131.773 22.3195 130.054 24.7606 127.829C23.3522 126.817 21.5684 125.604 21.5684 124.086C21.5684 123.48 21.85 122.873 22.4134 122.165C24.6667 119.535 27.2017 122.569 28.7978 123.682C30.3939 124.794 33.3044 124.086 33.3044 124.086C33.3044 124.086 55.4622 124.188 56.7766 122.974C58.091 121.76 59.0299 116.703 63.8182 118.827C65.0388 119.535 65.3205 120.547 65.2266 121.659C65.1327 122.772 64.3816 123.884 63.7244 124.491C65.696 126.008 64.6632 130.762 61.471 129.851Z" fill="#A57462"/>
<path d="M65.3206 121.658C62.5039 120.242 58.9362 124.793 56.589 124.389C53.3967 123.681 30.4879 127.726 27.9529 126.513C25.8874 123.579 23.2585 123.681 21.4746 124.186C21.4746 123.579 21.7563 122.973 22.3196 122.265C24.5729 119.635 27.1079 122.669 28.704 123.782C30.3001 124.894 33.2107 124.186 33.2107 124.186C33.2107 124.186 55.3684 124.287 56.6829 123.074C57.9973 121.86 58.9362 116.803 63.7245 118.927C65.0389 119.534 65.4145 120.646 65.3206 121.658Z" fill="#AF7E6E"/>
</svg>
