<svg width="42" height="46" viewBox="0 0 42 46" fill="none" xmlns="http://www.w3.org/2000/svg">
<path d="M28.7305 43.3346C28.7305 43.3346 28.5683 43.3346 28.7305 43.3346C27.4328 38.7915 29.0549 38.0926 26.6218 34.4231C24.1887 30.7536 11.861 15.3768 9.42785 14.6779C7.15695 13.9789 0.182037 13.9789 0.0198294 10.4842C-0.142378 7.51367 0.668658 5.76631 3.26397 6.11578C3.9128 6.11578 4.39942 5.59155 4.39942 4.8926C4.23721 3.14524 4.39943 1.39787 5.37267 0.524188C5.85929 0.174715 6.50813 0 7.48137 0C11.2121 0.349473 10.5633 4.89262 10.7255 7.33893C10.8877 9.43577 12.9964 11.5326 13.483 11.8821L13.6452 12.0568C14.7807 13.6294 29.2171 33.3747 31.0014 33.8989C32.9479 34.4231 37.8141 31.802 39.4362 37.7431V37.9178C39.5984 39.4905 38.9496 40.5389 38.1385 41.2378C37.3275 41.762 36.5165 41.9368 35.7054 41.9368C35.2188 41.9368 34.8944 42.2862 34.7322 42.6357C33.7589 45.082 30.0282 46.6546 28.7305 43.3346Z" fill="#A57462"/>
<path d="M39.2728 39.6653C38.9483 40.539 37.9751 40.7137 37.4885 40.0148C35.7042 37.3937 30.838 37.0443 29.7025 34.7727C28.0805 31.278 9.91325 13.2803 7.96676 9.08665C7.80456 8.91191 7.80456 8.56243 7.96676 8.38769C8.61559 5.59193 7.64237 3.49512 6.66912 2.09724C6.0203 1.3983 6.66912 0.175156 7.48016 0.349892C11.2109 0.699362 10.5621 5.24247 10.7243 7.68876C10.8865 9.78558 12.9952 11.8824 13.4818 12.2319L13.644 12.4066C14.7795 13.9792 29.2159 33.7243 31.0002 34.2485C32.9467 34.7727 37.8129 32.1517 39.435 38.0927V38.2674C39.5972 38.6169 39.435 39.1411 39.2728 39.6653Z" fill="#AF7E6E"/>
<path d="M30.5176 2.09738C29.22 6.64049 30.842 7.33942 28.4089 11.0088C25.9758 14.6783 13.648 30.055 11.2149 30.7539C8.94404 31.4528 1.96915 31.4529 1.80694 34.9476C1.64473 37.918 2.45577 39.6654 5.05108 39.3159C5.69991 39.3159 6.18653 39.8401 6.18653 40.5391C6.02432 42.2864 6.18651 44.0338 7.15976 44.9074C7.64638 45.2569 8.29521 45.4317 9.26846 45.4317C12.9992 45.0822 12.3504 40.5391 12.5126 38.0928C12.6748 35.9959 14.7835 33.8991 15.2701 33.5497L15.4323 33.3749C16.5678 31.8023 31.0042 12.0573 32.7885 11.5331C34.735 11.0089 39.6012 13.6299 41.2233 7.6889V7.51415C41.3855 5.94154 40.7367 4.89314 39.9256 4.1942C39.1146 3.66999 38.3036 3.49527 37.4925 3.49527C37.0059 3.49527 36.6815 3.14578 36.5193 2.79631C35.7082 0.350022 31.8153 -1.22258 30.5176 2.09738Z" fill="#A57462"/>
<path d="M41.2239 5.7661C40.8995 4.89242 39.9263 4.71769 39.4397 5.41663C37.6554 8.03766 32.7892 8.38713 31.6537 10.6587C30.0317 14.1534 11.8644 32.1511 9.91796 36.3447C9.75575 36.5195 9.75575 36.869 9.91796 37.0437C10.5668 39.8395 9.59354 41.9363 8.6203 43.3342C7.97147 44.0331 8.6203 45.2562 9.43133 45.0815C13.1621 44.732 12.5133 40.1889 12.6755 37.7426C12.8377 35.6458 14.9464 33.549 15.433 33.1995L15.5952 33.0248C16.7307 31.4522 31.1671 11.7071 32.9514 11.1829C34.8979 10.6587 39.7641 13.2797 41.3862 7.33873V7.16398C41.3862 6.81451 41.3862 6.2903 41.2239 5.7661Z" fill="#AF7E6E"/>
</svg>
