<svg width="64" height="59" viewBox="0 0 64 59" fill="none" xmlns="http://www.w3.org/2000/svg">
<path d="M26.5328 58.8934C40.7549 58.8934 52.2842 46.4737 52.2842 31.1532C52.2842 15.8328 40.7549 3.41309 26.5328 3.41309C12.3106 3.41309 0.78125 15.8328 0.78125 31.1532C0.78125 46.4737 12.3106 58.8934 26.5328 58.8934Z" fill="#303038"/>
<path d="M46.4636 16.5958C47.7891 11.6142 44.4086 6.20078 38.913 4.50445C33.4174 2.80813 27.8878 5.47131 26.5622 10.4528C25.2367 15.4343 28.6172 20.8478 34.1128 22.5441C39.6084 24.2404 45.1381 21.5773 46.4636 16.5958Z" fill="#3F4462"/>
<path d="M45.782 14.7565C46.896 10.5692 44.1046 6.03411 39.5474 4.62712C34.9901 3.22014 30.3927 5.47404 29.2787 9.66136C28.1648 13.8487 30.9561 18.3838 35.5133 19.7907C40.0706 21.1977 44.668 18.9438 45.782 14.7565Z" fill="#B8C6E1"/>
<path d="M39.7891 15.108C39.7891 15.108 34.2349 16.6039 33.8562 10.3486C33.6037 7.49288 35.7497 5.72509 38.1481 5.45312C37.5169 7.76487 36.5071 12.5243 39.7891 15.108Z" fill="#FFC869"/>
<path d="M45.4679 1.37367C45.4679 1.37367 39.7874 -0.394092 38.0202 5.31712C37.5153 8.03675 36.3792 12.9321 39.6612 15.1078C40.6711 15.7877 42.9433 13.748 43.322 8.58068C43.7007 3.4134 44.4581 0.965728 45.4679 1.37367Z" fill="#FFC869"/>
<path d="M54.6811 3.14166C54.8073 3.27764 52.4089 3.00567 50.6416 5.04536C48.8743 7.08506 45.4661 13.2041 42.9414 10.7565C43.0676 9.66866 43.4463 5.86124 43.4463 5.72526C43.4463 5.58928 43.9513 1.10197 45.2136 1.37393C46.6022 0.422069 52.0302 -1.7536 54.6811 3.14166Z" fill="#FFC869"/>
<path d="M60.238 8.98875C60.238 9.12473 58.7232 7.49293 54.0526 8.98875C49.382 10.4846 47.9934 9.94064 47.8672 8.71678C48.2459 8.17285 50.8968 2.7335 54.6838 3.27744C57.7134 3.5494 60.4905 5.1812 60.238 8.98875Z" fill="#FFC869"/>
<path d="M61.7498 17.9634C61.6236 18.0994 61.3711 15.7877 56.953 13.748C52.5348 11.7083 51.6512 10.3485 52.4086 9.39665C53.0398 9.26067 58.2153 6.81301 60.8662 9.66861C62.8859 12.1163 64.022 15.2438 61.7498 17.9634Z" fill="#FFC869"/>
<path d="M59.352 24.0838C59.2258 24.0838 59.7307 21.9081 56.07 18.5085C52.5355 15.109 52.283 12.6614 53.2929 11.9814C53.924 12.1174 59.352 12.3894 60.9931 16.0609C62.3816 18.9165 62.5079 22.18 59.352 24.0838Z" fill="#FFC869"/>
<path d="M52.7881 12.7959C52.7881 12.7959 48.4962 16.0595 51.5258 20.5469C54.5554 24.8983 54.8078 30.0656 53.6717 31.6974C53.0406 33.1932 58.0899 30.3375 57.4587 26.3941C58.721 27.7539 61.1195 29.1137 63.7704 27.6179C62.2556 26.2581 59.226 27.21 59.3522 24.0824C59.0997 22.5866 58.9735 21.2268 55.439 17.8272C54.1767 16.1954 52.7881 14.2917 52.7881 12.7959Z" fill="#FFC869"/>
<path d="M50.5178 18.5088C50.5178 18.5088 47.9932 19.8687 49.2555 24.2202C50.5178 28.5717 47.6145 30.2035 46.9833 30.2035C46.4784 30.3395 51.4014 34.0111 54.1786 26.5319C53.9261 25.444 53.4212 22.7243 51.7801 20.6846C51.149 19.5967 50.5178 18.5088 50.5178 18.5088Z" fill="#FFC869"/>
<path d="M10.3755 40.8088C10.3755 40.8088 9.23938 43.3924 10.123 47.8798C10.5017 49.6476 12.9001 50.0556 12.9001 46.1121C12.9001 43.3924 13.2788 42.5766 13.91 42.8485C14.5412 43.1205 13.6575 47.1999 13.7838 48.8317C13.91 50.4635 17.192 51.8233 17.8232 50.7355C18.4544 49.6476 17.8232 45.5682 19.4642 45.1602C21.1053 44.7523 20.0954 50.0555 19.9692 51.1434C19.8429 52.2313 23.8824 54.6789 24.2611 52.0953C24.6398 49.5116 24.8923 46.792 26.0283 47.0639C27.2907 47.3359 34.1073 49.3756 36.7581 43.8004C37.768 41.6247 38.5254 36.8653 37.8942 34.6896C37.8942 34.6896 36.6319 24.8989 26.0283 21.3634C21.2315 20.0036 9.49184 20.5475 7.34588 35.7775C7.09342 39.585 10.3755 40.8088 10.3755 40.8088ZM24.1349 31.2901C27.0382 31.0181 29.3104 36.1854 29.3104 36.3214C30.0678 37.6812 30.194 39.449 29.8153 40.5368C28.8055 42.8485 22.3676 40.5368 20.979 38.905C19.7167 37.0013 21.3577 31.4261 24.1349 31.2901ZM15.9297 28.4344C18.3281 28.0265 17.5707 31.2901 17.5707 31.2901C17.5707 31.2901 16.4347 34.9616 15.4248 36.0494C14.4149 37.1373 11.2591 35.7775 10.5017 33.7377C9.87054 31.562 13.5313 28.8424 15.9297 28.4344Z" fill="white"/>
<path d="M39.7874 15.1073C39.7874 15.1073 34.2331 13.2036 38.1463 5.31641C37.6414 7.35618 36.0004 12.5236 39.7874 15.1073Z" fill="#F7B454"/>
<path d="M45.4666 1.37432C45.4666 1.37432 44.3305 0.966367 43.6993 5.18192C43.0682 9.39748 43.5731 10.4854 42.6895 12.2532C42.8157 10.3494 42.6895 6.94974 42.9419 5.18192C43.1944 3.27812 43.0682 0.558406 45.4666 1.37432Z" fill="#F7B454"/>
<path d="M47.9902 8.58153C47.9902 8.71751 50.6411 2.32655 54.8068 3.14241C53.292 2.05459 49.2526 2.87046 47.9902 8.58153Z" fill="#F7B454"/>
<path d="M52.4102 9.3984C52.4102 9.3984 57.8382 7.3578 60.3628 9.26238C59.7317 7.90196 55.1873 7.0857 52.4102 9.3984Z" fill="#F7B454"/>
<path d="M53.2909 11.8431C53.1646 11.8431 59.7287 11.4352 61.7485 17.9625C61.496 15.1068 58.7189 11.0272 53.2909 11.8431Z" fill="#F7B454"/>
<path d="M52.7871 12.7959C52.7871 12.7959 53.292 15.2435 56.8266 19.187C58.8463 21.3626 59.3512 23.6743 59.3512 24.2183C59.6037 21.7706 57.584 19.187 55.9429 17.4192C54.0494 14.9716 52.7871 12.7959 52.7871 12.7959Z" fill="#F7B454"/>
<path d="M50.5163 18.1006C50.5163 18.1006 54.0508 22.86 54.0508 26.5316C53.5459 24.7638 49.8851 19.4604 50.5163 18.1006Z" fill="#F7B454"/>
</svg>
