<svg width="150" height="28" viewBox="0 0 150 28" fill="none" xmlns="http://www.w3.org/2000/svg">
<path d="M13.3645 4.08802C13.4123 3.99015 13.4866 3.90768 13.579 3.84999C13.6714 3.7923 13.7781 3.76172 13.887 3.76172C13.9959 3.76172 14.1027 3.7923 14.1951 3.84999C14.2875 3.90768 14.3618 3.99015 14.4096 4.08802L17.177 9.72228C17.262 9.89474 17.4258 10.0145 17.6162 10.0423L23.8043 10.9457C24.2823 11.0157 24.4727 11.606 24.1272 11.9445L19.6492 16.3305C19.5815 16.3969 19.5309 16.4787 19.5016 16.5689C19.4724 16.6591 19.4655 16.755 19.4814 16.8485L20.5387 23.0406C20.6203 23.5192 20.1208 23.8843 19.6932 23.6586L14.1584 20.7344C14.0748 20.6902 13.9816 20.6671 13.887 20.6671C13.7924 20.6671 13.6992 20.6902 13.6156 20.7344L8.08088 23.6586C7.65322 23.8843 7.1538 23.5198 7.2354 23.0412L8.29211 16.849C8.30811 16.7555 8.3012 16.6594 8.27198 16.5691C8.24275 16.4788 8.19207 16.3969 8.12429 16.3305L3.64743 11.9445C3.30136 11.606 3.49234 11.0157 3.97035 10.9457L10.159 10.0429C10.3488 10.0145 10.5126 9.89474 10.5977 9.72228L13.365 4.08802H13.3645Z" fill="url(#paint0_linear_2429_430)"/>
<path d="M43.9211 4.08802C43.9689 3.99015 44.0432 3.90768 44.1356 3.84999C44.228 3.7923 44.3347 3.76172 44.4437 3.76172C44.5526 3.76172 44.6593 3.7923 44.7517 3.84999C44.8441 3.90768 44.9184 3.99015 44.9662 4.08802L47.7336 9.72228C47.8187 9.89474 47.9824 10.0145 48.1728 10.0423L54.3609 10.9457C54.8389 11.0157 55.0293 11.606 54.6838 11.9445L50.2058 16.3305C50.1381 16.3969 50.0875 16.4787 50.0583 16.5689C50.0291 16.6591 50.0221 16.755 50.038 16.8485L51.0953 23.0406C51.1769 23.5192 50.6775 23.8843 50.2498 23.6586L44.7151 20.7344C44.6315 20.6902 44.5383 20.6671 44.4437 20.6671C44.3491 20.6671 44.2559 20.6902 44.1723 20.7344L38.6375 23.6586C38.2099 23.8843 37.7104 23.5198 37.792 23.0412L38.8488 16.849C38.8648 16.7555 38.8578 16.6594 38.8286 16.5691C38.7994 16.4788 38.7487 16.3969 38.6809 16.3305L34.2041 11.9445C33.858 11.606 34.049 11.0157 34.527 10.9457L40.7157 10.0429C40.9055 10.0145 41.0692 9.89474 41.1543 9.72228L43.9217 4.08802H43.9211Z" fill="url(#paint1_linear_2429_430)"/>
<path d="M74.4797 4.08802C74.5275 3.99015 74.6018 3.90768 74.6942 3.84999C74.7866 3.7923 74.8933 3.76172 75.0023 3.76172C75.1112 3.76172 75.2179 3.7923 75.3103 3.84999C75.4027 3.90768 75.477 3.99015 75.5248 4.08802L78.2922 9.72228C78.3773 9.89474 78.541 10.0145 78.7314 10.0423L84.9195 10.9457C85.3975 11.0157 85.5879 11.606 85.2424 11.9445L80.7644 16.3305C80.6967 16.3969 80.6461 16.4787 80.6169 16.5689C80.5877 16.6591 80.5807 16.755 80.5966 16.8485L81.6539 23.0406C81.7355 23.5192 81.2361 23.8843 80.8084 23.6586L75.2737 20.7344C75.19 20.6902 75.0969 20.6671 75.0023 20.6671C74.9077 20.6671 74.8145 20.6902 74.7309 20.7344L69.1961 23.6586C68.7685 23.8843 68.269 23.5198 68.3506 23.0412L69.4073 16.849C69.4233 16.7555 69.4164 16.6594 69.3872 16.5691C69.358 16.4788 69.3073 16.3969 69.2395 16.3305L64.7627 11.9445C64.4166 11.606 64.6076 11.0157 65.0856 10.9457L71.2742 10.0429C71.4641 10.0145 71.6278 9.89474 71.7129 9.72228L74.4803 4.08802H74.4797Z" fill="url(#paint2_linear_2429_430)"/>
<path d="M105.034 4.08802C105.082 3.99015 105.157 3.90768 105.249 3.84999C105.341 3.7923 105.448 3.76172 105.557 3.76172C105.666 3.76172 105.773 3.7923 105.865 3.84999C105.957 3.90768 106.032 3.99015 106.08 4.08802L108.847 9.72228C108.932 9.89474 109.096 10.0145 109.286 10.0423L115.474 10.9457C115.952 11.0157 116.143 11.606 115.797 11.9445L111.319 16.3305C111.251 16.3969 111.201 16.4787 111.172 16.5689C111.142 16.6591 111.135 16.755 111.151 16.8485L112.209 23.0406C112.29 23.5192 111.791 23.8843 111.363 23.6586L105.828 20.7344C105.745 20.6902 105.652 20.6671 105.557 20.6671C105.462 20.6671 105.369 20.6902 105.286 20.7344L99.7508 23.6586C99.3231 23.8843 98.8237 23.5198 98.9053 23.0412L99.962 16.849C99.978 16.7555 99.9711 16.6594 99.9419 16.5691C99.9127 16.4788 99.862 16.3969 99.7942 16.3305L95.3174 11.9445C94.9713 11.606 95.1623 11.0157 95.6403 10.9457L101.829 10.0429C102.019 10.0145 102.183 9.89474 102.268 9.72228L105.035 4.08802H105.034Z" fill="url(#paint3_linear_2429_430)"/>
<path d="M135.591 4.08802C135.639 3.99015 135.713 3.90768 135.806 3.84999C135.898 3.7923 136.005 3.76172 136.114 3.76172C136.223 3.76172 136.329 3.7923 136.422 3.84999C136.514 3.90768 136.588 3.99015 136.636 4.08802L139.404 9.72228C139.489 9.89474 139.652 10.0145 139.843 10.0423L146.031 10.9457C146.509 11.0157 146.699 11.606 146.354 11.9445L141.876 16.3305C141.808 16.3969 141.757 16.4787 141.728 16.5689C141.699 16.6591 141.692 16.755 141.708 16.8485L142.765 23.0406C142.847 23.5192 142.347 23.8843 141.92 23.6586L136.385 20.7344C136.301 20.6902 136.208 20.6671 136.114 20.6671C136.019 20.6671 135.926 20.6902 135.842 20.7344L130.307 23.6586C129.88 23.8843 129.38 23.5198 129.462 23.0412L130.519 16.849C130.535 16.7555 130.528 16.6594 130.499 16.5691C130.469 16.4788 130.419 16.3969 130.351 16.3305L125.874 11.9445C125.528 11.606 125.719 11.0157 126.197 10.9457L132.386 10.0429C132.575 10.0145 132.739 9.89474 132.824 9.72228L135.592 4.08802H135.591Z" fill="url(#paint4_linear_2429_430)"/>
<defs>
<linearGradient id="paint0_linear_2429_430" x1="3.4707" y1="23.7271" x2="24.3987" y2="23.627" gradientUnits="userSpaceOnUse">
<stop stop-color="#CA9342"/>
<stop offset="0.331885" stop-color="#D3A347"/>
<stop offset="0.711985" stop-color="#D8AF53"/>
<stop offset="1" stop-color="#E0BF62"/>
</linearGradient>
<linearGradient id="paint1_linear_2429_430" x1="34.0273" y1="23.7271" x2="54.9553" y2="23.627" gradientUnits="userSpaceOnUse">
<stop stop-color="#CA9342"/>
<stop offset="0.331885" stop-color="#D3A347"/>
<stop offset="0.711985" stop-color="#D8AF53"/>
<stop offset="1" stop-color="#E0BF62"/>
</linearGradient>
<linearGradient id="paint2_linear_2429_430" x1="64.5859" y1="23.7271" x2="85.5139" y2="23.627" gradientUnits="userSpaceOnUse">
<stop stop-color="#CA9342"/>
<stop offset="0.331885" stop-color="#D3A347"/>
<stop offset="0.711985" stop-color="#D8AF53"/>
<stop offset="1" stop-color="#E0BF62"/>
</linearGradient>
<linearGradient id="paint3_linear_2429_430" x1="95.1406" y1="23.7271" x2="116.069" y2="23.627" gradientUnits="userSpaceOnUse">
<stop stop-color="#CA9342"/>
<stop offset="0.331885" stop-color="#D3A347"/>
<stop offset="0.711985" stop-color="#D8AF53"/>
<stop offset="1" stop-color="#E0BF62"/>
</linearGradient>
<linearGradient id="paint4_linear_2429_430" x1="125.697" y1="23.7271" x2="146.625" y2="23.627" gradientUnits="userSpaceOnUse">
<stop stop-color="#CA9342"/>
<stop offset="0.331885" stop-color="#D3A347"/>
<stop offset="0.711985" stop-color="#D8AF53"/>
<stop offset="1" stop-color="#E0BF62"/>
</linearGradient>
</defs>
</svg>
