<?xml version="1.0" encoding="utf-8"?>
<!-- Generator: Adobe Illustrator 25.0.0, SVG Export Plug-In . SVG Version: 6.00 Build 0)  -->
<svg version="1.1" xmlns="http://www.w3.org/2000/svg" xmlns:xlink="http://www.w3.org/1999/xlink" x="0px" y="0px"
	 viewBox="0 0 1000 1000" style="enable-background:new 0 0 1000 1000;" xml:space="preserve">
<style type="text/css">
	.st0{fill:#35290A;}
</style>
<g id="Layer_1">
</g>
<g id="Pattern_Layer_14">
	<g>
		<g>
			<g>
				<path class="st0" d="M220.4,63.2l-0.1,7.9c0,2.1-1.7,3.7-3.7,3.9l-0.2,13.1l11.7,0.2c1.6,0,2.9-1.2,3-2.8l0.6-36.5
					c0-1.6-1.2-2.9-2.9-3l-11.7-0.2l-0.2,13.4C218.9,59.4,220.4,61.2,220.4,63.2z"/>
				<path class="st0" d="M211.1,63.1l-0.1,7.9c0,0.7,0.6,1.3,1.3,1.3l1.7,0l2.3,0c0.1,0,0.2,0,0.3,0c0.6-0.1,1-0.6,1-1.3l0.1-7.9
					c0-0.6-0.4-1.1-1-1.3c-0.1,0-0.2-0.1-0.3-0.1l-2.3,0l-1.7,0C211.7,61.8,211.1,62.3,211.1,63.1z"/>
			</g>
			<path class="st0" d="M197.3,45.4l-0.2,9l-5.5-0.1c-3.5-0.1-6.3,2.7-6.4,6.2l-0.2,12.1c-0.1,3.5,2.7,6.3,6.2,6.4l5.5,0.1l-0.2,9
				c0,1.5,1.1,2.7,2.6,2.7L211,91c1.5,0,2.7-1.1,2.7-2.6l0-0.3l0.2-13.1l-1.7,0c-2.2,0-3.9-1.9-3.9-4l0.1-7.9c0-2.2,1.9-3.9,4-3.9
				l1.7,0l0.2-13.4l0,0c0-1.5-1.1-2.7-2.6-2.7L200,42.8C198.6,42.8,197.4,44,197.3,45.4z M191.3,74.6c-1,0-1.8-0.9-1.8-1.9l0.2-12.1
				c0-1,0.9-1.8,1.9-1.8l5.5,0.1l-0.3,15.9L191.3,74.6z"/>
		</g>
		<g>
			<g>
				<path class="st0" d="M776,156.3l-6.9-3.8c-1.8-1-2.5-3.2-1.7-5.1l-11.5-6.4l-5.7,10.2c-0.8,1.4-0.3,3.2,1.1,3.9l32,17.7
					c1.4,0.8,3.2,0.3,3.9-1.1l5.7-10.2l-11.8-6.5C780.1,156.7,777.8,157.3,776,156.3z"/>
				<path class="st0" d="M780.5,148.1l-6.9-3.8c-0.6-0.4-1.4-0.1-1.8,0.5l-0.8,1.5l-1.1,2c-0.1,0.1-0.1,0.2-0.1,0.3
					c-0.1,0.6,0.1,1.2,0.6,1.5l6.9,3.8c0.5,0.3,1.2,0.2,1.6-0.2c0.1-0.1,0.1-0.2,0.2-0.3l1.1-2l0.8-1.5
					C781.4,149.3,781.2,148.4,780.5,148.1z"/>
			</g>
			<path class="st0" d="M802.5,144.3l-7.9-4.4l2.7-4.8c1.7-3,0.6-6.9-2.4-8.5l-10.6-5.9c-3-1.7-6.9-0.6-8.5,2.4l-2.7,4.8l-7.9-4.4
				c-1.3-0.7-2.9-0.2-3.6,1l-5.7,10.3c-0.7,1.3-0.2,2.9,1,3.6l0.3,0.2l11.4,6.3l0.8-1.5c1.1-1.9,3.5-2.6,5.4-1.5l6.9,3.8
				c1.9,1.1,2.6,3.5,1.5,5.4l-0.8,1.5l11.7,6.5l0,0c1.3,0.7,2.9,0.2,3.6-1l5.7-10.3C804.3,146.6,803.8,145,802.5,144.3z
				 M779.6,125.2c0.5-0.9,1.6-1.2,2.5-0.7l10.6,5.9c0.9,0.5,1.2,1.6,0.7,2.5l-2.7,4.8l-13.9-7.7L779.6,125.2z"/>
		</g>
		<g>
			<g>
				<path class="st0" d="M137.5,834.2l-5.8-5.4c-1.5-1.4-1.7-3.7-0.4-5.3l-9.6-8.9l-8,8.6c-1.1,1.2-1,3,0.1,4.1l26.7,24.9
					c1.2,1.1,3,1,4.1-0.1l8-8.6l-9.8-9.2C141.4,835.6,139,835.6,137.5,834.2z"/>
				<path class="st0" d="M143.9,827.4l-5.8-5.4c-0.5-0.5-1.4-0.5-1.9,0.1l-1.2,1.3l-1.6,1.7c-0.1,0.1-0.1,0.2-0.2,0.3
					c-0.3,0.5-0.2,1.2,0.3,1.6l5.8,5.4c0.4,0.4,1.1,0.5,1.6,0.1c0.1-0.1,0.2-0.1,0.3-0.2l1.6-1.7l1.2-1.3
					C144.5,828.7,144.4,827.9,143.9,827.4z"/>
			</g>
			<path class="st0" d="M166.2,829l-6.6-6.1l3.8-4c2.4-2.5,2.2-6.5-0.3-8.9l-8.9-8.3c-2.5-2.4-6.5-2.2-8.9,0.3l-3.8,4l-6.6-6.1
				c-1.1-1-2.7-0.9-3.7,0.1l-8,8.6c-1,1.1-0.9,2.7,0.1,3.7l0.2,0.2l9.6,8.9l1.2-1.3c1.5-1.6,4-1.7,5.6-0.2l5.8,5.4
				c1.6,1.5,1.7,4,0.2,5.6l-1.2,1.3l9.8,9.1l0,0c1.1,1,2.7,0.9,3.7-0.1l8-8.6C167.3,831.6,167.2,830,166.2,829z M148.5,805
				c0.7-0.7,1.9-0.8,2.6-0.1l8.9,8.3c0.8,0.7,0.8,1.9,0.1,2.6l-3.8,4L144.8,809L148.5,805z"/>
		</g>
		<g>
			<g>
				<path class="st0" d="M990.1,295.9c1.2,1.6,1,4-0.6,5.3l-6,5.2c-1.6,1.4-3.9,1.3-5.4-0.2l-9.9,8.6l7.7,8.8
					c1.1,1.2,2.9,1.3,4.1,0.3l20-17.4v-19.4L990.1,295.9z"/>
				<path class="st0" d="M983.4,294.2l-6,5.2c-0.6,0.5-0.6,1.3-0.1,1.9l1.1,1.3l1.5,1.7c0.1,0.1,0.2,0.2,0.3,0.2
					c0.5,0.3,1.1,0.3,1.6-0.1l6-5.2c0.5-0.4,0.6-1.1,0.3-1.6c0-0.1-0.1-0.2-0.2-0.3l-1.5-1.7l-1.1-1.3
					C984.8,293.8,983.9,293.7,983.4,294.2z"/>
			</g>
			<path class="st0" d="M987.3,272.2l-6.8,5.9l-3.6-4.2c-2.3-2.6-6.2-2.9-8.9-0.6l-9.2,8c-2.6,2.3-2.9,6.2-0.6,8.9l3.6,4.2l-6.8,5.9
				c-1.1,1-1.2,2.6-0.3,3.7l7.7,8.9c1,1.1,2.6,1.2,3.7,0.3l0.3-0.2l9.9-8.6l-1.1-1.3c-1.4-1.7-1.3-4.2,0.4-5.6l6-5.2
				c1.7-1.4,4.2-1.3,5.6,0.4l1.1,1.3l10.1-8.8l0,0c1.1-1,1.2-2.6,0.3-3.7l-7.7-8.9C990.1,271.3,988.4,271.2,987.3,272.2z
				 M961.6,287.2c-0.7-0.8-0.6-2,0.2-2.6l9.2-8c0.8-0.7,2-0.6,2.6,0.2l3.6,4.2l-12,10.4L961.6,287.2z"/>
		</g>
		<g>
			<g>
				<path class="st0" d="M7.9,295.9l-7.7-8.8L0,287.3v19.4l7.6-6.6C8.8,299,9,297.1,7.9,295.9z"/>
			</g>
		</g>
		<g>
			<g>
				<path class="st0" d="M485.8,42.2l-4,7.5c-1,2-3.4,2.7-5.4,1.9l-6.6,12.4l11,5.9c1.5,0.8,3.4,0.2,4.2-1.3l18.3-34.4
					c0.8-1.5,0.2-3.4-1.3-4.2L491,24l-6.7,12.7C486.1,37.8,486.8,40.2,485.8,42.2z"/>
				<path class="st0" d="M477,37.5l-4,7.5c-0.4,0.7-0.1,1.5,0.6,1.9l1.6,0.9l2.2,1.2c0.1,0.1,0.2,0.1,0.3,0.1
					c0.6,0.1,1.3-0.1,1.6-0.7l4-7.5c0.3-0.6,0.2-1.3-0.3-1.7c-0.1-0.1-0.2-0.2-0.3-0.2l-2.2-1.2l-1.6-0.9
					C478.2,36.6,477.3,36.8,477,37.5z"/>
			</g>
			<path class="st0" d="M472.5,14.1l-4.5,8.5l-5.2-2.8c-3.3-1.7-7.3-0.5-9.1,2.8L447.6,34c-1.7,3.3-0.5,7.3,2.8,9.1l5.2,2.8
				l-4.5,8.5c-0.7,1.4-0.2,3.1,1.2,3.8l11.1,5.9c1.4,0.7,3.1,0.2,3.8-1.2l0.2-0.3l6.6-12.3l-1.6-0.9c-2.1-1.1-2.8-3.7-1.8-5.7l4-7.5
				c1.1-2.1,3.7-2.8,5.7-1.8l1.6,0.9l6.7-12.6l0,0c0.7-1.4,0.2-3.1-1.2-3.8l-11.1-5.9C474.9,12.2,473.2,12.7,472.5,14.1z
				 M452.6,38.9c-1-0.5-1.3-1.7-0.8-2.7l6.1-11.4c0.5-1,1.7-1.3,2.7-0.8l5.2,2.8l-7.9,14.9L452.6,38.9z"/>
		</g>
		<g>
			<g>
				<path class="st0" d="M280.4,288.1l7.5,2.4c2,0.6,3.1,2.7,2.6,4.7l12.5,4.1l3.6-11.1c0.5-1.5-0.3-3.2-1.9-3.7L270,273.2
					c-1.5-0.5-3.2,0.3-3.7,1.9l-3.6,11.1l12.8,4.2C276.3,288.5,278.4,287.5,280.4,288.1z"/>
				<path class="st0" d="M277.5,297l7.5,2.4c0.7,0.2,1.4-0.2,1.7-0.9l0.5-1.6l0.7-2.2c0-0.1,0.1-0.2,0.1-0.3c0-0.6-0.3-1.1-0.9-1.3
					l-7.5-2.4c-0.6-0.2-1.2,0.1-1.5,0.5c-0.1,0.1-0.1,0.2-0.1,0.3l-0.7,2.2l-0.5,1.6C276.4,296,276.8,296.8,277.5,297z"/>
			</g>
			<path class="st0" d="M256.6,305l8.6,2.8l-1.7,5.3c-1.1,3.3,0.7,6.8,4,7.9l11.6,3.8c3.3,1.1,6.8-0.7,7.9-4l1.7-5.3l8.6,2.8
				c1.4,0.5,2.9-0.3,3.3-1.7l3.6-11.2c0.5-1.4-0.3-2.9-1.7-3.3l-0.3-0.1l-12.4-4l-0.5,1.6c-0.7,2.1-2.9,3.2-5,2.6l-7.5-2.4
				c-2.1-0.7-3.2-2.9-2.6-5l0.5-1.6l-12.7-4.1l0,0c-1.4-0.5-2.9,0.3-3.3,1.7l-3.6,11.2C254.5,303,255.3,304.5,256.6,305z
				 M282.8,319.3c-0.3,1-1.4,1.5-2.3,1.2l-11.6-3.8c-1-0.3-1.5-1.4-1.2-2.3l1.7-5.3l15.1,4.9L282.8,319.3z"/>
		</g>
		<g>
			<g>
				<path class="st0" d="M426.7,719.1l-7.7-1.9c-2-0.5-3.3-2.5-2.9-4.5l-12.7-3.2l-2.8,11.4c-0.4,1.6,0.6,3.1,2.1,3.5l35.5,8.8
					c1.6,0.4,3.1-0.6,3.5-2.1l2.8-11.4l-13-3.3C430.7,718.4,428.7,719.6,426.7,719.1z"/>
				<path class="st0" d="M428.9,710l-7.7-1.9c-0.7-0.2-1.4,0.3-1.6,1l-0.4,1.7l-0.6,2.2c0,0.1,0,0.2,0,0.3c0,0.6,0.4,1.1,1,1.3
					l7.7,1.9c0.6,0.1,1.2-0.1,1.5-0.7c0.1-0.1,0.1-0.2,0.1-0.3l0.6-2.2l0.4-1.7C430.1,710.9,429.6,710.2,428.9,710z"/>
			</g>
			<path class="st0" d="M449.2,700.6l-8.7-2.2l1.3-5.4c0.8-3.4-1.2-6.8-4.6-7.6l-11.8-2.9c-3.4-0.8-6.8,1.2-7.6,4.6l-1.3,5.4
				l-8.7-2.2c-1.4-0.4-2.9,0.5-3.2,1.9l-2.8,11.4c-0.4,1.4,0.5,2.9,1.9,3.2l0.3,0.1l12.7,3.2l0.4-1.7c0.5-2.1,2.7-3.4,4.8-2.9
				l7.7,1.9c2.1,0.5,3.4,2.7,2.9,4.8l-0.4,1.7l13,3.2l0,0c1.4,0.4,2.9-0.5,3.2-1.9l2.8-11.4C451.5,702.4,450.6,701,449.2,700.6z
				 M422.1,688.2c0.2-1,1.3-1.6,2.3-1.4l11.8,2.9c1,0.2,1.6,1.3,1.4,2.3l-1.3,5.4l-15.4-3.8L422.1,688.2z"/>
		</g>
		<g>
			<g>
				<path class="st0" d="M943.8,799.1l-2.2-7.6c-0.6-2,0.5-4.1,2.4-4.8l-3.6-12.6l-11.3,3.2c-1.5,0.4-2.4,2-2,3.6l10.1,35.1
					c0.4,1.5,2,2.4,3.6,2l11.3-3.2l-3.7-12.9C946.4,802.2,944.4,801.1,943.8,799.1z"/>
				<path class="st0" d="M952.8,796.5l-2.2-7.6c-0.2-0.7-0.9-1.1-1.6-0.9l-1.7,0.5l-2.2,0.6c-0.1,0-0.2,0.1-0.3,0.1
					c-0.5,0.3-0.8,0.9-0.6,1.5l2.2,7.6c0.2,0.6,0.7,1,1.3,1c0.1,0,0.2,0,0.3,0l2.2-0.6l1.7-0.5C952.6,797.9,953,797.2,952.8,796.5z"
					/>
			</g>
			<path class="st0" d="M971.1,809.3l-2.5-8.7l5.3-1.5c3.3-1,5.3-4.4,4.3-7.8l-3.3-11.7c-1-3.3-4.4-5.3-7.8-4.3l-5.3,1.5l-2.5-8.7
				c-0.4-1.4-1.9-2.2-3.3-1.8l-11.3,3.2c-1.4,0.4-2.2,1.9-1.8,3.3l0.1,0.3l3.6,12.6l1.7-0.5c2.1-0.6,4.3,0.6,4.9,2.7l2.2,7.6
				c0.6,2.1-0.6,4.3-2.7,4.9l-1.7,0.5l3.7,12.9l0,0c0.4,1.4,1.9,2.2,3.3,1.8l11.3-3.2C970.7,812.2,971.5,810.7,971.1,809.3z
				 M968.3,779.7c1-0.3,2,0.3,2.3,1.3l3.3,11.7c0.3,1-0.3,2-1.3,2.3l-5.3,1.5l-4.4-15.3L968.3,779.7z"/>
		</g>
		<g>
			<g>
				<path class="st0" d="M147.8,563.5l2.6-7.5c0.7-2,2.7-3,4.7-2.5l4.3-12.4l-11.1-3.8c-1.5-0.5-3.2,0.3-3.7,1.8l-11.9,34.6
					c-0.5,1.5,0.3,3.2,1.8,3.7l11.1,3.8l4.4-12.7C148.1,567.6,147.1,565.4,147.8,563.5z"/>
				<path class="st0" d="M156.6,566.5l2.6-7.5c0.2-0.7-0.1-1.4-0.8-1.7l-1.6-0.6l-2.2-0.8c-0.1,0-0.2-0.1-0.3-0.1
					c-0.6,0-1.2,0.3-1.4,0.9l-2.6,7.5c-0.2,0.6,0,1.2,0.5,1.5c0.1,0.1,0.2,0.1,0.3,0.2l2.2,0.8l1.6,0.6
					C155.6,567.6,156.4,567.2,156.6,566.5z"/>
			</g>
			<path class="st0" d="M164.2,587.5l2.9-8.5l5.2,1.8c3.3,1.1,6.8-0.6,8-3.9l4-11.5c1.1-3.3-0.6-6.9-3.9-8l-5.2-1.8l2.9-8.5
				c0.5-1.4-0.3-2.9-1.6-3.4l-11.1-3.8c-1.4-0.5-2.9,0.3-3.4,1.6l-0.1,0.3l-4.3,12.4l1.6,0.6c2.1,0.7,3.2,3,2.5,5.1l-2.6,7.5
				c-0.7,2.1-3,3.2-5.1,2.5l-1.6-0.6l-4.4,12.7l0,0c-0.5,1.4,0.3,2.9,1.6,3.4l11.1,3.8C162.2,589.6,163.7,588.9,164.2,587.5z
				 M179,561.6c1,0.3,1.5,1.4,1.2,2.4l-4,11.5c-0.3,1-1.4,1.5-2.4,1.2l-5.2-1.8l5.2-15L179,561.6z"/>
		</g>
		<g>
			<g>
				<path class="st0" d="M405.7,64.7l-4.5,6.5c-1.2,1.7-3.5,2.2-5.2,1.1l-7.5,10.7l9.6,6.7c1.3,0.9,3.1,0.6,4-0.7l21-29.9
					c0.9-1.3,0.6-3.1-0.7-4l-9.6-6.7l-7.7,11C406.6,60.7,406.9,63,405.7,64.7z"/>
				<path class="st0" d="M398.1,59.4l-4.5,6.5c-0.4,0.6-0.3,1.4,0.3,1.8l1.4,1l1.9,1.3c0.1,0.1,0.2,0.1,0.3,0.2
					c0.6,0.2,1.2,0,1.5-0.5l4.5-6.5c0.4-0.5,0.3-1.2-0.1-1.6c-0.1-0.1-0.2-0.2-0.2-0.2l-1.9-1.3l-1.4-1
					C399.3,58.6,398.5,58.8,398.1,59.4z"/>
			</g>
			<path class="st0" d="M396.6,37.1l-5.2,7.4l-4.5-3.2c-2.8-2-6.8-1.3-8.7,1.5l-7,10c-2,2.8-1.3,6.8,1.5,8.7l4.5,3.2l-5.2,7.4
				c-0.8,1.2-0.5,2.9,0.7,3.7l9.6,6.8c1.2,0.8,2.8,0.5,3.7-0.7l0.2-0.3l7.5-10.7l-1.4-1c-1.8-1.3-2.2-3.7-1-5.5l4.5-6.5
				c1.3-1.8,3.7-2.2,5.5-1l1.4,1l7.7-11l0,0c0.8-1.2,0.5-2.9-0.7-3.7l-9.6-6.8C399.1,35.6,397.4,35.9,396.6,37.1z M375.2,57.9
				c-0.8-0.6-1-1.8-0.5-2.6l7-10c0.6-0.8,1.8-1,2.6-0.5l4.5,3.2l-9.1,13L375.2,57.9z"/>
		</g>
		<g>
			<g>
				<path class="st0" d="M377.1,144.3l-1.9-7.7c-0.5-2,0.6-4,2.6-4.7l-3.2-12.7l-11.4,2.8c-1.6,0.4-2.5,2-2.1,3.5L370,161
					c0.4,1.6,2,2.5,3.5,2.1l11.4-2.8l-3.3-13C379.6,147.5,377.6,146.3,377.1,144.3z"/>
				<path class="st0" d="M386.2,142l-1.9-7.7c-0.2-0.7-0.9-1.1-1.6-1l-1.7,0.4l-2.2,0.6c-0.1,0-0.2,0.1-0.3,0.1
					c-0.5,0.3-0.8,0.9-0.7,1.5l1.9,7.7c0.1,0.6,0.7,1,1.3,1c0.1,0,0.2,0,0.3,0l2.2-0.6l1.7-0.4C385.9,143.5,386.4,142.7,386.2,142z"
					/>
			</g>
			<path class="st0" d="M404,155.5l-2.2-8.7l5.4-1.3c3.4-0.8,5.4-4.2,4.6-7.6l-2.9-11.8c-0.8-3.4-4.2-5.4-7.6-4.6l-5.4,1.3l-2.2-8.7
				c-0.4-1.4-1.8-2.3-3.2-1.9L379,115c-1.4,0.4-2.3,1.8-1.9,3.2l0.1,0.3l3.2,12.7l1.7-0.4c2.1-0.5,4.3,0.8,4.8,2.9l1.9,7.7
				c0.5,2.1-0.8,4.3-2.9,4.8l-1.7,0.4l3.2,13l0,0c0.4,1.4,1.8,2.3,3.2,1.9l11.4-2.8C403.5,158.4,404.4,156.9,404,155.5z
				 M402.3,125.8c1-0.2,2,0.4,2.3,1.4l2.9,11.8c0.2,1-0.4,2-1.4,2.3l-5.4,1.3l-3.8-15.4L402.3,125.8z"/>
		</g>
		<g>
			<g>
				<path class="st0" d="M417.3,544.5l-7.1-3.5c-1.9-0.9-2.7-3.1-1.9-5l-11.8-5.7l-5.1,10.5c-0.7,1.4-0.1,3.2,1.3,3.9l32.8,16
					c1.4,0.7,3.2,0.1,3.9-1.3l5.1-10.5l-12.1-5.9C421.3,544.7,419.1,545.4,417.3,544.5z"/>
				<path class="st0" d="M421.3,536.1l-7.1-3.5c-0.7-0.3-1.5,0-1.8,0.6l-0.8,1.6l-1,2.1c-0.1,0.1-0.1,0.2-0.1,0.3
					c-0.1,0.6,0.2,1.2,0.7,1.4l7.1,3.5c0.6,0.3,1.2,0.1,1.6-0.3c0.1-0.1,0.1-0.2,0.2-0.3l1-2.1l0.8-1.6
					C422.3,537.2,422,536.4,421.3,536.1z"/>
			</g>
			<path class="st0" d="M443.1,531.1l-8.1-3.9l2.4-5c1.5-3.1,0.2-6.9-2.9-8.4l-10.9-5.3c-3.1-1.5-6.9-0.2-8.4,2.9l-2.4,5l-8.1-3.9
				c-1.3-0.6-2.9-0.1-3.5,1.2l-5.2,10.6c-0.6,1.3-0.1,2.9,1.2,3.5l0.3,0.1l11.8,5.7l0.8-1.6c1-2,3.3-2.8,5.3-1.8l7.1,3.5
				c2,1,2.8,3.3,1.8,5.3l-0.8,1.6l12,5.9l0,0c1.3,0.6,2.9,0.1,3.5-1.2l5.2-10.6C445,533.3,444.4,531.7,443.1,531.1z M419.2,513.3
				c0.4-0.9,1.6-1.3,2.5-0.9l10.9,5.3c0.9,0.4,1.3,1.6,0.9,2.5l-2.4,5l-14.3-7L419.2,513.3z"/>
		</g>
		<g>
			<g>
				<path class="st0" d="M913.4,562.9l6.5,4.5c1.7,1.2,2.2,3.5,1.1,5.2l10.7,7.5l6.7-9.6c0.9-1.3,0.6-3.1-0.7-4l-29.9-21
					c-1.3-0.9-3.1-0.6-4,0.7l-6.7,9.6l11,7.7C909.4,562.1,911.7,561.7,913.4,562.9z"/>
				<path class="st0" d="M908.1,570.6l6.5,4.5c0.6,0.4,1.4,0.3,1.8-0.3l1-1.4l1.3-1.9c0.1-0.1,0.1-0.2,0.2-0.3
					c0.2-0.6,0-1.2-0.5-1.5l-6.5-4.5c-0.5-0.4-1.2-0.3-1.6,0.1c-0.1,0.1-0.2,0.2-0.2,0.2l-1.3,1.9l-1,1.4
					C907.3,569.3,907.5,570.2,908.1,570.6z"/>
			</g>
			<path class="st0" d="M885.8,572.1l7.4,5.2l-3.2,4.5c-2,2.8-1.3,6.8,1.5,8.7l10,7c2.8,2,6.8,1.3,8.7-1.5l3.2-4.5l7.4,5.2
				c1.2,0.8,2.9,0.5,3.7-0.7l6.8-9.6c0.8-1.2,0.5-2.8-0.7-3.7l-0.3-0.2l-10.7-7.5l-1,1.4c-1.3,1.8-3.7,2.2-5.5,1l-6.5-4.5
				c-1.8-1.3-2.2-3.7-1-5.5l1-1.4l-11-7.7l0,0c-1.2-0.8-2.9-0.5-3.7,0.7l-6.8,9.6C884.3,569.6,884.6,571.2,885.8,572.1z
				 M906.6,593.4c-0.6,0.8-1.8,1-2.6,0.5l-10-7c-0.8-0.6-1-1.8-0.5-2.6l3.2-4.5l13,9.1L906.6,593.4z"/>
		</g>
		<g>
			<g>
				<path class="st0" d="M909.8,711.8l7.3-3.1c1.9-0.8,4.1,0,5,1.8l12.1-5.1l-4.6-10.8c-0.6-1.5-2.3-2.2-3.8-1.5l-33.6,14.3
					c-1.5,0.6-2.2,2.3-1.5,3.8l4.6,10.8l12.4-5.3C907,714.7,907.9,712.6,909.8,711.8z"/>
				<path class="st0" d="M913.5,720.4l7.3-3.1c0.7-0.3,1-1.1,0.7-1.7l-0.7-1.6l-0.9-2.1c0-0.1-0.1-0.2-0.2-0.3
					c-0.4-0.5-1-0.7-1.6-0.4l-7.3,3.1c-0.6,0.2-0.9,0.8-0.8,1.4c0,0.1,0,0.2,0.1,0.3l0.9,2.1l0.7,1.6
					C912,720.3,912.8,720.7,913.5,720.4z"/>
			</g>
			<path class="st0" d="M902.9,740.1l8.3-3.5l2.2,5.1c1.4,3.2,5,4.7,8.2,3.3l11.2-4.7c3.2-1.4,4.7-5,3.3-8.2l-2.2-5.1l8.3-3.5
				c1.3-0.6,2-2.1,1.4-3.5l-4.6-10.8c-0.6-1.3-2.1-2-3.5-1.4l-0.3,0.1l-12,5.1l0.7,1.6c0.9,2-0.1,4.4-2.1,5.2l-7.3,3.1
				c-2,0.9-4.4-0.1-5.2-2.1l-0.7-1.6l-12.3,5.2l0,0c-1.3,0.6-2,2.1-1.4,3.5l4.6,10.8C900,740,901.6,740.6,902.9,740.1z M932,733.7
				c0.4,0.9,0,2-1,2.4l-11.2,4.7c-0.9,0.4-2,0-2.4-1l-2.2-5.1l14.6-6.2L932,733.7z"/>
		</g>
		<g>
			<g>
				<path class="st0" d="M776.3,583.4l2-8.7c0.5-2.3,2.7-3.7,5-3.4l3.3-14.5l-12.9-3c-1.8-0.4-3.5,0.7-3.9,2.5l-9.3,40.4
					c-0.4,1.8,0.7,3.5,2.5,3.9l12.9,3l3.4-14.8C777.1,588,775.7,585.7,776.3,583.4z"/>
				<path class="st0" d="M786.6,585.8l2-8.7c0.2-0.8-0.3-1.6-1.1-1.8l-1.9-0.4l-2.6-0.6c-0.1,0-0.3,0-0.4,0c-0.7,0-1.3,0.5-1.4,1.2
					l-2,8.7c-0.2,0.7,0.2,1.4,0.8,1.7c0.1,0.1,0.2,0.1,0.4,0.1l2.6,0.6l1.9,0.4C785.6,587.1,786.4,586.6,786.6,585.8z"/>
			</g>
			<path class="st0" d="M797.6,608.6l2.3-9.9l6.1,1.4c3.8,0.9,7.6-1.5,8.5-5.3l3.1-13.4c0.9-3.8-1.5-7.6-5.3-8.5l-6.1-1.4l2.3-9.9
				c0.4-1.6-0.6-3.2-2.2-3.6l-13-3c-1.6-0.4-3.2,0.6-3.6,2.2l-0.1,0.4l-3.3,14.4l1.9,0.4c2.4,0.6,3.9,3,3.4,5.4l-2,8.7
				c-0.6,2.4-3,3.9-5.4,3.4l-1.9-0.4l-3.4,14.8l0,0c-0.4,1.6,0.6,3.2,2.2,3.6l13,3C795.6,611.2,797.3,610.2,797.6,608.6z
				 M811.2,577.6c1.1,0.3,1.8,1.4,1.6,2.5l-3.1,13.4c-0.3,1.1-1.4,1.8-2.5,1.6l-6.1-1.4l4-17.5L811.2,577.6z"/>
		</g>
		<g>
			<g>
				<path class="st0" d="M104.2,400.9l-5.1-6.1c-1.3-1.6-1.2-3.9,0.3-5.4l-8.4-10l-9,7.5c-1.2,1-1.4,2.9-0.4,4.1l23.5,28
					c1,1.2,2.9,1.4,4.1,0.4l9-7.5l-8.6-10.3C107.9,402.8,105.6,402.5,104.2,400.9z"/>
				<path class="st0" d="M111.4,394.9l-5.1-6.1c-0.5-0.6-1.3-0.6-1.9-0.2l-1.3,1.1l-1.8,1.5c-0.1,0.1-0.2,0.2-0.2,0.3
					c-0.3,0.5-0.3,1.1,0.1,1.6l5.1,6.1c0.4,0.5,1,0.6,1.6,0.3c0.1,0,0.2-0.1,0.3-0.2l1.8-1.5l1.3-1.1
					C111.8,396.3,111.9,395.5,111.4,394.9z"/>
			</g>
			<path class="st0" d="M133.3,399.2l-5.8-6.9l4.2-3.5c2.7-2.2,3-6.2,0.8-8.8l-7.8-9.3c-2.2-2.7-6.2-3-8.8-0.8l-4.2,3.5l-5.8-6.9
				c-0.9-1.1-2.6-1.3-3.7-0.3l-9,7.6c-1.1,0.9-1.3,2.6-0.3,3.7l0.2,0.3l8.4,10l1.3-1.1c1.7-1.4,4.2-1.2,5.6,0.5l5.1,6.1
				c1.4,1.7,1.2,4.2-0.5,5.6l-1.3,1.1l8.6,10.3l0,0c0.9,1.1,2.6,1.3,3.7,0.3l9-7.6C134.1,402,134.3,400.4,133.3,399.2z M118.7,373.3
				c0.8-0.7,2-0.6,2.6,0.2l7.8,9.3c0.7,0.8,0.6,2-0.2,2.6l-4.2,3.5l-10.2-12.2L118.7,373.3z"/>
		</g>
		<g>
			<g>
				<path class="st0" d="M79.3,470.7l-8.7,3.2c-2.3,0.8-4.8-0.3-5.8-2.4l-14.4,5.2l4.7,12.8c0.6,1.8,2.6,2.7,4.3,2L99.6,477
					c1.8-0.6,2.7-2.6,2-4.3l-4.7-12.8l-14.7,5.4C82.8,467.4,81.6,469.9,79.3,470.7z"/>
				<path class="st0" d="M75.6,460.5l-8.7,3.2c-0.8,0.3-1.2,1.2-0.9,2l0.7,1.9l0.9,2.5c0,0.1,0.1,0.2,0.2,0.3
					c0.4,0.6,1.1,0.8,1.8,0.6l8.7-3.2c0.7-0.2,1.1-0.9,1-1.6c0-0.1,0-0.3-0.1-0.4l-0.9-2.5l-0.7-1.9
					C77.3,460.6,76.4,460.2,75.6,460.5z"/>
			</g>
			<path class="st0" d="M89.1,438.1l-9.9,3.6l-2.2-6.1c-1.4-3.8-5.6-5.8-9.4-4.4l-13.3,4.8c-3.8,1.4-5.8,5.6-4.4,9.4l2.2,6.1
				l-9.9,3.6c-1.6,0.6-2.4,2.4-1.8,4l4.7,12.9c0.6,1.6,2.4,2.4,4,1.8l0.4-0.1l14.3-5.2l-0.7-1.9c-0.9-2.4,0.4-5.1,2.8-5.9l8.7-3.2
				c2.4-0.9,5.1,0.4,5.9,2.8l0.7,1.9l14.7-5.3l0,0c1.6-0.6,2.4-2.4,1.8-4L93,440C92.5,438.4,90.7,437.6,89.1,438.1z M54.8,443.8
				c-0.4-1.1,0.2-2.4,1.3-2.8l13.3-4.8c1.1-0.4,2.4,0.2,2.8,1.3l2.2,6.1L57,449.8L54.8,443.8z"/>
		</g>
		<g>
			<g>
				<path class="st0" d="M60.5,224.6l-4-6.9c-1-1.8-0.5-4.1,1.2-5.2l-6.6-11.4L41,207.1c-1.4,0.8-1.9,2.6-1.1,4l18.3,31.6
					c0.8,1.4,2.6,1.9,4,1.1l10.1-5.9l-6.7-11.6C63.7,227.1,61.5,226.4,60.5,224.6z"/>
				<path class="st0" d="M68.5,220l-4-6.9c-0.4-0.6-1.2-0.8-1.8-0.5l-1.5,0.9l-2,1.2c-0.1,0.1-0.2,0.1-0.3,0.2
					c-0.4,0.4-0.5,1.1-0.2,1.6l4,6.9c0.3,0.5,0.9,0.8,1.5,0.6c0.1,0,0.2-0.1,0.3-0.1l2-1.2l1.5-0.9C68.7,221.4,68.9,220.6,68.5,220z
					"/>
			</g>
			<path class="st0" d="M89.4,228l-4.5-7.8l4.8-2.8c3-1.7,4-5.6,2.3-8.6l-6.1-10.5c-1.7-3-5.6-4-8.6-2.3l-4.8,2.8L68,191
				c-0.7-1.3-2.4-1.7-3.6-1L54.2,196c-1.3,0.7-1.7,2.4-1,3.6l0.2,0.3l6.5,11.3l1.5-0.9c1.9-1.1,4.3-0.4,5.4,1.5l4,6.9
				c1.1,1.9,0.4,4.3-1.5,5.4l-1.5,0.9l6.7,11.6l0,0c0.7,1.3,2.4,1.7,3.6,1l10.2-5.9C89.7,230.9,90.1,229.3,89.4,228z M79.5,199.9
				c0.9-0.5,2-0.2,2.5,0.7l6.1,10.5c0.5,0.9,0.2,2-0.7,2.5l-4.8,2.8l-7.9-13.7L79.5,199.9z"/>
		</g>
		<g>
			<g>
				<path class="st0" d="M192.3,367.7l-6.6,4.3c-1.7,1.1-4,0.7-5.3-0.9l-11,7.1l6.4,9.8c0.9,1.3,2.7,1.7,4,0.9l30.6-19.9
					c1.3-0.9,1.7-2.7,0.9-4l-6.4-9.8l-11.3,7.3C194.6,364.3,194,366.5,192.3,367.7z"/>
				<path class="st0" d="M187.2,359.8l-6.6,4.3c-0.6,0.4-0.8,1.2-0.4,1.8l0.9,1.4l1.3,1.9c0.1,0.1,0.1,0.2,0.2,0.3
					c0.4,0.4,1.1,0.5,1.6,0.1l6.6-4.3c0.5-0.3,0.7-1,0.5-1.5c0-0.1-0.1-0.2-0.1-0.3l-1.3-1.9l-0.9-1.5
					C188.6,359.6,187.8,359.4,187.2,359.8z"/>
			</g>
			<path class="st0" d="M194.1,338.6l-7.5,4.9l-3-4.6c-1.9-2.9-5.8-3.7-8.7-1.8l-10.2,6.6c-2.9,1.9-3.7,5.8-1.8,8.7l3,4.6l-7.5,4.9
				c-1.2,0.8-1.6,2.4-0.8,3.7l6.4,9.9c0.8,1.2,2.4,1.6,3.7,0.8l0.3-0.2l11-7.1l-0.9-1.5c-1.2-1.8-0.7-4.3,1.2-5.5l6.6-4.3
				c1.8-1.2,4.3-0.7,5.5,1.2l0.9,1.4l11.2-7.3l0,0c1.2-0.8,1.6-2.4,0.8-3.7l-6.4-9.9C197,338.1,195.4,337.8,194.1,338.6z
				 M166.6,349.9c-0.6-0.9-0.3-2,0.5-2.6l10.2-6.6c0.9-0.6,2-0.3,2.6,0.5l3,4.6l-13.3,8.6L166.6,349.9z"/>
		</g>
		<g>
			<g>
				<path class="st0" d="M213.9,132.9l2,7.6c0.5,2-0.6,4.1-2.5,4.7l3.4,12.7l11.3-3c1.5-0.4,2.5-2,2.1-3.6l-9.5-35.3
					c-0.4-1.5-2-2.5-3.6-2.1l-11.3,3l3.5,13C211.3,129.7,213.3,130.9,213.9,132.9z"/>
				<path class="st0" d="M204.8,135.3l2,7.6c0.2,0.7,0.9,1.1,1.6,0.9l1.7-0.4l2.2-0.6c0.1,0,0.2-0.1,0.3-0.1
					c0.5-0.3,0.8-0.9,0.6-1.5l-2-7.6c-0.2-0.6-0.7-1-1.3-1c-0.1,0-0.2,0-0.3,0l-2.2,0.6l-1.7,0.4
					C205.1,133.9,204.6,134.6,204.8,135.3z"/>
			</g>
			<path class="st0" d="M186.8,122.1l2.3,8.7l-5.3,1.4c-3.3,0.9-5.3,4.3-4.4,7.7l3.1,11.7c0.9,3.3,4.3,5.3,7.7,4.4l5.3-1.4l2.3,8.7
				c0.4,1.4,1.8,2.3,3.2,1.9l11.4-3c1.4-0.4,2.3-1.8,1.9-3.2l-0.1-0.3l-3.4-12.6l-1.7,0.4c-2.1,0.6-4.3-0.7-4.9-2.8l-2-7.6
				c-0.6-2.1,0.7-4.3,2.8-4.9l1.7-0.4l-3.5-12.9l0,0c-0.4-1.4-1.8-2.3-3.2-1.9l-11.4,3C187.2,119.3,186.4,120.7,186.8,122.1z
				 M189,151.9c-1,0.3-2-0.3-2.3-1.3l-3.1-11.7c-0.3-1,0.3-2,1.3-2.3l5.3-1.4l4.1,15.3L189,151.9z"/>
		</g>
		<g>
			<g>
				<path class="st0" d="M831.6,754.1l-7.5-2.4c-2-0.6-3.1-2.7-2.6-4.7l-12.5-4.1l-3.6,11.1c-0.5,1.5,0.3,3.2,1.9,3.7l34.8,11.3
					c1.5,0.5,3.2-0.3,3.7-1.9l3.6-11.1l-12.8-4.2C835.6,753.8,833.5,754.8,831.6,754.1z"/>
				<path class="st0" d="M834.5,745.2l-7.5-2.4c-0.7-0.2-1.4,0.2-1.7,0.9l-0.5,1.6l-0.7,2.2c0,0.1-0.1,0.2-0.1,0.3
					c0,0.6,0.3,1.1,0.9,1.3l7.5,2.4c0.6,0.2,1.2-0.1,1.5-0.5c0.1-0.1,0.1-0.2,0.1-0.3l0.7-2.2l0.5-1.6
					C835.5,746.2,835.1,745.5,834.5,745.2z"/>
			</g>
			<path class="st0" d="M855.3,737.3l-8.6-2.8l1.7-5.3c1.1-3.3-0.7-6.8-4-7.9l-11.6-3.8c-3.3-1.1-6.8,0.7-7.9,4l-1.7,5.3l-8.6-2.8
				c-1.4-0.5-2.9,0.3-3.3,1.7l-3.6,11.2c-0.5,1.4,0.3,2.9,1.7,3.3l0.3,0.1l12.4,4l0.5-1.6c0.7-2.1,2.9-3.2,5-2.6l7.5,2.4
				c2.1,0.7,3.2,2.9,2.6,5l-0.5,1.6l12.7,4.1l0,0c1.4,0.5,2.9-0.3,3.3-1.7l3.6-11.2C857.5,739.2,856.7,737.7,855.3,737.3z
				 M829.2,723c0.3-1,1.4-1.5,2.3-1.2l11.6,3.8c1,0.3,1.5,1.4,1.2,2.3l-1.7,5.3l-15.1-4.9L829.2,723z"/>
		</g>
		<g>
			<g>
				<path class="st0" d="M689.9,872.9l7.2,3.2c1.9,0.8,2.8,3,2.1,4.9l12,5.3l4.8-10.7c0.7-1.5,0-3.2-1.5-3.8L681.2,857
					c-1.5-0.7-3.2,0-3.8,1.5l-4.8,10.7l12.3,5.5C685.8,872.8,688,872,689.9,872.9z"/>
				<path class="st0" d="M686.1,881.4l7.2,3.2c0.7,0.3,1.5,0,1.7-0.7l0.7-1.6l0.9-2.1c0-0.1,0.1-0.2,0.1-0.3
					c0.1-0.6-0.2-1.2-0.8-1.4l-7.2-3.2c-0.6-0.2-1.2-0.1-1.6,0.4c-0.1,0.1-0.1,0.2-0.2,0.3l-0.9,2.1l-0.7,1.6
					C685.1,880.3,685.4,881.1,686.1,881.4z"/>
			</g>
			<path class="st0" d="M664.5,887.1l8.2,3.7l-2.2,5c-1.4,3.2,0,6.9,3.2,8.3l11.1,4.9c3.2,1.4,6.9,0,8.3-3.2l2.2-5l8.2,3.7
				c1.3,0.6,2.9,0,3.5-1.3l4.8-10.8c0.6-1.3,0-2.9-1.3-3.5l-0.3-0.1l-12-5.3l-0.7,1.6c-0.9,2-3.2,2.9-5.2,2l-7.2-3.2
				c-2-0.9-2.9-3.2-2-5.2l0.7-1.6l-12.2-5.5l0,0c-1.3-0.6-2.9,0-3.5,1.3l-4.8,10.8C662.6,885,663.2,886.5,664.5,887.1z M689,904.1
				c-0.4,0.9-1.5,1.4-2.5,0.9l-11.1-4.9c-0.9-0.4-1.4-1.5-0.9-2.5l2.2-5l14.5,6.5L689,904.1z"/>
		</g>
		<g>
			<g>
				<path class="st0" d="M806.9,877.5l4.7,10.6c1.2,2.8,0.1,6-2.5,7.4l7.8,17.6l15.7-7c2.1-1,3.1-3.5,2.2-5.6l-21.8-49
					c-1-2.1-3.5-3.1-5.6-2.2l-15.7,7l8,18C802.5,873.5,805.7,874.8,806.9,877.5z"/>
				<path class="st0" d="M794.4,883.1l4.7,10.6c0.4,1,1.6,1.4,2.6,1l2.3-1l3.1-1.4c0.2-0.1,0.3-0.2,0.4-0.3c0.7-0.5,0.9-1.5,0.6-2.3
					l-4.7-10.6c-0.4-0.8-1.2-1.3-2.1-1.1c-0.2,0-0.3,0.1-0.5,0.1l-3.1,1.4l-2.3,1C794.4,881,794,882.1,794.4,883.1z"/>
			</g>
			<path class="st0" d="M765.3,868.2l5.4,12.1l-7.4,3.3c-4.6,2.1-6.7,7.5-4.7,12.2l7.2,16.3c2.1,4.6,7.5,6.7,12.2,4.7l7.4-3.3
				l5.4,12.1c0.9,2,3.2,2.8,5.1,2l15.8-7c2-0.9,2.8-3.2,2-5.1l-0.2-0.5l-7.8-17.5l-2.3,1c-2.9,1.3-6.4,0-7.7-3l-4.7-10.6
				c-1.3-2.9,0-6.4,3-7.7l2.3-1l-8-18l0,0c-0.9-2-3.2-2.8-5.1-2l-15.8,7C765.3,863.9,764.4,866.2,765.3,868.2z M775.3,910.7
				c-1.4,0.6-3,0-3.6-1.4l-7.2-16.3c-0.6-1.4,0-3,1.4-3.6l7.4-3.3l9.5,21.3L775.3,910.7z"/>
		</g>
		<g>
			<g>
				<path class="st0" d="M571.7,742.4l1.9-7.7c0.5-2,2.5-3.3,4.5-2.9l3.2-12.7l-11.4-2.8c-1.6-0.4-3.1,0.6-3.5,2.1l-8.8,35.5
					c-0.4,1.6,0.6,3.1,2.1,3.5l11.4,2.8l3.3-13C572.3,746.5,571.2,744.4,571.7,742.4z"/>
				<path class="st0" d="M580.7,744.7l1.9-7.7c0.2-0.7-0.3-1.4-1-1.6L580,735l-2.2-0.6c-0.1,0-0.2,0-0.3,0c-0.6,0-1.1,0.4-1.3,1
					l-1.9,7.7c-0.1,0.6,0.1,1.2,0.7,1.5c0.1,0.1,0.2,0.1,0.3,0.1l2.2,0.6l1.7,0.4C579.8,745.8,580.5,745.4,580.7,744.7z"/>
			</g>
			<path class="st0" d="M590.1,765l2.2-8.7l5.4,1.3c3.4,0.8,6.8-1.2,7.6-4.6l2.9-11.8c0.8-3.4-1.2-6.8-4.6-7.6l-5.4-1.3l2.2-8.7
				c0.4-1.4-0.5-2.9-1.9-3.2l-11.4-2.8c-1.4-0.4-2.9,0.5-3.2,1.9l-0.1,0.3l-3.2,12.7l1.7,0.4c2.1,0.5,3.4,2.7,2.9,4.8l-1.9,7.7
				c-0.5,2.1-2.7,3.4-4.8,2.9l-1.7-0.4l-3.2,13l0,0c-0.4,1.4,0.5,2.9,1.9,3.2l11.4,2.8C588.3,767.2,589.8,766.4,590.1,765z
				 M602.6,737.9c1,0.2,1.6,1.3,1.4,2.3l-2.9,11.8c-0.2,1-1.3,1.6-2.3,1.4l-5.4-1.3l3.8-15.4L602.6,737.9z"/>
		</g>
		<g>
			<g>
				<path class="st0" d="M462.5,631.4l-8.3,6c-2.2,1.6-5.2,1.2-6.9-0.8l-13.8,10l8.9,12.3c1.2,1.7,3.6,2.1,5.3,0.8l38.4-27.9
					c1.7-1.2,2.1-3.6,0.8-5.3l-8.9-12.3l-14.1,10.3C465.3,626.9,464.7,629.8,462.5,631.4z"/>
				<path class="st0" d="M455.4,621.6l-8.3,6c-0.8,0.6-0.9,1.6-0.4,2.4l1.3,1.8l1.8,2.4c0.1,0.1,0.2,0.2,0.3,0.3
					c0.6,0.5,1.5,0.5,2.1,0.1l8.3-6c0.6-0.5,0.9-1.3,0.6-2c-0.1-0.1-0.1-0.3-0.2-0.4l-1.8-2.4l-1.3-1.8
					C457.2,621.2,456.2,621.1,455.4,621.6z"/>
			</g>
			<path class="st0" d="M463,593.6l-9.5,6.9l-4.2-5.8c-2.6-3.6-7.8-4.4-11.4-1.8l-12.8,9.3c-3.6,2.6-4.4,7.8-1.8,11.4l4.2,5.8
				l-9.5,6.9c-1.5,1.1-1.9,3.3-0.8,4.8l9,12.4c1.1,1.5,3.3,1.9,4.8,0.8l0.4-0.3l13.8-10l-1.3-1.8c-1.7-2.3-1.2-5.5,1.1-7.2l8.3-6
				c2.3-1.7,5.5-1.2,7.2,1.1l1.3,1.8l14.1-10.2l0,0c1.5-1.1,1.9-3.3,0.8-4.8l-9-12.4C466.7,592.8,464.5,592.5,463,593.6z
				 M427.9,610.1c-0.8-1.1-0.5-2.6,0.5-3.4l12.8-9.3c1.1-0.8,2.6-0.5,3.4,0.5l4.2,5.8L432.2,616L427.9,610.1z"/>
		</g>
		<g>
			<g>
				<path class="st0" d="M216.4,792.8l-4.7,6.4c-1.2,1.7-3.5,2.1-5.3,1l-7.7,10.6l9.5,6.9c1.3,0.9,3.1,0.7,4.1-0.6l21.5-29.6
					c0.9-1.3,0.7-3.1-0.6-4.1l-9.5-6.9l-7.9,10.9C217.3,788.8,217.6,791.1,216.4,792.8z"/>
				<path class="st0" d="M208.8,787.3l-4.7,6.4c-0.4,0.6-0.3,1.4,0.3,1.9l1.4,1l1.9,1.4c0.1,0.1,0.2,0.1,0.3,0.2
					c0.5,0.2,1.2,0,1.6-0.5l4.7-6.4c0.4-0.5,0.3-1.2-0.1-1.6c-0.1-0.1-0.1-0.2-0.2-0.2l-1.9-1.4l-1.4-1
					C210.1,786.6,209.2,786.7,208.8,787.3z"/>
			</g>
			<path class="st0" d="M207.7,765l-5.3,7.3l-4.5-3.2c-2.8-2-6.7-1.4-8.8,1.4l-7.1,9.8c-2,2.8-1.4,6.7,1.4,8.8l4.5,3.2l-5.3,7.3
				c-0.9,1.2-0.6,2.8,0.6,3.7l9.5,6.9c1.2,0.9,2.8,0.6,3.7-0.6l0.2-0.3l7.7-10.6l-1.4-1c-1.8-1.3-2.2-3.8-0.9-5.6l4.7-6.4
				c1.3-1.8,3.8-2.2,5.6-0.9l1.4,1l7.9-10.8l0,0c0.9-1.2,0.6-2.8-0.6-3.7l-9.5-6.9C210.2,763.6,208.6,763.8,207.7,765z M186,785.5
				c-0.8-0.6-1-1.8-0.4-2.6l7.1-9.8c0.6-0.8,1.8-1,2.6-0.4l4.5,3.2l-9.3,12.8L186,785.5z"/>
		</g>
		<g>
			<g>
				<path class="st0" d="M864.5,270L859,277c-1.4,1.9-4.1,2.2-6,1l-9.2,11.7l10.5,8.2c1.4,1.1,3.5,0.9,4.6-0.6l25.5-32.6
					c1.1-1.4,0.9-3.5-0.6-4.6l-10.5-8.2l-9.4,12C865.7,265.5,866,268.1,864.5,270z"/>
				<path class="st0" d="M856.2,263.5l-5.5,7.1c-0.5,0.7-0.4,1.6,0.3,2.1l1.5,1.2l2.1,1.6c0.1,0.1,0.2,0.1,0.3,0.2
					c0.6,0.3,1.3,0.1,1.8-0.4l5.5-7.1c0.4-0.5,0.4-1.3,0-1.8c-0.1-0.1-0.2-0.2-0.3-0.3l-2.1-1.6l-1.5-1.2
					C857.6,262.7,856.7,262.8,856.2,263.5z"/>
			</g>
			<path class="st0" d="M855.8,238.1l-6.3,8l-4.9-3.9c-3.1-2.4-7.6-1.9-10,1.2l-8.5,10.8c-2.4,3.1-1.9,7.6,1.2,10l4.9,3.9l-6.3,8
				c-1,1.3-0.8,3.2,0.5,4.2l10.5,8.2c1.3,1,3.2,0.8,4.2-0.5l0.2-0.3l9.1-11.7l-1.5-1.2c-2-1.5-2.3-4.4-0.8-6.3l5.5-7.1
				c1.5-2,4.4-2.3,6.3-0.8l1.5,1.2l9.4-12l0,0c1-1.3,0.8-3.2-0.5-4.2l-10.5-8.2C858.7,236.6,856.8,236.8,855.8,238.1z M830.4,260.4
				c-0.9-0.7-1.1-2-0.4-3l8.5-10.8c0.7-0.9,2-1.1,3-0.4l4.9,3.9l-11.1,14.2L830.4,260.4z"/>
		</g>
		<g>
			<g>
				<path class="st0" d="M737.8,90.8l-6.8-4.1c-1.8-1.1-2.4-3.3-1.5-5.1l-11.2-6.8l-6,10c-0.8,1.4-0.4,3.2,1,4l31.3,18.8
					c1.4,0.8,3.2,0.4,4-1l6-10l-11.5-6.9C741.9,91.4,739.6,91.9,737.8,90.8z"/>
				<path class="st0" d="M742.7,82.8l-6.8-4.1c-0.6-0.4-1.4-0.2-1.8,0.5l-0.9,1.5l-1.2,2c-0.1,0.1-0.1,0.2-0.1,0.3
					c-0.2,0.6,0.1,1.2,0.6,1.5l6.8,4.1c0.5,0.3,1.2,0.2,1.6-0.2c0.1-0.1,0.2-0.2,0.2-0.3l1.2-2l0.9-1.5
					C743.5,84,743.3,83.2,742.7,82.8z"/>
			</g>
			<path class="st0" d="M764.8,79.8l-7.7-4.6l2.8-4.7c1.8-3,0.8-6.8-2.1-8.6l-10.4-6.3c-3-1.8-6.8-0.8-8.6,2.1l-2.8,4.7l-7.7-4.6
				c-1.3-0.8-2.9-0.3-3.6,0.9l-6.1,10.1c-0.8,1.3-0.3,2.9,0.9,3.6l0.3,0.2l11.2,6.7l0.9-1.5c1.1-1.9,3.6-2.5,5.5-1.4l6.8,4.1
				c1.9,1.1,2.5,3.6,1.4,5.5l-0.9,1.5l11.5,6.9l0,0c1.3,0.8,2.9,0.3,3.6-0.9l6.1-10.1C766.4,82.1,766,80.5,764.8,79.8z M742.5,59.9
				c0.5-0.9,1.7-1.2,2.6-0.6l10.4,6.3c0.9,0.5,1.2,1.7,0.6,2.6l-2.8,4.7l-13.6-8.2L742.5,59.9z"/>
		</g>
		<g>
			<g>
				<path class="st0" d="M597.9,164.4l0.1-7.9c0-2.1,1.7-3.7,3.7-3.9l0.2-13.1l-11.7-0.2c-1.6,0-2.9,1.2-3,2.8l-0.6,36.5
					c0,1.6,1.2,2.9,2.9,3l11.7,0.2l0.2-13.4C599.4,168.2,597.9,166.5,597.9,164.4z"/>
				<path class="st0" d="M607.2,164.6l0.1-7.9c0-0.7-0.6-1.3-1.3-1.3l-1.7,0l-2.3,0c-0.1,0-0.2,0-0.3,0c-0.6,0.1-1,0.6-1,1.3
					l-0.1,7.9c0,0.6,0.4,1.1,1,1.3c0.1,0,0.2,0.1,0.3,0.1l2.3,0l1.7,0C606.6,165.9,607.2,165.3,607.2,164.6z"/>
			</g>
			<path class="st0" d="M621,182.2l0.2-9l5.5,0.1c3.5,0.1,6.3-2.7,6.4-6.2l0.2-12.1c0.1-3.5-2.7-6.3-6.2-6.4l-5.5-0.1l0.2-9
				c0-1.5-1.1-2.7-2.6-2.7l-11.8-0.2c-1.5,0-2.7,1.1-2.7,2.6l0,0.3l-0.2,13.1l1.7,0c2.2,0,3.9,1.9,3.9,4l-0.1,7.9
				c0,2.2-1.9,3.9-4,3.9l-1.7,0l-0.2,13.4l0,0c0,1.5,1.1,2.7,2.6,2.7l11.8,0.2C619.7,184.8,620.9,183.7,621,182.2z M627,153
				c1,0,1.8,0.9,1.8,1.9l-0.2,12.1c0,1-0.9,1.8-1.9,1.8l-5.5-0.1l0.3-15.9L627,153z"/>
		</g>
		<g>
			<g>
				<path class="st0" d="M780.8,215.8l4.7,6.4c1.2,1.7,0.9,4-0.6,5.3l7.7,10.6l9.5-6.9c1.3-0.9,1.6-2.8,0.6-4.1l-21.5-29.6
					c-0.9-1.3-2.8-1.6-4.1-0.6l-9.5,6.9l7.9,10.9C777.3,213.7,779.6,214.1,780.8,215.8z"/>
				<path class="st0" d="M773.3,221.3l4.7,6.4c0.4,0.6,1.3,0.7,1.9,0.3l1.4-1l1.9-1.4c0.1-0.1,0.2-0.2,0.2-0.2
					c0.4-0.5,0.4-1.1,0.1-1.6l-4.7-6.4c-0.4-0.5-1-0.7-1.6-0.5c-0.1,0-0.2,0.1-0.3,0.2l-1.9,1.4l-1.4,1
					C773,219.9,772.9,220.7,773.3,221.3z"/>
			</g>
			<path class="st0" d="M751.7,215.4l5.3,7.3l-4.5,3.2c-2.8,2-3.4,6-1.4,8.8l7.1,9.8c2,2.8,6,3.4,8.8,1.4l4.5-3.2l5.3,7.3
				c0.9,1.2,2.5,1.4,3.7,0.6l9.5-6.9c1.2-0.9,1.4-2.5,0.6-3.7l-0.2-0.3l-7.7-10.6l-1.4,1c-1.8,1.3-4.3,0.9-5.6-0.9l-4.7-6.4
				c-1.3-1.8-0.9-4.3,0.9-5.6l1.4-1l-7.9-10.8l0,0c-0.9-1.2-2.5-1.4-3.7-0.6l-9.5,6.9C751.1,212.6,750.9,214.3,751.7,215.4z
				 M764.5,242.4c-0.8,0.6-2,0.4-2.6-0.4l-7.1-9.8c-0.6-0.8-0.4-2,0.4-2.6l4.5-3.2l9.3,12.8L764.5,242.4z"/>
		</g>
		<g>
			<g>
				<path class="st0" d="M675.7,283.2l3.6,7.1c0.9,1.9,0.3,4.1-1.5,5.2l6,11.7l10.4-5.3c1.4-0.7,2-2.5,1.3-3.9l-16.6-32.6
					c-0.7-1.4-2.5-2-3.9-1.3l-10.4,5.3l6.1,12C672.5,280.6,674.7,281.4,675.7,283.2z"/>
				<path class="st0" d="M667.3,287.5l3.6,7.1c0.3,0.6,1.1,0.9,1.8,0.6l1.5-0.8l2.1-1.1c0.1-0.1,0.2-0.1,0.3-0.2
					c0.4-0.4,0.6-1,0.3-1.6l-3.6-7.1c-0.3-0.5-0.9-0.8-1.5-0.7c-0.1,0-0.2,0.1-0.3,0.1l-2.1,1.1l-1.5,0.8
					C667.3,286,667,286.8,667.3,287.5z"/>
			</g>
			<path class="st0" d="M647,278.4l4.1,8l-4.9,2.5c-3.1,1.6-4.3,5.4-2.7,8.4l5.5,10.8c1.6,3.1,5.4,4.3,8.4,2.7l4.9-2.5l4.1,8
				c0.7,1.3,2.3,1.8,3.6,1.2l10.5-5.3c1.3-0.7,1.8-2.3,1.2-3.6l-0.2-0.3l-5.9-11.7l-1.5,0.8c-2,1-4.4,0.2-5.3-1.7l-3.6-7.1
				c-1-2-0.2-4.3,1.7-5.3l1.5-0.8l-6.1-11.9l0,0c-0.7-1.3-2.3-1.8-3.6-1.2l-10.5,5.3C646.8,275.5,646.3,277,647,278.4z M655.3,307
				c-0.9,0.5-2,0.1-2.5-0.8l-5.5-10.8c-0.5-0.9-0.1-2,0.8-2.5l4.9-2.5l7.2,14.1L655.3,307z"/>
		</g>
		<g>
			<g>
				<path class="st0" d="M693.3,378.3l-7.9-0.7c-2.1-0.2-3.6-1.9-3.6-4l-13.1-1.1l-1,11.7c-0.1,1.6,1,3,2.6,3.1l36.4,3.2
					c1.6,0.1,3-1,3.1-2.6l1-11.7l-13.4-1.2C697.2,377,695.4,378.5,693.3,378.3z"/>
				<path class="st0" d="M694.1,369l-7.9-0.7c-0.7-0.1-1.4,0.5-1.4,1.2l-0.2,1.7l-0.2,2.3c0,0.1,0,0.2,0,0.3c0.1,0.6,0.6,1,1.2,1.1
					l7.9,0.7c0.6,0.1,1.2-0.3,1.4-0.9c0-0.1,0.1-0.2,0.1-0.3l0.2-2.3l0.2-1.7C695.4,369.7,694.8,369,694.1,369z"/>
			</g>
			<path class="st0" d="M712.7,356.5l-9-0.8l0.5-5.5c0.3-3.4-2.3-6.5-5.7-6.8l-12.1-1.1c-3.4-0.3-6.5,2.3-6.8,5.7l-0.5,5.5l-9-0.8
				c-1.5-0.1-2.7,1-2.9,2.4l-1,11.7c-0.1,1.5,0.9,2.7,2.4,2.9l0.3,0l13,1.1l0.2-1.7c0.2-2.2,2.1-3.8,4.3-3.6l7.9,0.7
				c2.2,0.2,3.8,2.1,3.6,4.3l-0.2,1.7l13.4,1.2l0,0c1.5,0.1,2.7-1,2.9-2.4l1-11.7C715.2,357.9,714.1,356.7,712.7,356.5z M684,348.5
				c0.1-1,1-1.8,2-1.7l12.1,1.1c1,0.1,1.8,1,1.7,2l-0.5,5.5l-15.8-1.4L684,348.5z"/>
		</g>
		<g>
			<g>
				<path class="st0" d="M295.3,838.2l-7.6-7.6c-2-2-2.1-5.2-0.3-7.3l-12.7-12.7l-11.3,11.3c-1.5,1.5-1.5,4.1,0,5.6l35.3,35.3
					c1.5,1.5,4.1,1.5,5.6,0l11.3-11.3l-13-13C300.5,840.3,297.3,840.2,295.3,838.2z"/>
				<path class="st0" d="M304.3,829.1l-7.6-7.6c-0.7-0.7-1.9-0.7-2.6,0l-1.7,1.7l-2.2,2.2c-0.1,0.1-0.2,0.2-0.3,0.4
					c-0.4,0.7-0.3,1.6,0.3,2.2l7.6,7.6c0.6,0.6,1.5,0.7,2.2,0.3c0.1-0.1,0.3-0.2,0.4-0.3l2.2-2.2l1.7-1.7
					C305.1,831,305.1,829.8,304.3,829.1z"/>
			</g>
			<path class="st0" d="M334.7,832.4l-8.7-8.7l5.3-5.3c3.3-3.3,3.3-8.8,0-12.1l-11.7-11.7c-3.3-3.3-8.8-3.3-12.1,0l-5.3,5.3
				l-8.7-8.7c-1.4-1.4-3.7-1.4-5.1,0l-11.4,11.4c-1.4,1.4-1.4,3.7,0,5.1l0.3,0.3l12.6,12.6l1.7-1.7c2.1-2.1,5.6-2.1,7.7,0l7.6,7.6
				c2.1,2.1,2.1,5.6,0,7.7l-1.7,1.7l13,13l0,0c1.4,1.4,3.7,1.4,5.1,0l11.4-11.4C336.1,836.1,336.1,833.8,334.7,832.4z M311.7,798.8
				c1-1,2.6-1,3.6,0l11.7,11.7c1,1,1,2.6,0,3.6l-5.3,5.3l-15.3-15.3L311.7,798.8z"/>
		</g>
		<g>
			<g>
				<path class="st0" d="M612.5,943.4l-6.8-4.6c-1.8-1.2-2.3-3.6-1.3-5.4l-11.2-7.6l-6.8,10c-0.9,1.4-0.6,3.2,0.8,4.2l31.3,21.1
					c1.4,0.9,3.2,0.6,4.2-0.8l6.8-10l-11.5-7.8C616.6,944.2,614.3,944.6,612.5,943.4z"/>
				<path class="st0" d="M617.9,935.4l-6.8-4.6c-0.6-0.4-1.5-0.3-1.9,0.4l-1,1.5l-1.3,2c-0.1,0.1-0.1,0.2-0.2,0.3
					c-0.2,0.6,0,1.2,0.5,1.6l6.8,4.6c0.5,0.4,1.2,0.3,1.7-0.1c0.1-0.1,0.2-0.2,0.2-0.3l1.3-2l1-1.5
					C618.7,936.6,618.5,935.8,617.9,935.4z"/>
			</g>
			<path class="st0" d="M640.9,933.4l-7.7-5.2l3.2-4.7c2-3,1.2-7-1.8-9l-10.4-7c-3-2-7-1.2-9,1.7l-3.2,4.7l-7.7-5.2
				c-1.3-0.8-3-0.5-3.8,0.7l-6.8,10.1c-0.8,1.3-0.5,3,0.7,3.8l0.3,0.2l11.2,7.6l1-1.5c1.3-1.9,3.8-2.4,5.7-1.1l6.8,4.6
				c1.9,1.3,2.4,3.8,1.1,5.7l-1,1.5L631,948l0,0c1.3,0.8,3,0.5,3.8-0.7l6.8-10.1C642.5,936,642.1,934.3,640.9,933.4z M619,911.8
				c0.6-0.9,1.8-1.1,2.7-0.5l10.4,7c0.9,0.6,1.1,1.8,0.5,2.7l-3.2,4.7l-13.6-9.2L619,911.8z"/>
		</g>
		<g>
			<g>
				<path class="st0" d="M679.8,182.3l2.9-11.8c0.8-3.1,3.8-5,6.9-4.5l4.9-19.5l-17.4-4.3c-2.4-0.6-4.8,0.9-5.4,3.2l-13.6,54.4
					c-0.6,2.4,0.9,4.8,3.2,5.4l17.4,4.3l5-20C680.7,188.5,679,185.4,679.8,182.3z"/>
				<path class="st0" d="M693.7,185.8l2.9-11.8c0.3-1.1-0.4-2.2-1.5-2.5l-2.6-0.6l-3.4-0.9c-0.2,0-0.3-0.1-0.5-0.1
					c-0.9,0-1.7,0.6-1.9,1.5l-2.9,11.8c-0.2,0.9,0.2,1.8,1,2.3c0.1,0.1,0.3,0.2,0.5,0.2l3.4,0.9l2.6,0.6
					C692.3,187.5,693.4,186.9,693.7,185.8z"/>
			</g>
			<path class="st0" d="M708.1,216.9l3.3-13.4l8.2,2c5.1,1.3,10.4-1.9,11.7-7l4.5-18.1c1.3-5.1-1.9-10.4-7-11.7l-8.2-2l3.3-13.4
				c0.5-2.2-0.8-4.4-3-4.9l-17.5-4.4c-2.2-0.5-4.4,0.8-4.9,3l-0.1,0.5l-4.9,19.5l2.6,0.6c3.3,0.8,5.3,4.1,4.4,7.4l-2.9,11.8
				c-0.8,3.3-4.1,5.3-7.4,4.4l-2.6-0.6l-5,19.9l0,0c-0.5,2.2,0.8,4.4,3,4.9l17.5,4.4C705.3,220.4,707.5,219,708.1,216.9z
				 M727.1,175.3c1.5,0.4,2.5,1.9,2.1,3.5l-4.5,18.1c-0.4,1.5-1.9,2.5-3.5,2.1l-8.2-2l5.9-23.6L727.1,175.3z"/>
		</g>
		<g>
			<g>
				<polygon class="st0" points="172.9,0 160.6,0 169.4,5.5 				"/>
			</g>
			<path class="st0" d="M172.3,7.3c-1,1.6-0.5,3.6,1.1,4.6l12.6,7.9c1.6,1,3.6,0.5,4.6-1.1l6-9.7l5.9,3.7c3.7,2.3,8.6,1.2,11-2.5
				L220,0h-6.6l-4.6,7.3c-0.7,1.1-2.1,1.4-3.2,0.8l-5.9-3.7l2.7-4.4h-25.5L172.3,7.3L172.3,7.3z"/>
		</g>
		<g>
			<g>
				<path class="st0" d="M177.2,984.4l5.3-8.5c1.4-2.2,4.3-3,6.6-1.8l8.8-14.1l-12.6-7.9c-1.7-1.1-4-0.6-5.1,1.2l-24.5,39.3
					c-1.1,1.7-0.6,4,1.2,5.1l3.7,2.3h12.3l5.6-8.9C176.4,989.5,175.8,986.7,177.2,984.4z"/>
				<path class="st0" d="M187.2,990.7l5.3-8.5c0.5-0.8,0.3-1.8-0.5-2.3l-1.9-1.2l-2.5-1.6c-0.1-0.1-0.3-0.1-0.4-0.2
					c-0.7-0.2-1.5,0-1.9,0.7l-5.3,8.5c-0.4,0.7-0.3,1.5,0.2,2c0.1,0.1,0.2,0.2,0.3,0.3l2.5,1.6l1.9,1.2
					C185.7,991.7,186.7,991.5,187.2,990.7z"/>
			</g>
			<path class="st0" d="M219.1,986.3l-5.9-3.7l6-9.7c1-1.6,0.5-3.6-1.1-4.6l-12.6-7.9c-1.6-1-3.6-0.5-4.6,1.1l-0.2,0.4l-8.8,14.1
				l1.9,1.2c2.4,1.5,3.1,4.6,1.6,6.9l-5.3,8.5c-1.5,2.4-4.6,3.1-6.9,1.6l-1.9-1.2l-4.4,7.1h25.5l7.9-12.7l5.9,3.7
				c1.1,0.7,1.4,2.1,0.7,3.2l-3.6,5.7h6.6l1.7-2.7C224,993.5,222.9,988.6,219.1,986.3z"/>
		</g>
		<g>
			<g>
				<path class="st0" d="M77.8,540.6l7.8-1.2c2.1-0.3,4,1,4.5,3l13-2.1l-1.8-11.6c-0.3-1.6-1.7-2.7-3.3-2.4L61.8,532
					c-1.6,0.3-2.7,1.7-2.4,3.3l1.8,11.6l13.3-2.1C74.3,542.8,75.7,540.9,77.8,540.6z"/>
				<path class="st0" d="M79.2,549.8l7.8-1.2c0.7-0.1,1.2-0.8,1.1-1.5l-0.3-1.7l-0.4-2.3c0-0.1-0.1-0.2-0.1-0.3
					c-0.2-0.5-0.8-0.9-1.4-0.8l-7.8,1.2c-0.6,0.1-1,0.6-1.1,1.2c0,0.1,0,0.2,0,0.3l0.4,2.3l0.3,1.7
					C77.8,549.4,78.5,549.9,79.2,549.8z"/>
			</g>
			<path class="st0" d="M64.3,566.4l8.9-1.4l0.9,5.5c0.5,3.4,3.8,5.8,7.2,5.2l12-1.9c3.4-0.5,5.8-3.8,5.2-7.2l-0.9-5.5l8.9-1.4
				c1.4-0.2,2.4-1.6,2.2-3l-1.8-11.6c-0.2-1.4-1.6-2.4-3-2.2l-0.3,0.1l-12.9,2l0.3,1.7c0.3,2.2-1.1,4.2-3.3,4.5l-7.8,1.2
				c-2.2,0.3-4.2-1.1-4.5-3.3l-0.3-1.7l-13.2,2.1l0,0c-1.4,0.2-2.4,1.6-2.2,3l1.8,11.6C61.5,565.6,62.8,566.6,64.3,566.4z
				 M94.1,567.3c0.2,1-0.5,2-1.5,2.1l-12,1.9c-1,0.2-2-0.5-2.1-1.5l-0.9-5.5l15.7-2.5L94.1,567.3z"/>
		</g>
		<g>
			<g>
				<path class="st0" d="M87.7,912l-3-9.8c-0.8-2.6,0.6-5.3,3-6.3l-5-16.3L68.1,884c-2,0.6-3.1,2.7-2.5,4.7l13.9,45.4
					c0.6,2,2.7,3.1,4.7,2.5l14.6-4.5l-5.1-16.7C91.1,916,88.4,914.6,87.7,912z"/>
				<path class="st0" d="M99.3,908.4l-3-9.8c-0.3-0.9-1.2-1.4-2.2-1.1l-2.1,0.7l-2.9,0.9c-0.1,0-0.3,0.1-0.4,0.2
					c-0.7,0.4-1,1.2-0.7,2l3,9.8c0.2,0.8,1,1.2,1.7,1.2c0.1,0,0.3,0,0.4-0.1l2.9-0.9l2.1-0.7C99,910.3,99.6,909.3,99.3,908.4z"/>
			</g>
			<path class="st0" d="M123.3,924.7l-3.4-11.2l6.9-2.1c4.3-1.3,6.7-5.9,5.4-10.2l-4.6-15.1c-1.3-4.3-5.9-6.7-10.2-5.4l-6.9,2.1
				l-3.4-11.2c-0.6-1.8-2.5-2.8-4.3-2.3l-14.6,4.5c-1.8,0.6-2.8,2.5-2.3,4.3l0.1,0.4l5,16.3l2.1-0.7c2.7-0.8,5.6,0.7,6.5,3.4l3,9.8
				c0.8,2.7-0.7,5.6-3.4,6.5l-2.1,0.7l5.1,16.7l0,0c0.6,1.8,2.5,2.8,4.3,2.3L121,929C122.8,928.5,123.9,926.5,123.3,924.7z
				 M119,886.2c1.3-0.4,2.6,0.3,3,1.6l4.6,15.1c0.4,1.3-0.3,2.6-1.6,3l-6.9,2.1l-6-19.7L119,886.2z"/>
		</g>
		<g>
			<g>
				<path class="st0" d="M251.8,553.4l-2.7,8.8c-0.7,2.3-3.1,3.7-5.4,3.2l-4.5,14.6l13.1,4c1.8,0.5,3.7-0.5,4.2-2.2L269,541
					c0.5-1.8-0.5-3.7-2.2-4.2l-13.1-4l-4.6,15C251.3,548.7,252.5,551.1,251.8,553.4z"/>
				<path class="st0" d="M241.4,550.2l-2.7,8.8c-0.2,0.8,0.2,1.7,1,1.9l1.9,0.6l2.6,0.8c0.1,0,0.3,0.1,0.4,0.1
					c0.7,0,1.3-0.4,1.5-1.1l2.7-8.8c0.2-0.7-0.1-1.4-0.7-1.8c-0.1-0.1-0.2-0.1-0.4-0.2l-2.6-0.8l-1.9-0.6
					C242.5,548.9,241.6,549.4,241.4,550.2z"/>
			</g>
			<path class="st0" d="M231.7,526l-3.1,10l-6.2-1.9c-3.9-1.2-8,1-9.1,4.9l-4.1,13.6c-1.2,3.9,1,8,4.9,9.1l6.2,1.9l-3.1,10
				c-0.5,1.6,0.4,3.4,2.1,3.9l13.1,4c1.6,0.5,3.4-0.4,3.9-2.1l0.1-0.4l4.5-14.6l-1.9-0.6c-2.4-0.7-3.8-3.3-3.1-5.8l2.7-8.8
				c0.7-2.4,3.3-3.8,5.8-3.1l1.9,0.6l4.6-15l0,0c0.5-1.6-0.4-3.4-2.1-3.9l-13.1-4C233.9,523.5,232.2,524.4,231.7,526z M215.5,556.8
				c-1.1-0.3-1.8-1.6-1.4-2.7l4.1-13.6c0.4-1.1,1.6-1.8,2.7-1.4l6.2,1.9l-5.4,17.7L215.5,556.8z"/>
		</g>
		<g>
			<g>
				<path class="st0" d="M927.8,897.5l9.6-6c2.5-1.6,5.8-0.9,7.6,1.4l15.9-10l-8.9-14.2c-1.2-1.9-3.8-2.5-5.7-1.3l-44.4,27.8
					c-1.9,1.2-2.5,3.8-1.3,5.7l8.9,14.2l16.3-10.2C924.4,902.3,925.3,899.1,927.8,897.5z"/>
				<path class="st0" d="M934.9,908.9l9.6-6c0.9-0.6,1.2-1.7,0.6-2.6l-1.3-2.1l-1.8-2.8c-0.1-0.1-0.2-0.3-0.3-0.4
					c-0.6-0.6-1.6-0.7-2.3-0.2l-9.6,6c-0.7,0.5-1,1.4-0.8,2.2c0,0.2,0.1,0.3,0.2,0.4l1.8,2.8l1.3,2.1
					C932.8,909.1,934,909.4,934.9,908.9z"/>
			</g>
			<path class="st0" d="M924.4,939.1l10.9-6.8l4.2,6.7c2.6,4.2,8.2,5.5,12.4,2.9l14.8-9.2c4.2-2.6,5.5-8.2,2.9-12.4l-4.2-6.7
				l10.9-6.8c1.8-1.1,2.3-3.5,1.2-5.2l-8.9-14.3c-1.1-1.8-3.5-2.3-5.2-1.2l-0.4,0.3l-15.9,9.9l1.3,2.1c1.7,2.7,0.9,6.2-1.8,7.8
				l-9.6,6c-2.7,1.7-6.2,0.9-7.8-1.8l-1.3-2.1l-16.3,10.2l0,0c-1.8,1.1-2.3,3.5-1.2,5.2l8.9,14.3
				C920.3,939.7,922.6,940.2,924.4,939.1z M964.2,923.6c0.8,1.2,0.4,2.9-0.8,3.7l-14.8,9.2c-1.2,0.8-2.9,0.4-3.7-0.8l-4.2-6.7
				l19.3-12.1L964.2,923.6z"/>
		</g>
		<g>
			<g>
				<path class="st0" d="M291,466.1l-8.5,6.7c-2.2,1.7-5.4,1.4-7.3-0.6l-14.1,11l9.9,12.6c1.3,1.7,3.8,2,5.6,0.7l39.4-30.7
					c1.7-1.3,2-3.8,0.7-5.6l-9.9-12.6l-14.5,11.3C293.7,461.2,293.2,464.4,291,466.1z"/>
				<path class="st0" d="M283.1,456.1l-8.5,6.7c-0.8,0.6-0.9,1.8-0.3,2.5l1.5,1.9l1.9,2.5c0.1,0.1,0.2,0.2,0.3,0.3
					c0.6,0.5,1.5,0.5,2.2,0l8.5-6.7c0.7-0.5,0.9-1.4,0.5-2.1c-0.1-0.1-0.1-0.3-0.2-0.4l-1.9-2.5l-1.5-1.9
					C285,455.6,283.9,455.4,283.1,456.1z"/>
			</g>
			<path class="st0" d="M290.1,426.3l-9.7,7.6l-4.6-5.9c-2.9-3.7-8.3-4.4-12-1.5l-13.1,10.2c-3.7,2.9-4.4,8.3-1.5,12l4.6,5.9
				l-9.7,7.6c-1.6,1.2-1.9,3.5-0.6,5.1l9.9,12.7c1.2,1.6,3.5,1.9,5.1,0.6l0.4-0.3l14.1-11l-1.5-1.9c-1.8-2.4-1.4-5.8,0.9-7.6
				l8.5-6.7c2.4-1.8,5.8-1.4,7.6,0.9l1.5,1.9l14.4-11.3l0,0c1.6-1.2,1.9-3.5,0.6-5.1l-9.9-12.7C293.9,425.4,291.6,425.1,290.1,426.3
				z M253.9,445c-0.9-1.1-0.7-2.7,0.4-3.6l13.1-10.2c1.1-0.9,2.7-0.7,3.6,0.4l4.6,5.9L258.5,451L253.9,445z"/>
		</g>
		<g>
			<g>
				<path class="st0" d="M64,813.9H72c2.1,0,3.8,1.6,3.9,3.6H89v-11.7c0-1.6-1.3-2.9-2.9-2.9H49.6c-1.6,0-2.9,1.3-2.9,2.9v11.7h13.4
					C60.3,815.5,62,813.9,64,813.9z"/>
				<path class="st0" d="M64,823.2H72c0.7,0,1.3-0.6,1.3-1.3v-1.7v-2.3c0-0.1,0-0.2,0-0.3c-0.1-0.6-0.7-1-1.3-1H64
					c-0.6,0-1.1,0.4-1.3,1c0,0.1,0,0.2,0,0.3v2.3v1.7C62.7,822.7,63.3,823.2,64,823.2z"/>
			</g>
			<path class="st0" d="M46.6,837.3h9v5.5c0,3.5,2.8,6.3,6.3,6.3h12.1c3.5,0,6.3-2.8,6.3-6.3v-5.5h9c1.5,0,2.6-1.2,2.6-2.6v-11.8
				c0-1.5-1.2-2.6-2.6-2.6H89H75.9v1.7c0,2.2-1.8,4-4,4H64c-2.2,0-4-1.8-4-4v-1.7H46.7h0c-1.5,0-2.6,1.2-2.6,2.6v11.8
				C44,836.1,45.2,837.3,46.6,837.3z M75.9,842.8c0,1-0.8,1.9-1.9,1.9H61.9c-1,0-1.9-0.8-1.9-1.9v-5.5h15.9V842.8z"/>
		</g>
		<g>
			<g>
				<path class="st0" d="M242.1,673.2l-4.3,7.2c-1.1,1.9-3.5,2.6-5.5,1.6l-7.2,12l10.7,6.4c1.5,0.9,3.4,0.4,4.2-1.1l20.1-33.4
					c0.9-1.5,0.4-3.4-1.1-4.2l-10.7-6.4l-7.4,12.3C242.7,668.9,243.2,671.3,242.1,673.2z"/>
				<path class="st0" d="M233.6,668.1l-4.3,7.2c-0.4,0.7-0.2,1.5,0.5,1.9l1.6,0.9l2.1,1.3c0.1,0.1,0.2,0.1,0.3,0.1
					c0.6,0.2,1.3-0.1,1.6-0.6l4.3-7.2c0.3-0.6,0.2-1.3-0.2-1.7c-0.1-0.1-0.2-0.2-0.3-0.2l-2.1-1.3l-1.6-0.9
					C234.8,667.2,234,667.4,233.6,668.1z"/>
			</g>
			<path class="st0" d="M230.3,644.5l-4.9,8.2l-5-3c-3.2-1.9-7.3-0.9-9.2,2.3l-6.7,11.1c-1.9,3.2-0.9,7.3,2.3,9.2l5,3l-4.9,8.2
				c-0.8,1.3-0.4,3.1,1,3.9l10.8,6.5c1.3,0.8,3.1,0.4,3.9-1l0.2-0.3l7.2-12l-1.6-0.9c-2-1.2-2.7-3.8-1.5-5.8l4.3-7.2
				c1.2-2,3.8-2.7,5.8-1.5l1.6,0.9l7.4-12.3l0,0c0.8-1.3,0.4-3.1-1-3.9l-10.8-6.5C232.8,642.7,231.1,643.1,230.3,644.5z
				 M209.2,668.2c-0.9-0.6-1.2-1.8-0.7-2.7l6.7-11.1c0.6-0.9,1.8-1.2,2.7-0.7l5,3l-8.7,14.5L209.2,668.2z"/>
		</g>
		<g>
			<g>
				<path class="st0" d="M852.7,170.1l7.6-6.6c2-1.7,4.9-1.6,6.8,0.2l12.5-10.9l-9.7-11.2c-1.3-1.5-3.7-1.7-5.2-0.4l-34.9,30.4
					c-1.5,1.3-1.7,3.7-0.4,5.2l9.7,11.2l12.8-11.2C850.5,174.7,850.7,171.8,852.7,170.1z"/>
				<path class="st0" d="M860.5,179l7.6-6.6c0.7-0.6,0.8-1.7,0.2-2.4l-1.4-1.7l-1.9-2.2c-0.1-0.1-0.2-0.2-0.3-0.3
					c-0.6-0.4-1.5-0.4-2,0.1l-7.6,6.6c-0.6,0.5-0.7,1.3-0.4,2c0.1,0.1,0.1,0.2,0.2,0.4l1.9,2.2l1.4,1.7
					C858.7,179.5,859.8,179.6,860.5,179z"/>
			</g>
			<path class="st0" d="M855.5,206.8l8.6-7.5l4.6,5.3c2.9,3.3,7.9,3.7,11.2,0.8l11.6-10.1c3.3-2.9,3.7-7.9,0.8-11.2l-4.6-5.3
				l8.6-7.5c1.4-1.2,1.5-3.3,0.3-4.7l-9.8-11.3c-1.2-1.4-3.3-1.5-4.7-0.3l-0.3,0.3l-12.5,10.9l1.4,1.7c1.8,2.1,1.6,5.3-0.5,7.1
				l-7.6,6.6c-2.1,1.8-5.3,1.6-7.1-0.5l-1.4-1.7l-12.8,11.1l0,0c-1.4,1.2-1.5,3.3-0.3,4.7l9.8,11.3
				C852,207.9,854.1,208.1,855.5,206.8z M888.1,187.8c0.9,1,0.7,2.5-0.2,3.3l-11.6,10.1c-1,0.9-2.5,0.7-3.3-0.2l-4.6-5.3l15.2-13.2
				L888.1,187.8z"/>
		</g>
		<g>
			<g>
				<path class="st0" d="M74.4,321.9l-8,7.7c-2.1,2-5.4,2-7.5,0.2l-13.2,12.8l11.4,11.8c1.6,1.6,4.1,1.7,5.7,0.1l36.8-35.5
					c1.6-1.6,1.7-4.1,0.1-5.7l-11.4-11.8l-13.5,13.1C76.7,316.6,76.5,319.9,74.4,321.9z"/>
				<path class="st0" d="M65.3,312.5l-8,7.7c-0.7,0.7-0.8,1.9,0,2.6l1.7,1.7l2.3,2.3c0.1,0.1,0.2,0.2,0.4,0.3
					c0.7,0.4,1.6,0.4,2.2-0.2l8-7.7c0.6-0.6,0.7-1.5,0.3-2.2c-0.1-0.1-0.2-0.3-0.3-0.4l-2.3-2.3l-1.7-1.7
					C67.3,311.8,66.1,311.8,65.3,312.5z"/>
			</g>
			<path class="st0" d="M69.2,281.5l-9.1,8.8l-5.4-5.6c-3.4-3.5-8.9-3.6-12.4-0.2l-12.2,11.8c-3.5,3.4-3.6,8.9-0.2,12.4l5.4,5.6
				l-9.1,8.8c-1.5,1.4-1.5,3.8-0.1,5.2l11.5,11.9c1.4,1.5,3.8,1.5,5.2,0.1l0.3-0.3l13.2-12.7l-1.7-1.7c-2.1-2.2-2.1-5.7,0.1-7.9
				l8-7.7c2.2-2.1,5.7-2.1,7.9,0.1l1.7,1.7l13.5-13l0,0c1.5-1.4,1.5-3.8,0.1-5.2l-11.5-11.9C73,280.1,70.7,280,69.2,281.5z
				 M34.4,304.4c-1-1-1-2.7,0.1-3.7l12.2-11.8c1-1,2.7-1,3.7,0.1l5.4,5.6l-16,15.4L34.4,304.4z"/>
		</g>
		<g>
			<g>
				<path class="st0" d="M763.5,6.2c2-0.3,3.3-2.1,3-4.1L766.1,0h-18.2l1.3,8.5L763.5,6.2z"/>
			</g>
			<path class="st0" d="M716.8,2.8l6.7-1.1l1.7,11c0.3,1.8,2,3,3.7,2.7l14.3-2.3c1.8-0.3,3-2,2.7-3.7L746,9l-1.4-9h-35
				C711.3,2.1,714,3.2,716.8,2.8z"/>
		</g>
		<g>
			<g>
				<path class="st0" d="M755.3,954.6l-14.3,2.3l2.6,16.4c2.5-0.2,4.8,1.6,5.2,4.1l1.5,9.6c0.4,2.5-1.2,4.9-3.7,5.5l1.2,7.5h18.2
					l-6.7-42.4C759.1,955.6,757.3,954.3,755.3,954.6z"/>
				<path class="st0" d="M737.5,979.1l1.5,9.6c0.1,0.9,1,1.5,1.9,1.4l2.1-0.3l2.8-0.4c0.1,0,0.3-0.1,0.4-0.1c0.7-0.3,1.1-1,1-1.7
					l-1.5-9.6c-0.1-0.7-0.7-1.3-1.5-1.4c-0.1,0-0.3,0-0.4,0l-2.8,0.4l-2.1,0.3C737.9,977.4,737.3,978.3,737.5,979.1z"/>
			</g>
			<path class="st0" d="M741.4,993.4c-2.7,0.4-5.2-1.4-5.6-4.1l-1.5-9.6c-0.4-2.7,1.4-5.2,4.1-5.6l2.1-0.3l-2.6-16.3l0,0
				c-0.3-1.8-2-3-3.7-2.7l-14.3,2.3c-1.8,0.3-3,2-2.7,3.7l1.7,11l-6.7,1.1c-4.2,0.7-7.1,4.6-6.4,8.9l2.3,14.8
				c0.2,1.4,0.8,2.6,1.6,3.7h35l-1.1-7L741.4,993.4z M715.9,997.4c-1.2,0.2-2.4-0.7-2.6-1.9l-2.3-14.8c-0.2-1.2,0.7-2.4,1.9-2.6
				l6.7-1.1l3.1,19.3L715.9,997.4z"/>
		</g>
		<g>
			<g>
				<path class="st0" d="M994.9,739.8l-7.7,15.8c-1.1,2.2-0.2,4.8,2,5.8l10.8,5.3v-24.4L994.9,739.8z"/>
			</g>
			<path class="st0" d="M994.4,730.7c-1,2-0.1,4.4,1.8,5.3l0.5,0.2l3.3,1.6v-18.7L994.4,730.7z"/>
		</g>
		<g>
			<g>
				<path class="st0" d="M44.3,783.4l7.7-15.8l-18.1-8.8c-1.6,2.6-4.9,3.7-7.7,2.3l-10.7-5.2c-2.8-1.4-4-4.6-2.9-7.5L0,742.3v24.4
					l38.5,18.8C40.6,786.5,43.2,785.6,44.3,783.4z"/>
				<path class="st0" d="M32.3,748.5l-10.7-5.2c-1-0.5-2.2-0.1-2.7,0.9l-1.1,2.3l-1.5,3.1c-0.1,0.2-0.1,0.3-0.2,0.5
					c-0.2,0.9,0.2,1.8,1.1,2.2l10.7,5.2c0.8,0.4,1.8,0.2,2.4-0.5c0.1-0.1,0.2-0.3,0.3-0.4l1.5-3.1l1.1-2.3
					C33.7,750.2,33.3,749,32.3,748.5z"/>
			</g>
			<path class="st0" d="M15.4,742.5c1.4-3,5-4.2,8-2.7l10.7,5.2c3,1.4,4.2,5,2.7,8l-1.1,2.3l18.1,8.8l0,0c2,1,4.4,0.1,5.3-1.8
				l7.7-15.9c1-2,0.1-4.4-1.8-5.3l-12.1-5.9l3.6-7.4c2.3-4.7,0.3-10.3-4.3-12.6l-16.4-8c-4.7-2.3-10.3-0.3-12.6,4.3l-3.6,7.4
				L7.4,713c-2-1-4.4-0.1-5.3,1.8L0,719.1v18.7l14.3,7L15.4,742.5z M29.1,714.3c0.7-1.4,2.3-2,3.7-1.3l16.4,8c1.4,0.7,2,2.3,1.3,3.7
				l-3.6,7.4l-21.4-10.4L29.1,714.3z"/>
		</g>
		<g>
			<g>
				<path class="st0" d="M374.7,481l-6.1,5.9c-1.6,1.5-4.1,1.6-5.7,0.1l-10.1,9.7l8.7,9c1.2,1.2,3.1,1.3,4.4,0.1l28-27.1
					c1.2-1.2,1.3-3.1,0.1-4.4l-8.7-9l-10.3,10C376.4,477,376.3,479.4,374.7,481z"/>
				<path class="st0" d="M367.8,473.8l-6.1,5.9c-0.6,0.5-0.6,1.4,0,2l1.3,1.3l1.7,1.8c0.1,0.1,0.2,0.2,0.3,0.2
					c0.5,0.3,1.2,0.3,1.7-0.2l6.1-5.9c0.5-0.5,0.6-1.2,0.2-1.7c-0.1-0.1-0.1-0.2-0.2-0.3l-1.7-1.8l-1.3-1.3
					C369.2,473.3,368.3,473.3,367.8,473.8z"/>
			</g>
			<path class="st0" d="M370.7,450.2l-6.9,6.7l-4.1-4.2c-2.6-2.7-6.8-2.7-9.5-0.2l-9.3,9c-2.7,2.6-2.7,6.8-0.2,9.5l4.1,4.2l-6.9,6.7
				c-1.1,1.1-1.2,2.9-0.1,4l8.7,9c1.1,1.1,2.9,1.2,4,0.1l0.3-0.3l10-9.7l-1.3-1.3c-1.6-1.7-1.6-4.4,0.1-6l6.1-5.9
				c1.7-1.6,4.4-1.6,6,0.1l1.3,1.3l10.3-9.9l0,0c1.1-1.1,1.2-2.9,0.1-4l-8.7-9C373.7,449.1,371.9,449.1,370.7,450.2z M344.2,467.6
				c-0.8-0.8-0.7-2,0-2.8l9.3-9c0.8-0.8,2-0.7,2.8,0l4.1,4.2l-12.2,11.8L344.2,467.6z"/>
		</g>
		<g>
			<g>
				<path class="st0" d="M291.3,219.8l-4.3-11.1c-1.1-2.9,0.2-6.1,3-7.5l-7.1-18.4l-16.4,6.3c-2.2,0.9-3.4,3.4-2.5,5.6l19.6,51.2
					c0.9,2.2,3.4,3.4,5.6,2.5l16.4-6.3l-7.2-18.8C295.5,224.2,292.4,222.7,291.3,219.8z"/>
				<path class="st0" d="M304.3,214.8l-4.3-11.1c-0.4-1-1.5-1.5-2.6-1.1l-2.4,0.9l-3.2,1.2c-0.2,0.1-0.3,0.2-0.4,0.2
					c-0.7,0.5-1,1.5-0.7,2.3l4.3,11.1c0.3,0.9,1.2,1.4,2.1,1.3c0.2,0,0.3,0,0.5-0.1l3.2-1.2l2.4-0.9
					C304.2,216.9,304.7,215.8,304.3,214.8z"/>
			</g>
			<path class="st0" d="M333.3,231.6l-4.8-12.6l7.7-3c4.8-1.9,7.3-7.3,5.4-12.2l-6.5-17c-1.9-4.8-7.3-7.3-12.2-5.4l-7.7,3l-4.8-12.6
				c-0.8-2.1-3.1-3.1-5.1-2.3l-16.5,6.3c-2,0.8-3.1,3.1-2.3,5.1l0.2,0.5l7,18.3l2.4-0.9c3.1-1.2,6.5,0.4,7.7,3.4l4.3,11.1
				c1.2,3.1-0.4,6.5-3.4,7.7l-2.4,0.9l7.2,18.8l0,0c0.8,2.1,3.1,3.1,5.1,2.3l16.5-6.3C333.1,235.9,334.1,233.6,333.3,231.6z
				 M325.3,187.6c1.4-0.6,3.1,0.2,3.6,1.6l6.5,17c0.6,1.4-0.2,3.1-1.6,3.6l-7.7,3l-8.5-22.2L325.3,187.6z"/>
		</g>
		<g>
			<g>
				<path class="st0" d="M564.3,48.4l-8.2-0.4c-2.1-0.1-3.8-1.9-3.9-4l-13.5-0.7l-0.6,12.1c-0.1,1.7,1.2,3.1,2.8,3.2l37.7,2
					c1.7,0.1,3.1-1.2,3.2-2.8l0.6-12.1l-13.9-0.7C568.3,46.9,566.4,48.5,564.3,48.4z"/>
				<path class="st0" d="M564.8,38.7l-8.2-0.4c-0.8,0-1.4,0.5-1.4,1.3l-0.1,1.8l-0.1,2.4c0,0.1,0,0.2,0,0.3c0.1,0.6,0.6,1.1,1.3,1.1
					l8.2,0.4c0.6,0,1.2-0.4,1.4-1c0-0.1,0.1-0.2,0.1-0.3l0.1-2.4l0.1-1.8C566.1,39.4,565.5,38.8,564.8,38.7z"/>
			</g>
			<path class="st0" d="M583.5,25.2l-9.3-0.5l0.3-5.7c0.2-3.6-2.6-6.6-6.1-6.8l-12.5-0.7c-3.6-0.2-6.6,2.6-6.8,6.1l-0.3,5.7
				l-9.3-0.5c-1.5-0.1-2.8,1.1-2.9,2.6l-0.6,12.2c-0.1,1.5,1.1,2.8,2.6,2.9l0.4,0l13.5,0.7l0.1-1.8c0.1-2.3,2.1-4,4.3-3.9l8.2,0.4
				c2.3,0.1,4,2.1,3.9,4.3l-0.1,1.8l13.8,0.7l0,0c1.5,0.1,2.8-1.1,2.9-2.6l0.6-12.2C586.2,26.6,585,25.3,583.5,25.2z M553.6,17.9
				c0.1-1.1,1-1.9,2-1.8l12.5,0.7c1.1,0.1,1.9,1,1.8,2l-0.3,5.7l-16.4-0.9L553.6,17.9z"/>
		</g>
		<g>
			<g>
				<path class="st0" d="M609.1,813l9,3.7c2.4,1,3.6,3.6,2.8,6l15,6.1l5.4-13.4c0.7-1.8-0.1-3.9-2-4.7l-41.8-16.9
					c-1.8-0.7-3.9,0.1-4.7,2l-5.4,13.4l15.4,6.2C604,813.1,606.7,812.1,609.1,813z"/>
				<path class="st0" d="M604.8,823.7l9,3.7c0.8,0.3,1.8-0.1,2.1-0.9l0.8-2l1.1-2.6c0.1-0.1,0.1-0.3,0.1-0.4c0.1-0.7-0.3-1.4-1-1.7
					l-9-3.7c-0.7-0.3-1.5,0-1.9,0.5c-0.1,0.1-0.2,0.2-0.2,0.4l-1.1,2.6l-0.8,2C603.5,822.4,603.9,823.4,604.8,823.7z"/>
			</g>
			<path class="st0" d="M578.4,831.7l10.3,4.2l-2.6,6.3c-1.6,4,0.3,8.5,4.3,10.1l13.9,5.6c4,1.6,8.5-0.3,10.1-4.3l2.6-6.3l10.3,4.2
				c1.7,0.7,3.6-0.1,4.3-1.8l5.4-13.5c0.7-1.7-0.1-3.6-1.8-4.3l-0.4-0.2l-15-6l-0.8,2c-1,2.5-3.9,3.7-6.4,2.7l-9-3.7
				c-2.5-1-3.7-3.9-2.7-6.4l0.8-2l-15.3-6.2l0,0c-1.7-0.7-3.6,0.1-4.3,1.8l-5.4,13.5C575.9,829.1,576.7,831,578.4,831.7z
				 M609.3,851.6c-0.5,1.2-1.8,1.7-3,1.3l-13.9-5.6c-1.2-0.5-1.7-1.8-1.3-3l2.6-6.3l18.1,7.3L609.3,851.6z"/>
		</g>
		<g>
			<g>
				<path class="st0" d="M478.8,138.1l7.5-13c2-3.4,6.2-4.7,9.7-3l12.5-21.6l-19.3-11.1c-2.6-1.5-6-0.6-7.5,2L447,151.5
					c-1.5,2.6-0.6,6,2,7.5l19.3,11.1L481,148C477.8,145.8,476.8,141.5,478.8,138.1z"/>
				<path class="st0" d="M494.2,147l7.5-13c0.7-1.2,0.3-2.7-0.9-3.4l-2.8-1.6l-3.8-2.2c-0.2-0.1-0.4-0.2-0.6-0.2
					c-1.1-0.3-2.3,0.1-2.8,1.2l-7.5,13c-0.6,1-0.4,2.3,0.4,3c0.1,0.1,0.3,0.3,0.5,0.4l3.8,2.2l2.8,1.6
					C491.9,148.6,493.5,148.2,494.2,147z"/>
			</g>
			<path class="st0" d="M500.7,188.9l8.6-14.8l9.1,5.2c5.7,3.3,13,1.3,16.3-4.4l11.5-20c3.3-5.7,1.3-13-4.4-16.3l-9.1-5.2l8.6-14.8
				c1.4-2.4,0.6-5.5-1.8-6.9L520,100.6c-2.4-1.4-5.5-0.6-6.9,1.8l-0.3,0.6l-12.4,21.5l2.8,1.6c3.6,2.1,4.8,6.7,2.8,10.3l-7.5,13
				c-2.1,3.6-6.7,4.8-10.3,2.8l-2.8-1.6l-12.7,22.1l0,0c-1.4,2.4-0.6,5.5,1.8,6.9l19.4,11.2C496.2,192.1,499.3,191.3,500.7,188.9z
				 M537.6,146c1.7,1,2.3,3.1,1.3,4.8l-11.5,20c-1,1.7-3.1,2.3-4.8,1.3l-9.1-5.2l15.1-26.1L537.6,146z"/>
		</g>
		<g>
			<g>
				<path class="st0" d="M295.5,379.7l-6.3-5.6c-1.6-1.5-1.8-4-0.5-5.7l-10.4-9.4l-8.4,9.3c-1.1,1.3-1,3.2,0.2,4.4l29,26.1
					c1.3,1.1,3.2,1,4.4-0.2l8.4-9.3l-10.7-9.6C299.6,381.2,297.1,381.2,295.5,379.7z"/>
				<path class="st0" d="M302.1,372.3l-6.3-5.6c-0.6-0.5-1.5-0.5-2,0.1l-1.2,1.4L291,370c-0.1,0.1-0.1,0.2-0.2,0.3
					c-0.3,0.6-0.2,1.3,0.3,1.7l6.3,5.6c0.5,0.4,1.2,0.5,1.7,0.1c0.1-0.1,0.2-0.1,0.3-0.2l1.7-1.8l1.2-1.4
					C302.8,373.8,302.7,372.9,302.1,372.3z"/>
			</g>
			<path class="st0" d="M325.9,373.6l-7.1-6.4l3.9-4.4c2.5-2.7,2.2-7-0.5-9.5l-9.6-8.7c-2.7-2.5-7-2.2-9.5,0.5l-3.9,4.4l-7.1-6.4
				c-1.2-1-2.9-1-4,0.2l-8.4,9.3c-1,1.2-1,2.9,0.2,4l0.3,0.2l10.4,9.3l1.2-1.4c1.6-1.7,4.2-1.9,6-0.3l6.3,5.6c1.7,1.6,1.9,4.2,0.3,6
				l-1.2,1.4l10.6,9.6l0,0c1.2,1,2.9,1,4-0.2l8.4-9.3C327.2,376.5,327.1,374.7,325.9,373.6z M306.7,348.4c0.7-0.8,2-0.9,2.8-0.1
				l9.6,8.7c0.8,0.7,0.9,2,0.1,2.8l-3.9,4.4l-12.6-11.3L306.7,348.4z"/>
		</g>
		<g>
			<path class="st0" d="M0.4,161.6c1.2,3,4.5,4.5,7.5,3.4l24.2-9.3c3-1.2,4.5-4.5,3.4-7.5l-7.1-18.5l11.3-4.4
				c7.1-2.7,10.7-10.7,7.9-17.8l-9.6-25c-2.7-7.1-10.7-10.7-17.8-7.9L8.9,78.9L1.8,60.4c-0.4-1-1-1.8-1.8-2.5v102.6L0.4,161.6
				L0.4,161.6z M23.7,83.6c2.1-0.8,4.5,0.2,5.3,2.4l9.6,25c0.8,2.1-0.2,4.5-2.4,5.3l-11.3,4.4L12.4,88L23.7,83.6z"/>
		</g>
		<g>
			<g>
				<path class="st0" d="M973.8,130.8l-6.2-16.3c-1.6-4.3,0.3-9,4.4-11l-10.3-26.9l-24,9.2c-3.3,1.3-4.9,5-3.7,8.2l28.8,75.1
					c1.3,3.3,5,4.9,8.2,3.7l24-9.2l-10.6-27.6C980,137.3,975.4,135.1,973.8,130.8z"/>
				<path class="st0" d="M993,123.5l-6.2-16.3c-0.6-1.5-2.3-2.3-3.8-1.7l-3.6,1.4l-4.8,1.8c-0.2,0.1-0.4,0.2-0.6,0.4
					c-1.1,0.8-1.5,2.1-1,3.4l6.2,16.3c0.5,1.3,1.8,2,3,1.8c0.2,0,0.5-0.1,0.7-0.2l4.8-1.8l3.6-1.4C992.8,126.7,993.5,125,993,123.5z
					"/>
			</g>
			<path class="st0" d="M994.3,57.1l-24.2,9.3c-3,1.2-4.5,4.5-3.4,7.5l0.3,0.7l10.3,26.9l3.6-1.4c4.5-1.7,9.6,0.5,11.3,5l6.2,16.3
				c1.7,4.5-0.5,9.6-5,11.3l-3.6,1.4l10.2,26.5V58C998.4,56.7,996.3,56.3,994.3,57.1z"/>
		</g>
		<g>
			<g>
				<path class="st0" d="M698.2,649.6l-8.7,17.2c-2.3,4.5-7.6,6.4-12.2,4.5l-14.5,28.4l25.4,12.9c3.5,1.8,7.7,0.4,9.5-3.1l40.4-79.2
					c1.8-3.5,0.4-7.7-3.1-9.5l-25.4-12.9l-14.8,29.1C698.9,639.7,700.5,645.1,698.2,649.6z"/>
				<path class="st0" d="M678,639.3l-8.7,17.2c-0.8,1.6-0.2,3.5,1.4,4.3l3.7,1.9l5,2.6c0.3,0.1,0.5,0.2,0.8,0.3
					c1.4,0.3,2.9-0.3,3.6-1.7l8.7-17.2c0.7-1.3,0.3-2.9-0.7-3.9c-0.2-0.2-0.4-0.3-0.7-0.5l-5-2.6l-3.7-1.9
					C680.7,637.1,678.8,637.7,678,639.3z"/>
			</g>
			<path class="st0" d="M666.8,586.1l-9.9,19.5l-12-6.1c-7.5-3.8-16.7-0.8-20.5,6.7l-13.4,26.3c-3.8,7.5-0.8,16.7,6.7,20.5l12,6.1
				l-9.9,19.5c-1.6,3.2-0.4,7.1,2.8,8.7l25.5,13c3.2,1.6,7.1,0.4,8.7-2.8l0.4-0.7l14.5-28.4l-3.7-1.9c-4.8-2.4-6.6-8.3-4.2-13
				l8.7-17.2c2.4-4.7,8.3-6.6,13-4.2l3.7,1.9l14.8-29.1l0,0c1.6-3.2,0.4-7.1-2.8-8.7l-25.5-13C672.3,581.7,668.4,582.9,666.8,586.1z
				 M622.5,643.5c-2.2-1.1-3.1-3.9-2-6.1l13.4-26.3c1.1-2.2,3.9-3.1,6.1-2l12,6.1l-17.5,34.4L622.5,643.5z"/>
		</g>
		<g>
			<g>
				<path class="st0" d="M138.1,753.9l-10.1,2.9c-2.7,0.8-5.4-0.7-6.4-3.2l-16.8,4.8l4.3,15c0.6,2.1,2.7,3.2,4.8,2.7l46.8-13.4
					c2.1-0.6,3.2-2.7,2.7-4.8l-4.3-15l-17.2,4.9C142.3,750.5,140.8,753.2,138.1,753.9z"/>
				<path class="st0" d="M134.7,741.9l-10.1,2.9c-0.9,0.3-1.5,1.2-1.2,2.2l0.6,2.2l0.9,3c0,0.1,0.1,0.3,0.2,0.4c0.4,0.7,1.2,1,2,0.8
					l10.1-2.9c0.8-0.2,1.3-1,1.3-1.7c0-0.1,0-0.3-0.1-0.4l-0.9-3l-0.6-2.2C136.6,742.2,135.6,741.7,134.7,741.9z"/>
			</g>
			<path class="st0" d="M151.8,717.6l-11.5,3.3l-2-7.1c-1.3-4.4-5.9-7-10.3-5.7l-15.6,4.5c-4.4,1.3-7,5.9-5.7,10.3l2,7.1l-11.5,3.3
				c-1.9,0.5-3,2.5-2.4,4.4l4.3,15.1c0.5,1.9,2.5,3,4.4,2.4l0.4-0.1l16.8-4.8l-0.6-2.2c-0.8-2.8,0.8-5.7,3.6-6.6l10.1-2.9
				c2.8-0.8,5.7,0.8,6.6,3.6l0.6,2.2l17.2-4.9l0,0c1.9-0.5,3-2.5,2.4-4.4l-4.3-15.1C155.6,718.1,153.7,717,151.8,717.6z
				 M112.2,721.3c-0.4-1.3,0.4-2.7,1.7-3.1l15.6-4.5c1.3-0.4,2.7,0.4,3.1,1.7l2,7.1l-20.3,5.8L112.2,721.3z"/>
		</g>
		<g>
			<g>
				<path class="st0" d="M961.4,226.3l0.9,8.1c0.2,2.1-1.2,4-3.3,4.4l1.4,13.5l12-1.3c1.6-0.2,2.8-1.6,2.7-3.3l-3.9-37.6
					c-0.2-1.6-1.6-2.8-3.3-2.7l-12,1.3l1.5,13.8C959.3,222.6,961.1,224.2,961.4,226.3z"/>
				<path class="st0" d="M951.8,227.3l0.9,8.1c0.1,0.7,0.8,1.3,1.5,1.2l1.8-0.2l2.4-0.3c0.1,0,0.2,0,0.3-0.1
					c0.6-0.2,0.9-0.8,0.9-1.4l-0.9-8.1c-0.1-0.6-0.6-1.1-1.2-1.2c-0.1,0-0.2,0-0.3,0l-2.4,0.3l-1.8,0.2
					C952.2,225.9,951.7,226.6,951.8,227.3z"/>
			</g>
			<path class="st0" d="M935.5,211l1,9.2l-5.7,0.6c-3.6,0.4-6.1,3.6-5.8,7.1l1.3,12.5c0.4,3.6,3.6,6.1,7.1,5.8l5.7-0.6l1,9.2
				c0.2,1.5,1.5,2.6,3,2.4l12.1-1.3c1.5-0.2,2.6-1.5,2.4-3l0-0.3l-1.4-13.4l-1.8,0.2c-2.3,0.2-4.3-1.4-4.5-3.7l-0.9-8.1
				c-0.2-2.3,1.4-4.3,3.7-4.5l1.8-0.2l-1.4-13.8l0,0c-0.2-1.5-1.5-2.6-3-2.4l-12.1,1.3C936.4,208.1,935.3,209.5,935.5,211z
				 M933,241.7c-1.1,0.1-2-0.7-2.1-1.7l-1.3-12.5c-0.1-1.1,0.7-2,1.7-2.1l5.7-0.6l1.7,16.3L933,241.7z"/>
		</g>
		<g>
			<g>
				<path class="st0" d="M586.5,287.8l-13.3,7.1c-3.5,1.9-7.8,0.7-9.9-2.6l-22,11.7l10.4,19.6c1.4,2.7,4.8,3.7,7.5,2.3l61.3-32.6
					c2.7-1.4,3.7-4.8,2.3-7.5l-10.4-19.6l-22.5,12C591.4,281.7,590,285.9,586.5,287.8z"/>
				<path class="st0" d="M578.2,272.1l-13.3,7.1c-1.2,0.7-1.7,2.2-1,3.4l1.5,2.9l2.1,3.9c0.1,0.2,0.2,0.4,0.4,0.5
					c0.8,0.8,2,1.1,3,0.5l13.3-7.1c1-0.5,1.5-1.7,1.3-2.8c0-0.2-0.1-0.4-0.2-0.6l-2.1-3.9l-1.5-2.9
					C580.9,271.9,579.4,271.4,578.2,272.1z"/>
			</g>
			<path class="st0" d="M594.8,233.1l-15.1,8l-4.9-9.3c-3.1-5.8-10.3-8-16.1-4.9l-20.4,10.8c-5.8,3.1-8,10.3-4.9,16.1l4.9,9.3
				l-15.1,8c-2.5,1.3-3.4,4.4-2.1,6.8l10.5,19.8c1.3,2.5,4.4,3.4,6.8,2.1l0.6-0.3l21.9-11.7l-1.5-2.9c-2-3.7-0.6-8.3,3.1-10.2
				l13.3-7.1c3.7-2,8.3-0.6,10.2,3.1l1.5,2.9l22.5-12l0,0c2.5-1.3,3.4-4.4,2.1-6.8l-10.5-19.8C600.3,232.7,597.3,231.8,594.8,233.1z
				 M540.8,249.9c-0.9-1.7-0.3-3.9,1.5-4.8l20.4-10.8c1.7-0.9,3.9-0.3,4.8,1.5l4.9,9.3l-26.6,14.2L540.8,249.9z"/>
		</g>
		<g>
			<g>
				<path class="st0" d="M320.8,720.5l6.8-5.9c1.8-1.5,4.4-1.4,6.1,0.2l11.2-9.8l-8.7-10c-1.2-1.4-3.3-1.5-4.6-0.3l-31.3,27.2
					c-1.4,1.2-1.5,3.3-0.3,4.6l8.7,10l11.5-10C318.8,724.6,319,722,320.8,720.5z"/>
				<path class="st0" d="M327.8,728.5l6.8-5.9c0.6-0.5,0.7-1.5,0.1-2.1l-1.3-1.5l-1.7-2c-0.1-0.1-0.2-0.2-0.3-0.2
					c-0.5-0.4-1.3-0.4-1.8,0.1l-6.8,5.9c-0.5,0.5-0.7,1.2-0.4,1.8c0.1,0.1,0.1,0.2,0.2,0.3l1.7,2l1.3,1.5
					C326.2,728.9,327.1,729,327.8,728.5z"/>
			</g>
			<path class="st0" d="M323.3,753.4l7.7-6.7l4.1,4.7c2.6,3,7.1,3.3,10,0.7l10.4-9c3-2.6,3.3-7.1,0.7-10l-4.1-4.7l7.7-6.7
				c1.3-1.1,1.4-3,0.3-4.2l-8.8-10.1c-1.1-1.3-3-1.4-4.2-0.3l-0.3,0.3l-11.2,9.7l1.3,1.5c1.6,1.9,1.4,4.7-0.4,6.4l-6.8,5.9
				c-1.9,1.6-4.7,1.4-6.4-0.4l-1.3-1.5l-11.5,10l0,0c-1.3,1.1-1.4,3-0.3,4.2l8.8,10.1C320.2,754.3,322.1,754.5,323.3,753.4z
				 M352.5,736.3c0.8,0.9,0.7,2.2-0.2,3l-10.4,9c-0.9,0.8-2.2,0.7-3-0.2l-4.1-4.7l13.6-11.8L352.5,736.3z"/>
		</g>
		<g>
			<g>
				<path class="st0" d="M7.5,603.9l21.7-6.6l-5.9-19.4c-0.8-2.7-3.6-4.2-6.3-3.3L0,579.7v19.9C3.2,599.1,6.3,600.9,7.5,603.9z"/>
				<path class="st0" d="M5.4,612.5l-0.9-2.9l-1.2-3.8c-0.1-0.2-0.1-0.4-0.2-0.5c-0.5-0.9-1.6-1.3-2.6-1L0,604.4v12.1l3.9-1.2
					C5.1,615,5.8,613.7,5.4,612.5z"/>
			</g>
			<path class="st0" d="M20.5,657.1c5.7-1.8,9-7.8,7.2-13.6l-2.8-9.2l14.9-4.6c2.4-0.7,3.8-3.3,3-5.7l-6-19.5
				c-0.7-2.4-3.3-3.8-5.7-3l-0.6,0.2l-21.7,6.6l0.9,2.9c1.1,3.6-0.9,7.5-4.6,8.6L0,621.3V642l17.6-5.4l2.8,9.2
				c0.5,1.7-0.4,3.5-2.1,4L0,655.3v8c0.1,0,0.2-0.1,0.3-0.1L20.5,657.1z"/>
		</g>
		<g>
			<g>
				<path class="st0" d="M956.5,593c-2.7,0.8-4.1,3.6-3.3,6.3l5.9,19.4l22.3-6.8c-0.7-3.5,1.2-7,4.7-8l13.1-4
					c0.3-0.1,0.6-0.1,0.8-0.2v-19.9L956.5,593z"/>
				<path class="st0" d="M987.4,608.3c-1,0.3-1.7,1.3-1.6,2.3c0,0.2,0,0.4,0.1,0.6l1.2,3.8l0.9,2.9c0.4,1.2,1.7,1.9,2.9,1.5l9.2-2.8
					v-12.1L987.4,608.3z"/>
			</g>
			<path class="st0" d="M998.1,655.9c-1.7,0.5-3.5-0.4-4-2.1l-2.8-9.2l8.7-2.7v-20.6l-7.9,2.4c-3.6,1.1-7.5-0.9-8.6-4.6l-0.9-2.9
				l-22.2,6.8l0,0c-2.4,0.7-3.8,3.3-3,5.7l6,19.5c0.7,2.4,3.3,3.8,5.7,3l14.9-4.6l2.8,9.2c1.7,5.6,7.6,8.8,13.2,7.3v-8L998.1,655.9z
				"/>
		</g>
		<g>
			<g>
				<path class="st0" d="M495.8,946.7l-2.5-10c-0.7-2.6,0.8-5.3,3.4-6.1l-4.1-16.5l-14.8,3.7c-2,0.5-3.3,2.6-2.7,4.6l11.5,46.1
					c0.5,2,2.6,3.3,4.6,2.7l14.8-3.7l-4.2-17C499,950.9,496.5,949.3,495.8,946.7z"/>
				<path class="st0" d="M507.6,943.7l-2.5-10c-0.2-0.9-1.2-1.5-2.1-1.3l-2.2,0.5l-2.9,0.7c-0.1,0-0.3,0.1-0.4,0.2
					c-0.7,0.4-1,1.1-0.8,1.9l2.5,10c0.2,0.8,0.9,1.3,1.7,1.3c0.1,0,0.3,0,0.4,0l2.9-0.7l2.2-0.5
					C507.3,945.6,507.8,944.6,507.6,943.7z"/>
			</g>
			<path class="st0" d="M530.8,961.2l-2.8-11.4l7-1.7c4.4-1.1,7-5.5,5.9-9.9l-3.8-15.3c-1.1-4.4-5.5-7-9.9-5.9l-7,1.7l-2.8-11.4
				c-0.5-1.8-2.3-3-4.2-2.5l-14.9,3.7c-1.8,0.5-3,2.3-2.5,4.2l0.1,0.4l4.1,16.5l2.2-0.5c2.8-0.7,5.6,1,6.3,3.8l2.5,10
				c0.7,2.8-1,5.6-3.8,6.3l-2.2,0.5l4.2,16.9l0,0c0.5,1.8,2.3,3,4.2,2.5l14.9-3.7C530.1,965,531.2,963.1,530.8,961.2z M528.5,922.6
				c1.3-0.3,2.6,0.5,2.9,1.8l3.8,15.3c0.3,1.3-0.5,2.6-1.8,2.9l-7,1.7l-5-20L528.5,922.6z"/>
		</g>
		<g>
			<g>
				<path class="st0" d="M479.6,828.3l-16.6,3.2c-4.3,0.8-8.5-1.8-9.7-6l-27.5,5.3l4.8,24.5c0.7,3.4,3.9,5.5,7.3,4.9l76.5-14.9
					c3.4-0.7,5.5-3.9,4.9-7.3l-4.8-24.5l-28.1,5.5C486.9,823.4,484,827.5,479.6,828.3z"/>
				<path class="st0" d="M475.8,808.8l-16.6,3.2c-1.5,0.3-2.5,1.8-2.2,3.3l0.7,3.6l0.9,4.8c0,0.2,0.1,0.5,0.2,0.7
					c0.5,1.1,1.8,1.8,3.1,1.6l16.6-3.2c1.3-0.2,2.2-1.3,2.3-2.6c0-0.2,0-0.5,0-0.7l-0.9-4.8l-0.7-3.6
					C478.9,809.5,477.4,808.5,475.8,808.8z"/>
			</g>
			<path class="st0" d="M506.6,772.3l-18.8,3.7l-2.2-11.6c-1.4-7.2-8.4-12-15.7-10.6l-25.4,4.9c-7.2,1.4-12,8.4-10.6,15.7L436,786
				l-18.8,3.7c-3.1,0.6-5.1,3.6-4.5,6.6l4.8,24.7c0.6,3.1,3.6,5.1,6.6,4.5l0.7-0.1l27.4-5.3l-0.7-3.6c-0.9-4.6,2.1-9,6.7-9.9
				l16.6-3.2c4.6-0.9,9,2.1,9.9,6.7l0.7,3.6l28.1-5.5l0,0c3.1-0.6,5.1-3.6,4.5-6.6l-4.8-24.7C512.6,773.7,509.6,771.7,506.6,772.3z
				 M443,772.7c-0.4-2.1,1-4.2,3.1-4.7l25.4-4.9c2.1-0.4,4.2,1,4.7,3.1l2.2,11.6l-33.2,6.5L443,772.7z"/>
		</g>
		<g>
			<g>
				<path class="st0" d="M810.4,991.6c-3.8-0.6-7.4,2-8,5.8l-0.4,2.6h35.5l0.6-4L810.4,991.6z"/>
			</g>
			<path class="st0" d="M879.7,995.3l-27.9-4.4c-3.5-0.5-6.7,1.8-7.3,5.3l-0.1,0.8l-0.5,3h40.9C884.3,997.6,882.3,995.7,879.7,995.3
				z"/>
		</g>
		<g>
			<g>
				<path class="st0" d="M794.5,92l27.8,4.4l5-31.9c-4.8-1.2-7.9-5.8-7.1-10.7l3-18.8c0.8-4.9,5.2-8.3,10.1-8L837.5,0H802l-13.3,84
					C788.1,87.8,790.7,91.4,794.5,92z"/>
				<path class="st0" d="M842.3,57.3l3-18.8c0.3-1.7-0.9-3.4-2.6-3.6l-4.1-0.6l-5.5-0.9c-0.3,0-0.5,0-0.8,0
					c-1.4,0.1-2.6,1.2-2.8,2.7l-3,18.8c-0.2,1.5,0.6,2.8,1.9,3.4c0.2,0.1,0.5,0.2,0.8,0.2l5.5,0.9l4.1,0.6
					C840.4,60.2,842,59,842.3,57.3z"/>
			</g>
			<path class="st0" d="M843.6,28.6c5.2,0.8,8.7,5.7,7.9,10.9l-3,18.8c-0.8,5.2-5.7,8.7-10.9,7.9l-4.1-0.6l-5,31.8l0,0
				c-0.5,3.5,1.8,6.7,5.3,7.3l27.9,4.4c3.5,0.5,6.7-1.8,7.3-5.3l3.4-21.3l13.1,2.1c8.2,1.3,15.9-4.3,17.2-12.5l4.6-28.8
				c1.3-8.2-4.3-15.9-12.5-17.2l-13.1-2.1L885,2.6c0.1-0.9,0.1-1.8-0.1-2.6h-40.9l-4.4,28L843.6,28.6z M880,34.4l13.1,2.1
				c2.4,0.4,4.1,2.7,3.7,5.1l-4.6,28.8c-0.4,2.4-2.7,4.1-5.1,3.7L874,72L880,34.4z"/>
		</g>
		<g>
			<g>
				<path class="st0" d="M562.6,545l-2.2-13.8c-0.6-3.6,1.8-7,5.3-7.9l-3.6-22.9l-20.4,3.2c-2.8,0.4-4.7,3.1-4.3,5.9l10.1,63.8
					c0.4,2.8,3.1,4.7,5.9,4.3l20.4-3.2l-3.7-23.4C566.5,551.1,563.2,548.6,562.6,545z"/>
				<path class="st0" d="M578.9,542.4l-2.2-13.8c-0.2-1.3-1.4-2.1-2.7-1.9l-3,0.5l-4,0.6c-0.2,0-0.4,0.1-0.6,0.2
					c-1,0.4-1.5,1.4-1.4,2.5l2.2,13.8c0.2,1.1,1,1.9,2.1,2c0.2,0,0.4,0,0.6,0l4-0.6l3-0.5C578.2,544.9,579.1,543.7,578.9,542.4z"/>
			</g>
			<path class="st0" d="M608.2,568.9l-2.5-15.7l9.6-1.5c6-1,10.2-6.6,9.2-12.7l-3.4-21.2c-1-6-6.6-10.2-12.7-9.2l-9.6,1.5l-2.5-15.7
				c-0.4-2.6-2.8-4.3-5.4-3.9l-20.5,3.3c-2.6,0.4-4.3,2.8-3.9,5.4l0.1,0.6l3.6,22.8l3-0.5c3.8-0.6,7.4,2,8,5.8l2.2,13.8
				c0.6,3.8-2,7.4-5.8,8l-3,0.5l3.7,23.4l0,0c0.4,2.6,2.8,4.3,5.4,3.9l20.5-3.3C606.9,573.8,608.6,571.4,608.2,568.9z M609.7,516.2
				c1.8-0.3,3.5,0.9,3.8,2.7l3.4,21.2c0.3,1.8-0.9,3.5-2.7,3.8l-9.6,1.5l-4.4-27.7L609.7,516.2z"/>
		</g>
		<g>
			<g>
				<path class="st0" d="M407.9,261.9l6.2,10.7c1.6,2.8,0.8,6.4-1.9,8.2l10.3,17.8l15.9-9.2c2.2-1.3,2.9-4,1.7-6.2l-28.6-49.6
					c-1.3-2.2-4-2.9-6.2-1.7l-15.9,9.2l10.5,18.2C402.8,258,406.3,259.1,407.9,261.9z"/>
				<path class="st0" d="M395.3,269.2l6.2,10.7c0.6,1,1.8,1.3,2.8,0.8l2.3-1.4l3.1-1.8c0.2-0.1,0.3-0.2,0.4-0.3
					c0.7-0.6,0.8-1.7,0.3-2.5l-6.2-10.7c-0.5-0.8-1.5-1.2-2.3-1c-0.2,0-0.3,0.1-0.5,0.2l-3.1,1.8l-2.3,1.4
					C395,267,394.7,268.2,395.3,269.2z"/>
			</g>
			<path class="st0" d="M362.6,256.6l7.1,12.2l-7.5,4.3c-4.7,2.7-6.3,8.7-3.6,13.4l9.5,16.5c2.7,4.7,8.7,6.3,13.4,3.6l7.5-4.3
				l7.1,12.2c1.1,2,3.7,2.7,5.7,1.5l16-9.2c2-1.1,2.7-3.7,1.5-5.7l-0.3-0.5L408.7,283l-2.3,1.4c-3,1.7-6.8,0.7-8.5-2.3l-6.2-10.7
				c-1.7-3-0.7-6.8,2.3-8.5l2.3-1.4l-10.5-18.2l0,0c-1.1-2-3.7-2.7-5.7-1.5l-16,9.2C362.2,252.1,361.5,254.6,362.6,256.6z
				 M378.1,300.7c-1.4,0.8-3.2,0.3-4-1.1l-9.5-16.5c-0.8-1.4-0.3-3.2,1.1-4l7.5-4.3l12.4,21.5L378.1,300.7z"/>
		</g>
		<g>
			<g>
				<path class="st0" d="M869.1,837.4l-3.9-9.5c-1-2.5,0.1-5.3,2.5-6.5l-6.4-15.8l-14.1,5.7c-1.9,0.8-2.9,3-2.1,4.9l17.8,44
					c0.8,1.9,3,2.9,4.9,2.1l14.1-5.7l-6.5-16.2C872.9,841.2,870.1,839.9,869.1,837.4z"/>
				<path class="st0" d="M880.4,832.9l-3.9-9.5c-0.4-0.9-1.4-1.3-2.2-1l-2.1,0.8l-2.8,1.1c-0.1,0.1-0.3,0.1-0.4,0.2
					c-0.6,0.5-0.9,1.3-0.6,2l3.9,9.5c0.3,0.7,1.1,1.2,1.8,1.1c0.1,0,0.3,0,0.4-0.1l2.8-1.1l2.1-0.8
					C880.3,834.8,880.7,833.8,880.4,832.9z"/>
			</g>
			<path class="st0" d="M905.8,847l-4.4-10.8l6.7-2.7c4.2-1.7,6.2-6.4,4.5-10.6l-5.9-14.6c-1.7-4.2-6.4-6.2-10.6-4.5l-6.7,2.7
				l-4.4-10.8c-0.7-1.8-2.7-2.6-4.5-1.9l-14.2,5.7c-1.8,0.7-2.6,2.7-1.9,4.5l0.2,0.4l6.4,15.8l2.1-0.8c2.6-1.1,5.7,0.2,6.7,2.9
				l3.9,9.5c1.1,2.6-0.2,5.7-2.9,6.7l-2.1,0.8l6.5,16.2l0,0c0.7,1.8,2.7,2.6,4.5,1.9l14.2-5.7C905.6,850.8,906.5,848.8,905.8,847z
				 M898.1,809c1.2-0.5,2.6,0.1,3.1,1.3l5.9,14.6c0.5,1.2-0.1,2.6-1.3,3.1l-6.7,2.7l-7.7-19.1L898.1,809z"/>
		</g>
		<g>
			<g>
				<path class="st0" d="M876.6,497.7l-5.2,7.7c-1.4,2-4,2.6-6.1,1.4l-8.6,12.7l11.3,7.6c1.6,1,3.7,0.6,4.7-0.9l23.8-35.3
					c1-1.5,0.6-3.7-0.9-4.7l-11.3-7.6l-8.8,13C877.5,493,877.9,495.7,876.6,497.7z"/>
				<path class="st0" d="M867.5,491.6l-5.2,7.7c-0.5,0.7-0.3,1.7,0.4,2.1l1.7,1.1l2.2,1.5c0.1,0.1,0.2,0.1,0.4,0.2
					c0.6,0.2,1.4,0,1.8-0.6l5.2-7.7c0.4-0.6,0.3-1.4-0.1-1.9c-0.1-0.1-0.2-0.2-0.3-0.3l-2.2-1.5l-1.7-1.1
					C869,490.7,868,490.9,867.5,491.6z"/>
			</g>
			<path class="st0" d="M865.3,465.7l-5.9,8.7l-5.3-3.6c-3.3-2.3-7.9-1.4-10.2,2l-7.9,11.8c-2.3,3.3-1.4,7.9,2,10.2l5.3,3.6
				l-5.9,8.7c-1,1.4-0.6,3.3,0.8,4.3l11.4,7.7c1.4,1,3.3,0.6,4.3-0.8l0.2-0.3l8.5-12.7l-1.7-1.1c-2.1-1.4-2.7-4.3-1.3-6.4l5.2-7.7
				c1.4-2.1,4.3-2.7,6.4-1.3l1.7,1.1l8.7-13l0,0c1-1.4,0.6-3.3-0.8-4.3l-11.4-7.7C868.2,463.9,866.3,464.2,865.3,465.7z
				 M840.9,490.4c-1-0.7-1.3-2-0.6-3l7.9-11.7c0.7-1,2-1.3,3-0.6l5.3,3.6L846.2,494L840.9,490.4z"/>
		</g>
		<g>
			<g>
				<path class="st0" d="M439.7,415.6l2.8-17.7c0.7-4.6,4.9-7.9,9.5-7.5l4.7-29.4l-26.2-4.2c-3.6-0.6-7,1.9-7.5,5.5l-13,81.8
					c-0.6,3.6,1.9,7,5.5,7.5l26.2,4.2l4.8-30.1C441.9,424.6,438.9,420.2,439.7,415.6z"/>
				<path class="st0" d="M460.6,418.9l2.8-17.7c0.3-1.6-0.9-3.2-2.5-3.4l-3.9-0.6l-5.2-0.8c-0.3,0-0.5,0-0.8,0
					c-1.3,0.1-2.5,1.1-2.7,2.5l-2.8,17.7c-0.2,1.4,0.5,2.7,1.8,3.2c0.2,0.1,0.5,0.2,0.7,0.2l5.2,0.8l3.9,0.6
					C458.8,421.7,460.3,420.5,460.6,418.9z"/>
			</g>
			<path class="st0" d="M485.8,462.8l3.2-20.2l12.4,2c7.7,1.2,15-4.1,16.3-11.8l4.3-27.2c1.2-7.7-4.1-15-11.8-16.3l-12.4-2l3.2-20.2
				c0.5-3.3-1.7-6.4-5-6.9l-26.4-4.2c-3.3-0.5-6.4,1.7-6.9,5l-0.1,0.8l-4.6,29.3l3.9,0.6c4.9,0.8,8.3,5.4,7.5,10.3l-2.8,17.7
				c-0.8,4.9-5.4,8.3-10.3,7.5l-3.9-0.6l-4.8,30l0,0c-0.5,3.3,1.7,6.4,5,6.9l26.4,4.2C482.2,468.3,485.3,466.1,485.8,462.8z
				 M508.5,399.2c2.3,0.4,3.9,2.5,3.5,4.8l-4.3,27.2c-0.4,2.3-2.5,3.9-4.8,3.5l-12.4-2l5.6-35.5L508.5,399.2z"/>
		</g>
		<g>
			<path class="st0" d="M3.2,442.6c0.7-1.4,0.1-3.2-1.3-3.9L0,437.8v11.4L3.2,442.6z"/>
			<path class="st0" d="M1.7,475.4l5.9-12c1.7-3.4,0.2-7.6-3.2-9.2L0,452.1v5.4l2.2,1.1c1,0.5,1.4,1.7,0.9,2.7L0,467.8v9.8
				C0.7,477,1.2,476.3,1.7,475.4z"/>
		</g>
		<g>
			<g>
				<path class="st0" d="M967.9,456.4l3.8-7.8c1-2.1,3.4-2.9,5.5-2.1l6.3-13l-11.6-5.6c-1.6-0.8-3.5-0.1-4.3,1.5l-17.6,36.1
					c-0.8,1.6-0.1,3.5,1.5,4.3l11.6,5.6l6.5-13.3C967.7,460.9,966.9,458.5,967.9,456.4z"/>
				<path class="st0" d="M977.2,460.9l3.8-7.8c0.4-0.7,0.1-1.6-0.7-1.9l-1.7-0.8l-2.3-1.1c-0.1-0.1-0.2-0.1-0.4-0.1
					c-0.6-0.1-1.3,0.2-1.6,0.8l-3.8,7.8c-0.3,0.6-0.1,1.3,0.4,1.7c0.1,0.1,0.2,0.2,0.3,0.2l2.3,1.1l1.7,0.8
					C975.9,461.9,976.8,461.6,977.2,460.9z"/>
			</g>
			<path class="st0" d="M997.3,473.3c-0.5,1-1.7,1.4-2.7,0.9l-5.5-2.7l7.7-15.7l3.2,1.6v-5.4l-1.1-0.5l1.1-2.3v-11.4l-9.8-4.8
				c-1.4-0.7-3.2-0.1-3.9,1.3l-0.2,0.3l-6.3,12.9l1.7,0.8c2.2,1.1,3.1,3.7,2,5.8l-3.8,7.8c-1.1,2.2-3.7,3.1-5.8,2l-1.7-0.8
				l-6.5,13.3l0,0c-0.7,1.4-0.1,3.2,1.3,3.9l11.6,5.7c1.4,0.7,3.2,0.1,3.9-1.3l4.3-8.9l5.5,2.7c2.6,1.3,5.5,0.8,7.6-1v-9.8
				L997.3,473.3z"/>
		</g>
		<g>
			<g>
				<path class="st0" d="M154.2,638.1l-1,9.4c-0.3,2.5-2.4,4.3-4.8,4.2l-1.6,15.7l14,1.5c1.9,0.2,3.6-1.2,3.8-3.1l4.6-43.6
					c0.2-1.9-1.2-3.6-3.1-3.8l-14-1.5l-1.7,16C152.7,633.4,154.4,635.7,154.2,638.1z"/>
				<path class="st0" d="M143,637l-1,9.4c-0.1,0.9,0.5,1.7,1.4,1.7l2.1,0.2l2.8,0.3c0.1,0,0.3,0,0.4,0c0.7-0.1,1.3-0.7,1.3-1.4
					l1-9.4c0.1-0.7-0.4-1.4-1-1.6c-0.1,0-0.3-0.1-0.4-0.1l-2.8-0.3l-2.1-0.2C143.9,635.5,143.1,636.1,143,637z"/>
			</g>
			<path class="st0" d="M128.5,614.4l-1.1,10.7l-6.6-0.7c-4.1-0.4-7.8,2.6-8.3,6.7l-1.5,14.5c-0.4,4.1,2.6,7.8,6.7,8.3l6.6,0.7
				l-1.1,10.7c-0.2,1.7,1.1,3.3,2.8,3.5l14.1,1.5c1.7,0.2,3.3-1.1,3.5-2.8l0-0.4l1.6-15.6l-2.1-0.2c-2.6-0.3-4.5-2.6-4.2-5.2l1-9.4
				c0.3-2.6,2.6-4.5,5.2-4.2l2.1,0.2l1.7-16l0,0c0.2-1.7-1.1-3.3-2.8-3.5l-14.1-1.5C130.2,611.4,128.6,612.7,128.5,614.4z
				 M118.2,648.7c-1.2-0.1-2.1-1.2-2-2.5l1.5-14.5c0.1-1.2,1.2-2.1,2.5-2l6.6,0.7l-2,18.9L118.2,648.7z"/>
		</g>
		<g>
			<g>
				<path class="st0" d="M113.7,102.4l-5-8.1c-1.3-2.1-0.8-4.9,1.2-6.3l-8.3-13.3l-11.9,7.4c-1.6,1-2.1,3.2-1.1,4.8l23.2,37.2
					c1,1.6,3.2,2.1,4.8,1.1l11.9-7.4l-8.5-13.7C117.8,105.2,115,104.5,113.7,102.4z"/>
				<path class="st0" d="M123.2,96.4l-5-8.1c-0.5-0.7-1.4-1-2.2-0.5l-1.8,1.1l-2.4,1.5c-0.1,0.1-0.2,0.2-0.3,0.3
					c-0.5,0.5-0.6,1.3-0.2,1.9l5,8.1c0.4,0.6,1.1,0.9,1.8,0.7c0.1,0,0.3-0.1,0.4-0.2l2.4-1.5l1.8-1.1
					C123.5,98.2,123.7,97.2,123.2,96.4z"/>
			</g>
			<path class="st0" d="M148.6,105.2l-5.7-9.2l5.6-3.5c3.5-2.2,4.6-6.9,2.4-10.4l-7.7-12.4c-2.2-3.5-6.9-4.6-10.4-2.4l-5.6,3.5
				l-5.7-9.2c-0.9-1.5-2.9-1.9-4.4-1l-12,7.5c-1.5,0.9-1.9,2.9-1,4.4l0.2,0.3l8.3,13.3l1.8-1.1c2.2-1.4,5.2-0.7,6.6,1.5l5,8.1
				c1.4,2.2,0.7,5.2-1.5,6.6l-1.8,1.1l8.5,13.6l0,0c0.9,1.5,2.9,1.9,4.4,1l12-7.5C149,108.7,149.5,106.7,148.6,105.2z M135.6,71.9
				c1-0.7,2.4-0.3,3.1,0.7l7.7,12.4c0.7,1,0.3,2.4-0.7,3.1l-5.6,3.5l-10.1-16.2L135.6,71.9z"/>
		</g>
		<g>
			<g>
				<path class="st0" d="M292.6,67.9l14.2-1.2c3.7-0.3,7,2.3,7.6,5.9l23.5-2.1l-1.8-21c-0.3-2.9-2.8-5-5.7-4.7l-65.5,5.7
					c-2.9,0.3-5,2.8-4.7,5.7l1.8,21l24.1-2.1C286.1,71.3,288.9,68.2,292.6,67.9z"/>
				<path class="st0" d="M294,84.6l14.2-1.2c1.3-0.1,2.3-1.3,2.2-2.6l-0.3-3.1l-0.4-4.2c0-0.2-0.1-0.4-0.1-0.6
					c-0.4-1-1.3-1.7-2.4-1.6L293,72.6c-1.1,0.1-2,0.9-2.1,2c0,0.2-0.1,0.4,0,0.6l0.4,4.2l0.3,3.1C291.6,83.8,292.7,84.7,294,84.6z"
					/>
			</g>
			<path class="st0" d="M265.1,112.5l16.1-1.4l0.9,9.9c0.5,6.2,6,10.8,12.2,10.3l21.8-1.9c6.2-0.5,10.8-6,10.3-12.2l-0.9-9.9
				l16.1-1.4c2.6-0.2,4.6-2.5,4.3-5.2l-1.8-21.1c-0.2-2.6-2.5-4.6-5.2-4.3l-0.6,0.1l-23.5,2.1l0.3,3.1c0.3,3.9-2.6,7.4-6.5,7.7
				l-14.2,1.2c-3.9,0.3-7.4-2.6-7.7-6.5l-0.3-3.1l-24,2.1l0,0c-2.6,0.2-4.6,2.5-4.3,5.2l1.8,21.1
				C260.1,110.8,262.4,112.7,265.1,112.5z M318.4,117.8c0.2,1.8-1.2,3.5-3,3.6l-21.8,1.9c-1.8,0.2-3.5-1.2-3.6-3l-0.9-9.9l28.5-2.5
				L318.4,117.8z"/>
		</g>
		<g>
			<g>
				<path class="st0" d="M584.2,378.2l8.3,3.5c2.2,0.9,3.2,3.3,2.5,5.5l13.7,5.8l5.2-12.2c0.7-1.7-0.1-3.6-1.7-4.3L574,360.4
					c-1.7-0.7-3.6,0.1-4.3,1.7l-5.2,12.2l14,6C579.6,378.2,582.1,377.3,584.2,378.2z"/>
				<path class="st0" d="M580.1,388l8.3,3.5c0.8,0.3,1.6,0,2-0.8l0.8-1.8l1-2.4c0.1-0.1,0.1-0.2,0.1-0.4c0.1-0.7-0.3-1.3-0.9-1.6
					L583,381c-0.6-0.3-1.4-0.1-1.8,0.5c-0.1,0.1-0.1,0.2-0.2,0.3l-1,2.4l-0.8,1.8C579,386.8,579.3,387.6,580.1,388z"/>
			</g>
			<path class="st0" d="M555.7,394.9l9.4,4l-2.4,5.8c-1.5,3.6,0.2,7.8,3.8,9.3l12.7,5.4c3.6,1.5,7.8-0.2,9.3-3.8l2.4-5.8l9.4,4
				c1.5,0.6,3.3-0.1,3.9-1.6l5.2-12.3c0.6-1.5-0.1-3.3-1.6-3.9l-0.4-0.2l-13.6-5.8l-0.8,1.8c-1,2.3-3.6,3.4-5.9,2.4l-8.3-3.5
				c-2.3-1-3.4-3.6-2.4-5.9l0.8-1.8l-14-5.9l0,0c-1.5-0.6-3.3,0.1-3.9,1.6l-5.2,12.3C553.5,392.5,554.2,394.2,555.7,394.9z
				 M583.8,413.6c-0.5,1.1-1.7,1.6-2.8,1.1l-12.7-5.4c-1.1-0.5-1.6-1.7-1.1-2.8l2.4-5.8l16.6,7L583.8,413.6z"/>
		</g>
		<g>
			<g>
				<path class="st0" d="M328.6,616.8l-3.9-14.5c-1-3.8,1.1-7.7,4.7-9l-6.4-24.1l-21.5,5.8c-2.9,0.8-4.7,3.8-3.9,6.8l18,67.1
					c0.8,2.9,3.8,4.7,6.8,3.9l21.5-5.8l-6.6-24.7C333.4,622.9,329.6,620.6,328.6,616.8z"/>
				<path class="st0" d="M345.7,612.2l-3.9-14.5c-0.4-1.3-1.7-2.1-3.1-1.8l-3.2,0.9l-4.2,1.1c-0.2,0.1-0.4,0.1-0.6,0.3
					c-1,0.6-1.5,1.7-1.2,2.8l3.9,14.5c0.3,1.1,1.3,1.9,2.4,1.9c0.2,0,0.4,0,0.6-0.1l4.2-1.1l3.2-0.9
					C345.3,614.9,346.1,613.6,345.7,612.2z"/>
			</g>
			<path class="st0" d="M380,637.2l-4.4-16.5l10.1-2.7c6.4-1.7,10.1-8.3,8.4-14.6l-6-22.3c-1.7-6.4-8.3-10.1-14.6-8.4l-10.1,2.7
				l-4.4-16.5c-0.7-2.7-3.5-4.3-6.2-3.6l-21.6,5.8c-2.7,0.7-4.3,3.5-3.6,6.2l0.2,0.6l6.4,24l3.2-0.9c4-1.1,8.2,1.3,9.2,5.3l3.9,14.5
				c1.1,4-1.3,8.2-5.3,9.2l-3.2,0.9l6.6,24.6l0,0c0.7,2.7,3.5,4.3,6.2,3.6l21.6-5.8C379.2,642.7,380.8,639.9,380,637.2z
				 M375.8,580.8c1.9-0.5,3.8,0.6,4.3,2.5l6,22.3c0.5,1.9-0.6,3.8-2.5,4.3l-10.1,2.7l-7.8-29.1L375.8,580.8z"/>
		</g>
		<g>
			<g>
				<path class="st0" d="M861,630.6l11.9,3.4c3.1,0.9,5,4,4.4,7.2l19.8,5.7l5.1-17.6c0.7-2.4-0.7-4.9-3.1-5.6l-55-15.8
					c-2.4-0.7-4.9,0.7-5.6,3.1l-5.1,17.6l20.2,5.8C854.6,631.4,857.9,629.7,861,630.6z"/>
				<path class="st0" d="M857,644.7l11.9,3.4c1.1,0.3,2.3-0.3,2.6-1.4l0.7-2.6l1-3.5c0.1-0.2,0.1-0.4,0.1-0.5c0-0.9-0.6-1.8-1.5-2
					l-11.9-3.4c-0.9-0.3-1.9,0.1-2.3,0.9c-0.1,0.1-0.2,0.3-0.2,0.5l-1,3.5l-0.7,2.6C855.2,643.2,855.9,644.4,857,644.7z"/>
			</g>
			<path class="st0" d="M824.7,658.3l13.6,3.9l-2.4,8.3c-1.5,5.2,1.5,10.7,6.7,12.2l18.3,5.2c5.2,1.5,10.7-1.5,12.2-6.7l2.4-8.3
				l13.6,3.9c2.2,0.6,4.5-0.6,5.1-2.8l5.1-17.7c0.6-2.2-0.6-4.5-2.8-5.1l-0.5-0.1l-19.7-5.6l-0.7,2.6c-0.9,3.3-4.4,5.2-7.7,4.3
				l-11.9-3.4c-3.3-0.9-5.2-4.4-4.3-7.7l0.7-2.6l-20.2-5.8l0,0c-2.2-0.6-4.5,0.6-5.1,2.8l-5.1,17.7
				C821.3,655.4,822.5,657.7,824.7,658.3z M866.4,679.3c-0.4,1.5-2.1,2.4-3.6,2l-18.3-5.2c-1.5-0.4-2.4-2.1-2-3.6l2.4-8.3l23.9,6.9
				L866.4,679.3z"/>
		</g>
		<g>
			<g>
				<path class="st0" d="M756,457l8.3,17.1c2.2,4.5,0.5,9.8-3.7,12.3l13.8,28.3l25.3-12.3c3.5-1.7,4.9-5.9,3.2-9.3l-38.4-78.8
					c-1.7-3.5-5.9-4.9-9.3-3.2l-25.3,12.3l14.1,29C748.6,450.5,753.8,452.5,756,457z"/>
				<path class="st0" d="M735.9,466.8l8.3,17.1c0.8,1.6,2.7,2.2,4.3,1.5l3.7-1.8l5-2.4c0.3-0.1,0.5-0.3,0.7-0.5
					c1.1-0.9,1.4-2.5,0.8-3.8l-8.3-17.1c-0.6-1.3-2.1-2-3.5-1.7c-0.3,0.1-0.5,0.1-0.8,0.2l-5,2.4l-3.7,1.8
					C735.7,463.3,735.1,465.2,735.9,466.8z"/>
			</g>
			<path class="st0" d="M687.3,444l9.5,19.4l-11.9,5.8c-7.5,3.6-10.6,12.7-6.9,20.1l12.8,26.2c3.6,7.5,12.7,10.6,20.1,6.9l11.9-5.8
				l9.5,19.4c1.5,3.2,5.3,4.5,8.5,2.9l25.4-12.4c3.2-1.5,4.5-5.3,2.9-8.5l-0.4-0.7l-13.8-28.2l-3.7,1.8c-4.7,2.3-10.4,0.3-12.8-4.4
				l-8.3-17.1c-2.3-4.7-0.3-10.4,4.4-12.8l3.7-1.8l-14.1-28.9l0,0c-1.5-3.2-5.3-4.5-8.5-2.9l-25.4,12.4
				C687.1,437.1,685.8,440.9,687.3,444z M706.2,513c-2.2,1.1-4.9,0.2-6-2.1l-12.8-26.2c-1.1-2.2-0.2-4.9,2.1-6l11.9-5.8l16.7,34.2
				L706.2,513z"/>
		</g>
		<g>
			<g>
				<path class="st0" d="M179.4,473.5l-11.5,5.9c-3,1.5-6.7,0.5-8.4-2.4l-19.1,9.7l8.7,17c1.2,2.3,4,3.3,6.4,2.1l53.2-27.1
					c2.3-1.2,3.3-4,2.1-6.4l-8.7-17l-19.6,10C183.7,468.4,182.4,472,179.4,473.5z"/>
				<path class="st0" d="M172.4,459.9l-11.5,5.9c-1.1,0.5-1.5,1.8-0.9,2.9l1.3,2.5l1.7,3.4c0.1,0.2,0.2,0.3,0.3,0.4
					c0.6,0.7,1.7,1,2.6,0.5l11.5-5.9c0.9-0.5,1.3-1.5,1.1-2.4c0-0.2-0.1-0.4-0.2-0.5l-1.7-3.4l-1.3-2.5
					C174.8,459.8,173.5,459.4,172.4,459.9z"/>
			</g>
			<path class="st0" d="M187.4,426.6l-13.1,6.7l-4.1-8c-2.6-5-8.7-7-13.8-4.5l-17.7,9c-5,2.6-7,8.7-4.5,13.8l4.1,8l-13.1,6.7
				c-2.1,1.1-3,3.7-1.9,5.8l8.7,17.1c1.1,2.1,3.7,3,5.8,1.9l0.5-0.3l19-9.7l-1.3-2.5c-1.6-3.2-0.4-7.1,2.8-8.7l11.5-5.9
				c3.2-1.6,7.1-0.4,8.7,2.8l1.3,2.5l19.5-9.9l0,0c2.1-1.1,3-3.7,1.9-5.8l-8.7-17.1C192.1,426.4,189.5,425.5,187.4,426.6z
				 M140.6,440.3c-0.8-1.5-0.2-3.3,1.3-4.1l17.7-9c1.5-0.8,3.3-0.2,4.1,1.3l4.1,8l-23.1,11.8L140.6,440.3z"/>
		</g>
		<g>
			<g>
				<path class="st0" d="M153.9,248.1l9.9-15.9c2.6-4.2,7.9-5.5,12.2-3.3l16.4-26.3L169,187.8c-3.2-2-7.5-1-9.5,2.2l-45.8,73.3
					c-2,3.2-1,7.5,2.2,9.5l23.5,14.7l16.9-27C152.4,257.6,151.3,252.2,153.9,248.1z"/>
				<path class="st0" d="M172.7,259.8l9.9-15.9c0.9-1.5,0.5-3.4-1-4.3l-3.5-2.2l-4.6-2.9c-0.2-0.1-0.5-0.2-0.7-0.3
					c-1.3-0.4-2.8,0.1-3.6,1.3l-9.9,15.9c-0.8,1.2-0.6,2.8,0.4,3.8c0.2,0.2,0.4,0.4,0.6,0.5l4.6,2.9l3.5,2.2
					C169.8,261.7,171.7,261.2,172.7,259.8z"/>
			</g>
			<path class="st0" d="M179,312.3l11.3-18.1l11.1,6.9c6.9,4.3,16.1,2.2,20.5-4.7l15.2-24.4c4.3-6.9,2.2-16.1-4.7-20.5l-11.1-6.9
				l11.3-18.1c1.8-2.9,0.9-6.8-2-8.6l-23.6-14.8c-2.9-1.8-6.8-0.9-8.6,2l-0.4,0.7l-16.4,26.3l3.5,2.2c4.4,2.7,5.7,8.6,3,13
				l-9.9,15.9c-2.7,4.4-8.6,5.7-13,3l-3.5-2.2l-16.8,26.9l0,0c-1.8,2.9-0.9,6.8,2,8.6l23.6,14.8C173.3,316.1,177.1,315.2,179,312.3z
				 M226.8,260.4c2.1,1.3,2.7,4,1.4,6.1L213,290.9c-1.3,2.1-4,2.7-6.1,1.4l-11.1-6.9l19.9-31.9L226.8,260.4z"/>
		</g>
		<g>
			<path class="st0" d="M378.9,0h-15.3l2.5,1C370.5,2.6,375.2,2.1,378.9,0z"/>
		</g>
		<g>
			<g>
				<path class="st0" d="M373.9,913.5l17.7,6.8c4.7,1.8,7.1,6.8,5.7,11.5l29.4,11.3l10.1-26.2c1.4-3.6-0.4-7.6-4-9l-81.9-31.4
					c-3.6-1.4-7.6,0.4-9,4l-10.1,26.2l30.1,11.6C364.1,913.9,369.2,911.8,373.9,913.5z"/>
				<path class="st0" d="M365.9,934.5l17.7,6.8c1.6,0.6,3.5-0.2,4.1-1.8l1.5-3.9l2-5.2c0.1-0.3,0.1-0.5,0.2-0.8
					c0.2-1.4-0.6-2.8-2-3.3l-17.7-6.8c-1.4-0.5-2.9,0-3.7,1.1c-0.2,0.2-0.3,0.4-0.4,0.7l-2,5.2l-1.5,3.9
					C363.4,932,364.2,933.9,365.9,934.5z"/>
			</g>
			<path class="st0" d="M385.6,992.3l4.7-12.4l20.2,7.7c3.3,1.3,7-0.4,8.2-3.7l10.1-26.4c1.3-3.3-0.4-7-3.7-8.2l-0.8-0.3l-29.3-11.3
				l-1.5,3.9c-1.9,4.9-7.4,7.4-12.3,5.5l-17.7-6.8c-4.9-1.9-7.4-7.4-5.5-12.3l1.5-3.9l-30-11.5l0,0c-3.3-1.3-7,0.4-8.2,3.7
				l-10.1,26.4c-1.3,3.3,0.4,7,3.7,8.2l20.2,7.7l-4.7,12.4c-3,7.8,0.9,16.5,8.7,19.5l24.7,9.5h15.3
				C381.9,998.3,384.3,995.7,385.6,992.3z M375.7,988.5c-0.9,2.3-3.5,3.4-5.8,2.6l-27.2-10.4c-2.3-0.9-3.5-3.5-2.6-5.8l4.7-12.4
				l35.6,13.6L375.7,988.5z"/>
		</g>
		<g>
			<g>
				<path class="st0" d="M749.5,793.6l-13.3,10.8c-3.5,2.8-8.5,2.4-11.6-0.8l-22.1,17.9l16,19.7c2.2,2.7,6.1,3.1,8.8,0.9l61.5-49.8
					c2.7-2.2,3.1-6.1,0.9-8.8l-16-19.7l-22.6,18.3C753.6,785.7,753,790.7,749.5,793.6z"/>
				<path class="st0" d="M736.7,777.8l-13.3,10.8c-1.2,1-1.4,2.8-0.4,4l2.4,2.9l3.2,3.9c0.2,0.2,0.3,0.4,0.5,0.5
					c1,0.8,2.5,0.8,3.5-0.1l13.3-10.8c1-0.8,1.3-2.2,0.8-3.4c-0.1-0.2-0.2-0.4-0.4-0.6l-3.2-3.9l-2.4-2.9
					C739.8,777,738,776.9,736.7,777.8z"/>
			</g>
			<path class="st0" d="M746.9,730.5l-15.2,12.3l-7.5-9.3c-4.7-5.8-13.3-6.7-19.1-2l-20.5,16.6c-5.8,4.7-6.7,13.3-2,19.1l7.5,9.3
				L675,788.7c-2.5,2-2.8,5.6-0.8,8.1l16.1,19.8c2,2.5,5.6,2.8,8.1,0.8l0.6-0.5l22-17.8l-2.4-2.9c-3-3.7-2.4-9.1,1.3-12.1l13.3-10.8
				c3.7-3,9.1-2.4,12.1,1.3l2.4,2.9l22.6-18.3l0,0c2.5-2,2.8-5.6,0.8-8.1L755,731.4C753,728.9,749.4,728.5,746.9,730.5z
				 M690.1,761.2c-1.4-1.7-1.1-4.3,0.6-5.7l20.5-16.6c1.7-1.4,4.3-1.1,5.7,0.6l7.5,9.3l-26.7,21.6L690.1,761.2z"/>
		</g>
		<g>
			<g>
				<path class="st0" d="M530.5,666.2l8.6,6.5c2.3,1.7,2.8,4.9,1.3,7.2l14.3,10.8l9.6-12.8c1.3-1.7,1-4.2-0.8-5.6l-39.9-30.1
					c-1.7-1.3-4.2-1-5.6,0.8l-9.6,12.8l14.7,11.1C525,664.8,528.2,664.5,530.5,666.2z"/>
				<path class="st0" d="M522.8,676.4l8.6,6.5c0.8,0.6,1.9,0.4,2.5-0.4l1.4-1.9l1.9-2.5c0.1-0.1,0.2-0.3,0.2-0.4
					c0.3-0.7,0.1-1.6-0.6-2.1l-8.6-6.5c-0.7-0.5-1.6-0.5-2.2,0c-0.1,0.1-0.2,0.2-0.3,0.3l-1.9,2.5l-1.4,1.9
					C521.8,674.6,522,675.8,522.8,676.4z"/>
			</g>
			<path class="st0" d="M492.3,677.4l9.8,7.4l-4.5,6c-2.8,3.8-2.1,9.2,1.7,12l13.3,10c3.8,2.8,9.2,2.1,12-1.7l4.5-6l9.8,7.4
				c1.6,1.2,3.9,0.9,5.1-0.7l9.7-12.9c1.2-1.6,0.9-3.9-0.7-5.1l-0.4-0.3l-14.3-10.8l-1.4,1.9c-1.8,2.4-5.2,2.9-7.6,1.1l-8.6-6.5
				c-2.4-1.8-2.9-5.2-1.1-7.6l1.4-1.9l-14.6-11l0,0c-1.6-1.2-3.9-0.9-5.1,0.7l-9.7,12.9C490.4,673.9,490.7,676.2,492.3,677.4z
				 M519.7,707.5c-0.8,1.1-2.4,1.3-3.6,0.5l-13.3-10c-1.1-0.8-1.3-2.4-0.5-3.6l4.5-6l17.3,13.1L519.7,707.5z"/>
		</g>
		<g>
			<g>
				<path class="st0" d="M215.4,869.1l9.5,8c2.5,2.1,2.9,5.7,1.1,8.3l15.7,13.2l11.8-14.1c1.6-1.9,1.4-4.8-0.6-6.4L209,841.4
					c-1.9-1.6-4.8-1.4-6.4,0.6L190.8,856l16.1,13.5C209.2,867.2,212.9,867,215.4,869.1z"/>
				<path class="st0" d="M206,880.3l9.5,8c0.9,0.7,2.2,0.6,2.9-0.3l1.7-2.1l2.3-2.8c0.1-0.1,0.2-0.3,0.3-0.4
					c0.4-0.8,0.2-1.9-0.5-2.5l-9.5-8c-0.7-0.6-1.8-0.6-2.5-0.1c-0.1,0.1-0.3,0.2-0.4,0.4l-2.3,2.8l-1.7,2.1
					C205,878.3,205.1,879.6,206,880.3z"/>
			</g>
			<path class="st0" d="M171,879.6l10.8,9.1l-5.6,6.6c-3.5,4.2-2.9,10.4,1.2,13.9l14.6,12.2c4.2,3.5,10.4,2.9,13.9-1.2l5.6-6.6
				l10.8,9.1c1.8,1.5,4.4,1.2,5.8-0.5l11.9-14.1c1.5-1.8,1.2-4.4-0.5-5.8l-0.4-0.3l-15.7-13.2l-1.7,2.1c-2.2,2.6-6.1,3-8.8,0.8
				l-9.5-8c-2.6-2.2-3-6.1-0.8-8.8l1.7-2.1l-16.1-13.5l0,0c-1.8-1.5-4.4-1.2-5.8,0.5l-11.9,14.1C169,875.5,169.2,878.2,171,879.6z
				 M200.5,915.7c-1,1.2-2.9,1.4-4.1,0.4l-14.6-12.2c-1.2-1-1.4-2.9-0.4-4.1l5.6-6.6l19,16L200.5,915.7z"/>
		</g>
		<g>
			<path class="st0" d="M999.6,5.9c-1.2,0.4-2.4-0.3-2.8-1.4L995.4,0h-5.6l2,6.1c1.1,3.5,4.7,5.6,8.2,5.1V5.8L999.6,5.9z"/>
		</g>
		<g>
			<g>
				<path class="st0" d="M46.7,7.1c1.8-0.6,2.8-2.6,2.2-4.4L48,0H29.6l3.7,11.5L46.7,7.1z"/>
			</g>
			<path class="st0" d="M7.6,8.9l3.3,10.3c0.5,1.7,2.3,2.6,4,2l13.4-4.4c1.7-0.5,2.6-2.3,2-4l-0.1-0.4L26.2,0H4.7l1.3,3.9L0,5.8v5.4
				c0.4-0.1,0.9-0.2,1.3-0.3L7.6,8.9z"/>
		</g>
		<g>
			<path class="st0" d="M992.3,990.6c-0.4-1.2,0.3-2.4,1.4-2.8l6.2-2v-20.3l-2.9,0.9c-1.7,0.5-2.6,2.3-2,4l3.3,10.3l-6.3,2
				c-3.9,1.3-6.1,5.5-4.8,9.5l2.5,7.8h5.6L992.3,990.6z"/>
		</g>
		<g>
			<g>
				<path class="st0" d="M31,958.8l-13.4,4.3l5,15.3c2.4-0.6,4.8,0.8,5.6,3.1l2.9,9c0.8,2.4-0.4,4.9-2.7,5.8l1.1,3.5H48l-12.7-39
					C34.8,959.2,32.8,958.2,31,958.8z"/>
				<path class="st0" d="M17.5,985.1l2.9,9c0.3,0.8,1.2,1.3,2,1l2-0.6l2.6-0.9c0.1,0,0.3-0.1,0.4-0.2c0.6-0.4,0.9-1.1,0.7-1.8
					l-2.9-9c-0.2-0.7-0.9-1.1-1.6-1.1c-0.1,0-0.3,0-0.4,0.1l-2.6,0.9l-2,0.6C17.7,983.4,17.3,984.3,17.5,985.1z"/>
			</g>
			<path class="st0" d="M23.5,998.2c-2.5,0.8-5.2-0.6-6-3.1l-2.9-9c-0.8-2.5,0.6-5.2,3.1-6l2-0.6l-5-15.3l0,0c-0.5-1.7-2.3-2.6-4-2
				L0,965.5v20.3l0.1,0l4.6,14.3h21.5l-0.8-2.5L23.5,998.2z"/>
		</g>
		<g>
			<g>
				<path class="st0" d="M870.4,365.3l12.9-10.1c3.4-2.6,8.2-2.2,11,0.9l21.4-16.7l-14.9-19.1c-2-2.6-5.8-3.1-8.4-1l-59.5,46.5
					c-2.6,2-3.1,5.8-1,8.4l14.9,19.1l21.9-17.1C866.3,372.7,867,367.9,870.4,365.3z"/>
				<path class="st0" d="M882.3,380.5l12.9-10.1c1.2-0.9,1.4-2.7,0.5-3.8l-2.2-2.8l-2.9-3.8c-0.1-0.2-0.3-0.3-0.5-0.5
					c-1-0.7-2.3-0.8-3.3,0l-12.9,10.1c-1,0.8-1.3,2.1-0.8,3.2c0.1,0.2,0.2,0.4,0.3,0.6l2.9,3.8l2.2,2.8
					C879.4,381.2,881.1,381.4,882.3,380.5z"/>
			</g>
			<path class="st0" d="M871.8,425.4l14.7-11.5l7,9c4.4,5.6,12.6,6.6,18.2,2.2l19.8-15.5c5.6-4.4,6.6-12.6,2.2-18.2l-7-9l14.7-11.5
				c2.4-1.9,2.8-5.3,0.9-7.7l-15-19.2c-1.9-2.4-5.3-2.8-7.7-0.9l-0.6,0.4l-21.3,16.6l2.2,2.8c2.8,3.6,2.2,8.7-1.4,11.5l-12.9,10.1
				c-3.6,2.8-8.7,2.2-11.5-1.4l-2.2-2.8l-21.8,17.1l0,0c-2.4,1.9-2.8,5.3-0.9,7.7l15,19.2C866,426.9,869.4,427.3,871.8,425.4z
				 M926.5,397.2c1.3,1.7,1,4.1-0.7,5.4L906.1,418c-1.7,1.3-4.1,1-5.4-0.7l-7-9l25.8-20.2L926.5,397.2z"/>
		</g>
		<g>
			<g>
				<path class="st0" d="M632.1,80.7l2.6-12.1c0.7-3.2,3.7-5.2,6.9-4.9l4.3-20.1l-17.9-3.8c-2.5-0.5-4.9,1-5.4,3.5l-11.9,56
					c-0.5,2.5,1,4.9,3.5,5.4l17.9,3.8l4.4-20.6C633.4,87,631.5,83.9,632.1,80.7z"/>
				<path class="st0" d="M646.4,83.8l2.6-12.1c0.2-1.1-0.5-2.2-1.6-2.5l-2.6-0.6l-3.5-0.8c-0.2,0-0.4,0-0.5,0
					c-0.9,0-1.7,0.7-1.9,1.6l-2.6,12.1c-0.2,0.9,0.3,1.9,1.1,2.3c0.2,0.1,0.3,0.1,0.5,0.2l3.5,0.8l2.6,0.6
					C645.1,85.6,646.2,84.9,646.4,83.8z"/>
			</g>
			<path class="st0" d="M662.3,115l2.9-13.8l8.5,1.8c5.3,1.1,10.5-2.3,11.7-7.6l4-18.6c1.1-5.3-2.3-10.5-7.6-11.7l-8.5-1.8l2.9-13.8
				c0.5-2.2-1-4.4-3.2-4.9l-18-3.8c-2.2-0.5-4.4,1-4.9,3.2l-0.1,0.5l-4.3,20l2.6,0.6c3.4,0.7,5.5,4,4.8,7.4l-2.6,12.1
				c-0.7,3.4-4,5.5-7.4,4.8l-2.6-0.6l-4.4,20.5l0,0c-0.5,2.2,1,4.4,3.2,4.9l18,3.8C659.6,118.7,661.8,117.2,662.3,115z M680.3,71.9
				c1.6,0.3,2.6,1.9,2.2,3.5l-4,18.6c-0.3,1.6-1.9,2.6-3.5,2.2l-8.5-1.8l5.2-24.3L680.3,71.9z"/>
		</g>
		<g>
			<g>
				<path class="st0" d="M777.5,308.9l-2.2,12.5c-0.6,3.3-3.6,5.5-6.8,5.2l-3.6,20.7l18.4,3.3c2.5,0.4,4.9-1.2,5.4-3.8l10.2-57.6
					c0.4-2.5-1.2-4.9-3.8-5.4l-18.4-3.3l-3.7,21.2C776,302.5,778.1,305.6,777.5,308.9z"/>
				<path class="st0" d="M762.8,306.3l-2.2,12.5c-0.2,1.1,0.6,2.3,1.7,2.5l2.7,0.5l3.6,0.6c0.2,0,0.4,0,0.5,0
					c0.9-0.1,1.7-0.8,1.9-1.7l2.2-12.5c0.2-1-0.4-1.9-1.2-2.3c-0.2-0.1-0.3-0.1-0.5-0.2l-3.6-0.6l-2.7-0.5
					C764.1,304.4,763,305.1,762.8,306.3z"/>
			</g>
			<path class="st0" d="M745.5,275l-2.5,14.2l-8.7-1.5c-5.5-1-10.7,2.7-11.6,8.1l-3.4,19.1c-1,5.5,2.7,10.7,8.1,11.6l8.7,1.5
				l-2.5,14.2c-0.4,2.3,1.1,4.5,3.4,4.9l18.6,3.3c2.3,0.4,4.5-1.1,4.9-3.4l0.1-0.5l3.6-20.6l-2.7-0.5c-3.5-0.6-5.8-3.9-5.2-7.4
				l2.2-12.5c0.6-3.5,3.9-5.8,7.4-5.2l2.7,0.5l3.7-21.1l0,0c0.4-2.3-1.1-4.5-3.4-4.9l-18.6-3.3C748.1,271.1,745.9,272.7,745.5,275z
				 M728.7,319.6c-1.6-0.3-2.7-1.8-2.4-3.4l3.4-19.1c0.3-1.6,1.8-2.7,3.4-2.4l8.7,1.5l-4.4,25L728.7,319.6z"/>
		</g>
	</g>
</g>
</svg>
