<svg width="35" height="35" viewBox="0 0 35 35" fill="none" xmlns="http://www.w3.org/2000/svg">
<rect width="35" height="35" fill="#FFF9EB"/>
<path d="M10.0017 7.33042L17.5073 14.836L24.9739 7.36931C25.1389 7.19376 25.3375 7.05333 25.5581 6.95643C25.7786 6.85953 26.0164 6.80817 26.2573 6.80542C26.773 6.80542 27.2675 7.01028 27.6322 7.37493C27.9968 7.73959 28.2017 8.23417 28.2017 8.74986C28.2062 8.98826 28.162 9.22506 28.0717 9.44574C27.9815 9.66643 27.847 9.86634 27.6767 10.0332L20.1128 17.4999L27.6767 25.0638C27.9972 25.3773 28.1851 25.8018 28.2017 26.2499C28.2017 26.7656 27.9968 27.2601 27.6322 27.6248C27.2675 27.9894 26.773 28.1943 26.2573 28.1943C26.0095 28.2046 25.7622 28.1632 25.5312 28.0728C25.3003 27.9825 25.0906 27.845 24.9156 27.6693L17.5073 20.1638L10.0212 27.6499C9.85686 27.8196 9.66058 27.955 9.44365 28.0485C9.22673 28.1419 8.99344 28.1915 8.75726 28.1943C8.24156 28.1943 7.74699 27.9894 7.38233 27.6248C7.01768 27.2601 6.81282 26.7656 6.81282 26.2499C6.80828 26.0115 6.85251 25.7747 6.94279 25.554C7.03307 25.3333 7.1675 25.1334 7.33782 24.9665L14.9017 17.4999L7.33782 9.93598C7.01734 9.62245 6.82942 9.19789 6.81282 8.74986C6.81282 8.23417 7.01768 7.73959 7.38233 7.37493C7.74699 7.01028 8.24156 6.80542 8.75726 6.80542C9.22393 6.81125 9.67115 6.99986 10.0017 7.33042Z" fill="#3E2600"/>
</svg>
