<svg width="40" height="40" viewBox="0 0 40 40" fill="none" xmlns="http://www.w3.org/2000/svg">
<mask id="mask0_6334_6361" style="mask-type:luminance" maskUnits="userSpaceOnUse" x="0" y="0" width="40" height="40">
<path d="M0 3.8147e-06H40V40H0V3.8147e-06Z" fill="white"/>
</mask>
<g mask="url(#mask0_6334_6361)">
<path fill-rule="evenodd" clip-rule="evenodd" d="M15.6642 33.75H31.3926C31.3926 31.0449 32.8906 28.3398 32.8906 25.6347V19.0429C32.8906 15.6798 29.2721 14.773 28.193 15.8986C27.4757 14.2048 25.0482 13.6846 23.8735 14.5998C22.9957 12.82 20.2262 12.6134 19.5698 13.7993L19.4091 6.40633C19.381 5.11766 18.3979 4.06258 17.1621 4.06258C15.9263 4.06258 14.9152 5.11727 14.9152 6.40633V22.8711C12.2758 21.5234 12.9067 19.5613 10.054 18.9461C8.23632 18.5541 6.60335 20.1349 7.25593 21.1214C7.7178 21.8196 8.64804 22.6484 9.53272 25.0766C11.3033 29.9369 15.6642 28.8845 15.6642 33.75Z" fill="#FFE2BC"/>
<path fill-rule="evenodd" clip-rule="evenodd" d="M31.3886 33.75H15.6602H14.8828V39.2188H32.1661V33.75H31.3886Z" fill="#E8AB80"/>
<path fill-rule="evenodd" clip-rule="evenodd" d="M31.3875 34.4944C31.8189 34.4965 32.1705 34.1485 32.1726 33.7171C32.1788 32.4935 32.5197 31.25 32.8983 29.8823L32.9074 29.8496C33.2723 28.5319 33.6705 27.0935 33.6705 25.6346V19.0429C33.6705 17.0346 32.5695 15.7105 31.2889 15.086C30.6603 14.7794 29.9789 14.6354 29.3505 14.6614C29.0523 14.6738 28.746 14.7261 28.4578 14.8304C28.056 14.3237 27.5237 13.9473 26.9613 13.708C26.0882 13.3365 25.0211 13.2453 24.1266 13.5775C23.6518 13.0243 23.0182 12.6521 22.3783 12.4551C21.7409 12.2589 21.0573 12.2187 20.4478 12.3512C20.405 12.3605 20.362 12.3708 20.3191 12.3821L20.1888 6.38935L19.4597 6.40521L20.1888 6.38934C20.1527 4.72985 18.8734 3.28134 17.1609 3.28134C15.4629 3.28134 14.1326 4.71717 14.1326 6.40634V21.3666C13.822 21.0573 13.5885 20.7281 13.3413 20.3796C13.2939 20.3128 13.246 20.2452 13.197 20.177C12.9225 19.7952 12.5963 19.3716 12.1169 19.0071C11.6297 18.6367 11.0251 18.3566 10.2173 18.1824C9.04858 17.9303 7.94265 18.3101 7.22212 18.9208C6.56048 19.4817 5.94234 20.5536 6.603 21.5524L6.60304 21.5525C6.73073 21.7455 6.87416 21.9304 7.02995 22.1311C7.52908 22.7745 8.15513 23.5814 8.79727 25.344C9.70002 27.8221 11.2484 28.9304 12.4962 29.8236C12.5942 29.8937 12.6903 29.9625 12.7841 30.0305C13.4332 30.5012 13.9317 30.9051 14.287 31.4338C14.628 31.9412 14.8724 32.6205 14.8813 33.6891C14.885 34.1206 15.2377 34.4674 15.6691 34.4638C16.1006 34.4602 16.4474 34.1075 16.4438 33.676C16.4327 32.3505 16.1209 31.3616 15.5839 30.5624C15.0612 29.7844 14.3599 29.2431 13.7014 28.7656C13.6091 28.6987 13.5168 28.6323 13.4247 28.5662C12.1937 27.6817 10.9992 26.8235 10.2654 24.8092L10.2654 24.8092C9.52801 22.7851 8.71532 21.7446 8.21912 21.1093C8.09175 20.9462 7.98524 20.8099 7.9062 20.6904C7.89441 20.6726 7.87508 20.6418 7.90507 20.548C7.94017 20.4381 8.03888 20.2768 8.23246 20.1127C8.61969 19.7845 9.23904 19.5698 9.88794 19.7098L9.88795 19.7098C10.5059 19.8431 10.8919 20.0386 11.1712 20.2509C11.4581 20.4691 11.674 20.7352 11.9282 21.0889C11.9744 21.1532 12.0213 21.2197 12.0695 21.288C12.5057 21.9061 13.0468 22.6729 14.1326 23.33V23.6524C14.1326 24.0838 14.4824 24.4336 14.9139 24.4336C15.3454 24.4336 15.6951 24.0838 15.6951 23.6524V6.40634C15.6951 5.51738 16.3873 4.84384 17.1609 4.84384C17.9197 4.84384 18.6067 5.50549 18.6267 6.42332L18.8513 16.7553C18.8607 17.1866 19.218 17.5287 19.6494 17.5194C20.0808 17.51 20.4229 17.1527 20.4135 16.7213L20.3556 14.0603C20.44 13.9921 20.5743 13.9226 20.7796 13.878C21.1007 13.8083 21.511 13.823 21.9186 13.9485C22.724 14.1964 23.3591 14.8058 23.3591 15.8056C23.3591 16.2371 23.7089 16.5869 24.1404 16.5869C24.5719 16.5869 24.9216 16.2371 24.9216 15.8056C24.9216 15.5168 24.8911 15.2462 24.8346 14.9937C25.2573 14.8869 25.8089 14.9157 26.3495 15.1458C27.0899 15.4608 27.6141 16.0721 27.6141 16.9335C27.6141 17.365 27.9639 17.7148 28.3954 17.7148C28.8269 17.7148 29.1766 17.365 29.1766 16.9335C29.1766 16.6986 29.155 16.4748 29.1145 16.2622C29.1996 16.2419 29.2995 16.2274 29.4152 16.2226C29.7687 16.2079 30.1937 16.2903 30.604 16.4904C31.4014 16.8792 32.108 17.6896 32.108 19.0429V25.6346C32.108 26.8565 31.7708 28.0992 31.3925 29.4654L31.3745 29.5305C31.0124 30.838 30.6174 32.264 30.6102 33.7092C30.608 34.1407 30.956 34.4922 31.3875 34.4944Z" fill="black"/>
<path fill-rule="evenodd" clip-rule="evenodd" d="M14.1016 39.2188C14.1016 39.6502 14.4513 40 14.8828 40H32.1661C32.5976 40 32.9473 39.6502 32.9473 39.2188V33.75C32.9473 33.3185 32.5976 32.9688 32.1661 32.9688H27.0398C26.6083 32.9688 26.2585 33.3185 26.2585 33.75C26.2585 34.1815 26.6083 34.5313 27.0398 34.5313H31.3848V38.4375H15.6641V34.5313H20.0085C20.44 34.5313 20.7898 34.1815 20.7898 33.75C20.7898 33.3185 20.44 32.9688 20.0085 32.9688H14.8828C14.4513 32.9688 14.1016 33.3185 14.1016 33.75V39.2188Z" fill="black"/>
<path fill-rule="evenodd" clip-rule="evenodd" d="M11.5391 7.1875C11.9705 7.1875 12.3203 6.83772 12.3203 6.40625C12.3203 3.731 14.4891 1.56227 17.1642 1.56227C19.8395 1.56227 22.0082 3.731 22.0082 6.40625C22.0082 6.83772 22.358 7.1875 22.7895 7.1875C23.2209 7.1875 23.5707 6.83772 23.5707 6.40625C23.5707 2.86806 20.7024 -0.000234127 17.1642 -0.000234127C13.6261 -0.000234127 10.7578 2.86807 10.7578 6.40625C10.7578 6.83772 11.1076 7.1875 11.5391 7.1875Z" fill="black"/>
<path fill-rule="evenodd" clip-rule="evenodd" d="M22.7422 33.75C22.7422 34.1815 23.092 34.5312 23.5234 34.5312H23.5241C23.9555 34.5312 24.3053 34.1815 24.3053 33.75C24.3053 33.3185 23.9555 32.9688 23.5241 32.9688H23.5234C23.092 32.9688 22.7422 33.3185 22.7422 33.75Z" fill="black"/>
</g>
</svg>
