<svg width="283" height="70" viewBox="0 0 283 70" fill="none" xmlns="http://www.w3.org/2000/svg">
<g clip-path="url(#clip0_4799_324)">
<path d="M26.4219 37.0511H16.7853L21.9177 20.3053L26.4219 37.0511ZM11.787 55.5053L15.0768 44.478H28.0597L31.1378 55.4771H43.1394L31.2154 13.5421C30.5095 11.0641 29.0269 9.92041 26.4219 9.92041H9.40076V13.8809H10.8127C12.5918 13.8809 13.5519 14.5869 13.5519 15.9353C13.5519 16.8319 13.3542 17.5803 12.6483 19.6205L0.703125 55.5053H11.787Z" fill="#003781"/>
<path d="M57.0267 55.5053V13.415C57.0267 11.2194 55.7418 9.92041 53.6169 9.92041H43.0625V13.8809H43.7685C45.5405 13.8809 46.2959 14.6363 46.2959 16.4295V55.5053H57.0267Z" fill="#003781"/>
<path d="M75.2719 55.5053V13.415C75.2719 11.2194 73.9659 9.92041 71.855 9.92041H61.3359V13.8809H62.0419C63.821 13.8809 64.5764 14.6363 64.5764 16.4295V55.5053H75.2719Z" fill="#003781"/>
<path d="M93.9824 14.0786C93.9824 11.0217 91.7162 9.13672 87.8333 9.13672C83.9505 9.13672 81.6702 10.9864 81.6702 14.0786C81.6702 17.1707 84.0069 19.0204 87.8333 19.0204C91.6597 19.0204 93.9824 17.1849 93.9824 14.0786ZM93.7777 55.5053V24.8235C93.7777 22.635 92.4787 21.3431 90.3537 21.3431H79.9688V25.2259H80.583C82.355 25.2259 83.1103 26.0449 83.1103 27.8239V55.5053H93.7777Z" fill="#003781"/>
<path d="M117.275 39.0981V45.7414C115.489 47.584 113.315 48.7135 111.472 48.7135C109.629 48.7135 108.874 47.7675 108.874 45.1837C108.874 42.5998 109.411 41.5055 111.331 40.7642C113.243 39.9858 115.237 39.4269 117.275 39.0981M102.845 31.1206C106.124 29.4937 109.713 28.5839 113.371 28.452C116.251 28.452 117.275 29.4757 117.275 32.462V33.2244C112.905 33.9304 111.536 34.1987 109.072 34.7423C107.692 35.0462 106.341 35.469 105.033 36.006C100.72 37.7356 98.6797 41.0678 98.6797 46.1861C98.6797 52.6811 101.504 55.8157 107.286 55.8157C109.252 55.8237 111.203 55.4571 113.032 54.7355C114.692 53.9802 116.235 52.9912 117.614 51.7987V52.2787C117.614 54.3967 118.701 55.4768 120.826 55.4768H130.604V51.8269H130.124C128.281 51.8269 127.604 51.0009 127.604 48.8194V32.5467C127.604 23.8702 124.589 20.8486 115.898 20.8486C113.143 20.8624 110.399 21.1868 107.716 21.8158C105.182 22.381 102.741 23.3033 100.466 24.555L102.845 31.1206Z" fill="#003781"/>
<path d="M146.168 55.5053V32.4057C147.954 30.4219 149.79 29.5253 151.908 29.5253C154.174 29.5253 154.732 30.4219 154.732 33.86V55.5053H165.392V32.2786C165.392 26.8709 165.004 25.1624 163.274 23.3269C161.862 21.7384 159.652 20.9336 156.836 20.9336C152.663 20.9336 149.726 22.2255 145.78 25.9178V24.5553C145.78 22.4373 144.672 21.3431 142.49 21.3431H132.359V25.2259H132.974C134.746 25.2259 135.508 26.0449 135.508 27.8239V55.5053H146.168Z" fill="#003781"/>
<path d="M197.017 48.3322H182.142L196.368 28.3884V21.3286H174.059C171.531 21.3286 170.367 22.4864 170.367 25.0209V31.2335H174.327V30.6263C174.327 29.052 175.146 28.3037 176.847 28.3037H184.514L170.141 48.4734V55.5332H196.968L197.017 48.3322Z" fill="#003781"/>
<path d="M252.979 54.6365V16.0125C252.979 12.9345 251.885 11.8967 248.898 11.8967H239.855V16.2384H240.398C242.46 16.2384 242.862 16.7044 242.862 19.1894V54.6365H252.979ZM257.441 54.6365H267.48V24.5548C267.48 21.5333 266.315 20.4461 263.371 20.4461H257.441V54.6365ZM238.429 54.6365V20.4743H232.477C229.533 20.4743 228.383 21.5615 228.383 24.5831V54.6365H238.429ZM276.982 35.0033C276.982 52.0244 264.741 64.4002 247.931 64.4002C231.122 64.4002 218.852 52.0244 218.852 35.0033C218.852 17.9822 231.115 5.60643 247.931 5.60643C264.748 5.60643 276.982 18.0528 276.982 35.0033ZM282.927 35.0033C282.927 14.9889 267.953 0.000976562 247.931 0.000976562C227.91 0.000976562 212.922 14.9889 212.922 35.0033C212.922 55.0177 227.896 69.9986 247.931 69.9986C267.967 69.9986 282.927 55.0672 282.927 35.0033Z" fill="#003781"/>
</g>
<defs>
<clipPath id="clip0_4799_324">
<rect width="282.221" height="70" fill="white" transform="translate(0.703125)"/>
</clipPath>
</defs>
</svg>
