<svg width="232" height="70" viewBox="0 0 232 70" fill="none" xmlns="http://www.w3.org/2000/svg">
<g clip-path="url(#clip0_4799_307)">
<path d="M143.852 54.686C130.391 64.608 110.88 69.9018 94.0806 69.9018C70.5258 69.9018 49.3204 61.1898 33.2777 46.6999C32.0173 45.5605 33.1466 44.0077 34.6591 44.895C51.9723 54.9683 73.3794 61.0284 95.4923 61.0284C110.406 61.0284 126.811 57.9429 141.896 51.54C144.175 50.5719 146.081 53.0323 143.852 54.686Z" fill="#FF9900"/>
<path d="M149.446 48.2833C147.731 46.0851 138.072 47.2447 133.736 47.759C132.415 47.9203 132.213 46.7708 133.403 45.944C141.097 40.5292 153.721 42.0921 155.193 43.9071C156.665 45.7322 154.81 58.3869 147.58 64.4268C146.471 65.3545 145.412 64.8604 145.906 63.6303C147.53 59.5767 151.17 50.4916 149.446 48.2833" fill="#FF9900"/>
<path d="M134.036 7.71759V2.45405C134.036 1.65747 134.641 1.12305 135.367 1.12305H158.932C159.689 1.12305 160.294 1.66755 160.294 2.45405V6.96134C160.284 7.71759 159.648 8.70576 158.519 10.2687L146.308 27.7029C150.845 27.592 155.635 28.2676 159.749 30.5867C160.677 31.1111 160.929 31.8774 160.999 32.6337V38.2501C160.999 39.0165 160.152 39.9139 159.265 39.4501C152.015 35.6486 142.385 35.2352 134.369 39.4904C133.552 39.9341 132.695 39.0467 132.695 38.2804V32.9463C132.695 32.0892 132.705 30.6271 133.562 29.3263L147.709 9.03852H135.398C134.641 9.03852 134.036 8.5041 134.036 7.71759" fill="#221F1F"/>
<path d="M48.0749 40.5595H40.9056C40.2199 40.5091 39.6754 39.9949 39.625 39.3394V2.54511C39.625 1.80902 40.2401 1.22418 41.0064 1.22418H47.6917C48.3875 1.25441 48.9421 1.78885 48.9925 2.45435V7.26414H49.1236C50.868 2.61568 54.1451 0.447754 58.5616 0.447754C63.0487 0.447754 65.8519 2.61568 67.8686 7.26414C69.603 2.61568 73.5456 0.447754 77.7705 0.447754C80.7754 0.447754 84.0626 1.68801 86.0691 4.47103C88.3379 7.56663 87.8741 12.0638 87.8741 16.0064L87.864 39.2285C87.864 39.9646 87.2489 40.5595 86.4826 40.5595H79.3234C78.6074 40.5091 78.0327 39.9344 78.0327 39.2285V19.7272C78.0327 18.1744 78.1738 14.3024 77.831 12.8302C77.2966 10.3597 75.6933 9.66398 73.6162 9.66398C71.8818 9.66398 70.0668 10.8236 69.3307 12.6789C68.5946 14.5343 68.6652 17.6399 68.6652 19.7272V39.2285C68.6652 39.9646 68.0501 40.5595 67.2838 40.5595H60.1246C59.3986 40.5091 58.8339 39.9344 58.8339 39.2285L58.8238 19.7272C58.8238 15.6233 59.4994 9.58332 54.4073 9.58332C49.2546 9.58332 49.4563 15.472 49.4563 19.7272V39.2285C49.4563 39.9646 48.8412 40.5595 48.0749 40.5595Z" fill="#221F1F"/>
<path d="M180.579 0.447754C191.217 0.447754 196.974 9.58332 196.974 21.1994C196.974 32.4222 190.612 41.3259 180.579 41.3259C170.132 41.3259 164.445 32.1903 164.445 20.8061C164.445 9.3514 170.203 0.447754 180.579 0.447754M180.639 7.95989C175.356 7.95989 175.023 15.1594 175.023 19.6466C175.023 24.1438 174.952 33.7431 180.579 33.7431C186.135 33.7431 186.397 25.9991 186.397 21.2801C186.397 18.1744 186.266 14.4637 185.328 11.5193C184.521 8.95815 182.918 7.95989 180.639 7.95989" fill="#221F1F"/>
<path d="M210.776 40.5595H203.637C202.921 40.5091 202.346 39.9344 202.346 39.2285L202.336 2.4241C202.396 1.74851 202.991 1.22418 203.717 1.22418H210.362C210.987 1.25441 211.502 1.67793 211.643 2.25268V7.87922H211.774C213.781 2.8476 216.594 0.447754 221.545 0.447754C224.761 0.447754 227.897 1.60735 229.914 4.78362C231.79 7.72797 231.79 12.6789 231.79 16.2384V39.3999C231.709 40.0453 231.114 40.5595 230.408 40.5595H223.219C222.563 40.5091 222.019 40.0251 221.948 39.3999V19.4146C221.948 15.3914 222.412 9.50265 217.461 9.50265C215.717 9.50265 214.113 10.6723 213.317 12.447C212.308 14.6956 212.177 16.9341 212.177 19.4146V39.2285C212.167 39.9646 211.542 40.5595 210.776 40.5595" fill="#221F1F"/>
<path d="M115.25 22.984V21.4312C110.067 21.4312 104.592 22.5404 104.592 28.6509C104.592 31.7465 106.195 33.8439 108.948 33.8439C110.964 33.8439 112.769 32.6036 113.909 30.5869C115.32 28.1064 115.25 25.7771 115.25 22.984M122.48 40.4586C122.006 40.8821 121.32 40.9123 120.786 40.63C118.406 38.6537 117.982 37.7361 116.671 35.8505C112.739 39.8637 109.956 41.0636 104.854 41.0636C98.8239 41.0636 94.125 37.3428 94.125 29.8912C94.125 24.0731 97.2811 20.1103 101.768 18.1743C105.66 16.4601 111.095 16.1576 115.25 15.6837V14.756C115.25 13.0519 115.381 11.0352 114.383 9.56305C113.505 8.24212 111.831 7.69761 110.359 7.69761C107.627 7.69761 105.186 9.0992 104.592 12.0032C104.471 12.6486 103.997 13.2838 103.351 13.3141L96.3938 12.5679C95.8089 12.4368 95.1636 11.9629 95.3249 11.0655C96.9282 2.63575 104.541 0.0947266 111.358 0.0947266C114.846 0.0947266 119.404 1.0224 122.157 3.66425C125.646 6.92119 125.313 11.2671 125.313 15.9963V27.1687C125.313 30.5264 126.704 31.9986 128.015 33.8136C128.479 34.459 128.58 35.2354 127.995 35.7194C126.533 36.9395 123.932 39.2082 122.5 40.4788L122.48 40.4586" fill="#221F1F"/>
<path d="M21.2654 22.984V21.4312C16.0825 21.4312 10.6072 22.5404 10.6072 28.6509C10.6072 31.7465 12.2105 33.8439 14.9632 33.8439C16.9799 33.8439 18.7848 32.6036 19.9243 30.5869C21.3359 28.1064 21.2654 25.7771 21.2654 22.984M28.4951 40.4586C28.0212 40.8821 27.3356 40.9123 26.8011 40.63C24.4215 38.6537 23.9979 37.7361 22.6871 35.8505C18.7546 39.8637 15.9716 41.0636 10.8694 41.0636C4.83948 41.0636 0.140625 37.3428 0.140625 29.8912C0.140625 24.0731 3.29673 20.1103 7.78384 18.1743C11.676 16.4601 17.111 16.1576 21.2654 15.6837V14.756C21.2654 13.0519 21.3964 11.0352 20.3982 9.56305C19.5209 8.24212 17.8471 7.69761 16.3749 7.69761C13.6423 7.69761 11.2021 9.0992 10.6072 12.0032C10.4862 12.6486 10.0123 13.2838 9.36694 13.3141L2.40939 12.5679C1.82455 12.4368 1.17921 11.9629 1.34055 11.0655C2.94381 2.63575 10.5568 0.0947266 17.3732 0.0947266C20.862 0.0947266 25.4197 1.0224 28.1725 3.66425C31.6613 6.92119 31.3286 11.2671 31.3286 15.9963V27.1687C31.3286 30.5264 32.7201 31.9986 34.0309 33.8136C34.4948 34.459 34.5956 35.2354 34.0108 35.7194C32.5487 36.9395 29.9472 39.2082 28.5153 40.4788L28.4951 40.4586" fill="#221F1F"/>
</g>
<defs>
<clipPath id="clip0_4799_307">
<rect width="231.923" height="70" fill="white"/>
</clipPath>
</defs>
</svg>
