<svg width="58" height="70" viewBox="0 0 58 70" fill="none" xmlns="http://www.w3.org/2000/svg">
<g clip-path="url(#clip0_4799_268)">
<path d="M56.1279 23.863C55.7219 24.178 48.5539 28.217 48.5539 37.198C48.5539 47.586 57.6749 51.261 57.9479 51.352C57.9059 51.576 56.4989 56.385 53.1389 61.285C50.1429 65.597 47.0139 69.902 42.2539 69.902C37.4939 69.902 36.2689 67.137 30.7739 67.137C25.4189 67.137 23.5149 69.993 19.1609 69.993C14.8069 69.993 11.7689 66.003 8.27594 61.103C4.22994 55.349 0.960938 46.41 0.960938 37.926C0.960938 24.318 9.80894 17.101 18.5169 17.101C23.1439 17.101 27.0009 20.139 29.9059 20.139C32.6709 20.139 36.9829 16.919 42.2469 16.919C44.2419 16.919 51.4099 17.101 56.1279 23.863V23.863ZM39.7479 11.158C41.9249 8.575 43.4649 4.991 43.4649 1.407C43.4649 0.91 43.4229 0.406 43.3319 0C39.7899 0.133 35.5759 2.359 33.0349 5.306C31.0399 7.574 29.1779 11.158 29.1779 14.791C29.1779 15.337 29.2689 15.883 29.3109 16.058C29.5349 16.1 29.8989 16.149 30.2629 16.149C33.4409 16.149 37.4379 14.021 39.7479 11.158Z" fill="black"/>
</g>
<defs>
<clipPath id="clip0_4799_268">
<rect width="56.98" height="70" fill="white" transform="translate(0.960938)"/>
</clipPath>
</defs>
</svg>
