<svg width="215" height="70" viewBox="0 0 215 70" fill="none" xmlns="http://www.w3.org/2000/svg">
<g clip-path="url(#clip0_4799_316)">
<path d="M83.0151 61.063C75.0604 55.9388 64.2649 55.0396 46.8545 59.8699C28.294 64.2315 22.1057 67.0275 13.9786 61.4147C10.8564 58.6575 9.737 54.2181 10.5729 47.8235C12.5116 37.3991 17.7508 27.3673 27.0568 16.2396C32.2513 10.451 37.0696 5.48334 43.4322 3.48852C48.3085 2.23712 47.8526 6.06936 47.2626 6.61743C46.64 6.61743 45.594 6.71551 44.7857 7.243C44.1297 7.7518 42.3288 9.39468 42.2321 11.6046C42.0926 14.9877 45.5938 14.2835 47.1039 12.4261C48.7315 10.3329 51.137 6.32456 49.2448 2.58878C48.4517 1.25908 47.0814 0.3401 45.38 0.027182C39.554 -0.305778 34.128 2.47147 29.1206 5.54186C18.1692 13.1494 9.40885 23.6908 4.45187 35.2295C1.59392 42.1915 -0.99066 52.1642 2.88354 60.2811C5.88044 65.9131 12.1025 68.9047 19.5256 68.2791C24.732 67.7321 31.0275 66.0494 35.2616 65.0334C39.4957 64.0159 61.1699 56.5654 68.2914 69.5324C68.2914 69.5324 70.6595 64.9354 76.5777 64.8373C81.4433 64.3884 88.4625 66.2458 93.5742 70C91.8712 67.439 87.043 63.6645 83.0151 61.063V61.063Z" fill="#E61D2A"/>
<path d="M49.0625 17.5497C45.0087 14.89 36.8611 19.9748 30.3352 28.6966C24.3676 36.5201 21.7908 45.6129 24.595 49.8177C28.7666 54.7653 36.5107 47.5687 39.804 43.7167L40.2289 43.2664C42.4685 40.8609 44.1987 37.9663 45.8734 35.1891C45.8734 35.1891 47.4126 32.6467 47.4861 32.5292C48.4374 32.3539 49.5833 32.08 50.8745 31.7082C50.8561 31.7665 45.9344 40.0392 46.4365 44.1453C46.5928 45.3981 46.4733 49.9743 50.9413 51.3625C56.8961 52.3606 61.6511 47.7446 65.8459 43.6376C65.8459 43.6376 66.5608 42.9538 66.9651 42.5634C66.8627 42.973 66.7294 43.5195 66.7294 43.5195C64.986 49.5823 67.336 50.8542 68.806 51.3237C73.2485 52.6152 78.5559 46.161 78.573 46.161C78.4353 48.194 78.0329 49.8759 80.176 51.2254C82.1989 51.9496 84.2461 50.8457 85.8021 49.8091C91.4071 45.8588 95.9227 39.676 99.57 34.3316H97.2436C97.216 34.3316 91.5028 42.6123 87.793 44.412C87.7871 44.412 87.1121 44.7586 86.723 44.4844C86.2415 44.0735 86.4315 43.2194 86.7289 42.6144C86.7476 42.5749 101.053 17.7638 101.053 17.7638H94.2985C94.2985 17.7638 93.5607 18.9574 93.5006 19.0357C93.4551 18.9967 93.3469 18.7915 93.2718 18.6932C89.0871 12.9046 79.6106 21.8084 72.476 32.1339C69.7292 36.1043 66.2321 40.5747 62.6059 43.8014C62.6059 43.8014 57.2339 48.7258 54.9384 45.1878C54.0994 43.7012 54.3575 41.5279 54.8307 40.1007C57.5032 32.4931 62.1083 25.5888 67.3485 21.4228C68.8279 20.2698 70.4358 19.9363 71.2337 20.4253C71.9939 20.8758 72.1166 21.9896 71.6356 22.7525C70.4152 22.7135 69.4374 23.0844 68.6424 23.9059C67.0765 25.5488 66.5324 27.1331 67.0303 28.6197C69.4489 32.0615 74.2725 25.2556 74.0393 21.1097C73.9559 19.6231 73.1628 18.2154 71.9792 17.5302C70.2153 16.4747 67.5244 16.748 65.7829 17.5895C63.4516 18.4692 59.7613 21.5393 57.6072 23.9256C54.8954 26.9183 50.2447 30.2425 48.7902 29.8703C49.2666 28.5986 53.1951 20.561 49.0625 17.5497V17.5497ZM81.6265 29.4401C82.9405 27.6216 86.7647 22.7517 87.697 21.9306C90.8326 19.172 92.0859 20.3857 92.1944 21.2457C89.268 26.4867 85.8142 32.4909 82.5669 37.8888C82.5736 37.8696 81.5506 39.4337 81.5506 39.4337C80.1164 41.6236 78.6724 43.5011 76.3168 44.8113C75.9809 44.9096 75.4272 44.9489 75.0587 44.6742C74.6151 44.3808 74.4401 43.8917 74.4901 43.383C74.6312 41.7016 76.3433 36.5591 81.6265 29.4401V29.4401ZM44.882 32.5885C44.882 32.5885 44.8232 32.7651 44.7941 32.8228C44.7866 32.8228 41.8493 37.6136 41.8493 37.6136C40.0766 39.9804 37.8632 42.9538 35.0963 44.3808C34.2762 44.6547 33.1427 44.831 32.5649 44.1079C31.3402 42.6409 31.9714 40.607 32.4842 38.9644L32.6657 38.3776C34.1359 34.3885 36.4688 30.8676 38.7394 27.6016C38.7677 27.5823 38.8313 27.5628 38.8543 27.5628C38.8596 27.5823 38.8687 27.5823 38.8727 27.6216C40.2976 30.359 42.9692 31.6297 44.9673 32.2173C44.9793 32.2173 44.9921 32.2368 44.9921 32.2761C44.9924 32.3343 44.9598 32.4132 44.882 32.5885V32.5885ZM47.6649 26.9372C47.6521 26.9763 46.3566 29.9486 46.3566 29.9486C46.1692 30.1049 45.8732 30.0269 45.5338 29.9486L44.9523 29.8502C43.1264 29.2835 41.7491 28.0708 41.3245 26.6238C40.7387 23.8075 43.1445 21.5976 44.2046 20.7962C45.2217 20.0915 46.8028 19.7201 47.721 20.444C48.2873 21.1091 48.5018 21.9693 48.5018 22.9086C48.5021 24.1795 48.1098 25.607 47.6649 26.9372V26.9372Z" fill="#E61D2A"/>
<path d="M133.059 36.011C132.408 34.6033 130.862 33.7036 129.214 33.8011C123.863 34.2904 118.63 38.6905 115.882 45.0068C114.44 48.2536 113.653 50.9325 113.137 55.1958C114.801 53.2798 118.194 50.1314 122.046 48.4102C122.046 48.4102 122.57 44.323 125.242 40.6853C126.253 39.179 128.277 36.7542 130.549 37.3993C132.534 38.0646 131.836 43.5601 129.198 48.8783C127.246 52.7902 124.258 56.7026 121.235 59.4008C118.563 61.6695 114.609 64.4072 111.149 62.2953C108.97 61.0052 107.859 58.3057 108.094 54.8246C109.135 44.9488 113.63 36.5393 120.064 26.9567C126.697 18.0585 134.01 8.92558 143.86 4.05518C145.869 3.03839 147.73 2.80377 149.338 3.42961C149.338 3.42961 140.092 8.51433 135.684 17.9214C134.562 20.3077 133.003 23.5336 134.573 26.3891C135.394 27.8752 136.851 27.9927 138.024 27.9144C143.427 26.6625 146.918 21.6171 149.77 17.0021C151.424 13.5015 152.893 10.0204 152.893 6.14807C152.893 5.67882 152.869 5.05325 152.829 4.58348C155.411 3.21503 160.704 5.63954 160.704 5.63954C164.84 7.00906 173.647 13.7564 176.618 15.0466C178.068 13.365 180.449 10.8229 181.79 9.55142L179.849 8.35827C176.741 6.46125 173.456 4.66177 170.223 2.88233C162.88 -1.12628 156.903 0.281454 153.861 1.3768C152.665 1.80676 151.572 2.17847 151.572 2.17847C149.315 -0.285593 145.613 -0.0515061 142.885 0.613879C133.074 3.42987 123.965 10.294 114.199 22.2044C107.019 31.5332 102.566 39.5907 100.192 47.55C98.3625 52.9081 97.8064 60.7895 102.272 65.4638C106.069 69.4326 111.104 68.5729 114.659 67.1457C122.363 63.3517 129.286 55.1765 132.736 45.7697C133.568 42.9735 134.492 39.0232 133.059 36.011V36.011ZM150.772 6.53955C149.752 18.2346 140.662 25.0995 138.413 25.6463C137.049 25.9196 134.724 25.3138 136.8 20.4057C139.858 13.7949 145.078 8.1827 150.679 5.30765C150.816 5.79667 150.812 6.10878 150.772 6.53955V6.53955Z" fill="#E61D2A"/>
<path d="M204.696 8.02506C199.806 10.8026 194.737 12.6013 188.601 11.9757C186.901 13.8927 185.245 15.8678 183.719 17.9014C192.331 20.0918 201.462 15.2222 206.553 10.5877C211.94 5.91346 214.702 0.0273438 214.702 0.0273438C214.702 0.0273438 210.665 4.64228 204.696 8.02506Z" fill="#E61D2A"/>
<path d="M108.663 23.6431L112.283 17.7642H105.868L102.25 23.6431H108.663Z" fill="#E61D2A"/>
<path d="M188.572 61.6072C187.883 62.0765 186.914 61.7157 187.276 60.6404C188.179 57.9024 191.766 52.3228 191.766 52.3228L201.759 34.599H194.914C194.589 35.1334 193.893 36.3608 193.893 36.3608C193.576 35.8333 192.629 34.6602 192.24 34.4069C190.567 33.35 188.114 33.8497 186.421 34.8077C179.062 39.1108 173.693 47.6125 169.458 54.2425C169.458 54.2425 165.001 61.6126 162.526 62.1606C160.594 62.3172 160.794 59.715 160.877 59.1087C161.624 54.7273 163.359 50.5621 165.107 46.7876C168.661 44.3235 172.717 41.0968 176.404 37.5571C184.404 29.9098 191.148 21.2461 192.134 19.3101C192.134 19.3101 191.067 19.5255 189.807 19.5642C183.652 28.1496 171.058 40.6273 167.239 42.4847C168.931 38.4163 179.859 18.9969 189.16 9.70771L190.623 8.29917C192.886 6.08924 195.231 3.82079 197.058 3.44908C197.251 3.42957 197.5 3.44908 197.714 3.89962C197.796 5.62027 197.155 6.89171 196.42 8.33872L195.39 10.4511C195.39 10.4511 196.849 10.1772 197.807 9.8635C198.919 7.77194 200.15 5.42439 199.696 2.62844C199.545 1.7287 198.893 1.04434 198.042 0.887748C195.268 0.359715 192.244 2.41252 189.812 4.07545L189.713 4.1337C177.207 13.9317 166.646 28.0518 157.413 47.3348C156.744 47.8426 154.159 48.4494 153.719 48.1557C154.631 46.2788 155.779 43.7554 156.354 41.0174C156.453 40.235 156.546 39.4336 156.546 38.6514C156.546 36.9682 156.141 35.3846 154.634 34.2898C152.866 33.4096 150.681 33.8206 149.207 34.4852C142.607 37.2231 137.675 43.9903 134.115 49.5632C132.201 53.1039 130.292 56.8961 129.764 61.2384C129.391 64.6407 130.149 66.8311 132.084 67.9268C134.073 68.943 136.577 67.8867 137.561 67.3787C144.247 63.8586 148.918 56.7991 152.601 50.3448C152.747 50.3256 154.758 50.2673 156.279 49.8756C156.299 49.8756 156.308 49.8756 156.341 49.8962C156.254 50.1882 155.468 52.5358 155.468 52.5358C153.134 59.3802 152.055 64.0352 154.26 66.7921C157.41 70.6842 162.625 66.6559 166.868 61.3354C165.957 67.7108 169.262 68.7087 171.78 68.2202C174.673 67.4383 177.897 64.3476 179.394 62.764C178.913 64.6215 179.044 67.9465 181.676 68.2787C183.48 68.6122 184.83 67.6309 186.392 66.7897C191.995 63.7386 198.703 53.5715 200.444 50.6321H198.161C195.685 54.3735 192.535 59.2789 188.572 61.6072V61.6072ZM138.276 60.9263C137.921 60.3983 137.803 59.8208 137.791 59.1966C137.723 55.3619 141.849 48.4946 144.761 44.7535C144.767 44.7535 144.767 44.7535 144.767 44.7535C145.988 47.4257 148.751 49.1434 150.419 49.8673C148.347 54.483 141.241 64.3682 138.276 60.9263V60.9263ZM151.589 47.8038C151.391 47.9414 147.906 46.7675 147.233 43.5408C146.662 40.7628 148.575 38.5921 150.426 37.4978C151.22 36.8717 152.417 36.6571 153.294 36.9687C154.109 37.5171 154.33 38.4956 154.33 39.5501C154.33 40.1968 154.244 40.8611 154.169 41.4671C154.169 41.4671 154.154 41.585 154.152 41.6045C153.571 43.7746 152.683 45.9065 151.589 47.8038V47.8038ZM179.539 59.6944C179.536 59.6944 178.878 60.281 178.878 60.281C177.938 61.1214 176.971 62.0211 175.803 61.5711C175.48 61.4538 175.254 61.0241 175.199 60.6906C175.146 58.2851 176.229 56.0562 177.28 53.8858L177.549 53.3182C180.571 48.2728 184.083 42.3276 189.242 38.2017C190.111 37.5745 191.054 37.0476 192.05 37.4585C192.279 37.6731 192.546 38.0451 192.546 38.4163C192.546 38.5341 192.441 38.8468 192.381 38.944C190.94 41.2723 189.568 43.7166 188.234 46.0631C185.626 50.6984 182.921 55.4891 179.539 59.6944V59.6944Z" fill="#E61D2A"/>
</g>
<defs>
<clipPath id="clip0_4799_316">
<rect width="213.778" height="70" fill="white" transform="translate(0.921875)"/>
</clipPath>
</defs>
</svg>
