<svg width="71" height="70" viewBox="0 0 71 70" fill="none" xmlns="http://www.w3.org/2000/svg">
<g clip-path="url(#clip0_4799_300)">
<path d="M35.9251 3.99067C27.3651 3.99067 19.613 7.46275 14.0005 13.0796C8.38572 18.6837 4.91579 26.44 4.91579 35.0042C4.91579 43.562 8.38572 51.313 14.0005 56.9192C19.613 62.5286 27.3651 66.0071 35.9251 66.0071C44.4871 66.0071 52.2435 62.5286 57.8475 56.9192C63.4601 51.313 66.9226 43.562 66.9226 35.0042C66.9226 26.44 63.4601 18.6837 57.8475 13.0796C52.2435 7.46275 44.4871 3.99067 35.9251 3.99067ZM35.9251 0.233267C55.1235 0.233267 70.6896 15.8015 70.6896 35.0042C70.6896 54.2005 55.1235 69.7666 35.9251 69.7666C16.7287 69.7666 1.15625 54.2005 1.15625 35.0042C1.15625 15.8015 16.7287 0.233267 35.9251 0.233267" fill="#007DB8"/>
<path d="M19.4789 34.7211C19.4789 32.6949 18.1345 31.544 16.2312 31.544H15.0664V37.9003H16.1981C17.9678 37.9003 19.4789 36.9385 19.4789 34.7211ZM40.1991 37.008L31.6177 43.7651L23.7749 37.5904C22.6432 40.3091 19.9085 42.1974 16.7591 42.1974H10.0469V27.2447H16.7591C20.2782 27.2447 22.8141 29.4825 23.7727 31.8667L31.6177 25.6984L34.5234 27.9853L27.3335 33.6364L28.7153 34.7179L35.9031 29.07L38.813 31.3505L31.6242 37.008L33.0038 38.0916L40.1991 32.4331V27.2447H45.4152V37.833H50.6185V42.2156H40.1991V37.008V37.008ZM57.226 37.8352H62.4272V42.2156H52.0045V27.2447H57.226V37.8352V37.8352Z" fill="#007DB8"/>
</g>
<defs>
<clipPath id="clip0_4799_300">
<rect width="70" height="70" fill="white" transform="translate(0.921875)"/>
</clipPath>
</defs>
</svg>
