<svg width="71" height="70" viewBox="0 0 71 70" fill="none" xmlns="http://www.w3.org/2000/svg">
<g clip-path="url(#clip0_4799_260)">
<path d="M70.1766 35.7873C70.1766 33.4832 69.9724 31.2957 69.6224 29.1665H36.6641V42.3207H55.5349C54.6891 46.6373 52.2099 50.2832 48.5349 52.7623V61.5123H59.7932C66.3849 55.4165 70.1766 46.4332 70.1766 35.7873Z" fill="#4285F4"/>
<path d="M36.6672 70C46.1172 70 54.0214 66.85 59.7964 61.5125L48.538 52.7625C45.388 54.8625 41.3922 56.1459 36.6672 56.1459C27.538 56.1459 19.8089 49.9917 17.038 41.6792H5.42969V50.6917C11.1755 62.125 22.988 70 36.6672 70Z" fill="#34A853"/>
<path d="M17.0349 41.6789C16.3057 39.5789 15.9266 37.3331 15.9266 34.9998C15.9266 32.6664 16.3349 30.4206 17.0349 28.3206V19.3081H5.42656C3.03489 24.0331 1.66406 29.3414 1.66406 34.9998C1.66406 40.6581 3.03489 45.9664 5.42656 50.6914L17.0349 41.6789Z" fill="#FBBC05"/>
<path d="M36.6672 13.8542C41.8297 13.8542 46.438 15.6333 50.0839 19.1042L60.0589 9.12917C54.0214 3.47084 46.1172 0 36.6672 0C22.988 0 11.1755 7.87501 5.42969 19.3083L17.038 28.3208C19.8089 20.0083 27.538 13.8542 36.6672 13.8542Z" fill="#EA4335"/>
</g>
<defs>
<clipPath id="clip0_4799_260">
<rect width="70" height="70" fill="white" transform="translate(0.921875)"/>
</clipPath>
</defs>
</svg>
