<svg width="135" height="70" viewBox="0 0 135 70" fill="none" xmlns="http://www.w3.org/2000/svg">
<path fill-rule="evenodd" clip-rule="evenodd" d="M23.3984 42.8514C22.333 42.8514 21.4988 43.5968 21.4988 44.6844C21.4988 45.7727 22.3373 46.5138 23.3984 46.5138C24.4588 46.5138 25.2979 45.7677 25.2979 44.6844C25.2979 43.5968 24.4631 42.8514 23.3984 42.8514ZM23.3984 45.9896C22.6387 45.9896 22.0752 45.4347 22.0752 44.6844C22.0752 43.9347 22.6344 43.3755 23.3984 43.3755C24.153 43.3755 24.7208 43.9433 24.7208 44.6844C24.7208 45.4211 24.148 45.9896 23.3984 45.9896ZM41.8821 36.4403H32.6349L33.686 20.3674L27.6808 36.4403H19.0938L32.7186 0.11084H41.8556L40.8009 16.4043L46.9199 0.11084H55.5077L41.8821 36.4403ZM42.9976 36.4403L56.6218 0.11084H65.2088L51.5847 36.4403H42.9976Z" fill="black"/>
<path fill-rule="evenodd" clip-rule="evenodd" d="M18.1008 23.918C6.1012 38.0097 -5.21814 56.7598 4.78017 65.3941C14.4685 73.7614 26.5783 68.8073 34.8352 65.5044C43.0922 62.2014 134.357 22.5691 134.357 22.5691C135.237 22.1287 135.073 21.5781 133.971 21.8531C133.527 21.964 34.6154 48.7699 34.6154 48.7699C22.0638 52.2933 7.75231 44.6142 18.1008 23.918V23.918Z" fill="black"/>
<path fill-rule="evenodd" clip-rule="evenodd" d="M23.7184 44.8134C23.9848 44.8005 24.1931 44.663 24.1931 44.2943C24.1931 43.8189 23.8824 43.6993 23.3633 43.6993H22.6172V45.6704H23.1148V44.8313H23.1986L23.6518 45.6704H24.2239L23.7184 44.8134V44.8134ZM23.3991 44.494H23.1155V44.0365H23.3547C23.5015 44.0365 23.6697 44.0537 23.6697 44.2449C23.6697 44.4497 23.5723 44.494 23.3991 44.494ZM109.715 0C108.65 0 107.815 0.746077 107.815 1.83297C107.815 2.92059 108.655 3.66165 109.715 3.66165C110.775 3.66165 111.615 2.91558 111.615 1.83297C111.615 0.746077 110.781 0 109.715 0ZM109.715 3.13897C108.955 3.13897 108.392 2.58407 108.392 1.83369C108.392 1.08403 108.951 0.524831 109.715 0.524831C110.47 0.524831 111.038 1.09263 111.038 1.83369C111.038 2.57046 110.465 3.13897 109.715 3.13897Z" fill="black"/>
<path fill-rule="evenodd" clip-rule="evenodd" d="M110.041 1.96172C110.308 1.94883 110.517 1.81136 110.517 1.44261C110.517 0.967184 110.205 0.84761 109.687 0.84761H108.941V2.81806H109.438V1.97962H109.522L109.975 2.81806H110.547L110.041 1.96172ZM109.721 1.64238H109.438V1.18485H109.677C109.824 1.18485 109.992 1.20275 109.992 1.39392C109.992 1.59798 109.894 1.64238 109.721 1.64238V1.64238ZM104.059 6.1661L106.367 0.11084H80.1651L71.1685 11.0099L75.322 0.11084H66.6247L53.1094 36.4403H61.6964L67.4667 21.2481L67.862 36.4403L94.2103 36.383L96.7184 29.3948H86.7008L89.9923 20.5879H98.2486L100.789 13.8173H92.5327L95.3631 6.1661H104.059V6.1661ZM76.381 34.018L75.8304 15.0832L88.8137 0.828277L76.381 34.018V34.018Z" fill="black"/>
</svg>
