<svg width="295" height="70" viewBox="0 0 295 70" fill="none" xmlns="http://www.w3.org/2000/svg">
<path fill-rule="evenodd" clip-rule="evenodd" d="M281.093 14.4853V22.6458C276.865 21.0498 273.101 20.2428 269.807 20.2428C267.856 20.2428 266.302 20.6042 265.134 21.3028C263.965 22.0074 263.369 22.8747 263.369 23.8985C263.369 25.2596 264.688 26.47 267.344 27.5542L275.016 31.2881C281.22 34.2452 284.297 38.1718 284.297 43.1043C284.297 47.2056 282.665 50.4759 279.371 52.8969C276.101 55.3421 271.698 56.5526 266.218 56.5526C263.688 56.5526 261.418 56.4442 259.4 56.2153C257.383 55.9986 255.064 55.5528 252.492 54.9144V46.3745C257.208 47.9705 261.502 48.7775 265.368 48.7775C269.982 48.7775 272.276 47.4405 272.276 44.7424C272.276 43.3994 271.337 42.3154 269.428 41.4661L260.906 37.8345C257.762 36.4133 255.425 34.6908 253.896 32.6492C252.39 30.5895 251.625 28.2287 251.625 25.5306C251.625 21.7544 253.215 18.7131 256.359 16.4004C259.527 14.1058 263.73 12.9556 268.958 12.9556C270.656 12.9556 272.614 13.1061 274.782 13.3831C276.968 13.6782 279.07 14.0396 281.093 14.4853V14.4853Z" fill="#009999"/>
<path fill-rule="evenodd" clip-rule="evenodd" d="M39.7314 14.4853V22.6458C35.5035 21.0498 31.7455 20.2428 28.4512 20.2428C26.4938 20.2428 24.9461 20.6042 23.7777 21.3028C22.6094 22.0074 22.0131 22.8747 22.0131 23.8985C22.0131 25.2596 23.3501 26.47 26.0061 27.5542L33.6788 31.2881C39.8578 34.2452 42.9414 38.1718 42.9414 43.1043C42.9414 47.2056 41.3033 50.4759 38.033 52.8969C34.7387 55.3421 30.3603 56.5526 24.8618 56.5526C22.3323 56.5526 20.0558 56.4442 18.0382 56.2153C16.0207 55.9986 13.7261 55.5528 11.1365 54.9144V46.3745C15.8702 47.9705 20.1643 48.7775 24.0066 48.7775C28.6199 48.7775 30.9145 47.4405 30.9145 44.7424C30.9145 43.3994 29.9809 42.3154 28.0898 41.4661L19.568 37.8345C16.4001 36.4133 14.0634 34.6908 12.5578 32.6492C11.028 30.5895 10.2812 28.2287 10.2812 25.5306C10.2812 21.7544 11.8592 18.7131 15.021 16.4004C18.1648 14.1058 22.3745 12.9556 27.6021 12.9556C29.3185 12.9556 31.2517 13.1061 33.4438 13.3831C35.612 13.6782 37.7138 14.0396 39.7314 14.4853V14.4853Z" fill="#009999"/>
<path fill-rule="evenodd" clip-rule="evenodd" d="M48.5234 13.7202H61.0203V55.7876H48.5234V13.7202Z" fill="#009999"/>
<path fill-rule="evenodd" clip-rule="evenodd" d="M101.282 13.7202V21.4954H82.7143V30.8242H98.8187V37.8344H82.7143V47.6271H101.661V55.7876H70.6875V13.7202H101.282Z" fill="#009999"/>
<path fill-rule="evenodd" clip-rule="evenodd" d="M159.623 13.7202V55.7876H147.957V28.0418L135.852 56.173H128.649L117.008 28.0418V55.7876H108.57V13.7202H123.825L134.238 39.4725L145.133 13.7202H159.623Z" fill="#009999"/>
<path fill-rule="evenodd" clip-rule="evenodd" d="M199.868 13.7202V21.4954H181.402V30.8242H197.506V37.8344H181.402V47.6271H200.247V55.7876H169.273V13.7202H199.868Z" fill="#009999"/>
<path fill-rule="evenodd" clip-rule="evenodd" d="M243.711 13.7202V55.7876H230.456L215.581 28.8066V55.7876H207.148V13.7202H220.79L235.28 40.2375V13.7202H243.711Z" fill="#009999"/>
</svg>
