<svg width="43" height="58" viewBox="0 0 43 58" fill="none" xmlns="http://www.w3.org/2000/svg">
<path d="M41.2629 12.8811H38.7274C38.2619 12.8811 37.8848 13.2584 37.8848 13.7237C37.8848 14.189 38.2619 14.5663 38.7274 14.5663H41.2628C41.7282 14.5663 42.1053 14.189 42.1053 13.7237C42.1053 13.2584 41.7282 12.8811 41.2629 12.8811Z" fill="#D8AF53"/>
<path d="M38.3143 11.2555C38.4472 11.2555 38.5821 11.224 38.7077 11.1575L40.9485 9.9712C41.3597 9.75347 41.5167 9.24354 41.299 8.83225C41.0812 8.42106 40.5712 8.26389 40.16 8.48184L37.9193 9.66809C37.508 9.88582 37.351 10.3958 37.5688 10.807C37.7201 11.0926 38.0121 11.2555 38.3143 11.2555Z" fill="#D8AF53"/>
<path d="M37.9193 17.7793L40.16 18.9656C40.2856 19.0321 40.4205 19.0636 40.5534 19.0636C40.8555 19.0636 41.1476 18.9007 41.299 18.6152C41.5167 18.2039 41.3597 17.6939 40.9485 17.4762L38.7077 16.2899C38.2964 16.072 37.7866 16.2292 37.5688 16.6403C37.351 17.0518 37.508 17.5616 37.9193 17.7793Z" fill="#D8AF53"/>
<path d="M37.2681 21.8686H36.2311V17.7961C36.2311 16.9598 35.5508 16.2794 34.7145 16.2794H31.5688C30.7325 16.2794 30.0521 16.9598 30.0521 17.7961V21.8686H12.3668V15.2863C12.3668 10.3687 16.3098 6.34396 21.156 6.31441C21.1735 6.3143 21.191 6.3143 21.2087 6.3143C24.7415 6.3143 27.9258 8.40853 29.3319 11.6626C29.6145 12.3139 30.3023 12.6758 31.003 12.5428L34.1521 11.9474C34.5921 11.8641 34.9708 11.5925 35.1911 11.2021C35.4116 10.8115 35.4482 10.3467 35.2918 9.92653C33.1088 4.0674 27.4524 0.135437 21.2101 0.135437C21.2022 0.135437 21.1936 0.135437 21.1855 0.135437C12.9157 0.148469 6.18769 6.95972 6.18769 15.3189V21.8686H5.15086C2.66185 21.8686 0.636719 23.8941 0.636719 26.3837V47.0069C0.636719 47.4722 1.01386 47.8495 1.47931 47.8495C1.94475 47.8495 2.32189 47.4722 2.32189 47.0069V46.0819H5.75595C7.02589 46.0819 8.05902 45.0487 8.05902 43.7788C8.05902 42.5088 7.02589 41.4757 5.75595 41.4757H2.32189V38.0495H5.75595C7.02589 38.0495 8.05902 37.0164 8.05902 35.7465C8.05902 34.4765 7.02589 33.4434 5.75595 33.4434H2.32189V26.3837C2.32189 24.8233 3.59094 23.5538 5.15086 23.5538H11.3332L8.44683 27.3602C8.04239 27.8934 8.03273 28.6168 8.42257 29.1603L10.2511 31.7108L9.7042 33.321C9.51074 33.891 9.72038 34.4937 10.2255 34.8208C10.445 34.9631 10.6891 35.033 10.9312 35.033C11.2462 35.033 11.5579 34.9145 11.8072 34.6829L14.5748 32.1112C15.1326 31.593 15.2187 30.7354 14.775 30.1164L13.4934 28.3289L17.1149 23.5538H37.2681C38.8279 23.5538 40.0969 24.8233 40.0969 26.3837V26.5455H32.1912C31.4198 26.5455 30.7316 27.0634 30.5174 27.8064L29.127 32.6567C29.1229 32.6707 29.1151 32.6826 29.1056 32.6896L26.4654 34.5864C26.3654 33.2726 25.7734 32.0282 24.8037 31.1245C23.7221 30.1163 22.3095 29.6189 20.8293 29.7231C18.2341 29.9059 16.1367 32.0005 15.9508 34.5954C15.8118 36.5326 16.7406 38.3844 18.3745 39.428C18.4054 39.4478 18.4239 39.4795 18.4239 39.5127V40.3616L13.5645 43.8523C12.9865 44.2679 12.7172 45.01 12.8941 45.698L14.4638 51.8297C14.4682 51.8466 14.4638 51.8647 14.4521 51.8787L11.0366 55.9709H5.15086C3.59094 55.9709 2.32189 54.702 2.32189 53.1421V50.939C2.32189 50.4737 1.94475 50.0964 1.47931 50.0964C1.01386 50.0964 0.636719 50.4737 0.636719 50.939V53.1421C0.636719 55.6311 2.66174 57.6561 5.15086 57.6561H37.2681C39.7571 57.6561 41.7821 55.6312 41.7821 53.1421V26.3837C41.7821 23.8941 39.7571 21.8686 37.2681 21.8686ZM5.75606 43.1609C6.0968 43.1609 6.37396 43.4381 6.37396 43.7788C6.37396 44.1195 6.0968 44.3967 5.75606 44.3967H2.32189V43.1609H5.75606ZM5.75606 35.1286C6.0968 35.1286 6.37396 35.4057 6.37396 35.7465C6.37396 36.0872 6.0968 36.3644 5.75606 36.3644H2.32189V35.1286H5.75606ZM31.7372 17.9646H34.5458V21.8686H31.7372V17.9646ZM7.87298 15.3189C7.87298 7.88747 13.8462 1.83218 21.1883 1.82061H21.2101C26.6853 1.82061 31.6541 5.2295 33.6416 10.3287L30.8207 10.8621C29.1196 7.06499 25.3676 4.62901 21.2086 4.62901C21.1879 4.62901 21.1665 4.62901 21.1458 4.62913C15.3757 4.66429 10.6814 9.44502 10.6814 15.2862V21.8685H7.87275V15.3189H7.87298ZM12.0756 27.4097C11.6712 27.9427 11.6616 28.6662 12.0514 29.2099L13.3189 30.9776L11.8007 32.3884L11.8746 32.1706C12.0314 31.7087 11.9555 31.1961 11.6711 30.7993L9.86452 28.2796L13.4481 23.5538H14.9999L12.0756 27.4097ZM40.0969 51.9873V53.1422C40.0969 53.1968 40.095 53.2508 40.092 53.3046L34.3666 51.1614L33.3215 48.5393L35.3525 50.1339C35.4735 50.2296 35.6093 50.3064 35.7594 50.3632L40.0969 51.9873ZM40.0969 36.3644H36.6629C36.3221 36.3644 36.045 36.0872 36.045 35.7465C36.045 35.4057 36.3221 35.1286 36.6629 35.1286H40.0969V36.3644ZM40.0969 44.3967H36.6629C36.3221 44.3967 36.045 44.1195 36.045 43.7788C36.045 43.4381 36.3221 43.1609 36.6629 43.1609H40.0969V44.3967ZM17.6315 34.7159C17.758 32.9521 19.1835 31.5284 20.9477 31.4041C21.036 31.3979 21.1237 31.3948 21.2114 31.3948C22.1238 31.3948 22.9832 31.7315 23.6548 32.3572C24.3914 33.0438 24.797 33.976 24.797 34.9823C24.797 36.2097 24.1792 37.3391 23.1443 38.0034C22.622 38.3387 22.31 38.9032 22.31 39.5136V47.0298C22.31 47.6254 21.8259 48.1189 21.2309 48.1301C20.9468 48.1348 20.6756 48.0236 20.4635 47.8155C20.2382 47.5945 20.1091 47.2895 20.1091 46.9789V39.5127C20.1091 38.9013 19.7999 38.3387 19.2818 38.0077C18.1692 37.2974 17.5368 36.036 17.6315 34.7159ZM37.2681 55.9709H13.2316L15.7465 52.9578C16.1042 52.5285 16.2348 51.9498 16.0961 51.4108L14.5264 45.2793C14.5209 45.2579 14.5299 45.2338 14.548 45.2207L18.4237 42.4366V46.9789C18.4237 47.7391 18.7369 48.4823 19.2828 49.0182C19.8079 49.5336 20.4907 49.8155 21.2105 49.8155C21.2277 49.8155 21.2451 49.8154 21.2623 49.8151C22.769 49.7869 23.9949 48.5374 23.9949 47.0299V39.5137C23.9949 39.4799 24.0172 39.4455 24.0544 39.4216C25.0083 38.8092 25.7206 37.9275 26.119 36.9099L30.0889 34.0579C30.404 33.8313 30.6372 33.4999 30.7462 33.123L32.1367 28.272C32.1438 28.2473 32.1657 28.2307 32.191 28.2307H40.0967V33.4434H36.6626C35.3927 33.4434 34.3596 34.4765 34.3596 35.7465C34.3596 37.0164 35.3927 38.0495 36.6626 38.0495H40.0967V41.4757H36.6626C35.3927 41.4757 34.3596 42.5088 34.3596 43.7788C34.3596 45.0487 35.3927 46.0819 36.6626 46.0819H40.0967V50.1879L36.3747 48.7942L33.8701 46.8277C33.3234 46.3979 32.5819 46.3889 32.0249 46.8051C31.4678 47.2215 31.2665 47.9353 31.524 48.5818L32.829 51.8562C32.988 52.2524 33.3078 52.5651 33.7055 52.7135L39.4968 54.8812C38.9785 55.5438 38.1724 55.9709 37.2681 55.9709Z" fill="#D8AF53"/>
</svg>
